<svg xmlns="http://www.w3.org/2000/svg" viewBox="0 0 80.1 87.9"><style><![CDATA[.P{fill:#202020}.Q{fill:#732d40}]]></style><path d="M42.9 34.7l-2.6-1.5 9.2-15.8 2.6 1.5z" class="Q"/><g class="P"><path d="M42.7 34.9c.2 0 0-.2.1 0-.1 0-.1.1-.1 0zm.6-.5c-.1-.6.6-1 .7-1.6 0-.1.2.1.2 0 0-.6.6-1.3 1.1-1.7v.1c.1-.1 0-.3.1-.4 0 0 0 .1.1.1-.1-.1.1-.2 0-.3h.2l-.1-.1c-.2-.3.3-.4.3-.8 0 0 0 .1.1.1.1-.5.4-1 .6-1.5 0 0 .1.1.2.1-.1-.1-.1-.3 0-.4.2 0 0-.3.2-.4-.1-.2.2-.1.1-.3h.1c-.2-.1.2-.1.1-.2 0-.1.1-.1.1-.2 0-.2.2-.2.1-.3.2 0 0 .2.2.2.2-.7.6-1.2.9-1.8.1 0 .1-.1.2 0 0-.1.1-.2.1-.3h.1c.1-.1-.1-.2 0-.3 0 .1 0 .1.1.1 0-.2 0-.3.1-.4 0 0 0 .1.1.1 0-.2.2-.2.2-.4l.1.1c.2-.1-.1-.1 0-.3 0 0 0 .1.1.1-.1-.2.1-.4.2-.6s.2-.3.3-.5c.1 0 .2.1.3 0-.5-.3-.2-.6-.5-.6.1-.1.3-.3.3-.4 0 .1.2 0 .2.2h.2c.1 0-.1.1 0 .1 0-.1.1-.3.1-.3 0-.2-.2-.4-.1-.6 0 .1.2.1.2.1l-.2-.4c0-.1.1.1.1 0 0 0 0-.1-.1-.1 0 0 .1-.3.3-.2.1 0 0 .1.1.1.1-.1 0-.1.1-.3.1-.1.1-.3-.1-.2 0 0 .1 0 0 .1-.1-.1 0-.3 0-.3l.1.1c-.1-.2-.1-.3-.1-.4-.1 0 .2 0 .1.1.2-.1 0-.2.2-.3h-.1s.1-.1 0-.1c.1 0-.1 0-.1 0-.1 0 0 0 .1 0-.2 0-.4 0-.5-.2 0 0-.2.1-.3 0l.1-.1c0-.1-.2-.1-.1-.2-.2.1.5.1.3.1 0-.1-.3 0-.2-.1-.1-.1-.3 0-.3-.1 0 0 .2-.1.1-.1-.2-.1-.1 0-.2 0h-.1c0 .1-.1 0-.1.1 0-.1-.1 0-.1-.2v-.1s-.1.1-.1.2v-.1c0 .3-.1-.1-.1.1 0-.1-.1-.1-.1-.1h-.1v.2c-.1 0 0 0 0 .1h-.2c0 .1.1.1.2.2-.2-.1 0 .3-.3.3 0 0 0-.2-.1-.1-.2 0 0 .3-.1.4l.2.1c-.1 0 0 .3-.2.2 0 .1-.2.1 0 .2-.3.2-.3.6-.6.6 0 0-.1.1 0 .1s0-.1.1-.1v.1c-.1 0-.1.1-.2 0-.2.1.2.3 0 .5h-.1v.2c-.1.1-.2 0-.3-.1 0 .1-.1.2 0 .3h-.2c.1 0 0 .1 0 .1l-.1.1c.1 0 .2 0 .2-.1v.2c-.1-.1-.1.1-.2.1s0 .1 0 .1c-.1 0-.1.1-.1 0 0 0 .1 0 .1-.1-.1 0-.2 0-.1.1 0 .1.2.1.1.2 0 0 0-.1-.1-.1l-.1-.2.1.1c.1.1-.1.2 0 .3 0 .1-.1.1-.2.1s-.1.2-.1.3c0 0-.1.1 0 .2-.1.1-.4-.2-.3 0-.1.1.1.3.2.3-.2.1-.1.4-.4.5 0 0 .1 0 0 .1-.2.2-.2.6-.5.7 0-.1-.1-.1-.2-.1 0 .1-.1 0 0 .1.1 0 .1.1.2 0 0 .2-.2.4-.3.5.1 0 .1 0 .1.1-.1-.1-.2 0-.2.1l.1.1h-.1s.2.1 0 .2h-.1c0 .1.1.3-.1.4h-.2s0 .2.1.1c-.2.1-.3.2-.4.2.1.4-.2.9-.4 1.2h-.1c-.1.1.1.1 0 .1 0-.1-.2 0-.2-.1-.1.1 0 .2 0 .3.1.1 0-.1.1 0 0 0-.2.1-.1.2-.1 0-.2-.1-.2-.1v.1c-.2 0-.1-.4-.4-.4v.1c-.2 0 0-.3-.2-.1 0 .1.2.3.3.3-.1.1.2.1.1.3-.1 0 .1-.1-.1-.2-.2 0 0 .2-.1.3.1-.1.2.1.2.2-.1.1-.1-.1-.2 0 .1.1 0 .2.2.1.1.1-.1.1 0 .3-.1 0-.2-.3-.3-.2.1 0 0 .3.3.3-.1 0-.2 0-.2-.1-.1 0 .1.3-.2.2l.1.1h-.2c0 .1 0 .3-.2.2 0 0-.1.2.1.2.1-.1 0-.2.2-.1-.2 0-.1.1-.1.2h-.1v.2s-.1-.1-.1 0l.1.1c0 .2-.2-.1-.3.1V30s-.1 0-.1.1c.1.1.2.2.2.3s-.1 0-.1.1v-.2s-.2 0-.3.1c0 .1.1.3.2.2 0 0-.1.1-.2 0 0 .1.1 0 .1.2-.1 0-.3.1-.4.1l-.1-.2v.1c-.1-.2-.1 0-.2-.1v.2c.3 0 .2.3.4.4-.1.2-.5-.1-.3.2.1 0 .2.2.2 0-.1.1.1.2 0 .3 0-.1-.3 0-.3-.2.1 0 .1 0 .1-.1-.1 0-.2-.1-.3 0 0 .1-.1.2 0 .2.1.1 0-.1.1 0 0 .2-.2.1-.1.3 0-.1.2-.1.2 0v.1l-.1-.1c-.2.1.1.1 0 .3L42 32c-.1-.1.2-.2 0-.3-.1.1 0 .2-.1.3v-.1s-.3-.1-.3.2c0 .1.1.1.1.1-.1.2 0 .3-.1.4-.1-.1-.1.2-.2 0 .1 0 .3-.3.2-.4-.2 0 .1-.1 0-.3-.1.1-.3 0-.4 0v.1c.1.1.1 0 .2.1-.1.1-.2.3-.1.5-.1 0-.2-.1-.2-.1 0 .2-.1.2-.2.4.3-.1 0 .1.2.1.1 0 .3-.1.3 0h-.2c.1 0-.2.1 0 .1h-.5c.1.1-.1 0-.2.1v.1c.1 0 .2 0 .3.1 0 .2.3.2.4.2 0 .1-.1.2-.1.3.1.1 0-.2.1 0 .1 0 .2.3.4.1l-.1.1h.1s0 .1-.1.1c0 .2.2.1.3.2v-.1c.2 0 .3.2.5.3l-.1.1h.1c-.1.1 0 .2.1.1l-.4.1c0-.1.2-.1.2-.2s-.2-.2-.2-.1h.1c-.1.1-.2.1-.2.2 0 0 0 .1.1 0h-.3c.1 0 0-.1.1-.1-.1.1-.2.1-.3 0 0-.2-.3 0-.4-.2.1-.1.3-.1.4-.1l-.2-.2c-.1.1-.2.2-.4.2v-.1c-.2 0-.3.1-.4 0-.3-.2-.5-.4-.8-.5h.1c-.2-.1.1-.4.1-.6.3-.3.3-.7.5-.7.2-.4.3-.8.6-1.2l.1.1c0-.1.1 0 .1-.1-.2 0-.1-.2-.1-.3.2-.1.2-.4.3-.6h.1c-.1-.3.2-.4.3-.6 0 0 .2 0 .2-.1-.1-.2 0-.3 0-.5.1-.1.2-.3.3-.4.1-.6.5-1 .6-1.5h.1c0-.6.6-1 .7-1.5l.2.1c.1-.1.1-.3 0-.4.1-.1.1-.4.3-.4.1-.1 0-.2 0-.3.2-.2.3-.3.4-.6 0 0 .1.1.1 0s.2-.3 0-.3c.3-.2.2-.6.5-.8-.1 0 0-.1-.1-.1.1-.2.4-.4.4-.6 0 0 .1.1.1 0s-.1 0-.1-.1c.1-.4.5-.7.7-1 .2-.6.6-1.2.9-1.8 0-.3.4-.3.3-.6.1 0 .1-.2.2-.1 0-.2.3-.4.3-.6v.1c.1 0 .1-.1.1-.1 0-.1.1-.2.2-.3.1-.2.2-.4.3-.5v.2c.1 0 .1-.5.3-.4v-.1c.1-.1.2-.3.3-.4.3.2.7.4 1.1.6l.5.3.3.1c.3.3-.2.4.2.4 0 0 .1-.1 0 0 .1 0 .1.1.1.2s0 .1.1.1c0-.1.1 0 .2-.1.3.3.2.4.6.5h-.1c.2 0 .4.1.5.2-.1.2-.2.4-.1.6l-.4.8-.2.3-.1.2-.4.9-.9 1.7c-.7 1.1-1.2 2.3-2 3.3-.3.2-.3.2-.4.5.1.1-.1.2 0 .3-.3.4-.5.8-.7 1.3 0-.1-.1-.2-.1-.1v.1c0 .1 0 .2.1.1-.5 1.2-1.4 2.1-2 3.1-.2.2-.4.6-.5.9-.7.7-1.2 1.3-1.6 2.3.2-.2-.1-.5 0-.9z"/><path d="M42.5 34.8c0-.1-.1-.2.1-.2-.1.1-.1.2-.1.2zm-1.4-1.9zm.2-.3c.1 0 .1.1.1.1s-.1 0-.1-.1zm.6-.4c0 .1 0 .1 0 0zm-.1-.1s.1 0 .1-.1c-.1 0 0 .2-.1.1zm.9-1.2s0-.1.1-.1c-.1 0 0 .2-.1.1zm.3-.7zm6.2-11.1h-.1zm1.9.4c.1.1 0 0 0 0s0 .1 0 0zM50 22.3h.1z"/></g><path d="M49.3 17.3l-2.6-1.5 10.2-9 2.6 1.6z" class="Q"/><g class="P"><path d="M49.1 17.5c.1.1 0-.1 0 0 .1.1 0 .1 0 0zm.7-.3c0-.5.7-.6.8-1.1 0 0 .1.2.2 0 .1-.5.7-.8 1.3-1v.1c.1 0 .1-.3.2-.3 0 0 0 .1.1.1-.1-.1.1-.2.1-.3.1 0 .1.1.2.1v-.1c-.1-.4.3-.2.4-.5v.1c.1-.4.5-.6.8-1 0 .1.1.1.1.1-.1-.1 0-.2 0-.3.1.1 0-.2.2-.2 0-.2.2 0 .1-.2l.1.1c-.1-.2.2 0 .2-.1s.1 0 .2-.1.2-.1.1-.2c.1.1-.1.1.1.2.3-.5.7-.8 1.1-1.1h.2c0-.1.1-.1.1-.2h.1c.1 0 0-.2.1-.2 0 .1 0 .1.1.1 0-.1.1-.2.1-.3v.1c0-.2.2-.1.2-.3v.1c.2 0-.1-.2.1-.2v.1c0-.2.2-.3.2-.4l.3-.3c.1 0 .1.2.2.1-.1-.1.1-.2-.1-.3.1-.1.3-.1.3-.3 0 .1.2.1.1.2h.1c0 .1-.1 0 0 .1 0 0 .1-.2.2-.2 0-.1-.1-.4 0-.5 0 .1.2.1.2.1 0-.1-.1-.2-.2-.3 0 0 .2.1.2 0l-.1-.1s0-.1.3-.1c.1 0 0 .1.1 0s0-.1 0-.1c.1 0 0-.1-.2-.1-.1 0-.1-.1-.1-.1h.2c-.1 0-.1-.1-.1-.1-.1 0-.2 0-.3-.1-.1 0 .3 0 .2 0 .1-.1-.4-.1-.3-.2l-.1.1s.1-.1 0-.1c.1 0-.1 0-.1 0-.1 0 0 0 .1 0-.1 0-.3 0-.4-.2.2.2 0 .2-.1.2l.1-.1c0-.1-.1-.1-.1-.2-.2.1.4.1.2.1 0-.1-.3.1-.2-.1-.1 0-.2 0-.2-.1l.1-.1c-.1-.1-.1 0-.2 0h-.1l-.1.1c0-.1-.1 0 0-.2l.1-.1s-.1.1-.1.2v-.1c0 .2-.1-.1-.1.1 0-.1 0-.1-.1-.1l-.1-.1c0 .1 0 .2-.1.2v-.1.1s-.1-.1-.2-.1c0 .1.1.2.1.2-.2.1-.1.4-.3.4 0 0 0-.2-.1-.2-.2-.1 0 .2-.2.2l.1.1c-.1-.1-.1.2-.2.1 0 .1-.2.1 0 .2-.3 0-.3.4-.7.3 0 0-.1.1 0 .1s0-.1.1-.1v.1c-.1 0-.1 0-.2-.1-.2 0 .1.3-.1.4 0-.1-.1-.1-.1 0v.2s0-.2-.1-.2c0 .1-.1.1-.1.2l-.2-.1c.1.1 0 .1 0 .1s-.1 0-.1.1c.1.1.1 0 .2 0v.2c-.1-.1-.1 0-.2 0s0 .1 0 .1c0-.1-.1.1-.1 0 0 0 .1 0 .1-.1-.1 0-.1-.1-.1 0s.2.2 0 .2v-.1h-.1l.1.1c0 .1-.1.1 0 .3 0 .1-.1 0-.2 0s-.1.1-.1.2c0 0-.1.1-.1.2-.1 0-.3-.3-.3-.1-.1.1 0 .3.1.3-.2.1-.2.3-.4.3v.1c-.2.1-.3.4-.6.4 0-.1-.1-.1-.1-.1 0 .1-.1 0 0 .1s.1.1.2.1c-.1.1-.2.3-.4.3.1 0 .1.1 0 .1-.1-.1-.2-.1-.2 0l.1.1h-.1s.1.2 0 .2l-.1-.1c0 .1 0 .3-.1.3l-.2-.1s0 .1.1.1c-.2 0-.3.1-.4 0 0 .4-.3.7-.5.9v-.1c-.1 0 0 .1 0 .1 0-.1-.2-.1-.2-.2-.1 0 0 .2-.1.3 0 .1 0-.1.1 0 0 0-.2.1-.1.2-.1 0-.1-.1-.1-.2v.1c-.2-.1 0-.4-.3-.5v.1c-.2-.1 0-.2-.1-.2 0 .1.1.3.2.3-.1.1.2.3 0 .4-.1 0 .1-.1 0-.2-.1 0-.1.1-.2.2.1 0 .1.1.1.2-.1 0 0-.1-.2-.1 0 .1 0 .2.1.2.1.2-.1 0-.1.2-.2-.2-.2-.5-.3-.4.1.1 0 .2.2.3-.1 0-.1-.1-.2-.1s0 .3-.2.1l.1.1s-.1 0-.2-.1c0 0 0 .3-.2.1 0 0-.1.1 0 .2.1 0 0-.1.2 0-.2-.1-.1.1-.1.2l-.1-.1s-.1.1 0 .1c0-.1-.1-.1-.1-.1v.1c-.1.1-.2-.1-.2 0v-.1H49c0 .1.1.2.2.3 0 .1-.1-.1-.1.1v-.2s-.2-.1-.2 0 0 .2.1.2c0 0-.1 0-.2-.1 0 .1.1.1.1.2-.1 0-.2 0-.3-.1v-.2c0-.2-.1-.1-.2-.2 0 0 0 .1-.1.1.3.1.1.3.3.5-.1.1-.5-.3-.3 0 0 0 .1.2.1.1l.1.1c-.1-.1-.2-.1-.3-.2 0 .1.1 0 0 0-.1-.1-.2-.2-.2-.1 0 0 0 .1.1.1l.1.1c0 .1-.2 0 0 .1 0 0 .1 0 .2.1h-.1c-.1 0 .2.1.1.1s-.1 0-.2-.1c-.2-.1.1 0-.2-.1 0 0 .1.1 0 .1 0 0-.4-.1-.2 0h.2l.1.1h-.3c.2 0 .2 0 0-.1-.3 0 .1 0-.2-.1h-.5v.1h.3c-.1.1-.1.1.1.1h-.3s0 .1-.1.1l.1.1c.2-.1.2 0 .3 0 0 0 .2-.1.4-.1h-.2c.2 0-.2.1 0 0-.1 0-.3.1-.6.1.2 0-.2 0-.1.1h.4c0 .1.2.1.3.2 0 .1-.1.2-.1.3.1 0 0-.2.1-.1.1 0 .2.2.3 0l-.1.1h.1s0 .1-.1.1c0 .2.2.1.2.1v-.1c.2 0 .2.1.4.2l.3.4h.1c-.1.1 0 .2 0 .1l-.3.1c0-.1.1-.1.2-.2 0-.1-.1-.1-.2-.1h.1l-.2.2s0 .1.1 0h-.2c.1 0 0-.1.1-.1-.1.1-.2.1-.3 0 0-.2-.2 0-.3-.1.1-.1.2-.1.3-.2 0-.1-.1 0-.1-.1-.1.1-.2.2-.3.2v-.1c-.1 0-.2.1-.3 0-.2-.2-.4-.3-.6-.4h.1c-.4 0-.4-.2-.7-.2 0-.1-.1-.1-.2-.2.1-.1.2-.2.4-.3.2-.3.5-.6.9-1v.1c0-.1.1 0 .2-.1-.2 0 0-.2 0-.3.2 0 .3-.3.3-.4l.1.1c0-.2.2-.2.4-.3 0 0 .1.1.2 0 0-.2 0-.2.1-.4.1-.1.2-.2.4-.2.2-.4.6-.6.8-1l.1.1c.1-.5.7-.6.8-.9l.1.2c.1 0 .2-.2 0-.3.1 0 .1-.3.3-.2.1-.1 0-.2.1-.2.2-.1.3-.2.4-.3 0 .1.1.1.1.1 0-.1.3-.1 0-.3.3 0 .3-.4.6-.4-.1 0 0-.1 0-.1.2-.1.4-.2.4-.4 0 0 0 .1.1.1 0-.1-.1-.1 0-.1.2-.3.6-.3.8-.6.3-.4.8-.8 1.1-1.1 0-.3.4-.1.3-.4.1 0 .1-.1.2 0 0-.2.4-.2.4-.4V7c.2 0 .4-.4.7-.5 0 0-.1.1 0 .2.1 0 .2-.4.3-.2v-.1c-.1-.3 0-.4.1-.4.3.2.5.3.8.4.3.2.5.2.7.3.2.3-.2.3.1.3 0 .1.1-.1 0 0 .1 0 0 .3.2.3 0-.1.1 0 .2-.1.2.2.2.3.5.4h-.1c.5 0 .6.3 1.2.3.2.1.3.2.5.3l-1.8 1.7-.6.6-.4.5c-.8.6-1.5 1.4-2.3 1.9-.3 0-.3 0-.5.3v-.1c.1.1-.1.1 0 .3-.3.2-.5.5-.8.8 0-.1 0-.2-.1-.1v.1c0 .1 0 .1.1.1-.6.8-1.6 1.1-2.3 1.8-.2.1-.4.4-.6.5-.7.3-1.3.6-1.8 1.2 0 .1-.2-.3 0-.6z"/><path d="M49 17.5c0-.1 0-.2.1-.2-.1 0-.1.1-.1.2zm-1.1-1.7c.1 0 .2-.1.1 0h-.1zm-.1-.1zm.5-.1zm-.2-.1h.1s.1.1-.1 0zm.6-.2s0-.1 0 0c.1-.1.1.1 0 0zm.3-.4c.1-.1.1 0 0 0zm7.4-6.8h-.1zm2.2.4h-.2.2zm-1 1.3l.1.1z"/></g><path d="M30.3 36.1l-2.6-1.6 12.6-1.3 2.6 1.5z" fill="#bb4567"/><g class="P"><path d="M30.1 36.3c.1 0 0-.2 0 0zm.6-.1c.3-.4.9-.1 1.2-.4 0 0 0 .2.1.2.4-.3 1-.2 1.5 0v.1c.1 0 .2-.2.3-.2v.1c0-.1.2-.1.2-.2 0 0 0 .1.1.2v-.1c.1-.3.4 0 .6-.2v.1c.3-.2.7-.2 1.1-.3v.2c0-.1.1-.2.2-.2.1.1.2-.2.3-.1.1-.2.1.1.2-.1l.1.1c0-.2.1.1.2 0s.1 0 .2 0c.1-.1.2 0 .2-.1.1.1-.1.1 0 .3.5-.2 1-.2 1.5-.3l.1.1s.2 0 .2-.1c0 0 0 .1.1.1s.1-.2.2-.1v.2c.1-.1.2-.1.3-.2v.1c.1-.2.2 0 .3-.1v.1c.2.1 0-.2.2-.2v.1c.1-.2.3-.2.4-.2s.3 0 .4-.1c.1 0 0 .2.1.2 0-.2.2-.1.1-.3.1 0 .3.1.4 0 0 .1.1.2 0 .3l.1.1c0 .1-.1 0 0 .1l.2-.1c.1-.1.1-.3.3-.4-.1.1.1.2 0 .2l.2-.4s0 .1.1.1v-.1s.2-.1.2.1c0 .1-.1 0 0 .1.1 0 .1-.1.2-.1s.2-.1.1-.2v.1c0-.1.1-.1.2-.2l-.2.7h.1l.1-.6-.4.4h-.5c0 .1.1-.1.1-.1-.1-.2-.4 0-.4-.3v.1c-.1 0 0-.2-.1-.2 0-.1-.1 0-.1 0-.1 0-.4 0-.5-.2l-.2.1.1-.1c0-.1-.1-.1-.1-.2-.2.1.4.1.2.1 0-.1-.2.1-.1 0-.1 0-.2 0-.2-.1l.1-.1h-.3c-.1.1-.1-.1-.1.1 0-.1-.2 0-.1-.2l.1-.1-.2.1v-.1c-.1.2-.1 0-.2.1 0 0 0-.1-.1-.1l-.1-.1c-.1.1 0 .2-.2.1v-.1c-.1-.1-.1 0-.1 0l-.2-.2c-.1.1 0 .2 0 .3-.1-.2-.2.2-.3 0 0 0 .1-.1 0-.2-.1-.2-.1.2-.3.1v.2c-.1-.1-.2.1-.2-.1 0 .1-.2 0-.1.1-.2-.1-.5.1-.7-.2 0 0-.1 0-.1.1.1.1.1-.1.1 0v.1c.1.1.1.1.1-.1-.2-.1-.1.3-.3.3 0-.1 0-.1-.1-.1l-.1.1c-.1 0-.1-.2-.1-.3-.1 0-.1 0-.2.1l-.1-.2c.1.1 0 .1-.1.1h-.1c0 .1.1.1.1.1 0 .1-.1 0-.1.1 0-.1-.1-.1-.2-.1s0 .1-.1.1c0-.1-.1 0-.1-.1 0 0 0 .1.1 0 0 0 0-.2-.1-.1 0 .1 0 .2-.1.2v-.1h-.1v.1c0 .1-.2 0-.2.2 0 0-.1-.1-.2-.1-.1-.1-.1 0-.2.1 0 0-.1 0-.2.1-.1-.1-.1-.4-.2-.3-.1 0-.1.2-.1.3-.2-.1-.3.1-.5 0v.1c-.2 0-.5.2-.7 0 .1 0 0-.1 0-.2 0 .1-.1-.1-.1.1 0 .1 0 .2.1.2-.1.1-.3.1-.4 0v.1c0-.2-.1-.2-.2-.1v.1l-.1-.1s0 .2-.1.1v-.1c-.1.1-.2.2-.3.2l-.1-.1s-.1.1 0 .2c-.2-.1-.3-.1-.3-.2-.2.3-.6.4-.9.4v-.1c-.1-.1 0 .1-.1.1 0-.1-.1-.1 0-.2-.1-.1-.1.1-.2.2 0 .1 0-.1 0 .1 0 0-.2-.1-.2.1V35l-.1.1c-.1-.2.2-.3 0-.5h-.1c-.1-.2.1-.2 0-.2-.1.1-.1.3 0 .3-.1.1 0 .3-.2.4 0-.1.1 0 .1-.2-.1-.1-.1.1-.2 0 .1 0 0 .2 0 .2-.1-.1 0-.1-.1-.2 0 .1-.1.2 0 .2 0 .2-.1 0-.2.1 0-.1.1-.3 0-.4 0 .1-.1.2 0 .4 0 0-.1-.1 0-.2-.1-.1-.1.3-.2 0v.1L30 35c-.1 0-.2.2-.2 0 0 0-.1 0-.1.2.1.1.1-.1.1.1-.1-.1-.1 0-.2.1v-.1s-.1 0-.1.1v-.1.1c-.1.1 0-.2-.2-.2l.1-.1s-.1-.1-.1 0v.3c-.1 0 0-.1-.1 0l.1-.1s-.1-.2-.2-.2c0 0-.1.2 0 .3 0 0-.1 0-.1-.1-.1 0 0 .1 0 .2 0-.1-.2-.2-.2-.3l.1-.2h-.1c.1-.2 0-.1 0-.3 0 0-.1 0-.1.1.1.2-.1.3 0 .6-.1.1-.2-.5-.3-.2 0 0 0 .2.1.2-.1 0 0 .2-.2.2.1-.1-.1-.2 0-.4 0 .1.1 0 .1 0 0-.1 0-.2-.1-.2s-.1 0-.1.2c0 .1.1 0 .1.1-.1.1-.2-.1-.2.1.1 0 .1.1.1.2l-.1.1v-.1c-.1 0 0 .2-.2.2l-.1-.2c0-.2.2 0 .2-.2-.1 0-.1.1-.2.1h.1s-.1-.3-.2-.1c-.1.1 0 .1 0 .2-.1 0-.2.1-.3.2 0-.2-.2 0-.1-.2.1.1.3.1.3-.1-.1-.2.1 0 .1-.2-.1 0-.1-.2-.2-.3 0 0-.1 0-.1.1s0 .1.1.2c-.1 0-.3.1-.3.2l.2-1.1c0 .1 0 .1-.1.2l.4.4.2-.8c.1 0 .3.2.4.3 0-.2.2 0 .2-.1v-.2c.1-.1 0 .2.1.1-.2 0-.1.2-.3.3.1 0-.1.1 0 .2h.4c0 .2.3.2.4.3 0 .1-.1.2-.1.3.1 0 0-.2.1-.1 0 0 .1.2.3 0l-.1.2h.1s0 .1-.1.1c0 .2.1.1.2.1v-.1c.2 0 .2.2.3.2l-.1.1h.1c-.1.1 0 .2 0 .1l-.3.1c0-.1.1-.1.1-.2s-.1-.1-.2-.1h.1l-.2.2s0 .1.1 0h-.2c.1 0 0-.1.1-.1-.1.1-.2.1-.2 0 0-.2-.2 0-.3-.1.1-.1.2-.2.3-.2 0-.1-.1 0-.1-.1-.1.1-.2.2-.3.2v-.1c-.1 0-.2.1-.3 0s-.3-.3-.5-.3v-.1c-.2.1-.3-.1-.4 0-.1-.1-.2-.1-.3-.2l-1-.5 1.2-.2c.1 0 .1 0 .2.1.3-.1.6-.2 1-.2v.1c0-.1 0 .1.1 0-.1-.1.1-.2.1-.3.2.1.4 0 .5-.2v.1c.1-.2.3-.1.5 0l.1.1c.1-.2.1-.2.3-.3.1 0 .3 0 .4.1.4-.3.8-.2 1.1-.3v.1c.4-.3.9-.1 1.2-.3v.2c.1 0 .2-.1.2-.2.1 0 .3-.1.3 0 .1 0 .1-.1.2-.1h.5v.1c.1-.1.3 0 .2-.2.2.1.5-.2.7 0V33c.2 0 .4.1.5 0v.1-.1c.3-.2.6.1.9 0 .5-.2 1-.2 1.5-.2.1-.2.4.2.5-.1 0 0 .1 0 .1.1.1-.1.4.1.5-.1.2.1.3-.1.5 0v.1c0 .1.2-.2.3 0 .1 0 0-.1 0-.1h.4c.6.4.9.4 1.2.6.2.3-.2.3.1.3 0 0 .1-.1 0 0 .1 0 0 .3.1.2 0-.1.1 0 .1-.1.1.2.1.3.3.3v.1c.3-.1.4.1.6 0 .1.1.3.1.4.2l2.3 1.2-2.3.1c-.8.2-1.6.3-2.4.4-1 0-1.9.3-2.8.2-.3-.2-.3-.2-.5-.1V36c0 .2-.2 0-.2.2-.4 0-.7.1-1 .1.1 0 .1-.2 0-.1l-.1.2s-.1.1 0 .2c-.9.2-1.8 0-2.8.2-.2 0-.5 0-.8.1-.7-.1-1.4-.3-2 0 0-.1 0-.6.3-.7z"/><path d="M29.9 36.2c0-.1 0-.2.1-.2 0 .1 0 .1-.1.2zm-1.4-1.8s0-.1 0 0c0-.1.1-.1 0 0 .1-.1 0 0 0 0zm-.4-.3c0-.1.2 0 .2 0h-.2zm.1 1.3s0 .1 0 0c-.1 0-.1 0 0 0z"/><path d="M28.2 35.2c.1 0 0 .1 0 0zm1.1.1s.1-.1.1 0c0 0-.1.1-.1 0zm.5-.2s0 .1 0 0c.1.1.1.1 0 0zm9.4-1.3l-.1.1v-.1zm3.3 1.3c.1 0 0 .1 0 0 0 .1.1.1 0 0zm-1.8-.3h.1v.1z"/></g><path d="M12.8 65.8l-2.6-1.5 17.5-29.8 2.6 1.6z" class="Q"/><g class="P"><path d="M12.5 66c.3.1-.1-.2.2 0-.1.1-.2.1-.2 0zm.9-.9c.1-1 1.1-1.8 1.3-2.7 0-.1.2.1.3-.1.2-1 1.1-2.2 1.9-3v.1c.1-.2.1-.5.3-.7 0 0 0 .1.1.1-.1-.1.2-.4.1-.5.1-.1.2 0 .3-.1V58c-.1-.5.5-.8.6-1.3 0 0 0 .1.1.1.2-.8.8-1.7 1.2-2.5l.1.1c-.1-.1 0-.4.1-.6.2 0 .1-.4.3-.6 0-.3.2-.2.2-.5l.2-.1c-.1-.2.3-.2.2-.4 0-.2.2-.2.2-.3.1-.3.3-.5.2-.5.2 0-.1.3.1.3.5-1.1 1.1-2.1 1.7-3.1.1-.1.2-.2.3-.1 0-.1.2-.4.2-.5 0 0 .1 0 .1-.1.2-.2 0-.3.1-.5 0 .1 0 .2.1.2 0-.2.1-.5.2-.7v.1c0-.3.3-.4.3-.6v.1c.3-.3-.1-.2.1-.4 0 .1 0 .1.1.1 0-.3.3-.7.4-1s.4-.5.5-.9c.1-.1.2.2.3-.2-.2-.1.2-.5-.1-.5.2-.2.5-.6.5-.8 0 .2.3 0 .2.2l.2-.1c0 .1-.1.2 0 .2 0-.1.2-.5.3-.5 0-.3-.1-.5.1-.9 0 .2.2 0 .2.1v-.6c0-.1.1 0 .2-.1v-.2s.2-.5.4-.4c.1 0-.1.2.1.1l.2-.4c.1-.1.1-.4 0-.3s.1 0 0 .1c0-.1.1-.4.2-.6 0 .1 0 .1.1.2 0-.3.1-.6.3-.9-.1 0 .1.2 0 .2.3-.3.3-.8.6-1.1 0 .1-.1 0-.1 0 .1-.2.2-.1.3-.2.1 0 .1-.2.1-.3s0 0 0 .1c0-.1.1-.3.2-.6 0-.1.1-.3.3-.4 0 0-.1 0-.1-.1h.2s-.2-.1-.1-.1c-.1 0 .1.1.2.1v.1-.1H30c-.1-.1-.3 0-.3-.2 0 0 .2-.1.1-.1-.2-.1-.1 0-.3 0h-.1c-.1.1-.2-.2-.2 0 0-.1-.4-.2-.3-.3l.1-.1c-.1-.1-.3 0-.3.1v-.1c-.1.2-.1-.1-.2 0 0-.1-.1-.1-.2-.2 0 0-.1.1-.1 0 0 .2 0 .3-.1.4v-.1c-.1 0 0 0-.1.2 0 0-.3.2-.4.3 0 .2.1.2.1.3-.3 0-.2.6-.5.7 0-.1.1-.3-.1-.2-.3 0 0 .4-.3.6h.2c-.2.1-.1.4-.3.3 0 .1-.2.3-.1.3-.4.3-.5 1.1-1 1.2 0 .1-.1.2 0 .2s0-.2.1-.2v.1c-.1.1-.2.2-.2 0-.3.2.1.5-.2.8 0 0-.1 0-.1.1v.3c-.2.2-.2 0-.3 0-.1.1-.1.3-.1.4l-.6-.1c.2-.1 0 .1 0 .2v-.1c-.1 0-.1.2-.1.3.1 0 .2-.1.3-.2 0 .1-.1.2-.1.3-.1-.1-.2.2-.3.3s0 .2 0 .2c-.1 0-.1.2-.1 0 0 0 .1-.1.1-.2-.1 0-.2 0-.2.2s.2.1 0 .3v-.2l-.2.2.1.1h-.1c.1.1-.2.3-.1.5 0 .1-.2.2-.3.3a.76.76 0 0 0-.2.4c0 .1-.1.2-.1.4-.2.1-.4-.2-.4.1-.1.2 0 .4.1.3-.3.3-.3.7-.6.9v.2c-.3.4-.5 1-.9 1.3 0-.2-.1-.1-.1-.1 0 .2-.2.1 0 .2.1 0 .1.1.2 0a2.77 2.77 0 0 1-.5.8c.1 0 .1 0 .1.1-.1-.1-.3.1-.3.3l.1.1h-.1c0 .1.1.2 0 .3h-.1c0 .2 0 .5-.2.6l-.2.1c0 .1 0 .3.1.1l-.5.5c0 .7-.5 1.4-.8 2-.1.1.1.2 0 .2 0-.1-.2 0-.2-.1-.2.2-.1.4-.1.5.1.1 0-.2.1-.1 0 0-.3.3-.1.4-.1 0-.1-.1-.2-.1v.2c-.3.1 0-.5-.3-.5l-.1.1c-.2 0 0-.4-.2-.1 0 .2.1.4.2.3-.1.3.2.3 0 .6-.1 0 .1-.3 0-.3-.2.1-.1.3-.2.4.1-.1.2.1.1.2s-.1-.2-.2 0c0 .1 0 .3.1.2.1.2-.2.2-.1.4-.2 0-.1-.4-.3-.2.1 0 0 .4.2.4-.1.1-.2 0-.2-.1-.1.1 0 .5-.2.4l.1.1c-.1 0-.1.1-.2.1-.1.1-.1.5-.2.4 0 0-.2.3 0 .3.2-.1 0-.3.3-.3-.2 0-.1.3-.1.4h-.1c0 .1-.1.2 0 .3 0-.1-.1-.1-.1 0l.1.1c-.1.3-.2 0-.3.2V56l-.2.2c.1.1.1.3.2.3 0 .2-.1 0-.1.2v-.2s-.2 0-.3.2c0 .1 0 .4.1.2-.1.1-.2.2-.2.1-.1.2.1 0 .1.2-.1 0-.3.2-.5.3l-.1-.3-.1.1c0-.2-.1 0-.2-.1-.1.1-.1.2-.1.3.4-.1.1.4.4.5-.1.4-.6-.1-.5.5.1 0 .1.2.2 0-.1.2.1.3-.1.5 0-.2-.3.1-.3-.3.1 0 .1-.1.1-.2-.1 0-.2-.1-.3.1-.7.2-.8.4-.7.4.1.1.1-.2.2-.1-.1.3-.3.2-.2.5.1-.2.2-.2.3-.1l-.1.2-.1-.1c-.2.3.1.2-.1.5h-.2c-.1-.1.3-.4.1-.5-.1.2-.1.3-.2.5v-.2c-.1.1-.4 0-.4.3 0 .2.1.1.1.1-.2.3-.1.5-.2.7-.1-.1-.2.3-.2 0 .1 0 .4-.5.3-.7-.2 0 .2-.2 0-.4-.1.2-.3.1-.4.1-.1.1 0 .2-.1.2.1.1.1 0 .3.1-.2.3-.3.6-.3.8-.1.1-.2 0-.1-.1l-.6 1c.3-.1-.2.4.1.3.1-.1.3-.2.4-.1-.1.1-.1 0-.1 0 0 .2-.3.1-.2.3.1-.3-.2-.2-.3-.3-.1.3-.1-.1-.2.2s-.1.6-.3.8c-.1.1-.3.3-.4.5s-.1.3-.1.4c-.1.1-.3 0-.4.1-.1.2.3-.1.1.1 0 0-.1.1-.1.2.1.1.3.2.4.1-.1 0-.2.1-.3.1h.2c-.1 0-.1.1-.2.1 0 .2.4.2.5.3v-.2c.3.1.5.3.8.4l-.1.1.2.1c-.1.1 0 .2.2.2h-.6c-.1-.1.2 0 .2-.2 0-.1-.3-.3-.4-.2.1.1.1.1.2.1 0 .2-.2.1-.3.1.1 0 .1.1.1.1a.76.76 0 0 1-.4-.2c.1 0 0-.1.1-.1-.1.1-.3 0-.6-.2 0-.2-.4-.2-.7-.4 0-.1.1-.1.1-.2 0 .1.1.1.1.1.2 0 .3.1.4.1l-.2-.2.1-.1c-.1-.1-.3-.1-.2-.3h.1c.1-.2-.1-.3.1-.6.3-.4.5-.8.7-1.1h.1c-.1-.3.3-.6.3-.9.3-.3.4-.9.7-1 .4-.8.6-1.4 1.1-2.1l.1.2c0-.2.1 0 .2-.2-.2.1 0-.3-.1-.4.3-.3.4-.8.5-1.1h.1c0-.4.4-.7.6-1 .1 0 .2 0 .2-.2 0-.3.1-.4.1-.7.1-.2.4-.5.5-.7.3-.9.9-1.7 1.2-2.5h.3c.3-.9 1-1.8 1.3-2.5l.1.2c.2-.2.2-.5.1-.5.2-.2.2-.6.5-.6.2-.2.1-.3.2-.5.3-.4.4-.6.6-1l-.1.1c0 .1.1.1.2 0 0-.2.4-.5.1-.5.4-.4.5-1.1.9-1.4-.1 0 0-.1 0-.2.2-.4.6-.7.7-1.1.1 0 0 .2.1 0 0-.1-.1 0 0-.2.3-.7.9-1.2 1.2-1.8.5-1.1 1.2-2.1 1.7-3.1 0-.4.6-.7.5-1.1.1 0 .2-.3.2-.2 0-.3.5-.7.6-1.1v.1c.2-.2.3-.3.4-.5 0-.1.1-.2.1-.3l.1-.1c0-.1.1-.2.2-.2 0 .1-.1.2 0 .3.2-.2.2-.8.4-.7.1-.1 0-.2-.1-.1.2-.2.3-.5.5-.7.3.2.6.3.9.5l.8.5.6.3 1 .6c.8.6.1.4.2.5 0 0 0 .1-.1.3-.1.1.1 0 0 0-.1.3-.6.5-.6.7.2 0 0 .2.1.2l-.5.5c-.1.1-.1.2-.2.4v-.1c0 .5-.4.8-.4 1.3L26 45.7l-3.5 5.9c-.5.4-.5.4-.7 1 0 0 0-.1 0 0 .1.1-.2.4-.1.5-.5.7-.8 1.4-1.3 2.2.1-.1 0-.3-.1-.1v.2c0 .1 0 .3.1.2-1 2-2.4 3.7-3.5 5.6-.3.4-.6 1.1-.9 1.6-1 1.3-1.9 2.5-2.7 4.1.1-.7-.2-1.1.1-1.8z"/><path d="M12.2 65.8c0-.1-.1-.2 0-.3 0 .1.1.3 0 .3zm-.2-3.5c.1 0 .1.1 0 .1v-.1zm.7-1.1c.1 0 0 .3-.1.5l.1-.5zm.9-.9c.1-.1.1 0 0 0 0 .1 0 0 0 0zm-.1-.2c.1-.1.1-.1.2-.1-.1 0-.1.2-.2.1zm1.5-2.2c0-.1.1-.2.1-.2 0 .1 0 .3-.1.2zm.5-1.1c.1-.1.1 0 .1 0h-.1zm11.2-19.6v.2l-.1-.1zm1.1 2c0 .1-.1 0-.1.1 0-.1 0 .1.1-.1zM25.4 44l.1.1z"/></g><path d="M49.3 17.3l10.2-8.9-2.7 13.2L54 20 43.5 37.9l-12.6 1.4-16.3 27.6-1.8-1.1 17.5-29.7 12.6-1.4 9.2-15.8z" fill="#a23a54"/><g class="P"><path d="M49.5 16.9c-.4.4.3-.1-.3.3 0-.1.1-.2.3-.3zm1.5 1.6c.3.1.7.3 1.1.4-.7 1.5-2 3.2-2.7 4.8-.1.2-.2-.2-.4.4-.8 2-2.6 4.7-4.1 6.8v-.2c-.3.4-.4 1-.7 1.4 0 0 0-.2-.1-.1 0 .2-.4.8-.5 1.1-.1.2-.2.1-.4.3v.3c0 .3-.2.6-.4 1-.6.1-1.4 0-2 .2 0 0 .2-.1.1-.1-1.8.4-4 .6-6 .9.1-.1.1-.2 0-.2-.1.2-.7.3-1.2.3-.3-.1-.9.2-1.5.2-.5.2-.7 0-1 .2l-.3-.1c-.1.1-.3.1-.5.1-.1.1-.2.2-.2.3-.1.3-.3.4-.5.8-.4.7-.7 1-.5 1.1-.3.2.3-.7 0-.4l-3.9 6.9c-.2.2-.3.4-.4.4-.1.2-.5.9-.5 1.1 0-.1-.2.1-.2.2-.3.4-.1.5-.4 1 .1-.2.1-.3 0-.3-.1.5-.4 1-.7 1.4 0-.1.1-.2 0-.2-.2.6-.6.9-.7 1.4v-.2c-.5.6 0 .3-.4.9.1-.2 0-.1 0-.2-.2.7-.8 1.5-1 2.1-.3.6-.8 1.2-1.1 2-.2.2-.1-.2-.5.5.2.1-.6 1.1-.2.9-.4.5-.9 1.4-1.1 1.8.1-.3-.4.2-.1-.3l-.3.3c0-.1.2-.3.1-.3l-.6 1.1c-.1.5-.2 1-.6 1.7.1-.4-.3.1-.2-.2l-.3 1.2c-.1.2-.2 0-.3.3.1 0 0 .2 0 .3-.1.1-.5 1-.7 1-.1.1.2-.4 0-.2-.3.4-.2.5-.4.9-.2.3-.4.9-.1.6.1-.2-.1 0 .1-.2 0 .2-.3.8-.5 1.2.1-.2 0-.2 0-.3l-.3 1c.1.1.2.1.4.1.1-.1-.3 0-.3-.1.3.3.8.4 1 .5.1-.2.2-.3.3-.4 0 .1-.1-.1-.1 0l.2-.2c.1-.1.1-.1.2-.3.1 0 .2-.3.3-.6 0-.2.1-.1-.1.2.2-.4.9-1.9 1.5-2.7 0 0 .1-.6.3-.8v.1c.2-.1.4-.7.5-.6.1-.5-.8 1.7-.6 1 .2-.1.3-.9.4-.7.2-.4.3-.8.6-1.2-.1.1 0 .4.1.1.3-.6 0-.2.3-.7l.1-.3c-.1-.1.3-.5.1-.3.1 0 .4-.8.5-.7l.1.2c.1-.3.1-.5.2-.7 0 0 .1-.1.1 0-.2-.2.4-.6.4-.9.4-.5.8-1.3 1-1.5.2-.4.3-.8.6-1.2 0 .1-.1.2-.1.3.2-.3.2-.3.3-.6 0 .1.4-.5.7-.8.2-.4 0-.3 0-.4.4-.2.5-1.2 1-1.5 0 .2-.2.6 0 .3.4-.2.3-.8.7-1.3h-.2c.3-.2.4-.9.5-.7.1-.2.5-.6.3-.7.7-.9 1.3-2.3 1.9-2.7 0-.2.3-.5.2-.5-.2.2-.1.3-.2.4.1-.1 0-.2 0-.2.2-.3.4-.5.3-.1.5-.6.1-.8.7-1.6 0 .1.1 0 .2-.2l.2-.5c.3-.5.3-.2.4-.2.1-.3.4-.6.4-.8l.3-.3c-.3.2.1-.3.1-.4v.2c.1 0 .2-.4.3-.5-.1 0-.3.3-.4.5 0-.2.2-.4.2-.6.1.1.4-.4.5-.6.2-.3.1-.3.1-.4.1 0 .3-.4.2-.2 0 .1-.2.2-.2.3.1-.2.2-.1.4-.5s-.3 0 .3-.8c-.1.2-.1.3-.1.5l.3-.4h.2V39h.1c.3-.2 1-.1 1.1-.3h.9c.3 0 .8-.1 1-.2.2 0 .6-.1.8-.2.5 0 .2.4.7.2.5 0 .7-.3.5-.3.8 0 1.7-.3 2.5-.2.1-.1 0-.1.3-.1 1.2-.1 2.5-.4 3.5-.3-.3.1 0 .1 0 .2.3-.1.3.1.4-.1 0-.1 0-.2-.4-.2.2 0 .4-.1.6-.1h.3l.1-.1c.1-.1.2-.2.2-.3-.1.2-.1 0 0-.2.1.1.4-.3.5-.7l-.1-.1.2-.2c0-.2-.1-.3.2-.5h.2c.1-.4.3-1 .6-1.3l.3-.3c.1-.2.2-.5 0-.2.5-.6.7-1 1-1.2.4-1.3 1.4-3 2.2-4.3v.1c.3-.3 0-.3.2-.5 0 .1.3-.2.2.1.4-.5.3-.7.4-1.1 0-.1-.1.3-.2.2 0-.1.5-.7.4-.8.1-.1.2 0 .2.1l.1-.4c.4-.3-.2 1 .2.7l.2-.3c.3-.2-.3.8.2.1.1-.4.1-.7-.1-.5.3-.7-.1-.5.3-1.2.2-.1-.3.6-.1.5.3-.3.3-.7.5-1-.2.3-.2 0-.1-.3.3-.3 0 .3.3-.2 0-.1.2-.6-.1-.3-.1-.3.3-.5.4-.9.2-.1 0 .7.3.2-.2 0 .3-.8-.1-.6.2-.2.3-.2.2 0 .3-.3.2-.9.5-.8v-.2c.1-.1.2-.2.4-.3.1-.1.7-1.5.7-1.2 0-.1.2-.4.3-.6.2.1.3.1.1-.1-.1 0-.1-.1-.2-.1-.3.5-.3.7-.6.9.3-.3.4-.6.6-1 .1 0 .3.1.4.1l.1.1c.2.1.8.5 1 .5-.2-.1-.1 0 .1.2h.3c.3.1.3.2.3.3v.1l.1.1s-.2 0-.3-.1c.1 0 .3.3.3.3.1-.1.1-.2.1-.3 0 0 0 .2 0 0v.1s.1.2.3.3c0-.2-.1-.4-.2-.4 0 0 .1 0 .1.1 0-.1-.1-.1-.1-.2 0 0 .1.1.2-.1l.3-.6.1.5.1-.3c.1.4.2-.2.3.1.1-.2.1-.5.1-.7-.4.6-.2-.8-.4-.6.1-.9.6-.4.5-1.4-.1.1-.2-.3-.2.2.1-.5-.1-.4.1-1 0 .5.3-.4.3.2-.1-.1-.1.4-.1.5.1-.2.2.1.3-.4 0-.3.1-.8 0-.7-.1 0-.1.5-.2.3.1-.7.3-.7.1-1-.1.4-.2.5-.3.5v-.5l.1.1c.2-.8-.1-.3.1-1l.2-.3c.1.2-.3 1.1 0 1 .1-.5 0-.7.2-1.1v.4c0-.2.4-.3.3-1 0-.4-.1-.1-.2-.1-.8-.3-.8-.5-.8-.7v-.6c.2 0 .1-.2.2-.1-.1-.2-.3 1.1-.2 1.4.3-.2-.2.6 0 .8.1-.6.3-.6.5-.6v-.4c-.1-.1-.2.1-.3.1.1-.3.2-.7.2-1 0-.2 0-.3-.1-.4.1-.1.2-.2.2 0l.3-1.6-.2.3c-.1.1-.3.2-.3.4v.1c-.1.2-.2.4-.3.5v-.1s0-.1.1-.1c0-.1.1-.1.1-.2-.2.3.1-.3-.2.2.1-.1.2-.3.3-.5s.1-.3.3-.5c-.4.4.1-.3-.2 0-.4.5-.7.9-1 1.1 0 0-.1.1-.2.1-.1.1-.2.1-.3.2-.2.1-.4.3-.5.5l-.9.9c-.3.2-.3-.1-.6.1-.3.3.4-.1-.2.3v-.1c-.1.2-1 .7-1 1.1v-.3c-.1.1-.2.2-.2.3 0 0-.2 0-.1-.2-.4.2-.7.6-1 .9l.3-.1c-.5.6-1 .8-1.5 1.4l-.1-.1v.2c0-.1-.3.1-.5.3l.7-1c.3-.2-.2.3 0 .3s.7-.5.7-.7c-.2.2-.2.2-.3.4-.2-.1.1-.3.2-.5-.1.1-.3.2-.3.3l.7-.7c-.2.3.2 0 .1.1-.1-.1.2-.4.7-.8.4-.1.7-.8 1.3-1.2-.1.3-.3.6-.5.9.3-.2.3-.3.7-.5.1-.2.1-.4.5-.8l.1.1c.3-.4.2-.5.7-.9l.6-.5c.2-.2.4-.4.7-.6.5-.4 1-.8 1.3-1.2v.1c.4-.6 1.1-1.1 1.7-1.6 0 .2-.1.4-.1.6l-.5 2.1c-.1.6-.2 1.3-.4 1.6l-1 5.2-.1-.3c0 .4-.1.2-.2.5.2-.4.1.5.1.7l-.3 1.3c0 .2 0 .5-.1.7v.6h-.1c0 .6-.2 1.3-.3 2l-1.6-1-.2-.2c-.1-.1-.2-.1-.3-.2-.3-.1-.5-.1-.8-.2v.1c-.1.1-.1.2-.3.4-.2.3-.4.6-.6.8-.8 1.9-2 3.6-3 5.5l-.2.1c-.8 1.9-2.3 4-3.1 5.6V33c-.3.4-.6 1.1-.4 1.1-.3.5-.6 1.2-.9 1.5-.3.5-.3.7-.5 1.1-.3.4-.4.6-.6.9-.2.4-.4.7-.7 1.2-.2 0-.6.1-1 .1h.4c.2-.1.2-.2-.3-.1s-1.5.1-1.1.3c-1.2 0-2.6.4-3.8.3.1.1-.2.1-.3.2-1 .1-2 .1-2.8.3-.2 0 .2-.1-.2-.1-.2 0 0 .1-.3.2-.6.1-1.3.2-1.9.2h-1.5l-.1.1c-.1.1-.1.3-.2.4L27 47.5c-.3.8-1.2 1.6-1.3 2.3-.1.2-.4.6-.4.5-.2.6-1.1 1.5-1.4 2.5 0-.1.1-.1.1-.2-.6.8-.9 1.6-1.5 2.5 0-.1.1-.3.1-.3-.3.3-.3.9-.6 1-.1.2 0 .2.1.1L18.6 62c-1 1.4-.4-.1-.9 1.1-.1.1 0 .1 0 .1-.2.5-.6.6-.7.9.2 0 0 .2 0 .3-.6.8-.8.9-1.1 1.7V66c0 .1-.1.3-.1.4l-.1.2-.1.3-.7 1.3c-.6-.3-1.1-.6-1.7-.8l-1.6-.9 7.6-13.3 7.7-13c.8-.9.8-1 1.4-2.2v.1c-.1-.1.5-.8.4-1l.9-1.6 4.7-.5c-.3 0-.5.2-.1.2l.4-.2h.1c.3 0 .5-.2.3-.2l3.9-.5 1.9-.2 1-.1h.4c-.1.2.4-.6.6-1l.9-1.4 1.7-2.9 2-3.5 2.1-3.2 1.6-2.6c-.3-.1-.5-.3-.8-.5-.5-.3-1-.5-1.4-.8.1-.2.7-.3 2.1.4z"/><path d="M50 16.4c.2 0 .5-.3.3 0H50zm8.3-6.2c0 .1-.1.3-.1.2 0 0 0-.1.1-.2zm.1.6c-.1 0-.1-.1-.1-.2 0 .1.1.1.1.2zm-.7 1.9c-.1.2-.1.1-.1-.2.1 0 .1.1.1.2zm.1.2c0 .2-.1.3-.2.4.1.1.1-.5.2-.4zm-1.4 5.8c0 .1 0 .5-.1.6.1-.2 0-.7.1-.6zm-.2 1.6l-.1-.1.1.1zM23.7 50.5l.1-.3v.1zm-9.9 14.7c.1-.2.1-.1.2-.1-.2.2-.1-.1-.2.1zm5.6-10.3v.1l-.1-.1z"/></g><path d="M60.1 63.3l-7.8-4.6.1-29.3 7.9 4.7z" fill="#6a869b"/><g class="P"><path d="M59.8 63.5c.3.1-.1-.2.2 0 0 0-.1.1-.2 0zm.5-1.1c-.4-.9 0-2.1-.2-3.1 0-.1.2 0 .2-.2-.3-1-.1-2.5.1-3.7l.1.1c0-.2-.2-.5-.1-.7 0 0 .1.1.1 0-.1-.1 0-.4-.1-.5 0-.1.1-.1.2-.2l-.1-.1c-.3-.4 0-.9-.1-1.4 0 0 .1.1.1 0-.2-.8-.2-1.9-.2-2.8 0 0 .1.1.2 0-.1 0-.2-.3-.2-.6.2-.1-.1-.4 0-.7-.2-.2.1-.3-.1-.5l.1-.1c-.2-.1.1-.3 0-.5V47c0-.4.1-.6-.1-.6.1-.1.1.3.2.2-.2-1.2-.1-2.4-.1-3.6.1-.1.1-.2.2-.3 0-.1 0-.5-.1-.6l.1-.1c.1-.2-.2-.2-.1-.5 0 .1.1.1.2.1-.1-.2-.1-.5-.1-.7 0 0 0 .1.1.1-.1-.3 0-.5-.1-.7l.1.1c.1-.4-.2-.1-.1-.4 0 .1.1 0 .1.1-.2-.3-.1-.8-.2-1.1v-1c0-.1.2 0 .2-.3-.2 0-.1-.6-.3-.4 0-.3.1-.8 0-1 .1.1.2-.1.2.1l.1-.2c.1 0 0 .2.1.1 0-.1-.1-.5 0-.6-.1-.2-.3-.4-.3-.8.1.2.2-.1.2 0-.1-.2-.2-.3-.3-.4 0-.1.2-.1.1-.2h-.2s-.3-.1-.3-.3c0-.1.2.1.1-.1l-.4-.2c-.1-.1-.4-.2-.3 0 .1.1 0-.1.1 0-.2 0-.4-.1-.6-.2.1 0 .1 0 .2-.1-.3 0-.6-.2-1-.3 0 .1.2-.1.2 0-.3-.3-.9-.3-1.1-.7.1 0 0 .1 0 .1-.2-.1-.1-.2-.3-.3 0-.1-.2-.1-.3-.1s0 0 .1 0c-.2 0-.9-.4-1.3-.7h-.4l.1-.1c0-.1-.3-.2-.3-.3-.3 0 .8.3.5.3 0-.1-.5-.1-.3-.2-.2-.1-.4-.1-.5-.3 0 0 .2 0 .1-.1-.3-.1-.1 0-.3-.1h-.1c0 .1-.1-.1-.1.1 0-.1-.2 0-.2-.2v-.2c-.1 0-.1.1-.1.2v-.1c.1.3-.2-.1-.1.1l-.2-.2c0 .1 0 .1-.1 0 .1.2.2.4.1.4 0 0 0-.1-.1-.1s0 .1 0 .2l-.2.2c.1.2.2.1.3.1-.2.1.1.6-.1.8 0-.1-.1-.3-.2-.1-.2.2.2.4 0 .7l.2-.1c-.1.1.1.5-.1.4.1.1-.1.4.1.3-.2.5.1 1.2-.2 1.5 0 .1 0 .3.1.2s-.1-.2 0-.2c0 .1 0 .1.1.1 0 .2 0 .3-.2.1-.1.3.3.4.2.8-.1 0-.1 0-.1.1l.1.3c0 .3-.2.2-.3.2 0 .2 0 .3.1.4l-.4.4c.1-.1.1.1.1.2v-.1.3c.1 0 .1-.2.1-.3 0 .1 0 .2.1.3-.1 0-.1.3-.1.4s.1.2.1.2c-.1 0 0 .2-.1.1 0 0 .1-.1 0-.2 0 .1-.2.1-.1.3.1.1.2 0 .2.2 0-.1-.1-.1-.1-.1l-.1.3h.1c.1.1 0 .4.2.5 0 .1-.1.3-.1.4-.1.2 0 .3 0 .5 0 .1 0 .3.1.4-.1.2-.4.1-.3.3 0 .2.2.3.3.3-.1.4.1.8-.1 1.2 0 0 .1 0 .1.1 0 .5.1 1.2-.1 1.6 0-.2-.1 0-.2 0 .1.1-.1.2.1.2.1 0 .2 0 .2-.2v1c0-.1.1 0 .1 0-.2-.1-.2.1-.2.3h.1l-.1.1c0 .1.2.1.1.3H53c.1.2.2.5.1.7l-.1.2c0 .1.1.2.1.1-.1.3-.1.6-.2.7.3.6.3 1.5.3 2.2h-.1c-.1.2.1.1.1.2-.1-.1-.2.1-.2 0-.1.3.1.3.2.5.1 0-.1-.1.1-.1 0 0-.1.4.1.4-.1.1-.2 0-.2 0l.1.2c-.2.2-.3-.5-.5-.3v.2c-.2.1-.2-.4-.2 0 .1.2.3.3.3.2 0 .3.3.2.3.5-.1.1 0-.3-.1-.2-.1.2.1.3 0 .5.1-.2.2 0 .2.1-.1.2-.1-.1-.2.1.1 0 .2.3.2.1.2.1 0 .3.1.4-.1.1-.3-.3-.4 0 .1 0 .2.4.4.2 0 .1-.1.1-.2 0-.1.2.2.4 0 .5l.1.1-.2.2c0 .2.2.5 0 .5 0 0 0 .4.2.3.1-.2-.1-.2.1-.3-.2.1 0 .3.1.4h-.1c0 .1 0 .2.1.3h-.1l.1.1c.1.3-.2.1-.2.3l-.1-.2s-.1.1 0 .3c.1 0 .2.2.3.2 0 .2-.1.1 0 .2l-.2-.4s-.2.1-.2.3c0 .1.2.3.3.1 0 .1-.1.3-.1.2 0 .2.1 0 .2.2-.1.1-.2.3-.3.5l-.2-.2v.1c-.1-.2-.1.1-.3 0 0 .1 0 .2.1.3.2-.3.3.3.5.2.1.4-.5.2-.2.7.1-.1.2.1.2-.1 0 .2.2.2.1.5-.1-.2-.2.2-.4-.1.1 0 .1-.2 0-.2-.1.1-.2 0-.2.2s0 .4.1.3c.1 0 0-.2.1-.1v.2h.1c0-.1.1-.1.2-.1h-.1c0 .1.1 0 .1 0l-.1.1H53s-.2.3.1.2c.2 0 .1 0 .1-.1.3.2.5.1.7.3-.1.1.3.2 0 .2 0-.2-.5-.4-.7-.3 0 .1 0 .1-.1 0s-.1-.1-.2 0c.1.1.1.3 0 .4h.2c.1-.1 0-.1.1-.3.3.2.6.3.8.3.1.1 0 .2-.2.1l1 .6c-.1-.3.4.2.3-.1-.2-.1-.2-.3-.1-.4.1.1 0 .1 0 .1.2 0 .1.3.3.2-.3-.1-.2.2-.3.3.3 0-.1.1.2.2.3 0 .6.2.8.3.2.3.8.5 1 .6.1.2-.1.3 0 .4.2.1 0-.2.2 0 .1 0 .4.4.6.2l-.2.1h.2s0 .1-.1.1c.1.2.4.2.5.3l-.1-.2c.3.1.5.3.8.5l-.1.1h.2c-.1.1 0 .2.2.2h-.6c-.1-.1.2 0 .2-.2 0-.1-.3-.3-.4-.2.1.1.1.1.2.1 0 .2-.2 0-.3.1.1 0 .1.1.2.1-.2 0-.3 0-.5-.2.2 0 0-.1 0-.1-.1.1-.3 0-.5-.1-.1-.2-.5-.2-.7-.3.2-.1.4-.1.5 0-.1-.2-.2-.1-.3-.3-.1 0-.3.1-.5.1v-.1c-.2-.1-.3.1-.5-.1-.4-.3-.8-.5-1.1-.8v-.1c-.3.1-.6-.3-.9-.3-.4-.3-.9-.4-1.1-.7l-.6-.3c-.3-.1-.5-.3-.8-.4v-1.3l.2.2c-.1-.2.1-.1.1-.3-.1.2-.2-.2-.2-.3.1-.4 0-.9-.1-1.2h.1c-.2-.3 0-.8 0-1.2 0 0 .1-.1.1-.3-.2-.2-.2-.4-.3-.7 0-.3 0-.7.1-.9-.2-.9-.1-1.9-.2-2.9l.1-.1c-.3-1 0-2.1-.1-2.9l.2.1c.1-.3 0-.6-.2-.5.1-.3-.1-.6.1-.8 0-.3-.1-.3-.1-.5.1-.5.1-.7 0-1.2v.1s.1.1.1-.1c-.1-.2.1-.7-.2-.5.1-.5-.1-1.2.1-1.7-.1 0-.1-.1-.1-.1 0-.5.1-.9 0-1.3 0-.1.1.1.1-.1 0-.1-.1 0-.1-.1-.1-.8.1-1.5.1-2.2-.1-1.2 0-2.5-.1-3.6-.2-.4.2-.9-.1-1.2 0-.1 0-.3.1-.3-.1-.3.1-.9 0-1.3v.1-1.9c0 .1 0 .3.1.3.1-.2-.2-.9 0-.8 0-.2-.1-.3-.1-.1v-.9c.6.4 1.2.7 1.9 1.1l.9.5.6.3c.6.5-.2.4.5.5 0 .1.1-.1.1 0 .2.1.2.4.4.4 0-.2.1 0 .2-.1.4.3.4.5.8.6h-.1c.5 0 .9.4 1.3.4l2.9 1.6.1 4.8-.1 7c.3.8.3.8.4 1.4 0 0 0-.1-.1 0 .2 0 0 .4.2.5v2.6c0-.1-.2-.2-.1 0l.1.2c0 .1.1.2.2.1.1 2.3-.2 4.5-.2 6.7-.1.5 0 1.3 0 1.8-.2 1.7-.4 3.2-.3 4.9-.1-.1-.5-.3-.6-1z"/><path d="M59.5 63.3c0-.1-.2-.2 0-.3 0 .1.1.3 0 .3zm-4.1-3.4s0-.1 0 0c0-.1.1-.1.1 0h-.1zm-1.1-.7a1.34 1.34 0 0 0 .5.1l-.5-.1zm-.9-.9c-.1-.1 0-.1.1 0h-.1zm-.2.1s0-.1 0 0c0-.1.1-.1 0 0zm.1-1.8c0-.1-.1-.2 0-.3-.1.1.1.4 0 .3zm-.1-1.3v-.1s.1 0 0 .1zm-.2-23v.2h-.1zm5.3 1.3c.1 0 0 .1.1.1-.1-.1.1-.1-.1-.1zm1.8 4h.1z"/></g><path d="M60.3 34.1l-7.9-4.7 8.6-4.8 7.8 4.6z" fill="#7ba0b8"/><g class="P"><path d="M60.1 34.3c.1 0 0-.2.1 0h-.1z"/><path d="M60.8 34c.2-.5.9-.5 1.2-1 0 0 .1.2.2.1.3-.5 1-.7 1.6-.8v.1c.1 0 .1-.3.3-.3 0 0 0 .1.1.1 0-.1.2-.2.2-.3.1 0 .1.1.2.1v-.1c0-.4.4-.2.5-.5v.1c.3-.4.7-.6 1.1-.9 0 0 0 .1.1.2-.1-.1.1-.2.2-.3.1.1.1-.2.3-.2 0-.2.2 0 .2-.2l.1.1c-.1-.2.2 0 .2-.1.1-.1.1 0 .2-.1s.3-.1.1-.2c.2.1-.1.1.1.2.3-.3.7-.5 1.1-.8l-.2-.1c.1 0 .1-.1.2-.1-.1 0-.2-.1-.4-.1 0 0 .1 0 .1-.1s-.3 0-.3-.1h.2c-.3 0-.3-.1-.5-.1h.1c-.2 0-.2-.1-.3-.1h.1c-.1-.2-.2.1-.3 0 .1 0 .1 0 .1-.1-.2.1-.4-.1-.6-.1-.2-.1-.3-.2-.5-.2 0-.1.1-.2 0-.2-.1.2-.3-.1-.3.1-.1-.1-.3-.3-.4-.3.1 0 .1-.2.2-.2v-.1c.1-.1.1.1.1 0-.1 0-.3 0-.3-.1-.2 0-.3.2-.5.1.1 0 .1-.2.1-.2l-.4.2c-.1 0 .1-.1 0-.1 0 0-.1 0-.1.1 0 0-.2-.1-.2-.3 0-.1.1 0 .1-.1-.1-.1-.1 0-.2-.1s-.2 0-.2.1c0 0 0-.1.1 0-.1.1-.2 0-.3 0 0 0 .1 0 .1-.1h-.5c0 .1.1-.1.1 0-.1-.2-.5-.1-.5-.3v.1c-.1-.1 0-.2-.1-.2 0-.1-.1 0-.2 0s0 0 .1 0c-.1 0-.5-.1-.6-.3 0 0-.2.1-.3 0l.1-.1c0-.1-.2-.1-.1-.2-.2.1.4.1.2.1 0-.1-.3 0-.2-.1-.1 0-.2 0-.3-.1 0 0 .2-.1.1-.1-.1-.1-.1 0-.2 0h-.1c-.1.1-.1-.1-.1.1 0-.1-.2-.1-.1-.2l.1-.1s-.1.1-.2.1v-.1c-.1.2-.1-.1-.1.1 0 0 0-.1-.1-.1 0 0-.1 0-.1-.1 0 .1 0 .2-.1.2v-.1c-.1 0 0 0-.1.1 0 0-.2 0-.3-.1-.1.1 0 .2.1.3-.2-.1-.2.3-.4.1 0 0 .1-.2 0-.2-.2-.1-.1.2-.3.2l.1.1c-.1-.1-.1.2-.2 0 0 .1-.2 0-.1.2-.3 0-.5.4-.8.2 0 0-.1.1 0 .1.1.1 0-.1.1 0v.1c-.1 0-.2 0-.2-.1-.2 0 0 .4-.2.4 0-.1-.1-.1-.1 0v.2c-.1 0-.2-.1-.2-.2 0 .1-.1.1-.1.2l-.2-.1c.1.1 0 .1 0 .1s-.1 0-.1.1.1 0 .2 0c0 .1-.1.1-.1.2 0-.1-.2 0-.2 0-.1 0 0 .1 0 .1s-.1 0-.1-.1h.1c-.1 0-.1-.1-.2 0 0 .1.1.2 0 .2v-.1h-.1v.1c0 .1-.2.1-.1.3h-.2c-.1 0-.2.1-.2.2 0 0-.1.1-.1.2-.1 0-.2-.4-.3-.2-.1 0 0 .3 0 .3-.2 0-.3.3-.5.2v.1c-.3.1-.4.4-.7.3 0-.1 0-.1-.1-.1 0 .1-.1 0-.1.1.1.1.1.1.2.1-.1.1-.3.3-.5.2.1 0 0 .1 0 .1-.1-.1-.2-.1-.2 0v.1l-.1-.1v.1s0-.1-.1-.1c0 .1.1.2 0 .2 0 0-.1-.1-.2-.1 0 0 0 .1.1.1-.1 0-.2 0-.3-.1.2.2.3.2.1.3h-.2c-.1 0 .3 0 .2 0h-.5c-.1 0 .3 0 .4 0 .2 0-.1 0 .1 0 .1 0-.1 0 .2 0H54c-.2.1-.6 0-.8.1h.1c-.2.1-.4 0-.3 0 .2 0 .5 0 .6-.1.2 0 .5-.1.6 0H54c-.1.1.2 0 .1 0 0 0 .2-.1.3-.1l-.2.1c.1 0 .2-.1.2-.1.2-.1 0 0 .1 0-.1.1-.3.2-.3.3.1-.1.2-.1.3-.2l-.2.2c0 .1.2-.1 0 0l.1-.1v.1c.1 0 .3 0 .2.1 0 0 .2.1.2-.1 0-.1-.2 0-.1-.2 0 .2.1.1.2 0v.1h.2s-.1.1 0 .1l.1-.1c.2 0-.1.2.1.2h-.1s0 .1.1.1l.2-.2c.1 0 0 .1.1.1l-.2.1s0 .2.1.2.2-.1.2-.2c0 0 .1.1 0 .2.1 0 0-.1.2-.1 0 .1.1.2.1.4l-.2.1h.1c-.2.1 0 .1-.1.2h.2c0-.3.3-.2.4-.4.2 0-.2.5.2.3 0-.1.2-.2 0-.2.1.1.2-.1.3 0-.1 0 0 .3-.2.3 0-.1 0-.1-.1-.1 0 .1-.1.2 0 .3.1 0 .2.1.2 0 .1-.1-.1 0 0-.1.2 0 .1.2.2.1-.1 0 0-.2 0-.2h.1-.4c.1.1.1-.1.3 0v.2c-.1.1-.2-.2-.3 0 .1.1.2 0 .2.1h-.1s-.1.3.1.2c.1 0 .1-.1.1-.1.2.1.3 0 .4.1-.1.1.2.1 0 .2 0-.1-.2-.2-.4-.1 0 .2-.1-.1-.2.1.1.1 0 .2 0 .4h.1c.1-.1 0-.1.1-.2.1.1.3.1.4.1 0 .1-.1.2-.1.1.2.1.3.2.5.3 0-.2.2.1.2-.1-.1-.1-.1-.3 0-.3v.1c.1 0 0 .2.2.1-.2 0-.2.2-.3.3.2 0-.1.1 0 .2h.5c.1.2.4.2.5.3 0 .1-.1.2 0 .3.1 0 0-.2.1-.1.1 0 .2.3.3 0l-.1.1h.1s0 .1-.1.1c0 .2.2.1.3.1v-.1c.2 0 .2.2.4.2l-.1.1h.1c-.1.1 0 .2.1.1l-.4.2c0-.1.1-.1.2-.2 0-.1-.1-.2-.2-.1h.1l-.2.2s0 .1.1 0h-.2c.1 0 0-.1.1-.1-.1.1-.2.1-.3 0 0-.2-.3 0-.4-.2.1-.1.2-.1.3-.2 0-.1-.1 0-.1-.2-.1.1-.2.2-.3.2v-.1c-.1 0-.2.1-.3 0-.2-.2-.4-.3-.5-.4v-.1c-.2.1-.3-.1-.5-.1-.2-.2-.5-.2-.5-.4-.4-.1-.7-.3-1.1-.5l.1-.1c-.1 0 0-.1-.1-.1 0 .1-.2.1-.3.1-.1-.2-.4-.2-.6-.2v-.1c-.2.1-.3-.2-.5-.3v-.2c-.2.1-.2 0-.4 0l-.4-.4c-.4-.1-.7-.3-1-.5s-.7-.4-1.1-.6h.2c-.2-.1-.4-.1-.6-.2.5-.3 1.3-.6 1.6-1l.2.1c.2 0 .3-.2.2-.3.2-.1.4-.3.6-.3.2-.1.2-.2.2-.3.3-.1.3-.1.5-.3h-.1s0 .1.1.1c0-.1.3-.1.1-.3.3 0 .5-.4.8-.4v-.1c.2-.1.5-.1.6-.3 0 0 0 .1.1.1v-.1c.3-.3.7-.3 1-.5.5-.4 1-.6 1.5-1 .1-.3.5 0 .5-.4.1 0 .2-.1.2 0 .1-.2.4-.1.5-.4.1 0 .2-.1.3-.1l.1-.1c.1 0 .2-.1.3-.1l-.1.1c.2 0 .2-.4.4-.2.1 0 0-.1 0-.1.1-.1.3-.1.4-.2.3.2.6.4.9.5l.6.3c.3.3-.2.4.2.4 0 0 .1-.1 0 0 .1 0 0 .3.2.3 0-.1.1 0 .1-.1.2.2.1.3.3.3v.1c.3-.1.5.1.7 0 1 .6 2.1 1 3.1 1.6l.5.3 1.1.6 2.1 1.3c-.5.3-1.1.6-1.7.9-.7.2-.7.1-1.1.5V30c.1.1-.3.2-.3.4-.1.1-.3.1-.4.2l-.3.2-.6.3c.1 0 0-.2-.1-.1v.1s-.1.1 0 .2c-.9.7-2 .9-2.9 1.5-.3.1-.5.3-.8.5-.8.2-1.6.4-2.2 1 .1.4 0 0 .3-.3z"/><path d="M59.9 34.2c0-.1 0-.2.1-.2 0 0 0 .1-.1.2zm-1.8-2.1c0 .1 0 0 0 0zm-.5-.3c0-.1.2 0 .3 0h-.3zm-.4-.6c0-.1 0-.1 0 0zm-.1.1v-.1c-.1 0 0 0 0 .1zm-1.1-.8s-.1 0-.1-.1c0 0 .2 0 .1.1zm-.6-.3s0-.1 0 0zm4.6-4.4v.1l-.1-.1zm3.7 1.1c.1 0 0 .1 0 .1s.1-.1 0-.1zm2.5 1l.1-.1z"/></g><path d="M68.8 29.2l-.1 29.3-8.6 4.8.2-29.2z" fill="#7192ad"/><g class="P"><path d="M69.1 29.4c0-.3-.1.1-.1-.2.1.1.1.1.1.2z"/><path d="M67.9 29.6c-.6.8-1.9 1-2.6 1.8-.1.1-.1-.2-.3 0-.7.7-2.1 1.3-3.3 1.7V33c-.2.1-.4.4-.6.5v-.1c0 .1-.3.3-.4.4-.1 0-.2-.1-.3 0v.2c0 .1 0 .1-.1.2.1.4-.1.8 0 1.3 0 0-.1-.1-.1 0 .2.8.2 1.9.2 2.8 0 0-.1-.1-.2 0 .1 0 .2.3.2.6-.2.1.1.4 0 .7.2.2-.1.3.1.5l-.1-.1c.2.1-.1.3 0 .5v.4c0 .4-.1.6.1.6-.1.1-.1-.4-.2-.2.2 1.2.1 2.5.1 3.7-.1.1-.1.2-.2.3 0 .1 0 .5.1.6l-.1.1c-.1.2.2.2.1.5 0-.1-.1-.1-.2-.1.1.2.1.5.1.7 0 0 0-.1-.1-.1.1.3 0 .5.1.7l-.1-.1c-.1.4.2.1.1.4 0-.1-.1 0-.1-.1.2.3.1.8.2 1.1v1c0 .1-.2 0-.2.3.2 0 .1.6.3.4 0 .3-.1.8 0 1-.1-.1-.2.2-.2-.1l-.1.4c-.1 0 0-.2-.1-.1 0 .1.1.5 0 .6.1.2.3.5.3.8-.1-.2-.2.1-.2 0l.3.5c0 .1-.2 0-.1.2l.1.1s0 .5-.1.6c-.1 0 0-.2-.1-.1 0 .2.1.2.1.5 0 .2.1.5.2.3 0-.1-.1 0-.1-.1.1.1.1.4.1.6 0-.1-.1-.1-.1-.1.1.3.2.6.2 1 .1 0-.2-.1-.1-.2-.1.4.2.9 0 1.3 0-.1.1 0 .1 0 0 .2-.1.2-.1.3-.1 0 0 .2 0 .3s0 0 0-.1c.1.2.2 1 .1 1.5 0 0 .2.3.2.4h-.1c-.1.1 0 .4-.1.4.1.2-.1-.9 0-.6-.1.1.2.4 0 .4 0 .2.1.4 0 .6 0-.1-.2-.2-.2 0 0 .3 0 .1.1.3v.1c.1 0 0 .2.1.1-.1 0 .1.2-.1.3h-.2c0 .1.2 0 .2 0s0 .1-.1.1c.2-.2 0 .2.2.1v.3c.1 0 .1 0 .1.1l.3-.3s0 .1-.1.1c0 0 .1 0 .2-.1 0 0 .1.1.3.1.1-.1 0-.2 0-.3.3.1.4-.4.7-.3 0 .1-.2.3 0 .2.3.1.3-.3.6-.4l-.2-.1c.2 0 .3-.3.4-.1.1-.1.3-.1.2-.3.5-.1 1-.7 1.5-.6.1-.1.2-.1.1-.2-.2 0-.1.2-.2.1.1 0 0-.1 0-.1.2 0 .3-.1.2.1.4-.1.2-.4.6-.6 0 .1.1.1.2 0l.2-.2c.3-.1.2.1.3.2.1-.1.3-.2.3-.3h.2c-.2 0 .1-.1.1-.2l-.1.1c.1 0 .2-.1.3-.1-.1-.1-.2 0-.3 0 0-.1.2-.1.2-.2 0 .1.3 0 .4-.1.1 0 .1-.2.1-.2s.2-.1.2 0c0 0-.1 0-.2.1.1 0 .2.1.3-.1.1-.1-.2-.2.1-.3-.1.1 0 .1-.1.2.1 0 .2 0 .2-.1l-.1-.1c0-.1.2-.1.1-.2l.1-.1c.1 0 0-.2-.1-.3 0-.1 0-.3-.1-.4.1-.2.4-.1.3-.3 0-.2-.2-.3-.3-.3.1-.4-.1-.8.1-1.2 0-.1-.1 0-.1-.1.1-.6-.1-1.2.1-1.6.1.2.1 0 .2 0-.1-.1.1-.2-.1-.2-.1 0-.2 0-.2.2-.1-.3-.1-.8 0-1-.1.1-.1 0-.1 0 .2 0 .2-.2.1-.4h-.1l.1-.1c0-.1-.2-.1-.1-.3h.1c-.1-.2-.2-.5-.1-.7l.5-.4c0-.1-.1-.2-.1-.1.1-.4.1-.6.2-.7-.3-.6-.3-1.5-.3-2.2h.1c.1-.2-.1-.1-.1-.2.1.1.2-.2.2 0 .1-.3-.1-.4-.2-.5-.1 0 .1.1-.1.1 0 0 .1-.4-.1-.4.1-.1.2 0 .2 0l-.1-.2c.2-.2.3.5.5.3v-.2c.2-.2.2.4.2 0-.1-.2-.3-.3-.3-.2 0-.3-.3-.2-.3-.5.1-.1 0 .3.1.2.1-.2-.1-.4 0-.5-.1.2-.2 0-.2-.1.1-.2.1.1.2-.2-.1 0-.2-.3-.2-.1-.2-.1.1-.3-.1-.4.1-.1.3.3.4 0-.1 0-.2-.4-.4-.2 0-.1.1-.1.2 0 .1-.2-.2-.4 0-.5l-.1-.1.2-.2c0-.2-.2-.5 0-.5 0 0 0-.4-.2-.3-.1.2.1.2-.1.4.2-.2 0-.3-.1-.4h.1c0-.1 0-.2-.1-.3 0 .1.1 0 .1 0l-.1-.1c-.1-.3.2-.1.2-.3l.1.2s.1-.1.1-.3c-.1 0-.2-.2-.3-.2-.1-.2.1-.1 0-.2l.1.2s.2-.1.2-.3c0-.1-.2-.3-.3-.1 0-.1.1-.3.1-.2 0-.2-.1 0-.2-.2.1-.1.2-.3.3-.5l.2.2V41c.1.2.1-.1.3 0 0-.1 0-.2-.1-.3-.2.3-.3-.3-.6-.3-.1-.4.5-.3.2-.7-.1.1-.2-.1-.2.1 0-.3-.2-.2-.1-.5.1.2.2-.2.3.1-.1 0-.1.2 0 .2.1-.1.2 0 .2-.2s0-.4-.1-.3c-.1 0 0 .2-.1.1 0-.3.2-.4-.1-.5 0 .2-.1.2-.2.2l-.1-.2h.1c.1-.4-.2-.1-.1-.5l.2-.2c.1.1-.1.5.2.5 0-.2-.1-.3-.1-.5 0 0 0 .1.1.2 0-.1.3-.2.1-.5-.1-.2-.1 0-.2 0 0-.4-.1-.5-.1-.7.2 0 0-.4.2-.2-.1.1-.1.7.1.8.2-.1 0 .3.2.4 0-.3.2-.3.3-.3 0-.1 0-.2-.1-.2s-.1.1-.3.1c0-.3 0-.7-.2-.8.1-.1.2-.1.2.1v-1.2c-.2.2-.1-.4-.2-.3-.1.2-.2.4-.3.3 0-.1.1 0 .1 0-.1-.2.2-.3 0-.4.1.4.2.1.4.1-.1-.3.1 0 .1-.2-.1-.3-.2-.6-.2-.9.2-.4 0-.9 0-1.2.1-.2.3 0 .3-.2s-.2.2-.1-.2c0-.1.1-.6-.1-.7l.2.1c0-.1 0-.1-.1-.2.1 0 .1-.1.2 0 .1-.2 0-.4 0-.6l-.1.1c-.1-.4 0-.6 0-1h.1l-.1-.2c.1 0 .2-.1.1-.3l.3.5c-.1.1-.1-.2-.2-.1s-.1.4 0 .5c0-.1 0-.1-.1-.2.2 0 .2.1.3.2v-.2c.1.1.1.3.1.5-.1-.1-.1.1-.1 0 .1 0 .2.2.1.5-.2.2.1.5.1.8-.1-.1-.3-.3-.3-.5-.1.2 0 .2-.1.4.1.1.3.2.3.4h-.1c.1.2.2.2.2.5a6.24 6.24 0 0 1 .2 1.7h-.1c.2.2.1.7.2 1-.1.5.1 1-.1 1.3.1.8.2 1.6.1 2.5l-.2-.2c.1.2-.1.1-.1.3.1-.2.2.2.2.3-.1.4 0 .9.1 1.3H69c.2.3 0 .8 0 1.2 0 0-.1.1-.1.3.2.2.2.4.3.7 0 .3 0 .7-.1.9.2 1 .1 1.9.2 2.9l-.1.1c.3 1 0 2.2.1 3l-.2-.1c-.1.3.1.6.2.5-.1.3.1.7-.1.8 0 .3.1.3.1.5-.1.5-.1.7 0 1.2v-.1c0-.1-.1-.1-.1.1.1.2-.1.7.2.5-.1.5.1 1.3-.1 1.8.1 0 .1.1.1.1 0 .5-.1 1 0 1.3 0 .1-.1-.1-.1.1 0 .1.1 0 .1.1v.6c0 .3 0 .7-.1 1-.3.1-.6.3-.9.4s-.3.2-.5.3c-1 .7-2.2 1.3-3.2 1.9-.3.4-.9.3-1 .7-.1 0-.3.2-.3 0-.2.3-.8.3-1.1.7l.1-.1c-.3.1-1.1.7-1.7.9l.2-.2c-.2 0-.7.6-.7.4-.2.1-.2.2-.1.2-.3.1-.5.3-.8.4v-4c.1-.8.4 0 .2-.7 0 0-.1 0 0 0-.1-.2.3-.4.1-.5-.2.1-.1-.1-.2-.1.1-.5.2-.6.1-1h.1c-.2-.5-.1-1-.3-1.3l-.2-7.2.1-7.1c.2-.6.2-.6.1-1.2 0 0 0 .1.1 0-.2 0 0-.4-.2-.5v-2.6c0 .2.2.2.1 0l-.1-.2c0-.1-.1-.3-.2-.1v-2l.1-2.5 1.8-.9c.4-.2.8-.5 1.3-.7s1.1-.6 1.6-1c1.6-.7 3.1-1.3 4.5-2.3.1 0 .1.5-.4 1z"/><path d="M69.1 29.8c-.1.1-.1.3-.2.1 0 0 .1-.1.2-.1zm-.9 5.3s0 .1 0 0c-.1 0-.1 0 0 0-.1 0 0 0 0 0zm0 1.4c-.1 0-.1-.3-.1-.5l.1.5zm-.4 1.3c0 .1-.1 0 0 0 0-.1 0-.1 0 0zm.2.1c0 .1 0 .2-.1.2.1 0 0-.3.1-.2zm-.2 2.7c0 .1.1.2 0 .3 0-.1-.1-.3 0-.3zm.1 1.3v.1c0 .1-.1 0 0-.1zm-5.5 19.5l.1-.1v.1zM60.7 56c0-.1.1-.1.1-.1 0 .1-.1-.1-.1.1zm-.3-5.5h-.2z"/></g><path d="M49.3 69.5l-7.8-4.7.1-17.8 7.8 4.6z" fill="#39576c"/><g class="P"><path d="M49.1 69.6c.2.1 0-.2.1 0 0 .1-.1.1-.1 0zm.4-.8c-.4-.6 0-1.5-.2-2.2 0-.1.2 0 .2-.2-.3-.7-.1-1.7.1-2.6h.1c0-.2-.2-.3-.1-.5h.1c-.1 0 0-.3-.1-.4 0-.1.1-.1.2-.1l-.1-.1c-.3-.3 0-.6-.1-1h.1c-.2-.6-.2-1.3-.2-2h.2c-.1 0-.2-.2-.2-.4.2-.1-.1-.3 0-.5-.2-.2.1-.2-.1-.3l.1-.1c-.2-.1.1-.2 0-.3v-.3c0-.3.1-.4-.1-.4.1-.1.1.3.2.1-.2-.8-.1-1.7-.1-2.5.1-.1.1-.2.2-.2 0-.1 0-.3-.1-.4 0 0 .1 0 .1-.1.1-.2-.2-.2-.1-.3 0 .1.1.1.2.1-.1-.1-.1-.3-.1-.5 0 0 0 .1.1.1-.1-.2 0-.3-.1-.5l.1.1c.1-.3-.2-.1-.1-.3h.1c-.2-.2-.1-.5-.2-.8v-.6h-.1c0-.1.2-.1 0-.2-.1.1-.4-.1-.4.1-.1-.1-.4-.3-.5-.4.1 0 0-.3.2-.2l-.1-.2c.1-.1.1.1.1 0a.76.76 0 0 1-.4-.2c-.2 0-.4.1-.7 0 .1 0 0-.2.1-.2l-.5.1c-.1 0 .1-.1-.1-.2 0 0-.1 0-.1.1 0 0-.3-.1-.3-.3 0-.1.1 0 .1-.1-.1-.1-.2 0-.3-.1s-.3-.1-.3 0c.1 0 0-.1.1 0-.1 0-.3 0-.4-.1.1 0 .1 0 .1-.1-.3 0-.5-.1-.7-.1 0 .1.2-.1.2 0-.2-.3-.6-.2-.8-.5v.1c-.1-.1 0-.2-.2-.2 0-.1-.1 0-.2-.1-.1 0 0 0 .1 0-.2 0-.7-.2-.9-.5h-.3l.1-.1c0-.1-.2-.1-.2-.2-.2 0 .6.2.3.2 0-.1-.3 0-.2-.1-.2-.1-.2 0-.3-.1 0 0 .1-.1 0-.2h-.1c0 .1-.1-.1 0 .1 0-.1-.1 0-.2-.2v-.1c.1.3-.1-.1 0 .2l-.2-.2s0 .1-.1 0c.1.2.2.3.1.4 0 0 0-.1-.1-.1s0 .1 0 .2h-.2c.1.1.2.2.3.2-.2 0 .1.2-.1.3 0 0-.1-.1-.2-.1-.2.1.2.2 0 .4h.2c-.1.1.1.3-.1.3.1.1-.1.3.1.2-.2.3.1.9-.2 1.1 0 0 0 .2.1.2.1-.1-.1-.1 0-.2 0 0 0 .1.1.1 0 .1 0 .2-.2.1-.1.2.3.3.2.6-.1 0-.1 0-.1.1l.1.2c0 .2-.2.1-.3.1 0 .1 0 .2.1.3l-.2.1c.1-.1.1.1.1.1v.2c.1 0 .1-.1.1-.2 0 0 0 .1.1.2-.1 0-.1.2-.1.3s.1.1.1.1c-.1 0 0 .2-.1.1 0 0 .1-.1 0-.1 0 .1-.2.1-.1.2s.2 0 .2.2l-.1-.1-.2.3h.1c.1 0 0 .3.2.3 0 .1-.1.2-.1.3-.1.1 0 .2 0 .3s0 .2.1.3c-.1.1-.4 0-.3.2 0 .2.2.2.3.2-.1.3.1.6-.1.8 0 0 .1 0 .1.1 0 .4.1.8-.1 1.1 0-.1-.1 0-.2 0 .1.1-.1.1.1.2.1 0 .2 0 .2-.1v.7c0-.1.1 0 .1 0-.2 0-.2.2-.1.3h.1l-.1.1s.2.1.1.2h-.1c.1.1.2.3.1.5l-.2.1c0 .1.1.2.1.1-.1.3-.1.4-.2.5.3.4.3 1 .3 1.5h-.1c-.1.1.1.1.1.2-.1 0-.2.1-.2 0-.1.2.1.3.2.4.1 0-.1-.1.1-.1 0 0-.1.3.1.3h-.2l.1.1c-.2.1-.3-.3-.5-.2v.1c-.2.1-.2-.3-.2 0 .1.1.3.2.3.1 0 .2.3.1.3.4-.1.1 0-.2-.1-.2-.1.1.1.3 0 .4.1-.1.2 0 .2.1-.1.1-.1-.1-.2.1.1 0 .2.2.2.1.2.1 0 .2.1.3-.1.1-.3-.2-.4 0 .1 0 .2.3.4.2 0 .1-.1.1-.2 0-.1.1.2.3 0 .3h.1l-.2.2c0 .1.2.3 0 .3 0 0 0 .3.2.2.1-.1-.1-.2.1-.3-.2.1 0 .2.1.3h-.1.1c.1 0-.2.1-.2.1h-.1s-.1.1 0 .1c0 0 .1 0 .1-.1.1 0 .2-.1.2-.1s-.1.1 0 0l-.1.1s-.1.1-.1.2c.1 0 .2-.1.2-.2 0 0 0 .1-.1.1.1 0 0-.1.2-.1a.76.76 0 0 0 .2.4l-.2.1.1.1c-.2.1 0 .1-.1.2 0 .1.2.1.2.1 0-.3.4-.2.4-.4.3.1-.1.6.3.4 0-.1.2-.2 0-.2.1.1.2-.1.3.1-.2 0 0 .3-.2.3 0-.1-.1-.1-.1-.1 0 .1-.1.2 0 .3.1 0 .2.1.3 0s-.2-.1 0-.2c.2.1.1.3.3.1-.1-.1-.1-.2 0-.3h.2l-.1.1c.2.2.1-.1.3.1v.2c-.1.1-.3-.2-.3 0 .1.1.2 0 .3.1h-.1s-.1.3.2.3c.1 0 .1-.1.1-.1a.9.9 0 0 0 .5.1c-.1.1.2.2 0 .2 0-.1-.3-.3-.5-.2 0 .2-.2-.1-.3 0 .2.1.1.3 0 .4h.2c.1-.1 0-.1.1-.2.2.1.4.2.6.2 0 .1 0 .2-.1.2.3.1.5.3.7.4 0-.3.3.1.3-.1-.1-.1-.1-.3 0-.3.1.1 0 .1 0 .1.2 0 .1.2.2.1-.3-.1-.2.2-.3.3.2 0-.1.1.1.2.2 0 .4.1.6.1.1.3.5.3.7.4.1.1-.1.2 0 .3s0-.2.2 0c.1 0 .3.3.5.1l-.2.1h.1c0 .1 0 .1-.1.1 0 .2.3.1.4.2v-.2c.3.1.3.2.6.3l-.1.1h.2c-.1.1 0 .2.1.2h-.5c-.1-.1.2-.1.2-.2s-.2-.2-.3-.1c.1.1.1 0 .2 0 0 .2-.2.1-.3.1l.1.1c-.1 0-.2 0-.3-.1.1 0 0-.1.1-.1-.1.1-.2.1-.4-.1 0-.2-.3-.1-.5-.2.1-.1.3-.1.4-.1l-.2-.2c-.1.1-.2.2-.4.1v-.1c-.2 0-.2.1-.4 0l-.8-.5v-.1c-.2.1-.5-.2-.7-.2-.2-.3-.7-.3-.7-.5-.5-.2-1-.4-1.5-.8l.2-.1c-.2 0 0-.1-.1-.2 0 .2-.2.1-.3.1-.2-.2-.5-.3-.8-.3v-.1c-.1 0-.3-.1-.5-.2s-.3-.2-.4-.3V65c0-.1.1-.2.1-.3-.2-.1-.2-.4-.3-.6 0-.2 0-.5.1-.6-.2-.7-.1-1.3-.2-2h.1c-.3-.7 0-1.5-.1-2.1l.2.1c.1-.2 0-.4-.2-.4.1-.2-.1-.5.1-.6 0-.2-.1-.2-.1-.4.1-.4.1-.5 0-.8v.1h.1c-.1-.1.1-.5-.2-.3.1-.4-.1-.9.1-1.2-.1 0-.1-.1-.1-.1 0-.3.1-.7 0-.9 0 0 .1.1.1 0s-.1 0-.1-.1c-.4-.8-.1-1.3-.2-1.8-.1-.8-.1-1.7-.1-2.5-.2-.3.2-.6-.1-.8 0-.1 0-.3.1-.2-.1-.1 0-.3 0-.4v-.3c0-.1 0-.3-.1-.4v.1c.1-.5 0-1.1.1-1.5 0 .1 0 .2.1.3.1-.1-.2-.8 0-.6 0-.1-.1-.3-.1-.2v-.6l2.7 1.5c.4.4-.2.4.3.4 0 .1.1-.1 0 0 .2 0 .1.4.3.3 0-.2.1 0 .2-.1.2.3.2.4.5.4l.2-.1c.4 0 .6.3 1 .2l2.1 1.1 1 .5 1.5.9v3.3l-.1 2.5c-.2.4-.2.4-.1.8h-.1c.2 0 0 .3.2.3v1.8c0-.1-.2-.2-.1 0l.1.1c0 .1.1.2.2.1.1 1.6-.2 3.2-.2 4.7-.1.4 0 .9 0 1.3-.2 1.2-.4 2.3-.3 3.5-.2.1-.6-.1-.7-.6z"/><path d="M48.9 69.5c0-.1-.1-.2.1-.2-.1.1-.1.2-.1.2zm-2.8-2.6s0-.1 0 0c0 0 .1-.1 0 0zm-.8-.5c0-.1.3 0 .4.1l-.4-.1zm-.6-.7c0-.1 0-.1 0 0zm-.1.1c-.1 0-.1-.1-.1-.2 0 .1.2.1.1.2zM43 64.6s-.2 0-.2-.1c.1.1.3.1.2.1zm-.6-.2c0-.1.1-.1 0 0zM42.1 49l.1.1h-.1zm3.6 1c.1 0 0 .1 0 .1-.1 0 .1 0 0-.1zm3.4 1.6H49l.2-.1z"/></g><path d="M49.4 51.6L41.6 47l8.5-4.9 7.8 4.7z" fill="#4e7694"/><g class="P"><path d="M49.2 51.8c.1 0 0-.2.1 0 0 0-.1.1-.1 0z"/><path d="M49.9 51.5c.2-.5.9-.5 1.2-1 0 0 .1.2.2.1.3-.5 1-.7 1.6-.8v.1c.1 0 .1-.3.3-.3v.1c0-.1.2-.2.2-.3.1 0 .1.1.2.1v-.2c0-.4.4-.2.5-.5v.1c.3-.4.7-.6 1.1-.9 0 0 0 .1.1.2 0-.1 0-.2.2-.3.1.1.1-.2.3-.2 0-.2.2 0 .2-.2l.1.1c-.1-.2.2 0 .2-.1s.1 0 .2-.1.3-.1.1-.2c.2.1-.1.1.1.2.3-.3.7-.5 1.1-.8l-.2-.1c.1 0 .1-.1.2-.1-.1 0-.2-.1-.4-.1 0 0 .1 0 .1-.1s-.3 0-.3-.1h.2c-.3 0-.3-.1-.5-.1h.1c-.2 0-.2-.1-.3-.1h.1c-.1-.2-.2.1-.3 0 0 0 .1 0 .1-.1-.2.1-.4-.1-.5-.1-.2-.1-.3-.2-.5-.2 0-.1.1-.2 0-.2-.1.2-.3-.1-.3.2-.1-.1-.3-.3-.4-.3.1 0 0-.2.2-.2v-.1c0-.1.1.1.1 0-.1 0-.3 0-.3-.1-.2 0-.3.2-.5.1.1 0 .1-.2.1-.2l-.4.2c-.1 0 .1-.1 0-.1 0 0-.1 0-.1.1 0 0-.2-.1-.2-.3 0-.1.1 0 .1-.1-.1-.1-.1 0-.2-.1 0-.1-.2 0-.2.1 0 0 0-.1.1 0-.1.1-.2 0-.3 0 0 0 .1 0 .1-.1h-.5c0 .1.1-.1.1 0-.1-.2-.5-.1-.5-.3v.1c-.1-.1 0-.2-.1-.2 0-.1-.1 0-.2 0s0 0 .1 0c-.1 0-.5-.1-.6-.3 0 0-.2.1-.3 0l.1-.1c0-.1-.2-.1-.1-.2-.2.1.4.1.2.1 0-.1-.3 0-.2-.1-.1 0-.2 0-.3-.1 0 0 .2-.1.1-.1-.1-.1-.1 0-.2 0h-.1c-.1.1-.1-.1-.1.1 0-.1-.2-.1-.1-.2l.1-.1-.2.2v-.1c-.1.2-.1-.1-.1.1 0 0 0-.1-.1-.1 0 0-.1 0-.1-.1 0 .1 0 .2-.1.2v-.1c-.1 0 0 0-.1.1 0 0-.2 0-.3-.1-.1.1 0 .2.1.3-.2-.2-.2.3-.4.2 0 0 .1-.2 0-.2-.5-.4-.4-.1-.5-.1l.1.1c-.1-.1-.1.2-.2 0 0 .1-.2 0-.1.2-.3 0-.5.4-.8.2 0 0-.1.1 0 .1.1.1 0-.1.1 0v.1c-.1 0-.2 0-.2-.1-.2 0 0 .3-.2.4 0-.1-.1-.1-.1 0v.2c-.1 0-.2-.1-.2-.2 0 .1-.1.1-.1.2l-.3-.2c.1.1 0 .1 0 .1s-.1 0-.1.1.1 0 .2 0c0 .1-.1.1-.1.2 0-.1-.2 0-.2 0-.1 0 0 .1 0 .1s-.1 0-.1-.1h.1c-.1 0-.1-.1-.2 0 0 .1.1.2 0 .2v-.1h-.1v.1c0 .1-.2.1-.1.3h-.2c-.1 0-.2.1-.2.2 0 0-.1.1-.1.2-.1 0-.2-.3-.3-.2-.1 0 0 .3 0 .3-.2 0-.3.3-.5.2v.1c-.3.1-.4.4-.7.3 0-.1 0-.1-.1-.2 0 .1-.1 0-.1.1.1.1.1.1.2.1-.1.1-.3.3-.5.2.1 0 0 .1 0 .1-.1-.2-.2-.1-.2 0v.1l-.1-.1v.2s0-.1-.1-.1c0 .1.1.2 0 .2 0 0-.1-.1-.2-.1 0 0 0 .1.1.1-.1 0-.2 0-.3-.1.2.2.3.2.1.3H43c-.1 0 .3 0 .2 0h-.5c-.1 0 .3 0 .4 0 .2 0-.1 0 .1 0 .1 0-.1 0 .2 0h-.2c-.2.1-.6 0-.8.1h.1c-.2.1-.4 0-.3 0 .2 0 .5 0 .6-.1.2 0 .5-.1.6 0h-.2c-.1.1.2 0 .1 0 0 0 .2-.1.3-.1l-.2.1c.1 0 .2-.1.2-.1.2-.1 0 0 .1 0-.1.1-.3.2-.3.3.1-.1.2-.1.3-.2l-.2.2c0 .1.2-.2 0 0l.1-.1v.2c.1 0 .3 0 .2.1 0 0 .2.1.2-.1 0-.1-.2 0-.1-.2 0 .2.1.1.2 0v.1h.2s-.1.1 0 .1l.1-.1c.2 0-.1.2.1.2h-.1s0 .1.1.1l.2-.2c.1 0 0 .1.1.1l-.2.1s0 .2.1.2.2-.1.2-.2c0 0 .1.1 0 .2.1 0 0-.1.2-.1 0 .1.1.2.1.4l-.2.1h.1c-.2.1 0 .1-.1.2h.2c0-.3.3-.2.4-.4.2 0-.2.5.2.3 0-.1.2-.2 0-.2.1.1.2-.2.3 0-.1 0 0 .3-.2.3 0-.1 0-.1-.1-.1 0 .1-.1.2 0 .3.1 0 .2.1.2 0 .1-.1-.1 0 0-.1.2 0 .1.2.2.1-.1 0 0-.2 0-.2h.1l-.1.1c.1.1.1-.1.3 0v.2c-.1.1-.2-.2-.3 0 .1.1.2 0 .2.1h-.1s-.1.3.1.2c.1 0 .1-.1.1-.1.2.1.3 0 .4.1-.1.1.2.1 0 .2 0-.1-.2-.2-.4-.1 0 .2-.1-.1-.2.1.1.1 0 .2 0 .4h.1c.1-.1 0-.1.1-.2.1.1.3.1.4.1 0 .1-.1.2-.1.2.2.1.3.2.5.3 0-.2.2.1.2-.1-.1-.1-.1-.3 0-.3v.1c.1 0 0 .2.2.1-.2 0-.2.2-.3.3.2 0-.1.1 0 .2h.5c.1.2.4.2.5.3 0 .1-.1.2 0 .3.1 0 0-.2.1-.1.1 0 .2.3.3 0l-.1.1h.1s0 .1-.1.1c0 .2.2.1.3.1V51c.2 0 .2.2.4.2l-.1.1h.1c-.1.1 0 .2.1.1l-.4.1c0-.1.1-.1.2-.2 0-.1-.1-.2-.2-.1h.1l-.2.2s0 .1.1 0h-.2c.1 0 0-.1.1-.1-.1.1-.2.1-.3 0 0-.2-.3 0-.4-.2-.4-.1-.3-.1-.2-.1 0-.1-.1 0-.1-.2-.1.1-.2.2-.3.2v-.1c-.1 0-.2.1-.3 0-.2-.2-.4-.3-.5-.4v-.1c-.2.1-.3-.1-.5-.1-.2-.2-.5-.2-.5-.4-.4-.1-.7-.3-1.1-.5l.1-.1c-.1 0 0-.1-.1-.1 0 .2-.2.1-.3.1-.1-.2-.4-.2-.6-.2V49c-.2.1-.3-.2-.5-.3v-.2c-.2.1-.2 0-.4 0-.1-.1-.2-.2-.4-.3-.4-.1-.7-.3-1-.5s-.7-.4-1.1-.6h.2c-.2-.1-.4-.2-.6-.2.5-.3 1.3-.7 1.6-1l.2.1c.2 0 .3-.2.2-.3.2-.1.4-.3.6-.3.2-.1.2-.2.2-.3.3-.1.3-.1.5-.3h-.1s0 .1.1.1c0-.1.3-.1.1-.3.3 0 .5-.4.8-.4v-.1c.2-.1.5-.1.6-.3 0 0 0 .1.1.1v-.1c.3-.3.7-.3 1-.5.5-.4 1-.7 1.5-1 .1-.3.5 0 .5-.4.1 0 .2-.1.2 0 .1-.2.4-.1.5-.4.1 0 .2-.1.3-.1l.1-.1c.1 0 .2-.1.3-.1l-.1.1c.2 0 .2-.4.4-.2.1 0 0-.2 0-.1.1-.1.3-.1.4-.2.3.2.6.3.9.5l.6.3c.3.3-.2.3.2.4 0 0 .1-.1 0 0 .1 0 0 .3.2.3 0-.1.1 0 .1-.1.2.2.1.3.3.3v.1c.3-.1.5.2.7 0 1 .6 2.1 1 3.1 1.6l1.5.9 2.1 1.3c-.5.3-1.1.6-1.7.9-.7.2-.7.2-1.1.5v-.1c.1.1-.3.2-.3.3-.1.1-.3.1-.4.2l-.3.2c-.2.1-.4.2-.5.3v-.1.3c-.9.7-2 .9-2.9 1.5-.3.1-.5.3-.8.5-.8.2-1.6.4-2.2 1 .2.3.1-.1.3-.4z"/><path d="M49 51.7c0-.1 0-.2.1-.2 0 .1 0 .2-.1.2zm-1.7-2c-.1 0-.1-.1 0 0 0-.1 0-.1 0 0 0-.1 0 0 0 0zm-.6-.4c0-.1.2 0 .3 0h-.3zm-.4-.6c0-.1.1-.1 0 0zm-.1.1v-.1c-.1.1.1 0 0 .1zm-1-.8s-.1 0-.1-.1c-.1.1.1 0 .1.1zm-.6-.2c0-.1 0-.1 0 0-.1-.1 0-.1 0 0zm4.5-4.5v.1-.1zm3.8 1.1c.1 0 0 .1 0 0-.1.1.1 0 0 0zm2.5 1.1h-.1l.1-.2z"/></g><path d="M57.9 46.8l-.1 17.8-8.5 4.9.1-17.9z" fill="#436685"/><g class="P"><path d="M58.2 46.9c0-.2-.1.1-.1-.1.1 0 .2 0 .1.1z"/><path d="M57.3 46.9c-.4.7-1.3.7-1.8 1.3-.1.1-.1-.2-.2 0-.5.6-1.5 1-2.3 1.2v-.1c-.2 0-.2.3-.4.4v-.1c0 .1-.2.2-.3.3-.1 0-.1-.1-.2-.1v.2c-.1.4-.6.3-.8.6v-.1c-.4.5-1.1.8-1.6 1.2 0 0-.1-.1-.2-.1.1.1.2.3.2.5-.2 0 .1.3 0 .5.2.2-.1.2.1.3l-.2.1c.2.1-.1.2 0 .3v.3c0 .3-.1.4.1.4-.1.1-.1-.3-.2-.1.2.9.1 1.8.1 2.6-.1.1-.1.2-.2.2 0 .1 0 .3.1.4l-.1.1c-.1.2.2.2.1.3 0-.1-.1-.1-.2-.1a.9.9 0 0 1 .1.5s0-.1-.1-.1c.1.2 0 .3.1.5l-.1-.1c-.1.3.2.1.1.3 0-.1-.1 0-.1 0 .2.2.1.6.2.8v.7c0 .1-.2 0-.2.2.2 0 .1.4.3.3 0 .2-.1.5 0 .7-.1-.1-.2.1-.2-.1l-.1.1c-.1 0 0-.1-.1-.1 0 .1.1.3 0 .4.1.2.3.3.3.6-.1-.1-.2.1-.2 0l.3.4c0 .1-.2 0-.1.2 0 0 .1 0 .1.1 0 0 0 .4-.1.4s0-.1-.1 0c0 .2.1.2.1.3s.1.3.2.2c0-.1-.1 0-.1-.1.1.1.1.3.1.4 0-.1-.1-.1-.1-.1.1.2.2.4.3.7.1 0-.2-.1-.1-.1-.1.3.2.7 0 .9h.1c0 .2-.1.1-.1.2-.1 0 0 .1 0 .2s0 0 0-.1c.1.1.2.7.1 1 0 0 .2.2.2.3H50c-.1.1 0 .3-.1.3.1.2-.1-.6 0-.4-.1.1.2.3 0 .3v.3s-.2-.1-.2 0 0 0 .1.1c.1-.1 0 .1.1 0-.1.1.1.1-.1.3l-.2.1c0 .1.2 0 .2-.1 0 0 0 .1-.1.1.2-.3 0 .2.2 0v.2s.1 0 0 .1c.1-.2.2-.3.3-.3 0 0 0 .1-.1.1 0 .1.1 0 .1-.1 0 .1.1.1.1.2.1-.1 0-.2.1-.3 0 .1.1 0 .1 0 0-.1 0-.1.2-.1 0 .1-.1.2 0 .2.3.4.3 0 .5 0l-.2-.2c.1.1.2-.3.3-.1 0-.1.3-.1.2-.2.4-.1.7-.5 1.1-.3 0-.1.2-.1.1-.2-.1 0-.1.1-.1.1V67c.1 0 .2-.1.2.1.3 0 .1-.4.4-.5 0 .1.1.1.1 0l.1-.2c.2-.1.2.1.3.2.1-.1.2-.1.2-.2l.2.1c-.1-.1 0-.1.1-.2v.1s.1-.1.2-.1c0-.1-.2 0-.3 0 0-.1.1-.1.1-.2 0 .1.2 0 .3 0s0-.2.1-.2c0 .1.2-.1.1 0 0 0-.1 0-.1.1.1 0 .1.1.2 0s-.1-.2.1-.2v.2h.2v-.1c0-.1.2-.2.2-.3.1-.1.2 0 .3-.1.1 0 .2-.1.3-.2.1 0 .2-.1.2-.2.2 0 .3.3.3.1.1-.1.1-.3 0-.3.3-.1.5-.4.8-.3v-.1c.2-.1.2-.1.2-.2s0-.1.1-.1c0 .1.1 0 .2 0-.1-.1.1-.1-.1-.1h-.2v-.3c0-.1 0-.3.1-.3 0 .1-.1 0-.1 0 .2 0 .2-.2.1-.3h-.1l.1-.1s-.2-.1-.1-.2h.1c-.1-.1-.2-.3-.1-.5l.1-.1c0-.1-.1-.2-.1-.1.1-.3.1-.4.2-.5-.3-.4-.3-1.1-.3-1.6h.1c.1-.1-.1-.1-.1-.2.1 0 .2-.1.2 0 .1-.2-.1-.3-.2-.4-.1 0 .1.1-.1.1 0 0 .1-.3-.1-.3h.2l-.1-.1c.2-.2.3.3.5.2v-.1c.2-.1.2.3.2 0-.1-.1-.3-.2-.3-.1 0-.3-.3-.1-.3-.4.1-.1 0 .2.1.2.1-.1-.1-.3 0-.4-.1.1-.2 0-.2-.1.1-.1.1.1.2-.1-.1 0-.2-.2-.2-.1-.2-.1 0-.2-.1-.3.1-.1.3.2.4 0-.1 0-.2-.3-.4-.2 0-.1.1-.1.2 0 .1-.1-.2-.3 0-.3h-.1l.2-.2c0-.1-.2-.3 0-.3 0 0 0-.3-.2-.2s0 .1-.2.2c.2-.1 0-.2-.1-.3h.1s0-.2-.1-.2c-.1-.2.2 0 .2-.3l.1.2s.1-.1 0-.2c-.1 0-.2-.1-.3-.1 0-.1.1 0 0-.2l.1.1s.2-.1.2-.3c0-.1-.2-.3-.3-.1 0-.1.1-.2.1-.1 0-.2-.1 0-.2-.1.1-.1.2-.3.3-.4l.2.2v-.1c.1.1.1-.1.3 0 0-.1 0-.2-.1-.2-.2.2-.3-.2-.5-.2-.1-.3.5-.2.2-.5-.1 0-.2-.1-.2.1 0-.2-.2-.1-.1-.3.1.2.2-.2.4.1-.1 0-.1.1 0 .2.1-.1.2 0 .2-.2 0-.1 0-.3-.1-.2-.1 0 0 .2-.1.1 0-.2.2-.3-.1-.3 0 .1-.1.2-.2.2v-.2h.1c.1-.3-.2-.1-.1-.3l.2-.1c.1.1-.1.4.2.3 0-.2-.1-.2 0-.4v.1c0-.1.3-.1.1-.3-.1-.1-.1 0-.2 0 0-.3-.1-.3-.1-.5.2 0 0-.3.2-.1-.1.1-.1.5.1.6.2-.1 0 .2.2.3 0-.2.2-.2.3-.2 0-.1 0-.1-.1-.2h-.3c0-.2 0-.5-.2-.6.1-.1.2 0 .2 0v-.8c-.2.2 0-.3-.2-.2 0 .1-.2.3-.3.2 0-.1.1 0 .1 0-.1-.1.2-.2 0-.3.1.3.2 0 .4.1-.1-.2.1 0 .1-.2-.1-.2-.2-.4-.2-.6.2-.3 0-.7 0-.9.1-.1.3 0 .3-.2s-.2.1-.1-.1c0-.1.1-.4-.1-.5l.2.1v-.1h.2c.1-.1 0-.3 0-.4l-.1.1c-.1-.3 0-.4 0-.7h.1l-.1-.2c.1 0 .2-.1.1-.2l.3.4c-.1.1-.1-.1-.2 0s-.1.3 0 .3v-.2c.2 0 .2.1.3.2V48c.1.1.1.2.1.3-.1-.1-.1.1-.1 0 .1 0 .2.2.1.3-.2.1.1.3 0 .6-.1-.1-.3-.2-.3-.3-.1.1 0 .2-.1.3.1.1.3.1.3.3h-.1c0 .2.2.2.2.4 0 .3 0 .7-.1 1h-.1c.2.2.1.5.2.7-.1.3.1.7-.1.9.1.6.2 1.1.1 1.8l-.3-.3c.1.1-.1.1-.1.2.1-.1.2.2.2.2-.1.3 0 .6.1.9h-.1c.2.3 0 .5 0 .9 0 0-.1.1-.1.2.2.2.2.3.3.5 0 .2 0 .5-.1.7.2.7.1 1.4.2 2.1h-.1c.3.7 0 1.5.1 2.1l-.2-.1c-.1.2 0 .4.2.4-.1.2.1.5-.1.6 0 .2.1.2.1.4-.1.4-.1.5 0 .9v-.1h-.1v.3c0 .1 0 .3.2.2v.7c-.2.1-.4.3-.6.4-.1.1-.2.1-.3.2h-.2c.1 0 0 .1 0 .2-.3.2-.7.2-.8.4-.1 0 0-.1-.1-.1-.1.1 0 .1 0 .2-.4.4-1 .4-1.4.7-.7.5-1.5.9-2.2 1.4v-.1c-.2.3-.7.2-.7.5-.1 0-.2.1-.2 0-.2.3-.5.1-1 .6l.1-.1c-.5.2-.9.6-1.4.7.1-.1.2-.1.2-.2-.1 0-.6.6-.5.3-.1.1-.2.2-.1.2-.2.1-.4.2-.5.3v-1.5c0-.5-.1-1.1-.1-1.6.1-.6.4 0 .2-.5 0 0-.1 0 0 0-.1-.2.3-.3.1-.4-.1.1-.1-.1-.2-.1.1-.3.2-.4.1-.7h.1c-.2-.3-.1-.7-.3-.9l-.2-5.1.1-5c.2-.4.2-.4.1-.9h.1c-.2 0 0-.3-.2-.3v-2.3c0 .2.2.3.1.1l-.1-.3c.1-.1.2-.2 0-.2l1-.6.2-.4c.4-.2.7-.4 1.1-.5.7-.3 1.5-.7 2.1-1.1.4-.1.8-.5 1.1-.7 1.2-.4 2.2-.8 3.2-1.5.1 0 .2.4-.2.7z"/><path d="M58.2 47.2c-.1 0-.1.2-.2.1.1-.1.1-.2.2-.1zm-.9 3.7c.1 0 0 .1 0 0 0 .1-.1 0 0 0zm0 1c-.1 0-.1-.2-.1-.3l.1.3zm-.3.9c-.1.1-.1.1 0 0-.1 0 0 0 0 0zm.2.1c0 .1 0 .1-.1.2 0-.1-.1-.3.1-.2zm-.3 1.9s.1.2 0 .2c.1 0-.1-.2 0-.2zm.1.9c0 .1 0 .1 0 0 0 .2 0 .1 0 0zm-6.1 12.2h.1zm-1-3.6c0-.1.1-.1 0 0 .1 0 0-.1 0 0zm-.3-3.9h-.2z"/></g><path d="M38.5 75.6L30.7 71l.1-22.7 7.8 4.7z" fill="#a1afb7"/><g class="P"><path d="M38.3 75.7c.2.1 0-.2.2 0-.1.1-.2.1-.2 0zm.4-.9c-.4-.8 0-1.7-.2-2.6 0-.1.2 0 .2-.2-.3-.8-.1-2.1.1-3l.1.1c0-.2-.2-.4-.1-.6 0 0 .1.1.1 0-.1-.1 0-.3-.1-.4 0-.1.1-.1.2-.2l-.1-.1c-.3-.3 0-.8-.1-1.2 0 0 .1.1.1 0-.2-.7-.2-1.5-.2-2.3 0 0 .1.1.2 0-.1 0-.2-.3-.2-.5.2-.1-.1-.3 0-.6-.2-.2.1-.3-.1-.4l.1-.1c-.2-.1.1-.3 0-.4V62c0-.3.1-.5-.1-.5.1-.1.1.3.2.1-.2-1-.1-2-.1-3 .1-.1.1-.2.2-.2 0-.1 0-.4-.1-.5l.1-.1c.1-.2-.2-.2-.1-.4 0 .1.1.1.2.1-.1-.2-.1-.4-.1-.6 0 0 0 .1.1.1-.1-.2 0-.4-.1-.6l.1.1c.1-.3-.2-.1-.1-.4 0 .1.1 0 .1 0-.2-.3-.1-.7-.2-.9v-.8c0-.1.2 0 .2-.3-.2 0-.1-.5-.3-.3 0-.3.1-.6 0-.7.1.1.2-.2.2 0l.1-.2c.1 0 0 .2.1.1v-.3c-.1 0-.2-.1-.3-.2-.3 0-.5.1-.8-.1.2 0 0-.2.1-.2l-.5.1c-.1 0 .1-.1-.1-.2h-.2s-.4-.2-.3-.3c0-.1.2 0 .1-.1-.2-.1-.2 0-.4-.1-.1-.1-.3-.1-.3 0 .1 0 0-.1.1 0-.1 0-.3 0-.5-.1.1 0 .1 0 .1-.1-.3 0-.5-.1-.8-.2 0 .1.2-.1.2 0-.3-.3-.7-.2-.9-.5v.1c-.1-.1-.1-.2-.2-.2 0-.1-.1 0-.3-.1-.1 0 0 0 .1 0-.2 0-.8-.3-1.1-.5h-.4l.1-.1c0-.1-.3-.1-.2-.2-.2 0 .7.3.4.2 0-.1-.4 0-.3-.1-.2-.1-.4-.1-.4-.2 0 0 .2-.1.1-.1-.2-.1-.1 0-.2 0h-.1c0 .1-.1-.1-.1.1 0-.1-.1 0-.1-.2v-.2c-.1 0-.1.1-.1.2v-.1c.1.3-.1-.1-.1.1l-.2-.2s0 .1-.1 0c.1.2.1.3.1.4 0 0 0-.1-.1-.1s0 .1 0 .2c0 0-.1 0-.2.1.1.2.2.2.3.2-.2 0 .1.2-.1.5 0-.1-.1-.3-.2-.1-.2.2.2.3 0 .6l.2-.1c-.1.1.1.4-.1.3.1.1-.1.3.1.3-.1.4.1 1-.2 1.3 0 .1 0 .2.1.2.1-.1-.1-.1 0-.2 0 0 0 .1.1.1 0 .1 0 .2-.2.1-.1.3.3.3.2.7-.1 0-.1 0-.1.1l.1.2c0 .2-.2.1-.3.1 0 .1 0 .3.1.3l-.2.2c.1-.1.1.1.1.2v-.1.2c.1 0 .1-.2.1-.3 0 .1 0 .2.1.3-.1 0-.1.2-.1.3s.1.1.1.2c-.1 0 0 .2-.1.1 0 0 .1-.1 0-.2 0 .1-.2.1-.1.2s.2 0 .2.2c0-.1-.1-.1-.1-.1l-.1.2h.1c.1.1 0 .3.2.4 0 .1-.1.2-.1.3-.1.1 0 .3 0 .4s0 .2.1.3c-.1.2-.4.1-.3.2 0 .2.2.3.3.2-.1.3.1.7-.1 1 0 0 .1 0 .1.1 0 .5.1 1-.1 1.3 0-.1-.1 0-.2 0 .1.1-.1.1.1.2.1 0 .1 0 .2-.1v.8c0-.1.1 0 .1 0-.2 0-.2.2-.1.3h.1l-.1.1c0 .1.2.1.1.2h-.1c.1.2.2.4.1.5l-.1.1c0 .1.1.2.1.1-.1.3-.1.5-.2.6.3.5.3 1.2.3 1.8h-.1c-.1.2.1.1.1.2-.1-.1-.1.1-.2 0-.1.2.1.3.2.4.1 0-.1-.1.1-.1 0 0-.1.3.1.3-.1.1-.2 0-.2 0l.1.1c-.2.2-.3-.4-.5-.2v.1c-.1.1-.2-.3-.2 0 .1.1.3.3.4.1 0 .3.4.1.3.4-.1.1 0-.3-.1-.2s.1.3 0 .4c.1-.1.2 0 .2.1-.1.2-.1-.1-.1.1.1 0 .1.2.2.1.2.1 0 .2.1.3-.1.1-.3-.2-.4 0 .1 0 .2.3.4.2 0 .1-.1.1-.2 0-.1.1.2.3 0 .4l.1.1s-.1.1-.1.2.2.4 0 .4c0 0 0 .3.1.2.1-.2-.1-.2.1-.3-.1.1 0 .3.1.3H32c0 .1 0 .2.1.2H32l.1.1c.1.2-.2.1-.2.3l-.4.2s-.1.1 0 .2c.1 0 .2.1.3.2 0 .1-.1.1 0 .2l-.1-.2s-.2.1-.2.3c0 .1.2.3.3.1 0 .1-.1.2-.1.1 0 .2.1 0 .2.2 0 0-.1.1-.1.2l-.1.1c-.1 0-.1 0-.2-.1v.1c-.1-.1-.1.1-.3 0 0 .1 0 .1.1.2.2-.2.3 0 .5-.1l.1-.1c.1 0-.4.4 0 .2 0-.1.1-.2.1-.1l.1-.1s.1 0 .2.1c-.2 0 .1.3-.2.3.1-.1-.1-.1-.1-.1 0 .1-.1.2 0 .3s.3.1.3 0c.1-.1-.2-.1 0-.2.2.1.2.3.4.1-.2-.1-.1-.2-.1-.3l.2.1-.1.1c.2.2.2-.1.4.1v.2c-.1.1-.3-.3-.4 0 .2.1.3 0 .4.2H33s0 .3.3.3c.2 0 .1-.1.1-.1.3.1.4.1.6.2-.1.1.3.2 0 .2 0-.1-.4-.3-.6-.3 0 .2-.2-.1-.3 0 .2.1.1.3.1.4h.2c.1-.1 0-.1.1-.2.2.2.5.2.7.2 0 .1 0 .2-.1.1.3.1.6.3.8.5-.1-.3.3.1.3-.1-.1-.1-.2-.3 0-.3.1.1 0 .1 0 .1.2 0 .1.3.3.2-.3-.1-.2.2-.3.3.2 0-.1.1.1.2.2 0 .5.1.7.2.2.3.6.4.9.5.1.1-.1.2 0 .3.2.1 0-.2.2 0 .1 0 .3.3.5.2l-.2.1h.1c0 .1 0 .1-.1.1.1.2.3.2.5.2v-.2c.3.1.4.3.7.4l-.1.1h.2c-.1.1 0 .2.1.2h-.5c-.1-.1.2-.1.2-.2s-.3-.2-.3-.2c.1.1.1 0 .2.1 0 .2-.2.1-.3.1l.1.1c-.1 0-.2 0-.4-.1.1 0 0-.1 0-.1-.1.1-.3.1-.4-.1 0-.2-.4-.1-.6-.3.2-.1.3-.1.5-.1-.1-.1-.2-.1-.3-.2-.1.1-.2.2-.5.1v-.1c-.2-.1-.3.1-.5-.1-.3-.3-.7-.5-.9-.6v-.1c-.3.1-.5-.2-.8-.3-.3-.3-.8-.3-.9-.6-.6-.3-1.2-.5-1.8-.9l.2-.1c-.2 0 0-.1-.2-.2.1.2-.3 0-.5 0l-.3-.3c0-.3-.1-.7-.1-.9h.1c-.2-.3 0-.6 0-1 0 0 .1-.1.1-.2-.2-.2-.1-.3-.3-.6 0-.2 0-.5.1-.8-.2-.8-.1-1.6-.2-2.4l.1-.1c-.3-.8 0-1.8-.1-2.4l.2.1c.1-.2 0-.5-.2-.4.1-.2-.1-.5.1-.7 0-.2-.1-.3-.1-.4a1.7 1.7 0 0 0 0-1v.1h.1c-.1-.2.1-.6-.2-.4.1-.4-.1-1 .1-1.4-.1 0-.1-.1-.1-.1 0-.4.1-.8 0-1.1 0-.1.1.1.1-.1 0-.1-.1 0-.1-.1-.1-.6.1-1.3.1-1.8-.1-1 0-2-.1-3-.2-.3.2-.8-.1-1 0-.1 0-.3.1-.2-.1-.1 0-.3 0-.5v-.3c0-.1 0-.2-.1-.4v.2c.1-.6 0-1.2.1-1.8 0 .1 0 .2.1.3.1-.1-.2-.8 0-.7 0-.1-.1-.3-.1-.2v-.7l1.6.9c.5.3 1 .5 1.5.8.5.5-.2.4.4.5 0 .1.1-.1 0 0 .2 0 .1.4.3.3 0-.2.1 0 .2-.1.3.3.3.4.6.5h-.1c.4 0 .7.3 1.1.3.6.3 1.2.6 1.7 1l.9.5 1.3.8v2.5l-.1 5.8c-.2.5-.2.5-.1 1h-.1c.2 0 0 .3.2.4v2.1c0-.1-.2-.2-.1 0l.1.2c0 .1.1.2.2.1.1 1.9-.2 3.7-.2 5.5-.1.4 0 1.1 0 1.5-.2 1.4-.4 2.7-.3 4.1-.3 0-.7-.2-.8-.8z"/><path d="M38 75.6c0-.1-.1-.2 0-.3 0 .1.1.3 0 .3zm-3.3-2.9s0-.1 0 0c0-.1.1-.1 0 0 .1-.1 0 0 0 0zm-.9-.6c0-.1.3 0 .4.1l-.4-.1zm-.8-.8c0-.1 0-.1 0 0zm-.1.1c-.1 0-.1-.1-.1-.2 0 .1.2.1.1.2zm-1.3-1zm-.1-.6c0-.1.1-.1 0 0 .1-.2.1-.1 0 0zm-.2-19.1l.1.2-.1-.1zm4.3 1.1c.1 0 0 .1 0 .1s.2 0 0-.1zm2.9 2.5h.1z"/></g><path d="M38.6 53l-7.8-4.7 8.5-4.8 7.9 4.6z" fill="#d3e7f1"/><g class="P"><path d="M38.4 53.2c.1 0 0-.2.1 0h-.1z"/><path d="M39.1 52.9c.2-.5.9-.5 1.2-1 0 0 .1.2.2.1.3-.5 1-.7 1.6-.8v.1c.1 0 .1-.3.3-.3v.1c0-.1.2-.2.2-.3.1 0 .1.1.2.1v-.2c0-.4.4-.2.5-.5v.1c.3-.4.7-.6 1.1-.9 0 0 0 .1.1.2 0-.1 0-.2.2-.3.1.1.1-.2.3-.2 0-.2.2 0 .2-.2l.1.1c-.1-.2.2 0 .2-.1s.1 0 .2-.1.3-.1.1-.2c.2.1-.1.1.1.2.3-.3.7-.5 1.1-.8h-.3c.1 0 .1-.1.2-.1-.1 0-.2-.1-.4-.1 0 0 .1 0 .1-.1s-.3 0-.3-.1h.2c-.3 0-.3-.1-.5-.1h.1c-.2 0-.2-.1-.3-.1h.1c-.1-.2-.2.1-.3 0 0 0 .1 0 .1-.1-.2.1-.4-.1-.5-.1-.2-.1-.3-.2-.5-.2 0-.1.1-.2 0-.2-.1.2-.3-.1-.3.2-.1-.1-.3-.3-.4-.3.1 0 0-.2.2-.2v-.1c0-.1.1.1.1 0-.1 0-.3 0-.3-.1-.2 0-.3.2-.5.1.1 0 .1-.2.1-.2l-.4.2c-.1 0 .1-.1 0-.1 0 0-.1 0-.1.1 0 0-.2-.1-.2-.3 0-.1.1 0 .1-.1-.1-.1-.1 0-.2-.1 0-.1-.2 0-.2.1 0 0 0-.1.1 0-.1.1-.2 0-.3 0 0 0 .1 0 .1-.1H42c0 .1.1-.1.1 0-.1-.2-.5-.1-.5-.3v.1c-.1-.1 0-.2-.1-.2 0-.1-.1 0-.2 0s0 0 .1 0c-.1 0-.5-.1-.6-.3 0 0-.2.1-.3 0l.1-.1c0-.1-.2-.1-.1-.2-.2.1.4.1.2.1 0-.1-.3 0-.2-.1-.1 0-.2 0-.3-.1 0 0 .2-.1.1-.1-.1-.1-.1 0-.2 0H40c-.1.1-.1-.1-.1.1 0-.1-.2-.1-.1-.2l.1-.1-.2.2v-.1c-.1.2-.1-.1-.1.1 0 0 0-.1-.1-.1 0 0-.1 0-.1-.1 0 .1 0 .2-.1.2v-.1c-.1 0 0 0-.1.1 0 0-.2 0-.3-.1-.1.1 0 .2.1.3-.2-.2-.2.3-.4.2 0 0 .1-.2 0-.2-.2-.1-.1.2-.3.2l.1.1c-.1-.1-.1.2-.2 0 0 .1-.2 0-.1.2-.3 0-.5.4-.8.2 0 0-.1.1 0 .1.1.1 0-.1.1 0v.1c-.1 0-.2 0-.2-.1-.2 0 0 .3-.2.4 0-.1-.1-.1-.1 0v.2c-.1 0-.2-.1-.2-.2 0 .1-.1.1-.1.2l-.2-.1c.1.1 0 .1 0 .1s-.1 0-.1.1.1 0 .2 0c0 .1-.1.1-.1.2 0-.1-.2 0-.2 0-.1 0 0 .1 0 .1s-.1 0-.1-.1h.1c-.1 0-.1-.1-.2 0 0 .1.1.2 0 .2v-.1h-.1v.1c0 .1-.2.1-.1.3h-.2c-.1 0-.2.1-.2.2 0 0-.1.1-.1.2-.1 0-.2-.3-.3-.2-.1 0 0 .3 0 .3-.2 0-.3.3-.5.2v.1c-.3.1-.4.4-.7.3 0-.1 0-.1-.1-.2 0 .1-.1 0-.1.1.1.1.1.1.2.1-.1.1-.3.3-.5.2.1 0 0 .1 0 .1-.1-.2-.2-.1-.2 0v.1l-.1-.1v.2s0-.1-.1-.1c0 .1.1.2 0 .2 0 0-.1-.1-.2-.1 0 0 0 .1.1.1-.1 0-.2 0-.3-.1.2.2.3.2.1.3h-.2c-.1 0 .3 0 .2 0h-.5c-.1 0 .3 0 .4 0 .2 0-.1 0 .1 0 .1 0-.1 0 .2 0h-.2c-.2.1-.6 0-.9.1h.1c-.2.1-.4 0-.4 0 .2 0 .5 0 .6-.1.1 0 .5-.1.6 0h-.2c-.1.1.2 0 .1 0 0 0 .2-.1.3-.1l-.2.1c.1 0 .2-.1.2-.1.2-.1 0 0 .1 0-.1.1-.3.2-.3.3.1-.1.2-.1.3-.2l-.2.2c0 .1.2-.2 0 0l.1-.1v.2c.1 0 .3 0 .2.1 0 0 .2.1.2-.1 0-.1-.2 0-.1-.2 0 .2.1.1.2 0v.1h.2s-.1.1 0 .1l.1-.1c.2 0-.1.2.1.2h-.1s0 .1.1.1l.2-.2c.1 0 0 .1.1.1l-.2.1s0 .2.1.2.2-.1.2-.2c0 0 .1.1 0 .2.1 0 0-.1.2-.1 0 .1.1.2.1.4l-.2.1h.1c-.2.1 0 .1-.1.2h.2c0-.3.3-.2.4-.4.2 0-.2.5.2.3 0-.1.2-.2 0-.2.1.1.2-.2.3 0-.1 0 0 .3-.2.3 0-.1 0-.1-.1-.1 0 .1-.1.2 0 .3.1 0 .2.1.2 0 .1-.1-.1 0 0-.1.2 0 .1.2.2.1-.1 0 0-.2 0-.2h.1l-.5-.5c.1.1.1-.1.3 0v.2c-.1.1-.2-.2-.3 0 .1.1.2 0 .2.1h-.1s-.1.3.1.2c.1 0 .1-.1.1-.1.2.1.3 0 .4.1-.1.1.2.1 0 .2 0-.1-.2-.2-.4-.1 0 .2-.1-.1-.2.1.1.1 0 .2 0 .4h.1c.1-.1 0-.1.1-.2.1.1.3.1.4.1 0 .1-.1.2-.1.2.2.1.3.2.5.3 0-.2.2.1.2-.1-.1-.1-.1-.3 0-.3v.1c.1 0 0 .2.2.1-.2 0-.2.2-.3.3.2 0-.1.1 0 .2h.5c.1.2.4.2.5.3 0 .1-.1.2 0 .3.1 0 0-.2.1-.1.1 0 .2.3.3 0l-.1.1h.1s0 .1-.1.1c0 .2.2.1.3.1v-.1c.2 0 .2.2.4.2l-.1.1h.1c-.1.1 0 .2.1.1l-.4.1c0-.1.1-.1.2-.2 0-.1-.1-.2-.2-.1h.1l-.2.2s0 .1.1 0h-.2c.1 0 0-.1.1-.1-.1.1-.2.1-.3 0 0-.2-.3 0-.4-.2.1-.1.2-.1.3-.2 0-.1-.1 0-.1-.2-.1.1-.2.2-.3.2v-.1c-.1 0-.2.1-.3 0-.2-.2-.4-.3-.5-.4v-.1c-.2.1-.3-.1-.5-.1-.2-.2-.5-.2-.5-.4-.4-.1-.7-.3-1.1-.5l.1-.1c-.1 0 0-.1-.1-.1 0 .2-.2.1-.3.1-.1-.2-.4-.2-.6-.2v-.1c-.2.1-.3-.2-.5-.3v-.2c-.2.1-.2 0-.4 0-.1-.1-.2-.2-.4-.3-.4-.1-.7-.3-1-.5s-.6-.4-1.1-.6h.2c-.2-.1-.4-.2-.6-.2.5-.3 1.3-.7 1.6-1l.2.1c.2 0 .3-.2.1-.3.2-.1.4-.3.6-.3.2-.1.2-.2.2-.3.3-.1.3-.1.5-.3h-.1s0 .1.1.1c0-.1.3-.1.1-.3.3 0 .5-.4.8-.4v-.1c.2-.1.5-.1.6-.3 0 0 0 .1.1.1V45c.3-.3.7-.3 1-.5.5-.4 1-.7 1.5-1 .1-.3.5 0 .5-.4.1 0 .2-.1.2 0 .1-.2.4-.1.5-.4.1 0 .2-.1.3-.1l.1-.1c.1 0 .2-.1.3-.1l-.1.1c.2 0 .2-.4.4-.2.1 0 0-.2 0-.1.1-.1.3-.1.4-.2.3.2.6.3.9.5l.6.3c.3.3-.2.3.2.4 0 0 .1-.1 0 0 .1 0 0 .3.2.3 0-.1.1 0 .1-.1.2.2.1.3.3.3v.1c.3-.1.5.2.7 0 1 .6 2.1 1 3.1 1.6l1.5.9 2.1 1.3c-.5.3-1.1.6-1.7.9-.7.2-.7.2-1.1.5v-.1c.1.1-.3.2-.3.3.1.7 0 .8-.1.8l-.3.2c-.2.1-.4.2-.5.3v-.1.3c-.9.7-2 .9-2.9 1.5-.3.1-.5.3-.8.5-.8.2-1.6.4-2.2 1-.1-.1-.2-.5 0-.8z"/><path d="M38.3 53.1c0-.1 0-.2.1-.2-.1 0-.1.1-.1.2zM36.5 51c0 .1 0 0 0 0zm-.6-.3c0-.1.2 0 .3 0h-.3zm-.4-.6c0-.1.1-.1 0 0zm-.1.1v-.1c-.1 0 .1 0 0 .1zm-1-.9s-.1 0-.1-.1c0 .1.2.1.1.1zm-.6-.2c-.1 0 0-.1 0 0zm4.6-4.4l-.1.1v-.1zm3.7 1.1c.1 0 0 .1 0 0-.1.1.1 0 0 0zm2.5 1l.1-.1z"/></g><path d="M47.2 48.1L47 70.8l-8.5 4.8.1-22.6z" fill="#b1c5d2"/><g class="P"><path d="M47.4 48.3c0-.2-.1.1-.1-.2.1.1.2.1.1.2z"/><path d="M46.4 48.4c-.5.7-1.5.9-2.2 1.5-.1.1-.1-.2-.3 0-.6.7-1.8 1.1-2.7 1.4v-.1c-.2.1-.3.3-.5.4v-.1c0 .1-.3.2-.3.3-.1 0-.1-.1-.3-.1v.2c-.1.4-.7.4-1 .7v-.1c-.2.2-.3.3-.5.4.1.6 0 1.1.1 1.7 0 0-.1-.1-.2 0 .1 0 .2.3.2.5-.2.1.1.4 0 .6.2.2-.1.3.1.4l-.1.1c.2.1-.1.3 0 .4v.3c0 .3-.1.5.1.5-.1.1-.1-.3-.2-.1.2 1 .1 2 .1 3.1-.1.1-.1.2-.2.2 0 .1 0 .4.1.5l-.1.1c-.1.2.2.2.1.4 0-.1-.1-.1-.2-.1.1.2.1.4.1.6 0 0 0-.1-.1-.1.1.2 0 .4.1.6l-.1-.1c-.1.3.2.1.1.4 0-.1-.1 0-.1 0 .2.3.1.7.2.9v.9c0 .1-.2 0-.2.3.2 0 .1.5.3.3 0 .3-.1.7 0 .8-.1-.1-.2.1-.2-.1l-.1.2c-.1 0 0-.2-.1-.1 0 .1.1.4 0 .5.1.2.3.4.3.7-.1-.2-.2.1-.2 0l.3.4c0 .1-.2 0-.1.2l.1.1s0 .4-.1.5 0-.2-.1-.1c0 .2.1.2.1.4 0 .1.1.4.2.2 0-.1-.1 0-.1-.1.1.1.1.3.1.5 0-.1-.1-.1-.1-.1l.3.8c.1 0-.2-.1-.1-.2-.1.4.2.8 0 1.1 0-.1.1 0 .1 0 0 .2-.1.2-.1.3-.1 0 0 .2 0 .3s0 0 0-.1c.1.2.2.8.1 1.2 0 0 .2.2.2.3h-.1c-.1.1 0 .3-.1.3.1.2-.1-.7 0-.5-.1.1.2.4 0 .3 0 .2.1.3 0 .5 0-.1-.2-.1-.2 0 0 .2 0 .1.1.2v.1c.1 0 0 .1.1 0-.1.1.1.1-.1.3l-.2.1c0 .1.2 0 .2 0s0 .1-.1.1c.2-.2 0 .2.2 0v.3s.1 0 0 .1c.1-.2.2-.3.3-.3 0 0 0 .1-.1.1 0 .1.1 0 .1-.1 0 .1.1.1.2.1.1-.1 0-.2 0-.3.1.1.1 0 .2 0 .1-.1.2-.2.3-.2 0 .1-.2.2 0 .2.3.1.2-.3.5-.3l-.2-.1c.2 0 .3-.3.3-.1 0-.1.3-.1.2-.2.4-.1.8-.6 1.2-.4 0-.1.2-.1.1-.2-.1 0-.1.1-.2.1V73c.1 0 .2-.1.2.1.3-.1.1-.4.5-.5 0 .1.1.1.2 0l.1-.2c.2-.1.2.1.3.2l.3-.3.2.1c-.2 0 0-.1.1-.2v.1l.2-.1c0-.1-.2 0-.3 0 0-.1.1-.1.2-.2 0 .1.2 0 .3-.1.1 0 .1-.2.1-.2 0 .1.2-.1.1 0 0 0-.1 0-.1.1.1 0 .1.1.2-.1.1-.1-.2-.2.1-.2v.2l.2-.1v-.1c0-.1.3-.2.2-.3.1-.1.2-.1.3-.1s.3-.1.3-.2c.1 0 .2-.1.2-.2.2 0 .3.3.3.2.1-.1 0-.2-.1-.3h.1v-.2c0-.1 0-.1.1-.2 0-.1-.1 0-.1-.1 0-.5-.1-1 .1-1.4 0 .1.1 0 .2 0-.1-.1.1-.1-.1-.2-.1 0-.2 0-.2.1v-.9c0 .1-.1 0-.1 0 .2 0 .2-.2.1-.3H46l.1-.1c0-.1-.2-.1-.1-.2h.1c-.1-.2-.2-.4-.1-.6l.1-.1c0-.1-.1-.2-.1-.1.1-.3.1-.5.2-.6-.3-.5-.3-1.3-.3-1.8h.1c.1-.2-.1-.1-.1-.2.1 0 .2-.1.2 0 .1-.2-.1-.3-.2-.5-.1 0 .1.1-.1.1 0 0 .1-.3-.1-.3.1-.1.2 0 .2 0l-.1-.1c.2-.2.3.4.5.2V63c.2-.1.2.3.2 0-.1-.1-.3-.3-.3-.1 0-.3-.3-.1-.3-.5.1-.1 0 .3.1.2.1-.2-.1-.3 0-.4-.1.2-.2 0-.2-.1.1-.2.1.1.2-.1-.1 0-.2-.3-.2-.1-.2-.1 0-.2-.1-.4.1-.1.3.2.4 0-.1 0-.2-.3-.4-.2 0-.1.1-.1.2 0 .1-.1-.2-.3 0-.4h-.1l.2-.2c0-.1-.2-.4 0-.4 0 0 0-.3-.2-.2-.1.2.1.2-.1.3.2-.1 0-.3-.1-.3h.1c0-.1 0-.2-.1-.2h.1l-.1-.1c-.1-.2.2-.1.2-.3l.1.2s.1-.1 0-.2c-.1 0-.2-.1-.3-.2 0-.1.1-.1 0-.2l.1.2s.2-.1.2-.3c0-.1-.2-.3-.3-.1 0-.1.1-.2.1-.1 0-.2-.1 0-.2-.2.1-.1.2-.3.3-.4l.2.2V58c.1.2.1-.1.3 0 0-.1 0-.2-.1-.3-.2.2-.3-.3-.5-.2-.1-.3.5-.2.2-.5-.1.1-.2-.1-.2.1 0-.2-.2-.1-.1-.4.1.2.2-.2.4.1-.1 0-.1.2 0 .2.1-.1.2 0 .2-.2 0-.1 0-.3-.1-.3s0 .2-.1.1c0-.3.2-.3-.1-.4 0 .2-.1.2-.2.2v-.2h.1c.1-.3-.2-.1-.1-.4l.2-.1c.1.1-.1.4.2.4 0-.2-.1-.3 0-.4v.1c0-.1.3-.1.1-.4-.1-.1-.1 0-.2 0 0-.3-.1-.4-.1-.6.2 0 0-.3.2-.1-.1.1-.1.5.1.7.2-.1 0 .2.2.3 0-.3.2-.2.3-.3 0-.1 0-.1-.1-.2-.1 0-.1.1-.3.1 0-.3 0-.5-.2-.7.1-.1.2-.1.2 0v-1c-.2.2 0-.3-.2-.2 0 .2-.2.3-.3.2 0-.1.1 0 .1 0-.1-.1.2-.2 0-.3.1.3.2.1.4.1-.1-.2.1 0 .1-.2-.1-.2-.2-.5-.2-.7.2-.3 0-.8 0-1 .1-.1.3 0 .3-.2s-.2.1-.1-.1c0-.1.1-.5-.1-.6l.2.1v-.1c.1 0 .1-.1.2 0 .1-.2 0-.3 0-.5l.2-.1c-.1-.3 0-.5 0-.8h.1l-.1-.2c.1 0 .2-.1.1-.2l.3.5c-.1.1-.1-.1-.2-.1-.1.1-.1.3 0 .4v-.2c.2 0 .2.1.3.2v-.1c.1.1.1.2.1.4-.1-.1-.1.1-.1 0 .1 0 .2.2.1.4-.2.2.1.4 0 .7-.1-.1-.3-.2-.3-.4-.1.2 0 .2-.1.3.1.1.3.1.3.3h-.1c0 .2.2.2.2.4 0 .4 0 .8-.1 1.2h-.1c.2.2.1.6.2.8-.1.4.1.9-.1 1.1.1.7.2 1.3.1 2.1l-.2-.1c.1.1-.1.1-.1.2.1-.2.2.2.2.3-.1.3 0 .8.1 1h-.1c.2.3 0 .6 0 1 0 0-.1.1-.1.2.2.2.2.3.3.6 0 .2 0 .5-.1.8.2.8.1 1.6.2 2.4l-.1.1c.3.8 0 1.8.1 2.5l-.2-.1c-.1.2 0 .5.2.4-.1.2.1.5-.1.7 0 .2.1.3.1.4a1.7 1.7 0 0 0 0 1v-.1c0-.1-.1-.1-.1.1.1.2-.1.6.2.4-.1.4.1 1-.1 1.5.1 0 .1.1.1.2 0 .3 0 .7-.1 1-.3.2-.6.3-.8.5-.1 0 .1-.2-.2-.1-.1.1 0 .1-.1.2-.5.4-1.2.5-1.7.8-.8.6-1.8 1.1-2.6 1.6v-.1c-.2.3-.8.2-.8.6-.1 0-.3.1-.3 0-.2.3-.7.2-1 .6l.1-.1c-.5.2-1.1.7-1.6.9.1-.1.2-.1.2-.2-.2 0-.6.6-.6.3-.1.1-.2.2-.1.2-.2.1-.4.2-.7.3V75c0-.6-.1-1.1-.1-1.7.1-.7.4 0 .2-.6 0 0-.1 0 0 0-.1-.2.3-.3.1-.4-.2.1-.1-.1-.2-.1.1-.4.2-.5.1-.8h.1c-.2-.4-.1-.8-.3-1.1l-.2-6 .1-5.9c.2-.5.2-.5.1-1h.1c-.2 0 0-.4-.2-.4v-2.2c0 .1.2.2.1 0l-.1-.2c0-.1-.1-.2-.2-.1v-2.2l.9-.5.3-.2.2-.1 2.7-1.5a9.13 9.13 0 0 0 1.3-.8c1.3-.5 2.6-1 3.8-1.8.5.1.5.6.1 1z"/><path d="M47.4 48.6c-.1 0-.1.2-.2.1.1-.1.2-.1.2-.1zm-.8 4.4s0 .1 0 0c-.1.1-.1 0 0 0-.1 0-.1 0 0 0zm-.1 1.2c-.1 0-.1-.3-.1-.4l.1.4zm-.3 1c0 .1-.1.1 0 0 0-.1 0 0 0 0zm.2.1c0 .1 0 .1-.1.2.1 0 0-.2.1-.2zm-.2 2.3c0 .1.1.2 0 .2 0 0-.2-.3 0-.2zm.1 1.1s-.1 0 0 0c-.1.1-.1 0 0 0zm-5.9 15.2l.1-.1v.1zm-1.3-4.4c-.1-.1.1-.1 0 0 .1 0 0-.1 0 0zm-.3-4.6v.1l-.2-.1z"/></g><path d="M27.7 81.6L19.9 77l.1-12.5 7.8 4.6z" fill="#69869b"/><g class="P"><path d="M27.5 81.8c.1.1 0-.2.1 0h-.1z"/><path d="M27.9 81.1c-.4-.5 0-1.2-.2-1.7 0-.1.2 0 .2-.1-.3-.5-.1-1.4.1-2.1h.1c0-.1-.1-.3-.1-.4h.1c-.1 0 0-.2-.1-.3 0-.1.1-.1.2-.1l-.1-.1c-.3-.2 0-.5-.1-.8h.1c-.2-.5-.1-1-.2-1.6h.2c-.1 0-.2-.2-.2-.3.1-.1-.1-.2 0-.4-.1-.1.1-.2-.1-.3l.1-.1c-.2-.1.1-.2 0-.3v-.2c0-.2.1-.3-.1-.3.1-.1.1.2.2.1-.2-.7-.1-1.4-.1-2l.1-.1c0-.1 0-.3-.1-.3l.1-.1c.1-.1-.2-.1-.1-.2h.1c-.1-.1-.1-.1-.1-.2 0 0-.1 0-.2-.1h.1c-.2 0-.2-.2-.4-.2l.1-.1c-.1-.2-.2.1-.3 0 0 0 .1 0 .1-.1-.2.1-.4-.1-.6-.2s-.3-.2-.5-.3c0-.1.1-.2 0-.3-.1.2-.3-.1-.3.1-.1-.1-.3-.3-.5-.3.1 0 0-.2.2-.2v-.2c0-.1.1.1.1 0-.1 0-.3-.1-.3-.1-.2 0-.4.2-.6.1.1 0 .1-.2.1-.2l-.4.2c-.1 0 .1-.1 0-.1l-.1.1s-.3-.1-.2-.3c0-.1.1 0 .1-.1-.1-.1-.1 0-.3-.1-.1-.1-.3-.1-.2.1 0 0 0-.1.1 0-.1.1-.3 0-.4-.1l.1-.1c-.2 0-.4 0-.6-.1 0 .1.1-.1.1-.1-.1-.2-.5-.1-.6-.4v.1c-.1-.1 0-.2-.1-.2 0-.1-.1 0-.2-.1-.1 0 0 0 .1 0-.1 0-.6-.1-.7-.3 0 0-.1.1-.2.1v-.1c0-.1-.1 0-.1-.1-.1.1.3 0 .2.1 0-.1-.2.1-.1 0-.1 0-.1.1-.2-.1 0 0 .1-.2 0-.2s0 .1-.1.1c0 .1-.1-.1 0 .1 0-.1-.1 0-.1-.2v-.2.2c.1.3-.1-.1 0 .2l-.2-.2c.1.2.1.3.1.3s0-.1-.1-.1 0 .1 0 .1c0-.1-.1-.1-.2-.1l.3.3c-.2-.1.1.2-.1.2 0 0-.1-.2-.2-.1-.2 0 .2.2.1.3h.2c-.1 0 0 0 0 .1s0 .1-.1.1c.1.1-.1.2.1.2-.1.3.1.7-.2.9 0 0 0 .1.1.1.1-.1-.1-.1 0-.1l.1.1c0 .1 0 .2-.2.1-.1.2.3.2.2.4-.1 0-.1 0-.1.1l.1.1c0 .2-.2.1-.3.1 0 .1 0 .2.1.2l-.2.1c.1-.1.1.1.1.1v.2c.1 0 .1-.1.1-.2 0 0 0 .1.1.2-.1 0-.1.1-.1.2s.1.1.1.1c-.1 0 0 .1-.1.1 0 0 .1-.1 0-.1 0 .1-.2 0-.1.2.1.1.2 0 .2.1l-.1-.1-.1.1h.1c.1 0 0 .2.2.3 0 .1-.1.2-.1.2-.1.1 0 .2 0 .3s0 .2.1.2c-.1.1-.4 0-.3.2 0 .1.2.2.3.1-.1.2.1.4-.1.7 0 0 .1 0 .1.1 0 .3.1.7-.1.9 0-.1-.1 0-.2 0 .1.1-.1.1.1.1.1 0 .1 0 .2-.1v.6c0-.1.1 0 .1 0-.2 0-.2.1-.1.2h.1l-.1.1s.2 0 .1.2h-.1c.1.1.2.3.1.4l-.1.1c0 .1.1.1.1.1-.1.2-.1.3-.2.4.3.3.3.8.3 1.2H21c-.1.1.1.1.1.1-.1 0-.1.1-.2 0-.1.2.1.2.2.3.1 0-.1-.1.1-.1 0 0-.1.2.1.2h-.2s0 .1.1.1H21s-.2-.1-.3-.1v.1c-.1.1-.2-.2-.2 0 .1.1.3.1.4.1 0 .1.4 0 .3.1s0-.1-.1 0 .1.1 0 .1c.1-.1.2-.1.2-.1l-.1.1c.1 0 .2-.1.2-.1.2-.1 0 .1.1 0-.1.1-.3.2-.3.3.1-.1.2-.1.3-.3 0 0-.1.1-.1.2h.1c.1 0 .1 0 0 .1l.1-.1v.2c.1 0 .3 0 .2.2 0 0 .2.1.2-.1-.1-.1-.2 0-.1-.2 0 .2.1.1.2.1v.1s.1.1.2 0c0 0-.1.1 0 .1l.1-.1c.2 0-.1.2.1.3h-.1s0 .1.1.1c.1-.1.2-.2.3-.2s0 .1.1.1l-.9-.3s0 .2.1.3c.1 0 .3-.1.2-.2 0 0 .1.1 0 .2.1 0 0-.1.2-.1 0 .1.1.3.1.4l-.2.1h.1c-.2.1 0 .1-.1.2 0 .1.1 0 .2 0 0-.3.3-.2.4-.4.2.1-.1.5.2.3 0-.1.2-.2 0-.2.1.1.2-.1.3 0-.1 0 0 .3-.2.3 0-.1-.1-.1-.1-.1 0 .1-.1.2 0 .3.1 0 .2.1.2 0 .1-.1-.1-.1 0-.1.2.1.1.2.3.1-.1 0-.1-.2 0-.2h.1l-.1.1c.1.2.1-.1.3 0v.2c-.1.1-.2-.2-.3 0 .1.1.2 0 .3.1h-.1s-.1.3.2.3c.1 0 .1-.1.1-.1.2.1.3 0 .4.1-.1.1.2.1 0 .2 0-.1-.3-.3-.4-.2 0 .2-.1-.1-.3.1.1.1 0 .3 0 .4h.1c.1-.1 0-.1.1-.2.1.1.3.2.5.1 0 .1-.1.2-.1.2l.6.3c0-.2.2.1.2-.1-.1-.1-.1-.3 0-.3v.1c.1-.1 0 .2.2.1-.2-.1-.2.2-.3.3.2 0-.1.1.1.2.2 0 .4 0 .5.1.1.2.4.3.6.3 0 .1-.1.2 0 .3s0-.2.1-.1c.1 0 .2.3.4.1l-.1.1h.1c0 .1 0 .1-.1.1 0 .2.2.1.3.2V81c.2 0 .3.2.5.3l-.1.1h.1c-.1.1 0 .2.1.2l-.4.1c0-.1.1-.1.2-.2 0-.1-.2-.2-.2-.1s.1 0 .1 0l-.2.2s0 .1.1 0c-.1 0-.2 0-.3-.1.1 0 0-.1.1-.1-.1.1-.2.1-.3 0 0-.2-.3-.1-.4-.2.1-.1.3-.1.4-.1l-.2-.2c-.1.1-.2.2-.4.2V81c-.1 0-.2.1-.3 0-.2-.2-.5-.3-.6-.4v-.1c-.2.1-.4-.1-.6-.1-.2-.2-.5-.2-.6-.4-.4-.2-.8-.3-1.2-.6l.1-.1c-.1.1 0-.1-.1-.1 0 .2-.2.1-.3.1-.1-.2-.4-.2-.6-.3v-.1c-.3.1-.4-.2-.6-.3 0-.1 0-.2-.1-.2-.2.1-.3 0-.5 0-.1-.1-.3-.2-.4-.3-.3 0-.7-.3-1-.4 0-.4 0-1.1-.1-1.3h.1c-.3-.5 0-1.2-.1-1.7h.2c.1-.1 0-.3-.2-.3.1-.1-.1-.4.1-.4 0-.2-.1-.2-.1-.3a.85.85 0 0 0 0-.7v.1h.1c-.1-.1.1-.4-.2-.3.1-.3-.1-.7.1-1-.1 0-.1-.1-.1-.1 0-.3.1-.5 0-.7 0 0 .1.1.1 0s-.1 0-.1-.1c-.1-.4.1-.8.1-1.2-.1-.7-.1-1.4-.1-2-.2-.2.2-.5-.1-.7 0-.1 0-.2.1-.2-.1-.1 0-.3 0-.5v-.6c.1-.3 0-.9.1-1.2 0 .1 0 .2.1.2s-.2-.7 0-.4c0-.1-.1-.2-.1-.2v-.5c.7.4 1.4.7 2.2 1.1.6.5-.1.4.5.5 0 .1.1-.1 0 0 .1 0 0 .3.2.3 0-.1.1 0 .1-.1.2.2.2.4.4.4v.1c.3-.1.5.2.8.1 1.2.7 2.4 1.2 3.5 1.8l.7.4 1.2.7v1.8c0 .4 0 .8-.1 1.2-.2.3-.2.3-.1.7h-.1c.2 0 0 .2.2.3v1.4c0-.1-.1-.1-.1 0l.1.1c0 .1.1.1.2.1.1 1.3-.2 2.5-.2 3.8-.1.3 0 .7 0 1-.2.9-.4 1.8-.3 2.8-.1-.5-.5-.6-.6-1z"/><path d="M27.3 81.7c0-.1-.1-.2.1-.2 0 0 0 .1-.1.2zm-2.1-2.2s0-.1 0 0c0-.1.1-.1 0 0 .1-.1.1-.1 0 0zm-.6-.5c0-.1.2 0 .3 0h-.3zm-.5-.6c0-.1 0-.1 0 0zm-.1.1s0-.1-.1-.1c0 .1.2 0 .1.1zm-1.2-.9s-.1 0-.1-.1c0 0 .2 0 .1.1zm-.7-.3c0-.1 0-.1 0 0zm-1.6-11zm2.7.7c.1 0 0 .1 0 0-.1.1.1.1 0 0zm2.8 1.3v-.2z"/></g><path d="M27.8 69.1L20 64.5l8.5-4.8 7.8 4.6z" fill="#7b9fb7"/><g class="P"><path d="M27.6 69.3c.1 0 0-.2.1 0-.1 0-.1.1-.1 0z"/><path d="M28.3 69.1c.2-.6.9-.5 1.2-1 0 0 .1.2.2.1.3-.5 1-.7 1.6-.8v.1c.1 0 .1-.3.3-.3v.1c0-.1.2-.2.2-.3.1 0 .1.1.2.1v-.2c0-.4.4-.2.5-.5v.1c.3-.4.7-.6 1.1-.9 0 .1 0 .1.1.2 0-.1 0-.2.2-.3.1.1.1-.2.3-.2 0-.2.2 0 .2-.2l.1.1c-.1-.2.2 0 .2-.1s.1 0 .2-.1.3-.1.1-.2c.2.1-.1.1.1.2.3-.3.7-.5 1.1-.8l-.2-.1c.1 0 .1-.1.2-.1-.1 0-.2-.1-.4-.1 0 0 .1 0 .1-.1s-.3 0-.3-.1h.2c-.3 0-.3-.1-.5-.1h.1c-.2 0-.2-.1-.3-.1h.1c-.1-.2-.2.1-.3 0 0 0 .1 0 .1-.1-.2.1-.4-.1-.5-.1-.2-.1-.3-.2-.5-.2 0-.1.1-.2 0-.2-.1.2-.3-.1-.3.2-.1-.1-.3-.3-.4-.3.1 0 0-.2.2-.2v-.1c0-.1.1.1.1 0-.1 0-.3 0-.3-.1-.2 0-.3.2-.5.1.1 0 .1-.2.1-.2l-.4.2c-.1 0 .1-.1 0-.1 0 0-.1 0-.1.1 0 0-.2-.1-.2-.3 0-.1.1 0 .1-.1-.1-.1-.1 0-.2-.1 0-.1-.2 0-.2.1 0 0 0-.1.1 0-.1.1-.2 0-.3 0 0 0 .1 0 .1-.1h-.5c0 .1.1-.1.1 0-.1-.2-.5-.1-.5-.3v.1c-.1-.1 0-.2-.1-.2 0-.1-.1 0-.2 0s0 0 .1 0c-.1 0-.5-.1-.6-.3 0 0-.2.1-.3 0l.1-.1c0-.1-.1-.1-.1-.2-.2.1.4.1.2.1 0-.1-.3 0-.2-.1-.1 0-.2 0-.3-.1l.1-.1c-.1-.1-.1 0-.2 0H29c-.1.1-.1-.1-.1.1 0-.1-.2-.1-.1-.2l.1-.1-.2.2v-.1c-.1.2-.1-.1-.1.1 0 0 0-.1-.1-.1 0 0-.1 0-.1-.1 0 .1 0 .2-.1.2v-.1c-.1 0 0 0-.1.1 0 0-.2 0-.3-.1-.1.1 0 .2.1.3-.2-.2-.2.3-.4.2 0 0 .1-.2 0-.2-.2-.1-.1.2-.3.2l.1.1c-.1-.1-.1.2-.2 0 0 .1-.2 0-.1.2-.3 0-.5.4-.8.2 0 0-.1.1 0 .1.1.1 0-.1.1 0v.1c-.1 0-.1 0-.2-.1-.2 0 0 .3-.2.4 0-.1-.1-.1-.1 0v.2c-.1 0-.1-.1-.2-.2 0 .1-.1.1-.1.2l-.2-.1c.1.1 0 .1 0 .1s-.1 0-.1.1.1 0 .2 0c0 .1-.1.1-.1.2 0-.1-.1 0-.2 0s0 .1 0 .1-.1 0-.1-.1h.1c-.1 0-.1-.1-.1 0s.1.2 0 .2v-.1H25v.1c0 .1-.1.1-.1.3h-.2c-.1 0-.2.1-.2.2 0 0-.1.1-.1.2-.1 0-.2-.3-.3-.2-.1 0 0 .3 0 .3-.2 0-.3.3-.5.2v.1c-.3.1-.4.4-.7.3 0-.1 0-.1-.1-.2 0 .1-.1 0-.1.1.1.1.1.1.2.1-.1.1-.3.3-.5.2.1 0 0 .1 0 .1-.1-.2-.2-.1-.2 0v.1l-.2-.6v.2s0-.1-.1-.1c0 .1.1.2 0 .2l-.1-.1s0 .1.1.1c-.1 0-.2 0-.4-.1.2.2.3.2.1.3h-.1c-.1 0 .3 0 .2 0h-.5c-.1 0 .3 0 .4 0 .2 0-.1 0 .1 0 .1 0-.1 0 .1 0-.1 0-.3 0-.4.1h.1c-.2.1-.6 0-.9.1h.1c-.2.1-.4-.1-.4.1.2 0 .5 0 .6-.1.1 0 .5-.1.6-.1-.1.1-.1 0-.2 0-.1.1.2 0 .1.1 0 0 .2-.1.3-.1 0 .1-.2.1-.1.1s.2-.1.2-.1c.2-.1 0 .1.1 0-.1.1-.3.2-.3.3.1-.1.2-.1.3-.2l-.2.2c0 .1.2-.2 0 .1l.1-.1v.2c.1 0 .3 0 .2.1 0 0 .2.1.2-.1 0-.1-.1 0-.1-.2 0 .2.1.1.2 0v.1s.1.1.2 0c0 0-.1.1 0 .1l.1-.1c.1 0-.1.2.1.2h-.1s0 .1.1.1l.2-.2c.1 0 0 .1.1.1l-.1.1s0 .2.1.2.2-.1.2-.2c0 0 .1.1 0 .2.1 0 0-.1.2-.1 0 .1.1.2.1.4l-.5-.1h.1c-.1.1 0 .1-.1.2 0 .1.1 0 .2 0 0-.3.3-.2.4-.4.2.1-.2.5.2.3 0-.1.2-.2 0-.2.1.1.2-.2.3 0-.1 0 0 .3-.2.3 0-.1 0-.1-.1-.1 0 .1-.1.2 0 .3.1 0 .2.1.2 0 .1-.1-.1-.1 0-.1s.1.2.2.1c-.1 0 0-.2 0-.2.1.1.1-.1.3 0v.2c-.1.1-.2-.2-.3 0 .1.1.2 0 .2.1h-.1s-.1.3.1.2c.1 0 .1-.1.1-.1.2.1.3 0 .4.1-.1.1.2.1 0 .2 0-.1-.2-.2-.4-.1 0 .2-.1-.1-.2.1.1.1 0 .2 0 .4h.1c.1-.1 0-.1.1-.2.1.1.3.1.4.1 0 .1-.1.2-.1.2.2.1.4.2.5.3 0-.2.2.1.2-.1-.1-.1-.1-.3 0-.3v.1c.1-.1 0 .2.2.1-.2 0-.1.2-.3.3.1 0-.1.1 0 .2.1 0 .3 0 .5.1.1.2.4.2.5.3 0 .1-.1.2 0 .3s0-.2.1-.1c.1 0 .2.3.4.1l-.1.1h.1c0 .1 0 .1-.1.1 0 .2.2.1.3.1v-.1c.2 0 .2.2.4.2l-.1.1h.1c-.1.1 0 .2.1.1l-.4.1c0-.1.1-.1.1-.2s-.1-.2-.2-.1h.1l-.2.2s0 .1.1 0h-.2c.1 0 0-.1.1-.1-.1.1-.2.1-.3 0 0-.2-.3 0-.4-.2.1-.1.2-.1.4-.2 0-.1-.1-.1-.1-.2-.1.1-.2.2-.3.2v-.1c-.1 0-.2.1-.3 0-.2-.2-.4-.3-.5-.4V68c-.2.1-.3-.1-.5-.1-.1-.2-.5-.2-.5-.4-.4-.1-.7-.3-1.1-.5l.1-.1c-.1.1 0-.1-.1-.1 0 .2-.2.1-.3.1-.1-.2-.4-.2-.6-.2v-.1c-.2.1-.3-.2-.5-.3v-.2c-.2.1-.2 0-.4 0-.1-.1-.2-.2-.4-.3-.4-.1-.7-.3-1-.4-.3-.2-.6-.4-1.1-.6h.2c-.2-.1-.4-.2-.6-.2.5-.3 1.3-.7 1.6-1l.2.1c.2 0 .3-.2.1-.3.2-.1.4-.3.6-.3.2-.1.2-.2.2-.3.3-.1.3-.1.5-.3h-.1s0 .1.1.1c0-.1.3-.1.1-.3.3 0 .5-.4.8-.4v-.1c.2-.1.5-.1.6-.3 0 0 0 .1.1.1v-.1c.3-.3.7-.3 1-.5.5-.4 1-.7 1.5-1 .1-.3.5 0 .5-.4.1 0 .2-.1.2 0 .1-.2.4-.1.5-.4.1 0 .2-.1.3-.1l.1-.1c.1 0 .2-.1.3-.1l-.1.1c.1 0 .2-.4.4-.2.1 0 0-.2 0-.1.1-.1.3-.1.4-.2.3.2.6.3.9.5l.6.3c.3.3-.2.3.2.4 0 0 .1-.1 0 0 .1 0 0 .3.1.3 0-.1.1 0 .1-.1.1.2.1.3.3.3v.1c.3-.1.5.2.7 0l3.1 1.6 1.5.9 2.1 1.3c-.5.3-1.1.6-1.7.9-.7.2-.7.2-1.1.5v-.1c.1.1-.3.2-.3.3-.1.1-.3.1-.4.2l-.3.2c-.2.1-.4.2-.5.3v-.1.3c-.9.7-2 .9-2.9 1.5-.3.1-.5.3-.8.5-.8.2-1.6.4-2.2 1 .1.1 0-.3.3-.5z"/><path d="M27.4 69.2c0-.1 0-.2.1-.2 0 .1 0 .2-.1.2zm-1.8-2s0-.1 0 0c0-.1.1-.1 0 0 .1-.1 0 0 0 0zm-.5-.4c0-.1.2 0 .3 0h-.3zm-.4-.6s0-.1 0 0zm-.1.2v-.1c-.1 0 0 0 0 .1zm-1.1-.9s-.1 0-.1-.1c0 .1.2 0 .1.1zm-.6-.2s0-.1 0 0c0-.1 0-.1 0 0zm4.6-4.5v.1l-.1-.1zm3.7 1.1c.1 0 .1.1 0 0 0 .1.1.1 0 0zm2.5 1.1l.1-.2z"/></g><path d="M36.3 64.3v12.5l-8.6 4.8.1-12.5z" fill="#7192ad"/><g class="P"><path d="M36.6 64.4c0-.2-.1.1-.1-.1.1 0 .1 0 .1.1zm-.9 0c-.3.6-1.1.6-1.4 1.1 0 .1-.1-.2-.2-.1-.3.5-1.2.8-1.9.9v-.1c-.1 0-.2.3-.3.3v-.1c0 .1-.2.2-.2.3-.1 0-.1-.1-.2-.1v.2c0 .4-.5.2-.6.5v-.1c-.3.4-.9.7-1.3 1 0-.1 0-.1-.1-.2 0 .1-.1.3-.2.3-.1-.1-.1.2-.3.3 0 .2-.2 0-.2.2l-.1-.1c.1.2-.2 0-.2.1s-.1 0-.2.1-.2.1-.2.1 0 .1.1.1c-.1 0-.1 0-.1-.1 0 0 0-.1-.1-.1.1.7.1 1.4.1 2.1-.1.1-.1.1-.1.2s0 .3.1.3c0 0-.1 0-.1.1-.1.1.2.1.1.3 0-.1-.1-.1-.1-.1.1.1.1.3.1.4 0 0 0-.1-.1-.1.1.2 0 .3.1.4l-.1-.1c-.1.2.2.1.1.3 0-.1-.1 0-.1 0 .2.2.1.5.2.6v.6c0 .1-.2 0-.2.2.2 0 .1.3.3.2 0 .2-.1.4 0 .6-.1-.1-.2.1-.2-.1l-.1.1c-.1 0 0-.1-.1-.1 0 .1.1.3 0 .3.1.1.3.3.4.5-.1-.1-.2.1-.2 0l.4.3c0 .1-.1 0-.1.1 0 0 .1 0 .1.1 0 0 0 .3-.1.3s0-.1-.1 0c0 .1.1.1.1.3 0 .1.1.3.2.2 0-.1-.1 0-.1-.1.1.1.1.2.1.3 0 0-.1 0-.1-.1l.3.6c.1 0-.2-.1-.1-.1-.1.3.2.5 0 .7h.1c0 .1-.1.1-.1.2-.1 0 0 .1 0 .2v-.1c.1.1.2.6.1.8 0 0 .1 0 .1.1 0 0 .1 0 .1.1h-.1c-.1 0 0 .1-.1.1.1.1-.1-.3 0-.2-.1 0 .2.1 0 .1 0 .1.1.1 0 .2 0 0-.2 0-.1.1 0 .1 0 0 .1.1.1-.1 0 .1.1 0-.1.1.1.1-.1.2l-.1.1s.1-.1.2-.1c0 0 0 .1-.1.1.2-.3 0 .1.1-.1v.3c.1-.1.2-.3.2-.3s0 .1-.1.1c0 .1 0 0 .1-.1 0 .1 0 .1.1.2.1-.1.1-.3.1-.3 0 .2.1-.2.2-.1 0 0-.1.2 0 .2.1.2.1-.2.2-.2l-.1-.2c.1.1.2-.2.2 0 0-.1.2-.1.1-.2.3 0 .6-.4.9-.2 0-.1.1-.1.1-.1-.1-.1 0 .1-.1.1v-.1c.1 0 .2 0 .2.1.2 0 0-.4.3-.4 0 .1.1.1.1 0l.1-.2c.2-.1.2.1.2.2.1-.1.2-.1.1-.2l.2.1c-.1-.1 0-.1 0-.2v.1s.1 0 .1-.1-.1 0-.2 0c0-.1.1-.1.1-.2 0 .1.2 0 .2 0 .1 0 0-.1 0-.2 0 .1.1-.1.1.1 0 0-.1 0-.1.1.1 0 .1.1.2 0 0-.1-.1-.2 0-.2v.2h.2v-.1c0-.1.2-.1.1-.3.1-.1.2 0 .2 0 .1 0 .2-.1.2-.2l.2-.2c.2 0 .2.3.3.2s.1-.3 0-.3c.2 0 .3-.3.6-.3v-.1c.3-.1.5-.4.8-.4-.1.1 0 .1.1.2 0-.1.1 0 .1-.1-.1-.1-.1-.1-.2-.1.1-.1.4-.3.5-.3-.1 0 0-.1 0-.1.1.2.2.1.3 0v-.1l.1.1s-.1-.2 0-.1c0 0 0 .1.1.1 0-.1-.1-.2 0-.2h.1L36 76c.1 0 .1-.1.2-.1-.3-.3-.3-.8-.3-1.2h.1c.1-.1-.1-.1-.1-.1.1 0 .2-.1.2 0 .1-.2-.1-.2-.2-.3-.1 0 .1.1-.1.1 0 0 .1-.2-.1-.2h.2l-.1-.1c.2-.1.3.3.5.2v-.1c.2-.1.2.2.2 0-.1-.1-.3-.2-.3-.1 0-.2-.3-.1-.3-.3.1-.1 0 .2.1.1s-.1-.2 0-.3c-.1.1-.2 0-.2-.1.1-.1.1.1.2-.1-.1 0-.2-.2-.2-.1-.2-.1 0-.2-.1-.3.1-.1.3.2.4 0-.1 0-.2-.2-.4-.1 0-.1.1-.1.2 0 .1-.1-.2-.2 0-.3h-.1s.1-.1.2-.1c0-.1-.2-.3 0-.3 0 0 0-.2-.2-.2-.1.1.1.1-.1.2.2-.1 0-.2-.1-.2h.1s0-.1-.1-.2c-.1-.2.2 0 .2-.2l.1.1s.1-.1 0-.2c-.1 0-.2-.1-.3-.1 0-.1.1 0 0-.1l.1.1s.2-.1.2-.2-.2-.2-.3-.1c0-.1.1-.2.1-.1 0-.1-.1 0-.2-.1l.3-.3.2.1v.3c.1.1.1-.1.3 0 0-.1 0-.1-.1-.2-.2.2-.3-.2-.5-.1-.1-.2.5-.1.2-.4-.1 0-.2-.1-.2.1 0-.1-.2-.1-.1-.3.1.1.2-.1.4.1-.1 0-.1.1 0 .1.1-.1.2 0 .2-.1s0-.2-.1-.2 0 .1-.1.1c0-.2.2-.2-.1-.3 0 .1-.1.1-.2.1v-.1h.1c.1-.2-.2-.1-.1-.3l.2-.1c.1.1-.1.3.2.3 0-.1-.1-.2 0-.3v.1c0-.1.3-.1.1-.3-.1-.1-.1 0-.2 0 0-.2-.1-.3-.1-.4.2 0 0-.2.2-.1-.1.1-.1.4.1.4.2-.1 0 .2.2.2 0-.2.2-.2.3-.2 0-.1 0-.1-.1-.1h-.3c0-.2 0-.4-.2-.5.1-.1.2 0 .2 0v-.7c-.2.1 0-.2-.2-.1 0 .1-.2.2-.3.2 0-.1.1 0 .1 0-.1-.1.2-.1 0-.2.1.2.2 0 .4.1-.1-.2.1 0 .1-.1-.1-.2-.2-.3-.2-.5.2-.2 0-.5 0-.7.1-.1.3 0 .3-.1s-.2.1-.1-.1c0-.1.1-.3-.1-.4l.2.1v-.1h.2c.1-.1 0-.2 0-.4l-.1.1c-.1-.2 0-.3 0-.6h.1-.5c.1 0 .2-.1.1-.1l.3.3c-.1.1-.1-.1-.2 0s-.1.2 0 .3v-.1c.2 0 .2.1.3.1v-.1c.1.1.1.2.1.3-.1-.1-.1 0-.1 0 .1 0 .2.1.1.3-.2.1.1.3.1.5-.1-.1-.3-.2-.3-.3-.1.1 0 .1-.1.2.1.1.3.1.3.2h-.1c0 .1.2.1.2.3 0 .3 0 .6-.1.8h-.1c.2.1.1.4.2.6-.1.3.1.6-.1.7.1.5.2.9.1 1.4l-.2-.1c.1.1-.1.1-.1.2.1-.1.2.1.2.2-.1.2 0 .5.1.7h-.1c.2.2 0 .4 0 .7 0 0-.1.1-.1.2.2.1.2.2.3.4 0 .2 0 .4-.1.5.2.6.1 1.1.2 1.7H37c.1.3.1.6.1.9v1l-.2-.1c-.1.2 0 .5.2.5v.2c-.2.1-.3.3-.5.2-.2.1-.2.2-.4.3-.3.1-.4.2-.6.3h.1c0-.1 0-.1-.1-.1-.1.1-.4.2-.2.3-.3 0-.6.4-.9.4v.2c-.2.1-.5.2-.7.4 0 0 0-.1-.1-.1v.2c-.3.3-.8.3-1.2.5-.5.5-1.2.8-1.8 1.1V81c-.1.3-.5.1-.6.4-.1 0-.2.1-.2 0 0 .1 0 .1-.1.1-.1.1-.2.1-.3.1-.2.1-.4.2-.6.4 0 0 .1 0 .1-.1-.4.1-.8.5-1.1.6 0-.1.1-.1.2-.2-.1-.1-.5.5-.4.2-.1.1-.1.2-.1.2-.1.1-.3.1-.4.2l-.1-2.5c-.1-.4 0-.4.1-.4s.1 0 0-.2c0 0-.1 0 0 0-.1-.1.3-.2.1-.3-.1 0-.1-.1-.2-.1.1-.3.2-.3.1-.6h.1c-.2-.3-.1-.6-.3-.8l-.2-4.1.1-4.1c.2-.5.2-.6.1-1.2v.1c-.1-.1.4-.2.3-.4l.6-.3.3-.2c.2-.1.4-.3.6-.4-.1.1 0 .2 0 .1v-.1c0-.1.1-.2 0-.2 1.1-.8 2.4-1.1 3.4-1.8.3-.1.7-.4.9-.6 1-.3 1.8-.6 2.6-1.2.3.1.3.5 0 .8z"/><path d="M36.6 64.6c-.1 0-.1.2-.2.1 0-.1.1-.1.2-.1zm-.9 3c.1 0 0 .1 0 0 0 .1-.1 0 0 0zm0 .8c-.1 0-.1-.2-.1-.3l.1.3zm-.3.7c-.1.1-.1.1 0 0-.1 0-.1 0 0 0zm.1.1c0 .1 0 .1-.1.1.1 0 0-.1.1-.1zm-.2 1.6s.1.1 0 .2c.1-.1-.1-.3 0-.2zm.1.7c0 .1-.1.1 0 0zM29 80.2v.1zm-.7-2.8c0-.1.1 0 0 0 .1 0 0-.1 0 0zm-.3-3.1h-.2z"/></g></svg>