<svg xmlns="http://www.w3.org/2000/svg" viewBox="0 0 64 87.9"><style><![CDATA[.R{fill:#202020}]]></style><path d="M44.9 25l-6.7-3.9.1 39L45 64z" fill="#60b670"/><g class="R"><path d="M44.5 25.2c.3.1-.1-.3.2 0 0 .1-.1.1-.2 0z"/><path d="M44.6 26.1c.5 1.1 0 2.6.4 3.8 0 .1-.3 0-.2.3.4 1.2.2 3-.2 4.5l-.1-.1c-.1.3.2.6.2.9-.1 0-.1-.1-.2 0 .2.1.1.5.2.6-.1.1-.2.1-.3.3l.2.2c.5.5 0 1.1.2 1.8 0 0-.1-.1-.1 0 .3 1 .2 2.3.3 3.4-.1 0-.2-.1-.3 0 .2.1.3.4.3.7-.2.1.2.5.1.9.2.3-.1.4.2.6l-.2.2c.3.1-.2.4 0 .6h.1c.1.2-.1.3 0 .5.1.4-.1.7.2.7-.2.2-.1-.4-.4-.2.3 1.5.2 3 .2 4.4-.1.2-.1.3-.2.3 0 .2 0 .5.2.7 0 0-.1.1-.1.2-.1.3.3.3.2.6-.1-.1-.1-.2-.2-.1.2.3.2.6.2.9l-.1-.1c.2.3 0 .6.1.9l-.3-.5c-.2.5.3.1.2.5 0-.1-.1-.1-.2-.1.3.4.2 1 .3 1.3h-.1c0 .4 0 .8.1 1.3-.1.2-.3-.1-.3.4.3 0 .1.7.4.5 0 .4-.2.9 0 1.2-.1-.2-.4.1-.4-.2l-.2.2c-.1 0 0-.2-.1-.2 0 .2.1.6.1.7.2.3.5.5.5 1-.1-.2-.3.1-.3 0l.5.6c0 .2-.2 0-.2.3.1 0 .1.1.2.2 0 0 .1.6-.2.7-.1.1-.1-.3-.2-.1 0 .3.1.3.1.7 0 .2.1.7.3.5 0-.2-.2 0-.1-.2.2.3.2.7.2 1.1 0-.2-.1-.2-.2-.3.2.7.3 1.3.4 2.1.1.2-.2-.6-.2-.6v.3c-.5-.3-.9-.3-1.5-.8.1 0 .1.3.1.2-.3-.2-.3-.4-.5-.5 0-.2-.3-.1-.5-.2-.1 0 0-.1.1 0-.2 0-.5-.2-1-.4-.4-.2-.7-.3-.9-.5 0 .1-.4.1-.5 0l.1-.1c0-.2-.4-.2-.3-.3-.3 0 1 .4.6.3 0-.2-.6 0-.4-.2-.2-.1-.5-.1-.7-.3 0 .1.3-.1.1-.2-.3-.2-.1 0-.4-.1h-.2c-.1.1-.3-.2-.3 0 0-.1-.5-.2-.3-.4l.2-.2c-.2-.1-.3.1-.5.1v-.1c-.1.1-.2.1-.3 0-.2-.1-.3-.2-.5-.2-.2-.2-.5-.3-.7-.5 0-.3 0-.6.1-.7-.1-.3-.2-.7-.2-1 0 .1 0 .1.1.2.1-.2 0-.2 0-.4l.3-.6c-.1-.3-.3-.2-.4-.2.3-.2-.2-.7.1-1 0 .1.2.4.2.2.3-.2-.2-.5-.1-.8l-.3.1c.2-.2-.2-.5.1-.5-.1-.1.1-.4-.2-.4.2-.6-.1-1.5.3-1.9 0-.1 0-.3-.1-.3-.2.2.1.2 0 .3 0-.1-.1-.1-.1-.1.1-.2.1-.3.3-.2.2-.4-.4-.4-.3-1 .1 0 .2 0 .1-.2l-.2-.3c0-.3.3-.2.4-.2 0-.2 0-.4-.2-.5l.2-.2c-.2.2-.1-.2-.2-.2v.1c.1 0 0-.3 0-.4-.1 0-.2.3-.2.4-.1-.1-.1-.3-.2-.4.2 0 .1-.3.2-.5 0-.2-.2-.2-.2-.2.1 0 0-.3.2-.2 0 .1-.1.1 0 .2.1-.1.2-.1.1-.3s-.3 0-.2-.3c0 .1.1.1.2.2l.1-.3h-.1c-.2-.1-.1-.5-.3-.5 0-.2.1-.3.1-.5.1-.2 0-.4-.1-.6 0-.1 0-.3-.1-.5.1-.3.6-.1.4-.4 0-.3-.3-.4-.4-.3.1-.5-.2-1 .1-1.4-.1-.1-.1 0-.2-.2.1-.7-.2-1.4.1-2 .1.2.2 0 .3 0-.2-.2.2-.2-.1-.3-.2 0-.2 0-.3.2-.1-.4-.1-1 .1-1.2-.1.1-.1 0-.2-.1.2 0 .3-.3.2-.5h-.2l.2-.2c0-.1-.3-.1-.2-.3.1 0 .1 0 .2-.1-.1-.2-.3-.5-.2-.8l.2-.2c0-.1-.2-.3-.2-.1.1-.4.2-.7.3-.8-.4-.7-.5-1.8-.4-2.7h.1c.1-.2-.2-.1-.1-.3.1.1.2-.2.3 0 .1-.3-.2-.4-.2-.6-.2 0 .1.2-.1.1 0 0 .1-.5-.1-.5.1-.1.2 0 .3 0l-.1-.2c.3-.3.4.6.7.3v-.2c.2-.2.3.5.3 0-.1-.2-.4-.4-.5-.2-.1-.4-.5-.2-.5-.7.1-.1 0 .4.2.3.2-.2-.1-.4 0-.6-.1.2-.3 0-.3-.1.1-.2.2.2.2-.2-.1-.1-.2-.3-.3-.1-.3-.1.1-.3-.2-.5.2-.1.5.3.5 0-.2.1-.3-.4-.5-.3.1-.1.2-.2.3-.1.1-.2-.3-.5 0-.5l-.2-.1c.1-.1.1-.2.2-.3 0-.2-.3-.6 0-.5 0-.1 0-.5-.2-.3-.1.3.2.3-.1.4.2-.2 0-.4-.1-.5h.1c0-.1 0-.3-.2-.3.1.1.2 0 .2 0l-.2-.1c-.1-.4.3-.1.3-.4l.1.3c0-.1.1-.2.1-.3-.2-.1-.3-.2-.5-.2-.1-.2.2-.1 0-.3l.2.3c.1 0 .3-.2.3-.4-.1-.2-.3-.4-.4-.2 0-.1.1-.3.2-.2-.1-.3-.2 0-.3-.2.1-.1.3-.4.4-.6l.3.3v-.2c.2.2.2-.1.4 0 0-.1 0-.3-.1-.4-.3.4-.5-.4-.8-.3-.1-.5.8-.3.3-.8-.1.1-.3-.2-.2.1 0-.3-.3-.2-.2-.5.1.3.3-.3.5.1-.1 0-.1.2 0 .3.1-.1.3 0 .3-.3 0-.2 0-.4-.2-.4s0 .3-.2.2c-.1-.4.2-.4-.1-.6 0 .2-.2.3-.3.3l-.1-.3.1.1c.1-.4-.2-.1-.2-.5l.3-.2c.2.1-.1.6.3.5 0-.3-.2-.4-.1-.6 0 .1 0 .1.1.2l.2-.2c.1-.1.1-.2 0-.5s-.1-.1-.3-.1c0-.8-.2-1.1-.2-1.6.3.3 0-.9.3-.1-.2.1-.1 1.3.1 1.6.3-.2 0 .5.3.7 0-.5.3-.4.5-.4 0-.1-.1-.2-.1-.3-.2-.1-.2 0-.4 0 0-.5-.1-1.1-.2-1.6.1-.1.3.1.3.4v-1.8c.1 0 .1.1.2.1-.6-.7.5.3.1-.3-.4-.3-.9-.8-.8-.9.3.2.1.2.3.4.2-.1.6.7.7.4-.5-.2.2.5.2.8.3 0 .1.3.4.4.3 0 .7.1 1.1.3.5.5 1.3.8 1.6.9.1.2-.1.4 0 .5.2.1 0-.3.3 0h-.1c.1 0 .5.5.8.2l-.2.2c0 .1.1 0 .2 0 0 .1 0 .2-.2.2.1.3.4.2.7.4l-.1-.2c.4.1.6.4 1 .5l-.1.1h.3c-.1.1 0 .3.2.3h-.8c-.1-.2.3-.1.3-.3s-.4-.3-.5-.2c.1.1.2.1.3.1-.1.2-.3.1-.4.2.1 0 .1.1.2.1-.2 0-.3 0-.5-.2.2 0 0-.2.1-.2-.1.2-.4.1-.6-.1-.1-.3-.6-.2-.9-.4.2-.1.5-.1.7-.1-.2-.2-.2-.1-.4-.3-.2.1-.3.2-.7.2l.1-.1c-.3-.1-.4.1-.7-.1-.3-.3-.7-.5-1-.7l-.1-.2c0 .3-.4 0-.5 0v.1c-.2.2.2 1-.1.9 0 .2.1.4.1.5v.7c0 .5.1 1 0 1.5l-.2-.2c.2.2-.1.1-.1.3.2-.2.2.3.3.4-.2.5 0 1.1.2 1.5h-.2c.3.4 0 .9 0 1.5-.1.1-.2.2-.2.3.2.3.2.4.4.9 0 .3-.1.8-.2 1.1.3 1.1.1 2.3.3 3.5l.6-.2c.4 1.2 0 2.6.2 3.6l-.2-.1c-.1.3.1.7.3.6-.1.3.2.8-.1 1-.1.3.1.4.2.7-.1.6-.1.9 0 1.5v-.2c-.1-.1-.2-.1-.2.1.1.2-.1.8.3.6-.2.6.2 1.5-.1 2.1.1-.1.1.1.2.2 0 .6-.2 1.2 0 1.6 0 .1-.2-.2-.2.1 0 .1.1 0 .2.2.2.9-.2 1.8-.1 2.7.2 1.5.1 3 .1 4.4h-.1c.3.5-.3 1.1.1 1.5-.1.1 0 .4-.2.3.2.4-.2 1 .1 1.6v-.1c-.2.5.1 1-.1 1.6 0-.1-.1-.2-.1-.2-.1.1 0 .3.1.4 0 .1.1.1-.1.2 0 .1.2 0 .2 0v.3c.1.1.2.1.3.1l.7.3c.5.2 1 .5 1.5.7.7.7-.2.5.5.7 0 .1.1-.1.1 0 .3.1.2.5.5.5 0-.2.2 0 .3-.2.2.2.1.3.2.3.1.1.1.1.2.1v.1c.1-.1.2-.1.3-.1s.1 0 0-.3c0-.2 0-.4-.1-.5v-1.7l-.2-4.2.1-8.5c.3-.7.3-.7.2-1.5 0 0 .1.1.1 0-.2 0 0-.5-.3-.6v-3.2c0 .2.2.3.2.1l-.2-.2h.1c0-.2-.2-.3-.2-.2-.2-2.8.3-5.5.2-8.2.1-.6 0-1.6 0-2.3.3-2.1.6-3.9.3-6-.4 0 .2.3.3 1.1z"/><path d="M44.2 25c0-.1-.2-.3.1-.4-.1.2-.1.3-.1.4zm-5.9-4.8s-.2-.1-.2-.2c.1.1.2 0 .2.2 0-.1 0-.1 0 0zm-1 .7c-.1-.2-.2-.9-.2-1.2l.2 1.2zm-.5 2.3c-.1.2-.2.2-.1-.2.1 0 .1.1.1.2zm.3.2c0 .2-.1.3-.1.4s-.1-.5.1-.4zm-.3 3.5c0 .1.1.3 0 .3 0 0-.2-.3 0-.3zm.1 1.6v.1c0 .1-.1 0-.1-.1h.1zm.6 28.1l-.1-.2h.1zm8.3 7.3c-.1-.3.1-.1.1-.1 0 .3-.1-.2-.1.1zm-.5-7.5v.1H45z"/></g><path d="M44.9 17.2l-6.8-4 .1 7.9 6.7 3.9z" fill="#69869b"/><g class="R"><path d="M44.6 17.5c.1 0 .1-.2 0 0z"/><path d="M44.6 17.5c.5.4 0 .9.3 1.3 0 0-.3 0-.2.1.4.4.2 1-.2 1.5h-.1c-.1.1.2.2.2.3h-.2c.2 0 .1.2.2.2-.1 0-.2 0-.3.1l.2.1c.5.1 0 .4.2.6h-.1c.3.3.2.7.3 1.2-.1 0-.2-.1-.3-.1.2.1.3.2.3.4-.2-.1.2.3.1.4.2.3-.1.1.2.3l-.2-.1c.3.3-.2 0 0 .2l.1.1c.1.1-.1 0 0 .2.1.3-.1.2.2.4-.2-.2-.1-.3-.4-.5.2.5.2.9.2 1.3l-.5-.5c-.1-.2-.2-.3-.3-.4 0 0-.1 0-.1.1l-.1-.2c-.1-.2 0 .3-.1.1 0-.1 0-.2-.1-.3 0 .2-.1.1-.2.1v-.2c0 .2-.2-.2-.2 0v-.1c-.2-.3 0 .3-.1.1V24c-.1.2-.3 0-.4 0v-.1c-.1 0-.3-.2-.4-.2 0-.1.2-.3 0-.3-.1.2-.3 0-.3.3-.1-.1-.2-.3-.3-.3.1-.1.1-.3.2-.3v-.2c.1-.1 0 .1.1-.1 0 0-.2 0-.3-.1-.2.1-.4.3-.5.3.1-.1.1-.3.2-.3l-.4.4s.1-.2 0-.2c0 .1-.1.1-.1.1s-.2 0-.1-.3c0-.1.1 0 .1-.1H41c0-.1-.2 0-.2.2 0 0 .1-.1.1 0-.1.1-.2.1-.3.1l.1-.1c-.2.1-.4.1-.5.1-.1.1.2-.2.2-.1-.1-.3-.4 0-.4-.3 0 0-.1.2-.1.1-.1-.1 0-.2-.1-.2 0-.1-.1 0-.2 0-.1.1 0-.1.1 0-.1 0-.5 0-.5-.2 0 .1-.2.2-.3.1l.1-.1c0-.1-.1-.1-.1-.2-.2.1.4 0 .2.1 0-.1-.3.1-.2 0-.1 0-.3.1-.2-.1 0 0 .2-.2.1-.2-.2-.1-.1 0-.2 0h-.1c-.1.1-.1-.1-.2.1.1-.1-.3-.1-.1-.3l.2-.1c-.1 0-.3.1-.4.1 0 0 0-.1.1-.1-.3.2-.1-.1-.4 0 0-.1-.1-.1-.2-.2 0-.1 0-.2.2-.3-.1-.1-.2-.2-.2-.3 0 0 0 .1.1 0s0-.1 0-.2l.3-.3c-.1-.1-.3 0-.4 0 .3-.2-.2-.4.1-.4l.2.1c.3-.1-.2-.2-.1-.3h-.3c.2-.1-.2-.2.1-.2-.1 0 .1-.1-.2-.1.2-.2-.1-.5.3-.6 0 0 0-.1-.1-.1-.2 0 .1.1 0 .1h-.1c.1-.1.1-.1.3-.1.2-.1-.4-.1-.3-.3.1 0 .2 0 .1-.1l-.2-.1c0-.1.3-.1.4-.1 0-.1 0-.1-.2-.2l.2-.1c-.2.1-.1 0-.2-.1.1 0 0-.1 0-.1-.1 0-.2.1-.2.1-.1 0-.1-.1-.2-.1.2 0 .1-.1.2-.1 0-.1-.2-.1-.2-.1.1 0 0-.1.2 0 0 0-.1 0 0 .1.1 0 .2 0 .1-.1s-.3 0-.2-.1c0 0 .1 0 .2.1l.1-.1h-.1c-.2 0-.1-.2-.3-.2 0-.1.1-.1.1-.2.1-.1 0-.1-.1-.2 0 0 0-.1-.1-.2.1-.1.6 0 .4-.1 0-.1-.3-.1-.4-.1.1-.2-.2-.3.1-.5-.1 0-.1 0-.2-.1.1-.3-.2-.9.1-1 .1.1.2.1.3.1-.2-.1.2 0-.1-.2-.2-.1-.2-.1-.3 0-.1-.3-.1-.6.1-.6-.1 0-.1-.1-.2-.1.2.2.3.1.2-.1l-.2-.1h.2c0-.1-.3-.3-.2-.3s.1.1.2.1c-.1-.2-.3-.6-.2-.6l.2.1c0-.1-.2-.3-.2-.3.1-.1.2-.2.3 0a3.73 3.73 0 0 1-.4-1.6c.2.1.3.2.5.3l.1.2c.2.2-.1-.3 0-.1 0 .1.3.4.3.6.2.3.1-.2.1-.2-.1-.2 0 .1-.1-.2 0-.1.3.3.2 0 .1.1.2.4.2.5V12c.2.4 0 .5.3 1.1.2.4 0 .3.2.5 0-.1-.1-.5-.2-.7.1 0-.2-.7 0-.5.1.2-.2-.1 0 .2s.2 0 .3.1c-.1-.2-.1-.4-.1-.4.2.2 0 .2.2.4 0-.1.1-.2 0-.4 0-.3.2.2.2 0 .1.3-.1.5.1.7-.1-.3.2-.2 0-.6.1.1.1.3.1.4.1.2.2-.3.3.2v-.2c0 .1.1.2.1.3.1 0 .3-.1.3.2 0 0 .2.1.2-.1.1-.2 0 .1 0-.3.1.3.2.1.3 0v.1c.1 0 .2.1.2 0-.1 0-.1.1 0 .2l.1-.1c.2 0 0 .3.2.4l-.2.1s0 .2.1.2c.1-.1.2-.3.3-.4.1 0 0 .2.2.1l-.2.1s0 .3.1.4c.1 0 .3-.2.2-.3v.2c.1 0 .1-.1.2-.2v.4l-.2.2c-.2.1 0 .2-.2.3h.2c.1-.4.3-.4.5-.6.2 0-.3.7.1.4 0-.1.2-.3.1-.2.1.1.2-.3.3-.1-.2.1-.1.3-.3.4.1-.1 0-.1-.1-.1 0 .1-.2.3-.1.3s.2 0 .2-.1c.1-.2-.1 0 0-.2.2 0 0 .3.2 0-.1 0 0-.2.1-.3h.1l-.1.1c.1.1.2-.2.3-.1l-.1.3c-.1.2-.1-.2-.3.1.1.1.2-.1.2 0h-.1s-.2.4.1.3l.2-.2h.3c-.2.2.1.1-.1.3 0-.1-.2-.3-.3-.1-.1.3-.1-.1-.3.1.1.1 0 .3-.1.5h.1c.1-.1.1-.2.2-.3.1.1.3.1.4 0 0 .1-.1.3-.2.2.2 0 .3.1.4.3.1-.3.2 0 .3-.2 0-.1 0-.3.1-.4 0 0-.1.1-.1.2.1-.1 0 .3.1.1-.2 0-.2.3-.3.5.2-.1-.1.1 0 .2.2-.1.3-.1.4-.1 0 .3.3.2.4.2 0 .1-.2.3-.1.4.1 0 .1-.3.1-.1.1 0 .1.3.3 0l-.2.2h.1c0 .1-.1.2-.1.2 0 .2.2.1.2.1v-.2c.2 0 .2.1.3.2v.1h.1c-.1.1-.1.3 0 .2l-.4.2c0-.1.2-.1.2-.3 0-.1-.1-.2-.2 0h.1c-.1.2-.2.2-.3.3 0 0 0 .1.1 0-.1.1-.2.1-.2 0 .1 0 0-.1.1-.2-.1.2-.2.2-.3.1 0-.2-.3 0-.3-.1.2-.1.3-.3.4-.3 0-.1-.1 0-.1-.2-.1.1-.3.3-.4.3l.1-.1c-.1 0-.2.2-.3.1-.1-.2-.3-.3-.4-.4l.1-.1c-.2.2-.3 0-.5 0-.1-.2-.4-.1-.4-.4-.3-.1-.7-.1-1-.3l.2-.2c-.1.1 0-.1 0-.1 0 .2-.2.1-.3.3-.1-.2-.3-.2-.5-.1l.1-.1c-.1.1-.2.1-.3 0 0 0 0-.1-.1-.2v-.2c-.1.2-.2.2-.2.3 0 0-.1-.1-.2-.3-.1.3-.3 0-.3.2l-.1-.3v.2c0 .1-.1.1 0 .3l-.3-.4c-.1-.1.1.2.3.4-.1-.1.2.2-.1 0-.1 0 .1.2.2.2-.1 0-.1 0 0 .1-.1 0-.2-.1-.2-.1.1.1-.1.1.3.2-.2 0 .2.1-.1.2.1 0 .1 0 .2.1 0 .2-.2.4 0 .5h-.2s.1 0 .2.1c.2.3-.2.6-.1.9.2.5.1 1 .1 1.5h-.1c.3.2-.3.4.1.5-.1 0 0 .1-.2.1.2.1-.2.4.1.5-.2.1.1.1-.1.2h-.1c-.1.1.3 0 0 .1l.2-.1v.1h.2c.1 0 .1-.1.3 0 .2.3-.3.5.1.4 0 .1.1-.1 0 0 .1 0-.1.4.1.3.1-.2.1-.1.2-.2.1.2 0 .4.3.3l-.1.1c.3-.2.4.1.7-.2l1.3.6.7.3.3.1c0 .1 0 0 .1.1l.1.1c.3.4.3.3.2.1 0 .1.1.1.1.1-.2-.3 0-.1-.3-.3v-.1l.2.1-.2-.1h.1l-.2-.1c-.1.2 0-.5 0-.9.1-.5.2-.9.2-1.4.1-.2 0-.5 0-.8.3-.7.6-1.3.3-2-.2 0 .4 0 .5.3z"/><path d="M44.5 17.4c0-.1 0-.2.1-.3 0 .1 0 .2-.1.3zm-1.2-2.1s0-.1 0 0c0-.1.1-.2 0 0 0-.1 0-.1 0 0zm-.5-.4c.1-.1.2-.1.3-.1l-.3.1zm-.2-.6c0-.1 0-.1.1-.1l-.1.1zm-.2.2v-.1s.1-.1 0 .1zm-.8-.8s-.1 0 0 0c-.1 0 .1-.2 0 0zm-.5-.2c-.1-.1 0-.1 0-.1v.1zm-3.8 6.4v-.1h.1zm3 3.3c.1 0 0 .1 0 .1-.1 0 0-.1 0-.1zm2.2.7l.1-.2z"/></g><path d="M51.7 13.2l-6.8-3.9-6.8 3.9 6.8 4z" fill="#7b9fb7"/><g class="R"><path d="M51.4 13.5c.1.1.1-.1 0 0 .1.1 0 .1 0 0zm-.2-.3c0 .7-.7.4-.9.9 0 0-.2-.3-.2-.1-.1.6-.8.7-1.4.6v-.1c-.1 0-.1.3-.2.3 0 0 0-.1-.1-.1.1.2-.1.2-.1.3-.1 0-.1-.2-.2-.2v.2c.1.5-.3.2-.4.5v-.1c-.2.4-.5.6-.8.9 0-.1-.1-.2-.1-.2.1.2 0 .3-.1.4-.2-.2-.1.3-.2.2 0 .2-.2 0-.1.2l-.1-.1c.1.3-.2-.1-.2.1v.1c0 .1-.1 0-.2.1s-.3 0-.1.3c-.1-.1.1-.1-.1-.3-.2.3-.5.5-.8.7l-.5-.3v-.3h-.3v-.1c0-.1-.2.2-.3 0 .1 0 .1-.1.2-.2-.2.1-.3 0-.4 0 0 0 .1 0 .1-.1-.2.1-.2-.1-.3-.1l.1-.1c0-.2-.2.2-.3.1l.1-.1c-.2.1-.4 0-.5 0s-.2-.2-.4-.2c0-.1.2-.3 0-.3-.1.2-.3 0-.3.3-.1-.1-.2-.3-.3-.2.1-.1.1-.3.2-.3v-.2c.1-.1 0 .1.1-.1 0 0-.2 0-.3-.1-.2.1-.4.3-.5.3.1-.1.1-.3.2-.3l-.4.3s.1-.2 0-.2c0 .1-.1.1-.1.1s-.2 0-.1-.3c0-.1.1 0 .1-.1h-.2c0-.1-.2 0-.2.2 0 0 .1-.1.1 0-.1.1-.2.1-.3.1l.1-.1c-.2.1-.3.1-.6.1-.1.1.2-.2.2-.1-.1-.3-.6-.1-.6-.4l-.1.1c-.1-.1.1-.2-.1-.2.1-.1-.1 0-.2 0s0 0 .1 0c-.2 0-.8-.2-.8-.4h-.5l.3-.1c.1-.1-.2-.1 0-.2-.4 0 .7.2.3.2.2-.1-.6 0-.2-.1-.1-.1-.5-.1-.4-.2 0 0 .4 0 .3-.1-.2-.1-.2 0-.4-.1h-.2c-.3 0-.1-.1-.3 0 .2 0-.4-.1.1-.2h.4-.5c-.6 0-.1-.1-.7-.1 0 0 0-.1-.1-.1.1 0 .2-.1.5-.1-.1-.1-.2-.1.1-.2l.1.1c.3 0 .1-.1.1-.1.1 0 .5-.1.7-.1-.1-.1-.4-.1-.5-.1.6 0 0-.3.6-.2 0 0 .1.1.3.1.5.1-.2-.2.2-.2l-.4-.1c.3 0 .1-.2.4-.1-.1-.1.3-.1 0-.2.5 0 .6-.5 1.1-.3 0 0 .1-.1 0-.2-.2-.1 0 .1-.1.1v-.1c.1 0 .2 0 .3.2.3 0-.1-.4.2-.5 0 .1.1.1.2.1v-.2c.1 0 .2.2.3.3 0-.1.1-.1.1-.2l.2.2c-.1-.1 0-.1 0-.2v.1c0 .1.1 0 .1-.1-.1-.1-.2-.1-.2-.1v-.2c.1.2.2.1.2 0 .1 0 0-.2 0-.2 0 .1.1 0 .1.1 0 0-.1-.1-.1 0 .1 0 .2.2.2 0 0-.1-.2-.3 0-.3v.2h.1l-.1-.1v.1c-.1-.2.1-.1 0-.3h.2c.1.1.2 0 .1-.2 0 0 .1-.1.1-.2.1.1.3.5.3.3.1 0 0-.3-.1-.4.2 0 .2-.3.5-.1 0-.1-.1-.1 0-.2.2-.1.3-.4.6-.2 0 .1.1.1.1.2 0-.1.1.1 0-.1-.1-.1-.1-.2-.2-.2a.76.76 0 0 1 .4-.2c-.1 0-.1-.1-.1-.1.1.2.2.2.2.1l-.1-.1.1.1c0-.1-.1-.3 0-.2l.1.1c0-.1 0-.4.1-.3.1 0 .1.1.2.1 0 0 .1-.2-.1-.2.3 0 .4-.1.5.1.1-.4.4-.7.8-.9.1-.2.3-.1.4 0v.1c.1.2.1-.2.2 0-.1.1 0 .3-.1.4.1.2.2-.1.4-.1.1-.1-.1 0 0-.1 0 0 .2.2.3.1 0 .1-.1.2-.2.3h.2c-.1.1-.5.1-.5.5h.1c0 .2-.3.1-.2.3.1-.1.3-.3.3-.4.2 0 .3-.4.5-.3 0 .1-.1 0-.2.1 0 .2.2 0 .2.1 0-.1.2-.3.2-.3 0 .1-.2.1-.1.2.1-.1.2-.1.2-.2.2-.2.1.1.2 0-.1.2-.3.3-.3.5.1-.2.3-.1.3-.4 0 .1-.1.2-.2.3 0 .1.3-.2.2.1l.2-.3v.2s.3-.1.2.1c0 0 .2.1.2-.1 0-.1-.2.1-.1-.2-.1.2.1 0 .2 0v.1s.1 0 .2-.1c-.1 0-.1.1-.1.1l.1-.1c.2 0-.1.3 0 .3l-.1.1s0 .1.1.1c.1-.1.2-.3.3-.4.1 0-.1.2.1.1l-.2.1s-.1.3 0 .3.3-.2.2-.3v.2c.1 0 .1-.1.2-.2v.4l-.2.2c-.2.1 0 .2-.2.3h.2c.1-.4.3-.4.5-.6.2 0-.3.7.1.4 0-.1.2-.3.1-.2.1.1.2-.3.3-.1-.2.1-.1.3-.3.4.1-.1 0-.1-.1-.1 0 .1-.2.3-.1.3s.2 0 .2-.1c.1-.2-.1 0 0-.2.2 0 0 .3.2 0-.1 0 0-.2.1-.3h.1l-.2.4c.1.1.2-.2.3-.1l-.1.3c-.1.2-.1-.2-.3.1.1.1.2-.1.2 0H49s-.2.4.1.3l.2-.2h.3c-.2.2.1.1-.1.3 0-.1-.2-.3-.3-.1-.1.3-.1-.1-.3.1.1.1 0 .3-.1.5h.1c.1-.1.1-.2.2-.3.1.1.3.1.4 0 0 .1-.1.3-.2.2.2 0 .3.1.4.3.1-.3.2 0 .3-.2 0-.1 0-.3.1-.4 0 0-.1.1-.1.2.1-.1 0 .3.1.1-.2 0-.2.3-.3.5.2-.1-.1.1 0 .2.2-.1.3-.1.4-.1 0 .3.3.2.4.3 0 .1-.2.3-.1.4.1 0 .1-.3.1-.1.1 0 .1.3.3 0l-.2.2h.1c0 .1-.1.2-.1.2 0 .2.2.1.2.1v-.2c.2 0 .2.1.3.2l-.1.1h.1c-.1.1-.1.3 0 .2l-.4.2c0-.1.2-.1.2-.3 0-.1-.1-.2-.2 0h.1c-.1.2-.2.2-.3.3 0 0 0 .1.1 0-.1.1-.2.1-.2 0 .1 0 0-.1.1-.2-.1.2-.2.2-.3.1 0-.2-.3 0-.3-.1.2-.1.3-.3.4-.3 0-.1-.1 0-.1-.2-.1.1-.3.3-.4.3l.1-.1c-.1 0-.2.2-.3.1-.1-.2-.3-.3-.4-.4l.1-.1c-.2.2-.3 0-.5 0-.1-.2-.4-.1-.4-.4-.3-.1-.7-.1-1-.4l.2-.2c-.1.1 0-.1 0-.1 0 .2-.2.1-.3.3-.1-.2-.3-.2-.5-.1l.1-.1c-.3.2-.3-.1-.4-.3 0-.1.1-.2 0-.2-.2.2-.2.1-.4.2l-.3-.3c-.5.1-.9-.4-1-.2v-.2c-.1.1-.2.1-.2.1-.1 0-.2 0-.2.2l-.1-.3c-.1-.1-.1.1 0 .3-.1-.1-.1.3-.3.1-.1 0 0 .2-.1.3-.3 0-.3.1-.4.2h.1c0-.1-.1-.2-.1-.2 0 .1-.3.1 0 .3-.3-.1-.3.4-.7.3.1.1 0 .1 0 .2-.2.1-.4 0-.5.3 0 0 0-.2-.1-.1 0 .1.1.1 0 .2-.2.3-.6.1-.8.3s-.4.4-.6.5c-.1 0-.1 0-.2.1h-.1c.3.2-.4-.1 0 .1-.1 0-.1 0-.2-.1.2.1-.3 0 0 .1-.3 0 0 .1-.3.1h-.2c-.3 0 .5.1-.2 0h.1c.1.1.5.1.6.1-.2.1-.8.2-.3.2-.1 0 .2-.1.1 0 .2 0-.4.2-.2.1s.2 0 .3-.1c-.1.1-.2.3 0 .2l-.1.1c.3-.2.3 0 .5-.3l1.2.5c.5.2.9.4 1.3.6l1 .6.2.1v.1c.1.3.1.3.2.1v.1c-.1-.2.2-.1 0-.3.3-.1.6-.4.9-.5 0 .1 0 .2.1.2v-.1c0-.1 0-.2-.1-.2.7-.6 1.7-.7 2.5-1.2.2 0 .5-.3.6-.4.8-.1 1.4-.2 1.9-.7.7-.5.9.1.7.4z"/><path d="M51.3 13.5c0-.1 0-.2.1-.3 0 .1-.1.2-.1.3zM50 11.3c0 .1 0 0 0 0 .1 0 .1-.1 0 0zm-.4-.3c.1-.1.2-.1.3-.1l-.3.1zm-.2-.6c0-.1 0-.1.1-.1 0 0-.1 0-.1.1zm-.2.2v-.1s.1-.1 0 .1zm-.8-.9s-.1.1 0 0c-.1.1.1-.1 0 0zm-.5-.1v-.1.1zm-9.8 2.7h.1zm2.2 3.1c.1 0 0 .1 0 .1-.1 0 0-.1 0-.1zm2.2.7h-.1l.1-.2z"/></g><path d="M44.9 17.2l.1 46.9 6.8-3.9-.1-46.9-6.8 3.9z" fill="#7192ad"/><g class="R"><path d="M45.3 17.4c0-.4-.2.2-.1-.3.1.1.1.2.1.3zm.9-.7c.9-1.1 2.6-1.5 3.7-2.5.2-.1 0 .4.3.1.4-.4 1-.9 1.6-1.2 0 .6 0 1.3-.1 1.9l-.3 1.7-.1-.1c-.1.3.2.7.2 1-.1 0-.1-.1-.2 0 .2.1.1.6.2.8-.1.1-.2.1-.3.3l.2.2c.5.5 0 1.3.2 2 0 0-.1-.1-.1 0 .3 1.2.2 2.6.3 4-.1-.1-.2-.1-.3 0 .2.1.3.5.3.8-.2.2.2.6.1 1 .2.3-.1.5.2.7l-.2.2c.3.1-.2.4 0 .7h.1c.1.2-.1.4 0 .6.1.5-.1.8.2.8-.2.2-.1-.5-.4-.2.3 1.7.2 3.5.2 5.2-.1.2-.1.3-.2.4 0 .2 0 .6.2.8 0-.1-.1.1-.1.2-.1.3.3.3.2.7-.1-.1-.1-.2-.2-.1.2.3.2.7.2 1 0-.1-.1-.1-.1-.1.2.4 0 .7.1 1l-.1-.1c-.2.5.3.2.2.6 0-.1-.1-.1-.2-.1.3.4.2 1.1.3 1.5h-.1c0 .5 0 1 .1 1.5-.1.2-.3-.1-.3.4.3 0 .1.8.4.5 0 .4-.2 1.1 0 1.4-.1-.2-.3.2-.3-.2l-.2.3c-.1 0 0-.3-.1-.2 0 .2.1.7.1.8.2.3.5.6.5 1.2-.1-.3-.3.2-.3 0l.5.7c0 .2-.2 0-.2.3.1 0 .1.1.2.2 0 .1.1.7-.2.8-.1.1-.1-.3-.2-.1 0 .3.1.3.1.7 0 .2.1.6.3.4 0-.2-.2.1-.1-.2.2.2.2.5.2.8 0-.1-.1-.1-.2-.2.2.4.3.9.4 1.4.1 0-.2-.2-.2-.3-.2.6.3 1.3 0 1.8 0-.1.2 0 .2 0 0 .3-.2.3-.1.5-.1 0 0 .3.1.5.1.1-.1.1-.1-.1.1.3.3 1.4.1 2.1.1 0 .3.4.3.5l-.2-.1c-.1.1 0 .5-.1.5.2.3-.2-1.2 0-.8-.2.1.3.6 0 .5 0 .3.2.6 0 .9 0-.1-.2-.3-.2 0 0 .4.1.1.1.5l.1.2c.2 0 0 .4.2.2-.1.1.1.6-.2.6l-.2-.1c0 .2.2.3.3.5l-.1.1c.3 0 0 .4.2.8-.1.3-.1.6-.1 1-.3.2-.6.3-.8.3-.2.1-.3.3-.5.4-.1.1-.2.2-.4.3 0-.1.1-.1.1-.2-.2 0-.2.1-.4.3 0-.1-.5 0-.7.1-.2.2 0 .3 0 .4-.4-.2-.6.6-1 .5.1-.1.3-.3 0-.3-.4-.2-.3.5-.8.5l.2.2c-.3 0-.5.5-.6.2-.1.2-.7.3-.5.5a11.94 11.94 0 0 0-1.6.8c-.5.3-1 .6-1.1.3-.1.1-.2.1-.2.2 0-.1 0-.2-.1 0 0 .2-.1.2 0 .3.1-.1.3-.3.3-.2l-.3.3c0-.4.1-.6.3-.7.2-.9-.4-.1-.3-1.2.1-.1.2-.2.1-.4-.1-.1-.1-.3-.2-.4 0-.7.3-.5.4-.6 0-.3 0-.6-.2-.8.1-.2.2-.2.2-.3-.2.2-.1-.2-.2-.3v.1c.1 0 0-.3 0-.4-.1 0-.2.3-.2.4-.1-.1-.1-.3-.2-.4.2 0 .1-.3.2-.5 0-.2-.2-.2-.2-.3.1 0 0-.3.2-.2 0 .1-.1.2 0 .3.1-.1.2-.1.1-.4-.1-.2-.3.1-.2-.3 0 .1.1.1.2.2l.1-.4h-.1c-.2-.1-.1-.5-.3-.6 0-.2.1-.4.1-.5.1-.2 0-.5-.1-.7 0-.1 0-.4-.1-.5.1-.3.6-.1.4-.4 0-.3-.3-.5-.4-.3.1-.5-.2-1.2.1-1.7-.2-.4-.3-.4-.3-.5.1-.8-.2-1.7.1-2.3.1.2.2 0 .3 0-.2-.2.2-.2-.1-.3-.2 0-.2 0-.3.2-.1-.5-.1-1.2.1-1.4-.1.1-.1 0-.2-.1.2 0 .3-.3.2-.6h-.2l.2-.2c0-.1-.3-.1-.2-.4.1 0 .1 0 .2-.1-.1-.3-.3-.7-.2-1l.2-.3c0-.1-.2-.3-.2-.1.1-.5.2-.8.3-1-.4-.9-.5-2.1-.4-3.1h.1c.1-.3-.2-.2-.1-.3.1.1.2-.2.3 0 .1-.4-.2-.5-.2-.7-.2 0 .1.2-.1.2 0 0 .1-.5-.1-.6.1-.1.2 0 .3 0l-.1-.2c.3-.3.4.7.7.3v-.2c.2-.2.3.6.3 0-.1-.2-.4-.4-.5-.2-.1-.5-.5-.2-.5-.8.1-.2 0 .4.2.3.2-.3-.1-.5 0-.7-.1.3-.3 0-.3-.1.1-.3.2.2.2-.2-.1-.1-.2-.4-.3-.1-.3-.1.1-.4-.2-.6.2-.1.5.4.5 0-.2.1-.3-.5-.5-.3.1-.2.2-.2.3-.1.1-.2-.3-.6 0-.6l-.2-.1c.1-.1.1-.2.2-.3 0-.2-.3-.7 0-.7 0-.1 0-.5-.2-.3-.1.3.2.3-.1.5.2-.2 0-.4-.1-.6h.1c0-.1 0-.3-.2-.4.1.1.2 0 .2 0l-.2-.1c-.1-.4.3-.1.3-.5l.1.3c0-.1.1-.2.1-.4-.2-.1-.3-.2-.5-.3-.1-.2.2-.1 0-.3l.2.3c.1 0 .3-.2.3-.5-.1-.2-.3-.5-.4-.2 0-.2.1-.4.2-.3-.1-.3-.2 0-.3-.3.1-.1.3-.5.4-.7l.3.3v-.2c.2.3.2-.1.4 0 0-.2 0-.3-.1-.5-.3.4-.5-.5-.8-.3-.1-.6.8-.3.3-.9-.1.1-.3-.2-.2.2 0-.4-.3-.2-.2-.7.1.3.3-.3.5.1-.1 0-.1.3 0 .3.1-.1.3 0 .3-.3 0-.2 0-.5-.2-.5s0 .3-.2.2c-.1-.4.2-.5-.1-.7 0 .3-.2.4-.3.3l-.1-.3.1.1c.1-.5-.2-.1-.2-.6l.3-.2c.2.1-.1.7.3.6 0-.3-.2-.4-.1-.7 0 .1 0 .2.1.2 0-.1.5-.2.2-.7-.1-.2-.1-.1-.3-.1 0-.5-.2-.7-.2-1 .3.1 0-.6.3-.2-.2.2-.1.9.1 1.1.3-.2 0 .4.3.5 0-.4.3-.4.5-.5 0-.1-.1-.2-.1-.3-.2 0-.2.1-.4.1a3.73 3.73 0 0 0-.2-1.2c.1-.2.3-.1.3.1-.1-.5 0-1.1 0-1.7-.3.3-.1-.6-.3-.4-.1.3-.3.5-.4.4 0-.2.1 0 .2-.1-.2-.2.3-.4 0-.6.1.5.3.1.6.2-.1-.4.2 0 .2-.4l-.3-1.2c.2-.5 0-1.3 0-1.7.1-.2.4-.1.4-.3 0-.3-.3.2-.2-.2h.1c-.1-.1.2-.8-.2-1l.3.1c0-.1 0-.2-.1-.2.1 0 .2-.1.2 0 .2-.3 0-.6 0-.9l-.2.2c-.1-.5 0-.9 0-1.3h.2l-.1-.3c.2.1.3-.2.1-.4l.4.8c-.1.2-.2-.2-.3-.1s-.1.6.1.6c0-.2 0-.2-.1-.3.2-.1.2.2.4.3 0-.1.1-.2 0-.3.1.2.1.4.1.7-.1-.2-.2.1-.2 0 .2 0 .3.3.2.7-.2.3.2.7.1 1.1-.2-.2-.4-.4-.4-.7-.1.3 0 .3-.1.6.2.1.4.2.5.6h-.2c.1.3.3.3.3.7-.1.7-.1 1.4-.1 1.9h-.2c.3.3.1 1 .3 1.4-.2.7.2 1.5-.1 1.8l.2 3.5-.2-.2c.2.2-.1.1-.1.4.2-.3.2.3.3.4-.2.5 0 1.3.2 1.8h-.2c.3.5 0 1.1 0 1.7-.1.1-.2.2-.2.4.2.3.2.5.4 1 0 .4-.1.9-.2 1.3.3 1.3.1 2.7.3 4.1l-.2.1c.4 1.4 0 3 .2 4.2l-.3-.1c-.1.4.1.8.3.7-.1.4.2.9-.1 1.1-.1.4.1.5.2.8a4.85 4.85 0 0 0 0 1.7v-.2c-.1-.1-.2-.1-.2.1.1.3-.1 1 .3.7-.2.7.2 1.8-.1 2.5.1-.1.1.1.2.2 0 .7-.2 1.3 0 1.9 0 .1-.2-.2-.2.1 0 .2.1 0 .2.2.2 1.1-.2 2.2-.1 3.1 0 .4.1.7.1 1.1v1.1l.2-.1v.1c.1-.2.1-.2.2-.1.1 0 .2 0 .2-.2h.3c.3-.4 1.2-.5 1.6-1-.1 0-.1.1-.1.1.6-.2 1-.7 1.7-.9 0 .1-.2.2-.1.2.3 0 .4-.6.6-.3.1 0-.1-.2-.1-.1.1 0 .2-.1.3-.1v-.3c0-.3 0-.6-.1-1 0-.6-.1-1.3-.2-1.9.2-1.1.6-.1.3-1 .1-.1-.1-.1-.1-.1-.1-.3.4-.5.2-.8-.2.1-.1-.2-.3-.2.1-.7.3-.8.2-1.3h.1c-.3-.6-.2-1.4-.5-1.9l-.3-10.1c.1-3.3-.1-6.6.1-10 .3-.8.3-.9.2-1.7 0 0 .1.1.1 0-.2 0 0-.6-.3-.7v-3.7c0 .2.2.3.2.1l-.1-.2h.1c0-.2-.2-.4-.2-.2-.1-1.6 0-3.2 0-4.8 0-.8.1-1.6.1-2.4v-1.6c.1-.1 0-.3 0-.3l-.1.1c0-.1-.1-.1-.3-.1 0 0-.2.1-.3.1l-1.2.6a23.81 23.81 0 0 0-3 1.8c-.3.7-.3.1.5-.6z"/><path d="M45.3 17.9c-.1.1-.2.4-.3.1.1 0 .2-.1.3-.1zm-1.2 7.5s0 .1-.1.1c0-.1-.1-.2 0-.3 0 .2 0 .2.1.2zm-.1 1.9c-.1 0-.2-.4-.2-.7l.2.7zm-.4 1.8c-.1.2-.2.1-.1-.1 0 0 0 .1.1.1zm.2.1c0 .1-.1.2-.1.3.1 0 0-.3.1-.3zm-.3 3.9c0 .1.1.3 0 .4.1-.1-.1-.4 0-.4zm.2 1.8v.2c0 .1-.1 0-.1-.1l.1-.1zm4.9 28l-.1.1v-.1zm4-13.1c-.1-.2.1-.1.1-.2 0 .3-.1 0-.1.2zm-.6-7.7h-.2z"/></g><path d="M38.1 36.7l-6.7-3.9.1 31.2 6.7 4z" fill="#fcc013"/><g class="R"><path d="M37.8 37c.3.1 0-.2.2 0-.1 0-.2.1-.2 0z"/><path d="M37.9 37.7c.5.9 0 2.1.4 3.2 0 .1-.3 0-.2.2.4 1 .2 2.5-.2 3.7l-.1-.1c-.1.2.2.5.2.7-.1 0-.1-.1-.2 0 .2.1.1.4.2.5-.1.1-.2.1-.3.2l.2.1c.5.4 0 .9.2 1.5 0 0-.1-.1-.1 0 .3.8.2 1.9.3 2.8-.1 0-.2-.1-.3 0 .2 0 .3.3.3.6-.2.1.2.4.1.7.2.2-.1.3.2.5l-.2.2c.3.1-.2.3 0 .5h.1c.1.2-.1.3 0 .4.1.4-.1.6.2.6-.2.1-.1-.4-.3-.2.3 1.2.2 2.5.2 3.7-.1.2-.1.2-.2.3 0 .1 0 .5.2.6 0 0-.1.1-.1.2-.1.2.3.3.2.5-.1-.1-.1-.1-.2-.1.2.2.2.5.2.7l-.1-.1c.2.3 0 .5.1.7l-.1-.1c-.2.4.3.1.2.4 0-.1-.1 0-.2-.1.3.3.2.8.3 1.1h-.1c0 .3 0 .7.1 1-.1.1-.3 0-.3.3.3 0 .1.6.4.4 0 .3-.2.8-.1 1-.1-.1-.3.2-.3-.1l-.2.2c-.1 0 0-.2-.1-.1 0 .1.1.5.1.6.2.2.5.4.5.9-.1-.2-.3 0-.3-.1.2.2.3.5.5.8 0 .2-.2-.1-.2.2.1 0 .1.2.2.3 0 0 .1.8-.2.5-.1-.1-.1-.3-.2-.3 0 .3.1.4.1.7 0 .1.1.7.3.8 0-.1-.2-.2-.1-.3.1.2.1.4.2.6-.1 0-.2-.1-.4-.2.1 0 0-.2 0-.3-.2.2-.5 0-1-.1 0 .2.1-.2.2-.1-.7-.3-1-.3-1.2-.4-.3-.1-.5-.2-.7-.5.1 0 0 .2 0 .2-.3-.2-.2-.3-.4-.4 0-.1-.2-.1-.3-.1s0-.1.1 0c-.2 0-1-.3-1.3-.7 0 .1-.4.1-.5 0l.1-.1c0-.1-.3-.2-.3-.3-.3.1.8.3.5.3 0-.2-.5 0-.3-.2-.2-.1-.5 0-.5-.3 0 .1.3-.1.1-.2-.3-.1-.1 0-.3 0h-.2c-.1.1-.2-.2-.2.1 0-.1-.4-.2-.3-.4l.2-.2c-.1-.1-.3.1-.4.1v-.1c-.2.3-.4-.3-.7-.2-.1-.2-.4-.3-.5-.4 0-.3 0-.5.1-.6-.1-.2-.2-.6-.1-.9 0 .1 0 .1.1.1.1-.2 0-.2 0-.3l.3-.5c-.1-.2-.3-.1-.4-.2.3-.2-.2-.6.1-.8 0 .1.2.3.2.1.3-.2-.2-.4-.1-.7l-.3.1c.2-.1-.2-.5.1-.4-.1-.1.1-.4-.2-.3.2-.5-.1-1.2.3-1.6 0-.1 0-.3-.1-.2s.1.2 0 .2c0-.1-.1-.1-.1-.1.1-.2.1-.3.3-.1.2-.3-.4-.4-.3-.8.1 0 .1 0 .1-.2l-.2-.3c0-.3.3-.2.4-.2 0-.2 0-.3-.2-.4l.2-.2c-.2.1-.1-.1-.2-.2v.1c.1 0 0-.2 0-.3-.1 0-.2.2-.2.3-.1-.1-.1-.2-.2-.3.2 0 .1-.3.1-.4 0-.2-.2-.2-.2-.2.1 0 0-.2.1-.1 0 0-.1.1 0 .2.1-.1.2-.1.1-.3s-.4 0-.2-.2c0 .1.1.1.2.2l.1-.3h-.1c-.2-.1-.1-.4-.3-.5 0-.1.1-.3.1-.4.1-.2 0-.3-.1-.5 0-.1 0-.3-.1-.4.1-.2.6-.1.4-.3 0-.2-.3-.3-.4-.3.1-.4-.2-.8.1-1.2-.1-.1-.1 0-.1-.1.1-.6-.2-1.2.1-1.6.1.2.2 0 .3 0-.1-.1.1-.2-.1-.2-.1 0-.2 0-.3.2-.1-.3-.1-.8.1-1-.1.1-.1 0-.2-.1.2 0 .3-.2.2-.4h-.1l.1-.1c0-.1-.3-.1-.2-.3.1 0 .1 0 .1-.1-.1-.2-.3-.5-.2-.7l.2-.2c0-.1-.1-.3-.2-.1.1-.4.1-.6.3-.7-.4-.6-.5-1.5-.4-2.2h.1c.1-.2-.2-.1-.1-.2.1.1.2-.2.4 0 .1-.3-.2-.3-.2-.5-.1 0 .1.2-.1.1 0 0 .1-.4-.1-.4.1-.1.2 0 .3 0l-.1-.2c.3-.2.4.5.7.3v-.2c.2-.2.3.4.3 0-.1-.2-.4-.3-.5-.2-.1-.3-.5-.2-.5-.5.1-.1 0 .3.2.2.2-.2-.1-.4 0-.5-.1.2-.3 0-.3-.1.1-.2.2.1.2-.2-.1 0-.2-.3-.3-.1-.3-.1.1-.3-.1-.4.2-.1.5.3.5 0-.2 0-.3-.4-.5-.2.1-.1.2-.1.3 0 .1-.2-.4-.4 0-.5l-.2-.1.2-.2c0-.2-.3-.5 0-.5 0 0 0-.4-.2-.3-.1.2.1.3-.1.4.2-.2 0-.3-.1-.4h.1c0-.1 0-.2-.1-.3.1.1.1 0 .2 0l-.2-.1c-.1-.3.3-.1.3-.3l.1.2s.1-.2.1-.3c-.2-.1-.4-.2-.5-.2-.1-.2.2-.1 0-.2l.2.2c.1 0 .3-.2.3-.3-.1-.1-.3-.3-.4-.1 0-.1.1-.3.2-.2-.1-.3-.2 0-.3-.2.1-.1.3-.3.4-.5l.3.2v-.2c.2.2.2-.1.4 0 0-.1 0-.2-.1-.3-.4.3-.5-.3-.8-.3-.1-.4.8-.2.3-.7-.1.1-.3-.2-.2.2 0-.3-.3-.3-.2-.8.1.4.3-.3.5.3-.1-.1-.1.3 0 .3.1-.2.3 0 .3-.3 0-.2 0-.5-.2-.5-.2-.1 0 .4-.2.2-.1-.5.2-.5-.1-.9 0 .3-.2.3-.3.3l-.1-.5.1.2c.1-.6-.2-.3-.2-1 .1 0 .2-.1.3-.1.2.3-.1.9.3 1 0-.4-.2-.7-.1-1 0 .1 0 .2.1.3 0-.2.5.2.2-.6-.1-.4-.1-.2-.3-.4 0-.7-.2-1.1-.2-1.5 0 .1.1.1.1.1.2.2.5.3.4.4l-.3-.3c-.1.3 0 1 .2 1.3.3.2 0 .4.3.9 0-.4.3 0 .5.2 0-.1-.1-.3-.1-.4-.2-.3-.2-.2-.4-.4 0-.3 0-.5-.1-.9.1 0 .2 0 .2-.1.2.2.3.5.2.4.4.2 1 .5 1.4.9-.4-.5.5.2.3-.2-.3-.2-.6-.7-.5-.7.2.1 0 .2.1.3.2-.1.4.5.6.3-.5-.2-.1.4-.2.6.3 0 0 .2.3.3.3 0 .7.2 1 .3.2.4.8.5 1.1.6.1.2-.2.3 0 .5.2.1 0-.3.2-.1h-.1c.1 0 .4.4.7.2l-.2.2c0 .1.1 0 .2 0 0 .1 0 .2-.2.2.1.3.4.2.5.3v-.2c.4.1.5.3.8.5l-.1.1h.2c-.1.1 0 .3.2.2l-.7.1c-.1-.2.3-.1.2-.3 0-.2-.3-.3-.4-.2.1.1.1 0 .2 0-.1.2-.2.1-.4.2.1 0 .1.1.2.1-.2 0-.3 0-.5-.1.2 0 0-.2.1-.2-.1.2-.3.1-.5-.1 0-.3-.5-.1-.7-.3.2-.1.4-.2.6-.2-.1-.2-.2-.1-.3-.3-.2.1-.3.3-.6.2l.1-.1c-.2 0-.3.2-.6 0-.2-.2-.4-.3-.6-.4s-.3-.2-.4-.3v-.2c-.2.3-.5-.1-.6-.1-.3-.3-.5-.2-.7-.5h-.1l.2 1.8c-.1 0-.1-.1-.2-.1.2.2-.1.1-.1.2.2-.1.2.2.4.3-.2.4 0 .9.2 1.2h-.2c.3.3 0 .8 0 1.2-.1 0-.2.1-.2.3.2.2.2.4.4.7a2.39 2.39 0 0 1-.2.9c.3 1 .1 1.9.3 2.9l-.2.1c.4 1 0 2.2.2 3l-.3-.1c-.1.3.1.6.3.5-.1.3.2.6-.1.8-.1.3.1.3.2.5-.1.5-.1.7 0 1.2v-.1c-.1-.1-.2-.1-.2.1.1.2-.1.7.3.5-.2.5.2 1.2-.1 1.8.1 0 .1.1.2.2 0 .5-.2 1 0 1.3 0 .1-.2-.1-.2.1 0 .1.1 0 .2.2.2.8-.2 1.5-.1 2.2.2 1.2.1 2.5.1 3.7.3.4-.3.9.1 1.2-.1.1 0 .3-.2.3.2.3-.2.9.1 1.3v-.1c-.2.5.1.9-.1 1.3 0 0-.1-.1-.1-.2-.1.3.3.3 0 .3h.2v.2l2 .9c.6.6-.3.5.4.6 0 .1.1-.1.1 0 .3 0 .1.5.4.4 0-.2.2 0 .2-.2.3.4.3.6.7.6 0 0 0 .1-.1.1.3-.2.5.1.5-.3.1 0 .2.1.2.1 0-.1 0-.3-.1-.3v-.3c-.1-1-.1-1.9-.1-2.9l.1-7.1c.3-.6.3-.6.2-1.2 0 0 .1.1.1 0-.2 0 0-.4-.3-.5v-2.6c0 .2.2.2.2 0l-.2-.2h.1c0-.1-.2-.3-.2-.1-.2-2.3.3-4.6.2-6.8.1-.5 0-1.3 0-1.9.3-1.7.6-3.3.3-5 0 .5.6.7.8 1.5zm-.4-.9c0-.1-.1-.3.1-.3-.1.1-.1.2-.1.3zm-4.4-4s-.1-.1-.1-.2c.1 0 .2 0 .3.1-.2 0-.2.1-.2.1zm-1.9-1.1c-.1-.2.3 0 .6.1-.2-.1-.4-.1-.6-.1z"/><path d="M30 31.8c-.1.1-.1 0-.1-.3.1 0 .1.2.1.3zm.3.5c0 .2-.1.2-.1.2.1.1-.1-.5.1-.2zm-.3 4.1c0 .1.1.2 0 .3.1-.1-.2-.4 0-.3zm.2 1.3s-.1 0 0 0c0 .2-.1.1-.1 0h.1zm.5 23.4l-.1-.2.1.1zm7.7 7.9c.1 0 .2.2.3.3-.2-.1-.1-.2-.3-.3zm.1-6.1v.1l-.2-.1z"/></g><path d="M38.1 28.9L31.4 25v7.8l6.7 3.9z" fill="#a1afb7"/><g class="R"><path d="M37.8 29.2c.2 0 .1-.2 0 0 .1 0 0 .1 0 0zm0 .1c.5.4 0 .9.3 1.3 0 0-.3 0-.2.1.4.4.2 1-.2 1.5h-.1c-.1.1.2.2.2.3h-.2c.2 0 .1.2.2.2-.1 0-.2 0-.3.1l.2.1c.5.2 0 .4.2.6h-.1c.3.3.2.7.3 1.2-.1 0-.2-.1-.3-.1.2.1.3.2.3.3-.2-.1.2.3.1.4.2.3-.1.1.2.3l-.2-.1c.3.3-.2 0 0 .2l.1.1c.1.2-.1 0 0 .2.1.3-.1.2.2.4-.2-.2-.1-.3-.4-.5.2.5.2.9.2 1.3l-.5-.3c-.1-.2-.2-.3-.3-.4 0 0-.1 0-.1.1l-.1-.2c-.1-.2 0 .3-.1.1 0-.1 0-.2-.1-.3 0 .2-.1.1-.2.2v-.2c0 .2-.2-.2-.2 0V36c-.2-.3 0 .3-.1.1v-.2c-.1.2-.3 0-.4 0v-.1c-.1 0-.3-.2-.4-.2 0-.1.2-.3 0-.3-.1.3-.3 0-.3.3-.1-.1-.2-.3-.3-.3.1-.1.1-.3.2-.3v-.2c.1-.1 0 .1.1-.1 0 0-.2 0-.3-.1-.2.1-.4.3-.5.3.1-.1.1-.3.2-.3l-.4.3s.1-.2 0-.2c0 .1-.1.1-.1.1s-.2 0-.1-.3c0-.1.1 0 .1-.1h-.2c0-.1-.2 0-.2.2 0 0 .1-.2.1 0-.1.1-.2.1-.3.1 0 0 .1-.1.1-.2-.2.1-.4.1-.5.1-.1.1.2-.2.2-.1-.1-.3-.4 0-.4-.3 0 0-.1.2-.1.1-.1-.1 0-.2-.1-.2 0-.1-.1 0-.2 0-.1.1 0-.1.1 0-.1 0-.5 0-.5-.2 0 .1-.2.2-.3.2l.1-.1c0-.1-.1-.1-.1-.2-.2.1.4 0 .2.1 0-.1-.3.2-.2 0-.1 0-.3.1-.2-.1 0 0 .2-.2.1-.2h-.3c-.1.1-.1-.1-.2.1.1-.1-.3-.1-.1-.3l.2-.2a.76.76 0 0 0-.4.2s0-.1.1-.1c-.3.2-.1-.1-.4 0 0-.1-.1-.1-.2-.2 0-.1 0-.2.1-.3-.1-.1-.2-.2-.1-.3 0 0 0 .1.1 0s0-.1 0-.2l.3-.3c-.1-.1-.3 0-.4 0 .3-.2-.2-.4.1-.4l.2.1c.3-.1-.2-.2-.1-.3h-.3c.2-.1-.2-.2.1-.2-.1 0 .1-.1-.2-.1.2-.2-.1-.5.3-.6 0 0 0-.1-.1-.1s.1.1 0 .1h-.1c.1-.1.1-.1.3-.1.2-.1-.4-.1-.3-.3.1 0 .1 0 .1-.1l-.3-.2c0-.1.3-.1.4-.1 0-.1 0-.1-.2-.2l.2-.1c-.2.1-.1 0-.2-.1.1 0 0-.1 0-.1-.1 0-.2.1-.2.1-.1 0-.1-.1-.2-.1.2 0 .1-.1.1-.1 0-.1-.2-.1-.2-.1.1 0 0-.1.1 0 0 0-.1 0 0 .1.1 0 .2 0 .1-.1s-.4 0-.2-.1c0 0 .1 0 .2.1l.1-.1h-.1c-.2 0-.1-.2-.3-.2 0-.1.1-.1.1-.2.1-.1 0-.1-.1-.2 0 0 0-.1-.1-.1.1-.1.6 0 .4-.1 0-.1-.3-.1-.4-.1.1-.2-.2-.3.1-.5-.1 0-.1 0-.1-.1.1-.3-.2-.9.1-1 .1.1.2.1.3.1-.1-.1.1 0-.1-.2-.1-.1-.2-.1-.3 0-.1-.3-.1-.6.1-.6-.1 0-.1-.1-.2-.1.2.2.3.1.2-.1l-.1-.1h.1c0-.1-.3-.3-.2-.3s.1.1.1.1c-.1-.2-.3-.6-.2-.6l.2.1c0-.1-.1-.3-.2-.3.1-.1.1-.2.3 0a3.73 3.73 0 0 1-.4-1.6c.2.1.3.2.5.3l.1.2c.2.2-.1-.3 0-.1 0 .1.3.4.3.5.2.3.1-.2.1-.2-.1-.2 0 .1-.1-.2 0-.1.3.3.2 0 .1.1.1.4.2.5v-.1c.2.4 0 .5.3 1 .2.4 0 .3.2.5 0-.1-.1-.5-.2-.7.1 0-.2-.7 0-.5.1.2-.2-.1 0 .2s.1 0 .3.1c-.1-.2-.1-.4-.1-.4.1.2 0 .2.2.4 0-.1.1-.2 0-.4 0-.3.2.2.2 0 .1.3-.1.5.1.7-.1-.3.2-.2 0-.6.1.1.1.3.1.4.1.2.2-.3.3.2v-.2c0 .1.1.2.1.3.1 0 .3-.1.3.2 0 0 .2.1.2-.1-.1-.2-.2.1-.2-.3.1.3.2.1.3 0v.1c.1 0 .2.1.2 0-.1 0-.1.1 0 .2l.1-.1c.2 0 0 .3.2.4l-.2.1s0 .2.1.2c.1-.1.2-.3.3-.4.1 0 0 .2.2.1l-.2.1s0 .3.1.4c.1 0 .3-.2.2-.3v.2c.1 0 .1-.1.2-.2v.5l-.2.2c-.2.1 0 .2-.2.3h.2c.1-.4.3-.4.5-.6.2 0-.3.7.1.4 0-.1.2-.3.1-.2.1.1.2-.3.3-.1-.2.1-.1.3-.3.4.1-.1 0-.1-.1-.1 0 .1-.2.3-.1.3s.2 0 .2-.1c.1-.2-.1 0 0-.2.2 0 0 .3.2 0-.1 0 0-.2.1-.3h.1l-.1.1c.1.1.2-.2.3-.1l-.1.3c-.1.2-.1-.2-.3.1.1.1.2-.1.2 0H35s-.2.4.1.3l.2-.2h.3c-.2.2.1.1-.1.3 0-.1-.2-.3-.3-.1-.1.3-.1-.1-.3.1.1.1 0 .3-.1.5h.1c.1-.1.1-.2.2-.3.1.1.3.1.4 0 0 .1-.1.3-.2.2.2 0 .3.1.4.3.1-.3.2 0 .3-.2 0-.1 0-.3.1-.4 0 0-.1.1-.1.2.1-.1 0 .3.1.1-.2 0-.2.3-.3.5.2-.1-.1.1 0 .2.2-.1.3-.1.4-.1 0 .3.3.2.4.3 0 .1-.2.3-.1.4.1 0 .1-.3.1-.1.1 0 .1.3.3 0l-.2.2h.1c0 .1-.1.2-.1.2 0 .2.2.1.2.1v-.2c.2 0 .2.1.3.2l-.1.1h.1c-.1.1-.1.3 0 .2h.2c0-.1.2-.1.2-.3 0-.1-.1-.2-.2 0h.1c-.1.2-.2.2-.3.3 0 0 0 .1.1 0-.1.1-.2.1-.2 0 .1 0 0-.1.1-.2-.1.2-.2.2-.3.1 0-.2-.3 0-.3-.1.2-.1.3-.3.4-.3 0-.1-.1 0-.1-.2-.1.1-.3.3-.4.3l.1-.1c-.1 0-.2.2-.3.1-.1-.2-.3-.3-.4-.4l.1-.1c-.2.2-.3 0-.5 0-.2-.1-.5 0-.5-.3-.3-.1-.7-.1-1-.4l.2-.2c-.1.1 0-.1 0-.1 0 .2-.2.1-.3.3-.1-.2-.3-.2-.5-.1l.1-.1c-.1.1-.2.1-.3 0 0 0 0-.1-.1-.2v-.2c-.1.2-.1.2-.2.3 0 0-.1-.1-.2-.3-.1.3-.3 0-.3.2l-.1-.3v.2c0 .1-.1.1 0 .3l-.3-.4c-.1-.1.1.2.3.5-.1-.1.2.2-.1 0-.1 0 .1.2.2.2-.1 0-.1 0 0 .1-.1 0-.2-.1-.2-.1.1.1-.1.1.3.2-.2 0 .2.1-.1.2.1 0 .1 0 .2.1 0 .2-.2.4 0 .5h-.2s.1 0 .2.1c.2.3-.2.6-.1.9.2.5.1 1 .1 1.5h-.1c.3.2-.3.4.1.5-.1 0 0 .1-.2.1.2.1-.2.4.1.5-.2.1.1.1-.1.2h-.1c-.1.1.3 0 0 .1l.2-.1v.1s.1.1.2 0c.1 0 .1-.1.3 0 .2.3-.3.5.1.4 0 .1.1-.1 0 0 .1 0-.1.4.1.3.1-.2.1-.1.2-.2.1.2 0 .4.3.3l-.1.1c.3-.2.4.1.7-.2l1.3.6.7.3.3.1c0 .1 0 0 .1.1l.1.1c.3.4.3.3.2.2 0 .1.1.1.1.1-.2-.3 0-.1-.3-.3v-.1l.2.1-.2-.1h.1l-.2-.1c-.1.2 0-.5 0-.9.1-.5.2-.9.2-1.4.1-.2 0-.5 0-.8.3-.7.6-1.3.3-2-.1-.1.5 0 .6.3z"/><path d="M37.7 29.1c0-.1 0-.2.1-.3 0 .1 0 .3-.1.3zM36.5 27c0-.1.1-.1 0 0 0-.1 0 0 0 0zm-.5-.3c.1-.1.2-.1.3-.1l-.3.1zm-.2-.7c0-.1 0-.1.1-.1 0 .1-.1.1-.1.1zm-.1.2v-.1c-.1.1.1 0 0 .1zm-.8-.8c-.1 0-.2.1 0 0-.1 0 .1-.1 0 0zm-.6-.1s0-.1 0 0c-.1-.1 0-.2 0-.1v.1zm-3.7 6.3l-.1-.1.1.1zm2.9 3.3c.1 0 0 .1 0 .1s.1 0 0-.1zm2.2.7l.1-.2z"/></g><path d="M44.9 25l-6.7-3.9-6.8 3.9 6.7 3.9z" fill="#d3e7f1"/><g class="R"><path d="M44.6 25.3c.2 0 .1-.2 0 0 .1 0 0 .1 0 0zm-.2-.4c0 .7-.7.4-.9.9 0 0-.2-.3-.2-.1-.1.6-.8.7-1.4.6v-.1c-.1 0-.1.3-.2.3 0 0 0-.1-.1-.1.1.2-.1.2-.1.3-.1 0-.1-.2-.2-.2v.2c.1.5-.3.2-.4.5v-.1c-.2.4-.5.6-.8.9 0-.1-.1-.2-.1-.2.1.2 0 .3-.1.4-.2-.2-.1.3-.2.2 0 .2-.2 0-.1.2l-.1-.1c.1.3-.2-.1-.2.1v.1c0 .1-.1 0-.2.1s-.3 0-.1.3c-.1-.1.1-.1-.1-.3-.2.3-.5.5-.8.7l-.5-.3v-.3h-.3v-.1c0-.1-.2.2-.3 0 .1 0 .1-.1.2-.2-.2.1-.3 0-.4 0 0 0 .1 0 .1-.1-.2.1-.2-.1-.3-.1l.1-.1c0-.2-.2.2-.3.1l.1-.1c-.2.1-.4 0-.5 0s-.2-.2-.4-.2c0-.1.2-.3 0-.3-.1.2-.3 0-.3.3-.1-.1-.2-.3-.3-.3.1-.1.1-.3.2-.3v-.2c.1-.1 0 .1.1-.1 0 0-.2 0-.3-.1-.2.1-.4.3-.5.3.1-.1.1-.3.2-.3l-.4.4s.1-.2 0-.2c0 .1-.1.1-.1.1s-.2 0-.1-.3c0-.1.1 0 .1-.1H34c0-.1-.2 0-.2.2 0 0 .1-.1.1 0-.1.1-.2.1-.3.1l.1-.1c-.2-.2-.3-.2-.5-.2-.1.1.2-.2.2-.1-.1-.3-.6-.1-.6-.4l-.1.1c-.1-.1.1-.2-.1-.2.1-.1-.1 0-.2 0s0 0 .1 0c-.2 0-.8-.2-.8-.4h-.5l.3-.1c.1-.1-.2-.1 0-.2-.4 0 .7.2.3.2.1-.1-.6 0-.2-.1-.1-.1-.5-.1-.4-.2 0 0 .4 0 .3-.1-.2-.1-.2 0-.4-.1h-.2c-.3 0-.1-.1-.3 0 .2 0-.4-.1.1-.2h.4-.6c-.6 0-.1-.1-.7-.1 0 0 0-.1-.1-.1.1 0 .2-.1.5-.1-.1-.1-.2-.1.1-.2l.1.1c.3 0 .1-.1.1-.1.1 0 .5-.1.7-.1-.1-.1-.4-.1-.5-.1.6 0 0-.3.6-.2 0 0 .1.1.3.1.5.1-.1-.2.2-.2l-.5-.2c.3 0 .1-.2.4-.1-.1-.1.3-.1 0-.2.5 0 .6-.5 1.1-.3 0 0 .1-.1 0-.2-.2-.1 0 .1-.1.1v-.1c.1 0 .2 0 .3.2.3 0-.1-.4.2-.5 0 .1.1.1.2.1v-.2c.1 0 .2.2.3.3 0-.1.1-.1.1-.2l.2.2c-.1-.1 0-.1 0-.2v.1c0 .1.1 0 .1-.1-.1-.1-.2-.1-.2-.1v-.2c.1.2.2.1.2 0 .1 0 0-.2 0-.2 0 .1.1 0 .1.1 0 0-.1-.1-.1 0 .1 0 .2.2.2 0 0-.1-.2-.3 0-.3v.2h.1l-.1-.1v.1c-.1-.2.1-.1 0-.3h.2c.1.1.2 0 .1-.2 0 0 .1-.1.1-.2.1.1.3.5.3.3.1 0 0-.3-.1-.4.2 0 .2-.3.5-.1v-.1c.2-.1.3-.4.6-.2 0 .1.1.1.1.2 0-.1.1.1 0-.1-.1-.1-.1-.2-.2-.2a.76.76 0 0 1 .4-.2c-.1 0-.1-.1-.1-.1.1.2.2.2.2.1l-.1-.1.1.1c0-.1-.1-.3 0-.2l.1.1c0-.1 0-.4.1-.3.1 0 .1.1.2.1 0 0 .1-.2-.1-.2.3 0 .4-.1.5.1.1-.4.4-.7.8-.9.2.1.3.2.5.3v.1c.1.2.1-.2.2 0-.1.1 0 .3-.1.4.1.2.2-.1.4-.1.1-.1-.1 0 0-.1 0 0 .2.2.3.1 0 .1-.1.2-.2.3h.2c0 .3-.4.3-.4.6h.1c0 .2-.3.1-.2.3.1-.1.3-.3.3-.4.2 0 .3-.4.5-.3 0 .1-.1 0-.2.1 0 .2.2 0 .2.1 0-.1.1-.3.2-.3 0 .1-.2.1-.1.2.1-.1.2-.1.2-.3.2-.2.1.1.2 0-.1.2-.3.3-.3.5.1-.2.3-.1.3-.4 0 .1-.1.2-.2.3 0 .1.3-.2.2.1l.1-.2v.2s.3-.1.2.1c0 0 .2.1.2-.1 0-.1-.2.1-.1-.2-.1.2.1 0 .2 0v.1s.1 0 .2-.1c-.1 0-.1.1-.1.1l.1-.1c.2 0-.1.3 0 .3l-.2.1s0 .1.1.1c.1-.1.2-.3.3-.4.1 0-.1.2.1.1l-.2.2s-.1.3 0 .3.3-.2.2-.3v.2c.1 0 .1-.1.2-.2v.5l-.2.2c-.2.1 0 .2-.2.3h.2c.1-.4.3-.4.5-.6.2 0-.3.7.1.4 0-.1.2-.3.1-.2.1.1.2-.3.3-.1-.2.1-.1.3-.3.4.1-.1 0-.1-.1-.1 0 .1-.2.3-.1.3s.2 0 .2-.1c.1-.2-.1 0 0-.2.2 0 0 .3.2 0-.1 0 0-.2.1-.3h.1l-.1.1c.1.1.2-.2.3-.1l-.1.3c-.1.2-.1-.2-.3.1.1.1.2-.1.2 0h-.1s-.2.4.1.3l.2-.2h.3c-.2.2.1.1-.1.3 0-.1-.2-.3-.3-.1-.1.3-.1-.1-.3.1.1.1 0 .3-.1.5h.1c.1-.1.1-.2.2-.3.1.1.3.1.4 0 0 .1-.1.3-.2.2.2 0 .3.1.4.3.1-.3.2 0 .3-.2 0-.1 0-.3.1-.4 0 0-.1.1-.1.2.1-.1 0 .3.1.1-.2 0-.2.3-.3.5.2-.1-.1.1 0 .2.2-.1.3-.1.4-.1 0 .3.3.2.4.3 0 .1-.2.3-.1.4.1 0 .1-.3.1-.1.1 0 .1.3.3 0l-.1.1h.1c0 .1-.1.2-.1.2 0 .2.2.1.2.1v-.2c.2 0 .2.1.3.2l-.1.1h.1c-.1.1-.1.3 0 .2l-.2.1c0-.1.2-.1.2-.3 0-.1-.1-.2-.2 0h.1c-.1.2-.2.2-.3.3 0 0 0 .1.1 0H44c.1 0 0-.1.1-.2-.1.2-.2.2-.3.1 0-.2-.3 0-.3-.1.2-.1.3-.3.4-.3 0-.1-.1 0-.1-.2-.1.1-.3.3-.4.3l.1-.1c-.1 0-.2.2-.3.1-.1-.2-.3-.3-.4-.4l.1-.1c-.2.2-.3 0-.5 0-.1-.2-.4-.1-.4-.4-.3-.1-.7-.1-1-.4l.2-.2c-.1.1 0-.1 0-.1 0 .2-.2.1-.3.3-.1-.2-.3-.2-.5-.1l.1-.1c-.3.2-.3-.1-.4-.3 0-.1.1-.2 0-.2-.2.2-.2.1-.4.2l-.3-.3c-.5.1-.9-.4-1-.2v-.2c-.1.1-.2.1-.2.1-.1 0-.2 0-.2.2l-.1-.3c-.1-.1-.1.1 0 .3-.1-.1-.1.3-.3.1-.1 0 0 .2-.1.3-.3 0-.3.1-.4.2h.1c0-.1-.1-.2-.1-.2 0 .1-.3.1 0 .3-.3-.1-.3.4-.7.3.1.1 0 .1 0 .2-.2.1-.4 0-.5.3 0 0 0-.2-.1-.1 0 .1.1.1 0 .2-.2.3-.6.1-.8.3s-.4.4-.6.5c-.1 0-.1 0-.2.1h-.1c.3.2-.4-.1 0 .1-.1 0-.1 0-.2-.1.2.1-.3 0 0 .1-.3 0 0 .1-.3.1h-.2c-.3 0 .5.1-.2 0h.1c.1.1.5.1.6.1-.2.1-.8.2-.3.2-.1 0 .2-.1.1 0 .2 0-.4.2-.2.1s.2 0 .3-.1c-.1.1-.2.3 0 .2l-.1.1c.3-.2.3 0 .5-.3l1.2.5c.5.2.9.4 1.3.6l1 .6.2.1v.1c.1.3.1.3.2.1v.1c-.1-.2.2-.1 0-.3.3-.1.6-.4.9-.5 0 .1 0 .2.1.2v-.1c0-.1 0-.2-.1-.2.7-.6 1.7-.7 2.5-1.2.2 0 .5-.3.6-.4.8-.1 1.4-.2 1.9-.7.4-.2.6.4.4.6z"/><path d="M44.5 25.2c0-.1 0-.2.1-.3 0 .1 0 .2-.1.3zm-1.2-2.1s0-.1 0 0c0-.1.1-.2 0 0 0-.1 0-.1 0 0zm-.5-.4c.1-.1.2-.1.3-.1l-.3.1zm-.2-.6c0-.1 0-.1.1-.1 0 .1 0 .1-.1.1zm-.1.2v-.1c-.1 0 .1 0 0 .1zm-.8-.8c-.1 0-.2 0 0 0-.2 0 .1-.2 0 0zm-.6-.1c0-.1 0-.1 0 0v-.1.1zm-9.8 2.7V24l.1.1zm2.2 3c.1 0 0 .1 0 .1-.1 0 .1-.1 0-.1zm2.2.7l.1-.2z"/></g><path d="M38.1 28.9l.1 39.1 6.8-4-.1-39-6.8 3.9z" fill="#b1c5d2"/><g class="R"><path d="M38.5 29.1c0-.4-.2.2-.1-.2.1 0 .2.1.1.2zm.7-.5c.7-1 2.2-1.3 3.1-2.2.1-.1.1.3.3.1.4-.5 1.5-1.2 2.2-1.5l-.3 2h-.1c-.1.2.2.4.2.7-.1 0-.1-.1-.2 0 .2 0 .1.5.2.6-.1.1-.2.1-.3.3l.2.2c.5.5 0 1.1.2 1.8 0 0-.1-.1-.1 0 .3 1 .2 2.3.3 3.4-.1 0-.2-.1-.3 0 .2.1.3.4.3.7-.2.1.2.5.1.9.2.3-.1.4.2.6l-.2.2c.3.1-.2.4 0 .6h.1c.1.2-.1.3 0 .5.1.4-.1.7.2.7-.2.2-.1-.4-.3-.2.3 1.5.2 3 .2 4.4-.1.2-.1.3-.2.3 0 .2 0 .5.2.7 0 0-.1.1-.1.2-.1.3.3.3.2.6-.1-.1-.1-.2-.2-.1.2.3.2.6.2.9l-.1-.1c.2.3 0 .6.1.9l-.3-.5c-.2.5.3.1.2.5 0-.1-.1-.1-.2-.1.3.4.2 1 .3 1.3h-.1c0 .4 0 .8.1 1.3-.1.2-.3-.1-.3.4.3 0 .1.7.4.5 0 .4-.2.9 0 1.2-.1-.2-.3.2-.3-.1l-.2.2c-.1 0 0-.2-.1-.2 0 .2.1.6.1.7.2.3.5.5.5 1-.1-.2-.3.1-.3 0l.5.6c0 .2-.2 0-.2.3.1 0 .1.1.2.2 0 .1.1.6-.2.7-.1.1-.1-.3-.2-.1 0 .3.1.3.1.6 0 .2.1.5.3.3 0-.1-.2 0-.1-.2.2.1.2.5.2.7 0-.1-.1-.1-.2-.1.2.4.3.8.4 1.2.1 0-.2-.2-.2-.2-.2.5.3 1.1 0 1.5 0-.1.2 0 .2 0 0 .3-.2.3-.1.4-.1 0 0 .2.1.4.1.1-.1 0-.1-.1.1.2.3 1.2.1 1.8.1 0 .3.3.3.5H46c-.1.1 0 .4-.1.5.2.3-.2-1 0-.7-.2.1.3.5 0 .4 0 .3.2.5 0 .7 0-.1-.2-.2-.2 0 0 .4.1.1.1.4l.1.2c.2 0 0 .3.2.2-.1 0 .1.5-.2.5h-.2c0 .2.2.3.3.4l-.1.1c.2 0 .2.1.2.2 0 .2 0 .4.1.5-.1.3-.1.6-.1.8-.3.2-.5.3-.7.2-.2.3-.5.6-.8.6 0-.1.1-.1.1-.2-.2 0-.2.1-.3.2 0-.1-.4 0-.6 0-.2.2 0 .3 0 .4-.4-.2-.5.5-.9.4.1-.1.3-.3 0-.3-.4-.2-.3.4-.7.5l.2.2c-.2-.1-.4.4-.5.2-.1.2-.4.2-.3.3-.2 0-.3.1-.5.2s-.5.3-.7.4c-.5.3-.9.5-1 .3-.1.1-.4.2-.4.4.1.1.3-.3.3-.2l-.2.2c-.2.1-.4.2-.1-.3-.4 0-.8 1-1.5 1.2.1-.1.1-.2.1-.2v-.3c-.1 0-.1-.1-.2-.2 0-.6.3-.6.4-.9 0-.2 0-.5-.2-.5l.2-.5c-.2.4-.1-.1-.2-.2v.1c.1-.1 0-.3 0-.5-.1.1-.2.4-.2.6-.1-.1-.1-.3-.2-.4.2 0 .1-.5.2-.7 0-.3-.2-.3-.2-.3.1 0 0-.4.2-.2 0 .1-.1.2 0 .3.1-.2.2-.2.1-.4s-.3 0-.2-.3c0 .1.1.1.2.2l.1-.3h-.1c-.2-.1-.1-.5-.3-.5 0-.2.1-.3.1-.5.1-.2 0-.4-.1-.6 0-.1 0-.3-.1-.5.1-.3.6-.1.4-.4 0-.3-.3-.4-.4-.3.1-.5-.2-1 .1-1.4-.1-.1-.1 0-.2-.2.1-.7-.2-1.4.1-2 .1.2.2 0 .3 0-.2-.2.2-.2-.1-.3-.2 0-.2 0-.3.2-.1-.4-.1-1 .1-1.2-.1.1-.1 0-.2-.1.2 0 .3-.3.2-.5h-.2l.2-.2c0-.1-.3-.1-.2-.3.1 0 .1 0 .2-.1-.1-.2-.3-.5-.2-.8l.2-.2c0-.1-.2-.3-.2-.1.1-.4.2-.7.3-.8-.4-.7-.5-1.8-.4-2.7h.1c.1-.2-.2-.1-.1-.3.1.1.2-.2.3 0 .1-.3-.2-.4-.2-.6-.2 0 .1.2-.1.1 0 0 .1-.5-.1-.5.1-.1.2 0 .3 0l.1.1c.3-.3.4.6.7.3v-.2c.2-.2.3.5.3 0-.1-.1-.4-.3-.5-.1-.1-.4-.5-.2-.5-.7.1-.1 0 .4.2.3.2-.2-.1-.4 0-.6-.1.2-.3 0-.3-.1.1-.2.2.2.2-.2-.1-.1-.2-.3-.3-.1-.3-.1.1-.3-.2-.5.2-.1.5.3.5 0-.2.1-.3-.4-.5-.3.1-.2.2-.2.3-.1.1-.2-.3-.5 0-.5l-.2-.1c.1-.1.1-.2.2-.3 0-.2-.3-.6 0-.5 0-.1 0-.5-.2-.3-.1.3.2.3-.1.4.2-.2 0-.4-.1-.5h.1c0-.1 0-.3-.2-.3.1.1.2 0 .2 0l-.2-.1c-.1-.3.3-.1.3-.4l.1.3c0-.1.1-.2.1-.3-.2-.1-.3-.2-.5-.2-.1-.2.2-.1 0-.3l.2.3c.1 0 .3-.2.3-.4-.1-.2-.3-.4-.4-.2 0-.1.1-.3.2-.2-.1-.3-.2 0-.3-.2.1-.1.3-.4.4-.6l.3.3v-.2c.2.2.2-.1.4 0 0-.1 0-.3-.1-.4-.3.3-.5-.4-.8-.3-.1-.5.8-.3.3-.8-.1.1-.3-.2-.2.2 0-.3-.3-.2-.2-.5.1.3.3-.3.5.1-.1 0-.1.2 0 .3.1-.1.3 0 .3-.3 0-.2 0-.4-.2-.4s0 .3-.2.2c-.1-.4.2-.4-.1-.6 0 .2-.2.3-.3.3l-.1-.3.1.1c.1-.4-.2-.1-.2-.5l.3-.2c.2.1-.1.6.3.5 0-.3-.2-.4-.1-.6 0 .1 0 .1.1.2 0-.1.5-.2.2-.6-.1-.2-.1-.1-.3-.1 0-.4-.2-.6-.2-.9.3.1 0-.5.3-.2-.2.2-.1.8.1 1 .3-.2 0 .3.3.4 0-.3.3-.3.5-.4 0-.1-.1-.2-.1-.3-.2 0-.2.1-.4.1 0-.4-.1-.8-.2-1 .1-.1.3-.1.3.1-.1-.5 0-1 0-1.4-.3.3-.1-.5-.3-.3-.1.3-.3.5-.4.3 0-.2.1 0 .2-.1-.2-.2.3-.3 0-.5.1.4.3.1.6.2-.1-.3.2 0 .2-.3l-.3-1c.2-.4 0-1.1 0-1.5.1-.2.4-.1.4-.3 0-.3-.3.2-.2-.2h.1c-.1-.1.2-.7-.2-.8l.3.1c0-.1 0-.1-.1-.2.1 0 .2-.1.2 0 .2-.2 0-.5 0-.7l-.2.2c-.1-.4 0-.7 0-1.1h.2l-.1-.3c.2.1.3-.2.1-.3l.4.7c-.1.2-.2-.2-.3-.1-.2.1-.1.5.1.5 0-.1 0-.2-.1-.3.2 0 .2.2.4.3 0-.1.1-.2 0-.2.1.2.1.3.1.6-.1-.2-.2.1-.2 0 .2 0 .3.3.2.6-.2.2.2.6.1 1-.2-.2-.4-.3-.4-.6-.1.2 0 .3-.1.5.2.1.4.2.5.5h-.2c.1.3.3.3.3.6-.1.6-.1 1.2-.1 1.7h-.1c.3.3.1.8.3 1.2-.2.6.2 1.3-.1 1.6l.2 3-.2-.2c.2.2-.1.1-.1.3.2-.2.2.3.3.4-.2.5 0 1.1.2 1.5H39c.3.4 0 .9 0 1.5-.1.1-.2.2-.2.3.2.3.2.4.4.9 0 .3-.1.8-.2 1.1.3 1.2.1 2.3.3 3.5l-.3-.4c.4 1.2 0 2.6.2 3.6l-.3-.1c-.1.3.1.7.3.6-.1.3.2.8-.1 1-.1.3.1.4.2.7-.1.6-.1.9 0 1.5v-.2c-.1-.1-.2-.1-.2.1.1.2-.1.8.3.6-.2.6.2 1.5-.1 2.1.1-.1.1.1.2.2 0 .6-.2 1.2 0 1.6 0 .1-.2-.2-.2.1 0 .1.1 0 .2.2.2.9-.2 1.9-.1 2.6.1.3.1.4.1.6.1-.1.2-.1.3-.2v.1c0-.2.1-.1.2-.1 0 0 .1 0 .3-.1.1-.1.2-.2.2-.3.1 0 .4-.2.4 0 .2-.3 1-.4 1.4-.9 0 0-.1 0-.1.1.5-.2.9-.6 1.4-.7 0 .1-.1.1-.1.2.1 0 .2-.1.3-.2s0-.1.2 0c0 0-.1-.2-.1-.1.1 0 .2 0 .2-.1v-.3c0-.3 0-.5-.1-.8 0-.5-.1-1.1-.2-1.7.2-1 .6-.1.3-.8.1-.1-.1 0-.1-.1-.1-.3.4-.5.2-.7-.2.1-.1-.1-.3-.2.1-.6.3-.7.2-1.2h.1c-.3-.5-.2-1.2-.5-1.6l-.3-8.7.1-8.5c.3-.7.3-.7.2-1.5 0 0 .1.1.1 0-.2 0 0-.5-.3-.6v-3.2c0 .2.2.3.2.1l-.2-.2h.1c0-.2-.2-.3-.2-.2-.1-1.4 0-2.8 0-4.1l.1-1v-.8c0-.1.1-.2 0-.3v-.1c-.1 0-.2.2-.3.3 0 0-.1 0-.1-.1 0 0-.1 0-.3.1l-.3.1-1.4.6c-.9.4-1.8.9-2.6 1.5.1.1 0-.6.7-1.1z"/><path d="M38.5 29.5c-.1.1-.2.3-.3.1.1 0 .2-.1.3-.1zM37.3 36s0 .1-.1.1c0-.1-.1-.2 0-.2 0 0 .1 0 .1.1zm0 1.6c-.1 0-.2-.4-.2-.6l.2.6zm-.5 1.5c-.1.1-.2.1-.1-.1 0 .1.1.1.1.1zm.3.1c0 .1-.1.2-.1.3 0 0-.1-.3.1-.3zm-.3 3.4c0 .1.1.3 0 .3 0-.1-.2-.4 0-.3zm.1 1.5v.1c0 .1-.1 0-.1-.1h.1zm5.4 22.4l-.1.1v-.1zm3.5-11.3c-.1-.2.1-.1.1-.2 0 .2-.1 0-.1.2zm-.6-6.6H45z"/></g><path d="M31.4 48.4l-6.8-3.9.1 23.5 6.7 3.9z" fill="#e96224"/><g class="R"><path d="M31 48.7c.2.1 0-.2.2 0-.1.1-.2.1-.2 0z"/><path d="M31.1 49.2c.5.7 0 1.7.4 2.5 0 .1-.3 0-.2.2.4.8.2 2-.1 3l-.2-.1c-.1.2.2.4.2.6-.1 0-.1-.1-.2 0 .2 0 .1.3.2.4-.1.1-.2.1-.3.2l.2.1c.5.3 0 .7.2 1.2 0 0-.1-.1-.1 0 .3.7.2 1.5.3 2.3-.1 0-.2-.1-.3 0 .2 0 .3.3.3.5-.2.1.2.3.1.6.2.2-.1.3.1.4l-.2.1c.3.1-.2.3 0 .4h.1c.1.1-.1.2 0 .3.1.3-.1.5.1.5-.2.1-.1-.3-.4-.1.3 1 .2 2 .2 2.9-.1.1-.1.2-.2.2 0 .1 0 .4.2.4l-.1.1c-.1.2.3.2.1.4-.1-.1-.1-.1-.2-.1.2.2.2.4.2.6l-.1-.1c.2.2 0 .4.1.6l-.1-.1c-.2.3.3.1.2.3 0-.1-.1 0-.1-.1.3.3.2.6.3.9h-.1c0 .3 0 .5.1.8-.1.1-.3-.1-.3.2.3 0 .1.5.4.5 0 .3-.1.7-.1.9-.1-.2-.3-.2-.4-.4h-.2c-.1-.1 0-.1-.1-.2 0 .1.1.4.1.5.2.3.5 1 .5 1.4-.1-.3-.3-.4-.4-.6l.3.8v.3c-.1 0-.2-.4-.3-.3.1.1 0 .2 0 .2-.1-.1-.4-.2-.6-.6-.1-.2.1 0 0-.2-.2-.1-.1 0-.3-.1v-.1c-.1-.1-.3-.1-.2.2.1.1-.1-.2.1 0 0 .2-.3.1-.5-.1.1 0 .1-.1.1-.2-.3.1-.6 0-1-.2 0 .1.2-.2.2-.1-.4-.4-.9-.2-1-.6.1 0-.1.2-.1.1-.1-.1 0-.3-.2-.3 0-.1-.1 0-.3-.1-.1 0 0-.1.1 0a2.11 2.11 0 0 1-1.1-.5c0 .1-.3.1-.4.1l.1-.1c0-.1-.3-.1-.2-.3-.3.1.7.2.4.2 0-.2-.4.1-.3-.1-.1-.1-.4 0-.5-.2 0 0 .2-.1.1-.2-.2-.1-.1 0-.3 0h-.1c-.1.1-.2-.1-.2.1 0-.1-.4-.1-.2-.3l.1-.2c-.1 0-.3.1-.4.1v-.1c-.2.3-.3-.2-.6-.1-.1-.1-.3-.2-.4-.3 0-.2 0-.4.1-.5-.1-.2-.2-.4-.1-.7 0 .1 0 .1.1.2.1-.2 0-.3 0-.3s.2-.3.3-.4c-.1-.2-.3-.1-.4-.1.3-.2-.2-.5.1-.7 0 .1.2.3.2.1.3-.2-.2-.3-.1-.6l-.3.1c.2-.1-.2-.4.1-.3-.1-.1.1-.3-.2-.3.2-.4-.1-1 .3-1.2 0-.1 0-.2-.1-.2-.1.1.1.1 0 .2 0-.1-.1-.1-.1-.1.1-.1.1-.2.3-.1.2-.3-.4-.3-.3-.6.1 0 .1 0 .1-.1l-.2-.2c0-.2.3-.1.4-.2 0-.1 0-.3-.2-.3l.2-.2c-.2.1-.1-.1-.2-.2v.1c.1 0 0-.2 0-.2-.1 0-.2.2-.2.3-.1-.1-.1-.2-.2-.3.2 0 .1-.2.1-.3s-.2-.1-.2-.2c.1 0 0-.2.1-.1 0 0-.1.1 0 .2.8 0 1 0 .8-.1-.1-.1-.4 0-.2-.2 0 .1.1.1.2.1l.1-.2H24c-.2-.1-.1-.3-.3-.4 0-.1.1-.2.1-.3.1-.1 0-.3-.1-.4 0-.1 0-.2-.1-.3.1-.2.6-.1.4-.3 0-.2-.3-.3-.4-.2.1-.3-.2-.7.1-.9-.1 0-.1 0-.1-.1.1-.5-.2-1 .1-1.3.1.1.2 0 .3 0-.1-.1.1-.1-.1-.2-.1 0-.2 0-.3.1-.1-.3-.1-.7.1-.8-.1.1-.1 0-.2 0 .2 0 .3-.2.2-.3h-.1l.1-.1c0-.1-.3-.1-.2-.2h.1c-.1-.2-.3-.4-.2-.5l.2-.1c0-.1-.1-.2-.2-.1.1-.3.1-.5.3-.6-.4-.5-.5-1.2-.4-1.8h.1c.1-.2-.2-.1-.1-.2.1 0 .2-.1.4 0 .1-.2-.2-.3-.2-.4-.1 0 .1.1-.1.1 0 0 .1-.3-.1-.3.1-.1.2 0 .3 0l-.1-.1c.3-.2.4.4.7.2V51c.2-.1.3.3.3 0-.1-.1-.4-.3-.5-.1-.1-.3-.5-.1-.5-.4.1-.1 0 .3.2.2.2-.2-.1-.3 0-.4-.1.2-.3 0-.3-.1.1-.2.2.1.2-.1-.1 0-.2-.2-.3-.1-.3-.1.1-.2-.1-.3.2-.1.5.2.5 0-.2 0-.3-.3-.5-.2.1-.1.2-.1.3 0 .1-.1-.4-.3 0-.4h-.2c.1 0 .1-.1.2-.2 0-.1-.3-.4 0-.4 0 0 0-.3-.2-.2-.1.2.1.2-.1.3.2-.1 0-.3-.1-.3h.1c0-.1 0-.2-.1-.2h.2l-.2-.1c-.1-.2.3-.1.3-.3l.1.2s.1-.1.1-.2c-.2 0-.4-.2-.5-.3-.1-.3.2-.1 0-.3l.2.3c.1 0 .3-.2.3-.4-.1-.2-.3-.6-.4-.3 0-.2.1-.3.2-.2-.1-.4-.2 0-.3-.4.1-.1.3-.4.4-.5l.3.5v-.2c.2.4.2 0 .4.3 0-.1 0-.3-.1-.4-.4 0-.5-.8-.8-1.1-.1-.7.8.6.3-.6-.1 0-.3-.6-.2-.2 0-.3-.3-.7-.2-1 .1.5.3.2.5.9-.1-.2-.1.1 0 .2.1 0 .3.5.3.2 0-.2 0-.5-.2-.7-.2-.3 0 .3-.2-.1v-.3c.1.1.2.1.1-.1-.1 0-.2-.2-.3-.3-.1 0-.1-.2-.2-.3v-.1h.2l.1.2c.5.4-.1-.3.5 0l.4.5c0 .3-.7-.5-.4.1.3.2.2 0 .6.3h-.1c.1.1.5.8.7.6.1 0 0-.2-.1-.3.4.2.5.1.8.3 0 .3.5.3.2.5-.1-.3-.8-.6-.9-.4.3.5-.3-.3-.3.2.3.2.4.6.5.9.1.1.1 0 .1 0 0-.2-.1-.3-.2-.5.3.3.6.3.8.2.1.2.1.3 0 .3.4.2.8.4 1.1.7 0-.2.1-.2.2-.1.1 0 .2.1.2-.1-.1-.1-.3-.5 0-.5.1.1-.1.1 0 .2.2 0 .1.3.3.2-.3-.1-.2.3-.4.5.3 0-.1.1.1.2.3 0 .5 0 .7.1.1.3.6.4.9.5.1.2-.1.3 0 .5.1.1 0-.3.2-.1.1 0 .3.4.6.1l-.2.2h.1c0 .1 0 .2-.1.2 0 .3.3.2.5.2v-.2c.3 0 .4.3.7.4l-.1.1h.2c-.1.1 0 .3.1.2l-.6.1c-.1-.2.2-.1.2-.3s-.2-.3-.4-.1c.1.1.1 0 .2 0-.3-.2-.4-.3-.6-.2l.1.1c-.1 0-.3 0-.4-.1.1 0 0-.2.1-.2-.1.2-.3.1-.4 0 0-.3-.4-.1-.6-.3.2-.1.4-.2.5-.2-.1-.2-.1-.1-.2-.3-.1.1-.3.3-.5.3l.1-.1c-.2 0-.3.2-.5 0-.3-.3-.7-.5-.9-.6l.1-.1c-.3.2-.6-.2-.7-.1-.2-.3-.5-.1-.6-.5-.3-.1-.5-.1-.7-.2v.3l-.4-.5c.2.3-.1-.1-.1 0 .2.1.2.4.4.6-.2 0 0 .5.2.7l-.1-.1c.3.3 0 .3 0 .6-.1 0-.2.1-.2.2.2.2.2.3.4.6 0 .2-.1.5-.1.7.3.8.1 1.5.3 2.3l-.2.1c.4.8 0 1.7.2 2.4l-.3-.1c-.1.2.1.5.3.4-.1.2.1.5-.1.7-.1.2.1.3.2.4a1.7 1.7 0 0 0 0 1v-.1c-.1 0-.2 0-.2.1.1.2-.1.5.3.4-.2.4.2 1-.1 1.4.1 0 .1.1.2.1 0 .4-.2.8 0 1.1 0 .1-.2-.1-.2.1 0 .1.1 0 .2.1.2.6-.2 1.2-.1 1.8.2 1 .1 2 .1 3H26c.3.3-.3.7.1 1-.1.1 0 .3-.2.2.2.3-.2.7.1 1.1v-.1a.45.45 0 0 0 0 .5v.4h-.1c-.1.1.3.1 0 .2h.2v.2s.1.1.2.1.1 0 .3.1c.3.2.7.3 1 .4.4.5-.3.5.3.6 0 .1.1-.1.1 0 .2 0 .1.5.3.4.1-.2.1-.1.2-.2.3.3.2.5.6.5l-.1.1c.5-.1.8.3 1.1.1.2.1.3.1.4 0 0-.1-.1-.2-.1-.3v-.4l.1-5.7c.3-.5.3-.5.2-1 0 0 .1.1.1 0-.2 0 0-.3-.3-.4v-2.1c0 .1.2.2.2 0l-.7-.2h.1c0-.1-.2-.2-.2-.1-.2-1.8.3-3.7.2-5.5.1-.4 0-1 0-1.5.3-1.4.6-2.6.3-4-.1 0 .5.2.7.8z"/><path d="M30.8 48.6c0-.1-.1-.3.1-.3-.1.1 0 .2-.1.3zm-3.1-3.2s0-.1 0 0c0-.1.1-.1.1-.1s-.1 0-.1.1zm-1.3-.8c0-.1.4 0 .6.1l-.6-.1zm-1.6-1.5c-.2-.2-.2-.3 0-.2.1.2 0 .2 0 .2zm0 .3l-.3-.3c.1.1.3.1.3.3zm-1.6 1.2c0 .1.1.4 0 .4.1-.1-.2-.7 0-.4zm.2 1.9v.2c0 .1-.1 0-.1-.1l.1-.1zm.5 19.1l-.1-.1h.1zm5.8 6.2c.1 0 .1.2.1.2-.1-.1.1-.1-.1-.2zm2-2.3l-.2-.1z"/></g><path d="M31.3 40.6l-6.7-3.9v7.8l6.8 3.9z" fill="#742d41"/><g class="R"><path d="M31.1 40.9c.1 0 0-.2.1 0-.1.1-.1.1-.1 0z"/><path d="M31 41c.5.4 0 .9.4 1.3 0 0-.3 0-.2.1.4.4.2 1-.2 1.5h-.1c-.1.1.2.2.2.3h-.2c.2 0 .1.2.2.2-.1 0-.2 0-.3.1l.2.1c.5.2 0 .4.2.6h-.1c.3.3.2.7.3 1.2-.1 0-.2-.1-.3-.1.2.1.3.2.3.3-.2-.1.2.3.1.4.2.3-.1.1.1.3l-.2-.1c.3.3-.2 0 0 .2l.1.1c.1.2-.1 0 0 .2.1.3-.1.2.1.4-.2-.2-.1-.3-.4-.5.2.5.2.9.2 1.3l-.4-.4c-.1-.2-.2-.3-.3-.4 0 0-.1 0-.1.1l-.1-.2c-.1-.2 0 .3-.1.1 0-.1 0-.2-.1-.3 0 .2-.1.1-.2.2v-.2c0 .2-.2-.2-.2 0v-.2c-.1-.3 0 .3-.1.1v-.2c-.1.2-.3 0-.4 0v-.1c-.1 0-.3-.2-.4-.2 0-.1.1-.3 0-.3-.1.3-.3 0-.4.3-.1-.1-.2-.3-.3-.3.1-.1.1-.3.2-.3v-.2c.1-.1 0 .1.1-.1 0 0-.2 0-.3-.1-.2.1-.4.3-.5.3.1-.1.1-.3.2-.3l-.4.3s.1-.2 0-.2c0 .1-.1.1-.1.1s-.2 0-.1-.3c0-.1.1 0 .1-.1h-.2c0-.1-.2 0-.2.2 0 0 .1-.2.1 0-.1.1-.2.1-.3.1 0 0 .1-.1.1-.2-.2.1-.4.1-.5.1-.1.1.2-.2.1-.1-.1-.3-.4 0-.4-.3 0 0-.1.2-.1.1-.1-.1 0-.2-.1-.2 0-.1-.1 0-.1 0-.1.1 0-.1.1 0-.1 0-.5 0-.5-.2 0 .1-.2.2-.3.2l.1-.1c0-.1-.1-.1-.1-.2-.2.1.4 0 .2.1 0-.1-.3.2-.1 0-.1 0-.3.1-.2-.1 0 0 .2-.2.1-.2h-.3c-.1.1-.1-.1-.2.1.1-.1-.3-.1-.1-.3l.2-.2a.76.76 0 0 0-.4.2s0-.1.1-.1c-.3.2-.1-.1-.4 0 0-.1-.1-.1-.2-.2 0-.1 0-.2.1-.3-.1-.1-.2-.2-.1-.3 0 0 0 .1.1 0s0-.1 0-.2l.3-.3c-.1-.1-.3 0-.4 0 .3-.2-.2-.3.1-.4l.2.1c.3-.1-.2-.2-.1-.3h-.3c.2-.1-.2-.2.1-.2-.1 0 .1-.2-.2-.1.2-.2-.1-.5.3-.6 0 0 0-.1-.1-.1s.1.1 0 .1h-.1c.1-.1.1-.1.3-.1.2-.2-.4-.2-.3-.3.1 0 .1 0 .1-.1l-.2-.1c0-.1.3-.1.4-.1 0-.1 0-.1-.2-.2l.2-.1c-.2.1-.1 0-.2-.1.1 0 0-.1 0-.1-.1 0-.2.1-.2.1-.1 0-.1-.1-.2-.1.2 0 .1-.1.1-.2s-.2-.1-.2-.1c.1 0 0-.1.1 0 0 0-.1 0 0 .1.1 0 .2 0 .1-.1s-.4 0-.2-.1c0 0 .1 0 .2.1l.4.4h-.1c-.2 0-.1-.2-.3-.2 0-.1.1-.1.1-.2.1-.1 0-.2-.1-.2 0 0 0-.1-.1-.2.1-.1.6 0 .4-.1 0-.1-.3-.1-.4-.1.1-.2-.2-.3.1-.5-.1 0-.1 0-.1-.1.1-.3-.2-.9.1-1 .1.1.2.1.3.1-.1-.2.1 0-.1-.2-.1-.1-.2-.1-.3 0-.1-.3-.1-.6.1-.6-.1 0-.1-.1-.2-.2.2.2.3.1.2-.1l-.1-.2h.1c0-.1-.3-.3-.2-.3s.1.1.1.1c-.1-.2-.3-.6-.2-.6l.2.1c0-.1-.1-.3-.2-.3.1-.1.1-.2.3 0a3.73 3.73 0 0 1-.4-1.6c.2.1.3.2.5.3l.1.2c.2.2-.1-.3 0-.1 0 .2.3.4.3.5.2.3.1-.2.1-.2-.1-.2 0 .1-.1-.2 0-.1.3.3.2 0 .1.2.1.4.2.5v-.1c.2.4 0 .5.3 1 .2.4 0 .3.2.5 0-.1-.1-.5-.2-.7.1 0-.2-.7 0-.5.1.2-.2-.1 0 .2s.1 0 .3.1c-.1-.2-.1-.4-.1-.4.1.2 0 .2.2.3 0-.2.1-.2 0-.4 0-.3.2.2.2 0 .1.3-.1.5.1.7-.1-.3.2-.2 0-.6.1.1.1.3.1.4.1.2.2-.3.3.2v-.2c0 .1.1.2.1.3.1 0 .3-.1.3.2 0 0 .2.1.2-.2-.1-.2-.2.1-.2-.3.1.3.2.1.3 0v.1c.1 0 .2.1.2 0-.1 0-.1.1 0 .2l.1-.2c.2 0 0 .3.1.4l-.2.1s0 .2.1.2c.1-.1.2-.3.3-.4.1 0 0 .2.1.1l-.2.1s0 .3.1.3.3-.2.2-.3v.2c.1 0 .1-.2.2-.2v.5l-.2.2c-.2.2 0 .2-.2.3h.2c.1-.4.4-.3.5-.6.2 0-.3.7.1.4 0-.1.2-.3.1-.2.1.1.2-.3.3-.1-.1.1-.1.3-.3.4.1-.1 0-.1-.1-.1 0 .1-.2.3-.1.3s.1 0 .2-.1c.1-.2-.1 0 0-.2.1 0 0 .3.2 0-.1 0 0-.2.1-.3h.1l-.1.1c.1.2.1-.2.3-.1l-.1.3c-.1.2-.1-.2-.3.1.1.1.2-.1.2 0h-.1s-.2.4.1.3c.1-.1.1-.1.1-.2h.4c-.1.2.1.1-.1.3 0-.2-.2-.3-.3-.1-.1.3-.1-.1-.3.2.1.1 0 .3-.1.5h.1c.1-.2.1-.2.1-.3.1.1.3.1.4 0 0 .1-.1.3-.2.2.2 0 .3.2.4.3.1-.3.2 0 .3-.2 0-.1 0-.3.1-.4 0 0-.1.1-.1.2.1-.1 0 .3.1.1-.2 0-.2.3-.3.5.2-.1-.1.1 0 .2.1-.1.3-.1.4-.1 0 .3.3.2.4.3 0 .1-.2.3-.1.4.1 0 .1-.3.1-.1.1 0 .1.3.3 0l-.2.2h.1c0 .1-.1.2-.1.2 0 .2.2.1.2.1V40c.2 0 .2.2.4.2l-.1.1.1-.1c-.1.1-.1.3 0 .2l-.4.2c0-.1.2-.1.2-.3 0-.1-.1-.2-.2 0h.1c-.1.2-.2.2-.3.3 0 0 0 .1.1 0-.1.1-.2.1-.2 0 .1 0 0-.1.1-.2-.1.2-.2.2-.3.1 0-.2-.3 0-.3-.1.1-.2.3-.3.4-.3 0-.1-.1 0-.1-.2-.1.1-.3.3-.4.3l.1-.1c-.1 0-.2.2-.3.1-.1-.2-.3-.3-.4-.4l.1-.1c-.2.2-.3 0-.5 0-.1-.2-.4-.1-.4-.4-.4-.1-.7-.1-1-.3l.2-.2c-.1.1 0-.1 0-.1 0 .2-.2.2-.3.3-.1-.2-.3-.2-.5-.1l.1-.1c-.1.1-.2.1-.3 0 0 0 0-.1-.1-.2v-.2c-.1.2-.1.2-.2.3 0 0-.1-.1-.2-.3-.1.3-.3 0-.3.2l-.1-.3v.2c0 .1-.1.1 0 .3l-.3-.4c-.1-.1.1.2.3.5-.1-.1.1.2-.1 0-.1 0 .1.2.2.2-.1 0-.1 0 0 .1-.1 0-.2-.1-.2-.1.1.1-.1.1.3.2-.2 0 .2.2-.1.2.1 0 .1 0 .2.1 0 .2-.2.4 0 .5h-.2s.1 0 .2.1c.2.3-.2.6-.1.9.2.5.1 1 .1 1.5h-.1c.3.2-.3.4.1.5-.1 0 0 .2-.2.1.2.1-.2.4.1.5-.2.1.1.1-.1.2h-.1c-.1.1.3 0 0 .1l.2-.1v.1h.2c.1 0 .1-.1.3 0 .2.3-.3.5.1.4 0 .1.1-.1 0 0 .1 0-.1.4.1.3.1-.2.1-.1.2-.2.1.2 0 .4.3.3l-.1.1c.3-.2.4.1.7-.2l1.3.6.7.3.3.1c0 .1 0 0 .1.1l.1.1c.3.4.3.3.2.2 0 .1.1.1.1.1-.2-.3 0-.1-.3-.3v-.1l.2.1-.1-.1h.1s-.1-.1-.2-.1c-.1.2 0-.5 0-.9.1-.5.2-.9.2-1.4.1-.2 0-.5 0-.8.3-.7.6-1.3.4-2 0 0 .6.1.7.4z"/><path d="M30.9 40.9c0-.1 0-.2.1-.3 0 .1 0 .2-.1.3zm-1.2-2.1s0-.1 0 0c0-.1.1-.2 0 0 .1-.1 0-.1 0 0zm-.4-.4c.1-.1.2-.1.3-.1l-.3.1zm-.3-.6c0-.1.1-.2 0 0 .1-.1.1-.1 0 0zm-.1.2v-.2c-.1.1.1 0 0 .2zm-.8-.9s-.1.1 0 0c-.1.1.1-.1 0 0zm-.6-.1c-.1-.1 0-.1 0-.1v.1zm-3.7 6.3h.1zm2.9 3.4c.1 0 0 .1 0 .1s.1-.1 0-.1zm2.2.6l.1-.1z"/></g><path d="M38.1 36.7l-6.7-3.9-6.8 3.9 6.7 3.9z" fill="#bc4568"/><g class="R"><path d="M37.9 37c.1 0 0-.2 0 0 0 0 0 .1 0 0zm-.2-.3c0 .7-.7.4-.9.9 0 0-.2-.3-.2-.2-.1.6-.8.7-1.4.6v-.1c-.1 0-.1.3-.2.3 0 0 0-.1-.1-.2.1.2-.1.2-.1.3-.1 0-.1-.2-.2-.2v.2c.1.5-.3.2-.4.5v-.1c-.2.4-.5.6-.8.9 0-.1-.1-.2-.1-.2.1.2 0 .3-.1.4-.1-.2 0 .2-.2.2 0 .2-.2 0-.1.2l-.1-.1c.1.3-.2-.1-.2.1v.1c0 .1-.1 0-.2.1-.1.2-.3 0-.1.3-.1-.1.1-.2-.1-.3-.2.3-.5.5-.9.7l-.5-.3v-.3h-.3v-.2c0-.1-.2.2-.3 0 .1 0 .1-.1.1-.2-.2.1-.3 0-.4 0 0 0 .1 0 .1-.1-.2.1-.1-.1-.3-.1l.1-.1c0-.2-.2.2-.3.1l.1-.1c-.2.2-.4 0-.5 0s-.2-.2-.4-.2c0-.1.2-.3 0-.3-.1.2-.3 0-.4.3-.1-.1-.2-.3-.3-.3.1-.1.1-.3.2-.3v-.2c.1-.1 0 .1.1-.1 0 0-.2 0-.3-.1-.2.1-.4.3-.5.3.1-.1.1-.3.2-.3l-.1.4s.1-.2 0-.2c0 .1-.1.1-.1.1s-.2 0-.1-.3c0-.1.1 0 .1-.1h-.2c0-.1-.2 0-.2.2 0 0 .1-.2.1 0-.1.1-.2.1-.3.1 0 0 .1-.1.1-.2-.2.1-.3.1-.6.1-.1.1.2-.2.2-.1-.1-.3-.6-.1-.6-.4l-.1.1c-.1-.1.1-.2-.1-.2.1-.1-.1 0-.2 0s0 0 .1 0c-.2 0-.8-.2-.8-.4h-.5l.3-.1c.1-.1-.2-.1 0-.2-.4 0 .7.2.3.2.1-.1-.6 0-.2-.1-.1-.1-.5-.1-.4-.2 0 0 .4 0 .3-.1-.2-.1-.2 0-.4-.1h-.2c-.3 0-.1-.1-.3 0 .2 0-.4-.1.1-.2h.4-.6c-.6 0-.1-.1-.7-.1 0 0-.1-.1-.1-.2.1 0 .2-.1.5-.1-.1-.1-.2-.2.1-.2l.1.1c.3 0 .1-.1.1-.1.1 0 .5-.1.7-.1-.1-.1-.4-.1-.5-.1.6 0 0-.3.6-.2 0 0 .1.2.3.1.5.1-.1-.2.2-.2l-.4-.1c.3 0 .1-.2.4-.1-.1-.1.3-.1 0-.2.5 0 .6-.5 1.1-.3 0 0 .1-.1 0-.2-.2-.1 0 .1-.1.1v-.1c.1 0 .2 0 .3.2.3 0-.1-.4.2-.5 0 .1.1.1.1.1v-.2c.1 0 .2.2.3.3 0-.1.1-.1.1-.2l.2.2c-.1-.1 0-.1 0-.2v.1c0 .1.1 0 .1-.1-.1-.1-.1-.1-.2-.1v-.2c.1.2.1.1.2 0 .1 0 0-.2 0-.2 0 .1.1 0 .1.1 0 0-.1-.1-.1 0 .1 0 .1.2.1 0 0-.1-.2-.3 0-.3v.2h.1l-.1-.2v.1c-.1-.2.1-.1 0-.3h.2c.1.1.1 0 .1-.2 0 0 .1-.1.1-.2.1.1.3.5.3.3.1 0 0-.3-.1-.4.2 0 .2-.3.5-.2v-.2c.2-.1.3-.4.6-.2 0 .1.1.2.1.2 0-.2.1.1 0-.1 0 .3 0 .3-.1.3a.76.76 0 0 1 .4-.2c-.1 0-.1-.1-.1-.2.1.2.2.2.2.1l-.1-.1.1.1c0-.1-.1-.3 0-.2l.1.1c0-.2 0-.4.1-.3.1 0 .1.1.2.2 0 0 .1-.2-.1-.2.3 0 .4-.1.5.1.1-.4.4-.7.8-.9.2.1.3.2.5.3v.1c.1.2.1-.2.2 0-.1.1 0 .3-.1.4.1.2.2-.1.4-.1.1-.1-.1 0 0-.1 0 0 .2.2.3.1 0 .1-.1.2-.2.3h.2c0 .3-.4.3-.4.6h.1c0 .2-.3.2-.1.3.1-.1.3-.3.3-.4.2 0 .3-.4.5-.3 0 .1-.1 0-.2.1 0 .2.2 0 .2.1 0-.1.1-.3.2-.3 0 .1-.2.2-.1.2.1-.1.2-.1.2-.3.2-.2.1.1.2 0-.1.2-.3.3-.3.5.1-.2.3-.2.3-.4 0 .1-.1.2-.2.3 0 .1.3-.2.2.1l.1-.2v.2s.3-.1.2.1c0 0 .2.1.2-.1s-.2.1-.1-.2c-.1.2.1 0 .2 0v.1s.1 0 .2-.1c-.1 0-.1.1-.1.2l.1-.1c.2 0-.1.3 0 .3l-.2.1s0 .2.1.1.2-.3.3-.4c.1 0-.1.2.1.1l-.3-.1s-.1.3 0 .3.3-.2.2-.3v.2c.1 0 .1-.2.2-.2v.5l-.2.2c-.2.2 0 .2-.2.3h.2c.1-.4.3-.3.5-.6.2 0-.3.7.1.4 0-.1.2-.3.1-.2.1.1.2-.3.3-.1-.2.1-.1.3-.3.4.1-.1 0-.1-.1-.1 0 .1-.2.3-.1.3s.2 0 .2-.1c.1-.2-.1 0 0-.2.2 0 0 .3.2 0-.1 0 0-.2.1-.3h.1l-.1.1c.1.2.2-.2.3-.1l-.1.3c-.1.2-.1-.2-.3.1.1.1.2-.1.2 0h-.1s-.2.4.1.3l.2-.2h.3c-.2.2.1.1-.1.3 0-.2-.2-.3-.3-.1-.1.3-.1-.1-.3.2.1.1 0 .3-.1.5h.1c.1-.2.1-.2.2-.3.1.1.3.1.4 0 0 .1-.1.3-.2.2.2 0 .3.2.4.3.1-.3.2 0 .3-.2 0-.1 0-.3.1-.4 0 0-.1.1-.1.2.1-.1 0 .3.1.1-.2 0-.2.3-.3.5.2-.1-.1.1 0 .2.2-.1.3-.1.4-.1 0 .3.3.2.4.3 0 .1-.2.3-.1.4.1 0 .1-.3.1-.1.1 0 .1.3.3 0h-.1.1c0 .1-.1.2-.1.2 0 .2.2.1.2.1v-.2c.2 0 .2.2.3.2l-.1.1h.1c-.1.1-.1.3 0 .2l-.4.2c0-.1.2-.1.2-.3 0-.1-.1-.2-.2 0h.1c-.1.2-.2.2-.3.3 0 0 0 .1.1 0-.1.1-.2.1-.2 0 .1 0 0-.1.1-.2-.1.2-.2.2-.3.1 0-.2-.3 0-.3-.1.2-.2.3-.3.4-.3 0-.1-.1 0-.1-.2-.1.1-.3.3-.4.3l.1-.1c-.1 0-.2.2-.3.1-.1-.2-.3-.3-.4-.4l.1-.1c-.2.2-.3 0-.5 0-.1-.2-.4-.1-.4-.4-.3-.1-.7-.1-1-.3l.2-.2c-.1.1 0-.1 0-.1 0 .2-.2.2-.3.3-.1-.2-.3-.2-.5-.1l.1-.1c-.3.2-.3-.1-.4-.3 0-.1.1-.2 0-.2-.2.2-.2.1-.4.2l-.3-.3c-.5.1-.9-.4-1-.2V34c-.1.1-.1.1-.2.1s-.2 0-.2.2v-.4c-.1-.1-.1.1 0 .3-.1-.1-.1.3-.3.1-.1 0 0 .2-.1.3-.3 0-.3.1-.4.2h.1c0-.1-.1-.2-.1-.2 0 .1-.3.1 0 .3-.3-.1-.4.4-.7.3.1.1 0 .1 0 .2-.2.1-.4 0-.5.3 0 0 0-.2-.1-.1 0 .1.1.1 0 .2-.2.3-.6.2-.9.3-.2.2-.4.3-.6.5-.1 0-.1 0-.1.1h-.1c.3.2-.4-.1 0 .1-.1 0-.1 0-.2-.1.2.1-.3 0 0 .1-.3 0 0 .1-.3.1h-.2c-.3 0 .5.1-.2 0h.2c.1.1.5.1.6.1-.2.1-.8.2-.4.2-.1 0 .2-.1.1 0 .1 0-.4.2-.2.2.2-.1.1 0 .3-.1-.1.1-.2.3 0 .2l-.1.1c.3-.2.3 0 .5-.3l1.2.5c.5.2.9.4 1.3.6l1 .6.2.1v.1c.1.3.1.3.2.1v.1c-.1-.2.1-.1 0-.3.3-.2.6-.4.9-.5 0 .1 0 .2.1.2v-.1c0-.1 0-.2-.1-.2.7-.6 1.7-.7 2.5-1.2.2 0 .5-.3.6-.4.8-.1 1.4-.2 1.9-.7.5-.4.7.2.6.5z"/><path d="M37.7 37c0-.1 0-.2.1-.3 0 0 0 .2-.1.3zm-1.2-2.2c0-.1.1-.1 0 0 0-.1 0 0 0 0zm-.4-.3c.1-.1.2-.1.3-.1l-.3.1zm-.3-.6c0-.1.1-.2 0 0 .1-.1.1-.1 0 0zm-.1.1v-.2c-.1.2.1.1 0 .2zm-.8-.8c-.1 0-.1.1 0 0-.1 0 .1-.1 0 0zm-.6-.1V33v.1zm-9.8 2.7v-.1l.1.1zm2.2 3.1c.1 0 0 .1 0 .1-.1 0 .1-.1 0-.1zm2.2.6l.1-.2z"/></g><path d="M31.3 40.6l.1 31.3 6.8-3.9-.1-31.3-6.8 3.9z" fill="#a33b55"/><g class="R"><path d="M31.7 40.8c0-.3-.2.2-.1-.2.1.1.2.1.1.2z"/><path d="M32.3 40.4c.5-1 1.8-1.1 2.5-1.9.1-.1.1.3.3.1.5-.8 2.2-1.5 2.7-1.4 0 .1 0 .2-.1.3l-.1.1c-.1.3.2.1.2.3-.1.1-.1 0-.2.2.2-.2.1.3.2.2-.1.2-.2.3-.3.4h.2c.2 0 .2.3.2.5 0 .3-.1.5 0 .8 0 0-.1-.1-.1 0 .3.8.2 1.9.3 2.8-.1 0-.2-.1-.3 0 .2 0 .3.3.3.6-.2.1.2.4.1.7.2.2-.1.3.2.5l-.2.2c.3.1-.2.3 0 .5h.1c.1.2-.1.3 0 .4.1.4-.1.6.2.6-.2.1-.1-.4-.3-.2.3 1.2.2 2.5.2 3.7-.1.2-.1.2-.2.3 0 .1 0 .5.2.6 0 0-.1.1-.1.2-.1.2.3.3.2.5-.3-.4-.3-.4-.4-.4.2.2.2.5.2.7l-.1-.1c.2.3 0 .5.1.7l-.1-.1c-.2.4.3.1.2.4 0-.1-.1 0-.2-.1.3.3.2.8.3 1.1h-.1c0 .3 0 .7.1 1-.1.1-.3 0-.3.3.3 0 .1.6.4.4 0 .3-.2.8-.1 1-.1-.1-.3.2-.3-.1l-.2.4c-.1 0 0-.2-.1-.1 0 .1.1.5.1.6.2.2.5.5.5.8-.1-.2-.3.1-.3 0l.5.5c0 .1-.2 0-.2.2.1 0 .1.1.2.1 0 0 .1.5-.2.6-.1.1-.1-.2-.2-.1 0 .2.1.3.1.5s.1.5.3.3c0-.1-.2 0-.1-.1.2.1.2.4.2.6 0-.1-.1-.1-.2-.1.2.3.3.6.4 1 .1 0-.2-.1-.2-.2-.2.5.3.9 0 1.3 0-.1.2 0 .2 0 0 .2-.2.2-.1.3-.1 0 0 .2.1.3s-.1 0-.1-.1c.1.2.3 1 .1 1.5.1 0 .3.3.3.4h-.2c-.1.1 0 .3-.1.4.2.2-.2-.9 0-.6-.2.1.3.4 0 .4 0 .2.2.4 0 .6 0-.1-.2-.2-.2 0 0 .3.1.1.1.3l.1.2c.2 0 0 .3.2.2-.1 0 .1.4-.2.4h-.2c0 .1.2.2.3.3 0 0-.1.1-.1 0 .3 0 0 .4.2.7-.1.2-.1.4-.1.7-.2.1-.4.2-.6.2-.2.2-.4.5-.7.6 0-.1.1-.1.1-.2-.2 0-.2.1-.3.2 0-.1-.4 0-.6 0-.1.2 0 .3.1.4-.3-.2-.4.5-.8.3 0-.1.2-.3 0-.3-.3-.2-.2.4-.6.4l.2.2c-.2-.1-.3.4-.4.1 0 .1-.4.1-.2.3-.6.1-1 .7-1.6.6-.1.1-.3.2-.2.3.2.1.2-.2.3-.2-.1.1-.1.1-.1.2-.2.1-.4.1-.2-.2-.4 0-.4.7-1 1 .1-.2 0-.2-.2-.1l-.4.4c-.4.2-.1-.2 0-.5-.2.2-.4.3-.6.5v-.3c0 .2-.2.3-.3.3v-.3c-.1.2-.1.5-.2.7l-.1.1s0-.2-.1-.2c.2-.2.1-.6.1-.8 0-.3-.2 0-.2-.1.1-.1 0-.4.1-.3 0 0-.1.3 0 .3.1-.2.2-.4.1-.5s-.4.4-.2-.1c0 .1.1 0 .2 0l.1-.4-.2.1c0-.1.1-.1.1-.1-.2 0-.1-.5-.3-.5 0-.2.1-.5.1-.7.1-.3 0-.5-.1-.7 0-.1 0-.3-.1-.4.1-.2.6-.1.4-.3 0-.2-.3-.3-.4-.3.1-.4-.2-.8.1-1.2-.1-.1-.1 0-.1-.1.1-.6-.2-1.2.1-1.6.1.2.2 0 .3 0-.1-.1.1-.2-.1-.2-.1 0-.2 0-.3.2-.1-.3-.1-.8.1-1-.1.1-.1 0-.2-.1.2 0 .3-.2.2-.4h-.1l.1-.1c0-.1-.3-.1-.2-.3.1 0 .1 0 .1-.1-.1-.2-.3-.5-.2-.7l.2-.2c0-.1-.1-.3-.2-.1.1-.4.1-.6.3-.7-.4-.6-.5-1.5-.4-2.2h.1c.1-.2-.2-.1-.1-.2.1.1.2-.2.4 0 .1-.3-.2-.3-.2-.5-.1 0 .1.2-.1.1 0 0 .1-.4-.1-.4.1-.1.2 0 .3 0l-.1-.2c.3-.2.4.5.7.3v-.2c.2-.2.3.4.3 0-.1-.2-.4-.3-.5-.2-.1-.3-.5-.2-.5-.5.1-.1 0 .3.2.2.2-.2-.1-.4 0-.5-.1.2-.3 0-.3-.1.1-.2.2.1.2-.2-.1 0-.2-.3-.3-.1-.3-.1.1-.3-.1-.4.2-.1.5.3.5 0-.2 0-.3-.4-.5-.2.1-.1.2-.1.3 0 .1-.2-.4-.4 0-.5H30l.2-.2c0-.2-.3-.5 0-.5 0 0 0-.4-.2-.3-.1.2.1.3-.1.4.2-.2 0-.3-.1-.4h.1c0-.1 0-.2-.1-.3.1.1.1 0 .2 0l-.2-.1c-.1-.3.3-.1.3-.3l.1.2s.1-.2.1-.3c-.2-.1-.4-.2-.5-.2-.1-.2.2-.1 0-.2l.2.2c.1 0 .3-.2.3-.3-.1-.1-.3-.3-.4-.1 0-.1.1-.3.2-.2-.1-.3-.2 0-.3-.2.1-.1.3-.3.4-.5l.3.2v-.2c.2.2.2-.1.4 0 0-.1 0-.2-.1-.3-.4.3-.5-.3-.8-.3-.1-.4.8-.3.3-.7-.1.1-.3-.1-.2.1 0-.3-.3-.2-.2-.5.1.2.3-.2.5.1-.1 0-.1.2 0 .2.1-.1.3 0 .3-.2s0-.4-.2-.3c-.2 0 0 .2-.2.1-.1-.3.2-.4-.1-.5 0 .2-.2.3-.3.3l-.1-.2h.1c.1-.4-.2-.1-.2-.5l.3-.2c.2.1-.1.5.3.5 0-.2-.2-.3-.1-.5 0 0 0 .1.1.2 0-.1.5-.2.2-.5-.1-.2-.1 0-.3 0 0-.4-.2-.5-.2-.7.3 0 0-.4.3-.2-.1.1-.1.7.1.8.3-.1 0 .3.3.4 0-.3.3-.3.5-.3 0-.1-.1-.2-.1-.2-.2 0-.2.1-.4.1 0-.3-.1-.7-.2-.8.1-.1.3-.1.3.1-.1-.4 0-.8 0-1.2-.3.3-.1-.4-.3-.3-.1.2-.3.4-.4.3 0-.1.1 0 .2 0-.2-.2.3-.3 0-.4.1.4.4.1.6.1-.1-.3.2 0 .2-.3l-.3-.9c.2-.4 0-.9 0-1.2.1-.2.4-.1.4-.2 0-.2-.3.2-.2-.2h.1c-.1-.1.2-.6-.2-.7l.3.1c0-.1 0-.1-.1-.2.1 0 .2-.1.2 0 .2-.2 0-.4 0-.6l-.3.1c-.1-.4 0-.6 0-1h.2l-.2-.1c.2 0 .3-.2.1-.3l.4.5c-.1.2-.2-.2-.4-.1-.1.1-.1.4.1.5 0-.1 0-.1-.1-.2.2 0 .2.2.4.3 0-.1.1-.2 0-.2.1.1.1.3.1.5-.1-.2-.1.1-.2 0 .2 0 .3.2.2.5-.2.2.1.5.1.8-.2-.1-.4-.3-.4-.5-.1.2 0 .2-.1.4.1.1.4.2.5.4h-.1c.1.2.3.2.3.5-.1.5-.1 1-.1 1.4h-.1c.3.2.1.7.3 1-.1.5.1 1-.1 1.3l.2 2.5-.5-.1c.2.2-.1.1-.1.3.2-.2.2.2.4.3-.2.4 0 .9.2 1.3H32c.3.3 0 .8 0 1.2-.1 0-.2.1-.2.3.2.2.2.4.4.7 0 .3-.1.7-.1.9.3 1 .1 1.9.3 3l-.2.1c.4 1 0 2.2.2 3l-.3-.1c-.1.3.1.6.3.5-.1.3.2.6-.1.8-.1.3.1.3.2.5-.1.5-.1.7 0 1.2v-.1c-.1-.1-.2-.1-.2.1.1.2-.1.7.3.5-.2.5.2 1.3-.1 1.8.1 0 .1.1.2.2 0 .5-.2 1 0 1.3 0 .1-.2-.1-.2.1 0 .1.1 0 .2.2.1.5 0 .4 0 .6-.1.1-.2.3-.1.4l.1.1.6-.4v.1c.2-.4 1-.2 1-.7.1 0 .3-.2.3 0 .2-.3.8-.3 1.1-.7 0 0-.1 0-.1.1.5-.1.7-.5 1.2-.6 0 0-.1.1-.1.2.3 0 .1-.4.3-.1 0 0-.1-.2-.1-.1.1 0 .1 0 .2-.1 0-.1-.2-1.3-.2-2.1.2-.8.6 0 .3-.7.1 0-.1 0-.1 0-.1-.3.4-.4.2-.5-.2.1-.1-.1-.3-.1.1-.5.3-.6.2-1h.1c-.3-.5-.2-1-.5-1.3l-.3-7.2.1-7.1c.3-.6.3-.6.2-1.2 0 0 .1.1.1 0-.2 0 0-.4-.3-.5v-2.6c0 .2.2.2.2 0l-.2-.2h.1c0-.1-.2-.3-.2-.1-.1-1-.1-2 0-3v-.2s0-.1.1-.1c0-.1.1-.2.1-.3 0 0-.1 0-.1.1 0-.1-.1 0-.1 0-.1.1 0 .1-.2.2-1.7.6-3.1 1.1-4.5 2.2 0-.7-.1-1.3.5-1.8z"/><path d="M31.8 41.2c-.1.1-.2.3-.4.1.1-.1.2-.2.4-.1zm-1.3 5.3c.1 0 0 .1 0 0-.1 0-.2 0-.1-.1 0 .1.1.1.1.1zm0 1.4c-.1 0-.2-.3-.2-.5l.2.5zm-.5 1.3c-.1.1-.1.1-.1-.1.1 0 .1 0 .1.1zm.3.1c0 .1-.1.2-.1.2.1 0-.1-.3.1-.2zm-.3 2.8c0 .1.1.2 0 .3 0-.1-.2-.4 0-.3zm.1 1.2c0 .1 0 .1 0 0 0 .2-.1.1-.1 0h.1zm6 16.8l-.1.1-.1-.1zm2.9-9.5c-.1-.2.1-.1.1-.1 0 .1-.1 0-.1.1zm-.5-5.5h-.3z"/></g><path d="M24.6 60.2l-6.8-3.9.1 15.6 6.7 3.9z" fill="#0d7eaa"/><g class="R"><path d="M24.3 60.5c.2 0 0-.2.1 0 0 0-.1.1-.1 0z"/><path d="M24.3 60.8c.5.5 0 1.3.4 1.9 0 .1-.3 0-.2.2.4.6.2 1.5-.1 2.2h-.1c-.1.1.2.3.2.4h-.2c.2 0 .1.3.2.3-.1.1-.2.1-.3.1l.2.1c.5.2 0 .6.2.9h-.1c.3.5.2 1.1.3 1.7h-.3c.2 0 .3.2.3.3-.2.1.2.3.1.4.2.1-.1.2.1.3l-.2.1c.3.1-.2.2 0 .3h.1c.1.1-.1.2 0 .3.1.2-.1.3.1.3-.2.1-.1-.2-.4-.1.3.7.2 1.5.2 2.2l-.2.2c0 .1 0 .3.2.3 0 0-.1 0-.1.1-.1.1.3.2.1.3-.1-.1-.1-.1-.2-.1.2.2.2.3.2.5l-.1-.1c.2.3 0 .3.1.5l-.1-.2c-.2.1.3.3.2.4 0-.1-.1-.1-.1-.2.3.4.2.7.3 1l-.1-.1c0 .3 0 .4.1.8 0 0-.2-.2-.2-.3-.1-.1-.1-.2-.2-.2.3.5-.2 0 .1.6-.2-.2-.6-.5-.7-.4 0-.1-.2-.5-.1-.5l-.2-.3c0-.2.1.1 0-.1h-.2c0 .2-.1.5-.4.4.1-.1-.1-.4 0-.4-.1.2-.2.3-.3.4-.1 0 0-.2-.1-.2 0 .1-.1.1-.1.1s-.4-.2-.3-.4c0-.1.1 0 .1-.1-.1-.1-.2 0-.3-.1s-.3 0-.3.2c0 0 .1-.2.1 0-.1.1-.3.1-.4 0 .1 0 .1-.1.1-.1-.3.1-.5 0-.7 0-.1.1.2-.2.2-.1-.1-.3-.6-.1-.7-.4 0 0-.1.2-.1.1-.1-.1 0-.2-.1-.2 0-.1-.1 0-.2 0s0-.1.1 0c-.1 0-.7-.1-.8-.3 0 .1-.3.2-.3.1l.1-.1c0-.1-.2-.1-.1-.2-.2.1.5.1.3.2 0-.2-.4.1-.2-.1-.1-.1-.3 0-.4-.2 0 0 .2-.2.1-.2-.2-.1-.1 0-.3 0h-.1c-.1.1-.1-.1-.2.1.1-.1-.4-.1-.2-.3l.1-.2c-.1 0-.3.1-.4.1v-.1c-.3.2-.2-.2-.5-.1l-.3-.3c0-.2 0-.3.1-.4-.1-.1-.2-.3-.1-.5 0 0 0 .1.1.1.1-.2 0-.2 0-.3 0 0 .2-.3.3-.4-.1-.1-.3-.1-.4-.1.3-.1-.2-.3.1-.5 0 0 .2.2.2.1.3-.1-.2-.2-.1-.4h-.3c.2-.1-.2-.3.1-.3-.1-.1.1-.2-.2-.2.2-.3-.1-.7.3-.9 0 0 0-.2-.1-.1s.1.1 0 .1c0 0-.1 0-.1-.1.1-.1.1-.2.3-.1.2-.2-.4-.2-.3-.5.1 0 .1 0 .1-.1l-.2-.2c0-.2.3-.1.4-.1 0-.1 0-.2-.2-.3l.2-.1c-.2.1-.1-.1-.2-.1.1 0 0-.1 0-.2-.1 0-.2.1-.2.2-.1 0-.1-.1-.2-.2.2 0 .1-.2.1-.2 0-.1-.2-.1-.2-.1.1 0 0-.1.1-.1 0 0-.1.1 0 .1.1-.1.2 0 .1-.2-.1-.1-.4 0-.2-.2 0 0 .1.1.2.1l.1-.2h.3c-.2 0-.1-.2-.3-.3 0-.1.1-.2.1-.2.1-.1 0-.2-.1-.3 0 0 0-.2-.1-.2.1-.1.6 0 .4-.2 0-.1-.3-.2-.4-.2.1-.2-.2-.5.1-.7-.1 0-.1 0-.1-.1.1-.3-.2-.7.1-1 .1.1.2 0 .3 0-.1-.1.1-.1-.1-.1-.1 0-.2 0-.3.1-.1-.2-.1-.5.1-.6-.1.1-.1 0-.2 0 .2 0 .3-.1.2-.3h-.1l.1-.1s-.3 0-.2-.2h.1c-.1-.1-.3-.3-.2-.4l.2-.1c0-.1-.1-.2-.2 0 .1-.2.1-.3.3-.4-.4-.4-.5-.9-.4-1.3h.1c.1-.1-.2-.1-.1-.2.1 0 .2-.1.4 0 .1-.2-.2-.2-.2-.3-.1 0 .1.1-.1.1 0 0 .1-.2-.1-.3h.3s-.1-.1-.1-.2c.1-.1.2 0 .4.1.1.1.3.1.4.1v-.1c.2-.1.3.3.3 0-.1-.1-.4-.3-.5-.1-.1-.3-.5-.2-.5-.6.1-.1 0 .3.2.3.2-.1-.1-.3 0-.5-.1.1-.3-.1-.3-.2.1-.2.2.2.2-.1-.1-.1-.2-.4-.3-.2-.3-.3.1-.3-.1-.5.2 0 .5.6.5.3-.2-.1-.3-.5-.5-.6.1-.1.2 0 .3.2.1-.1-.4-.7 0-.4l-.2-.3h.2c0-.1-.3-.8 0-.4 0-.1 0-.4-.2-.5-.1.1.1.4-.1.2.2.1 0-.4-.1-.6l.1.1c0-.2 0-.3-.1-.5.1.2.1.2.2.2l-.2-.3c-.1-.5.3.4.3 0l.1.4c0-.1.1.1.1-.2a4.67 4.67 0 0 1-.5-1v-.1c.1 0 .2.3.2.2v.2s0 .1.1.1c.1.2.4.4.5.5.1 0 .1-.3-.2-.5.1.1.3.3.3.4.2 0-.2-.3 0-.3.2.2.5.6.7.9v.3l.1.1c0 .2.2.3.2.6.1.1.1 0 .2 0-.4-.6 0-.5-.2-1 .4.1.5 1.2.7.7-.1-.2.1-.3-.2-.4.2.2.1-.3.4 0-.2 0 .2.5 0 .6 0-.1-.2-.2-.2-.2.1.2 0 .4.2.5.1 0 .3.1.3-.1s-.2-.1-.1-.3c.3.1.3.4.4.1-.2-.1-.2-.3-.2-.5h.2l-.1.1c.3.3.1-.2.5.1l.1.3c-.1.2-.5-.4-.5 0 .2.1.3 0 .5.2H20c.1.1 0 .5.3.4.2 0 .1-.1.2-.2.3.1.4 0 .5.1-.1.2.2.2-.1.3 0-.2-.3-.3-.5-.2 0 .3-.2-.2-.4.1.2.1.1.4 0 .6h.2c.1-.2 0-.2.1-.3.1.2.4.2.5.1 0 .1-.1.3-.2.2.2.1.4.2.6.4 0-.3.3.1.3-.2-.1-.1-.1-.3.1-.4.1.1-.1.1-.1.2.2-.1 0 .3.2.1-.2 0-.2.3-.4.5.2 0-.1.1 0 .2h.6c.1.3.5.3.6.4 0 .2-.2.3-.1.4s.1-.3.2-.1c.1 0 .2.3.5 0l-.2.2h.1c0 .1 0 .2-.1.2 0 .2.2.1.4.2v-.2c.3 0 .3.2.5.3l-.1.1h.2c.1.5.1.7.2.6l-.5.2c0-.1.2-.1.2-.3s-.2-.2-.3-.1c.1.1.1 0 .2 0-.1.2-.2.2-.3.3 0 0 .1.1.1 0-.1.1-.2 0-.3 0 .1 0 0-.2.1-.2-.1.2-.3.2-.4 0 0-.3-.3 0-.5-.2.2-.1.3-.2.5-.3 0-.2-.1-.1-.2-.2-.1.1-.3.3-.5.3l.1-.1c-.2 0-.3.2-.4.1a3.04 3.04 0 0 0-.7-.5l.1-.1c-.3.2-.4-.1-.6-.1-.2-.3-.6-.2-.6-.5-.5-.2-.7-.1-1-.4v-.2c0 .2-.1-.2-.1-.2.1.3 0 .2 0 .4-.2-.3-.3-.2-.3 0l-.1-.2c.1.3-.1.1-.3-.1-.1-.1-.2-.3-.2-.2.2.5.2.5.4.8 0 .1-.1.1-.1.1.2.3.2.4.2.5 0 .2 0 .2.1.5h-.2c.4.6 0 1.3.2 1.8h-.3c-.1.2.1.3.3.3-.1.2.1.4-.1.5-.1.2.1.2.2.3a.85.85 0 0 0 0 .7v-.1h-.2c.1.1-.1.4.3.3-.2.3.2.7-.1 1.1.1 0 .1.1.2.1 0 .3-.2.6 0 .8 0 0-.2-.1-.2 0s.1 0 .2.1c.2.4-.2.9-.1 1.3.2.7.1 1.5.1 2.2h-.1c.3.2-.3.6.1.7-.1.1 0 .2-.2.2.2.2-.2.5.1.8v-.1c-.1.1-.1.3 0 .4v.2h-.1c-.1.1.3 0 0 .2 0 0 .2 0 .2-.1v.1c.1.1.2.1.3.1s.5.2.7.3c.3.4-.3.5.2.5 0 .1.1-.1.1 0 .2 0 0 .4.2.3.1-.2.1-.1.2-.2.2.3.1.4.4.4l-.1.1c.4-.1.6.2 1 0l.9.4.2.1h.1c.1 0 .1-.1.1-.1V72c0-.3 0-.7.1-1.1.3-.3.3-.4.2-.7h.1c-.2 0 0-.3-.3-.3v-1.6c0 .1.2.1.2 0l-.1-.1h.1c0-.1-.2-.2-.2-.1-.2-1.4.3-2.7.2-4.1.1-.3 0-.8 0-1.1.3-1 .6-2 .4-3-.5.3.2.4.3.9zm-.2-.4c0-.1 0-.2.1-.3 0 .1 0 .2-.1.3z"/><path d="M21.9 57.7s0-.1 0 0c0-.1.1-.2.1-.1 0 0 0 .1-.1.1zm-.6-.5c.1-.1.3-.1.4 0h-.4zm-.5-.8c-.1-.2 0-.2.1-.1 0 .1-.1.1-.1.1zm-.2.2c-.1-.1-.1-.1-.1-.2-.1.1.2.1.1.2zM18 54.8c-.1 0-.1 0-.3-.2.1.1.3 0 .3.2zm-1.1-.5l-.1-.1c-.1-.1-.1-.2-.1-.2l.2.3zm.2 15.8L17 70l.1.1zm4.2 4.7c.1 0 0 .1 0 .1-.1 0 .1-.1 0-.1zm3.5 1.4l-.2-.4z"/></g><path d="M24.5 52.4l-6.7-4v7.9l6.8 3.9z" fill="#39576c"/><g class="R"><path d="M24.3 52.7c.1 0 0-.2.1 0 0 0-.1.1-.1 0zm0 .1c.5.4 0 .9.4 1.3 0 0-.3 0-.2.1.4.4.2 1-.2 1.5h-.1c-.1.1.2.2.2.3h-.2c.2 0 .1.2.2.2-.1 0-.2 0-.3.1l.2.1c.5.2 0 .4.2.6h-.1c.3.3.2.7.3 1.2-.1 0-.2-.1-.3-.1.2.1.3.2.3.3-.2-.1.2.3.1.4.2.3-.1.1.1.3l-.2-.1c.3.3-.2 0 0 .2l.1.1c.1.2-.1 0 0 .2.1.3-.1.2.1.4-.2-.2-.1-.3-.4-.5.2.5.2.9.2 1.3l-.5-.3c-.1-.2-.2-.2-.3-.4 0 0-.1 0-.1.1l-.1-.2c-.1-.2 0 .3-.1.1 0-.1 0-.2-.1-.3 0 .2-.1.1-.2.1v-.2c0 .2-.2-.2-.2 0v-.2c-.1-.3 0 .3-.1.1v-.2c-.1.2-.3 0-.4 0v-.1c-.1 0-.3-.2-.4-.2 0-.1.1-.3 0-.3-.1.2-.3 0-.4.3-.1-.1-.2-.3-.3-.3.1-.1.1-.3.2-.3v-.2c.1-.1 0 .1.1-.1 0 0-.2 0-.3-.1-.2.1-.4.3-.5.3.1-.1.1-.3.2-.3l-.4.3s.1-.2 0-.2c0 .1-.1.1-.1.1s-.2 0-.1-.3c0-.1.1 0 .1-.1h-.2c0-.1-.2 0-.2.2 0 0 .1-.2.1 0-.1.1-.2.1-.3.1 0 0 .1-.1.1-.2-.2.1-.4.1-.5.1-.1.1.2-.2.1-.1-.1-.3-.4 0-.4-.3 0 0-.1.2-.1.1-.1-.1 0-.2-.1-.2 0-.1-.1 0-.1 0-.1.1 0-.1.1 0-.1 0-.5 0-.5-.2 0 .1-.2.2-.3.2l.1-.1c0-.1-.1-.1-.1-.2-.2.1.4 0 .2.1 0-.1-.3.2-.1 0-.1 0-.3.1-.2-.1 0 0 .2-.2.1-.2-.1-.1-.1 0-.2 0h-.1c-.1.1-.1-.1-.2.1.1-.1-.3-.1-.1-.3l.2-.2a.76.76 0 0 0-.4.2s0-.1.1-.1c-.3.2-.1-.1-.4 0 0-.1-.1-.1-.2-.2 0-.1 0-.2.1-.3-.1-.1-.2-.2-.1-.3 0 0 0 .1.1 0s0-.1 0-.2l.3-.3c-.1-.1-.3 0-.4 0 .3-.2-.2-.3.1-.4l.2.1c.3-.1-.2-.2-.1-.3H17c.2-.1-.2-.2.1-.2-.1 0 .1-.2-.2-.1.2-.2-.1-.5.3-.6 0 0 0-.1-.1-.1s.1.1 0 .1H17c.1-.1.1-.1.3-.1.2-.2-.4-.2-.3-.3.1 0 .1 0 .1-.1l-.2-.1c0-.1.3-.1.4-.1 0-.1 0-.1-.2-.2l.2-.1c-.2.1-.1 0-.2-.1.1 0 0-.1 0-.1-.1 0-.2.1-.2.1-.1 0-.1-.1-.2-.1.2 0 .1-.1.1-.2s-.2-.1-.2-.1c.1 0 0-.1.1 0 0 0-.1 0 0 .1.1 0 .2 0 .1-.1s-.4 0-.2-.1c0 0 .1 0 .2.1l.1-.1h-.1c-.2 0-.1-.2-.3-.2 0-.1.1-.1.1-.2.1-.1 0-.2-.1-.2 0 0 0-.1-.1-.2.1-.1.6 0 .4-.1 0-.1-.3-.1-.4-.1.1-.2-.2-.3.1-.5-.1 0-.1 0-.1-.1.1-.3-.2-.9.1-1 .1.1.2.1.3.1-.1-.2.1 0-.1-.2-.1-.1-.2-.1-.3 0-.1-.3-.1-.6.1-.6-.1 0-.1-.1-.2-.2.2.2.3.1.2-.1l-.1-.2h.1c0-.1-.3-.3-.2-.3s.1.1.1.1c-.1-.2-.3-.6-.2-.6l.2.1c0-.1-.1-.3-.2-.3.1-.1.1-.2.3 0a3.73 3.73 0 0 1-.4-1.6c.2.1.3.2.5.3l.1.2c.2.2-.1-.3 0-.1 0 .2.3.4.3.5.2.3.1-.2.1-.2-.1-.2 0 .1-.1-.2 0-.1.3.3.2 0 .1.2.1.4.2.5v-.1c.2.4 0 .5.3 1 .2.4 0 .3.2.5 0-.1-.1-.5-.2-.7.1 0-.2-.7 0-.5.1.2-.2-.1 0 .2s.1 0 .3.1c-.1-.2-.1-.4-.1-.4.1.2 0 .2.2.3 0-.2.1-.2 0-.4 0-.3.2.2.2 0 .1.3-.1.5.1.7-.1-.3.2-.2 0-.6.6.8.6 1 .6 1.1.1.2.2-.3.3.2V48c0 .1.1.2.1.3.1 0 .3-.1.3.2 0 0 .2.1.2-.2-.1-.2-.2.1-.2-.3.1.3.2.1.3 0v.1c.1 0 .2.1.2 0-.1 0-.1.1 0 .2l.1-.2c.2 0 0 .3.1.4l-.2.1s0 .2.1.2c.1-.1.2-.3.3-.4.1 0 0 .2.1.1l-.2.1s0 .3.1.3.3-.2.2-.3v.2c.1 0 .1-.2.2-.2v.5l-.2.2c-.2.2 0 .2-.2.3h.2c.1-.4.4-.3.5-.6.2 0-.3.7.1.4 0-.1.2-.3.1-.2.1.1.2-.3.3-.1-.1.1-.1.3-.3.4.1-.1 0-.1-.1-.1 0 .1-.2.3-.1.3s.1 0 .2-.1c.1-.2-.1 0 0-.2.1 0 0 .3.2 0-.1 0 0-.2.1-.3h.1l-.1.1c.1.2.1-.2.3-.1l-.1.3c-.1.2-.1-.2-.3.1.1.1.2-.1.2 0h-.1s-.2.4.1.3c.1-.1.1-.1.1-.2h.3c-.1.2.1.1-.1.3 0-.2-.2-.3-.3-.1-.1.3-.1-.1-.3.2.1.1 0 .3-.1.5h.1c.1-.2.1-.2.1-.3.1.1.3.1.4 0 0 .1-.1.3-.2.2.2 0 .3.2.4.3.1-.3.2 0 .3-.2 0-.1 0-.3.1-.4 0 0-.1.1-.1.2.1-.1 0 .3.1.1-.2 0-.2.3-.3.5.2-.1-.1.1 0 .2.4-.1.6-.1.7-.1 0 .3.3.2.4.3 0 .1-.2.3-.1.4.1 0 .1-.3.1-.1.1 0 .1.3.3 0l-.2.2h.1c0 .1-.1.2-.1.2 0 .2.2.1.2.1v-.2c.2 0 .2.2.4.2l-.1.1h.1c-.1.1-.1.3 0 .2l-.4.2c0-.1.2-.1.2-.3 0-.1-.1-.2-.2 0h.1c-.1.2-.2.2-.3.3 0 0 0 .1.1 0-.1.1-.2.1-.2 0 .1 0 0-.1.1-.2-.1.2-.2.2-.3.1 0-.2-.3 0-.3-.1.1-.2.3-.3.4-.3 0-.1-.1 0-.1-.2-.1.1-.3.3-.4.3v-.1c-.1 0-.2.2-.3.1-.1-.2-.3-.3-.4-.4l.1-.1c-.2.2-.3 0-.5 0-.1-.2-.4-.1-.4-.4-.4-.1-.7-.1-1-.3l.2-.2c-.1.1 0-.1 0-.1 0 .2-.2.2-.3.3-.1-.2-.3-.2-.5-.1l.1-.1c-.1.1-.2.1-.3 0 0 0 0-.1-.1-.2v-.2c-.1.2-.1.2-.2.3 0 0-.1-.1-.2-.3-.1.3-.3 0-.3.2l-.1-.3v.2c0 .1-.1.1 0 .3l-.3-.4c-.1-.1.1.2.3.5-.1-.1.1.2-.1 0-.1 0 .1.2.2.2-.1 0-.1 0 0 .1-.1 0-.2-.1-.2-.1.1.1-.1.1.3.2-.2 0 .2.2-.1.2.1 0 .1 0 .2.1 0 .2-.2.4 0 .5h-.2s.1 0 .2.1c.2.3-.2.6-.1.9.2.5.1 1 .1 1.5h-.1c.3.2-.3.4.1.5-.1 0 0 .2-.2.1.2.1-.2.4.1.5-.2.1.1.1-.1.2h-.1c-.1.1.3 0 0 .1l.2-.1v.1h.2c.1 0 .1-.1.3 0 .2.3-.3.5.1.4 0 .1.1-.1 0 0 .1 0-.1.4.1.3.1-.2.1-.1.2-.2.1.2 0 .4.3.3l-.1.1c.3-.2.4.1.7-.2l1.3.6.7.3.3.2c0 .1 0 0 .1.1l.1.1c.3.4.3.3.2.2 0 .1.1.1.1.1-.2-.3 0-.1-.3-.3v-.1l.2.1-.4-.4h.1s-.1-.1-.2-.1c-.1.2 0-.5 0-.9.1-.5.2-.9.2-1.4.1-.2 0-.5 0-.8.3-.7.6-1.3.4-2 0 0 .6.1.8.4z"/><path d="M24.2 52.6c0-.1 0-.2.1-.3-.1.1-.1.2-.1.3zm-1.3-2.1s0-.1 0 0c.1-.1.1-.1 0 0 .1-.1.1-.1 0 0zm-.4-.3c.1-.1.2-.1.3-.1l-.3.1zm-.2-.7c0-.1 0-.1 0 0zm-.2.2v-.2c0 .1.1.1 0 .2zm-.8-.8s-.1 0 0 0c-.1 0 .1-.1 0 0zm-.5-.1c-.1-.1-.1-.1 0 0-.1-.1 0-.1 0-.1v.1zM17 55.1V55h.1zm3 3.3c.1 0 0 .1 0 .1-.1 0 0-.1 0-.1zm2.1.7l.1-.2z"/></g><path d="M31.4 48.4l-6.8-3.9-6.8 3.9 6.7 4z" fill="#4e7694"/><g class="R"><path d="M31.1 48.8c.1 0 0-.2.1 0h-.1z"/><path d="M30.9 48.4c0 .7-.7.4-.9.9 0 0-.1-.3-.2-.2-.1.6-.8.7-1.4.6v-.1c-.1 0-.1.3-.2.3 0 0 0-.1-.1-.2.1.3-.1.3-.1.5-.1 0-.1-.2-.2-.2v.2c.1.5-.3.2-.4.5v-.1c-.1.4-.5.6-.8.9 0-.1-.1-.2-.1-.2.1.2 0 .3-.1.4-.1-.2-.1.3-.2.2 0 .2-.2 0-.1.2l-.1-.3c.1.3-.2-.1-.2.1v.1c0 .1-.1 0-.2.1h-.1c-.1.2-.3 0-.1.3-.1-.1.1-.2-.1-.3-.2.3-.5.5-.9.7l-.4-.5V52h-.3v-.2c0-.1-.2.2-.3 0 .1 0 .1-.1.1-.2-.2.1-.3 0-.4 0 0 0 .1 0 .1-.1-.2.1-.1-.1-.3-.1l.1-.1c0-.2-.2.2-.3.1l.1-.1c-.2.2-.4 0-.5 0s-.2-.2-.4-.2c0-.1.2-.3 0-.3-.1.2-.3 0-.4.3-.1-.1-.2-.3-.3-.3.1-.1.1-.3.2-.3v-.2c.1-.1 0 .1.1-.1 0 0-.2 0-.3-.1-.2.1-.4.3-.5.3.1-.1.1-.3.2-.3l-.4.3s.1-.2 0-.2c0 .1-.1.1-.1.1s-.2 0-.1-.3c0-.1.1 0 .1-.1h-.2c0-.1-.2 0-.2.2 0 0 .1-.2.1 0-.1.1-.2.1-.3.1 0 0 .1-.1.1-.2-.2.1-.3.1-.6.1-.1.1.2-.2.2-.1-.1-.3-.6-.1-.6-.4l-.1.1c.2.3.3.2.2.2.1-.1-.1 0-.2 0s0 0 .1 0c-.2 0-.8-.2-.8-.4h-.5l.3-.1c.1-.1-.2-.1 0-.2-.4 0 .7.2.3.2.1-.1-.6 0-.2-.1-.1-.1-.5-.1-.4-.2 0 0 .4 0 .3-.1-.2-.1-.2 0-.4-.1h-.1c-.3 0-.1-.1-.3 0 .2 0-.4-.1.1-.2h.4-.6c-.6 0-.1-.1-.7-.1 0 0 0-.1-.1-.2.1 0 .2-.1.5-.1-.1-.1-.2-.2.1-.2l.1.1c.3 0 .1-.1.1-.1.1 0 .5-.1.7-.1-.1-.1-.4-.1-.5-.1.6 0 0-.3.6-.2 0 0 .1.2.3.1.5.1-.1-.2.2-.2l-.4-.1c.3 0 .1-.2.4-.1-.1-.1.3-.1 0-.2.5 0 .6-.5 1.1-.3 0 0 .1-.1 0-.2-.2-.1 0 .1-.1.1v-.1c.1 0 .2 0 .3.2.3 0-.1-.4.2-.5 0 .1.1.1.1.1v-.2c.1 0 .2.2.3.3 0-.1.1-.1.1-.2l.2.2c-.1-.1 0-.1 0-.2v.1c0 .1.1 0 .1-.1-.1-.1-.1-.1-.2-.1v-.2c.1.2.1.1.2 0 .1 0 0-.2 0-.2 0 .1.1 0 .1.1 0 0-.1-.1-.1 0 .1 0 .1.2.1 0 0-.1-.2-.3 0-.3v.2h.1l-.2.1v.1c-.1-.2.1-.1 0-.3h.2c.1.1.1 0 .1-.2 0 0 .1-.1.1-.2.1.1.3.5.3.3.1 0 0-.3-.1-.4.2 0 .2-.3.5-.2v-.2c.2-.1.3-.4.6-.2 0 .1.1.2.1.2 0-.2.1.1 0-.1-.1-.1-.1-.2-.2-.2a.76.76 0 0 1 .4-.2c-.1 0-.1-.1-.1-.2.1.2.2.2.2.1l-.1-.1.1.1c0-.1-.1-.3 0-.2l.1.1c0-.2 0-.4.1-.3.1 0 .1.1.2.2 0 0 .1-.2-.1-.2.3 0 .4-.1.5.1.1-.4.4-.7.8-.9.2.1.3.2.5.3v.1c.1.2.1-.2.2 0-.1.1 0 .3-.1.3.1.2.2-.1.4-.1.1-.1-.1 0 0-.1 0 0 .2.2.3.1 0 .1-.1.2-.1.3h.1c0 .3-.4.3-.4.6h.1c0 .2-.3.2-.1.3.1-.1.3-.3.3-.4.2 0 .4-.4.5-.3 0 .1-.1 0-.2.1 0 .2.2 0 .2.1 0-.1.1-.3.2-.3 0 .1-.1.2-.1.2.1-.1.2-.1.2-.3.2-.2.1.1.2 0-.1.2-.3.3-.3.5.1-.2.3-.2.3-.4 0 .1-.1.2-.1.3s.3-.2.1.1l.1-.2v.2s.3-.1.1.1c0 0 .1.1.2-.1 0-.2-.2.1-.1-.2-.1.2.1 0 .2 0v.1s.1 0 .2-.1c-.1 0-.1.1-.1.2l.1-.1c.1 0-.1.3 0 .3l-.1.1s0 .2.1.1.2-.3.3-.4c.1 0-.1.2.1.1l-.2.1s-.1.3 0 .3.3-.2.2-.3v.2c.1 0 .1-.2.2-.2v.5l-.2.2c-.2.2 0 .2-.2.3h.2c.1-.4.4-.3.5-.6.2 0-.3.7.1.4 0-.1.2-.3.1-.2.1.1.2-.3.3-.1-.1.1-.1.3-.3.4.1-.1 0-.1-.1-.1 0 .1-.2.3-.1.3s.1 0 .2-.1c.1-.2-.1 0 0-.2.1 0 0 .3.2 0-.1 0 0-.2.1-.3h.1l-.1.1c.1.2.1-.2.3-.1l-.1.2c-.1.2-.1-.2-.3.1.1.1.2-.1.2 0h-.1s-.2.4.1.3c.1-.1.1-.1.1-.2h.4c-.1.2.1.1-.1.3 0-.2-.2-.3-.3-.1-.1.3-.1-.1-.3.2.1.1 0 .3-.1.5h.1c.1-.2.1-.2.2-.3.1.1.3.1.4 0 0 .1-.1.3-.2.2.2 0 .3.2.4.3.1-.3.2 0 .3-.2 0-.1 0-.3.1-.4 0 0-.1.1-.1.2.1-.1 0 .3.1.1-.2 0-.2.3-.3.5.2-.1-.1.1 0 .2.3-.1.4-.1.6-.1 0 .3.3.2.4.3 0 .1-.2.3-.1.4.1 0 .1-.3.1-.1.1 0 .1.3.3 0l-.2.2h.1c0 .1-.1.2-.1.2 0 .2.2.1.2.1v-.2c.2 0 .2.2.4.2l-.1.1h.1c-.1.1-.1.3 0 .2l-.4.2c0-.1.2-.1.2-.3 0-.1-.1-.2-.2 0h.1c-.1.2-.2.2-.3.3 0 0 0 .1.1 0-.1.1-.2.1-.2 0 .1 0 0-.1.1-.2-.1.2-.2.2-.3.1 0-.2-.3 0-.3-.1.1-.2.3-.3.4-.3 0-.1-.1 0-.1-.2-.1.1-.3.3-.4.3l.1-.1c-.1 0-.2.2-.3.1-.1-.2-.3-.3-.4-.4l.1-.1c-.2.2-.3 0-.5 0-.1-.2-.4-.1-.4-.4-.4-.1-.7-.1-1-.3l.2-.2c-.1.1 0-.1 0-.1 0 .2-.2.2-.3.3-.1-.2-.3-.2-.5-.1l.1-.1c-.3.2-.3-.1-.4-.3 0-.1.1-.2 0-.2-.2.2-.2.1-.4.2l-.3-.3c-.5.1-.9-.4-1-.2v-.2c-.1.1-.1.1-.2.1s-.2 0-.2.2l-.1-.3c-.1-.1-.1.1 0 .3-.1-.1-.1.3-.3.1-.1 0 0 .2-.1.3-.3 0-.3.1-.4.2h.1c0-.1-.1-.2-.1-.2 0 .1-.3.1 0 .3-.3-.1-.4.4-.7.3.1.1 0 .1 0 .2-.2.1-.4 0-.5.3 0 0 0-.2-.1-.1 0 .1.1.1 0 .2-.2.3-.6.2-.9.3-.2.2-.4.3-.6.5-.1 0-.1 0-.1.1h-.1c.3.2-.4-.1 0 .1-.1 0-.1 0-.2-.1.2.1-.3 0 0 .1-.3 0 0 .1-.3.1h-.2c-.3 0 .5.1-.2 0h.2c.1.1.5.1.6.1-.2.1-.8.2-.4.2-.1 0 .2-.1.1 0 .1 0-.4.2-.2.2.2-.1.1 0 .3-.1-.1.1-.2.3 0 .2l-.1.1c.4-.2.3 0 .5-.3l1.2.5c.5.2.9.4 1.3.6l1 .6.2.1v.1c.1.3.1.3.2.1v.1c-.1-.2.1-.1 0-.3.3-.2.6-.4.9-.5 0 .1 0 .2.1.2v-.1c0-.1 0-.2-.1-.2.7-.6 1.7-.7 2.5-1.2.2 0 .5-.3.6-.4.8-.1 1.4-.2 1.9-.7.4-.5.7 0 .5.3z"/><path d="M31 48.7c0-.1 0-.2.1-.3-.1.1-.1.2-.1.3zm-1.3-2.1s0-.1 0 0c0-.1.1-.2 0 0 .1-.1.1-.1 0 0zm-.4-.4c.1-.1.2-.1.3-.1l-.3.1zm-.2-.6c0-.1 0-.1 0 0 0-.1 0-.1 0 0zm-.2.2v-.2c0 .1.1 0 0 .2zm-.8-.9s-.1.1 0 0c-.1.1.1-.1 0 0zm-.5-.1v-.1.1zm-9.9 2.8v-.1h.2zm2.2 3c.1 0 0 .1 0 .1s.1-.1 0-.1zm2.2.7l.1-.2z"/></g><path d="M24.5 52.4l.1 23.4 6.8-3.9-.1-23.4-6.8 3.9z" fill="#436685"/><g class="R"><path d="M24.9 52.5c0-.2-.2.1-.1-.2.1.1.2.1.1.2z"/><path d="M25.4 52.2c.4-.8 1.5-.8 2-1.6.1-.1.1.3.3.1.2-.4.6-.7 1.1-.9s1-.3 1.3-.3l-.1.2c.1 0 .4-.5.5-.5 0 .1-.1.2-.1.2.1-.3.3-.3.4-.5 0 .1-.1.3-.1.4l.3-.4c.1-.2.2-.3.3-.3.2 0-.1.8 0 .9 0 0-.1 0-.1.1.3.3.2 1.4.3 2.1-.1 0-.2-.1-.3 0 .2 0 .3.3.3.5-.2.1.2.3.1.6.2.2-.1.3.1.4l-.2.1c.3.1-.2.3 0 .4h.1c.1.1-.1.2 0 .3.1.3-.1.5.1.5-.2.1-.1-.3-.4-.1.3 1 .2 2 .2 3-.1.1-.1.2-.2.2 0 .1 0 .4.2.5l-.1.1c-.1.2.3.2.2.4-.1-.1-.1-.1-.2-.1.2.2.2.4.2.6l-.1-.1c.2.2 0 .4.1.6l-.1-.1c-.2.3.3.1.2.3 0-.1-.1 0-.1-.1.3.3.2.6.3.9h-.1c0 .3 0 .5.1.8-.1.1-.3 0-.3.3.3 0 .1.5.4.3 0 .3-.1.6-.1.8-.1-.1-.3.1-.4-.1l-.2.2c-.1 0 0-.2-.1-.1 0 .1.1.4.1.5.2.2.5.3.5.7-.1-.2-.3.1-.4 0l.5.4c0 .1-.2 0-.1.2.1 0 .1.1.2.1 0 0 .1.4-.2.5-.1 0-.1-.2-.1-.1 0 .2.1.2.1.4 0 .1.1.4.3.2 0-.1-.2 0-.1-.1.2.1.2.3.2.5 0-.1-.1-.1-.2-.1.2.3.3.5.4.8.1 0-.2-.1-.2-.2-.2.3.3.7 0 1h.2c0 .2-.2.2-.1.3-.1 0 0 .2.1.3s-.1 0-.1-.1c.1.2.3.8.1 1.2.1 0 .3.2.3.3h-.2c-.1.1 0 .3-.1.3.2.2-.2-.7 0-.4-.1.1.3.3 0 .3 0 .2.2.3 0 .5 0 0-.2-.1-.2 0 0 .3.1.1.1.3l.1.1c.2 0 0 .2.2.1-.1 0 .1.3-.2.3h-.3c0 .1.2.2.3.3 0 0-.1.1-.1 0 .3.1 0 .3.2.6-.1.2-.1.3-.1.5-.2.1-.4.2-.5.1-.1.2-.3.4-.6.5 0-.1.1-.1.1-.2-.2 0-.2.1-.3.2 0-.1-.3 0-.5-.1-.1.2 0 .3.1.4-.3-.2-.3.4-.6.3 0-.1.1-.3 0-.3-.3-.2-.1.4-.4.3l.2.2c-.2-.1-.2.3-.4.1 0 .1-.3.1-.1.3-.5 0-.8.6-1.2.3 0 .1-.2.1-.1.2.2.1.1-.2.1-.1v.1c-.1 0-.2 0-.2-.2-.4 0 0 .5-.4.6 0-.1-.1-.1-.2 0l-.2.3c-.3.2-.2-.2-.3-.3-.1.1-.3.2-.4.4l-.2-.2c.1.1-.1.2-.2.3l.1-.1c0-.1-.2.1-.3.2 0 .1.2.1.3.1-.1.2-.2.2-.4.4.1-.3-.2 0-.4 0-.1 0-.2.3-.3.3 0-.1-.2.1 0-.2.1-.1.1.1.2-.1-.1 0 0-.3-.2 0-.2.2-.2.5-.4.5.1-.1.2-.2.3-.4h-.2l-.1.3v-.1c-.2.3-.4.3-.7.7h-.1c0-.2.1-.5.1-.6.1-.3 0-.5-.1-.5 0-.1 0-.3-.1-.3.1-.4.6-.7.4-.8 0-.2-.3-.1-.4.1.1-.5-.2-1 .1-1.5-.1-.1-.1 0-.1-.1v-.8c0-.2 0-.4.2-.6.1.1.2 0 .3 0-.1-.1.1-.1-.1-.2-.1 0-.2 0-.3.1-.1-.3-.1-.7.1-.8-.1.1-.1 0-.2 0 .2 0 .3-.2.2-.3h-.1l.1-.1c0-.1-.3-.1-.2-.2h.1c-.1-.2-.3-.4-.2-.5l.2-.1c0-.1-.1-.2-.2-.1.1-.3.1-.5.3-.6-.4-.5-.5-1.2-.4-1.8h.1c.1-.2-.2-.1-.1-.2.1 0 .2-.1.4 0 .1-.2-.2-.3-.2-.4-.1 0 .1.1-.1.1 0 0 .1-.3-.1-.3.1-.1.2 0 .3 0l-.1-.1c.3-.2.4.4.7.2v-.1c.2-.1.3.3.3 0-.1-.1-.4-.3-.5-.1-.1-.3-.5-.1-.5-.4.1-.1 0 .3.2.2.2-.2-.1-.3 0-.4-.1.2-.3 0-.3-.1.1-.2.2.1.2-.1-.1 0-.2-.2-.3-.1-.3-.1.1-.2-.1-.3.2-.1.5.2.5 0-.2 0-.3-.3-.5-.2.1-.1.2-.1.3 0 .1-.1-.4-.3 0-.4h-.2c.1 0 .1-.1.2-.2 0-.1-.3-.4 0-.4 0 0 0-.3-.2-.2-.1.2.1.2-.1.3.2-.1 0-.3-.1-.3h.1c0-.1 0-.2-.1-.2h.2l-.2-.1c-.1-.2.3-.1.3-.3l.1.2s.1-.1.1-.2c-.2 0-.4-.1-.5-.2s.2-.1 0-.2l.2.2c.1 0 .3-.1.3-.3-.1-.1-.3-.3-.4-.1 0-.1.1-.2.2-.2-.1-.2-.2 0-.3-.2l.4-.4.3.2v-.1c.2.2.2-.1.4 0 0-.1 0-.2-.1-.3-.4.2-.5-.3-.8-.2-.1-.3.8-.2.3-.5-.1.1-.3-.1-.2.1 0-.2-.3-.1-.2-.4.1.2.3-.2.5.1-.1 0-.1.2 0 .2.1-.1.3 0 .3-.2 0-.1 0-.3-.2-.3s0 .2-.2.1c-.1-.3.2-.3-.1-.4 0 .2-.2.2-.3.2l-.5-.5h.1c.1-.3-.2-.1-.2-.4l.3-.1c.2.1-.1.4.3.4 0-.2-.2-.3-.1-.4 0 0 0 .1.1.1 0-.1.5-.1.2-.4-.1-.1-.1 0-.3 0 0-.3-.2-.4-.2-.6.3 0 0-.3.3-.1-.1.1-.1.5.1.6.3-.1 0 .2.3.3 0-.2.3-.2.5-.3 0-.1-.1-.1-.1-.2-.1-.1-.1 0-.3 0 0-.3-.1-.5-.2-.7.1-.1.3-.1.3 0-.1-.3 0-.7 0-1-.3.2-.1-.3-.3-.2-.1.2-.3.3-.4.2 0-.1.1 0 .2 0-.2-.1.3-.2 0-.3.1.3.4.1.6.1-.1-.2.2 0 .2-.2-.1-.2-.2-.5-.3-.7.2-.3 0-.7 0-1 .1-.1.4 0 .4-.2s-.3.1-.2-.1h.1c-.1-.1.2-.5-.2-.5l.3.1s0-.1-.1-.1c.1 0 .2-.1.2 0 .2-.2 0-.3 0-.5l-.3.1c-.1-.3 0-.5 0-.8h.2l-.1-.2c.2 0 .3-.1.1-.2l.4.4c-.1.1-.2-.1-.4-.1-.1.1-.1.3.1.4 0-.1 0-.1-.1-.2.2 0 .2.1.4.2 0-.1.1-.1 0-.1.1.1.1.2.1.4-.1-.1-.1.1-.2 0 .2 0 .3.2.2.4-.2.2.1.4.1.6-.2-.1-.4-.2-.4-.4-.1.2 0 .2-.1.3.1.1.4.1.5.3H25c.1.2.3.2.3.4-.3.6-.3 1-.3 1.3h-.1c.3.2.1.6.3.8-.1.4.1.8-.1 1 .1.7.2 1.3.2 2l-.2-.1c.2.1-.1.1-.1.2.2-.2.2.2.4.3-.2.3 0 .7.2 1h-.1c.3.3 0 .6 0 1-.1 0-.2.1-.2.2.2.2.2.3.4.6 0 .2-.1.5-.1.7.3.8.1 1.6.3 2.3l-.2.1c.4.8 0 1.7.2 2.4l-.3-.1c-.1.2.1.5.3.4-.1.2.1.5-.1.7-.1.2.1.3.2.4a1.7 1.7 0 0 0 0 1v-.1c-.1 0-.2 0-.2.1.1.2-.1.6.3.4-.2.4.2 1.1-.1 1.1h.2s-.2.3 0 .2c0 .1-.2.2-.2.2l.2-.2c.1 0 0 0 0 .2 0 .1 0 .2.1.1.2-.2.3-.3.4-.3.4-.2.7-.4 1-.6v.1c.1-.4.8-.1.8-.6.1 0 .3-.1.3 0 .1-.3.7-.2.9-.6l-.1.1c.2 0 .3-.1.5-.2.1-.1.4-.3.4-.2v.1c.1.1-.1-.3.2-.1l-.1-.1h.2V71c0-.1 0-.1-.1-.3 0-.4-.1-.7-.1-1.1.2-.6.6 0 .3-.5.1 0-.1 0-.1 0-.1-.2.4-.3.2-.4-.2.1-.1-.1-.3-.1.1-.4.3-.5.2-.8h.1c-.3-.3-.1-.8-.5-1.1l-.3-5.8.1-5.7c.3-.5.3-.5.2-1 0 0 .1.1.1 0-.2 0 0-.3-.3-.4v-2.1c0 .1.2.2.2 0l-.1-.2h.1c0-.1-.2-.2-.2-.1V51s.1-.1.1-.2-.1-.1-.2 0h-.1s-.2.1-.3.2c-.2.2-.4.3-.6.5-1.4.4-2.6.8-3.7 1.7-.4.1-.6-.6-.1-1z"/><path d="M25 52.8c-.1 0-.2.2-.4.1.1 0 .3-.1.4-.1zm-1.2 4.3s-.1.1 0 0c-.1 0-.2 0-.1-.1-.1.1 0 .1.1.1zm-.1 1.1c-.1 0-.2-.3-.2-.4l.2.4zm-.4 1c-.1.1-.1.1-.1-.1 0 .1 0 .1.1.1zm.2.1c0 .1-.1.1-.1.2.1 0-.1-.2.1-.2zm-.3 2.2c0 .1.1.2 0 .2.1 0-.2-.2 0-.2zm.2 1c0 .1-.1.1 0 0 0 .2-.1.1-.1 0h.1zm6.4 11.3l-.1.1v-.1zm2.4-7.8c-.1-.1.1-.1.1-.1 0 .1-.1 0-.1.1zm-.6-4.4h-.2z"/></g><path d="M17.8 64.1L11 60.2l.1 15.6 6.7 3.9z" fill="#a1afb7"/><g class="R"><path d="M17.5 64.4c.2 0 0-.2.1 0-.1 0-.1.1-.1 0z"/><path d="M17.5 64.7c.5.6 0 1.3.4 1.9 0 .1-.3 0-.2.2.4.6.2 1.5-.1 2.2h-.1c-.1.1.2.3.2.4h-.2c.2 0 .1.3.2.3-.1.1-.2.1-.3.1l.2.1c.5.2 0 .6.2.9h-.1c.3.5.2 1.1.3 1.7h-.3c.2 0 .3.2.3.3-.2.1.2.3.1.4.2.1-.1.2.1.3l-.2.1c.3.1-.2.2 0 .3.1.1-.1.2 0 .3.1.2-.1.3.1.3-.2.1-.1-.2-.4-.1.3.7.2 1.5.2 2.2l-.2.2c0 .1 0 .3.2.3 0 0-.1 0-.1.1-.1.1.3.2.1.3-.1-.1-.1-.1-.2-.1.2.2.2.3.2.5l-.1-.1c.2.3 0 .3.1.5l-.1-.2c-.2.1.3.3.2.4 0-.1-.1-.1-.1-.2.3.4.2.7.3 1l-.1-.1c0 .3 0 .4.1.8 0 0-.1-.2-.2-.3s-.1-.2-.2-.2c.3.5-.2 0 .1.6-.2-.2-.6-.5-.7-.4 0-.1-.2-.5-.1-.5l-.2-.2c0-.2.1.1 0-.1h-.2c0 .2-.1.5-.4.4.1-.1-.1-.4 0-.4-.1.2-.2.3-.3.4-.1 0 0-.2-.1-.2 0 .1-.1.1-.1.1s-.4-.2-.3-.4c0-.1.1 0 .1-.1-.1-.1-.2 0-.3-.1s-.3 0-.3.2c0 0 .1-.2.1 0-.1.1-.3.1-.4 0 .1 0 .1-.1.1-.1-.3.1-.5 0-.7 0-.1.1.2-.2.2-.1-.1-.3-.6-.1-.7-.4 0 0-.1.2-.1.1-.1-.1 0-.2-.1-.2 0-.1-.1 0-.2 0s0-.1.1 0c-.1 0-.7-.1-.8-.3 0 .1-.3.2-.3.1l.1-.1c0-.1-.2-.1-.1-.2-.2.1.5.1.3.2 0-.2-.4.1-.2-.1-.1-.1-.3 0-.4-.2 0 0 .2-.2.1-.2-.2-.1-.1 0-.3 0h-.1c-.1.1-.1-.1-.2.1.1-.1-.4-.1-.2-.3l.1-.2c-.1 0-.3.1-.4.1v-.1c-.3.2-.2-.2-.5-.1l-.3-.3c0-.2 0-.3.1-.4-.1-.1-.2-.3-.1-.5 0 0 0 .1.1.1.1-.2 0-.2 0-.3 0 0 .2-.3.3-.4-.1-.1-.3-.1-.4-.1.3-.1-.2-.3.1-.5 0 0 .2.2.2.1.3-.1-.2-.2-.1-.4H10c.2-.1-.2-.3.1-.3-.1-.1.1-.2-.2-.2.2-.3-.1-.7.3-.9 0 0 0-.2-.1-.1s.1.1 0 .1c0 0-.1 0-.1-.1.1-.1.1-.2.3-.1.2-.2-.4-.2-.3-.5.1 0 .1 0 .1-.1l-.2-.2c0-.2.3-.1.4-.1 0-.1 0-.2-.2-.3l.2-.1c-.2.1-.1-.1-.2-.1.1 0 0-.1 0-.2-.1 0-.2.1-.2.2-.1 0-.1-.1-.2-.2.2 0 .1-.2.1-.2 0-.1-.2-.1-.2-.1.1 0 0-.1.1-.1 0 0-.1.1 0 .1.1-.1.2 0 .1-.2-.1-.1-.4 0-.2-.2 0 0 .1.1.2.1l.1-.2h-.1c-.2 0-.1-.2-.3-.3 0-.1.1-.2.1-.2.1-.1 0-.2-.1-.3 0 0 0-.2-.1-.2.1-.1.6 0 .4-.2 0-.1-.3-.2-.4-.2.1-.2-.2-.5.1-.7-.1 0-.1 0-.1-.1.1-.3-.2-.7.1-1 .1.1.2 0 .3 0-.1-.1.1-.1-.1-.1-.1 0-.2 0-.3.1.5.1.5-.2.6-.4-.1.1-.1 0-.2 0 .2 0 .3-.1.2-.3h-.1l.1-.1s-.3 0-.2-.2h.1c-.1-.1-.3-.3-.2-.4l.2-.1c0-.1-.1-.2-.2 0 .1-.2.1-.3.3-.4-.4-.4-.4-.9-.4-1.3h.1c.1-.1-.2-.1-.1-.2.1 0 .2-.1.4 0 .1-.2-.2-.2-.2-.3-.1 0 .1.1-.1.1 0 0 .1-.2-.1-.3h.3s-.1-.1-.1-.2c.1-.1.2 0 .4.1.1.1.3.1.4.1v-.1c.2-.1.3.3.3 0-.1-.1-.4-.3-.5-.1-.1-.3-.5-.2-.5-.6.1-.1 0 .3.2.3.2-.1-.1-.3 0-.5-.1.2-.3 0-.4-.2.1-.2.2.2.2-.1-.1-.1-.2-.4-.3-.2-.3-.3.1-.3-.1-.5.2 0 .4.6.6.3-.2-.1-.3-.5-.5-.6.1-.1.2 0 .3.2.1-.1-.4-.7 0-.4l-.2-.3h.2c0-.1-.3-.8 0-.4 0-.1 0-.4-.2-.5-.1.1.1.4-.1.2.2.1 0-.4-.1-.6l.1.1c0-.2 0-.3-.1-.5.1.2.1.2.2.2l-.2-.3c-.1-.5.3.4.3 0l.1.4c0-.1.1.1.1-.2a4.67 4.67 0 0 1-.5-1v-.1c.1 0 .2.3.2.2v.2s0 .1.1.1c.1.2.4.4.5.5.1 0 .1-.3-.2-.5.1.1.3.3.3.4.2 0-.2-.3 0-.3.2.2.5.6.7.9v.3l.1.1c0 .2.2.3.2.6.1.1.1 0 .2 0-.4-.6 0-.5-.2-1 .4.1.5 1.2.7.7-.1-.2.1-.3-.2-.4.2.2.1-.3.4 0-.2 0 .2.5 0 .6 0-.1-.2-.2-.2-.2.1.2 0 .4.2.5.1 0 .3.1.3-.1s-.2-.1-.1-.3c.3.1.3.4.4.1-.2-.1-.2-.3-.2-.5h.2l.1.1c.3.3.1-.2.5.1l.1.3c-.1.2-.5-.4-.5 0 .2.1.3 0 .5.2h-.2c.1.1 0 .5.3.4.2 0 .1-.1.2-.2.3.1.4 0 .5.1-.1.2.2.2-.1.3 0-.2-.3-.3-.5-.2 0 .3-.2-.2-.4.1.2.1.1.4 0 .6h.2c.1-.2 0-.2.1-.3.1.2.4.2.5.1 0 .1-.1.3-.2.2.2.1.4.2.6.4 0-.3.3.1.3-.2-.1-.1-.1-.3.1-.4.1.1-.1.1-.1.2.2-.1 0 .3.2.1-.2 0-.2.3-.4.5.2 0-.1.1 0 .2h.6c.1.3.5.3.6.4 0 .2-.2.3-.1.4s.1-.3.2-.1c.1 0 .2.3.5 0l-.2.2h.1c0 .1 0 .2-.1.2 0 .2.2.1.4.2v-.2c.3 0 .3.2.5.3l-.1.1h.2c-.1.1-.1.3.1.2l-.4.3c0-.1.2-.1.2-.3s-.2-.2-.3-.1c.1.1.1 0 .2 0-.1.2-.2.2-.3.3 0 0 .1.1.1 0-.1.1-.2 0-.3 0 .1 0 0-.2.1-.2-.1.2-.3.2-.4 0 0-.3-.3 0-.4-.2.2-.1.3-.2.5-.3 0-.2-.1-.1-.2-.2-.1.1-.3.3-.4.3l.1-.1c-.2 0-.3.2-.4.1a3.04 3.04 0 0 0-.7-.5l.1-.1c-.3.2-.4-.1-.6-.1-.2-.3-.6-.2-.6-.5-.6-.2-.7-.1-1-.4v-.2c0 .2-.1-.2-.1-.2.1.3 0 .2 0 .4-.2-.3-.3-.2-.3 0l-.3-.2c.1.3-.1.1-.2-.1-.1-.1-.2-.3-.2-.2.2.5.2.5.4.8 0 .1-.1.1-.1.1.2.3.2.4.2.5 0 .2 0 .2.1.5H12c.4.6 0 1.3.2 1.8h-.3c-.1.2.1.3.3.3-.1.2.1.4-.1.5-.1.3.1.3.1.4a.85.85 0 0 0 0 .7v-.1H12c.1.1-.1.4.3.3-.2.3.2.7-.1 1.1.1 0 .1.1.2.1 0 .3-.2.6 0 .8 0 0-.2-.1-.2 0s.1 0 .2.1c.2.4-.2.9-.1 1.3.2.7.1 1.5.1 2.2h-.1c.3.2-.3.6.1.7-.1.1 0 .2-.2.2.2.2-.2.5.1.8v-.1c-.1.1-.1.3 0 .4v.2h-.1c-.1.1.3 0 0 .2 0 0 .2 0 .2-.1v.1c.1.1.2.1.3.1s.5.2.7.3c.3.4-.3.5.2.5 0 .1.1-.1.1 0 .2 0 0 .4.2.3.1-.2.1-.1.2-.2.2.3.1.4.4.4l-.1.1c.4-.1.6.2.9 0l.9.4.2.1h.1c.1 0 .1-.1.1-.1V76c0-.3 0-.7.1-1.1.3-.3.3-.4.2-.7h.1c-.2 0 0-.3-.3-.3v-1.6c0 .1.2.1.2 0l-.1-.1h.1c0-.1-.2-.2-.2-.1-.2-1.4.3-2.7.2-4.1.1-.3 0-.8 0-1.1.3-1 .6-2 .4-3-.6.2.1.4.2.8z"/><path d="M17.3 64.3c0-.1 0-.2.1-.3 0 .1 0 .2-.1.3zm-2.2-2.7c0 .1 0 0 0 0 0-.1.1-.2.1-.1 0 0 0 .1-.1.1zm-.7-.4c.1-.1.3-.1.4 0h-.4zm-.4-.8c-.1-.2 0-.2.1-.1 0 0-.1 0-.1.1zm-.2.1c-.1-.1-.1-.1-.1-.2-.1.1.2.1.1.2zm-2.6-1.8c-.1 0-.1 0-.3-.2.1.2.3 0 .3.2zm-1.1-.5l-.1-.1c-.1 0-.1-.1-.1-.1l.2.2zm.2 15.9l-.1-.1h.1zm4.2 4.6c.1 0 0 .1 0 .1-.1 0 .1-.1 0-.1zm3.5 1.4l-.2-.3z"/></g><path d="M24.6 60.2l-6.8-3.9-6.8 3.9 6.8 3.9z" fill="#d3e7f1"/><g class="R"><path d="M24.3 60.5c.1 0 0-.2.1 0 0 0-.1.1-.1 0zm-.2-.4c0 .7-.7.4-.9.9 0 0-.1-.3-.2-.2-.1.6-.8.7-1.4.6v-.1c-.1 0-.1.3-.2.3 0 0 0-.1-.1-.2.1.2-.1.2-.1.3-.1 0-.1-.2-.2-.2v.2c.1.5-.3.2-.4.5v-.1c-.1.4-.5.6-.8.9 0-.1-.1-.2-.1-.2.1.2 0 .3-.1.4-.1-.2-.1.3-.2.2 0 .2-.2 0-.1.2l-.1-.1c.1.3-.2-.1-.2.1v.1c0 .1-.1 0-.2.1-.1.2-.3 0-.1.3-.1-.1.1-.2-.1-.3-.2.3-.5.5-.9.7l-.4-.3v-.3H17v-.2c0-.1-.2.2-.3 0 .1 0 .1-.1.1-.2-.2.1-.3 0-.4 0 0 0 .1 0 .1-.1-.2.1-.1-.1-.3-.1l.1-.1c0-.2-.2.2-.3.1l.1-.1c-.2.2-.4 0-.5 0s-.2-.2-.4-.2c0-.1.2-.3 0-.3-.1.2-.3 0-.4.3-.1-.1-.2-.3-.3-.3.1-.1.1-.3.2-.3v-.2c.1-.1 0 .1.1-.1 0 0-.2 0-.3-.1-.2.1-.4.3-.5.3.1-.1.1-.3.2-.3l-.4.3s.1-.2 0-.2c0 .1-.1.1-.1.1s-.2 0-.1-.3c0-.1.1 0 .1-.1h-.2v-.1c0-.1-.2 0-.2.2 0 0 .1-.2.1 0-.1.1-.2.1-.3.1 0 0 .1-.1.1-.2-.2.1-.3.1-.6.1-.1.1.2-.2.2-.1-.1-.3-.6-.1-.6-.4l-.1.1c-.1-.1.1-.2-.1-.2.1-.1-.1 0-.2 0s0 0 .1 0c-.2 0-.8-.2-.8-.4h-.5l.3-.1c.1-.1-.2-.1 0-.2-.4 0 .7.2.3.2.1-.1-.6 0-.2-.1 0 .3-.4.3-.2.1 0 0 .4 0 .3-.1-.2-.1-.2 0-.4-.1h-.2c-.3 0-.1-.1-.3 0 .2 0-.4-.1.1-.2h.4-.6c-.6 0-.1-.1-.7-.1 0 0-.1-.1-.1-.2.1 0 .2-.1.5-.1-.1-.1-.2-.2.1-.2h.1c.3 0 .1-.1.1-.1.1 0 .5-.1.7-.1-.1-.1-.4-.1-.5-.1.6 0 0-.3.6-.2 0 0 .1.2.3.1.5.1-.1-.2.2-.2H11c.3 0 .1-.2.4-.1-.1-.1.3-.1 0-.2.5 0 .6-.5 1.1-.3 0 0 .1-.1 0-.2-.2-.1 0 .1-.1.1v-.1c.1 0 .2 0 .3.2.3 0-.1-.4.2-.5 0 .1.1.1.1.1V58c.1 0 .2.2.3.3 0-.1.1-.1.1-.2l.2.2c-.1-.1 0-.1 0-.2v.1c0 .1.1 0 .1-.1-.2-.1-.3-.1-.4-.1v-.2c.1.2.1.1.2 0 .1 0 0-.2 0-.2 0 .1.1 0 .1.1 0 0-.1-.1-.1 0 .1 0 .1.2.1 0 0-.1-.2-.3 0-.3v.2h.1l-.1-.2v.1c-.1-.2.1-.1 0-.3h.2c.1.1.1 0 .1-.2 0 0 .1-.1.1-.2.1.1.3.5.3.3.1 0 0-.3-.1-.4.2 0 .2-.3.4-.2v-.2c.2-.1.3-.4.6-.2 0 .1.1.2.1.2 0-.2.1.1 0-.1-.1-.1-.1-.2-.2-.2a.76.76 0 0 1 .4-.2c-.1 0-.1-.1-.1-.2.1.2.2.2.2.1l.4.3.1.1c0-.1-.1-.3 0-.2l.1.1c0-.2 0-.4.1-.3.1 0 .1.1.2.2 0 0 .1-.2-.1-.2.3 0 .4-.1.5.1.1-.4.4-.7.8-.9.2.1.3.2.5.3v.1c.1.2.1-.2.2 0-.1.1 0 .3-.1.3.1.2.2-.1.4-.1.1-.1-.1 0 0-.1 0 0 .2.2.3.1 0 .1-.1.2-.1.3h.1c0 .3-.4.3-.4.6h.1c0 .2-.3.2-.1.3.1-.1.3-.3.3-.4.2 0 .3-.4.5-.3 0 .1-.1 0-.2.1 0 .2.2 0 .2.1 0-.1.1-.3.2-.3 0 .1-.1.2-.1.2.1-.1.2-.1.2-.3.2-.2.1.1.2 0-.1.2-.3.3-.3.5.1-.2.3-.2.3-.4 0 .1-.1.2-.1.3s.3-.2.1.1l.1-.2v.2s.3-.1.1.1c0 0 .1.1.2-.1 0-.2-.2.1-.1-.2-.1.2.1 0 .2 0v.1s.1 0 .2-.1c-.1 0-.1.1-.1.2l.1-.1c.1 0-.1.3 0 .3l-.1.1s0 .2.1.1.2-.3.3-.4c.1 0-.1.2.1.1l-.2.1s-.1.3 0 .3.3-.2.2-.3v.2c.1 0 .1-.2.2-.2v.5l-.2.2c-.2.2 0 .2-.2.3h.2c.1-.4.4-.3.5-.6.2 0-.3.7.1.4 0-.1.2-.3.1-.2.1.1.2-.3.3-.1-.1.1-.1.3-.3.4.1-.1 0-.1-.1-.1 0 .1-.2.3-.1.3s.1 0 .2-.1c.1-.2-.1 0 0-.2.1 0 0 .3.2 0-.1 0 0-.2.1-.3h.1l-.1.1c.1.2.1-.2.3-.1l-.1.3c-.1.2-.1-.2-.3.1.1.1.2-.1.2 0H22s-.2.4.1.3c.1-.1.1-.1.1-.2h.4c-.1.2.1.1-.1.3 0-.2-.2-.3-.3-.1-.2.3-.2-.1-.4.2.1.1 0 .3-.1.5h.1c.1-.2.1-.2.1-.3.1.1.3.1.4 0 0 .1-.1.3-.2.2.2 0 .3.2.4.3.1-.3.2 0 .3-.2 0-.1 0-.3.1-.4 0 0-.1.1-.1.2.1-.1 0 .3.1.1-.2 0-.2.3-.3.5.2-.1-.1.1 0 .2.2-.1.3-.1.4-.1 0 .3.3.2.4.3 0 .1-.2.3-.1.4.1 0 .1-.3.1-.1.1 0 .1.3.3 0l-.2.2h.1c0 .1-.1.2-.1.2 0 .2.2.1.2.1v-.2c.2 0 .2.2.4.2l-.1.1h.1c-.1.1-.1.3 0 .2l-.1-.1c0-.1.2-.1.2-.3 0-.1-.1-.2-.2 0h.1c-.1.2-.2.2-.3.3 0 0 0 .1.1 0-.1.1-.2.1-.2 0 .1 0 0-.1.1-.2-.1.2-.2.2-.3.1 0-.2-.3 0-.3-.1.1-.2.3-.3.4-.3 0-.1-.1 0-.1-.2-.1.1-.3.3-.4.3l.1-.1c-.1 0-.2.2-.3.1-.1-.2-.3-.3-.4-.4l.1-.1c-.2.2-.3 0-.5 0-.1-.2-.4-.1-.4-.4-.4-.1-.7-.1-1-.3l.2-.2c-.1.1 0-.1 0-.1 0 .2-.2.2-.3.3-.1-.2-.3-.2-.5-.1l.1-.1c-.3.2-.3-.1-.4-.3 0-.1.1-.2 0-.2-.2.2-.2.1-.4.2l-.3-.3c-.5.1-.9-.4-1-.2v-.2c-.1.1-.1.1-.2.1s-.2 0-.2.2l-.1-.3c-.1-.1-.1.1 0 .3-.1-.1-.1.3-.3.1-.1 0 0 .2-.1.3-.3 0-.3.1-.4.2h.1c0-.1-.1-.2-.1-.2 0 .1-.3.1 0 .3-.3-.1-.4.4-.7.3.1.1 0 .1 0 .2-.2.1-.4 0-.5.3 0 0 0-.2-.1-.1 0 .1.1.1 0 .2-.2.3-.6.2-.9.3-.2.2-.4.3-.6.5-.1 0-.1 0-.1.1h-.1c.3.2-.4-.1 0 .1-.1 0-.1 0-.2-.1.2.1-.3 0 0 .1-.3 0 0 .1-.3.1h-.2c-.3 0 .5.1-.2 0h.2c.1.1.5.1.6.1-.2.1-.8.2-.4.2-.1 0 .2-.1.1 0 .1 0-.4.2-.2.2.2-.1.1 0 .3-.1-.1.1-.2.3 0 .2l-.1.1c.3-.2.3 0 .6-.3l1.2.5 1.3.6 1 .6.2.1v.1c.1.3.1.3.2.1v.1c-.1-.2.1-.1 0-.3.3-.2.6-.4.9-.5 0 .1 0 .2.1.2v-.1c0-.1 0-.2-.1-.2.7-.6 1.7-.7 2.5-1.2.2 0 .5-.3.6-.4.8-.1 1.4-.2 1.9-.7.3-.4.5.2.3.4zm.1.3c0-.1 0-.2.1-.3 0 .1-.1.2-.1.3zM23 58.3c-.1 0 0-.1 0 0 0-.1.1-.1 0 0 0-.1 0 0 0 0z"/><path d="M22.5 58c.1-.1.2-.1.3-.1l-.3.1zm-.2-.7c0-.1 0-.1 0 0zm-.2.2v-.2c0 .1.1.1 0 .2zm-.8-.8s-.1 0 0 0c-.1 0 .1-.1 0 0zm-.5-.1s0-.1 0 0v-.1.1zM11 59.3v-.1l.1.1zm2.2 3c.1 0 0 .1 0 .1-.1.1 0 0 0-.1zm2.2.7h-.1l.1-.2z"/></g><path d="M17.8 64.1v15.6l6.8-3.9V60.2z" fill="#b1c5d2"/><g class="R"><path d="M18.2 64.2c0-.2-.2.1-.1-.1.1 0 .1.1.1.1z"/><path d="M18.4 64.1c.2-.8 1.1-.6 1.5-1.3 0-.1.1.3.2.1.3-.7 1.2-.9 2-1v.1c.1 0 .2-.3.3-.4 0 .1 0 .1.1.2 0-.2.1-.2.2-.3.1 0 .1.2.1.2v-.2c.1-.6.4-.2.7-.6 0 .1-.1.1-.1.2.4-.5.8-.7 1.2-1 0 .2 0 .3.1.4-.1.1-.2.2-.3.4.2-.3.3-.2.3 0-.2.3.2.1.1.4.2 0-.1.3.1.2l-.2.2c.3-.1-.2.3 0 .3h.1c.1.1-.1.2 0 .3.1.2-.1.4.1.4-.2.1-.1-.2-.4 0 .3.7.2 1.5.2 2.2l-.2.2c0 .1 0 .3.2.3 0 0-.1 0-.1.1-.1.1.3.2.1.3-.1-.1-.1-.1-.2-.1.2.1.2.3.2.4l-.1-.1c.2.2 0 .3.1.4l-.1-.1c-.2.2.3.1.2.3h-.1c.3.2.2.5.3.7h-.1c0 .2 0 .4.1.6-.1.1-.3 0-.3.2.3 0 .1.4.4.2 0 .2-.1.5-.1.6-.1-.1-.3.1-.4-.1l-.2.2c-.1 0 0-.1-.1-.1 0 .1.1.3.1.4.2.2.5.3.5.5-.1-.1-.3.1-.4 0l.5.3c0 .1-.2 0-.1.1.1 0 .1 0 .2.1 0 0 .1.3-.2.3-.1 0-.1-.1-.1 0 0 .2.1.2.1.3s.1.3.3.2c0-.1-.2 0-.1-.1.2.1.2.2.2.4 0 0-.1 0-.2-.1.2.2.3.4.4.6.1 0-.2-.1-.2-.1-.2.3.3.6 0 .8h.1c0 .1-.2.1-.1.2-.1 0 0 .1.1.2.1 0-.1 0-.1-.1.1.1.3.6.1.9.1 0 .3.2.3.2h-.2c-.1.1 0 .2-.1.2.2.1-.2-.5 0-.3-.1 0 .3.3 0 .2 0 .1.2.3 0 .4 0 0-.2-.1-.2 0 0 .2.1.1.1.2l.1.1c.2 0 0 .2.2.1-.1 0 .1.4-.2.3l-.2-.1c0 .1.2.2.3.3h-.1c.3.1 0 .3.2.5-.1.1-.1.3-.1.4-.1.1-.3.1-.4.1-.1.2-.1.3-.4.4 0 0 .1-.1 0-.2-.2 0-.1.1-.2.2 0-.1-.4 0-.5-.1-.1.2.1.3.1.4-.3-.2-.2.4-.5.2 0-.1.1-.2 0-.3-.3-.2-.1.3-.3.3l.2.2c-.2-.1-.2.3-.3 0 0 .1-.2 0-.1.3-.4 0-.6.5-1 .2 0 .1-.1.1 0 .2s0-.2.1-.1v.1c-.1 0-.2 0-.2-.2-.3 0 0 .5-.3.5 0-.1-.1-.1-.1-.1v.2c-.2 0-.2-.2-.3-.3-.1.1-.2.1-.1.3l-.2-.2c.2.1 0 .1 0 .2v-.1c-.1-.1-.1 0-.2.1.1.1.2.1.3.1 0 .1-.1.1-.1.2-.1-.2-.2 0-.3 0s0 .2-.1.2c0-.1-.2.1-.2-.1 0 0 .1 0 .1-.1-.1 0-.2-.2-.3 0s.2.3-.1.3c0-.1 0-.2.1-.2H20v.1c0 .2-.3.2-.3.5-.1.1-.2 0-.3 0s-.3.1-.4.3c-.1 0-.2.2-.3.3-.1-.1.2-.8-.1-.4-.1.1-.4.6-.4.7-.2 0-.8.6-.9.4-.1.1-.1.2-.3.3-.1 0-.1.1-.2.1 0-.4-.2-.8.1-1.5.1.1.2-.2.3-.3-.1.1.1-.3-.1-.1-.1.2-.2.3-.3.5-.1-.2-.1-.8.1-1.1-.1.2-.1.1-.2.1.2-.2.3-.4.2-.5l-.1.1.1-.2s-.3.1-.2-.2c.1 0 .1-.1.1-.1-.1-.1-.3-.4-.2-.6l.2-.2c0-.1-.1-.2-.2-.1.1-.4.1-.4.3-.5-.4-.4-.5-.9-.4-1.3h.1c.1-.1-.2-.1-.1-.2.1 0 .2-.1.4 0 .1-.2-.2-.2-.2-.3-.1 0 .1.1-.1.1 0 0 .1-.2-.1-.3h.3l-.1-.1c.3-.1.4.3.7.2v-.1c.2-.1.3.3.3 0-.1-.1-.4-.2-.5-.1-.1-.2-.5-.1-.5-.3.1-.1 0 .2.2.1s-.1-.2 0-.3c-.1.1-.3 0-.3-.1.1-.1.2.1.2-.1-.1 0-.2-.2-.3 0-.3-.1.1-.2-.1-.3.2-.1.5.2.5 0-.2 0-.3-.2-.5-.1.1-.1.2-.1.3 0 .1-.1-.4-.3 0-.3h-.2c.1 0 .1-.1.2-.1 0-.1-.3-.3 0-.3 0 0 0-.2-.2-.2-.1.1.1.2-.1.2.2-.1 0-.2-.1-.3h.1s0-.2-.1-.2c-.1-.2.3 0 .3-.2l.1.1s.1-.1.1-.2c-.2 0-.4-.1-.5-.1-.1-.1.2 0 0-.2l.2.1c.1 0 .3-.1.3-.2-.1-.1-.3-.2-.4-.1 0-.1.1-.2.2-.1-.1-.2-.2 0-.3-.1.1-.1.3-.2.4-.3l.3.1v-.1c.2.1.2-.1.4 0 0-.1 0-.1-.1-.2-.4.2-.5-.2-.8-.2-.1-.3.8-.2.3-.4-.1 0-.3-.1-.2.1 0-.2-.3-.1-.2-.3.1.1.3-.2.5 0-.1 0-.1.1 0 .1.1-.1.3 0 .3-.2 0-.1 0-.2-.2-.2s0 .2-.2.1c-.1-.2.2-.2-.1-.3 0 .1-.2.2-.3.2l-.1-.1h.1c.1-.2-.2-.1-.2-.3l.3-.1c.2 0-.1.3.3.3 0-.1-.2-.2-.1-.3 0 0 0 .1.1.1 0 0 .5-.1.2-.3-.1-.1-.1 0-.3 0 0-.2-.2-.3-.2-.4.3 0 0-.3.3-.1-.1.1-.1.4.1.5.3-.1 0 .2.3.2 0-.2.3-.2.5-.2l-.1-.1h-.4c0-.2-.1-.4-.2-.5.1-.1.3 0 .3 0-.1-.2 0-.5 0-.7-.3.2-.1-.3-.3-.2a.76.76 0 0 1-.4.2c0-.1.1 0 .2 0-.2-.1.3-.2 0-.3.1.2.4 0 .6.1-.1-.2.2 0 .2-.2-.1-.2-.2-.3-.3-.5.2-.2 0-.6 0-.7.1-.1.4 0 .4-.2 0-.1-.3.1-.2-.1h.1c-.1-.1.2-.3-.2-.4l.3.1s0-.1-.1-.1h.2c.2-.1 0-.3 0-.4l-.2.1c-.1-.2 0-.4 0-.6h.2l-.1-.1c.2 0 .3-.1.1-.2l.4.3c-.1.1-.2-.1-.4 0-.1 0-.1.3.1.3 0-.1 0-.1-.1-.1.2 0 .2.1.4.2 0 0 .1-.1 0-.1.1.1.1.2.1.3-.1-.1-.1 0-.2 0 .2 0 .3.1.2.3-.2.1.1.3.1.5-.2-.1-.4-.2-.4-.3-.1.1 0 .1-.1.3.1.1.4.1.5.3h-.1c.1.1.3.1.3.3-.1.3-.1.6-.1.8h-.1c.3.1.1.4.3.6-.1.3.1.6-.1.8.1.5.2 1 .2 1.5l-.2-.1c.2.1-.1.1-.1.2.2-.1.2.1.4.2-.2.2 0 .5.2.7H19c.3.2 0 .5 0 .7-.1 0-.2.1-.2.2l.4.4c0 .2-.1.4-.1.6.3.6.1 1.2.3 1.8h-.2c.4.6 0 1.3.2 1.8h-.3c-.1.2.1.3.3.3-.1.1.1.1-.1.2-.1.1.1 0 .2 0-.1.2-.1.2 0 .2l-.2.2c.1 0-.1.3.3-.2-.1.3 0 .1 0 .2v.2c.1-.2.1-.2.2-.3 0 0 0 .2.1 0 0 .1-.1.2-.1.2 0-.1 0-.2.1-.3.1-.3.2.1.3 0 .4-.4 1.2-.8 1.8-1.2v.1c.1-.3.6 0 .6-.5.1 0 .2-.1.2.1.1-.3.5-.1.7-.4v.1c.2 0 .3-.1.4-.2s.1-.1.2-.1c0 0 0 .1.1.1.1.1-.1-.3.1 0l-.1-.1h.1c0-.1 0-.2-.1-.3 0-.1-.1-.5-.1-.8.2-.5.6 0 .3-.4.1 0-.1 0-.1 0-.1-.2.4-.2.2-.3-.2 0-.1-.1-.3-.1.1-.3.3-.3.2-.6h.1c-.3-.3-.1-.6-.5-.8l-.3-4.3c.1-1.4-.1-2.8.1-4.3.3-.3.3-.5.2-.5h.1c-.2 0 0-.1-.3 0v-.1l.2-.3-.1.2.1-.1s-.1.2-.2.3v.1c0 .1.1-.1 0-.2 0 0 0-.1-.1 0-.3.1-.5.3-.8.4s-.7.4-1 .6c-1.1.3-2 .5-2.8 1.2-.8.1-1-.5-.7-.8z"/><path d="M18.2 64.4c-.1 0-.2.2-.4.1.2 0 .3-.1.4-.1zM17 67.7s-.1 0 0 0h-.1c0-.1 0-.1.1 0zm-.1.8c-.1 0-.2-.2-.2-.3l.2.3zm-.4.7c-.1.1-.1 0-.1 0h.1zm.2.1c0 .1-.1.1-.1.1.1 0-.1-.1.1-.1zm-.3 1.7s.1.1 0 .2c.1-.1-.1-.3 0-.2zm.2.7c0 .1-.1.1 0 0 0 .1-.1.1-.1 0h.1zm6.9 5.7l-.1.1v-.1zm1.9-6c-.1-.1.1-.1.1-.1 0 .1-.1 0-.1.1zm-.5-3.3h-.3z"/></g></svg>