<svg xmlns="http://www.w3.org/2000/svg" viewBox="0 0 52.4 52"><style><![CDATA[.J{fill:#202020}.K{fill:#cfad41}]]></style><path d="M44.1 31.5c-3-3.6-9.8-6.1-17.8-6.1-7.9 0-14.7 2.5-17.8 6.1H6.9v4.2c0 5.7 8.7 10.3 19.4 10.3s19.4-4.6 19.4-10.3v-4.2h-1.6z" class="K"/><g class="J"><path d="M43.7 31.5c.3.2 0-.2.2.1-.1 0-.1 0-.2-.1zm1.5.1c.2-.1.3-.1.5-.1.1.4.1 1.1 0 1.7 0 .6 0 1.2.1 1.7 0 .1-.2 0-.2.3.1.3.1.7.1 1 0 .4-.1.8-.2 1.2-.3.8-.8 1.5-1.4 2v-.1c-.2.2-.3.6-.5.8 0 0 0-.1-.1-.1 0 .1-.3.4-.4.6h-.3v.2c-.1.6-.9.7-1.4 1.2v-.1c-.4.4-.9.7-1.4 1a11.94 11.94 0 0 1-1.6.8c0-.1 0-.2-.1-.2 0 .2-.3.3-.6.5-.2-.1-.5.3-.8.4-.2.2-.4 0-.6.3l-.2-.1c-.1.2-.4 0-.6.2-.2.1-.3 0-.5.1-.4.2-.7.1-.7.3-.2-.1.4-.2.1-.3-1.4.5-3 .8-4.5.9-.2 0-.3-.1-.3-.1-.1 0-.6.1-.7.2.1 0-.1-.1-.2-.1-.3 0-.3.2-.6.1.1 0 .2-.1.1-.2-.2.3-.5.3-.8.3 0 0 .1 0 .1-.1-.3.2-.6 0-.9.1l.1-.1c-.5-.1-.1.2-.6.1.1 0 .1-.1.1-.1-.4.2-1 .1-1.4.1s-.9-.1-1.3 0c-.2-.1.1-.2-.4-.2 0 .2-.8 0-.5.2-.4-.1-1-.2-1.2-.2.2 0-.2-.2.2-.2l-.2-.1c0-.1.2.1.2 0-.2 0-.6 0-.8-.1-.3.1-.6.2-1.1.2.2 0-.1-.2.1-.2l-.8.1c-.2 0 0-.1-.2-.1 0 .1-.1.1-.2.1s-.7-.1-.7-.3c0-.1.3 0 .1-.1-.3-.1-.3 0-.6-.1-.2-.1-.6-.1-.4.1.1 0 0-.1.2 0-.2.1-.5 0-.8-.1.1 0 .1 0 .2-.1-.4 0-.8-.1-1.3-.1 0 .1.2-.1.3 0-.5-.3-1.2-.3-1.5-.6.1 0 0 .1 0 .1-.3-.1-.2-.2-.4-.3 0-.1-.2-.1-.4-.1-.1 0 0-.1.1 0-.3-.1-1.2-.4-1.7-.8 0 0-.4 0-.5-.1l.1-.1c-.1-.1-.4-.2-.4-.3-.3 0 1 .5.6.4 0-.1-.6-.1-.4-.2-.2-.1-.5-.2-.7-.4.1.1.3 0 .1-.1-.3-.2-.1 0-.4-.2l-.2-.1c-.1.1-.3-.2-.2 0 0-.1-.5-.3-.3-.5l.1-.1c-.1-.1-.3-.1-.5-.1v-.1c-.2.2-.3-.3-.5-.3-.2-.3-.6-.7-.6-.9-.2-.2-.4-.4-.6-.7.1 0 .1.1.2.1-.1-.4-.2-.4-.3-.5 0 0-.1-.4-.1-.7-.1-.2-.2-.1-.3-.1.1-.3-.4-.7-.3-1.1.1.1.2.4.2.1.1-.2 0-.3-.1-.4s-.2-.3-.1-.5l-.2.1c.1-.2-.2-.6 0-.6-.1-.1.1-.5-.1-.4.2-.6-.1-1.6.2-2 0-.1 0-.3-.1-.3-.1.2.1.2 0 .3 0-.1-.1-.1-.1-.1 0-.2.1-.4.2-.2.1-.5-.3-.4-.2-1.3.1.1.1 0 .1-.2l-.1-.5v-.2c.4 0 .3.2.4.3.2 0 .6 0 .6-.1.1.1.3.1.4.2-.2-.2.3-.1.4-.1h-.1c.1.1.3 0 .3 0 0-.1-.1-.1-.4-.1.2-.1.3 0 .3-.1 0 .1.2.1.2 0 .1 0 0-.2 0-.2 0 .1.2-.2.2 0 0 .1-.1.1-.1.1.1 0 .1.1.3-.2.1-.2-.2-.1.1-.3-.1.1 0 .1 0 .2.1-.1.2-.1.3-.2H9h.1c0-.2.4-.4.3-.5.1-.1.3-.2.5-.3s.4-.3.5-.4.3-.2.4-.3c.3-.1.3.3.5 0 .2-.2.3-.4.1-.4.5-.2.9-.6 1.4-.7 0-.1 0-.1.1-.2.7-.3 1.4-.8 2-.8-.2.1 0 .1.1.2.1-.2.2 0 .2-.2-.1-.1-.1-.1-.3-.1.4-.2 1-.4 1.3-.4-.1 0 0-.1 0-.1 0 .2.3.1.5 0V26l.2.1c.1-.1 0-.2.3-.2 0 0 0 .1.1.1.2-.1.5-.4.8-.4l.2.1c.1 0 .3-.2.1-.2.5 0 .8-.1.9 0 .7-.5 1.9-.7 2.8-.7v.1c.3 0 .1-.1.3-.1-.1.1.2.1 0 .2.4 0 .4-.2.7-.2 0-.1-.2.1-.1 0 0 0 .5 0 .5-.1.1.1 0 .2 0 .2l.2-.1c.3.1-.6.3-.3.5h.2c.2.1-.5.2 0 .2.2-.1.4-.3.2-.4.4-.1.2-.4.7-.4.1.1-.4 0-.3.2.2.1.5-.1.7-.1-.2 0 0-.2.1-.2.2.1-.2.1.2.1.1-.1.4-.2.1-.2.1-.2.4 0 .6-.1.1.1-.4.3 0 .4-.1-.1.5-.2.3-.4.2 0 .2.1.1.2.2.1.5-.2.6 0l.1-.1c.1 0 .2.1.3.2.2 0 .6-.2.6 0 .1 0 .5 0 .3-.1-.3-.1-.3.1-.5-.1.2.2.4 0 .5-.1v.1c.1 0 .3 0 .4-.1-.1 0 0 .1 0 .1l.1-.1c.4 0 .1.2.4.2l-.3.1c.1 0 .2.1.4.1l.3-.3c.2 0 .1.1.3 0l-.3.1s.2.2.4.2.5-.1.2-.2c.1 0 .3.1.2.2.3 0 0-.1.2-.2.1.1.4.2.6.4l-.3.1h.2c-.3.1.1.1 0 .3h.4c-.3-.3.5-.3.4-.5.5 0 .2.6.8.3-.1-.1.2-.2-.1-.2.3.1.3-.2.6 0-.3 0 .3.3-.2.3 0-.1-.2-.1-.3-.1.1.1-.1.2.3.3.2 0 .5.1.5-.1 0-.1-.3 0-.2-.1.4 0 .4.2.6 0-.2 0-.3-.2-.3-.3h.3l-.1.1c.4.2.2-.1.6 0l.2.2c-.1.1-.6-.2-.6 0 .3.1.4 0 .7.1h-.2c.1 0 .1.3.6.3.2 0 .1-.1.1-.1.5.1.6.1.9.1-.1.1.5.2.1.2-.1-.1-.8-.3-1-.2.1.2-.4-.1-.5.1.4.1.3.3.3.4h.3c.1-.1-.1-.1 0-.3.4.1.8.2 1.1.1.1.1 0 .2-.1.2.5.1 1 .3 1.4.5-.2-.3.5.1.4-.1-.2-.1-.4-.3-.2-.4.1.1 0 .1 0 .1.2 0 .2.3.5.2-.5-.1-.2.2-.3.3.3 0-.1.1.3.2.3 0 .7.1 1.1.3.4.3 1.1.5 1.4.7.1.2-.1.3.1.4s-.1-.3.2 0H41c.1 0 .6.5.8.3l-.3.3c.1.1.1.1.2.1 0 .1 0 .1-.1.1.1.2.4.3.7.4l-.1-.2c.4.2.6.5 1 .8l-.2.1.2.1c-.1 0 0 .2.2.3l-.7-.3c-.1-.2.2 0 .2-.1s-.3-.4-.5-.3c.1.1.1.1.3.1-.1.2-.2 0-.4 0 .1 0 .1.2.2.1-.2 0-.3-.1-.5-.3.2.1 0-.1.1-.1-.1.1-.3 0-.6-.2-.1-.3-.6-.3-.9-.5h.7c-.2-.2-.2-.1-.4-.3-.2 0-.3.1-.6 0v-.1c-.3-.1-.3 0-.6-.1-.5-.3-1.1-.6-1.5-.8v-.1c-.3.1-.8-.2-1.2-.3-.5-.3-1.3-.3-1.5-.6l-3-.6.2-.1c-.2.1-.1-.1-.3-.1.2.2-.3.1-.4.2a2.62 2.62 0 0 0-1.5-.1V26c-.5.2-1-.1-1.5-.1-.1 0-.2-.1-.3-.1-.3.1-.5.1-.9.2-.3 0-.8-.1-1.1-.1-1.2.2-2.4.1-3.6.4l-.1-.1c-1.2.4-2.6.4-3.6.7l.1-.2c-.3 0-.7.2-.6.3-.3 0-.7.3-1 .2-.3 0-.4.2-.6.3a5.73 5.73 0 0 0-1.4.4h.1c0-.1 0-.1-.1-.1-.2.1-.8.2-.5.4-.7.1-1.3.7-2 .8.1 0-.1.1-.1.2-.5.3-1.1.4-1.4.8-.1 0 .1-.2-.1-.1-.1.1 0 .1-.1.2-.7.6-1.5 1-2.1 1.6l-.5.3c-.1.1-.1.3-.3.3h-1v1.6c.2.5-.2 1.2.1 1.6-.1.1 0 .4-.1.3.1.2.1.4.1.7s.1.5.2.7c0 0 0-.1-.1-.1 0 .1 0 .3.1.4l.2.3c.1.2.2.4.3.7 0 0-.1-.1-.2-.1 0 .2.5.3.3.5.1.1.1 0 .1-.1.6 1 1.8 1.9 2.9 2.5.7.6-.2.4.6.6 0 .1.1-.1.1 0 .3.1.3.5.5.5 0-.2.2 0 .2-.1.5.3.5.5 1 .6l-.2.1c.6 0 1.1.4 1.6.3 2.8 1 5.7 1.3 8.6 1.5s5.7-.1 8.6-.5c.7.1.8.1 1.5-.2 0 0-.1.1 0 .1 0-.2.5-.1.5-.3a26.37 26.37 0 0 0 3-1c-.2.1-.2.2 0 .2l.2-.2h.1c.1-.1.2-.2.1-.2 1.2-.6 2.4-1.2 3.5-2s2-1.7 2.6-2.8c.2-.2.3-.6.4-.9 0-.2.1-.3.1-.5V36c.1-.3.1-.7.2-1.1 0-.4.1-.8.1-1.2s0-.8.1-1.1v-.5c-.2 0-.3 0-1 .1 0 0 .1-.1.3-.2.1-.1.2-.1.4-.2 0-.1.2-.1.4-.2z"/><path d="M43.4 31.2c0-.1-.1-.3.1-.3 0 .1 0 .2-.1.3zm-5.2-4.3s-.1-.1 0 0c0-.1.1-.1.1 0-.1-.1-.1 0-.1 0zm-1.7-.6c0-.1.4 0 .6.1l-.6-.1zm-1.5-.8c-.1-.1-.1-.1.1-.1.1.1 0 .1-.1.1zm-.1.2c-.1 0-.2-.1-.2-.1-.1 0 .3-.1.2.1zm-3.5-.9c-.1 0-.3 0-.3-.1.1.1.4 0 .3.1zm-1.6-.1h-.1c-.2-.1-.1-.1.1 0zm-23.4 12v-.2zm9.8 8.3c.2 0 .1.1.1.1-.1 0 .1 0-.1-.1zm7 1h-.1l.1-.2z"/></g><ellipse cx="26.3" cy="31.5" rx="19.4" ry="10.3" fill="#e4c448"/><g class="J"><path d="M46 31.7c0-.4-.1.2 0-.2 0 0 .1.1 0 .2zm-.2-1.4c-.2-.3-.3-.5-.4-.8s-.3-.6-.4-.9c-.3-.6-.7-1.2-1.2-1.5-.1-.1.2-.1-.1-.3L40 24h.1c-.2-.2-.6-.1-.9-.3 0 0 .1 0 .1-.1-.1.1-.5-.2-.7-.2-.1-.1 0-.2-.2-.3l-.2.1c-.6.1-1.1-.5-1.7-.5 0 0 .1 0 .1-.1-1-.1-2.3-.5-3.4-.7.1 0 .1-.1.1-.2-.1.1-.4.1-.7.1-.1-.2-.5 0-.9-.1-.3.1-.4-.1-.6 0l-.2-.1c-.1.2-.4-.2-.6-.1-.2 0-.3-.1-.5-.1-.5 0-.7-.1-.7 0-.1-.1.4 0 .2-.2h-4.5c-.2-.1-.3-.1-.3-.1-.1 0-.6.1-.7.2 0 0-.1-.1-.2-.1-.3 0-.3.2-.6.2.1-.1.2-.1.1-.2-.2.1-.6.1-.9.2l.1-.1c-.3.2-.6.1-.9.2l.1-.1c-.5 0-.1.2-.5.2.1 0 .1-.1.1-.1-.3.2-1 .3-1.3.4-.4.1-.8.1-1.2.3-.2 0 0-.2-.4-.1.1.2-.7.3-.4.4-.4.1-.9.1-1.2.3.1-.1-.2-.2 0-.3h-.3c0-.1.2 0 .1-.1a2.12 2.12 0 0 1-.7.3c-.2.2-.4.5-.8.7.2-.1-.2-.1-.1-.2l-.5.6c-.1.1-.1-.1-.3 0 0 0 0 .1-.1.2-.1 0-.5.3-.7.2-.1 0 .2-.1 0-.1 0-.1.1-.1-.2.1-.2.1-.5.3-.2.3.1-.1-.1-.1.1-.1-.1.1-.3.3-.6.5.1-.1 0-.1 0-.2-.2.3-.6.5-.9.8 0 .1 0-.2.1-.2-.5.2-.8.8-1.2.9 0-.1.1.1.1.1-.2.2-.3.1-.4.2-.1 0-.1.2-.3.3 0 .1-.1 0 0-.1-.2.2-.7.9-1.1 1.3 0 0 0 .4-.1.5l-.1-.1c-.1.1-.2.3-.3.3 0 .3.5-.9.4-.5-.1 0-.1.5-.2.4-.1 0-.1.2-.3.4 0-.1-.1-.3-.1-.1-.1.3 0 .1-.1.4v.2c.1 0-.1.3 0 .2-.1 0-.1.5-.2.4l-.2-.1c0 .1.1.3.1.4h-.1c.2.1-.1.3.1.5-.1.1-.1.3-.1.5s0 .3-.1.4c.1.2.2.4.2.7l-.1-.1c0 .2.1.2.1.3 0 0 0 .4-.1.6.2.2.2.1.3.1-.1.3.4.5.4.9-.1 0-.3-.3-.2 0-.1.3.4.3.5.6l.1-.2c0 .2.4.4.2.4.1 0 .2.4.3.2.3.6 1.1.9 1.1 1.4.1 0 .2.2.3.1-.1-.2-.2-.1-.2-.2h.1c.1.1.2.2 0 .3.3.3.5 0 .9.4-.1 0 0 .1.1.2h.3c.3.2.1.2 0 .4.2.1.4.2.5.2l.1.3c-.1-.2.2 0 .3 0h-.1c0 .1.2.1.3.2 0-.1-.2-.2-.3-.3.1 0 .2.1.4.1-.1.1.2.2.4.3.1.1.2 0 .3 0 0 .1.2.1.1.2-.1 0-.1-.1-.2-.1.1.1 0 .2.3.2.2 0 .1-.2.3 0h-.2c.1.1.2.1.3.2l.1-.1v.1c.1-.1.5.1.6 0 .1 0 .3.2.4.3s.4.2.6.2c.1 0 .3.1.5.1.2.2 0 .4.3.4.2.1.4-.1.4-.2.4.2 1 .2 1.3.4.1 0 0-.1.2-.1.6.2 1.4.2 1.9.5-.2 0 0 .1 0 .2.2-.1.2.1.3 0 0-.1 0-.1-.2-.2.4 0 1 .1 1.2.2-.1-.1 0-.1.1-.1-.1.2.2.2.5.2V41l.1.1c.1 0 .1-.2.3-.1 0 0 0 .1.1.1.2-.1.6-.2.8-.1l.2.2c.1 0 .3-.1.1-.1.4.1.7.2.8.3.8-.3 1.8-.2 2.7-.3v.1c.2.1.1-.1.3-.1-.1.1.2.1 0 .2.3.1.4-.1.6-.2 0-.1-.2.1-.1-.1 0 0 .5.1.5-.1.1.1 0 .2 0 .2l.2-.1c.3.1-.5.3-.3.5h.2c.2.1-.5.2 0 .2.2-.1.4-.3.2-.4.4-.1.2-.4.6-.4.1.1-.4 0-.3.2.2.1.4-.1.6-.1-.2 0-.1-.2.1-.2s-.1.1.2.1c0-.1.3-.2.1-.2.1-.2.3 0 .5-.2.1.1-.3.4.1.4-.1-.1.4-.2.2-.4.1 0 .2.1.1.2.2.1.4-.3.6-.1v-.1c.1 0 .2.1.3.1.2 0 .5-.3.5-.1.1 0 .5-.1.3-.2-.3 0-.3.2-.4 0 .2.1.4-.1.5-.2v.1c.1 0 .3-.1.3-.2-.1.1 0 .1.1.1l.1-.1c.3-.1.1.2.5.1l-.2.1c.1 0 .2.1.3 0a.76.76 0 0 1 .2-.4c.2-.1.1.1.3-.1l-.6.3s.2.1.5.1c.2-.1.4-.3.1-.3.1 0 .3 0 .2.1.3-.1-.1-.1.2-.2.1 0 .5.1.7.1l-.3.2.2-.1c-.2.2.1.1.1.3.1 0 .2-.1.3-.2-.4-.1.3-.4.1-.6.4-.2.5.4.8-.1-.1 0 .1-.3-.2-.1.3-.1.1-.3.5-.3-.2.2.3.1 0 .4 0-.1-.2 0-.3.1.1 0 .1.2.3.1s.4-.2.3-.3-.3.1-.2 0c.3-.2.5 0 .5-.3-.2.1-.3 0-.3-.1l.2-.1v.1c.4-.1.1-.2.5-.3l.2.1c0 .2-.6.2-.4.4.3-.1.3-.2.5-.3 0 0-.1.1-.2.1.1 0 .3.2.6-.1.2-.2 0-.1 0-.2.4-.2.5-.3.7-.5 0 .2.4-.2.3.1-.2 0-.7.3-.8.5.2.1-.3.1-.3.3.3-.1.4 0 .5.1.1 0 .2-.1.2-.2s-.1-.1-.2-.2a1.31 1.31 0 0 0 .8-.6c.1 0 .2.1 0 .2.4-.3.8-.5 1.2-.7-.3 0 .4-.3.1-.3-.2.1-.5.1-.4-.1.1-.1 0 .1.1.1.1-.2.3 0 .4-.3-.3.3.1.2.1.4.2-.3.1.1.3-.1s.4-.6.7-.8c.4-.2.8-.8 1-1 .2-.1.2.1.4 0 .1-.2-.3 0 0-.2v.1c0-.1.5-.5.3-.7l.1.2c.1 0 .1-.1.1-.2.1 0 .2 0 .1.1.2-.1.2-.5.3-.7h.1c.1-.2.1-.4.2-.5.1-.2.1-.3.2-.5h.1v-.3c.1.1.2-.1.1-.3.1.2.1.5.1.7-.1.2-.1-.2-.2-.2-.1.1-.2.5-.1.6.1-.1 0-.2 0-.3.2 0 .1.2.2.4 0-.1.1-.2.1-.2 0 .2 0 .3-.1.6 0-.2-.1.1-.1 0 .1.1 0 .3-.1.6-.2.1-.3.6-.5.9 0-.2 0-.4.1-.7-.2.2-.1.2-.3.4 0 .1.1.3-.1.6l-.1-.1c-.2.2 0 .3-.3.6-.4.5-1 .8-1.3 1.1l-.1-.1c-.1.3-.7.6-.9.9-.6.2-1.1.8-1.4.8l-1.3.8-1.4.6.1-.2c-.1.2-.1 0-.3.1.2 0-.2.2-.3.4-.5 0-1.1.4-1.5.6v-.1c-.4.3-.9.3-1.5.4-.1 0-.2-.1-.3-.1-.3.2-.4.2-.8.4-.3.1-.8.1-1.2.1-1.1.4-2.4.4-3.6.6l-.4-.3c-.6.1-1.3.2-1.9.2-.7 0-1.3-.1-1.8 0l.1-.2c-.3-.1-.7 0-.7.1-.3-.1-.8 0-1-.1-.3-.1-.4.1-.7 0-.6-.2-.9-.2-1.5-.2h.2c.1 0 .1-.1-.1-.2-.2 0-.8-.2-.6.1-.6-.3-1.6-.2-2.1-.5 0 .1-.1 0-.2.1-.6-.1-1.1-.4-1.6-.5-.1-.1.2-.1 0-.1-.1 0 0 .1-.2.1-.5-.1-.9-.3-1.4-.5l-1.2-.6c-1.5-.5-2.9-1.5-4-2.5-.5-.2-.7-1-1.2-1.1-.1-.1-.3-.4-.2-.4-.3-.3-.6-1-1-1.5 0 .1 0 .1.1.1l-.3-.8c-.1-.3-.2-.6-.2-.9 0 .1.1.2.1.2 0-.3-.3-.6-.1-.7 0-.1-.1-.1-.1 0-.1-1.4.1-3.1.9-4.4.7-.8.4.2.7-.6.1 0 0-.1 0-.1.1-.3.5-.2.6-.4-.2 0 0-.2 0-.2.5-.4.7-.4 1-.8v.1c.3-.6.9-.9 1.1-1.3 1.3-.9 2.7-1.7 4.1-2.2l2.1-.8 2.2-.6c2.9-.6 5.9-.9 8.9-.7.7.2.7.2 1.5.2 0 0-.1 0 0 .1.1-.2.5 0 .6-.1 1.1.2 2.1.2 3.3.5-.2 0-.3.1-.1.1l.2-.1v.1c.2 0 .3 0 .2-.1 2.9.4 5.6 1.7 8 3.2.5.4 1.4.9 2 1.4 1.6 1.7 2.6 3.6 2.9 6-.1-.2-.5-.6-.8-1.4z"/><path d="M46 32.1c-.1.1-.2.3-.2.1 0 0 .1-.1.2-.1zM41.9 37h-.1c.1 0 .1-.1.2-.1-.2 0-.1 0-.1.1zm-1.4.8c0-.1.3-.3.4-.4l-.4.4zm-1.5.4c-.1 0-.1 0 0-.1.1.1 0 .1 0 .1zm0 .2c-.1.1-.2 0-.3 0 .1.1.3-.1.3 0zm-3.1 1c-.1 0-.2.1-.3.1.1 0 .3-.2.3-.1zm-1.5.5h-.1c-.1.1 0 0 .1 0zm-26-5.4l.2.2h-.1zm3.8-9.5c.1-.1.1 0 .2 0-.1.1 0-.1-.2 0zm6.1-2.7h-.1v-.1z"/></g><ellipse cx="26.3" cy="31" rx="15" ry="7" fill="#e0ad0b"/><g class="J"><path d="M41.6 31.1c0-.3-.1.1 0-.2 0 .1.1.2 0 .2zm-.2-1c-.2-.2-.3-.4-.4-.6s-.2-.4-.4-.6c-.1-.2-.3-.4-.5-.6s-.4-.3-.6-.4c-.1-.1.2-.1-.1-.3-.9-.4-2-1.2-2.9-1.8h.1c-.2-.1-.5 0-.7-.2 0 0 .1 0 .1-.1-.1.1-.4-.1-.5 0-.1-.1 0-.2-.1-.2l-.2.1c-.4.2-.8-.3-1.3-.3 0 0 .1 0 .1-.1-.4 0-.8-.1-1.3-.1-.4-.1-.9-.2-1.3-.2 0 0 .1-.1 0-.2-.1.1-.3.1-.6.1-.1-.2-.4.1-.7 0-.2.1-.3-.1-.5 0l-.1-.1c-.1.2-.3-.1-.4-.1-.2 0-.2-.1-.4 0-.3 0-.5-.1-.5.1-.1-.1.3 0 .2-.2-1.1.1-2.3 0-3.4.1.1-.3 0-.4-.1-.4s-.4.1-.5.1l-.1-.1c-.2 0-.2.2-.4.1.1 0 .1-.1.1-.2-.2.1-.4.1-.7.2l.1-.1c-.2.2-.4 0-.7.1l.1-.1c-.4-.1-.1.2-.4.2.1 0 0-.1 0-.1-.3.2-.7.2-1 .3s-.6.1-.9.2c-.1 0 0-.2-.3-.1 0 .2-.5.2-.3.4-.3 0-.7 0-.9.2.1-.1-.2-.2 0-.3l-.2-.1c0-.1.2 0 .1-.1-.1 0-.4.2-.5.2-.2.2-.3.4-.6.5.1-.1-.1-.2-.1-.2l-.3.5c-.1 0-.1-.1-.2 0 0 0 0 .1-.1.1 0 0-.4.2-.5.1-.1 0 .2-.1 0-.1l-.4.2c-.1 0-.3.2-.2.3.1 0-.1-.1.1-.1 0 .1-.3.2-.4.3v-.2c-.2.3-.4.4-.7.6 0 .1 0-.2.1-.2-.4.1-.6.6-1 .6l.1.1c-.2.1-.2 0-.3.1-.1-.1-.1.1-.2.2 0 .1 0 0 0-.1l-.4.4c-.2.2-.3.4-.5.5 0 0 0 .3-.1.4l-.1-.1c-.1 0-.2.2-.3.2 0 .2.4-.7.3-.4-.1 0-.1.4-.2.3-.1.1-.1.3-.3.4 0 0-.1-.2-.1-.1-.1.2 0 .1-.1.3v.1c.1.1-.1.2 0 .2-.1 0-.1.3-.2.3l-.1-.1c0 .1.1.2.1.3h-.1c.2.1-.1.2.1.4 0 .1-.1.2-.1.3s0 .2-.1.3c.1.2.2.3.2.5l-.1-.1c0 .1 0 .1.1.2 0 0-.1.3-.1.4.1.1.2 0 .3 0-.1.2.3.3.3.6-.1 0-.2-.1-.2 0-.1.3.3.2.4.4l.1-.2c0 .2.3.2.2.3.1 0 .2.3.3.1.2.4.9.6.9 1 .1 0 .2.1.2 0s-.2 0-.2-.1h.1c.1.1.2.2 0 .2.2.3.4-.1.7.2-.1.1 0 .1.1.1h.3c.2.1.1.2 0 .3.1 0 .3.1.4.1l.1.2c-.1-.2.1 0 .2 0h-.1c0 .1.2.1.2.1 0-.1-.1-.2-.2-.2h.3c-.1.1.2.2.3.2.1.1.2 0 .2 0 0 .1.2.1.1.1 0 0-.1-.1-.2-.1.1.1 0 .2.2.2.1 0 .1-.2.3-.1-.1 0-.1 0-.2.1l.2.1v-.1.1c.1-.1.3.1.4 0 .1 0 .2.2.3.2.1.1.3.1.4.1s.2.1.3 0c.2.1-.1.4.2.3.2 0 .3-.1.3-.2.3.2.7.1 1 .3.1 0 0-.1.1-.1.5.2 1.1.1 1.4.3-.2 0 0 .1 0 .2.1-.1.1.1.2 0 0-.1 0-.1-.1-.2.3 0 .8 0 .9.2-.1-.1 0-.1.1-.1 0 .2.2.2.4.2v-.1l.1.1c.1 0 .1-.2.2-.1v.1c.2-.1.4-.2.6-.1l.1.2c.1 0 .2-.1.1-.1.3.1.5.1.6.3.6-.3 1.4-.3 2-.3v.1c.2.1.1-.1.2-.1-.1.1.1.1 0 .2.3.1.3-.1.5-.2 0-.1-.1.1-.1-.1 0 0 .3.1.4-.1.1.1 0 .2 0 .2l.1-.1c.2.2-.4.3-.2.5h.1c.1.1-.4.2 0 .2.2-.1.3-.3.1-.4.3-.1.1-.4.5-.4.1.1-.3 0-.2.2.2.1.3-.1.5-.1-.2 0 0-.2.1-.2.2.1-.1.1.1.1 0-.1.3-.2.1-.2.1-.2.3 0 .4-.1.1.1-.2.3.1.4-.1-.1.3-.2.1-.4.1 0 .1.1.1.2.2.1.3-.3.4 0v-.1c.1 0 .1.1.2.1s.4-.2.4 0c0 0 .3-.1.2-.2-.2-.1-.2.1-.3 0 .2.1.3-.1.4-.1v.1c.1 0 .2 0 .2-.1v.1-.1c.2-.1.1.2.3.1l-.2.1s.1.1.3 0c0-.1.1-.3.1-.3.1-.1.1.1.2 0l-.2.2s.2.1.3.1c.1-.1.3-.3.1-.3.1 0 .2 0 .2.1.2-.1-.1-.1.1-.2.1.1.3.1.5.2l-.1.2h.1c-.1.2.1.1.1.3.1 0 .2-.1.3-.1-.3-.2.2-.4.1-.6.3-.2.4.5.6 0-.1 0 0-.2-.2-.1.2 0 .1-.3.4-.2-.2.1.3.2 0 .4 0-.1-.2 0-.2 0 .1.1 0 .2.3.2.1-.1.3-.1.2-.2 0-.1-.2.1-.2-.1.2-.1.4 0 .4-.2-.2.1-.2 0-.3-.1l.2-.1v.1c.3 0 0-.2.3-.3l.2.1c0 .2-.4.1-.3.3.2-.1.2-.2.4-.2l-.1.1c.1 0 .3.3.5 0 .1-.1 0-.1 0-.2.3-.2.3-.3.5-.4 0 .2.3-.1.2.1-.1 0-.6.1-.6.3.2.1-.2.1-.2.3.2-.1.3.1.4.2.1 0 .1-.1.2-.1 0-.1-.1-.1-.2-.2.3-.1.5-.3.6-.4.1 0 .1.1 0 .2.3-.2.6-.3.9-.5-.3-.1.3-.2.1-.3-.2.1-.4 0-.3-.1.1 0 0 .1.1.1.1-.2.3 0 .3-.2.4.1.7.1.7.3.1-.2 0 .1.2 0 .2-.2.4-.4.5-.6.3-.1.6-.5.8-.7.2 0 .2.1.4.1.1-.1-.2 0 0-.2 0-.1.4-.3.3-.5l.1.2s0-.1.1-.1.1 0 .1.1c.2-.1.2-.3.3-.5h-.2c.1-.3.3-.5.3-.8h.1v-.2c.1.1.2-.1.2-.2 0 .2.1.4.1.6-.1.1-.1-.2-.2-.1-.1 0-.2.3-.1.4.1-.1 0-.1 0-.2.2 0 .1.2.1.3 0-.1.1-.1.1-.2 0 .1 0 .3-.1.4 0-.2-.1 0-.1 0 .1.1.1.3-.1.5-.2 0-.2.4-.4.6v-.5c-.2.1-.1.2-.3.3 0 .1.1.3 0 .5l-.1-.1c-.1.2 0 .3-.2.5-.4.2-.8.6-1.1.7l-.1-.1c-.1.3-.5.4-.7.6-.4.1-.8.5-1.1.5-.7.4-1.3.7-2.1.9l.1-.2c-.1.1-.1-.1-.2 0 .2.1-.1.2-.2.3-.4 0-.8.2-1.1.4v-.1c-.3.3-.7.2-1.1.2-.1 0-.1-.1-.3-.1-.2.2-.3.2-.6.4-.2 0-.6.1-.9 0-.9.3-1.8.3-2.7.4l-.1-.1c-.9.3-2 0-2.8.1l.1-.2c-.2-.1-.6 0-.5.2-.2-.1-.6.1-.8-.1-.2-.1-.3.1-.5.1l-1.1-.2h.1c.1 0 .1-.1 0-.2-.2 0-.6-.1-.5.1-.5-.2-1.2-.1-1.6-.4 0 .1-.1.1-.2.1-.4-.1-.9-.3-1.2-.3-.1-.1.1-.1 0-.1s0 .1-.2.1c-.7-.1-1.4-.6-2-.8-1.1-.3-2.2-.9-3.2-1.6-.4-.1-.6-.7-1-.7 0-.1-.2-.3-.1-.3-.2-.1-.3-.3-.4-.5s-.3-.4-.5-.6c0 0 0 .1.1.1l-.3-.6c-.1-.2-.2-.5-.2-.7l.1.1c0-.2-.3-.4-.1-.6 0-.1-.1-.1-.1 0-.1-1.2.2-2.5.8-3.4.6-.6.3.2.6-.4.1 0 0-.1 0-.1.1-.2.5-.1.5-.3-.1-.1 0-.1 0-.2.4-.3.6-.2.8-.5v.1c.2-.4.7-.6.9-1 2.1-1.2 4.2-2 6.5-2.4 2.2-.3 4.4-.6 6.7-.4.5.2.6.2 1.1.2 0 0-.1 0 0 .1 0-.2.4 0 .5-.1.8.1 1.6.1 2.5.3-.1 0-.2.1-.1.1l.2-.1c.1 0 .2-.1.1-.1 2.2.2 4.2 1.2 6.2 2.1.4.3 1.1.6 1.6.9 1.2 1.2 2.3 2.6 2.5 4.5l-.2-.2c-.3.1-.4-.1-.6-.4z"/><path d="M41.6 31.5c-.1.1-.2.2-.2.1s.1-.1.2-.1zm-3.5 3.2s-.1 0 0 0v-.1c-.1 0 0 0 0 .1zm-1.1.5c0-.1.2-.2.3-.3l-.3.3zm-1.1.2c-.1 0-.1-.1 0-.1v.1zm-.1.2h-.2c.1 0 .2-.1.2 0zm-2.3.5c-.1 0-.2.1-.2 0 0 .1.2-.1.2 0zm-1.1.4s-.1 0 0 0c-.2 0-.1-.1 0 0zm-19.7-3.4h.1l-.1.1zm3-6.5c.1-.1.1 0 .1 0-.1.1 0 0-.1 0zm4.6-1.9v.1l-.1-.2z"/></g><path d="M24.8 30.8c.9-1.4 1-1.9.2-2.3-.6-.4-1.8-.6-3.1.2-1.1.7-1.4 1.3-1.5 1.6l-.1.1-1.9-.5v-.1c.3-.6.8-1.2 1.6-1.7l-1.7-1 1.4-.8 1.7 1.1c1.9-.8 4-.7 5.5.2 1.7 1 1.1 2.4.2 3.7-.8 1.1-.8 1.8.1 2.3.9.6 2.3.5 3.5-.2s1.6-1.5 1.7-1.9l.1-.1 1.9.5v.1c-.2.6-.9 1.4-1.8 2l1.7 1-1.4.8-1.8-1.1c-1.9.8-4.2.7-5.8-.2-1.5-1-1.7-2.1-.5-3.7z" fill="#f2c724"/><g class="J"><path d="M24.6 30.5c-.1.2.2 0 0 .1 0 0-.1-.1 0-.1zm-.4.8c0 .4-.2.8-.2 1.2-.1.4 0 .9.4 1.1.1.1-.2.1 0 .2l2.4 1.4h-.1c.2.1.4-.1.6 0 0 0-.1 0 0 .1.1-.1.3 0 .4-.1.1.1.1.1.1.2l.1-.1c.3-.3.7 0 1.1-.2 0 0-.1.1 0 .1l2-.7s-.1.1 0 .2c0-.1.3-.1.4 0 0 .2.3.1.5.2.2 0 .2.2.4.1v.2c.1-.2.1.2.3.2.1 0 .1.1.2.2.2-.2.3-.1.3-.3.1.1-.2.2 0 .3.3-.3.7-.5 1-.8v.2a9.13 9.13 0 0 1-1.3-.8c-.1-.1-.1-.2-.1-.2-.1 0-.2-.1-.3-.1v-.2h.1c.2 0 0-.2.2-.3v.2c0-.2.2-.3.3-.5v.1c0-.2.3-.2.3-.4v.1c.3-.2-.1-.1.1-.3 0 .1.1 0 .1.1 0-.2.2-.5.2-.6h.1v-.3h-.1c-.1 0-.2-.1-.4-.1 0-.1.3-.2 0-.2-.2.1-.4 0-.4.2 0 0-.2-.1-.3-.1s-.1-.1-.2 0c.1-.1-.2-.3 0-.3l-.2-.2c0-.1.2.1.1 0h-.4v.1c0 .3.1.6 0 .8 0-.1-.2-.1-.2-.1 0 .2.1.4.1.5-.1.1-.1-.1-.2.1v.2s-.3.3-.4.2c-.1 0 .1-.1 0-.1-.1.1-.1.2-.2.3s-.2.3-.1.3-.1-.1 0-.1c0 .1-.2.3-.3.4v-.2c-.1.3-.4.4-.6.6 0 .1 0-.2.1-.2-.4 0-.7.4-1 .3v.1c-.2 0-.2-.1-.3 0 0-.1-.1 0-.3.1-.1.1 0 0 .1 0-.1.1-.9.2-1.2 0 0 .1-.3.1-.4.1l.1-.1c-.1-.1-.3-.1-.3-.2-.1 0 .1.1.3.1s.4 0 .2.1c0-.1-.4 0-.3-.1-.2-.1-.4-.1-.5-.3 0 .1.2 0 .1-.1-.2-.2-.1 0-.3-.1-.1 0-.1-.1-.1-.1-.1.1-.2-.3-.2-.1 0-.1-.3-.4-.1-.5h.2c0-.1-.2-.2-.3-.3 0 0 0-.1.1-.1-.2 0 0-.3-.1-.5.2-.3.3-.6.4-.6 0-.2.1-.4.2-.5v.1c.1-.1.1-.1.1-.2l.4-.2c0-.2-.1-.2-.2-.2.3 0 .1-.4.3-.5 0 .1 0 .2.1.2.3 0 0-.3.1-.4H27c.1 0 0-.3.1-.2-.1-.1.1-.2-.1-.2.2-.3-.2-.5 0-.8 0 0-.1-.1-.2 0 0 .1.1 0 .1.1h-.1c0-.1-.1-.2.1-.2-.1-.2-.4.1-.5-.1.1-.1.1-.1 0-.1h-.2c-.1-.1 0-.2 0-.3-.1 0-.2-.1-.3 0l-.1-.2c0 .1-.1 0-.2 0h.1c0-.1-.1-.1-.2-.1 0 .1.1.2.1.2h-.2c.1-.1-.1-.1-.2-.2s-.1.1-.2.1c0-.1-.1 0-.1-.1 0 0 .1.1.1 0s0-.2-.2-.1c-.1 0 0 .2-.2.1.1 0 .1-.1.1-.1l-.2-.1v.1-.1c-.1.1-.3 0-.3.1-.1 0-.2-.1-.3-.1-.1-.1-.2 0-.3 0s-.2 0-.3.1c-.1-.1-.1-.4-.2-.3-.2 0-.2.2-.2.3-.3-.1-.5.2-.8.1 0 .1 0 .1-.1.1-.2 0-.4.1-.6.2-.3.1-.6.3-.8.1.2 0 0-.1 0-.2-.1 0-.1-.2-.2 0 0 .1 0 .1.1.3l-.6-.3c-.1-.1-.2-.2-.3-.2 0 .1 0 .1-.1.1.1-.1 0-.2-.2-.3l.7-.3v-.1c-.1 0-.2.1-.2 0v-.1c-.1 0-.2.2-.2 0V27v.2c-.1 0-.1 0-.3-.1-.1.3-.4.5-.6.7v-1.4c.2.1.5.3.7.4l-.1.1c.1.1.1-.1.2 0-.1 0 0 .2-.1.2.1.2.3 0 .4.1.1-.1-.1 0 0-.1 0 0 .2.2.3.1 0 .1-.1.1-.1.2h.1c0 .2-.5.1-.4.3h.1c0 .2-.4 0-.1.2.1 0 .3-.1.3-.2.2.1.2-.1.3-.1v1.1c0 .1 0 .1-.1.1s.1-.1.1-.2l.1-1h-.1v.9c-.2 0-.2.2-.3.2.1 0 .1.2.1.2-.1 0 0-.1-.2-.1 0 .1 0 .2.1.2.1.1-.1 0 0 .1-.1-.1-.2-.2-.3-.2.1.1.1.2.3.2 0 0-.2 0-.2-.1-.1 0 .2.1-.1.1 0 0 .2.1-.1.1 0 0 0 .1.2 0 .1-.1-.1 0 .2-.1-.2.1 0 0 .1 0H20h.1c-.1 0-.2.1-.2.1l.2-.1c0-.1-.3.1-.3.1s-.1 0-.1.1c0 0-.1.1-.1 0 .1-.1.2-.2.3-.2 0 0-.1.1-.1 0 0 0 0 .1-.1.1 0 0-.2.1-.1.1l.1-.2-.1.1s0-.1.1-.2c0 .1 0 .2.1.3v.2h.1c-.1.1.1.1 0 .3h.2c-.2-.3 0-.3-.2-.6 0 0 .3.5.2.1 0 0-.1-.2-.1-.1l-.1-.1.1.1c.1 0 .1 0 .1.1H20c.1 0 .2.2.2.1s.2-.3 0-.3c-.1-.1-.1.2-.2 0 .1-.3.3-.2.2-.4-.1.1-.2.1-.3 0l.1-.2v.1c.3-.2 0-.2.2-.4h.2c0 .1-.4.3-.2.4.2-.1.1-.3.3-.3l-.1.1c.1 0 .3.1.4-.2.1-.1 0-.1-.1-.2.2-.2.3-.3.5-.4 0 .2.3-.2.2.1-.1 0-.5.2-.5.4.2.1-.2.1-.1.3.2-.1.3 0 .4.1.1 0 .1-.1.1-.1 0-.1-.1-.1-.2-.2.2-.1.4-.3.5-.5.1 0 .1.1 0 .2.3-.2.6-.3.9-.3-.2-.2.3-.1.2-.3-.2 0-.4-.1-.3-.2.1 0 0 .1.1.1.1-.1.3.1.4-.1-.3.1 0 .2-.1.4.2-.1 0 .1.2.1.2-.1.5-.2.7-.2.3.2.7.2 1 .3.1.2-.1.2 0 .4.2.1 0-.2.2 0 .1 0 .2.4.5.4h-.2l.1.1c-.1 0-.1.1-.2 0-.1.2.1.3 0 .5l.1-.1c0 .3-.2.5-.3.8l.4.2v.2c-.1-.1-.2 0-.2.1v-.5c.1-.1.1.2.2.2s.2-.3.1-.3v.2c-.2 0-.1-.2-.2-.2 0 0-.1.1 0 .1v-.3c0 .1.1 0 .1 0-.1 0-.1-.1-.1-.3.1-.2-.2-.2-.3-.3a.45.45 0 0 1 .5 0c0-.2-.1-.1-.1-.3-.1 0-.3.1-.4.1l.1-.1c-.2 0-.2.1-.4 0-.3-.2-.6-.2-.9-.2v-.1c-.1.2-.5.1-.6.3-.3 0-.6.3-.8.3l-.9.9c-.1.1-.1.2-.3.4V30c0 .2-.1 0-.2.2.2-.1 0 .3 0 .5-.1.1-.1.2-.2.3-.3 0-.6-.1-.9-.1v-.1c-.4.1-.9-.3-1.2-.4 0 0 0-.1-.1-.2H18c-.1-.1 0-.2 0-.3.1-.2.3-.6.6-.8.1-.3.3-.6.6-.8.3-.3.5-.4.7-.6v1.1c-.2-.1-.4-.2-.7-.3v-.1c-.4-.1-.7-.3-1.1-.5L17 27l1-.6c.2-.1.3-.2.5-.3.1 0 .1-.1.2-.1l.3-.2v.2c.3-.1.5-.4.5-.5.1 0 .2-.1.3-.2.2.1.5.2.5.4.3.2.4.1.5.2s.3.2.4.3.3.1.3.1-.1.1 0 .1.2.1.2-.1h.2l.2-.1c.2-.1.5-.2.7-.1 0-.1.1-.1.1-.1.4-.1.8 0 1.1-.1.1 0-.1.1.1.1.1 0 0-.1.1-.1.6-.1 1.3.2 1.9.3.5.1 1 .2 1.5.5s1 .7 1.3 1.3h-.1c.2.2.2.4.2.7s0 .5.1.7c-.1.1-.1.4-.2.3.1.4-.4.8-.4 1.2v-.1c-.3.3-.4.6-.6.9v-.1c-.2.1 0 .4-.2.3 0 .1.1.1.1.1-.2.3-.3.6-.3.7s.1.1.1.1.1.1.3.1c.3.3-.1.4.2.3 0 .1 0-.1 0 0 .1 0 .2.3.3.2 0-.1.1-.1.1-.2.3.1.4.2.6.1v.1c.3-.2.6-.2.7-.5a4.44 4.44 0 0 0 1.1-.8c.2-.2.3-.3.4-.5l.3-.6.3-.9 1.8.5.7.2.3.1c.1 0 .1.1.2.1l.6.4c.3 0 .1.3 0 .5l-.2.6c-.1.4-.4.8-.7 1.1-.1.2-.3.4-.5.5l-.3.3c-.2.2-.4.4-.7.5v-1.8c.6.3 1.1.7 1.7 1.1l1.4 1-1.4.7-.3.1c-.2 0-.4 0-.5.1-.1 0-.1.1-.2.1-.1.1-.2.2-.4.3 0 0 .1-.1 0-.1 0 .2-.5.3-.6.5l-1.3-.8c-.3-.2-.7-.4-.6-.3 0 0 .1-.1 0-.1v.1-.1.2c.2 0-.5.2-.9.3-.5.1-1 .1-1.5.1-1 0-1.9-.2-2.9-.6l-1.5-.8c-.3-.3-.6-.7-.7-1.1-.2-.4-.2-.9-.2-1.3.1-.8.5-1.4.9-2.1.1 0 .3.4.1.9z"/><path d="M24.7 30.3c.1 0 .2-.1.2.1 0-.1-.1-.1-.2-.1zm-1.4-2.7s0-.1 0 0c0-.1.1-.2 0 0 0-.1.1-.1 0 0zm-1.1.2c0-.1.2-.2.4-.3-.2.1-.3.2-.4.3zm-1.1.3c-.1 0-.1 0 0-.1v.1z"/><path d="M21.1 28.3c-.1.1-.1.1-.2 0 0 .1.1-.1.2 0zm-1.2 1s-.1-.2 0 0zm-.1 0zm7.6.4v-.1zm3.5 4c.1-.1.1 0 .1 0-.1.1 0-.1-.1 0zm2.6-2l.1-.1z"/></g><g opacity=".5"><linearGradient id="A" gradientUnits="userSpaceOnUse" x1="15.768" y1="46.303" x2="31.823" y2="21.685"><stop offset=".061" stop-color="#fff" stop-opacity="0"/><stop offset=".12" stop-color="#dfe1e3" stop-opacity=".128"/><stop offset=".212" stop-color="#b3b8bd" stop-opacity=".325"/><stop offset=".301" stop-color="#9198a0" stop-opacity=".516"/><stop offset=".385" stop-color="#79818a" stop-opacity=".697"/><stop offset=".462" stop-color="#6a737d" stop-opacity=".863"/><stop offset=".526" stop-color="#656e79"/></linearGradient><path d="M44.9 30.1c0-5.7-8.7-10.3-19.4-10.3-2.3 0-4.5.2-6.6.6-6.3 1.7-10.7 5.2-10.7 9.2 0 5.7 8.7 10.3 19.4 10.3 2.3 0 4.5-.2 6.6-.6 6.3-1.7 10.7-5.2 10.7-9.2z" fill="url(#A)"/><g class="J"><path d="M44.6 29.9c.1.3.1-.2.1.2-.1-.1-.2-.1-.1-.2z"/><path d="M44.6 31.1c.1.6-.1 1.2-.4 1.7-.3.6-.7 1.1-1 1.6-.1.1-.1-.2-.3.1-.5 1.1-2.2 2.1-3.5 2.5v-.1c-.2.1-.4.4-.7.5 0 0 .1-.1 0-.1 0 .1-.4.3-.5.4-.1 0-.1-.1-.3-.1l-.1.2c-.3.5-1 .4-1.5.8 0 0 .1-.1 0-.1a10.38 10.38 0 0 1-3.1 1.1c0-.1.1-.1 0-.2 0 .1-.4.2-.6.3-.1-.1-.5.2-.8.2-.2.2-.4 0-.6.2L31 40c-.1.2-.4-.1-.6 0s-.3 0-.5 0c-.4.1-.7 0-.7.1-.2-.1.4-.1.2-.3-1.5.2-3 .2-4.4.1-.2-.1-.3-.1-.3-.2-.1 0-.5 0-.7.1 0 0-.1-.1-.2-.1-.3-.1-.3.1-.6 0 .1 0 .2-.1.1-.1-.3.1-.6 0-.9 0 0 0 .1 0 .1-.1-.3.1-.6-.1-.9-.1l.1-.1c-.4-.2-.2.2-.5 0 .1 0 .1-.1.1-.1-.4.1-.9-.1-1.3-.1s-.8-.2-1.2-.2c-.1-.1.1-.2-.3-.3 0 .2-.7-.1-.5.2-.3-.1-.8-.4-1.1-.4.2 0-.1-.3.2-.2l-.2-.2c.1-.1.2.1.2 0-.1 0-.6-.1-.7-.2-.3 0-.6.1-1 0 .2 0 0-.2.1-.2-.2 0-.5.1-.7.1-.1-.1 0-.1-.2-.2h-.2s-.6-.2-.6-.4c0-.1.2.1.1-.1-.2-.1-.3-.1-.5-.2-.1-.1-.5-.2-.4 0 .1.1 0-.1.1 0-.2 0-.5-.1-.7-.2.1 0 .1 0 .2-.1-.4-.1-.8-.2-1.1-.4-.1.1.2 0 .2 0-.4-.4-1-.5-1.2-.9.1 0 0 .1 0 .1-.2-.2-.1-.3-.3-.3 0-.1-.2-.1-.3-.2-.1 0 0-.1.1 0-.1 0-.4-.2-.6-.5-.3-.2-.5-.5-.6-.8 0 0-.3-.2-.4-.3h.1c0-.1-.3-.4-.2-.4-.3-.2.7.8.4.6 0-.1-.5-.3-.3-.4-.2-.2-.4-.4-.4-.7 0 .1.2.1.1-.1.2-.2.3 0 .1-.2l-.1-.2c-.1 0-.1-.3-.1-.1.1-.1-.2-.5 0-.5h.2l-.4-.4v-.1c-.2 0 0-.4-.2-.6v-.6c0-.2.1-.4.1-.5a1.1 1.1 0 0 1 0-.8v.2c.1-.2.1-.2.1-.4 0 0 .2-.3.4-.5 0-.3-.1-.2-.2-.3.3-.1.2-.8.5-.9 0 .1-.1.4.1.2.3-.1.1-.5.4-.8h-.2c.2-.1.3-.5.4-.4 0-.1.3-.3.2-.4.3-.2.5-.5.8-.7s.5-.4.8-.4c0-.1.2-.2.1-.2-.2 0-.1.2-.2.2.1-.1 0-.1 0-.1.2-.1.3-.2.3.1.4-.2.2-.5.6-.8 0 .1.1.1.2 0l.2-.3c.3-.2.3 0 .3.1.1-.1.3-.2.4-.3h.3c-.2 0 .1-.1.2-.2l-.1.1c.1 0 .2-.1.3-.2-.1-.1-.3 0-.4.1l.3-.3c0 .1.3-.1.4-.1.2-.1.1-.2.2-.2 0 .1.3-.1.2 0 0 0-.1 0-.2.1.1 0 .2.1.3-.1.1-.1-.1-.2.2-.3-.1.1-.1.1-.1.2l.3-.1v-.1h.1c0-.1.4-.2.4-.4.1-.1.3-.1.5-.1a.55.55 0 0 0 .5-.3.76.76 0 0 0 .4-.2c.3 0 .2.4.4.1.2-.1.3-.3.2-.4.5-.1.9-.4 1.4-.3.1-.1 0-.1.1-.1.8-.1 1.4-.4 2-.2-.2.1 0 .1 0 .2.1-.1.2.1.2-.1 0-.1 0-.1-.2-.2.4-.1 1-.2 1.2-.1-.1 0 0-.1.1-.1 0 .2.3.2.5.1v-.1l.2.1c.1 0 .1-.2.3-.1 0 0 0 .1.1.1.2-.1.5-.2.8-.2l.2.1c.1 0 .3-.1.1-.1.4.1.7.1.8.2.7-.3 1.8-.3 2.7-.2v.1c.2.1.1-.1.3-.1-.1.1.2.2 0 .2.3.1.4-.1.6-.1 0-.1-.2 0-.1-.1 0 0 .4.1.5 0 .1.1 0 .2 0 .2l.2-.1c.2.2-.6.3-.3.5h.2c.2.2-.5.1 0 .2.2-.1.4-.3.2-.3.4 0 .2-.3.7-.3.1.1-.4 0-.3.1.2.1.4 0 .6.1-.2-.1 0-.2.1-.2.2.1-.2.1.2.2.1-.1.4-.1.1-.2.1-.2.3.1.5 0 .1.1-.4.3 0 .4 0-.1.5-.1.3-.3.1.1.1.2 0 .2.2.1.5-.1.5.1l.1-.1.2.2c.2 0 .6-.1.5.1.1 0 .5.1.3-.1-.2-.1-.3 0-.4-.2.1.2.4 0 .5 0v.1h.4c-.1 0-.1.1 0 .1l.1-.1c.4 0 0 .2.4.3h-.3c.1 0 .1.1.3.1.1-.1.2-.2.3-.2.2 0 .1.1.3.1h-.6s.1.2.4.3c.2 0 .5-.1.2-.2.1 0 .3.2.2.2.3.1 0-.1.3-.1.1.1.4.3.5.5l-.3.1.2.1c-.3.1.1.1-.1.2.1.1.3.1.4.1-.3-.3.5-.2.5-.4.5.1.1.6.7.5-.2-.3.1-.4-.2-.4.3.1.3-.1.6.1-.3 0 .2.3-.2.3.1-.1-.2-.1-.2-.1.1.1-.1.2.2.3.2 0 .4.1.4 0s-.3-.1-.1-.2c.4.1.3.3.6.2-.2-.1-.2-.2-.2-.3.1 0 .2 0 .3.1l-.1.1c.4.2.2-.1.6.1l.1.2c-.2.1-.5-.3-.6-.1.2.1.4.1.6.2h-.2c.1.1 0 .4.5.4.2 0 .1-.1.1-.1.4.2.6.2.8.3-.1.1.4.3.1.3-.1-.2-.6-.5-.9-.4.1.2-.3-.2-.5 0 .3.2.2.3.2.5.1.1.2 0 .3.1.1-.1 0-.1 0-.3.3.2.7.4.9.4.1.1 0 .2-.2.1.4.2.8.5 1.2.8-.1-.3.4.3.4 0-.2-.2-.3-.4-.1-.4.1.1-.1.1 0 .1.2 0 .1.3.4.3-.4-.2-.2.1-.4.2.3.1-.1.1.2.3.3.1.6.3.9.5.2.4.8.8 1 1.1.1.2-.2.2-.1.4s0-.3.2.1c.1.1.3.6.6.6h-.2c0 .1.1.1.1.1-.1 0-.1.1-.2.1 0 .3.2.4.3.6v-.2c.3.4.3.7.4 1.1h-.1l.1.2c-.1 0-.1.2 0 .3-.1-.2-.3-.4-.4-.6 0-.2.2.1.3 0s-.1-.5-.2-.5c0 .1.1.1.1.2-.1.1-.2-.1-.3-.2 0 .1 0 .2.1.2-.1-.1-.1-.3-.3-.5.1.1 0-.1.1-.1-.1 0-.3-.1-.4-.4.1-.3-.4-.4-.5-.7.2 0 .4.1.6.3l-.2-.4c-.1 0-.3 0-.5-.2l.1-.1c-.2-.2-.3-.1-.5-.3-.3-.5-.8-.8-1.1-1.1l.1-.1c-.3 0-.7-.4-1-.5-.4-.4-1.1-.5-1.2-.8L37 22.3l.2-.1c-.2 0-.1-.1-.3-.2.1.2-.3.1-.4.1-.4-.3-1-.3-1.4-.3v-.1c-.4 0-.9-.2-1.3-.4 0-.1-.1-.2-.3-.2-.3.1-.4 0-.9.1l-1-.3c-1.1 0-2.2-.3-3.4-.2l-.1-.1c-.6.1-1.2.1-1.8 0-.6 0-1.2-.1-1.6 0l.1-.2c-.3-.1-.7.1-.6.2-.3-.1-.7.1-.9 0-.3 0-.4.1-.6.2-.6 0-.8 0-1.4.1h.1c.1-.1.1-.1-.1-.1-.2.1-.8 0-.5.3-.6-.1-1.4.3-1.9.3.1.1-.1.1-.1.2-.5.1-1.1.2-1.4.4-.1 0 .1-.1-.1-.1-.1.1 0 .1-.1.2-.8.4-1.7.5-2.3.9-1.2.7-2.4 1.4-3.3 2.3-.2.4-.8.6-.8 1-.1 0-.2.3-.3.2-.1.2-.2.3-.4.5s-.3.4-.3.7v-.1c-.2.2-.2.4-.3.6s-.1.4-.2.7c0-.1 0-.1-.1-.2-.1.2.1.5-.1.5 0 .1.1.1.1 0-.2 1.1.2 2.2.8 3.2.3.8-.3.3.2.7 0 .1.1 0 .1 0 .2.2 0 .5.3.5.1-.1.1 0 .2 0 .3.4.2.6.7.8h-.1c.5.2.9.6 1.4.7 2.2 1.6 4.8 2.3 7.4 3s5.2.8 8 .9c.6.2.7.2 1.4.1 0 0-.1 0 0 .1 0-.2.5 0 .6-.2 1 0 1.9-.2 3-.3-.2 0-.2.2 0 .1l.2-.1c.1 0 .3-.1.1-.2l.9-.2 2.7-.9c1.2-.4 2.4-.9 3.4-1.6.5-.3 1.2-.8 1.6-1.3.7-.5 1.4-1.2 1.9-1.9s.7-1.6.6-2.5l.2.2c-.3.1-.2.4-.2.8z"/><path d="M44.5 29.5c.1-.1.1-.3.2-.1 0 0-.1.1-.2.1zm-2.6-5.6l-.1-.1c.1 0 .2 0 .2.1 0-.1-.1 0-.1 0zm-1.3-1c.1-.1.4.1.6.2-.3-.1-.4-.1-.6-.2zm-1.2-1c-.1-.1 0-.1.1 0h-.1z"/><path d="M39.2 22c-.1-.1-.2-.1-.2-.2 0 .1.3.1.2.2zm-3-1.5c-.1 0-.3 0-.3-.1 0 .1.4 0 .3.1zm-1.5-.4h-.1c-.1 0 0-.1.1 0zM8.7 26l.1-.1zm3.9 10.7c.2 0 .1.1.1.1-.2 0 .1 0-.1-.1zm6.2 2.2h-.1l.1-.1z"/></g></g><path d="M43 24.3c-3-3.6-9.8-6.1-17.8-6.1-7.9 0-14.7 2.5-17.8 6.1H5.8v4.2c0 5.7 8.7 10.3 19.4 10.3s19.4-4.6 19.4-10.3v-4.2H43z" class="K"/><g class="J"><path d="M42.6 24.3c.3.2 0-.2.2.1 0 0-.1 0-.2-.1zm1.5.2c.2-.1.3-.1.5-.1.1.4.1 1.1 0 1.7 0 .6 0 1.2.1 1.7 0 .1-.2 0-.2.3.1.3.1.7.1 1 0 .4-.1.8-.2 1.2-.3.8-.8 1.5-1.4 2v-.1c-.2.2-.3.6-.5.8 0 0 0-.1-.1-.1 0 .1-.3.4-.4.6h-.3v.2c-.1.6-.9.7-1.4 1.2v-.1c-.4.4-.9.7-1.4 1a11.94 11.94 0 0 1-1.6.8c0-.1 0-.2-.1-.2 0 .2-.3.3-.6.5-.2-.1-.5.3-.8.4-.2.2-.4 0-.6.3l-.2-.1c-.1.2-.4 0-.6.2-.2.1-.3 0-.5.1-.4.2-.7.1-.7.3-.2-.1.4-.2.1-.3-1.4.5-3 .8-4.5.9-.2 0-.3-.1-.3-.1-.1 0-.6.1-.7.2.1 0-.1-.1-.2-.1-.3 0-.3.2-.6.1.1 0 .2-.1.1-.2-.3.1-.6.1-.9.2 0 0 .1 0 .1-.1-.3.2-.6 0-.9.1l.1-.1c-.5-.1-.1.2-.6.1.1 0 .1-.1.1-.1-.4.2-1 .1-1.4.1s-.9-.1-1.3 0c-.2-.1.1-.2-.4-.2 0 .2-.8 0-.5.2-.4-.1-1-.2-1.2-.2.2 0-.2-.2.2-.2l-.2-.1c0-.1.2.1.2 0-.2 0-.6 0-.8-.1-.3.1-.6.2-1.1.2.2 0-.1-.2.1-.2l-.7.2c-.2 0 0-.1-.2-.1 0 .1-.1.1-.2.1s-.7-.1-.7-.3c0-.1.3 0 .1-.1-.3-.1-.3 0-.6-.1-.2-.1-.6-.1-.4.1.1 0 0-.1.2 0-.2.1-.5 0-.8-.1.1 0 .1 0 .2-.1-.4 0-.8-.1-1.3-.1 0 .1.2-.1.3 0-.5-.3-1.2-.3-1.5-.6.1 0 0 .1 0 .1-.3-.1-.2-.2-.4-.3 0-.1-.2-.1-.4-.1-.1 0 0-.1.1 0-.3-.1-1.2-.4-1.7-.8 0 0-.4 0-.5-.1l.1-.1c-.1-.1-.4-.2-.4-.3-.3 0 1 .5.6.4 0-.1-.6-.1-.4-.2-.2-.1-.5-.2-.7-.4.1.1.3 0 .1-.1-.3-.2-.1 0-.4-.2l-.2-.1c-.1.1-.3-.2-.2 0 0-.1-.5-.3-.3-.5l.1-.4c-.1-.1-.3 0-.4-.1v-.1c-.2.2-.3-.3-.5-.3-.2-.3-.6-.7-.6-.9-.2-.2-.4-.4-.6-.7 0 .1 0 .1.1.1-.1-.2-.1-.2-.3-.4 0 0-.1-.4-.1-.7-.2-.2-.3-.1-.3-.1.1-.3-.4-.7-.3-1.1.1.1.2.4.2.1.1-.2 0-.3-.1-.4s-.2-.3-.1-.5l-.2.1c.1-.2-.2-.6 0-.6-.1-.1.1-.5-.1-.4.2-.6-.1-1.6.2-2 0-.1 0-.3-.1-.3-.1.2.1.2 0 .3 0-.1-.1-.1-.1-.1 0-.2.1-.4.2-.2.1-.5-.3-.4-.2-1.3.1.1.1 0 .1-.2l-.1-.6v-.2c.4 0 .3.2.4.3.2 0 .6 0 .6-.1.1.1.3.1.4.2-.3-.1.2-.1.3-.1h-.1c.1.1.3 0 .3 0 0-.1-.1-.1-.4-.1.2-.1.3 0 .3-.1 0 .1.2.1.2 0 .1 0 0-.2 0-.2 0 .1.2-.2.2 0 0 .1-.1.1-.1.1.1 0 .1.1.3-.2.1-.2-.2-.1.1-.3-.1.1 0 .1 0 .2.1-.1.2-.1.3-.2l-.1-.1h.1c0-.2.4-.4.3-.5.1-.1.3-.2.5-.3s.4-.3.5-.4.3-.2.4-.3c.3-.1.3.3.5 0 .2-.2.3-.4.1-.4.5-.2.9-.6 1.4-.7 0-.1 0-.1.1-.2.7-.3 1.4-.8 2-.8-.2.1 0 .1.1.2.1-.2.2 0 .2-.2-.1-.1-.1-.1-.3-.1.4-.2 1-.4 1.3-.4-.1 0 0-.1 0-.1 0 .2.3.1.5 0v-.1l.2.1c.1-.1 0-.2.3-.2 0 0 0 .1.1.1.2-.1.5-.4.8-.4l.2.1c.1 0 .3-.2.1-.2.5 0 .8-.1.9 0 .7-.5 1.9-.7 2.8-.7v.1c.3 0 .1-.1.3-.1-.1.1.2.1 0 .2.4 0 .4-.2.7-.2 0-.1-.2.1-.1 0 0 0 .5 0 .5-.1.1.1 0 .2 0 .2l.2-.1c.3.1-.6.3-.3.5h.2c.2.1-.5.2 0 .2.2-.1.4-.3.2-.4.4-.1.2-.4.7-.4.1.1-.4 0-.3.2.2.1.5-.1.7-.1-.2 0 0-.2.1-.2.2.1-.2.1.2.1.1-.1.4-.2.1-.2.1-.2.4 0 .6-.1.1.1-.4.3 0 .4-.1-.1.5-.2.3-.4.2 0 .2.1.1.2.2.1.5-.2.6 0l.1-.1c.1 0 .2.1.3.2.2 0 .6-.2.6 0 .1 0 .5 0 .3-.1-.3-.1-.3.1-.5-.1.2.2.4 0 .5-.1v.1c.1 0 .3 0 .4-.1-.1 0 0 .1 0 .1l.1-.1c.4 0 .1.2.4.2l-.3.1c.1 0 .2.1.4.1l.3-.3c.2 0 .1.1.3 0l-.3.1s.2.2.4.2.5-.1.2-.2c.1 0 .3.1.2.2.3 0 0-.1.2-.2.1.1.4.2.6.4l-.3.1h.2c-.3.1.1.1 0 .3h.4c-.3-.3.5-.3.4-.5.5 0 .2.6.8.3-.1-.1.2-.2-.1-.2.3.1.3-.2.6 0-.3 0 .3.3-.2.3 0-.1-.2-.1-.3-.1.1.1-.1.2.3.3.2 0 .5.1.5-.1 0-.1-.3 0-.2-.1.4 0 .4.2.6 0-.2 0-.3-.2-.3-.3h.3v.5c.4.2.2-.1.6 0l.2.2c-.1.1-.6-.2-.6 0 .3.1.4 0 .7.1h-.2c.1 0 .1.3.6.3.2 0 .1-.1.1-.1.5.1.6.1.9.1-.1.1.5.2.1.2-.1-.1-.8-.3-1-.2.1.2-.4-.1-.5.1.4.1.3.3.3.4h.3c.1-.1-.1-.1 0-.3.4.1.8.2 1.1.1.1.1 0 .2-.1.2.5.1 1 .3 1.4.5-.2-.3.5.1.4-.1-.2-.1-.4-.3-.2-.4.1.1 0 .1 0 .1.2 0 .2.3.5.2-.5-.1-.2.2-.3.3.3 0-.1.1.3.2.3 0 .7.1 1.1.3.4.3 1.1.5 1.4.7.1.2-.1.3.1.4s-.1-.3.2 0h-.1c.1 0 .6.5.8.3l-.2.1c.1.1.1.1.2.1 0 .1 0 .1-.1.1.1.2.4.3.7.4l-.1-.2c.4.2.6.5 1 .8l-.2.2.2.1c-.1 0 0 .2.2.3l-.7-.3c-.1-.2.2 0 .2-.1s-.3-.4-.5-.3c.1.1.1.1.3.1-.1.2-.2 0-.4 0 .1 0 .1.2.2.1-.2 0-.3-.1-.5-.3.2.1 0-.1.1-.1-.1.1-.3 0-.6-.2-.1-.3-.6-.3-.9-.5h.7c-.2-.2-.2-.1-.4-.3-.2 0-.3.1-.6 0v-.1c-.3-.1-.3 0-.6-.1-.5-.3-1.1-.6-1.5-.8v-.1c-.3.1-.8-.2-1.2-.3-.5-.3-1.3-.3-1.5-.6l-3-.6.2-.1c-.2.1-.1-.1-.3-.1.2.2-.3.1-.4.2a2.62 2.62 0 0 0-1.5-.1v-.1c-.5.2-1-.1-1.5-.1-.1 0-.2-.1-.3-.1-.3.1-.5.1-.9.2-.3 0-.8-.1-1.1-.1-1.2.2-2.4.1-3.6.4L22 19c-1.2.4-2.6.4-3.6.7l.1-.2c-.3 0-.7.2-.6.3-.3 0-.7.3-1 .2-.3 0-.4.2-.6.3a5.73 5.73 0 0 0-1.4.4h.1c0-.1 0-.1-.1-.1-.2.1-.8.2-.5.4-.7.1-1.3.7-2 .8.1 0-.1.1-.1.2-.5.3-1.1.4-1.4.8-.1 0 .1-.2-.1-.1-.1.1 0 .1-.1.2-.7.6-1.5 1-2.1 1.6l-.6.3c-.1.1-.2.3-.3.3h-1v1.6c.2.5-.2 1.2.1 1.6-.1.1 0 .4-.1.3.1.2.1.4.1.7s.1.5.2.7c0 0 0-.1-.1-.1 0 .1 0 .3.1.4l.2.3c.1.2.2.4.3.7 0 0-.1-.1-.2-.1 0 .2.5.3.3.5.1.1.1 0 .1-.1.6 1 1.8 1.9 2.9 2.5.7.6-.2.4.6.6 0 .1.1-.1.1 0 .3.1.3.5.5.5 0-.2.2 0 .2-.1.5.3.5.5 1 .6l-.1.1c.6 0 1.1.4 1.6.3 2.8 1 5.7 1.3 8.6 1.5s5.7-.1 8.6-.5c.7.1.8.1 1.5-.2 0 0-.1.1 0 .1 0-.2.5-.1.5-.3a26.37 26.37 0 0 0 3-1c-.2.1-.2.2 0 .2l.2-.2h.1c.1-.1.2-.2.1-.2 1.2-.6 2.4-1.2 3.5-2s2-1.7 2.6-2.8c.2-.2.3-.6.4-.9 0-.2.1-.3.1-.5v-.5c.1-.3.1-.7.2-1.1 0-.4.1-.8.1-1.2s0-.8.1-1.1v-.5c-.2 0-.3 0-1 .1 0 0 .1-.1.3-.2.1-.1.2-.1.4-.2-.1-.1.1-.1.3-.1z"/><path d="M42.3 24c0-.1-.1-.3.1-.3 0 .1 0 .2-.1.3zm-5.2-4.3s-.1-.1 0 0c0-.1.1-.1.1 0h-.1zm-1.7-.6c0-.1.4 0 .6.1l-.6-.1zm-1.5-.8c-.1-.1-.1-.1.1-.1.1.1 0 .1-.1.1zm-.1.2c-.1 0-.2-.1-.2-.1-.1 0 .3-.1.2.1zm-3.5-.9c-.1 0-.3 0-.3-.1.1.1.4 0 .3.1zm-1.6-.1h-.1c-.2-.1-.1-.1.1 0zm-23.4 12v-.2h.1zm9.8 8.3c.2 0 .1.1.1.1-.1 0 .1 0-.1-.1zm7 1H22l.1-.2z"/></g><ellipse cx="25.2" cy="24.3" rx="19.4" ry="10.3" fill="#e4c448"/><g class="J"><path d="M44.9 24.5c0-.4-.1.2 0-.2.1 0 .1.1 0 .2zm-.2-1.4c-.2-.3-.3-.5-.4-.8s-.3-.6-.4-.9c-.3-.6-.7-1.2-1.2-1.5-.1-.1.2-.1-.1-.3l-3.7-2.8h.1c-.2-.2-.6-.1-.9-.3 0 0 .1 0 .1-.1-.1.1-.5-.2-.7-.2-.1-.1 0-.2-.2-.3l-.1.1c-.6.1-1.1-.5-1.7-.5 0 0 .1 0 .1-.1-1-.1-2.3-.5-3.4-.7.1 0 .1-.1.1-.2-.1.1-.4.1-.7.1-.1-.2-.5 0-.9-.1-.3.1-.4-.1-.6 0l-.2-.1c-.1.2-.4-.2-.6-.1-.2 0-.3-.1-.5-.1-.5 0-.7-.1-.7 0-.1-.1.4 0 .2-.2h-4.5c-.2-.1-.3-.1-.3-.1-.1 0-.6.1-.7.2 0 0-.1-.1-.2-.1-.3 0-.3.2-.6.2.1-.1.2-.1.1-.2-.2.1-.6.1-.9.2l.1-.1c-.3.2-.6.1-.9.2l.1-.1c-.5 0-.1.2-.5.2.1 0 .1-.1.1-.1-.3.2-1 .3-1.3.4-.4.1-.8.1-1.2.3-.2 0 0-.2-.4-.1.1.2-.7.3-.4.4-.4.1-.9.1-1.2.3.1-.1-.2-.2 0-.3h-.3c0-.1.2 0 .1-.1a2.12 2.12 0 0 1-.7.3c-.2.2-.4.5-.8.7.2-.1-.2-.1-.1-.2l-.5.6c-.1.1-.1-.1-.3 0 0 0 0 .1-.1.2-.1 0-.5.3-.7.2-.1 0 .2-.1 0-.1-.3.1-.2.2-.5.3-.2.1-.5.3-.2.3.1-.1-.1-.1.1-.1-.1.1-.3.3-.6.5.1-.1 0-.1 0-.2-.2.3-.6.5-.9.8 0 .1 0-.2.1-.2-.2 0-.5.5-1 .7 0-.1.1.1.1.1-.2.2-.3.1-.4.2-.1 0-.1.2-.3.3 0 .1-.1 0 0-.1-.2.2-.7.9-1.1 1.3 0 0 0 .4-.1.5V21c-.1.1-.2.3-.3.3 0 .3.5-.9.4-.5-.1 0-.1.5-.2.4-.2.2-.2.5-.3.6 0-.1-.1-.3-.1-.1-.1.3 0 .1-.1.4v.2c.1 0-.1.3 0 .2-.1 0-.1.5-.2.4l-.1-.1c0 .1.1.3.1.4h-.1c.2.1-.1.3.1.5-.1.1-.1.3-.1.5s0 .3-.1.4c.1.2.2.4.2.7l-.1-.1c0 .2.1.2.1.3 0 0 0 .4-.1.6.2.2.2.1.3.1-.1.3.4.5.4.9-.1 0-.3-.3-.2 0-.1.3.4.3.5.6l.1-.2c0 .2.4.4.2.4.1 0 .2.4.3.2.3.6 1.1.9 1.1 1.4.1 0 .2.2.3.1-.1-.2-.2-.1-.2-.2h.1c.1.1.2.2 0 .3.3.3.5 0 .9.4-.1 0 0 .1.1.2h.3c.3.2.1.2 0 .4.2.1.4.2.5.2l.1.3c-.1-.2.2 0 .3 0h-.1c0 .1.2.1.3.2 0-.1-.2-.2-.3-.3.1 0 .2.1.4.1-.1.1.2.2.4.3.1.1.2 0 .3 0 0 .1.2.1.1.2-.1 0-.1-.1-.2-.1.1.1 0 .2.3.2.2 0 .1-.2.3 0h-.2c.1.1.2.1.3.2l.1-.1v.1c.1-.1.5.1.6 0 .1 0 .3.2.4.3s.4.2.6.2c.1 0 .3.1.5.1.2.2 0 .4.3.4.2.1.4-.1.4-.2.4.2 1 .2 1.3.4.1 0 0-.1.2-.1.6.2 1.4.2 1.9.5-.2 0 0 .1 0 .2.2-.1.2.1.3 0 0-.1 0-.1-.2-.2.4 0 1 .1 1.2.2-.1-.1 0-.1.1-.1-.1.2.2.2.5.2v-.1l.1.1c.1 0 .1-.2.3-.1 0 0 0 .1.1.1.2-.1.6-.2.8-.1l.2.2c.1 0 .3-.1.1-.1.4.1.7.2.8.3.8-.3 1.8-.2 2.7-.3v.1c.2.1.1-.1.3-.1-.1.1.2.1 0 .2.3.1.4-.1.6-.2 0-.1-.2.1-.1-.1 0 0 .5.1.5-.1.1.1 0 .2 0 .2l.2-.1c.3.1-.5.3-.3.5h.2c.2.1-.5.2 0 .2.2-.1.4-.3.2-.4.4-.1.2-.4.6-.4.1.1-.4 0-.3.2.2.1.4-.1.6-.1-.2 0-.1-.2.1-.2s-.1.1.2.1c0-.1.3-.2.1-.2.1-.2.3 0 .5-.2.1.1-.3.4.1.4-.1-.1.4-.2.2-.4.1 0 .2.1.1.2.2.1.4-.3.6-.1v-.1c.1 0 .2.1.3.1.2 0 .5-.3.5-.1.1 0 .5-.1.3-.2-.3 0-.3.2-.4 0 .2.1.4-.1.5-.2v.1c.1 0 .3-.1.3-.2-.4.1-.4.2-.3.2l.1-.1c.3-.1.1.2.5.1l-.2.1c.1 0 .2.1.3 0a.76.76 0 0 1 .2-.4c.2-.1.1.1.3-.1l-.2.2s.2.1.5.1c.2-.1.4-.3.1-.3.1 0 .3 0 .2.1.3-.1-.1-.1.2-.2.1 0 .5.1.7.1l-.2.3.2-.1c-.2.2.1.1.1.3.1 0 .2-.1.3-.2-.4-.1.3-.4.1-.6.4-.2.5.4.8-.1-.1 0 .1-.3-.2-.1.3-.1.1-.3.5-.3-.2.2.3.1 0 .4 0-.1-.2 0-.3.1.1 0 .1.2.3.1s.4-.2.3-.3-.3.1-.2 0c.3-.2.5 0 .5-.3-.2.1-.3 0-.3-.1l.2-.1v.1c.4-.1.1-.2.5-.3l.2.1c0 .2-.6.2-.4.4.3-.1.3-.2.5-.3 0 0-.1.1-.2.1.1 0 .3.2.6-.1.2-.2 0-.1 0-.2.4-.2.5-.3.7-.5 0 .2.4-.2.3.1-.2 0-.7.3-.8.5.2.1-.3.1-.3.3.3-.1.4 0 .5.1.1 0 .2-.1.2-.2s-.1-.1-.2-.2a1.31 1.31 0 0 0 .8-.6c.1 0 .2.1 0 .2.4-.3.8-.5 1.2-.7-.3 0 .4-.3.1-.3-.3-.1-.6-.1-.5-.2s0 .1.1.1c.1-.2.3 0 .4-.3-.3.3.1.2.1.4.2-.3.1.1.3-.1s.4-.6.7-.8c.4-.2.8-.8 1-1 .2-.1.2.1.4 0 .1-.2-.3 0 0-.2v.1c0-.1.5-.5.3-.7l.1.2c.1 0 .1-.1.1-.2.1 0 .2 0 .1.1.2-.1.2-.5.3-.7l-.2.1c.1-.2.1-.4.2-.5.1-.2.1-.3.2-.5h.1v-.3c.1.1.2-.1.1-.3.1.2.1.5.1.7-.1.2-.1-.2-.2-.2-.1.1-.2.5-.1.6.1-.1 0-.2 0-.3.2 0 .1.2.2.4 0-.1.1-.2.1-.2 0 .2 0 .3-.1.6 0-.2-.1.1-.1 0 .1.1 0 .3-.1.6-.2.1-.3.6-.5.9 0-.2 0-.4.1-.7-.2.2-.1.2-.3.4 0 .1.1.3-.1.6l-.1-.1c-.2.2 0 .3-.3.6-.4.5-1 .8-1.3 1.1l-.1-.1c-.1.3-.7.6-.9.9-.6.2-1.1.8-1.4.8l-1.3.8-1.4.6.1-.2c-.1.2-.1 0-.3.1.2 0-.2.2-.3.4-.5 0-1.1.4-1.5.6v-.1c-.4.3-.9.3-1.5.4-.1 0-.2-.1-.3-.1-.3.2-.4.2-.8.4-.3.1-.8.1-1.2.1l-3.8.3-.1-.1c-.6.1-1.3.2-1.9.2-.7 0-1.3-.1-1.8 0l.1-.2c-.3-.1-.7 0-.7.1-.3-.1-.8 0-1-.1-.3-.1-.4.1-.7 0-.6-.2-.9-.2-1.5-.2h.2c.1 0 .1-.1-.1-.2-.2 0-.8-.2-.6.1-.6-.3-1.6-.2-2.1-.5 0 .1-.1 0-.2.1-.6-.1-1.1-.4-1.6-.5-.1-.1.2-.1 0-.1-.1 0 0 .1-.2.1-.5-.1-.9-.3-1.4-.5l-1.2-.6c-1.5-.5-2.9-1.5-4-2.5-.5-.2-.7-1-1.2-1.1-.1-.1-.3-.4-.2-.4-.3-.3-.6-1-1-1.5 0 .1 0 .1.1.1l-.3-.8c-.1-.3-.2-.6-.2-.9 0 .1.1.2.1.2 0-.3-.3-.6-.1-.7 0-.1-.1-.1-.1 0-.3-1.6 0-3.2.7-4.5.7-.8.4.2.7-.6.1 0 0-.1 0-.1.1-.3.5-.2.6-.4-.2 0 0-.2 0-.2.5-.4.7-.4 1-.8v.1c.3-.6.9-.9 1.1-1.3 1.3-.9 2.7-1.7 4.1-2.2l2.1-.8 2.2-.6c2.9-.6 5.9-.9 8.9-.7.7.2.7.2 1.5.2 0 0-.1 0 0 .1.1-.2.5 0 .6-.1 1.1.2 2.1.2 3.3.5-.2 0-.3.1-.1.1l.2-.1v.1c.2 0 .3 0 .2-.1 2.9.4 5.6 1.7 8 3.2.5.4 1.4.9 2 1.4 1.6 1.7 2.6 3.6 2.9 6 .1-.1-.3-.5-.6-1.3z"/><path d="M44.9 24.9c-.1.1-.2.3-.2.1 0 0 .1-.1.2-.1zm-4.1 4.9h-.1c.1 0 .1-.1.2-.1-.2 0-.1 0-.1.1zm-1.4.8c0-.1.3-.3.4-.4l-.4.4zm-1.5.4c-.1 0-.1 0 0-.1.1.1 0 .1 0 .1zm0 .2c-.1.1-.2 0-.3 0 .1.1.3-.1.3 0zm-3.1 1c-.1 0-.2.1-.3.1.1 0 .3-.2.3-.1zm-1.5.5h-.1c-.1.1 0 0 .1 0zm-26-5.4l.2.2h-.1zm3.8-9.5c.1-.1.1 0 .2 0-.1.1 0-.1-.2 0zm6.1-2.7h-.1V15z"/></g><ellipse cx="25.2" cy="23.8" rx="15" ry="7" fill="#e0ad0b"/><g class="J"><path d="M40.5 24c0-.3-.1.1 0-.2.1 0 .1.1 0 .2zm-.2-1.1c-.2-.2-.3-.4-.4-.6s-.2-.4-.4-.6c-.1-.2-.3-.4-.5-.6s-.4-.3-.6-.4c-.1-.1.2-.1-.1-.3-.9-.4-2-1.2-2.9-1.8h.1c-.2-.1-.5 0-.7-.2 0 0 .1 0 .1-.1-.1.1-.4-.1-.5 0-.1-.1 0-.2-.1-.2l-.1-.1c-.4.2-.8-.3-1.3-.3 0 0 .1 0 .1-.1-.4 0-.8-.1-1.3-.1-.4-.1-.9-.2-1.3-.2 0 0 .1-.1 0-.2-.1.1-.3.1-.6.1-.1-.2-.4.1-.7 0-.2.1-.3-.1-.5 0l-.1-.1c-.1.2-.3-.1-.4-.1-.2 0-.2-.1-.4 0-.3 0-.5-.1-.5.1-.1-.1.3 0 .2-.2-1.1.1-2.3 0-3.4.1-.1-.1-.2-.1-.2-.1-.1 0-.4.1-.5.1l-.1-.1c-.2-.1-.2.1-.4.1.1 0 .1-.1.1-.2-.2.2-.5.2-.7.2l.1-.1c-.2.2-.4 0-.7.1l.1-.1c-.4-.1-.1.2-.4.2.1 0 0-.1 0-.1-.3.2-.7.2-1 .3s-.6.1-.9.2c-.1 0 0-.2-.3-.1 0 .2-.5.2-.3.4-.3 0-.7 0-.9.2.1-.1-.2-.2 0-.3l-.2-.1c0-.1.2 0 .1-.1-.1 0-.4.2-.5.2-.2.2-.3.4-.6.5.1-.1-.1-.2-.1-.2l-.3.5c-.1 0-.1-.1-.2 0 0 0 0 .1-.1.1 0 0-.4.2-.5.1-.1 0 .2-.1 0-.1l-.4.2c-.1 0-.3.2-.1.2.1 0-.1-.1.1-.1 0 .1-.3.2-.4.3V19c-.2.3-.4.4-.7.6 0 .1 0-.2.1-.2-.4.1-.6.6-1 .6l.1.1c-.2.1-.2 0-.3.1-.1-.1-.1.1-.2.2 0 .1 0 0 0-.1l-.4.4c-.2.2-.3.4-.5.5 0 0 0 .3-.1.4l-.1-.1c-.1 0-.2.2-.3.2 0 .2.4-.7.3-.4-.1 0-.1.4-.2.3-.1.1-.1.3-.3.4 0 0-.1-.2-.1-.1-.1.2 0 .1-.1.3v.1c.1.1-.1.2 0 .2-.1 0-.1.3-.2.3l-.1-.1c0 .1.1.2.1.3h-.1c.2.1-.1.2.1.4 0 .1-.1.2-.1.3s0 .2-.1.3c.1.2.2.3.2.5l-.1-.1c0 .1 0 .1.1.2 0 0-.1.3-.1.4.1.1.2 0 .3 0-.1.2.3.3.3.6-.1 0-.2-.1-.2 0-.1.3.3.2.4.4l.1-.2c0 .2.3.2.2.3.1 0 .2.3.3.1.2.4.9.6.9 1 .1 0 .2.1.2 0s-.2 0-.2-.1h.1c.1.1.2.2 0 .2.2.3.4-.1.7.2-.1.1 0 .1.1.1h.3c.2.1.1.2 0 .3.1 0 .3.1.4.1l.1.2c-.1-.2.1 0 .2 0h-.1c0 .1.2.1.2.1 0-.1-.1-.2-.2-.2h.3c-.1.1.2.2.3.2.1.1.2 0 .2 0 0 .1.2.1.1.1 0 0-.1-.1-.2-.1.1.1 0 .2.2.2.1 0 .1-.2.3-.1-.1 0-.1 0-.2.1l.2.1v-.1.1c.1-.1.3.1.4 0 .1 0 .2.2.3.2.1.1.3.1.4.1s.2.1.3 0c.2.1-.1.4.2.3.2 0 .3-.1.3-.2.3.2.7.1 1 .3.1 0 0-.1.1-.1.5.2 1.1.1 1.4.3-.2 0 0 .1 0 .2.1-.1.1.1.2 0 0-.1 0-.1-.1-.2.3 0 .8 0 .9.2-.1-.1 0-.1.1-.1 0 .2.2.2.4.2v-.1l.1.1c.1 0 .1-.2.2-.1v.1c.2-.1.4-.2.6-.1l.1.2c.1 0 .2-.1.1-.1.3.1.5.1.6.3.6-.3 1.4-.3 2-.3v.1c.2.1.1-.1.2-.1-.1.1.1.1 0 .2.3.1.3-.1.5-.2 0-.1-.1.1-.1-.1 0 0 .3.1.4-.1.1.1 0 .2 0 .2l.1-.1c.2.2-.4.3-.2.5h.1c.1.1-.4.2 0 .2.2-.1.3-.3.1-.4.3-.1.1-.4.5-.4.1.1-.3 0-.2.2.2.1.3-.1.5-.1-.2 0 0-.2.1-.2.2.1-.1.1.1.1 0-.1.3-.2.1-.2.1-.2.3 0 .4-.1.1.1-.2.3.1.4-.1-.1.3-.2.1-.4.1 0 .1.1.1.2.2.1.3-.3.4 0v-.1c.1 0 .1.1.2.1s.4-.2.4 0c0 0 .3-.1.2-.2-.2-.1-.2.1-.3 0 .2.1.3-.1.4-.1v.1c.1 0 .2 0 .2-.1v.1-.1c.2-.1.1.2.3.1l-.2.1s.1.1.3 0c0-.1.1-.3.1-.3.1-.1.1.1.2 0l.4.2s.2.1.3.1c.1-.1.3-.3.1-.3.1 0 .2 0 .2.1.2-.1-.1-.1.1-.2.1.1.3.1.5.2l-.2.3h.1c-.1.2.1.1.1.3.1 0 .2-.1.3-.1-.3-.2.2-.4.1-.6.3-.2.4.5.6 0-.1 0 0-.2-.2-.1.2 0 .1-.3.4-.2-.2.1.3.2 0 .4 0-.1-.2 0-.2 0 .1.1 0 .2.3.2.1-.1.3-.1.2-.2 0-.1-.2.1-.2-.1.2-.1.4 0 .4-.2-.2.1-.2 0-.3-.1l.2-.1v.1c.3 0 0-.2.3-.3l.2.1c0 .2-.4.1-.3.3.2-.1.2-.2.4-.2l-.1.1c.1 0 .3.3.5 0 .1-.1 0-.1 0-.2.3-.2.3-.3.5-.4 0 .2.3-.1.2.1-.1 0-.6.1-.6.3.2.1-.2.1-.2.3.2-.1.3.1.4.2.1 0 .1-.1.2-.1 0-.1-.1-.1-.2-.2.3-.1.5-.3.6-.4.1 0 .1.1 0 .2.3-.2.6-.3.9-.5-.3-.1.3-.2.1-.3-.2.1-.4 0-.3-.1.1 0 0 .1.1.1.1-.2.3 0 .3-.2-.2.2.1.2.1.4.1-.2 0 .1.2 0 .2-.2.4-.4.5-.6.3-.1.6-.5.8-.7.2 0 .2.1.4.1.1-.1-.2 0 0-.2 0-.1.4-.3.3-.5l.1.2s0-.1.1-.1.1 0 .1.1c.2-.1.2-.3.3-.5h-.2c.1-.3.3-.5.3-.8h.1v-.2c.1.1.2-.1.2-.2 0 .2.1.4.1.6-.1.1-.1-.2-.2-.1-.1 0-.2.3-.1.4.1-.1 0-.1 0-.2.2 0 .1.2.1.3 0-.1.1-.1.1-.2 0 .1 0 .3-.1.4 0-.2-.1 0-.1 0 .1.1.1.3-.1.5-.2 0-.2.4-.4.6v-.5c-.2.1-.1.2-.3.3 0 .1.1.3 0 .5l-.1-.3c-.1.2 0 .3-.2.5-.4.2-.8.6-1.1.7l-.1-.1c-.1.3-.5.4-.7.6-.4.1-.8.5-1.1.5-.7.4-1.3.7-2.1.9l.1-.2c-.1.1-.1-.1-.2 0 .2.1-.1.2-.2.3-.4 0-.8.2-1.1.4v-.1c-.3.3-.7.2-1.1.2-.1 0-.1-.1-.3-.1-.2.2-.3.2-.6.4-.2 0-.6.1-.9 0-.9.3-1.8.3-2.7.4l-.1-.1c-.9.3-2 0-2.8.1l.1-.2c-.2-.1-.6 0-.5.2-.2-.1-.6.1-.8-.1-.2-.1-.3.1-.5.1l-1.1-.2h.1c.1 0 .1-.1 0-.2-.2 0-.6-.1-.5.1-.5-.2-1.2-.1-1.6-.4 0 .1-.1.1-.2.1-.4-.1-.9-.3-1.2-.3-.1-.1.1-.1 0-.1s0 .1-.2.1c-.7-.1-1.4-.6-2-.8-1.1-.3-2.2-.9-3.2-1.6-.4-.1-.6-.7-1-.7 0-.1-.2-.3-.1-.3-.2-.1-.3-.3-.4-.5s-.3-.4-.5-.6c0 0 0 .1.1.1l-.3-.6c-.1-.2-.2-.5-.2-.7l.1.1c0-.2-.3-.4-.1-.6 0-.1-.1-.1-.1 0-.1-1.2.2-2.5.8-3.4.6-.6.3.2.6-.4.1 0 0-.1 0-.1.1-.2.5-.1.5-.3-.1-.1 0-.1 0-.2.4-.3.6-.2.8-.5v.1c.2-.4.7-.6.9-1 2.1-1.2 4.2-2 6.5-2.4 2.2-.3 4.4-.6 6.7-.4.5.2.6.2 1.1.2 0 0-.1 0 0 .1 0-.2.4 0 .5-.1.8.1 1.6.1 2.5.3-.1 0-.2.1-.1.1l.2-.1c.1 0 .2-.1.1-.1 2.2.2 4.2 1.2 6.2 2.1.4.3 1.1.6 1.6.9 1.2 1.2 2.3 2.6 2.5 4.5l-.2-.2c-.3.1-.4-.1-.6-.4zm.2 1.4c-.1.1-.2.2-.2.1s.1-.1.2-.1zM37 27.5s-.1 0 0 0v-.1c-.1 0 0 0 0 .1z"/><path d="M35.9 28c0-.1.2-.2.3-.3l-.3.3zm-1.1.2c-.1 0-.1-.1 0-.1v.1zm-.1.2h-.2c.1 0 .2-.1.2 0zm-2.3.5c-.1 0-.2.1-.2 0 0 .1.2-.1.2 0zm-1.1.4s-.1 0 0 0c-.2 0-.1-.1 0 0zm-19.7-3.4h.1l-.1.1zm3-6.5c.1-.1.1 0 .1 0-.1.1 0 0-.1 0zm4.6-1.9v.1l-.1-.2z"/></g><path d="M23.7 23.6c.9-1.4 1-1.9.2-2.3-.6-.4-1.8-.6-3.1.2-1.1.7-1.4 1.3-1.5 1.6l-.1.1-1.9-.5v-.1c.3-.6.8-1.2 1.6-1.7l-1.7-1 1.4-.8 1.7 1.1c1.9-.8 4-.7 5.5.2 1.7 1 1.1 2.4.2 3.7-.8 1.1-.8 1.8.1 2.3.9.6 2.3.5 3.5-.2s1.6-1.5 1.7-1.9l.1-.1 1.9.5v.1c-.2.6-.9 1.4-1.8 2l1.7 1-1.4.8-1.8-1.2c-1.9.8-4.2.7-5.8-.2-1.5-.9-1.7-2-.5-3.6z" fill="#f2c724"/><g class="J"><path d="M23.5 23.3c-.1.2.2 0 0 .1v-.1zm-.4.8c0 .4-.2.8-.2 1.2-.1.4 0 .9.4 1.1.1.1-.2.1 0 .2l2.4 1.4h-.1c.2.1.4-.1.6 0 0 0-.1 0 0 .1.1-.1.3 0 .4-.1.1.1.1.1.1.2l.1-.1c.3-.3.7 0 1.1-.2 0 0-.1.1 0 .1l2-.7s-.1.1 0 .2c0-.1.3-.1.4 0 0 .2.3.1.5.2.2 0 .2.2.4.1v.2c.1-.2.1.2.3.2.1 0 .1.1.2.2.2-.2.3-.1.3-.3.1.1-.2.2 0 .3.3-.3.7-.5 1-.8v.2a9.13 9.13 0 0 1-1.3-.8c-.1-.1-.1-.2-.1-.2-.1 0-.2-.1-.3-.1v-.2h.1c.2 0 0-.2.2-.3v.2c0-.2.2-.3.3-.5v.1c0-.2.3-.2.3-.4v.1c.3-.2-.1-.1.1-.3 0 .1.1 0 .1.1 0-.2.2-.5.2-.6h.1v-.3h-.1c-.1 0-.2-.1-.4-.1 0-.1.3-.2 0-.2-.2.1-.4 0-.4.2 0 0-.2-.1-.3-.1s-.1-.1-.2 0c.1-.1-.2-.3 0-.3l-.2-.2c0-.1.2.1.1 0h-.4v.1c0 .3.1.6 0 .8 0-.1-.2-.1-.2-.1 0 .2.1.4.1.5-.1.1-.1-.1-.2.1v.2s-.3.3-.4.2c-.1 0 .1-.1 0-.1-.1.1-.1.2-.2.3s-.2.3-.1.3-.1-.1 0-.1c0 .1-.2.3-.3.4v-.2c-.1.3-.4.4-.6.6 0 .1 0-.2.1-.2-.4 0-.7.4-1 .3v.1c-.2 0-.2-.1-.3 0 0-.1-.1 0-.3.1-.1.1 0 0 .1 0-.1.1-.9.2-1.2 0 0 .1-.3.1-.4.1l.1-.1c-.1-.1-.3-.1-.3-.2-.1 0 .1.1.3.1s.4 0 .2.1c0-.1-.4 0-.3-.1-.2-.1-.4-.1-.5-.3 0 .1.2 0 .1-.1-.2-.2-.1 0-.3-.1-.1 0-.1-.1-.1-.1-.1.1-.2-.3-.2-.1 0-.1-.3-.4-.1-.5h.2c0-.1-.2-.2-.3-.3 0 0 0-.1.1-.1-.2 0 0-.3-.1-.5.2-.3.3-.6.4-.6 0-.2.1-.4.2-.5v.1c.1-.1.1-.1.1-.2l.4-.2c0-.2-.1-.2-.2-.2.3 0 .1-.4.3-.5 0 .1 0 .2.1.2.3 0 0-.3.1-.4h-.2c.1 0 0-.3.1-.2-.1-.1.1-.2-.1-.2.2-.3-.2-.5 0-.8 0 0-.1-.1-.2 0 0 .1.1 0 .1.1h-.1c0-.1-.1-.2.1-.2-.1-.2-.4.1-.5-.1.1-.1.1-.1 0-.1h-.2c-.1-.1 0-.2 0-.3-.1 0-.2-.1-.3 0l-.1-.2c0 .1-.1 0-.2 0h.1c0-.1-.1-.1-.2-.1 0 .1.1.2.1.2h-.2c.1-.1-.1-.1-.2-.2s-.1.1-.2.1c0-.1-.1 0-.1-.1 0 0 .1.1.1 0s0-.2-.2-.1c-.1 0 0 .2-.2.1.1 0 .1-.1.1-.1l-.2-.1v.1-.1c-.1.1-.3 0-.3.1-.1 0-.2-.1-.3-.1-.1-.1-.2 0-.3 0s-.2 0-.3.1c-.1-.1-.1-.4-.2-.3-.2 0-.2.2-.2.3-.3-.1-.5.2-.8.1 0 .1 0 .1-.1.1-.2 0-.4.1-.6.2-.3.1-.6.3-.8.1.2 0 0-.1 0-.2-.1 0-.1-.2-.2 0 0 .1 0 .1.1.3l-.6-.3c-.1-.1-.2-.2-.3-.2 0 .1 0 .1-.1.1.1-.1 0-.2-.2-.3l.8-.3V20c-.1 0-.2.1-.2 0v-.1c-.1 0-.2.2-.2 0v-.1.2c-.1 0-.1 0-.3-.1-.1.3-.4.5-.6.7v-1.4c.2.1.5.3.7.4l-.1.1c.1.1.1-.1.2 0-.1 0 0 .2-.1.2.1.2.3 0 .4.1.1-.1-.1 0 0-.1 0 0 .2.2.3.1 0 .1-.1.1-.1.2h.1c0 .2-.5.1-.4.3h.1c0 .2-.4 0-.1.2.1 0 .3-.1.3-.2.2.1.2-.1.3-.1v1.1c0 .1 0 .1-.1.1s.1-.1.1-.2l.1-1h-.1v.9c-.2 0-.2.2-.3.2.1 0 .1.2.1.2-.1 0 0-.1-.2-.1 0 .1 0 .2.1.2.1.1-.1 0 0 .1-.1-.1-.2-.2-.3-.2.1.1.1.2.3.2 0 0-.2 0-.2-.1-.1 0 .2.1-.1.1 0 0 .2.1-.1.1 0 0 0 .1.2 0 .1-.1-.1 0 .2-.1-.2.1 0 0 .1 0H19h.1c-.1 0-.2.1-.2.1l.2-.1c0-.1-.3.1-.3.1s-.1 0-.1.1c0 0-.1.1-.1 0 .1-.1.2-.2.3-.2 0 0-.1.1-.1 0 0 0 0 .1-.1.1 0 0-.2.1-.1.1l.1-.2-.1.1s0-.1.1-.2c0 .1 0 .2.1.3v.2h.1c-.1.1.1.1 0 .3h.2c-.2-.3 0-.3-.2-.6 0 0 .3.5.2.1 0 0-.1-.2-.1-.1l-.1-.1.1.1c.1 0 .1 0 .1.1H19c.1 0 .2.2.2.1s.2-.3 0-.3c-.1-.1-.1.2-.2 0 .1-.3.3-.2.2-.4-.1.1-.2.1-.3 0l.1-.2v.1c.3-.2 0-.2.2-.4h.2c0 .1-.4.3-.2.4.2-.1.1-.3.3-.3l-.1.1c.1 0 .3.1.4-.2.1-.1 0-.1-.1-.2.2-.2.3-.3.5-.4 0 .2.3-.2.2.1-.1 0-.5.2-.5.4.2.1-.2.1-.1.3.2-.1.3 0 .4.1.1 0 .1-.1.1-.1 0-.1-.1-.1-.2-.2.2-.1.4-.3.5-.5.1 0 .1.1 0 .2.3-.2.6-.3.9-.3-.2-.2.3-.1.2-.3-.2 0-.4-.1-.3-.2.1 0 0 .1.1.1.1-.1.3.1.4-.1-.3.1 0 .2-.1.4.2-.1 0 .1.2.1.2-.1.5-.2.7-.2.3.2.7.2 1 .3.1.2-.1.2 0 .4.2.1 0-.2.2 0 .1 0 .2.4.5.4h-.2l.1.1c-.1 0-.1.1-.2 0-.1.2.1.3 0 .5l.1-.1c0 .3-.2.5-.3.8l-.1-.1v.2c-.1-.1-.2 0-.2.1v-.5c.1-.1.1.2.2.2s.2-.3.1-.3v.2c-.2 0-.1-.2-.2-.2 0 0-.1.1 0 .1V22c0 .1.1 0 .1 0-.1 0-.1-.1-.1-.3.1-.2-.2-.2-.3-.3a.45.45 0 0 1 .5 0c0-.2-.1-.1-.1-.3-.1 0-.3.1-.4.1l.1-.1c-.2 0-.2.1-.4 0-.3-.2-.6-.2-.9-.2v-.1c-.1.2-.5.1-.6.3-.3 0-.6.3-.8.3l-.9.9c-.1.1-.1.2-.3.4v-.2c0 .2-.1 0-.2.2.2-.1 0 .3 0 .5-.1.1-.1.2-.2.3-.3 0-.6-.1-.9-.1v-.1c-.4.1-.9-.3-1.2-.4 0 0 0-.1-.1-.2h-.5c-.1-.1 0-.2 0-.3.1-.2.3-.6.6-.8.1-.3.3-.6.6-.8.3-.3.5-.4.7-.6v1.1c-.2-.1-.4-.2-.7-.3v-.1c-.4-.1-.7-.3-1.1-.5l-1-.6 1-.6c.2-.1.3-.2.5-.3.1 0 .1-.1.2-.1l.3-.2v.2c.3-.1.5-.4.5-.5.1 0 .2-.1.3-.2.2.1.5.2.5.4.3.2.4.1.5.2s.3.2.4.3.3.1.3.1-.1.1 0 .1.2.1.2-.1h.2l.2-.1c.2-.1.5-.2.7-.1 0-.1.1-.1.1-.1.4-.1.8 0 1.1-.1.1 0-.1.1.1.1.1 0 0-.1.1-.1.6-.1 1.3.2 1.9.3.5.1 1 .2 1.5.5s1 .7 1.3 1.3h-.1c.2.2.2.4.2.7s0 .5.1.7c-.1.1-.1.4-.2.3.1.4-.4.8-.4 1.2v-.1c-.3.3-.4.6-.6.9v-.1c-.2.1 0 .4-.2.3 0 .1.1.1.1.1-.2.3-.3.6-.3.7s.1.1.1.1.1.1.3.1c.3.3-.1.4.2.3 0 .1 0-.1 0 0 .1 0 .2.3.3.2 0-.1.1-.1.1-.2.3.1.4.2.6.1v.1c.3-.2.6-.2.7-.5a4.44 4.44 0 0 0 1.1-.8c.2-.2.3-.3.4-.5l.3-.6.3-.9 1.8.5.7.2.3.1c.1 0 .1.1.2.1l.6.4c.3 0 .1.3 0 .5l.1.3c-.1.4-.4.8-.7 1.1-.1.2-.3.4-.5.5l-.3.3c-.2.2-.4.4-.7.5v-1.8c.6.3 1.1.7 1.7 1.1l1.4 1-1.4.7-.3.1c-.2 0-.4 0-.5.1-.1 0-.1.1-.2.1-.1.1-.2.2-.4.3 0 0 .1-.1 0-.1 0 .2-.5.3-.6.5l-1.3-.8c-.3-.2-.7-.4-.6-.3 0 0 .1-.1 0-.1v.1-.1.2c.2 0-.5.2-.9.3-.5.1-1 .1-1.5.1-1 0-1.9-.2-2.9-.6l-1.5-.8c-.3-.3-.6-.7-.7-1.1-.2-.4-.2-.9-.2-1.3.1-.8.5-1.4.9-2.1.1.3.3.7.1 1.2z"/><path d="M23.6 23.1c.1 0 .2-.1.2.1 0-.1-.1-.1-.2-.1zm-1.4-2.7s0-.1 0 0c0-.1.1-.2 0 0 0-.1.1-.1 0 0zm-1.1.2c0-.1.2-.2.4-.3-.2.1-.3.2-.4.3zm-1.1.3c-.1 0-.1 0 0-.1v.1z"/><path d="M20 21.1c-.1.1-.1.1-.2 0 0 .1.1-.1.2 0zm-1.2 1s-.1-.2 0 0zm-.1 0zm7.6.4v-.1zm3.5 4c.1-.1.1 0 .1 0-.1.1 0-.1-.1 0zm2.6-2l.1-.1z"/></g><g opacity=".5"><linearGradient id="B" gradientUnits="userSpaceOnUse" x1="15.582" y1="40.499" x2="31.638" y2="15.881"><stop offset=".061" stop-color="#fff" stop-opacity="0"/><stop offset=".12" stop-color="#dfe1e3" stop-opacity=".128"/><stop offset=".212" stop-color="#b3b8bd" stop-opacity=".325"/><stop offset=".301" stop-color="#9198a0" stop-opacity=".516"/><stop offset=".385" stop-color="#79818a" stop-opacity=".697"/><stop offset=".462" stop-color="#6a737d" stop-opacity=".863"/><stop offset=".526" stop-color="#656e79"/></linearGradient><path d="M44.7 24.3C44.7 18.6 36 14 25.2 14c-2.3 0-4.5.2-6.6.6C12.3 16.3 8 19.8 8 23.8c0 5.7 8.7 10.3 19.4 10.3 2.3 0 4.5-.2 6.6-.6 6.3-1.7 10.7-5.2 10.7-9.2z" fill="url(#B)"/><g class="J"><path d="M44.4 24.1c.1.3.1-.2.1.2-.1-.1-.1-.1-.1-.2z"/><path d="M44.4 25.3c.1.6-.1 1.2-.4 1.7-.3.6-.7 1.1-1 1.6-.1.1-.1-.2-.3.1-.5 1.1-2.2 2.1-3.5 2.5v-.1c-.2.1-.4.4-.7.5 0 0 .1-.1 0-.1 0 .1-.4.3-.5.4-.1 0-.1-.1-.3-.1l-.1.2c-.3.5-1 .4-1.5.8 0 0 .1-.1 0-.1a10.38 10.38 0 0 1-3.1 1.1c0-.1.1-.1 0-.2 0 .1-.4.2-.6.3-.1-.1-.5.2-.8.2-.2.2-.4 0-.6.2l-.3-.3c-.1.2-.4-.1-.6 0s-.3 0-.5 0c-.4.1-.7 0-.7.1-.2-.1.4-.1.2-.3-1.4.2-2.9.2-4.3.1-.2-.1-.3-.1-.3-.2-.1 0-.5 0-.7.1 0 0-.1-.1-.2-.1-.3-.1-.3.1-.6 0 .1 0 .2-.1.1-.1-.3.1-.6 0-.9 0 0 0 .1 0 .1-.1-.3.1-.6-.1-.9-.1l.1-.1c-.4-.2-.2.2-.5 0 .1 0 .1-.1.1-.1-.4.1-.9-.1-1.3-.1s-.8-.2-1.2-.2c-.1-.1.1-.2-.3-.3 0 .2-.7-.1-.5.2-.3-.1-.8-.4-1.1-.4.2 0-.1-.3.2-.2l.1.1c.1-.1.2.1.2 0-.1 0-.6-.1-.7-.2-.3 0-.6.1-1 0 .2 0 0-.2.1-.2-.2 0-.5.1-.7.1-.1-.1 0-.1-.2-.2h-.2s-.6-.2-.6-.4c0-.1.2.1.1-.1-.2-.1-.3-.1-.5-.2-.1-.1-.5-.2-.4 0 .1.1 0-.1.1 0-.2 0-.5-.1-.7-.2.1 0 .1 0 .2-.1-.4-.1-.8-.2-1.1-.4-.1.1.2 0 .2 0-.4-.4-1-.5-1.2-.9.1 0 0 .1 0 .1-.2-.2-.1-.3-.3-.3 0-.1-.2-.1-.3-.2-.1 0 0-.1.1 0-.1 0-.4-.2-.6-.5-.3-.2-.5-.5-.6-.8 0 0-.3-.2-.4-.3h.1c0-.1-.3-.4-.2-.4-.3-.2.7.8.4.6 0-.1-.5-.3-.3-.4-.2-.2-.4-.4-.4-.7 0 .1.2.1.1-.1-.2-.3-.1-.1-.3-.3V26c-.1 0-.1-.3-.2-.2.1-.1-.2-.5 0-.5h.2c-.1-.2-.2-.2-.3-.3v-.1c-.2 0 0-.4-.2-.6v-.6c0-.2.1-.4.1-.5a1.1 1.1 0 0 1 0-.8v.2c.1-.2.1-.2.1-.4 0 0 .2-.3.4-.5 0-.3-.1-.2-.2-.3.3-.1.2-.8.5-.9 0 .1-.1.4.1.2.3-.1.1-.5.4-.8h-.2c.2-.1.3-.5.4-.4 0-.1.3-.3.2-.4.3-.2.5-.5.8-.7s.5-.4.8-.4c0-.1.2-.2.1-.2-.2 0-.1.2-.2.2.1-.1 0-.1 0-.1.2-.1.3-.2.3.1.4-.2.2-.5.6-.8 0 .1.1.1.2 0l.2-.3c.3-.2.3 0 .3.1.1-.1.3-.2.4-.3h.3c-.2 0 .1-.1.2-.2H13c.1 0 .2-.1.3-.2-.1-.1-.3 0-.4.1l.3-.3c0 .1.3-.1.4-.1.2-.1.1-.2.2-.2 0 .1.3-.1.2 0 0 0-.1 0-.2.1.1 0 .2.1.3-.1.1-.1-.1-.2.2-.3-.1.1-.1.1-.1.2l.3-.1v-.1h.1c0-.1.4-.2.4-.4.1-.1.3-.1.5-.1a.55.55 0 0 0 .5-.3.76.76 0 0 0 .4-.2c.3 0 .2.4.4.1.2-.1.3-.3.2-.4.5-.1.9-.4 1.4-.3.1-.1 0-.1.1-.1.8-.1 1.4-.4 2-.2-.2.1 0 .1 0 .2.1-.1.2.1.2-.1 0-.1 0-.1-.2-.2.4-.1 1-.2 1.2-.1-.1 0 0-.1.1-.1 0 .2.3.2.5.1v-.1l.2.1c.1 0 .1-.2.3-.1 0 0 0 .1.1.1.2-.1.5-.2.8-.2l.2.1c.1 0 .3-.1.1-.1.4.1.7.1.8.2.7-.3 1.8-.3 2.7-.2v.1c.2.1.1-.1.3-.1-.1.1.2.2 0 .2.3.1.4-.1.6-.1 0-.1-.2 0-.1-.1 0 0 .4.1.5 0 .1.1 0 .2 0 .2l.2-.1c.2.2-.6.3-.3.5h.2c.2.2-.5.1 0 .2.2-.1.4-.3.2-.3.4 0 .2-.3.7-.3.1.1-.4 0-.3.1.2.1.4 0 .6.1-.2-.1 0-.2.1-.2.2.1-.2.1.2.2.1-.1.4-.1.1-.2.1-.2.3.1.5 0 .1.1-.4.3 0 .4 0-.1.5-.1.3-.3.1.1.1.2 0 .2.2.1.5-.1.5.1l.1-.1.2.2c.2 0 .6-.1.5.1.1 0 .5.1.3-.1-.2-.1-.3 0-.4-.2.1.2.4 0 .5 0v.1h.4c-.1 0-.1.1 0 .1l.1-.1c.4 0 0 .2.4.3h-.3c.1 0 .1.1.3.1.1-.1.2-.2.3-.2.2 0 .1.1.3.1l-.3.1s.1.2.4.3c.2 0 .5-.1.2-.2.1 0 .3.2.2.2.3.1 0-.1.3-.1.1.1.4.3.5.5l-.3.1.2.1c-.3.1.1.1-.1.2.1.1.3.1.4.1-.3-.3.5-.2.5-.4.5.1.1.6.7.5-.1-.1.2-.2-.1-.2.3.1.3-.1.6.1-.3 0 .2.3-.2.3.1-.1-.2-.1-.2-.1.1.1-.1.2.2.3.2 0 .4.1.4 0s-.3-.1-.1-.2c.4.1.3.3.6.2-.2-.1-.2-.2-.2-.3.1 0 .2 0 .3.1l-.5-.2c.4.2.2-.1.6.1l.1.2c-.2.1-.5-.3-.6-.1.2.1.4.1.6.2h-.2c.1.1 0 .4.5.4.2 0 .1-.1.1-.1.4.2.6.2.8.3-.1.1.4.3.1.3-.1-.2-.6-.5-.9-.4.1.2-.3-.2-.5 0 .3.2.2.3.2.5.1.1.2 0 .3.1.1-.1 0-.1 0-.3.3.2.7.4.9.4.1.1 0 .2-.2.1.4.2.8.5 1.2.8-.1-.3.4.3.4 0-.2-.2-.3-.4-.1-.4.1.1-.1.1 0 .1.2 0 .1.3.4.3-.4-.2-.2.1-.4.2.3.1-.1.1.2.3.3.1.6.3.9.5.2.4.8.8 1 1.1.1.2-.2.2-.1.4s0-.3.2.1c.1.1.3.6.6.6h-.2c0 .1.1.1.1.1-.1 0-.1.1-.2.1 0 .3.2.4.3.6v-.2c.3.4.3.7.4 1.1h-.1l.1.2c-.1 0-.1.2 0 .3-.1-.2-.3-.4-.4-.6 0-.2.2.1.3 0s-.1-.5-.2-.5c0 .1.1.1.1.2-.1.1-.2-.1-.3-.2 0 .1 0 .2.1.2-.1-.1-.1-.3-.3-.5.2.2.2 0 .2 0-.1 0-.3-.1-.4-.4.1-.3-.4-.4-.5-.7.2 0 .4.1.6.3l-.2-.4c-.1 0-.3 0-.5-.2l.1-.1c-.2-.2-.3-.1-.5-.3-.3-.5-.8-.8-1.1-1.1l.1-.1c-.3 0-.7-.4-1-.5-.4-.4-1.1-.5-1.2-.8l-2.6-1.2.2-.1c-.2 0-.1-.1-.3-.2.1.2-.3.1-.4.1-.4-.3-1-.3-1.4-.3v-.1c-.4 0-.9-.2-1.3-.4 0-.1-.1-.2-.3-.2-.3.1-.4 0-.9.1l-1-.3c-1.1 0-2.2-.3-3.4-.2l-.1-.1c-.6.1-1.2.1-1.8 0-.6 0-1.2-.1-1.6 0l.1-.2c-.3-.1-.7.1-.6.2-.3-.1-.7.1-.9 0-.3 0-.4.1-.6.2-.6 0-.8 0-1.4.1h.1c.1-.1.1-.1-.1-.1-.2.1-.8 0-.5.3-.6-.1-1.4.3-1.9.3.1.1-.1.1-.1.2-.5.1-1.1.2-1.4.4-.1 0 .1-.1-.1-.1-.1.1 0 .1-.1.2-.8.4-1.7.5-2.3.9-1.2.7-2.4 1.4-3.3 2.3-.2.4-.8.6-.8 1-.1 0-.2.3-.3.2-.1.2-.2.3-.4.5s-.3.4-.3.7v-.1c-.2.2-.2.4-.3.6s-.1.4-.2.7c0-.1 0-.1-.1-.2-.1.2.1.5-.1.5 0 .1.1.1.1 0-.2 1.1.2 2.2.8 3.2.3.8-.3.3.2.7 0 .1.1 0 .1 0 .2.2 0 .5.3.5.1-.1.1 0 .2 0 .3.4.2.6.7.8h-.1c.5.2.9.6 1.4.7 2.2 1.6 4.8 2.3 7.4 3s5.2.8 8 .9c.6.2.7.2 1.4.1 0 0-.1 0 0 .1 0-.2.5 0 .6-.2 1 0 1.9-.2 3-.3-.2 0-.2.2 0 .1l.2-.1c.1 0 .3-.1.1-.2l.9-.2 2.7-.9c1.2-.4 2.4-.9 3.4-1.6.5-.3 1.2-.8 1.6-1.3.7-.5 1.4-1.2 1.9-1.9s.7-1.6.6-2.5l.2.2c-.3.1-.2.4-.2.8zm-.1-1.6c.1-.1.1-.3.2-.1 0 0-.1.1-.2.1z"/><path d="M41.7 18.1l-.1-.1c.1 0 .2 0 .2.1 0-.1 0 0-.1 0zm-1.3-1c.1-.1.4.1.6.2-.2-.1-.4-.1-.6-.2zm-1.2-1c-.1-.1 0-.1.1 0h-.1z"/><path d="M39 16.2c-.1-.1-.2-.1-.2-.2 0 0 .3.1.2.2zm-3-1.5c-.1 0-.3 0-.3-.1 0 .1.4 0 .3.1zm-1.5-.4h-.1c-.1 0 0-.1.1 0zm-26 5.9l.1-.1zm3.9 10.7c.2 0 .1.1.1.1-.2 0 .1 0-.1-.1zm6.2 2.2h-.1l.1-.1z"/></g></g><path d="M45.2 18.8c-3-3.6-9.8-6.1-17.8-6.1-7.9 0-14.7 2.5-17.8 6.1H8V23c0 5.7 8.7 10.3 19.4 10.3S46.8 28.7 46.8 23v-4.2h-1.6z" class="K"/><g class="J"><path d="M44.8 18.8c.3.2 0-.2.2.1-.1 0-.1 0-.2-.1zm1.5.1c.2-.1.3-.1.5-.1.1.4.1 1.1 0 1.7 0 .6 0 1.2.1 1.7 0 .1-.2 0-.2.3.1.3.1.7.1 1 0 .4-.1.8-.2 1.2-.3.8-.8 1.5-1.4 2v-.1c-.2.2-.3.6-.5.8 0 0 0-.1-.1-.1 0 .1-.3.4-.4.6h-.3v.2c-.1.6-.9.7-1.4 1.2v-.1c-.4.4-.9.7-1.4 1a11.94 11.94 0 0 1-1.6.8c0-.1 0-.2-.1-.2 0 .2-.3.3-.6.5-.2-.1-.5.3-.8.4-.2.2-.4 0-.6.3l-.2-.1c-.1.2-.4 0-.6.2-.2.1-.3 0-.5.1-.4.2-.7.1-.7.3-.2-.1.4-.2.1-.3-1.4.5-3 .8-4.5.9-.2 0-.3-.1-.3-.1-.1 0-.6.1-.7.2.1 0-.1-.1-.2-.1-.3 0-.3.2-.6.1.1 0 .2-.1.1-.2-.3.1-.6.1-.9.2 0 0 .1 0 .1-.1-.3.2-.6 0-.9.1l.1-.1c-.5-.1-.1.2-.6.1.1 0 .1-.1.1-.1-.4.2-1 .1-1.4.1s-.9-.1-1.3 0c-.2-.1.1-.2-.4-.2 0 .2-.8 0-.5.2-.4-.1-1-.2-1.2-.2.2 0-.2-.2.2-.2l-.2-.1c0-.1.2.1.2 0-.2 0-.6 0-.8-.1-.3.1-.6.2-1.1.2.2 0-.1-.2.1-.2l-.7.2c-.2 0 0-.1-.2-.1 0 .1-.1.1-.2.1s-.7-.1-.7-.3c0-.1.3 0 .1-.1-.3-.1-.3 0-.6-.1-.2-.1-.6-.1-.4.1.1 0 0-.1.2 0-.2.1-.5 0-.8-.1.1 0 .1 0 .2-.1-.4 0-.8-.1-1.3-.1 0 .1.2-.1.3 0-.5-.3-1.2-.3-1.5-.6.1 0 0 .1 0 .1-.3-.1-.2-.2-.4-.3 0-.1-.2-.1-.4-.1-.1 0 0-.1.1 0-.3-.1-1.2-.4-1.7-.8 0 0-.4 0-.5-.1l.1-.1c-.1-.2-.4-.4-.4-.5-.3 0 1 .5.6.4 0-.1-.6-.1-.4-.2-.2-.1-.5-.2-.7-.4.1.1.3 0 .1-.1-.3-.2-.1 0-.4-.2l-.2-.1c-.1.1-.3-.2-.2 0 0-.1-.5-.3-.3-.5l.1-.1c-.1-.1-.3-.1-.5-.1v-.1c-.1.2-.2-.3-.5-.3-.2-.3-.6-.7-.6-.9-.2-.2-.4-.4-.6-.7.1 0 .1.1.2.1-.1-.2-.1-.2-.3-.4 0 0-.1-.4-.1-.7-.2-.2-.3-.1-.3-.1.1-.3-.4-.7-.3-1.1.1.1.2.4.2.1.1-.2 0-.3-.1-.4s-.2-.3-.1-.5l-.2.1c.1-.2-.2-.6 0-.6-.1-.1.1-.5-.1-.4.2-.6-.1-1.6.2-2 0-.1 0-.3-.1-.3-.1.2.1.2 0 .3 0-.1-.1-.1-.1-.1 0-.2.1-.4.2-.2.1-.5-.3-.4-.2-1.3.1.1.1 0 .1-.2l-.1-.6v-.2c.4 0 .3.2.4.3.2 0 .6 0 .6-.1.1.1.3.1.4.2-.3-.1.2-.1.3-.1h-.1c.1.1.3 0 .3 0 0-.1-.1-.1-.4-.1.2-.1.3 0 .3-.1 0 .1.2.1.2 0 .1 0 0-.2 0-.2 0 .1.2-.2.2 0 0 .1-.1.1-.1.1.1 0 .1.1.3-.2.1-.2-.2-.1.1-.3-.1.1 0 .1 0 .2.1-.1.2-.1.3-.2l-.1-.1h.1c0-.2.4-.4.3-.5.1-.1.3-.2.5-.3s.4-.3.5-.4.3-.2.4-.3c.3-.1.3.3.5 0 .2-.2.3-.4.1-.4.5-.2.9-.6 1.4-.7 0-.1 0-.1.1-.2.7-.3 1.4-.8 2-.8-.2.1 0 .1.1.2.1-.2.2 0 .2-.2-.1-.1-.1-.1-.3-.1.4-.2 1-.4 1.3-.4-.1 0 0-.1 0-.1 0 .2.3.1.5 0V13l.2.1c.1-.1 0-.2.3-.2 0 0 0 .1.1.1.2-.1.5-.4.8-.4l.2.1c.1 0 .3-.2.1-.2.5 0 .8-.1.9 0 .7-.5 1.9-.7 2.8-.7v.1c.3 0 .1-.1.3-.1-.1.1.2.1 0 .2.4 0 .4-.2.7-.2 0-.1-.2.1-.1 0 0 0 .5 0 .5-.1.1.1 0 .2 0 .2l.2-.1c.3.1-.6.3-.3.5h.2c.2.1-.5.2 0 .2.2-.1.4-.3.2-.4.4-.1.2-.4.7-.4.1.1-.4 0-.3.2.2.1.5-.1.7-.1-.2 0 0-.2.1-.2.2.1-.2.1.2.1.1-.1.4-.2.1-.2.1-.2.4 0 .6-.1.1.1-.4.3 0 .4-.1-.1.5-.2.3-.4.2 0 .2.1.1.2.2.1.5-.2.6 0l.1-.1c.1 0 .2.1.3.2.2 0 .6-.2.6 0 .1 0 .5 0 .3-.1-.3-.1-.3.1-.5-.1.2.2.4 0 .5-.1v.1c.1 0 .3 0 .4-.1-.1 0 0 .1 0 .1l.1-.1c.4 0 .1.2.4.2l-.4.4c.1 0 .2.1.4.1l.3-.3c.2 0 .1.1.3 0l-.3.1s.2.2.4.2.5-.1.2-.2c.1 0 .3.1.2.2.3 0 0-.1.2-.2.1.1.4.2.6.4l-.3.1h.2c-.3.1.1.1 0 .3h.4c-.3-.3.5-.3.4-.5.5 0 .2.6.8.3-.1-.1.2-.2-.1-.2.3.1.3-.2.6 0-.3 0 .3.3-.2.3 0-.1-.2-.1-.3-.1.1.1-.1.2.3.3.2 0 .5.1.5-.1 0-.1-.3 0-.2-.1.4 0 .4.2.6 0-.2 0-.3-.2-.3-.3h.3l-.1.1c.4.2.2-.1.6 0l.2.2c-.1.1-.6-.2-.6 0 .3.1.4 0 .7.1h-.2c.1 0 .1.3.6.3.2 0 .1-.1.1-.1.5.1.6.1.9.1-.1.1.5.2.1.2-.1-.1-.8-.3-1-.2.1.2-.4-.1-.5.1.4.1.3.3.3.4h.3c.1-.1-.1-.1 0-.3.4.1.8.2 1.1.1.1.1 0 .2-.1.2.5.1 1 .3 1.4.5-.2-.3.5.1.4-.1-.2-.1-.4-.3-.2-.4.1.1 0 .1 0 .1.2 0 .2.3.5.2-.5-.1-.2.2-.3.3.3 0-.1.1.3.2.3 0 .7.1 1.1.3.4.3 1.1.5 1.4.7.1.2-.1.3.1.4s-.1-.3.2 0h-.1c.1 0 .6.5.8.3l-.2.1c.1.1.1.1.2.1 0 .1 0 .1-.1.1.1.2.4.3.7.4l-.1-.2c.4.2.6.5 1 .8l-.1.1.2.1c-.1 0 0 .2.2.3l-.7-.3c-.1-.2.2 0 .2-.1s-.3-.4-.5-.3c.1.1.1.1.3.1-.1.2-.2 0-.4 0 .1 0 .1.2.2.1-.2 0-.3-.1-.5-.3.2.1 0-.1.1-.1-.1.1-.3 0-.6-.2-.1-.3-.6-.3-.9-.5h.7c-.2-.2-.2-.1-.4-.3-.2 0-.3.1-.6 0v-.1c-.3-.1-.3 0-.6-.1-.5-.3-1.1-.6-1.5-.8v-.1c-.3.1-.8-.2-1.2-.3-.5-.3-1.3-.3-1.5-.6l-3-.6.2-.1c-.2.1-.1-.1-.3-.1.2.2-.3.1-.4.2a2.62 2.62 0 0 0-1.5-.1v-.1c-.5.2-1-.1-1.5-.1-.1 0-.2-.1-.3-.1-.3.1-.5.1-.9.2-.3 0-.8-.1-1.1-.1-1.2.2-2.4.1-3.6.4l-.1-.1c-1.2.4-2.6.4-3.6.7l.1-.2c-.3 0-.7.2-.6.3-.3 0-.7.3-1 .2-.3 0-.4.2-.6.3a5.73 5.73 0 0 0-1.4.4h.1c0-.1 0-.1-.1-.1-.2.1-.8.2-.5.4-.7.1-1.3.7-2 .8.1 0-.1.1-.1.2-.5.3-1.1.4-1.4.8-.1 0 .1-.2-.1-.1-.1.1 0 .1-.1.2-.7.6-1.5 1-2.1 1.6l-.3.3c-.1.1-.2.3-.3.3h-1V21c.2.5-.2 1.2.1 1.6-.1.1 0 .4-.1.3.1.2.1.4.1.7s.1.5.2.7c0 0 0-.1-.1-.1 0 .1 0 .3.1.4l.2.3c.1.2.2.4.3.7 0 0-.1-.1-.2-.1 0 .2.5.3.3.5.1.1.1 0 .1-.1.6 1 1.8 1.9 2.9 2.5.7.6-.2.4.6.6 0 .1.1-.1.1 0 .3.1.3.5.5.5 0-.2.2 0 .2-.1.5.3.5.5 1 .6l-.4.3c.6 0 1.1.4 1.6.3 2.8 1 5.7 1.3 8.6 1.5s5.7-.1 8.6-.5c.7.1.8.1 1.5-.2 0 0-.1.1 0 .1 0-.2.5-.1.5-.3a26.37 26.37 0 0 0 3-1c-.2.1-.2.2 0 .2l.2-.2h.1c.1-.1.2-.2.1-.2 1.2-.6 2.4-1.2 3.5-2s2-1.7 2.6-2.8c.2-.2.3-.6.4-.9 0-.2.1-.3.1-.5v-.5c.2-.3.2-.7.2-1.1s.1-.8.1-1.2 0-.8.1-1.1v-.5c-.2 0-.3 0-1 .1 0 0 .1-.1.3-.2.1-.1.2-.1.4-.2 0-.1.2-.1.4-.2z"/><path d="M44.5 18.5c0-.1-.1-.3.1-.3 0 .1 0 .2-.1.3zm-5.2-4.3s-.1-.1 0 0c0-.1.1-.1.1 0-.1-.1-.1 0-.1 0zm-1.7-.6c0-.1.4 0 .6.1l-.6-.1zm-1.5-.8c-.1-.1-.1-.1.1-.1.1.1 0 .1-.1.1zm-.1.1c-.1 0-.2-.1-.2-.1-.1.1.3 0 .2.1zm-3.5-.8c-.1 0-.3 0-.3-.1.1.1.4 0 .3.1zm-1.6-.1h-.1c-.2-.1-.1-.1.1 0zM7.5 23.9v-.1zm9.8 8.4c.2 0 .1.1.1.1-.1 0 .1-.1-.1-.1zm7 1h-.1l.1-.2z"/></g><ellipse cx="27.4" cy="18.8" rx="19.4" ry="10.3" fill="#f5cf54"/><g class="J"><path d="M47.1 19c0-.4-.1.2 0-.2 0 0 .1.1 0 .2zm-.2-1.4c-.2-.3-.3-.5-.4-.8s-.3-.6-.4-.9c-.3-.6-.7-1.2-1.2-1.5-.1-.1.2-.1-.1-.3l-3.7-2.8h.1c-.2-.2-.6-.1-.9-.3 0 0 .1 0 .1-.1-.1.1-.5-.2-.7-.2-.1-.1 0-.2-.2-.3l-.2.1c-.6.1-1.1-.5-1.7-.5 0 0 .1 0 .1-.1-1-.1-2.3-.5-3.4-.7.1 0 .1-.1.1-.2-.1.1-.4.1-.7.1-.1-.2-.5 0-.9-.1-.3.1-.4-.1-.6 0l-.2-.1c-.1.2-.4-.2-.6-.1-.2 0-.3-.1-.5-.1-.5 0-.7-.1-.7 0-.1-.1.4 0 .2-.2h-4.5c-.2-.1-.3-.1-.3-.1-.1 0-.6.1-.7.2 0 0-.1-.1-.2-.1-.3 0-.3.2-.6.2.1-.1.2-.1.1-.2-.2.1-.6.1-.9.2l.1-.1c-.3.2-.6.1-.9.2l.1-.1c-.5 0-.1.2-.5.2.1 0 .1-.1.1-.1-.3.2-1 .3-1.3.4-.4.1-.8.1-1.2.3-.2 0 0-.2-.4-.1.1.2-.7.3-.4.4-.4.1-.9.1-1.2.3.1-.1-.2-.2 0-.3h-.3c0-.1.2 0 .1-.1a2.12 2.12 0 0 1-.7.3c-.2.2-.4.5-.8.7.2-.1-.2-.1-.1-.2l-.5.6c-.1.1-.1-.1-.3 0 0 0 0 .1-.1.2-.1 0-.5.3-.7.2-.1 0 .2-.1 0-.1-.3.1-.2.2-.5.3-.2.1-.5.3-.2.3.1-.1-.1-.1.1-.1-.1.1-.3.3-.6.5.1-.1 0-.1 0-.2-.2.3-.6.5-.9.8 0 .1 0-.2.1-.2-.5.2-.8.8-1.2.9 0-.1.1.1.1.1-.2.2-.3.1-.4.2-.1 0-.1.2-.3.3 0 .1-.1 0 0-.1-.2.2-.7.9-1.1 1.3 0 0 0 .4-.1.5l-.1-.1c-.1.1-.2.3-.3.3 0 .3.5-.9.4-.5-.1 0-.1.5-.2.4-.2.2-.2.5-.3.6 0-.1-.1-.3-.1-.1-.1.3 0 .1-.1.4v.2c.1 0-.1.3 0 .2-.1 0-.1.5-.2.4l-.1-.1c0 .1.1.3.1.4h-.1c.2.1-.1.3.1.5-.1.1-.1.3-.1.5s0 .3-.1.4c.1.2.2.4.2.7l-.1-.1c0 .2.1.2.1.3 0 0 0 .4-.1.6.2.2.2.1.3.1-.1.3.4.5.4.9-.1 0-.3-.3-.2 0-.1.3.4.3.5.6l.4-.6c0 .2.4.4.2.4.1 0 .2.4.3.2.3.6 1.1.9 1.1 1.4.1 0 .2.2.3.1-.1-.2-.2-.1-.2-.2h.1c.1.1.2.2 0 .3.3.3.5 0 .9.4-.1 0 0 .1.1.2h.3c.3.2.1.2 0 .4.2.1.4.2.5.2l.1.3c-.1-.2.2 0 .3 0h-.1c0 .1.2.1.3.2 0-.1-.2-.2-.3-.3.1 0 .2.1.4.1-.1.1.2.2.4.3.1.1.2 0 .3 0 0 .1.2.1.1.2-.1 0-.1-.1-.2-.1.1.1 0 .2.3.2.2 0 .1-.2.3 0H15c.1.1.2.1.3.2l.1-.1v.1c.1-.1.5.1.6 0 .1 0 .3.2.4.3s.4.2.6.2c.1 0 .3.1.5.1.2.2 0 .4.3.4.2.1.4-.1.4-.2.4.2 1 .2 1.3.4.1 0 0-.1.2-.1.6.2 1.4.2 1.9.5-.2 0 0 .1 0 .2.2-.1.2.1.3 0 0-.1 0-.1-.2-.2.4 0 1 .1 1.2.2-.1-.1 0-.1.1-.1-.1.2.2.2.5.2v-.1l.1.1c.1 0 .1-.2.3-.1 0 0 0 .1.1.1.2-.1.6-.2.8-.1l.2.2c.1 0 .3-.1.1-.1.4.1.7.2.8.3.8-.3 1.8-.2 2.7-.3v.1c.2.1.1-.1.3-.1-.1.1.2.1 0 .2.3.1.4-.1.6-.2 0-.1-.2.1-.1-.1 0 0 .5.1.5-.1.1.1 0 .2 0 .2l.2-.1c.3.1-.5.3-.3.5h.2c.2.1-.5.2 0 .2.2-.1.4-.3.2-.4.4-.1.2-.4.6-.4.1.1-.4 0-.3.2.2.1.4-.1.6-.1-.2 0-.1-.2.1-.2s-.1.1.2.1c0-.1.3-.2.1-.2.1-.2.3 0 .5-.2.1.1-.3.4.1.4-.1-.1.4-.2.2-.4.1 0 .2.1.1.2.2.1.4-.3.6-.1v-.1c.1 0 .2.1.3.1.2 0 .5-.3.5-.1.1 0 .5-.1.3-.2-.3 0-.3.2-.4 0 .2.1.4-.1.5-.2v.1c.1 0 .3-.1.3-.2-.1.1 0 .1.1.1l.1-.1c.3-.1.1.2.5.1l-.2.1c.1 0 .2.1.3 0a.76.76 0 0 1 .2-.4c.2-.1.1.1.3-.1l-.2.2s.2.1.5.1c.2-.1.4-.3.1-.3.1 0 .3 0 .2.1.3-.1-.1-.1.2-.2.1 0 .5.1.7.1l-.2.3.2-.1c-.2.2.1.1.1.3.1 0 .2-.1.3-.2-.4-.1.3-.4.1-.6.4-.2.5.4.8-.1-.1 0 .1-.3-.2-.1.3-.1.1-.3.5-.3-.2.2.3.1 0 .4 0-.1-.2 0-.3.1.1 0 .1.2.3.1s.4-.2.3-.3-.3.1-.2 0c.3-.2.5 0 .5-.3-.2.1-.3 0-.3-.1l.2-.1v.1c.4-.1.1-.2.5-.3l.2.1c0 .2-.6.2-.4.4.3-.1.3-.2.5-.3 0 0-.1.1-.2.1.1 0 .3.2.6-.1.2-.2 0-.1 0-.2.4-.2.5-.3.7-.5 0 .2.4-.2.3.1-.2 0-.7.3-.8.5.2.1-.3.1-.3.3.3-.1.4 0 .5.1.1 0 .2-.1.2-.2s-.1-.1-.2-.2a1.31 1.31 0 0 0 .8-.6c.1 0 .2.1 0 .2.4-.3.8-.5 1.2-.7-.3 0 .4-.3.1-.3-.2.1-.5.1-.4-.1.1-.1 0 .1.1.1.1-.2.3 0 .4-.3-.3.3.1.2.1.4.2-.3.1.1.3-.1s.4-.6.7-.8c.4-.2.8-.8 1-1 .2-.1.2.1.4 0 .1-.2-.3 0 0-.2v.1c0-.1.5-.5.3-.7l.1.2c.1 0 .1-.1.1-.2.1 0 .2 0 .1.1.2-.1.2-.5.3-.7l-.2.1c.1-.2.1-.4.2-.5.1-.2.1-.3.2-.5h.1v-.3c.1.1.2-.1.1-.3.1.2.1.5.1.7-.1.2-.1-.2-.2-.2-.1.1-.2.5-.1.6.1-.1 0-.2 0-.3.2 0 .1.2.2.4 0-.1.1-.2.1-.2 0 .2 0 .3-.1.6 0-.2-.1.1-.1 0 .1.1 0 .3-.1.6-.2.1-.3.6-.5.9 0-.2 0-.4.1-.7-.2.2-.1.2-.3.4 0 .1.1.3-.1.6l-.6-.2c-.2.2 0 .3-.3.6-.4.5-1 .8-1.3 1.1l-.1-.1c-.1.3-.7.6-.9.9-.6.2-1.1.8-1.4.8l-1.3.8-1.4.6.1-.2c-.1.2-.1 0-.3.1.2 0-.2.2-.3.4-.5 0-1.1.4-1.5.6v-.1c-.4.3-.9.3-1.5.4-.1 0-.2-.1-.3-.1-.3.2-.4.2-.8.4-.3.1-.8.1-1.2.1-1.1.4-2.4.4-3.6.6l-.1-.1c-.6.1-1.3.2-1.9.2-.7 0-1.3-.1-1.8 0l.1-.2c-.3-.1-.7 0-.7.1-.3-.1-.8 0-1-.1-.3-.1-.4.1-.7 0-.6-.2-.9-.2-1.5-.2h.2c.1 0 .1-.1-.1-.2-.2 0-.8-.2-.6.1-.6-.3-1.6-.2-2.1-.5 0 .1-.1 0-.2.1-.6-.1-1.1-.4-1.6-.5-.1-.1.2-.1 0-.1-.1 0 0 .1-.2.1-.5-.1-.9-.3-1.4-.5l-1.2-.6c-1.5-.5-2.9-1.5-4-2.5-.5-.2-.7-1-1.2-1.1-.1-.1-.3-.4-.2-.4-.3-.3-.6-1-1-1.5 0 .1 0 .1.1.1l-.3-.8c-.1-.3-.2-.6-.2-.9 0 .1.1.2.1.2 0-.3-.3-.6-.1-.7 0-.1-.1-.1-.1 0-.1-1.4.1-3.1.9-4.4.7-.8.4.2.7-.6.1 0 0-.1 0-.1-.2-.6.2-.5.3-.8-.2 0 0-.2 0-.2.5-.4.7-.4 1-.8v.1c.3-.6.9-.9 1.1-1.3 1.3-.9 2.7-1.7 4.1-2.2l2.1-.8 2.2-.6c2.9-.6 5.9-.9 8.9-.7.7.2.7.2 1.5.2 0 0-.1 0 0 .1.1-.2.5 0 .6-.1 1.1.2 2.1.2 3.3.5-.2 0-.3.1-.1.1l.2-.1v.1c.2 0 .3 0 .2-.1 2.9.4 5.6 1.7 8 3.2.5.4 1.4.9 2 1.4 1.6 1.7 2.6 3.6 2.9 6 .1 0-.3-.4-.6-1.2z"/><path d="M47.1 19.4c-.1.1-.2.3-.2.1 0 0 .1-.1.2-.1zm-4.2 4.8h-.1c.1 0 .1-.1.2-.1-.1.1 0 .1-.1.1zm-1.3.9c0-.1.3-.3.4-.4l-.4.4zm-1.5.4c-.1 0-.1 0 0-.1.1 0 0 .1 0 .1zm0 .2c-.1.1-.2 0-.3 0 .1.1.3-.1.3 0zm-3.1 1c-.1 0-.2.1-.3.1 0 0 .3-.2.3-.1zm-1.5.5h-.1c-.1 0 0 0 .1 0zm-26-5.4l.2.1-.1.1zm3.8-9.5c.1-.1.1 0 .2 0-.1.1 0-.1-.2 0zm6.1-2.7h-.1v-.2z"/></g><ellipse cx="27.4" cy="18.3" rx="15" ry="7" class="K"/><g class="J"><path d="M42.7 18.4c0-.3-.1.1 0-.2 0 .1.1.1 0 .2zm-.2-1.1c-.2-.2-.3-.4-.4-.6s-.2-.4-.4-.6c-.1-.2-.3-.4-.5-.6s-.4-.3-.6-.4c-.1-.1.2-.1-.1-.3-.9-.4-2-1.2-2.9-1.8h.1c-.2-.1-.5 0-.7-.2 0 0 .1 0 .1-.1-.1.1-.4-.1-.5 0-.1-.1 0-.2-.1-.2l-.2.1c-.4.2-.8-.3-1.3-.3 0 0 .1 0 .1-.1-.4 0-.8-.1-1.3-.1-.4-.1-.9-.2-1.3-.2 0 0 .1-.1 0-.2-.1.1-.3.1-.6.1-.1-.2-.4.1-.7 0-.2.1-.3-.1-.5 0l-.1-.1c-.1.2-.3-.1-.4-.1-.2 0-.2-.1-.4 0-.3 0-.5-.1-.5.1-.1-.1.3 0 .2-.2-1.1.1-2.3 0-3.4.1-.1-.1-.2-.1-.2-.1-.1 0-.4.1-.5.1l-.1-.1c-.2 0-.2.2-.4.1.1 0 .1-.1.1-.2-.2.1-.4.1-.7.2l.1-.1c-.2.2-.4 0-.7.1l.1-.1c-.4-.1-.1.2-.4.2.1 0 0-.1 0-.1-.3.2-.7.2-1 .3s-.6.1-.9.2c-.1 0 0-.2-.3-.1 0 .2-.5.2-.3.4-.3 0-.7 0-.9.2.1-.1-.2-.2 0-.3V12c0-.1.2 0 .1-.1-.1 0-.4.2-.5.2-.2.2-.3.4-.6.5.1-.1-.1-.2-.1-.2l-.4.6c-.1 0-.1-.1-.2 0 0 0 0 .1-.1.1 0 0-.4.2-.5.1-.1 0 .2-.1 0-.1l-.4.2c-.1 0-.3.2-.2.3.1 0-.1-.1.1-.1 0 .1-.3.2-.4.3v-.2c-.2.3-.4.4-.7.6 0 .1 0-.2.1-.2-.4.1-.6.6-1 .6l.1.1c-.2.1-.2 0-.3.1 0-.1 0 .1-.1.2 0 .1 0 0 0-.1l-.4.4c-.2.2-.3.4-.5.5 0 0 0 .3-.1.4V16c-.1 0-.2.2-.3.2 0 .2.4-.7.3-.4-.1 0-.1.4-.2.3-.1.1-.1.3-.3.4 0 0-.1-.2-.1-.1-.1.2 0 .1-.1.3v.1c.1.1-.1.2 0 .2-.1 0-.1.3-.2.3l-.1-.1c0 .1.1.2.1.3h-.1c.2.1-.1.2.1.4 0 .1-.1.2-.1.3s0 .2-.1.3c.1.2.2.3.2.5l-.1-.1c0 .1 0 .1.1.2 0 0-.1.3-.1.4.1.1.2 0 .3 0-.1.2.3.3.3.6-.1 0-.2-.1-.2 0-.1.3.3.2.4.4l.1-.2c0 .2.3.2.2.3.1 0 .2.3.3.1.2.4.9.6.9 1 .1 0 .2.1.2 0s-.2 0-.2-.1h.1c.1.1.2.2 0 .2.2.3.4-.1.7.2-.1.1 0 .1.1.1h.3c.2.1.1.2 0 .3.1 0 .3.1.4.1l.1.2c-.1-.2.1 0 .2 0H17c0 .1.2.1.2.1 0-.1-.1-.2-.2-.2h.3c-.1.1.2.2.3.2.1.1.2 0 .2 0 0 .1.2.1.1.1 0 0-.1-.1-.2-.1.1.1 0 .2.2.2.1 0 .1-.2.3-.1-.1 0-.1 0-.2.1l.2.1V23v.1c.1-.1.3.1.4 0 .1 0 .2.2.3.2.1.1.3.1.4.1s.2.1.3 0c.2.1-.1.4.2.3.2 0 .3-.1.3-.2.3.2.7.1 1 .3.1 0 0-.1.1-.1.5.2 1.1.1 1.4.3-.2 0 0 .1 0 .2.1-.1.1.1.2 0 0-.1 0-.1-.1-.2.3 0 .8 0 .9.2-.1-.1 0-.1.1-.1 0 .2.2.2.4.2v-.1l.1.1c.1 0 .1-.2.2-.1v.1c.2-.1.4-.2.6-.1l.1.2c.1 0 .2-.1.1-.1.3.1.5.1.6.3.6-.3 1.4-.3 2-.3v.1c.2.1.1-.1.2-.1-.1.1.1.1 0 .2.3.1.3-.1.5-.2 0-.1-.1.1-.1-.1 0 0 .3.1.4-.1.1.1 0 .2 0 .2l.1-.1c.2.2-.4.3-.2.5h.1c.1.1-.4.2 0 .2.2-.1.3-.3.1-.4.3-.1.1-.4.5-.4.1.1-.3 0-.2.2.2.1.3-.1.5-.1-.2 0 0-.2.1-.2.2.1-.1.1.1.1 0-.1.3-.2.1-.2.1-.2.3 0 .4-.1.1.1-.2.3.1.4-.1-.1.3-.2.1-.4.1 0 .1.1.1.2.2.1.3-.3.4 0v-.1c.1 0 .1.1.2.1s.4-.2.4 0c0 0 .3-.1.2-.2.1.2.1.4 0 .2.2.1.3-.1.4-.1v.1c.1 0 .2 0 .2-.1v.1-.1c.2-.1.1.2.3.1 0 0 .1.1.3 0 0-.1.1-.3.1-.3.1-.1.1.1.2 0l-.2.2s.2.1.3.1c.1-.1.3-.3.1-.3.1 0 .2 0 .2.1.2-.1-.1-.1.1-.2.1.1.3.1.5.2l-.1.2h.1c-.1.2.1.1.1.3.1 0 .2-.1.3-.1-.3-.2.2-.4.1-.6.3-.2.4.5.6 0-.1 0 0-.2-.2-.1.2 0 .1-.3.4-.2-.2.1.3.2 0 .4 0-.1-.2 0-.2 0 .1.1 0 .2.3.2.1-.1.3-.1.2-.2 0-.1-.2.1-.2-.1.2-.1.4 0 .4-.2-.2.1-.2 0-.3-.1l.2-.1v.1c.3 0 0-.2.3-.3l.2.1c0 .2-.4.1-.3.3.2-.1.2-.2.4-.2l-.1.1c.1 0 .3.3.5 0 .1-.1 0-.1 0-.2.3-.2.3-.3.5-.4 0 .2.3-.1.2.1-.1 0-.6.1-.6.3.2.1-.2.1-.2.3.2-.1.3.1.4.2.1 0 .1-.1.2-.1 0-.1-.1-.1-.2-.2.3-.1.5-.3.6-.4.1 0 .1.1 0 .2.3-.2.6-.3.9-.5-.3-.1.3-.2.1-.3-.2.1-.4 0-.3-.1.1 0 0 .1.1.1.1-.2.3 0 .3-.2-.2.2.1.2.1.4.1-.2 0 .1.2 0 .2-.2.4-.4.5-.6.3-.1.6-.5.8-.7.2 0 .2.1.4.1.1-.1-.2 0 0-.2 0-.1.4-.3.3-.5l.1.2s0-.1.1-.1.1 0 .1.1c.2-.1.2-.3.3-.5h-.2c.1-.3.3-.5.3-.8h.1v-.2c.1.1.2-.1.2-.2 0 .2.1.4.1.6-.1.1-.1-.2-.2-.1-.1 0-.2.3-.1.4.1-.1 0-.1 0-.2.2 0 .1.2.1.3 0-.1.1-.1.1-.2 0 .1 0 .3-.1.4 0-.2-.1 0-.1 0 .1.1.1.3-.1.5-.2 0-.2.4-.4.6v-.5c-.2.1-.1.2-.3.3 0 .1.1.3 0 .5l-.1-.1c-.1.2 0 .3-.2.5-.4.2-.8.6-1.1.7l-.1-.1c-.1.3-.5.4-.7.6-.4.1-.8.5-1.1.5-.7.4-1.3.7-2.1.9l.1-.2c-.1.1-.1-.1-.2 0 .2.1-.1.2-.2.3-.4 0-.8.2-1.1.4v-.1c-.3.3-.7.2-1.1.2-.1 0-.1-.1-.3-.1-.2.2-.3.2-.6.4-.2 0-.6.1-.9 0-.9.3-1.8.3-2.7.4l-.1-.1c-.9.3-2 0-2.8.1l.1-.2c-.2-.1-.6 0-.5.2-.2-.1-.6.1-.8-.1-.2-.1-.3.1-.5.1l-1.1-.2h.1c.1 0 .1-.1 0-.2-.2 0-.6-.1-.5.1-.5-.2-1.2-.1-1.6-.4 0 .1-.1.1-.2.1-.4-.1-.9-.3-1.2-.3-.1-.1.1-.1 0-.1s0 .1-.2.1c-.7-.1-1.4-.6-2-.8-1.1-.3-2.2-.9-3.2-1.6-.4-.1-.6-.7-1-.7 0-.1-.2-.3-.1-.3-.2-.1-.3-.3-.4-.5s-.3-.4-.5-.6c0 0 0 .1.1.1l-.3-.6c-.1-.2-.2-.5-.2-.7l.1.1c0-.2-.3-.4-.1-.6 0-.1-.1-.1-.1 0-.1-1.2.2-2.5.8-3.4.6-.6.3.2.6-.4.1 0 0-.1 0-.1.1-.2.5-.1.5-.3-.1-.1 0-.1 0-.2.4-.3.6-.2.8-.5v.1c.2-.4.7-.6.9-1 2.1-1.2 4.2-2 6.5-2.4 2.2-.3 4.4-.6 6.7-.4.5.2.6.2 1.1.2 0 0-.1 0 0 .1 0-.2.4 0 .5-.1.8.1 1.6.1 2.5.3-.1 0-.2.1-.1.1l.2-.1c.1 0 .2-.1.1-.1 2.2.2 4.2 1.2 6.2 2.1.4.3 1.1.6 1.6.9 1.2 1.2 2.3 2.6 2.5 4.5l-.2-.2c-.4-.1-.5-.3-.7-.7z"/><path d="M42.7 18.8c-.1.1-.2.2-.2.1s.1-.2.2-.1zM39.2 22s-.1 0 0 0v-.1c-.1 0 0 0 0 .1zm-1.1.5c0-.1.2-.2.3-.3l-.3.3zm-1.1.2c-.1 0-.1-.1 0-.1v.1zm-.1.2h-.2c.1 0 .2-.2.2 0zm-2.3.5c-.1 0-.2.1-.2 0 0 .1.2-.1.2 0zm-1.1.4c-.1 0-.1 0 0 0-.2 0-.1-.1 0 0zm-19.7-3.4h.1l-.1.1zm3-6.5c.1-.1.1 0 .1 0-.1.1 0-.1-.1 0zm4.6-1.9l-.1-.1z"/></g><path d="M25.9 18.1c.9-1.4 1-1.9.2-2.3-.6-.4-1.8-.6-3.1.2-1.1.7-1.4 1.3-1.5 1.6l-.1.1-1.9-.5v-.1c.3-.6.8-1.2 1.6-1.7l-1.7-1 1.4-.8 1.7 1.1c1.9-.8 4-.7 5.5.2 1.7 1 1.1 2.4.2 3.7-.8 1.1-.8 1.8.1 2.3.9.6 2.3.5 3.5-.2s1.6-1.5 1.7-1.9l.1-.1 1.9.5v.1c-.2.6-.9 1.4-1.8 2l1.7 1-1.4.7-1.8-1.1c-1.9.8-4.2.7-5.8-.2-1.5-.9-1.7-2-.5-3.6z" fill="#f5cf54"/><g class="J"><path d="M25.7 17.8c-.1.2.2 0 0 .1 0 0-.1-.1 0-.1zm-.4.8c0 .4-.2.8-.2 1.2-.1.4 0 .9.4 1.1.1.1-.2.1 0 .2l2.4 1.4h-.1c.2.1.4-.1.6 0 0 0-.1 0 0 .1.1-.1.3 0 .4-.1.1.1.1.1.1.2l.1-.1c.3-.3.7 0 1.1-.2 0 0-.1.1 0 .1l2-.7s-.1.1 0 .2c0-.1.3-.1.4 0 0 .2.3.1.5.2.2 0 .2.2.4.1v.2c.1-.2.1.2.3.2.1 0 .1.1.2.2.2-.2.3-.1.3-.3.1.1-.2.2 0 .3.3-.3.7-.5 1-.8v.2a9.13 9.13 0 0 1-1.3-.8c-.1-.1-.1-.2-.1-.2-.1 0-.2-.1-.3-.1V21h.1c.2 0 0-.2.2-.3v.2c0-.2.2-.3.3-.5v.1c0-.2.3-.2.3-.4v.1c.3-.2-.1-.1.1-.3 0 .1.1 0 .1.1 0-.2.2-.5.2-.6h.1v-.3h-.1c.2-.1.1-.1 0-.1 0-.1.3-.2 0-.2-.2.1-.4 0-.4.2 0 0-.2-.1-.3-.1s-.1-.1-.2 0c.1-.1-.2-.3 0-.3l-.2-.2c0-.1.2.1.1 0h-.4v.1c0 .3.1.6 0 .8 0-.1-.2-.1-.2-.1 0 .2.1.4.1.5-.1.1-.1-.1-.2.1v.2s-.3.3-.4.2c-.1 0 .1-.1 0-.1-.1.1-.1.2-.2.3s-.2.3-.1.3-.1-.1 0-.1c0 .1-.2.3-.3.4v-.2c-.1.3-.4.4-.6.6 0 .1 0-.2.1-.2-.4 0-.7.4-1 .3v.1c-.2 0-.2-.1-.3 0 0-.1-.1 0-.3.1-.1.1 0 0 .1 0-.1.1-.9.2-1.2 0 0 .1-.3.1-.4.1l.1-.1c-.1-.1-.3-.1-.3-.2-.1 0 .1.1.3.1s.4 0 .2.1c0-.1-.4 0-.3-.1-.2-.1-.4-.1-.5-.3 0 .1.2 0 .1-.1-.2-.2-.1 0-.3-.1-.1 0-.1-.1-.1-.1-.1.1-.2-.3-.2-.1 0-.1-.3-.4-.1-.5h.2c0-.1-.2-.2-.3-.3 0 0 0-.1.1-.1-.2 0 0-.3-.1-.5.2-.3.3-.6.4-.6 0-.2.1-.4.2-.5v.1c.1-.1.1-.1.1-.2l.4-.2c0-.2-.1-.2-.2-.2.3 0 .1-.4.3-.5 0 .1 0 .2.1.2.3 0 0-.3.1-.4h-.2c.1 0 0-.3.1-.2-.1-.1.1-.2-.1-.2.2-.3-.2-.5 0-.8 0 0-.1-.1-.2 0 0 .1.1 0 .1.1h-.1c0-.1-.1-.2.1-.2-.1-.2-.4.1-.5-.1.1-.1.1-.1 0-.1h-.2c-.1-.1 0-.2 0-.3-.1 0-.2-.1-.3 0l-.1-.2c0 .1-.1 0-.2 0h.1c0-.1-.1-.1-.2-.1 0 .1.1.2.1.2h-.2c.1-.1-.1-.1-.2-.2s-.1.1-.2.1c0-.1-.1 0-.1-.1 0 0 .1.1.1 0s0-.2-.2-.1c-.1 0 0 .2-.2.1.1 0 .1-.1.1-.1l-.2-.1v.1-.1c-.1.1-.3 0-.3.1-.1 0-.2-.1-.3-.1-.1-.1-.2 0-.3 0s-.2 0-.3.1c-.1-.1-.1-.4-.2-.3-.2 0-.2.2-.2.3-.3-.1-.5.2-.8.1 0 .1 0 .1-.1.1-.2 0-.4.1-.6.2-.3.1-.6.3-.8.1.2 0 0-.1 0-.2-.1 0-.1-.2-.2 0 0 .1 0 .1.1.3l-.6-.3c-.1-.1-.2-.2-.3-.2 0 .1 0 .1-.1.1.1-.1 0-.2-.2-.3l-.1.1v-.1c-.1 0-.2.1-.2 0v-.1c-.1 0-.2.2-.2 0v-.1.2c-.1 0-.1 0-.3-.1-.1.3-.4.5-.6.7v-1.4c.2.1.5.3.7.4l-.1.1c.1.1.1-.1.2 0-.1 0 0 .2-.1.2.1.2.3 0 .4.1.1-.1-.1 0 0-.1 0 0 .2.2.3.1 0 .1-.1.1-.1.2h.1c0 .2-.5.1-.4.3h.1c0 .2-.4 0-.1.2.1 0 .3-.1.3-.2.2.1.2-.1.3-.1v1.1c0 .1 0 .1-.1.1s.1-.1.1-.2v-1h-.1v.9c-.2 0-.2.2-.3.2.1 0 .1.2.1.2-.1 0 0-.1-.2-.1 0 .1 0 .2.1.2.1.1-.1 0 0 .1-.1-.1-.2-.2-.3-.2.1.1.1.2.3.2 0 0-.2 0-.2-.1-.1 0 .2.1-.1.1 0 0 .2.1-.1.1 0 0 0 .1.2 0 .1-.1-.1 0 .2-.1-.2.1 0 0 .1 0h-.1.1c-.1 0-.2.1-.2.1l.2-.1c0-.1-.3.1-.3.1s-.1 0-.1.1c0 0-.1.1-.1 0 .1-.1.2-.2.3-.2 0 0-.1.1-.1 0 0 0 0 .1-.1.1 0 0-.2.1-.1.1l.1-.2-.1.1s0-.1.1-.2c0 .1 0 .2.1.3v.2h.1c-.1.1.1.1 0 .3h.2c-.2-.3 0-.3-.2-.6 0 0 .3.5.2.1 0 0-.1-.2-.1-.1l-.1-.1.1.1c.1 0 .1 0 .1.1h-.1c.1 0 .2.2.2.1s.2-.3 0-.3c-.1-.1-.1.2-.2 0 .1-.3.3-.2.2-.4-.1.1-.2.1-.3 0l.1-.2v.1c.3-.2 0-.2.2-.4h.2c0 .1-.4.3-.2.4.2-.1.1-.3.3-.3l-.1.1c.1 0 .3.1.4-.2.1-.1 0-.1-.1-.2.2-.2.3-.3.5-.4 0 .2.3-.2.2.1-.1 0-.5.2-.5.4.2.1-.2.1-.1.3.2-.1.3 0 .4.1.1 0 .1-.1.1-.1 0-.1-.1-.1-.2-.2.2-.1.4-.3.5-.5.1 0 .1.1 0 .2.3-.2.6-.3.9-.3-.2-.2.3-.1.2-.3-.2 0-.4-.1-.3-.2.1 0 0 .1.1.1.1-.1.3.1.4-.1-.3.1 0 .2-.1.4.2-.1 0 .1.2.1.2-.1.5-.2.7-.2.3.2.7.2 1 .3.1.2-.1.2 0 .4.2.1 0-.2.2 0 .1 0 .2.4.5.4h-.2l.1.1c-.1 0-.1.1-.2 0-.1.2.1.3 0 .5l.1-.1c0 .3-.2.5-.3.8l-.1-.1v.2c-.1-.1-.2 0-.2.1v-.5c.1-.1.1.2.2.2s.2-.3.1-.3v.2c-.2 0-.1-.2-.2-.2 0 0-.1.1 0 .1v-.3c0 .1.1 0 .1 0-.1 0-.1-.1-.1-.3.1-.2-.2-.2-.3-.3a.45.45 0 0 1 .5 0c0-.2-.1-.1-.1-.3-.1 0-.3.1-.4.1l.1-.1c-.2 0-.2.1-.4 0-.3-.2-.6-.2-.9-.2v-.1c-.1.2-.5.1-.6.3-.3 0-.6.3-.8.3l-.6.6.5.1c-.1.1-.1.2-.3.4v-.2c0 .2-.1 0-.2.2.2-.1 0 .3 0 .5-.1.1-.1.2-.2.3-.3 0-.6-.1-.9-.1V18c-.4.1-.9-.3-1.2-.4 0 0 0-.1-.1-.2h-.5c-.1-.1 0-.2 0-.3.1-.2.3-.6.6-.8.1-.3.3-.6.6-.8.3-.3.5-.4.7-.6V16c-.2-.1-.4-.2-.7-.3v-.1c-.4-.1-.7-.3-1.1-.5l-1-.6 1-.6c.2-.1.3-.2.5-.3.1 0 .1-.1.2-.1l.3-.2v.2c.3-.1.5-.4.5-.5.1 0 .2-.1.3-.2.2.1.5.2.5.4.3.2.4.1.5.2s.3.2.4.3.3.1.3.1-.1.1 0 .1.2.1.2-.1h.2l.2-.1c.2-.1.5-.2.7-.1 0-.1.1-.1.1-.1.4-.1.8 0 1.1-.1.1 0-.1.1.1.1.1 0 0-.1.1-.1.6-.1 1.3.2 1.9.3.5.1 1 .2 1.5.5s1 .7 1.3 1.3h-.1c.2.2.2.4.2.7s0 .5.1.7c-.1.1-.1.4-.2.3.1.4-.4.8-.4 1.2v-.1c-.3.3-.4.6-.6.9v-.1c-.2.1 0 .4-.2.3 0 .1.1.1.1.1-.2.3-.3.6-.3.7s.1.1.1.1.1.1.3.1c.3.3-.1.4.2.3 0 .1 0-.1 0 0 .1 0 .2.3.3.2 0-.1.1-.1.1-.2.3.1.4.2.6.1v.1c.3-.2.6-.2.7-.5a4.44 4.44 0 0 0 1.1-.8c.2-.2.3-.3.4-.5l.3-.6.3-.9 1.8.5.7.2.3.1c.1 0 .1.1.2.1l.6.4c.3 0 .1.3 0 .5l-.2.6c-.1.4-.4.8-.7 1.1-.1.2-.3.4-.5.5l-.3.3c-.2.2-.4.4-.7.5v-1.8c.6.3 1.1.7 1.7 1.1l1.4 1-1.3.3-.3.1c-.2 0-.4 0-.5.1-.1 0-.1.1-.2.1-.1.1-.2.2-.4.3 0 0 .1-.1 0-.1 0 .2-.5.3-.6.5l-1.3-.8c-.3-.2-.7-.4-.6-.3 0 0 .1-.1 0-.1v.1-.1.2c.2 0-.5.2-.9.3-.5.1-1 .1-1.5.1-1 0-1.9-.2-2.9-.6l-1.5-.8c-.3-.3-.6-.7-.7-1.1-.2-.4-.2-.9-.2-1.3.1-.8.5-1.4.9-2.1.1.2.3.5.1 1.1z"/><path d="M25.8 17.6c.1 0 .2-.1.2.1 0-.1-.1-.1-.2-.1zm-1.4-2.8c0 .1 0 0 0 0s0-.1 0 0zm-1.1.3c0-.1.2-.2.4-.3-.2.1-.3.2-.4.3zm-1.1.3c-.1 0-.1 0 0-.1v.1z"/><path d="M22.2 15.6c-.1.1-.1.1-.2 0 0 .1.1-.1.2 0zm-1.2.9s0 .1 0 0c0 .1-.1-.1 0 0zm-.1.1zm7.6.4l-.1-.1h.1zm3.5 4c.1-.1.1 0 .1 0-.1.1 0-.1-.1 0zm2.6-2l.1-.2z"/></g></svg>