<?xml version="1.0" encoding="utf-8"?>
<!-- Generator: Adobe Illustrator 24.0.2, SVG Export Plug-In . SVG Version: 6.00 Build 0)  -->
<svg version="1.1" id="Layer_1" xmlns="http://www.w3.org/2000/svg" xmlns:xlink="http://www.w3.org/1999/xlink" x="0px" y="0px"
	 viewBox="0 0 52.4 52" style="enable-background:new 0 0 52.4 52;" xml:space="preserve">
<style type="text/css">
	.st0{fill:#FFFFFF;}
	.st1{fill:#202020;}
	.st2{fill:#7192AD;}
	.st3{fill:#7B9FB7;}
	.st4{fill:none;}
	.st5{fill:#A23A54;}
	.st6{fill:#BB4567;}
</style>
<g>
	<g>
		<g>
			<polygon class="st0" points="33.2,10.6 34.4,9.6 40.2,7.2 38.4,3.8 32.6,6.2 26.9,11 27.3,13.6 29.1,17 28.7,14.3 33.1,10.7 
				35.1,27.2 36.9,30.6 34.8,13.6 			"/>
			<g>
				<g>
					<g>
						<g>
							<path class="st1" d="M33.2,10.2c-0.2,0.2,0.2,0-0.1,0.2C33.1,10.3,33.1,10.2,33.2,10.2z"/>
							<path class="st1" d="M33.5,11.5c0.6,0.5,0.9,1.3,1.3,2.1c0,0.3,0.1,0.6,0.2,0.8c0,0.1-0.2,0-0.1,0.3c0.4,1,0.4,2.6,0.4,3.8
								l-0.1-0.1c0,0.2,0.2,0.5,0.2,0.8c0,0-0.1-0.1-0.1,0c0.1,0,0.1,0.4,0.2,0.5c0,0.1-0.1,0.1-0.2,0.2l0.2,0.1
								c0.4,0.4,0.1,1,0.3,1.5c0,0-0.1-0.1-0.1,0c0.3,0.8,0.4,1.9,0.6,2.9c-0.1,0-0.1-0.1-0.2,0c0.1,0,0.2,0.3,0.3,0.6
								c-0.1,0.1,0.2,0.4,0.1,0.7l0,0c0.2,0.2,0,0.3,0.2,0.5l-0.1,0.2c0.2,0.1-0.1,0.3,0.1,0.5l0,0c0.1,0.2,0,0.3,0,0.4l0,0
								c0.1,0.4,0,0.6,0.2,0.6c-0.1,0.1-0.1-0.4-0.3-0.1c0.2,0.9,0.4,1.8,0.5,2.8l0.1,0.7l-0.3-0.6l-0.5-0.9c0-0.2,0-0.2,0-0.3
								c-0.1-0.1-0.2-0.4-0.4-0.5c0,0,0-0.1,0-0.2c-0.1-0.2-0.3-0.1-0.3-0.4c0.1,0.1,0.1,0.1,0.2,0c-0.2-0.1-0.3-0.4-0.5-0.6
								c0,0,0.1,0.1,0.1,0c-0.3-0.2-0.2-0.4-0.4-0.6l0,0l0,0l0.1,0c0,0,0-0.1,0-0.1c0-0.3-0.2,0-0.2-0.4c0,0.1,0.1,0,0.1,0.1
								c-0.2-0.3-0.2-0.8-0.3-1.1c0,0,0,0,0,0c-0.1-0.3-0.1-0.7-0.2-1.1c0-0.1,0.2,0,0.2-0.3c-0.2,0-0.2-0.6-0.3-0.4
								c0-0.3,0-0.8-0.1-1c0.1,0.1,0.2-0.2,0.3,0.1l0.1-0.2c0.1,0,0,0.2,0.1,0.1c0-0.1-0.1-0.5-0.1-0.6c-0.1-0.2-0.4-0.4-0.4-0.8
								c0.1,0.2,0.2-0.1,0.2,0L34,21.1c0-0.1,0.1,0,0.1-0.2c0,0-0.1-0.1-0.1-0.1c0-0.1-0.1-0.5,0.1-0.6c0.1-0.1,0.1,0.2,0.1,0.1
								c0-0.2-0.1-0.2-0.1-0.5l0,0c0-0.2-0.1-0.5-0.2-0.3c0,0.1,0.1-0.1,0.1,0.1c-0.1-0.1-0.2-0.4-0.2-0.6c0,0.1,0.1,0.1,0.1,0.1
								c-0.2-0.3-0.3-0.6-0.4-1c-0.1,0,0.2,0.1,0.1,0.2c0.1-0.5-0.3-0.9-0.2-1.3c0,0.1-0.1,0-0.1,0c0-0.2,0.1-0.2,0-0.4
								c0.1,0,0-0.2-0.1-0.3c-0.1-0.1,0,0,0.1,0.1c-0.1-0.2-0.3-1-0.2-1.5c0,0-0.2-0.3-0.2-0.4l0.1,0c0.1-0.1-0.1-0.4,0-0.4
								c-0.2-0.2,0.2,0.9,0.1,0.6c0.1-0.1-0.2-0.4-0.1-0.4c0-0.2-0.2-0.4-0.1-0.6c0,0.1,0.2,0.2,0.1,0C33,13.3,33,13.5,33,13.3
								l-0.1-0.2c-0.1,0,0-0.3-0.1-0.2c0,0,0-0.2,0-0.2c0,0,0-0.1,0.1-0.1l0.1,0c0-0.1-0.2-0.1-0.2-0.1c0,0,0-0.1,0.1-0.1
								c-0.2,0.1,0-0.2-0.2-0.1c0.1-0.2,0-0.3,0.1-0.6c0,0,0,0,0,0c-0.1,0.2-0.2,0.3-0.2,0.3c0,0,0.1-0.1,0.1-0.2
								c0-0.1-0.1,0.1-0.1,0.2c0-0.1-0.1-0.1-0.2-0.1c-0.1,0.2,0,0.3,0,0.4c-0.1-0.1-0.1,0-0.2,0.1c0,0.1-0.1,0.2-0.3,0.2
								c0-0.1,0.2-0.3,0-0.2c-0.3,0-0.2,0.4-0.5,0.5l0.2,0.1c-0.2,0-0.3,0.4-0.4,0.2c0,0.1-0.3,0.2-0.2,0.3
								c-0.5,0.2-0.9,0.9-1.4,0.9c0,0.1-0.3,0.2-0.2,0.3c0.2-0.1,0.1-0.2,0.2-0.2c0,0,0,0.1,0,0.1c-0.1,0.1-0.2,0.1-0.2,0.1
								c0,0.1-0.1-0.1,0-0.2c0,0-0.1,0-0.1,0.1c0,0.1,0,0.2,0.1,0.4c0,0.2,0.1,0.4,0.1,0.7c0,0.2,0.1,0.3,0.1,0.5
								c0,0.1,0.1,0.3,0.1,0.5c0.2,0.6,0.4,1.5,0.4,2c-0.1-0.5-0.2-0.6-0.1-0.1l0.1,0.6l0.1,0.5c-0.1-0.3-0.3-1.1-0.5-1.9
								c0,0.2,0,0.2,0.1,0.7l-0.2-0.8c0.2,0.5,0.1,0.4,0.1,0.6l0-0.2c-0.1-0.2,0,0,0,0.1c0.1,0.3,0.1,0.4,0.2,0.5c0,0.3,0,0.2,0,0.5
								c-0.1-0.5-0.1-0.4-0.2-0.4c-0.1-0.2,0,0.2-0.1,0.1c0-0.2-0.2-0.4-0.1-0.5c0,0,0.1,0.4,0.1,0.3c-0.1-0.3-0.1-0.6-0.2-0.6
								c-0.1,0,0.1,0.8-0.1,0.2c0,0,0-0.1,0.1-0.2l-0.2-0.5l0,0.3c0-0.1,0-0.1,0-0.2c0,0.2-0.3-0.4-0.3-0.2
								c-0.1-0.2-0.2-0.6-0.3-0.8l0,0c-0.1-0.3-0.2-0.5-0.4-0.6l0,0c-0.1-0.1-0.2-0.4-0.3-0.4c-0.1-0.4,0.1-0.6-0.1-0.7
								c-0.1-0.2-0.4-0.2-0.3-0.1c-0.1-0.3-0.3-0.6-0.5-1c-0.1-0.3-0.1-0.5,0-0.6c-0.1-0.1-0.1,0-0.1-0.1c0-0.3-0.1-0.6-0.1-0.9
								c0-0.1,0-0.3,0-0.4c0-0.1,0-0.4,0-0.5c0.1,0.3,0.1,0,0.2,0c-0.1-0.2,0.1-0.2-0.1-0.3c-0.1,0-0.2-0.1-0.2,0.2
								c0-0.1-0.1-0.3-0.1-0.4c0.2-0.2,0.4-0.4,0.6-0.5C27,10,27.1,10,27.2,9.9c-0.1,0-0.1,0,0-0.1c0.1,0.1,0.3,0,0.4-0.2l0-0.1
								l0.2,0c0-0.1-0.1-0.2,0.1-0.3c0,0,0.1,0,0.1,0c0.1-0.2,0.2-0.5,0.5-0.6l0.2,0c0.1-0.1,0.1-0.2,0-0.2c0.3-0.2,0.5-0.3,0.7-0.3
								c0.3-0.6,1-1.3,1.6-1.7l0,0.1c0.2-0.1,0-0.2,0.1-0.2c0,0.1,0.2,0,0.1,0.2c0.3-0.1,0.2-0.3,0.3-0.5c0-0.1-0.1,0.1-0.1,0
								c0,0,0.4-0.2,0.3-0.3c0.1,0,0.1,0.1,0.1,0.2l0.1-0.2c0.3,0-0.2,0.5,0.1,0.6l0.1-0.1c0.2,0-0.2,0.4,0.1,0.2
								c0.1-0.2,0.1-0.4-0.1-0.4c0.1-0.1,0.1-0.3,0.2-0.4c0,0,0-0.1,0.1-0.1c0.1,0,0.1-0.1,0.2-0.1c0.1,0,0,0.1-0.1,0.1
								c-0.1,0.1-0.2,0.1-0.2,0.2c0.2,0,0.3-0.1,0.3-0.1c0.1-0.1,0.1-0.1,0.2-0.1c-0.2,0-0.1-0.2,0-0.2c0.2,0-0.1,0.2,0.2,0.1
								c0-0.1,0.2-0.3,0-0.2c0-0.2,0.3-0.1,0.4-0.3c0.1,0.1-0.2,0.4,0.2,0.3c-0.1-0.1,0.3-0.3,0.1-0.4c0.1,0,0.2,0.1,0.1,0.2
								c0.2,0,0.3-0.4,0.5-0.2l0-0.1c0.1,0,0.2,0,0.3,0.1c0.1-0.1,0.4-0.4,0.5-0.2c0,0,0.4-0.2,0.2-0.2c-0.2,0-0.2,0.2-0.4,0.1
								C35,4.4,35.1,4.1,35.2,4l0,0.1c0.1-0.1,0.2-0.1,0.2-0.2c0,0.1,0,0.1,0.1,0.1l0-0.1c0.3-0.2,0.1,0.2,0.4,0l-0.2,0.2
								c0,0,0.2,0,0.3-0.1c0-0.1,0.1-0.3,0.1-0.4c0.1-0.1,0.1,0.1,0.2-0.1l-0.2,0.2c0,0,0.2,0.1,0.4,0c0.1-0.1,0.3-0.3,0-0.3
								c0.1,0,0.3,0,0.2,0.1c0.2-0.1-0.1-0.1,0.1-0.2c0,0,0.2,0,0.4,0c0.2,0,0.4,0,0.5,0c-0.1,0.1-0.2,0.2-0.3,0.3l0.2-0.1
								c-0.2,0.3,0.1,0.1,0,0.3c0.1,0,0.3-0.1,0.4-0.2c-0.2-0.1-0.1-0.2,0.1-0.4c0.2-0.2,0.4-0.3,0.4-0.5c0,0,0,0,0,0
								c0.4,0.6-0.1,0.9,0.4,1.2c0-0.2,0.3,0,0-0.3c0.2,0.4,0.3,0.2,0.5,0.7c-0.2-0.2-0.1,0.4-0.4,0.1c0.1,0-0.1-0.3-0.1-0.3
								c0,0.2-0.2,0.1,0,0.5c0.1,0.2,0.2,0.3,0.3,0.3c0.1-0.1-0.1-0.2,0-0.2c0.2,0.3,0,0.4,0.3,0.4c-0.1-0.2,0-0.3,0.1-0.3l0.2,0.2
								l-0.1,0c0.1,0.4,0.2,0,0.3,0.4l-0.1,0.2c-0.2,0-0.2-0.5-0.4-0.3c0.1,0.2,0.2,0.2,0.3,0.5c0,0-0.1-0.1-0.1-0.1
								c0,0.1-0.2,0.3,0.1,0.5c0.2,0.2,0.1,0,0.2,0c0.3,0.6,0.5,0.7,0.8,1.2C40.9,7,41.5,7.8,41,7.3c0-0.1-0.4-1-0.7-1.2
								c0,0.1-0.1,0-0.2-0.1c-0.1-0.2-0.1-0.2-0.2-0.2c0.1,0.3,0,0.4-0.1,0.5c0,0.1,0.1,0.2,0.2,0.2c0.1,0,0.1-0.1,0.2-0.1
								c0.2,0.4,0.5,0.8,0.8,1.1c0,0,0,0.1,0,0c0,0-0.1,0-0.1,0c-0.1,0-0.1-0.1-0.2-0.2l0.1,0.1c-0.4,0.2-1,0.4-1.4,0.6
								c0.2,0,0.1,0.1-0.1,0.2c-0.1,0.1-0.2,0.1-0.1,0.1c0.2,0,0.6,0,0.4,0.1c-0.2,0.1,0-0.1-0.1-0.1c-0.2,0.2-0.3-0.1-0.4,0.2
								c0.3-0.2,0-0.3,0-0.4c-0.2,0.2,0-0.1-0.3,0c-0.2,0.2-0.5,0.4-0.8,0.5c-0.4,0-0.9,0.4-1.2,0.5c-0.2,0-0.1-0.2-0.3-0.2
								C36.2,9,36.6,9,36.3,9.1l0,0c-0.1,0.1-0.6,0.1-0.6,0.4l0-0.2c-0.1,0-0.1,0.1-0.1,0.1c0-0.1-0.1-0.1,0-0.2
								c-0.2,0-0.4,0.2-0.6,0.3l0.2,0.1c-0.2,0.2-0.5,0.2-0.7,0.3c-0.1,0-0.1,0.1-0.2,0.2l-0.1-0.1L34.1,10c0-0.1-0.2,0-0.3,0.1
								l0.3-0.6c0.2-0.1-0.1,0.2,0.1,0.2c0.1,0,0.1,0,0.2-0.1c0.1,0,0.2-0.1,0.2-0.2c-0.1,0-0.1,0.1-0.2,0.1
								c-0.1-0.1,0.1-0.2,0.1-0.3c-0.1,0-0.2,0-0.2,0.1c0.1-0.1,0.2-0.2,0.4-0.3c-0.1,0.1,0.1,0.1,0.1,0.1c0-0.1,0.1-0.3,0.4-0.3
								c0.2,0.1,0.4-0.3,0.8-0.4C36,8.7,35.9,8.9,35.7,9c0.2,0,0.2-0.1,0.4-0.1c0.1-0.1,0.1-0.3,0.3-0.5l0.1,0.1
								c0.2-0.1,0.1-0.3,0.4-0.4c0.5-0.1,1-0.3,1.4-0.5l0.1,0.1c0.1-0.3,0.7-0.4,0.8-0.5c0.2,0,0.4-0.2,0.5-0.2
								c-0.1-0.1-0.1-0.2,0-0.2c-0.3-0.4-0.9-1.3-1.2-2c0.1,0,0.1,0,0.2,0c-0.1,0,0-0.1,0-0.2c0,0.2-0.2,0-0.3,0
								c0-0.1,0-0.2-0.1-0.2c-0.2,0.1-0.4,0.3-0.5,0.4l0-0.1c-0.2,0.3-0.7,0.3-1.2,0.5c-0.1,0-0.2-0.1-0.3,0
								c-0.2,0.2-0.3,0.3-0.6,0.5c-0.2,0.1-0.7,0.2-0.9,0.3c-0.3,0.2-0.6,0.4-0.9,0.5c-0.3,0.1-0.6,0.3-0.9,0.4L32.6,7
								c-0.1,0.1-0.2,0.2-0.3,0.4l-0.1,0c-0.6,0.8-1.7,1.5-2.3,2.1l-0.1-0.2c-0.2,0.1-0.4,0.4-0.3,0.5c-0.2,0.1-0.4,0.5-0.7,0.5
								c-0.2,0.1-0.2,0.3-0.4,0.5c-0.2,0.1-0.4,0.3-0.5,0.4l-0.1,0.1l0,0c0,0,0,0-0.1,0.1l0,0c0,0-0.1-0.1-0.2-0.1c0,0,0,0,0,0
								c0,0.1,0,0.2,0.2,0.2c0,0,0,0,0,0.1c0,0.1,0,0.1,0,0.2c0,0.2,0.1,0.3,0.1,0.5C28,12.4,28,12.8,28,13c0.1-0.1,0.1,0.1,0.1,0.1
								c0,0.1,0,0.1,0,0.2c0,0.1,0,0.2,0.1,0.2c0,0.1-0.1,0.1,0,0.2c0,0,0-0.1,0.1-0.1c0.1,0,0.1,0.1,0.1,0.3c0,0.2,0.1,0.4,0.2,0.5
								c0,0,0,0,0,0l0-0.1l0-0.2l0-0.3c0-0.1,0-0.1,0-0.2c0.2-0.1,0.3-0.3,0.5-0.4l0,0c0.2-0.4,0.9-0.5,0.9-0.9
								c0.1,0,0.3-0.2,0.3-0.1c0.1-0.2,0.3-0.3,0.5-0.4c0.2-0.2,0.4-0.2,0.7-0.6c-0.1,0-0.1,0.1-0.1,0.2c0.7-0.4,1.2-1.1,1.8-1.5
								c-0.1,0.1-0.2,0.2-0.2,0.3c0.2,0,0.7-0.9,0.7-0.5c0.1-0.1,0.2-0.3,0.1-0.2l0.1-0.1c0.1,1,0.2,1.8,0.3,2.7l0.1,0.7l0.1,0.4
								c0.1,0.3,0.1,0.6,0.2,0.8c0,0.8-0.4,0.1-0.1,0.7c0,0.1,0.1,0,0,0c0.1,0.2-0.2,0.4-0.1,0.6c0.1-0.1,0.1,0.1,0.2,0.1
								c0,0.5-0.2,0.6,0,1l-0.1,0c0.3,0.4,0.2,1,0.5,1.3c0.3,2.5,0.8,5,1.1,7.4c0.1,0.6,0.1,1.2,0.2,1.8l0.8,1.5
								c0.3,0.6,0.6,1.1,0.9,1.7l-2,0.6c0-0.5-0.1-1-0.1-1.5c0.1-0.6,0.1-0.6,0-1.3c0,0,0,0.1,0.1,0c-0.2,0-0.1-0.4-0.2-0.5
								c-0.1-0.9-0.2-1.8-0.3-2.7c0,0.1,0.2,0.2,0.1,0l-0.1-0.2l0,0c0-0.1-0.1-0.2-0.2-0.1c-0.4-2.4-0.4-4.7-0.7-7.1
								c0-0.6-0.2-1.3-0.3-1.9c0-0.3,0-0.6,0-0.9l0-0.5l0-0.2c0-0.1,0-0.1,0-0.1c0,0,0,0,0-0.1L34,13.5l-0.2-0.4l-0.4-0.8
								c-0.3-0.5-0.5-1-0.9-1.5C32.6,10.9,33.1,10.9,33.5,11.5z"/>
							<path class="st1" d="M33.5,10c0.1,0,0.3-0.1,0.2,0.1C33.6,10,33.5,10,33.5,10z"/>
							<path class="st1" d="M38.8,8.4c0,0,0.1,0,0.1,0c-0.1,0-0.1,0.1-0.2,0.1C38.9,8.4,38.8,8.4,38.8,8.4z"/>
							<path class="st1" d="M40.7,7.7c0.1,0.1-0.3,0.3-0.6,0.4L40.7,7.7z"/>
							<path class="st1" d="M40.5,5.9c0-0.2,0-0.2,0.2,0.1C40.6,6,40.6,5.9,40.5,5.9z"/>
							<path class="st1" d="M40.3,5.8c-0.1-0.1,0-0.2,0-0.2C40.2,5.6,40.4,5.8,40.3,5.8z"/>
							<path class="st1" d="M38.4,2.8C38.3,2.8,38,3,37.9,3C38,3,38.5,2.6,38.4,2.8z"/>
							<path class="st1" d="M36.6,3.6c0,0-0.1,0-0.1,0C36.4,3.7,36.5,3.6,36.6,3.6L36.6,3.6z"/>
							<polygon class="st1" points="31.5,12.7 31.4,12.9 31.4,12.8 							"/>
							<path class="st1" d="M33.5,18.8c0.1,0.1-0.1,0.1-0.1,0.1C33.4,18.8,33.5,19,33.5,18.8z"/>
							<polygon class="st1" points="34.6,24.5 34.5,24.4 34.7,24.4 							"/>
						</g>
					</g>
				</g>
			</g>
		</g>
		<g>
			<g>
				<polygon class="st0" points="40.2,7.2 42.7,28.2 36.9,30.6 34.8,13.6 29.1,17 28.7,14.3 34.4,9.6 				"/>
				<g>
					<g>
						<g>
							<g>
								<path class="st1" d="M40.5,7.3c-0.1-0.2-0.1,0.1-0.1-0.2C40.4,7.2,40.5,7.3,40.5,7.3z"/>
								<path class="st1" d="M39.3,7.3C38.7,8,37.6,8,36.9,8.6c-0.1,0.1-0.1-0.2-0.2-0.1c-0.5,0.5-1.4,0.8-2.3,1
									c-0.2,0.1-0.4,0.3-0.7,0.4l0-0.1c-0.2,0.1-0.2,0.4-0.4,0.5c0,0,0-0.1-0.1-0.1c0,0.1-0.3,0.3-0.3,0.4c-0.1,0-0.1-0.1-0.3,0
									l0,0.2c0,0.5-0.6,0.5-0.9,0.9c0,0,0-0.1,0-0.1c-0.4,0.6-1.1,1.2-1.7,1.8c0-0.1,0-0.1-0.1-0.2c0.1,0.1-0.1,0.3-0.3,0.5
									c-0.2-0.1-0.2,0.3-0.4,0.4l0,0c0,0.2-0.3,0.1-0.2,0.3l-0.2,0c0.2,0.1-0.1,0.2,0,0.4l0,0c0.1,0.1,0,0.2,0,0.3l0,0
									c0.1,0.3,0,0.5,0.2,0.4c-0.1,0.1-0.1-0.2-0.3,0c0.1,0.5,0.2,0.9,0.3,1.3c0.4-0.3,0.9-0.5,1.3-0.8c0.1,0,0.2,0,0.3,0
									c0.1-0.1,0.3-0.2,0.4-0.3c0,0,0.1,0,0.2,0c0.2,0,0.1-0.3,0.3-0.3c-0.1,0.1,0,0.1,0,0.2c0.1-0.2,0.3-0.3,0.5-0.4
									c0,0-0.1,0.1,0,0.1c0.1-0.2,0.4-0.2,0.5-0.4l0,0.1c0.3-0.1,0-0.2,0.3-0.3c0,0.1,0,0.1,0,0.1c0.2-0.3,0.5-0.4,0.8-0.7
									c0,0,0,0,0,0c0.3-0.2,0.6-0.3,0.9-0.6c0.1,0-0.1,0.3,0.1,0.1c0.1-0.1,0.2-0.2,0.3-0.4c0,0.1,0.1,0.1,0.1-0.1
									c0,0.4,0,0.9,0.1,1.1c-0.1-0.1-0.2,0.3-0.2,0.1l-0.1,0.2c-0.1,0,0-0.2-0.1,0c0,0.1,0.1,0.3,0.1,0.4c0.1,0.1,0.4,0.3,0.4,0.6
									c-0.1-0.1-0.2,0.1-0.2,0l0.4,0.4c0,0.1-0.1,0-0.1,0.2c0,0,0.1,0.1,0.1,0.1c0,0,0.1,0.4-0.1,0.5c-0.1,0.1-0.1-0.2-0.1,0
									c0,0.2,0.1,0.2,0.1,0.4l0,0c0,0.1,0.1,0.4,0.2,0.2c0-0.1-0.1,0-0.1-0.1c0.1,0.1,0.2,0.3,0.2,0.5c0-0.1-0.1-0.1-0.1-0.1
									c0.2,0.3,0.3,0.5,0.3,0.8c0.1,0-0.2-0.1-0.1-0.1c-0.1,0.4,0.3,0.8,0.1,1.1c0-0.1,0.1,0,0.1,0c0,0.2-0.1,0.2-0.1,0.3
									c-0.1,0,0,0.1,0.1,0.3c0.1,0.1,0,0-0.1-0.1c0.1,0.2,0.3,0.8,0.2,1.3c0,0,0.2,0.2,0.2,0.3l-0.1,0c-0.1,0.1,0,0.3,0,0.3
									c0.2,0.2-0.2-0.7-0.1-0.5c-0.1,0.1,0.2,0.3,0.1,0.3c0,0.2,0.2,0.3,0.1,0.5c0-0.1-0.2-0.1-0.1,0c0.1,0.3,0.1,0.1,0.1,0.3
									l0.1,0.1c0.1,0,0,0.2,0.1,0.1c-0.1,0,0.1,0.4-0.1,0.4l-0.1,0c0,0.1,0.2,0.2,0.2,0.2c0,0,0,0-0.1,0c0.2,0,0,0.3,0.2,0.4
									c0,0.2,0.1,0.6-0.1,0.7c0.1,0.2,0.2,0.3,0.2,0.5c0,0,0-0.1-0.1-0.1c0,0.1,0,0.2,0.1,0.3c0,0-0.1,0.3-0.2,0.4
									c0.1,0.2,0.2,0.1,0.3,0.1c-0.2,0.2,0.2,0.5,0,0.7c0-0.1-0.1-0.3-0.2-0.1c-0.2,0.2,0.2,0.3,0.1,0.6L37,27
									c-0.1,0.1,0.2,0.4,0,0.4c0.1,0.1,0,0.3,0.2,0.3c-0.1,0.5,0.2,1.1-0.1,1.4c0,0.1,0,0.2,0.1,0.2c0.1-0.1-0.1-0.1,0-0.2
									c0,0.1,0.1,0.1,0.1,0.1c0,0.2,0,0.2-0.2,0.1c-0.1,0.2,0.3,0.1,0.3,0.3c-0.1,0-0.1,0.1-0.1,0.1c0,0,0.1,0,0.1,0
									c0,0.1-0.1,0.3-0.2,0.4c0,0,0,0.1,0,0.1c0.1,0,0.1-0.1,0.1-0.1c0,0.1,0,0.1,0,0.2c0-0.1,0.1-0.1,0.2-0.2L37.4,30
									c0,0.1,0.1,0,0.2-0.1c0-0.1-0.1-0.1-0.1-0.1c0.1-0.1,0.1-0.1,0.2-0.2c0,0.2,0.1,0.1,0.1,0.1c0.1,0,0.1-0.1,0.1-0.1
									c0,0.1,0.1,0,0.1,0.1c0,0-0.1,0-0.1,0c0,0,0.1,0.1,0.1,0c0.1-0.1-0.1-0.2,0.1-0.2c0,0.1,0,0.1-0.1,0.2l0.2,0l0-0.1
									c0,0,0,0,0,0c0-0.1,0.3-0.2,0.3-0.3c0.1-0.1,0.2,0,0.4,0l0,0c0.1,0,0.3-0.1,0.4-0.2l0,0c0.1,0,0.2-0.1,0.3-0.2
									c0.2,0,0.2,0.4,0.3,0.2c0.2-0.1,0.2-0.3,0.1-0.3c0.3-0.1,0.6-0.4,1-0.3c0-0.1,0-0.1,0.1-0.1c0.2-0.1,0.5-0.2,0.7-0.3
									c0.1,0,0.1-0.1,0.3,0c0,0.1,0.1,0.1,0.2,0.1c0,0,0,0,0.1,0c0,0,0,0-0.1-0.1c-0.1,0-0.1-0.1-0.2-0.1c0,0,0,0-0.1,0l0,0
									c-0.1-0.1-0.1-0.2,0-0.3c0,0-0.1,0-0.1,0c0.2,0,0.2-0.2,0.1-0.4l-0.1,0l0.1-0.1c0-0.1-0.2,0-0.1-0.2c0,0,0.1,0,0.1-0.1
									c-0.1-0.2-0.3-0.4-0.2-0.6l0.1-0.2c0-0.1-0.1-0.2-0.2-0.1c0-0.3,0-0.5,0.1-0.6c-0.4-0.5-0.5-1.3-0.5-1.9l0.1,0
									c0-0.2-0.1-0.1-0.1-0.2c0.1,0,0.1-0.1,0.2,0c0-0.2-0.2-0.3-0.2-0.4c-0.1,0,0.1,0.1,0,0.1c0,0,0-0.3-0.1-0.4
									c0-0.1,0.2,0,0.2,0l-0.1-0.1c0.1-0.2,0.4,0.4,0.5,0.2l0-0.1c0.1-0.1,0.2,0.3,0.2,0c-0.1-0.1-0.3-0.2-0.4-0.1
									c-0.1-0.3-0.4-0.1-0.4-0.4c0.1-0.1,0.1,0.3,0.2,0.2c0.1-0.2-0.1-0.3-0.1-0.4c0,0.2-0.2,0-0.2,0c0-0.2,0.1,0.1,0.1-0.1
									c-0.1,0-0.2-0.2-0.2,0c-0.2-0.1,0-0.3-0.1-0.4c0.1-0.1,0.3,0.2,0.4-0.1c-0.1,0.1-0.2-0.3-0.4-0.1c0-0.1,0.1-0.1,0.2-0.1
									c0.1-0.2-0.3-0.3,0-0.4l-0.1,0c0-0.1,0.1-0.1,0.1-0.2c0-0.1-0.2-0.4,0-0.4c0,0-0.1-0.3-0.2-0.2c-0.1,0.2,0.1,0.2,0,0.3
									c0.1-0.1-0.1-0.3-0.1-0.4l0.1,0c0-0.1,0-0.2-0.1-0.2c0,0,0.1,0,0.1,0l-0.1-0.1c-0.1-0.2,0.2-0.1,0.1-0.3l0.1,0.2
									c0,0,0.1-0.1,0-0.2c-0.1,0-0.2-0.1-0.3-0.1c-0.1-0.1,0.1-0.1,0-0.2l0.1,0.2c0,0,0.2-0.1,0.1-0.3c-0.1-0.1-0.2-0.3-0.3-0.1
									c0-0.1,0-0.2,0.1-0.2c-0.1-0.2-0.1,0-0.2-0.1c0.1-0.1,0.1-0.3,0.2-0.5l0.2,0.2l0-0.1c0.2,0.1,0.1-0.1,0.3,0
									c0-0.1-0.1-0.2-0.1-0.3c-0.2,0.3-0.4-0.2-0.6-0.1c-0.1-0.3,0.5-0.3,0.1-0.6c-0.1,0.1-0.2-0.1-0.1,0.1c0-0.2-0.2-0.1-0.2-0.4
									c0.1,0.2,0.2-0.2,0.4,0c-0.1,0,0,0.2,0,0.2c0.1-0.1,0.2,0,0.2-0.2c0-0.1-0.1-0.3-0.2-0.3c-0.1,0,0,0.2-0.1,0.1
									c-0.1-0.3,0.1-0.3-0.1-0.4c0,0.2-0.1,0.2-0.2,0.2l-0.1-0.2l0.1,0c0-0.3-0.2-0.1-0.2-0.4l0.1-0.2c0.2,0.1,0,0.5,0.2,0.4
									c0-0.2-0.1-0.3-0.1-0.4c0,0,0,0.1,0.1,0.1c0-0.1,0.3-0.2,0.1-0.4c-0.1-0.1-0.1,0-0.2,0c-0.1-0.3-0.2-0.4-0.2-0.6
									c0.2,0,0-0.4,0.2-0.2c-0.1,0.1,0,0.6,0.2,0.7c0.2-0.1,0,0.3,0.2,0.3c0-0.3,0.2-0.3,0.3-0.3c0-0.1-0.1-0.1-0.1-0.2
									c-0.1,0-0.1,0.1-0.2,0.1c0-0.3-0.1-0.6-0.2-0.7c0-0.1,0.2-0.1,0.2,0c-0.1-0.3-0.1-0.7-0.1-1c-0.2,0.2-0.1-0.4-0.2-0.2
									c0,0.2-0.1,0.3-0.2,0.3c0-0.1,0.1,0,0.1-0.1c-0.1-0.1,0.1-0.2,0-0.3c0.1,0.3,0.2,0,0.4,0.1c-0.1-0.2,0.1,0,0.1-0.2
									c-0.1-0.2-0.2-0.5-0.3-0.7c0.1-0.3-0.1-0.8-0.1-1.1c0.1-0.2,0.2-0.1,0.3-0.2c0-0.2-0.2,0.2-0.1-0.1l0,0
									c-0.1-0.1,0.1-0.5-0.2-0.6l0.2,0.1c0-0.1,0-0.1-0.1-0.1c0.1,0,0.1-0.1,0.2,0c0.1-0.2-0.1-0.4-0.1-0.5l-0.1,0.1
									c-0.1-0.3,0-0.5-0.1-0.8l0.1,0l-0.1-0.2c0.1,0,0.2-0.1,0.1-0.2l0.3,0.4c0,0.1-0.2-0.1-0.2,0c-0.1,0.1,0,0.4,0.1,0.4
									c0-0.1,0-0.1-0.1-0.2c0.1-0.1,0.2,0.1,0.3,0.2c0-0.1,0-0.1,0-0.1c0.1,0.1,0.1,0.2,0.1,0.4c-0.1-0.1-0.1,0.1-0.1,0
									c0.1,0,0.2,0.2,0.2,0.4c-0.1,0.2,0.2,0.4,0.1,0.7c-0.1-0.1-0.3-0.2-0.3-0.4c0,0.2,0,0.2,0,0.4c0.1,0.1,0.3,0.1,0.4,0.3
									l-0.1,0c0.1,0.2,0.2,0.2,0.2,0.4c0,0.4,0.1,0.9,0.1,1.2L41,12c0.2,0.2,0.2,0.6,0.3,0.8c0,0.4,0.2,0.9,0.1,1.1
									c0.2,0.7,0.3,1.4,0.4,2.1L41.5,16c0.1,0.1-0.1,0.1,0,0.2c0.1-0.2,0.2,0.2,0.3,0.3c-0.1,0.4,0.1,0.8,0.2,1.1l-0.1,0
									c0.2,0.3,0.1,0.7,0.1,1c0,0-0.1,0.1-0.1,0.2c0.2,0.2,0.2,0.3,0.3,0.6c0,0.2,0,0.6,0,0.8c0.3,0.8,0.3,1.7,0.5,2.5l-0.1,0.1
									c0.4,0.8,0.2,1.9,0.5,2.5l-0.2,0c0,0.2,0.1,0.5,0.3,0.4c0,0.2,0.2,0.5,0,0.7c0,0.2,0.1,0.3,0.2,0.5c0,0.1,0,0.2,0,0.3
									c0,0.1,0,0.2,0,0.3c0,0.3,0.1,0.5,0.1,0.9l0-0.2c-0.1-0.1-0.1-0.1-0.1,0c0,0.1,0.1,0.3,0.1,0.4c-0.2,0.1-0.4,0.2-0.1,0.2
									c-0.2,0.1-0.4,0.1-0.6,0.2c-0.2,0.1-0.5,0.2-0.6,0.3c-0.2,0.1-0.5,0.2-0.7,0.2c0.1,0,0,0.1-0.1,0.2
									c-0.4,0.2-0.8,0.2-1.1,0.4c-0.1,0,0.1-0.1-0.1-0.1c-0.1,0.1,0,0.1-0.1,0.2c-0.3,0.2-0.6,0.3-0.9,0.4c-0.2,0-0.3,0.1-0.5,0.1
									l-0.2,0.1c-0.1,0-0.2,0.1-0.3,0.1c-0.6,0.3-1.3,0.6-2,0.9c-0.1-1-0.3-2.1-0.4-3.1l0,0c-0.2-0.3,0.1-0.8-0.2-1.1
									c0-0.1,0-0.3,0.1-0.3c-0.2-0.3,0-0.8-0.2-1.1c0,0,0,0.1,0,0.1c0.1-0.4-0.1-0.7-0.1-1.2c0,0,0.1,0.1,0.1,0.1
									c0.1-0.2-0.3-0.4,0-0.5c0-0.1-0.1-0.1-0.1,0c0-0.9-0.3-1.9-0.5-2.8c0.1-0.7,0.4-0.1,0.2-0.6c0,0-0.1,0,0,0
									c-0.1-0.2,0.2-0.4,0.1-0.5C35,21,35.1,20.9,35,20.9c0-0.4,0.2-0.5,0-0.8l0.1,0c-0.3-0.4-0.2-0.8-0.5-1.1
									c-0.1-0.9-0.3-1.8-0.4-2.6l-0.1-0.7L34,15.3l0,0c0,0,0,0,0,0l0,0c0,0,0,0,0,0l-0.6,0.4l-1.2,0.7c-0.5,0.3-0.9,0.6-1.4,0.8
									c-0.8,0.5-1.6,0.9-2.4,1.4c0-0.3-0.1-0.5-0.1-0.8c0.1-1.2,0.1-1.1-0.1-2c0,0,0.1,0.1,0.1,0c-0.1,0-0.1-0.2-0.1-0.3
									c0-0.1,0-0.2-0.1-0.2c0-0.2,0-0.4-0.1-0.6c0-0.2-0.1-0.5-0.1-0.7c0.5-0.4,1-0.9,1.5-1.3c-0.1,0.1,0,0.2,0.1,0.1l0.1-0.2l0,0
									c0.1-0.1,0.1-0.2,0-0.2c0.7-0.7,1.4-1.2,2.2-1.8l1.1-0.8l0.6-0.4l0.7-0.5l0.4-0.2c0.5-0.1,1-0.4,1.5-0.6
									c1.5-0.4,2.8-0.7,4.1-1.4C39.9,6.6,39.9,7,39.3,7.3z"/>
								<path class="st1" d="M40.5,7.6c-0.1,0.1-0.1,0.2-0.2,0.1C40.4,7.7,40.4,7.6,40.5,7.6z"/>
								<path class="st1" d="M40.2,12.3C40.3,12.3,40.2,12.4,40.2,12.3C40.2,12.4,40.1,12.3,40.2,12.3
									C40.2,12.3,40.2,12.3,40.2,12.3z"/>
								<path class="st1" d="M40.3,13.5c-0.1,0-0.2-0.3-0.2-0.4L40.3,13.5z"/>
								<path class="st1" d="M40.2,14.7c0,0.1-0.1,0.1-0.1,0C40.1,14.6,40.1,14.6,40.2,14.7z"/>
								<path class="st1" d="M40.3,14.7c0,0.1,0,0.1-0.1,0.2C40.3,14.9,40.2,14.7,40.3,14.7z"/>
								<path class="st1" d="M40.4,17.1c0,0.1,0.1,0.2,0,0.2C40.5,17.3,40.3,17.1,40.4,17.1z"/>
								<path class="st1" d="M40.6,18.2C40.6,18.2,40.6,18.3,40.6,18.2C40.6,18.4,40.6,18.3,40.6,18.2L40.6,18.2z"/>
								<polygon class="st1" points="37,26.8 37,26.9 36.9,26.9 								"/>
								<path class="st1" d="M35.9,18c-0.1-0.1,0.1-0.1,0.1-0.1C36,18,35.9,17.8,35.9,18z"/>
								<polygon class="st1" points="34.7,13.5 34.7,13.4 34.6,13.7 								"/>
							</g>
						</g>
					</g>
				</g>
			</g>
		</g>
	</g>
	<g>
		<g>
			<path class="st2" d="M19.9,8.8l-2.2-1.4C17.9,7.6,18,8,18.1,8.5l0.9,8.4c0.1,0.9-0.1,1.6-0.6,2.2c-0.2,0.3-0.5,0.6-0.9,0.8
				l-2.2,1.6c-0.1,0.1-0.2,0.2-0.3,0.2c-0.2,0.1-0.4,0.2-0.6,0.3c-0.2,0-0.4,0-0.5-0.1l2.2,1.4c0.2,0.1,0.3,0.1,0.5,0.1
				c0.2,0,0.4-0.1,0.6-0.3c0.1-0.1,0.2-0.1,0.3-0.2l2.2-1.6c0.3-0.3,0.6-0.5,0.9-0.8c0.5-0.6,0.7-1.3,0.6-2.2l-0.9-8.4
				C20.2,9.3,20.1,9,19.9,8.8z"/>
			<g>
				<g>
					<g>
						<g>
							<path class="st1" d="M19.7,9C19.8,9,19.7,8.9,19.7,9C19.7,9,19.7,9.1,19.7,9z"/>
							<path class="st1" d="M20,9.3c0.5,0.3,0.2,1.1,0.5,1.5c0,0.1-0.2,0-0.1,0.1c0.3,0.5,0.3,1.3,0.1,1.9l-0.1,0
								c0,0.1,0.2,0.2,0.2,0.4c0,0-0.1,0-0.1,0c0.1,0,0.1,0.2,0.2,0.3c0,0.1-0.1,0.1-0.2,0.1l0.1,0.1c0.3,0.2,0,0.5,0.2,0.7
								c0,0-0.1,0-0.1,0c0.2,0.4,0.3,1,0.4,1.4c0,0-0.1,0-0.2,0c0.1,0,0.2,0.2,0.2,0.3c-0.1,0.1,0.2,0.2,0.1,0.4l0,0
								c0.2,0.1-0.1,0.2,0.1,0.2l-0.1,0.1c0.2,0-0.1,0.2,0,0.3l0,0c0.1,0.1,0,0.1,0,0.2l0,0c0.1,0.2,0,0.3,0.1,0.3
								c-0.1,0.1-0.1-0.2-0.3-0.1c0.2,0.6,0.3,1.3,0.2,1.9c-0.1,0.1-0.1,0.1-0.2,0.1c0,0.1,0,0.2,0,0.3c0,0-0.1,0-0.1,0
								c-0.1,0.1,0.1,0.2,0,0.3c0-0.1-0.1-0.1-0.1-0.1c0.1,0.2,0,0.3-0.1,0.4c0,0,0-0.1-0.1-0.1c0,0.2-0.2,0.2-0.2,0.3l0-0.1
								c-0.2,0.1,0.1,0.2-0.1,0.3c0-0.1,0-0.1-0.1-0.1c0,0.2-0.2,0.4-0.3,0.5c0,0,0,0,0,0c-0.1,0.1-0.3,0.2-0.4,0.4
								c-0.1,0-0.1-0.2-0.2-0.1c0.1,0.1-0.2,0.2,0,0.3c-0.1,0.1-0.4,0.2-0.4,0.3c0-0.1-0.2-0.1-0.1-0.2l-0.1,0c0-0.1,0.1,0,0-0.1
								c0,0-0.2,0.2-0.2,0.2c0,0.2,0,0.4-0.1,0.5c0-0.1-0.2-0.1-0.1-0.2l0,0.4c0,0-0.1-0.1-0.1,0c0,0,0,0.1,0,0.1
								c0,0-0.2,0.2-0.3,0.1c-0.1,0,0.1-0.1,0-0.1c-0.1,0.1-0.1,0.1-0.2,0.2l0,0c-0.1,0-0.2,0.2,0,0.2c0.1,0-0.1-0.1,0-0.1
								c0,0.1-0.1,0.2-0.2,0.3c0,0,0-0.1,0-0.1c-0.1,0.2-0.2,0.3-0.4,0.5c0,0.1,0-0.2,0.1-0.2c-0.3,0-0.6,0.4-0.9,0.1
								c0,0,0,0.1,0,0.1c-0.2,0-0.1-0.2-0.2-0.2c0-0.1-0.1,0-0.2-0.1c0,0,0,0-0.1,0c-0.1,0,0,0,0.1,0c-0.1,0-0.7-0.2-0.9-0.5
								c0,0-0.4,0-0.4-0.1l0.1,0c0-0.1-0.2-0.1-0.1-0.2c-0.3,0,0.6,0.3,0.3,0.2c0.1-0.1-0.5-0.1-0.2-0.1c-0.1-0.1-0.4-0.1-0.4-0.2
								c0,0,0.3,0,0.2-0.1c-0.1,0-0.1,0-0.1,0c0,0-0.1,0-0.1,0l-0.1,0c-0.1,0,0-0.1-0.1,0c0.1,0-0.1-0.1,0.1-0.2l0.1,0
								c0,0-0.2,0-0.2-0.1c0,0,0,0,0,0c-0.1,0,0-0.1-0.1-0.1c0,0,0-0.1,0-0.2c0,0,0.1,0.1,0.1,0.1c0,0,0.1,0,0.1,0c0,0,0,0,0,0
								c0.1,0,0.1,0,0.1,0l0,0c0,0,0.2-0.1,0.3-0.1c0-0.1-0.1-0.1-0.1-0.1c0.2,0,0.1-0.3,0.4-0.3c0,0,0,0.2,0.1,0.1
								c0.2,0,0.1-0.1,0.2-0.2c0,0,0,0,0-0.1l0,0c0,0,0,0,0.1,0l-0.2-0.1c0.2,0,0.2-0.3,0.3-0.1c0-0.1,0.3-0.1,0.1-0.2
								c0.3,0,0.5-0.5,0.8-0.3c0,0,0.1-0.1,0-0.1c-0.1,0,0,0.1-0.1,0.1c0,0,0-0.1,0-0.1c0.1,0,0.1,0,0.2,0.1c0.2,0,0-0.4,0.2-0.4
								c0,0.1,0.1,0.1,0.1,0l0-0.2c0.1-0.1,0.2,0.1,0.2,0.2c0.1-0.1,0.1-0.1,0.1-0.2l0.2,0.1c-0.1,0,0-0.1,0-0.1l0,0
								c0,0,0.1,0,0.1-0.1c-0.1-0.1-0.1,0-0.2,0c0-0.1,0.1-0.1,0.1-0.2c0.1,0.1,0.2,0,0.2,0c0.1,0,0-0.1,0-0.1c0,0,0.1-0.1,0.1,0
								c0,0-0.1,0-0.1,0.1c0.1,0,0.1,0.1,0.1,0c0-0.1-0.2-0.2,0-0.2c0,0,0,0.1,0,0.1l0.1,0l-0.1-0.1c0,0,0,0,0,0
								c-0.1-0.1,0.1-0.1,0-0.3c0,0,0.1,0,0.2-0.1l0,0c0.1,0,0.1-0.1,0.1-0.2l0,0c0,0,0.1-0.1,0-0.2c0.1,0,0.4,0.2,0.3,0
								c0-0.1-0.1-0.2-0.2-0.2c0.1-0.1,0-0.3,0.2-0.4c0,0-0.1,0-0.1-0.1c0.1-0.2-0.1-0.5,0.2-0.7c0,0.1,0.1,0,0.2,0
								c-0.1-0.1,0.1-0.1-0.1-0.1c-0.1,0-0.1,0-0.2,0.1c-0.1-0.1-0.1-0.4,0-0.5c0,0.1-0.1,0-0.1,0c0.2,0,0.2-0.1,0.1-0.2l-0.1,0
								l0.1-0.1c0,0-0.2,0-0.1-0.1c0,0,0.1,0,0.1,0c-0.1-0.1-0.2-0.2-0.2-0.3l0.1-0.1c0,0-0.1-0.1-0.1,0c0.1-0.2,0.1-0.3,0.2-0.4
								c-0.3-0.3-0.4-0.7-0.4-1.1l0.1,0c0.1-0.1-0.1,0-0.1-0.1c0.1,0,0.1-0.1,0.2,0c0.1-0.1-0.1-0.2-0.2-0.3c-0.1,0,0.1,0.1-0.1,0.1
								c0,0,0.1-0.2-0.1-0.2c0.1,0,0.2,0,0.2,0l-0.1-0.1c0.2-0.1,0.3,0.2,0.5,0.1l0-0.1c0.1-0.1,0.2,0.2,0.2,0
								c-0.1-0.1-0.3-0.1-0.4,0c-0.1-0.2-0.4,0-0.4-0.2c0.1-0.1,0,0.2,0.2,0.1c0.1-0.1-0.1-0.2-0.1-0.3c0,0.1-0.2,0-0.2,0
								c0.1-0.1,0.1,0,0.1-0.1c-0.1,0-0.2-0.1-0.2,0c-0.2,0,0-0.2-0.1-0.2c0.1-0.1,0.3,0.1,0.4,0c-0.1,0-0.2-0.2-0.4-0.1
								c0-0.1,0.1-0.1,0.2,0c0.1-0.1-0.3-0.2,0-0.2l-0.1,0c0,0,0.1-0.1,0.1-0.1c0-0.1-0.2-0.2,0-0.2c0,0,0-0.2-0.2-0.1
								c-0.1,0.1,0.1,0.1-0.1,0.2c0.1-0.1,0-0.2-0.1-0.2l0.1,0c0,0,0-0.1-0.1-0.1c0,0,0.1,0,0.1,0l-0.1,0c-0.1-0.1,0.2-0.1,0.2-0.2
								l0.1,0.1c0,0,0.1-0.1,0-0.1c-0.1,0-0.2-0.1-0.3-0.1c-0.1-0.1,0.1,0,0-0.1l0.1,0.1c0,0,0.2-0.1,0.2-0.2c0-0.1-0.2-0.2-0.3,0
								c0-0.1,0-0.1,0.1-0.1c0-0.1-0.1,0-0.2-0.1c0.1-0.1,0.2-0.2,0.2-0.3l0.2,0.1l0-0.1c0.2,0.1,0.1-0.1,0.3,0c0-0.1,0-0.1-0.1-0.2
								c-0.2,0.2-0.3-0.1-0.6-0.1c-0.1-0.2,0.5-0.2,0.2-0.4c-0.1,0-0.2,0-0.2,0.1c0-0.1-0.2-0.1-0.2-0.2c0.1,0.1,0.2-0.1,0.4,0
								c-0.1,0,0,0.1,0,0.1c0.1-0.1,0.2,0,0.2-0.1c0-0.1,0-0.2-0.2-0.2c-0.1,0,0,0.1-0.1,0.1c-0.1-0.2,0.1-0.3-0.1-0.4
								c0,0.2-0.1,0.2-0.2,0.2l-0.1-0.2l0.1,0c0-0.3-0.2-0.1-0.2-0.5c0.1,0,0.1-0.1,0.2-0.1c0.2,0.1,0,0.5,0.2,0.4
								c0-0.2-0.1-0.3-0.1-0.5c0,0.1,0,0.1,0.1,0.2c0-0.1,0.3,0,0.1-0.3c-0.1-0.2-0.1-0.1-0.2-0.1l0-0.1l0,0l0,0l0.1,0
								c-0.2-0.1-0.1-0.1-0.1-0.1l0,0l0-0.1c0-0.1,0-0.1,0.1-0.1c0.1,0.1,0.2-0.2,0.2,0.1c0,0-0.1,0-0.2,0.1c0,0,0,0.1-0.1,0.1
								c0,0.1-0.1,0,0.1,0.2c-0.1-0.1-0.1,0,0,0l0,0c0.2,0,0,0.2,0.2,0.4c0-0.2,0.2-0.1,0.3,0c0,0,0-0.1,0-0.1
								c-0.1-0.1-0.1-0.1-0.1-0.1c-0.1-0.1-0.1-0.1-0.3-0.1c0.1-0.2,0.1-0.3,0-0.5c0.1,0,0.1,0.1,0.1,0.1c0-0.2,0.1-0.4,0.1-0.5
								c-0.1,0,0-0.1-0.1-0.2c0,0,0,0,0,0l0,0c0,0-0.1,0-0.1,0c0,0,0,0,0,0c0-0.1,0,0,0,0c0,0,0,0,0-0.1c0,0,0,0.1,0,0.1l0,0
								c0,0,0,0,0.1,0.1c-0.1-0.1,0,0,0-0.1c0-0.1-0.1-0.1-0.1-0.2c0,0,0,0-0.1,0l0,0l-0.2-0.3l0,0l0,0l0,0l0,0l0,0l0,0l0,0l0,0
								c0.2,0.2,0.4,0.2,0.6,0.2c0.1,0.1,0.2,0.3,0.3,0.4c0.1,0-0.2-0.3,0-0.1l0,0c0,0,0.3,0.3,0.2,0l0.1,0.3c0,0,0,0,0,0
								c0,0.1,0.1,0.2,0.1,0.2c0,0,0,0.1,0.1,0.1c0.1,0.1,0.1,0,0.2,0.1L18.8,8c0.2,0,0.3,0.2,0.5,0.3l0,0.1l0.1,0
								c0,0.1,0,0.2,0.1,0.2c-0.1,0-0.2,0.1-0.3,0.2c-0.1-0.1,0.1-0.1,0-0.3c0-0.1-0.2-0.2-0.2-0.1c0.1,0,0.1,0,0.1,0
								c0,0.2-0.1,0.1-0.1,0.3c0,0,0.1,0.1,0.1,0c0,0.1-0.1,0.1-0.1,0c0,0-0.1-0.1,0-0.2c0,0.2,0,0.2-0.1,0.1c0,0,0,0,0-0.1
								c-0.1-0.2-0.1,0.1-0.2,0c-0.1-0.2-0.1-0.3,0-0.4c-0.1-0.2-0.1-0.1-0.2-0.2c0,0.1,0.1,0.4,0.1,0.4l-0.1-0.2c0,0,0.1,0.3,0,0.2
								c-0.1-0.1-0.2-0.2-0.3-0.2c-0.1,0,0,0,0,0c0,0,0,0,0.1,0.1L18.1,8c0.2,0.3,0.2,0.3,0.3,0.4c0,0.1,0,0.1,0.1,0.2
								c-0.1,0,0.2,0.4,0,0.4c0,0.1,0,0.1,0.1,0.2c0,0.1,0.1,0.2,0.1,0.4c0,0.1,0,0.2,0,0.4l-0.2-0.1c0.1,0.1-0.1,0.1,0,0.1
								c0.1-0.1,0.2,0.1,0.3,0.1c-0.1,0.2,0.1,0.5,0.2,0.6l-0.1,0c0.2,0.2,0.1,0.4,0.1,0.6c0,0-0.1,0.1-0.1,0.1
								c0.2,0.1,0.2,0.2,0.3,0.3c0,0.1,0,0.3-0.1,0.5c0.3,0.5,0.2,1,0.4,1.5l-0.1,0c0.3,0.5,0.1,1.1,0.3,1.5l-0.2,0
								c0,0.1,0.1,0.3,0.2,0.2c0,0.1,0.1,0.3,0,0.4c0,0.1,0.1,0.2,0.1,0.3c0,0.3,0,0.4,0,0.7l0-0.1c0,0-0.1,0-0.1,0
								c0.1,0.1,0,0.4,0.2,0.3c-0.1,0.3,0.1,0.8-0.2,1.1c0.1,0,0.1,0.1,0.1,0.1c-0.1,0.3-0.4,0.5-0.4,0.8c-0.1,0-0.1-0.1-0.1,0
								c0,0.1,0.1,0,0,0.1c-0.2,0.5-0.7,0.7-1,0.9c-0.5,0.5-1,0.8-1.5,1.2l0,0c0,0.3-0.5,0.2-0.4,0.4c0,0,0,0-0.1-0.1
								c0,0,0,0.1,0,0.1c-0.1,0-0.2,0-0.1,0.1c0,0,0,0,0,0c-0.2,0-0.1,0.1-0.2,0.1c0,0-0.1,0-0.1,0c0,0-0.1,0-0.1,0
								c-0.2,0,0.3,0-0.2,0c0,0,0.2,0,0.2,0c-0.1,0-0.2,0-0.1,0c0,0,0.1,0,0.1,0.1c0.1,0,0.2,0.1,0.3,0.1l0.1,0
								c0,0.2-0.4,0.2-0.1,0.2c0,0,0.1,0,0,0c0.1,0-0.1,0.2,0,0.2c0.1-0.1,0.1,0,0.2-0.1c0,0.1,0,0.2,0.1,0.2c0,0,0,0,0,0l0,0.1
								c0.2-0.1,0.3-0.1,0.3-0.3c0.2,0,0.7-0.6,1.2-0.9c0.5-0.4,0.9-0.8,1.4-1.2c0.4-0.3,0.7-0.6,0.8-1c0.1-0.3,0.2-0.7,0.2-1.3
								c0.2-0.3,0.2-0.3,0-0.6c0,0,0,0,0.1,0c-0.2,0,0-0.2-0.2-0.2c0-0.5-0.1-0.9-0.2-1.3c0,0.1,0.2,0.1,0.1,0l-0.1-0.1l0,0
								c0-0.1-0.1-0.1-0.2,0c-0.3-1.2-0.1-2.4-0.2-3.5c0-0.3-0.1-0.7-0.1-1c0.1-0.5,0.1-0.9,0.1-1.3c0-0.2,0-0.4,0-0.5
								c0-0.1,0-0.1-0.1-0.1c0,0,0,0,0,0c0.1,0,0.1-0.1,0.1-0.1c0,0,0,0,0,0c0,0,0,0,0,0C19.7,9.1,19.9,9.1,20,9.3z"/>
							<path class="st1" d="M19.5,8.9c0-0.1-0.1-0.2,0-0.3C19.6,8.8,19.6,8.9,19.5,8.9z"/>
							<path class="st1" d="M17.8,7.6C17.8,7.6,17.7,7.6,17.8,7.6C17.7,7.6,17.7,7.5,17.8,7.6C17.7,7.6,17.7,7.6,17.8,7.6z"/>
							<path class="st1" d="M17.7,8.1c0-0.1,0-0.2,0-0.3L17.7,8.1z"/>
							<path class="st1" d="M17.1,8.6c-0.1,0.1-0.1,0-0.1-0.1C17.1,8.4,17.1,8.5,17.1,8.6z"/>
							<path class="st1" d="M17.3,8.7c0,0.1,0,0.1-0.1,0.1C17.3,8.9,17.2,8.6,17.3,8.7z"/>
							<path class="st1" d="M17.3,10.6c0,0,0.1,0.1,0,0.1C17.4,10.7,17.2,10.6,17.3,10.6z"/>
							<path class="st1" d="M17.5,11.3C17.5,11.3,17.5,11.3,17.5,11.3C17.5,11.4,17.4,11.4,17.5,11.3L17.5,11.3z"/>
							<polygon class="st1" points="14.8,21.3 14.8,21.3 14.8,21.2 14.9,21.3 14.9,21.3 							"/>
							<path class="st1" d="M17.4,23.6c0-0.1,0.1,0,0.1,0C17.5,23.7,17.5,23.6,17.4,23.6z"/>
							<polygon class="st1" points="19.6,21.6 19.6,21.6 19.5,21.5 							"/>
						</g>
					</g>
				</g>
			</g>
		</g>
		<g>
			<path class="st2" d="M20,3.1c-0.3-0.2-0.7-0.3-1.3-0.2C18.4,3,18,3.2,17.5,3.5C17.2,3.7,17,3.8,16.7,4L13,6.7
				c-0.7,0.5-1.3,1.1-1.9,1.8c-1.3,1.7-2,3.7-1.8,5.9l1,9.4c0.1,1.3,0.5,2.1,1.1,2.5l2.2,1.4c-0.6-0.4-1-1.2-1.1-2.5l-1-9.4
				c-0.2-2.2,0.5-4.2,1.8-5.9c0.5-0.7,1.2-1.3,1.9-1.8L19,5.4c0.3-0.2,0.5-0.4,0.7-0.5c0.5-0.3,0.9-0.5,1.3-0.6
				c0.5-0.1,0.9,0,1.3,0.2L20,3.1z"/>
			<g>
				<g>
					<g>
						<g>
							<path class="st1" d="M19.8,3.3c0.2,0.1,0-0.2,0.1,0C19.9,3.3,19.8,3.3,19.8,3.3z"/>
							<path class="st1" d="M20.6,3.7c0.6,0,1.1,0.5,1.7,0.8l0-0.1c-0.2-0.1-0.5-0.2-0.7-0.1c-0.1,0,0-0.2-0.2-0.2
								c-0.4,0.2-0.9,0.4-1.4,0.6c-0.5,0.2-1,0.5-1.5,0.7l0-0.1c-0.2,0.1-0.2,0.4-0.4,0.5c0,0,0-0.1-0.1-0.1c0,0.1-0.3,0.3-0.3,0.4
								c-0.1,0-0.1-0.1-0.3-0.1l0,0.2c-0.1,0.4-0.6,0.4-0.9,0.8c0,0,0-0.1,0-0.1c-0.4,0.6-1.2,1-1.7,1.6c0-0.1,0-0.1-0.1-0.2
								c0.1,0.1-0.1,0.3-0.2,0.5c-0.2,0-0.2,0.3-0.4,0.4l0,0c0,0.2-0.2,0.1-0.2,0.4l-0.2,0c0.1,0.2-0.2,0.1-0.3,0.3l0,0
								c0,0.1-0.2,0.1-0.2,0.3l0,0c-0.1,0.3-0.3,0.4-0.2,0.4c-0.2,0,0.1-0.3-0.1-0.2c-0.4,0.9-0.9,1.8-1.1,2.8
								c-0.1,0.1-0.1,0.2-0.2,0.2c0,0.1,0,0.4,0,0.5c0,0-0.1,0.1-0.1,0.1c-0.1,0.2,0.1,0.2,0.1,0.4c0-0.1-0.1-0.1-0.1-0.1
								c0.1,0.2,0.1,0.4,0.1,0.6c0,0,0-0.1-0.1-0.1c0.1,0.2,0,0.4,0.1,0.6l-0.1-0.1c-0.1,0.3,0.2,0.1,0.1,0.4c0-0.1-0.1,0-0.1,0
								c0.2,0.2,0.2,0.6,0.3,0.9c0,0,0,0,0,0c0,0.3,0,0.6,0.1,0.9c0,0.1-0.2,0-0.2,0.3c0.2,0,0.1,0.5,0.3,0.3c0,0.2,0,0.6,0,0.8
								c-0.1-0.1-0.2,0.1-0.3-0.1l-0.1,0.2c-0.1,0,0-0.2-0.1-0.1c0,0.1,0.1,0.4,0.1,0.5c0.1,0.2,0.4,0.3,0.4,0.6
								c-0.1-0.1-0.2,0.1-0.2,0l0.4,0.4c0,0.1-0.1,0-0.1,0.2c0,0,0.1,0,0.1,0.1c0,0,0.1,0.4-0.1,0.5c-0.1,0.1-0.1-0.2-0.1,0
								c0,0.2,0.1,0.2,0.1,0.4l0,0c0,0.1,0.1,0.4,0.2,0.2c0-0.1-0.1,0-0.1-0.1c0.1,0.1,0.2,0.3,0.2,0.5c0-0.1-0.1,0-0.1-0.1
								c0.2,0.2,0.2,0.5,0.3,0.8c0.1,0-0.2-0.1-0.1-0.1c-0.1,0.4,0.2,0.7,0.1,1.1c0,0,0.1,0,0.1,0c0,0.2-0.1,0.2-0.1,0.3
								c-0.1,0,0,0.1,0.1,0.3c0.1,0.1,0,0-0.1-0.1c0.1,0.2,0.3,0.8,0.2,1.2c0,0,0.2,0.2,0.2,0.3l-0.1,0c-0.1,0.1,0,0.3,0,0.3
								c0.2,0.2-0.2-0.6-0.1-0.4c-0.1,0.1,0.2,0.3,0.1,0.3c0,0.2,0.2,0.3,0.1,0.5c0,0-0.2-0.1-0.1,0c0.1,0.2,0.1,0.1,0.2,0.2
								l0.1,0.1c0.1,0,0.1,0.2,0.1,0.1c-0.1,0.1,0.2,0.2,0,0.3l-0.1,0c0.1,0.1,0.2,0.1,0.3,0.1c0,0,0,0.1,0,0.1
								c0.2-0.1,0.1,0.2,0.3,0.1c0,0.1,0.1,0.1,0.1,0.2l-0.6,1c-0.1-0.1-0.2-0.2-0.2-0.2c-0.2,0-0.4,0-0.5-0.2c0,0,0.1,0,0.1,0
								c-0.1-0.1-0.1-0.1-0.2-0.1c0,0-0.1-0.2-0.2-0.4c-0.2,0-0.2,0.1-0.2,0.2c0-0.3-0.5-0.1-0.6-0.4c0.1,0,0.3,0,0.2-0.1
								c0-0.3-0.3,0-0.5-0.3c0,0.1,0,0.1,0,0.2c-0.1-0.2-0.5-0.2-0.3-0.3c-0.1,0-0.2-0.3-0.3-0.2c-0.2-0.5-0.7-1.1-0.4-1.5
								c0-0.1,0-0.2-0.1-0.2c-0.1,0.1,0.1,0.1,0,0.2c0-0.1-0.1-0.1-0.1-0.1c0-0.2,0-0.3,0.2-0.2c0.1-0.3-0.4-0.3-0.3-0.7
								c0.1,0,0.1,0,0.1-0.1l-0.1-0.2c0-0.2,0.2-0.2,0.3-0.2c0-0.1,0-0.3-0.1-0.3L9.9,23c-0.1,0.1-0.1-0.1-0.1-0.2l0,0.1
								c0,0,0-0.2,0-0.2c-0.1,0-0.1,0.2-0.1,0.3c-0.1-0.1-0.1-0.2-0.1-0.2c0.1,0,0.1-0.2,0.1-0.3c0-0.1-0.1-0.1-0.1-0.2
								c0.1,0,0-0.2,0.1-0.1c0,0-0.1,0.1,0,0.2c0-0.1,0.1-0.1,0.1-0.2c-0.1-0.1-0.2,0.1-0.2-0.2c0,0.1,0.1,0.1,0.1,0.1l0-0.2l-0.1,0
								c0,0,0,0,0.1,0c-0.1-0.1-0.1-0.3-0.2-0.4c0-0.1,0.1-0.2,0.1-0.3l0,0c0.1-0.1,0-0.3-0.1-0.4l0,0c0-0.1,0-0.2-0.1-0.3
								c0.1-0.2,0.4-0.1,0.3-0.3c0-0.2-0.2-0.3-0.3-0.2c0-0.3-0.2-0.7,0-1c0,0-0.1,0-0.1-0.1c0-0.5-0.2-1-0.1-1.3
								c0.1,0.1,0.1,0,0.2,0c-0.1-0.1,0.1-0.1-0.1-0.2c-0.1,0-0.1,0-0.2,0.1c-0.1-0.3-0.1-0.7,0-0.8c0,0.1-0.1,0-0.1,0
								c0.2,0,0.2-0.2,0.1-0.3l-0.1,0l0.1-0.1c0-0.1-0.2,0-0.1-0.2c0,0,0.1,0,0.1-0.1c-0.1-0.2-0.3-0.4-0.2-0.5l0.1-0.2
								c0-0.1-0.1-0.2-0.1-0.1c0.1-0.3,0-0.5,0.2-0.6c-0.4-0.5-0.4-1.3-0.3-2l0.1,0c0.1-0.2-0.1-0.1,0-0.2c0.1,0.1,0.2-0.1,0.2,0
								C9,12.1,8.8,12,8.8,11.9c-0.1,0,0,0.1-0.1,0.1c0,0,0.1-0.3,0-0.4c0.1,0,0.2,0,0.2,0.1l0-0.2c0.2-0.1,0.2,0.5,0.4,0.3l0-0.1
								c0.2-0.1,0.1,0.4,0.2,0.1c0-0.2-0.2-0.3-0.3-0.2c0-0.3-0.3-0.2-0.2-0.5c0.1-0.1-0.1,0.3,0.1,0.2c0.2-0.1,0-0.3,0.1-0.4
								c-0.1,0.1-0.2,0-0.2-0.2c0.1-0.1,0.1,0.2,0.2-0.1c-0.1-0.1,0-0.3-0.2-0.1c-0.1-0.2,0.1-0.2,0.1-0.4c0.2,0,0.2,0.4,0.4,0.1
								c-0.1,0,0-0.4-0.3-0.3c0.1-0.1,0.2,0,0.2,0.1c0.1-0.1,0-0.4,0.2-0.4L9.6,9.4c0.1,0,0.1-0.1,0.2-0.1C9.9,9.2,9.9,8.9,10,9
								c0,0,0.2-0.3,0-0.3c-0.2,0.1,0,0.2-0.2,0.2c0.2,0,0.1-0.2,0.1-0.4l0.1,0c0-0.1,0.1-0.2,0.1-0.3c0,0.1,0.1,0.1,0.1,0l-0.1-0.1
								c0.1-0.2,0.2,0.1,0.3-0.2l0,0.2c0,0,0.1,0,0.2-0.2c-0.1-0.1-0.1-0.3-0.1-0.3c0.1-0.1,0.1,0,0.1-0.2l0,0.2c0,0,0.2,0,0.3-0.1
								C11,7.6,11,7.4,10.8,7.5c0.1-0.1,0.2-0.1,0.2,0c0.1-0.2-0.1-0.1,0-0.2c0.1,0,0.3-0.1,0.5-0.1l0,0.3l0.1-0.1
								c0,0.2,0.1,0,0.2,0.2c0.1,0,0.1-0.1,0.1-0.2c-0.4,0,0-0.4-0.2-0.5c0.2-0.3,0.5,0.3,0.6-0.2c-0.1,0-0.1-0.2-0.2-0.1
								c0.2-0.1,0-0.3,0.2-0.4c-0.1,0.2,0.3,0.1,0.2,0.3c0-0.1-0.2,0-0.2,0.1c0.1,0,0.1,0.2,0.3,0.1c0.1-0.1,0.2-0.2,0.1-0.3
								c-0.1-0.1-0.2,0.1-0.2,0c0.2-0.2,0.3-0.1,0.3-0.3c-0.1,0.1-0.2,0-0.3,0l0.1-0.2l0,0.1c0.3-0.1,0-0.2,0.2-0.3l0.2,0.1
								c0,0.2-0.4,0.2-0.2,0.4c0.2-0.1,0.1-0.2,0.3-0.3c0,0-0.1,0.1-0.1,0.1c0.1,0,0.3,0.2,0.4-0.1c0.1-0.1,0-0.1-0.1-0.2
								c0.2-0.2,0.2-0.3,0.4-0.5C14,5.1,14.2,4.7,14.2,5c-0.1,0-0.5,0.2-0.5,0.4c0.2,0.1-0.2,0.1-0.1,0.3c0.2-0.1,0.3,0,0.4,0.1
								c0.1,0,0.1-0.1,0.1-0.2c0-0.1-0.1-0.1-0.2-0.2c0.2-0.1,0.4-0.3,0.5-0.5c0.1,0,0.2,0.1,0.1,0.2c0.2-0.2,0.5-0.4,0.8-0.6
								c-0.3,0,0.2-0.2,0-0.3c-0.2,0.1-0.4,0-0.3-0.1c0.1-0.1,0,0.1,0.1,0.1c0-0.2,0.3,0,0.3-0.2c-0.2,0.2,0.1,0.2,0.1,0.4
								c0.1-0.2,0.1,0.1,0.2,0c0.1-0.2,0.3-0.4,0.5-0.6c0.3-0.1,0.6-0.4,0.8-0.6c0.2,0,0.2,0.2,0.3,0.1c0.1-0.1-0.2-0.1,0.1-0.2l0,0
								c0-0.1,0.5-0.1,0.4-0.4l0,0.2c0.1,0,0.1-0.1,0.1-0.1c0,0.1,0.1,0.1,0.1,0.2c0.2,0,0.3-0.2,0.5-0.2l-0.1-0.1
								c0.3-0.2,0.5-0.1,0.8-0.2l0,0.1c0.1,0,0.1-0.1,0.2-0.1c0,0.1,0.1,0.2,0.2,0.1C19.3,2.9,19.1,3,19,3.1c-0.1-0.1,0.1-0.1,0-0.2
								c-0.1-0.1-0.4,0-0.4,0.1c0.1,0,0.1,0,0.2-0.1c0.1,0.1-0.1,0.2-0.1,0.3c0,0,0.1,0,0.1,0c-0.1,0.1-0.2,0.1-0.3,0.2
								c0.1-0.1-0.1-0.1-0.1-0.1c0,0.1-0.1,0.2-0.3,0.3c-0.2-0.1-0.3,0.3-0.5,0.3c0-0.2,0.1-0.3,0.2-0.4c-0.2,0-0.2,0.1-0.3,0.1
								c0,0.1,0,0.3-0.1,0.5l-0.1-0.1c-0.1,0.1,0,0.3-0.2,0.4c-0.4,0.2-0.7,0.4-1,0.6l-0.1-0.1c0,0.3-0.4,0.4-0.5,0.6
								c-0.4,0.2-0.6,0.6-0.9,0.6c-0.5,0.5-1,0.9-1.6,1.3l0-0.2c0,0.2-0.1,0-0.2,0.1c0.2,0,0,0.2,0,0.4c-0.3,0.1-0.5,0.5-0.6,0.7
								l-0.1-0.1c-0.1,0.3-0.4,0.5-0.6,0.7c-0.1,0-0.2,0-0.2,0.1c0,0.2,0,0.3-0.1,0.6c-0.1,0.2-0.3,0.4-0.4,0.6
								c-0.1,0.8-0.5,1.4-0.5,2.2l-0.1,0c0.1,0.8-0.1,1.6,0.1,2.3l-0.2,0c0,0.2,0.1,0.5,0.2,0.4c0,0.2,0.2,0.5,0,0.7
								c0,0.2,0.1,0.3,0.2,0.4c0,0.4,0,0.6,0.1,1l0-0.1c0,0-0.1,0-0.1,0.1c0.1,0.1,0,0.6,0.2,0.4c-0.1,0.5,0.2,1,0.1,1.4
								c0.1,0,0.1,0.1,0.1,0.1c0,0.4-0.1,0.8,0.1,1.1c0,0.1-0.1-0.1-0.1,0.1c0,0.1,0.1,0,0.1,0.1c0.2,0.6,0,1.3,0.1,1.8
								c0.1,0.5,0.2,1,0.2,1.5c0,0.5,0.1,0.9,0.2,1.3l0,0c0.2,0.2,0.1,0.6,0.4,0.6c0,0.1,0.1,0.1,0,0.2c0.1-0.1,0.5,0.4,0.8,0.5
								c0,0,0,0-0.1,0c0.3,0.3,0.6,0.3,0.9,0.6c0,0-0.1,0-0.2,0c0.1,0.2,0.4,0,0.4,0.3c0.1,0,0.1-0.1,0.1-0.1
								c0.1,0.1,0.2,0.2,0.4,0.3l-0.7,1.2c-0.9-0.6-1.3-1.6-1.5-2.4c0-0.7,0.4-0.1,0.1-0.6c0,0-0.1,0,0,0c-0.1-0.2,0.2-0.3,0.1-0.5
								c-0.1,0.1-0.1-0.1-0.2-0.1c0.1-0.4,0.2-0.5,0-0.8l0.1,0c-0.3-0.3-0.2-0.8-0.5-1.1c-0.2-2-0.6-3.9-0.8-5.9
								c0-0.5-0.1-1-0.1-1.5c0-0.5,0-1.1,0-1.6c0.1-1.1,0.5-2.2,1.1-3.1c0.4-0.4,0.4-0.4,0.7-0.9c0,0,0,0.1,0,0.1
								c-0.1-0.1,0.2-0.3,0.1-0.5c0.5-0.6,1-1.2,1.6-1.7c-0.1,0.1,0,0.2,0.1,0.1l0.1-0.2l0,0c0.1-0.1,0.1-0.2,0-0.2
								c1.5-1.3,3.1-2.1,4.7-3.2c0.4-0.2,1-0.6,1.6-0.8c0.6-0.1,1.5-0.1,2.1,0.4l-0.8,1.3c-0.7-0.5-1.4-1-2.2-1.4
								C19.7,3.7,20.1,3.4,20.6,3.7z"/>
							<path class="st1" d="M19.6,3.2c0-0.1-0.2-0.2,0-0.2C19.6,3,19.6,3.1,19.6,3.2z"/>
							<path class="st1" d="M15.4,4.3C15.4,4.3,15.4,4.3,15.4,4.3c0,0,0-0.1,0-0.1C15.4,4.2,15.4,4.2,15.4,4.3z"/>
							<path class="st1" d="M14.5,4.9c0-0.1,0.1-0.3,0.2-0.3L14.5,4.9z"/>
							<path class="st1" d="M13.5,5.3c-0.1,0-0.1,0,0-0.1C13.5,5.2,13.5,5.2,13.5,5.3z"/>
							<path class="st1" d="M13.5,5.4c-0.1,0.1-0.1,0-0.2,0C13.4,5.5,13.5,5.3,13.5,5.4z"/>
							<path class="st1" d="M11.5,6.7c0,0-0.1,0.2-0.2,0.2C11.4,6.9,11.5,6.6,11.5,6.7z"/>
							<path class="st1" d="M10.8,7.6C10.8,7.7,10.7,7.7,10.8,7.6C10.7,7.8,10.7,7.7,10.8,7.6L10.8,7.6z"/>
							<polygon class="st1" points="11.3,26.9 11.2,26.9 11.3,26.8 							"/>
							<path class="st1" d="M12.8,22c-0.1-0.1,0.1-0.1,0.1-0.1C12.9,21.9,12.8,21.8,12.8,22z"/>
							<polygon class="st1" points="12,17.5 12,17.5 11.8,17.5 							"/>
						</g>
					</g>
				</g>
			</g>
		</g>
		<g>
			<g>
				<path class="st3" d="M24.4,16.5c0.3,3-1,5.7-3.5,7.5l-3.7,2.7c-0.3,0.2-0.5,0.4-0.7,0.5c-2.1,1.3-3.6,0.8-3.8-2l-1-9.4
					c-0.3-3,1.1-5.9,3.6-7.7L19,5.4c0.3-0.2,0.5-0.4,0.7-0.5c2.5-1.5,3.5-0.1,3.7,2.1L24.4,16.5z M19.7,21.3c1.1-0.8,1.6-1.6,1.4-3
					l-0.9-8.4c-0.1-1.1-0.5-1.4-1.4-0.9c-0.1,0.1-0.2,0.1-0.3,0.2l-2.4,1.7c-1.4,1-1.5,2.3-1.4,3l0.8,8.4c0.1,1.3,0.9,1.2,1.6,0.8
					c0.1-0.1,0.2-0.1,0.3-0.2L19.7,21.3L19.7,21.3z"/>
				<g>
					<path class="st4" d="M24.4,16.5c0.3,3-1,5.7-3.5,7.5l-3.7,2.7c-0.3,0.2-0.5,0.4-0.7,0.5c-2.1,1.3-3.6,0.8-3.8-2l-1-9.4
						c-0.3-3,1.1-5.9,3.6-7.7L19,5.4c0.3-0.2,0.5-0.4,0.7-0.5c2.5-1.5,3.5-0.1,3.7,2.1L24.4,16.5z M19.7,21.3c1.1-0.8,1.6-1.6,1.4-3
						l-0.9-8.4c-0.1-1.1-0.5-1.4-1.4-0.9c-0.1,0.1-0.2,0.1-0.3,0.2l-2.4,1.7c-1.4,1-1.5,2.3-1.4,3l0.8,8.4c0.1,1.3,0.9,1.2,1.6,0.8
						c0.1-0.1,0.2-0.1,0.3-0.2L19.7,21.3L19.7,21.3z"/>
					<g>
						<g>
							<g>
								<path class="st1" d="M19.6,21C19.5,21.1,19.8,21.1,19.6,21C19.6,21.1,19.6,21,19.6,21z"/>
								<path class="st1" d="M19.3,21.4c-0.1,0.6-0.8,0.6-1,1c0,0-0.1-0.2-0.2-0.1c-0.1,0.2-0.3,0.4-0.6,0.6
									c-0.3,0.1-0.6,0.2-0.8,0.2l0-0.1c-0.1,0-0.2,0.2-0.3,0.2c0,0,0-0.1,0-0.1c0,0.1-0.2,0.1-0.2,0.1c0-0.1,0-0.2,0-0.2
									c0,0-0.1,0.1-0.1,0.1c-0.2,0.1-0.2,0.1-0.3-0.1c0-0.1,0-0.2-0.2-0.3c0,0,0.1,0,0.1,0c-0.3-0.2-0.3-0.8-0.4-1.2
									c0,0,0.1,0,0.2,0c-0.1,0-0.2-0.1-0.2-0.2c0.1-0.1-0.2-0.2-0.1-0.3l0,0c-0.2-0.1,0.1-0.2-0.1-0.2l0.1-0.1
									c-0.2,0,0.1-0.2,0-0.2l0,0c-0.1-0.1,0-0.1,0-0.2l0,0c-0.1-0.2,0-0.3-0.1-0.2c0.1-0.1,0.1,0.2,0.2,0
									c-0.2-0.5-0.2-1.1-0.3-1.6c0.1-0.1,0.1-0.1,0.1-0.1c0,0,0-0.2-0.1-0.2c0,0,0.1,0,0.1-0.1c0.1-0.1-0.2-0.1-0.1-0.2
									c0,0,0.1,0,0.2,0c-0.1-0.1-0.1-0.2-0.2-0.3c0,0,0,0,0.1,0c-0.2-0.1,0-0.2-0.1-0.3l0.1,0c0.1-0.2-0.2,0-0.1-0.2
									c0,0,0.1,0,0.1,0C15,17,15,16.8,14.9,16.7c0,0,0,0,0,0c0-0.1,0-0.3-0.1-0.5c0-0.1,0.2,0,0.2-0.2c-0.2,0-0.1-0.3-0.3-0.1
									c0-0.1,0.1-0.4,0-0.4c0.1,0.1,0.2-0.1,0.2,0l0.1-0.1c0.1,0,0,0.1,0.1,0.1c0-0.1-0.1-0.2-0.1-0.3c-0.1-0.1-0.3-0.2-0.4-0.3
									c0.1,0.1,0.2-0.1,0.2,0l-0.4-0.2c0-0.1,0.1,0,0.1-0.1c0,0-0.1,0-0.1,0c0,0-0.1-0.2,0.1-0.3c0.1,0,0,0.1,0.1,0
									c0-0.1-0.1-0.1-0.1-0.2l0,0c0-0.1-0.1-0.2-0.2-0.1c0,0,0.1,0,0.1,0c-0.1,0-0.2-0.2-0.2-0.3c0,0,0.1,0,0.1,0
									c-0.2-0.1-0.2-0.3-0.2-0.5c-0.1,0,0.2,0.1,0.1,0.1c0.1-0.2-0.1-0.5,0.1-0.6c0,0-0.1,0-0.1,0c0-0.1,0.2-0.1,0.1-0.1
									c0.1,0,0-0.1,0-0.2c0-0.1,0,0,0,0.1c0-0.1,0-0.6,0.3-0.7c0,0-0.1-0.2,0-0.3l0.1,0.1c0.1,0,0.1-0.2,0.2-0.1
									c0-0.2-0.2,0.4-0.2,0.2c0.1,0,0-0.3,0.1-0.2c0.1-0.1,0-0.3,0.2-0.3c0,0,0.1,0.2,0.1,0.1c0.1-0.1,0-0.1,0-0.2l0-0.1
									c-0.1-0.1,0.1-0.1,0-0.1c0.1,0,0.1-0.2,0.2-0.1l0.1,0.1c0-0.1,0-0.2,0-0.3c0,0,0,0,0.1,0c-0.1-0.2,0.1-0.1,0.1-0.3
									c0.2,0,0.3-0.2,0.4-0.1c0-0.1,0.1-0.2,0.2-0.3c0,0,0,0.1,0,0.1c0.1,0,0.1,0,0.1-0.1c0,0,0.2,0,0.3,0c0-0.1-0.1-0.2-0.1-0.3
									c0.2,0.1,0.1-0.3,0.3-0.2c0,0,0,0.2,0,0.2c0.2,0.1,0-0.2,0.2-0.2l-0.1-0.1c0.1,0.1,0.1-0.2,0.2,0c0-0.1,0.2,0,0-0.2
									c0.3,0,0.4-0.4,0.7-0.2c0,0,0.1-0.1,0-0.1C17.9,8.9,18,9,18,9c0,0,0-0.1,0-0.1c0.1,0,0.1,0,0.2,0.1c0.2,0-0.1-0.3,0.2-0.4
									c0,0.1,0.1,0.1,0.1,0l0.1-0.2c0.2-0.1,0.2,0.1,0.2,0.2c0.1-0.1,0.2-0.1,0.2-0.2c0,0,0.1,0.1,0.1,0.1
									c-0.1-0.1,0.1-0.1,0.1-0.1l0,0c0,0,0.1,0,0.2,0c0-0.1-0.1-0.1-0.2-0.1c0-0.1,0.1-0.1,0.2-0.2c0,0.1,0.1,0.1,0.2,0.1
									c0.1,0,0.1-0.1,0.1-0.1c0,0.1,0.1,0,0.1,0.1c0,0-0.1-0.1-0.1,0c0,0.1,0,0.2,0.1,0.1c0.1,0,0-0.2,0.2-0.1
									c-0.1,0-0.1,0.1-0.1,0.1c0,0,0.1,0.1,0.1,0.1l0-0.1c0,0,0,0,0,0.1c0.1-0.1,0.2,0.1,0.3,0c0.1,0,0.1,0.2,0.1,0.2l0,0
									c0,0.1,0.1,0.2,0.2,0.2l0,0c0,0,0.1,0.2,0.2,0.2c0,0.2-0.3,0.3-0.2,0.3c0,0.1,0.2,0.1,0.3,0c0,0.1,0,0.3,0.1,0.4
									c0,0.1,0,0.2,0,0.3c0,0,0.1,0,0.1,0c0,0.3,0.2,0.5,0,0.7c-0.1-0.1-0.1,0-0.2,0c0.1,0-0.1,0.1,0.1,0.1c0.1,0,0.1,0,0.2-0.1
									c0.1,0.1,0.1,0.4,0,0.5c0,0,0.1,0,0.1,0c-0.2,0-0.2,0.1-0.1,0.2l0.1,0l-0.1,0.1c0,0,0.2,0,0.1,0.1c0,0-0.1,0-0.1,0
									c0.1,0.1,0.2,0.2,0.2,0.3l-0.1,0.1c0,0,0.1,0.1,0.1,0c-0.1,0.2-0.1,0.3-0.2,0.3c0.3,0.2,0.4,0.6,0.4,1l-0.1,0
									c-0.1,0.1,0.1,0,0.1,0.1c-0.1,0-0.1,0.1-0.2,0c-0.1,0.1,0.1,0.1,0.2,0.2c0.1,0-0.1-0.1,0.1-0.1c0,0-0.1,0.2,0.1,0.2
									c-0.1,0-0.2,0-0.2,0l0.1,0.1c-0.2,0.1-0.3-0.2-0.5,0l0,0.1c-0.1,0.1-0.2-0.2-0.2,0c0.1,0.1,0.3,0.1,0.4,0
									c0.1,0.2,0.4,0,0.4,0.2c-0.1,0.1,0-0.1-0.1-0.1c-0.1,0.1,0.1,0.2,0,0.2c0-0.1,0.2,0,0.2,0c-0.1,0.1-0.1,0-0.1,0.1
									c0.1,0,0.2,0.1,0.2,0c0.2,0,0,0.1,0.1,0.2c-0.1,0.1-0.3-0.1-0.4,0.1c0.1,0,0.2,0.1,0.4,0c0,0.1-0.1,0.1-0.2,0
									c-0.1,0.1,0.3,0.2,0,0.2l0.1,0c0,0-0.1,0.1-0.1,0.1c0,0.1,0.2,0.2,0,0.2c0,0,0,0.2,0.2,0.1c0.1-0.1-0.1-0.1,0.1-0.2
									c-0.1,0.1,0,0.1,0.1,0.2l-0.1,0c0,0,0,0.1,0.1,0.1c0,0-0.1,0-0.1,0l0.1,0c0.1,0.1-0.2,0.1-0.2,0.2l-0.1-0.1
									c0,0-0.1,0.1,0,0.1c0.1,0,0.2,0,0.3,0.1c0.1,0.1-0.1,0,0,0.1l-0.1-0.1c0,0-0.2,0.1-0.2,0.2c0,0.1,0.2,0.1,0.3,0
									c0,0-0.1,0.1-0.1,0.1c0,0.1,0.1,0,0.2,0.1c-0.1,0-0.2,0.2-0.3,0.3l-0.2-0.1l0,0.1c-0.2-0.1-0.1,0.1-0.3,0c0,0,0,0.1,0.1,0.1
									c0.2-0.2,0.3,0.1,0.6,0c0.1,0.2-0.5,0.2-0.2,0.3c0.1,0,0.2,0,0.2-0.1c0,0.1,0.2,0.1,0.2,0.2c-0.1-0.1-0.2,0.1-0.4,0
									c0.1,0,0-0.1,0-0.1c-0.1,0.1-0.2,0-0.2,0.1c0,0.1,0,0.2,0.2,0.1c0.1,0,0-0.1,0.1-0.1c0.1,0.1-0.1,0.2,0.1,0.2
									c0-0.1,0.1-0.1,0.2-0.1l0.1,0.1l-0.1,0c0,0.2,0.2,0,0.2,0.2L22,17.7c-0.1,0,0-0.2-0.2-0.2c0,0.1,0.1,0.1,0.1,0.2
									c0,0,0,0-0.1-0.1c0,0-0.3,0.1-0.1,0.2c0.1,0.1,0.1,0,0.2,0c0,0.2,0.1,0.2,0.2,0.3c-0.2,0,0,0.2-0.2,0.1
									c0.1-0.1,0.1-0.3-0.1-0.4c-0.2,0.1,0-0.1-0.2-0.1c0,0.1-0.2,0.1-0.3,0.2c0,0,0.1,0.1,0.1,0.1c0.1,0,0.1,0,0.2-0.1
									c0,0.1,0.1,0.3,0.2,0.4c-0.1,0.1-0.2,0-0.2,0c0.1,0.2,0,0.4,0,0.6c0.2-0.1,0,0.2,0.2,0.1C21.8,19,22,18.9,22,19
									c0,0.1-0.1,0-0.1,0c0.1,0.1-0.2,0.1,0,0.2c0-0.2-0.2-0.1-0.4-0.1c0.1,0.1-0.1,0-0.1,0.1c0.1,0.1,0.1,0.3,0.1,0.5
									c-0.2,0.1-0.2,0.4-0.2,0.6c-0.1,0-0.2-0.1-0.3,0c0,0.1,0.2,0,0.1,0.1l0,0c0,0.1-0.3,0.2-0.1,0.3l-0.1-0.2c0,0,0,0.1,0,0.1
									c0,0-0.1,0-0.1-0.1c-0.2,0-0.1,0.2-0.2,0.2l0.1,0c-0.1,0.2-0.2,0.2-0.3,0.3L20.2,21l0,0.1C20.1,21,20,21,20,21.1
									c0-0.1,0-0.2,0-0.4c0.1,0,0,0.1,0.1,0.2c0.1,0,0.2-0.1,0.1-0.2c0,0,0,0.1,0,0.1c-0.1-0.1-0.1-0.2-0.1-0.3c0,0-0.1,0,0,0.1
									c0-0.1,0-0.1,0.1-0.2c0,0.1,0.1,0,0.1,0.1c-0.1-0.1-0.1-0.2,0-0.2c0.2,0,0-0.2,0.1-0.3c0.1,0.1,0.1,0.2,0.1,0.3
									c0.1,0,0.1-0.1,0.2-0.1c-0.1-0.1-0.2-0.2-0.2-0.3l0.1,0c0-0.1-0.1-0.2-0.1-0.3c0.1-0.2,0.2-0.3,0.2-0.5l0.1,0
									c-0.2-0.1,0-0.3-0.1-0.4c0.1-0.2-0.1-0.4,0.1-0.5c-0.1-0.4-0.2-0.7-0.2-1.1l0.2,0c-0.1-0.1,0.1-0.1,0.1-0.1
									c-0.1,0.1-0.2-0.1-0.3-0.1c0.1-0.2-0.1-0.4-0.2-0.5l0.1,0c-0.2-0.1-0.1-0.3,0-0.5c0,0,0.1-0.1,0.1-0.1
									c-0.2-0.1-0.2-0.1-0.3-0.3c0-0.1,0-0.3,0.1-0.4c-0.3-0.4-0.2-0.8-0.4-1.3l0.1,0c-0.3-0.4-0.1-0.9-0.3-1.3l0.2,0
									c0.1-0.1-0.1-0.3-0.2-0.2c0.1-0.1-0.1-0.3,0-0.4c0-0.1-0.1-0.1-0.1-0.2c0.1-0.2,0-0.3,0-0.5l0,0.1c0,0,0.1,0,0.1-0.1
									c-0.1-0.1,0-0.3-0.2-0.2c0.1-0.3-0.2-0.5,0-0.8c-0.1,0-0.1,0-0.1,0c0,0,0-0.1,0-0.1l0,0c0,0,0-0.1,0,0c0,0,0.1,0,0.1-0.1
									c0,0-0.1,0.1-0.1,0.1c-0.1,0,0,0,0-0.1c0-0.1,0-0.2-0.1-0.1c-0.1,0.1-0.1,0.1-0.2,0.2L18.9,10c-0.1,0.1-0.2,0.2-0.3,0.2l0,0
									c0,0.3-0.4,0.1-0.4,0.4c-0.1,0-0.1,0.1-0.2,0c0,0.2-0.4,0.1-0.5,0.4c0,0,0,0,0-0.1c-0.2,0-0.3,0.3-0.5,0.3c0,0,0-0.1,0-0.1
									c-0.1,0,0,0.3-0.2,0.1c0,0,0,0.1,0.1,0.1c-0.5,0.2-0.6,0.6-0.8,0.9c-0.3,0.1-0.3-0.2-0.3,0.1c0,0,0.1,0.1,0,0
									c0,0.1-0.3,0-0.2,0.1c0.1,0,0.1,0.1,0.1,0.1c-0.2,0.1-0.3,0.1-0.2,0.3l-0.1,0c0.2,0.2,0,0.4,0.2,0.5c0,0.2,0,0.4,0.1,0.6
									l0.1,0.8c0.1,0.5,0.2,1,0.3,1.6c0.1,1.1,0.3,2.1,0.2,3.1c-0.2,0.3-0.2,0.3-0.1,0.6c0,0,0,0-0.1,0c0.2,0,0,0.2,0.2,0.2
									c0,0.4,0.1,0.8,0.1,1.2c0-0.1-0.2-0.1-0.1,0l0.1,0.1l0,0c0,0,0.1,0.1,0.2,0c0.1,0.2,0.1,0.5,0.1,0.7c0,0,0,0-0.1,0
									c0,0.1,0.1,0.2,0.1,0.1c0.1,0,0.1-0.1,0.2-0.1c0.1-0.1,0.2-0.2,0.3-0.3c0.7-0.3,1.4-0.5,1.9-1.1
									C19.3,20.7,19.5,21.1,19.3,21.4z"/>
								<path class="st1" d="M19.7,20.9c0.1,0,0.2,0,0.2,0.2C19.9,21,19.8,21,19.7,20.9z"/>
								<path class="st1" d="M21.7,19.3C21.7,19.3,21.7,19.2,21.7,19.3C21.8,19.3,21.8,19.3,21.7,19.3
									C21.8,19.3,21.7,19.3,21.7,19.3z"/>
								<path class="st1" d="M21.8,18.6c0.1,0,0.1,0.2,0.1,0.3L21.8,18.6z"/>
								<path class="st1" d="M22,17.9C22.1,17.9,22.1,17.9,22,17.9C22.1,17.9,22.1,17.9,22,17.9z"/>
								<path class="st1" d="M21.9,17.9c0,0,0-0.1,0.1-0.1C21.9,17.8,22,17.9,21.9,17.9z"/>
								<path class="st1" d="M21.9,16.6c0,0-0.1-0.1,0-0.1C21.9,16.5,22.1,16.6,21.9,16.6z"/>
								<path class="st1" d="M21.8,16.1C21.8,16.1,21.8,16,21.8,16.1C21.8,16,21.9,16,21.8,16.1L21.8,16.1z"/>
								<polygon class="st1" points="17,9.6 17.1,9.6 17.1,9.6 								"/>
								<path class="st1" d="M14.2,13.6C14.3,13.7,14.2,13.7,14.2,13.6C14.2,13.6,14.3,13.7,14.2,13.6z"/>
								<polygon class="st1" points="14.8,16.1 14.8,16.1 15,16.1 								"/>
							</g>
						</g>
					</g>
					<g>
						<g>
							<g>
								<path class="st1" d="M24.6,16.6c0-0.2-0.1,0.1-0.1-0.1C24.6,16.5,24.7,16.6,24.6,16.6z"/>
								<path class="st1" d="M24.5,15.8c-0.5-0.7-0.2-1.6-0.5-2.3c0-0.1,0.2,0,0.1-0.2c-0.4-0.7-0.3-1.9-0.2-2.8l0.1,0
									c0-0.2-0.2-0.4-0.2-0.5c0,0,0.1,0.1,0.1,0c-0.1,0-0.1-0.3-0.2-0.4c0-0.1,0.1-0.1,0.2-0.2l-0.1-0.1c-0.3-0.3,0-0.7-0.3-1.1
									c0,0,0.1,0.1,0.1,0c-0.3-0.6-0.3-1.4-0.5-2.1c0.1,0,0.1,0,0.2,0c-0.2,0-0.2-0.2-0.3-0.4c0.1-0.1-0.2-0.3-0.2-0.5l0,0
									c-0.2-0.1,0-0.2-0.3-0.2l0-0.1c-0.2,0.1-0.1-0.2-0.2-0.2l0,0c-0.1,0-0.1-0.1-0.2-0.2l0,0c-0.2,0-0.4-0.2-0.4,0
									c-0.1-0.1,0.3,0,0.2-0.2c-0.9,0-1.8,0.5-2.5,1c-0.1,0-0.2,0-0.2,0c-0.1,0.1-0.3,0.2-0.3,0.3c0,0-0.1,0-0.1,0
									c-0.2,0.1,0,0.3-0.2,0.3c0-0.1,0-0.1,0-0.2c-0.1,0.2-0.2,0.3-0.4,0.4c0,0,0-0.1,0-0.1c-0.1,0.2-0.3,0.2-0.4,0.4l0-0.1
									c-0.3,0.1,0,0.2-0.2,0.3c0-0.1,0-0.1,0-0.1c-0.1,0.3-0.4,0.4-0.6,0.6c0,0,0,0,0,0c-0.2,0.2-0.4,0.3-0.6,0.5
									c-0.1,0-0.1-0.2-0.3,0c0.1,0.1-0.3,0.3-0.1,0.4c-0.2,0.1-0.5,0.3-0.6,0.4c0-0.1-0.2-0.1-0.1-0.2l-0.2,0c0-0.1,0.1-0.1,0-0.1
									c-0.1,0.1-0.2,0.3-0.3,0.3c-0.1,0.2,0,0.5-0.2,0.7c0-0.1-0.2-0.1-0.2-0.2l0,0.5c-0.1,0.1-0.1-0.1-0.2,0c0,0,0,0.1,0,0.1
									c0,0-0.2,0.3-0.4,0.2c-0.1,0,0.1-0.1,0-0.1c-0.1,0.1-0.1,0.2-0.2,0.3l0,0c-0.1,0.1-0.1,0.3,0,0.3c0.1-0.1-0.1,0,0-0.1
									c0,0.1-0.1,0.3-0.1,0.4c0-0.1,0-0.1-0.1-0.1c0,0.3-0.1,0.5-0.2,0.7c0.1,0-0.1-0.2,0-0.2c-0.3,0.2-0.2,0.7-0.4,0.8
									c0,0,0.1,0,0.1,0c-0.1,0.1-0.2,0.1-0.2,0.2c-0.1,0,0,0.1,0,0.2c0,0.1,0,0,0-0.1c0,0.2-0.1,0.7-0.3,1c0,0,0.1,0.2,0.1,0.3
									l-0.1-0.1c-0.1,0.1,0,0.2-0.1,0.2c0.1,0.2,0-0.6,0.1-0.4c-0.1,0,0.1,0.3,0,0.3c0,0.1,0.1,0.3,0,0.4c0,0-0.1-0.1-0.1,0
									c0,0.2,0,0.1,0.1,0.2l0,0.1c0.1,0,0,0.2,0.1,0.1c-0.1,0,0,0.3-0.1,0.3l-0.1,0c0,0.1,0.2,0.2,0.2,0.2c0,0,0,0-0.1,0
									c0.2,0,0,0.2,0.2,0.3c-0.1,0.2,0,0.5-0.1,0.6c0.1,0.2,0.2,0.3,0.1,0.5c0,0,0-0.1-0.1-0.1c-0.1,0.1,0,0.1,0.1,0.2
									c0,0-0.1,0.2-0.2,0.4c0.1,0.2,0.2,0.1,0.3,0.1c-0.2,0.2,0.2,0.4,0,0.6c0-0.1-0.1-0.2-0.2-0.1c-0.2,0.2,0.2,0.3,0.1,0.5
									l0.2-0.1c-0.1,0.1,0.1,0.3,0,0.3c0.1,0.1,0,0.3,0.1,0.2c-0.1,0.4,0.2,0.9-0.1,1.2c0,0.1,0,0.2,0.1,0.2
									c0.1-0.1-0.1-0.1,0-0.2c0,0,0.1,0.1,0.1,0.1c0,0.1,0,0.2-0.2,0.1c-0.1,0.3,0.3,0.2,0.3,0.6c-0.1,0-0.1,0-0.1,0.1l0.1,0.2
									c0,0.2-0.2,0.1-0.3,0.2c0,0.1,0,0.3,0.1,0.3l-0.1,0.2c0.1-0.1,0.1,0.1,0.1,0.1l0-0.1c-0.1,0,0,0.2,0,0.2
									c0.1,0,0.1-0.2,0.1-0.2c0.1,0.1,0.1,0.1,0.1,0.2c-0.1,0-0.1,0.2-0.1,0.3c0,0.1,0.1,0.1,0.1,0.1c-0.1,0,0,0.2-0.1,0.1
									c0,0,0.1-0.1,0-0.1c0,0.1-0.2,0.1-0.1,0.2c0.1,0.1,0.2-0.1,0.2,0.2c0-0.1-0.1-0.1-0.1-0.1l0,0.2l0.1,0c0,0,0,0-0.1,0
									c0.1,0,0.1,0.3,0.2,0.3c0,0.1-0.1,0.2-0.1,0.3l0,0c-0.1,0.1,0,0.3,0.1,0.4l0,0c0,0.1,0,0.2,0.1,0.3
									c-0.1,0.2-0.4,0.1-0.3,0.3c0,0.2,0.2,0.2,0.3,0.2c0,0.3,0.2,0.6,0,0.9c0,0,0.1,0,0.1,0.1c0,0.4,0.3,0.8,0.1,1.1
									c-0.1-0.1-0.1,0-0.2,0.1c0.1,0.1-0.1,0.1,0.1,0.1c0.1,0,0.1-0.1,0.1-0.2c0.1,0.2,0.2,0.4,0.2,0.5c0-0.1,0.1-0.1,0.1,0
									c-0.1,0.1-0.1,0.2,0,0.2l0.1-0.1l0,0.1c0,0,0.1-0.1,0.2,0c0,0,0,0.1,0,0.1c0.1,0,0.2-0.1,0.3,0c0,0.1,0,0.1,0.1,0.2
									c0,0,0.1-0.1,0.1-0.1c0.2,0.1,0.3,0.1,0.4,0.2c0.3-0.3,0.8-0.6,1.2-0.8l0,0.1c0.1,0,0-0.1,0.1-0.2c0,0.1,0.2,0.1,0.1,0.2
									c0.2,0,0.1-0.2,0.2-0.3c0-0.1,0,0.1-0.1,0c0,0,0.3-0.1,0.2-0.2c0.1,0,0.1,0.1,0.1,0.2l0.1-0.1c0.2,0.1-0.1,0.4,0.2,0.5
									l0.1-0.1c0.2,0.1-0.2,0.3,0.1,0.2c0.1-0.1,0-0.4-0.1-0.4c0.2-0.2-0.1-0.4,0.1-0.5c0.1,0-0.2,0.2-0.1,0.2
									c0.2,0,0.2-0.2,0.3-0.3c-0.1,0-0.1-0.2-0.1-0.2c0.2,0,0,0.2,0.2,0.1c0-0.1,0.1-0.3-0.1-0.2c-0.1-0.2,0.2-0.1,0.2-0.3
									c0.1,0.1,0,0.4,0.2,0.3c-0.1-0.1,0.1-0.3-0.1-0.4c0.1,0,0.2,0.1,0.2,0.2c0.1,0,0.1-0.4,0.3-0.2l0-0.1c0.1,0,0.1,0,0.2,0
									c0.1-0.1,0.2-0.4,0.3-0.2c0,0,0.2-0.2,0.1-0.2c-0.2,0-0.1,0.2-0.3,0.1c0.2,0.1,0.2-0.2,0.2-0.2l0.1,0.1
									c0-0.1,0.1-0.1,0.1-0.2c0,0.1,0,0.1,0.1,0.1l0-0.1c0.1-0.2,0.2,0.1,0.3,0l-0.1,0.2c0,0,0.1,0,0.2-0.1c0-0.1,0-0.3-0.1-0.3
									c0.1-0.1,0.1,0.1,0.1-0.1l0,0.2c0,0,0.2,0.1,0.3,0c0.1-0.1,0.1-0.3-0.1-0.3c0.1,0,0.2-0.1,0.2,0c0.1-0.1-0.1-0.1,0-0.2
									c0.1,0,0.3,0,0.5,0l0,0.2l0.1-0.1c0,0.2,0.1,0,0.1,0.2c0.1,0,0.1-0.1,0.2-0.2c-0.3-0.1,0-0.4-0.2-0.5
									c0.2-0.2,0.5,0.3,0.5-0.1c-0.1,0-0.1-0.2-0.2-0.1c0.1-0.1-0.1-0.2,0.2-0.3c-0.1,0.2,0.3,0.1,0.2,0.3c0-0.1-0.1,0-0.1,0.1
									c0.1,0,0.1,0.2,0.3,0.1c0.1-0.1,0.2-0.2,0.1-0.3c-0.1-0.1-0.1,0.1-0.1,0c0.1-0.2,0.3-0.1,0.2-0.3c-0.1,0.1-0.2,0-0.3,0
									l0.1-0.1l0,0.1c0.2-0.1-0.1-0.2,0.1-0.3l0.2,0c0.1,0.1-0.3,0.2-0.1,0.3c0.1-0.1,0.1-0.2,0.2-0.3c0,0,0,0.1,0,0.1
									c0,0,0.3,0.1,0.3-0.2c0-0.1,0-0.1-0.1-0.1c0.1-0.2,0.1-0.3,0.2-0.5c0.1,0.1,0.2-0.2,0.2,0c-0.1,0-0.3,0.3-0.3,0.5
									c0.2,0.1-0.2,0.1,0,0.3c0.1-0.2,0.3,0,0.4,0c0,0,0-0.1,0-0.2c-0.1-0.1-0.1,0-0.2-0.1c0.2-0.2,0.3-0.4,0.2-0.6
									c0.1,0,0.2,0.1,0.1,0.1c0.1-0.2,0.3-0.5,0.5-0.7c-0.3,0.1,0.1-0.3-0.1-0.3c-0.1,0.1-0.3,0.1-0.3,0c0.1-0.1,0.1,0,0.1,0
									c0-0.1,0.2-0.1,0.1-0.2c-0.1,0.2,0.2,0.2,0.3,0.3c0-0.2,0.1,0.1,0.2-0.1c0-0.2,0-0.4,0.1-0.6c0.2-0.2,0.2-0.6,0.3-0.8
									c0.1-0.1,0.3,0,0.3-0.1c0-0.2-0.2,0.1-0.1-0.1l0,0c0-0.1,0.2-0.4,0-0.5l0.2,0.1c0,0,0-0.1,0-0.1c0.1,0,0.1,0,0.2,0
									c0.1-0.1,0-0.3,0-0.5l-0.1,0.1c-0.1-0.3,0.1-0.4,0-0.7l0.1,0l-0.1-0.2c0.1,0,0.2-0.1,0.1-0.2l0.3,0.4
									c-0.1,0.1-0.1-0.1-0.2-0.1c-0.1,0.1-0.1,0.3,0,0.3c0-0.1,0-0.1,0-0.2c0.2,0,0.1,0.1,0.2,0.2c0-0.1,0-0.1,0-0.1
									c0.1,0.1,0.1,0.2,0.1,0.4c-0.1-0.1-0.1,0.1-0.1,0c0.1,0,0.2,0.2,0.1,0.4c-0.2,0.1,0,0.4-0.1,0.6c-0.1-0.1-0.2-0.3-0.2-0.4
									c-0.1,0.1,0,0.2-0.1,0.3c0.1,0.1,0.2,0.2,0.2,0.4l-0.1,0c0,0.2,0.1,0.2,0.1,0.4c-0.2,0.4-0.3,0.7-0.5,1l-0.1,0
									c0.1,0.2-0.2,0.5-0.2,0.8c-0.3,0.3-0.4,0.7-0.6,0.8c-0.3,0.6-0.7,1.1-1.3,1.5l0-0.2c0,0.2-0.1,0-0.2,0.1c0.2,0,0,0.2,0,0.4
									c-0.3,0.1-0.5,0.4-0.7,0.7l-0.1-0.1c-0.1,0.3-0.5,0.4-0.7,0.5c-0.1,0-0.2-0.1-0.2,0c0,0.2-0.1,0.3-0.3,0.5
									c-0.2,0.1-0.4,0.3-0.6,0.3c-0.5,0.6-1.1,0.9-1.7,1.5l-0.1-0.1c-0.5,0.7-1.5,0.9-2.3,1.1l0.1-0.2c-0.2,0-0.6,0.1-0.5,0.2
									c-0.1,0-0.3,0-0.5-0.1c-0.2,0-0.3-0.1-0.4-0.2c-0.2-0.2-0.4-0.1-0.6-0.2c-0.4-0.5-0.5-0.6-0.7-1l0,0.1c0.1,0,0.1,0,0.1-0.1
									c-0.1-0.1-0.2-0.6-0.3-0.4c0-0.5-0.4-1.1-0.2-1.5c-0.1,0-0.1-0.1-0.1-0.1c0-0.4,0.1-0.7-0.1-1c0-0.1,0.1,0.1,0.1-0.1
									c0-0.1-0.1,0-0.1-0.1c-0.2-0.6,0-1.2-0.1-1.7c-0.2-0.9-0.3-1.9-0.4-2.8l0,0c-0.2-0.3,0.1-0.7-0.2-0.9c0-0.1,0-0.3,0.1-0.2
									c-0.2-0.2,0.1-0.7-0.1-1c0,0,0,0,0,0.1c0.1-0.4-0.1-0.6,0-1c0,0,0,0.1,0.1,0.1c0.1-0.1-0.2-0.3,0-0.4c0-0.1-0.1,0-0.1,0
									c0-0.8-0.2-1.8,0-2.7c0.3-0.6,0.4,0,0.3-0.5c0.1,0-0.1-0.1,0,0c0-0.2,0.3-0.2,0.3-0.4c-0.2,0-0.1-0.1-0.1-0.1
									c0.2-0.3,0.4-0.4,0.4-0.7l0.1,0.1c-0.1-0.4,0.2-0.7,0.2-1.1c0.5-0.9,1.1-1.7,1.8-2.4c0.3-0.4,0.7-0.7,1.1-1l1.1-0.8
									c0.7-0.5,1.4-1,2.2-1.6c0.7-0.5,1.5-1.2,2.7-1.4c0.6,0.1,0.6,0,1.3,0.1c0,0-0.1,0,0,0.1c0.1-0.2,0.5,0.1,0.6,0
									c0.5,0.3,0.9,0.7,1.1,1.1c0.2,0.4,0.4,0.8,0.5,1.2c0-0.1-0.2-0.1-0.1,0l0.1,0.1l0,0c0,0.1,0.1,0.2,0.2,0.1
									c0.2,1,0.2,1.8,0.3,2.7c0,0.9,0,1.7,0.2,2.6c0,0.4,0.1,1,0.2,1.4c-0.1,1.3-0.1,2.5,0.1,3.8C25.1,16.5,24.6,16.3,24.5,15.8z"
									/>
								<path class="st1" d="M24.7,16.9c-0.1,0.1-0.1,0.2-0.2,0.1C24.5,17,24.6,16.9,24.7,16.9z"/>
								<path class="st1" d="M23.1,20.6C23.1,20.6,23,20.6,23.1,20.6C23,20.6,23,20.5,23.1,20.6C23,20.5,23.1,20.5,23.1,20.6z"/>
								<path class="st1" d="M22.6,21.4c0-0.1,0-0.3,0.1-0.4C22.6,21.1,22.6,21.3,22.6,21.4z"/>
								<path class="st1" d="M21.8,21.9C21.7,21.9,21.7,21.9,21.8,21.9C21.8,21.8,21.8,21.9,21.8,21.9z"/>
								<path class="st1" d="M21.9,22.1c0,0.1-0.1,0.1-0.2,0.1C21.8,22.1,21.8,22,21.9,22.1z"/>
								<path class="st1" d="M20.3,23.2c0,0-0.1,0.1-0.2,0.1C20.2,23.3,20.3,23.1,20.3,23.2z"/>
								<path class="st1" d="M19.6,23.8C19.6,23.9,19.6,23.9,19.6,23.8C19.5,23.9,19.5,23.8,19.6,23.8L19.6,23.8z"/>
								<polygon class="st1" points="12.4,17.8 12.4,17.9 12.4,17.9 								"/>
								<path class="st1" d="M13.5,10.7c0-0.1,0.1,0,0.1,0C13.5,10.8,13.5,10.6,13.5,10.7z"/>
								<polygon class="st1" points="16.1,7.7 16.1,7.7 16,7.6 								"/>
							</g>
						</g>
					</g>
				</g>
			</g>
		</g>
	</g>
	<g>
		<g>
			<polygon class="st5" points="20.1,40.8 18.6,38.8 20.4,33.7 29.6,46 32.6,47.8 23.1,35.1 20.4,33.5 20.9,32.2 24.5,27.4 
				21.5,25.5 17.9,30.3 15.6,37 17.1,38.9 			"/>
			<g>
				<g>
					<g>
						<g>
							<path class="st1" d="M19.7,40.8c0.2,0.2,0-0.2,0.2,0.1C19.8,40.9,19.8,40.9,19.7,40.8z"/>
							<path class="st1" d="M19.4,40.1c-0.8-0.1-1.5-0.8-2.3-1.2c-0.1-0.1-0.2-0.2-0.3-0.3c-0.1-0.1,0.2-0.1,0-0.3
								c-0.4-0.3-0.8-0.8-1.2-1.3c0.3-0.6,0.6-1.2,0.8-1.7l0,0.1c0.1-0.2,0-0.5,0.1-0.7c0,0,0,0.1,0.1,0.1c-0.1-0.1,0.1-0.4,0-0.5
								c0.1-0.1,0.2,0,0.2-0.1l-0.1-0.2c-0.2-0.5,0.3-0.8,0.3-1.4c0,0,0,0.1,0.1,0.1c0.1-0.7,0.4-1.5,0.6-2.3
								c0.1-0.1,0.1-0.2,0.2-0.3c0,0.1,0.1,0.1,0.1,0.1c-0.1-0.1,0.1-0.4,0.2-0.6c0.2,0,0.1-0.4,0.4-0.6l0,0c0-0.3,0.3-0.2,0.2-0.4
								l0.2,0c-0.1-0.2,0.3-0.2,0.3-0.4l0,0c0.1-0.2,0.2-0.2,0.3-0.3l0,0c0.2-0.3,0.4-0.4,0.3-0.5c0.2,0-0.2,0.3,0.1,0.3
								c0.4-0.7,0.8-1.4,1.4-2.1c0.4,0.2,0.7,0.4,1.1,0.6c0.1,0.1,0.1,0.2,0.1,0.3c0.1,0,0.4,0.2,0.5,0.2c0,0,0,0.1,0.1,0.1
								c0.2,0.2,0.3,0,0.5,0.2c-0.1,0-0.2,0-0.2,0.1c0.2,0,0.5,0.2,0.7,0.3c-0.1,0-0.1,0-0.2,0c0.2,0,0.3,0.1,0.4,0.2
								c-0.1,0.1-0.1,0.1-0.1,0.2c0,0,0,0-0.1-0.1c-0.4,0.3,0.2,0.1-0.1,0.4c0-0.1,0-0.1-0.1-0.1c0,0.3-0.4,0.7-0.5,1c0,0,0,0,0,0
								c-0.2,0.3-0.4,0.5-0.6,0.8c-0.1,0.1-0.2-0.2-0.3,0.1c0.2,0.1-0.3,0.5,0,0.5c-0.2,0.2-0.5,0.5-0.6,0.7c0-0.1-0.3,0-0.1-0.2
								l-0.2,0.1c0-0.1,0.1-0.1,0-0.1c-0.1,0.1-0.2,0.4-0.3,0.5c0,0.2,0,0.5-0.2,0.8c0-0.2-0.2,0-0.2-0.2c0,0.2,0,0.4,0,0.5l0,0.1
								c0,0.1-0.1,0-0.2,0.1c0,0,0.1,0.1,0.1,0.2c-0.1,0.1-0.1,0.4-0.3,0.4c-0.1,0,0-0.2-0.1-0.1c-0.1,0.2,0,0.2-0.1,0.4l0,0
								c0,0,0,0,0,0.1c0.1,0.1,0.3,0.1,0.3,0c-0.1,0-0.1,0.1-0.1,0c0.2,0,0.4,0.1,0.5,0.1c-0.1,0-0.1,0-0.2,0.1
								c0.3,0,0.6,0.1,0.9,0.2c0-0.1-0.2,0.1-0.2,0c0.3,0.3,0.8,0.3,1.1,0.7c-0.1,0,0-0.1,0-0.1c0.2,0.1,0.1,0.2,0.2,0.2
								c0,0.1,0.1,0.1,0.3,0.1c0,0,0.1,0.1,0.1,0.1c0.1,0,0,0.1-0.1-0.1c0,0,0.1,0.1,0.2,0.2c0.1,0.1,0.2,0.2,0.3,0.3
								c0.2,0.2,0.4,0.4,0.5,0.7c0,0,0.3,0.1,0.4,0.2l-0.1,0c0,0.1,0.2,0.3,0.1,0.3c0.2,0.1-0.6-0.6-0.3-0.4c0,0.1,0.4,0.2,0.2,0.3
								c0.1,0.2,0.4,0.2,0.4,0.5c0-0.1-0.2,0-0.1,0.1c0.2,0.2,0.1,0,0.3,0.2l0.1,0.1c0.1-0.1,0.1,0.2,0.2,0.1
								c-0.1,0.1,0.3,0.3,0.1,0.4l-0.1,0.1c0.1,0.1,0.2,0.1,0.4,0.1c0,0,0,0.1,0,0.1c0.2-0.1,0.2,0.3,0.4,0.3
								c0.1,0.3,0.4,0.5,0.4,0.7c0.2,0.1,0.4,0.2,0.5,0.4c0,0-0.1-0.1-0.1-0.1c0,0.2,0.1,0.2,0.2,0.2c0,0,0.1,0.3,0.1,0.5
								c0.2,0.1,0.2,0,0.3,0c-0.1,0.3,0.5,0.4,0.4,0.7c-0.1,0-0.3-0.2-0.2,0c-0.1,0.3,0.4,0.2,0.5,0.5l0.1-0.2
								c0,0.2,0.3,0.3,0.2,0.4c0.1,0,0.2,0.3,0.3,0.2c0.2,0.5,0.8,0.9,0.7,1.3c0.1,0,0.1,0.2,0.2,0.1c0-0.2-0.2-0.1-0.1-0.2
								c0,0,0.1,0,0.1,0c0.1,0.1,0.1,0.3-0.1,0.2c0.1,0.3,0.5,0.1,0.7,0.5c-0.1,0-0.1,0.1,0,0.2l0.2,0.1c0.1,0.2,0,0.2-0.1,0.3
								c0.1,0.1,0.2,0.3,0.3,0.3l0,0.2c0-0.2,0.1,0.1,0.2,0.1l-0.1,0c0,0.1,0.1,0.2,0.2,0.2c0-0.1,0-0.2-0.1-0.3
								c0.1,0,0.2,0.1,0.3,0.2c-0.1,0,0.1,0.2,0.1,0.4c0.1,0.1,0.2,0.1,0.2,0.1c0,0,0.1,0.2,0,0.2c0,0,0-0.1-0.1-0.2
								c0,0.1-0.1,0.2,0.1,0.3c0.1,0.1,0.2-0.2,0.3,0.1c-0.1,0-0.1,0-0.2,0l0.1,0.2l0.1-0.1c0,0,0,0,0,0.1c0.1,0,0.3,0.3,0.4,0.3
								c0.1,0.1,0.1,0.3,0.2,0.4l0,0c0,0.2,0.2,0.3,0.3,0.3l0,0c0,0.1,0.2,0.2,0.3,0.3c0.1,0.2-0.3,0.3,0,0.4c0,0,0.1,0.1,0.1,0.1
								l1.6,0.7l-2.1-0.1c-0.1,0-0.2,0.1-0.2,0.2c-0.3-0.3-0.7-0.3-0.9-0.6c-0.1,0-0.1,0.1-0.2,0c-0.4-0.3-1.1-0.5-1.3-0.9
								c0.2,0,0.1-0.1,0.1-0.1c-0.2,0-0.1-0.2-0.2,0c0,0.1-0.1,0.1,0,0.2c-0.1-0.1-0.3-0.1-0.6-0.3c-0.2-0.3-0.3-0.4-0.3-0.5
								c0,0.1,0,0.1-0.1,0c0.1-0.1,0-0.3-0.1-0.4l-0.1,0l0-0.2c-0.1,0-0.2,0.1-0.2-0.1c0,0,0-0.1,0.1-0.1c-0.2-0.1-0.4-0.2-0.5-0.4
								l0-0.2c-0.1-0.1-0.2-0.1-0.2,0c-0.1-0.3-0.3-0.5-0.2-0.7c-0.6-0.3-1.1-1-1.5-1.6l0.1,0c-0.1-0.2-0.2,0-0.2-0.1
								c0.1,0,0-0.2,0.2-0.1c-0.1-0.3-0.3-0.2-0.4-0.3c-0.1,0,0.1,0.1,0,0.1c0,0-0.2-0.3-0.3-0.3c0-0.1,0.1-0.1,0.2-0.1l-0.2-0.1
								c0-0.3,0.5,0.2,0.6-0.1l-0.1-0.1c0-0.2,0.4,0.2,0.2-0.1c-0.2-0.1-0.4-0.1-0.4,0.1c-0.2-0.2-0.4,0.1-0.6-0.2
								c0-0.1,0.2,0.2,0.2,0.1c0-0.2-0.3-0.2-0.3-0.4c0.1,0.2-0.1,0.1-0.2,0.1c-0.1-0.2,0.2,0,0-0.2c-0.1,0-0.3-0.1-0.2,0.1
								c-0.2,0-0.1-0.3-0.3-0.3c0.1-0.1,0.4,0,0.3-0.2c-0.1,0.1-0.4-0.2-0.4,0.1c0-0.1,0-0.2,0.1-0.2c0-0.2-0.4-0.2-0.3-0.4l-0.1,0
								c0-0.1,0-0.1,0-0.3c-0.1-0.1-0.4-0.3-0.3-0.4c0,0-0.2-0.3-0.3-0.1c0.1,0.2,0.2,0.1,0.1,0.3c0-0.2-0.2-0.2-0.3-0.3l0.1-0.1
								c-0.1,0-0.1-0.2-0.2-0.2c0.1,0,0.1,0,0.1-0.1l-0.1,0c-0.2-0.2,0.1-0.2-0.1-0.4l0.2,0.1c0,0,0-0.2-0.1-0.3c-0.1,0-0.3,0-0.4,0
								c-0.1-0.1,0.1-0.1-0.1-0.2l0.2,0.1c0,0,0.1-0.2-0.1-0.4c-0.1-0.1-0.4-0.2-0.3,0c-0.1-0.1-0.1-0.2,0-0.2
								c-0.2-0.2-0.1,0.1-0.2,0c0-0.1-0.1-0.4-0.1-0.6l0.3,0.1l-0.1-0.1c0.2,0.1,0-0.1,0.2-0.1c0-0.1-0.2-0.2-0.2-0.2
								c0,0.4-0.5-0.1-0.6,0.1c-0.3-0.3,0.3-0.5-0.2-0.6c0,0.1-0.3,0-0.1,0.2c-0.1-0.2-0.3,0-0.3-0.2c0.1,0,0.1-0.2,0.3-0.2
								c-0.1,0,0.1,0.2,0.1,0.2c0-0.1,0.2-0.1,0-0.3c-0.1-0.1-0.1-0.2-0.2,0c-0.1,0.1,0.1,0.1,0,0.1c-0.1,0,0-0.3-0.1-0.1
								c0,0,0,0.2-0.1,0.2c0,0,0,0,0,0l0-0.1c0-0.1-0.1,0.2-0.1,0.1c0-0.1,0-0.2,0-0.2c0-0.2,0,0.2,0.1-0.1c0-0.1-0.1,0.1-0.1-0.1
								c0,0,0,0,0,0c0,0,0-0.5-0.1-0.4c0,0.1,0,0.1,0,0.3c0,0,0,0,0,0.1c0,0.1,0,0.1,0,0.2c-0.1-0.3,0,0.1-0.1-0.3
								c0,0.1,0.1,0.1,0.1,0c0,0,0-0.1,0-0.2c-0.1-0.4,0.1,0.1,0.1-0.2c-0.1-0.1-0.1-0.5-0.2-0.8c0-0.1-0.1,0-0.1,0
								c0,0.2,0.1,0.3,0.1,0.5c0-0.1-0.1-0.1-0.1-0.1c0,0.2-0.1,0.4,0,0.6c0,0-0.1-0.2-0.1-0.3c-0.1,0.3-0.1,0.5-0.3,0.7
								c0.2,0,0,0.2,0.1,0.2c0.1-0.1,0.2,0,0.3,0.1c0,0-0.1-0.1-0.1-0.1c0.1,0.1-0.2,0-0.1,0.2c0-0.2-0.2-0.1-0.3-0.2
								c0,0.2-0.1-0.1-0.2,0.2c0,0.3,0,0.6-0.1,0.9c-0.3,0.3-0.3,0.8-0.4,1.1c-0.1,0.1-0.3,0-0.3,0.1c-0.1,0.2,0.2-0.1,0.1,0.2l0,0
								c0,0.1-0.3,0.5,0,0.5c-0.1,0-0.1,0-0.2-0.1c0,0,0,0.1,0,0.1c-0.1,0-0.2,0.1-0.2,0c0,0-0.1,0.1-0.1,0.1
								c0.1,0.1,0.3,0.2,0.4,0.3c0-0.1,0-0.1,0-0.1c0.2,0.2,0.3,0.5,0.6,0.7l-0.1,0.1l0.2,0.1c-0.1,0-0.1,0.2,0.1,0.2l-0.5-0.3
								c0-0.2,0.2,0,0.2-0.1c0-0.1-0.2-0.4-0.3-0.3c0.1,0.1,0.1,0.1,0.2,0.1c-0.1,0.1-0.2,0-0.3,0c0,0,0.1,0.1,0.1,0.1
								c-0.1-0.1-0.2-0.1-0.4-0.3c0.2,0.1,0-0.1,0.1-0.1c-0.1,0.1-0.3-0.1-0.5-0.4c0.1-0.1,0.1-0.2,0.2-0.4c0-0.2,0-0.4,0.1-0.5
								c0.1,0.2,0.1,0.4,0.1,0.5c0.1-0.2,0.1-0.2,0.2-0.4c-0.1-0.1-0.2-0.2-0.2-0.5l0.1,0c0-0.2-0.1-0.3,0-0.5
								c0.2-0.4,0.4-0.9,0.5-1.2l0.1,0c-0.1-0.1,0-0.3,0-0.5c0.1-0.2,0.2-0.4,0.2-0.7c0.1-0.3,0.2-0.6,0.3-0.9
								c0.1-0.3,0.2-0.6,0.3-0.6c0-0.1,0.1-0.2,0.1-0.3c0.3,0.3,0.6,0.6,0.9,1c0.3,0.3,0.6,0.8,0.9,1.2l-0.2,0
								c0.2,0.1,0,0.1,0.1,0.2c0-0.2,0.2,0.1,0.4,0.1c0.1,0.4,0.5,0.7,0.8,0.9L23,36.5c0.4,0.2,0.5,0.6,0.7,0.9c0,0.1,0,0.2,0.1,0.3
								c0.3,0.1,0.3,0.2,0.6,0.4c0.1,0.2,0.4,0.5,0.5,0.8c0.7,0.6,1.2,1.5,1.9,2.1l-0.1,0.1c0.8,0.6,1.3,1.7,1.9,2.2l-0.2,0.1
								c0.1,0.2,0.4,0.4,0.5,0.3c0.1,0.2,0.5,0.4,0.4,0.7c0.1,0.2,0.3,0.2,0.4,0.3c0.1,0.2,0.2,0.3,0.3,0.4l0.1,0.2
								c0,0.1,0,0,0.1,0.1c0,0,0,0,0.1,0l0,0c0,0-0.1,0.1-0.1,0.1c0.1,0,0.5,0.4,0.5,0.1c0.4,0.4,1.1,0.5,1.4,1c0-0.1,0.1,0,0.2,0
								c0.3,0.2,0.6,0.4,0.9,0.6L32,48.3c-0.1-0.1-0.1-0.1-0.2-0.2c0-0.1,0.2,0,0.1-0.1c-0.1-0.1-0.1,0-0.2,0
								c-0.5-0.5-0.8-1.3-1.2-1.8c-0.8-0.9-1.5-1.9-2.2-2.8l0,0c-0.4-0.2-0.4-0.8-0.8-0.9c0-0.1-0.2-0.3-0.1-0.3
								c-0.3-0.2-0.4-0.8-0.8-1c0,0,0,0,0.1,0.1c-0.2-0.4-0.5-0.6-0.7-1.1c0,0,0.1,0.1,0.2,0.1c0-0.2-0.4-0.2-0.3-0.4
								c-0.1-0.1-0.1,0-0.1,0.1c-0.5-0.9-1.3-1.7-2-2.5c-0.3-0.7,0.3-0.3-0.2-0.7c0-0.1-0.1,0-0.1,0c-0.2-0.1,0-0.4-0.2-0.5
								c-0.1,0.1-0.1,0-0.2,0c-0.2-0.3-0.2-0.6-0.3-0.6c0,0-0.1,0-0.1,0l0.1-0.1c-0.4,0-0.8-0.4-1.3-0.4c-0.7-0.4-1.4-0.8-2.1-1.2
								c0.2-0.7,0.5-1.5,0.7-2.2c0.4-0.6,0.8-1.1,1.2-1.7l1.1-1.6l0.6-0.8c0,0,0,0,0,0l0,0l0,0l-0.1-0.1l-0.4-0.2l-0.7-0.4l0,0l0,0
								l0,0c0,0,0,0-0.1,0.1l-0.1,0.1c-0.5,0.3-0.5,0.4-0.8,0.9c0,0,0-0.1,0-0.1c0.1,0.1-0.2,0.3-0.1,0.5c-0.5,0.7-1,1.3-1.5,2.1
								c0.1-0.1,0-0.3-0.1-0.1l0,0.2l-0.1,0c0,0.1-0.1,0.3,0.1,0.2c-0.1,0.1-0.1,0.1-0.1,0.1c0,0,0,0,0,0l-0.1,0.2l-0.1,0.4
								l-0.3,0.7l-0.6,1.5c-0.4,1-0.8,1.9-1.1,2.9l-0.1,0.1l0,0c0,0,0,0,0,0.1c0,0,0.1,0,0.1,0.1c0.1,0.1,0.2,0.3,0.3,0.4
								c0.1,0.2,0.2,0.4,0.3,0.6c0.1,0.2,0.3,0.5,0.3,0.5c0,0,0,0,0,0.1l0.2,0.1l0.4,0.3c0.2,0.2,0.5,0.3,0.7,0.5
								c0.5,0.3,1,0.6,1.5,0.9C20.4,40.2,20,40.4,19.4,40.1z"/>
							<path class="st1" d="M19.5,40.5c0-0.1-0.1-0.3,0.1-0.2C19.6,40.4,19.6,40.5,19.5,40.5z"/>
							<path class="st1" d="M20.2,35.9C20.2,35.9,20.2,35.9,20.2,35.9c0.1,0,0.1,0.1,0,0.1C20.3,36,20.2,36,20.2,35.9z"/>
							<path class="st1" d="M20.5,35.3c0,0.1,0,0.3,0,0.3C20.5,35.6,20.5,35.5,20.5,35.3z"/>
							<path class="st1" d="M20.7,35.7c0,0.1,0,0.2,0,0.2C20.7,35.8,20.7,35.7,20.7,35.7z"/>
							<path class="st1" d="M20.7,35.4c0,0,0,0.1,0,0.2C20.7,35.5,20.7,35.6,20.7,35.4z"/>
							<path class="st1" d="M21.5,36.8c0,0,0.2,0.1,0.1,0.2C21.7,36.9,21.4,36.8,21.5,36.8z"/>
							<path class="st1" d="M22.3,37.7C22.4,37.8,22.4,37.8,22.3,37.7C22.4,37.9,22.3,37.9,22.3,37.7L22.3,37.7z"/>
							<polygon class="st1" points="28.1,40.9 28.2,41 28.2,41 							"/>
							<path class="st1" d="M21.4,33.5C21.3,33.5,21.4,33.4,21.4,33.5C21.5,33.4,21.4,33.5,21.4,33.5z"/>
							<polygon class="st1" points="22.9,29.8 22.9,29.8 22.8,29.7 							"/>
						</g>
					</g>
				</g>
			</g>
		</g>
		<g>
			<g>
				<polygon class="st6" points="24.5,27.4 36.2,43 32.6,47.8 23.1,35.1 20.1,40.8 18.6,38.8 20.9,32.2 				"/>
				<g>
					<g>
						<g>
							<g>
								<path class="st1" d="M24.8,27.3c-0.2-0.2,0,0.2-0.1-0.1C24.7,27.2,24.8,27.2,24.8,27.3z"/>
								<path class="st1" d="M23.9,27.9c-0.1,0.8-1,1.4-1.3,2.2c0,0.1-0.2-0.1-0.2,0.1c-0.2,0.7-0.8,1.4-1.5,2
									c-0.1,0.2-0.2,0.3-0.3,0.5l0-0.1c-0.1,0.2,0,0.4-0.1,0.6c0,0,0-0.1-0.1-0.1c0.1,0.1-0.1,0.4,0,0.5c-0.1,0.1-0.2,0-0.2,0.1
									l0.1,0.1c0.2,0.4-0.3,0.7-0.3,1.2c0,0,0-0.1-0.1-0.1c0,0.7-0.4,1.5-0.5,2.2c0,0-0.1-0.1-0.2-0.1c0.1,0.1,0.1,0.3,0,0.5
									c-0.2,0,0,0.4-0.1,0.6l0,0c0.1,0.2-0.2,0.2,0,0.4c0,0-0.1,0-0.1,0.1c0.1,0.1,0,0.1-0.1,0.2c0,0,0,0.1,0.1,0.1l0,0
									c0.1,0.1,0.1,0.2,0.2,0.2l0,0c0.2,0.2,0.2,0.4,0.3,0.3c0,0.2-0.2-0.2-0.2,0.1c0.4,0.4,0.7,0.7,1,1.1
									c0.2-0.4,0.4-0.7,0.6-1.1c0.1,0,0.1-0.1,0.2-0.1c0-0.1,0.2-0.3,0.1-0.5c0,0,0.1,0,0.1-0.1c0.1-0.1-0.1-0.3,0.1-0.4
									c0,0.1,0,0.1,0.1,0.1c0-0.2,0.1-0.4,0.2-0.6c0,0,0,0.1,0,0.1c0-0.3,0.2-0.3,0.2-0.5l0,0.1c0.2-0.2-0.1-0.2,0.1-0.4
									c0,0.1,0,0.1,0.1,0.1c0-0.3,0.2-0.6,0.3-0.9c0,0,0,0,0,0c0.1-0.3,0.3-0.5,0.4-0.9c0.1-0.1,0.1,0.3,0.2,0
									c-0.1-0.2,0.2-0.6,0.1-0.7c0.1-0.1,0.1-0.2,0.2-0.3c0.1,0.2,0.3,0.4,0.4,0.5c-0.1,0,0,0.4-0.1,0.3l0.1,0.3
									c0,0.1-0.1-0.1-0.1,0c0,0,0.2,0.2,0.3,0.3c0.1,0,0.4-0.1,0.6,0.2c-0.1-0.1-0.1,0.2-0.2,0.1l0.5,0.1c0.1,0.1-0.1,0.1,0,0.2
									c0,0,0.1,0,0.2,0c0,0,0.3,0.3,0.2,0.5c0,0.1-0.1-0.1-0.1,0c0.1,0.1,0.2,0.1,0.3,0.3l0,0c0.1,0.1,0.3,0.2,0.3,0.1
									c0-0.1-0.1,0.1-0.1,0c0.1,0,0.3,0.2,0.4,0.3c-0.1,0-0.1,0-0.2,0c0.3,0.1,0.5,0.3,0.7,0.5c0.1,0-0.2,0-0.2,0
									c0.1,0.4,0.6,0.5,0.6,0.8c0,0,0.1-0.1,0.1-0.1c0.1,0.1,0,0.2,0.1,0.3c-0.1,0.1,0.1,0.1,0.2,0.2c0.1,0,0,0-0.1,0
									c0.1,0.1,0.6,0.5,0.8,0.9c0,0,0.3,0.1,0.3,0.1l-0.1,0c0,0.1,0.2,0.2,0.1,0.3c0.2,0.1-0.5-0.5-0.3-0.4c0,0.1,0.4,0.2,0.2,0.2
									c0.1,0.1,0.3,0.2,0.3,0.4c0,0-0.2,0-0.1,0.1c0.2,0.2,0.1,0,0.2,0.2l0.1,0.1c0.1-0.1,0.1,0.2,0.2,0c-0.1,0.1,0.3,0.3,0.1,0.3
									l-0.1,0.1c0.1,0.1,0.2,0,0.3,0.1c0,0,0,0.1,0,0.1c0.2-0.1,0.1,0.2,0.4,0.2c0.1,0.2,0.3,0.5,0.3,0.6c0.2,0.1,0.3,0.2,0.4,0.4
									c0,0-0.1-0.1-0.1,0c0,0.1,0.1,0.1,0.2,0.2c0,0,0,0.3,0.1,0.4c0.2,0.1,0.2,0,0.3-0.1c-0.1,0.3,0.4,0.3,0.4,0.6
									c-0.1,0-0.2-0.1-0.2,0c-0.1,0.3,0.3,0.2,0.4,0.4l0.1-0.2c0,0.2,0.3,0.2,0.1,0.3c0.1,0,0.1,0.3,0.3,0.1
									c0.1,0.4,0.7,0.7,0.6,1.1c0.1,0,0.1,0.2,0.2,0.1c0-0.1-0.1-0.1-0.1-0.1c0,0,0.1,0,0.1,0c0.1,0.1,0.1,0.2-0.1,0.2
									c0,0.2,0.3-0.1,0.4,0.1c0,0.1,0,0.1,0,0.1c0,0,0.1,0,0.1-0.1c0.1,0.1,0,0.3,0,0.5c0.1,0,0.1,0.1,0.1,0l0,0
									c0,0.1,0,0.1,0.1,0.2c-0.1-0.1,0-0.2,0.1-0.2l0,0.1c0,0.1,0.1-0.1,0.1-0.1c0-0.1-0.1-0.1-0.1-0.1c0-0.1,0-0.1,0-0.2
									c0,0.2,0.1,0,0.1,0c0,0,0-0.2,0-0.2c0,0.1,0.1-0.1,0.1,0.1c0,0-0.1,0-0.1,0.1c0,0,0.1,0.1,0.1,0c0-0.1-0.2-0.2-0.1-0.2
									c0,0,0,0.1,0.1,0.1l0.1-0.1L33,46.3c0,0,0,0,0,0c-0.1-0.1,0.2-0.3,0.1-0.4c0.1-0.1,0.2-0.1,0.3-0.2l0,0
									c0.1-0.1,0.2-0.2,0.2-0.3l0,0c0,0,0.1-0.2,0.1-0.3c0.2-0.1,0.4,0.2,0.4,0c0.1-0.1,0-0.3-0.1-0.3c0.2-0.2,0.3-0.6,0.6-0.7
									c0-0.1,0-0.1,0-0.1c0.2-0.2,0.3-0.4,0.4-0.6c0.2-0.2,0.1-0.2,0.3-0.3c0,0.1,0.1,0,0.2,0.1c-0.1-0.1,0.2,0,0-0.1
									c-0.1,0-0.2,0-0.2,0c0,0,0-0.1,0-0.1c0-0.1-0.1-0.1,0-0.2c0,0-0.1,0-0.1,0c0.2-0.1,0.1-0.1,0-0.2l-0.1,0l0-0.1
									c-0.1,0-0.2,0.1-0.2-0.1c0,0,0.1-0.1,0.1-0.1c-0.2-0.1-0.4-0.2-0.4-0.4l0-0.2c-0.1,0-0.2-0.1-0.2,0
									c-0.1-0.3-0.2-0.4-0.2-0.6c-0.5-0.2-1-0.8-1.3-1.3l0.1,0c0-0.2-0.2,0-0.2-0.1c0.1,0,0-0.2,0.2-0.1c-0.1-0.2-0.3-0.2-0.4-0.3
									c-0.1,0,0.1,0.1,0,0.1c0,0-0.1-0.3-0.3-0.2c0-0.1,0.1-0.1,0.2-0.1l-0.1-0.1c0-0.2,0.5,0.1,0.5-0.1l-0.1-0.1
									c0-0.2,0.3,0.2,0.2-0.1c-0.1-0.1-0.4,0-0.4,0.1c-0.2-0.2-0.4,0.1-0.5-0.2c0-0.1,0.2,0.2,0.2,0.1c0-0.2-0.2-0.2-0.3-0.3
									c0,0.1-0.1,0.1-0.2,0.1c0-0.2,0.2,0,0.1-0.2c-0.1,0-0.3-0.1-0.2,0.1c-0.2,0.1-0.1-0.2-0.3-0.2c0.1-0.1,0.4,0,0.3-0.2
									c-0.1,0.1-0.3-0.1-0.4,0.1c0-0.1,0-0.2,0.2-0.2c0-0.2-0.4-0.1-0.2-0.3l-0.1,0c0-0.1,0-0.1,0-0.2c-0.1-0.1-0.4-0.2-0.2-0.3
									c0,0-0.2-0.2-0.2-0.1c0,0.2,0.2,0.1,0.1,0.3c0-0.2-0.2-0.2-0.3-0.2l0.1-0.1c-0.1,0-0.1-0.1-0.2-0.1c0.1,0,0.1,0,0.1-0.1
									l-0.1,0c-0.2-0.2,0.1-0.2,0-0.3l0.2,0.1c0,0,0-0.1-0.1-0.2c-0.1,0-0.3,0-0.4,0.1c-0.1-0.1,0.1-0.1-0.1-0.2l0.2,0.1
									c0,0,0.1-0.2,0-0.3c-0.1-0.1-0.3-0.1-0.3,0.1c-0.1-0.1-0.1-0.2,0-0.2c-0.1-0.1-0.1,0.1-0.2,0c0-0.1,0-0.3,0-0.5l0.3,0
									l-0.1-0.1c0.2,0,0-0.1,0.2-0.1c0-0.1-0.1-0.1-0.2-0.2c-0.1,0.3-0.4,0-0.6,0.2c-0.2-0.2,0.3-0.5-0.2-0.5
									c0,0.1-0.2,0.1-0.1,0.2c-0.1-0.2-0.3,0-0.3-0.2c0.2,0.1,0.1-0.3,0.3-0.2c-0.1,0,0,0.1,0.1,0.2c0-0.1,0.2-0.1,0.1-0.3
									c-0.1-0.1-0.2-0.2-0.3-0.1c-0.1,0.1,0.1,0.1,0,0.2c-0.2-0.2-0.1-0.3-0.3-0.3c0.1,0.1,0,0.2,0,0.3l-0.2-0.1l0.1,0
									c-0.1-0.3-0.2,0-0.3-0.2l0.1-0.2c0.2,0,0.2,0.4,0.4,0.2c-0.1-0.2-0.2-0.1-0.3-0.3c0,0,0.1,0.1,0.1,0.1
									c0-0.1,0.2-0.3-0.1-0.4c-0.1-0.1-0.1,0-0.2,0.1c-0.2-0.2-0.3-0.2-0.5-0.4c0.2-0.1-0.2-0.3,0.1-0.2c0,0.1,0.2,0.5,0.4,0.5
									c0.1-0.2,0.1,0.2,0.3,0.1c-0.1-0.2,0-0.3,0.1-0.4c0-0.1-0.1-0.1-0.2-0.1c-0.1,0.1-0.1,0.1-0.2,0.2c-0.1-0.2-0.3-0.4-0.5-0.4
									c0-0.1,0.1-0.2,0.2-0.1c-0.2-0.2-0.4-0.5-0.6-0.8c0,0.3-0.2-0.2-0.3,0c0.1,0.2,0,0.4-0.1,0.3c-0.1-0.1,0.1,0,0.1-0.1
									c-0.2,0,0-0.3-0.2-0.3c0.2,0.2,0.2-0.1,0.4-0.2c-0.2-0.1,0.1-0.1,0-0.2c-0.2-0.1-0.4-0.3-0.6-0.4c-0.1-0.3-0.4-0.6-0.6-0.8
									c0-0.2,0.2-0.2,0.1-0.3c-0.1-0.1-0.1,0.2-0.2,0l0,0c-0.1,0-0.2-0.4-0.4-0.4l0.2-0.1c0,0-0.1-0.1-0.1-0.1
									c0,0,0.1-0.1,0.1-0.1c0-0.2-0.2-0.3-0.3-0.4l0,0.2c-0.2-0.2-0.3-0.4-0.5-0.6l0.1-0.1l-0.2-0.1c0.1,0,0.1-0.2-0.1-0.2
									l0.5,0.2c0,0.1-0.2,0-0.2,0.1c0,0.1,0.1,0.3,0.3,0.3c-0.1-0.1-0.1-0.1-0.2-0.1c0.1-0.1,0.2,0,0.3,0c0,0,0-0.1-0.1-0.1
									c0.1,0,0.2,0.1,0.3,0.3c-0.1-0.1,0,0.1-0.1,0.1c0.1-0.1,0.2,0,0.3,0.2c0,0.2,0.3,0.3,0.4,0.5c-0.2,0-0.3,0-0.5-0.1
									c0,0.2,0.1,0.1,0.1,0.3c0.1,0,0.3-0.1,0.5,0.1l-0.1,0.1c0.2,0.1,0.3,0,0.4,0.2c0.2,0.4,0.4,0.7,0.6,0.9l-0.1,0.1
									c0.3,0,0.4,0.4,0.6,0.5c0.2,0.4,0.6,0.6,0.6,0.9c0.5,0.5,0.9,0.9,1.3,1.5l-0.2,0c0.2,0,0,0.1,0.1,0.2c0-0.2,0.2,0,0.4,0.1
									c0.1,0.3,0.4,0.6,0.7,0.7l-0.1,0.1c0.3,0.1,0.4,0.5,0.6,0.8c0,0.1,0,0.2,0,0.2c0.2,0.1,0.3,0.1,0.5,0.3
									c0.1,0.2,0.3,0.5,0.4,0.7c0.7,0.5,1,1.2,1.6,1.8l-0.1,0.1c0.7,0.5,1.1,1.4,1.6,1.8l-0.2,0.1c0.1,0.2,0.3,0.3,0.4,0.2
									c0.1,0.2,0.4,0.4,0.3,0.6c0.1,0.2,0.2,0.2,0.4,0.3c0,0.1,0.1,0.2,0.2,0.3c0.1,0.1,0.1,0.2,0.2,0.3c0.1,0.2,0.3,0.4,0.5,0.6
									c0,0,0,0.1-0.1,0.1l0.1-0.1l0,0c-0.1-0.1-0.2-0.1-0.2,0c0,0,0,0-0.1,0c-0.1,0.2-0.6,0.7-0.2,0.6c-0.1,0.1-0.3,0.3-0.4,0.5
									c-0.1,0.1-0.1,0.2-0.2,0.3c-0.1,0.2-0.3,0.4-0.5,0.5c0.1,0,0,0.1,0,0.2c-0.2,0.3-0.6,0.5-0.7,0.9c-0.1,0,0-0.1-0.1,0
									c0,0.1,0.1,0.1,0,0.2c-0.1,0.3-0.3,0.5-0.6,0.7c-0.1,0.1-0.2,0.2-0.3,0.4c-0.2,0.2-0.3,0.4-0.5,0.6c-0.3,0.5-0.6,1-1,1.5
									c-0.6-0.8-1.3-1.7-1.9-2.5l0,0c-0.3-0.1-0.3-0.7-0.7-0.7c0-0.1-0.2-0.2,0-0.3c-0.3-0.1-0.3-0.6-0.7-0.8c0,0,0,0,0.1,0.1
									c-0.1-0.4-0.5-0.5-0.6-0.9c0,0,0.1,0.1,0.1,0c0-0.2-0.4-0.2-0.2-0.4c-0.1-0.1-0.1,0-0.1,0.1c-0.4-0.7-1.1-1.4-1.7-2.1
									c-0.3-0.6,0.3-0.3-0.1-0.6c0-0.1-0.1,0-0.1,0c-0.2-0.1,0-0.4-0.2-0.4c-0.1,0.1-0.1,0-0.2,0c-0.2-0.4-0.1-0.5-0.4-0.7l0.1,0
									c-0.4-0.2-0.5-0.6-0.9-0.7c-0.5-0.6-1-1.2-1.5-1.8l-0.4-0.4c0,0,0,0-0.1,0c0,0,0,0-0.1,0c0,0,0,0.1,0,0.1
									c0.1-0.2-0.2,0.4-0.4,0.8L22.2,39c-0.3,0.5-0.5,1-0.8,1.5c-0.4,0.7-0.8,1.4-1.2,2.2c-0.2-0.3-0.5-0.7-0.7-1
									c-0.5-1-0.4-0.9-1.1-1.6c0,0,0.1,0,0.1,0c-0.1,0-0.2-0.1-0.2-0.2c0,0-0.2-0.2-0.3-0.2c-0.2-0.2-0.3-0.5-0.5-0.7
									c0.2-0.7,0.5-1.4,0.7-2.1c0,0.1,0.1,0.2,0.1,0.1l-0.1-0.2l0.1,0c0-0.1,0-0.2-0.1-0.1c0.2-0.8,0.5-1.6,0.9-2.4l0.5-1.2
									l0.2-0.6l0.3-0.7l0.3-0.4c0.3-0.3,0.6-0.8,0.9-1.2c1-1,1.9-1.9,2.6-3.1C23.9,26.9,24.1,27.3,23.9,27.9z"/>
								<path class="st1" d="M25,27.5c0,0.1,0,0.2-0.1,0.2C24.9,27.7,24.9,27.6,25,27.5z"/>
								<path class="st1" d="M26.9,31.5C26.9,31.5,26.9,31.6,26.9,31.5c0,0-0.1,0.1-0.1,0C26.8,31.5,26.9,31.5,26.9,31.5z"/>
								<path class="st1" d="M27.5,32.4c-0.1,0-0.3-0.1-0.3-0.2L27.5,32.4z"/>
								<path class="st1" d="M27.9,33.4c0,0.1,0,0.1-0.1,0C27.8,33.4,27.9,33.4,27.9,33.4z"/>
								<path class="st1" d="M28.1,33.4c0.1,0.1,0,0.1,0,0.2C28.2,33.5,28,33.4,28.1,33.4z"/>
								<path class="st1" d="M29.3,35.3c0,0,0.2,0.1,0.1,0.2C29.4,35.4,29.1,35.3,29.3,35.3z"/>
								<path class="st1" d="M30,36.1C30,36.1,30,36.1,30,36.1C30,36.2,29.9,36.2,30,36.1L30,36.1z"/>
								<polygon class="st1" points="30.8,44.5 30.9,44.6 30.9,44.6 								"/>
								<path class="st1" d="M25.8,37.9c-0.1-0.1,0-0.1,0-0.1C25.9,37.8,25.7,37.8,25.8,37.9z"/>
								<polygon class="st1" points="22.7,35.5 22.7,35.5 22.8,35.7 								"/>
							</g>
						</g>
					</g>
				</g>
			</g>
		</g>
	</g>
</g>
</svg>
