<svg xmlns="http://www.w3.org/2000/svg" xmlns:xlink="http://www.w3.org/1999/xlink" baseProfile="tiny" viewBox="0 0 52.4 51.96"><style><![CDATA[.B{fill:#8b1812}.C{fill:#a5191e}.D{fill:#d5e6f7}.E{fill:#f8fafd}.F{fill:#8dba71}.G{fill:#75965f}]]></style><g class="B"><use xlink:href="#B"/><use xlink:href="#C"/></g><path d="M27.9 46.72c.15.92-.82 1.47-1.5 1.9-1.04.7-.72-1.6-.9-2.04-.14-.93.83-1.5 1.5-1.96 1.05-.63.68 1.66.88 2.1zm-.87.85c.55-.24.07-1.63.1-2.04-.04-.5-.58.1-.76.2-.56.34-.06 1.58-.1 2.04.08.5.57-.1.76-.2z" class="C"/><g fill="#436685"><path d="M28.47 34.34c-.35-1.74-3.77-1.8-4.54-.3-.17.33-.02 10.5-.08 10.85.38 1.82 4.18 1.82 4.6.03l.03-10.6z"/><path d="M42 17.3C38.1 5.78 6.96 6.7 10.93 21.43 11.26 22.74 23.1 33.77 24.2 35c1 .9 2.95.9 3.95.01C30.65 31.38 44.22 22.7 42 17.3z"/></g><path fill="#39576c" d="M37.35 25.42c-6.33 3.55-16.44 3.45-22.6-.23s-6-9.54.32-13.1c8.87-7 38.8 1.15 22.27 13.32z"/><path fill="#0d2333" d="M35.53 24.33c-5.3 2.97-13.75 2.88-18.9-.2C3.53 13.8 28.67 7.22 35.8 13.4c5.16 3.07 5.03 7.97-.26 10.94z"/><g class="B"><use xlink:href="#B" x="11.31" y="-25.88"/><use xlink:href="#D"/></g><path d="M39.2 20.84c.15.92-.82 1.47-1.5 1.9-1.04.7-.72-1.6-.9-2.04-.14-.93.83-1.5 1.5-1.96 1.05-.63.7 1.66.88 2.1zm-.86.85c.55-.24.07-1.63.1-2.04-.1-.6-1.18.46-1.03.72.18.57-.2 2.44.92 1.32z" class="C"/><g class="B"><path d="M20.44 6.1c.2.1-.3 1.86-.3 2.05-.04.45-.6.6-.95.58 1.43 1.02 1.53-1.22 1.7-2.1.14-.34-.28-.4-.46-.54z"/><path d="M20.62 5.36c-.8.15-1.57.48-1.7 1.4-.01.72-.98 2.7.2 2.92-.48-.26.24-2.24.23-2.68.1-.97 1.18-1.48 2.02-1.38-.2-.1-.47-.35-.75-.26z"/></g><use xlink:href="#E" class="C"/><g class="B"><path d="M13.06 15.77c.2.1-.3 1.86-.3 2.05-.04.45-.6.6-.95.58 1.43 1.02 1.53-1.22 1.7-2.1.13-.35-.3-.4-.46-.54z"/><use xlink:href="#F"/></g><path d="M13.57 15.3c1.25-.33.1 2.22.16 2.73-.14.94-.83 1.18-1.58 1.34-1.24.4-.15-2.2-.2-2.7.15-.94.84-1.22 1.6-1.38zm-.05 1.02c.14-.56-.5-.2-.74-.13-.4.2-.47 1.82-.6 2.17-.1.55.4.2.63.18.55-.07.55-1.86.7-2.22z" class="C"/><g class="B"><use xlink:href="#G"/><path d="M32.1 10.8c-.78.37-1.88 1.05-1.76 2.06.14.6-.07 2.22.8 2.36-.36-.7-.63-2.5-.05-3.18.4-.34 1.1-1.1 1.66-.97-.16-.07-.46-.34-.65-.27z"/></g><path d="M33.14 13.22c.15.92-.82 1.47-1.48 1.9-1.04.7-.72-1.6-.9-2.04-.14-.93.83-1.5 1.5-1.95 1.04-.64.67 1.65.87 2.08zm-.87.86c.55-.24.07-1.63.1-2.04-.1-.6-1.18.46-1.02.72.18.56-.2 2.43.9 1.32z" class="C"/><g class="B"><use xlink:href="#H"/><use xlink:href="#I"/></g><use xlink:href="#J" class="C"/><g class="B"><path d="M12.1 11.24L11.7 11c.13.33.36 1.77.14 2.1-.2.16-.57.54-.84.5.44.44.9.1 1.26-.26.22-.33-.01-1.77-.14-2.1z"/><use xlink:href="#I" x="-27.85" y="-0.72"/></g><path d="M12.95 12.62c.15.92-.82 1.47-1.48 1.9-1.04.7-.72-1.6-.9-2.04-.14-.93.83-1.5 1.5-1.95 1.05-.64.67 1.65.87 2.08zm-.86.85c.55-.24.07-1.63.1-2.04-.1-.6-1.18.46-1.02.72.17.57-.2 2.44.9 1.32z" class="C"/><g class="B"><use xlink:href="#G" x="-12.22" y="4.69"/><use xlink:href="#K"/></g><path d="M20.92 17.9c.15.86-.72 1.4-1.35 1.83-1.16.94-.87-1.43-1.03-1.95-.14-.93.83-1.52 1.5-1.96 1.04-.63.67 1.65.87 2.08zm-.87.85c.55-.24.07-1.63.1-2.04-.1-.6-1.18.46-1.03.72.2.58-.2 2.44.92 1.32z" class="C"/><g class="B"><use xlink:href="#H" x="-13.25" y="10.2"/><use xlink:href="#K" x="6.63" y="5.64"/></g><path d="M27.56 23.54c.15.86-.72 1.4-1.35 1.83-1.16.94-.87-1.43-1.03-1.95-.14-.93.83-1.52 1.5-1.96 1.04-.63.67 1.65.87 2.08zm-.87.86c.55-.24.07-1.63.1-2.04-.03-.5-.58.1-.76.2-.56.34-.06 1.58-.1 2.04.08.48.57-.1.76-.2z" class="C"/><use xlink:href="#L" class="B"/><path d="M30.65 19.23l-1.7 2.02-.73-.36 1.38-1.64-.82-.26.2-.25c.46.02 1.3.23 1.67.5z" class="C"/><use xlink:href="#L" x="-0.26" y="-13.09" class="B"/><path d="M30.4 6.14l-1.7 2.02-.73-.36 1.38-1.64-.82-.26.2-.25c.46.01 1.3.22 1.67.5z" class="C"/><use xlink:href="#M" class="B"/><use xlink:href="#N" class="C"/><path d="M21.57 9.8c0-.15.48-.7.56-.82l-.42-.24c-.33.32-.7 1.1-.82 1.53.1.2.44.42.62.5l-.2-.26.25-.68c.24.28 1.32 1.83 1.7 1.88-.2-.25-1.34-1.88-1.68-1.9z" class="B"/><use xlink:href="#N" x="6.73" y="-10" class="C"/><g class="G"><use xlink:href="#B" x="-0.6" y="-34.08"/><use xlink:href="#C" x="-0.6" y="-34.1"/></g><path d="M27.3 12.64c.15.92-.82 1.47-1.5 1.9-1.04.7-.72-1.6-.9-2.04-.14-.93.83-1.5 1.5-1.96 1.05-.62.68 1.66.88 2.1zm-.87.85c.55-.24.07-1.63.1-2.04-.1-.6-1.18.46-1.03.72.2.58-.18 2.44.92 1.32z" class="F"/><g class="G"><use xlink:href="#O"/><use xlink:href="#P"/></g><use xlink:href="#Q" class="F"/><g class="G"><path d="M26.57 6.92l-.42-.24c.13.33.36 1.77.14 2.1-.2.16-.57.54-.84.5.44.44.9.1 1.26-.26.22-.34-.01-1.77-.14-2.1z"/><path d="M26.37 5.87c-.78.37-1.88 1.05-1.76 2.06.14.6-.07 2.22.8 2.36-.36-.7-.63-2.5-.05-3.18.4-.34 1.1-1.1 1.66-.97-.16-.07-.45-.34-.65-.27z"/></g><path d="M27.4 8.3c.15.92-.82 1.47-1.48 1.9-1.04.7-.72-1.6-.9-2.04-.14-.93.83-1.5 1.5-1.95 1.04-.64.67 1.65.87 2.08zm-.87.85c.44-.03.26-2.5-.16-2.2-.27.16-.88.57-.76.88.2.58-.2 2.44.92 1.33z" class="F"/><g class="G"><path d="M15.34 10l-.42-.24c.13.33.36 1.77.14 2.1-.2.16-.57.54-.84.5.44.44.9.1 1.26-.26.22-.33-.01-1.76-.14-2.1z"/><path d="M15.37 9c-.86.02-2.1 1.06-2 2.03.14.6-.07 2.22.8 2.36-.36-.7-.63-2.5-.05-3.18.4-.34 1.1-1.1 1.66-.97L15.37 9z"/></g><path d="M16.18 11.4c.15.92-.82 1.47-1.48 1.9-1.04.7-.72-1.6-.9-2.04-.14-.93.83-1.5 1.5-1.95 1.04-.63.67 1.65.87 2.08zm-.87.86c.44-.03.26-2.5-.16-2.2-.27.16-.88.57-.76.88.2.58-.2 2.44.92 1.33z" class="F"/><path fill="#a4cd85" d="M35.88 10l-.42-.24c.13.33.36 1.77.14 2.1-.2.16-.57.54-.84.5.44.44.9.1 1.26-.26.22-.34-.02-1.77-.14-2.1z"/><path d="M35.67 8.94C34.9 9.32 33.8 10 33.92 11c.14.6-.07 2.22.8 2.36-.37-.7-.62-2.5-.05-3.18.4-.34 1.1-1.08 1.66-.97-.16-.07-.46-.34-.66-.27z" class="F"/><path fill="#a4cd85" d="M36.72 11.37c.15.86-.72 1.4-1.35 1.83-1.16.94-.87-1.43-1.03-1.95-.14-.93.83-1.52 1.5-1.96 1.04-.64.67 1.65.87 2.08zm-.87.85c.55-.24.07-1.63.1-2.04-.03-.5-.58.1-.76.2-.56.34-.06 1.58-.1 2.04.07.5.57-.1.76-.2z"/><use xlink:href="#R" class="G"/><path d="M33.7 19.65l1.63 2.08-.5.65-1.32-1.7-.42.75-.2-.26c.1-.44.48-1.2.82-1.53z" class="F"/><use xlink:href="#M" x="3.72" y="1.7" class="G"/><path d="M19.12 20.68l1.63 2.08-.5.65-1.32-1.7-.42.75-.2-.26c.1-.45.5-1.22.82-1.53z" class="F"/><path d="M29.1 9.47c.07-.12.78-.36.9-.42l-.23-.42c-.45.1-1.17.57-1.5.9-.02.2.16.58.28.75l-.04-.33.57-.46c.06.36.2 2.25.5 2.5-.08-.3-.22-2.3-.5-2.5z" class="G"/><path d="M30 9.05l.33 2.63-.76.3-.27-2.13-.75.43-.04-.33c.33-.33 1.05-.8 1.5-.9z" class="F"/><g class="D"><use xlink:href="#B" x="12.35" y="-37.89"/><use xlink:href="#D" x="1.04" y="-12"/></g><path d="M40.24 8.83c.15.92-.82 1.47-1.5 1.9-1.04.7-.72-1.6-.9-2.04-.14-.93.83-1.5 1.5-1.96 1.06-.62.7 1.66.88 2.1zm-.86.86c.44-.01.27-2.66-.2-2.17-1.04.35-.6 1.6-.55 2.36.07.48.57-.1.76-.2z" class="E"/><g class="D"><use xlink:href="#O" x="10.69" y="10.77"/><use xlink:href="#P" x="10.69" y="10.78"/></g><use xlink:href="#E" x="10.3" y="16.03" class="E"/><g class="D"><use xlink:href="#O" x="2.95" y="1.94"/><use xlink:href="#F" x="9.94" y="-2.46"/></g><use xlink:href="#Q" x="2.96" y="1.95" class="E"/><g class="D"><path d="M33.14 6.4l-.42-.24c.13.33.36 1.77.14 2.1-.2.16-.57.54-.84.5.44.44.9.1 1.26-.26.23-.33-.01-1.77-.14-2.1z"/><path d="M32.94 5.35c-.78.37-1.88 1.05-1.76 2.06.14.6-.07 2.22.8 2.36-.36-.7-.63-2.5-.05-3.18.4-.34 1.1-1.1 1.66-.97-.15-.07-.45-.34-.65-.27z"/></g><path d="M34 7.78c.15.92-.82 1.47-1.48 1.9-1.04.7-.72-1.6-.9-2.04-.14-.93.83-1.5 1.5-1.95 1.04-.64.67 1.65.87 2.08zm-.87.85c.44-.02.26-2.5-.16-2.2-.27.16-.88.57-.76.88.18.58-.2 2.45.92 1.33z" class="E"/><g class="D"><use xlink:href="#H" x="-3.29" y="3.52"/><use xlink:href="#I" x="-3.3" y="3.52"/></g><use xlink:href="#J" x="-3.28" y="3.52" class="E"/><g class="D"><path d="M24.06 18.72l-.42-.24c.13.33.36 1.77.14 2.1-.2.16-.57.54-.84.5.44.44.9.1 1.26-.26.22-.33-.01-1.77-.14-2.1z"/><path d="M23.86 17.67c-.78.38-1.88 1.05-1.75 2.06.14.6-.07 2.22.8 2.36-.37-.7-.62-2.5-.05-3.18.4-.34 1.1-1.08 1.66-.97-.17-.07-.47-.34-.66-.27z"/></g><path d="M24.9 20.1c.15.86-.72 1.4-1.35 1.83-1.16.94-.87-1.43-1.03-1.95-.14-.93.83-1.52 1.5-1.96 1.04-.64.68 1.65.87 2.08zm-.87.85c.44-.02.26-2.5-.16-2.2-1.1.4-.66 1.56-.6 2.4.08.5.58-.1.76-.18z" class="E"/><g class="D"><use xlink:href="#H" x="-11.35" y="3.84"/><use xlink:href="#K" x="8.53" y="-0.72"/></g><path d="M29.46 17.18c.15.86-.72 1.4-1.35 1.83-1.16.94-.87-1.43-1.03-1.95-.14-.93.83-1.52 1.5-1.96 1.04-.63.67 1.65.87 2.08zm-.87.86c.44-.01.27-2.67-.2-2.17-1.04.35-.6 1.6-.55 2.36.07.48.57-.1.76-.2z" class="E"/><use xlink:href="#R" x="-10.94" y="3.43" class="D"/><use xlink:href="#N" x="7.34" y="4.1" class="E"/><path d="M17.28 10.76l.24.42c-.06-.32-.23-2.3-.5-2.5.07-.13.77-.37.9-.43l-.24-.42c-.45.1-1.16.58-1.48.9-.02.2.17.58.28.75l-.05-.33.56-.46.3 2.06z" class="D"/><path d="M17.9 8.25l.36 2.62-.76.3-.3-2.13-.74.43-.05-.33c.32-.32 1.04-.8 1.48-.9z" class="E"/><path d="M15 16.26l-.2-.26.25-.68c.24.28 1.32 1.83 1.7 1.88-.2-.24-1.36-1.88-1.7-1.9 0-.15.48-.7.56-.82l-.42-.24c-.33.32-.7 1.1-.82 1.53.1.2.45.42.64.5z" class="D"/><use xlink:href="#N" x="0.2" y="-4.51" class="E"/><path d="M32.47 16.02c.1-.1.85-.1 1-.1l-.1-.48c-.46-.05-1.3.18-1.7.38-.08.2-.03.6.03.8l.06-.33.68-.26c-.05.36-.52 2.2-.3 2.52.05-.3.53-2.25.33-2.52z" class="D"/><path d="M33.47 15.9l-.5 2.6-.82.05.4-2.1-.85.17.06-.33c.42-.2 1.25-.42 1.7-.38z" class="E"/><defs ><path id="B" d="M27.05 45.34l-.42-.24c.14.04.2 1.58.24 1.7.05.45-.58.86-.95.9.44.44.9.1 1.26-.26.23-.33 0-1.77-.13-2.1z"/><path id="C" d="M26.85 44.3c-.78.38-1.88 1.05-1.76 2.06.14.6-.07 2.22.8 2.36-.36-.7-.62-2.5-.05-3.17.4-.34 1.1-1.08 1.66-.97-.16-.08-.46-.35-.65-.28z"/><path id="D" d="M38.16 18.4c-.78.38-1.88 1.05-1.76 2.06.14.6-.07 2.22.8 2.36-.36-.7-.62-2.5-.05-3.17.4-.34 1.1-1.08 1.66-.97-.16-.08-.45-.35-.65-.28z"/><path id="E" d="M20.96 5.62c1.25-.33.1 2.22.16 2.73-.14.94-.83 1.18-1.58 1.34-1.24.4-.15-2.2-.2-2.7.15-.94.84-1.2 1.6-1.38zm-.05 1.02c.14-.56-.5-.2-.74-.13-.4.2-.47 1.82-.6 2.17-.1.55.4.2.63.18.54-.07.55-1.85.7-2.22z"/><path id="F" d="M11.6 18.63c.2-1.4.48-3.67 2.4-3.33-.84-.65-2.32.05-2.44 1.13-.01.7-.98 2.7.2 2.92-.17-.1-.23-.33-.15-.72z"/><path id="G" d="M32.3 11.84l-.42-.24c.13.33.36 1.77.14 2.1-.2.16-.57.54-.84.5.44.44.9.1 1.26-.26.22-.33-.02-1.77-.14-2.1z"/><path id="H" d="M39.97 11.96l-.42-.24c.13.33.36 1.77.14 2.1-.2.16-.57.54-.84.5.44.44.9.1 1.26-.26.22-.33-.02-1.76-.14-2.1z"/><path id="I" d="M40 10.94c-.86.02-2.1 1.06-2 2.03.14.6-.07 2.22.8 2.36-.36-.7-.63-2.5-.05-3.18.4-.34 1.1-1.1 1.66-.97l-.42-.24z"/><path id="J" d="M40.8 13.34c.15.92-.82 1.47-1.48 1.9-1.04.7-.72-1.6-.9-2.04-.14-.93.83-1.5 1.5-1.95 1.04-.63.67 1.65.87 2.08zm-.87.86c.55-.24.07-1.63.1-2.04-.1-.6-1.18.46-1.02.72.18.57-.2 2.43.9 1.32z"/><path id="K" d="M19.87 15.48c-.78.38-1.88 1.05-1.75 2.06.14.6-.07 2.22.8 2.36-.37-.7-.62-2.5-.05-3.18.4-.34 1.1-1.08 1.66-.97-.16-.07-.46-.34-.66-.27z"/><path id="L" d="M28.36 20.43l-.15.46c.2-.26 1.56-1.7 1.52-2.05.14-.03.8.33.92.38l.15-.46c-.38-.26-1.2-.47-1.67-.5-.17.13-.32.5-.37.7l.2-.25.72.1-1.33 1.6z"/><path id="M" d="M14.78 20.77l-.2-.26.25-.68c.24.28 1.32 1.83 1.7 1.88-.2-.24-1.36-1.88-1.7-1.9 0-.15.48-.7.56-.82l-.42-.24c-.33.32-.7 1.1-.82 1.53.1.2.45.4.64.5z"/><path id="N" d="M15.4 18.98l1.63 2.08-.5.65-1.32-1.7-.42.75-.2-.26c.1-.44.5-1.2.82-1.53z"/><path id="O" d="M20.05 11.36c.2.1-.3 1.86-.3 2.05-.04.45-.6.6-.95.58 1.43 1.02 1.53-1.22 1.7-2.1.13-.35-.28-.4-.46-.54z"/><path id="P" d="M20.23 10.62c-.8.15-1.57.48-1.7 1.4-.01.72-.98 2.7.2 2.92-.48-.26.24-2.24.23-2.68.1-.97 1.18-1.48 2.02-1.38-.22-.1-.47-.35-.75-.26z"/><path id="Q" d="M20.57 10.88c1.25-.33.1 2.22.16 2.73-.14.94-.83 1.18-1.58 1.34-1.24.4-.15-2.2-.2-2.7.14-.94.84-1.2 1.6-1.38zm-.05 1.02c.14-.56-.5-.2-.74-.13-.4.2-.47 1.82-.6 2.17-.1.55.4.2.63.18.54-.07.55-1.85.7-2.22z"/><path id="R" d="M34.4 22.14l.42.24c-.2-.24-1.36-1.88-1.7-1.9 0-.15.48-.7.56-.82l-.42-.24c-.33.32-.7 1.1-.82 1.53.1.2.44.42.62.5l-.2-.26.25-.68 1.3 1.64z"/></defs></svg>