<svg xmlns="http://www.w3.org/2000/svg" viewBox="0 0 58.2 51.3"><style><![CDATA[.I{fill:#202020}.J{fill:#02314b}]]></style><path d="M42.2 25.5v2.7l-2.4 1.4v-2.7z" class="J"/><g class="I"><path d="M42.5 25.5c0-.1-.1 0 0 0zm-.5-.1c.1.4-.3.2-.3.4 0 0-.1-.2-.1-.1 0 .3-.3.3-.5.2v-.1.3s-.1-.1-.1-.2v.1c.1.3-.1 0-.1.2v-.1c0 .2-.2.3-.2.4 0 0-.1-.1-.1-.2.1.1 0 .2 0 .2-.1-.1 0 .2-.1.1 0 .2-.1 0 0 .1l-.1-.1c.1.2-.1-.1-.1 0h-.1c0 .1-.1 0 0 .1-.1-.1 0-.1-.2-.2 0 .1-.1.2-.2.3v.2h-.1s0 .1.1.1h-.1c-.1 0 .2.1.1.1h-.1l.1.1h-.1c.1.1 0 .1.1.1h-.1c-.1 0 .2 0 .1.1h-.1c.2 0 .1.1.2.2v.2h-.2c.2 0 .1.1.3 0 0 0-.1.1 0 .1-.1 0-.2.1-.2 0h-.2s.1.1 0 .1h.4c-.1 0-.2.1-.2.1.1 0 .2 0 .4-.1l-.1.1h.1l-.1.1H40h.1s.1 0 .2-.1c0 0-.1.1-.1 0 .1-.1.1-.1.1 0 0 0-.1 0-.1.1.1-.1.2-.1.3-.1.1-.1-.2.1-.1.1-.1.2.2-.1 0 .1l.1-.1s-.1.2-.1.1c-.1.1 0 0 0 0 .1 0 .2-.1.1 0 0-.1.2-.2.2-.2l-.1.2c-.1.1 0 0-.1.2.1-.2-.1.1 0 0-.1.1.2-.2 0 0 0 0 .1-.2 0 0 0 0-.2.2-.1.2 0 0 0-.1.1-.1v-.1l.1-.2c-.1.1.1-.1-.1.2l-.1.2s.1-.2.2-.3c0 0 0 .1-.1.1.2-.4 0 .1.1-.2v.1l-.1.2c.1-.1.2-.3.1-.2l-.1.1c0 .1 0 0 0-.1 0 .1-.1.2-.1.3a.76.76 0 0 0 .2-.4c-.1.3.1-.2 0 .1 0 0-.1.2-.1.3-.1.3.1-.3.1-.1l.1-.3c-.1.2.1-.2 0 .1 0-.1 0 .1.1-.2 0 .2.1-.2 0 .3v-.1c0-.1 0 .1 0 0v-.1s0 .1-.1.3c0 .1.1-.4.1-.3v.1-.2.3c0 .1 0 0 0 0v-.1s0-.1 0 0v.1-.1.1-.1.1-.1c0 .1 0 0 0-.1v-.1c0 .1.1.4.1.3 0 0 0-.2-.1-.3 0 .1 0-.1.1 0v-.1s.1-.2.2 0c0 0 0 .1.1.2 0-.1.1.1 0-.1 0-.1-.1-.1-.1-.2s.1-.1.1 0c0 0 0-.1-.1-.1.1.1.1.2.1.1l-.1-.1.1.1s-.1-.2-.1-.1c0 0 0 .1.1.1 0-.1-.1-.2-.1-.1l.1.1-.1-.1c.1 0 .1 0 .2.1-.1-.2-.2-.2-.2-.2h.1c.1 0-.1-.1-.1 0 .1 0 .1.1.2.1s-.1-.1-.2-.1.1 0-.1 0c0 0 .1 0-.1 0 .1 0 .2.1.2.1H41c.2 0 .3.1.5.2.1 0 .2.1.2.1-.1 0-.3-.1-.4-.1 0 0-.4-.1-.3-.1h.1c.1 0-.1 0 0 0h-.2c.1 0-.2 0 0 0h-.1.1s-.2-.1 0-.1c0 0 0-.1-.1 0-.1 0 .1 0-.1 0 .1 0 0 0-.1-.1-.1 0 .2 0 .2 0h.1-.2.2-.4c.1 0 .2 0 .3-.1h.4-.5c-.1-.1.5 0 .2-.1h-.2s-.2 0-.1-.1h.4c-.1 0-.1 0 0 0 0 0 .1 0-.1-.1h-.1c.1 0-.1 0-.1-.1h.2c.1 0-.1.1.2.1 0 0-.1 0 0-.1 0 0 .3 0 .1-.1H41l-.1-.1c.2 0 0-.1.2 0-.1 0-.1.1.1.1h.1s0-.1-.1-.1h.2V27c-.2 0 0-.1-.2 0H41c-.1 0 .2 0 0-.1h.4c-.1 0 .1 0 .1 0-.1 0-.2-.1-.2-.1.1 0 0-.1 0-.2h.2s.1-.1-.1-.1h.4c.1 0 0-.1 0-.1h-.1c-.1 0 0-.1 0-.1h.1l.3.1h-.2c-.1 0-.1.1 0 .1h.3c.1 0 .1 0 .1.1h-.1c.1 0 .2 0 .1.1-.2 0 .1.1.1.1-.1 0-.3 0-.3-.1-.1 0 0 0-.1.1.1 0 .3 0 .3.1h.2s.2 0 .2.1 0 .1-.1.2h-.1c.2 0 .1.1.2.1-.1.1.1.2-.1.2.1.1.1.2.1.3h-.1c.1 0-.1 0-.1 0h.2c-.1.1 0 .1.1.2h-.1c.2 0 0 .1 0 .2h-.1c.2 0 .1 0 .3.1 0 0 0 .1-.1.1.2.2.1.4.2.7h-.1c.1.1.1.3.1.4-.1.1-.3.1-.3.2l-.1-.2c-.1 0-.1.1 0 .2-.1 0-.1.2-.2 0-.1 0 0 .1 0 .2-.1 0-.2 0-.2.1l-.1-.1c0 .1-.1 0 0 .2-.1-.1-.1.2-.3.1v.1c-.1.1-.3 0-.3.2v-.1.1c-.1.2-.4.1-.5.2-.3.3-.5.4-.8.6v-.1c-.2.3-.1-.2-.3.3 0-.1-.1 0 0-.1-.1.2-.1-.1-.3.2v-.1c0-.1-.2.2-.2.1 0 0 .1-.1.1-.2s-.3.4-.1 0l-.1.2h-.1c0-.2-.1-.3-.1-.5.1-.4.4-.5.2-.5 0-.1-.1.1 0 0-.1 0 .3-.4.1-.3-.1.2-.1.1-.2.2.1-.2.2-.4.1-.3l.1-.1c-.2.1-.1-.1-.4 0 0-.3-.1-.6-.1-.9 0-.2 0-.3-.1-.5v-1.8c.1 0 .2-.1.3-.1.3.1.3.1.4-.1-.1-.1.1-.1 0-.2.1 0 .2-.1.3-.2s.1-.1.2-.1c0 0 0 .2.1.1v-.1s0-.1-.1-.2c.2-.3.7-.2.9-.4.1 0 .2-.1.2-.2.3.1.6.1.7-.2.1-.4.3 0 .2.2z"/><path d="M42.5 25.5h-.2.2zm-.8.8s-.1 0 0 0c-.1 0-.1 0 0 0-.1 0-.1 0 0 0zm-.1.2c-.1 0-.1 0-.1-.1l.1.1zm-.3.2s-.1 0 0 0z"/><path d="M41.5 26.7s-.1 0 0 0zm-.2.4s-.1 0 0 0zm.1.2s-.1 0 0 0zm-.9 1.3l.1-.1-.1.1zm-.1-.4c-.1 0 0-.1 0 0 .1-.1 0 0 0 0zm-.4-.4h-.1z"/></g><path d="M39.4 27.1v2.8L37 31.3v-2.8z" class="J"/><g class="I"><path d="M39.7 27.1s-.1 0 0 0zm-.5-.1c.1.4-.3.2-.3.4 0 0-.1-.2-.1-.1 0 .3-.3.3-.5.2v-.1.3s-.1-.1-.1-.2v.1c.1.3-.1 0-.1.2v-.1c0 .2-.2.3-.2.4 0 0-.1-.1-.1-.2.1.1 0 .2 0 .2-.1-.1 0 .2-.1.1 0 .2-.1 0 0 .1l-.1-.1c.1.2-.1-.1-.1 0h-.1c0 .1-.1 0 0 .1-.1-.1 0-.1-.2-.2 0 .1-.1.2-.2.3v.2h-.1s0 .1.1.1h-.1c-.1 0 .2.1.1.1h-.1l.1.1h-.1c.1.1 0 .1.1.1h-.1c-.1 0 .2 0 .1.1h-.1c.2 0 .1.1.2.2v.2h-.2c.2 0 .1.1.3 0 0 0-.1.1 0 .1-.1 0-.2.1-.2 0h-.2s.1.1 0 .1h.4c-.1 0-.2.1-.2.1.1 0 .2 0 .4-.1l-.1.1h.1l-.1.1h-.1.1s.1 0 .2-.1c0 0-.1.1-.1 0 .1-.1.1-.1.1 0 0 0-.1 0-.1.1.1-.1.2-.1.3-.1.1-.1-.2.1-.1.1-.1.2.2-.1 0 .1l.1-.1s-.1.2-.1.1c-.1.1 0 0 0 0 .1 0 .2-.1.1 0 0-.1.2-.2.2-.2l-.1.2c-.1.1 0 0-.1.2.1-.2-.1.1 0 0-.1.1.2-.2 0 0 0 0 .1-.2 0 0 0 0-.2.2-.1.2 0 0 0-.1.1-.1v-.1l.1-.2c-.1.1.1-.1-.1.2l-.1.2s.1-.2.2-.3c0 0 0 .1-.1.1.2-.4 0 .1.1-.2v.1l-.1.2c.1-.1.2-.3.1-.2l-.1.1c0 .1 0 0 0-.1 0 .1-.1.2-.1.3a.76.76 0 0 0 .2-.4c-.1.3.1-.2 0 .1 0 0-.1.2-.1.3-.1.3.1-.3.1-.1l.1-.3c-.1.2.1-.2 0 .1 0-.1 0 .1.1-.2 0 .2.1-.2 0 .3v-.1c0-.1 0 .1 0 0V30s0 .1-.1.3c0 .1.1-.4.1-.3v.1-.2.3c0 .1 0 0 0 0v-.1s0-.1 0 0v.1-.1.1-.1.1-.1c0 .1 0 0 0-.1v-.1c0 .1.1.4.1.3 0 0 0-.2-.1-.3 0 .1 0-.1.1 0v-.1s.1-.2.2 0c0 0 0 .1.1.2 0-.1.1.1 0-.1 0-.1-.1-.1-.1-.2s.1-.1.1 0c0 0 0-.1-.1-.1.1.1.1.2.1.1l-.1-.1.1.1s-.1-.2-.1-.1c0 0 0 .1.1.1 0-.1-.1-.2-.1-.1l.1.1-.1-.1c.1 0 .1 0 .2.1-.1-.2-.2-.2-.2-.2h.1c.1 0-.1-.1-.1 0 .1 0 .1.1.2.1s-.1-.1-.2-.1.1 0-.1 0c0 0 .1 0-.1 0 .1 0 .2.1.2.1h-.1c.2 0 .3.1.5.2.1 0 .2.1.2.1-.1 0-.3-.1-.4-.1 0 0-.4-.1-.3-.1h.1c.1 0-.1 0 0 0h-.2c.1 0-.2 0 0 0H38h.1s-.2-.1 0-.1H38c-.1 0 .1 0-.1 0 .1 0 0 0-.1-.1-.1 0 .2 0 .2 0h.1-.2.2-.4c.1 0 .2 0 .3-.1h.4-.5c-.1-.1.5 0 .2-.1h-.2s-.2 0-.1-.1h.4c-.1 0-.1 0 0 0 0 0 .1 0-.1-.1H38c.1 0-.1 0-.1-.1h.2c.1 0-.1.1.2.1 0 0-.1 0 0-.1 0 0 .3 0 .1-.1h-.2l-.1-.1c.2 0 0-.1.2 0-.1 0-.1.1.1.1h.1s0-.1-.1-.1h.2v-.2c-.2 0 0-.1-.2 0h-.2c-.1 0 .2 0 0-.1h.4c-.1 0 .1 0 .1 0-.1 0-.2-.1-.2-.1.1 0 0-.1 0-.2h.2s.1-.1-.1-.1h.4c.1 0 0-.1 0-.1h-.1c-.1 0 0-.1 0-.1h.1l.3.1h-.2c-.1 0-.1.1 0 .1h.3c.1 0 .1 0 .1.1h-.1c.1 0 .2 0 .1.1-.2 0 .1.1.1.1-.1 0-.3 0-.3-.1-.1 0 0 0-.1.1.1 0 .3 0 .3.1h-.1s.2 0 .2.1 0 .1-.1.2h-.1c.2 0 .1.1.2.1-.1.1.1.2-.1.2.1.1.1.2.1.3h-.1c.1 0-.1 0-.1 0h.2c-.1.1 0 .1.1.2h-.1c.2 0 0 .1 0 .2h-.1c.2 0 .1 0 .3.1 0 0 0 .1-.1.1.2.2.1.4.2.7h-.1c.1.1.1.3.1.4-.1.1-.3.1-.3.2l-.1-.2c-.1 0-.1.1 0 .2-.1 0-.1.2-.2 0-.1 0 0 .1 0 .2-.1 0-.2 0-.2.1l-.1-.1c0 .1-.1 0 0 .2-.1-.1-.1.2-.3.1v.1c-.1.1-.3 0-.3.2V32v.1c-.1.2-.4.1-.5.2-.3.3-.5.4-.8.6v-.1c-.2.3-.1-.2-.3.3 0-.1-.1 0 0-.1-.1.2-.1-.1-.3.2v-.1c0-.1-.2.2-.2.1 0 0 .1-.1.1-.2s-.3.4-.1 0l-.1.2h-.1c0-.2-.1-.3-.1-.5.1-.4.4-.5.2-.5 0-.1-.1.1 0 0-.1 0 .3-.4.1-.3-.1.2-.1.1-.2.2.1-.2.2-.4.1-.3l.1-.1c-.2.1-.1-.1-.4 0 0-.3-.1-.6-.1-.9 0-.2 0-.3-.1-.5v-1.8c.1 0 .2-.1.3-.1.3.1.3.1.4-.1-.1-.1.1-.1 0-.2.1 0 .2-.1.3-.2s.1-.1.2-.1c0 0 0 .2.1.1v-.1s0-.1-.1-.2c.2-.3.7-.2.9-.4.1 0 .2-.1.2-.2.3.1.6.1.7-.2.4-.3.6 0 .5.2z"/><path d="M39.7 27.2h-.2.2zm-.8.7s-.1 0 0 0c-.1 0-.2 0 0 0-.1 0-.1 0 0 0zm-.1.2c-.1 0-.1 0-.1-.1l.1.1zm-.3.2s-.1 0 0 0z"/><path d="M38.7 28.3s-.1 0 0 0c0 0-.1 0 0 0zm-.2.4s0 .1 0 0c0 0-.1 0 0 0zm.1.2c-.1 0-.1 0 0 0zm-.9 1.3h.1l-.1.1zm-.2-.4c.1-.1 0 0 0 0zm-.3-.4H37z"/></g><path d="M36.6 28.7v2.8l-2.4 1.4v-2.8z" class="J"/><g class="I"><path d="M36.9 28.7c-.1 0-.2.1 0 0zm-.5-.1c.1.4-.3.2-.3.4 0 0-.1-.2-.1-.1 0 .3-.3.3-.5.2V29v.3s-.1-.1-.1-.2v.1c.1.3-.1 0-.1.2v-.1c0 .2-.2.3-.2.4 0 0-.1-.1-.1-.2.1.1 0 .2 0 .2-.1-.1 0 .2-.1.1 0 .2-.1 0 0 .1l-.1-.1c.1.2-.1-.1-.1 0h-.1c0 .1-.1 0 0 .1-.1-.1 0-.1-.2-.2 0 .1-.1.2-.2.3v.2h-.1s0 .1.1.1h-.1c-.1 0 .2.1.1.1h-.1l.1.1h-.1c.1.1 0 .1.1.1h-.1c-.1 0 .2 0 .1.1h-.1c.2 0 .1.1.2.2v.2h-.2c.2 0 .1.1.3 0 0 0-.1.1 0 .1-.1 0-.2.1-.2 0H34s.1.1 0 .1h.4c-.1 0-.2.1-.2.1.1 0 .2 0 .4-.1l-.1.1h.1l-.1.1h-.1.1s.1 0 .2-.1c0 0-.1.1-.1 0 .1-.1.1-.1.1 0 0 0-.1 0-.1.1.1-.1.2-.1.3-.1.1-.1-.2.1-.1.1-.1.2.2-.1 0 .1l.1-.1s-.1.2-.1.1c-.1.1 0 0 0 0 .1 0 .2-.1.1 0 0-.1.2-.2.2-.2l-.1.2c-.1.1 0 0-.1.2.1-.2-.1.1 0 0-.1.1.2-.2 0 0 0 0 .1-.2 0 0 0 0-.2.2-.1.2 0 0 0-.1.1-.1v-.1l.1-.2c-.1.1.1-.1-.1.2l-.1.2s.1-.2.2-.3c0 0 0 .1-.1.1.2-.4 0 .1.1-.2v.1l-.1.2c.1-.1.2-.3.1-.2l-.1.1c0 .1 0 0 0-.1 0 .1-.1.2-.1.3a.76.76 0 0 0 .2-.4c-.1.3.1-.2 0 .1 0 0-.1.2-.1.3-.1.3.1-.3.1-.1l.1-.3c-.1.2.1-.2 0 .1 0-.1 0 .1.1-.2 0 .2.1-.2 0 .3v-.1c0-.1 0 .1 0 0v-.1s0 .1-.1.3c0 .1.1-.4.1-.3v.1-.2.3c0 .1 0 0 0 0v-.1s0-.1 0 0v.1-.1.1-.1.1-.1c0 .1 0 0 0-.1v-.1c0 .1.1.4.1.3 0 0 0-.2-.1-.3 0 .1 0-.1.1 0v-.1s.1-.2.2 0c0 0 0 .1.1.2 0-.1.1.1 0-.1 0-.1-.1-.1-.1-.2s.1-.1.1 0c0 0 0-.1-.1-.1.1.1.1.2.1.1l-.1-.1.1.1s-.1-.2-.1-.1c0 0 0 .1.1.1 0-.1-.1-.2-.1-.1l.1.1-.1-.1c.1 0 .1 0 .2.1-.1-.2-.2-.2-.2-.2h.1c.1 0-.1-.1-.1 0 .1 0 .1.1.2.1s-.1-.1-.2-.1.1 0-.1 0c0 0 .1 0-.1 0 .1 0 .2.1.2.1h-.1c.2 0 .3.1.5.2.1 0 .2.1.2.1-.1 0-.3-.1-.4-.1 0 0-.4-.1-.3-.1h.1c.1 0-.1 0 0 0h-.2c.1 0-.2 0 0 0h-.1.1s-.2-.1 0-.1c0 0 0-.1-.1 0-.1 0 .1 0-.1 0 .1 0 0 0-.1-.1-.1 0 .2 0 .2 0h.1-.2.2-.4c.1 0 .2 0 .3-.1h.4-.5c-.1-.1.5 0 .2-.1h-.2s-.2 0-.1-.1h.4c-.1 0-.1 0 0 0 0 0 .1 0-.1-.1h-.1c.1 0-.1 0-.1-.1h.2c.1 0-.1.1.2.1 0 0-.1 0 0-.1 0 0 .3 0 .1-.1h-.2l-.1-.1c.2 0 0-.1.2 0-.1 0-.1.1.1.1h.1s0-.1-.1-.1h.2v-.2c-.2 0 0-.1-.2 0h-.2c-.1 0 .2 0 0-.1h.4c-.1 0 .1 0 .1 0-.1 0-.2-.1-.2-.1.1 0 0-.1 0-.2h.2s.1-.1-.1-.1h.4c.1 0 0-.1 0-.1h-.1c-.1 0 0-.1 0-.1h.1l.3.1h-.2c-.1 0-.1.1 0 .1h.3c.1 0 .1 0 .1.1h-.1c.1 0 .2 0 .1.1-.2 0 .1.1.1.1-.1 0-.3 0-.3-.1-.1 0 0 0-.1.1.1 0 .3 0 .3.1h-.1s.2 0 .2.1 0 .1-.1.2h-.1c.2 0 .1.1.2.1-.1.1.1.2-.1.2.1.1.1.2.1.3h-.1c.1 0-.1 0-.1 0h.2c-.1.1 0 .1.1.2h-.1c.2 0 0 .1 0 .2h-.1c.2 0 .1 0 .3.1 0 0 0 .1-.1.1.2.2.1.4.2.7H37c.1.1.1.3.1.4-.1.1-.3.1-.3.2l-.1-.2c-.1 0-.1.1 0 .2-.1 0-.1.2-.2 0-.1 0 0 .1 0 .2-.1 0-.2 0-.2.1l-.1-.1c0 .1-.1 0 0 .2-.1-.1-.1.2-.3.1v.1c-.1.1-.3 0-.3.2v-.1.1c-.1.2-.4.1-.5.2-.3.3-.5.4-.8.6v-.1c-.2.3-.1-.2-.3.3 0-.1-.1 0 0-.1-.1.2-.1-.1-.3.2v-.1c0-.1-.2.2-.2.1 0 0 .1-.1.1-.2s-.3.4-.1 0l-.1.2h-.1c0-.2-.1-.3-.1-.5.1-.4.4-.5.2-.5 0-.1-.1.1 0 0-.1 0 .3-.4.1-.3-.1.2-.1.1-.2.2.1-.2.2-.4.1-.3l.1-.1c-.2.1-.1-.1-.4 0 0-.3-.1-.6-.1-.9 0-.2 0-.3-.1-.5v-1.8c.1 0 .2-.1.3-.1.3.1.3.1.4-.1-.1-.1.1-.1 0-.2.1 0 .2-.1.3-.2s.1-.1.2-.1c0 0 0 .2.1.1v-.1s0-.1-.1-.2c.2-.3.7-.2.9-.4.1 0 .2-.1.2-.2.3.1.6.1.7-.2.4-.3.5.1.5.2z"/><path d="M36.9 28.8h-.2.2zm-.9.8s-.1-.1 0 0zm0 .2c-.1 0-.1 0-.1-.1l.1.1zm-.3.1c-.1.1-.1 0 0 0-.1 0 0 0 0 0z"/><path d="M35.9 29.9c0 .1-.1.1 0 0 0 .1-.2 0 0 0zm-.2.4s0 .1 0 0c0 .1-.2 0 0 0zm.1.2c-.1.1-.1 0 0 0zm-.9 1.3v.1zm-.2-.4c0 .1.1 0 0 0zm-.3-.3h-.2z"/></g><path d="M33.8 30.3v2.8l-2.4 1.4v-2.8z" class="J"/><g class="I"><path d="M34.1 30.4c-.1-.1-.2 0 0 0 0-.1 0-.1 0 0zm-.5-.2c.1.4-.3.2-.3.4 0 0-.1-.2-.1-.1 0 .3-.3.3-.5.2v-.1.3s-.1-.1-.1-.2v.1c.1.3-.1 0-.1.2v-.1c0 .2-.2.3-.2.4 0 0-.1-.1-.1-.2.1.1 0 .2 0 .2-.1-.1 0 .2-.1.1 0 .2-.1 0 0 .1l-.1-.1c.1.2-.1-.1-.1 0h-.1c0 .1-.1 0 0 .1-.1-.1 0-.1-.2-.2 0 .1-.1.2-.2.3v.2h-.1s0 .1.1.1h-.1c-.1 0 .2.1.1.1h-.1l.1.1h-.1c.1.1 0 .1.1.1h-.1c-.1 0 .2 0 .1.1h-.1c.2 0 .1.1.2.2v.2h-.2c.2 0 .1.1.3 0 0 0-.1.1 0 .1-.1 0-.2.1-.2 0h-.2s.1.1 0 .1h.4c-.1 0-.2.1-.2.1.1 0 .2 0 .4-.1l-.1.1h.1l-.1.1h-.1.1s.1 0 .2-.1c0 0-.1.1-.1 0 .1-.1.1-.1.1 0 0 0-.1 0-.1.1.1-.1.2-.1.3-.1.1-.1-.2.1-.1.1-.1.2.2-.1 0 .1l.1-.1s-.1.2-.1.1c-.1.1 0 0 0 0 .1 0 .2-.1.1 0 0-.1.2-.2.2-.2l-.1.2c-.1.1 0 0-.1.2.1-.2-.1.1 0 0-.1.1.2-.2 0 0 0 0 .1-.2 0 0 0 0-.2.2-.1.2 0 0 0-.1.1-.1v-.1l.1-.2c-.1.1.1-.1-.1.2l-.1.2s.1-.2.2-.3c0 0 0 .1-.1.1.2-.4 0 .1.1-.2v.1l-.1.2c.1-.1.2-.3.1-.2l-.1.1c0 .1 0 0 0-.1 0 .1-.1.2-.1.3a.76.76 0 0 0 .2-.4c-.1.3.1-.2 0 .1 0 0-.1.2-.1.3-.1.3.1-.3.1-.1l.1-.3c-.1.2.1-.2 0 .1 0-.1 0 .1.1-.2 0 .2.1-.2 0 .3v-.1c0-.1 0 .1 0 0v-.1s0 .1-.1.3c0 .1.1-.4.1-.3v.1-.2.3c0 .1 0 0 0 0v-.1s0-.1 0 0v.1-.1.1-.1.1-.1c0 .1 0 0 0-.1v-.1c0 .1.1.4.1.3 0 0 0-.2-.1-.3 0 .1 0-.1.1 0V33s.1-.2.2 0c0 0 0 .1.1.2 0-.1.1.1 0-.1 0-.1-.1-.1-.1-.2s.1-.1.1 0c0 0 0-.1-.1-.1.1.1.1.2.1.1l-.1-.1.1.1s-.1-.2-.1-.1c0 0 0 .1.1.1 0-.1-.1-.2-.1-.1l.1.1-.1-.1c.1 0 .1 0 .2.1-.1-.2-.2-.2-.2-.2h.1c.1 0-.1-.1-.1 0 .1 0 .1.1.2.1s-.1-.1-.2-.1.1 0-.1 0c0 0 .1 0-.1 0 .1 0 .2.1.2.1h-.1c.2 0 .3.1.5.2.1 0 .2.1.2.1-.1 0-.3-.1-.4-.1 0 0-.4-.1-.3-.1h.1c.1 0-.1 0 0 0h-.2c.1 0-.2 0 0 0h-.1.1s-.2-.1 0-.1c0 0 0-.1-.1 0-.1 0 .1 0-.1 0 .1 0 0 0-.1-.1-.1 0 .2 0 .2 0h.1-.2.2-.4c.1 0 .2 0 .3-.1h.4-.5c-.1-.1.5 0 .2-.1h-.2s-.2 0-.1-.1h.4c-.1 0-.1 0 0 0 0 0 .1 0-.1-.1h-.1c.1 0-.1 0-.1-.1h.2c.1 0-.1.1.2.1 0 0-.1 0 0-.1 0 0 .3 0 .1-.1h-.2l-.1-.1c.2 0 0-.1.2 0-.1 0-.1.1.1.1h.1s0-.1-.1-.1h.2v-.2c-.2 0 0-.1-.2 0h-.2c-.1 0 .2 0 0-.1h.4c-.1 0 .1 0 .1 0-.1 0-.2-.1-.2-.1.1 0 0-.1 0-.2h.2s.1-.1-.1-.1h.4c.1 0 0-.1 0-.1h-.1c-.1 0 0-.1 0-.1h.1l.3.1h-.2c-.1 0-.1.1 0 .1h.3c.1 0 .1 0 .1.1h-.1c.1 0 .2 0 .1.1-.2 0 .1.1.1.1-.1 0-.3 0-.3-.1-.1 0 0 0-.1.1.1 0 .3 0 .3.1h-.1s.2 0 .2.1 0 .1-.1.2h-.1c.2 0 .1.1.2.1-.1.1.1.2-.1.2.1.1.1.2.1.3h-.1c.1 0-.1 0-.1 0h.2c-.1.1 0 .1.1.2H34c.2 0 0 .1 0 .2h-.1c.2 0 .1 0 .3.1 0 0 0 .1-.1.1.2.2.1.4.2.7h-.1c.1.1.1.3.1.4-.1.1-.3.1-.3.2l-.1-.2c-.1 0-.1.1 0 .2-.1 0-.1.2-.2 0-.1 0 0 .1 0 .2-.1 0-.2 0-.2.1l-.1-.1c0 .1-.1 0 0 .2-.1-.1-.1.2-.3.1v.1c-.1.1-.3 0-.3.2v-.1.1c-.1.2-.4.1-.5.2-.3.3-.5.4-.8.6V36c-.2.3-.1-.2-.3.3 0-.1-.1 0 0-.1-.1.2-.1-.1-.3.2v-.1c0-.1-.2.2-.2.1 0 0 .1-.1.1-.2s-.3.4-.1 0l-.1.2h-.1c0-.2-.1-.3-.1-.5.1-.4.4-.5.2-.5 0-.1-.1.1 0 0-.1 0 .3-.4.1-.3-.1.2-.1.1-.2.2.1-.2.2-.4.1-.3l.1-.1c-.2.1-.1-.1-.4 0 0-.3-.1-.6-.1-.9 0-.2 0-.3-.1-.5v-1.8c.1 0 .2-.1.3-.1.3.1.3.1.4-.1-.1-.1.1-.1 0-.2.1 0 .2-.1.3-.2s.1-.1.2-.1c0 0 0 .2.1.1V31s0-.1-.1-.2c.2-.3.7-.2.9-.4.1 0 .2-.1.2-.2.3.1.6.1.7-.2.3-.3.5.1.5.2z"/><path d="M34.1 30.4h-.2.2zm-.9.8s-.1 0 0 0zm0 .2c-.1 0-.1 0-.1-.1l.1.1zm-.3.2c-.1 0-.1 0 0 0-.1 0 0 0 0 0zm.1 0s-.1 0 0 0zm-.2.4c.1 0-.1 0 0 0zm.2.1c0 .1-.1.1 0 0-.1.1-.1.1 0 0zm-.9 1.4v-.1.1zm-.2-.4s.1-.1 0 0c.1-.1 0 0 0 0zm-.4-.4h-.1z"/></g><path d="M36.6 25.5v2.7l-2.4 1.4v-2.7z" class="J"/><g class="I"><path d="M36.9 25.5c-.1-.1-.2 0 0 0zm-.5-.1c.1.4-.3.2-.3.4 0 0-.1-.2-.1-.1 0 .3-.3.3-.5.2v-.1.3s-.1-.1-.1-.2v.1c.1.3-.1 0-.1.2v-.1c0 .2-.1.3-.2.4 0 0-.1-.1-.1-.2.1.1 0 .2 0 .2-.1-.1 0 .2-.1.1 0 .2-.1 0 0 .1l-.1-.1c.1.2-.1-.1-.1 0h-.1c0 .1-.1 0 0 .1-.1-.1 0-.1-.2-.2 0 .1-.1.2-.2.3v.2h-.1s0 .1.1.1h-.1c-.1 0 .2.1.1.1h-.1l.1.1h-.1c.1.1 0 .1.1.1h-.1c-.1 0 .2 0 .1.1h-.1c.2 0 .1.1.2.2v.2h-.2c.2 0 .1.1.3 0 0 0-.1.1 0 .1-.1 0-.2.1-.2 0H34s.1.1 0 .1h.4c-.1 0-.2.1-.2.1.1 0 .2 0 .4-.1l-.1.1h.1l-.1.1h-.1.1s.1 0 .2-.1c0 0-.1.1-.1 0 .1-.1.1-.1.1 0 0 0-.1 0-.1.1.1-.1.2-.1.3-.1.1-.1-.2.1-.1.1-.1.2.2-.1 0 .1l.1-.1s-.1.2-.1.1c-.1.1 0 0 0 0 .1 0 .2-.1.1 0 0-.1.2-.2.2-.2l-.1.2c-.1.1 0 0-.1.2.1-.2-.1.1 0 0-.1.1.2-.2 0 0 0 0 .1-.2 0 0 0 0-.2.2-.1.2 0 0 0-.1.1-.1v-.1l.1-.2c-.1.1.1-.1-.1.2l-.1.2s.1-.2.2-.3c0 0 0 .1-.1.1.2-.4 0 .1.1-.2v.1l-.1.2c.1-.1.2-.3.1-.2l-.1.1c0 .1 0 0 0-.1 0 .1-.1.2-.1.3a.76.76 0 0 0 .2-.4c-.1.3.1-.2 0 .1 0 0-.1.2-.1.3-.1.3.1-.3.1-.1l.1-.3c-.1.2.1-.2 0 .1 0-.1 0 .1.1-.2 0 .2.1-.2 0 .3v-.1c0-.1 0 .1 0 0v-.1s0 .1-.1.3c0 .1.1-.4.1-.3v.1-.2.3c0 .1 0 0 0 0v-.1s0-.1 0 0v.1-.1.1-.1.1-.1c0 .1 0 0 0-.1v-.1c0 .1.1.4.1.3 0 0 0-.2-.1-.3 0 .1 0-.1.1 0v-.1s.1-.2.2 0c0 0 0 .1.1.2 0-.1.1.1 0-.1 0-.1-.1-.1-.1-.2s.1-.1.1 0c0 0 0-.1-.1-.1.1.1.1.2.1.1l-.1-.1.1.1s-.1-.2-.1-.1c0 0 0 .1.1.1 0-.1-.1-.2-.1-.1l.1.1-.1-.1c.1 0 .1 0 .2.1-.1-.2-.2-.2-.2-.2h.1c.1 0-.1-.1-.1 0 .1 0 .1.1.2.1s-.1-.1-.2-.1.1 0-.1 0c0 0 .1 0-.1 0 .1 0 .2.1.2.1h-.1c.2 0 .3.1.5.2.1 0 .2.1.2.1-.1 0-.3-.1-.4-.1 0 0-.4-.1-.3-.1h.1c.1 0-.1 0 0 0h-.2c.1 0-.2 0 0 0h-.1.1s-.2-.1 0-.1c0 0 0-.1-.1 0-.1 0 .1 0-.1 0 .1 0 0 0-.1-.1-.1 0 .2 0 .2 0h.1-.2.2-.4c.1 0 .2 0 .3-.1h.4-.5c-.1-.1.5 0 .2-.1h-.2s-.2 0-.1-.1h.4c-.1 0-.1 0 0 0 0 0 .1 0-.1-.1h-.1c.1 0-.1 0-.1-.1h.2c.1 0-.1.1.2.1 0 0-.1 0 0-.1 0 0 .3 0 .1-.1h-.2l-.1-.1c.2 0 0-.1.2 0-.1 0-.1.1.1.1h.1s0-.1-.1-.1h.2V27c-.2 0 0-.1-.2 0h-.2c-.1 0 .2 0 0-.1h.4c-.1 0 .1 0 .1 0-.1 0-.2-.1-.2-.1.1 0 0-.1 0-.2h.2s.1-.1-.1-.1h.4c.1 0 0-.1 0-.1h-.1c-.1 0 0-.1 0-.1h.1l.3.1h-.2c-.1 0-.1.1 0 .1h.3c.1 0 .1 0 .1.1h-.1c.1 0 .2 0 .1.1-.2 0 .1.1.1.1-.1 0-.3 0-.3-.1-.1 0 0 0-.1.1.1 0 .3 0 .3.1h-.1s.2 0 .2.1 0 .1-.1.2h-.1c.2 0 .1.1.2.1-.1.1.1.2-.1.2.1.1.1.2.1.3h-.1c.1 0-.1 0-.1 0h.2c-.1.1 0 .1.1.2h-.1c.2 0 0 .1 0 .2h-.1c.2 0 .1 0 .3.1 0 0 0 .1-.1.1.2.2.1.4.2.7H37c.1.1.1.3.1.3-.1.1-.3.1-.3.2l-.1-.2c-.1 0-.1.1 0 .2-.1 0-.1.2-.2 0-.1 0 0 .1 0 .2-.1 0-.2 0-.2.1l-.1-.1c0 .1-.1 0 0 .2-.1-.1-.1.2-.3.1v.1c-.1.1-.3 0-.3.2v-.1.1c-.1.2-.4.1-.5.2-.3.3-.5.4-.8.6v-.1c-.2.3-.1-.2-.3.3 0-.1-.1 0 0-.1-.1.2-.1-.1-.3.2v-.1c0-.1-.2.2-.2.1 0 0 .1-.1.1-.2s-.3.4-.1 0l-.1.2h-.1c0-.2-.1-.3-.1-.5.1-.4.4-.5.2-.5 0-.1-.1.1 0 0-.1 0 .3-.4.1-.3-.1.2-.1.1-.2.2.1-.2.2-.4.1-.3l.1-.1c-.2.1-.1-.1-.4 0 0-.3-.1-.6-.1-.9 0-.2 0-.3-.1-.5v-1.8c.1 0 .2-.1.4-.1.3.1.3.1.4-.1-.1-.1.1-.1 0-.2.1 0 .2-.1.3-.2s.1-.1.2-.1c0 0 0 .2.1.1v-.1s0-.1-.1-.2c.2-.3.7-.2.9-.4.1 0 .2-.1.2-.2.3.1.6.1.7-.2.2-.3.4.1.4.3z"/><path d="M36.9 25.5h-.2c0 .1.1 0 .2 0zm-.9.8s-.1 0 0 0zm0 .2c-.1 0-.1 0-.1-.1l.1.1zm-.3.2c-.1 0-.1 0 0 0-.1 0 0 0 0 0z"/><path d="M35.9 26.7s-.1 0 0 0c-.1 0-.2 0 0 0zm-.3.4c.1 0-.1 0 0 0zm.2.2s-.1 0 0 0c-.1 0-.1 0 0 0zm-.9 1.3zm-.2-.4s.1-.1 0 0c.1-.1 0 0 0 0zm-.3-.4h-.2z"/></g><path d="M31 28.7v2.8l-2.5 1.4v-2.8z" class="J"/><g class="I"><path d="M31.2 28.7s-.1.1 0 0z"/><path d="M30.8 28.6c.1.4-.3.2-.3.4 0 0-.1-.2-.1-.1 0 .3-.3.3-.5.2V29v.3s-.1-.1-.1-.2v.1c.1.3-.1 0-.1.2v-.1c0 .2-.1.3-.2.4 0 0-.1-.1-.1-.2.1.1 0 .2 0 .2-.1-.1 0 .2-.1.1 0 .2-.1 0 0 .1l-.1-.1c.1.2-.1-.1-.1 0H29c0 .1-.1 0 0 .1-.1-.1 0-.1-.2-.2 0 .1-.1.2-.2.3v.2h-.1s0 .1.1.1h-.1c-.1 0 .2.1.1.1h-.1l.1.1h-.1c.1.1 0 .1.1.1h-.1c-.1 0 .2 0 .1.1h-.1c.2 0 .1.1.2.2v.2h-.2c.2 0 .1.1.3 0 0 0-.1.1 0 .1-.1 0-.2.1-.2 0h-.2s.1.1 0 .1h.4c-.1 0-.2.1-.2.1.1 0 .2 0 .4-.1l-.1.1h.1l-.1.1h-.1.1s.1 0 .2-.1c0 0-.1.1-.1 0 .1-.1.1-.1.1 0 0 0-.1 0-.1.1.1-.1.2-.1.3-.1.1-.1-.2.1-.1.1-.1.2.2-.1 0 .1l.1-.1s-.1.2-.1.1c-.1.1 0 0 0 0 .1 0 .2-.1.1 0 0-.1.2-.2.2-.2l-.1.2c-.1.1 0 0-.1.2.1-.2-.1.1 0 0-.1.1.2-.2 0 0 0 0 .1-.2 0 0 0 0-.2.2-.1.2 0 0 0-.1.1-.1v-.1l.1-.2c-.1.1.1-.1-.1.2l-.1.2s.1-.2.2-.3c0 0 0 .1-.1.1.2-.4 0 .1.1-.2v.1l-.1.2c.1-.1.2-.3.1-.2l-.1.1c0 .1 0 0 0-.1 0 .1-.1.2-.1.3a.76.76 0 0 0 .2-.4c-.1.3.1-.2 0 .1 0 0-.1.2-.1.3-.1.3.1-.3.1-.1l.1-.3c-.1.2.1-.2 0 .1 0-.1 0 .1.1-.2 0 .2.1-.2 0 .3v-.1c0-.1 0 .1 0 0v-.1s0 .1-.1.3c0 .1.1-.4.1-.3v.1-.2.3c0 .1 0 0 0 0v-.2s0-.1 0 0v.1-.1.1-.1.1-.1c0 .1 0 0 0-.1v-.1c0 .1.1.4.1.3 0 0 0-.2-.1-.3 0 .1 0-.1.1 0v-.1s.1-.2.2 0c0 0 0 .1.1.2 0-.1.1.1 0-.1 0-.1-.1-.1-.1-.2s.1-.1.1 0c0 0 0-.1-.1-.1.1.1.1.2.1.1l-.1-.1.1.1s-.1-.2-.1-.1c0 0 0 .1.1.1 0-.1-.1-.2-.1-.1l.1.1-.1-.1c.1 0 .1 0 .2.1-.1-.2-.2-.2-.2-.2h.1c.1 0-.1-.1-.1 0 .1 0 .1.1.2.1s-.1-.1-.2-.1.1 0-.1 0c0 0 .1 0-.1 0 .1 0 .2.1.2.1h-.1c.2 0 .3.1.5.2.1 0 .2.1.2.1-.1 0-.3-.1-.4-.1 0 0-.4-.1-.3-.1h.1c.1 0-.1 0 0 0h-.2c.1 0-.2 0 0 0h-.1.1s-.2-.1 0-.1h-.1c-.1 0 .1 0-.1 0 .1 0 0 0-.1-.1-.1 0 .2 0 .2 0h.1-.2.2-.4c.1 0 .2 0 .3-.1h.4-.5c-.1-.1.5 0 .2-.1h-.2s-.2 0-.1-.1h.4c-.1 0-.1 0 0 0 0 0 .1 0-.1-.1h-.1c.1 0-.1 0-.1-.1h.2c.1 0-.1.1.2.1 0 0-.1 0 0-.1 0 0 .3 0 .1-.1h-.2l-.1-.1c.2 0 0-.1.2 0-.1 0-.1.1.1.1h.1s0-.1-.1-.1h.2v-.2c-.2 0 0-.1-.2 0h-.2c-.1 0 .2 0 0-.1h.4c-.1 0 .1 0 .1 0-.1 0-.2-.1-.2-.1.1 0 0-.1 0-.2h.2s.1-.1-.1-.1h.4c.1 0 0-.1 0-.1h-.1c-.1 0 0-.1 0-.1h.1l.3.1h-.2c-.1 0-.1.1 0 .1h.3c.1 0 .1 0 .1.1H31c.1 0 .2 0 .1.1-.2 0 .1.1.1.1-.1 0-.3 0-.3-.1-.1 0 0 0-.1.1.1 0 .3 0 .3.1H31s.2 0 .2.1 0 .1-.1.2H31c.2 0 .1.1.2.1-.1.1.1.2-.1.2.1.1.1.2.1.3h-.1c.1 0-.1 0-.1 0h.2c-.1.1 0 .1.1.2h.2c.2 0 0 .1 0 .2h-.1c.2 0 .1 0 .3.1 0 0 0 .1-.1.1.2.2.1.4.2.7h-.1c.1.1.1.3.1.3-.1.1-.3.1-.3.2l-.1-.2c-.1 0-.1.1 0 .2-.1 0-.1.2-.2 0-.1 0 0 .1 0 .2-.1 0-.2 0-.2.1l-.1-.1c0 .1-.1 0 0 .2-.1-.1-.1.2-.3.1v.1c-.1.1-.3 0-.3.2v-.1.1c-.1.2-.4.1-.5.2-.3.3-.5.4-.8.6v-.1c-.2.3-.1-.2-.3.3 0-.1-.1 0 0-.1-.1.2-.1-.1-.3.2v-.1c0-.1-.2.2-.2.1 0 0 .1-.1.1-.2s-.3.4-.1 0l-.1.2H28c0-.2-.1-.3-.1-.5.1-.4.4-.5.2-.5 0-.1-.1.1 0 0-.1 0 .3-.4.1-.3-.1.2-.1.1-.2.2.1-.2.2-.4.1-.3l.1-.1c-.2.1-.1-.1-.4 0 0-.3-.1-.6-.1-.9 0-.2 0-.3-.1-.5v-1.8c.1 0 .2-.1.3-.1.3.1.3.1.4-.1-.1-.1.1-.1 0-.2.1 0 .2-.1.3-.2s.1-.1.2-.1c0 0 0 .2.1.1v-.1s0-.1-.1-.2c.2-.3.7-.2.9-.4.1 0 .2-.1.2-.2.3.1.6.1.7-.2 0-.1.2.3.2.4z"/><path d="M31.3 28.8h-.2.2zm-.9.8s-.1-.1 0 0c-.1 0 0 0 0 0zm0 .2c-.1 0-.1 0-.1-.1l.1.1zm-.3.1c-.1.1-.1 0 0 0-.1 0-.1 0 0 0z"/><path d="M30.2 29.9c0 .1 0 .1 0 0 0 .1-.1 0 0 0zm-.2.4s.1.1 0 0c.1.1-.1 0 0 0zm.1.2c0 .1-.1 0 0 0zm-.8 1.3v.1zm-.2-.4c-.1 0 .1 0 0 0zm-.4-.4v.1h-.1z"/></g><path d="M25.6 35.2c2.9-.9-.5 4.9-1.1 1.9 0-.7.5-1.6 1.1-1.9z" fill="#8cb971"/><g class="I"><path d="M25.5 34.9s.1.1 0 0c0 0 0-.1 0 0zm-.1.2c.1.4-.2.1-.1.4 0 0-.1-.2-.1-.1.1.3-.1.2-.4.3-.1 0 .1.1.1.1h-.1c.1 0 0 .1.1.1h-.1c.3.1-.1.1.1.2h-.1c.1.1.1.2.1.3h-.2.2c-.2 0 .2 0 0 0 .2 0-.1 0 .1 0h-.2c.3 0-.1 0 0 0h.1c.1 0-.1 0 0 0s-.1.1.1 0c-.2.1-.1 0-.3.1.2.1.1.2.1.3-.1 0-.1.1-.2.1h.1l-.1.1c-.1.1.3-.1.1 0-.1 0-.1.1-.2.1h.2s-.1 0-.1.1c.2-.1 0 .1.1 0l-.1.1c.1 0 .2-.1.1-.1l-.1.1c.2-.1.2 0 .3-.1 0 0 0 .1.1 0l-.2.2c.2-.2.1 0 .4-.3 0 .1-.1.2 0 .1l-.4.4h-.1.1l.4-.3-.3.3.4-.4s-.2.2-.1.2c.1-.1.1-.1.1-.2 0 0 .1 0-.1.2-.1.1-.1 0-.1.2l.1-.1s.1-.1.2-.3c0 0-.1.2-.1.1.1-.2.2-.2.2-.2s-.1.1-.1.2c.2-.2.2-.3.3-.4s-.2.3-.1.2c-.1.2.2-.3.1 0l.1-.2-.1.2c-.1.1 0 0 .1-.1 0-.1 0 .1 0 .1.1-.1.2-.3.1-.1 0-.1.1-.3.1-.3l-.1.2v.1c.1-.2-.1.2 0 0-.1.2.1-.3 0 0 0 0 .1-.2 0 0 0 0-.1.3-.1.2 0 0 0-.1.1-.2v-.1l.1-.2c0 .1 0-.1 0 .2l-.1.2s.1-.2.1-.3v.1c.1-.3 0 0 .1-.2v.2c0-.1.1-.2.1-.2v.1c0 .1 0 0 0 0v.3c0-.1.1-.3.1-.4 0 .3.1-.2 0 0v.2c0 .3 0-.2 0-.1v-.2c0 .1 0-.2 0 .1 0-.1 0 .1 0-.2 0 .2 0-.1 0 .2v-.1c0-.1 0 .1 0 0v-.1.2c0 .1 0-.3 0-.3v.1-.1.1-.1.1-.1.1s0 .1 0 0v-.6s.1.3.1.2c0 0 0-.2-.1-.2 0 0 0-.1 0 0v-.1s0-.1.1 0l.1.1-.1-.1h.1s-.1-.1 0 0c0 0-.1-.1-.1 0h.1c-.1-.1-.2-.1-.1-.1 0 0-.1 0 0 0-.1 0 0 0 0 0h.1c.1 0 .2 0 .3-.1h.1s-.2 0-.2.1l-.2.1h.1l-.1.1h.1s-.1 0-.1.1c-.1.1 0 0-.1 0 .1 0 .2-.1.2-.1-.1 0-.1 0-.2.1l.1-.1s-.1.1 0 0l-.1.1.1-.1s-.1.1 0 0l-.1.1c.1-.1 0 0 0 0h-.1l.1-.1-.1.1.1-.1h.1s0-.1 0 0l-.2.2s.1-.1 0 0l.2-.2s-.1.1-.1.2l.1-.1-.1.1s.1-.1.1-.2l.1-.1c.1-.1.1-.1.1-.2-.1.2-.2.2-.3.4 0 0 .3-.5.1-.2 0 0-.1.2-.1.1 0 0-.1.2-.1.1s.1-.2.2-.3c0 .1 0 0 0 0 0-.1.1-.2.1-.2l-.1.1c-.1.1 0 0 0 .1 0 0 .1-.1 0 .1 0 0 0 .1-.1.2v-.1c0-.1-.1.1-.1.1l.1-.2c.1-.1 0 .1.1-.2 0 0 0 .1 0 0 0 0 .1-.3 0-.1 0 .1 0 .1-.1.2 0 0 0 .1-.1.1v-.2c0 .1 0 .1 0-.1l.1-.2s.1-.2.1-.3v.1c0 .1 0 .1-.1.2l-.1.1c0-.1 0-.2.1-.2h-.1v.4c0 .1 0-.2 0 0 0-.1 0-.3.1-.4 0 .1 0-.1 0-.1 0 .1-.1.2-.1.2 0-.2-.1 0-.1 0v-.2s-.1-.1 0 .1v-.4c0-.1 0 0 0 0v.1c0 .1-.1 0-.1 0v-.1.1c0-.1-.1-.2 0-.1v-.1c0 .1 0 0 0 0v.1-.5c0 .2 0-.1.1-.1v.2c0-.1 0-.2.1-.2s.1 0 .2.1v.1c0-.2.1-.1.1-.2 0 .1.2-.1.1.1.1 0 .3 0 .3.1l-.1.1c.1-.1 0 .1 0 .1 0-.1.1-.1.2-.2 0 .1.1.1.2 0l-.1.1c.1-.1.1.1.1.2l-.1.1c.1-.1.1-.1.2-.1v.2c.3 0 .1.3.3.4h-.1c.3.1 0 .4 0 .6l-.2-.1c-.1 0 0 .1.2.2-.1 0 0 .2-.1.1-.1 0 .1.1.1.2-.1.1-.1.1-.1.2l-.1-.1c0 .1-.1.1.1.2-.1 0-.1.4-.3.3v.2c-.1.1-.2 0-.2.2 0 0 0-.1-.1-.1v.2c-.1.3-.3.1-.3.2-.1.3-.3.3-.5.5V38c-.1.3-.1-.2-.2.2v-.1c-.1.2-.1-.1-.2.1 0-.1-.1.1-.1 0v-.1c0-.1-.1.3 0 0v.1c-.1-.1-.3.1-.4.2 0-.1.2-.4 0-.2 0 0 0 .1 0 0-.1.1.1-.3 0-.1-.1.1 0 .1-.1.2 0-.1 0-.2-.1-.1v-.1c-.2.2-.2.1-.3.3-.3-.1-.7-.3-.9-.6 0-.2-.1-.3-.2-.5V37c0-.1-.1-.2 0-.3.2-.2.2-.2.1-.2h.1c-.2 0 0-.1-.2 0 0-.2 0-.3.1-.4h-.2c0-.4.5-.8.7-1.1.1 0 .1-.2.2-.3.4-.1.7-.1.8-.3.1.2.2.5.2.7z"/><path d="M25.6 34.9c0 .1.1.1.1.2-.1-.1-.1-.2-.1-.2zm.5.7s0 .1 0 0c0 .1 0 .2 0 0 0 .1 0 .1 0 0zm.1.1c0 .1 0 .1 0 0zm-.1.3c0 .1 0 .1 0 0zm.1-.2s0 .1 0 0c0 0-.1.1 0 0zm-.1.3s.1-.1 0 0c.1-.1 0 0 0 0z"/><path d="M26.2 36s0 .1 0 0zm-.2.8v.1zm-.5.2c0 .1.1-.1.1-.1l-.1.1zm-.7.2h.1l-.3.2z"/></g><path d="M25.6 31.7c2.9-.9-.5 4.9-1.1 1.9 0-.7.5-1.6 1.1-1.9z" fill="#a23a54"/><g class="I"><path d="M25.5 31.4s.1.1 0 0zm-.1.2c.1.4-.2.1-.1.4 0 0-.1-.2-.1-.1.1.3-.1.2-.4.3-.1 0 .1.1.1.1h-.1c.1 0 0 .1.1.1h-.1c.3.1-.1.1.1.2h-.1c.1.1.1.2.1.3h-.2.2c-.2 0 .2 0 0 0 .2 0-.1 0 .1 0h-.2c.3 0-.1 0 0 0h.1c.1 0-.1 0 0 0s-.1.1.1 0c-.2.1-.1 0-.3.1.2.1.1.2.1.3-.1 0-.1.1-.2.1h.1l-.1.1c-.1.1.3-.1.1 0-.1 0-.1.1-.2.1h.2s-.1 0-.1.1c.2-.1 0 .1.1 0l-.1.1c.1 0 .2-.1.1-.1l-.1.1c.2-.1.2 0 .3-.1 0 0 0 .1.1 0l-.2.2c.2-.2.1 0 .4-.3 0 .1-.1.2 0 .1l-.4.4h-.1.1l.4-.3-.3.3.4-.4s-.2.2-.1.2c.1-.1.1-.1.1-.2 0 0 .1 0-.1.2-.1.1-.1 0-.1.2l.1-.1s.1-.1.2-.3c0 0-.1.2-.1.1.1-.2.2-.2.2-.2s-.1.1-.1.2c.2-.2.2-.3.3-.4s-.2.3-.1.2c-.1.2.2-.3.1 0l.1-.2-.1.2c-.1.1 0 0 .1-.1 0-.1 0 .1 0 .1.1-.1.2-.3.1-.1 0-.1.1-.3.1-.3l-.1.2v.1c.1-.2-.1.2 0 0-.1.2.1-.3 0 0 0 0 .1-.2 0 0 0 0-.1.3-.1.2 0 0 0-.1.1-.2v-.1l.1-.2c0 .1 0-.1 0 .2l-.1.2s.1-.2.1-.3v.1c.1-.3 0 0 .1-.2v.2c0-.1.1-.2.1-.2v.1c0 .1 0 0 0 0v.3c0-.1.1-.3.1-.4 0 .3.1-.2 0 0v.2c0 .3 0-.2 0-.1v-.2c0 .1 0-.2 0 .1 0-.1 0 .1 0-.2 0 .2 0-.1 0 .2v-.1c0-.1 0 .1 0 0V33v.2c0 .1 0-.3 0-.3v.1-.1.1-.1.1-.1.1s0 .1 0 0v-.6s.1.3.1.2c0 0 0-.2-.1-.2 0 0 0-.1 0 0v-.1s0-.1.1 0l.1.1-.1-.1h.1s-.1-.1 0 0c0 0-.1-.1-.1 0h.1c-.1-.1-.2-.1-.1-.1 0 0-.1 0 0 0-.1 0 0 0 0 0h.1c.1 0 .2 0 .3-.1h.1s-.2 0-.2.1l-.2.1h.1l-.1.1h.1s-.1 0-.1.1c-.1.1 0 0-.1 0 .1 0 .2-.1.2-.1-.1 0-.1 0-.2.1l.1-.1s-.1.1 0 0l-.1.1.1-.1s-.1.1 0 0l-.1.1c.1-.1 0 0 0 0h-.1l.1-.1-.1.1.1-.1h.1s0-.1 0 0l-.2.2s.1-.1 0 0l.2-.2s-.1.1-.1.2l.1-.1-.1.1s.1-.1.1-.2l.1-.1c.1-.1.1-.1.1-.2-.1.2-.2.2-.3.4 0 0 .3-.5.1-.2 0 0-.1.2-.1.1 0 0-.1.2-.1.1s.1-.2.2-.3c0 .1 0 0 0 0 0-.1.1-.2.1-.2l-.1.1c-.1.1 0 0 0 .1 0 0 .1-.1 0 .1 0 0 0 .1-.1.2v-.1c0-.1-.1.1-.1.1l.1-.2c.1-.1 0 .1.1-.2 0 0 0 .1 0 0 0 0 .1-.3 0-.1 0 .1 0 .1-.1.2 0 0 0 .1-.1.1v-.2c0 .1 0 .1 0-.1l.1-.2s.1-.2.1-.3v.1c0 .1 0 .1-.1.2l-.1.1c0-.1 0-.2.1-.2h-.1v.4c0 .1 0-.2 0 0 0-.1 0-.3.1-.4 0 .1 0-.1 0-.1 0 .1-.1.2-.1.2 0-.2-.1 0-.1 0v-.2s-.1-.1 0 .1v-.4c0-.1 0 0 0 0v.1c0 .1-.1 0-.1 0v-.1.1c0-.1-.1-.2 0-.1v-.1c0 .1 0 0 0 0v.1-.5c0 .2 0-.1.1-.1v.2s0-.2.1-.2.1 0 .2.1v.1c0-.2.1-.1.1-.2 0 .1.2-.1.1.1.1 0 .3 0 .3.1l-.1.1c.1-.1 0 .1 0 .1 0-.1.1-.1.2-.2 0 .1.1.1.2 0l-.1.1c.1-.1.1.1.1.2l-.1.1c.1-.1.1-.1.2-.1v.2c.3 0 .1.3.3.4h-.1c.3.1 0 .4 0 .6l-.2-.1c-.1 0 0 .1.2.2-.1 0 0 .2-.1.1-.1 0 .1.1.1.2-.1.1-.1.1-.1.2l-.1-.1c0 .1-.1.1.1.2-.1 0-.1.4-.3.3v.2c-.1.1-.2 0-.2.2 0 0 0-.1-.1-.1v.2c-.1.3-.3.1-.3.2-.1.3-.3.3-.5.5v-.1c-.1.3-.1-.2-.2.2v-.1c-.1.2-.1-.1-.2.1 0-.1-.1.1-.1 0v-.1c0-.1-.1.3 0 0v.1c-.1-.1-.3.1-.4.2 0-.1.2-.4 0-.2 0 0 0 .1 0 0-.1.1.1-.3 0-.1-.1.1 0 .1-.1.2 0-.1 0-.2-.1-.1v-.1c-.2.2-.2.1-.3.3-.3-.1-.7-.3-.9-.6 0-.2-.1-.3-.2-.5v-.3c0-.1-.1-.2 0-.3.2-.2.2-.2.1-.2h.1c-.2 0 0-.1-.2 0 0-.2 0-.3.1-.4h-.2c0-.4.5-.8.7-1.1.1 0 .1-.2.2-.3.4-.1.7-.1.8-.3.1.2.2.5.2.7z"/><path d="M25.6 31.4c0 .1.1.1.1.2-.1-.1-.1-.1-.1-.2zm.5.7s0 .1 0 0c0 .1 0 .2 0 0 0 .1 0 .1 0 0zm.1.1c0 .1 0 .1 0 0zm-.1.3c0 .1 0 .1 0 0 0 .1 0 0 0 0zm.1-.2s0 .1 0 0c0 .1-.1.2 0 0zm-.1.3s.1-.1 0 0c.1-.1 0 0 0 0z"/><path d="M26.2 32.5s0 .1 0 0zm-.2.9zm-.5.1c0 .1.1-.1.1-.1l-.1.1zm-.7.2l-.2.2z"/></g><path d="M22.8 32.2l20.6-11.9v8.2L22.8 40.4v-8.2zm16.6-2.3v-2.8L37 28.5v2.8l2.4-1.4zm-2.8 1.6v-2.8l-2.4 1.4v2.8l2.4-1.4zm5.6-3.3v-2.8l-2.4 1.4v2.8l2.4-1.4zm-8.4 4.9v-2.8l-2.4 1.4v2.8l2.4-1.4zM31 34.8V32l-2.4 1.4v2.8l2.4-1.4zm8.4-8.2v-2.8L37 25.2V28l2.4-1.4zm-2.8 1.6v-2.8l-2.4 1.4v2.8l2.4-1.4zm-2.8 1.7v-2.8l-2.4 1.4v2.8l2.4-1.4zm8.4-4.9v-2.8l-2.4 1.4v2.8l2.4-1.4zM31 31.5v-2.8l-2.4 1.4v2.8l2.4-1.4zm-5.4 6.2c1.1-.4 1.8-3.3 0-2.6-1 .5-1.8 3.4 0 2.6zm0-3.4c.6-.4 1.1-1.2 1.1-1.9-.6-3-4 2.8-1.1 1.9z" fill="#436584"/><g class="I"><path d="M25.5 34s.1.1 0 0z"/><path d="M25.5 34.1c0 .4-.2 0-.3.3v-.2c-.1.3-.3.1-.3-.1l-.1.1v-.1l-.1.1s.1-.1.1-.2l-.1.1c-.2.2 0 0-.2 0h.1c-.2 0-.2-.1-.3-.2.1 0-.1 0 0-.1-.1 0 .1 0-.1-.1h.1c-.2 0 .1 0 0-.1 0 0 .1 0-.1-.1h.2c-.1-.2-.1-.3 0-.4h.1l-.1-.1h.1c.1 0-.2-.1-.1-.1 0 0 .1 0 .1.1l-.1-.1h.1c-.1-.1 0 0 0-.1h.1c.1 0-.2-.1-.1-.1h.1c-.1-.1-.1-.1-.1-.2 0 0 .1 0 0-.1l.2.1c-.2-.1 0-.1-.2-.2 0 0 .1 0 .1-.1l.2.1h.1v-.1c-.1-.1-.3-.2-.3-.3l.2.1-.3-.2s.1.1.1 0c0 0-.1 0-.1-.1 0 0 0-.1.1 0 .1 0 0 0 .1.1v-.1s0-.1-.1-.1c0 0 .1.1 0 0l-.1-.1s.1 0 .1.1c-.1-.1-.1-.2-.1-.2-.1 0 .1.1.1.1.1 0-.1-.2.1-.1l-.1-.1s.1.1.1 0c.1 0 0 0 0-.1s0-.2.1-.2l-.1-.2.1.1h.1c-.1-.1 0 .2 0 .1.1.1-.1-.2 0 0v-.1l.1.1v-.1l-.1-.1c.1.1 0-.1.1.1l.1.1s-.1-.1-.1-.2c-.1-.2 0 0 0-.2h.2v-.1.1l.2.2c0-.1-.1-.2-.1-.2.1.2 0-.2.1 0v.2c.1.2 0-.2.1-.1l-.1-.2c.1.1.1-.1.1.1 0-.1.1 0 0-.1.1.1.3-.1.3.2v-.1c0-.1 0 .1 0 0v-.1.2c0 .1.1-.3.2-.2v.1l.1-.1c0 .1 0 .2-.1.3 0 0 .1 0 .1-.1l-.1.2c0-.1.1 0 .1-.1v-.1h.1c-.1.1 0 .1 0 .1s.1-.1.1 0v.1s0-.1 0 0c0 0-.1.1 0 .1s.2-.2.1-.1c0 0-.1 0-.1.1v.1l.1-.1c.1-.1.1 0 .2 0v.1c0 .1 0 .1.1 0h.1c-.1.1-.4.2-.2.2 0 0 .2 0 .3-.1 0 .1.1.1 0 .2h.1c0 .1.2.1 0 .2h-.2c.1 0-.1 0 .1 0 .1 0 .1 0 .2-.1.1 0 .1.1 0 .2h.1c-.2 0-.2.1-.1.1s.2.1.1.1h-.1.1c-.1.1-.1.1-.2.1.3.1.3.3.2.4h-.1c-.1 0 .1 0 .1 0-.1 0-.1 0-.2-.1-.1 0 .1.1.1.1h.1s-.1 0 0 .1c-.1 0-.2 0-.2-.1h.1c-.2 0-.3-.1-.5-.2-.1 0-.1-.1-.2-.1.1 0 .3.1.3.1s.3.1.3.2c-.1 0 0 0-.1-.1-.1 0 0 .1 0 .1.1 0 .2.1.2.1-.1 0-.1-.1-.1 0 .1 0 .1.1.2.1.2.1-.1 0 .1.1-.1 0-.3-.1-.4-.1.1 0 .1.1.3.2 0 0-.1 0-.2-.1-.1 0 .2.1 0 0l.1.1H27s.1.1 0 0l.1.1c.1 0-.1-.1.1 0-.1 0 0 0 0 .1h-.1l.1.1h-.1l.1.1c0 .1-.2-.1-.2 0l-.1-.1h-.1c.1.1.2.1.3.2 0 0-.1 0 0 0l-.1-.1s-.2-.1-.2 0c0 0 .1.1.2.1h-.1s.1 0 .1.1c-.1 0-.2 0-.3-.1l-.1-.1c-.1-.1-.1 0-.2-.1v.1c.2.1.3.2.5.3 0 .1-.5-.3-.2 0 0 0 .2.1.1.1 0 0 .2.1.1.1-.1-.1-.2-.1-.3-.2-.1 0-.2-.1-.2-.1l.1.1c.1.1 0 0 .1 0 0 .1-.1 0 0 .1 0 0 .1 0 .2.1v.1h-.1c-.1 0 .1.1.1.1l-.1-.1c-.1-.1.1 0-.1-.2 0 0 .1.1 0 .1 0 0-.3-.2-.1 0 0 .1.1 0 .1.1v.2c-.1-.1 0 0-.2-.1.1 0 .1 0 0-.1-.2-.1 0 0-.1-.1 0 0-.2-.1-.3-.2v.1c.1.1.1.1.2.1 0 0 0 .1.1.2-.1 0-.1-.1-.1-.1 0 .1 0 .1-.1.1.2.1 0 .1.1.2 0 0 .2.1.2.2l-.1-.1c.1.1-.1-.1 0 0 0-.1-.2-.2-.3-.3 0 .1-.1-.1-.1 0s.1.2.1.2c-.1-.1-.1.1-.1.1-.1 0-.2-.2-.2-.2l.1.1s-.1 0 0 .2l-.1-.2-.1-.1c-.1-.1 0 0 0 .1l.1.1c0 .1-.1 0-.1.1l-.1-.2v.2c-.1-.1-.1-.1 0-.2l-.2-.2.2.2c0 .1 0 0-.1-.1l.1.1c-.2-.1-.2-.1-.2-.2v-.1c0 .1.1.1.1.1-.1-.1-.1-.2 0-.1s0-.1 0-.1c.1.1.1.2.2.3h.1c-.1-.1-.2-.2-.2-.3l.1.1-.1-.2h.1l.1.1c-.1-.2 0-.1-.1-.2.1 0 0-.1.1 0v-.3l.1.1c-.1-.1.1 0 .1 0-.1 0-.1-.1-.2-.2.1 0 0-.1 0-.2h.1c-.1-.1 0-.1 0-.1h.1l-.2-.2h.1c-.2-.2 0-.2-.1-.3h.1c-.2-.1 0-.2-.1-.2h.2c.1 0 0 0-.2 0 .1 0-.1 0 .1 0h-.1.1-.2c.1-.1-.1 0 0-.1h-.1s.1-.1 0 0c0 0 .1 0 .1-.1 0 0-.1 0-.1.1l.1-.1c.1-.1.1-.1.1-.2v.2c0-.1 0 0-.1 0v-.1c-.1-.1.1.2 0 0l.1.1c-.1 0-.1.1-.1.2-.1-.1-.3-.3-.2-.1 0 0 .1.1 0 0 0 .1-.2-.2-.1-.1s0 .1.1.1c-.1 0-.2-.1-.1 0h-.1c.1.2 0 .1.2.3-.1.2-.1.4-.1.6-.1.1-.1.3-.2.4H25c.1 0-.1 0-.1 0-.2 0-.4.1-.4.1v-.1c0-.1.1-.1.1-.2v-.2c0 .2.2.4.3.2.5.5.6.9.6 1z"/><path d="M25.5 34c0 .1.1.1.1.2 0-.1-.1-.2-.1-.2zm1 .2s0 .1 0 0c0 .1.1.1 0 0 0 .1 0 .1 0 0zm.1-.1c.1 0 .1.1.1.1l-.1-.1zm.4.1zm-.1-.1s0 .1 0 0zm.3-.2s0-.1 0 0c0-.1.1.1 0 0zm0-.2zM25.7 31z"/><path d="M24.6 31.8c.1.1 0 0 0 0s0 .1 0 0zm0 .8h.2zm.9 4.9s.1.1 0 0c0 0 0-.1 0 0z"/><path d="M25.5 37.6c0 .4-.2.1-.2.3v-.2c-.1.3-.3.1-.3-.1l-.1.1.1-.1-.1.1s.1-.1.1-.2l-.1.1c-.3.2 0-.1-.2 0h.1c-.2 0-.2-.1-.3-.2.1 0-.1 0-.1-.1-.1 0 .1 0-.1-.1h.1c-.2 0 .1 0 0 0 0 0 .1-.1-.1-.1h.2c-.2-.1-.1-.3-.1-.4h.1l-.1-.1h.1c.1 0-.2-.1-.1-.1h.1l-.1-.1h.1c-.1-.1 0 0 0-.1h.1c.1 0-.2-.1-.1-.1h.1c-.1-.1-.1-.1-.1-.2 0 0 .1 0 0-.1 0 0 .2.1.2 0-.2-.1 0-.1-.2-.2 0 0 .1 0 .1-.1.1 0 .2.1.2.1h.2v-.1c-.1-.1-.3-.2-.3-.3l.2.1-.3-.2s.1.1.1 0c0 0-.1 0-.1-.1 0 0 0-.1.1 0 .1 0 0 0 .1.1v-.1s0-.1-.1-.1c0 0 .1.1 0 0l-.1-.1s.1 0 .1.1c-.1-.1-.1-.2-.1-.3-.1 0 .1.1.1.1.1 0 0-.2.1-.1l-.1-.1s.1.1.1 0v-.1c0-.1 0-.2.1-.2l-.1-.2.1.1h.1c-.1-.1 0 .2 0 .1.1.1-.1-.2 0 0v-.1l.1.1v-.1c-.1-.1 0 0 0-.1 0 .1 0-.1.1.1l.1.1s0-.2-.1-.2v.1c-.1-.2 0 0 0-.2.1 0 .1 0 .2.1V34v.1c0 .1 0 0 0 0s.1.1.1.2V34c.1.2 0-.2.1 0v.2c.1.2 0-.2.1-.1v-.2c0 .1 0-.1.1.1 0-.1.1 0 0-.1.1.1.2-.1.3.2V34c0-.1 0 .1 0 0v-.1.2c0 .1.1-.3.2-.2v.1l.1-.1v.3s.1 0 .1-.1v.2c0-.1 0-.1.1-.1V34l.1-.1c-.1.1 0 .1 0 .1l.1-.1v.1s0-.1 0 0c0 0-.1.1 0 .1s.1-.2.1-.1c0 0-.1 0-.1.1v.1l.1-.1c.1-.1.1 0 .2 0v.1c0 .1 0 .1.1 0h.1c0 .1-.4.2-.2.2 0 0 .2 0 .3-.1 0 .1.1.1 0 .2h.1c0 .1.2.2 0 .3h-.2c.1 0-.1 0 .1 0h.2c.1 0 .1.1 0 .2h.1c-.2 0-.2 0-.1.1.1 0 .2.1.1.1h-.1.1c-.1 0-.1.1-.2.1.3.1.3.3.2.3h-.1c-.1 0 .1 0 .1 0-.1 0-.1 0-.2-.1-.1 0 .1.1.1.1h.1s-.1 0 0 .1c-.1 0-.2 0-.2-.1h.1c-.2 0-.3-.1-.5-.2-.1 0-.1-.1-.2-.1.1 0 .3.1.3.1s.3.1.3.2c-.1 0 0 0-.1-.1-.1 0 0 .1 0 .1.1 0 .2.1.2.1-.1 0-.1-.1-.1 0 .1 0 .1.1.2.1.2.1-.1 0 .1.1-.1 0-.3-.1-.4-.1.1 0 .1.1.3.2 0 0-.1 0-.2-.1-.1 0 .2.1 0 0 0 0 .1.1 0 0l.1.1c.1 0-.1-.1.1 0-.1 0 0 0 0 .1h-.1l.1.1h-.1l.1.1c0 .1-.2-.1-.2 0l-.1-.1h-.1c.1 0 .2.1.3.2 0 0-.1 0 0 0l-.1-.1s-.2-.1-.2 0c0 0 .1.1.2.1h-.1s.1 0 .1.1c-.1 0-.2 0-.3-.1l-.1-.1c-.1-.1-.1 0-.2-.1v.1c.2.1.3.2.5.3 0 .1-.5-.2-.2 0 0 0 .2.1.1.1 0 0 .2.1.1.1-.1-.1-.2-.1-.3-.2-.1 0-.2-.1-.2-.1l.1.1c.1.1 0 0 .1 0 0 .1-.1 0 0 .1 0 0 .1 0 .2.1h-.1c-.1 0 .1.1.1.1l-.1-.1c-.1-.1.1 0-.1-.1 0 0 .1.1 0 .1 0 0-.3-.2-.1 0 0 .1.1 0 .1.1s.1.1 0 .2c-.1-.1 0 0-.2-.1.1 0 .1 0 0-.1-.2-.1 0 0-.1-.1 0 0-.2-.1-.3-.2v.1c.1.1.1.1.2.1 0 0 0 .1.1.2-.1 0-.1-.1-.1-.1 0 .1 0 .1-.1.1.2.1 0 .1.1.2 0 0 .2.1.2.2l-.1-.1c.1.1-.2-.1 0 0 0-.1-.2-.2-.3-.3 0 .1-.1-.1-.1 0s.1.2.1.2c-.1-.1-.1.1-.1.1-.1 0-.2-.2-.2-.2l.1.1s-.1 0 0 .2l-.1-.2-.1-.1c-.1-.1 0 0 0 .1l.1.1c0 .1-.1 0-.1.1v-.1.1c0-.1-.1-.2-.1-.1 0-.1 0-.2-.1-.3 0 0 0 .1.1.2 0 .1.1 0 0-.1v.1c-.1-.1-.1-.1-.1-.2v-.1l.1.1c-.1-.1-.1-.2 0-.1s0-.1 0-.1c.1.1.1.2.2.3h.1c-.1-.1-.1-.2-.2-.3l.1.1-.1-.2h.1l.1.1c-.1-.2 0-.1-.1-.2.1 0 0-.1.1 0v-.2l.1.1c-.1-.1.1 0 .1 0-.1 0-.1-.1-.2-.1.1 0 0-.1 0-.1h.1c-.2-.1 0-.1 0-.1h.1l-.2-.2h.1c-.2-.2 0-.2-.1-.3h.1c-.2-.1 0-.2-.1-.2h.2c.1 0 0 0-.2-.1.1 0-.1 0 .1 0h-.1.1-.2c.1 0-.1 0 .1 0h-.1c.1 0 .2-.1.2-.1s.1 0 .1-.1 0 0 0 0v.3c0 .2 0-.2 0 .1v-.1c0 .1-.1-.1-.1.1-.1-.1 0 .1-.1 0v-.1c0-.1 0 .2 0 0v.1c-.1 0 0 .1 0 .2-.1-.1-.2-.3-.2-.2 0 0 .1.1 0 0 0 .1-.2-.2-.1-.1s0 .1.1.1c-.1-.1-.2-.1-.1 0 .1.2 0 .1.2.3-.1.1 0 .3 0 .5-.1.1 0 .3-.2.4h-.2.2v.1h-.1.3c-.2 0-.4.1-.5.2s0 0 0 0v-.4c0 .2.2.3.2.1-.5.3-.4.7-.4.8z"/><path d="M25.5 37.5c0 .1.1.1.1.2 0-.1 0-.2-.1-.2zm1 .2s0 .1 0 0c.1.1.1.1 0 0 .1.1 0 .1 0 0zm.2-.1c.1 0 .1.1.1.1-.1 0-.1 0-.1-.1zm.3.1zm-.1-.1zm.3-.2c0-.1 0-.1 0 0 0-.1.1 0 0 0zm0-.2c.1-.1.1 0 0 0zm-1.4-2.7v.1zm-1.2.8s-.1 0 0 0c-.1 0 0 0 0 0zm0 .7l.1.1zm6.1-4.5s.1-.1 0 0c0 0-.1 0 0 0zm.1-.1c.1.4-.3.2-.3.4 0 0-.1-.2-.1-.1 0 .3-.3.3-.5.2v-.1.3c0 .4-.1 0-.1.3v-.1c-.1.3-.3.3-.4.5 0-.1 0-.2.1-.3 0 .2-.1.3-.1.3 0-.2-.1.2-.1.1-.1.2 0-.1-.1.2v-.2c-.1.3 0-.1-.1 0v.1c-.1.1 0-.1 0 0-.1.1 0 0-.1.2.1-.2.1-.1.2-.4l-.4.4V33c.1-.1.1-.2.1-.3l-.1.1s.1-.1.1-.2c.1-.1-.2.2-.1.1 0 0 .1-.1.1-.2l-.1.1.1-.1c-.1.1 0-.1-.1 0l.1-.1c.1-.2-.2.2-.1.1l.1-.1c-.2.2-.1 0-.2 0v-.1c0-.1.2-.2.2-.2-.2.2-.1 0-.3.2 0-.1.1-.2 0-.2.1 0 .2-.2.2-.2l.1-.1h.1s-.1 0 0 0c-.1 0-.3.1-.4.1.1 0 .2-.1.2-.1-.1 0-.2.1-.4.1l.1-.1h-.1s0-.1.1-.2h.1s-.1 0-.1-.1c0 0-.1-.1-.2 0h.1c-.1 0-.1 0-.1-.1h.1c-.1 0-.2-.1-.3-.2-.1 0 .2 0 .1 0 .1-.1-.2-.2 0-.2h-.1.1c-.1 0-.2-.2-.1-.3l-.2-.1h.1c.1 0 0-.1.1-.1-.1-.1.1.2 0 .1.1 0-.2-.1 0-.1 0 0-.1-.1 0-.1 0 0 .2.1.1 0 0-.1 0 0-.1-.1-.1 0 0 0-.1-.1.1 0-.1-.1.1 0l.1.1-.2-.2h.1c-.2-.1 0-.1-.1-.2v-.1h.2c0-.1-.1-.1 0-.1v.1s.2 0 .3.1c0-.1-.1-.1-.2-.2.2.1 0-.2.2 0 0 0 0 .1.1.1.2.2 0-.2.1-.1l-.1-.1c.1.1 0-.1.1 0 0-.1.1 0 0-.1.2.1.1-.2.3.1v-.1c-.1-.1 0 .1 0 0v-.1s.1 0 .1.2c.1.1-.1-.3 0-.3 0 .1 0 .1.1.1v-.1c.1 0 .1.1.2.3v-.1l.1.1c-.1-.1 0-.1 0-.1 0-.1-.1-.1-.1-.1v-.1c0 .1.1.1.1.1v-.1.1s0 .2.1 0c0-.1-.1-.2 0-.2v.1h.1v-.1c0-.1.1-.1.1-.2h.1c0 .1.1 0 .1-.1l.1-.1v.3l.1-.3c.1 0 .2-.2.2 0v-.1c.1 0 .3-.3.3-.1 0 .1 0 .2-.1.2.1-.2 0 .1.1-.1 0-.1.1-.2 0-.3.1-.1.2-.2.2-.1 0-.1 0-.1.1-.2-.1.2-.1.3 0 .1l.1-.2v.1s.1-.3.1-.2 0 .1-.1.2c.1-.1.2-.4.2-.3l-.1.2.1-.2v.3c.2-.4.4-.6.6-.7v.2l-.1.1c-.1.2.1-.2.1-.1-.1.1-.1.3-.2.4-.1.2.1-.1.2-.1.1-.1-.1.1.1-.1 0 0-.1.2.1 0-.1.1-.2.3-.2.3l.1-.1c-.2.3-.3.3-.5.7-.1.3-.2.2-.2.3.1-.1.3-.4.4-.5l.3-.4c-.1.1 0 0-.1.2s.1 0 0 .1c0-.1.2-.3.2-.3-.1.1-.1.2-.1.2.1-.1.1-.1.2-.3.2-.2 0 .1.1 0-.1.2-.3.3-.4.5.1-.2.2-.1.4-.4 0 .1-.1.2-.2.3s.2-.2 0 .1l.1-.1c0 .1-.1.1-.1.2 0 0 .2-.1 0 .1 0 0 0 .1.1-.1.1-.1-.1 0 .1-.2-.1.2 0 .1.1 0l-.1.1h.1l-.1.1.1-.1c.1 0-.2.2-.2.3h-.1s-.1.1 0 .1c.1-.1.2-.2.3-.2 0 0-.1.1 0 .1l-.3.3s.2-.1.3-.2c0 0-.1.1-.1.2 0 0 .1-.1.2-.1l-.3.3-.2.1c-.1.1-.1.1-.3.2h.1c.2-.2.3-.2.5-.3.1.1-.5.4-.2.3.1 0 .2-.1.2-.1 0 .1.2-.1.1 0-.1 0-.2.2-.4.2.1 0 .1-.1 0-.1-.1.1-.2.1-.2.2 0 0 0 .1.1 0l.1-.1s-.1.2.1.1l.2-.2h-.1c-.1.1.1 0 .1.1l-.2.1c-.1 0 .1-.2-.2 0 0 .1.1 0 0 .1 0 0-.3.2-.1.2h.2c0 .1.1.1.1.2-.2 0 0 .1-.2.1.1 0 .1-.2-.1-.2-.2.1 0-.1-.2 0 0 .1-.2.1-.3.2h.1c.1 0 .1 0 .3-.1 0 .1 0 .1.1.1h-.2v.2c.2 0 0 .1.2 0 0 0 .2-.1.3 0H32c.1 0-.2 0 0 .1h-.4c.1 0-.1 0-.1 0 .1 0 .2.1.2.1-.1 0 0 .1 0 .2h-.2s-.1.1.1.1h-.4c-.1 0 0 .1 0 .1h.1c.1 0 0 .1 0 .1h-.1l-.3-.1h.2c.1 0 .1-.1 0-.1h-.3c-.1 0-.1 0-.1-.1h.1c-.1 0-.2 0-.1-.1.2 0-.1-.1-.1-.1.1 0 .3 0 .3.1.1 0 0 0 .1-.1-.1 0-.3 0-.3-.1h.1s-.2 0-.2-.1 0-.1.1-.2h.1c-.2 0-.1-.1-.2-.1.1-.1-.1-.1.1-.1-.1-.1-.1-.1-.1-.2l.1-.1c-.1 0 .1-.1.1-.1-.1.1-.1.1-.2.1.1-.1 0-.1-.1 0l.1-.1c-.2.1 0 0 0-.1l.1-.1c-.2.1-.1.1-.3.2 0 0 0-.1.1-.2-.2.2-.1 0-.2.1l.1-.2c-.1.1-.1.2-.1.1l-.1.1.2-.3c0-.1-.1.1-.2.3 0-.1-.1.2 0-.1l-.1.2c0-.1 0-.1 0 0 0-.1.1-.2.1-.2 0 .1 0-.1-.1.3 0-.2-.1.2 0-.1v.2s0-.2 0 0v-.1.2c0 .2 0-.1-.1-.1v.1s-.1.1-.2.1c0 .2-.2-.1 0 .1l-.1-.1c.1.1-.1-.1 0 .1-.1-.1 0 0-.1 0l-.1-.1c-.1 0 .2.1 0 0l.1.1s.1.1.1.2c-.1 0-.4-.1-.2 0 .1 0-.3 0-.1 0h.2c-.1 0-.2.1-.1.1h-.1c.2.1.1.1.4.2 0 .1.2.1.2 0 0 .1 0 0 0 0v.1c-.2.3-.1.3-.1.2v.1l.1-.3s-.1.2 0 .2V31v.1-.2c0-.1 0 0 0 0 0 .1 0 .1.1.1 0 .1.1-.1.2-.1.3.1.6.1.7-.2-.4.2-.2.6-.2.7z"/><path d="M30.7 31.4zm.8-.8c.1 0 .1.1 0 0zm.1-.2c.1 0 .1.1.1.1l-.1-.1zm.3-.4zm-.2 0zm.2-.8zm-.1-.2s0-.1 0 0c0-.1.1-.1 0 0zm-3.3.5v-.1l.1.1zm-.5 1.7s-.1.1 0 0c-.1 0 0 .1 0 0zm.4.9l.1-.1zM42 25s.1-.1 0 0c0 0-.1 0 0 0z"/><path d="M42 24.9c.1.4-.3.2-.3.4 0 0-.1-.2-.1-.1 0 .3-.3.3-.5.2v-.1.3c0 .4-.1 0-.1.3v-.1c-.1.3-.3.3-.4.5 0-.1 0-.2.1-.3 0 .2-.1.3-.1.3 0-.2-.1.2-.1.1-.1.2 0-.1-.1.2v-.2c-.1.3 0-.1-.1 0v.1c-.1.1 0-.1 0 0-.1.1 0 0-.1.2.1-.2.1-.1.2-.4l-.4.4v-.2c.1-.1.1-.2.1-.3l-.1.1s.1-.1.1-.2c.1-.1-.2.2-.1.1 0 0 .1-.1.1-.2l-.1.1.1-.1c-.1.1 0-.1-.1 0l.1-.1c.1-.2-.2.2-.1.1l.1-.1c-.2.2-.1 0-.2 0v-.1c0-.1.2-.2.2-.2-.2.2-.1 0-.3.2 0-.1.1-.2 0-.2.1 0 .2-.2.2-.2l.1-.1h.1s-.1 0 0 0c-.1 0-.3.1-.4.1.1 0 .2-.1.2-.1-.1 0-.2.1-.4.1l.1-.1h-.1s0-.1.1-.2h.1s-.1 0-.1-.1c0 0-.1-.1-.2 0h.1c-.1 0-.1 0-.1-.1h.1c-.1 0-.2-.1-.3-.2-.1 0 .2 0 .1 0 .1-.1-.2-.2 0-.2h-.1.1c-.1 0-.2-.2-.1-.3l-.2-.1h.1c.1 0 0-.1.1-.1-.1-.1.1.2 0 .1.1 0-.2-.1 0-.1 0 0-.1-.1 0-.1 0 0 .2.1.1 0 0-.1 0 0-.1-.1-.1 0 0 0-.1-.1.1 0-.1-.1.1 0l.1.1-.2-.2h.1c-.2-.1 0-.1-.1-.2v-.1h.2c0-.1-.1-.1 0-.1v.1s.2 0 .3.1c0-.1-.1-.1-.2-.2.2.1 0-.2.2 0 0 0 0 .1.1.1.2.2 0-.2.1-.1l-.1-.1c.1.1 0-.1.1 0 0-.1.1 0 0-.1.2.1.1-.2.3.1V23c-.1-.1 0 .1 0 0v-.1s.1 0 .1.2c.1.1-.1-.3 0-.3 0 .1 0 .1.1.1v-.1c.1 0 .1.1.2.2v-.1l.1.1c-.1-.1 0-.1 0-.1 0-.1-.1-.1-.1-.1v-.1c0 .1.1.1.1.1v-.1.1s0 .2.1 0c0-.1-.1-.2 0-.2v.1h.1v-.1c0-.1.1-.1.1-.2h.1c0 .1.1 0 .1-.1l.1-.1v.3l.1-.3c.1 0 .2-.2.2 0v-.1c.1 0 .3-.3.3-.1 0 .1 0 .2-.1.2.1-.2 0 .1.1-.1 0-.1.1-.2 0-.3.1-.1.2-.2.2-.1 0-.1 0-.1.1-.2-.1.2-.1.3 0 .1l.1-.2v.1s.1-.3.1-.2 0 .1-.1.2c.1-.1.2-.4.2-.3l-.1.2.1-.2v.3c.2-.4.4-.6.6-.7v.2l-.1.1c-.1.2.1-.2.1-.1-.1.1-.1.3-.2.4-.1.2.1-.1.2-.1.1-.1-.1.1.1-.1 0 0-.1.2.1 0-.1.1-.2.3-.2.3l.1-.1c-.2.3-.3.3-.5.7-.1.3-.2.2-.2.3.1-.1.3-.4.4-.5l.3-.4c-.1.1 0 0-.1.2s.1 0 0 .1c0-.1.2-.3.2-.3-.1.1-.1.2-.1.2.1-.1.1-.1.2-.3.2-.2 0 .1.1 0-.1.2-.3.3-.4.5.1-.2.2-.1.4-.4 0 .1-.1.2-.2.3s.2-.2 0 .1l.1-.1c0 .1-.1.1-.1.2 0 0 .2-.1 0 .1 0 0 0 .1.1-.1.1-.1-.1 0 .1-.2-.1.2 0 .1.1 0l-.1.1h.1l-.1.1.1-.1c.1 0-.2.2-.2.3h-.1s-.1.1 0 .1c.1-.1.2-.2.3-.2 0 0-.1.1 0 .1l-.3.3s.2-.1.3-.2c0 0-.1.1-.1.2 0 0 .1-.1.2-.1l-.3.3-.2.1c-.1.1-.1.1-.3.2h.1c.2-.2.3-.2.5-.3.1.1-.5.4-.2.3.1 0 .2-.1.2-.1 0 .1.2-.1.1 0-.1 0-.2.2-.4.2.1 0 .1-.1 0-.1-.1.1-.2.1-.2.2 0 0 0 .1.1 0l.1-.1s-.1.2.1.1l.2-.2h-.1c-.1.1.1 0 .1.1l-.2.1c-.1 0 .1-.2-.2 0 0 .1.1 0 0 .1 0 0-.3.2-.1.2h.2c0 .1.1.1.1.2-.2 0 0 .1-.2.1.1 0 .1-.2-.1-.2-.2.1 0-.1-.2 0 0 .1-.2.1-.3.2h.1c.1 0 .1 0 .3-.1 0 .1 0 .1.1.1h-.2v.2c.2 0 0 .1.2 0 0 0 .2-.1.3 0h-.1c.1 0-.2 0 0 .1h-.4c.1 0-.1 0-.1 0 .1 0 .2.1.2.1-.1 0 0 .1 0 .2h-.2s-.1.1.1.1h-.4c-.1 0 0 .1 0 .1h.1c.1 0 0 .1 0 .1h-.1l-.3-.1h.2c.1 0 .1-.1 0-.1H42c-.1 0-.1 0-.1-.1h.1c-.1 0-.2 0-.1-.1.2 0-.1-.1-.1-.1.1 0 .3 0 .3.1.1 0 0 0 .1-.1-.1 0-.3 0-.3-.1h.1s-.2 0-.2-.1 0-.1.1-.2h.1c-.2 0-.1-.1-.2-.1.1-.1-.1-.1.1-.1-.1-.1-.1-.1-.1-.2l.1-.1c-.1 0 .1-.1.1-.1-.1.1-.1.1-.2.1.1-.1 0-.1-.1 0l.1-.1c-.2.1 0 0 0-.1l.1-.1c-.2.1-.1.1-.3.2 0 0 0-.1.1-.2-.2.2-.1 0-.2.1l.1-.2c-.1.1-.1.2-.1.1l-.1.1.2-.3c0-.1-.1.1-.2.3 0-.1-.1.2 0-.1l-.1.2c0-.1 0-.1 0 0 0-.1.1-.2.1-.2 0 .1 0-.1-.1.3 0-.2-.1.2 0-.1v.2s0-.1 0 0v-.1.2c0 .2 0-.1-.1-.1v.1s-.1.1-.2.1c0 .1 0 .1-.1 0v.1l-.1-.1c.1.1-.1-.1 0 .1-.1-.1 0 0-.1 0l-.1-.1c-.1 0 .2.1 0 0l.1.1s.1.1.1.2c-.1 0-.4-.1-.2 0 .1 0-.3 0-.1 0h.2c-.1 0-.2.1-.1.1h-.1c.2.1.1.1.4.2 0 .1.2.1.2 0 0 .1 0 0 0 0v.1c-.2.3-.1.3-.1.2v.1l.1-.3s-.1.2 0 .2v-.1.1-.2c0-.1 0 0 0 0 0 .1.1.1.1.1 0 .1.1-.1.2-.1.3.1.6.1.7-.2-.2.3 0 .7-.1.8z"/><path d="M42 24.9zm.8-.8c.1 0 .1.1 0 0zm0-.2c.1 0 .1.1.1.1l-.1-.1zm.3-.4zm-.1 0zm.2-.8s-.1 0 0 0c-.1 0 .1 0 0 0zm-.1-.2s0-.1 0 0c0-.1.1-.1 0 0zm-3.3.5v-.1l.1.1zm-.5 1.7s-.1.1 0 0c-.1 0 0 .1 0 0zm.3.9l.2-.1zm-6.1 4.2c0 .1.1 0 0 0 0 .1 0 0 0 0zm.1 0c.1.4-.3.2-.3.4 0 0-.1-.2-.1-.1 0 .3-.3.3-.5.2v-.1.3c0 .4-.1 0-.1.3v-.1c-.1.3-.3.3-.4.5 0-.1 0-.2.1-.3 0 .2-.1.3-.1.3 0-.2-.1.2-.1.1-.1.2 0-.1-.1.2v-.2c-.1.3 0-.1-.1 0v.1c-.1.1 0-.1 0 0-.1.1 0 0-.1.2.1-.2.1-.1.2-.4l-.4.4v-.2c.1-.1.1-.2.1-.3l-.1.1s.1-.1.1-.2c.1-.1-.2.2-.1.1 0 0 .1-.1.1-.2l-.1.1.1-.1c-.1.1 0-.1-.1 0l.1-.1c.1-.2-.2.2-.1.1l.1-.1c-.2.2-.1 0-.2 0v-.1c0-.1.2-.2.2-.2-.2.2-.1 0-.3.2 0-.1.1-.2 0-.2.1 0 .2-.2.2-.2l.1-.1h.1s-.1 0 0 0c-.1 0-.3.1-.4.1.1 0 .2-.1.2-.1-.1 0-.2.1-.4.1l.1-.1h-.1s0-.1.1-.2h.1s-.1 0-.1-.1c0 0-.1-.1-.2 0h.1c-.1 0-.1 0-.1-.1h.1c-.1 0-.2-.1-.3-.2-.1 0 .2 0 .1 0 .1-.1-.2-.2 0-.2h-.1.1c-.1 0-.2-.2-.1-.3l-.2-.1h.1c.1 0 0-.1.1-.1-.1-.1.1.2 0 .1.1 0-.2-.1 0-.1 0 0-.1-.1 0-.1 0 0 .2.1.1 0 0-.1 0 0-.1-.1-.1 0 0 0-.1-.1.1 0-.1-.1.1 0l.1.1-.2-.2h.1c-.2-.1 0-.1-.1-.2v-.1h.2c0-.1-.1-.1 0-.1v.1s.2 0 .3.1c0-.1-.1-.1-.2-.2.2.1 0-.2.2 0 0 0 0 .1.1.1.2.2 0-.2.1-.1l-.1-.1c.1.1 0-.1.1 0 0-.1.1 0 0-.1.2.1.1-.2.3.1v-.1c-.1-.1 0 .1 0 0v-.1s.1 0 .1.2c.1.1-.1-.3 0-.3 0 .1 0 .1.1.1v-.1c.1 0 .1.1.2.2v-.1l.1.1c-.1-.1 0-.1 0-.1 0-.1-.1-.1-.1-.1v-.1c0 .1.1.1.1.1v-.1.1s0 .2.1 0c0-.1-.1-.2 0-.2v.1h.1v-.1c0-.1.1-.1.1-.2h.1c0 .1.1 0 .1-.1l.1-.1v.3l.1-.3c.1 0 .2-.2.2 0V27c.1 0 .3-.3.3-.1 0 .1 0 .2-.1.2.1-.2 0 .1.1-.1 0-.1.1-.2 0-.3.1-.1.2-.2.2-.1 0-.1 0-.1.1-.2-.1.2-.1.3 0 .1l.1-.2v.1s.1-.3.1-.2c0 0 0 .1-.1.2.1-.1.2-.4.2-.3l-.1.2.1-.2v.3c.2-.4.4-.6.6-.7v.2l-.1.1c-.1.2.1-.2.1-.1-.1.1-.1.3-.2.4-.1.2.1-.1.2-.1.1-.1-.1.1.1-.1 0 0-.1.2.1 0-.1.1-.2.3-.2.3l.1-.1c-.2.3-.3.3-.5.7-.1.3-.2.2-.2.3.1-.1.3-.4.4-.5l.3-.4c-.1.1 0 0-.1.2s.1 0 0 .1c0-.1.2-.3.2-.3-.1.1-.1.2-.1.2.1-.1.1-.1.2-.3.2-.2 0 .1.1 0-.1.2-.3.3-.4.5.1-.2.2-.1.4-.4 0 .1-.1.2-.2.3s.2-.2 0 .1l.1-.1c0 .1-.1.1-.1.2 0 0 .2-.1 0 .1 0 0 0 .1.1-.1.1-.1-.1 0 .1-.2-.1.2 0 .1.1 0l-.1.1h.1l-.1.1.1-.1c.1 0-.2.2-.2.3h-.1s-.1.1 0 .1c.1-.1.2-.2.3-.2 0 0-.1.1 0 .1l-.3.3s.2-.1.3-.2c0 0-.1.1-.1.2 0 0 .1-.1.2-.1l-.3.3-.2.1c-.1.1-.1.1-.3.2h.1c.2-.2.3-.2.5-.3.1.1-.5.4-.2.3.1 0 .2-.1.2-.1 0 .1.2-.1.1 0-.1 0-.2.2-.4.2.1 0 .1-.1 0-.1-.1.1-.2.1-.2.2 0 0 0 .1.1 0l.1-.1s-.1.2.1.1l.2-.2H35c-.1.1.1 0 .1.1l-.2.1c-.1 0 .1-.2-.2 0 0 .1.1 0 0 .1 0 0-.3.2-.1.2h.2c0 .1.1.1.1.2-.2 0 0 .1-.2.1.1 0 .1-.2-.1-.2-.2.1 0-.1-.2 0 0 .1-.2.1-.3.2h.1c.1 0 .1 0 .3-.1 0 .1 0 .1.1.1h-.2v.2c.2 0 0 .1.2 0 0 0 .2-.1.3 0h-.1c.1 0-.2 0 0 .1h-.4c.1 0-.1 0-.1 0 .1 0 .2.1.2.1-.1 0 0 .1 0 .2h-.2s-.1.1.1.1H34c-.1 0 0 .1 0 .1h.1c.1 0 0 .1 0 .1H34l-.3-.1h.2c.1 0 .1-.1 0-.1h-.3c-.1 0-.1 0-.1-.1h.1c-.1 0-.2 0-.1-.1.2 0-.1-.1-.1-.1.1 0 .3 0 .3.1.1 0 0 0 .1-.1-.1 0-.3 0-.3-.1h.1s-.2 0-.2-.1 0-.1.1-.2h.1c-.2 0-.1-.1-.2-.1.1-.1-.1-.1.1-.1-.1-.1-.1-.1-.1-.2l.1-.1c-.1 0 .1-.1.1-.1-.1.1-.1.1-.2.1.1-.1 0-.1-.1 0l.1-.1c-.2.1 0 0 0-.1l.1-.1c-.2.1-.1.1-.3.2 0 0 0-.1.1-.2-.2.2-.1 0-.2.1l.1-.2c-.1.1-.1.2-.1.1l-.1.1.2-.3c0-.1-.1.1-.2.3 0-.1-.1.2 0-.1l-.1.2c0-.1 0-.1 0 0 0-.1.1-.2.1-.2 0 .1 0-.1-.1.3 0-.2-.1.2 0-.1v.2s0-.1 0 0v-.1.2c0 .2 0-.1-.1-.1v.1s-.1.1-.2.1c0 .1 0 .1-.1 0v.1l-.1-.1c.1.1-.1-.1 0 .1-.1-.1 0 0-.1 0l-.1-.1c-.1 0 .2.1 0 0l.1.1s.1.1.1.2c-.1 0-.4-.1-.2 0 .1 0-.3 0-.1 0h.2c-.1 0-.2.1-.1.1h-.1c.2.1.1.1.4.2 0 .1.2.1.2 0 0 .1 0 0 0 0v.1c-.2.3-.1.3-.1.2v.1l.1-.3s-.1.2 0 .2v-.1.1-.2c0-.1 0 0 0 0 0 .1.1.1.1.1 0 .1.1-.1.2-.1.3.1.6.1.7-.2-.3.3-.1.6-.1.8z"/><path d="M33.5 29.8zm.8-.8zm.1-.2c.1 0 .1.1.1.1l-.1-.1zm.3-.4c.1-.1.1-.1 0 0zm-.2 0c0-.1.1 0 0 0zm.2-.8s.1-.1 0 0zm-.1-.3s.1-.1 0 0zm-3.2.5v.1zm-.6 1.8c.1 0-.1 0 0 0-.1 0 0 0 0 0zm.4.9l.1-.2zm5.1-2.3z"/><path d="M36.4 28.1c.1.4-.3.2-.3.4 0 0-.1-.2-.1-.1 0 .3-.3.3-.5.2v-.1.3c0 .4-.1 0-.1.3V29c-.1.3-.3.3-.4.5 0-.1 0-.2.1-.3 0 .2-.1.3-.1.3 0-.2-.1.2-.1.1-.1.2 0-.1-.1.2v-.2c-.1.3 0-.1-.1 0v.1c-.1.1 0-.1 0 0-.1.1 0 0-.1.2.1-.2.1-.1.2-.4l-.4.4v-.2c.1-.1.1-.2.1-.3l-.1.1s.1-.1.1-.2c.1-.1-.2.2-.1.1 0 0 .1-.1.1-.2l-.1.1.1-.1c-.1.1 0-.1-.1 0l.1-.1c.1-.2-.2.2-.1.1l.1-.1c-.2.2-.1 0-.2 0V29c0-.1.2-.2.2-.2-.2.2-.1 0-.3.2 0-.1.1-.2 0-.2.1 0 .2-.2.2-.2l.1-.1h.1s-.1 0 0 0c-.1 0-.3.1-.4.1.1 0 .2-.1.2-.1-.1 0-.2.1-.4.1l.1-.1H34s0-.1.1-.2h.1s-.1 0-.1-.1c0 0-.1-.1-.2 0h.1c-.1 0-.1 0-.1-.1h.1c-.1 0-.2-.1-.3-.2-.1 0 .2 0 .1 0 .1-.1-.2-.2 0-.2h-.1.1c-.1 0-.2-.2-.1-.3l-.2-.1h.1c.1 0 0-.1.1-.1-.1-.1.1.2 0 .1.1 0-.2-.1 0-.1 0 0-.1-.1 0-.1 0 0 .2.1.1 0 0-.1 0 0-.1-.1-.1 0 0 0-.1-.1.1 0-.1-.1.1 0l.1.1-.2-.2h.1c-.2-.1 0-.1-.1-.2v-.1h.2c0-.1-.1-.1 0-.1v.1s.2 0 .3.1c0-.1-.1-.1-.2-.2.2.1 0-.2.2 0 0 0 0 .1.1.1.2.2 0-.2.1-.1l-.1-.1c.1.1 0-.1.1 0 0-.1.1 0 0-.1.2.1.1-.2.3.1v-.1c-.1-.1 0 .1 0 0v-.1s.1 0 .1.2c.1.1-.1-.3 0-.3 0 .1 0 .1.1.1V26c.1 0 .1.1.2.2v-.1l.1.1c-.1-.1 0-.1 0-.1 0-.1-.1-.1-.1-.1v-.1c0 .1.1.1.1.1v-.1.1s0 .2.1 0c0-.1-.1-.2 0-.2v.1h.1v-.1c0-.1.1-.1.1-.2h.1c0 .1.1 0 .1-.1l.1-.1v.3l.1-.3c.1 0 .2-.2.2 0v-.1c.1 0 .3-.3.3-.1 0 .1 0 .2-.1.2.1-.2 0 .1.1-.1 0-.1.1-.2 0-.3.1-.1.2-.2.2-.1 0-.1 0-.1.1-.2-.1.2-.1.3 0 .1l.1-.2v.1s.1-.3.1-.2 0 .1-.1.2c.1-.1.2-.4.2-.3l-.1.2.1-.2v.3c.2-.4.4-.6.6-.7v.2l-.1.1c-.1.2.1-.2.1-.1-.1.1-.1.3-.2.4-.1.2.1-.1.2-.1.1-.1-.1.1.1-.1 0 0-.1.2.1 0-.1.1-.2.3-.2.3l.1-.1c-.2.3-.3.3-.5.7-.1.3-.2.2-.2.3.1-.1.3-.4.4-.5l.3-.4c-.1.1 0 0-.1.2s.1 0 0 .1c0-.1.2-.3.2-.3-.1.1-.1.2-.1.2.1-.1.1-.1.2-.3.2-.2 0 .1.1 0-.1.2-.3.3-.4.5.1-.2.2-.1.4-.4 0 .1-.1.2-.2.3s.2-.2 0 .1l.1-.1c0 .1-.1.1-.1.2 0 0 .2-.1 0 .1 0 0 0 .1.1-.1.1-.1-.1 0 .1-.2-.1.2 0 .1.1 0l-.1.1h.1l-.1.1.1-.1c.1 0-.2.2-.2.3h-.1s-.1.1 0 .1c.1-.1.2-.2.3-.2 0 0-.1.1 0 .1l-.3.3s.2-.1.3-.2c0 0-.1.1-.1.2 0 0 .1-.1.2-.1l-.3.3-.2.1c-.1.1-.1.1-.3.2h.1c.2-.2.3-.2.5-.3.1.1-.5.4-.2.3.1 0 .2-.1.2-.1 0 .1.2-.1.1 0-.1 0-.2.2-.4.2.1 0 .1-.1 0-.1-.1.1-.2.1-.2.2 0 0 0 .1.1 0l.1-.1s-.1.2.1.1l.2-.2h-.1c-.1.1.1 0 .1.1l-.2.1c-.1 0 .1-.2-.2 0 0 .1.1 0 0 .1 0 0-.3.2-.1.2h.2c0 .1.1.1.1.2-.2 0 0 .1-.2.1.1 0 .1-.2-.1-.2-.2.1 0-.1-.2 0 0 .1-.2.1-.3.2h.1c.1 0 .1 0 .3-.1 0 .1 0 .1.1.1h-.2v.2c.2 0 0 .1.2 0 0 0 .2-.1.3 0h-.1c.1 0-.2 0 0 .1h-.4c.1 0-.1 0-.1 0 .1 0 .2.1.2.1-.1 0 0 .1 0 .2h-.2s-.1.1.1.1h-.4c-.1 0 0 .1 0 .1h.1c.1 0 0 .1 0 .1h-.1l-.3-.1h.2c.1 0 .1-.1 0-.1h-.3c-.1 0-.1 0-.1-.1h.1c-.1 0-.2 0-.1-.1.2 0-.1-.1-.1-.1.1 0 .3 0 .3.1.1 0 0 0 .1-.1-.1 0-.3 0-.3-.1h.1s-.2 0-.2-.1 0-.1.1-.2h.1c-.2 0-.1-.1-.2-.1.1-.1-.1-.1.1-.1-.1-.1-.1-.1-.1-.2l.1-.1c-.1 0 .1-.1.1-.1-.1.1-.1.1-.2.1.1-.1 0-.1-.1 0l.1-.1c-.2.1 0 0 0-.1l.1-.1c-.2.1-.1.1-.3.2 0 0 0-.1.1-.2-.2.2-.1 0-.2.1l.1-.2c-.1.1-.1.2-.1.1l-.1.1.2-.3c0-.1-.1.1-.2.3 0-.1-.1.2 0-.1l-.1.2c0-.1 0-.1 0 0 0-.1.1-.2.1-.2 0 .1 0-.1-.1.3 0-.2-.1.2 0-.1v.2s0-.1 0 0v-.1.2c0 .2 0-.1-.1-.1v.1s-.1.1-.2.1c0 .1 0 .1-.1 0v.1l-.1-.1c.1.1-.1-.1 0 .1-.1-.1 0 0-.1 0l-.1-.1c-.1 0 .2.1 0 0l.1.1s.1.1.1.2c-.1 0-.4-.1-.2 0 .1 0-.3 0-.1 0h.2c-.1 0-.2.1-.1.1h-.1c.2.1.1.1.4.2 0 .1.2.1.2 0 0 .1 0 0 0 0v.1c-.2.3-.1.3-.1.2v.1l.1-.3s-.1.2 0 .2v-.1.1-.2c0-.1 0 0 0 0 0 .1.1.1.1.1 0 .1.1-.1.2-.1.3.1.6.1.7-.2-.2.3-.1.7-.1.8z"/><path d="M36.3 28.2h.2c0-.1-.1 0-.2 0zm.9-.8c-.1 0 0 0 0 0zm0-.3c.1 0 .1.1.1.1l-.1-.1zm.3-.3c.1-.1.1-.1 0 0zm-.2 0s.1-.1 0 0c.1-.1.2 0 0 0zm.2-.8s.1-.1 0 0zm-.1-.3c.1-.1.1-.1 0 0zm-3.2.5zm-.6 1.8c-.1 0 0 0 0 0zm.4.8l.1-.1zm5.1-2.2z"/><path d="M39.2 26.5c.1.4-.3.2-.3.4 0 0-.1-.2-.1-.1 0 .3-.3.3-.5.2v-.1.3c0 .4-.1 0-.1.3v-.1c-.1.3-.3.3-.4.5 0-.1 0-.2.1-.3 0 .2-.1.3-.1.3 0-.2-.1.2-.1.1-.1.2 0-.1-.1.2V28c-.1.3 0-.1-.1 0v.1c-.1.1 0-.1 0 0-.1.1 0 0-.1.2.1-.2.1-.1.2-.4l-.4.4v-.2c.1-.1.1-.2.1-.3l-.1.1s.1-.1.1-.2c.1-.1-.2.2-.1.1 0 0 .1-.1.1-.2l-.1.1.1-.1c-.1.1 0-.1-.1 0l.1-.1c.1-.2-.2.2-.1.1l.1-.1c-.2.2-.1 0-.2 0v-.1c0-.1.2-.2.2-.2-.2.2-.1 0-.3.2 0-.1.1-.2 0-.2.1 0 .2-.2.2-.2l.1-.1h.1s-.1 0 0 0c-.1 0-.3.1-.4.1.1 0 .2-.1.2-.1-.1 0-.2.1-.4.1l.1-.1h-.1s0-.1.1-.2h.1s-.1 0-.1-.1c0 0-.1-.1-.2 0h.1c-.1 0-.1 0-.1-.1h.1c-.1 0-.2-.1-.3-.2-.1 0 .2 0 .1 0 .1-.1-.2-.2 0-.2h-.1.1c-.1 0-.2-.2-.1-.3l-.2-.1h.1c.1 0 0-.1.1-.1-.1-.1.1.2 0 .1.1 0-.2-.1 0-.1 0 0-.1-.1 0-.1 0 0 .2.1.1 0 0-.1 0 0-.1-.1-.1 0 0 0-.1-.1.1 0-.1-.1.1 0l.1.1-.2-.2h.1c-.2-.1 0-.1-.1-.2v-.1h.2c0-.1-.1-.1 0-.1v.1s.2 0 .3.1c0-.1-.1-.1-.2-.2.2.1 0-.2.2 0 0 0 0 .1.1.1.2.2 0-.2.1-.1l-.1-.1c.1.1 0-.1.1 0 0-.1.1 0 0-.1.2.1.1-.2.3.1v-.1c-.1-.1 0 .1 0 0v-.1s.1 0 .1.2c.1.1-.1-.3 0-.3 0 .1 0 .1.1.1v-.1c.1 0 .1.1.2.2v-.1l.1.1c-.1-.1 0-.1 0-.1 0-.1-.1-.1-.1-.1v-.1c0 .1.1.1.1.1v-.1.1s0 .2.1 0c0-.1-.1-.2 0-.2v.1h.1v-.1c0-.1.1-.1.1-.2h.1c0 .1.1 0 .1-.1l.1-.1v.3l.1-.3c.1 0 .2-.2.2 0v-.1c.1 0 .3-.3.3-.1 0 .1 0 .2-.1.2.1-.2 0 .1.1-.1 0-.1.1-.2 0-.3.1-.1.2-.2.2-.1 0-.1 0-.1.1-.2-.1.2-.1.3 0 .1l.1-.2v.1s.1-.3.1-.2c0 0 0 .1-.1.2.1-.1.2-.4.2-.3l-.1.2.1-.2v.3c.2-.4.4-.6.6-.7v.2l-.1.1c-.1.2.1-.2.1-.1-.1.1-.1.3-.2.4-.1.2.1-.1.2-.1.1-.1-.1.1.1-.1 0 0-.1.2.1 0-.1.1-.2.3-.2.3l.1-.1c-.2.3-.3.3-.5.7-.1.3-.2.2-.2.3.1-.1.3-.4.4-.5l.3-.4c-.1.1 0 0-.1.2s.1 0 0 .1c0-.1.2-.3.2-.3-.1.1-.1.2-.1.2.1-.1.1-.1.2-.3.2-.2 0 .1.1 0-.1.2-.3.3-.4.5.1-.2.2-.1.4-.4 0 .1-.1.2-.2.3s.2-.2 0 .1l.1-.1c0 .1-.1.1-.1.2 0 0 .2-.1 0 .1 0 0 0 .1.1-.1.1-.1-.1 0 .1-.2-.1.2 0 .1.1 0l-.1.1h.1l-.1.1.1-.1c.1 0-.2.2-.2.3h-.1s-.1.1 0 .1c.1-.1.2-.2.3-.2 0 0-.1.1 0 .1l-.3.3s.2-.1.3-.2c0 0-.1.1-.1.2 0 0 .1-.1.2-.1l-.3.3-.2.1c-.1.1-.1.1-.3.2h.1c.2-.2.3-.2.5-.3.1.1-.5.4-.2.3.1 0 .2-.1.2-.1 0 .1.2-.1.1 0-.1 0-.2.2-.4.2.1 0 .1-.1 0-.1-.1.1-.2.1-.2.2 0 0 0 .1.1 0l.1-.1s-.1.2.1.1l.2-.2h-.1c-.1.1.1 0 .1.1l-.2.1c-.1 0 .1-.2-.2 0 0 .1.1 0 0 .1 0 0-.3.2-.1.2h.2c0 .1.1.1.1.2-.2 0 0 .1-.2.1.1 0 .1-.2-.1-.2-.2.1 0-.1-.2 0 0 .1-.2.1-.3.2h.1c.1 0 .1 0 .3-.1 0 .1 0 .1.1.1H40v.2c.2 0 0 .1.2 0 0 0 .2-.1.3 0h-.1c.1 0-.2 0 0 .1H40c.1 0-.1 0-.1 0 .1 0 .2.1.2.1-.1 0 0 .1 0 .2h-.2s-.1.1.1.1h-.4c-.1 0 0 .1 0 .1h.1c.1 0 0 .1 0 .1h-.2l-.3-.1h.2c.1 0 .1-.1 0-.1h-.3c-.1 0-.1 0-.1-.1h.1c-.1 0-.2 0-.1-.1.2 0-.1-.1-.1-.1.1 0 .3 0 .3.1.1 0 0 0 .1-.1-.1 0-.3 0-.3-.1h.1s-.2 0-.2-.1 0-.1.1-.2h.1c-.2 0-.1-.1-.2-.1.1-.1-.1-.1.1-.1-.1-.1-.1-.1-.1-.2l.1-.1c-.1 0 .1-.1.1-.1-.1.1-.1.1-.2.1.1-.1 0-.1-.1 0l.1-.1c-.2.1 0 0 0-.1l.1-.1c-.2.1-.1.1-.3.2 0 0 0-.1.1-.2-.2.2-.1 0-.2.1l.1-.2c-.1.1-.1.2-.1.1l-.1.1.2-.3c0-.1-.1.1-.2.3 0-.1-.1.2 0-.1l-.1.2c0-.1 0-.1 0 0 0-.1.1-.2.1-.2 0 .1 0-.1-.1.3 0-.2-.1.2 0-.1v.2s0-.1 0 0v-.1.2c0 .2 0-.1-.1-.1v.1s-.1.1-.2.1c0 .1 0 .1-.1 0v.1l-.1-.1c.1.1-.1-.1 0 .1-.1-.1 0 0-.1 0l-.1-.1c-.1 0 .2.1 0 0l.1.1s.1.1.1.2c-.1 0-.4-.1-.2 0 .1 0-.3 0-.1 0h.2c-.1 0-.2.1-.1.1h-.2c.2.1.1.1.4.2 0 .1.2.1.2 0 0 .1 0 0 0 0v.1c-.2.3-.1.3-.1.2v.1l.1-.3s-.1.2 0 .2V26v.1-.2c0-.1 0 0 0 0 0 .1.1.1.1.1 0 .1.1-.1.2-.1.3.1.6.1.7-.2 0 .3.2.7.1.8z"/><path d="M39.1 26.5zm.9-.7zm0-.3c.1 0 .1.1.1.1l-.1-.1zm.3-.4zm-.2 0zm.3-.8c-.1 0-.1 0 0 0-.1 0 .1 0 0 0zm-.1-.2c0-.1 0-.1 0 0zm-3.3.5zm-.6 1.7c.1.1 0 .1 0 0 0 .1.1.1 0 0zm.4.9l.2-.1zm-6.1 7.5c0 .1.1 0 0 0z"/><path d="M30.8 34.6c.1.4-.3.2-.3.4 0 0-.1-.2-.1-.1 0 .3-.3.3-.5.2V35v.3c0 .4-.1 0-.1.3v-.1c-.1.3-.3.3-.4.5 0-.1 0-.2.1-.3 0 .2-.1.3-.1.3 0-.2-.1.2-.1.1-.1.2 0-.1-.1.2v-.2c-.1.3 0-.1-.1 0v.1c-.1.1 0-.1 0 0-.1.1 0 0-.1.2.1-.2.1-.1.2-.4l-.4.4v-.2c.1-.1.1-.2.1-.3l-.1.1s.1-.1.1-.2c.1-.1-.2.2-.1.1 0 0 .1-.1.1-.2l-.4.1.1-.1c-.1.1 0-.1-.1 0l.1-.1c.1-.2-.2.2-.1.1l.1-.1c-.2.2-.1 0-.2 0v-.1c0-.1.2-.2.2-.2-.2.2-.1 0-.3.2 0-.1.1-.2 0-.2.1 0 .2-.2.2-.2l.1-.1h.1s-.1 0 0 0c-.1 0-.3.1-.4.1.1 0 .2-.1.2-.1-.1 0-.2.1-.4.1l.1-.1h-.1s0-.1.1-.2h.1s-.1 0-.1-.1c0 0-.1-.1-.2 0h.1c-.1 0-.1 0-.1-.1h.1c-.1 0-.2-.1-.3-.2-.1 0 .2 0 .1 0 .1-.1-.2-.1 0-.2h-.1.1c-.1 0-.2-.2-.1-.3l-.2-.1h.1c.1 0 0-.1.1-.1-.1-.1.1.2 0 .1.1 0-.2-.1 0-.1 0 0-.1-.1 0-.1 0 0 .2.1.1 0 0-.1 0 0-.1-.1-.1 0 0 0-.1-.1.1 0-.1-.1.1 0l.1.1-.2-.2h.1c-.2-.1 0-.1-.1-.2V33h.2c0-.1-.1-.1 0-.1v.1s.2 0 .3.1c0-.1-.1-.1-.2-.2.2.1 0-.2.2 0 0 0 0 .1.1.1.2.2 0-.2.1-.1l-.1-.1c.1.1 0-.1.1 0 0-.1.1 0 0-.1.2.1.1-.2.3.1v-.1c-.1-.1 0 .1 0 0v-.1s.1 0 .1.2c.1.1-.1-.3 0-.3 0 .1 0 .1.1.1v-.1c.1 0 .1.1.2.3v-.1l.1.1c-.1-.1 0-.1 0-.1 0-.1-.1-.1-.1-.1v-.1c0 .1.1.1.1.1v-.1.1s0 .2.1 0c0-.1-.1-.2 0-.2v.1h.1v-.1c0-.1.1-.1.1-.2h.1c0 .1.1 0 .1-.1l.1-.1v.3l.1-.3c.1 0 .2-.2.2 0v-.1c.1 0 .3-.3.3-.1 0 .1 0 .2-.1.2.1-.2 0 .1.1-.1 0-.1.1-.2 0-.3.1-.1.2-.2.2-.1 0-.1 0-.1.1-.2-.1.2-.1.3 0 .1l.1-.2v.1s.1-.3.1-.2 0 .1-.1.2c.1-.1.2-.4.2-.3l-.1.2.1-.2v.3c.2-.4.4-.5.5-.7v.2l-.1.1c-.1.2.1-.2.1-.1-.1.1-.1.3-.2.4-.1.2.1-.1.2-.1.1-.1-.1.1.1-.1 0 0-.1.2.1 0-.1.1-.2.3-.2.3l.1-.1c-.2.3-.3.3-.5.7-.1.3-.2.2-.2.3.1-.1.3-.4.4-.5l.3-.4-.1.1c-.1.2.1 0 0 .1 0-.1.2-.3.2-.3-.1.1-.1.2-.1.2.1-.1.1-.1.2-.3.2-.2 0 .1.1 0-.1.2-.3.3-.4.5.1-.2.2-.1.4-.4 0 .1-.1.2-.2.3s.2-.2 0 .1l.1-.1c0 .1-.1.1-.1.2 0 0 .2-.1 0 .1 0 0 0 .1.1-.1.1-.1-.1 0 .1-.2-.1.2 0 .1.1 0l-.1.1h.1l-.1.1.1-.1c.1 0-.2.2-.2.3h-.1s-.1.1 0 .1c.1-.1.2-.2.3-.2 0 0-.1.1 0 .1l-.3.3s.2-.1.3-.2c0 0-.1.1-.1.2 0 0 .1-.1.2-.1l-.3.3-.2.1c-.1.1-.1.1-.3.2h.1c.2-.2.3-.2.5-.3.1.1-.5.4-.2.3.1 0 .2-.1.2-.1 0 .1.2-.1.1 0-.1 0-.2.2-.4.2.1 0 .1-.1 0-.1-.1.1-.2.1-.2.2 0 0 0 .1.1 0l.1-.1s-.1.2.1.1l.2-.2h-.1c-.1.1.1 0 .1.1l-.2.1c-.1 0 .1-.2-.2 0 0 .1.1 0 0 .1 0 0-.3.1-.1.2h.2c0 .1.1.1.1.2-.2 0 0 .1-.2.1.1 0 .1-.2-.1-.2-.2.1 0-.1-.2 0 0 .1-.2.1-.3.2h.1c.1 0 .1 0 .3-.1 0 .1 0 .1.1.1h-.2v.2c.2 0 0 .1.2 0 0 0 .2-.1.3 0h-.1c.1 0-.2 0 0 .1h-.4c.1 0-.1 0-.1 0 .1 0 .2.1.2.1-.1 0 0 .1 0 .2h-.2s-.1.1.1.1h-.4c-.1 0 0 .1 0 .1h.1c.1 0 0 .1 0 .1h-.1l-.3-.1h.2c.1 0 .1-.1 0-.1h-.3c-.1 0-.1 0-.1-.1h.1c-.1 0-.2 0-.1-.1.2 0-.1-.1-.1-.1.1 0 .3 0 .3.1.1 0 0 0 .1-.1-.1 0-.3 0-.3-.1h.1s-.2 0-.2-.1 0-.1.1-.2h.1c-.2 0-.1-.1-.2-.1.1-.1-.1-.1.1-.1-.1-.1-.1-.1-.1-.2l.1-.1c-.1 0 .1 0 .1-.1-.1.1-.1.1-.2.1.1-.1 0-.1-.1 0l.1-.1c-.2.1 0 0 0-.1l.1-.1c-.2.1-.1.1-.3.2 0 0 0-.1.1-.2-.2.2-.1 0-.2.1l.1-.2c-.1.1-.1.2-.1.1l-.1.1.2-.3c0-.1-.1.1-.2.3 0-.1-.1.2 0-.1l-.1.2c0-.1 0-.1 0 0 0-.1.1-.2.1-.2 0 .1 0-.1-.1.3 0-.2-.1.2 0-.1v.2s0-.2 0 0V33v.2c0 .2 0-.1-.1-.1v.1s-.1.1-.2.1c0 .1 0 .1-.1 0v.1l-.1-.1c.1.1-.1-.1 0 .1-.1-.1 0 0-.1 0l-.1-.1c-.1 0 .2.1 0 0l.1.1s.1.1.1.2c-.1 0-.4-.1-.2 0 .1 0-.3 0-.1 0h.2c-.1 0-.2.1-.1.1h-.1c.2.1.1.1.4.2 0 .1.2.1.2 0v.2c-.2.3-.1.3-.1.2v.1l.1-.3s-.1.2 0 .2v-.1.1-.2c0-.1 0 0 0 0 0 .1 0 .1.1.1 0 .1.1-.1.2-.1.3.1.6.1.7-.2.1.2.3.6.3.7z"/><path d="M30.7 34.7zm.8-.8zm.1-.3c.1 0 .1.1.1.1l-.1-.1zm.3-.3c0-.1.1-.1 0 0zm-.2 0c0-.1.1 0 0 0zm.2-.8s.1-.1 0 0zm-.1-.3s.1-.1 0 0zm-3.3.5h.1zm-.5 1.8c.1 0-.1 0 0 0-.1 0 0 0 0 0zm.4.8l.1-.1zm5.1-2.2z"/><path d="M33.6 33c.1.4-.3.2-.3.4 0 0-.1-.2-.1-.1 0 .3-.3.3-.5.2v-.1.3c0 .4-.1 0-.1.3v-.1c-.1.3-.3.3-.4.5 0-.1 0-.2.1-.3 0 .2-.1.3-.1.3 0-.2-.1.2-.1.1-.1.2 0-.1-.1.2v-.2c-.1.3 0-.1-.1 0v.1c-.1.1 0-.1 0 0-.1.1 0 0-.1.2.1-.2.1-.1.2-.4l-.4.4v-.2c.1-.1.1-.2.1-.3l-.1.1s.1-.1.1-.2c.1-.1-.2.2-.1.1 0 0 .1-.1.1-.2l-.1.1.1-.1c-.1.1 0-.1-.1 0l.1-.1c.1-.2-.2.2-.1.1l.1-.1c-.2.2-.1 0-.2 0v-.1c0-.1.2-.2.2-.2-.2.2-.1 0-.3.2 0-.1.1-.2 0-.2.1 0 .2-.2.2-.2l.1-.1h.1s-.1 0 0 0c-.1 0-.3.1-.4.1.1 0 .2-.1.2-.1-.1 0-.2.1-.4.1l.1-.1h-.1s0-.1.1-.2h.1s-.1 0-.1-.1c0 0-.1-.1-.2 0h.1c-.1 0-.1 0-.1-.1h.1c-.1 0-.2-.1-.3-.2-.1 0 .2 0 .1 0 .1-.1-.2-.1 0-.2h-.1.1c-.1 0-.2-.2-.1-.3l-.2-.1h.1c.1 0 0-.1.1-.1-.1-.1.1.2 0 .1.1 0-.2-.1 0-.1 0 0-.1-.1 0-.1 0 0 .2.1.1 0 0-.1 0 0-.1-.1-.1 0 0 0-.1-.1.1 0-.1-.1.1 0l.1.1-.2-.2h.1c-.2-.1 0-.1-.1-.2v-.1h.2c0-.1-.1-.1 0-.1v.1s.2 0 .3.1c0-.1-.1-.1-.2-.2.2.1 0-.2.2 0 0 0 0 .1.1.1.2.2 0-.2.1-.1l-.1-.1c.1.1 0-.1.1 0 0-.1.1 0 0-.1.2.1.1-.2.3.1v-.1c-.1-.1 0 .1 0 0V31s.1 0 .1.2c.1.1-.1-.3 0-.3 0 .1 0 .1.1.1v-.1c.1 0 .1.1.2.2V31l.1.1c-.1-.1 0-.1 0-.1 0-.1-.1-.1-.1-.1v-.1c0 .1.1.1.1.1v-.1.1s0 .2.1 0c0-.1-.1-.2 0-.2v.1h.1v-.1c0-.1.1-.1.1-.2h.1c0 .1.1 0 .1-.1l.1-.1v.3l.1-.3c.1 0 .2-.2.2 0v-.1c.1 0 .3-.3.3-.1 0 .1 0 .2-.1.2.1-.2 0 .1.1-.1 0-.1.1-.2 0-.3.1-.1.2-.2.2-.1 0-.1 0-.1.1-.2-.1.2-.1.3 0 .1l.1-.2v.1s.1-.3.1-.2 0 .1-.1.2c.1-.1.2-.4.2-.3l-.1.2.1-.2v.3c.2-.4.4-.6.6-.7v.2l-.1.1c-.1.2.1-.2.1-.1-.1.1-.1.3-.2.4-.1.2.1-.1.2-.1.1-.1-.1.1.1-.1 0 0-.1.2.1 0-.1.1-.2.3-.2.3l.1-.1c-.2.3-.3.3-.5.7-.1.3-.2.2-.2.3.1-.1.3-.4.4-.5l.3-.4c-.1.1 0 0-.1.2s.1 0 0 .1c0-.1.2-.3.2-.3-.1.1-.1.2-.1.2.1-.1.1-.1.2-.3.2-.2 0 .1.1 0-.1.2-.3.3-.4.5.1-.2.2-.1.4-.4 0 .1-.1.2-.2.3s.2-.2 0 .1l.1-.1c0 .1-.1.1-.1.2 0 0 .2-.1 0 .1 0 0 0 .1.1-.1.1-.1-.1 0 .1-.2-.1.2 0 .1.1 0l-.1.1h.1l-.1.1.1-.1c.1 0-.2.2-.2.3h-.1s-.1.1 0 .1c.1-.1.2-.2.3-.2 0 0-.1.1 0 .1l-.3.3s.2-.1.3-.2c0 0-.1.1-.1.2 0 0 .1-.1.2-.1l-.3.3-.2.1c-.1.1-.1.1-.3.2h.1c.2-.2.3-.2.5-.3.1.1-.5.4-.2.3.1 0 .2-.1.2-.1 0 .1.2-.1.1 0-.1 0-.2.2-.4.2.1 0 .1-.1 0-.1-.1.1-.2.1-.2.2 0 0 0 .1.1 0l.1-.1s-.1.2.1.1l.2-.2H35c-.1.1.1 0 .1.1l-.2.1c-.1 0 .1-.2-.2 0 0 .1.1 0 0 .1 0 0-.3.1-.1.2h.2c0 .1.1.1.1.2-.2 0 0 .1-.2.1.1 0 .1-.2-.1-.2-.2.1 0-.1-.2 0 0 .1-.2.1-.3.2h.1c.1 0 .1 0 .3-.1 0 .1 0 .1.1.1h-.2v.2c.2 0 0 .1.2 0 0 0 .2-.1.3 0h-.1c.1 0-.2 0 0 .1h-.4c.1 0-.1 0-.1 0 .1 0 .2.1.2.1-.1 0 0 .1 0 .2h-.2s-.1.1.1.1H34c-.1 0 0 .1 0 .1h.1c.1 0 0 .1 0 .1H34l-.3-.1h.2c.1 0 .1-.1 0-.1h-.3c-.1 0-.1 0-.1-.1h.1c-.1 0-.2 0-.1-.1.2 0-.1-.1-.1-.1.1 0 .3 0 .3.1.1 0 0 0 .1-.1-.1 0-.3 0-.3-.1h.1s-.2 0-.2-.1 0-.1.1-.2h.1c-.2 0-.1-.1-.2-.1.1-.1-.1-.1.1-.1-.1-.1-.1-.1-.1-.2l.1-.1c-.1 0 .1 0 .1-.1-.1.1-.1.1-.2.1.1-.1 0-.1-.1 0l.1-.1c-.2.1 0 0 0-.1l.1-.1c-.2.1-.1.1-.3.2 0 0 0-.1.1-.2-.2.2-.1 0-.2.1l.1-.2c-.1.1-.1.2-.1.1l-.1.1.2-.3c0-.1-.1.1-.2.3 0-.1-.1.2 0-.1l-.1.2c0-.1 0-.1 0 0 0-.1.1-.2.1-.2 0 .1 0-.1-.1.3 0-.2-.1.2 0-.1v.2s0-.2 0 0v-.1.2c0 .2 0-.1-.1-.1v.1s-.1.1-.2.1c0 .2-.2-.1 0 .1l-.1-.1c.1.1-.1-.1 0 .1-.1-.1 0 0-.1 0l-.1-.1c-.1 0 .2.1 0 0l.1.1s.1.1.1.2c-.1 0-.4-.1-.2 0 .1 0-.3 0-.1 0h.2c-.1 0-.2.1-.1.1h-.1c.2.1.1.1.4.2 0 .1.2.1.2 0 0 .1 0 0 0 0v.1c-.2.3-.1.3-.1.2v.1l.1-.3s-.1.2 0 .2v-.1.1-.2c0-.1 0 0 0 0 0 .1.1.1.1.1 0 .1.1-.1.2-.1.3.1.6.1.7-.2-.4.3-.2.7-.2.8z"/><path d="M33.5 33.1h.2c0-.1-.1 0-.2 0zm.9-.8c-.1 0 0 0 0 0zm0-.3c.1 0 .1.1.1.1l-.1-.1zm.3-.4zm-.2.1c0-.1.1-.1 0 0 0-.1.1-.1 0 0zm.2-.8c0-.1 0-.1 0 0 0-.1.2-.1 0 0zm-.1-.3c.1-.1.1-.1 0 0zm-3.2.5zm-.6 1.7c.1.1 0 .1 0 0-.1.1 0 .1 0 0zm.4.9l.1-.1zM42 28.2c0 .1.1 0 0 0 0 0-.1 0 0 0z"/><path d="M42 28.1c.1.4-.3.2-.3.4 0 0-.1-.2-.1-.1 0 .3-.3.3-.5.2v-.1.3c0 .4-.1 0-.1.3V29c-.1.3-.3.3-.4.5 0-.1 0-.2.1-.3 0 .2-.1.3-.1.3 0-.2-.1.2-.1.1-.1.2 0-.1-.1.2v-.2c-.1.3 0-.1-.1 0v.1c-.1.1 0-.1 0 0-.1.1 0 0-.1.2.1-.2.1-.1.2-.4l-.4.4v-.2c.1-.1.1-.2.1-.3l-.1.1s.1-.1.1-.2c.1-.1-.2.2-.1.1 0 0 .1-.1.1-.2l-.1.1.1-.1c-.1.1 0-.1-.1 0l.1-.1c.1-.2-.2.2-.1.1l.1-.1c-.2.2-.1 0-.2 0V29c0-.1.2-.2.2-.2-.2.2-.1 0-.3.2 0-.1.1-.2 0-.2.1 0 .2-.2.2-.2l.1-.1h.1s-.1 0 0 0c-.1 0-.3.1-.4.1.1 0 .2-.1.2-.1-.1 0-.2.1-.4.1l.1-.1h-.1s0-.1.1-.2h.1s-.1 0-.1-.1c0 0-.1-.1-.2 0h.1c-.1 0-.1 0-.1-.1h.1c-.1 0-.2-.1-.3-.2-.1 0 .2 0 .1 0 .1-.1-.2-.1 0-.2h-.1.1c-.1 0-.2-.2-.1-.3l-.2-.1h.1c.1 0 0-.1.1-.1-.1-.1.1.2 0 .1.1 0-.2-.1 0-.1 0 0-.1-.1 0-.1 0 0 .2.1.1 0 0-.1 0 0-.1-.1-.1 0 0 0-.1-.1.1 0-.1-.1.1 0l.1.1-.2-.2h.1c-.2-.1 0-.1-.1-.2v-.1h.2c0-.1-.1-.1 0-.1v.1s.2 0 .3.1c0-.1-.1-.1-.2-.2.2.1 0-.2.2 0 0 0 0 .1.1.1.2.2 0-.2.1-.1l-.1-.1c.1.1 0-.1.1 0 0-.1.1 0 0-.1.2.1.1-.2.3.1v-.1c-.1-.1 0 .1 0 0v-.1s.1 0 .1.2c.1.1-.1-.3 0-.3 0 .1 0 .1.1.1V26c.1 0 .1.1.2.2v-.1l.1.1c-.1-.1 0-.1 0-.1 0-.1-.1-.1-.1-.1v-.1c0 .1.1.1.1.1v-.1.1s0 .2.1 0c0-.1-.1-.2 0-.2v.1h.1v-.1c0-.1.1-.1.1-.2h.1c0 .1.1 0 .1-.1l.1-.1v.3l.1-.3c.1 0 .2-.2.2 0v-.1c.1 0 .3-.3.3-.1 0 .1 0 .2-.1.2.1-.2 0 .1.1-.1 0-.1.1-.2 0-.3.1-.1.2-.2.2-.1 0-.1 0-.1.1-.2-.1.2-.1.3 0 .1l.1-.2v.1s.1-.3.1-.2 0 .1-.1.2c.1-.1.2-.4.2-.3l-.1.2.1-.2v.3c.2-.4.4-.6.6-.7v.2l-.1.1c-.1.2.1-.2.1-.1-.1.1-.1.3-.2.4-.1.2.1-.1.2-.1.1-.1-.1.1.1-.1 0 0-.1.2.1 0-.1.1-.2.3-.2.3l.1-.1c-.2.3-.3.3-.5.7-.1.3-.2.2-.2.3.1-.1.3-.4.4-.5l.3-.4c-.1.1 0 0-.1.2s.1 0 0 .1c0-.1.2-.3.2-.3-.1.1-.1.2-.1.2.1-.1.1-.1.2-.3.2-.2 0 .1.1 0-.1.2-.3.3-.4.5.1-.2.2-.1.4-.4 0 .1-.1.2-.2.3s.2-.2 0 .1l.1-.1c0 .1-.1.1-.1.2 0 0 .2-.1 0 .1 0 0 0 .1.1-.1.1-.1-.1 0 .1-.2-.1.2 0 .1.1 0l-.1.1h.1l-.1.1.1-.1c.1 0-.2.2-.2.3h-.1s-.1.1 0 .1c.1-.1.2-.2.3-.2 0 0-.1.1 0 .1l-.3.3s.2-.1.3-.2c0 0-.1.1-.1.2 0 0 .1-.1.2-.1l-.3.3-.2.1c-.1.1-.1.1-.3.2h.1c.2-.2.3-.2.5-.3.1.1-.5.4-.2.3.1 0 .2-.1.2-.1 0 .1.2-.1.1 0-.1 0-.2.2-.4.2.1 0 .1-.1 0-.1-.1.1-.2.1-.2.2 0 0 0 .1.1 0l.1-.1s-.1.2.1.1l.2-.2h-.1c-.1.1.1 0 .1.1l-.2.1c-.1 0 .1-.2-.2 0 0 .1.1 0 0 .1 0 0-.3.1-.1.2h.2c0 .1.1.1.1.2-.2 0 0 .1-.2.1.1 0 .1-.2-.1-.2-.2.1 0-.1-.2 0 0 .1-.2.1-.3.2h.1c.1 0 .1 0 .3-.1 0 .1 0 .1.1.1h-.2v.2c.2 0 0 .1.2 0 0 0 .2-.1.3 0h-.1c.1 0-.2 0 0 .1h-.4c.1 0-.1 0-.1 0 .1 0 .2.1.2.1-.1 0 0 .1 0 .2h-.2s-.1.1.1.1h-.4c-.1 0 0 .1 0 .1h.1c.1 0 0 .1 0 .1h-.1l-.3-.1h.2c.1 0 .1-.1 0-.1H42c-.1 0-.1 0-.1-.1h.1c-.1 0-.2 0-.1-.1.2 0-.1-.1-.1-.1.1 0 .3 0 .3.1.1 0 0 0 .1-.1-.1 0-.3 0-.3-.1h.1s-.2 0-.2-.1 0-.1.1-.2h.1c-.2 0-.1-.1-.2-.1.1-.1-.1-.1.1-.1-.1-.1-.1-.1-.1-.2l.1-.1c-.1 0 .1-.1.1-.1-.1.1-.1.1-.2.1.1-.1 0-.1-.1 0l.1-.1c-.2.1 0 0 0-.1l.1-.1c-.2.1-.1.1-.3.2 0 0 0-.1.1-.2-.2.2-.1 0-.2.1l.1-.2c-.1.1-.1.2-.1.1l-.1.1.2-.3c0-.1-.1.1-.2.3 0-.1-.1.2 0-.1l-.1.2c0-.1 0-.1 0 0 0-.1.1-.2.1-.2 0 .1 0-.1-.1.3 0-.2-.1.2 0-.1v.2s0-.1 0 0v-.1.2c0 .2 0-.1-.1-.1v.1s-.1.1-.2.1c0 .2-.2-.1 0 .1l-.1-.1c.1.1-.1-.1 0 .1-.1-.1 0 0-.1 0l-.1-.1c-.1 0 .2.1 0 0l.1.1s.1.1.1.2c-.1 0-.4-.1-.2 0 .1 0-.3 0-.1 0h.2c-.1 0-.2.1-.1.1h-.1c.2.1.1.1.4.2 0 .1.2.1.2 0 0 .1 0 0 0 0v.1c-.2.3-.1.3-.1.2v.1l.1-.3s-.1.2 0 .2v-.1.1-.2c0-.1 0 0 0 0 0 .1.1.1.1.1 0 .1.1-.1.2-.1.3.1.6.1.7-.2-.3.3-.1.7-.2.8z"/><path d="M42 28.2zm.8-.8zm.1-.3c.1 0 .1.1.1.1l-.1-.1zm.2-.3c.1-.1.2-.1 0 0zm-.1 0s0-.1 0 0c0-.1.1 0 0 0zm.2-.8s-.1 0 0 0c-.1 0 .1-.1 0 0zm-.1-.3c0-.1.1-.1 0 0zm-3.3.5h.1zm-.5 1.8s-.1 0 0 0c-.1 0 0 0 0 0zm.3.8l.2-.1zm-3.3 2.7c.1 0 .2-.1 0 0z"/><path d="M36.4 31.4c.1.4-.3.2-.3.4 0 0-.1-.2-.1-.1 0 .3-.3.3-.5.2v-.1.3c0 .4-.1 0-.1.3v-.1c-.1.3-.3.3-.4.5 0-.1 0-.2.1-.3 0 .2-.1.3-.1.3 0-.2-.1.2-.1.1-.1.2 0-.1-.1.2v-.2c-.1.3 0-.1-.1 0v.1c-.1.1 0-.1 0 0-.1.1 0 0-.1.2.1-.2.1-.1.2-.4l-.4.4V33c.1-.1.1-.2.1-.3l-.1.1s.1-.1.1-.2c.1-.1-.2.2-.1.1 0 0 .1-.1.1-.2l-.1.1.1-.1c-.1.1 0-.1-.1 0l.1-.1c.1-.2-.2.2-.1.1l.1-.1c-.2.2-.1 0-.2 0v-.1c0-.1.2-.2.2-.2-.2.2-.1 0-.3.2 0-.1.1-.2 0-.2.1 0 .2-.2.2-.2l.1-.1h.1s-.1 0 0 0c-.1 0-.3.1-.4.1.1 0 .2-.1.2-.1-.1 0-.2.1-.4.1l.1-.1H34s0-.1.1-.2h.1s-.1 0-.1-.1c0 0-.1-.1-.2 0h.1c-.1 0-.1 0-.1-.1h.1c-.1 0-.2-.1-.3-.2-.1 0 .2 0 .1 0 .1-.1-.2-.1 0-.2h-.1.1c-.1 0-.2-.2-.1-.3l-.2-.1h.1c.1 0 0-.1.1-.1-.1-.1.1.2 0 .1.1 0-.2-.1 0-.1 0 0-.1-.1 0-.1 0 0 .2.1.1 0 0-.1 0 0-.1-.1-.1 0 0 0-.1-.1.1 0-.1-.1.1 0l.1.1-.2-.2h.1c-.2-.1 0-.1-.1-.2v-.1h.2c0-.1-.1-.1 0-.1v.1s.2 0 .3.1c0-.1-.1-.1-.2-.2.2.1 0-.2.2 0 0 0 0 .1.1.1.2.2 0-.2.1-.1l-.1-.1c.1.1 0-.1.1 0 0-.1.1 0 0-.1.2.1.1-.2.3.1v-.1c-.1-.1 0 .1 0 0v-.1s.1 0 .1.2c.1.1-.1-.3 0-.3 0 .1 0 .1.1.1v-.1c.1 0 .1.1.2.2v-.1l.1.1c-.1-.1 0-.1 0-.1 0-.1-.1-.1-.1-.1v-.1c0 .1.1.1.1.1v-.1.1s0 .2.1 0c0-.1-.1-.2 0-.2v.1h.1v-.1c0-.1.1-.1.1-.2h.1c0 .1.1 0 .1-.1l.1-.1v.3l.1-.3c.1 0 .2-.2.2 0v-.1c.1 0 .3-.3.3-.1 0 .1 0 .2-.1.2.1-.2 0 .1.1-.1 0-.1.1-.2 0-.3.1-.1.2-.2.2-.1 0-.1 0-.1.1-.2-.1.2-.1.3 0 .1l.1-.2v.1s.1-.3.1-.2 0 .1-.1.2c.1-.1.2-.4.2-.3l-.1.2.1-.2v.3c.2-.4.4-.6.6-.7v.2l-.1.1c-.1.2.1-.2.1-.1-.1.1-.1.3-.2.4-.1.2.1-.1.2-.1.1-.1-.1.1.1-.1 0 0-.1.2.1 0-.1.1-.2.3-.2.3l.1-.1c-.2.3-.3.3-.5.7-.1.3-.2.2-.2.3.1-.1.3-.4.4-.5l.3-.4c-.1.1 0 0-.1.2s.1 0 0 .1c0-.1.2-.3.2-.3-.1.1-.1.2-.1.2.1-.1.1-.1.2-.3.2-.2 0 .1.1 0-.1.2-.3.3-.4.5.1-.2.2-.1.4-.4 0 .1-.1.2-.2.3s.2-.2 0 .1l.1-.1c0 .1-.1.1-.1.2 0 0 .2-.1 0 .1 0 0 0 .1.1-.1.1-.1-.1 0 .1-.2-.1.2 0 .1.1 0l-.1.1h.1l-.1.1.1-.1c.1 0-.2.2-.2.3h-.1s-.1.1 0 .1c.1-.1.2-.2.3-.2 0 0-.1.1 0 .1l-.3.3s.2-.1.3-.2c0 0-.1.1-.1.2 0 0 .1-.1.2-.1l-.3.3-.2.1c-.1.1-.1.1-.3.2h.1c.2-.2.3-.2.5-.3.1.1-.5.4-.2.3.1 0 .2-.1.2-.1 0 .1.2-.1.1 0-.1 0-.2.2-.4.2.1 0 .1-.1 0-.1-.1.1-.2.1-.2.2 0 0 0 .1.1 0l.1-.1s-.1.2.1.1l.2-.2h-.1c-.1.1.1 0 .1.1l-.2.1c-.1 0 .1-.2-.2 0 0 .1.1 0 0 .1 0 0-.3.1-.1.2h.2c0 .1.1.1.1.2-.2 0 0 .1-.2.1.1 0 .1-.2-.1-.2-.2.1 0-.1-.2 0 0 .1-.2.1-.3.2h.1c.1 0 .1 0 .3-.1 0 .1 0 .1.1.1h-.2v.2c.2 0 0 .1.2 0 0 0 .2-.1.3 0h-.1c.1 0-.2 0 0 .1h-.4c.1 0-.1 0-.1 0 .1 0 .2.1.2.1-.1 0 0 .1 0 .2h-.2s-.1.1.1.1h-.4c-.1 0 0 .1 0 .1h.1c.1 0 0 .1 0 .1h-.1l-.3-.1h.2c.1 0 .1-.1 0-.1h-.3c-.1 0-.1 0-.1-.1h.1c-.1 0-.2 0-.1-.1.2 0-.1-.1-.1-.1.1 0 .3 0 .3.1.1 0 0 0 .1-.1-.1 0-.3 0-.3-.1h.1s-.2 0-.2-.1 0-.1.1-.2h.1c-.2 0-.1-.1-.2-.1.1-.1-.1-.1.1-.1-.1-.1-.1-.1-.1-.2l.1-.1c-.1 0 .1 0 .1-.1-.1.1-.1.1-.2.1.1-.1 0-.1-.1 0l.1-.1c-.2.1 0 0 0-.1l.1-.1c-.2.1-.1.1-.3.2 0 0 0-.1.1-.2-.2.2-.1 0-.2.1l.1-.2c-.1.1-.1.2-.1.1l-.1.1.2-.3c0-.1-.1.1-.2.3 0-.1-.1.2 0-.1l-.1.2c0-.1 0-.1 0 0 0-.1.1-.2.1-.2 0 .1 0-.1-.1.3 0-.2-.1.2 0-.1v.2s0-.1 0 0v-.1.2c0 .2 0-.1-.1-.1v.1s-.1.1-.2.1c0 .2-.2-.1 0 .1l-.1-.1c.1.1-.1-.1 0 .1-.1-.1 0 0-.1 0l-.1-.1c-.1 0 .2.1 0 0l.1.1s.1.1.1.2c-.1 0-.4-.1-.2 0 .1 0-.3 0-.1 0h.2c-.1 0-.2.1-.1.1H35c.2.1.1.1.4.2 0 .1.2.1.2 0 0 .1 0 0 0 0v.1c-.2.3-.1.3-.1.2v.1l.1-.3s-.1.2 0 .2v-.1.1-.2c0-.1 0 0 0 0 0 .1.1.1.1.1 0 .1.1-.1.2-.1.3.1.6.1.7-.2-.3.3-.2.7-.2.8zm-.1 0z"/><path d="M37.2 30.6s.1.1 0 0c0 0 0 .1 0 0zm0-.2c.1 0 .1.1.1.1l-.1-.1zm.3-.4zm-.1 0zm.2-.8c-.1 0-.1 0 0 0-.1 0 .1 0 0 0zm-.1-.2s0-.1 0 0c0-.1 0-.1 0 0zm-3.3.5v-.1.1zm-.6 1.7c.1.1 0 .1 0 0-.1 0 0 .1 0 0zm.4.9l.1-.1zm5.2-2.3c0 .1.1 0 0 0-.1.1-.1.1 0 0z"/><path d="M39.2 29.8c.1.4-.3.2-.3.4 0 0-.1-.2-.1-.1 0 .3-.3.3-.5.2v-.1.3c0 .4-.1 0-.1.3v-.1c-.1.3-.3.3-.4.5 0-.1 0-.2.1-.3 0 .2-.1.3-.1.3 0-.2-.1.2-.1.1-.1.2 0-.1-.1.2v-.2c-.1.3 0-.1-.1 0v.1c-.1.1 0-.1 0 0-.1.1 0 0-.1.2.1-.2.1-.1.2-.4l-.4.4v-.2c.1-.1.1-.2.1-.3l-.1.1s.1-.1.1-.2c.1-.1-.2.2-.1.1 0 0 .1-.1.1-.2l-.1.1.1-.1c-.1.1 0-.1-.1 0l.1-.1c.1-.2-.2.2-.1.1l.1-.1c-.2.2-.1 0-.2 0v-.1c0-.1.2-.2.2-.2-.2.2-.1 0-.3.2 0-.1.1-.2 0-.2.1 0 .2-.2.2-.2l.1-.1h.1s-.1 0 0 0c-.1 0-.3.1-.4.1.1 0 .2-.1.2-.1-.1 0-.2.1-.4.1l.1-.1h-.1s0-.1.1-.2h.1s-.1 0-.1-.1c0 0-.1-.1-.2 0h.1c-.1 0-.1 0-.1-.1h.1c-.1 0-.2-.1-.3-.2-.1 0 .2 0 .1 0 .1-.1-.2-.1 0-.2h-.1.1c-.1 0-.2-.2-.1-.3l-.2-.1h.1c.1 0 0-.1.1-.1-.1-.1.1.2 0 .1.1 0-.2-.1 0-.1 0 0-.1-.1 0-.1 0 0 .2.1.1 0 0-.1 0 0-.1-.1-.1 0 0 0-.1-.1.1 0-.1-.1.1 0l.1.1-.2-.2h.1c-.2-.1 0-.1-.1-.2v-.1h.2c0-.1-.1-.1 0-.1v.1s.2 0 .3.1c0-.1-.1-.1-.2-.2.2.1 0-.2.2 0 0 0 0 .1.1.1.2.2 0-.2.1-.1L37 28c.1.1 0-.1.1 0 0-.1.1 0 0-.1.2.1.1-.2.3.1v-.1c-.1-.1 0 .1 0 0v-.1s.1 0 .1.2c.1.1-.1-.3 0-.3 0 .1 0 .1.1.1v-.1c.1 0 .1.1.2.2v-.1l.1.1c-.1-.1 0-.1 0-.1 0-.1-.1-.1-.1-.1v-.1c0 .1.1.1.1.1v-.1.1s0 .2.1 0c0-.1-.1-.2 0-.2v.1h.1v-.1c0-.1.1-.1.1-.2h.1c0 .1.1 0 .1-.1l.1-.1v.3l.1-.3c.1 0 .2-.2.2 0V27c.1 0 .3-.3.3-.1 0 .1 0 .2-.1.2.1-.2 0 .1.1-.1 0-.1.1-.2 0-.3.1-.1.2-.2.2-.1 0-.1 0-.1.1-.2-.1.2-.1.3 0 .1l.1-.2v.1s.1-.3.1-.2 0 .1-.1.2c.1-.1.2-.4.2-.3l-.1.2.1-.2v.3c.2-.4.4-.6.6-.7v.2l-.1.1c-.1.2.1-.2.1-.1-.1.1-.1.3-.2.4-.1.2.1-.1.2-.1.1-.1-.1.1.1-.1 0 0-.1.2.1 0-.1.1-.2.3-.2.3l.1-.1c-.2.3-.3.3-.5.7-.1.3-.2.2-.2.3.1-.1.3-.4.4-.5l.3-.4c-.1.1 0 0-.1.2s.1 0 0 .1c0-.1.2-.3.2-.3-.1.1-.1.2-.1.2.1-.1.1-.1.2-.3.2-.2 0 .1.1 0-.1.2-.3.3-.4.5.1-.2.2-.1.4-.4 0 .1-.1.2-.2.3s.2-.2 0 .1l.1-.1c0 .1-.1.1-.1.2 0 0 .2-.1 0 .1 0 0 0 .1.1-.1.1-.1-.1 0 .1-.2-.1.2 0 .1.1 0l-.1.1h.1l-.1.1.1-.1c.1 0-.2.2-.2.3h-.1s-.1.1 0 .1c.1-.1.2-.2.3-.2 0 0-.1.1 0 .1l-.3.3s.2-.1.3-.2c0 0-.1.1-.1.2 0 0 .1-.1.2-.1l-.3.3-.2.1c-.1.1-.1.1-.3.2h.1c.2-.2.3-.2.5-.3.1.1-.5.4-.2.3.1 0 .2-.1.2-.1 0 .1.2-.1.1 0-.1 0-.2.2-.4.2.1 0 .1-.1 0-.1-.1.1-.2.1-.2.2 0 0 0 .1.1 0l.1-.1s-.1.2.1.1l.2-.2h-.1c-.1.1.1 0 .1.1l-.2.1c-.1 0 .1-.2-.2 0 0 .1.1 0 0 .1 0 0-.3.1-.1.2h.2c0 .1.1.1.1.2-.2 0 0 .1-.2.1.1 0 .1-.2-.1-.2-.2.1 0-.1-.2 0 0 .1-.2.1-.3.2h.1c.1 0 .1 0 .3-.1 0 .1 0 .1.1.1H40v.2c.2 0 0 .1.2 0 0 0 .2-.1.3 0h-.1c.1 0-.2 0 0 .1H40c.1 0-.1 0-.1 0 .1 0 .2.1.2.1-.1 0 0 .1 0 .2h-.2s-.1.1.1.1h-.4c-.1 0 0 .1 0 .1h.1c.1 0 0 .1 0 .1h-.2l-.3-.1h.2c.1 0 .1-.1 0-.1h-.3c-.1 0-.1 0-.1-.1h.1c-.1 0-.2 0-.1-.1.2 0-.1-.1-.1-.1.1 0 .3 0 .3.1.1 0 0 0 .1-.1-.1 0-.3 0-.3-.1h.1s-.2 0-.2-.1 0-.1.1-.2h.1c-.2 0-.1-.1-.2-.1.1-.1-.1-.1.1-.1-.1-.1-.1-.1-.1-.2l.1-.1c-.1 0 .1 0 .1-.1-.1.1-.1.1-.2.1.1-.1 0-.1-.1 0l.1-.1c-.2.1 0 0 0-.1l.1-.1c-.2.1-.1.1-.3.2 0 0 0-.1.1-.2-.2.2-.1 0-.2.1l.1-.2c-.1.1-.1.2-.1.1l-.1.1.2-.3c0-.1-.1.1-.2.3 0-.1-.1.2 0-.1l-.1.2c0-.1 0-.1 0 0 0-.1.1-.2.1-.2 0 .1 0-.1-.1.3 0-.2-.1.2 0-.1v.2s0-.1 0 0v-.1.2c0 .2 0-.1-.1-.1v.1s-.1.1-.2.1c0 .2-.2-.1 0 .1l-.1-.1c.1.1-.1-.1 0 .1-.1-.1 0 0-.1 0l-.1-.1c-.1 0 .2.1 0 0l.1.1s.1.1.1.2c-.1 0-.4-.1-.2 0 .1 0-.3 0-.1 0h.2c-.1 0-.2.1-.1.1h-.3c.2.1.1.1.4.2 0 .1.2.1.2 0 0 .1 0 0 0 0v.1c-.2.3-.1.3-.1.2v.1l.1-.3s-.1.2 0 .2v-.1.1-.2c0-.1 0 0 0 0 0 .1.1.1.1.1 0 .1.1-.1.2-.1.3.1.6.1.7-.2 0 .3.2.6.1.8z"/><path d="M39.1 29.8zm.9-.8zm0-.2c.1 0 .1.1.1.1l-.1-.1zm.3-.4c.1-.1.1-.1 0 0zm-.1 0zm.2-.8s-.1 0 0 0c-.1 0 .1 0 0 0zm-.1-.3s.1-.1 0 0zm-3.3.5v.1zm-.5 1.8s-.1 0 0 0c-.1 0 0 0 0 0zm.3.9l.2-.2zm-14 1.4c-.2.2.2 0-.1.1l.1-.1z"/><path d="M22.7 33c.4.8 0 1.8.3 2.6 0 .1-.2 0-.2.2.3.8.1 2-.1 3.1l-.1-.1c0 .3.1.4.1.7 0 0-.1 0-.1.1.1 0 .1.4.1.4 0 .1-.1.2-.2.4h.1c.1 0 .1 0 .1.2.2-.1.4-.1.8-.4 0 0-.1.1 0 .1.4-.3.7-.5 1-.8.3-.2.7-.4 1-.7 0 .1 0 .2.1.2 0-.1.1-.3.3-.4.1.1.2-.3.5-.3.1-.2.3-.1.3-.3h.2c0-.2.3 0 .4-.2.1-.1.2-.1.3-.2.2-.2.4-.2.4-.3.2.1-.2.2 0 .3.8-.6 1.7-1.1 2.5-1.6h.3c.1-.1.3-.2.4-.3h.1c.2 0 .1-.3.3-.3v.2c.1-.2.3-.3.5-.4v.1c.1-.2.4-.2.5-.3v.1c.3-.1 0-.2.3-.3v.1c.1-.3.5-.4.7-.6s.5-.3.7-.5c.1 0 .1.2.3 0-.1-.2.4-.3.1-.4.2-.1.6-.2.7-.4-.1.1.2.1 0 .3h.2c0 .1-.1.1-.1.1.1-.1.3-.3.4-.3.1-.2.1-.5.4-.6-.1.1.2.1.1.2l.2-.5c.1-.1.1.1.2 0V32s.4-.3.5-.1c.1 0-.1.1 0 .1.2-.1.1-.2.3-.3.1 0 .3-.3.1-.3-.1 0 .1.1 0 .1 0-.1.2-.3.4-.4v.2c.1-.3.4-.4.6-.6 0-.1 0 .2-.1.2.4-.1.6-.5.9-.5l-.1-.1c.2-.1.2 0 .3-.1 0 .1.1-.1.2-.2 0-.1 0 0 0 .1.1-.1.6-.6 1-.7 0 0 .1-.3.2-.3v.1c.1 0 .3-.2.3-.1.1-.2-.6.5-.4.2.1 0 .2-.3.2-.2.1-.1.2-.3.4-.3 0 0 0 .2.1.1.2-.1 0-.1.2-.2l.1-.1c0-.1.2-.1.1-.2.1.1.3-.2.4-.1v.1c.1-.1.1-.2.1-.3h.1c0-.1 0-.1.1-.2 0 0 .1 0 .1-.1h.2c0-.1 0-.1.1-.1-.1-.1-.1-.2-.1-.4 0 0 0 .1.1.1.1-.1 0-.2 0-.3 0 0 .1-.3.2-.4-.1-.2-.2-.1-.3-.1.2-.2-.1-.5.1-.7 0 .1.1.3.2.1.2-.2-.2-.3-.1-.6l-.2.1c.1-.1-.1-.4.1-.3-.1-.1.1-.3-.1-.3.1-.4-.1-1 .2-1.3 0-.1 0-.2-.1-.2-.1.1.1.1 0 .2 0 0 0-.1-.1-.1 0-.1 0-.2.2-.1.1-.3-.3-.3-.2-.7.1 0 .1 0 .1-.1l-.1-.2c0-.2.2-.1.3-.1 0-.1 0-.3-.1-.3l.2-.2c-.1.1-.1-.1-.1-.1v-.2c-.1 0-.1.1-.1.2 0 0 0-.1-.1-.1.1 0 .1-.1.1-.2s-.1 0-.1 0c.1 0 0-.1.1-.1 0 0-.1.1 0 .1 0-.1.2-.2.1-.2s-.2.2-.2.1c0 0 .1 0 .1-.1l.1-.2-.1.1V21c-.1.1 0-.1-.2 0 0 0 0-.1.1-.2 0-.1-.1 0-.2.2 0 0-.1.1-.1.2 0-.1.1-.5 0-.3-.1.1-.1.3-.1.4-.1 0-.1.2-.5.2v.1c-.4.2-.8.6-1.2.6.1-.1 0-.1-.1-.2 0 .1-.2 0-.1.1s.1.1.2.1c-.2.2-.6.4-.8.4.1 0 0 .1 0 .1-.1-.2-.3-.1-.4.1v.1h-.1c0 .1 0 .2-.1.2 0 0 0-.1-.1-.1-.1.2-.2.4-.4.4H39c-.1 0-.1.2 0 .2-.3.1-.5.2-.6.1-.3.5-.9.9-1.4 1.2v-.1c-.2 0 0 .2-.1.2 0-.1-.2-.1-.1-.2-.2 0-.2.3-.3.4 0 .1.1-.1.1 0 0 0-.3.1-.3.2-.1 0-.1-.1-.1-.2l-.1.1c-.2-.1.2-.5-.1-.5l-.1.1c-.2-.1.2-.3-.1-.2-.1.1-.1.4.1.4-.2.2.1.4-.2.5-.1 0 .2-.1.1-.2-.2 0-.2.2-.4.2.1 0 .1.2 0 .2-.2 0 0-.2-.2-.1 0 .1-.1.3 0 .2 0 .2-.2.1-.3.3-.1-.1 0-.4-.2-.3.1.1-.2.3 0 .4-.1 0-.2-.1-.1-.2-.2 0-.2.4-.3.2v.1h-.2c-.1.1-.3.3-.3.2 0 0-.3.2-.1.2s.1-.2.3-.1c-.2-.1-.2.1-.3.2v-.1c0 .1-.2.1-.1.2 0-.1 0-.1-.1-.1v.1c-.2.2-.1-.2-.3 0l.1-.2s-.1 0-.2.1v.4c-.1.1-.1-.1-.2.1l.1-.2s-.2-.1-.3 0-.1.3 0 .3h-.2c-.2.1.1.1 0 .2H32l.1-.2-.1.1c.1-.2-.1-.1-.1-.2-.1 0-.1.1-.2.2.3.1-.1.4.1.6-.3.2-.5-.4-.6.1.1 0 0 .3.2.1-.2.1 0 .3-.3.3.1-.2-.3-.1-.1-.3 0 .1.1 0 .2-.1-.1 0-.1-.2-.3-.1-.1.1-.3.2-.2.3s.2-.1.2 0c-.2.2-.3 0-.3.3.1-.1.2 0 .3.1l-.1.1v-.1c-.3.1 0 .2-.3.3l-.2-.1c0-.2.4-.2.2-.3-.2.1-.2.2-.4.3l.1-.1c-.1 0-.3-.2-.4.1-.1.1 0 .1 0 .2-.3.2-.3.3-.4.4 0-.2-.3.2-.2-.1.1 0 .5-.2.5-.4-.2-.1.2-.1.2-.3-.2.1-.3-.1-.4-.2-.1 0-.1.1-.1.1 0 .1.1.1.2.2-.3.1-.4.3-.5.5-.1 0-.1-.1-.1-.2-.3.2-.6.3-.9.5.3.1-.3.2-.1.3.2 0 .4 0 .3.1-.1 0 0-.1-.1-.1-.1.2-.3 0-.3.2.2-.2-.1-.2-.1-.4-.1.2 0-.1-.2 0-.1.2-.3.4-.5.5-.3 0-.6.4-.9.5-.2 0-.2-.2-.3-.2-.1.1.2.1-.1.2 0 .1-.5.1-.4.4v-.2l-.1.1s-.1-.1-.1-.2c-.2 0-.3.2-.4.3h.1c-.2.2-.4.2-.7.4v-.1l-.1.1c0-.1-.2-.1-.2 0l.3-.5c.1 0 0 .2.1.2s.3-.1.3-.2c-.1 0-.1.1-.1.1-.1-.1 0-.2 0-.3 0 0-.1 0-.1.1 0-.1.1-.2.3-.3-.1.1.1 0 .1.1-.1-.1.1-.2.3-.3.2.1.3-.3.5-.4 0 .2-.1.3-.2.5.2 0 .1-.1.3-.1 0-.1 0-.3.1-.5l.1.1c.1-.1.1-.3.3-.4.4-.2.7-.4 1-.5l.1.1c0-.3.5-.4.6-.6.4-.1.7-.5 1-.5.6-.4 1.1-.8 1.7-1.1v.2c.1-.2.1 0 .2 0-.2 0 .1-.2.1-.3.3-.1.6-.4.8-.6l.1.1c.1-.3.5-.3.9-.5.1 0 .2.1.3 0 .1-.2.2-.3.4-.5.2-.1.5-.2.7-.3.6-.6 1.3-.9 2-1.4l.1.1c.6-.6 1.5-.9 2-1.3v.2c.2 0 .4-.3.3-.4.2 0 .4-.3.6-.3.2-.1.2-.2.3-.3l.9-.5h-.1c0 .1 0 .1.1.1.1-.1.5-.2.3-.4.5-.1.8-.6 1.3-.7-.1 0 0-.1 0-.2.1-.1.2-.1.4-.2.1-.1.3-.2.5-.2.3-.1.5-.3.8-.5.1 0-.2.2.1.1.1-.1 0-.1.2-.3.4-.3.8-.5 1.2-.7 0 .7-.1 1.4-.1 2 0 .4 0 .8.1 1.3V24c.2.3-.2.8.1 1 0 .1 0 .3-.1.2.1.3-.1.7 0 1.1v-.1c-.1.4 0 .7 0 1.1 0 0 0-.1-.1-.1v.3c0 .1 0 .3-.1.3 0 .1.1.1.1 0v.8l-.8.5c-.2.2-.3.2-.5.3l-.9.6c-.6.2-.2-.3-.6.1-.1 0 0 .1 0 0-.1.2-.4-.1-.5.1.1.1 0 .1 0 .2-.4.1-.5 0-.7.3v-.1c-.2.4-.6.5-.8.8l-5 3.1-5.1 2.8c-.5.1-.5.1-.9.4v-.1c.1.2-.3.2-.3.3-.6.3-1.2.7-1.9 1.1.1-.1.1-.2 0-.1l-.1.2c-.1.1-.1.2 0 .2-.2.1-.4.3-.6.4l-1 .6-2.6 1.4.1-2.5v-1.8c.1-.4 0-1.1 0-1.5.2-1.4.4-2.7.2-4.1-.9.4-.4.6-.3 1.2zm.4-1.2c.1 0 .3 0 .2.2l-.2-.2z"/><path d="M27.3 30.3s0 .1 0 0c0 .1 0 .1 0 0zm1-.5c0 .1-.2.2-.3.3l.3-.3zm1-.3c0 .1 0 .1 0 0zm0-.2h.2s-.1.2-.2 0zm2.1-.9s.1-.1.2-.1c-.1 0-.2.2-.2.1zm.9-.6c.1-.1.1 0 0 0zm10.6-1.7V26zm-4.9 5c-.1.1-.1 0-.1 0 .1-.1 0 0 .1 0zm-3.7 2.5l.1.2z"/></g><path d="M42.2 22.2V25l-2.4 1.4v-2.8z" class="J"/><g class="I"><path d="M42.5 22.2s-.1.1 0 0zm-.5-.1c.1.4-.3.2-.3.4 0 0-.1-.2-.1-.1 0 .3-.3.3-.5.2v-.1.3s-.1-.1-.1-.2v.1c.1.3-.1 0-.1.2v-.1c0 .2-.1.3-.2.4 0 0-.1-.1-.1-.2.1.1 0 .2 0 .2-.1-.1 0 .2-.1.1 0 .2-.1 0 0 .1l-.1-.1c.1.2-.1-.1-.1 0h-.1c0 .1-.1 0 0 .1-.1-.1 0-.1-.2-.2 0 .1-.1.2-.2.3v.2h-.1s0 .1.1.1h-.1c-.1 0 .2.1.1.1h-.1l.1.1h-.1c.1.1 0 .1.1.1h-.1c-.1 0 .2 0 .1.1h-.1c.2 0 .1.1.2.2v.2h-.2c.2 0 .1.1.3 0 0 0-.1.1 0 .1-.1 0-.2.1-.2 0h-.2s.1.1 0 .1h.4c-.1 0-.2.1-.2.1.1 0 .2 0 .4-.1l-.1.1h.1l-.1.1H40h.1s.1 0 .2-.1c0 0-.1.1-.1 0 .1-.1.1-.1.1 0 0 0-.1 0-.1.1.1-.1.2-.1.3-.1.1-.1-.2.1-.1.1-.1.2.2-.1 0 .1l.1-.1s-.1.2-.1.1c-.1.1 0 0 0 0 .1 0 .2-.1.1 0 0-.1.2-.2.2-.2l-.1.2c-.1.1 0 0-.1.2.1-.2-.1.1 0 0-.1.1.2-.2 0 0 0 0 .1-.2 0 0 0 0-.2.2-.1.2 0 0 0-.1.1-.1v-.1l.1-.2c-.1.1.1-.1-.1.2l-.1.2s.1-.2.2-.3c0 0 0 .1-.1.1.2-.4 0 .1.1-.2v.1l-.1.2c.1-.1.2-.3.1-.2l-.1.1c0 .1 0 0 0-.1 0 .1-.1.2-.1.3a.76.76 0 0 0 .2-.4c-.1.3.1-.2 0 .1 0 0-.1.2-.1.3-.1.3.1-.3.1-.1l.1-.3c-.1.2.1-.2 0 .1 0-.1 0 .1.1-.2 0 .2.1-.2 0 .3v-.1c0-.1 0 .1 0 0v-.1s0 .1-.1.3c0 .1.1-.4.1-.3v.1-.2.3c0 .1 0 0 0 0v-.1s0-.1 0 0v.1-.1.1-.1.1-.1c0 .1 0 0 0-.1V25c0 .1.1.4.1.3 0 0 0-.2-.1-.3 0 .1 0-.1.1 0v-.1s.1-.2.2 0c0 0 0 .1.1.2 0-.1.1.1 0-.1 0-.1-.1-.1-.1-.2s.1-.1.1 0c0 0 0-.1-.1-.1.1.1.1.2.1.1l-.1-.1.1.1s-.1-.2-.1-.1c0 0 0 .1.1.1 0-.1-.1-.2-.1-.1l.1.1-.1-.1c.1 0 .1 0 .2.1-.1-.2-.2-.2-.2-.2h.1c.1 0-.1-.1-.1 0 .1 0 .1.1.2.1s-.1-.1-.2-.1.1 0-.1 0c0 0 .1 0-.1 0 .1 0 .2.1.2.1H41c.2 0 .3.1.5.2.1 0 .2.1.2.1-.1 0-.3-.1-.4-.1 0 0-.4-.1-.3-.1h.1c.1 0-.1 0 0 0h-.2c.1 0-.2 0 0 0h-.1.1s-.2-.1 0-.1h-.1c-.1 0 .1 0-.1 0 .1 0 0 0-.1-.1-.1 0 .2 0 .2 0h.1-.2.2-.4c.1 0 .2 0 .3-.1h.4-.5c-.1-.1.5 0 .2-.1h-.2s-.2 0-.1-.1h.4c-.1 0-.1 0 0 0 0 0 .1 0-.1-.1h-.1c.1 0-.1 0-.1-.1h.2c.1 0-.1.1.2.1 0 0-.1 0 0-.1 0 0 .3 0 .1-.1H41l-.1-.1c.2 0 0-.1.2 0-.1 0-.1.1.1.1h.1s0-.1-.1-.1h.2v-.2c-.2 0 0-.1-.2 0H41c-.1 0 .2 0 0-.1h.4c-.1 0 .1 0 .1 0-.1 0-.2-.1-.2-.1.1 0 0-.1 0-.2h.2s.1-.1-.1-.1h.4c.1 0 0-.1 0-.1h-.1c-.1 0 0-.1 0-.1h.1l.3.1h-.2c-.1 0-.1.1 0 .1h.3c.1 0 .1 0 .1.1h-.1c.1 0 .2 0 .1.1-.2 0 .1.1.1.1-.1 0-.3 0-.3-.1-.1 0 0 0-.1.1.1 0 .3 0 .3.1h-.1s.2 0 .2.1 0 .1-.1.2h.2c.2 0 .1.1.2.1-.1.1.1.2-.1.2.1.1.1.2.1.3h-.1c.1 0-.1 0-.1 0h.2c-.1.1 0 .1.1.2h-.1c.2 0 0 .1 0 .2h-.1c.2 0 .1 0 .3.1 0 0 0 .1-.1.1.2.2.1.4.2.7h-.1c.1.1.1.3.1.3-.1.1-.3.1-.3.2l-.1-.2c-.1 0-.1.1 0 .2-.1 0-.1.2-.2 0-.1 0 0 .1 0 .2-.1 0-.2 0-.2.1l-.1-.1c0 .1-.1 0 0 .2-.1-.1-.1.2-.3.1v.1c-.1.1-.3 0-.3.2V27v.1c-.1.2-.4.1-.5.2-.3.3-.5.4-.8.6v-.1c-.2.3-.1-.2-.3.3 0-.1-.1 0 0-.1-.1.2-.1-.1-.3.2v-.1c0-.1-.2.2-.2.1 0 0 .1-.1.1-.2s-.3.4-.1 0l-.1.2h-.1c0-.2-.1-.3-.1-.5.1-.4.4-.5.2-.5 0-.1-.1.1 0 0-.1 0 .3-.4.1-.3-.1.2-.1.1-.2.2.1-.2.2-.4.1-.3l.1-.1c-.2.1-.1-.1-.4 0 0-.3-.1-.6-.1-.9 0-.2 0-.3-.1-.5v-1.8c.1 0 .2-.1.4-.1.3.1.3.1.4-.1-.1-.1.1-.1 0-.2.1 0 .2-.1.3-.2s.1-.1.2-.1c0 0 0 .2.1.1v-.1s0-.1-.1-.2c.2-.3.7-.2.9-.4.1 0 .2-.1.2-.2.3.1.6.1.7-.2 0-.2.2.2.1.3z"/><path d="M42.5 22.3h-.2.2zm-.8.8s-.1 0 0 0c-.1 0-.2-.1 0 0-.1 0-.1-.1 0 0zm-.1.1c-.1 0-.1 0-.1-.1l.1.1zm-.3.2c0 .1-.1 0 0 0z"/><path d="M41.5 23.4c0 .1-.1.1 0 0 0 .1-.1 0 0 0zm-.2.4s.1.1 0 0c0 .1-.1 0 0 0zm.1.2c0 .1-.1 0 0 0zm-.9 1.3h.1l-.1.1zm-.1-.4c-.1 0 0 0 0 0s-.1 0 0 0zm-.4-.4v.1h-.2z"/></g><path d="M39.4 23.8v2.8L37 28v-2.8z" class="J"/><g class="I"><path d="M39.7 23.9c-.1-.1-.2 0 0 0 0-.1 0-.1 0 0zm-.5-.2c.1.4-.3.2-.3.4 0 0-.1-.2-.1-.1 0 .3-.3.3-.5.2v-.1.3s-.1-.1-.1-.2v.1c.1.3-.1 0-.1.2v-.1c0 .2-.1.3-.2.4 0 0-.1-.1-.1-.2.1.1 0 .2 0 .2-.1-.1 0 .2-.1.1 0 .2-.1 0 0 .1l-.1-.1c.1.2-.1-.1-.1 0h-.1c0 .1-.1 0 0 .1-.1-.1 0-.1-.2-.2 0 .1-.1.2-.2.3v.2h-.1s0 .1.1.1h-.1c-.1 0 .2.1.1.1h-.1l.1.1h-.1c.1.1 0 .1.1.1h-.1c-.1 0 .2 0 .1.1h-.1c.2 0 .1.1.2.2v.2h-.2c.2 0 .1.1.3 0 0 0-.1.1 0 .1-.1 0-.2.1-.2 0h-.2s.1.1 0 .1h.4c-.1 0-.2.1-.2.1.1 0 .2 0 .4-.1l-.1.1h.1l-.1.1h-.1.1s.1 0 .2-.1c0 0-.1.1-.1 0 .1-.1.1-.1.1 0 0 0-.1 0-.1.1.1-.1.2-.1.3-.1.1-.1-.2.1-.1.1-.1.2.2-.1 0 .1l.1-.1s-.1.2-.1.1c-.1.1 0 0 0 0 .1 0 .2-.1.1 0 0-.1.2-.2.2-.2l-.1.2c-.1.1 0 0-.1.2.1-.2-.1.1 0 0-.1.1.2-.2 0 0 0 0 .1-.2 0 0 0 0-.2.2-.1.2 0 0 0-.1.1-.1v-.1l.1-.2c-.1.1.1-.1-.1.2l-.1.2s.1-.2.2-.3c0 0 0 .1-.1.1.2-.4 0 .1.1-.2v.1l-.1.2c.1-.1.2-.3.1-.2l-.1.1c0 .1 0 0 0-.1 0 .1-.1.2-.1.3a.76.76 0 0 0 .2-.4c-.1.3.1-.2 0 .1 0 0-.1.2-.1.3-.1.3.1-.3.1-.1l.1-.3c-.1.2.1-.2 0 .1 0-.1 0 .1.1-.2 0 .2.1-.2 0 .3v-.1c0-.1 0 .1 0 0v-.1s0 .1-.1.3c0 .1.1-.4.1-.3v.1-.2.3c0 .1 0 0 0 0v-.1s0-.1 0 0v.1-.1.1-.1.1-.1c0 .1 0 0 0-.1v-.1c0 .1.1.4.1.3 0 0 0-.2-.1-.3 0 .1 0-.1.1 0v-.1s.1-.2.2 0c0 0 0 .1.1.2 0-.1.1.1 0-.1 0-.1-.1-.1-.1-.2s.1-.1.1 0c0 0 0-.1-.1-.1.1.1.1.2.1.1l-.1-.1.1.1s-.1-.2-.1-.1c0 0 0 .1.1.1 0-.1-.1-.2-.1-.1l.1.1-.1-.1c.1 0 .1 0 .2.1-.1-.2-.2-.2-.2-.2h.1c.1 0-.1-.1-.1 0 .1 0 .1.1.2.1s-.1-.1-.2-.1.1 0-.1 0c0 0 .1 0-.1 0 .1 0 .2.1.2.1h-.1c.2 0 .3.1.5.2.1 0 .2.1.2.1-.1 0-.3-.1-.4-.1 0 0-.4-.1-.3-.1h.1c.1 0-.1 0 0 0h-.2c.1 0-.2 0 0 0H38h.1s-.2-.1 0-.1H38c-.1 0 .1 0-.1 0 .1 0 0 0-.1-.1-.1 0 .2 0 .2 0h.1-.2.2-.4c.1 0 .2 0 .3-.1h.4-.5c-.1-.1.5 0 .2-.1h-.2s-.2 0-.1-.1h.4c-.1 0-.1 0 0 0 0 0 .1 0-.1-.1H38c.1 0-.1 0-.1-.1h.2c.1 0-.1.1.2.1 0 0-.1 0 0-.1 0 0 .3 0 .1-.1h-.2l-.1-.1c.2 0 0-.1.2 0-.1 0-.1.1.1.1h.1s0-.1-.1-.1h.2v-.2c-.2 0 0-.1-.2 0h-.2c-.1 0 .2 0 0-.1h.4c-.1 0 .1 0 .1 0-.1 0-.2-.1-.2-.1.1 0 0-.1 0-.2h.2s.1-.1-.1-.1h.4c.1 0 0-.1 0-.1h-.1c-.1 0 0-.1 0-.1h.1l.3.1h-.2c-.1 0-.1.1 0 .1h.3c.1 0 .1 0 .1.1h-.1c.1 0 .2 0 .1.1-.2 0 .1.1.1.1-.1 0-.3 0-.3-.1-.1 0 0 0-.1.1.1 0 .3 0 .3.1h-.1s.2 0 .2.1 0 .1-.1.2h-.1c.2 0 .1.1.2.1-.1.1.1.2-.1.2.1.1.1.2.1.3h-.1c.1 0-.1 0-.1 0h.2c-.1.1 0 .1.1.2h-.1c.2 0 0 .1 0 .2h-.1c.2 0 .1 0 .3.1 0 0 0 .1-.1.1.2.2.1.4.2.7h-.1c.1.1.1.3.1.3-.1.1-.3.1-.3.2l-.1-.2c-.1 0-.1.1 0 .2-.1 0-.1.2-.2 0-.1 0 0 .1 0 .2-.1 0-.2 0-.2.1l-.1-.1c0 .1-.1 0 0 .2-.1-.1-.1.2-.3.1v.1c-.1.1-.3 0-.3.2v-.1.1c-.1.2-.4.1-.5.2-.3.3-.5.4-.8.6v-.1c-.2.3-.1-.2-.3.3 0-.1-.1 0 0-.1-.1.2-.1-.1-.3.2v-.1c0-.1-.2.2-.2.1 0 0 .1-.1.1-.2s-.3.4-.1 0l-.1.2h-.1c0-.2-.1-.3-.1-.5.1-.4.4-.5.2-.5 0-.1-.1.1 0 0-.1 0 .3-.4.1-.3-.1.2-.1.1-.2.2.1-.2.2-.4.1-.3l.1-.1c-.2.1-.1-.1-.4 0 0-.3-.1-.6-.1-.9 0-.2 0-.3-.1-.5v-1.8c.1 0 .2-.1.4-.1.3.1.3.1.4-.1-.1-.1.1-.1 0-.2.1 0 .2-.1.3-.2s.1-.1.2-.1c0 0 0 .2.1.1v-.1s0-.1-.1-.2c.2-.3.7-.2.9-.4.1 0 .2-.1.2-.2.3.1.6.1.7-.2.3-.2.4.2.4.3z"/><path d="M39.7 23.9h-.2.2zm-.8.8s-.1 0 0 0c-.1 0-.2 0 0 0-.1 0-.1 0 0 0zm-.1.2c-.1 0-.1 0-.1-.1l.1.1zm-.3.2s-.1 0 0 0c0-.1 0 0 0 0z"/><path d="M38.7 25.1s-.1 0 0 0c-.1 0-.2 0 0 0zm-.2.4s-.1 0 0 0zm.1.1c0 .1 0 .1 0 0-.1.1-.1.1 0 0zm-.9 1.4l.1-.1-.1.1zm-.2-.4s.1-.1 0 0c.1-.1 0-.1 0 0zm-.3-.4H37z"/></g><path d="M31 32v2.8l-2.4 1.3-.1-2.7z" class="J"/><g class="I"><path d="M31.2 32s-.1 0 0 0z"/><path d="M30.8 31.9c.1.4-.3.2-.3.4 0 0-.1-.2-.1-.1 0 .3-.3.3-.5.2v-.1.3s-.1-.1-.1-.2v.1c.1.3-.1 0-.1.2v-.1c0 .2-.1.3-.2.4 0 0-.1-.1-.1-.2.1.1 0 .2 0 .2-.1-.1 0 .2-.1.1 0 .1-.1 0 0 .1l-.1-.1c.1.2-.1-.1-.1 0H29c0 .1-.1 0 0 .1-.1-.1 0-.1-.2-.2 0 .1-.1.2-.2.3v.2h-.1s0 .1.1.1h-.1c-.1 0 .2.1.1.1h-.1l.1.1h-.1c.1.1 0 .1.1.1h-.1c-.1 0 .2 0 .1.1h-.1c.2 0 .1.1.2.2v.2h-.2c.2 0 .1.1.3 0 0 0-.1.1 0 .1-.1 0-.2.1-.2 0h-.2s.1.1 0 .1h.4c-.1 0-.2.1-.2.1.1 0 .2 0 .4-.1l-.1.1h.1l-.1.1h-.1.1s.1 0 .2-.1c0 0-.1.1-.1 0 .1-.1.1-.1.1 0 0 0-.1 0-.1.1.1-.1.2-.1.3-.1.1-.1-.2.1-.1.1-.1.2.2-.1 0 .1l.1-.1s-.1.2-.1.1c-.1.1 0 0 0 0 .1 0 .2-.1.1 0 0-.1.2-.2.2-.2l-.1.2c-.1.1 0 0-.1.2.1-.2-.1.1 0 0-.1.1.2-.2 0 0 0 0 .1-.2 0 0 0 0-.2.2-.1.2 0 0 0-.1.1-.1v-.1l.1-.2c-.1.1.1-.1-.1.2l-.1.2s.1-.2.2-.3c0 0 0 .1-.1.1.2-.4 0 .1.1-.2v.1l-.1.2c.1-.1.2-.3.1-.2l-.1.1c0 .1 0 0 0-.1 0 .1-.1.2-.1.3a.76.76 0 0 0 .2-.4c-.1.3.1-.2 0 .1 0 0-.1.2-.1.3-.1.3.1-.3.1-.1l.1-.3c-.1.2.1-.2 0 .1 0-.1 0 .1.1-.2 0 .2.1-.2 0 .3V35c0-.1 0 .1 0 0v-.1s0 .1-.1.3c0 .1.1-.4.1-.3v.1-.2.3c0 .1 0 0 0 0V35s0-.1 0 0v.1-.1.1-.1.1-.1c0 .1 0 0 0-.1v-.1c0 .1.1.4.1.3 0 0 0-.2-.1-.3 0 .1 0-.1.1 0v-.1s.1-.2.2 0c0 0 0 .1.1.2 0-.1.1.1 0-.1 0-.1-.1-.1-.1-.2s.1-.1.1 0c0 0 0-.1-.1-.1.1.1.1.2.1.1l-.1-.1.1.1s-.1-.2-.1-.1c0 0 0 .1.1.1 0-.1-.1-.2-.1-.1l.1.1-.1-.1c.1 0 .1 0 .2.1-.1-.2-.2-.2-.2-.2h.1c.1 0-.1-.1-.1 0 .1 0 .1.1.2.1s-.1-.1-.2-.1.1 0-.1 0c0 0 .1 0-.1 0 .1 0 .2.1.2.1h-.1c.2 0 .3.1.5.2.1 0 .2.1.2.1-.1 0-.3-.1-.4-.1 0 0-.4-.1-.3-.1h.1c.1 0-.1 0 0 0h-.2c.1 0-.2 0 0 0h-.1.1s-.2-.1 0-.1h-.1c-.1 0 .1 0-.1 0 .1 0 0 0-.1-.1-.1 0 .2 0 .2 0h.1-.2.2-.4c.1 0 .2 0 .3-.1h.4-.5c-.1-.1.5 0 .2-.1h-.2s-.2 0-.1-.1h.4c-.1 0-.1 0 0 0 0 0 .1 0-.1-.1h-.1c.1 0-.1 0-.1-.1h.2c.1 0-.1.1.2.1 0 0-.1 0 0-.1 0 0 .3 0 .1-.1h-.2l-.1-.1c.2 0 0-.1.2 0-.1 0-.1.1.1.1h.1s0-.1-.1-.1h.2v-.2c-.2 0 0-.1-.2 0h-.2c-.1 0 .2 0 0-.1h.4c-.1 0 .1 0 .1 0-.1 0-.2-.1-.2-.1.1 0 0-.1 0-.2h.2s.1-.1-.1-.1h.4c.1 0 0-.1 0-.1h-.1c-.1 0 0-.1 0-.1h.1l.3.1h-.2c-.1 0-.1.1 0 .1h.3c.1 0 .1 0 .1.1H31c.1 0 .2 0 .1.1-.2 0 .1.1.1.1-.1 0-.3 0-.3-.1-.1 0 0 0-.1.1.1 0 .3 0 .3.1H31s.2 0 .2.1 0 .1-.1.2H31c.2 0 .1.1.2.1-.1.1.1.2-.1.2.1.1.1.2.1.3h-.1c.1 0-.1 0-.1 0h.2c-.1.1 0 .1.1.2h.2c.2 0 0 .1 0 .2h-.1c.2 0 .1 0 .3.1 0 0 0 .1-.1.1.2.2.1.4.2.7h-.1c.1.1.1.3.1.4-.1.1-.3.1-.3.2l-.1-.2c-.1 0-.1.1 0 .2-.1 0-.1.2-.2 0-.1 0 0 .1 0 .2-.1 0-.2 0-.3.1l-.1-.1c0 .1-.1 0 0 .2-.1-.1-.1.2-.3.1v.1c-.1.1-.3 0-.3.2v-.1.1c-.1.2-.4.1-.5.2-.3.3-.5.4-.8.6v-.1c-.2.3-.1-.2-.3.3 0-.1-.1 0 0-.1-.1.2-.1-.1-.3.2V38c0-.1-.2.2-.2.1 0 0 .1-.1.1-.2s-.3.4-.1 0l-.1.2h-.1c0-.2-.1-.3-.1-.5.1-.4.4-.5.2-.5 0-.1-.1.1 0 0-.1 0 .3-.4.1-.3-.1.2-.1.1-.2.2.1-.2.2-.4.1-.3l.1-.1c-.2.1-.1-.1-.4 0 0-.3-.1-.6-.1-.9 0-.2 0-.3-.1-.5v-1.8c.1 0 .2-.1.3-.1.3.1.3.1.4-.1-.1-.1.1-.1 0-.2.1 0 .2-.1.3-.2s.1-.1.2-.1c0 0 0 .2.1.1v-.1s0-.1-.1-.2c.2-.3.7-.2.9-.4.1 0 .2-.1.2-.2.3.1.6.1.7-.2.1-.4.3 0 .3.2z"/><path d="M31.3 32h-.2c0 .1.1 0 .2 0zm-.9.8s-.1 0 0 0c-.1 0 0 0 0 0zm0 .2c-.1 0-.1 0-.1-.1l.1.1zm-.3.2c-.1 0-.1 0 0 0-.1 0-.1 0 0 0z"/><path d="M30.2 33.2s-.1 0 0 0zm-.2.4c.1 0-.1 0 0 0zm.1.2s-.1 0 0 0zm-.8 1.3zm-.2-.4s.1-.1 0 0c.1-.1 0 0 0 0zm-.4-.4h-.1z"/></g><path d="M33.8 27.1v2.8l-2.4 1.4v-2.8z" class="J"/><g class="I"><path d="M34 27.1s-.1 0 0 0z"/><path d="M33.6 27c.1.4-.3.2-.3.4 0 0-.1-.2-.1-.1 0 .3-.3.3-.5.2v-.1.3s-.1-.1-.1-.2v.1c.1.3-.1 0-.1.2v-.1c0 .2-.1.3-.2.4 0 0-.1-.1-.1-.2.1.1 0 .2 0 .2-.1-.1 0 .2-.1.1 0 .2-.1 0 0 .1l-.1-.1c.1.2-.1-.1-.1 0h-.1c0 .1-.1 0 0 .1-.1-.1 0-.1-.2-.2 0 .1-.1.2-.2.3v.2h-.1s0 .1.1.1h-.1c-.1 0 .2.1.1.1h-.1l.1.1h-.1c.1.1 0 .1.1.1h-.1c-.1 0 .2 0 .1.1h-.1c.2 0 .1.1.2.2v.2h-.2c.2 0 .1.1.3 0 0 0-.1.1 0 .1-.1 0-.2.1-.2 0h-.2s.1.1 0 .1h.4c-.1 0-.2.1-.2.1.1 0 .2 0 .4-.1l-.1.1h.1l-.1.1h-.1.1s.1 0 .2-.1c0 0-.1.1-.1 0 .1-.1.1-.1.1 0 0 0-.1 0-.1.1.1-.1.2-.1.3-.1.1-.1-.2.1-.1.1-.1.2.2-.1 0 .1l.1-.1s-.1.2-.1.1c-.1.1 0 0 0 0 .1 0 .2-.1.1 0 0-.1.2-.2.2-.2l-.1.2c-.1.1 0 0-.1.2.1-.2-.1.1 0 0-.1.1.2-.2 0 0 0 0 .1-.2 0 0 0 0-.2.2-.1.2 0 0 0-.1.1-.1v-.1l.1-.2c-.1.1.1-.1-.1.2l-.1.2s.1-.2.2-.3c0 0 0 .1-.1.1.2-.4 0 .1.1-.2v.1l-.1.2c.1-.1.2-.3.1-.2l-.1.1c0 .1 0 0 0-.1 0 .1-.1.2-.1.3a.76.76 0 0 0 .2-.4c-.1.3.1-.2 0 .1 0 0-.1.2-.1.3-.1.3.1-.3.1-.1l.1-.3c-.1.2.1-.2 0 .1 0-.1 0 .1.1-.2 0 .2.1-.2 0 .3v-.1c0-.1 0 .1 0 0V30s0 .1-.1.3c0 .1.1-.4.1-.3v.1-.2.3c0 .1 0 0 0 0v-.1s0-.1 0 0v.1-.1.1-.1.1-.1c0 .1 0 0 0-.1v-.1c0 .1.1.4.1.3 0 0 0-.2-.1-.3 0 .1 0-.1.1 0v-.1s.1-.2.2 0c0 0 0 .1.1.2 0-.1.1.1 0-.1 0-.1-.1-.1-.1-.2s.1-.1.1 0c0 0 0-.1-.1-.1.1.1.1.2.1.1l-.1-.1.1.1s-.1-.2-.1-.1c0 0 0 .1.1.1 0-.1-.1-.2-.1-.1l.1.1-.1-.1c.1 0 .1 0 .2.1-.1-.2-.2-.2-.2-.2h.1c.1 0-.1-.1-.1 0 .1 0 .1.1.2.1s-.1-.1-.2-.1.1 0-.1 0c0 0 .1 0-.1 0 .1 0 .2.1.2.1h-.1c.2 0 .3.1.5.2.1 0 .2.1.2.1-.1 0-.3-.1-.4-.1 0 0-.4-.1-.3-.1h.1c.1 0-.1 0 0 0h-.2c.1 0-.2 0 0 0h-.1.1s-.2-.1 0-.1h-.1c-.1 0 .1 0-.1 0 .1 0 0 0-.1-.1-.1 0 .2 0 .2 0h.1-.2.2-.4c.1 0 .2 0 .3-.1h.4-.5c-.1-.1.5 0 .2-.1h-.2s-.2 0-.1-.1h.4c-.1 0-.1 0 0 0 0 0 .1 0-.1-.1h-.1c.1 0-.1 0-.1-.1h.2c.1 0-.1.1.2.1 0 0-.1 0 0-.1 0 0 .3 0 .1-.1h-.2l-.1-.1c.2 0 0-.1.2 0-.1 0-.1.1.1.1h.1s0-.1-.1-.1h.2v-.2c-.2 0 0-.1-.2 0h-.2c-.1 0 .2 0 0-.1h.4c-.1 0 .1 0 .1 0-.1 0-.2-.1-.2-.1.1 0 0-.1 0-.2h.2s.1-.1-.1-.1h.4c.1 0 0-.1 0-.1h-.1c-.1 0 0-.1 0-.1h.1l.3.1h-.2c-.1 0-.1.1 0 .1h.3c.1 0 .1 0 .1.1h-.1c.1 0 .2 0 .1.1-.2 0 .1.1.1.1-.1 0-.3 0-.3-.1-.1 0 0 0-.1.1.1 0 .3 0 .3.1h-.1s.2 0 .2.1 0 .1-.1.2h-.1c.2 0 .1.1.2.1-.1.1.1.2-.1.2.1.1.1.2.1.3h-.1c.1 0-.1 0-.1 0h.2c-.1.1 0 .1.1.2H34c.2 0 0 .1 0 .2h-.1c.2 0 .1 0 .3.1 0 0 0 .1-.1.1.2.2.1.4.2.7h-.1c.1.1.1.3.1.3-.1.1-.3.1-.3.2l-.1-.2c-.1 0-.1.1 0 .2-.1 0-.1.2-.2 0-.1 0 0 .1 0 .2-.1 0-.2 0-.2.1l-.1-.1c0 .1-.1 0 0 .2-.1-.1-.1.2-.3.1v.1c-.1.1-.3 0-.3.2v-.1.1c-.1.2-.4.1-.5.2-.3.3-.5.4-.8.6v-.1c-.2.3-.1-.2-.3.3 0-.1-.1 0 0-.1-.1.2-.1-.1-.3.2V33c0-.1-.2.2-.2.1 0 0 .1-.1.1-.2s-.3.4-.1 0l-.1.2h-.1c0-.2-.1-.3-.1-.5.1-.4.4-.5.2-.5 0-.1-.1.1 0 0-.1 0 .3-.4.1-.3-.1.2-.1.1-.2.2.1-.2.2-.4.1-.3l.1-.1c-.2.1-.1-.1-.4 0 0-.3-.1-.6-.1-.9 0-.2 0-.3-.1-.5v-1.8c.1 0 .2-.1.4-.1.3.1.3.1.4-.1-.1-.1.1-.1 0-.2.1 0 .2-.1.3-.2s.1-.1.2-.1c0 0 0 .2.1.1v-.1s0-.1-.1-.2c.2-.3.7-.2.9-.4.1 0 .2-.1.2-.2.3.1.6.1.7-.2.2-.2.4.1.4.3z"/><path d="M34.1 27.2h-.2.2zm-.9.7s-.1 0 0 0c-.1 0 0 0 0 0zm0 .2c-.1 0-.1 0-.1-.1l.1.1zm-.3.2c-.1 0-.1 0 0 0-.1 0-.1 0 0 0zm.1 0s-.1 0 0 0zm-.2.4c.1 0-.1 0 0 0zm.1.2zm-.8 1.3v-.1.2zm-.2-.4s.1-.1 0 0c.1-.1 0 0 0 0zm-.4-.4h-.1z"/></g><path d="M22.8 32.2l-8.6-5 20.6-11.9 8.6 5z" fill="#4d7593"/><g class="I"><path d="M22.6 32.4c.2.1 0-.2.2 0-.1.1-.2.1-.2 0zm1-.4c.5-.7 1.6-.9 2.2-1.6.1-.1.1.2.3 0 .6-.7 1.8-1.2 2.8-1.5v.1c.2-.1.3-.3.5-.4v.1c0-.1.3-.2.3-.4.1 0 .1.1.3.1v-.2c.1-.4.7-.4 1-.8v.1c.5-.5 1.3-1 2-1.4 0 .1 0 .2.1.2 0-.1.2-.3.3-.4.2.1.3-.3.5-.4.1-.2.3-.1.3-.3h.2c0-.2.3 0 .4-.2.1-.1.2-.1.3-.2.3-.2.5-.2.4-.3.2 0-.2.2 0 .3.8-.7 1.8-1.2 2.7-1.7h.3c.1-.1.3-.2.4-.3h.1c.2 0 .1-.3.3-.3v.2c.1-.2.3-.3.5-.4v.1c.1-.2.4-.2.5-.4v.1c.3-.1 0-.2.3-.3v.1c.1-.3.5-.4.8-.6.2-.2.5-.3.7-.5.1 0 .2.2.4 0-.2-.1.3-.3-.1-.3.2-.1.5-.2.6-.3h-.1c.2 0 .3-.1.5 0 0 0 0-.1.1-.1.2 0 .1.1.3.1-.1-.1-.6-.2-.6-.3-.4-.1-.8-.1-1-.2.2 0 .1-.2.2-.1h-.6c-.1 0 .1-.1-.1-.2h-.1s-.4-.2-.4-.4c0-.1.2.1.1-.1-.2-.1-.2 0-.4-.2-.1-.1-.4-.1-.3 0 .1 0 0-.1.1 0-.1 0-.4 0-.5-.1.1 0 .1 0 .1-.1-.3 0-.6-.1-.9-.2 0 .1.2-.1.2 0-.3-.3-.8-.3-1-.6v.1c-.1-.1-.1-.2-.2-.2 0-.1-.1-.1-.3-.1-.1 0 0 0 .1 0-.2 0-.8-.3-1.1-.6h-.4l.1-.1c0-.1-.3-.2-.2-.2-.2 0 .7.3.4.2 0-.1-.4 0-.3-.1-.2-.1-.4-.1-.5-.3 0 0 .2-.1.1-.1-.2-.1-.1 0-.3-.1h-.1c-.1.1-.2-.1-.2 0 0-.1-.4-.1-.2-.3l.1-.1h-.4v-.1c-.1.1-.1 0-.2 0 0 0-.1-.1-.1 0 0-.1-.1-.1-.1-.1h-.2s-.1.1-.1.2c0 0-.1.1-.2.1l.1-.1c-.1 0-.1.1-.2.2h-.5c-.1.2 0 .2 0 .3-.3-.1-.4.4-.6.3 0-.1.2-.2 0-.2-.3-.1-.2.3-.5.3l.1.1c-.2 0-.3.3-.4.1 0 .1-.3.1-.2.3-.5.1-.9.6-1.3.5 0 .1-.2.1-.1.2.1 0 .1-.1.2-.1v.1c-.1 0-.2.1-.2-.1-.3.1-.1.4-.5.5 0-.1-.1-.1-.1 0l-.1.2c-.2.1-.2-.1-.3-.2-.1.1-.3.2-.3.3h-.2c.2 0-.1.1-.1.2v-.1l-.2.1c0 .1.2 0 .3 0 0 .1-.1.1-.2.2 0-.1-.2 0-.3.1-.1 0-.1.2-.1.2s-.2.1-.1 0c0 0 .1 0 .1-.1-.1 0-.1-.1-.2 0s.1.2-.1.3v-.2l-.2.1v.1c0 .1-.3.2-.3.3-.1.1-.2 0-.3.1-.1 0-.3.1-.3.3-.1 0-.2.1-.3.2-.2 0-.3-.3-.4-.1-.2.1-.1.3 0 .3-.3.1-.6.5-.9.5v.1c-.4.2-.8.6-1.3.6.1-.1 0-.1-.1-.2 0 .1-.2 0-.1.2.1.1.1.1.2.1-.2.2-.6.4-.8.4.1 0 0 .1 0 .1-.1-.2-.3-.1-.4.1v.1H23c0 .1 0 .2-.1.2 0 0 0-.1-.1-.1-.1.2-.2.4-.4.4h-.2c-.1 0-.1.2 0 .2-.3.1-.5.2-.6.1-.3.5-1 .9-1.5 1.2v-.1c-.2 0 0 .2-.1.2 0-.1-.2-.1-.1-.2-.3 0-.2.3-.3.4 0 .1.1-.1.1 0 0 0-.3.1-.3.2-.1 0-.1-.1-.1-.2l-.1.1c-.2-.1.2-.5-.1-.5l-.1.1c-.2-.1.2-.3-.1-.2-.1.1-.1.4 0 .4-.2.2 0 .4-.2.5-.1 0 .2-.2.1-.2-.2 0-.2.2-.4.2.2 0 .1.2 0 .2-.2 0 0-.2-.2-.1 0 .1-.1.3 0 .2 0 .2-.2.1-.3.3-.1-.1.1-.4-.2-.3.1.1-.2.3 0 .4-.1 0-.2-.1-.1-.2-.2 0-.2.4-.4.2v.1H17c-.1.1-.3.4-.4.2 0 0-.3.2-.1.2s.1-.2.3-.1c-.2-.1-.2.2-.3.2v-.1c0 .1-.2.1-.2.2 0-.1 0-.1-.1-.1v.1c0 .1-.1-.2-.1-.1v-.1H16c.1.1.2.2.3.2 0 0-.1-.1 0 0 0 0-.1 0-.1-.1 0 0-.2-.1-.3 0 0 0 .2.1.3.1H16s.2 0 .3.1h-.6c-.1 0-.2 0-.3-.1h-.1c-.2-.1-.3 0-.5 0-.1 0-.1 0-.1.1h.1c.4-.1.8.1 1.1 0 .1 0-.8.2-.1.1.1 0 .3-.1.2-.1 0 0 .3-.1.2 0-.1 0-.2.2-.4.2.1 0 0-.1 0-.1-.1.1-.3.1-.2.2.1 0 .2.1.3 0s-.1 0 .1-.1c.1 0 0 .2.2 0-.1 0 0-.1.1-.2l-.1.1c0 .1 0-.2.3 0v.2c-.1.1-.3-.3-.4 0 .1.1.3 0 .4.2h-.1c.1 0 0 .3.3.3.2 0 .1 0 .1-.1.3.1.4.1.6.2-.1.1.3.2 0 .2 0-.1-.4-.4-.6-.3 0 .2-.2-.2-.4 0 .2.1.1.3.1.4h.2c.1-.1 0-.1.1-.3.2.2.5.3.7.2 0 .1 0 .2-.1.1.3.1.6.3.9.5-.1-.3.3.1.3-.1-.1-.1-.2-.3-.1-.3.1.1 0 .1 0 .1.2 0 .1.3.3.2-.3-.1-.2.2-.3.3.2 0-.1.1.1.2.2 0 .5.1.7.2.2.3.7.4.9.5.1.1-.1.3 0 .3.2.1 0-.2.2 0 .1 0 .4.4.6.2l-.2.1h.1s0 .1-.1.1c.1.2.3.2.5.3v-.2c.3.1.4.3.7.4l-.1.1h.2c-.1.1 0 .2.1.2h-.5c-.1-.1.2 0 .2-.2 0-.1-.3-.2-.4-.2.1.1.1 0 .2 0 0 .2-.2.1-.3.1l.1.1c-.1 0-.2 0-.4-.1.1 0 0-.1 0-.1-.1.1-.3.1-.4-.1s-.4-.1-.6-.3c.2-.1.3-.1.5-.1-.1-.1-.2-.1-.3-.2-.1 0-.3.2-.5.1V30c-.2 0-.3.1-.5-.1l-1-.7v-.1c-.3.1-.6-.2-.8-.3-.3-.3-.8-.4-.9-.6-.3-.2-.6-.3-1-.5-.1-.1-.4-.2-.6-.3s-.4-.3-.7-.4h.3c-.3 0 0-.1-.2-.2 0 .2-.4 0-.6-.1-.1-.2-.4-.3-.8-.5l.3-.3h.2c.1-.3.8-.5 1.3-.7.1 0 .2 0 .4-.1.2-.3.2-.3.4-.5.2-.1.5-.3.8-.3.6-.6 1.4-.9 2.1-1.5l.1.1c.6-.6 1.6-1 2.2-1.4v.2c.2-.1.4-.3.3-.4.2-.1.4-.4.6-.3.2-.1.2-.2.4-.3l.9-.5h-.1c0 .1 0 .1.1.1.1-.1.5-.3.3-.4.5-.1.9-.6 1.4-.7-.1 0 0-.1 0-.2.4-.2.8-.3 1-.6.1 0 0 .2.1.1s0-.1 0-.2c.5-.4 1.2-.5 1.7-.9l2.7-1.7c.2-.3.8-.2.9-.6.1 0 .3-.1.3 0 .2-.3.7-.3 1-.6l-.1.1c.4-.1.6-.4 1-.5l-.1.1c.2 0 .2-.4.5-.3.1-.1 0-.2 0-.1.2-.1.5-.2.7-.4l.8.5.6.3 1.1.5c.5.5-.2.4.4.5 0 .1.1-.1 0 0 .2 0 .1.4.3.4 0-.2.1 0 .2-.1.3.3.3.5.7.5h-.1c.4 0 .8.3 1.2.3l2 1.1 3.5 1.9-2.9 1.8c-.5.3-1 .5-1.4.8l-1.3.8-2.7 1.5c-.5.1-.5.1-1 .4v-.1c.1.2-.3.2-.3.4l-2 1.2c.1-.1.1-.2 0-.1l-.1.2c-.1.1-.1.2 0 .2-1.6 1.1-3.5 1.8-5.2 2.8-.4.2-1 .6-1.4.8-1.4.6-2.6 1.1-3.9 2 .3.9.3.4.7 0zm-1.3.3c0-.1-.1-.2 0-.3 0 .1.1.2 0 .3zm-3.6-3.1s0-.1 0 0c0-.1.1-.1.1 0 0-.1 0 0-.1 0z"/><path d="M17.7 28.6s.3 0 .4.1l-.4-.1zm-.8-.8c0-.1 0-.1.1 0 0-.1 0-.1-.1 0zm-.1.1c-.1 0-.1-.1-.1-.2-.1.1.2.1.1.2zm-.7-.7c-.1 0 0 0 0 0zm0-.1zm16.8-10l-.1.1v-.1zM40 19c.1 0 0 .1 0 0 0 .1.1.1 0 0zm2.3 1.8l.1.1z"/></g><path d="M22.9 40.4l-8.7-5v-8.2l8.6 5z" fill="#38566b"/><g class="I"><path d="M22.6 40.6c.1 0 0-.2.1 0 0 .1 0 .1-.1 0zm.4-.6c-.4-.4 0-1-.2-1.5 0-.1.2 0 .2-.1-.3-.5-.1-1.2.1-1.7h.1c0-.1-.1-.2-.1-.3h.1c-.1 0-.1-.2-.1-.3 0 0 .1 0 .2-.1l-.1-.1c-.3-.2 0-.4-.1-.7h.1c-.2-.4-.2-.9-.2-1.3h.2c-.1 0-.2-.2-.2-.3.1 0-.1-.2 0-.3-.1-.1.1-.2-.1-.2l.1-.1c-.2 0 .1-.2 0-.2v-.2c0-.1.1-.3-.1-.2.1-.1.1.1.2 0 0-.1 0-.1-.1-.2-.3-.1-.4-.2-.7-.3l-.6-.4v-.2c-.1 0-.2-.1-.3 0v-.1c-.1-.1-.2.1-.3 0 .1 0 .1 0 .1-.1-.1.1-.3 0-.4 0 0 0 .1 0 .1-.1-.2.1-.2-.1-.3-.1l.1-.1c-.1-.2-.1.1-.2 0l.1-.1c-.2.1-.4-.1-.5-.1a.76.76 0 0 0-.4-.2c0-.1.1-.2 0-.2-.1.2-.3-.1-.3.2-.1-.1-.3-.3-.4-.3.1 0 0-.2.2-.2v-.1c0-.1.1.1.1 0 0 0-.2 0-.3-.1-.1 0-.3.2-.5.1.1 0 .1-.2.1-.2l-.4.2s.1-.1 0-.1c0 0-.1 0-.1.1 0 0-.2-.1-.2-.3 0-.1.1 0 .1-.1h-.2c0-.1-.2 0-.2.1 0 0 0-.1.1 0-.1.1-.2 0-.3 0 0 0 .1 0 .1-.1H17c0 .1.1-.1.1 0-.1-.2-.5-.1-.5-.3v.1c-.1-.1 0-.2-.1-.2 0-.1-.1 0-.1 0-.1 0 0 0 .1 0-.1 0-.2 0-.3-.1-.2-.1-.1-.1-.2-.2 0 0-.1.2-.1.1v-.1c0-.1-.1 0-.1-.2-.1.1.2 0 .1.1 0-.1-.1.1-.1 0-.1 0-.1.1-.1 0v-.2c-.1 0 0 0-.1.1 0 .2-.1 0 0 .1 0-.1 0 0-.1-.2l-.1-.2v.2c.1.3-.1-.1 0 .2 0-.1-.1-.1-.1-.1l-.1-.1c.1.2.1.3.1.3s0-.1-.1-.1 0 0 0 .1c0 0-.1-.1-.2-.1l.3.3c-.2-.1.1.2-.1.2 0 0-.1-.2-.2-.1-.2-.1.2.2.1.2h.2c-.1 0 .1.1-.1.1.1 0-.1.1.1.1-.1.2.1.6-.2.7 0 0 0 .1.1.1.1-.1-.1-.1 0-.1h.1c0 .1 0 .1-.2.1-.1.2.3.2.2.4-.1 0-.1 0-.1.1l.1.1c0 .1-.2.1-.3.1 0 .1 0 .2.1.2l-.6-.3c.1-.1.1.1.1.1v.1c.1 0 .1-.1.1-.1s0 .1.1.1c-.1 0-.1.1-.1.2s.1.1.1.1c-.1 0 0 .1-.1.1 0 0 .1 0 0-.1 0 0-.2 0-.1.1s.2 0 .2.1c0 0-.1 0-.1-.1l-.1.1h.1c.1 0 0 .2.2.2 0 .1-.1.1-.1.2-.1.1 0 .2 0 .2s0 .1.1.2c-.1.1-.4 0-.3.1 0 .1.2.2.3.1-.1.2.1.4-.1.5 0 0 .1 0 .1.1 0 .3.1.5-.1.8 0-.1-.1 0-.2 0 .1.1-.1.1.1.1.1 0 .1 0 .2-.1 0 .2.1.4 0 .5h.1c-.2 0-.2.1-.1.2h.1l-.1.1s.2 0 .1.1h-.1c.1 0 .2 0 .1.1l-.1.1h.1s0 .1-.1.2c.1 0 .1-.1.2-.1h.2c.2.1.3.2.5.3v.1c0 .1.1-.1.1 0-.1 0 0 .2-.1.2.1.1.2 0 .3 0 .1-.1-.1 0 0-.1 0 0 .1.2.2 0 0 .1-.1.2-.1.2h.1c0 .2-.3.2-.4.4h.1c0 .2-.3 0-.1.2.1 0 .3-.2.2-.3.2 0 .2-.3.4-.2 0 .1-.1 0-.2.1 0 .1.2 0 .2.1 0-.1.1-.2.1-.2 0 .1-.1.1 0 .2.1-.1.2-.1.1-.2.1-.1.1.1.2 0 0 .1-.3.2-.2.3 0-.1.2-.1.3-.3 0 .1 0 .2-.1.2 0 .1.3-.1.2.1l.1-.1v.2c.1 0 .3 0 .2.1 0 0 .2.1.2-.1 0-.1-.1 0-.1-.2 0 .2.1 0 .2 0v.1h.2s-.1.1 0 .1l.1-.1c.1 0-.1.2.1.2H18s0 .1.1.1l.2-.2c.1 0 0 .1.1.1l-.1.1s0 .2.1.2.2-.1.2-.2c0 0 .1.1 0 .2.1 0 0-.1.2-.1 0 .1.1.2.1.4l-.2.1h.1c-.1.1 0 .1-.1.2h.2c0-.3.3-.2.4-.4.2 0-.2.5.2.3 0-.1.2-.2 0-.2.1.1.2-.2.3 0-.1 0 0 .3-.2.3 0-.1 0-.1-.1-.1 0 .1-.1.2 0 .3.1 0 .2.1.2 0 .1-.1-.1 0 0-.1.1 0 .1.2.2 0-.1 0 0-.2 0-.2h.1l-.1.1c.1.1.1-.1.3 0v.2c-.1.1-.2-.2-.3 0 .1.1.2 0 .2.1H20s-.1.3.1.2c.1 0 .1-.1.1-.1.2.1.3 0 .4.1-.1.1.2.1 0 .2 0-.1-.2-.2-.4-.1 0 .2-.1-.1-.2.1.1.1 0 .2 0 .4h.1c.1-.1 0-.1.1-.2.1.1.3.1.4.1 0 .1-.1.2-.1.2.2.1.3.2.5.3 0-.2.2.1.2-.1-.1-.1-.1-.3 0-.3v.1c.1-.1 0 .2.2.1-.2 0-.1.2-.3.3.1 0-.1.1 0 .2h.4c.1.2.4.2.5.3 0 .1-.1.2 0 .3.1 0 0-.2.1-.1.1 0 .2.2.3 0l-.1.1h.1s0 .1-.1.1c0 .2.2.1.3.1v-.1c.2 0 .2.2.4.2-.1.2 0 .3.1.2l-.4.1c0-.1.1-.1.1-.2s-.1-.2-.2-.1h.1l-.2.2s0 .1.1 0h-.2c.1 0 0-.1.1-.1-.1.1-.2.1-.3 0 0-.2-.3 0-.4-.1.1-.1.2-.2.3-.2 0-.1-.1 0-.1-.2-.1.1-.2.2-.3.2v-.1c-.1 0-.2.1-.3 0-.2-.2-.4-.3-.5-.4v-.1c-.2.1-.3-.1-.5-.1-.1-.2-.5-.2-.5-.4-.4-.1-.7-.2-1.1-.5l.1-.1c-.1.1 0-.1-.1-.1 0 .1-.2.1-.3.1-.1-.2-.4-.2-.6-.2v-.1c-.2.1-.3-.2-.5-.3v-.2c-.2.1-.2 0-.4 0-.1-.1-.3-.2-.3-.3-.5 0-.8-.4-1.3-.5v-.1c-.3 0-.5-.1-.7-.3l-.1-.1c-.1 0-.2-.1-.2-.2-.2-.1-.3-.2-.5-.2l.2-.1c0-.1-.1-.1-.2-.1 0-.1-.1-.1-.2 0 .1-.2-.1-.5.1-.7 0-.2-.1-.3-.1-.3.1-.3.1-.3 0-.6v.1h.1c-.1-.1 0-.3-.2-.2.1-.3-.1-.6.1-.8-.1 0-.1 0-.1-.1 0-.2.1-.5 0-.6h.1s-.1 0-.1-.1c-.1-.3.1-.7.1-1-.1-.6-.1-1.2-.1-1.7-.1-.1 0-.2 0-.3v-.2c0-.1 0-.2-.1-.2 0-.1 0-.3.1-.2-.1-.3.1-.6 0-1.1v.1c.1-.3 0-.7 0-1 0 .1 0 .2.1.2s-.2-.6 0-.4c0-.1-.1-.2-.1-.2v-.4c.6.4 1.1.5 1.8.9.5.5 0 .5.4.5 0 .1 0-.1 0 0 .2 0 .1.4.3.3 0-.2.1 0 .1-.1.1.2.1.3.3.3v.1c.3-.1.4.1.7 0l3 1.5 2.1 1.2.9.6c.2.3.2.3.4.4v.4h-.1c.2 0 0 .3.2.4v1.4c0-.1-.1-.1-.1 0l.1.1s.1.1.2.1c.1 1.1-.2 2.1-.1 3.2-.1.3 0 .6 0 .9-.2.8-.4 1.5-.2 2.3 0 .2-.5.1-.6-.2z"/><path d="M22.5 40.6c0-.1 0-.2.1-.2-.1 0-.1.1-.1.2zm-1.7-2s0-.1 0 0c0-.1.1-.1 0 0 0-.1 0 0 0 0zm-.5-.4c0-.1.2 0 .3 0h-.3zm-.4-.5c0-.1 0-.1 0 0 .1-.1 0-.1 0 0zm-.1.1c-.1-.1 0-.1 0 0zm-1-.8s-.1 0-.1-.1c0 0 .1 0 .1.1zm-.6-.3c-.1 0 0-.1 0 0zm-3.4-7.8h-.1zm2.1.5c.1 0 0 .1 0 0-.1.1.1 0 0 0zm2.4 1l.1-.1z"/></g></svg>