<svg xmlns="http://www.w3.org/2000/svg" viewBox="0 0 58.2 44.6"><path d="M51.5 26.6c-1 18-42.5 18-44.5.4" fill="#fff"/><g fill="#202020"><path d="M51.8 26.7c0-.2-.1.1 0 0 0-.1 0 0 0 0zM7 27.7c.3.3.3.7.4 1.1s.2.8.4 1.1c0 .1-.2.1-.1.2.6.5.9 1.6 1.3 2.4h-.1c.1.2.3.2.4.4 0 0-.1 0-.1.1.1 0 .3.2.4.2 0 .1-.1.1 0 .2h.2c.4 0 .4.5.8.7h-.1c.6.3 1.1.8 1.7 1.1l-.1.1c.1-.1.3 0 .5.1 0 .2.3.1.5.3.2 0 .1.2.3.1v.2c.2-.1.1.2.3.2.1 0 .1.1.3.2.3.1.3.3.4.1 0 .2-.3-.1-.2.2.4.2.8.3 1.2.5s.8.4 1.2.5c.1.1.1.1.1.2.1 0 .3.1.4 0 0 0 0 .1.1.1.1.1.2-.1.4 0-.1 0-.1 0-.1.1.2-.1.4 0 .5.1 0 0-.1 0-.1.1.2-.1.3.1.5.1l-.1.1c.2.2.1-.2.3 0-.1 0-.1 0-.1.1.3-.1.6.1.8.1s.5.2.7.2c.1.1-.1.2.2.2 0-.2.4 0 .3-.2.2.1.5.2.7.2-.1 0 0 .3-.1.2l.1.1c0 .1-.1-.1-.1 0 .1 0 .4 0 .4.1.2-.1.4-.3.7-.2-.1 0 0 .2-.1.2l.4-.3c.1 0 0 .2.1.1l.1-.1s.4 0 .4.2c0 .1-.2 0-.1.1h.3c.1 0 .3 0 .2-.2-.1 0 0 .1-.1 0 .1-.1.3-.1.5-.1-.1 0-.1.1-.1.1.2-.1.5-.1.7-.2 0-.1-.1.2-.1.1.3.2.7-.1.9.1v-.1c.2 0 .1.2.2.1 0 .1.1 0 .2 0s0 0-.1 0c.2 0 .7-.1 1 0 0 0 .2-.2.3-.2v.1c.1.1.3 0 .3.1.2-.1-.6.1-.4 0 0 .1.3-.2.3 0 .2 0 .3-.1.5 0 0 0-.1.2 0 .2.2 0 .1 0 .2-.1h.1c0-.1.2 0 .1-.1 0 .1.3 0 .3.1v.1c.1 0 .2-.2.2-.2v.1c0-.2.2 0 .3-.2.2.1.5 0 .6.2.2-.1.3-.2.5-.1 0 0-.1 0-.1.1.1.1.1 0 .2 0a1.44 1.44 0 0 0 .3.2c.2-.1.1-.2.1-.3.2.2.4-.2.6 0 0 0-.2.1-.1.2.2.2.3-.2.5-.1l-.1-.2c.1.1.3-.1.3 0 .1-.1.3 0 .2-.1.4.1.9-.2 1.1.1 0 0 .2 0 .2-.1-.1-.1-.1.1-.2 0V39c.1 0 .2 0 .1.2.3.1.2-.3.5-.3 0 .1 0 .1.1.1l.2-.2c.2 0 .1.2.2.3.1 0 .2 0 .3-.2l.2.1c-.1-.1.1-.1.1-.1h.2c0-.1-.2-.1-.2-.1 0-.1.1-.1.2-.1 0 .1.2.1.3.1s.1-.1.1-.1c0 .1.2 0 .1.1h-.1c.1 0 .1.1.2 0s-.1-.2.1-.2c0 0 0 .1-.1.1h.2v-.1c0-.1.3-.1.3-.2h.3c.1 0 .3 0 .3-.1.1 0 .2 0 .3-.1.2 0 .1.4.3.2.2 0 .2-.3.1-.3.3 0 .5-.3.8-.1 0 0 0-.1.1-.1.4 0 .8-.3 1.1-.2-.1.1 0 .1 0 .2.1-.1.1.1.1-.1 0-.1 0-.1-.2-.2.2-.1.5-.2.7-.2-.1 0 0-.1 0-.1 0 .2.2.1.3 0v-.1l.1.1s0-.2.1-.2c0 0 0 .1.1.1.1-.1.2-.3.4-.3l.2.1s.1-.2 0-.2c.3 0 .4-.1.5 0 .3-.4.8-.7 1.3-.9v.1c.2 0 0-.2.1-.1 0 .1.2.1.1.2.2 0 .2-.2.3-.3 0-.1-.1.1-.1 0 0 0 .3-.1.2-.2.1 0 .1.1.1.2l.1-.1c.2.1-.1.4.1.5l.1-.1c.2.1-.2.3.1.2.1-.1 0-.4-.1-.4.2-.2-.1-.4.2-.5.1 0-.2.1-.1.2.2 0 .2-.2.3-.2-.1 0-.1-.2-.1-.2.2 0 0 .2.2.1 0-.1.1-.2-.1-.2 0-.2.2-.1.2-.2.1.1 0 .4.2.3-.1-.1.1-.3-.1-.4.1 0 .2.1.2.2.2 0 .1-.4.3-.2v-.1h.2c.1-.1.2-.3.3-.2 0 0 .2-.2 0-.2s-.1.2-.3.1c.2.1.2-.1.2-.2h.1s.1-.1.1-.2c0 .1 0 .1.1.1V34c.1-.2.2.1.3 0l-.1.2s.1 0 .2-.1c0-.1-.1-.3-.1-.3 0-.1.1.1.1-.1v.2s.2.1.3 0c0-.1 0-.3-.1-.3 0 0 .2-.1.2 0 .1-.1-.1-.1 0-.2h.5v.2l.1-.1c0 .2.1 0 .2.2.1 0 .1-.1.1-.2-.3 0-.1-.4-.3-.5.2-.2.5.3.5-.2-.1 0-.1-.2-.2 0 .1-.1-.1-.2.1-.3 0 .2.3 0 .2.3 0-.1-.1.1-.1.1.1 0 .2.2.3 0 0-.1.2-.2 0-.3-.1-.1-.1.1-.2 0 .1-.2.3-.1.2-.3-.1.1-.2.1-.3 0l.1-.2v.1c.2-.2-.1-.2.1-.3h.2c.1.1-.3.2-.1.3.1-.1 0-.2.2-.3v.1s.3.1.3-.2c0-.1 0-.1-.1-.1.1-.2.1-.3.2-.5.1.1.2-.2.2 0-.1 0-.3.3-.2.5.2 0-.1.2 0 .3.1-.2.3 0 .4 0v-.2c-.1-.1-.1 0-.2-.1.2-.2.2-.4.2-.6.1 0 .2 0 .1.1.1-.3.3-.5.4-.7-.3.1.1-.3-.1-.3-.1.1-.3.2-.3 0 0-.1.1 0 .1 0 0-.2.2-.1.1-.3 0 .3.2.2.3.3 0-.2.1.1.2-.1 0-.2 0-.4.1-.6.3-.2.2-.6.3-.8.1-.1.3 0 .3-.1 0-.2-.2.1-.1-.1 0-.1.2-.4 0-.5l.2.1V28h.2c.2-.1.1-.3.1-.5l-.1.1c0-.3.1-.4.1-.7h.1v-.2c.1 0 .2-.1.1-.2l.2.4c-.1.1-.1-.1-.2-.1s-.1.3 0 .3v-.2c.2 0 .1.1.2.2V27c.1.1.1.2 0 .4 0-.1-.1 0-.1 0 .1 0 .2.2.1.4-.2.1 0 .4-.1.6a.76.76 0 0 1-.2-.4c-.1.1 0 .2-.1.3.1.1.2.2.2.4h-.1c0 .2.2.2.1.4-.2.3-.3.7-.5.9h-.1c.1.2-.1.5-.1.8-.3.3-.3.7-.6.8-.3.6-.6 1.1-1 1.5v-.2c0 .2-.1 0-.2.1.2 0 0 .2 0 .3-.3.1-.5.5-.6.7l-.1-.1c-.1.3-.4.4-.7.6h-.2c0 .2-.1.3-.3.5-.2.1-.4.3-.6.3-.5.6-1.2.9-1.8 1.3l-.1-.1c-.5.5-1.4.8-2 1.1v-.2c-.2 0-.4.2-.3.3-.2 0-.4.3-.6.2-.2 0-.2.2-.3.3-.4 0-.5.1-.9.3h.1c0-.1 0-.1-.1-.1-.1.1-.5.1-.3.3-.4 0-.9.4-1.3.3 0 .1 0 .1-.1.2-.3.1-.7 0-1 .2-.1 0 .1-.1-.1-.1-.1 0 0 .1-.1.1-.5.2-1.2.1-1.7.2-.9.3-1.8.3-2.7.4-.3.2-.7-.1-.9.2-.1 0-.3 0-.2-.1-.2.2-.7-.1-1 .1h.1c-.3-.1-.6.1-1 0 0 0 .1 0 .1-.1-.1-.1-.3.2-.4 0-.1 0-.1.1 0 .1-.8-.1-1.6 0-2.4.1-.6-.2 0-.4-.5-.3 0 0 0 .1 0 0-.2 0-.3-.3-.4-.2 0 .2-.1.1-.1.2-.3-.1-.4-.3-.7-.2v-.1c-.3.2-.7 0-1 .2-1.8-.1-3.6-.4-5.3-.8-1.7-.6-3.4-1-5-2-.3-.4-.3-.4-.8-.5-.1.1-.3-.2-.4 0-.6-.3-1.1-.7-1.7-1.1.1 0 .2 0 .1-.1H11c-.1 0-.2 0-.2.1-1.5-1-2.6-2.5-3.5-3.9l-.7-1.3c0-.2-.1-.3-.2-.5 0-.2-.1-.3-.1-.5-.1-.3-.1-.6-.2-.9-.1-.6-.2-1.3-.4-1.9.6.6 1.1.7 1.3 1.2z"/><path d="M51.8 27c-.1 0-.2.2-.3 0h.3zM50 30.5s-.1 0 0 0c-.1 0-.2-.1 0 0-.1-.1-.1-.1 0 0zm-.5.8c-.1 0 0-.3.1-.3l-.1.3zm-.7.5c-.1.1-.1 0 0 0-.1 0-.1 0 0 0zm.1.2c0 .1-.1.1-.2.1.1 0 .1-.2.2-.1zm-1.4 1.3s-.1.2-.2.1c.1 0 .1-.2.2-.1zm-.6.7c-.1 0-.1-.1 0 0zm-15.3 5.5h.1v.1zm-7.3-.3c-.1.1-.1-.1 0 0 0 0-.1 0 0 0zm-4-.4h.1l-.1.2zm31-12.2s-.1 0 0 0zm0-4.2c.4 0 0 .1.2.2h-.2c.3 0 .1.1-.1.2h-.1c.3 0 0 0 .1.1h-.1c.2 0 .2.1.2.2h-.2.2c-.2 0 .1 0 0 0 .2 0-.1 0 .1 0h-.1c.2 0-.1 0 0 0 0 0-.1 0 .1 0h-.2c.2.1.1.1.1.2h-.1c-.1 0 .2 0 .1 0h-.1c-.1 0 .2 0 .1 0h-.1c.2 0 .1 0 .2.1v.1h-.2.3s-.1 0 0 0h-.3.7c.1 0-.2 0-.1 0-.1 0 .2 0 0 .1-.1 0 0 0 0 0 .1 0 .2 0 .1.1.1 0-.1 0 0 0-.1 0 .2 0 0 0h-.1.1c-.1 0 .1 0-.1 0h-.1c-.1 0 0 0 0 0h-.2.3c-.2 0 .1 0-.1 0h-.2c-.2 0 .2 0 .1 0h.2c-.1 0 .1 0-.1 0 .1 0-.1 0 .1 0-.2 0 .1.1-.2.1h.1c.1 0-.1 0 0 0h.1-.2c-.1 0 .3 0 .2 0h-.1c-.1 0 0 0 0 0h.1-.3.3c-.1 0 .1 0-.1.1h.1s.1.1-.1.1h-.2c.1 0-.1 0 .1 0h.2v.1h.1-.2c.3 0 .3.1.3.1h.3c-.1 0 .1 0 .1 0h-.2c-.1 0 .1 0 .2 0s-.1 0 .1 0c0 0-.1 0 .1 0h-.3c-.1 0 .1 0 0 0h.1c-.1 0 .2 0 0 0h.1-.2.2c.1 0-.1 0 .1 0-.2 0 0 0 .1 0h-.1.1c.1 0-.2 0-.2 0h-.1s-.1 0 0 0h.3s-.1 0 0 0h-.1c.1 0-.5 0-.2 0h.3-.4s-.2 0 .1 0h.1c-.1 0 .2 0 .1 0h-.2c-.1 0 .1 0-.2 0h-.1.1c.1 0 .1 0-.1 0H52v.1h.4c.1 0-.2 0 0 0H52c.1 0-.1 0-.1 0h.2c-.2 0 0 0 0 .1h-.2s-.1 0 .1 0h-.4c-.1 0 0 0 0 0h-.5c.2 0-.1 0-.1 0l.1-.1h.1-.2c.1 0-.1-.1.1-.1-.1 0-.2-.1-.1-.1h.2c-.1 0 .1 0 .1 0h-.2c.1 0 0 0-.1-.1h.1c-.2 0 0 0 0-.1h.1-.2c-.2 0-.1-.1-.2-.2h.1c-.3 0 0-.1-.2-.2h.2c.1 0 0 0-.2 0 .1 0-.1 0 .1 0h-.1c.1 0 .1 0 0-.1h.1-.2c.1 0-.1-.1.1-.1h-.1s.1 0 0-.1c-.1 0 .1-.1.1-.1-.1-.1-.1-.1-.1-.2-.2 0 .2 0-.1-.1h.1c-.1 0 .1 0 0-.1.1 0 0 0 .1-.1h.1c.1 0-.2 0 0 0h-.1c.1-.1-.1-.1-.1-.2h.2s-.1 0 0 0c-.1 0 .3 0 .1 0h-.1.1c-.2 0-.1 0-.3-.1 0-.1-.2-.3-.2-.4s-.1-.3.1-.4c.2 0 .2 0 .1-.1h.1-.2v-.1h-.2c-.1-.1.2-.3.2-.4.1 0 0-.1 0-.1.2-.1.4-.2.2-.3.1 1.8.5 1.8.6 1.9zm-.1 4.1h.2s-.1.1-.2 0zm.9-.2zm0-.1zm.3-.1z"/><path d="M52.3 26.1zm.2-.1s-.1 0 0 0c-.1 0 .1 0 0 0zm-.1-.1zm-.3-1.3H52z"/><path d="M52.1 24.1c-.1-.1 0-.1 0 0 0 0 0-.1 0 0zm-.4-.3h-.1zM6.8 27.1c0 .1.1 0 0 0 0 .1-.1.1 0 0zm0-5.6c.4.1 0 .2.2.2h-.2c.3.1.1.2-.1.3h-.1c.3 0 0 .1.1.1h-.1c.2.1.2.1.2.2h-.2.2c-.2 0 .1 0 0 0 .2 0-.1 0 .1 0h-.1c.2 0-.1 0 0 0 0 0-.1 0 .1 0h-.2c.2.1.1.2.1.3h-.1c-.1 0 .2 0 .1 0h-.1c-.1 0 .2 0 .1 0h-.1c.2 0 .1.1.2.1v.1h-.2.3s-.1.1 0 .1h-.4c.1 0 .3 0 .3.1h-.2.4c.1 0 .2 0 .3.1.1 0-.2 0-.1 0-.1 0 .2.1 0 .1-.1 0 0 0 0 0 .1 0 .2.1.1.1.1 0-.1-.1 0 0-.1 0 .2 0 0 0h-.1.1c-.1 0 .1 0-.1 0h-.2.3c-.1 0 0 0-.2.1-.1 0 0 0 0 0H7h.3c-.2 0 .1 0-.1.1H7c-.2 0 .2 0 .1 0h.2c-.1 0 .1 0-.1 0 .1 0-.1 0 .1 0-.2 0 .1.1-.2.1h.1c.1 0-.1 0 0 0h.1-.2c-.1 0 .3 0 .2.1h-.1c-.1 0 0 0 0 0h.1H7h.3c-.1 0 .1.1-.1.1h.1s.1.1-.1.1H7c.1 0-.1 0 .1 0h.2v.1h.1-.2c.3 0 .3.1.3.2h-.1c-.1 0 .1 0 .1 0h-.2c-.1 0 .1 0 .2 0s-.1 0 .1 0c0 0-.1 0 .1 0h-.3c-.1 0 .1 0 0 0h.1c-.1 0 .2 0 0 0h.1-.2.2c.1 0-.1 0 .1 0-.2 0 0 0 .1 0h-.1.1c.1 0-.2 0-.2 0h-.1s-.1 0 0 0h.3s-.1 0 0 0h-.1c.1 0-.5 0-.2 0h.3-.4s-.2 0 .1 0h.1c-.1 0 .2 0 .1 0h-.2c-.1 0 .1 0-.2 0h-.1.1c.1 0 .1 0-.1-.1h-.1l.2.1h-.2v.1h.4c.1 0-.2 0 0 0h-.4c.1 0-.1 0-.1 0 .1 0 .2 0 .2.1-.2 0 0 .1 0 .1H7s-.1 0 .1 0h-.4c-.1 0 0 0 0 0h.1c.1 0 0 0 0 .1h-.6c.2 0-.1 0-.1-.1 0 0 0-.1.1-.1h.1c-.2 0-.1 0-.2-.1.1 0-.1-.1.1-.1-.1-.1-.2-.1-.1-.2h.2c-.1 0 .1 0 .1 0h-.2c.1 0 0-.1-.1-.1h.1c-.2 0 0-.1 0-.1h.1H6l.1-.1c-.2-.1-.1-.1-.2-.2H6c-.3-.1 0-.2-.2-.2H6c.1 0 0 0-.2 0 .1 0-.1 0 .1-.1h-.1c.1 0 .1 0 0-.1h.1-.2c.1 0-.1-.1.1-.1h-.1s.1-.1 0-.1c-.1-.1.1-.1.1-.2-.1-.1-.1-.2-.1-.3-.2 0 .2-.1-.1-.1h.1c-.1 0 .1-.1 0-.1.1 0 0-.1.1-.1h.1c.1 0-.2 0 0 0h-.1c.1-.1-.1-.2-.1-.2.1-.1.4 0 .2 0 0 0-.1 0 0 0-.1 0 .3 0 .1 0h-.2c.1 0 .2 0 .1-.1H6c-.2 0-.1-.1-.3-.1 0-.2-.2-.3-.2-.5s-.1-.3.1-.5c.2 0 .2 0 .1-.1h.1-.2v-.2h-.2c-.1-.2.2-.3.2-.5.1 0 0-.1 0-.1.2-.1.4-.2.2-.4.5 2 1 2 1 2.1zm-.1 5.6zm.9-.4zm0-.1zm.3-.1z"/><path d="M7.8 26.5zm.2-.2s-.1 0 0 0c-.1 0 .1 0 0 0zm-.1-.1zm-.3-1.7h-.1zm0-.8c-.1 0 0 0 0 0zm-.4-.4h-.1z"/></g><ellipse transform="matrix(.005422 -1 1 .005422 7.627 50.8101)" cx="29.4" cy="21.6" rx="12.9" ry="22.3" fill="#fff"/><g fill="#202020"><path d="M45 31.1c.3-.2-.3 0 .2-.2 0 .1-.1.1-.2.2z"/><path d="M46.3 30.1c.5-.5 1-1 1.7-1.5.6-.5 1.2-1.1 1.5-1.7.1-.1.1.2.3-.2.3-.7.8-1.4 1.1-2.3.2-.4.3-.9.5-1.3.2-.5.2-.9.3-1.4v.1c.1-.3-.2-.7-.2-1.1 0 0 .1.1.1 0-.1 0-.1-.2-.1-.4s-.1-.3-.2-.4c0-.2.1-.2.1-.3l-.2-.2c-.2-.2-.3-.5-.5-.9-.1-.3-.2-.7-.5-1 0 0 .1.1.1 0-.7-1-1.7-2.1-2.8-3 .1 0 .2 0 .1-.1-.1.1-.5-.2-.8-.4 0-.2-.6-.3-.8-.6-.3 0-.3-.3-.7-.3l-.1-.2c-.2.1-.3-.3-.6-.4-.2-.1-.3-.2-.5-.3-.5-.2-.7-.4-.8-.3-.1-.2.5.2.3-.1-.8-.4-1.7-.6-2.5-1l-2.5-.8c-.2-.1-.3-.2-.3-.2-.2 0-.7-.1-.8-.1.1 0-.1-.1-.2-.1-.3-.1-.4.1-.7 0 .2 0 .2 0 .2-.1-.3.1-.7 0-1.1-.1.1 0 .2 0 .1-.1-.4.1-.7-.2-1-.1l.1-.1c-.5-.2-.2.2-.7 0 .1 0 .1 0 .1-.1-.5.1-1.2-.1-1.6 0-.5 0-1-.1-1.5-.1-.2-.1.1-.2-.4-.2 0 .2-.9 0-.6.3-.4 0-1.1-.1-1.4-.1.2-.1-.2-.2.2-.2l-.3-.1c0-.1.3 0 .2-.1-.2 0-.7.1-.9.1-.3.1-.6.3-1.2.4.3-.1-.2-.2 0-.2-.3.1-.5.3-.7.4-.2 0 0-.1-.3-.1 0 0-.1.1-.2.1s-.7.1-.8-.1c-.1-.1.3-.1.1-.1-.3 0-.3.1-.7.1-.2 0-.6.2-.4.2s-.1-.1.2-.1c-.1.1-.5.2-.8.3.1 0 .1-.1.1-.2-.4.2-.9.3-1.3.5 0 .1.2-.2.2-.2-.6 0-1.2.4-1.8.4.1 0 .1.1.1.1-.3.1-.3-.1-.5 0 0-.1-.2.1-.4.2-.1.1-.1 0 .1-.1l-2 .7s-.3.3-.5.3v-.1c-.2 0-.5.2-.5.1-.3.2 1.1-.5.8-.3-.1 0-.5.4-.5.2-.3.1-.5.3-.8.3.1 0 .2-.2-.1-.1-.4.2-.1.1-.4.3l-.2.1c0 .1-.4.1-.2.2-.1-.1-.5.3-.6.1v-.2c-.2.1-.2.3-.3.4h-.1c.1.2-.4.2-.5.4-.4.1-.9.5-1.1.5-.2.2-.4.4-.7.6 0 0 .1-.1.1-.2-.2.1-.2.1-.4.3 0-.1-.4.2-.7.2-.2.2 0 .3 0 .3-.3 0-.6.6-.9.7 0-.1.2-.4 0-.3-.3 0-.3.5-.7.7h.2c-.2 0-.4.5-.5.4 0 .2-.4.3-.2.4-.6.4-.9 1.4-1.4 1.6 0 .1-.1.3 0 .3.2-.1 0-.2.1-.3v.1c-.1.2-.2.3-.3.1-.3.4.1.6-.2 1.1-.1 0-.1 0-.1.2v.3c-.1.4-.2.2-.3.2 0 .2-.1.5 0 .6l-.2.2c.1-.2.1.2.1.3v-.1c-.1 0 0 .3 0 .4.1 0 .1-.3.2-.4 0 .1 0 .3.1.4-.1 0-.1.3-.1.5s.1.2.1.3c-.1 0 0 .3-.1.2v-.3c0 .1-.2.1 0 .4.1.2.2-.1.2.3 0-.1-.1-.1-.2-.2v.3h.1c.1.1.2.5.3.5 0 .2 0 .4.1.5 0 .2.2.5.3.6 0 .1.2.3.3.4.1.3-.3.3 0 .5.2.3.4.3.4.1.2.5.8.8.9 1.3.1 0 .1 0 .2.1.3.3.6.5.9.8s.6.5.8.8c-.2-.1-.1.1-.1.1.2 0 .1.2.3.1 0-.1.1-.1-.1-.3.4.3 1 .7 1.1.9-.1-.1 0-.1.1 0-.1.1.2.3.4.4l.1-.1.1.2c.1 0 .2-.1.4.1v.1c.3.1.7.1.9.3l.2.2c.1 0 .3.1.2-.1.4.3.7.4.8.6.9.1 2.1.5 3 .8v.1c.2.2.2-.1.3 0-.1 0 .2.2-.1.2.3.2.5 0 .8 0 .1-.1-.2 0-.1-.1 0 0 .5.2.6.1.1.1 0 .2-.1.2h.3c.2.2-.7.1-.5.4h.2c.2.2-.6 0-.1.2.3 0 .5-.2.3-.3.5.1.3-.3.8-.2.1.1-.4-.1-.3.1.2.2.5 0 .7.1-.2-.1 0-.2.2-.2.3.1-.2.1.2.2.1-.1.4-.1.2-.2.2-.2.4.1.6 0 .1.2-.4.2 0 .4 0-.1.5-.1.4-.3.2.1.2.2 0 .2.2.1.6-.2.6.1l.1-.1c.1 0 .2.1.3.2.2 0 .7-.1.6.1.1 0 .5 0 .4-.1-.3-.1-.3.1-.5-.1.2.2.4 0 .6 0v.1c.1 0 .3 0 .4-.1-.1 0 0 .1 0 .1l.1-.1c.4 0 .1.2.5.2l-.3.1c.1 0 .2.1.4.1l.3-.3c.2 0 .1.1.3 0l-.3.1s.2.2.5.2c.2 0 .5-.2.2-.2.2 0 .4.1.2.2.3 0 0-.1.3-.2.1.1.5.2.7.3l-.3.2h.2c-.3.1.1.1 0 .3h.5c-.4-.3.5-.3.3-.5.6-.1.4.5.9.2-.1 0 .2-.2-.2-.2.3 0 .2-.2.7-.2-.3.1.3.2-.1.4 0-.1-.3 0-.3 0 .2.1 0 .2.3.2.2 0 .5 0 .5-.2 0-.1-.3 0-.2-.1.4 0 .5.1.7-.1-.3 0-.3-.1-.3-.2l.3-.1-.1.1c.5 0 .1-.2.6-.2l.3.2c-.1.2-.7 0-.6.2.3 0 .4-.1.7-.1-.1 0-.2 0-.2.1.1 0 .3.3.7.1.2-.1 0-.1 0-.2.5-.1.7-.2 1-.3 0 .2.6-.1.3.2-.2-.1-.9 0-1.1.2.2.2-.4 0-.5.2.4 0 .4.2.5.3.1 0 .2-.1.3-.1 0-.1-.1-.1-.1-.2.5 0 .9-.2 1.2-.3.2 0 .1.2 0 .2l1.7-.3c-.4-.1.6-.2.3-.3-.3 0-.5-.1-.4-.2.2 0 0 .1.1.1.2-.2.4.1.6-.1-.5.2 0 .3-.1.4.3-.2 0 .1.4 0 .3-.2.8-.3 1.2-.5.5 0 1.3-.3 1.7-.5.3 0 .2.2.4.2.3-.1-.3-.1.2-.2.1-.1.8-.2.9-.4l-.1.2c.1 0 .2-.1.2-.1 0 .1.1.1 0 .2.3 0 .5-.3.8-.4H42c.4-.3.8-.3 1.3-.6v.1l.2-.2c0 .1.3.1.4-.1l-.6.6c-.2 0 .2-.2 0-.3-.1 0-.6.2-.6.3.2-.1.2-.1.3-.2.1.1-.1.2-.2.4.1 0 .2 0 .2-.1-.1.1-.3.2-.6.3.2-.1-.1 0-.1-.1 0 .1-.2.3-.6.4-.3 0-.7.3-1.1.5.1-.2.3-.4.5-.5-.3 0-.3.1-.6.1-.1.1-.1.3-.5.5v-.1c-.3.2-.3.3-.7.4-.7.1-1.4.3-2 .5v-.1c-.3.3-1 .3-1.4.5-.7.1-1.5.3-1.9.2l-1.8.3c-.6.1-1.2.1-1.8.1l.2-.2c-.2.1-.2-.1-.4 0 .3.1-.3.2-.5.3-.6-.1-1.3 0-1.8.1v-.1c-.5.2-1.1 0-1.8-.1-.1 0-.2-.2-.4-.2-.4.1-.5.1-1.1.2-.4 0-1-.2-1.3-.3-.7 0-1.4-.1-2.1-.2l-2.1-.4-.1-.1c-1.5-.1-3-1-4.2-1.3l.2-.1c-.3-.2-.8-.3-.8-.1-.3-.2-.9-.4-1-.6-.3-.2-.5-.1-.8-.3-.6-.5-.9-.6-1.5-1l.1.1c.1 0 .2 0 0-.2-.3-.1-.8-.7-.7-.3-.6-.6-1.5-1.2-1.9-1.9 0 .1-.1 0-.2-.1l-.6-.9c-.2-.3-.3-.6-.5-.8 0-.1.2.1 0-.2-.1-.1-.1 0-.2-.1-.3-.5-.5-1.1-.7-1.6 0-.3-.1-.6-.2-.9 0-.1-.1-.3-.1-.4v-.4c-.4-1.9.2-4 1.2-5.6.1-.3.3-.6.5-.8.2-.3.5-.5.5-.8.1-.1.4-.4.4-.3.3-.4 1-.9 1.4-1.4l-.1.1c.6-.3 1-.9 1.7-1.2 0 .1-.2.1-.1.2.3-.1.4-.5.7-.4.1-.1 0-.2 0-.1l4.3-2.3c1.2-.2.2.3 1-.1.1 0 0-.1 0-.1.3-.2.6.1.8-.1-.1-.1.1-.1.1-.2.7-.1.9 0 1.4-.3v.1c.6-.4 1.3-.4 1.8-.8 3.5-.7 7-1 10.6-.7 3.5.3 6.9 1 10.2 2.5.7.5.8.5 1.6.9h-.1c.1-.1.6.3.7.2 1.2.7 2.2 1.3 3.3 2.2-.2-.1-.4-.1-.2.1l.3.1v.1c.2.1.3.2.2 0 1.4 1.1 2.5 2.6 3.2 4.3s.8 3.6.4 5.4c-.1.4-.3.9-.5 1.4-.1.2-.2.5-.3.7l-.3.6c-1.6 2.2-3.5 3.5-5.7 5 .5.5.6 0 1.4-.7zm-1.8 1.2c-.1 0-.4.1-.2-.1 0 0 .2 0 .2.1z"/><path d="M37.1 33.1l.1-.1c-.1 0-.1 0-.1.1zm-2 .3c0-.1.4-.2.7-.3-.2.2-.4.2-.7.3zm-1.8-.1c-.1 0-.1-.1 0 0zm-.1.2c-.2 0-.2 0-.3-.1 0 .1.4 0 .3.1zm-3.9 0c-.1 0-.3.1-.4 0 .1 0 .5-.1.4 0zm-1.8 0h-.2.2zm-17-18.1l-.1.2v-.1zm13-5.7c.2-.1.2 0 .2 0-.2.1 0 0-.2 0zm7.8-.7v-.2z"/></g><path d="M12.6 18.6l11.1-6.4 3.1 1.8c1 .6 1.6 1.2 1.9 1.9s.3 1.4-.1 2c-.4.7-1.1 1.3-2.1 1.9l-.7.4c-1 .6-2.2 1-3.4 1.2s-2.4.2-3.5 0c-1.2-.2-2.3-.6-3.3-1.1l-3-1.7zM24 13.8l-8.7 5 1.5.9c1.1.7 2.4 1 3.7.9s2.6-.4 3.9-1.2l.6-.4c1.3-.7 1.9-1.5 2-2.2s-.4-1.4-1.5-2.1l-1.5-.9zm.5 11.7l-1.5-.8 11.1-6.4 1.5.8-11.1 6.4zm11.4.2l8.5-1.5 1.7 1L35.3 27l-4.1 2.4-1.5-.8 4.1-2.4 3.1-6.2 1.7 1-2.7 4.7z" enable-background="new"/></svg>