<?xml version="1.0" encoding="utf-8"?>
<!-- Generator: Adobe Illustrator 24.0.1, SVG Export Plug-In . SVG Version: 6.00 Build 0)  -->
<svg version="1.1" id="Layer_1" xmlns="http://www.w3.org/2000/svg" xmlns:xlink="http://www.w3.org/1999/xlink" x="0px" y="0px"
	 viewBox="0 0 58.2 44.6" style="enable-background:new 0 0 58.2 44.6;" xml:space="preserve">
<style type="text/css">
	.st0{fill:#FFFFFF;}
	.st1{fill:#202020;}
	.st2{enable-background:new    ;}
</style>
<g>
	<g>
		<path class="st0" d="M51.5,26.6C50.5,44.6,9,44.6,7,27"/>
		<g>
			<g>
				<g>
					<g>
						<path class="st1" d="M51.8,26.7C51.8,26.5,51.7,26.8,51.8,26.7C51.8,26.6,51.8,26.7,51.8,26.7z"/>
						<path class="st1" d="M7,27.7c0.3,0.3,0.3,0.7,0.4,1.1c0.1,0.4,0.2,0.8,0.4,1.1c0,0.1-0.2,0.1-0.1,0.2c0.6,0.5,0.9,1.6,1.3,2.4
							H8.9c0.1,0.2,0.3,0.2,0.4,0.4c0,0-0.1,0-0.1,0.1c0.1,0,0.3,0.2,0.4,0.2c0,0.1-0.1,0.1,0,0.2h0.2c0.4,0,0.4,0.5,0.8,0.7h-0.1
							c0.6,0.3,1.1,0.8,1.7,1.1l-0.1,0.1c0.1-0.1,0.3,0,0.5,0.1c0,0.2,0.3,0.1,0.5,0.3l0,0c0.2,0,0.1,0.2,0.3,0.1V36
							c0.2-0.1,0.1,0.2,0.3,0.2l0,0c0.1,0,0.1,0.1,0.3,0.2l0,0c0.3,0.1,0.3,0.3,0.4,0.1c0,0.2-0.3-0.1-0.2,0.2
							c0.4,0.2,0.8,0.3,1.2,0.5s0.8,0.4,1.2,0.5c0.1,0.1,0.1,0.1,0.1,0.2c0.1,0,0.3,0.1,0.4,0c0,0,0,0.1,0.1,0.1
							c0.1,0.1,0.2-0.1,0.4,0c-0.1,0-0.1,0-0.1,0.1c0.2-0.1,0.4,0,0.5,0.1c0,0-0.1,0-0.1,0.1c0.2-0.1,0.3,0.1,0.5,0.1l-0.1,0.1
							c0.2,0.2,0.1-0.2,0.3,0c-0.1,0-0.1,0-0.1,0.1c0.3-0.1,0.6,0.1,0.8,0.1l0,0c0.2,0,0.5,0.2,0.7,0.2c0.1,0.1-0.1,0.2,0.2,0.2
							c0-0.2,0.4,0,0.3-0.2c0.2,0.1,0.5,0.2,0.7,0.2c-0.1,0,0,0.3-0.1,0.2l0.1,0.1c0,0.1-0.1-0.1-0.1,0c0.1,0,0.4,0,0.4,0.1
							c0.2-0.1,0.4-0.3,0.7-0.2c-0.1,0,0,0.2-0.1,0.2l0.4-0.3c0.1,0,0,0.2,0.1,0.1l0.1-0.1c0,0,0.4,0,0.4,0.2c0,0.1-0.2,0-0.1,0.1
							c0.2,0,0.2,0,0.3,0l0,0c0.1,0,0.3,0,0.2-0.2c-0.1,0,0,0.1-0.1,0c0.1-0.1,0.3-0.1,0.5-0.1c-0.1,0-0.1,0.1-0.1,0.1
							c0.2-0.1,0.5-0.1,0.7-0.2c0-0.1-0.1,0.2-0.1,0.1c0.3,0.2,0.7-0.1,0.9,0.1v-0.1c0.2,0,0.1,0.2,0.2,0.1c0,0.1,0.1,0,0.2,0
							c0.1,0,0,0-0.1,0c0.2,0,0.7-0.1,1,0c0,0,0.2-0.2,0.3-0.2v0.1c0.1,0.1,0.3,0,0.3,0.1c0.2-0.1-0.6,0.1-0.4,0
							c0,0.1,0.3-0.2,0.3,0c0.2,0,0.3-0.1,0.5,0c0,0-0.1,0.2,0,0.2c0.2,0,0.1,0,0.2-0.1h0.1c0-0.1,0.2,0,0.1-0.1
							c0,0.1,0.3,0,0.3,0.1v0.1c0.1,0,0.2-0.2,0.2-0.2s0,0,0,0.1c0-0.2,0.2,0,0.3-0.2c0.2,0.1,0.5,0,0.6,0.2
							c0.2-0.1,0.3-0.2,0.5-0.1c0,0-0.1,0-0.1,0.1c0.1,0.1,0.1,0,0.2,0c0,0,0.2,0.1,0.3,0.2c0.2-0.1,0.1-0.2,0.1-0.3
							c0.2,0.2,0.4-0.2,0.6,0c0,0-0.2,0.1-0.1,0.2c0.2,0.2,0.3-0.2,0.5-0.1l-0.1-0.2c0.1,0.1,0.3-0.1,0.3,0c0.1-0.1,0.3,0,0.2-0.1
							c0.4,0.1,0.9-0.2,1.1,0.1c0,0,0.2,0,0.2-0.1c-0.1-0.1-0.1,0.1-0.2,0V39c0.1,0,0.2,0,0.1,0.2c0.3,0.1,0.2-0.3,0.5-0.3
							c0,0.1,0,0.1,0.1,0.1l0.2-0.2c0.2,0,0.1,0.2,0.2,0.3c0.1,0,0.2,0,0.3-0.2l0.2,0.1c-0.1-0.1,0.1-0.1,0.1-0.1l0,0h0.2
							c0-0.1-0.2-0.1-0.2-0.1c0-0.1,0.1-0.1,0.2-0.1c0,0.1,0.2,0.1,0.3,0.1s0.1-0.1,0.1-0.1c0,0.1,0.2,0,0.1,0.1h-0.1
							c0.1,0,0.1,0.1,0.2,0c0.1-0.1-0.1-0.2,0.1-0.2c0,0,0,0.1-0.1,0.1h0.2v-0.1l0,0c0-0.1,0.3-0.1,0.3-0.2c0.1,0,0.2,0,0.3,0l0,0
							c0.1,0,0.3,0,0.3-0.1l0,0c0.1,0,0.2,0,0.3-0.1c0.2,0,0.1,0.4,0.3,0.2c0.2,0,0.2-0.3,0.1-0.3c0.3,0,0.5-0.3,0.8-0.1
							c0,0,0-0.1,0.1-0.1c0.4,0,0.8-0.3,1.1-0.2c-0.1,0.1,0,0.1,0,0.2c0.1-0.1,0.1,0.1,0.1-0.1c0-0.1,0-0.1-0.2-0.2
							c0.2-0.1,0.5-0.2,0.7-0.2c-0.1,0,0-0.1,0-0.1c0,0.2,0.2,0.1,0.3,0v-0.1l0.1,0.1c0,0,0-0.2,0.1-0.2c0,0,0,0.1,0.1,0.1
							c0.1-0.1,0.2-0.3,0.4-0.3L41,37c0,0,0.1-0.2,0-0.2c0.3,0,0.4-0.1,0.5,0c0.3-0.4,0.8-0.7,1.3-0.9V36c0.2,0,0-0.2,0.1-0.1
							c0,0.1,0.2,0.1,0.1,0.2c0.2,0,0.2-0.2,0.3-0.3c0-0.1-0.1,0.1-0.1,0c0,0,0.3-0.1,0.2-0.2c0.1,0,0.1,0.1,0.1,0.2l0.1-0.1
							c0.2,0.1-0.1,0.4,0.1,0.5l0.1-0.1c0.2,0.1-0.2,0.3,0.1,0.2c0.1-0.1,0-0.4-0.1-0.4c0.2-0.2-0.1-0.4,0.2-0.5
							c0.1,0-0.2,0.1-0.1,0.2c0.2,0,0.2-0.2,0.3-0.2c-0.1,0-0.1-0.2-0.1-0.2c0.2,0,0,0.2,0.2,0.1c0-0.1,0.1-0.2-0.1-0.2
							c0-0.2,0.2-0.1,0.2-0.2c0.1,0.1,0,0.4,0.2,0.3c-0.1-0.1,0.1-0.3-0.1-0.4c0.1,0,0.2,0.1,0.2,0.2c0.2,0,0.1-0.4,0.3-0.2v-0.1
							c0,0,0.1,0,0.2,0c0.1-0.1,0.2-0.3,0.3-0.2c0,0,0.2-0.2,0-0.2s-0.1,0.2-0.3,0.1c0.2,0.1,0.2-0.1,0.2-0.2h0.1
							c0,0,0.1-0.1,0.1-0.2c0,0.1,0,0.1,0.1,0.1V34c0.1-0.2,0.2,0.1,0.3,0l-0.1,0.2c0,0,0.1,0,0.2-0.1c0-0.1-0.1-0.3-0.1-0.3
							c0-0.1,0.1,0.1,0.1-0.1v0.2c0,0,0.2,0.1,0.3,0c0-0.1,0-0.3-0.1-0.3c0,0,0.2-0.1,0.2,0c0.1-0.1-0.1-0.1,0-0.2
							c0.1,0,0.3,0,0.5,0v0.2l0.1-0.1c0,0.2,0.1,0,0.2,0.2c0.1,0,0.1-0.1,0.1-0.2c-0.3,0-0.1-0.4-0.3-0.5c0.2-0.2,0.5,0.3,0.5-0.2
							c-0.1,0-0.1-0.2-0.2,0c0.1-0.1-0.1-0.2,0.1-0.3c0,0.2,0.3,0,0.2,0.3c0-0.1-0.1,0.1-0.1,0.1c0.1,0,0.2,0.2,0.3,0
							c0-0.1,0.2-0.2,0-0.3c-0.1-0.1-0.1,0.1-0.2,0c0.1-0.2,0.3-0.1,0.2-0.3c-0.1,0.1-0.2,0.1-0.3,0l0.1-0.2v0.1
							c0.2-0.2-0.1-0.2,0.1-0.3H48c0.1,0.1-0.3,0.2-0.1,0.3c0.1-0.1,0-0.2,0.2-0.3V32c0,0,0.3,0.1,0.3-0.2c0-0.1,0-0.1-0.1-0.1
							c0.1-0.2,0.1-0.3,0.2-0.5c0.1,0.1,0.2-0.2,0.2,0c-0.1,0-0.3,0.3-0.2,0.5c0.2,0-0.1,0.2,0,0.3c0.1-0.2,0.3,0,0.4,0
							c0,0,0-0.1,0-0.2c-0.1-0.1-0.1,0-0.2-0.1c0.2-0.2,0.2-0.4,0.2-0.6c0.1,0,0.2,0,0.1,0.1c0.1-0.3,0.3-0.5,0.4-0.7
							c-0.3,0.1,0.1-0.3-0.1-0.3c-0.1,0.1-0.3,0.2-0.3,0c0-0.1,0.1,0,0.1,0c0-0.2,0.2-0.1,0.1-0.3c0,0.3,0.2,0.2,0.3,0.3
							c0-0.2,0.1,0.1,0.2-0.1c0-0.2,0-0.4,0.1-0.6c0.3-0.2,0.2-0.6,0.3-0.8c0.1-0.1,0.3,0,0.3-0.1c0-0.2-0.2,0.1-0.1-0.1l0,0
							c0-0.1,0.2-0.4,0-0.5l0.2,0.1V28c0.1,0,0.1,0,0.2,0c0.2-0.1,0.1-0.3,0.1-0.5l-0.1,0.1c0-0.3,0.1-0.4,0.1-0.7h0.1v-0.2
							c0.1,0,0.2-0.1,0.1-0.2l0.2,0.4c-0.1,0.1-0.1-0.1-0.2-0.1c-0.1,0-0.1,0.3,0,0.3c0-0.1,0-0.1,0-0.2c0.2,0,0.1,0.1,0.2,0.2V27
							c0.1,0.1,0.1,0.2,0,0.4c0-0.1-0.1,0-0.1,0c0.1,0,0.2,0.2,0.1,0.4c-0.2,0.1,0,0.4-0.1,0.6c-0.1-0.1-0.2-0.3-0.2-0.4
							c-0.1,0.1,0,0.2-0.1,0.3c0.1,0.1,0.2,0.2,0.2,0.4h-0.1c0,0.2,0.2,0.2,0.1,0.4c-0.2,0.3-0.3,0.7-0.5,0.9h-0.1
							c0.1,0.2-0.1,0.5-0.1,0.8c-0.3,0.3-0.3,0.7-0.6,0.8c-0.3,0.6-0.6,1.1-1,1.5v-0.2c0,0.2-0.1,0-0.2,0.1c0.2,0,0,0.2,0,0.3
							c-0.3,0.1-0.5,0.5-0.6,0.7l-0.1-0.1c-0.1,0.3-0.4,0.4-0.7,0.6c-0.1,0-0.2,0-0.2,0c0,0.2-0.1,0.3-0.3,0.5
							c-0.2,0.1-0.4,0.3-0.6,0.3c-0.5,0.6-1.2,0.9-1.8,1.3l-0.1-0.1c-0.5,0.5-1.4,0.8-2,1.1v-0.2c-0.2,0-0.4,0.2-0.3,0.3
							c-0.2,0-0.4,0.3-0.6,0.2c-0.2,0-0.2,0.2-0.3,0.3c-0.4,0-0.5,0.1-0.9,0.3h0.1c0-0.1,0-0.1-0.1-0.1c-0.1,0.1-0.5,0.1-0.3,0.3
							c-0.4,0-0.9,0.4-1.3,0.3c0,0.1,0,0.1-0.1,0.2c-0.3,0.1-0.7,0-1,0.2c-0.1,0,0.1-0.1-0.1-0.1c-0.1,0,0,0.1-0.1,0.1
							c-0.5,0.2-1.2,0.1-1.7,0.2c-0.9,0.3-1.8,0.3-2.7,0.4l0,0c-0.3,0.2-0.7-0.1-0.9,0.2c-0.1,0-0.3,0-0.2-0.1
							c-0.2,0.2-0.7-0.1-1,0.1c0,0,0,0,0.1,0c-0.3-0.1-0.6,0.1-1,0c0,0,0.1,0,0.1-0.1c-0.1-0.1-0.3,0.2-0.4,0c-0.1,0-0.1,0.1,0,0.1
							c-0.8-0.1-1.6,0-2.4,0.1c-0.6-0.2,0-0.4-0.5-0.3c0,0,0,0.1,0,0c-0.2,0-0.3-0.3-0.4-0.2c0,0.2-0.1,0.1-0.1,0.2
							c-0.3-0.1-0.4-0.3-0.7-0.2v-0.1c-0.3,0.2-0.7,0-1,0.2c-1.8-0.1-3.6-0.4-5.3-0.8c-1.7-0.6-3.4-1-5-2c-0.3-0.4-0.3-0.4-0.8-0.5
							c0,0,0.1,0,0,0c-0.1,0.1-0.3-0.2-0.4,0c-0.6-0.3-1.1-0.7-1.7-1.1c0.1,0,0.2,0,0.1-0.1H11l0,0c-0.1,0-0.2,0-0.2,0.1
							c-1.5-1-2.6-2.5-3.5-3.9c-0.2-0.4-0.5-0.9-0.7-1.3c0-0.2-0.1-0.3-0.2-0.5c0-0.2-0.1-0.3-0.1-0.5c-0.1-0.3-0.1-0.6-0.2-0.9
							c-0.1-0.6-0.2-1.3-0.4-1.9C6.3,27.1,6.8,27.2,7,27.7z"/>
						<path class="st1" d="M51.8,27c-0.1,0-0.2,0.2-0.3,0C51.6,27,51.7,27,51.8,27z"/>
						<path class="st1" d="M50,30.5C50,30.5,49.9,30.5,50,30.5C49.9,30.5,49.8,30.4,50,30.5C49.9,30.4,49.9,30.4,50,30.5z"/>
						<path class="st1" d="M49.5,31.3c-0.1,0,0-0.3,0.1-0.3L49.5,31.3z"/>
						<path class="st1" d="M48.8,31.8C48.7,31.9,48.7,31.8,48.8,31.8C48.7,31.8,48.7,31.8,48.8,31.8z"/>
						<path class="st1" d="M48.9,32c0,0.1-0.1,0.1-0.2,0.1C48.8,32.1,48.8,31.9,48.9,32z"/>
						<path class="st1" d="M47.5,33.3c0,0-0.1,0.2-0.2,0.1C47.4,33.4,47.4,33.2,47.5,33.3z"/>
						<path class="st1" d="M46.9,34L46.9,34C46.8,34,46.8,33.9,46.9,34L46.9,34z"/>
						<polygon class="st1" points="31.6,39.5 31.7,39.5 31.7,39.6 						"/>
						<path class="st1" d="M24.3,39.2C24.2,39.3,24.2,39.1,24.3,39.2C24.3,39.2,24.2,39.2,24.3,39.2z"/>
						<polygon class="st1" points="20.3,38.8 20.4,38.8 20.3,39 						"/>
					</g>
				</g>
			</g>
		</g>
	</g>
	<g>
		<g>
			<g>
				<g>
					<g>
						<path class="st1" d="M51.3,26.6C51.3,26.6,51.4,26.6,51.3,26.6C51.3,26.6,51.2,26.6,51.3,26.6z"/>
						<path class="st1" d="M51.3,22.4c0.4,0,0,0.1,0.2,0.2h-0.2c0.3,0,0.1,0.1-0.1,0.2h-0.1c0,0,0.2,0,0.1,0h-0.1c0.1,0,0,0,0.1,0
							c0,0-0.1,0-0.2,0h0.1c0.3,0,0,0,0.1,0.1h-0.1c0.2,0,0.2,0.1,0.2,0.2c0,0-0.1,0-0.2,0c0.1,0,0.2,0,0.2,0c-0.2,0,0.1,0,0,0l0,0
							c0.2,0-0.1,0,0.1,0h-0.1c0.2,0-0.1,0,0,0l0,0l0,0l0,0c0,0-0.1,0,0.1,0c-0.1,0-0.1,0-0.2,0c0.2,0.1,0.1,0.1,0.1,0.2
							c-0.1,0-0.1,0-0.1,0s0,0,0.1,0h-0.1c-0.1,0,0.2,0,0.1,0c0,0-0.1,0-0.2,0c0.1,0,0.1,0,0.2,0c0,0,0,0-0.1,0c0.1,0,0,0,0.1,0
							h-0.1c-0.1,0,0.2,0,0.1,0h-0.1c0.2,0,0.1,0,0.2,0.1l0,0c0,0,0,0,0,0.1h-0.2c0.2,0,0.1,0,0.3,0c0,0-0.1,0,0,0
							c-0.1,0-0.2,0-0.2,0h-0.1c-0.1,0,0,0-0.1,0c0,0,0.1,0,0,0c0.1,0,0.3,0,0.3,0c-0.1,0-0.2,0-0.2,0h0.4c0,0-0.2,0-0.1,0h0.1
							c0,0,0,0-0.1,0s0,0-0.1,0h0.1l0,0c0,0,0.1,0,0.2,0h-0.1c0.1,0,0.1,0,0.1,0h-0.1c0.1,0,0.2,0,0.3,0s-0.2,0-0.1,0
							c-0.1,0,0.2,0,0,0.1h0.1h-0.1c-0.1,0,0,0,0,0l0,0c0.1,0,0.2,0,0.1,0.1h0.2H52c-0.1,0,0,0-0.1,0c0.1,0-0.1,0,0,0
							c-0.1,0,0.2,0,0,0c0,0,0.1,0,0,0h-0.2c0,0,0,0,0.1,0l0,0c0.1,0,0,0,0.1,0c-0.1,0,0.1,0-0.1,0h-0.2h0.2c0,0,0,0-0.1,0
							c0.2,0,0,0,0.2,0c-0.1,0,0,0-0.2,0c0.1,0,0.2,0,0.1,0c0,0,0,0-0.1,0s0,0,0,0s-0.1,0-0.2,0c0.1,0,0.2,0,0.3,0
							c-0.2,0,0.1,0-0.1,0c0,0-0.1,0-0.2,0c-0.2,0,0.2,0,0.1,0h0.2c-0.1,0,0.1,0-0.1,0c0.1,0-0.1,0,0.1,0c-0.2,0,0.1,0.1-0.2,0.1
							c0,0,0,0,0.1,0s-0.1,0,0,0c0,0,0,0,0.1,0c0,0,0,0-0.2,0c-0.1,0,0.3,0,0.2,0s-0.1,0-0.1,0h0.1c0,0-0.2,0-0.3,0c0,0,0,0,0.1,0
							h-0.2c0.1,0,0.1,0,0.1,0l0,0l0,0c0.1,0,0.1,0,0.1,0s0,0,0.1,0c-0.1,0-0.1,0-0.1,0h0.1c-0.1,0,0,0-0.1,0c0,0,0.1,0,0,0
							c0,0-0.2,0-0.1,0c0.1,0,0.2,0,0.2,0h-0.1h-0.1h0.1l0,0c0.1,0,0,0,0.2,0h-0.1l0,0c-0.1,0,0,0,0,0l0,0c0,0,0,0,0.1,0
							c-0.1,0-0.4,0-0.3,0c0,0,0.2,0,0.3,0c-0.1,0,0.1,0-0.1,0.1h0.1c0,0,0.1,0.1-0.1,0.1c0,0-0.1,0-0.2,0c0.1,0-0.1,0,0.1,0
							c0.1,0,0.2,0,0.2,0s0,0,0,0.1h0.1c-0.2,0-0.2,0-0.1,0h0.1h-0.1c0,0,0.2,0,0.1,0h-0.1c0.1,0,0.2,0,0.1,0h-0.1h0.1
							c-0.1,0-0.1,0-0.2,0c0.3,0,0.3,0.1,0.3,0.1h0.3c-0.1,0,0.1,0,0.1,0c-0.1,0-0.2,0-0.2,0c-0.1,0,0.1,0,0.2,0c0.1,0-0.1,0,0.1,0
							c0,0-0.1,0,0.1,0c-0.1,0-0.2,0-0.2,0h0.1c-0.2,0-0.3,0-0.5,0l0,0c-0.2,0-0.2,0-0.2,0c0.1,0,0.3,0,0.3,0h0.3c-0.1,0,0,0-0.1,0
							s0.1,0,0,0h0.2c-0.1,0-0.1,0-0.2,0c0.1,0,0.2,0,0.2,0c0.2,0,0,0,0.1,0c-0.1,0-0.3,0-0.4,0c0.1,0,0.2,0,0.4,0c0,0-0.1,0-0.2,0
							c-0.1,0,0.2,0,0,0h0.1c0,0-0.1,0-0.2,0c0,0,0.2,0,0,0c0,0,0,0,0.2,0c0.1,0-0.1,0,0.1,0c-0.2,0,0,0,0.1,0h-0.1c0,0,0,0,0.1,0
							h-0.1h0.1c0.1,0-0.2,0-0.2,0h-0.1c0,0-0.1,0,0,0s0.2,0,0.3,0c0,0-0.1,0,0,0h-0.1h-0.2c0,0,0.2,0,0.3,0h-0.1c0,0,0.1,0,0.2,0
							c-0.1,0-0.2,0-0.3,0h-0.2l0,0c-0.1,0-0.1,0-0.3,0c0,0,0,0,0.1,0c0.2,0,0.3,0,0.5,0c0.1,0-0.5,0-0.2,0c0.1,0,0.2,0,0.2,0
							s0.2,0,0.1,0c-0.1,0-0.2,0-0.4,0c0.1,0,0.1,0,0,0s-0.2,0-0.2,0s0,0,0.1,0s0,0,0.1,0c0,0-0.2,0,0.1,0c0,0,0.1,0,0.2,0l0,0h-0.1
							c-0.1,0,0.2,0,0.1,0h-0.2c-0.1,0,0.1,0-0.2,0c0,0,0.1,0,0,0l0,0c0,0-0.3,0-0.1,0c0.1,0,0.1,0,0.2,0h0.1c-0.2,0,0,0-0.2,0
							c0.1,0,0.1,0-0.1,0c-0.2,0,0,0-0.2,0c0,0-0.2,0-0.3,0c0,0,0,0,0.1,0s0.1,0,0.3,0c0,0,0,0,0.2,0c-0.1,0-0.2,0-0.2,0s0,0,0,0.1
							c0.2,0,0,0,0.2,0c0,0,0.2,0,0.3,0h-0.1c0.1,0-0.2,0,0,0c-0.1,0-0.2,0-0.4,0c0.1,0-0.1,0-0.1,0c0.1,0,0.2,0,0.2,0
							c-0.2,0,0,0,0,0.1c-0.1,0-0.3,0-0.3,0s0.2,0,0.1,0l0,0c0,0-0.1,0,0.1,0h-0.2l0,0c-0.1,0-0.1,0-0.2,0c-0.1,0,0,0,0,0h0.1
							c0.1,0,0,0,0,0h-0.1h0.1c-0.1,0-0.2,0-0.1,0h-0.3c0.1,0,0.1,0,0.2,0c0.1,0,0.1,0,0,0l0,0c-0.2,0-0.2,0-0.3,0l0,0
							c-0.1,0-0.1,0-0.1,0c0.1,0,0.1,0,0.1,0c-0.1,0-0.2,0-0.1,0c0.2,0-0.1,0-0.1,0c0.1,0,0.3,0,0.3,0c0.1,0,0,0,0.1,0
							c-0.1,0-0.3,0-0.3,0h0.1H51c0,0,0,0,0.1-0.1h0.1c-0.2,0-0.1,0-0.2,0c0.1,0-0.1-0.1,0.1-0.1c-0.1,0-0.2-0.1-0.1-0.1h0.2
							c-0.1,0,0.1,0,0.1,0c-0.1,0-0.2,0-0.2,0c0.1,0,0,0-0.1-0.1h0.1c-0.2,0,0,0,0-0.1h0.1c-0.2,0-0.2,0-0.3,0c0,0,0,0,0.1,0
							c-0.2,0-0.1-0.1-0.2-0.2h0.1c-0.3,0,0-0.1-0.2-0.2h0.2c0.1,0,0,0-0.2,0c0.1,0-0.1,0,0.1,0h-0.1c0.1,0,0.1,0,0-0.1l0,0h0.1
							c-0.1,0,0,0-0.2,0c0.1,0-0.1-0.1,0.1-0.1c-0.1,0-0.1,0-0.1,0s0.1,0,0-0.1h0.1h-0.1c-0.1,0,0.1-0.1,0.1-0.1
							c-0.1-0.1-0.1-0.1-0.1-0.2l0,0c-0.2,0,0.2,0-0.1-0.1c0,0,0,0,0.1,0c-0.1,0,0.1,0,0-0.1l0,0c0.1,0,0,0,0.1-0.1c0,0,0,0,0.1,0
							s-0.2,0,0,0h-0.1c0.1-0.1-0.1-0.1-0.1-0.2c0.1,0,0.4,0,0.2,0c0,0-0.1,0,0,0c-0.1,0,0.3,0,0.1,0c-0.1,0-0.1,0-0.2,0
							c0.1,0,0.2,0,0.1,0h0.1c-0.2,0-0.1,0-0.3-0.1c0-0.1-0.2-0.3-0.2-0.4c0-0.1-0.1-0.3,0.1-0.4c0.2,0,0.2,0,0.1-0.1c0,0,0,0,0.1,0
							c-0.2,0,0,0-0.2,0v-0.1c0,0,0.2,0,0.1,0h-0.1l0,0c0,0-0.1,0-0.2,0c-0.1-0.1,0.2-0.3,0.2-0.4c0.1,0,0-0.1,0-0.1
							c0.2-0.1,0.4-0.2,0.2-0.3C50.8,22.3,51.2,22.3,51.3,22.4z"/>
						<path class="st1" d="M51.2,26.5c0.1,0,0.1,0,0.2,0C51.4,26.5,51.3,26.6,51.2,26.5z"/>
						<path class="st1" d="M52.1,26.3L52.1,26.3C52.1,26.3,52.2,26.3,52.1,26.3L52.1,26.3z"/>
						<path class="st1" d="M52.1,26.2C52.2,26.2,52.2,26.2,52.1,26.2L52.1,26.2z"/>
						<path class="st1" d="M52.4,26.1C52.5,26.1,52.5,26.1,52.4,26.1C52.5,26.1,52.5,26.1,52.4,26.1z"/>
						<path class="st1" d="M52.3,26.1L52.3,26.1C52.3,26.1,52.4,26.1,52.3,26.1z"/>
						<path class="st1" d="M52.5,26C52.5,26,52.4,26,52.5,26C52.4,26,52.6,26,52.5,26z"/>
						<path class="st1" d="M52.4,25.9L52.4,25.9L52.4,25.9L52.4,25.9z"/>
						<polygon class="st1" points="52.1,24.6 52.1,24.6 52,24.6 						"/>
						<path class="st1" d="M52.1,24.1C52,24,52.1,24,52.1,24.1C52.1,24.1,52.1,24,52.1,24.1z"/>
						<polygon class="st1" points="51.7,23.8 51.7,23.8 51.6,23.8 						"/>
					</g>
				</g>
			</g>
		</g>
	</g>
	<g>
		<g>
			<g>
				<g>
					<g>
						<path class="st1" d="M6.8,27.1C6.8,27.2,6.9,27.1,6.8,27.1C6.8,27.2,6.7,27.2,6.8,27.1z"/>
						<path class="st1" d="M6.8,21.5c0.4,0.1,0,0.2,0.2,0.2H6.8c0.3,0.1,0.1,0.2-0.1,0.3H6.6c0,0,0.2,0,0.1,0H6.6c0.1,0,0,0,0.1,0
							c0,0-0.1,0-0.2,0h0.1c0.3,0,0,0.1,0.1,0.1H6.6c0.2,0.1,0.2,0.1,0.2,0.2c0,0-0.1,0-0.2,0c0.1,0,0.2,0,0.2,0c-0.2,0,0.1,0,0,0
							l0,0c0.2,0-0.1,0,0.1,0H6.8c0.2,0-0.1,0,0,0l0,0l0,0l0,0c0,0-0.1,0,0.1,0c-0.1,0-0.1,0-0.2,0c0.2,0.1,0.1,0.2,0.1,0.3
							c-0.1,0-0.1,0-0.1,0s0,0,0.1,0H6.7c-0.1,0,0.2,0,0.1,0c0,0-0.1,0-0.2,0c0.1,0,0.1,0,0.2,0c0,0,0,0-0.1,0c0.1,0,0,0,0.1,0H6.7
							c-0.1,0,0.2,0,0.1,0H6.7c0.2,0,0.1,0.1,0.2,0.1l0,0c0,0,0,0,0,0.1H6.7c0.2,0,0.1,0,0.3,0c0,0-0.1,0.1,0,0.1
							c-0.1,0-0.2,0-0.2,0H6.7c-0.1,0,0,0-0.1,0c0,0,0.1,0,0,0c0.1,0,0.3,0,0.3,0.1c-0.1,0-0.2,0-0.2,0h0.4c0,0-0.2,0-0.1,0h0.1
							c0,0,0,0-0.1,0s0,0-0.1,0H7l0,0c0,0,0.1,0,0.2,0H7.1c0.1,0,0.1,0,0.1,0H7.1c0.1,0,0.2,0,0.3,0.1c0.1,0-0.2,0-0.1,0
							c-0.1,0,0.2,0.1,0,0.1h0.1H7.3c-0.1,0,0,0,0,0l0,0c0.1,0,0.2,0.1,0.1,0.1h0.2H7.5c-0.1,0,0,0-0.1,0c0.1,0-0.1-0.1,0,0
							c-0.1,0,0.2,0,0,0c0,0,0.1,0,0,0H7.2c0,0,0,0,0.1,0l0,0c0.1,0,0,0,0.1,0c-0.1,0,0.1,0-0.1,0H7.1h0.2c0,0,0,0-0.1,0
							c0.2,0,0,0,0.2,0c-0.1,0,0,0-0.2,0.1c0.1,0,0.2,0,0.1,0c0,0,0,0-0.1,0s0,0,0,0s-0.1,0-0.2,0c0.1,0,0.2,0,0.3,0
							c-0.2,0,0.1,0-0.1,0.1c0,0-0.1,0-0.2,0c-0.2,0,0.2,0,0.1,0h0.2c-0.1,0,0.1,0-0.1,0c0.1,0-0.1,0,0.1,0c-0.2,0,0.1,0.1-0.2,0.1
							c0,0,0,0,0.1,0s-0.1,0,0,0c0,0,0,0,0.1,0c0,0,0,0-0.2,0c-0.1,0,0.3,0,0.2,0.1c-0.1,0-0.1,0-0.1,0h0.1c0,0-0.2,0-0.3,0
							c0,0,0,0,0.1,0H6.9c0.1,0,0.1,0,0.1,0l0,0l0,0c0.1,0,0.1,0,0.1,0s0,0,0.1,0c-0.1,0-0.1,0-0.1,0h0.1c-0.1,0,0,0-0.1,0
							c0,0,0.1,0,0,0c0,0-0.2,0-0.1,0c0.1,0,0.2,0,0.2,0H7.1H7h0.1l0,0c0.1,0,0,0,0.2,0H7.2l0,0c-0.1,0,0,0,0,0l0,0c0,0,0,0,0.1,0
							c-0.1,0-0.4,0-0.3,0c0,0,0.2,0,0.3,0c-0.1,0,0.1,0.1-0.1,0.1h0.1c0,0,0.1,0.1-0.1,0.1c0,0-0.1,0-0.2,0c0.1,0-0.1,0,0.1,0
							c0.1,0,0.2,0,0.2,0V24h0.1c-0.2,0-0.2,0-0.1,0h0.1H7.3c0,0,0.2,0,0.1,0H7.3c0.1,0,0.2,0,0.1,0H7.3h0.1c-0.1,0-0.1,0-0.2,0
							c0.3,0,0.3,0.1,0.3,0.2H7.4c-0.1,0,0.1,0,0.1,0c-0.1,0-0.2,0-0.2,0c-0.1,0,0.1,0,0.2,0c0.1,0-0.1,0,0.1,0c0,0-0.1,0,0.1,0
							c-0.1,0-0.2,0-0.2,0h0.1c-0.2,0-0.3,0-0.5,0l0,0c-0.2,0-0.2,0-0.2,0c0.1,0,0.3,0,0.3,0h0.3c-0.1,0,0,0-0.1,0s0.1,0,0,0h0.2
							c-0.1,0-0.1,0-0.2,0c0.1,0,0.2,0,0.2,0c0.2,0,0,0,0.1,0c-0.1,0-0.3,0-0.4,0c0.1,0,0.2,0,0.4,0c0,0-0.1,0-0.2,0
							c-0.1,0,0.2,0,0,0h0.1c0,0-0.1,0-0.2,0c0,0,0.2,0,0,0c0,0,0,0,0.2,0c0.1,0-0.1,0,0.1,0c-0.2,0,0,0,0.1,0H7.7c0,0,0,0,0.1,0
							H7.7h0.1c0.1,0-0.2,0-0.2,0H7.5c0,0-0.1,0,0,0s0.2,0,0.3,0c0,0-0.1,0,0,0H7.7H7.5c0,0,0.2,0,0.3,0H7.7c0,0,0.1,0,0.2,0
							c-0.1,0-0.2,0-0.3,0H7.4l0,0c-0.1,0-0.1,0-0.3,0c0,0,0,0,0.1,0c0.2,0,0.3,0,0.5,0c0.1,0-0.5,0-0.2,0c0.1,0,0.2,0,0.2,0
							s0.2,0,0.1,0c-0.1,0-0.2,0-0.4,0c0.1,0,0.1,0,0,0s-0.2,0-0.2,0s0,0,0.1,0s0,0,0.1,0c0,0-0.2,0,0.1,0c0,0,0.1,0,0.2,0l0,0H7.6
							c-0.1,0,0.2,0,0.1,0H7.5c-0.1,0,0.1,0-0.2,0c0,0,0.1,0,0,0l0,0c0,0-0.3,0-0.1,0c0.1,0,0.1,0,0.2,0h0.1c-0.2,0,0,0-0.2,0
							c0.1,0,0.1,0-0.1-0.1c-0.2,0,0,0-0.2,0c0,0-0.2,0-0.3,0c0,0,0,0,0.1,0s0.1,0,0.3,0c0,0,0,0,0.2,0.1c-0.1,0-0.2,0-0.2,0v0.1
							c0.2,0,0,0,0.2,0c0,0,0.2,0,0.3,0H7.5c0.1,0-0.2,0,0,0c-0.1,0-0.2,0-0.4,0c0.1,0-0.1,0-0.1,0c0.1,0,0.2,0,0.2,0.1
							c-0.2,0,0,0.1,0,0.1c-0.1,0-0.3,0-0.3,0s0.2,0,0.1,0l0,0c0,0-0.1,0,0.1,0H6.9l0,0c-0.1,0-0.1,0-0.2,0c-0.1,0,0,0,0,0h0.1
							c0.1,0,0,0,0,0.1H6.7h0.1c-0.1,0-0.2,0-0.1,0H6.4c0.1,0,0.1,0,0.2,0c0.1,0,0.1,0,0,0l0,0c-0.2,0-0.2,0-0.3,0l0,0
							c-0.1,0-0.1,0-0.1,0c0.1,0,0.1,0,0.1,0c-0.1,0-0.2,0-0.1,0c0.2,0-0.1,0-0.1-0.1c0.1,0,0.3,0,0.3,0c0.1,0,0,0,0.1,0
							c-0.1,0-0.3,0-0.3,0h0.1H6.1c0,0,0-0.1,0.1-0.1h0.1c-0.2,0-0.1,0-0.2-0.1c0.1,0-0.1-0.1,0.1-0.1C6.1,24.1,6,24.1,6.1,24h0.2
							c-0.1,0,0.1,0,0.1,0c-0.1,0-0.2,0-0.2,0c0.1,0,0-0.1-0.1-0.1h0.1c-0.2,0,0-0.1,0-0.1h0.1c-0.2,0-0.2,0-0.3,0c0,0,0,0,0.1-0.1
							c-0.2-0.1-0.1-0.1-0.2-0.2H6c-0.3-0.1,0-0.2-0.2-0.2H6c0.1,0,0,0-0.2,0c0.1,0-0.1,0,0.1-0.1H5.8c0.1,0,0.1,0,0-0.1l0,0h0.1
							c-0.1,0,0,0-0.2,0c0.1,0-0.1-0.1,0.1-0.1c-0.1,0-0.1,0-0.1,0s0.1-0.1,0-0.1h0.1H5.7c-0.1-0.1,0.1-0.1,0.1-0.2
							c-0.1-0.1-0.1-0.2-0.1-0.3l0,0c-0.2,0,0.2-0.1-0.1-0.1c0,0,0,0,0.1,0c-0.1,0,0.1-0.1,0-0.1l0,0c0.1,0,0-0.1,0.1-0.1
							c0,0,0,0,0.1,0s-0.2,0,0,0H5.8c0.1-0.1-0.1-0.2-0.1-0.2c0.1-0.1,0.4,0,0.2,0c0,0-0.1,0,0,0c-0.1,0,0.3,0,0.1,0
							c-0.1,0-0.1,0-0.2,0c0.1,0,0.2,0,0.1-0.1H6c-0.2,0-0.1-0.1-0.3-0.1c0-0.2-0.2-0.3-0.2-0.5s-0.1-0.3,0.1-0.5
							c0.2,0,0.2,0,0.1-0.1c0,0,0,0,0.1,0c-0.2,0,0,0-0.2,0c0-0.1,0-0.1,0-0.2c0,0,0.2,0,0.1,0H5.6l0,0c0,0-0.1,0-0.2,0
							c-0.1-0.2,0.2-0.3,0.2-0.5c0.1,0,0-0.1,0-0.1c0.2-0.1,0.4-0.2,0.2-0.4C6.3,21.4,6.8,21.4,6.8,21.5z"/>
						<path class="st1" d="M6.7,27.1c0.1,0,0.1,0,0.2,0C6.9,27.1,6.8,27.1,6.7,27.1z"/>
						<path class="st1" d="M7.6,26.7L7.6,26.7C7.6,26.7,7.7,26.7,7.6,26.7L7.6,26.7z"/>
						<path class="st1" d="M7.6,26.6C7.7,26.6,7.7,26.6,7.6,26.6L7.6,26.6z"/>
						<path class="st1" d="M7.9,26.5C8,26.5,8,26.5,7.9,26.5C8,26.5,8,26.5,7.9,26.5z"/>
						<path class="st1" d="M7.8,26.5L7.8,26.5C7.8,26.5,7.9,26.5,7.8,26.5z"/>
						<path class="st1" d="M8,26.3C8,26.3,7.9,26.3,8,26.3C7.9,26.3,8.1,26.3,8,26.3z"/>
						<path class="st1" d="M7.9,26.2L7.9,26.2L7.9,26.2L7.9,26.2z"/>
						<polygon class="st1" points="7.6,24.5 7.6,24.5 7.5,24.5 						"/>
						<path class="st1" d="M7.6,23.7C7.5,23.7,7.6,23.7,7.6,23.7C7.7,23.7,7.6,23.7,7.6,23.7z"/>
						<polygon class="st1" points="7.2,23.3 7.2,23.3 7.1,23.3 						"/>
					</g>
				</g>
			</g>
		</g>
	</g>
	<g>
		
			<ellipse transform="matrix(5.421873e-03 -1 1 5.421873e-03 7.627 50.8101)" class="st0" cx="29.4" cy="21.6" rx="12.9" ry="22.3"/>
		<g>
			<g>
				<g>
					<g>
						<path class="st1" d="M45,31.1c0.3-0.2-0.3,0,0.2-0.2C45.2,31,45.1,31,45,31.1z"/>
						<path class="st1" d="M46.3,30.1c0.5-0.5,1-1,1.7-1.5c0.6-0.5,1.2-1.1,1.5-1.7c0.1-0.1,0.1,0.2,0.3-0.2
							c0.3-0.7,0.8-1.4,1.1-2.3c0.2-0.4,0.3-0.9,0.5-1.3c0.2-0.5,0.2-0.9,0.3-1.4v0.1c0.1-0.3-0.2-0.7-0.2-1.1c0,0,0.1,0.1,0.1,0
							c-0.1,0-0.1-0.2-0.1-0.4s-0.1-0.3-0.2-0.4c0-0.2,0.1-0.2,0.1-0.3l-0.2-0.2c-0.2-0.2-0.3-0.5-0.5-0.9c-0.1-0.3-0.2-0.7-0.5-1
							c0,0,0.1,0.1,0.1,0c-0.7-1-1.7-2.1-2.8-3c0.1,0,0.2,0,0.1-0.1c-0.1,0.1-0.5-0.2-0.8-0.4c0-0.2-0.6-0.3-0.8-0.6l0,0
							c-0.3,0-0.3-0.3-0.7-0.3l-0.1-0.2c-0.2,0.1-0.3-0.3-0.6-0.4l0,0c-0.2-0.1-0.3-0.2-0.5-0.3l0,0c-0.5-0.2-0.7-0.4-0.8-0.3
							c-0.1-0.2,0.5,0.2,0.3-0.1c-0.8-0.4-1.7-0.6-2.5-1c-0.8-0.3-1.7-0.6-2.5-0.8c-0.2-0.1-0.3-0.2-0.3-0.2c-0.2,0-0.7-0.1-0.8-0.1
							c0.1,0-0.1-0.1-0.2-0.1c-0.3-0.1-0.4,0.1-0.7,0c0.2,0,0.2,0,0.2-0.1c-0.3,0.1-0.7,0-1.1-0.1c0.1,0,0.2,0,0.1-0.1
							c-0.4,0.1-0.7-0.2-1-0.1l0.1-0.1c-0.5-0.2-0.2,0.2-0.7,0c0.1,0,0.1,0,0.1-0.1c-0.5,0.1-1.2-0.1-1.6,0l0,0
							c-0.5,0-1-0.1-1.5-0.1c-0.2-0.1,0.1-0.2-0.4-0.2c0,0.2-0.9,0-0.6,0.3c-0.4,0-1.1-0.1-1.4-0.1C29,8.8,28.6,8.7,29,8.7l-0.3-0.1
							c0-0.1,0.3,0,0.2-0.1c-0.2,0-0.7,0.1-0.9,0.1c-0.3,0.1-0.6,0.3-1.2,0.4c0.3-0.1-0.2-0.2,0-0.2c-0.3,0.1-0.5,0.3-0.7,0.4
							c-0.2,0,0-0.1-0.3-0.1c0,0-0.1,0.1-0.2,0.1c-0.1,0-0.7,0.1-0.8-0.1C24.7,9,25.1,9,24.9,9c-0.3,0-0.3,0.1-0.7,0.1l0,0
							c-0.2,0-0.6,0.2-0.4,0.2c0.2,0-0.1-0.1,0.2-0.1c-0.1,0.1-0.5,0.2-0.8,0.3c0.1,0,0.1-0.1,0.1-0.2c-0.4,0.2-0.9,0.3-1.3,0.5
							c0,0.1,0.2-0.2,0.2-0.2c-0.6,0-1.2,0.4-1.8,0.4c0.1,0,0.1,0.1,0.1,0.1c-0.3,0.1-0.3-0.1-0.5,0c0-0.1-0.2,0.1-0.4,0.2
							c-0.1,0.1-0.1,0,0.1-0.1c-0.3,0.1-1.3,0.5-2,0.7c0,0-0.3,0.3-0.5,0.3v-0.1c-0.2,0-0.5,0.2-0.5,0.1c-0.3,0.2,1.1-0.5,0.8-0.3
							c-0.1,0-0.5,0.4-0.5,0.2c-0.3,0.1-0.5,0.3-0.8,0.3c0.1,0,0.2-0.2-0.1-0.1c-0.4,0.2-0.1,0.1-0.4,0.3l-0.2,0.1
							c0,0.1-0.4,0.1-0.2,0.2c-0.1-0.1-0.5,0.3-0.6,0.1v-0.2c-0.2,0.1-0.2,0.3-0.3,0.4h-0.1c0.1,0.2-0.4,0.2-0.5,0.4
							c-0.4,0.1-0.9,0.5-1.1,0.5c-0.2,0.2-0.4,0.4-0.7,0.6c0,0,0.1-0.1,0.1-0.2c-0.2,0.1-0.2,0.1-0.4,0.3c0-0.1-0.4,0.2-0.7,0.2
							c-0.2,0.2,0,0.3,0,0.3c-0.3,0-0.6,0.6-0.9,0.7c0-0.1,0.2-0.4,0-0.3c-0.3,0-0.3,0.5-0.7,0.7h0.2c-0.2,0-0.4,0.5-0.5,0.4
							c0,0.2-0.4,0.3-0.2,0.4c-0.6,0.4-0.9,1.4-1.4,1.6c0,0.1-0.1,0.3,0,0.3c0.2-0.1,0-0.2,0.1-0.3c0,0.1,0,0.1,0,0.1
							c-0.1,0.2-0.2,0.3-0.3,0.1c-0.3,0.4,0.1,0.6-0.2,1.1c-0.1,0-0.1,0-0.1,0.2v0.3c-0.1,0.4-0.2,0.2-0.3,0.2c0,0.2-0.1,0.5,0,0.6
							l-0.2,0.2c0.1-0.2,0.1,0.2,0.1,0.3v-0.1c-0.1,0,0,0.3,0,0.4c0.1,0,0.1-0.3,0.2-0.4c0,0.1,0,0.3,0.1,0.4
							c-0.1,0-0.1,0.3-0.1,0.5s0.1,0.2,0.1,0.3c-0.1,0,0,0.3-0.1,0.2c0-0.1,0-0.2,0-0.3c0,0.1-0.2,0.1,0,0.4C6.9,22.5,7,22.2,7,22.6
							c0-0.1-0.1-0.1-0.2-0.2v0.3h0.1l0,0c0.1,0.1,0.2,0.5,0.3,0.5c0,0.2,0,0.4,0.1,0.5l0,0c0,0.2,0.2,0.5,0.3,0.6l0,0
							c0,0.1,0.2,0.3,0.3,0.4C8,25,7.6,25,7.9,25.2c0.2,0.3,0.4,0.3,0.4,0.1c0.2,0.5,0.8,0.8,0.9,1.3c0.1,0,0.1,0,0.2,0.1
							c0.3,0.3,0.6,0.5,0.9,0.8c0.3,0.3,0.6,0.5,0.8,0.8c-0.2-0.1-0.1,0.1-0.1,0.1c0.2,0,0.1,0.2,0.3,0.1c0-0.1,0.1-0.1-0.1-0.3
							c0.4,0.3,1,0.7,1.1,0.9c-0.1-0.1,0-0.1,0.1,0c-0.1,0.1,0.2,0.3,0.4,0.4l0.1-0.1l0.1,0.2c0.1,0,0.2-0.1,0.4,0.1v0.1
							c0.3,0.1,0.7,0.1,0.9,0.3l0.2,0.2c0.1,0,0.3,0.1,0.2-0.1c0.4,0.3,0.7,0.4,0.8,0.6c0.9,0.1,2.1,0.5,3,0.8v0.1
							c0.2,0.2,0.2-0.1,0.3,0c-0.1,0,0.2,0.2-0.1,0.2c0.3,0.2,0.5,0,0.8,0c0.1-0.1-0.2,0-0.1-0.1c0,0,0.5,0.2,0.6,0.1
							c0.1,0.1,0,0.2-0.1,0.2h0.3c0.2,0.2-0.7,0.1-0.5,0.4h0.2c0.2,0.2-0.6,0-0.1,0.2c0.3,0,0.5-0.2,0.3-0.3
							c0.5,0.1,0.3-0.3,0.8-0.2c0.1,0.1-0.4-0.1-0.3,0.1c0.2,0.2,0.5,0,0.7,0.1c-0.2-0.1,0-0.2,0.2-0.2c0.3,0.1-0.2,0.1,0.2,0.2
							c0.1-0.1,0.4-0.1,0.2-0.2c0.2-0.2,0.4,0.1,0.6,0c0.1,0.2-0.4,0.2,0,0.4c0-0.1,0.5-0.1,0.4-0.3c0.2,0.1,0.2,0.2,0,0.2
							c0.2,0.1,0.6-0.2,0.6,0.1l0.1-0.1c0.1,0,0.2,0.1,0.3,0.2c0.2,0,0.7-0.1,0.6,0.1c0.1,0,0.5,0,0.4-0.1c-0.3-0.1-0.3,0.1-0.5-0.1
							c0.2,0.2,0.4,0,0.6,0v0.1c0.1,0,0.3,0,0.4-0.1c-0.1,0,0,0.1,0,0.1l0.1-0.1c0.4,0,0.1,0.2,0.5,0.2l-0.3,0.1
							c0.1,0,0.2,0.1,0.4,0.1c0.1-0.1,0.2-0.2,0.3-0.3c0.2,0,0.1,0.1,0.3,0l-0.3,0.1c0,0,0.2,0.2,0.5,0.2c0.2,0,0.5-0.2,0.2-0.2
							c0.2,0,0.4,0.1,0.2,0.2c0.3,0,0-0.1,0.3-0.2c0.1,0.1,0.5,0.2,0.7,0.3L28,33.3h0.2c-0.3,0.1,0.1,0.1,0,0.3c0.1,0,0.3,0,0.5,0
							c-0.4-0.3,0.5-0.3,0.3-0.5c0.6-0.1,0.4,0.5,0.9,0.2c-0.1,0,0.2-0.2-0.2-0.2c0.3,0,0.2-0.2,0.7-0.2c-0.3,0.1,0.3,0.2-0.1,0.4
							c0-0.1-0.3,0-0.3,0c0.2,0.1,0,0.2,0.3,0.2c0.2,0,0.5,0,0.5-0.2c0-0.1-0.3,0-0.2-0.1c0.4,0,0.5,0.1,0.7-0.1
							C31,33.1,31,33,31,32.9l0.3-0.1l-0.1,0.1c0.5,0,0.1-0.2,0.6-0.2l0.3,0.2c-0.1,0.2-0.7,0-0.6,0.2c0.3,0,0.4-0.1,0.7-0.1
							c-0.1,0-0.2,0-0.2,0.1c0.1,0,0.3,0.3,0.7,0.1c0.2-0.1,0-0.1,0-0.2c0.5-0.1,0.7-0.2,1-0.3c0,0.2,0.6-0.1,0.3,0.2
							c-0.2-0.1-0.9,0-1.1,0.2c0.2,0.2-0.4,0-0.5,0.2c0.4,0,0.4,0.2,0.5,0.3c0.1,0,0.2-0.1,0.3-0.1c0-0.1-0.1-0.1-0.1-0.2
							c0.5,0,0.9-0.2,1.2-0.3c0.2,0,0.1,0.2,0,0.2c0.5-0.1,1.1-0.2,1.7-0.3c-0.4-0.1,0.6-0.2,0.3-0.3c-0.3,0-0.5-0.1-0.4-0.2
							c0.2,0,0,0.1,0.1,0.1c0.2-0.2,0.4,0.1,0.6-0.1c-0.5,0.2,0,0.3-0.1,0.4c0.3-0.2,0,0.1,0.4,0c0.3-0.2,0.8-0.3,1.2-0.5
							c0.5,0,1.3-0.3,1.7-0.5c0.3,0,0.2,0.2,0.4,0.2c0.3-0.1-0.3-0.1,0.2-0.2l0,0c0.1-0.1,0.8-0.2,0.9-0.4l-0.1,0.2
							c0.1,0,0.2-0.1,0.2-0.1c0,0.1,0.1,0.1,0,0.2c0.3,0,0.5-0.3,0.8-0.4H42c0.4-0.3,0.8-0.3,1.3-0.6v0.1l0.2-0.2
							c0,0.1,0.3,0.1,0.4-0.1l-0.6,0.6c-0.2,0,0.2-0.2,0-0.3c-0.1,0-0.6,0.2-0.6,0.3c0.2-0.1,0.2-0.1,0.3-0.2
							c0.1,0.1-0.1,0.2-0.2,0.4c0.1,0,0.2,0,0.2-0.1c-0.1,0.1-0.3,0.2-0.6,0.3c0.2-0.1-0.1,0-0.1-0.1c0,0.1-0.2,0.3-0.6,0.4
							c-0.3,0-0.7,0.3-1.1,0.5c0.1-0.2,0.3-0.4,0.5-0.5c-0.3,0-0.3,0.1-0.6,0.1c-0.1,0.1-0.1,0.3-0.5,0.5v-0.1
							c-0.3,0.2-0.3,0.3-0.7,0.4c-0.7,0.1-1.4,0.3-2,0.5v-0.1c-0.3,0.3-1,0.3-1.4,0.5c-0.7,0.1-1.5,0.3-1.9,0.2
							c-0.6,0.1-1.2,0.2-1.8,0.3s-1.2,0.1-1.8,0.1l0.2-0.2c-0.2,0.1-0.2-0.1-0.4,0c0.3,0.1-0.3,0.2-0.5,0.3c-0.6-0.1-1.3,0-1.8,0.1
							v-0.1c-0.5,0.2-1.1,0-1.8-0.1c-0.1,0-0.2-0.2-0.4-0.2c-0.4,0.1-0.5,0.1-1.1,0.2c-0.4,0-1-0.2-1.3-0.3c-0.7,0-1.4-0.1-2.1-0.2
							c-0.7-0.1-1.4-0.3-2.1-0.4L19,33.2c-1.5-0.1-3-1-4.2-1.3l0.2-0.1c-0.3-0.2-0.8-0.3-0.8-0.1c-0.3-0.2-0.9-0.4-1-0.6
							c-0.3-0.2-0.5-0.1-0.8-0.3c-0.6-0.5-0.9-0.6-1.5-1l0.1,0.1c0.1,0,0.2,0,0-0.2c-0.3-0.1-0.8-0.7-0.7-0.3
							c-0.6-0.6-1.5-1.2-1.9-1.9c0,0.1-0.1,0-0.2-0.1c-0.2-0.3-0.4-0.6-0.6-0.9c-0.2-0.3-0.3-0.6-0.5-0.8c0-0.1,0.2,0.1,0-0.2
							c-0.1-0.1-0.1,0-0.2-0.1c-0.3-0.5-0.5-1.1-0.7-1.6c0-0.3-0.1-0.6-0.2-0.9c0-0.1-0.1-0.3-0.1-0.4c0-0.1,0-0.3,0-0.4
							c-0.4-1.9,0.2-4,1.2-5.6l0,0c0.1-0.3,0.3-0.6,0.5-0.8c0.2-0.3,0.5-0.5,0.5-0.8c0.1-0.1,0.4-0.4,0.4-0.3c0.3-0.4,1-0.9,1.4-1.4
							l-0.1,0.1c0.6-0.3,1-0.9,1.7-1.2c0,0.1-0.2,0.1-0.1,0.2c0.3-0.1,0.4-0.5,0.7-0.4c0.1-0.1,0-0.2,0-0.1c1.4-0.8,2.8-1.6,4.3-2.3
							c1.2-0.2,0.2,0.3,1-0.1c0.1,0,0-0.1,0-0.1c0.3-0.2,0.6,0.1,0.8-0.1c-0.1-0.1,0.1-0.1,0.1-0.2c0.7-0.1,0.9,0,1.4-0.3v0.1
							C20.3,8.4,21,8.4,21.5,8c3.5-0.7,7-1,10.6-0.7c3.5,0.3,6.9,1,10.2,2.5c0.7,0.5,0.8,0.5,1.6,0.9h-0.1c0.1-0.1,0.6,0.3,0.7,0.2
							c1.2,0.7,2.2,1.3,3.3,2.2c-0.2-0.1-0.4-0.1-0.2,0.1l0.3,0.1v0.1c0.2,0.1,0.3,0.2,0.2,0c1.4,1.1,2.5,2.6,3.2,4.3
							s0.8,3.6,0.4,5.4c-0.1,0.4-0.3,0.9-0.5,1.4c-0.1,0.2-0.2,0.5-0.3,0.7s-0.2,0.4-0.3,0.6c-1.6,2.2-3.5,3.5-5.7,5
							C45.4,31.3,45.5,30.8,46.3,30.1z"/>
						<path class="st1" d="M44.5,31.3c-0.1,0-0.4,0.1-0.2-0.1C44.3,31.2,44.5,31.2,44.5,31.3z"/>
						<path class="st1" d="M37.1,33.1L37.1,33.1c0,0,0.1-0.1,0.1-0.1C37.1,33,37.1,33,37.1,33.1z"/>
						<path class="st1" d="M35.1,33.4c0-0.1,0.4-0.2,0.7-0.3C35.6,33.3,35.4,33.3,35.1,33.4z"/>
						<path class="st1" d="M33.3,33.3C33.2,33.3,33.2,33.2,33.3,33.3C33.4,33.3,33.4,33.3,33.3,33.3z"/>
						<path class="st1" d="M33.2,33.5c-0.2,0-0.2,0-0.3-0.1C32.9,33.5,33.3,33.4,33.2,33.5z"/>
						<path class="st1" d="M29.3,33.5c-0.1,0-0.3,0.1-0.4,0C29,33.5,29.4,33.4,29.3,33.5z"/>
						<path class="st1" d="M27.5,33.5c-0.1,0-0.1,0-0.2,0C27.3,33.5,27.4,33.5,27.5,33.5L27.5,33.5z"/>
						<polygon class="st1" points="10.5,15.4 10.4,15.6 10.4,15.5 						"/>
						<path class="st1" d="M23.5,9.7c0.2-0.1,0.2,0,0.2,0C23.5,9.8,23.7,9.7,23.5,9.7z"/>
						<polygon class="st1" points="31.3,9 31.3,9 31.3,8.8 						"/>
					</g>
				</g>
			</g>
		</g>
	</g>
</g>
<g class="st2">
	<path d="M12.6,18.6l11.1-6.4l3.1,1.8c1,0.6,1.6,1.2,1.9,1.9c0.3,0.7,0.3,1.4-0.1,2c-0.4,0.7-1.1,1.3-2.1,1.9l-0.7,0.4
		c-1,0.6-2.2,1-3.4,1.2s-2.4,0.2-3.5,0c-1.2-0.2-2.3-0.6-3.3-1.1L12.6,18.6z M24,13.8l-8.7,5l1.5,0.9c1.1,0.7,2.4,1,3.7,0.9
		s2.6-0.4,3.9-1.2L25,19c1.3-0.7,1.9-1.5,2-2.2s-0.4-1.4-1.5-2.1L24,13.8z"/>
	<path d="M24.5,25.5L23,24.7l11.1-6.4l1.5,0.8L24.5,25.5z"/>
	<path d="M35.9,25.7l8.5-1.5l1.7,1L35.3,27l-4.1,2.4l-1.5-0.8l4.1-2.4l3.1-6.2l1.7,1L35.9,25.7z"/>
</g>
</svg>
