<svg xmlns="http://www.w3.org/2000/svg" viewBox="0 0 59.6 54.3"><style><![CDATA[.E{fill:#436685}.F{fill:#202020}]]></style><path d="M40.7 32.8l-.1-17-7.4-4.3.1 17z" class="E"/><g class="F"><path d="M40.4 32.6c0 .2.1-.1.1.1-.1 0-.1 0-.1-.1zm-.2-.3c-.7 0-1.2-.7-1.9-.8-.1 0 .1-.2 0-.2-.7-.1-1.5-.7-2-1.3h.1c-.1-.1-.4 0-.5-.1 0 0 .1 0 .1-.1-.1.1-.3-.1-.4 0v-.2l-.1.1c-.4.1-.5-.3-.9-.4 0 0 .1 0 .1-.1-.4-.1-.8-.3-1.3-.5v-.5h.2c-.1 0-.2-.2-.2-.4.1-.1-.1-.3 0-.5-.1-.1.1-.2-.1-.3l.1-.1c-.2-.1.1-.2 0-.3v-.3c-.1-.2.1-.4-.1-.4.1-.1.1.2.2.1-.2-.8-.1-1.6-.1-2.4.1-.1.1-.1.1-.2s0-.3-.1-.4c0 0 .1 0 .1-.1.1-.1-.2-.2-.1-.3 0 .1.1.1.1.1-.1-.1-.1-.3-.1-.5 0 0 0 .1.1.1-.1-.2 0-.3-.1-.5l.1.1c.1-.3-.2-.1-.1-.3h.1c-.2-.2-.1-.5-.2-.7v-.7c0-.1.2 0 .2-.2-.2 0-.1-.4-.3-.3 0-.2.1-.5 0-.6.1.1.2-.1.2.1l.1-.1c.1 0 0 .1.1.1 0-.1-.1-.3 0-.4-.1-.1-.3-.3-.4-.5.1.1.2-.1.2 0L33 18c0-.1.1 0 .1-.1 0 0-.1 0-.1-.1 0 0 0-.3.1-.4.1 0 0 .1.1 0 0-.1-.1-.2-.1-.3s-.1-.3-.2-.2c0 .1.1 0 .1.1-.1-.1-.1-.3-.1-.4 0 0 .1 0 .1.1l-.3-.6c-.1 0 .2.1.1.1.1-.3-.2-.6 0-.8h-.1c0-.1.1-.1.1-.2.1 0 0-.1 0-.2v.1c-.1-.1-.2-.6-.1-1 0 0-.2-.2-.2-.3h.1v-.2c-.1-.1 0 .1 0 .3 0 .1.1.3 0 .2.1 0-.2-.3 0-.2 0-.2-.1-.4 0-.6 0 0 .2.2.1 0 0-.3 0-.1-.1-.3v-.2c-.1-.1 0-.3-.1-.2.1 0-.1-.5.1-.3l.1.2c0-.1-.1-.3-.2-.5h.1c-.2-.3 0-.3-.2-.7v-.4c.1.1.3.2.4.3.1 0 .2 0 .5.2h-.1c.2.2.2.1.3.1 0 0 .3.3.4.5.1 0 .1-.2.1-.2.1.3.5.1.7.5-.1 0-.3 0-.2.1.1.3.4 0 .5.2v-.2c0 .1.3.1.2.2.1 0 .2.2.3 0 .2.3.8.3.8.7.1 0 .1.1.2 0 0-.1-.1 0-.1-.1h.1c.1.1.1.1 0 .2.1.2.4-.1.6.1v.1h.2c.1.1 0 .2 0 .3.1 0 .2.1.3 0v.2c0-.1.1 0 .2 0 0 0 .1.1.2.1 0-.1-.1-.2-.1-.2h.2c-.1.1.1.2.2.2.1.1.1 0 .2 0 0 .1.1.1 0 .1 0 0 0-.1-.1-.1 0 .1 0 .2.1.2s.1-.2.2-.1c-.1 0-.1 0-.1.1l.1.1.1-.1c.1-.1.2.1.3 0 .1 0 .1.2.2.2 0 .1.2.1.3.1 0 0 .2.1.3.1.1.1-.2.4 0 .3.1.1.3-.1.3-.2.1.1.2.1.4.2s.4.2.5.4h.2l.2.1c0 .5.1 1.1-.1 1.3 0-.1-.1 0-.2 0 .1.1-.1.1.1.1.1 0 .1 0 .2-.1 0 .2.1.5 0 .7 0-.1.1 0 .1 0-.2 0-.2.1-.1.3h.1l-.1.1s.2 0 .1.2h-.1c.1.1.2.3.1.4l-.1.1c0 .1.1.2.1 0-.1.2-.1.4-.2.5.3.4.3 1 .3 1.5h-.1c-.1.1.1.1.1.1-.1 0-.1.1-.2 0-.1.2.1.2.2.4.1 0-.1-.1.1-.1 0 0-.1.3.1.3h-.2l.1.1c-.2.1-.3-.3-.5-.2v.1c-.1.1-.2-.3-.2 0 .1.1.3.2.4.1 0 .2.4.1.3.4-.1.1 0-.2-.1-.1s.1.2 0 .3c0-.1.2 0 .2.1-.1.1-.1-.1-.1.1.1 0 .1.2.2 0 .2.1 0 .2.1.3-.1.1-.3-.2-.4 0 .1 0 .2.2.4.1 0 .1-.1.1-.2 0-.1.1.2.3 0 .3h.1l-.1.1c0 .1.2.3 0 .3 0 0 0 .3.1.2s-.1-.2.1-.2c-.1.1 0 .2.1.3h-.1s0 .2.1.2h-.1.1c.1.2-.2 0-.2.2l-.1-.1s-.1.1 0 .2c.1 0 .2.1.3.1 0 .1-.1 0 0 .1l-.1-.1s-.2.1-.2.2.2.2.3.1c0 .1-.1.2-.1.1 0 .2.1 0 .2.1l-.3.3-.2-.1v.1c-.1-.1-.1.1-.3 0 0 .1 0 .1.1.2.2-.2.3.2.5.2.1.3-.5.2-.2.4.1 0 .2.1.2-.1 0 .2.2.1.1.3-.1-.1-.2.1-.4 0 .1 0 .1-.1 0-.1-.1.1-.2 0-.2.1s0 .2.1.2 0-.2.1-.1c0 .2-.1.2.1.3 0-.1.1-.2.2-.2v.1H42c-.1.2.1.1.1.3l-.2.1c-.1 0 .1-.3-.2-.3 0 .1.1.2 0 .3v-.1s-.3.1-.1.3c.1.1.1 0 .2 0 0 .2.1.3.1.5-.2 0 0 .3-.2.1.1-.1.1-.4-.1-.5-.2.1 0-.2-.2-.2 0 .2-.2.2-.3.2 0 0 0 .1.1.1h.3c0 .2 0 .4.2.5-.1.1-.2 0-.2 0v.8c.2-.2 0 .3.2.2 0-.1.2-.2.3-.2 0 .1-.1 0-.1 0 .1.1-.2.2 0 .3-.1-.2-.2 0-.4-.1.1.2-.1 0-.1.2.1.2.2.4.2.6-.1.2 0 .6 0 .8-.1.1-.3 0-.3.2 0 .1.2-.1.1.1 0 .1-.1.4.1.4l-.2-.1v.1h-.2c-.1.1 0 .3 0 .4l.1-.1c.1.2 0 .4 0 .6h-.1l.1.1c-.1 0-.2.1-.1.2l-.3-.4c.1-.1.1.1.2 0 .1 0 .1-.3 0-.3v.1c-.1 0-.1-.1-.3-.2v.1c-.1-.1-.1-.2-.1-.3.1.1.1 0 .1 0-.1 0-.2-.1-.1-.3.2-.1-.1-.3-.1-.5.1.1.3.2.3.3.1-.1 0-.1.1-.3-.1-.1-.3-.1-.3-.3h.1c0-.1-.2-.1-.2-.3 0-.3 0-.7.1-.9h.1c-.2-.1-.1-.5-.2-.6.1-.3-.1-.7.1-.9-.1-.6-.2-1-.1-1.6l.1.1c-.1-.1.1-.1.1-.2-.1.1-.1-.1-.2-.2.1-.3 0-.6-.1-.8h.1c-.2-.2 0-.5 0-.8 0 0 .1-.1.1-.2-.2-.2-.1-.2-.3-.5 0-.2 0-.4.1-.6-.2-.6-.1-1.3-.2-1.9h.1c-.3-.6 0-1.4-.2-2h.2c.1-.2 0-.4-.2-.3.1-.2-.1-.4.1-.5 0-.2-.1-.2-.1-.4.1-.4.1-.5 0-.8v.1h.1c-.1-.1 0-.5-.2-.3.1-.4 0-.3 0-.4V16s-.1 0-.1.1c0 0-.1-.1-.2-.1-.1-.1-.2-.2-.4-.2 0 0 .1-.1 0-.1s0 .1-.1.1c-.5-.1-.8-.6-1.2-.8-.8-.3-1.5-.8-2.1-1.1-.3 0-.4-.5-.8-.3 0-.1-.2-.1-.1-.2-.1 0-.2-.1-.4-.2 0 0-.1-.1-.1 0-.1-.2-.1 0-.2-.2v-.1c-.1-.2 0 .3-.1-.1l.1.2-.1-.1c0 .2.1.5.1.6l-.1.1h-.1c-.1 0-.1 0 0 .2s-.3.3-.1.4c.1 0 .1.1.2.1-.1.3-.2.4-.1.6H34c.2.3.1.6.4.9l.2 4.7v4.6c-.2.4-.2.4-.1.8h-.1c.2 0 0 .3.2.3v1.7c0-.1-.1-.1-.1 0h.3l.1.1.2.1.8.6c.5.4 1.1.8 1.7 1.1.3.2.7.4 1.1.6.9.8 1.7 1.4 2.7 1.9-.4-.1-.7.1-1.2 0z"/><path d="M40.4 32.4c.1 0 .1-.2.2-.1 0 .1-.1.1-.2.1zm.8-3.5zm.1-.9c.1 0 .1.2.1.3l-.1-.3zm.3-.8c0-.1.1-.1 0 0zm-.2-.1c0-.1 0-.1.1-.1-.1 0 0 .2-.1.1zm.2-1.8s-.1-.1 0-.2c0 .1.1.2 0 .2zm-.1-.8c0-.1 0-.1 0 0 0-.1.1-.1 0 0zM35.2 12h.1l-.1.1zm-2.5 4.3c.1.1-.1.1 0 0-.1 0 0 .1 0 0zm.4 3.6h.1z"/></g><g fill="#fff"><path d="M39.7 14.8c-.1 0-.2 0 0 0zm-.1 4.4c-.4 0 0-.1-.2-.2h.2c-.3 0-.1-.1.1-.2h.1c-.3 0 0 0-.1-.1h.1c-.2 0-.2-.1-.2-.2.1 0-.1 0 0 0-.1 0 .1 0-.1 0h.1c-.2 0 .1 0 0 0 0 0 .1 0-.1 0h.2c-.2-.1-.1-.1-.1-.2h.1c.1 0-.2 0-.1 0h.1c.1 0-.2 0-.1 0h.1c-.2 0-.1 0-.2-.1v-.1h.3s-.1 0 0 0h-.6c-.1 0-.2 0-.3-.1-.1 0 .2 0 .1 0 .1 0-.2 0 0-.1h-.1.1c-.1 0-.2-.1-.1-.1h-.1.1c-.1 0 .1 0 0 0 .1 0-.2 0 0 0 0 0-.1 0 0 0h-.1c.1 0-.1 0 .1 0h.2-.3c.2 0-.1 0 .1 0h.2c.2 0-.2 0-.1 0h-.2c.1 0-.1 0 .1 0-.1 0 .1 0-.1 0 .1 0-.1-.1.2-.1h-.1c-.1 0 .1 0 0 0h-.1.2c.1 0-.3 0-.2 0h.2s-.1 0 0 0h.1-.5c.1 0-.1 0 .1-.1h-.1s-.1-.1.1-.1h.2c-.1 0 .1 0-.1 0h-.2v-.1h-.1.2c-.3 0-.3-.1-.3-.1h.1c.1 0-.1 0-.1 0h.2c.1 0-.1 0-.2 0s.1 0-.1 0c0 0 .1 0-.1 0h.2c.1 0-.1 0 0 0h-.2c.1 0-.2 0 0 0h-.1.1s-.2 0 0 0h-.1c-.1 0 .1 0-.1 0 .1 0 0 0-.1 0s.2 0 .2 0h.1-.2c-.1 0 .5 0 .2 0h-.3.4c-.1 0-.1 0 0 0 0 0 .1 0-.1 0h-.1c.1 0-.1 0-.1 0h.2c.1 0-.1 0 .2 0 0 0-.1 0 0 0-.1 0-.1 0 .1 0h.2v-.1h-.4c-.1 0 .2 0 0 0h.4c-.1 0 .1 0 .1 0h-.2c.1 0 0 0 0-.1h.2s.1 0-.1 0h.3c-.1 0 0 0 0 0h.2c-.1 0-.1 0 0 0h.4c-.2 0 .1 0 .1 0h-.2.2s0 .1-.1.1h-.1c.2 0 .1 0 .2.1-.1 0 .1.1-.1.1.1 0 .1.1.1.1h-.1c.1 0-.1 0-.1 0h.2c-.1 0 0 0 .1.1.2 0 0 0 0 .1h-.1.2c.2 0 .1.1.2.2H40c.3 0 0 .1.1.2h-.3c-.1 0 0 0 .2 0-.1 0 .1 0-.1 0h.1c-.1 0-.1 0 0 .1h-.1.2c-.1 0 .1.1-.1.1h.1s-.1 0 0 .1H40h.1c.1 0-.1.1-.1.1.1.1.1.1.1.2.2 0-.2 0 .1.1h-.1c.1 0-.1 0 0 .1-.1 0 0 0-.1.1h-.1c-.1 0 .2 0 0 0h.1c-.1.1.1.1.1.2h-.2c.1 0-.3 0-.1 0s.1 0 .4.1c0 .1.2.3.2.4s.1.3-.1.4c-.2 0-.2 0-.1.1h-.1.2v.1h-.1.3c.1.1-.2.3-.1.4-.1 0 0 .1 0 .1-.2.1-.4.2-.2.3-.1-1.9-.5-1.9-.6-1.9z"/><path d="M39.7 14.9h-.2.2zm-.9.3s-.1 0 0 0z"/><path d="M38.8 15.2h-.1.1zm-.3.1c-.1 0-.1 0 0 0-.1 0 0 0 0 0zm.2 0s-.1 0 0 0c-.1 0-.2 0 0 0zm-.3.2c.1 0-.1 0 0 0z"/><path d="M38.6 15.5s-.1 0 0 0c-.1 0-.1 0 0 0zm.2 1.4v-.1h.1zm0 .5zm.4.3h.2zM40.6 33s0-.1 0 0c0 0-.1 0 0 0z"/><path d="M39.3 32.2c.2-.3 0 0 .2-.2 0 0-.1.2-.2.2.3-.3.2-.1.1.1l.1-.1-.1.1.1-.1s-.1.1-.1.2l.1-.1c.2-.3 0 0 .1-.1v.1c.1-.2.1-.1.2-.2 0 0-.1.1-.1.2.1-.1.1-.1.1-.2-.1.1.1-.1 0 0 .1-.1 0 .1.1-.1v.1c.1-.2 0 .1 0 0 0 0 0 .1.1-.1-.1.1 0 0-.1.2l.1-.1c0 .1 0 .1-.1.1l.1-.1v.1l.1-.1s0 .1-.1.1l.1-.1v.1c.1-.1 0 0 0 0v.1c0 .1.1-.2.1-.1v.1l.1-.1-.1.2c.1-.2 0-.1.1-.2 0 0 0 .1 0 0 0 .1-.1.2-.1.2v.2s0-.1 0 0c.1-.1.2-.3.2-.3 0 .1-.1.2-.1.2l.2-.3s-.1.1 0 .1c0 0 0-.1.1-.1l-.1.1v.1s0-.1.1-.1c0 0 0 .1 0 0s.1-.1.1-.1 0 .1-.1.1c.1-.1.1-.2.1-.2 0-.1-.1.1-.1.1 0 .1.1-.1 0 0 0 0 .1-.1 0-.1 0 0-.1.1 0 .1 0 .1 0 0 0 0s.1-.1.1 0l.1-.1-.1.1v.1c.1-.1-.1.1 0 0 0 .1.1-.1 0 0 0 0 .1-.1 0 0l-.1.1v-.1l.1-.1c0 .1 0 0-.1.1l-.1.1s.1-.1.1-.2v.1c.1-.2 0 0 .1-.1 0 .1 0 0-.1.1 0-.1.1-.1.1-.1v.1c0 .1 0 0 0 0s-.1.1-.1.2c0-.1.1-.2.1-.2-.1.2.1-.1 0 .1l-.1.1c-.1.2.1-.1 0 0l.1-.2c0 .1.1-.1 0 .1 0-.1 0 .1.1-.1-.1.1.1-.1-.1.2v-.1c0-.1 0 .1 0 0v-.1l-.1.2c0 .1.2-.3.1-.2v.1l.1-.1s-.1.1-.1.3l.1-.1-.1.1c0-.1 0-.1.1-.1 0-.1 0-.1.1-.1l.1-.1c-.1.1 0 .1 0 .1l.1-.1v.1s-.1.1 0 .1c0 0 .1-.2.1-.1 0 0 0 .1-.1.1v.1l.2-.2v.1c0 .1 0 0 0 0v-.1c0 .1-.2.4-.1.3l.1-.2c0 .1.1-.1 0 .1v-.1s.1-.1 0 .1l-.1.1c0-.1 0 .1 0-.1 0-.1.1-.1.1-.2v-.1c-.1.1-.1.2-.1.1v-.1.1s.1-.2.1-.1v.1c0-.1.1-.2.1-.1l-.1.1s0-.1.1-.1c0 .1 0 .1-.1.2.2-.3.2-.3.2-.2v.1c0 .1.1-.1 0-.1 0 .1-.1.1-.1.2s.1-.1.1-.1c0-.1 0 0 0 0s0 .1 0-.1c0 0-.1.1-.1.2v-.1c-.1.1-.2.3-.3.4s-.1.1-.1.2c0-.1.1-.2.2-.3l.2-.3c0 .1 0 0-.1.1s0 0 0 0l.1-.2c0 .1-.1.1-.1.1 0-.1.1-.1.1-.2.1-.2 0 0 0-.1-.1.1-.2.3-.2.3.1-.1.1-.1.2-.3 0 0-.1.1-.1.2s.1-.2 0 0l.1-.1s0 .1-.1.1c0 0 .1-.1 0 0l.1-.1c0-.1 0 .1 0-.1-.1.1 0 0 0-.1v.1-.1s0 .1-.1.1l.1-.1s-.1.2-.1.1v.1s0 .1 0 0 .1-.2.2-.3c0 0-.1.1 0 0l-.2.2.1-.2s0 .1-.1.1c0 0 .1-.1.1-.2 0 .1-.1.1-.1.2l-.1.1c-.1.1 0 .1-.1.2.1-.2.2-.3.3-.5 0 0-.3.5-.1.2 0 0 .1-.2.1-.1 0 0 .1-.2.1-.1s-.1.2-.2.3c0-.1 0 0 0 0 0 .1-.1.2-.1.2l.1-.1c.1-.1 0 0 0-.1 0 0-.1.1 0-.1 0 0 0-.1.1-.2v.1c0 .1.1-.1.1-.1l-.1.1c-.1.1 0-.1-.1.1 0 0 .1-.1 0 0 0 0-.2.3-.1.1 0-.1 0-.1.1-.1l.1-.1c-.1.1 0 0-.1.2 0-.1 0-.1 0 .1-.1.2 0 0-.1.1 0 0-.1.2-.2.3v-.1c.1-.1.1-.1.1-.2l.1-.1-.1.2.2-.4s0 .1-.1.1c.1-.1-.1.1 0 0 0 0-.1.2-.2.3 0-.1-.1.1 0 .1 0-.1.1-.1.1-.2-.1.1 0 0 0 0 0 .1-.1.2-.1.3 0 0 .1-.2.1-.1 0 0 0 .1.1-.1l-.1.2-.1.1c-.1.1 0 0 0 0v-.1c0-.1 0 0 0 0l-.1.1v-.1c0 .1-.1.1 0 .1l-.1.2c0-.1.1-.1.1-.2s0-.1 0 0c-.1.1-.1.1-.1.2v.1s0-.1.1-.1l-.1.1c.1-.1-.1.1 0 0s.1-.2.2-.3v-.1c0 .1-.1.2-.2.3v-.1s-.1.2-.1.1v-.2c-.1.2 0 .1-.1.1 0-.1-.1.1 0-.1 0 .1-.1.1-.1.1l.1-.1c-.1.1 0-.1 0-.1-.1.1-.1.1-.1.2 0-.1 0 0-.1.1v-.1c-.1.2 0 0 0 0l.1-.1c-.1.1-.1.1-.1.2v-.1c-.1.2-.1 0-.2.2l.1-.1c-.1.2 0 0-.1.1l.1-.2c0-.1 0 0-.1.2 0-.1-.1.1 0-.1 0 0 0 .1-.1.1 0-.1 0-.1 0 0l.1-.1-.1.2c.1-.1-.1.1 0-.1 0 .1 0 .1-.1.1 0 0 0-.1 0 0l.1-.1s0 .1-.1.1c-.1.1 0-.1 0-.1-.1.1-.1 0-.1 0-.1.2.1-.2-.1.1V33c-.1.1 0-.1 0 0v-.2c0-.1-.1.2 0 0l-.1.1c0-.1-.1 0-.1.1.1-.1.2-.3.1-.2 0 0 0 .1 0 0 0 0 .1-.2.1-.1-.1.1 0 .1-.1.1 0-.1.1-.2 0-.1v-.1c-.1.2-.1.1-.2.3-.1 0-.2.1-.2.1 0-.1-.1 0-.1-.1.1-.2.1-.2 0-.1v-.1l-.1.1.1-.1-.2.2c-.1.1 0-.2 0-.2 0-.1 0 0 0 0 .1-.2.1-.4 0-.3 0 .2.3-.1.3-.2z"/><path d="M40.5 33c0-.1.1-.1.1-.2 0 .1 0 .1-.1.2zm.4-.8s0-.1 0 0z"/><path d="M40.9 32.2c0-.1.1-.1.1-.1l-.1.1zm.1-.3c0-.1.1-.1 0 0zm-.1.1s.1-.1 0 0zm.1-.2s-.1.1 0 0c-.1.1 0-.1 0 0z"/><path d="M40.9 31.9s0-.1 0 0zm-.5 0l-.1.1zm-.2 0s0-.1 0 0c0-.1 0 0 0 0zm-.3.2l-.1.1z"/></g><path d="M35.7 21.4l3.6 2.1-18.4 10.7-3.7-2.2z" class="E"/><g class="F"><path d="M35.9 21.2c-.2-.1 0 .2-.1 0 0 0 .1-.1.1 0z"/><path d="M35 21.5c-.3.6-1.2.7-1.7 1.2-.1 0-.1-.2-.2-.1-.4.6-1.4.9-2.2 1.1v-.1c-.1 0-.2.3-.4.4v-.1c0 .1-.2.2-.2.3-.1 0-.1-.1-.2-.1v.2c-.1.4-.5.3-.8.6v-.1c-.4.4-1 .8-1.5 1.1 0 0 0-.1-.1-.2a.76.76 0 0 1-.2.4c-.1-.1-.2.3-.4.3 0 .2-.2 0-.2.3h-.1c0 .2-.2 0-.3.2-.1.1-.2 0-.3.1-.2.2-.4.1-.3.3-.1-.1.2-.2 0-.3-.6.5-1.3.9-2 1.3h-.2c0 .1-.3.2-.3.3h-.1c-.2 0 0 .2-.2.3v-.2c-.1.2-.2.3-.3.4V29c-.1.2-.3.1-.4.3v-.1c-.3 0 0 .2-.2.3v-.1c-.1.3-.4.4-.5.5-.2.1-.4.2-.6.4-.1 0-.1-.2-.3-.1.1.2-.3.3-.1.4-.2.1-.5.2-.6.3 0-.1-.2-.1-.1-.2h-.2c0-.1.1 0 0-.1-.1 0-.2.2-.3.2-.1.2-.1.4-.3.6.1-.1-.2-.1-.1-.2l-.1.5c-.1 0-.1-.1-.2 0v.1s-.2.1-.3 0c-.1 0 .1-.1-.1-.1l-.2.2c-.1 0-.1.2.1.2 0 0-.1 0 0 0 .1.1 0 .1-.1.2 0 0-.1 0-.1-.1.1.1.1.2.1.3.2 0-.3 0-.1 0-.1 0-.1 0-.2.1.2.1.5.1.4.2h.1s-.1.1 0 .1c-.1 0 .1 0 .2 0s0 0-.1 0c.1 0 .2 0 .3.1.1 0 .1.1.3.2 0 0 .3-.1.3 0l-.1.1c0 .1.2.1.2.2.2 0-.6-.2-.3-.2 0 .1.3 0 .2.1.1.1.3 0 .4.2 0 0-.2.1-.1.1.2.1.1 0 .2 0h.1c.1-.1.1.1.1 0 0 .1.3.1.2.3l-.1.1c.1 0 .2-.1.3-.1v.1c.1-.2.1.1.2-.1 0 .1.1.1.1.1h.1c.1-.1 0-.2.2-.2v.1c.1 0 .1 0 .1-.1h.4c.1-.1 0-.2 0-.3.2.1.3-.3.5-.2 0 0-.1.2 0 .2.2.1.1-.3.4-.3l-.1-.1c.1 0 .2-.2.3-.1 0-.1.2-.1.1-.2.4 0 .7-.5 1-.3l.1-.1c-.1 0-.1.1-.1.1v-.1c.1 0 .2 0 .2.1.3 0 .1-.4.3-.5 0 .1.1.1.1 0l.1-.2c.2-.1.2.1.2.2.1-.1.2-.1.2-.2l.2.1c-.1 0 0-.1.1-.2 0 0 .1 0 .2-.1 0-.1-.2 0-.2 0 0-.1.1-.1.1-.2 0 .1.2 0 .3 0s0-.1.1-.2c0 0 .1-.1.1 0 0 0-.1 0-.1.1.1 0 .1.1.2 0 0-.1-.1-.2 0-.2v.1h.2v-.1c0-.1.2-.2.2-.3h.3c.1 0 .2-.1.3-.2l.2-.2c.2 0 .3.3.3.1.1-.1.1-.3 0-.3.3-.1.4-.4.7-.3v-.1c.3-.1.6-.5 1-.5-.1.1 0 .1.1.1 0-.1.1 0 .1-.1-.1-.1-.1-.1-.2-.1.2-.2.5-.3.6-.3-.1 0 0-.1 0-.1.1.1.2.1.3 0v-.1h.1s-.1-.2.1-.2c0 0 0 .1.1.1.1-.1.2-.3.3-.3l.2.1s.1-.2 0-.1c.3 0 .4-.1.5 0 .2-.5.7-.8 1.1-1v.1c.1 0 0-.1.1-.1 0 .1.2.1.1.2.2 0 .1-.2.2-.3 0-.1 0 .1-.1 0 0 0 .3-.1.2-.2.1 0 .1.1.1.2l.1-.1c.2.1-.1.4.1.5l.1-.1c.2.1-.1.3.1.2.1-.1 0-.4-.1-.4.2-.1-.1-.4.1-.5.1 0-.2.1-.1.2.2 0 .2-.2.3-.2-.1 0-.1-.2-.1-.2.1 0 0 .2.2.1 0-.1.1-.2-.1-.2 0-.2.2 0 .2-.2.1.1 0 .4.2.3-.1-.1.1-.3-.1-.4.1 0 .1.1.1.2.1 0 .1-.3.3-.1v-.1s.1 0 .2.1c.1 0 .2-.3.3-.1 0 0 .2-.1.1-.2-.2 0-.1.2-.3 0 .2.1.2-.1.2-.2v.1s.1-.1.1-.2c0 .1 0 .1.1.1v-.1c.1-.1.1.2.3 0l-.1.1h.2v-.3c.1-.1.1.1.1-.1v.2s.2.1.3 0 .1-.3 0-.3c.1 0 .2 0 .2.1.1-.1-.1-.1 0-.2.1 0 .3 0 .4.1v.2h.1c0 .2.1.1.1.2.1 0 .1-.1.1-.2-.3-.1 0-.4-.1-.6.2-.2.4.4.5 0-.1 0 0-.2-.1-.1.1-.1 0-.3.2-.3-.1.1.2.1.1.3 0-.1-.1 0-.1 0 .1 0 .1.2.2.1s.2-.1.1-.2-.1.1-.1 0c.1-.1.3 0 .2-.2-.1.1-.2 0-.2-.1l.1-.1v.1c.1 0 .1-.1.1-.1v-.1l.1.1v.1s-.1.1 0 .1c.1-.1 0-.1.1-.1 0 0 .3.2.2 0 0-.1-.1-.1-.1-.1v-.1c.2.1.1 0 .3.1-.2 0-.2 0-.1.1.2.1-.1 0 0 .2.1 0 .3.1.4.1v-.1c-.1-.1-.2 0-.3-.1.1 0 .2-.1.1-.2.1 0 .3 0 .3.1.1-.1.2-.2.4-.2-.3 0-.2-.1-.5 0h-.2c-.2 0 .3 0-.1 0h.8c-.3 0 .2 0 .1-.1-.3 0-.5-.1-.6-.1 0-.1-.3-.2-.4-.3 0-.1.1-.2 0-.3s0 .2-.1 0c-.1 0-.3-.3-.5-.1l.1-.1h-.1s0-.1.1-.1c0-.2-.2-.1-.4-.2v.1c-.3 0-.3-.2-.5-.3l.1-.1h-.1c.1-.1 0-.2-.1-.2l.5-.1c0 .1-.2.1-.2.2s.2.2.3.1H37c0-.1.2-.1.3-.1 0 0-.1-.1-.1 0 .1 0 .2 0 .3.1-.1 0 0 .1-.1.1.1-.1.2-.1.4 0 0 .2.3.1.5.2-.1.1-.3.1-.4.1l.2.2c.1 0 .2-.2.4-.1v.1c.2 0 .3-.1.5.1.3.3.7.5 1 .6h-.1c.4 0 .6.2.9.3v.1c-.5.2-.7.5-1.1.5-.3.2-.5.4-.8.6l-.8.5v-.2c0 .1-.1 0-.2 0 .2 0 0 .2-.1.3-.3 0-.5.3-.6.5l-.1-.1c-.1.3-.4.3-.7.4 0 0-.1-.1-.2 0 0 .2-.1.3-.3.5-.1.1-.4.2-.6.2-.4.5-1.1.7-1.5 1.1l-.1-.1c-.4.5-1.2.7-1.6 1.1l-.1-.2c-.2 0-.3.2-.2.3-.2 0-.3.3-.5.2-.2 0-.1.2-.3.3-.3.1-.4.2-.7.4h.1c0-.1 0-.1-.1-.1-.1.1-.4.2-.2.3-.4 0-.6.5-1 .5.1 0 0 .1 0 .1-.3.2-.6.2-.8.4-.1 0 0-.1-.1-.1v.1c-.4.4-.9.4-1.3.6-.6.5-1.4.9-2 1.3-.1.3-.6.1-.7.5-.1 0-.2.1-.2 0-.1.2-.6.2-.7.5v-.1c-.3.1-.5.3-.8.4 0 0 .1-.1 0-.1s-.3.4-.5.2c-.1.1 0 .2 0 .1-.2.1-.4.2-.5.3-.2-.1-.4-.2-.6-.4l-.3-.2-.2-.1c-.3-.1-.5-.3-.8-.4-.4-.4.2-.4-.3-.4 0-.1-.1.1 0 0-.1 0-.1-.1-.2-.2 0-.1-.1-.2-.2-.2 0 .1-.1 0-.2.1-.4-.3-.3-.4-.8-.6h.1c-.7-.1-1-.4-1.8-.6l-.1-.1 1.8-1.1 1.5-1 2-1.2 4.1-2.3c.4 0 .4 0 .8-.3v.1c-.1-.1.2-.2.2-.3l1.5-.9c-.1.1 0 .2 0 .1v-.1c0-.1.1-.2 0-.2 1.2-.9 2.7-1.3 3.9-2.1.3-.1.7-.4 1-.6 1.1-.4 2.1-.7 3-1.4-.6-.4-.5 0-.9.3zm1.1-.2c0 .1.1.2-.1.2.1 0 .1-.1.1-.2z"/><path d="M38.1 23.4s-.1 0 0 0h-.2.2zm-.2.2c-.1 0-.1-.1-.1-.1l.1.1zm-.6 0s-.1-.1 0 0zm.2.1h-.1s0-.1.1 0zm-1.4.6s-.1.1-.2.1c.1 0 .2-.2.2-.1zm-.7.5c-.1 0-.1 0 0 0zm-13.1 7.9v-.1.1zm-3.8-.8h.1c.1 0-.1 0-.1 0zm2.4-1.8l-.1-.1z"/></g><path d="M20.9 42.6v-8.4l18.4-10.7V32z" class="E"/><g class="F"><path d="M20.6 42.5c0 .2.1-.1.1.1-.1 0-.2 0-.1-.1zm1-.1c.4-.7 1.4-.8 2-1.4.1-.1.1.2.2 0 .5-.6 1.6-1.1 2.5-1.3v.1c.2 0 .3-.3.4-.4v.1c0-.1.3-.2.3-.3.1 0 .1.1.2.1v-.2c.1-.4.6-.3.9-.7v.1c.5-.5 1.2-.9 1.8-1.3 0 .1 0 .1.1.2 0-.1.1-.3.3-.4.1.1.2-.3.5-.3.1-.2.3 0 .3-.3h.1c0-.2.3 0 .3-.2.1-.1.2 0 .3-.1.2-.2.4-.2.3-.3.1.1-.2.2 0 .3.7-.6 1.6-1.1 2.4-1.5h.2c.1-.1.3-.2.3-.3h.1c.2 0 .1-.3.3-.3v.2c.1-.2.3-.3.4-.4v.1c.1-.2.3-.2.5-.3v.1c.3 0 0-.2.2-.3v.1c.1-.3.5-.4.6-.6.2-.1.5-.2.7-.4.1 0 .1.2.3 0-.1-.2.4-.3.1-.4.2-.1.5-.2.6-.3 0 .1.3.1.1.2h.2c0 .1-.2.1 0 .1.1 0 .2-.1.2-.2v-.2c-.1-.3-.3-.4-.4-.7.1.1.2-.1.2 0l-.4-.4c0-.1.1 0 .1-.2 0 0-.1 0-.1-.1 0 0 0-.4.1-.4s0 .2.1 0c0-.2-.1-.2-.1-.4 0-.1-.1-.3-.2-.2 0 .1.1 0 .1.1-.1-.1-.1-.3-.1-.5 0 .1.1 0 .1.1-.1-.2-.2-.5-.3-.8-.1 0 .2.1.1.1.1-.3-.2-.7 0-1h-.1c0-.2.1-.2.1-.3.1 0 0-.1 0-.2s0 0 0 .1c-.1-.1-.2-.8-.1-1.1 0 0-.2-.2-.2-.3h.1c.1-.1 0-.3.1-.3-.1-.2.1.7 0 .4.1-.1-.2-.3 0-.3 0-.1-.1-.4 0-.4 0 0 .2.1.1 0 0-.1 0 0-.1-.1-.1 0 0-.1-.1 0 .1-.1-.1-.1.1-.3l.1-.1c0-.1-.1 0-.2.1 0 0 0-.1.1-.1-.2.2 0-.2-.1 0v-.2s-.1 0 0-.1c-.1.2-.2.3-.3.3 0 0 0-.1.1-.1 0-.1-.1 0-.1.1 0 0-.1-.1-.2-.1-.1.1 0 .2 0 .3 0-.1-.1 0-.1 0s0 .1-.1.1h-.2s.1-.2 0-.2c-.2-.1-.2.3-.4.3l.1.1c-.1 0-.3.3-.3.1 0 .1-.3.1-.2.2-.4.1-.8.5-1.1.4 0 0-.2.1-.1.2.1 0 .1-.1.1-.1v.1c-.1 0-.2.1-.2-.1-.3 0-.1.4-.4.5 0-.1-.1-.1-.1 0l-.1.2c-.2.1-.2-.1-.3-.2-.1.1-.2.1-.2.3l-.2-.1c.1 0 0 .1-.1.2 0 0-.1.1-.2.1 0 .1.2 0 .3 0 0 .1-.1.1-.1.2 0-.1-.2 0-.3.1-.1 0 0 .2-.1.2 0 0-.2.1-.1 0 0 0 .1 0 .1-.1-.1 0-.1-.1-.2 0s.1.2-.1.2v-.2H33v.1c0 .1-.2.2-.2.3-.1.1-.2 0-.3.1-.1 0-.3.1-.3.2-.1 0-.2.1-.2.2-.2 0-.3-.3-.3-.1-.1.1-.1.3 0 .3-.3.1-.5.4-.8.4v.1c-.4.2-.7.6-1.1.5.1-.1 0-.1-.1-.1 0 .1-.2 0-.1.1s.1.1.2.1c-.2.2-.5.4-.7.4.1 0 0 .1 0 .1-.1-.1-.2-.1-.3 0v.1h-.1s0 .2-.1.2c0 0 0-.1-.1-.1-.1.1-.2.4-.4.4l-.2-.1s-.1.2 0 .2c-.3.1-.4.1-.6.1-.3.5-.8.9-1.3 1.1v-.1c-.2 0 0 .1-.1.2 0-.1-.2-.1-.1-.2-.2 0-.2.3-.3.3 0 .1.1-.1.1 0 0 0-.3.1-.3.2-.1 0-.1-.1-.1-.2l-.1.1c-.2-.1.2-.4-.1-.5l-.1.1c-.2-.1.2-.3-.1-.2-.1.1-.1.4.1.4-.2.2.1.4-.2.5-.1 0 .2-.1.1-.2-.2 0-.2.2-.3.2.1 0 .1.2.1.2-.2 0 0-.2-.2-.1 0 .1-.1.2 0 .2 0 .2-.2.1-.2.3-.1-.1 0-.4-.2-.3.1.1-.2.3 0 .4-.1 0-.2-.1-.1-.2-.1 0-.1.4-.3.2v.1h-.2c-.1 0-.2.3-.3.2 0 0-.3.2-.1.2s.1-.2.3-.1c-.2-.1-.2.1-.3.2v-.1s-.1.1-.1.2c0-.1 0-.1-.1-.1v.1c-.2.2-.1-.1-.3 0l.1-.2s-.1 0-.2.1v.4c-.1.1-.1-.1-.2.1l.1-.2s-.2-.1-.3 0-.1.3 0 .3c-.1 0-.2 0-.2-.1-.1.1.1.1 0 .2h-.2c-.1 0-.1-.1-.2-.1V34c0-.2-.1-.1-.1-.2-.1 0-.1.1-.1.1.3.1.2.3.4.4 0 0-.5-.2-.2 0 .1 0 .2.1.2 0h.1v.1c-.1-.2-.2.2-.4-.1.1 0 .1 0 0-.1-.1 0-.2 0-.2.1s0 .3.1.3 0-.2.1-.1c0 .2-.1.3.1.4 0-.1.1-.2.2-.2v.2h-.1c-.1.3.1.1.1.4l-.2.1c-.1-.1.1-.4-.2-.4 0 .2.1.2 0 .4v-.1c0 .1-.3.1-.1.4.1.1.1 0 .2 0 0 .3.1.4.1.5-.2 0 0 .3-.2.1.1-.1.1-.5-.1-.6-.2.1 0-.2-.2-.3 0 .2-.2.2-.3.3 0 .1 0 .1.1.2.1 0 .1-.1.3-.1 0 .3 0 .5.1.6-.1.1-.2.1-.2 0v.9c.2-.2 0 .3.2.2 0-.1.2-.3.3-.2 0 .1-.1 0-.1 0 .1.1-.2.2 0 .3-.1-.3-.2 0-.4-.1.1.2-.1 0-.1.2.1.2.2.4.2.7-.1.3 0 .7 0 .9-.1.1-.3 0-.3.2s.2-.1.1.1c0 .1-.1.4.1.5l-.2-.1v.1h-.2c-.1.1 0 .3 0 .5l.1-.1c.1.3 0 .5 0 .7h-.1l.1.2c-.1 0-.2.1-.1.2l-.3-.4c.1-.1.1.1.2 0s.1-.3 0-.4v.2c-.1 0-.1-.1-.3-.2v.1c-.1-.1-.1-.2-.1-.4.1.1.1-.1.1 0-.1 0-.2-.2-.1-.4.2-.1-.1-.4-.1-.6.1.1.3.2.3.4.1-.1 0-.2.1-.3-.1-.1-.3-.1-.3-.3h.1c0-.2-.2-.2-.2-.4 0-.4 0-.8.1-1.1h.1c-.2-.2-.1-.5-.2-.8.1-.4-.1-.8.1-1-.1-.7-.1-1.2-.1-1.9 0 .1.1.1.1.1-.1-.1.1-.1.1-.2-.1.2-.1-.2-.2-.4v-.3c.2-.1.3-.2.4-.3l.3-.3.1.1c.1-.3.5-.3.8-.5 0 0 .1.1.2 0 .1-.2.2-.3.3-.5.2-.1.5-.2.7-.3.5-.6 1.2-.8 1.8-1.3l.1.1c.5-.6 1.4-.8 1.9-1.3v.2c.2 0 .4-.3.3-.4.2 0 .4-.3.6-.3.2-.1.2-.2.3-.3.4-.1.5-.2.8-.5h-.1c0 .1 0 .1.1.1.1-.1.5-.2.2-.4.4-.1.8-.6 1.2-.6-.1 0 0-.1 0-.2.3-.2.7-.3.9-.5.1 0 0 .1.1.1.1-.1 0-.1 0-.2.4-.4 1.1-.5 1.5-.8.8-.6 1.6-1 2.4-1.5.2-.3.7-.2.8-.5.1 0 .3-.1.3 0 .1-.1.2-.2.4-.2.2-.1.3-.1.6-.4 0 0-.1 0-.1.1.5-.2 1-.6 1.5-.8-.1.1-.2.1-.2.2.1 0 .6-.6.6-.3.1-.1.2-.2.1-.2l.6-.3V23c0 .5.1 1.1.1 1.6-.1.6-.4 0-.2.5.1.2-.3.3-.1.4.1 0 .1.1.2.1-.1.4-.2.4-.1.7h-.1c.2.3.1.7.4 1 0 .6 0 1.2.1 1.8v2.4l-2.1 1.3-4.7 2.6c-.5 0-.5.1-.9.4v-.1c.1.1-.3.2-.2.3-.6.3-1.1.7-1.7 1 .1-.1.1-.2 0-.1l-.1.2c-.1.1-.1.2 0 .2-1.5 1-3.1 1.6-4.6 2.5-.4.1-.9.5-1.2.7-1.3.5-2.4.9-3.5 1.7.5 1.1.5.6.9.2z"/><path d="M20.6 42.2c.1 0 .1-.2.2-.1-.1.1-.2.2-.2.1zm.8-4c0-.1 0-.1 0 0 .1-.1.1 0 0 0zm.1-1.1c.1 0 .1.2.1.4l-.1-.4zm.3-1c0 .1 0 .1 0 0zm-.2 0c0-.1 0-.1.1-.2-.1 0 0 .2-.1.2zm.2-1.4s0-.1 0 0c0 0 .1.1 0 0zm.5-.4zm15.4-9.2l-.1.1v-.1zm1.1 4c0 .1-.1.1 0 0-.1 0 0 .1 0 0zm-.7 3.4l.1.1z"/></g><path d="M27.6 24.9c.3 1.9-3.4 5.3-3.7 2-.2-1.8 3.4-5.3 3.7-2z" class="E"/><g class="F"><path d="M27.9 24.9c-.1 0-.1.1 0 0z"/><path d="M27.8 24.7c-.4-.1 0-.4-.4-.5 0 0 .2-.1.1-.1-.3 0-.3-.3-.3-.6 0-.1-.2.1-.2 0v-.1c-.1.1-.1 0-.1.1v-.2l-.1.1c-.2.3-.2 0-.3.1v-.1c-.2.2-.3.2-.5.3v-.2.2c-.1-.1 0 .1-.1.1 0 .1-.1-.1 0 .1l-.1-.1c.1.2-.1-.1-.1 0s-.1 0-.1 0c0 .1-.1 0 0 .1-.1-.1 0-.1-.1-.2-.1.2-.2.4-.4.5-.1 0-.1 0-.1-.1v.1h-.1c-.1 0 .1.1 0 .1 0 0 0-.1-.1-.1.1.1 0 .1 0 .2l-.1-.1c.1.1-.1 0 0 .1l-.1-.1c-.1 0 .1.1 0 .1l-.1-.1c.1.1 0 .2 0 .3s-.1.1-.1.2l-.2-.1c.1.1 0 .1.2.2 0 0-.1 0-.1.1 0-.1-.2-.1-.2-.1H24c-.1 0 0 0 0-.1v.1c.1.1.2.2.2.3 0-.1-.2-.1-.2-.1l.3.3s-.1-.1-.1 0c0 0 .1 0 .1.1 0 0 0 .1-.2 0-.1 0 0 0-.1-.1v.1s0 .1.1.1c0 0-.1 0 0 0l.1.1s-.1 0-.1-.1c.1.1.1.2.2.2s-.1-.1-.1-.1c-.1 0 .1.2-.1.2-.1 0 0 0 0 .1 0 0 .1.2 0 .2l.2.1h-.2c.1 0-.1-.1 0-.1-.1 0 .2.1 0 0 0 0 .1.1 0 .1H24h.2c-.1 0 .1 0-.1 0H24h.2c-.1 0 0 .1-.1.1.1 0 .2 0 .1.1h-.1c-.1 0 0 0 0 0s-.1.1-.2.1h.3c-.2.1.1 0 0 .1H24c-.2.1.2 0 .1.1l.2-.1c-.1.1.1 0-.1.1h.1c-.1.1.1 0-.1.2h.1c.1-.1-.1 0 0 0h.1s0 .1-.2.1c-.1.1.3-.2.2-.1-.1 0-.1.1-.1.1l.1-.1-.2.2c.1-.1.1 0 .1-.1V27l.1-.1c-.1.1 0 .1 0 .1l.1-.1v.1s0-.1 0 0c0 0-.1.1 0 .1 0 0 .1-.2.1-.1 0 0 0 .1-.1.1v.1-.1c0-.1 0 0 .1-.1v.1c0 .1 0 0 0 0V27v.3-.3c0 .1 0-.1.1 0v-.1s0-.1.1 0c0 0 0 .1.1.2 0-.1 0 .1 0-.1 0-.1 0-.1-.1-.2 0-.1 0-.1.1 0v-.1l.1.1v-.1l.1.1s-.1-.2 0-.1c0 0 0 .1.1.1 0-.1-.1-.2 0-.2l.1.1s0-.1-.1-.1c.1 0 .1 0 .2.1-.1-.3 0-.4 0-.4v.1c.1 0-.1-.1 0-.1 0 .1.1.1.2.2.1 0 0-.1 0-.2-.1-.1 0 .1 0 0 0 0 .1 0 0-.1 0 0 .1.1.1.2v-.1c.1.1.2.3.3.4s.1.2.1.2c0-.1-.2-.2-.2-.3s-.2-.3-.2-.3c.1 0 0 0 .1.1s0-.1 0-.1c-.1 0-.1-.1-.2-.2.1 0 .1.1.1.1l-.1-.1c-.1-.1.1 0 0-.1l.3.3-.3-.3s.1.1.2.1-.1-.2.1 0l-.1-.1s.1 0 .1.1c0 0-.1-.2.1 0l-.1-.1c-.1 0 .1.1-.1 0 .1.1 0 0 0-.1h.1v-.1l.1.1-.1-.1c0-.1.2.1.2.1v.1h.1l-.2-.2s.1.1 0 0l.1.1s.1.1.2.1l-.2-.2s.1 0 .1.1l-.1-.1c.1 0 .2.1.3.1l.1.1c.1.1.1 0 .2.1V26c-.2-.1-.3-.2-.4-.3 0-.1.5.3.2 0 0 0-.2-.1-.1-.1 0 0-.2-.1-.1-.1.1.1.2.1.3.2-.1 0-.1 0 0 0s.2.1.2.1 0-.1-.1-.1c-.1-.1 0 0-.1 0 0-.1.2 0 0-.1 0 0-.1 0-.2-.1h.1c.1 0-.1-.1-.1-.1l.2.1c.1.1-.1 0 .1.1 0 0-.1-.1 0-.1 0 0 .3.1.1 0 0 0-.1 0-.1-.1s-.1-.1-.1-.1c.1.1 0 0 .2.1-.1 0-.1 0 0 .1.2.1 0 0 .1.1 0 0 .2 0 .3.1v-.1c-.1-.1-.1 0-.2-.1 0 0 0-.1-.1-.2.1 0 .2.1.2.1 0-.1 0-.1.1-.2-.2 0 0-.1-.2-.1 0 0-.2 0-.3-.1h.1c-.1-.1.2 0 0 0 0 .1.2.1.4.2-.1-.1.1 0 .1 0-.1-.1-.1-.1-.1-.2.2 0 0-.1 0-.2h.2s.1-.1-.1-.1h.4c.1 0 0-.1 0-.1h-.1c-.1-.1 0-.1 0-.1h.1c.1 0 .2 0 .3.1h-.2c-.1 0-.1.1 0 .1h.3c.1 0 .1 0 .1.1h-.1c.1 0 .2.1.1.1-.2 0 .1.1 0 .2-.1 0-.2-.1-.3-.1s0 0-.1.1c.1 0 .3.1.3.1H28s.2.1.1.1c-.1.1-.1.2-.1.2h-.1c.2.1 0 .1.1.2-.1 0 0 .2-.2.2 0 .2 0 .3-.1.5l-.1-.1c.1.1-.1 0-.1 0 .1 0 .1.1.2.2-.1 0-.1.1 0 .3l-.1-.1c.1.2-.1.1-.1.2 0 0-.1-.1-.1 0 .1.1.1.1.1.3 0 0-.1.1-.2.1.1.3-.2.3-.2.5l-.1-.1c0 .3-.3.3-.4.5l-.1-.2c-.1 0-.1.1 0 .2-.1 0-.1.2-.2 0-.1 0 0 .1 0 .2-.1 0-.2 0-.3.1 0 0 0-.1-.1-.1 0 .1-.2 0 0 .2-.1 0-.1 0-.2.1-.1 0-.2.1-.3 0v.1c-.1 0-.3-.1-.4 0v-.1s0 .1-.1.1c-.3.1-.4-.2-.6-.3-.2 0-.3-.1-.5-.3-.1-.1-.2-.3-.3-.4-.2 0 .1-.3-.2-.3 0 0 0-.1.1-.1-.2 0 .1-.2-.1-.3.1-.1-.1-.2 0-.3h.1c.1 0-.2 0 0-.1h-.1c.1-.2-.1-.5-.1-.8.2-.2.4 0 .2-.1 0 0-.1 0 0 0 0-.1.3 0 .2-.1-.1 0-.1 0-.2-.1.1-.1.2-.1.2-.2h.1c-.2-.1 0-.2-.2-.4.1-.5.3-1 .5-1.4.3-.4.6-.8 1.1-1 .2.1.2.1.3-.1v.1c-.1-.1.1-.1 0-.2.1-.1.4-.2.6-.3v.1-.3c.3-.2.8-.2 1.1 0 .2 0 .3.2.5.3.1.1.3.2.4.3.1.2.3.3.4.5.1.6-.1.9.1 1.2-.2.6-.6.6-.7.5z"/><path d="M27.9 25c-.1 0-.1.1-.2 0h.2zm-1 .7s-.1-.1 0 0zm-.1.1c-.1 0-.1-.1-.1-.1l.1.1zm-.3.1c-.1-.1-.1-.1 0 0-.1-.1 0-.1 0 0zm.1 0c0 .1 0 0 0 0 0 .1-.1 0 0 0zm-.3.3s-.1-.1 0 0zm0 .2c-.1 0-.1 0 0 0-.1 0-.1-.1 0 0zm-1.8.9zm.2-1.3c-.1-.1 0 0 0 0s0-.1 0 0zm.1-.9l-.2-.1z"/></g><path d="M35.7 12.9l3.6 2.1-18.4 10.7-3.7-2.1z" class="E"/><g class="F"><path d="M35.9 12.7c-.2-.1 0 .2-.1 0h.1z"/><path d="M35 13.1c-.3.6-1.2.7-1.7 1.2-.1 0-.1-.2-.2-.1-.4.6-1.4.9-2.2 1.1v-.1c-.1 0-.2.3-.4.4v-.1c0 .1-.2.2-.2.3-.1 0-.1-.1-.2-.1v.2c-.1.4-.5.3-.8.6v-.1c-.4.4-1 .8-1.5 1.1 0 0 0-.1-.1-.2a.76.76 0 0 1-.2.4c-.1-.1-.2.3-.4.3 0 .2-.2 0-.2.3h-.1c0 .2-.2 0-.3.2-.1.1-.2 0-.3.1-.2.2-.4.1-.3.3-.1-.1.2-.2 0-.3-.6.5-1.3.9-2 1.3h-.2c0 .1-.3.2-.3.3h-.1c-.2 0 0 .2-.2.3v-.2c-.1.2-.2.3-.3.4v-.1c-.1.2-.3.1-.4.3v-.1c-.3 0 0 .2-.2.3V21c-.1.3-.4.4-.5.5-.2.1-.4.2-.6.4-.1 0-.1-.2-.3-.1.1.2-.3.3-.1.4-.2.1-.5.2-.6.3 0-.1-.2-.1-.1-.2h-.2c0-.1.1 0 0-.1-.1 0-.2.2-.3.2-.1.2-.1.4-.3.6.1-.1-.2-.1-.1-.2l-.1.5c-.1 0-.1-.1-.2 0v.1s-.2.1-.3 0c-.1 0 .1-.1-.1-.1l-.2.2c-.1 0-.1.2.1.2 0 0-.1 0 0 0 .1.1 0 .1-.1.2 0 0-.1 0-.1-.1.1.1.1.2.1.3.2 0-.3 0-.1 0-.1 0-.1 0-.2.1.2.1.5.1.4.2h.1s-.1.1 0 .1c-.1 0 .1 0 .2 0s0 0-.1 0c.1 0 .2 0 .3.1.1 0 .1.1.3.2 0 0 .3-.1.3 0l-.1.1c0 .1.2.1.2.2.2 0-.6-.2-.3-.2 0 .1.3 0 .2.1.1.1.3 0 .4.2 0 0-.2.1-.1.1.2.1.1 0 .2 0h.1c.1-.1.1.1.1 0 0 .1.3.1.2.3l-.1.1c.1 0 .2-.1.3-.1v.1c.1-.2.1.1.2-.1 0 .1.1.1.1.1h.1c.1-.1 0-.2.2-.2v.1c.1 0 .1 0 .1-.1h.4c.1-.1 0-.2 0-.3.2.1.3-.3.5-.2 0 0-.1.2 0 .2.2.1.1-.3.4-.3l-.1-.1c.1 0 .2-.2.3-.1 0-.1.2-.1.1-.2.4 0 .7-.5 1-.3l.1-.1c-.1 0-.1.1-.1.1v-.1c.1 0 .2 0 .2.1.3 0 .1-.4.3-.5 0 .1.1.1.1 0l.1-.2c.2-.1.2.1.2.2.1-.1.2-.1.2-.2l.2.1c-.1 0 0-.1.1-.2 0 0 .1 0 .2-.1 0-.1-.2 0-.2 0 0-.1.1-.1.1-.2 0 .1.2 0 .3 0s0-.1.1-.2c0 0 .1-.1.1 0 0 0-.1 0-.1.1.1 0 .1.1.2 0 0-.1-.1-.2 0-.2v.1h.2v-.1c0-.1.2-.2.2-.3h.3c.1 0 .2-.1.3-.2l.2-.2c.2 0 .3.3.3.1.1-.1.1-.3 0-.3.3-.1.4-.4.7-.3v-.1c.3-.1.6-.5 1-.5-.1.1 0 .1.1.1 0-.1.1 0 .1-.1-.1-.1-.1-.1-.2-.1.2-.2.5-.3.6-.3-.1 0 0-.1 0-.1.1.1.2.1.3 0v-.1h.1s-.1-.2.1-.2c0 0 0 .1.1.1.1-.1.2-.3.3-.3l.2.1s.1-.2 0-.1c.3 0 .4-.1.5 0 .2-.5.7-.8 1.1-1v.1c.1 0 0-.1.1-.1 0 .1.2.1.1.2.2 0 .1-.2.2-.3 0-.1 0 .1-.1 0 0 0 .3-.1.2-.2.1 0 .1.1.1.2l.1-.1c.2.1-.1.4.1.5l.1-.1c.2.1-.1.3.1.2.1-.1 0-.4-.1-.4.2-.1-.1-.4.1-.5.1 0-.2.1-.1.2.2 0 .2-.2.3-.2-.1 0-.1-.2-.1-.2.1 0 0 .2.2.1 0-.1.1-.2-.1-.2 0-.2.2 0 .2-.2.1.1 0 .4.2.3-.1-.1.1-.3-.1-.4.1 0 .1.1.1.2.1 0 .1-.3.3-.1v-.1s.1 0 .2.1c.1 0 .2-.3.3-.1 0 0 .2-.1.1-.2-.2 0-.1.2-.3 0 .2.1.2-.1.2-.2v.1s.1-.1.1-.2c0 .1 0 .1.1.1v-.1c.1-.1.1.2.3 0l-.1.1h.2v-.3c.1-.1.1.1.1-.1v.2s.2.1.3 0 .1-.3 0-.3c.1 0 .2 0 .2.1.1-.1-.1-.1 0-.2.1 0 .3 0 .4.1v.2h.1c0 .2.1.1.1.2.1 0 .1-.1.1-.2-.3-.1 0-.4-.1-.6.2-.2.4.4.5 0-.1 0 0-.2-.1-.1.1-.1 0-.3.2-.3-.1.1.2.1.1.3 0-.1-.1 0-.1 0 .1 0 .1.2.2.1s.2-.1.1-.2-.1.1-.1 0c.1-.1.3 0 .2-.2-.1.1-.2 0-.2-.1l.1-.1v.1c.1 0 .1-.1.1-.1v-.1l.1.1v.1s-.1.1 0 .1c.1-.1 0-.1.1-.1 0 0 .3.2.2 0 0-.1-.1-.1-.1-.1v-.1c.2.1.1 0 .3.1-.2 0-.2 0-.1.1.2.1-.1 0 0 .2.1 0 .3.1.4.1v-.1c-.1-.1-.2 0-.3-.1.1 0 .2-.1.1-.2.1 0 .3 0 .3.1.1-.1.2-.2.4-.2-.3 0-.2-.1-.5 0h-.2c-.2 0 .3 0-.1 0h.8c-.3 0 .2 0 .1-.1-.3 0-.5-.1-.6-.1 0-.1-.3-.2-.4-.3 0-.1.1-.2 0-.3s0 .2-.1 0c-.1 0-.3-.3-.5-.1l.1-.1h-.1s0-.1.1-.1c0-.2-.2-.1-.4-.2v.1c-.3 0-.3-.2-.5-.3l.1-.1h-.1c.1-.1 0-.2-.1-.2l.5-.1c0 .1-.2.1-.2.2s.2.2.3.1H37c0-.1.2-.1.3-.1 0 0-.1-.1-.1 0 .1 0 .2 0 .3.1-.1 0 0 .1-.1.1.1-.1.2-.1.4 0 0 .2.3.1.5.2-.1.1-.3.1-.4.1l.2.2c.1-.1.2-.2.4-.1v.1c.2 0 .3-.1.5.1.3.3.7.5 1 .6h-.1c.4 0 .6.2.9.3v.1c-.5.2-.7.5-1.1.5-.3.2-.5.4-.8.6l-.8.5v-.2c0 .1-.1 0-.2 0 .2 0 0 .2-.1.3-.3 0-.5.3-.6.5l-.1-.1c-.1.3-.4.3-.7.4 0 0-.1-.1-.2 0 0 .2-.1.3-.3.5-.1.1-.4.2-.6.2-.4.5-1.1.7-1.5 1.1l-.1-.1c-.4.5-1.2.7-1.6 1.1l-.1-.2c-.2 0-.3.2-.2.3-.2 0-.3.3-.5.2-.2 0-.1.2-.3.3-.3.1-.4.2-.7.4h.1c0-.1 0-.1-.1-.1-.1.1-.4.2-.2.3-.4 0-.6.5-1 .5.1 0 0 .1 0 .1-.3.2-.6.2-.8.4-.1 0 0-.1-.1-.1v.1c-.4.4-.9.4-1.3.6-.6.5-1.4.9-2 1.3-.1.3-.6.1-.7.5-.1 0-.2.1-.2 0-.1.2-.6.2-.7.5v-.1c-.3.1-.5.3-.8.4 0 0 .1-.1 0-.1s-.3.4-.5.2c-.1.1 0 .2 0 .1-.2.1-.4.2-.5.3-.2-.1-.4-.2-.6-.4l-.3-.2-.2-.1c-.3-.1-.5-.3-.8-.4-.4-.4.2-.4-.3-.4 0-.1-.1.1 0 0-.1 0-.1-.1-.2-.2 0-.1-.1-.2-.2-.2 0 .1-.1 0-.2.1-.4-.3-.3-.4-.8-.6h.1c-.7-.1-1-.4-1.8-.6l-.1-.1 1.8-1.1 1.5-1 2-1.2 4.1-2.3c.4 0 .4 0 .8-.3v.1c-.1-.1.2-.2.2-.3l1.5-.9c-.1.1 0 .2 0 .1v-.1c0-.1.1-.2 0-.2 1.2-.9 2.7-1.3 3.9-2.1.3-.1.7-.4 1-.6 1.1-.4 2.1-.7 3-1.4-.6-.5-.5-.1-.9.3zm1.1-.3c0 .1.1.2-.1.2.1 0 .1-.1.1-.2z"/><path d="M38.1 14.9s-.1.1 0 0h-.2.2zm-.2.2c-.1 0-.1-.1-.1-.1l.1.1zm-.6 0zm.2.2h-.1s0-.1.1 0zm-1.4.5s-.1.1-.2.1c.1 0 .2-.2.2-.1zm-.7.5c-.1.1-.1 0 0 0zm-13.1 8v-.1zm-3.8-.9h.1c.1.1 0 0-.1 0zm2.4-1.8v.1l-.1-.2z"/></g><path d="M39.3 19.3V15L20.9 25.7v4.2z" class="E"/><g class="F"><path d="M39.1 19.1c0 .2.1-.1.1.1-.1 0-.2 0-.1-.1zm-.4.3c-.3.6-1.2.7-1.7 1.2-.1 0-.1-.2-.2-.1-.4.6-1.4.9-2.2 1.1v-.1c-.1 0-.2.3-.4.4v-.1c0 .1-.2.2-.2.3-.1 0-.1-.1-.2-.1v.2c-.1.4-.5.3-.8.6v-.1c-.4.4-1 .8-1.5 1.1 0 0 0-.1-.1-.2a.76.76 0 0 1-.2.4c-.1-.1-.2.3-.4.3 0 .2-.2 0-.2.3h-.1c0 .2-.2 0-.3.2-.1.1-.2 0-.3.1-.2.2-.4.1-.3.3-.1-.1.2-.2 0-.3-.6.5-1.3.9-2 1.3h-.2c0 .1-.3.2-.3.3H27c-.2 0 0 .2-.2.3v-.2c-.1.2-.2.3-.3.4v-.1c-.1.2-.3.1-.4.3v-.1c-.3 0 0 .2-.2.3v-.1c-.1.3-.4.4-.5.5-.2.1-.4.2-.6.4-.1 0-.1-.2-.3-.1.1.2-.3.3-.1.4-.2.1-.5.2-.6.3 0-.1-.2-.1-.1-.2h-.2c0-.1.1 0 0-.1-.1 0-.2.2-.3.2-.1.2-.1.4-.3.6.1-.1-.2-.1-.1-.2l-.1.5c-.1 0-.1-.1-.2 0v.2s-.4.3-.5.1c0-.1.1-.1 0-.1-.1.1-.1.2-.3.3-.1 0-.3.3-.2.3s0-.1.1-.1c-.1.2-.3.3-.5.5.1-.1.1-.1.1-.2-.3.3-.6.6-.9.8-.1.1.3-.3.3-.3s-.1 0-.2.1c0-.3-.2-.4 0-.9 0 0-.1.2-.1.1 0-.2.1-.3.1-.4.1-.1 0-.1 0-.3 0 0 0-.1 0 0 0-.1-.1-.3-.1-.5v-.8s-.2-.2-.2-.3h.1c.1-.1 0-.2.1-.3-.1-.1.1.6 0 .4.1 0-.2-.3 0-.2 0-.1-.1-.3 0-.4 0 0 .2.1.1 0 0-.2 0-.1-.1-.2v-.1c-.1 0 0-.2-.1-.1.1 0-.1-.3.1-.3h.1c0-.1-.1-.1-.2-.2h.1c-.2 0 0-.3-.1-.5v-.4c.1-.1.3-.1.4-.1.1-.1.3-.3.5-.4 0 0-.1.1 0 .1s.1-.1.2-.1h.4c.1-.1 0-.2 0-.3.2.1.3-.3.5-.2 0 0-.1.2 0 .2.2.1.1-.3.4-.3l-.1-.1c.1 0 .2-.2.3-.1 0-.1.2-.1.1-.2.4 0 .7-.5 1-.3l.1-.1c-.1 0-.1.1-.1.1v-.1c.1 0 .2 0 .2.1.3 0 .1-.4.3-.5 0 .1.1.1.1 0l.1-.2c.2-.1.2.1.2.2.1-.1.2-.1.2-.2l.2.1c-.1 0 0-.1.1-.2 0 0 .1 0 .2-.1 0-.1-.2 0-.2 0 0-.1.1-.1.1-.2 0 .1.2 0 .3 0s0-.1.1-.2c0 0 .1-.1.1 0 0 0-.1 0-.1.1.1 0 .1.1.2 0 0-.1-.1-.2 0-.2v.1h.2v-.1c0-.1.2-.2.2-.3h.3c.1 0 .2-.1.3-.2l.2-.2c.2 0 .3.3.3.1.1-.1.1-.3 0-.3.3-.1.4-.4.7-.3v-.1c.3-.1.6-.5 1-.5-.1.1 0 .1.1.1 0-.1.1 0 .1-.1-.1-.1-.1-.1-.2-.1.2-.2.5-.3.6-.3-.1 0 0-.1 0-.1.1.1.2.1.3 0v-.1h.1s-.1-.2.1-.2c0 0 0 .1.1.1.1-.1.2-.3.3-.3l.2.1s.1-.2 0-.1c.3 0 .4-.1.5 0 .2-.5.7-.8 1.1-1v.1c.1 0 0-.1.1-.1 0 .1.2.1.1.2.2 0 .1-.2.2-.3 0-.1 0 .1-.1 0 0 0 .3-.1.2-.2.1 0 .1.1.1.2l.1-.1c.2.1-.1.4.1.5l.1-.1c.2.1-.1.3.1.2.1-.1 0-.4-.1-.4.2-.1-.1-.4.1-.5.1 0-.2.1-.1.2.2 0 .2-.2.3-.2-.1 0-.1-.2-.1-.2.1 0 0 .2.2.1 0-.1.1-.2-.1-.2 0-.2.2 0 .2-.2.1.1 0 .4.2.3-.1-.1.1-.3-.1-.4.1 0 .1.1.1.2.1 0 .1-.3.3-.1v-.1s.1 0 .2.1c.1 0 .2-.3.3-.1 0 0 .2-.1.1-.2-.2 0-.1.2-.3 0 .2.1.2-.1.2-.2v.1s.1-.1.1-.2c0 .1 0 .1.1.1v-.1c.1-.1.1.2.3 0l-.1.1h.2V17c.1-.1.1.1.1-.1v.2s.2.1.3 0 .1-.3 0-.3c.1 0 .2 0 .2.1.1-.1-.1-.1 0-.2.1 0 .3 0 .4.1v.2h.1c0 .2.1.1.1.2.1 0 .1-.1.1-.2-.3-.1 0-.4-.1-.6.2-.2.4.4.5 0-.1 0 0-.2-.1-.1.1-.1 0-.3.2-.3-.1.1.2.1.1.3 0-.1-.1 0-.1 0 .1 0 .1.2.2.1s.2-.1.1-.2-.1.1-.1 0c.1-.1.3 0 .2-.2-.1.1-.2 0-.2-.1l.1-.1v.1c.1 0 .1-.1.1-.1s0-.1.2-.2h.2c0 .1-.1.1-.3.2s-.1.1-.1.2c.1-.1.2-.3.4-.3l-.1.1c.1 0 .2.2.5-.1.1-.2 0-.1 0-.2.4-.2.5-.4.7-.6-.1.3.4-.2.1.2-.1-.1-.6.3-.7.5.1.2-.3.1-.3.4.2-.1.3.1.3.2 0 0 .1-.1.1-.2v-.3c.3-.1.5-.3.7-.6.1 0 0 .2-.1.3.3-.2.6-.4.9-.5v.1c.2-.6 0 .3.2-.1 0-.3.2-.7.3-.7 0 .2-.1.1-.1.3.1 0-.2.5 0 .5-.1-.3-.2.3-.4.5.1.1-.1.2-.1.4.1.1.2.3.2.5-.1.4 0 .8 0 1.1-.1.1-.3.1-.3.2s.2-.1.1.1c0 .1-.1.4.1.4l-.2-.1v.1h-.2c-.1.1 0 .3 0 .4l.1-.1c.1.2 0 .4 0 .6h-.1l.1.1c-.1 0-.2.1-.1.2l-.3-.4c.1-.1.1.1.2 0 .1 0 .1-.3 0-.3v.1c-.1 0-.1-.1-.3-.2v.1c-.1-.1-.1-.2-.1-.3.1.1.1 0 .1 0-.1 0-.2-.1-.1-.3.2-.1-.1-.3-.1-.5.1.1.3.2.3.3.1-.1 0-.1.1-.3-.1 0-.3-.1-.3-.3h.1c0-.1-.2-.1-.2-.2 0-.2 0-.5.1-.7l.1-.1c-.2.1-.1-.1-.1-.2l-.1.1c-.1 0-.4.4-.5.2-.2.1-.3.3-.5.4-.1.1-.4.3-.7.4V17c0 .1-.1 0-.2 0 .2 0 0 .2-.1.3-.3 0-.5.3-.6.5l-.1-.1c-.1.3-.4.3-.7.4 0 0-.1-.1-.2 0 0 .2-.1.3-.3.5-.1.1-.4.2-.6.2-.4.5-1.1.7-1.5 1.1l-.1-.1c-.4.5-1.2.7-1.6 1.1l-.1-.2c-.2 0-.3.2-.2.3-.2 0-.3.3-.5.2-.2 0-.1.2-.3.3-.3.1-.4.2-.7.4h.1c0-.1 0-.1-.1-.1-.1.1-.4.2-.2.3-.4 0-.6.5-1 .5.1 0 0 .1 0 .1-.3.2-.6.2-.8.4-.1 0 0-.1-.1-.1v.1c-.4.4-.9.4-1.3.6-.6.5-1.4.9-2 1.3-.1.3-.6.1-.7.5-.1 0-.2.1-.2 0-.1.2-.6.2-.7.5v-.1c-.3.1-.5.3-.8.4 0 0 .1-.1 0-.1-.2 0 0 .2-.2.1l.1.1h-.1v.5c0 .3.1.6.1.9-.1.5-.4 0-.2.4 0 .1 0 .1-.1.1s-.1.1 0 .1h.2c-.1.1-.2.3-.1.3l-.1.1c.2-.1.1.2.4-.1.1-.1.2-.1.2-.2l.1-.1s.1-.1.2-.1l.2-.2 2-1.2 4.1-2.3c.4 0 .4 0 .8-.3v.1c-.1-.1.2-.2.2-.3l1.5-.9c-.1.1 0 .2 0 .1v-.1c0-.1.1-.2 0-.2 1.2-.9 2.7-1.3 3.9-2.1.3-.1.7-.4 1-.6 1.1-.4 2.1-.7 3-1.4-.1-.2 0 .2-.4.5z"/><path d="M39.1 18.9c.1 0 .1-.2.2-.1-.1.1-.2.1-.2.1zm.8-4.3v-.2c.1.1.1.1 0 .2zm-.6-.2l.5-.5-.5.5zm-1.2.3c-.1 0-.1 0 .1-.1 0 0-.1 0-.1.1zm-.1.2c-.1.1-.2 0-.2 0 0 .1.3-.1.2 0zm-1.9.9s-.1.1-.2.1c.1 0 .2-.2.2-.1zm-.7.5c-.1.1-.1 0 0 0zm-13.1 8v-.1zm-1.2 6.2c.1-.2 0 0 0 0-.1.1.1-.1 0 0zm3.5-2.5l-.1-.1z"/></g><path d="M22.2 43.4v-17l-7.4-4.2v16.9z" class="E"/><g class="F"><path d="M21.9 43.3c0 .2.1-.1.1.1-.1 0-.2-.1-.1-.1zm-.2-.4c-.7 0-1.2-.7-1.9-.8-.1 0 .1-.2 0-.2-.7-.1-1.5-.7-2-1.3h.1c-.1-.1-.4 0-.5-.1 0 0 .1 0 .1-.1-.1.1-.3-.1-.4 0v-.2l-.1.1c-.4.1-.5-.3-.9-.4 0 0 .1 0 .1-.1-.4-.1-.8-.3-1.3-.5v-.5h.2c-.1 0-.2-.2-.2-.4.1-.1-.1-.3 0-.5-.1-.1.1-.2-.1-.3l.1-.1c-.2-.1.1-.2 0-.3v-.3c0-.2.1-.4-.1-.4.1-.1.1.2.2.1-.2-.8-.1-1.6-.1-2.4.1-.1.1-.1.1-.2s0-.3-.1-.4c0 0 .1 0 .1-.1.1-.1-.2-.2-.1-.3 0 .1.1.1.1.1-.1-.1-.1-.3-.1-.5 0 0 0 .1.1.1-.1-.2 0-.3-.1-.5l.1.1c.1-.3-.2-.1-.1-.3h.1c-.2-.2-.1-.5-.2-.7v-.7c0-.1.2 0 .2-.2-.2 0-.1-.4-.3-.3 0-.2.1-.5 0-.6.1.1.2-.1.2.1l.1-.1c.1 0 0 .1.1.1 0-.1-.1-.3 0-.4-.1-.1-.3-.3-.4-.5.1.1.2-.1.2 0l-.4-.3c0-.1.1 0 .1-.1 0 0-.1 0-.1-.1 0 0 0-.3.1-.4.1 0 0 .1.1 0 0-.1-.1-.2-.1-.3s-.1-.3-.2-.2c0 .1.1 0 .1.1-.1-.1-.1-.3-.1-.4 0 0 .1 0 .1.1l-.3-.6c-.1 0 .2.1.1.1.1-.3-.2-.6 0-.8h-.1c0-.1.1-.1.1-.2.1 0 0-.1 0-.2v.1c-.1-.1-.2-.6-.1-1 0 0-.2-.2-.2-.3h.1v-.1c0-.1 0-.1.1-.1-.1-.1 0 .1 0 .3 0 .1.1.3 0 .2.1 0-.2-.3 0-.2 0-.2-.1-.4 0-.6 0 0 .2.2.1 0 0-.3 0-.1-.1-.3v-.2c-.1-.1 0-.3-.1-.2.1 0-.1-.5.1-.3l.1.2c0-.1-.1-.3-.2-.5h.1c-.2-.3 0-.3-.1-.7v-.4c.1.1.3.2.4.3.1 0 .2 0 .5.2h-.1c.2.2.2.1.3.1 0 0 .3.3.4.5.1 0 .1-.2.1-.2.1.3.5.1.7.5-.1 0-.3 0-.2.1.1.3.4 0 .5.2V23c0 .1.3.1.2.2.1 0 .2.2.3 0 .2.3.8.3.8.7.1 0 .1.1.2 0 0-.1-.1 0-.1-.1h.1c.1.1.1.1 0 .2.1.2.4-.1.6.1v.1h.2c.1.1 0 .2 0 .3.1 0 .2.1.3 0v.2c0-.1.1 0 .2 0h-.1s.1.1.2.1c0-.1-.1-.2-.1-.2h.2c-.1.1.1.2.2.2.1.1.1 0 .2 0 0 .1.1.1 0 .1 0 0 0-.1-.1-.1 0 .1 0 .2.1.2s.1-.2.2-.1c-.1 0-.1 0-.1.1l.1.1.1-.1c.1-.1.2.1.3 0 .1 0 .1.2.2.2 0 .1.2.1.3.1 0 0 .2.1.3.1.1.1-.2.4 0 .3.1.1.3-.1.3-.2.1.1.2.1.3.2.2.1.4.2.5.4h.2c.1 0 .1.1.2.1 0 .5.1 1.1-.1 1.3 0-.1-.1 0-.2 0 .1.1-.1.1.1.1.1 0 .1 0 .2-.1v.7c0-.1.1 0 .1 0-.2 0-.2.1-.1.3h.1l-.1.1s.2 0 .1.2H23c.1.1.2.3.1.4l-.1.1c0 .1.1.2.1 0-.1.2-.1.4-.2.5.3.4.3 1 .3 1.5h-.1c-.1.1.1.1.1.1-.1 0-.1.1-.2 0-.1.2.1.2.2.4.1 0-.1-.1.1-.1 0 0-.1.3.1.3h-.2l.1.1c-.2.1-.3-.3-.5-.2v.1c-.1.1-.2-.3-.2 0 .1.1.3.2.4.1 0 .2.4.1.3.4-.1.1 0-.2-.1-.1s.1.2 0 .3c0-.1.2 0 .2.1-.1.1-.1-.1-.1.1.1 0 .1.2.2 0 .2.1 0 .2.1.3-.1.1-.3-.2-.4 0 .1 0 .2.2.4.1 0 .1-.1.1-.2 0-.1.1.2.3 0 .3h.1l-.1.1c0 .1.2.3 0 .3 0 0 0 .3.1.2s-.1-.2.1-.2c-.1.1 0 .2.1.3h-.1s0 .2.1.2h-.1.1c.1.2-.2 0-.2.2l-.1-.1s-.1.1 0 .2c.1 0 .2.1.3.1 0 .1-.1 0 0 .1l-.1-.1s-.2.1-.2.2.2.2.3.1c0 .1-.1.2-.1.1 0 .2.1 0 .2.1l-.3.3-.2-.1v.1c-.1-.1-.1.1-.3 0 0 .1 0 .1.1.2.2-.2.3.2.5.2.1.3-.5.2-.2.4.1 0 .2.1.2-.1 0 .2.2.1.1.3-.1-.1-.2.1-.4 0 .1 0 .1-.1 0-.1-.1.1-.2 0-.2.1s0 .2.1.2 0-.2.1-.1c0 .2-.1.2.1.3 0-.1.1-.2.2-.2v.1h-.1c-.1.2.1.1.1.3l-.2.1c-.1 0 .1-.3-.2-.3 0 .1.1.2 0 .3v-.1s-.3.1-.1.3c.1.1.1 0 .2 0 0 .2.1.3.1.5-.2 0 0 .3-.2.1.1-.1.1-.4-.1-.5-.2.1 0-.2-.2-.2 0 .2-.2.2-.3.2 0 0 0 .1.1.1h.3c0 .2 0 .4.1.5-.1.1-.2 0-.2 0v.8c.2-.2 0 .3.2.2 0-.1.2-.2.3-.2 0 .1-.1 0-.1 0 .1.1-.2.2 0 .3-.1-.2-.2 0-.4-.1.1.2-.1 0-.1.2.1.2.2.4.2.6-.1.2 0 .6 0 .8-.1.1-.3 0-.3.1s.2-.1.1.1c0 .1-.1.4.1.4l-.2-.1v.1h-.2c-.1.1 0 .3 0 .4l.1-.1c.1.2 0 .4 0 .6h-.1l.1.1c-.1 0-.2.1-.1.2l-.3-.4c.1-.1.1.1.2 0 .1 0 .1-.3 0-.3v.1c-.1 0-.1-.1-.3-.2v.1c-.1-.1-.1-.2-.1-.3.1.1.1 0 .1 0-.1 0-.2-.1-.1-.3.2-.1-.1-.3-.1-.5.1.1.3.2.3.3.1-.1 0-.1.1-.3-.1-.1-.3-.1-.3-.3h.1c0-.1-.2-.1-.2-.3 0-.3 0-.7.1-.9h.1c-.2-.1-.1-.5-.2-.6.1-.3-.1-.7.1-.9-.1-.6-.1-1-.1-1.6l.1.1c-.1-.1.1-.1.1-.2-.1.1-.1-.1-.2-.2.1-.3 0-.6-.1-.8h.1c-.2-.2 0-.5 0-.8 0 0 .1-.1.1-.2-.2-.2-.1-.2-.3-.5 0-.2 0-.4.1-.6-.2-.6-.1-1.3-.2-1.9h.1c-.3-.6 0-1.4-.1-2h.2c.1-.2 0-.4-.2-.3.1-.2-.1-.4.1-.5 0-.2-.1-.2-.1-.4.1-.4.1-.5 0-.8v.1h.1c-.1-.1 0-.5-.2-.3.1-.4 0-.3 0-.4v-.1s-.1 0-.1.1l-.2-.1c-.1-.1-.2-.2-.4-.2 0 0 .1-.1 0-.1s0 .1-.1.1c-.5-.1-.8-.6-1.2-.8-.8-.3-1.5-.8-2.1-1.1-.3 0-.4-.5-.8-.3 0-.1-.2-.1-.1-.2-.1 0-.2-.1-.4-.2 0-.1-.1-.1-.1 0-.1-.2-.1 0-.2-.2v-.1c-.1-.2 0 .3-.1-.1l.1.2-.1-.1c0 .2.1.5.1.6l-.1.1h-.1c-.1 0-.1 0 0 .2s-.3.2-.1.4c.1 0 .1.1.2.1-.1.3-.2.4-.1.6h-.1c.2.3.1.6.4.9l.2 4.7c0 1.5.1 3.1-.1 4.6-.2.4-.2.4-.1.8h-.1c.2 0 0 .3.2.3v1.7c0-.1-.1-.1-.1 0h.3l.1.1.2.1.8.6c.5.4 1.1.8 1.7 1.1.3.2.7.4 1.1.6.9.8 1.7 1.4 2.7 1.9-.3 0-.6.3-1.1.1z"/><path d="M21.9 43.1c.1 0 .1-.2.2-.1-.1 0-.2.1-.2.1zm.8-3.5s.1-.1 0 0c.1-.1.1 0 0 0zm.1-.9c.1 0 .1.2.1.3l-.1-.3zm.3-.9c0 .1 0 .1 0 0zm-.2 0c0-.1 0-.1.1-.1-.1-.1 0 .1-.1.1zm.2-1.8s-.1-.1 0-.2c0 0 .1.2 0 .2zm-.1-.9c0-.1.1 0 0 0zm-6.3-12.4h.1zM14.2 27c.1.1 0 0 0 0s0 .1 0 0zm.4 3.6v-.1l.1.1z"/></g><g fill="#fff"><path d="M21.2 25.5c-.1 0-.2 0 0 0zm-.1 4.3c-.4 0 0-.1-.2-.2h.2c-.3-.1-.1-.1.1-.2h.1c-.3 0 0 0-.1-.1h.1c-.2 0-.2-.1-.2-.2.1 0-.1 0 0 0-.1 0 .1 0-.1 0h.1c-.2 0 .1 0 0 0 0 0 .1 0-.1 0h.2c-.2-.1-.1-.1-.1-.2h.1c.1 0-.2 0-.1 0h.1c.1 0-.2 0-.1 0h.1c-.2 0-.1 0-.2-.1v-.1h.2-.3s.1 0 0-.1h.4s-.1 0 0 0h-.6c-.1 0-.2 0-.3-.1-.1 0 .2 0 .1 0 .1 0-.2 0 0-.1h-.1.1c-.1 0-.2-.1-.1-.1h-.1.1c-.1 0 .1 0 0 0 .1 0-.2 0 0 0 0 0-.1 0 0 0h-.1c.1 0-.1 0 .1 0h.2-.3c.2 0-.1 0 .1 0h.2c.2 0-.2 0-.1 0h-.2c.1 0-.1 0 .1 0-.1 0 .1 0-.1 0 .1 0-.1-.1.2-.1h-.1c-.1 0 .1 0 0 0h-.1.2c.1 0-.3 0-.2 0h.2s-.1 0 0 0h-.2c.1 0-.1 0 .1-.1h-.1s-.1-.1.1-.1h.2c-.1 0 .1 0-.1 0h-.2v-.1h-.1.2c-.3 0-.3-.1-.3-.1h.1c.1 0-.1 0-.1 0h.2c.1 0-.1 0-.2 0s.1 0-.1 0c0 0 .1 0-.1 0h.2c.1 0-.1 0 0 0h-.2c.1 0-.2 0 0 0h-.1.1s-.2 0 0 0h-.1c-.1 0 .1 0-.1 0 .1 0 0 0-.1 0h.2c-.1 0 .2 0 .2 0h.1-.2c-.1 0 .5 0 .2 0h-.3.4c-.1 0-.1 0 0 0 0 0 .1 0-.1 0H20c.1 0-.1 0-.1 0h.2c.1 0-.1 0 .2 0 0 0-.1 0 0 0-.1 0-.1 0 .1 0h.2v-.1h-.4c-.1 0 .2 0 0 0h.4c-.1 0 .1 0 .1 0h-.2c.1 0 0 0 0-.1h.2s.1 0-.1 0h.3c-.1 0 0 0 0 0h.2c-.1 0-.1 0 0 0h.4c-.2 0 .1 0 .1 0h-.2.2s0 .1-.1.1h-.1c.2 0 .1 0 .2.1-.1 0 .1.1-.1.1.1 0 .1.1.1.1h-.1c.1 0-.1 0-.1 0h.2c-.1 0 0 0 .1.1h-.1c.2 0 0 0 0 .1h-.1.2c.2 0 .1.1.2.2h-.1c.3 0 0 .1.1.2h-.2c-.1 0 0 0 .2 0-.1 0 .1 0-.1 0h.1c-.1 0-.1 0 0 .1h-.1.2c-.1 0 .1.1-.1.1h.1s-.1 0 0 .1h-.1.1c.1 0-.1.1-.1.1.1.1.1.1.1.2.2 0-.2 0 .1.1H22c.1 0-.1 0 0 .1-.1 0 0 0-.1.1h-.1c-.1 0 .2 0 0 0h.1c-.1.1.1.1.1.2h-.2c.1 0-.3 0-.1 0s.1 0 .4.1c0 .1.2.3.2.4s.1.3-.1.4c-.2 0-.2 0-.1.1H22h.2v.1h-.1.3c.1.1-.2.3-.1.4-.1 0 0 .1 0 .1-.2.1-.4.2-.2.3-.5-1.7-.9-1.8-1-1.8z"/><path d="M21.2 25.5H21h.2zm-.9.3s-.1 0 0 0zm0 .1h-.1.1zm-.3 0c-.1.1-.1 0 0 0-.1 0-.1 0 0 0zm.1.1s-.1-.1 0 0zm-.2.1c.1 0-.1 0 0 0zm.1.1zm.3 1.3h.1zm0 .6c-.1 0 0 0 0 0zm.4.3h.1zM22 43.6c.1 0 .1-.1 0 0 0 0 0 .1 0 0zm-1.2-.8c.2-.3 0 0 .2-.2 0 0-.1.2-.2.2.3-.3.2-.1.1.1l.1-.1-.1.1.1-.1s-.1.1-.1.2l.1-.1c.2-.3 0 0 .1-.1v.1c.1-.2.1-.1.2-.2 0 0-.1.1-.1.2.1-.1.1-.1.1-.2-.1.1.1-.1 0 0 .1-.1 0 .1.1-.1v.1c.1-.2 0 .1 0 0 0 0 0 .1.1-.1-.1.1 0 0-.1.2l.1-.1c0 .1 0 .1-.1.1l.1-.1v.1l.1-.1s0 .1-.1.1l.1-.1v.1c.1-.1 0 0 0 0v.1c0 .1.1-.2.1-.1v.1l.1-.1-.1.2c.1-.2 0-.1.1-.2 0 0 0 .1 0 0 0 .1-.1.2-.1.2v.2s0-.1 0 0c.1-.1.2-.3.2-.3 0 .1-.1.2-.1.2l.2-.3s-.1.1 0 .1c0 0 0-.1.1-.1l-.1.1v.1s0-.1.1-.1c0 0 0 .1 0 0s.1-.1.1-.1 0 .1-.1.1c.1-.1.1-.2.1-.2 0-.1-.1.1-.1.1 0 .1.1-.1 0 0 0 0 .1-.1 0-.1 0 0-.1.1 0 .1 0 .1 0 0 0 0s.1-.1.1 0l.1-.1-.1.1v.1c.1-.1-.1.1 0 0 0 .1.1-.1 0 0 0 0 .1-.1 0 0l-.1.1v-.1l.1-.1c0 .1 0 0-.1.1l-.1.1s.1-.1.1-.2v.1c.1-.2 0 0 .1-.1 0 .1 0 0-.1.1 0-.1.1-.1.1-.1v.1c0 .1 0 0 0 0s-.1.1-.1.2c0-.1.1-.2.1-.2-.1.2.1-.1 0 .1l-.1.1c-.1.2.1-.1 0 0l.1-.2c0 .1.1-.1 0 .1 0-.1 0 .1.1-.1-.1.1.1-.1-.1.2V43c0-.1 0 .1 0 0v-.1l-.1.2c0 .1.2-.3.1-.2v.1l.1-.1s-.1.1-.1.3l.1-.1-.1.1c0-.1 0-.1.1-.1 0-.1 0-.1.1-.1l.1-.1c-.1.1 0 .1 0 .1l.1-.1v.1s-.1.1 0 .1c0 0 .1-.2.1-.1 0 0 0 .1-.1.1v.1l.2-.2v.1c0 .1 0 0 0 0V43c0 .1-.2.4-.1.3l.1-.2c0 .1.1-.1 0 .1v-.1s.1-.1 0 .1l-.1.1c0-.1 0 .1 0-.1 0-.1.1-.1.1-.2v-.1c-.1.1-.1.2-.1.1v-.1.1s.1-.2.1-.1v.1c0-.1.1-.2.1-.1l-.1.1s0-.1.1-.1c0 .1 0 .1-.1.2.2-.3.2-.3.2-.2v.1c0 .1.1-.1 0-.1 0 .1-.1.1-.1.2s.1-.1.1-.1c0-.1 0 0 0 0s0 .1 0-.1c0 0-.1.1-.1.2V43c-.1.1-.2.3-.3.4s-.1.1-.1.2c0-.1.1-.2.2-.3l.2-.3c0 .1 0 0-.1.1s0 0 0 0l.1-.2c0 .1-.1.1-.1.1 0-.1.1-.1.1-.2.1-.2 0 0 0-.1-.1.1-.2.3-.2.3.1-.1.1-.1.2-.3 0 0-.1.1-.1.2s.1-.2 0 0l.1-.1s0 .1-.1.1c0 0 .1-.1 0 0l.1-.1c0-.1 0 .1 0-.1-.1.1 0 0 0-.1v.1-.1s0 .1-.1.1l.1-.1s-.1.2-.1.1v.1s0 .1 0 0 .1-.2.2-.3c0 0-.1.1 0 0l-.2.2.1-.2s0 .1-.1.1c0 0 .1-.1.1-.2 0 .1-.1.1-.1.2l-.1.1c-.1.1 0 .1-.1.2.1-.2.2-.3.3-.5 0 0-.3.5-.1.2 0 0 .1-.2.1-.1 0 0 .1-.2.1-.1s-.1.2-.2.3c0-.1 0 0 0 0 0 .1-.1.2-.1.2l.1-.1c.1-.1 0 0 0-.1 0 0-.1.1 0-.1 0 0 0-.1.1-.2v.1c0 .1.1-.1.1-.1l-.1.1c-.1.1 0-.1-.1.1 0 0 .1-.1 0 0 0 0-.2.3-.1.1 0-.1 0-.1.1-.1l.1-.1c-.1.1 0 0-.1.2 0-.1 0-.1 0 .1-.1.2 0 0-.1.1 0 0-.1.2-.2.3v-.1c.1-.1.1-.1.1-.2l.1-.1-.1.2.2-.4s0 .1-.1.1c.1-.1-.1.1 0 0 0 0-.1.2-.2.3 0-.1-.1.1 0 .1 0-.1.1-.1.1-.2-.1.1 0 0 0 0 0 .1-.1.2-.1.3 0 0 .1-.2.1-.1 0 0 0 .1.1-.1l-.1.2-.1.1c-.1.1 0 0 0 0v-.1c0-.1 0 0 0 0l-.1.1v-.1c0 .1-.1.1 0 .1l-.1.2c0-.1.1-.1.1-.2s0-.1 0 0c-.1.1-.1.1-.1.2v.1s0-.1.1-.1l-.1.1c.1-.1-.1.1 0 0s.1-.2.2-.3v-.1c0 .1-.1.2-.2.3v-.1s-.1.2-.1.1v-.2c-.1.2 0 .1-.1.1 0-.1-.1.1 0-.1 0 .1-.1.1-.1.1l.1-.1c-.1.1 0-.1 0-.1-.1.1-.1.1-.1.2 0-.1 0 0-.1.1v-.1c-.1.2 0 0 0 0l.1-.1c-.1.1-.1.1-.1.2v-.1c-.1.2-.1 0-.2.2l.1-.1c-.1.2 0 0-.1.1l.1-.2c0-.1 0 0-.1.2 0-.1-.1.1 0-.1 0 0 0 .1-.1.1 0-.1 0-.1 0 0l.1-.1-.1.2c.1-.1-.1.1 0-.1 0 .1 0 .1-.1.1 0 0 0-.1 0 0l.1-.1s0 .1-.1.1c-.1.1 0-.1 0-.1-.1.1-.1 0-.1 0-.1.2.1-.2-.1.1v-.1c-.1.1 0-.1 0 0v-.2c0-.1-.1.2 0 0l-.1.1c0-.1-.1 0-.1.1.1-.1.2-.3.1-.2 0 0 0 .1 0 0 0 0 .1-.2.1-.1-.1.1 0 .1-.1.1 0-.1.1-.2 0-.1v-.1c-.1.2-.1.1-.2.3-.1 0-.2.1-.2.1 0-.1-.1 0-.1-.1.1-.2.1-.2 0-.1v-.1l-.1.1.1-.1-.2.2c-.1.1 0-.2 0-.2 0-.1 0 0 0 0 .1-.2.1-.4 0-.3 0 .3.2-.1.3-.2z"/><path d="M22 43.7c0-.1.1-.1.1-.2 0 0 0 .1-.1.2zm.3-.8s.1-.1 0 0c.1-.1.1-.1 0 0 .1-.1.1-.1 0 0zm0-.1c0-.1.1-.1.1-.1l-.1.1zm.2-.3z"/><path d="M22.4 42.7s0-.1 0 0c0 0 .1-.1 0 0zm.1-.2s-.1 0 0 0c-.1 0 0-.1 0 0z"/><path d="M22.4 42.6s0-.1 0 0c0-.1 0-.1 0 0zm-.6 0zm-.1-.1c-.1 0 0-.1 0 0 0-.1 0 0 0 0zm-.3.3l-.1.1z"/></g><path d="M14.8 47.7v-17l7.4-4.3v17z" class="E"/><g class="F"><path d="M14.5 47.6c0 .2.1-.1.1.1-.1 0-.1-.1-.1-.1zm.9-.1c.3-.6 1.2-.7 1.7-1.2.1 0 .1.2.2.1.4-.6 1.4-.9 2.2-1.1v.1c.1 0 .2-.3.4-.4v.1c0-.1.2-.2.2-.3.1 0 .1.1.2.1v-.2c.1-.4.5-.3.8-.6v.1c.3-.3.7-.6 1-.8v-.5s.1.1.2 0c-.1 0-.2-.2-.2-.4.1-.1-.1-.3 0-.5-.1-.1.1-.2-.1-.3l.1-.1c-.2-.1.1-.2 0-.3V41c0-.2.1-.4-.1-.4.1-.1.1.2.2.1-.2-.8-.1-1.6-.1-2.4.1-.1.1-.1.1-.2s0-.3-.1-.4c0 0 .1 0 .1-.1.1-.1-.2-.2-.1-.3 0 .1.1.1.1.1-.1-.1-.1-.3-.1-.5 0 0 0 .1.1.1-.1-.2 0-.3-.1-.5l.1.1c.1-.3-.2-.1-.1-.3h.1c-.2-.2-.1-.5-.2-.7v-.7c0-.1.2 0 .2-.2-.2 0-.1-.4-.3-.3 0-.2.1-.5 0-.6.1.1.2-.1.2.1l.1-.1c.1 0 0 .1.1.1 0-.1-.1-.3 0-.4-.1-.1-.3-.3-.4-.5.1.1.2-.1.2 0l-.3-.3c0-.1.1 0 .1-.1 0 0-.1 0-.1-.1 0 0 0-.3.1-.4.1 0 0 .1.1 0 0-.1-.1-.2-.1-.3s-.1-.3-.2-.2c0 .1.1 0 .1.1-.1-.1-.1-.3-.1-.4 0 0 .1 0 .1.1l-.3-.6c-.1 0 .2.1.1.1.1-.3-.2-.6 0-.8h-.1c0-.1.1-.1.1-.2.1 0 0-.1 0-.2v.1c-.1-.1-.2-.6-.1-1 0 0-.2-.2-.2-.3h.1v-.1l.1-.1c-.1 0 0 0 0 .2 0 .1.1.3 0 .2.1 0-.2-.3 0-.2 0-.1-.1-.1 0-.2h.1c0-.1 0 0-.1-.1-.1.1 0-.1-.1 0 .1-.1-.1-.1.1-.3l.1-.1s-.1.1-.2.1c0 0 0-.1.1-.1-.2.3 0-.1-.1 0v-.2s-.1 0 0-.1c-.1.1-.2.3-.3.3 0 0 0-.1.1-.1 0-.1-.1 0-.1.1 0 0 0-.1-.1-.2-.1.1-.1.3-.1.3-.1-.2-.1.2-.2.1 0 0 .1-.2 0-.2-.2-.2-.1.2-.3.2l.1.1c-.1 0-.2.2-.3.1 0 .1-.2.1-.1.2-.4 0-.7.5-1 .3l-.1.1c.1 0 .1-.1.1-.1v.1c-.1 0-.2 0-.2-.1-.3 0 0 .4-.3.5 0-.1-.1-.1-.1 0l-.1.2c-.2.1-.2-.1-.2-.2-.1.1-.2.1-.2.2l-.2-.1c.1 0 0 .1-.1.2 0 0-.1 0-.2.1 0 .1.2 0 .2 0 0 .1-.1.1-.1.2 0-.1-.2 0-.3 0s0 .1-.1.2c0 0-.1.1-.1 0 0 0 .1 0 .1-.1-.1 0-.1-.1-.2 0 0 .1.1.2 0 .2V30h-.2v.1c0 .1-.2.2-.2.3h-.3c-.1 0-.2.1-.3.2l-.2.2c-.2 0-.3-.3-.3-.1-.1.1-.1.3 0 .3-.1 0-.2.1-.3.2 0 0-.1.1-.2 0v.1h-.1c0 .1.1.2-.1.5 0-.1-.1 0-.2 0 .1.1-.1.1.1.1.1 0 .1 0 .2-.1v.7c0-.1.1 0 .1 0-.2 0-.2.1-.1.3h.1l-.1.1s.2 0 .1.2h-.1c.1.1.2.3.1.4l-.1.1c0 .1.1.2.1 0-.1.2-.1.4-.2.5.3.4.3 1 .3 1.5H15c-.1.1.1.1.1.1-.1 0-.1.1-.2 0-.1.2.1.2.2.4.1 0-.1-.1.1-.1 0 0-.1.3.1.3h-.2l.1.1c-.2.1-.3-.3-.5-.2v.1c-.1.1-.2-.3-.2 0 .1.1.3.2.4.1 0 .2.4.1.3.4-.1.1 0-.2-.1-.1s.1.2 0 .3c0-.1.2 0 .2.1-.1.1-.1-.1-.1.1.1 0 .1.2.2 0 .2.1 0 .2.1.3-.1.1-.3-.2-.4 0 .1 0 .2.2.4.1 0 .1-.1.1-.2 0-.1.1.2.3 0 .3h.1l-.1.1c0 .1.2.3 0 .3 0 0 0 .3.1.2s-.1-.2.1-.2c-.1.1 0 .2.1.3h-.1s0 .2.1.2h-.1.1c.1.2-.2 0-.2.2l-.1-.1s-.1.1 0 .2c.1 0 .2.1.3.1 0 .1-.1 0 0 .1l-.1-.1s-.2.1-.2.2.2.2.3.1c0 .1-.1.2-.1.1 0 .2.1 0 .2.1l-.3.3-.2-.1v.1c-.1-.1-.1.1-.3 0 0 .1 0 .1.1.2.2-.2.3.2.5.2.1.3-.5.2-.2.4.1 0 .2.1.2-.1 0 .2.2.1.1.3-.1-.1-.2.1-.4 0 .1 0 .1-.1 0-.1-.1.1-.2 0-.2.1s0 .2.1.2 0-.2.1-.1c0 .2-.1.2.1.3 0-.1.1-.2.2-.2v.1h-.1c-.1.2.1.1.1.3l-.2.1c-.1-.1.1-.3-.2-.3 0 .1.1.2 0 .3v-.1s-.3.1-.1.3c.1.1.1 0 .2 0 0 .2.1.3.1.5-.2 0 0 .3-.2.1.1-.1.1-.4-.1-.5-.2.1 0-.2-.2-.2 0 .2-.2.2-.3.2 0 0 0 .1.1.1h.3c0 .2 0 .4.1.5-.1.1-.2 0-.2 0v.8c.2-.2 0 .3.2.2 0-.1.2-.2.3-.2 0 .1-.1 0-.1 0 .1.1-.2.2 0 .3-.1-.2-.2 0-.4-.1.1.2-.1 0-.1.2.1.2.2.4.2.6-.1.2 0 .6 0 .8-.1.1-.3 0-.3.2 0 .1.2-.1.1.1 0 .1-.1.4.1.4l-.2-.1v.1h-.2c-.1.1 0 .3 0 .4l.1-.1c.1.2 0 .4 0 .6h-.1l.1.1c-.1 0-.2.1-.1.2l-.3-.4c.1-.1.1.1.2 0 .1 0 .1-.3 0-.3v.1c-.1 0-.1-.1-.3-.2v.1c-.1-.1-.1-.2-.1-.3.1.1.1 0 .1 0-.1 0-.2-.1-.1-.3.2-.1-.1-.3-.1-.5.1.1.3.2.3.3.1-.1 0-.1.1-.3-.1-.1-.3-.1-.3-.3h.1c0-.1-.2-.1-.2-.3 0-.3 0-.7.1-.9h.1c-.2-.1-.1-.5-.2-.6.1-.3-.1-.7.1-.9-.1-.6-.1-1-.1-1.6l.1.1c-.1-.1.1-.1.1-.2-.1.1-.1-.1-.2-.2.1-.3 0-.6-.1-.8h.1c-.2-.2 0-.5 0-.8 0 0 .1-.1.1-.2-.2-.2-.1-.2-.3-.5 0-.2 0-.4.1-.6-.2-.6-.1-1.3-.2-1.9h.1c-.3-.6 0-1.4-.1-2h.2c.1-.2 0-.4-.2-.3.1-.2-.1-.4.1-.5 0-.2-.1-.2-.1-.4.1-.4.1-.5 0-.8v.1h.1c-.1-.1 0-.5-.2-.3.1-.1 0-.9 0-1.3.2-.1.3-.2.5-.2-.1 0 0-.1 0-.2.1-.1.3-.1.4-.2.1 0 .1-.1.2-.1.1-.1.3-.1.3-.2.1 0 0 .1.1.1v-.1c.4-.4.9-.4 1.3-.6.6-.5 1.4-.9 2-1.3.1-.3.6-.1.7-.5.1 0 .2-.1.2 0 .1-.1.2-.1.3-.2.2-.1.5-.2.7-.4 0 0-.1 0-.1.1.4-.1.9-.5 1.3-.7l-.2.2c.1 0 .5-.5.5-.2.1-.1.2-.2.1-.2.2-.1.3-.2.5-.3l.1 2.9c0 .3-.1.3-.1.3h-.1c-.1 0-.1 0 0 .2s-.3.2-.1.4c.1 0 .1.1.2.1-.1.3-.2.4-.1.6H22c.2.3.1.6.4.9l.2 4.7c0 1.5.1 3.1-.1 4.6-.2.4-.2.4-.1.8h-.1c.2 0 0 .3.2.3v1.7c0-.1-.1-.1-.1 0 0 0 .1.1.1.2s.1.3.2.2v.9l-.9.5-.3.2-.2.1-.9.4-1.8.9c-.3.1-.7.4-1 .6-1.1.4-2 .7-3 1.4.5.3.5-.2.8-.5z"/><path d="M14.5 47.3c.1 0 .1-.2.2-.1 0 .1-.1.1-.2.1zm.8-3.5c.1 0 .2.1 0 0 .1 0 .1.1 0 0zm.1-.9c.1 0 .1.2.1.3l-.1-.3zm.3-.8c0-.1.1 0 0 0 0 .1 0 0 0 0zm-.2-.1c0-.1 0-.1.1-.1-.1 0 0 .2-.1.1zm.2-1.8s-.1-.1 0-.2c0 .1.1.3 0 .2zm-.1-.8c.1-.1.1-.1 0 0zm5.2-11.5l-.1.1v-.1zm.8 3.3c.1.1 0 .1 0 0-.1 0 0 .1 0 0zm.4 3.6h.1z"/></g><path d="M7.4 26.4l7.4-4.2 7.4 4.2-7.4 4.3z" class="E"/><g class="F"><path d="M7.4 26.1c-.1.1.1.1 0 0-.1.1-.1 0 0 0zm.3.7c.5-.1.8.5 1.3.5 0 0-.1.2 0 .2.5 0 1 .5 1.4.9h-.1c.1.1.3 0 .3 0s-.1 0-.1.1c.1-.1.2 0 .3 0v.2l.1-.1c.3-.2.3.2.6.2 0 0-.1 0-.1.1.4 0 .8.3 1.2.4 0 0-.1.1-.1.2.1-.1.2-.1.3 0 0 .1.2 0 .3.1.2-.1.1.1.2 0v.1c.1-.2.1.2.2.1.1 0 .1.1.1.1.2 0 .2.2.3 0 0 .1-.2 0-.2.2.4.1.7.2 1 .4l.4-.2c.1 0 .1 0 .2.1 0 0 .2-.1.2-.2h.1c.1 0 0-.2.1-.2v.1c0-.1.1-.2.2-.3v.1c0-.2.2-.1.2-.2v.1c.2 0 0-.2.1-.2v.1c0-.2.3-.3.3-.4.1-.1.3-.1.4-.3.1 0 .1.2.2.1-.1-.2.2-.2 0-.3a.76.76 0 0 0 .4-.2c0 .1.2.2.1.2l.1.1c0 .1-.1 0 0 .1 0 0 .1-.2.2-.2 0-.1 0-.4.1-.5 0 .1.1.2.1.2v-.4s.1.1.1 0V28s.2-.1.3 0c.1 0-.1.1 0 .1s.1-.1.1-.2c.1 0 .1-.2 0-.2 0 0 .1.1 0 .1 0-.1.1-.2.2-.3v.1c0-.2.1-.3.3-.4 0-.1 0 .2 0 .1.2 0 .3-.4.5-.3l-.1-.1c.1 0 .1.1.2 0 0 .1 0-.1.1-.1 0-.1 0 0 0 .1l.2-.2s.1-.1.2-.1l-.1-.1.1.1h.2c-.1-.1-.1.2-.1.1.1 0-.1-.2 0-.1 0 0-.1-.1.1-.1 0 0 .1.1.2.1v-.1c-.1 0 .1 0-.1-.1.1 0 0-.1.3 0h.2s-.2-.1-.3-.1h.1c-.4 0 .1 0-.2-.1h.3c-.2 0-.3 0-.3-.1h.1c.1 0 0 0-.1 0 .1 0 .1-.1.2-.1-.1 0-.3 0-.4.1.2-.1-.3 0-.1-.1 0 0 .2 0 .2-.1.2-.1-.3 0-.2-.1l-.1.1c.1-.1-.2 0 0-.1-.1 0 0-.1-.1.1v-.1s-.1-.1-.2-.1c-.1-.1-.2-.1-.2-.3 0 0-.1-.1-.1 0s.1 0 .1 0h-.1c0-.1-.1-.1 0-.2-.1-.2-.3.2-.4 0v-.1H19c-.1-.1 0-.2.1-.3-.1 0-.1-.1-.2 0v-.2c0 .1-.1 0-.1 0l-.1-.1v.2h-.2c.1-.1 0-.1-.1-.2 0 0-.1.1-.1 0s-.1-.1 0-.1c0 0 0 .1.1 0 0-.1 0-.1-.1-.1s-.1.2-.2.1c0 0 .1 0 .1-.1l-.1-.1-.1.1c-.1.1-.2 0-.3 0s-.1-.1-.1-.2-.1-.1-.2-.1h-.2c0-.1.2-.4 0-.3-.1 0-.2.1-.2.2-.1-.1-.4-.1-.4-.3 0 0 0 .1-.1.1-.2-.2-.5-.1-.6-.4.1 0 .1-.1.1-.1-.1.1 0-.1-.1 0 0 .1-.1.1 0 .2-.1 0-.4-.1-.4-.3 0 .1 0 .1-.1.1.1-.1 0-.2-.1-.2l-.1.1V23s-.1.2-.2 0v-.1c-.1 0-.3.1-.3 0v-.2s-.1 0-.1.1c-.1-.1-.2-.2-.2-.3-.2.1-.2.2-.3.2H14v-.1.1c0-.1-.1-.1-.1-.2-.1 0 0 .1 0 .2s0-.1.1 0c0 0-.2 0-.1.1 0 0-.1-.1-.1-.2v.1c-.2-.1 0-.4-.2-.5-.1-.1.1-.2-.1-.2 0 .1 0 .3.1.3-.1.1.1.3 0 .4-.1 0 .1-.1 0-.2s-.1.1-.2.1c.1 0 .1.2.1.2-.1 0 0-.1-.1-.1 0 .1 0 .2.1.2.1.2-.1 0-.1.2-.1-.1 0-.3-.2-.3.1.1 0 .2.1.4-.1 0-.1-.1-.1-.2-.1 0 0 .3-.2.1v.1s-.1 0-.1-.1c-.1 0-.1.3-.2.1 0 0-.1.1 0 .2.1 0 0-.1.2 0-.1-.1-.1.1-.1.1v-.1l-.1.1s0-.1-.1-.1v.1c-.1.1-.1-.2-.2-.1v-.1h-.1c0 .1.1.2.1.3s-.1-.1-.1 0v-.2s-.1-.1-.2-.1c0 .1 0 .2.1.3 0 0-.1 0-.1-.1-.1.1.1.1 0 .2-.1 0-.2-.1-.3-.1v-.2h-.1c0-.2-.1-.1-.1-.2l-.1.1c.2.1 0 .4.2.5-.1.1-.4-.4-.4 0 0 0 .1.2.1.1-.1 0 0 .2-.1.2 0-.1-.2-.1-.1-.3 0 .1.1 0 .1 0-.1 0-.1-.2-.2-.1 0 0-.1.1-.1.2.1.1.1-.1.1.1-.1.1-.2 0-.1.2.1-.1.1 0 .2.1l-.1.1v-.1c-.2 0 0 .2-.1.2l-.1-.1c0-.1.2-.1.1-.2-.1 0-.1.2-.2.2v-.1s-.2-.2-.3 0c0 .1 0 .1.1.2-.1.1-.1.2-.2.3-.1-.2-.2.1-.1-.1.1.1.3-.1.3-.2-.1-.1.1 0 0-.2-.1.1-.2-.1-.3-.2v.1c0 .1.1.1.1.2-.1 0-.2.2-.2.3-.1 0-.1-.1-.1-.2-.1.1-.3.2-.5.2.2.1-.1.1 0 .2.1 0 .2.1.2.2 0 0 0-.1-.1-.1 0 .1-.2-.1-.1.1.1-.1-.1-.2-.1-.4 0 .1 0-.1-.1 0a.76.76 0 0 1-.2.4c-.2 0-.4.2-.5.3-.1 0-.1-.2-.2-.2s.2.1 0 .1c0 .1-.3 0-.2.3l-.1-.2v.1l-.1-.1c-.1-.1-.1.1-.2.2l.1.1c-.1.2-.2.1-.4.2v-.1.1c0-.1-.1-.1-.1 0l.1-.4c.1 0 0 .1.1.2s.2 0 .1-.1l-.1.1c-.1-.1 0-.2 0-.3h-.1c0-.1 0-.1.1-.2 0 .1.1.1.1.1-.1-.1 0-.2.1-.2.1.1.1-.2.3-.2v.4h.2c0-.1-.1-.3 0-.4l.1.1c.1-.1 0-.2.1-.3.2-.1.4-.2.5-.3l.1.1c0-.2.2-.2.3-.4.2 0 .4-.3.5-.2.3-.3.5-.5.9-.6v.2c0-.1.1 0 .1 0-.1-.1 0-.2 0-.3.2 0 .3-.2.4-.4l.1.1c0-.2.3-.2.5-.3 0 0 .1.1.2 0 0-.2.1-.2.1-.4.1-.1.3-.1.4-.1.3-.4.7-.5 1-.9l.1.1c.2-.2.5-.4.7-.6l.6.3c.2.1.4.2.5.2l-.1.2c.1.1.3.1.3-.1.1.1.3.1.3.2.1.1.2 0 .3 0 .2.2.2.2.5.3 0 0-.1.1 0 .1s.2.2.3 0c.1.2.5.2.6.5 0-.1.1 0 .1-.1.2.1.3.3.5.3 0 0-.1.1 0 .1s0-.1.1-.1c.4.1.5.5.8.6.5.2 1 .5 1.4.7.1 0 .2 0 .3.1s.2.2.4.1c0 .1.2.2.1.2.3 0 .4.4.9.5h-.1c.1.2.6.3.8.5h-.2c0 .1.6.1.3.2h.2c.1.1.2.1.3.2-.6.3-1 .7-1.5 1-.6.2-.4-.2-.6.1-.1 0 0 .1 0 0-.1.1-.4-.1-.4.1.1.1 0 .1 0 .2-.3.1-.4 0-.5.1v-.1c-.1.3-.3.3-.3.6l-2.6 1.8-1.1.6-.5.3-1.1.6-.9-.6c-.1-.1-.1-.2-.1-.2s0-.1-.1-.1c0 0-.1-.1-.3-.1v-.1c-.1.1-.2-.1-.3 0l-1-.6c.1 0 .2-.1.1-.1h-.1c-.1 0-.1 0-.1.1-.9-.4-1.6-1.2-2.5-1.6-.2-.2-.5-.3-.7-.4-.5-.6-1-1.1-1.8-1.3-.2 1 .1.7.4.8z"/><path d="M7.5 26.1c.1.1.2 0 .2.2l-.2-.2zm2.4-.5c.1.1.1.1 0 0 .1.1 0 .1 0 0zm.6-.2c0 .1 0 .2-.1.2l.1-.2zm.6-.1c.1 0 .1.1 0 .1v-.1z"/><path d="M11.1 25.2h.1c-.1 0-.1.1-.1 0zm1.1-.4s0-.1.1 0c0-.1-.1.1-.1 0zm.4-.4zm7.9 1.7zm-1.4 1.5s0-.1 0 0c0-.1 0 0 0 0zm-1.9 1.5l.1.1z"/></g><path d="M14.8 47.7v-17l-7.4-4.3v17z" class="E"/><g class="F"><path d="M14.5 47.6c0 .2.1-.1.1.1-.1 0-.1-.1-.1-.1zm-.2-.4c-.7 0-1.2-.7-1.9-.8-.1 0 .1-.2 0-.2-.7-.1-1.5-.7-2-1.3h.1c-.1-.1-.4 0-.5-.1 0 0 .1 0 .1-.1-.1.1-.3-.1-.4 0v-.2l-.1.1c-.4.1-.5-.3-.9-.4 0 0 .1 0 .1-.1-.4-.1-.8-.3-1.3-.5v-.5h.2c-.1 0-.2-.2-.2-.4.1-.1-.1-.3 0-.5-.1-.1.1-.2-.1-.3l.1-.1c-.2-.1.1-.2 0-.3v-.3c0-.2.1-.4-.1-.4.1-.1.1.2.2.1-.2-.8-.1-1.6-.1-2.4.1-.1.1-.1.1-.2s0-.3-.1-.4c0 0 .1 0 .1-.1.1-.1-.2-.2-.1-.3 0 .1.1.1.1.1-.1-.1-.1-.3-.1-.5 0 0 0 .1.1.1-.1-.2 0-.3-.1-.5l.1.1c.1-.3-.2-.1-.1-.3h.1c-.2-.2-.1-.5-.2-.7v-.7c0-.1.2 0 .2-.2-.2 0-.1-.4-.3-.3 0-.2.1-.5 0-.6.1.1.2-.1.2.1l.1-.1c.1 0 0 .1.1.1 0-.1-.1-.3 0-.4-.1-.1-.3-.3-.4-.5.1.1.2-.1.2 0l-.4-.3c0-.1.1 0 .1-.1 0 0-.1 0-.1-.1 0 0 0-.3.1-.4.1 0 0 .1.1 0 0-.1-.1-.2-.1-.3s-.1-.3-.2-.2c0 .1.1 0 .1.1-.1-.1-.1-.3-.1-.4 0 0 .1 0 .1.1l-.3-.6c-.1 0 .2.1.1.1.1-.3-.2-.6 0-.8h-.1c0-.1.1-.1.1-.2.1 0 0-.1 0-.2v.1c-.1-.1-.2-.7-.1-1 0 0-.2-.2-.2-.3h.1v-.1c0-.1 0-.1.1-.1-.1-.1 0 .1 0 .2s.1.3 0 .2c.1 0-.2-.3 0-.2 0-.2-.1-.4 0-.6 0 0 .2.2.1 0 0-.3 0-.1-.1-.3v-.2c-.1-.1 0-.3-.1-.2.1 0-.1-.5.1-.3l.1.2c0-.1-.1-.3-.2-.5h.1c-.2-.3 0-.3-.1-.7v-.4c.1.1.3.2.4.3.1 0 .3 0 .5.2h-.1c.2.2.2.1.3.1 0 0 .3.3.4.5.1 0 .1-.2.1-.2.1.3.5.1.7.5-.1 0-.3 0-.2.1.1.3.4 0 .5.2v-.2c0 .1.3.1.2.2.1 0 .2.2.3 0 .2.3.8.3.8.7.1 0 .1.1.2 0 0-.1-.1 0-.1-.1h.1c.1.1.1.1 0 .2.1.2.4-.1.6.1v.1h.2c.1.1 0 .2 0 .3.1 0 .2.1.3 0v.2c0-.1.1 0 .2 0H12s.1.1.2.1c0-.1-.1-.2-.1-.2h.2c-.1.1.1.2.2.2.1.1.1 0 .2 0 0 .1.1.1 0 .1 0 0 0-.1-.1-.1 0 .1 0 .2.1.2s.1-.2.2-.1c-.1 0-.1 0-.1.1l.1.1.1-.1c.1-.1.2.1.3 0 .1 0 .1.2.2.2 0 .1.2.1.3.1 0 0 .2.1.3.1.1.1-.2.4 0 .3.1.1.3-.1.3-.2.1.1.2.1.4.2s.4.2.5.4h.2l.2.1c0 .5.1 1.1-.1 1.3 0-.1-.1 0-.2 0 .1.1-.1.1.1.1.1 0 .1 0 .2-.1v.7c0-.1.1 0 .1 0-.2 0-.2.1-.1.3h.1l-.1.1s.2 0 .1.2h-.1c.1.1.2.3.1.4l-.1.1c0 .1.1.2.1 0-.1.2-.1.4-.2.5.3.4.3 1 .3 1.5h-.1c-.1.1.1.1.1.1-.1 0-.1.1-.2 0-.1.2.1.2.2.4.1 0-.1-.1.1-.1 0 0-.1.3.1.3h-.2l.1.1c-.2.1-.3-.3-.5-.2v.1c-.1.1-.2-.3-.2 0 .1.1.3.2.4.1 0 .2.4.1.3.4-.1.1 0-.2-.1-.1s.1.2 0 .3c.1-.1.2 0 .2.1-.1.1-.1-.1-.1.1.1 0 .1.2.2 0 .2.1 0 .2.1.3-.1.1-.3-.2-.4 0 .1 0 .2.2.4.1 0 .1-.1.1-.2 0-.1.1.2.3 0 .3h.1l-.1.1c0 .1.2.3 0 .3 0 0 0 .3.1.2s-.1-.2.1-.2c-.1.1 0 .2.1.3h-.1s0 .2.1.2h-.1.1c.1.2-.2 0-.2.2l-.1-.1s-.1.1 0 .2c.1 0 .2.1.3.1 0 .1-.1 0 0 .1l-.1-.1s-.2.1-.2.2.2.2.3.1c0 .1-.1.2-.1.1 0 .2.1 0 .2.1l-.3.3-.2-.1v.1c-.1-.1-.1.1-.3 0 0 .1 0 .1.1.2.2-.2.3.2.5.2.1.3-.5.2-.2.4.1 0 .2.1.2-.1 0 .2.2.1.1.3-.1-.1-.2.1-.4 0 .1 0 .1-.1 0-.1-.1.1-.2 0-.2.1s0 .2.1.2 0-.2.1-.1c0 .2-.1.2.1.3 0-.1.1-.2.2-.2v.1h-.1c-.1.2.1.1.1.3l-.2.1c-.1-.1.1-.3-.2-.3 0 .1.1.2 0 .3v-.1s-.3.1-.1.3c.1.1.1 0 .2 0 0 .2.1.3.1.5-.2 0 0 .3-.2.1.1-.1.1-.4-.1-.5-.2.1 0-.2-.2-.2 0 .2-.2.2-.3.2 0 0 0 .1.1.1h.3c0 .2 0 .4.1.5-.1.1-.2 0-.2 0v.8c.2-.2 0 .3.2.2 0-.1.2-.2.3-.2 0 .1-.1 0-.1 0 .1.1-.2.2 0 .3-.1-.2-.2 0-.4-.1.1.2-.1 0-.1.2.1.2.1.4.2.6-.1.2 0 .6 0 .8-.1.1-.3 0-.3.1s.2-.1.1.1c0 .1-.1.4.1.4l-.2-.1v.1h-.2c-.1.1 0 .3 0 .4l.1-.1c.1.2 0 .4 0 .6h-.1l.1.1c-.1 0-.2.1-.1.2l-.3-.4c.1-.1.1.1.2 0 .1 0 .1-.3 0-.3v.1c-.1 0-.1-.1-.3-.2v.1c-.1-.1-.1-.2-.1-.3.1.1.1 0 .1 0-.1 0-.2-.1-.1-.3.2-.1-.1-.3-.1-.5.1.1.3.2.3.3.1-.1 0-.1.1-.3-.1-.1-.3-.1-.3-.3h.1c0-.1-.2-.1-.2-.3 0-.3 0-.7.1-.9h.1c-.2-.1-.1-.5-.2-.6.1-.3-.1-.7.1-.9-.1-.6-.1-1-.1-1.6l.1.1c-.1-.1.1-.1.1-.2-.1.1-.1-.1-.2-.2.1-.3 0-.6-.1-.8h.1c-.2-.2 0-.5 0-.8 0 0 .1-.1.1-.2-.2-.2-.1-.2-.3-.5 0-.2 0-.4.1-.6-.2-.6-.1-1.3-.2-1.9h.1c-.3-.6 0-1.4-.1-2h.2c.1-.2 0-.4-.2-.3.1-.2-.1-.4.1-.5 0-.2-.1-.2-.1-.4.1-.4.1-.5 0-.8v.1h.1c-.1-.1.1-.5-.2-.3.1-.4 0-.3 0-.4v-.1s-.1 0-.1.1c0 0-.1-.1-.2-.1-.1-.1-.2-.2-.4-.2 0 0 .1-.1 0-.1s0 .1-.1.1c-.5-.1-.8-.6-1.2-.8-.8-.3-1.5-.8-2.1-1.1-.3 0-.4-.5-.8-.3 0-.1-.2-.1-.1-.2-.1 0-.2-.1-.4-.2-.1-.1-.1-.1-.1 0-.1-.2-.1 0-.2-.2v-.1c-.1-.2 0 .3-.1-.1l.1.2-.1-.1c0 .2.1.5.1.6 0 0-.1.1-.1.2h-.1c-.1 0-.1 0 0 .2s-.3.2-.1.4c.1 0 .1.1.2.1-.1.3-.2.4-.1.6h-.1c.2.3.1.6.4.9l.2 4.7c0 1.5.1 3.1-.1 4.6-.2.4-.2.4-.1.8h-.1c.2 0 0 .3.2.3v1.7c0-.1-.1-.1-.1 0s.1 0 .1 0h.2l.1.1.2.1.8.6c.5.4 1.1.8 1.7 1.1.3.2.7.4 1.1.6.9.8 1.7 1.4 2.7 1.9-.4 0-.7.3-1.2.1z"/><path d="M14.5 47.3c.1 0 .1-.2.2-.1 0 .1-.1.1-.2.1zm.8-3.5c.1 0 .2.1 0 0 .1 0 .1.1 0 0zm.1-.9c.1 0 .1.2.1.3l-.1-.3zm.3-.8c.1-.1.1 0 0 0 .1.1 0 0 0 0zm-.2-.1c0-.1 0-.1.1-.1 0 0 .1.2-.1.1zm.3-1.8s-.1-.1 0-.2c-.1.1.1.3 0 .2zm-.2-.8c.1-.1.1-.1 0 0zM9.4 26.9h.1l-.1.1zm-2.5 4.3c0 .1-.1.1 0 0-.1 0 0 .1 0 0zm.3 3.6h.2z"/></g><g fill="#fff"><path d="M13.8 29.7c-.1 0-.2.1 0 0zm-.1 4.4c-.4 0 0-.1-.2-.2h.2c-.3 0-.1-.1.1-.2h.1c-.3 0 0 0-.1-.1h.1c-.2 0-.2-.1-.2-.2.1 0-.1 0 0 0-.1 0 .1 0-.1 0h.1c-.2 0 .1 0 0 0 0 0 .1 0-.1 0h.2c-.2-.1-.1-.1-.1-.2h.1c.1 0-.2 0-.1 0h.1c.1 0-.2 0-.1 0h.1c-.2 0-.1 0-.2-.1V33h.3s-.1 0 0 0h-.6c-.1 0-.2 0-.3-.1-.1 0 .2 0 .1 0 .1 0-.2 0 0-.1H13h.1c-.1 0-.2-.1-.1-.1h-.1.1c-.1 0 .1 0 0 0 .1 0-.2 0 0 0 0 0-.1 0 0 0h-.1c.1 0-.1 0 .1 0h.2-.3c.2 0-.1 0 .1 0h.2c.2 0-.2 0-.1 0h-.3c.1 0-.1 0 .1 0-.1 0 .1 0-.1 0 .1 0-.1-.1.2-.1h-.1c-.1 0 .1 0 0 0h-.1.2c.1 0-.3 0-.2 0h.2s-.1 0 0 0h-.2c.1 0-.1 0 .1-.1h-.1s-.1-.1.1-.1h.2c-.1 0 .1 0-.1 0h-.2v-.1h-.1.2c-.3 0-.3-.1-.3-.1h.1c.1 0-.1 0-.1 0h.2c.1 0-.1 0-.2 0s.1 0-.1 0c0 0 .1 0-.1 0h.2c.1 0-.1 0 0 0h-.2c.1 0-.2 0 0 0h-.1.1s-.2 0 0 0h-.1c-.1 0 .1 0-.1 0 .1 0 0 0-.1 0s.2 0 .2 0h.1-.2c-.1 0 .5 0 .2 0h-.3.4c-.1 0-.1 0 0 0 0 0 .1 0-.1 0h-.1c.1 0-.1 0-.1 0h.2c.1 0-.1 0 .2 0 0 0-.1 0 0 0-.1 0-.1 0 .1 0h.2v-.1h-.4c-.1 0 .2 0 0 0h.4c-.1 0 .1 0 .1 0h-.2c.1 0 0 0 0-.1h.2s.1 0-.1 0h.3c-.1 0 0 0 0 0h.2c-.1 0-.1 0 0 0h.4c-.2 0 .1 0 .1 0h-.2.2s0 .1-.1.1h-.1c.2 0 .1 0 .2.1-.1 0 .1.1-.1.1.1 0 .1.1.1.1h-.1c.1 0-.1 0-.1 0h.2c-.1 0 0 0 .1.1h-.1c.2 0 0 0 0 .1h-.1.2c.2 0 .1.1.2.2h-.1c.3 0 0 .1.1.2H14c-.1 0 0 0 .2 0-.1 0 .1 0-.1 0h.1c-.1 0-.1 0 0 .1h-.1.2c-.1 0 .1.1-.1.1h.1s-.1 0 0 .1h-.1.1c.1 0-.1.1-.1.1.1.1.1.1.1.2.2 0-.2 0 .1.1h-.1c.1 0-.1 0 0 .1-.1 0 0 0-.1.1h-.1c-.1 0 .2 0 0 0h.1c-.1.1.1.1.1.2h-.2c.1 0-.3 0-.1 0s.1 0 .4.1c0 .1.2.3.2.4s.1.3-.1.4c-.2 0-.2 0-.1.1h-.1.2v.1h-.1.3c.1.1-.2.3-.1.4-.1 0 0 .1 0 .1-.2.1-.4.2-.2.3-.2-1.9-.6-1.9-.7-1.9z"/><path d="M13.8 29.8h-.2.2zm-.9.3s-.1 0 0 0c-.1 0 0 0 0 0z"/><path d="M12.9 30.1h-.1.1zm-.3.1c-.1 0-.1 0 0 0-.1 0-.1 0 0 0zm.1 0s-.1 0 0 0zm-.2.2c.1 0-.1 0 0 0zm.1 0c0 .1 0 .1 0 0zm.3 1.4h.1zm0 .5c-.1 0 0 0 0 0zm.4.4v-.1h.1zm1.3 15.2c.1 0 .1-.1 0 0 0 0 0 .1 0 0zm-1.2-.8c.2-.3 0 0 .2-.2 0 0-.1.2-.2.2.3-.3.2-.1.1.1l.1-.1-.1.1.1-.1s-.1.1-.1.2l.1-.1c.2-.3 0 0 .1-.1v.1c.1-.2.1-.1.2-.2 0 0-.1.1-.1.2.1-.1.1-.1.1-.2-.1.1.1-.1 0 0 .1-.1 0 .1.1-.1v.1c.1-.2 0 .1 0 0 0 0 0 .1.1-.1-.1.1 0 0-.1.2l.1-.1c0 .1 0 .1-.1.1l.1-.1v.1l.1-.1s0 .1-.1.1l.1-.1v.1c.1-.1 0 0 0 0v.1c0 .1.1-.2.1-.1v.1l.1-.1-.1.2c.1-.2 0-.1.1-.2 0 0 0 .1 0 0 0 .1-.1.2-.1.2v.2s0-.1 0 0c.1-.1.2-.3.2-.3 0 .1-.1.2-.1.2l.2-.3s-.1.1 0 .1c0 0 0-.1.1-.1l-.1.1v.1s0-.1.1-.1c0 0 0 .1 0 0s.1-.1.1-.1 0 .1-.1.1c.1-.1.1-.2.1-.2 0-.1-.1.1-.1.1 0 .1.1-.1 0 0 0 0 .1-.1 0-.1 0 0-.1.1 0 .1 0 .1 0 0 0 0s.1-.1.1 0l.1-.1-.1.1v.1c.1-.1-.1.1 0 0 0 .1.1-.1 0 0 0 0 .1-.1 0 0l-.1.1v-.1l.1-.1c0 .1 0 0-.1.1l-.1.1s.1-.1.1-.2v.1c.1-.2 0 0 .1-.1 0 .1 0 0-.1.1 0-.1.1-.1.1-.1v.1c0 .1 0 0 0 0s-.1.1-.1.2c0-.1.1-.2.1-.2-.1.2.1-.1 0 .1l-.1.1c-.1.2.1-.1 0 0l.1-.2c0 .1.1-.1 0 .1 0-.1 0 .1.1-.1-.1.1.1-.1-.1.2v-.1c0-.1 0 .1 0 0v-.1l-.1.2c0 .1.2-.3.1-.2v.1l.1-.1s-.1.1-.1.3l.1-.1-.1.1c0-.1 0-.1.1-.1 0-.1 0-.1.1-.1l.1-.1c-.1.1 0 .1 0 .1l.1-.1v.1s-.1.1 0 .1c0 0 .1-.2.1-.1 0 0 0 .1-.1.1v.1l.2-.2v.1c0 .1 0 0 0 0v-.1c0 .1-.2.4-.1.3l.1-.2c0 .1.1-.1 0 .1v-.1s.1-.1 0 .1l-.1.1c0-.1 0 .1 0-.1 0-.1.1-.1.1-.2v-.1c-.1.1-.1.2-.1.1v-.1.1s.1-.2.1-.1v.1c0-.1.1-.2.1-.1l-.1.1s0-.1.1-.1c0 .1 0 .1-.1.2.2-.3.2-.3.2-.2v.1c0 .1.1-.1 0-.1 0 .1-.1.1-.1.2s.1-.1.1-.1c0-.1 0 0 0 0s0 .1 0-.1c0 0-.1.1-.1.2v-.1c-.1.1-.2.3-.3.4s-.1.1-.1.2c0-.1.1-.2.2-.3l.2-.3c0 .1 0 0-.1.1s0 0 0 0l.1-.2c0 .1-.1.1-.1.1 0-.1.1-.1.1-.2.1-.2 0 0 0-.1-.1.1-.2.3-.2.3.1-.1.1-.1.2-.3 0 0-.1.1-.1.2s.1-.2 0 0l.1-.1s0 .1-.1.1c0 0 .1-.1 0 0l.1-.1c0-.1 0 .1 0-.1-.1.1 0 0 0-.1v.1-.1s0 .1-.1.1l.1-.1s-.1.2-.1.1v.1s0 .1 0 0 .1-.2.2-.3c0 0-.1.1 0 0l-.2.2.1-.2s0 .1-.1.1c0 0 .1-.1.1-.2 0 .1-.1.1-.1.2l-.1.1c-.1.1 0 .1-.1.2.1-.2.2-.3.3-.5 0 0-.3.5-.1.2 0 0 .1-.2.1-.1 0 0 .1-.2.1-.1s-.1.2-.2.3c0-.1 0 0 0 0 0 .1-.1.2-.1.2l.1-.1c.1-.1 0 0 0-.1 0 0-.1.1 0-.1 0 0 0-.1.1-.2v.1c0 .1.1-.1.1-.1l-.1.1c-.1.1 0-.1-.1.1 0 0 .1-.1 0 0 0 0-.2.3-.1.1 0-.1 0-.1.1-.1l.1-.1c-.1.1 0 0-.1.2 0-.1 0-.1 0 .1-.1.2 0 0-.1.1 0 0-.1.2-.2.3v-.1c.1-.1.1-.1.1-.2l.1-.1-.1.2.2-.4s0 .1-.1.1c.1-.1-.1.1 0 0 0 0-.1.2-.2.3 0-.1-.1.1 0 .1 0-.1.1-.1.1-.2-.1.1 0 0 0 0 0 .1-.1.2-.1.3 0 0 .1-.2.1-.1 0 0 0 .1.1-.1l-.1.2-.1.1c-.1.1 0 0 0 0v-.1c0-.1 0 0 0 0l-.1.1v-.1c0 .1-.1.1 0 .1l-.1.2c0-.1.1-.1.1-.2s0-.1 0 0c-.1.1-.1.1-.1.2v.1s0-.1.1-.1l-.1.1c.1-.1-.1.1 0 0s.1-.2.2-.3v-.1c0 .1-.1.2-.2.3v-.1s-.1.2-.1.1v-.2c-.1.2 0 .1-.1.1 0-.1-.1.1 0-.1 0 .1-.1.1-.1.1l.1-.1c-.1.1 0-.1 0-.1-.1.1-.1.1-.1.2 0-.1 0 0-.1.1v-.1c-.1.2 0 0 0 0l.1-.1c-.1.1-.1.1-.1.2v-.1c-.1.2-.1 0-.2.2l.1-.1c-.1.2 0 0-.1.1l.1-.2c0-.1 0 0-.1.2 0-.1-.1.1 0-.1 0 0 0 .1-.1.1 0-.1 0-.1 0 0l.1-.1-.1.2c.1-.1-.1.1 0-.1 0 .1 0 .1-.1.1 0 0 0-.1 0 0l.1-.1s0 .1-.1.1c-.1.1 0-.1 0-.1-.1.1-.1 0-.1 0-.1.2.1-.2-.1.1v-.1c-.1.1 0-.1 0 0v-.2c0-.1-.1.2 0 0l-.1.1c0-.1-.1 0-.1.1.1-.1.2-.3.1-.2 0 0 0 .1 0 0 0 0 .1-.2.1-.1-.1.1 0 .1-.1.1 0-.1.1-.2 0-.1v-.1c-.1.2-.1.1-.2.3-.1 0-.2.1-.2.1 0-.1-.1 0-.1-.1.1-.2.1-.2 0-.1v-.1l-.1.1.1-.1-.2.2c-.1.1 0-.2 0-.2 0-.1 0 0 0 0 .1-.2.1-.4 0-.3 0 .2.2-.1.3-.2z"/><path d="M14.6 47.9c0-.1.1-.1.1-.2 0 .1 0 .2-.1.2zm.4-.8c-.1.1 0 0 0 0s0-.1 0 0z"/><path d="M15 47.1c0-.1.1-.1.1-.1l-.1.1zm.1-.3s0-.1 0 0zm-.1.2s0-.1 0 0c0-.1.1-.2 0 0zm.1-.3s-.1.1 0 0c-.1.1 0 0 0 0z"/><path d="M15 46.8zm-.6.1l.1-.1-.1.1zm-.1-.1s0-.1 0 0c0-.1 0 0 0 0zm-.3.2l-.1.2z"/></g><path d="M48 28.5v-17l-7.4-4.3v17z" class="E"/><g class="F"><path d="M47.8 28.3c0 .2.1-.1.1.1-.1 0-.2 0-.1-.1zm-.2-.3c-.7 0-1.2-.7-1.9-.8-.1 0 .1-.2 0-.2-.7-.1-1.5-.7-2-1.3h.1c-.1-.1-.4 0-.5-.1 0 0 .1 0 .1-.1-.1.1-.3-.1-.4 0v-.2l-.1.1c-.4.1-.5-.3-.9-.4 0 0 .1 0 .1-.1-.4-.1-.8-.3-1.3-.5v-.5h.2c-.1 0-.2-.2-.2-.4.1-.1-.1-.3 0-.5-.1-.1.1-.2-.1-.3l.1-.1c-.2-.1.1-.2 0-.3V22c0-.2.1-.4-.1-.4.1-.1.1.2.2.1-.2-.8-.1-1.6-.1-2.4.1-.1.1-.1.1-.2s0-.3-.1-.4c0 0 .1 0 .1-.1.1-.1-.2-.2-.1-.3 0 .1.1.1.1.1-.1-.1-.1-.3-.1-.5 0 0 0 .1.1.1-.1-.2 0-.3-.1-.5l.1.1c.1-.3-.2-.1-.1-.3h.1c-.2-.2-.1-.5-.2-.7v-.7c0-.1.2 0 .2-.2-.2 0-.1-.4-.3-.3 0-.2.1-.5 0-.6.1.1.2-.1.2.1l.1-.1c.1 0 0 .1.1.1 0-.1-.1-.3 0-.4-.1-.1-.3-.3-.4-.5.1.1.2-.1.2 0l-.4-.3c0-.1.1 0 .1-.1 0 0-.1 0-.1-.1 0 0 0-.3.1-.4.1 0 0 .1.1 0 0-.1-.1-.2-.1-.3s-.1-.3-.2-.2c0 .1.1 0 .1.1-.1-.1-.1-.3-.1-.4 0 0 .1 0 .1.1l-.3-.6c-.1 0 .2.1.1.1.1-.3-.2-.6 0-.8h-.1c0-.1.1-.1.1-.2.1 0 0-.1 0-.2v.1c-.1-.1-.2-.6-.1-1 0 0-.2-.2-.2-.3h.1v-.1c0-.1 0-.1.1-.1-.1-.1 0 .1 0 .3 0 .1.1.3 0 .2.1 0-.2-.3 0-.2 0-.2-.1-.4 0-.6 0 0 .2.2.1 0 0-.3 0-.1-.1-.3v-.2c-.1-.1 0-.3-.1-.2.1 0-.1-.5.1-.3l.1.2c0-.1-.1-.3-.2-.5h.1c-.2-.3 0-.3-.1-.7v-.4c.1.1.3.2.4.3.1 0 .2 0 .5.2h-.1c.2.2.2.1.3.1 0 0 .3.3.4.5.1 0 .1-.2.1-.2.1.3.5.1.7.5-.1 0-.3 0-.2.1.1.3.4 0 .5.2v-.2c0 .1.3.1.2.2.1 0 .2.2.3 0 .2.3.8.3.8.7.1 0 .1.1.2 0 0-.1-.1 0-.1-.1h.1c.1.1.1.1 0 .2.1.2.4-.1.6.1v.1h.2c.1.1 0 .2 0 .3.1 0 .2.1.3 0v.2c0-.1.1 0 .2 0h-.1s.1.1.2.1c0-.1-.1-.2-.1-.2h.2c-.1.1.1.2.2.2.1.1.1 0 .2 0 0 .1.1.1 0 .1 0 0 0-.1-.1-.1 0 .1 0 .2.1.2s.1-.2.2-.1c-.1 0-.1 0-.1.1l.1.1.1-.1c.1-.1.2.1.3 0 .1 0 .1.2.2.2 0 .1.2.1.3.1 0 0 .2.1.3.1.1.1-.2.4 0 .3.1.1.3-.1.3-.2.1.1.2.1.3.2.2.1.4.2.5.4h.2c.1 0 .1.1.2.1 0 .5.1 1.1-.1 1.3 0-.1-.1 0-.2 0 .1.1-.1.1.1.1.1 0 .1 0 .2-.1v.7c0-.1.1 0 .1 0-.2 0-.2.1-.1.3h.1l-.1.1s.2 0 .1.2h-.1c.1.1.2.3.1.4l-.1.1c0 .1.1.2.1 0-.1.2-.1.4-.2.5.3.4.3 1 .3 1.5H49c-.1.1.1.1.1.1-.1 0-.1.1-.2 0-.1.2.1.2.2.4.1 0-.1-.1.1-.1 0 0-.1.3.1.3h-.2l.1.1c-.2.1-.3-.3-.5-.2v.1c-.1.1-.2-.3-.2 0 .1.1.3.2.4.1 0 .2.4.1.3.4-.1.1 0-.2-.1-.1s.1.2 0 .3c0-.1.2 0 .2.1-.1.1-.1-.1-.1.1.1 0 .1.2.2 0 .2.1 0 .2.1.3-.1.1-.3-.2-.4 0 .1 0 .2.2.4.1 0 .1-.1.1-.2 0-.1.1.2.3 0 .3h.1l-.1.1c0 .1.2.3 0 .3 0 0 0 .3.1.2s-.1-.2.1-.2c-.1.1 0 .2.1.3h-.1s0 .2.1.2h-.1.1c.1.2-.2 0-.2.2l-.1-.1s-.1.1 0 .2c.1 0 .2.1.3.1 0 .1-.1 0 0 .1l-.1-.1s-.2.1-.2.2.2.2.3.1c0 .1-.1.2-.1.1 0 .2.1 0 .2.1l-.3.3-.2-.1v.1c-.1-.1-.1.1-.3 0 0 .1 0 .1.1.2.2-.2.3.2.5.2.1.3-.5.2-.2.4.1 0 .2.1.2-.1 0 .2.2.1.1.3-.1-.1-.2.1-.4 0 .1 0 .1-.1 0-.1-.1.1-.2 0-.2.1s0 .2.1.2 0-.2.1-.1c0 .2-.1.2.1.3 0-.1.1-.2.2-.2v.1h-.1c-.1.2.1.1.1.3l-.2.1c-.1 0 .1-.3-.2-.3 0 .1.1.2 0 .3v-.1s-.3.1-.1.3c.1.1.1 0 .2 0 0 .2.1.3.1.5-.2 0 0 .3-.2.1.1-.1.1-.4-.1-.5-.2.1 0-.2-.2-.2 0 .2-.2.2-.3.2 0 0 0 .1.1.1h.3c0 .2 0 .4.1.5-.1.1-.2 0-.2 0v.8c.2-.2 0 .3.2.2 0-.1.2-.2.3-.2 0 .1-.1 0-.1 0 .1.1-.2.2 0 .3-.1-.2-.2 0-.4-.1.1.2-.1 0-.1.2.1.2.2.4.2.6-.1.2 0 .6 0 .8-.1.1-.3 0-.3.1s.2-.1.1.1c0 .1-.1.4.1.4l-.2-.1v.1h-.2c-.1.1 0 .3 0 .4l.1-.1c.1.2 0 .4 0 .6h-.1l.1.1c-.1 0-.2.1-.1.2l-.3-.4c.1-.1.1.1.2 0 .1 0 .1-.3 0-.3v.1c-.1 0-.1-.1-.3-.2v.1c-.1-.1-.1-.2-.1-.3.1.1.1 0 .1 0-.1 0-.2-.1-.1-.3.2-.1-.1-.3-.1-.5.1.1.3.2.3.3.1-.1 0-.1.1-.3-.1-.1-.3-.1-.3-.3h.1c0-.1-.2-.1-.2-.3 0-.3 0-.7.1-.9h.1c-.2-.1-.1-.5-.2-.6.1-.3-.1-.7.1-.9-.1-.6-.1-1-.1-1.6l.1.1c-.1-.1.1-.1.1-.2-.1.1-.1-.1-.2-.2.1-.3 0-.6-.1-.8h.1c-.2-.2 0-.5 0-.8 0 0 .1-.1.1-.2-.2-.2-.1-.2-.3-.5 0-.2 0-.4.1-.6-.2-.6-.1-1.3-.2-1.9h.1c-.3-.6 0-1.4-.1-2h.2c.1-.2 0-.4-.2-.3.1-.2-.1-.4.1-.5 0-.2-.1-.2-.1-.4.1-.4.1-.5 0-.8v.1h.1c-.1-.1 0-.5-.2-.3.1-.4 0-.3 0-.4v-.1s-.1 0-.1.1l-.2-.1c-.1-.1-.2-.2-.4-.2 0 0 .1-.1 0-.1s0 .1-.1.1c-.5-.1-.8-.6-1.2-.8-.8-.3-1.5-.8-2.1-1.1-.3 0-.4-.5-.7-.3 0-.1-.2-.1-.1-.2-.1 0-.2-.1-.4-.2 0-.1-.1-.1-.1 0-.1-.2-.1 0-.2-.2v-.1c-.1-.2 0 .3-.1-.1l.1.2-.1-.1c0 .2.1.5.1.6l-.1.1h-.1c-.1 0-.1 0 0 .2s-.3.2-.1.4c.1 0 .1.1.2.1-.1.3-.2.4-.1.6h-.1c.2.3.1.6.4.9l.2 4.7c0 1.5.1 3.1-.1 4.6-.2.4-.2.4-.1.8h-.1c.2 0 0 .3.2.3v1.7c0-.1-.1-.1-.1 0h.3l.1.1.2.1.8.6c.5.4 1.1.8 1.7 1.1.3.2.7.4 1.1.6.9.8 1.7 1.4 2.7 1.9-.4 0-.8.2-1.2.1z"/><path d="M47.7 28.1c.1 0 .1-.2.2-.1 0 .1-.1.1-.2.1zm.9-3.5zm0-.9c.1 0 .1.2.1.3l-.1-.3zm.3-.8c.1-.1.1-.1 0 0zm-.1-.1c0-.1 0-.1.1-.1-.1 0 0 .2-.1.1zM49 21s-.1-.1 0-.2c-.1.1.1.3 0 .2zm-.1-.8s0-.1 0 0c0-.1 0-.1 0 0zM42.6 7.7h.1l-.1.1zM40.1 12c0 .1-.1.1 0 0-.1 0 0 .1 0 0zm.3 3.6h.2z"/></g><g fill="#fff"><path d="M47 10.5s-.1 0 0 0zm-.1 4.4c-.4 0 0-.1-.2-.2h.2c-.3 0-.1-.1.1-.2h.1c-.3 0 0 0-.1-.1h.1c-.2 0-.2-.1-.2-.2.1 0-.1 0 0 0-.1 0 .1 0-.1 0h.1c-.2 0 .1 0 0 0 0 0 .1 0-.1 0h.2c-.2-.1-.1-.1-.1-.2h.1c.1 0-.2 0-.1 0h.1c.1 0-.2 0-.1 0h.1c-.2 0-.1 0-.2-.1v-.1h.2-.3s.1 0 0-.1h.4s-.1 0 0 0h-.6c-.1 0-.2 0-.3-.1-.1 0 .2 0 .1 0 .1 0-.2 0 0-.1h-.1.1c-.1 0-.2-.1-.1-.1h-.1.1c-.1 0 .1 0 0 0 .1 0-.2 0 0 0 0 0-.1 0 0 0h-.1c.1 0-.1 0 .1 0h.2-.3c.2 0-.1 0 .1 0h.2c.2 0-.2 0-.1 0h-.2c.1 0-.1 0 .1 0-.1 0 .1 0-.1 0 .1 0-.1-.1.2-.1h-.1c-.1 0 .1 0 0 0h-.1.2c.1 0-.3 0-.2 0h.2s-.1 0 0 0h-.2c.1 0-.1 0 .1-.1h-.1s-.1-.1.1-.1h.2c-.1 0 .1 0-.1 0h-.2V13H46h.2c-.3 0-.3-.1-.3-.1h.1c.1 0-.1 0-.1 0h.2c.1 0-.1 0-.2 0s.1 0-.1 0c0 0 .1 0-.1 0h.2c.1 0-.1 0 0 0h-.2c.1 0-.2 0 0 0h.2s-.2 0 0 0h-.1c-.1 0 .1 0-.1 0 .1 0 0 0-.1 0s.2 0 .2 0h.1-.2c-.1 0 .5 0 .2 0h-.3.4c-.1 0-.1 0 0 0 0 0 .1 0-.1 0h-.1c.1 0-.1 0-.1 0h.2c.1 0-.1 0 .2 0 0 0-.1 0 0 0-.1 0-.1 0 .1 0h.2v-.1H46c-.1 0 .2 0 0 0h.4c-.1 0 .1 0 .1 0h-.2c.1 0 0 0 0-.1h.2s.1 0-.1 0h.3c-.1 0 0 0 0 0h.2c-.1 0-.1 0 0 0h.4c-.2 0 .1 0 .1 0h-.2.2s0 .1-.1.1h-.1c.2 0 .1 0 .2.1-.1 0 .1.1-.1.1.1 0 .1.1.1.1h-.1c.1 0-.1 0-.1 0h.2c-.1 0 0 0 .1.1h-.1c.2 0 0 0 0 .1h-.1.2c.2 0 .1.1.2.2h-.1c.3 0 0 .1.1.2h-.2c-.1 0 0 0 .2 0-.1 0 .1 0-.1 0h.1c-.1 0-.1 0 0 .1h-.1.2c-.1 0 .1.1-.1.1h.1s-.1 0 0 .1h-.1.1c.1 0-.1.1-.1.1.1.1.1.1.1.2.2 0-.2 0 .1.1h-.1c.1 0-.1 0 0 .1-.1 0 0 0-.1.1h-.1c-.1 0 .2 0 0 0h.1c-.1.1.1.1.1.2h-.2c.1 0-.3 0-.1 0s.1 0 .4.1c0 .1.2.3.2.4s.1.3-.1.4c-.2 0-.2 0-.1.1h-.1.2v.1h-.1.3c.1.1-.2.3-.1.4-.1 0 0 .1 0 .1-.2.1-.4.2-.2.3-.5-1.8-.9-1.8-1-1.8z"/><path d="M47 10.6h-.2.2zm-.8.3s-.1 0 0 0c-.1 0-.2 0 0 0-.1 0-.1 0 0 0z"/><path d="M46.1 10.9H46h.1zm-.3.1s-.1 0 0 0z"/><path d="M46 11s-.1 0 0 0c0 0-.1 0 0 0zm-.2.2s-.1 0 0 0zm.1 0s-.1 0 0 0zm.3 1.4l-.1-.1h.1zm0 .5s-.1 0 0 0c-.1 0 0 0 0 0zm.4.3h.1zm1.3 15.3s0-.1 0 0z"/><path d="M46.7 27.9c.2-.3 0 0 .2-.2-.1 0-.2.2-.2.2.3-.3.2-.1.1.1l.1-.1v.1l.1-.1s-.1.1-.1.2l.1-.1c.2-.3 0 0 .1-.1v.1c.1-.2.1-.1.2-.2 0 0-.1.1-.1.2.1-.1.1-.1.1-.2-.1.1.1-.1 0 0 .1-.1 0 .1.1-.1v.1c.1-.2 0 .1 0 0 0 0 0 .1.1-.1-.1.1 0 0-.1.2l.1-.1c0 .1 0 .1-.1.1l.1-.1v.1l.1-.1s0 .1-.1.1l.1-.1v.1c.1-.1 0 0 0 0v.1c0 .1.1-.2.1-.1v.1l.1-.1-.1.2c.1-.2 0-.1.1-.2 0 0 0 .1 0 0 0 .1-.1.2-.1.2v.2s0-.1 0 0c.1-.1.2-.3.2-.3 0 .1-.1.2-.1.2l.2-.3s-.1.1 0 .1c0 0 0-.1.1-.1l-.1.1v.1s0-.1.1-.1c0 0 0 .1 0 0s.1-.1.1-.1 0 .1-.1.1c.1-.1.1-.2.1-.2 0-.1-.1.1-.1.1 0 .1.1-.1 0 0 0 0 .1-.1 0-.1 0 0-.1.1 0 .1 0 .1 0 0 0 0s.1-.1.1 0l.1-.1-.1.1v.1c.1-.1-.1.1 0 0 0 .1.1-.1 0 0 0 0 .1-.1 0 0l-.1.1V28l.1-.1c0 .1 0 0-.1.1l-.1.1s.1-.1.1-.2v.1c.1-.2 0 0 .1-.1 0 .1 0 0-.1.1 0-.1.1-.1.1-.1v.1c0 .1 0 0 0 0s-.1.1-.1.2c0-.1.1-.2.1-.2-.1.2.1-.1 0 .1l-.1.1c-.1.2.1-.1 0 0l.1-.2c0 .1.1-.1 0 .1 0-.1 0 .1.1-.1-.1.1.1-.1-.1.2v-.1c0-.1 0 .1 0 0V28l-.1.2c0 .1.2-.3.1-.2v.1l.1-.1s-.1.1-.1.3l.1-.1-.1.1c0-.1 0-.1.1-.1 0-.1 0-.1.1-.1l.1-.1c-.1.1 0 .1 0 .1l.1-.1v.1s-.1.1 0 .1c0 0 .1-.2.1-.1 0 0 0 .1-.1.1v.1l.2-.2v.1c0 .1 0 0 0 0v-.1c0 .1-.2.4-.1.3l.1-.2c0 .1.1-.1 0 .1v-.1s.1-.1 0 .1l-.1.1c0-.1 0 .1 0-.1 0-.1.1-.1.1-.2V28c-.1.1-.1.2-.1.1V28v.1s.1-.2.1-.1v.1c0-.1.1-.2.1-.1l-.1.1s0-.1.1-.1c0 .1 0 .1-.1.2.2-.3.2-.3.2-.2v.1c0 .1.1-.1 0-.1 0 .1-.1.1-.1.2s.1-.1.1-.1c0-.1 0 0 0 0s0 .1 0-.1c0 0-.1.1-.1.2v-.1c-.1.1-.2.3-.3.4s-.1.1-.1.2c0-.1.1-.2.2-.3l.2-.3c0 .1 0 0-.1.1s0 0 0 0l.1-.2c0 .1-.1.1-.1.1 0-.1.1-.1.1-.2.1-.2 0 0 0-.1-.1.1-.2.3-.2.3.1-.1.1-.1.2-.3 0 0-.1.1-.1.2s.1-.2 0 0l.1-.1s0 .1-.1.1c0 0 .1-.1 0 0l.1-.1c0-.1 0 .1 0-.1-.1.1 0 0 0-.1v.1-.1s0 .1-.1.1l.1-.1s-.1.2-.1.1v.1s0 .1 0 0 .1-.2.2-.3c0 0-.1.1 0 0l-.2.2.1-.2s0 .1-.1.1c0 0 .1-.1.1-.2 0 .1-.1.1-.1.2l-.1.1c-.1.1 0 .1-.1.2.1-.2.2-.3.3-.5 0 0-.3.5-.1.2 0 0 .1-.2.1-.1 0 0 .1-.2.1-.1s-.1.2-.2.3c0-.1 0 0 0 0 0 .1-.1.2-.1.2l.1-.1c.1-.1 0 0 0-.1 0 0-.1.1 0-.1 0 0 0-.1.1-.2v.1c0 .1.1-.1.1-.1l-.1.1c-.1.1 0-.1-.1.1 0 0 .1-.1 0 0 0 0-.2.3-.1.1 0-.1 0-.1.1-.1l.1-.1c-.1.1 0 0-.1.2 0-.1 0-.1 0 .1-.1.2 0 0-.1.1 0 0-.1.2-.2.3v-.1c.1-.1.1-.1.1-.2l.1-.1-.1.2.2-.4s0 .1-.1.1c.1-.1-.1.1 0 0 0 0-.1.2-.2.3 0-.1-.1.1 0 .1 0-.1.1-.1.1-.2-.1.1 0 0 0 0 0 .1-.1.2-.1.3 0 0 .1-.2.1-.1 0 0 0 .1.1-.1l-.1.2-.1.1c-.1.1 0 0 0 0v-.1c0-.1 0 0 0 0l-.1.1v-.1c0 .1-.1.1 0 .1l-.1.2c0-.1.1-.1.1-.2s0-.1 0 0c-.1.1-.1.1-.1.2v.1s0-.1.1-.1l-.6.1c.1-.1-.1.1 0 0s.1-.2.2-.3v-.1c0 .1-.1.2-.2.3v-.1s-.1.2-.1.1v-.2c-.1.2 0 .1-.1.1 0-.1-.1.1 0-.1 0 .1-.1.1-.1.1l.1-.1c-.1.1 0-.1 0-.1-.1.1-.1.1-.1.2 0-.1 0 0-.1.1v-.1c-.1.2 0 0 0 0l.1-.1c-.1.1-.1.1-.1.2v-.1c-.1.2-.1 0-.2.2l.1-.1c-.1.2 0 0-.1.1l.1-.2c0-.1 0 0-.1.2 0-.1-.1.1 0-.1 0 0 0 .1-.1.1 0-.1 0-.1 0 0l.1-.1-.1.2c.1-.1-.1.1 0-.1 0 .1 0 .1-.1.1 0 0 0-.1 0 0l.1-.1s0 .1-.1.1c-.1.1 0-.1 0-.1-.1.1-.1 0-.1 0-.1.2.1-.2-.1.1v-.1c-.1.1 0-.1 0 0v-.2c0-.1-.1.2 0 0l-.1.1c0-.1-.1 0-.1.1.1-.1.2-.3.1-.2 0 0 0 .1 0 0 0 0 .1-.2.1-.1-.1.1 0 .1-.1.1 0-.1.1-.2 0-.1v-.1c-.1.2-.1.1-.2.3-.1 0-.2.1-.2.1 0-.1-.1 0-.1-.1.1-.2.1-.2 0-.1v-.1l-.1.1.1-.1-.2.2c-.1.1 0-.2 0-.2 0-.1 0 0 0 0 .1-.2.1-.4 0-.3.4.2.6-.1.7-.2z"/><path d="M47.9 28.7c0-.1.1-.1.1-.2-.1.1-.1.1-.1.2zm.3-.8s.1-.1 0 0z"/><path d="M48.2 27.9c0-.1.1-.1.1-.1l-.1.1zm.1-.3c.1 0 .1-.1 0 0z"/><path d="M48.3 27.7s0-.1 0 0zm0-.2s0 .1 0 0c0 .1.1-.1 0 0zm-.1.1s.1-.1 0 0zm-.5 0v.1zm-.2 0s.1-.1 0 0c.1-.1 0 0 0 0zm-.2.2l-.1.1z"/></g><path d="M40.6 32.7V15.8l7.4-4.3v17z" class="E"/><g class="F"><path d="M40.4 32.6c0 .2.1-.1.1.1-.1 0-.2 0-.1-.1zm.9 0c.3-.6 1.2-.7 1.7-1.2.1 0 .1.2.2.1.4-.6 1.4-.9 2.2-1.1v.1c.1 0 .2-.3.4-.4v.1c0-.1.2-.2.2-.3.1 0 .1.1.2.1v-.2c.1-.4.5-.3.8-.6v.1c.3-.3.7-.6 1-.8V28s.1.1.2 0c-.1 0-.2-.2-.2-.4.1-.1-.1-.3 0-.5-.1-.1.1-.2-.1-.3l.1-.1c-.2-.1.1-.2 0-.3v-.3c0-.2.1-.4-.1-.4.1-.1.1.2.2.1-.2-.8-.1-1.6-.1-2.4.1-.1.1-.1.1-.2s0-.3-.1-.4c0 0 .1 0 .1-.1.1-.1-.2-.2-.1-.3 0 .1.1.1.1.1-.1-.1-.1-.3-.1-.5 0 0 0 .1.1.1-.1-.2 0-.3-.1-.5l.1.1c.1-.3-.2-.1-.1-.3h.1c-.2-.2-.1-.5-.2-.7V20c0-.1.2 0 .2-.2-.2 0-.1-.4-.3-.3 0-.2.1-.5 0-.6.1.1.2-.1.2.1l.1-.1c.1 0 0 .1.1.1 0-.1-.1-.3 0-.4-.1-.1-.3-.3-.4-.5.1.1.2-.1.2 0l-.4-.3c0-.1.1 0 .1-.1 0 0-.1 0-.1-.1 0 0 0-.3.1-.4.1 0 0 .1.1 0 0-.1-.1-.2-.1-.3s-.1-.3-.2-.2c0 .1.1 0 .1.1-.1-.1-.1-.3-.1-.4 0 0 .1 0 .1.1l-.3-.6c-.1 0 .2.1.1.1.1-.3-.2-.6 0-.8h-.1c0-.1.1-.1.1-.2.1 0 0-.1 0-.2v.1c-.1-.1-.2-.6-.1-1 0 0-.2-.2-.2-.3h.1v-.1l.1-.1c-.1 0 0 0 0 .2 0 .1.1.3 0 .2.1 0-.2-.3 0-.2 0-.1-.1-.1 0-.2h.1c0-.1 0 0-.1-.1-.1.1 0-.1-.1 0 .1-.1-.1-.1.1-.3l.1-.1s-.1.1-.2.1c0 0 0-.1.1-.1-.2.3 0-.1-.1 0v-.2s-.1 0 0-.1c-.1.1-.2.3-.3.3 0 0 0-.1.1-.1 0-.1-.1 0-.1.1 0 0 0-.1-.1-.2-.1.1-.1.3-.1.3-.1-.2-.1.2-.2.1 0 0 .1-.2 0-.2-.2-.2-.1.2-.3.2l.1.1c-.1 0-.2.2-.3.1 0 .1-.2.1-.1.2-.4 0-.7.5-1 .3l-.1.1c.1 0 .1-.1.1-.1v.1c-.1 0-.2 0-.2-.1-.3 0 0 .4-.3.5 0-.1-.1-.1-.1 0l-.1.2c-.2.1-.2-.1-.2-.2-.1.1-.2.1-.2.2l-.2-.1c.1 0 0 .1-.1.2 0 0-.1 0-.2.1 0 .1.2 0 .2 0 0 .1-.1.1-.1.2 0-.1-.2 0-.3 0s0 .1-.1.2c0 0-.1.1-.1 0 0 0 .1 0 .1-.1-.1 0-.1-.1-.2 0 0 .1.1.2 0 .2v-.1h-.2v.1c0 .1-.2.2-.2.3h-.3c-.1 0-.2.1-.3.2l-.2.2c-.2 0-.3-.3-.3-.1-.1.1-.1.3 0 .3-.1 0-.2.1-.3.2 0 0-.1.1-.2 0v.1h-.1c0 .1.1.2-.1.5 0-.1-.1 0-.2 0 .1.1-.1.1.1.1.1 0 .1 0 .2-.1v.7c0-.1.1 0 .1 0-.2 0-.2.1-.1.3h.1l-.1.1s.2 0 .1.2h-.1c.1.1.2.3.1.4l-.1.1c0 .1.1.2.1 0-.1.2-.1.4-.2.5.3.4.3 1 .3 1.5h-.1c-.1.1.1.1.1.1-.1 0-.1.1-.2 0-.1.2.1.2.2.4.1 0-.1-.1.1-.1 0 0-.1.3.1.3h-.2l.1.1c-.2.1-.3-.3-.5-.2v.1c-.1.1-.2-.3-.2 0 .1.1.3.2.4.1 0 .2.4.1.3.4-.1.1 0-.2-.1-.1s.1.2 0 .3c0-.1.2 0 .2.1-.1.1-.1-.1-.1.1.1 0 .1.2.2 0 .2.1 0 .2.1.3-.1.1-.3-.2-.4 0 .1 0 .2.2.4.1 0 .1-.1.1-.2 0-.1.1.2.3 0 .3h.1l-.1.1c0 .1.2.3 0 .3 0 0 0 .3.1.2s-.1-.2.1-.2c-.1.1 0 .2.1.3h-.1s0 .2.1.2h-.1.1c.1.2-.2 0-.2.2l-.1-.1s-.1.1 0 .2c.1 0 .2.1.3.1 0 .1-.1 0 0 .1l-.1-.1s-.2.1-.2.2.2.2.3.1c0 .1-.1.2-.1.1 0 .2.1 0 .2.1l-.3.3-.2-.1v.1c-.1-.1-.1.1-.3 0 0 .1 0 .1.1.2.2-.2.3.2.5.2.1.3-.5.2-.2.4.1 0 .2.1.2-.1 0 .2.2.1.1.3-.1-.1-.2.1-.4 0 .1 0 .1-.1 0-.1-.1.1-.2 0-.2.1s0 .2.1.2 0-.2.1-.1c0 .2-.1.2.1.3 0-.1.1-.2.2-.2v.1h-.1c-.1.2.1.1.1.3l-.2.1c-.1-.1.1-.3-.2-.3 0 .1.1.2 0 .3v-.1s-.3.1-.1.3c.1.1.1 0 .2 0 0 .2.1.3.1.5-.2 0 0 .3-.2.1.1-.1.1-.4-.1-.5-.2.1 0-.2-.2-.2 0 .2-.2.2-.3.2 0 0 0 .1.1.1h.3c0 .2 0 .4.1.5-.1.1-.2 0-.2 0v.8c.2-.2 0 .3.2.2 0-.1.2-.2.3-.2 0 .1-.1 0-.1 0 .1.1-.2.2 0 .3-.1-.2-.2 0-.4-.1.1.2-.1 0-.1.2.1.2.2.4.2.6-.1.2 0 .6 0 .8-.1.1-.3 0-.3.2 0 .1.2-.1.1.1 0 .1-.1.4.1.4l-.2-.1v.1h-.2c-.1.1 0 .3 0 .4l.1-.1c.1.2 0 .4 0 .6h-.1l.1.1c-.1 0-.2.1-.1.2l-.3-.4c.1-.1.1.1.2 0 .1 0 .1-.3 0-.3v.1c-.1 0-.1-.1-.3-.2v.1c-.1-.1-.1-.2-.1-.3.1.1.1 0 .1 0-.1 0-.2-.1-.1-.3.2-.1-.1-.3-.1-.5.1.1.3.2.3.3.1-.1 0-.1.1-.3-.1-.1-.3-.1-.3-.3h.1c0-.1-.2-.1-.2-.3 0-.3 0-.7.1-.9h.1c-.2-.1-.1-.5-.2-.6.1-.3-.1-.7.1-.9-.1-.6-.1-1-.1-1.6l.1.1c-.1-.1.1-.1.1-.2-.1.1-.1-.1-.2-.2.1-.3 0-.6-.1-.8h.1c-.2-.2 0-.5 0-.8 0 0 .1-.1.1-.2-.2-.2-.1-.2-.3-.5 0-.2 0-.4.1-.6-.2-.6-.1-1.3-.2-1.9h.1c-.3-.6 0-1.4-.1-2h.2c.1-.2 0-.4-.2-.3.1-.2-.1-.4.1-.5 0-.2-.1-.2-.1-.4.1-.4.1-.5 0-.8v.1h.1c-.1-.1 0-.5-.2-.3.1-.1 0-.9 0-1.3.2-.1.3-.2.5-.2-.1 0 0-.1 0-.2.1-.1.3-.1.4-.2.1 0 .1-.1.2-.1.1-.1.3-.1.3-.2.1 0 0 .1.1.1v-.1c.4-.4.9-.4 1.3-.6.6-.5 1.4-.9 2-1.3.1-.3.6-.1.7-.5.1 0 .2-.1.2 0 .1-.1.2-.1.3-.2.2-.1.5-.2.7-.4 0 0-.1 0-.1.1.4-.1.9-.5 1.3-.7l-.2.2c.1 0 .5-.5.5-.2.1-.1.2-.2.1-.2.2-.1.3-.2.5-.3l.1 2.9c0 .3-.1.3-.1.3h-.1c-.1 0-.1 0 0 .2s-.3.2-.1.4c.1 0 .1.1.2.1-.1.3-.2.4-.1.6h-.1c.2.3.1.6.4.9l.2 4.7c0 1.5.1 3.1-.1 4.6-.2.4-.2.4-.1.8h-.1c.2 0 0 .3.2.3v1.7c0-.1-.1-.1-.1 0 0 0 .1.1.1.2s.1.3.2.2v.9l-.9.5-.3.2-.2.1-.9.4-1.8.9c-.3.1-.7.4-1 .6-1.1.4-2 .7-3 1.4.6.2.5-.2.9-.5z"/><path d="M40.3 32.4c.1 0 .1-.2.2-.1 0 0-.1.1-.2.1zm.9-3.5s0-.1 0 0zm0-.9c.1 0 .1.2.1.3l-.1-.3zm.3-.8c.1-.1.1-.1 0 0zm-.1-.1c0-.1 0-.1.1-.1-.1 0 0 .1-.1.1zm.2-1.8s-.1-.1 0-.2c-.1.1.1.2 0 .2zm-.1-.8c0-.1 0-.1 0 0 0-.2.1-.1 0 0zm5.1-11.6zm.9 3.4c0 .1-.1 0 0 0-.1 0 0 .1 0 0zm.3 3.6h.2z"/></g><path d="M33.2 11.5l7.4-4.3 7.4 4.3-7.4 4.3z" class="E"/><g class="F"><path d="M33.2 11.2c-.1.1.1.1 0 0-.1.1-.1 0 0 0zm.3.7c.5-.1.8.5 1.3.5 0 0-.1.2 0 .2.5 0 1 .5 1.4.9h-.1c.1.1.3 0 .3 0s-.1 0-.1.1c.1-.1.2 0 .3 0v.2l.1-.1c.3-.2.3.2.6.2 0 0-.1 0-.1.1.4 0 .8.3 1.2.4 0 0-.1.1-.1.2.1-.1.2-.1.3 0 0 .1.2 0 .3.1.2-.1.1.1.2 0v.1c.1-.2.1.2.2.1.1 0 .1.1.1.1.2 0 .2.2.3 0 0 .1-.2 0-.2.2.4.1.7.2.9.4l.4-.2c.1 0 .1 0 .2.1 0 0 .2-.1.2-.2h.1c.1 0 0-.2.1-.2v.1c0-.1.1-.2.2-.3v.1c0-.2.2-.1.3-.2v.1c.2 0 0-.2.1-.2v.1c0-.2.3-.3.3-.4.1-.1.3-.1.4-.3.1 0 .1.2.2.1-.1-.2.2-.2 0-.3a.76.76 0 0 0 .4-.2c0 .1.2.2.1.2l.1.1c0 .1-.1 0 0 .1 0 0 .1-.2.2-.2 0-.1 0-.4.1-.5 0 .1.1.2.1.2v-.4s.1.1.1 0v-.1s.2-.1.3 0c.1 0-.1.1 0 .1s.1-.1.1-.2c.1 0 .1-.2 0-.2 0 0 .1.1 0 .1 0-.1.1-.2.2-.3v.1c0-.2.1-.3.3-.4 0-.1 0 .2 0 .1.2 0 .3-.4.5-.3l-.1-.1c.1 0 .1.1.2 0 0 .1 0-.1.1-.1 0-.1 0 0 0 .1l.2-.2s.1-.1.2-.1l-.1-.1.1.1h.2c-.1-.1-.1.2-.1.1.1 0-.1-.2.1-.1 0 0-.1-.1.1-.1 0 0 .1.1.2.1v-.1c-.1 0 .1 0-.1-.1.1 0 0-.1.3 0h.2s-.2-.1-.3-.1h.1c-.4 0 .1 0-.2-.1h.3c-.2 0-.3 0-.3-.1h.1c.1 0 0 0-.1 0 .1 0 .1-.1.2-.1-.1 0-.3 0-.4.1.2-.1-.3 0-.1-.1 0 0 .2 0 .2-.1.2-.1-.3 0-.2-.1l-.1.1c.1-.1-.2 0 0-.1-.1 0 0-.1-.1.1v-.1s-.1-.1-.2-.1c-.1-.1-.2-.1-.2-.3 0 0-.1-.1-.1 0s.1 0 .1 0h-.1c0-.1-.1-.1 0-.2-.1-.2-.3.2-.4 0v-.1h-.2c-.1-.1 0-.2.1-.3-.1 0-.1-.1-.2 0v-.2c0 .1-.1 0-.1 0l-.1-.1v.2h-.2c.1-.1 0-.1-.1-.2 0 0-.1.1-.1 0s-.1-.1 0-.1c0 0 0 .1.1 0 0-.1 0-.1-.1-.1s-.1.2-.2.1c0 0 .1 0 .1-.1l-.1-.1-.1.1c-.1.1-.2-.1-.3 0-.1 0-.1-.1-.1-.2s-.1-.1-.2-.1h-.2c0-.1.2-.4 0-.3-.1 0-.2.1-.2.2-.1-.1-.4-.1-.4-.3 0 0 0 .1-.1.1-.2-.2-.5-.1-.6-.4.1 0 .1-.1.1-.1-.1.1 0-.1-.1 0 0 .1-.1.1 0 .2-.1 0-.4-.1-.4-.3 0 .1 0 .1-.1.1.1-.1 0-.2-.1-.2l-.1.1v-.1s-.1.2-.2 0V8c-.1 0-.3.1-.3 0v-.2s-.1 0-.1.1c-.1-.1-.2-.2-.1-.3-.2.1-.2.2-.3.2H40v-.1.1c0-.1-.1-.1-.1-.2-.1 0 0 .1 0 .2s0-.1.1 0c0 0-.2 0-.1.1 0 0-.1-.1-.1-.2v.1c-.2-.1 0-.4-.2-.5-.1-.1.1-.2-.1-.2 0 .1 0 .3.1.3-.1.1.1.3 0 .4-.1 0 .1-.1 0-.2s-.1.1-.2.1c.1 0 .1.2.1.2-.1 0 0-.1-.1-.1 0 .1 0 .2.1.2.1.2-.1 0-.1.2-.1-.1 0-.3-.2-.3.1.1 0 .2.1.4-.1 0-.1-.1-.1-.2-.1 0 0 .3-.2.1v.1s-.1 0-.1-.1c-.1 0-.1.3-.2.1 0 0-.1.1 0 .2.1 0 0-.1.2 0-.1-.1-.1.1-.1.1v-.1l-.1.1s0-.1-.1-.1v.1c-.1.1-.1-.2-.2-.1v-.1h-.1c0 .1.1.2.1.3s-.1-.1-.1 0v-.2s-.1-.1-.2-.1c0 .1 0 .2.1.3 0 0-.1 0-.1-.1-.1.1.1.1 0 .2-.1 0-.2-.1-.3-.1v-.2h-.1c0-.2-.1-.1-.1-.2l-.1.1c.2.1 0 .4.2.5-.1.1-.4-.4-.4 0 0 0 .1.2.1.1-.1 0 0 .2-.1.2 0-.1-.2-.1-.1-.3 0 .1.1 0 .1 0-.1 0-.1-.2-.2-.1 0 0-.1.1-.1.2.1.1.1-.1.1.1-.1.1-.2 0-.1.2.1-.1.1 0 .2.1l-.1.1v-.1c-.2 0 0 .2-.1.2l-.1-.1c0-.1.2-.1.1-.3-.1 0-.1.2-.2.2v-.1s-.2-.2-.3 0c0 .1 0 .1.1.2-.1.1-.1.2-.2.3-.1-.2-.2.1-.1-.1.1.1.3-.1.3-.2-.1-.1.1 0 0-.2-.1.1-.2-.1-.3-.2v.1c0 .1.1.1.1.2-.1 0-.2.2-.2.3-.1 0-.1-.1-.1-.2-.1.1-.3.2-.5.2.2.1-.1.1 0 .2.1 0 .2.1.2.2 0 0 0-.1-.1-.1 0 .1-.2-.1-.1.1.1-.1-.1-.2-.1-.4 0 .1 0-.1-.1 0a.76.76 0 0 1-.2.4c-.2 0-.4.2-.5.3-.1 0-.1-.2-.2-.2s.2.1 0 .1c0 .1-.3 0-.2.3l-.1-.2v.1l-.1-.1c-.1-.1-.1.1-.2.2l.1.1c-.1.2-.2.1-.4.2v-.1.1c0-.1-.1-.1-.1 0l.1-.4c.1 0 0 .1.1.2s.2 0 .1-.1l-.1.1c-.1-.1 0-.2 0-.3h-.1c0-.1 0-.1.1-.2 0 .1.1.1.1.1-.1-.1 0-.2.1-.2.1.1.1-.2.3-.2v.4h.2c0-.1-.1-.3 0-.4l.1.1c.1-.1 0-.2.1-.3l.6-.3.1.1c0-.2.2-.2.3-.4.2 0 .4-.3.5-.2.3-.3.5-.5.9-.6v.2c0-.1.1 0 .1 0-.1-.1 0-.2 0-.3.2 0 .3-.2.4-.4l.1.1c0-.2.3-.2.5-.3 0 0 .1.1.2 0 0-.2.1-.2.1-.4.1-.1.3-.1.4-.1.3-.4.7-.5 1-.8l.1.1c.2-.2.5-.4.8-.6.4.2.8.5 1 .5l-.1.2c.1.1.3.1.3-.1.1.1.3.1.3.2.1.1.2 0 .3 0 .2.2.3.2.5.3 0 0-.1.1 0 .1s.2.2.3 0c.1.2.5.2.6.5 0-.1.1 0 .1-.1.2.1.3.3.5.3 0 0-.1.1 0 .1s0-.1.1-.1c.4.1.5.5.8.6.5.2 1 .5 1.4.7.1 0 .2 0 .3.1s.2.2.4.1c0 .1.2.2.1.2.3 0 .4.4.9.5h-.1c.1.2.6.3.8.5H49c0 .1.6.1.3.2h.2c.1.1.2.1.3.2-.6.3-1 .7-1.5 1.1-.6.2-.4-.2-.6.1-.1 0 0 .1 0 0-.1.1-.4-.1-.4.1.1.1 0 .1 0 .2-.3.1-.4 0-.5.1v-.1c-.1.3-.3.3-.3.6l-2.6 1.8-1.1.6-.6.3-1.1.6c-.3-.2-.6-.4-.9-.5-.2-.2-.2-.3-.2-.3s-.1-.1-.3-.1v-.1c-.1.1-.2-.1-.3 0l-1-.6c.1 0 .2-.1.1-.1h-.1c-.1 0-.1 0-.1.1-.9-.4-1.6-1.2-2.5-1.6-.2-.2-.5-.3-.7-.4-.5-.6-1-1.1-1.8-1.3-.4.8-.1.5.2.6z"/><path d="M33.3 11.1c.1.1.2 0 .2.2-.1 0-.2-.1-.2-.2zm2.5-.4c-.1 0 0 0 0 0s0 .1 0 0c0 .1 0 0 0 0zm.5-.3c0 .1 0 .2-.1.2l.1-.2zm.6 0c.1 0 .1.1 0 .1v-.1z"/><path d="M36.9 10.3h.1c0-.1-.1.1-.1 0zm1.1-.5s0-.1.1 0c0 0 0 .1-.1 0zm.5-.3c.1-.1 0 0 0 0zm7.9 1.7h-.1.1zM45 12.6c-.1.1-.1 0 0 0-.1 0-.1.1 0 0zm-1.9 1.6v-.1l.1.2z"/></g></svg>