<svg xmlns="http://www.w3.org/2000/svg" viewBox="0 0 96.5 62.2"><style><![CDATA[.E{fill:#fff}.F{fill:#202020}]]></style><path d="M6.4 18.5l27 15.6V23.8L6.4 8.1z" class="E"/><g class="F"><path d="M6.7 18.3c-.3-.1.1.2-.2 0h.2z"/><path d="M6.6 17.5c-.4-1 0-2.3-.2-3.4 0-.1.2 0 .2-.3-.3-1-.1-2.7.1-3.9l.1.1c0-.2-.2-.5-.1-.7l.1.1c-.1-.1 0-.4-.1-.6 0 0 .1.1.2.1l-.1-.3c0-.1-.1-.2-.1-.3.1-.1.3.1.5.3s.4.3.6.3c0 0-.1 0 0 .1.8.2 1.8.9 2.7 1.3-.1 0-.1.1-.1.2.1-.1.4 0 .7.1 0 .2.5.1.7.3.3 0 .3.3.5.2l.1.2c.2-.1.2.3.5.3.2 0 .2.2.4.2.4.2.5.4.6.2.1.2-.4-.1-.3.1 1.2.5 2.3 1.2 3.5 1.8.1.1.2.2.2.3.1 0 .4.2.6.2 0 0 0 .1.1.2.2.2.3 0 .5.2-.1 0-.2 0-.2.1.3 0 .5.2.8.3H19c.3 0 .4.3.7.3h-.1c.3.3.2-.1.5.1H20c.4 0 .8.3 1.1.4.3.2.6.4 1 .5.1.1-.2.2.2.3.1-.2.6.3.5 0 .3.2.7.5.9.5-.2 0 0 .3-.2.2l.1.2c-.1 0-.2-.1-.2 0 .1.1.5.2.6.3.3 0 .6 0 .9.1-.2 0 0 .2-.1.2h.7c.1.1 0 .1.1.2h.2s.5.2.5.4c0 .1-.2-.1-.1 0 .2.1.3.1.5.2.1.1.5.2.3 0-.1-.1 0 .1-.1 0 .2 0 .4.1.6.2-.1 0-.1 0-.2.1.4 0 .7.2 1 .3 0-.1-.2.1-.2 0 .3.3.9.3 1.2.7-.1 0 0-.1 0-.1.2.1.1.2.3.3 0 .1.2.1.3.1s0 0-.1 0c.2 0 1 .4 1.4.7a1.34 1.34 0 0 0 .5.1l-.1.1c.1.1.3.2.3.3.3 0-.9-.4-.5-.3 0 .1.5.1.3.2.2.1.5.1.6.3 0 0-.2 0-.1.1.3.1.1 0 .3.1h.2c.1-.1.2.2.2 0 0 .1.4.2.3.3l-.1.1c.1.1.3 0 .4 0v.1c.1-.1.1 0 .2 0l.1.1c.1 0 .2.1.2.1.2.1.4.3.6.4 0 .3 0 .5-.1.6.1.4.2.5.1.8 0 0 0-.1-.1-.1-.1.2 0 .2 0 .3 0 0-.1.3-.2.5.1.2.2.2.3.2-.2.2.1.6-.1.9 0-.1-.1-.3-.2-.1-.2.2.2.4.1.7l.2-.1c-.1.2.1.5-.1.5.1.1-.1.4.1.3-.2.5.1 1.3-.2 1.7 0 .1 0 .3.1.2s-.1-.2 0-.2c0 .1 0 .1.1.1 0 .2 0 .3-.2.1-.1.4.3.4.2.9-.1 0-.1 0-.1.2l.1.3c0 .3-.2.2-.3.2 0 .2 0 .4.1.4l-.2.2c.1-.2.1.1.1.2v-.1.4c.1 0 .1-.3.1-.4v.2c0 .1 0 .2.1.3-.1-.1-.1.4-.1.6s.1.3.1.4c-.1 0 0 .4-.1.1 0-.1.1-.1 0-.3 0 .1-.2 0-.1.4.1.3.2.2.2.5 0-.2-.1-.2-.1-.4l-.1.3.1.2c.1.3 0 .6.1.9-.2-.1-.5-.4-.7-.5-.3-.2-.5-.3-.7-.3-.1-.1-.4-.2-.5-.2-.3-.3 0-.5-.4-.5-.3-.2-.5 0-.4.1-.3-.3-.8-.3-1-.7h-.2c-.5-.3-1.2-.5-1.5-1 .2 0 .1-.1.1-.2-.2 0-.1-.2-.2 0 0 .1-.1.1 0 .3-.3-.1-.8-.4-.9-.6.1.1 0 .1-.1.1.1-.1-.1-.3-.3-.3l-.1.1-.1-.2c-.1 0-.2.1-.3 0v-.1a1.08 1.08 0 0 1-.7-.3l-.1-.2c-.1 0-.3 0-.2.1-.3-.3-.5-.4-.5-.6-.7-.1-1.5-.5-2.2-.9h.1c-.1-.2-.2.1-.3-.1.1 0-.1-.2.1-.2-.2-.2-.4-.1-.6-.2-.1.1.2 0 .1.1 0 0-.3-.3-.4-.2 0-.1.1-.2.1-.2h-.2c-.1-.3.6 0 .5-.3l-.2-.1c-.1-.2.5.1.1-.2-.2 0-.4.1-.3.2-.3-.2-.3.2-.7 0 0-.1.3.1.3 0-.1-.2-.4-.1-.5-.3.1.1-.1.2-.2.2-.1-.2.2 0-.1-.2-.1 0-.3 0-.2.1-.2.1-.2-.2-.5-.2 0-.2.4-.1.2-.3 0 .1-.4 0-.4.2-.1-.1 0-.2.1-.2-.1-.2-.5 0-.4-.3l-.1.1c0-.1-.1-.1-.1-.2-.1-.1-.5-.1-.4-.3 0 0-.4-.2-.3 0 .2.2.3 0 .3.3-.1-.2-.3-.1-.4-.2v-.1c-.1 0-.2-.1-.3-.1.1 0 .1-.1 0-.1l-.1.1c-.3-.1 0-.2-.2-.3h.3s-.1-.2-.2-.2c-.1.1-.3.1-.3.2-.2 0 0-.1-.2-.1h.3s0-.2-.2-.3c-.2 0-.4 0-.3.2-.1-.1-.2-.2-.1-.2-.2-.1 0 .1-.3.1 0-.1-.2-.3-.3-.5h.3l-.1-.1c.3 0 0-.2.1-.2-.1-.1-.2-.1-.3-.1.2.4-.5.1-.5.3-.4-.2 0-.6-.5-.5 0 .1-.2.1 0 .2-.2-.2-.3.1-.5-.1.3 0-.1-.3.3-.3-.1 0 .1.1.2.2 0-.1.1-.2-.1-.3s-.3-.2-.4-.1.2.1.1.2c-.3-.1-.3-.3-.5-.2.2.1.2.2.1.3l-.2-.1h.1c-.3-.3-.2.1-.5-.1l-.1-.2c.2-.1.4.3.5.1-.2-.1-.3-.1-.5-.2h.2c-.1 0 0-.4-.4-.4-.2 0-.1 0-.1.1-.3-.2-.5-.2-.7-.3.1-.1-.4-.2 0-.3.1.2.6.4.8.4 0-.3.3.2.4 0-.3-.2-.2-.3-.1-.5h-.2c-.1.1 0 .1 0 .3-.3-.2-.6-.3-.8-.3-.1-.1 0-.2.2-.1-.4-.2-.8-.4-1.1-.7.1.3-.4-.2-.3 0 .2.2.3.4.1.4-.1-.1 0-.1 0-.1-.2 0-.1-.3-.4-.2.4.1.2-.2.3-.3-.3-.1.1-.1-.2-.2l-.9-.3c-.3-.3-.8-.5-1.1-.7-.1-.2.1-.3-.1-.4s0 .3-.2 0c-.1 0-.5-.4-.7-.2l.2-.1h-.2c0-.1 0-.1.1-.1-.1-.2-.4-.2-.6-.3l.1.2c-.4-.1-.5-.3-.9-.5l.1-.1H8c.1-.1 0-.2-.2-.2l.6.1c.1.1-.2 0-.2.2 0 .1.3.3.5.2-.1-.1-.1-.1-.2-.1 0-.2.2 0 .3-.1-.1 0-.1-.1-.2-.1.2 0 .3.1.5.2-.2 0 0 .1 0 .1.1-.1.3 0 .5.1.1.2.5.2.8.4-.2 0-.4.1-.6 0 .1.2.2.1.3.3.1 0 .3-.1.5-.1v.1c.2.1.3 0 .6.1a9.13 9.13 0 0 0 1.3.8v.1c.3-.1.7.3 1 .4.4.3 1 .5 1.2.8l2.3 1.2h-.2c.2 0 0 .1.2.2-.1-.2.3 0 .4 0 .3.3.8.5 1.2.6v.1c.4 0 .7.4 1.1.7 0 .1 0 .2.2.3.3 0 .4.1.8.2.2.1.6.4.8.6 1 .3 1.8 1 2.8 1.4v.1c1 .3 2 1.1 2.8 1.5l-.2.1c.2.2.6.3.6.1.2.2.7.3.7.5.2.2.3.1.6.2l1.1.7-.1-.1c-.1 0-.1.1 0 .2.2 0 .6.4.6.1.4.4 1.2.6 1.6 1 0-.1.1 0 .2 0 .2.1.4.3.6.4.1.1.2.1.3.2h.1s-.1.1 0 .1v-.1c.1 0 .1 0 .3.2 0 0 .1-.1.1-.2v-3.4c-.2-.4.2-1-.1-1.3 0-.1 0-.4.1-.3-.1-.3.1-.9 0-1.4v.1c.1-.5 0-.9.1-1.4 0 0 0 .2.1.2.1-.2-.2-.5 0-.6h-.1V25c-.1-.1-.1-.1-.3-.2s-.4-.2-.7-.3c-.4-.2-.9-.4-1.3-.7-.7-.5.2-.4-.5-.5 0-.1-.1.1-.1 0-.3-.1-.2-.4-.4-.4 0 .2-.1 0-.2.1-.4-.3-.4-.5-.8-.6h.1c-.5 0-.9-.4-1.4-.4l-6.8-3.7-6.5-3.8c-.4-.5-.5-.5-1.1-.8h.1c-.1.1-.4-.2-.5-.1l-2.4-1.4c.1.1.3 0 .1-.1h-.2c-.1 0-.3 0-.2.1l-1.9-1-.2-.1s0-.1-.1-.1l-.1.1v1.2c-.1.6 0 1.4 0 2-.2 1.8-.4 3.5-.2 5.4-1-1.2-1.4-1.5-1.5-2.2z"/><path d="M7 18.5c0 .1.2.3 0 .3v-.3zm4.5 3.6s.1.1 0 0c0 .1-.1.1 0 0zm1.3.8c-.1 0-.3 0-.5-.1l.5.1zm1 .9c.1.1 0 .1 0 0-.1 0-.1 0 0 0zm.2-.1l.2.2c-.1-.1-.3-.1-.2-.2zm2.4 1.7c.1 0 .2 0 .2.2 0-.2-.3-.2-.2-.2zm1.3.6c.1.1 0 .1 0 0zm16.3.9v.1zm-7-7.5c-.2 0-.1-.1 0 0 0-.1-.2-.1 0 0zm-5.3-2.7v.1l-.1.1z"/></g><path d="M6.4 8.1l27 15.7 9-5.2L15.3 2.9z" class="E"/><g class="F"><path d="M6.7 8c-.3-.1.1.2-.2 0 0-.1.1-.1.2 0zm.6-.2c.7-.8 2-1.1 2.8-1.9.1-.1.1.2.3 0 .8-.8 2.3-1.4 3.5-1.9v.1c.2-.1.4-.4.6-.5v.1c0-.1.4-.3.4-.4.1 0 .1.1.2.1 0-.1 0-.1.1-.2l.1-.1c.3 0 .7.5 1.2.6 0 0-.1 0-.1.1.9.3 1.8.9 2.7 1.3-.1 0-.1.1-.1.1.1-.1.4 0 .7.1 0 .2.5.1.7.3.3 0 .3.2.5.2l.1.2c.2-.1.2.3.5.3.2 0 .2.2.4.2.4.2.5.4.6.2.1.2-.4-.1-.3.1 1.2.5 2.3 1.2 3.5 1.8.1.1.2.2.2.3.1 0 .4.2.6.2 0 0 0 .1.1.2.2.2.3 0 .5.2-.1 0-.2 0-.2.1.3 0 .5.2.8.3h-.1c.3 0 .4.3.7.3h-.1c.3.3.2-.1.5.1h-.1c.4 0 .8.3 1.1.4.3.2.6.4 1 .5.1.1-.2.2.2.3.1-.2.6.3.5 0 .3.2.7.5.9.5-.2 0 0 .3-.2.2l.1.2c-.1 0-.2-.1-.2 0 .1.1.5.2.6.3.3 0 .6 0 .9.1-.2 0 0 .2-.1.2h.7c.1.1 0 .1.1.2h.2s.5.2.5.4c0 .1-.2-.1-.1 0 .2.1.3.1.5.2.1.1.5.2.3 0-.1-.1 0 .1-.1 0 .2 0 .4.1.6.2-.1 0-.1 0-.2.1.4 0 .7.2 1 .3 0-.1-.2.1-.2 0 .3.3.9.3 1.2.7-.1 0 0-.1 0-.1.2.1.1.2.3.3 0 .1.2.1.3.1s0 0-.1 0c.2 0 1 .4 1.4.7a1.34 1.34 0 0 0 .5.1l-.1.1c.1.1.3.2.3.3.3 0-.9-.4-.5-.3 0 .1.5.1.3.2.2.1.5.1.6.3 0 0-.2 0-.1.1.3.1.1 0 .3.1h.2c0-.1.3.2.3 0 0 .1.7.3.5.4l-.2.1c.2.1.4.1.6.1v.1c.3-.1.4.3.9.3.1.1.4.3.6.4-.3.1-.5.3-.7.3-.2.2-.3.4-.8.5l.1-.1c-.3.1-.3.1-.4.3 0 0-.5.2-.8.2-.2.2 0 .2 0 .3-.3-.1-.5.4-.8.4 0-.1.2-.3 0-.2-.3-.1-.3.3-.6.4l.2.1c-.2 0-.4.3-.4.2-.1.1-.4.1-.3.3-.5.1-1.1.7-1.5.6 0 .1-.2.1-.2.2.2 0 .1-.2.2-.1-.1 0 0 .1 0 .1-.2 0-.3.1-.2-.1-.4.1-.2.5-.6.6 0-.1-.1-.1-.2 0l-.2.2c-.3.1-.2-.1-.3-.2-.1.1-.3.2-.3.3h-.3c.2 0-.1.1-.1.2v-.1s-.2.1-.3.2c.1.1.2 0 .3 0 0 .1-.2.1-.2.3 0-.1-.3.1-.4.1s-.1.2-.1.2-.2.1-.2 0c0 0 .1 0 .2-.1-.1 0-.2-.1-.3.1-.1.1.2.2-.1.3.1-.1 0-.1.1-.2-.1 0-.2.1-.3.1v.1h-.1c-.1.2-.4.3-.6.5-.2-.1-.4-.3-.6-.4-.2-.2-.4-.3-.6-.3-.1 0-.3-.1-.4-.1-.2-.2.1-.4-.1-.4-.2-.1-.4 0-.4.1-.3-.3-.8-.3-1-.7h-.2c-.5-.3-1.2-.5-1.5-1 .2 0 .1-.1.1-.2-.2 0-.1-.2-.2 0 0 .1-.1.1 0 .3-.3-.1-.8-.4-.9-.6.1.1 0 .1-.1.1.1-.1-.1-.3-.3-.3l-.1.1-.1-.2c-.1 0-.2.1-.3 0v-.1a1.08 1.08 0 0 1-.7-.3l-.1-.2c-.1 0-.3 0-.2.1-.3-.3-.5-.4-.5-.6-.7-.1-1.5-.5-2.2-.9h.1c-.1-.2-.2.1-.3-.1.1 0-.1-.2.1-.2-.2-.2-.4-.1-.6-.2-.1.1.2 0 .1.1 0 0-.3-.3-.4-.2 0-.1.1-.2.1-.2h-.2c-.1-.3.6 0 .5-.3l-.2-.1c-.1-.2.5.1.1-.2-.2 0-.4.1-.3.2-.3-.2-.3.2-.7 0 0-.1.3.1.3 0-.1-.2-.4-.1-.5-.3.1.1-.1.2-.2.2-.1-.2.2 0-.1-.2-.1 0-.3 0-.2.1-.2.1-.2-.2-.5-.2 0-.2.4-.1.2-.3 0 .1-.4 0-.4.2-.1-.1 0-.2.1-.2-.1-.2-.5 0-.4-.3l-.1.1c0-.1-.1-.1-.1-.2-.1-.1-.5-.1-.4-.3 0 0-.4-.2-.3 0 .2.2.3 0 .3.3-.1-.2-.3-.1-.4-.2v-.1c-.1 0-.2-.1-.3-.1.1 0 .1-.1 0-.1l-.1.1c-.3-.1 0-.2-.2-.3h.3s-.1-.2-.2-.2c-.1.1-.3.1-.3.2-.2 0 0-.1-.2-.1h.3s0-.2-.2-.3c-.2 0-.4 0-.3.2-.1-.1-.2-.2-.1-.2-.2-.1 0 .1-.3.1 0-.1-.2-.3-.3-.5h.3l-.1-.1c.3 0 0-.2.1-.2-.1-.1-.2-.1-.3-.1.2.4-.5.1-.5.3-.4-.2 0-.6-.5-.5 0 .1-.2.1 0 .2-.2-.2-.3.1-.5-.1.3 0-.1-.3.3-.3-.1 0 .1.1.2.2 0-.1.1-.2-.1-.3s-.3-.2-.4-.1.2.1.1.2c-.3-.1-.3-.3-.5-.2.2.1.2.2.1.3l-.2-.1h.1c-.3-.3-.2.1-.5-.1l-.1-.2c.2-.1.4.3.5.1-.2-.1-.3-.1-.5-.2h.2c-.1 0 0-.4-.4-.4-.2 0-.1 0-.1.1-.3-.2-.5-.2-.7-.3.1-.1-.4-.2 0-.3.1.2.6.4.8.4 0-.3.3.2.4 0-.3-.2-.2-.3-.1-.5-.1 0-.2 0-.2-.1-.1.1 0 .1 0 .3-.3-.2-.6-.3-.8-.3-.1-.1 0-.2.2-.1-.4-.2-.8-.4-1.1-.7.1.3-.4-.2-.3 0 .2.2.3.4.1.4-.1-.1 0-.1 0-.1-.2 0-.1-.3-.4-.2.4.1.2-.2.3-.3-.3-.1.1-.1-.2-.2l-.9-.3c-.3-.3-.8-.5-1.1-.7-.1-.2.1-.3-.1-.4s0 .3-.2 0c-.1 0-.5-.4-.7-.2l.2-.1h-.2c0-.1 0-.1.1-.1-.1-.2-.4-.2-.6-.3l.1.2c-.4-.1-.5-.3-.9-.5l.1-.1h-.2c.1-.1 0-.2-.2-.2l.6.1c.1.1-.2 0-.2.2 0 .1.3.3.5.2-.1-.1-.1-.1-.2-.1 0-.2.2 0 .3-.1-.1 0-.1-.1-.2-.1.2 0 .3.1.5.2-.2 0 0 .1 0 .1.1-.1.3 0 .5.1.1.2.5.2.8.4-.2 0-.4.1-.6 0 .1.2.2.1.3.3.1 0 .3-.1.5-.1v.1c.2.1.3 0 .6.1a9.13 9.13 0 0 0 1.3.8v.1c.3-.1.7.3 1 .4.4.3 1 .5 1.2.8l2.3 1.2h-.2c.2 0 0 .1.2.2-.1-.2.3 0 .4 0 .3.3.8.5 1.2.6v.1c.4 0 .7.4 1.1.7 0 .1 0 .2.2.3.3 0 .4.1.8.2.2.1.6.4.8.6 1 .3 1.8 1 2.8 1.4v.1c1 .3 2 1.1 2.8 1.5l-.2.1c.2.2.6.3.6.1.2.2.7.3.7.5.2.2.3.1.6.2l1.1.7-.1-.1c-.1 0-.1.1 0 .2.2 0 .6.4.6.1.4.4 1.2.6 1.6 1 0-.1.1 0 .2 0 .4.3.8.6 1.2.7 0 .1-.2 0 0 .1.1 0 0-.1.2 0l.6.3c.1 0 .1.1.1.1h.1a.76.76 0 0 0 .4-.2c1.1-.8 2.3-1.4 3.4-2 .3-.4 1-.3 1.1-.7.1 0 .3-.2.3 0 .2-.3.9-.4 1.2-.8 0 0-.1 0-.1.1.1 0 .2-.1.3-.1.1-.1.2-.1.2-.1.1 0 .1-.1.2-.1v.1c.2 0-.1-.2.3-.1h-.2c.1 0 .2-.1.2-.1-.3-.2-.4-.1-1.5-.7-.7-.5.2-.4-.5-.5 0-.1-.1.1-.1 0-.3-.1-.2-.4-.4-.4 0 .2-.1 0-.2.1-.4-.3-.4-.5-.8-.6h.1c-.5 0-.9-.4-1.4-.4L30 13l-6.5-3.8c-.4-.5-.5-.5-1.1-.8h.1c-.1.1-.4-.2-.5-.1l-2.4-1.4c.1.1.3 0 .1-.1h-.2c-.1 0-.3 0-.2.1l-1.9-1-.9-.6-.2-.1c-.1 0-.2-.1-.2-.1l-.1.1-.7.4-1.3.7c-.5.2-1.2.7-1.7 1-1.7.7-3.2 1.4-4.8 2.5-.8-1.1-.8-1.6-.2-2z"/><path d="M7 8.1c0 .1.2.3 0 .3v-.3zm4.5 3.6s.1.1 0 0c0 .1-.1.1 0 0 0 .1 0 .1 0 0zm1.3.8c-.1 0-.3 0-.5-.1l.5.1zm1 1c.1.1 0 .1 0 0-.1 0-.1 0 0 0zm.2-.2l.2.2c-.1 0-.3-.1-.2-.2zm2.4 1.7c.1 0 .2 0 .2.2 0-.1-.3-.1-.2-.2zm1.3.6c.1.1 0 .1 0 0zm22.3 5l-.1.1-.1-.1zm-4.1-6.4c-.2 0-.1-.1 0 0 .1-.1-.1-.1 0 0zm-5.3-2.6h.1l-.1.1z"/></g><g fill="#878787"><path d="M38 16.2s-.1-.1 0 0zm-8.9 5c-.1-.4.3-.1.2-.4 0 0 .1.2.1.1 0-.3.2-.3.5-.2v.1-.3s.1.1.1.2v-.1c-.1-.3.1 0 .1-.2v.1c0-.2.1-.3.2-.4 0 0 .1.1.1.2-.1-.1 0-.2 0-.2.1.1 0-.1.1-.1 0-.2.1 0 0-.1l.1.1c-.1-.2.1.1.1 0h.1c0-.1.1 0 0-.1.1.1 0 .1.1.2a.78.78 0 0 1 .4-.4l.1.1v-.1s0 .1.1.1-.1-.2 0-.1c0 0 0 .1.1.1v-.1c0-.1.1 0 0-.1v.1c.1.1-.1-.2 0-.1v.1-.2s.1 0 .1-.1l.1.2c-.1-.2 0-.1-.1-.3h.1c0 .1.1.2.1.2l.1.1v.1-.1c0-.1-.1-.3-.1-.4 0 .1.1.2.1.2l-.1-.3.1.1v-.1s0-.1.1.1v.1-.1s0-.1-.1-.2c0 0 .1.1 0 .1v-.4c0-.1.1.2 0 .1.1.1 0-.2.2-.1 0 0-.1-.1 0-.1l.1.1c0 .1 0 0 0-.1s0-.2.1-.2c0 0-.1-.2 0-.2v.1h.1c0-.1 0 .2-.1 0 .1.1 0-.2 0 0 0 0 0-.1.1-.1 0 0 .1.2.1.1v-.2c0 .1 0-.1.1.1l.1.1s0-.2-.1-.2c-.1-.2 0 0 0-.2.1 0 .1 0 .2.1v-.1.1l.2.2c0-.1-.1-.2-.1-.2.1.2 0-.2.1 0 0 0 0 .1.1.2.1.2 0-.2 0-.1l-.1-.2c.1.1 0-.1.1 0 0-.1.1 0 0-.1.1.1.1-.2.3.1v-.1c-.1-.1 0 .1 0 0v-.1s.1 0 .1.2c.1.1-.1-.3 0-.3 0 .1 0 .1.1.1v-.1l.2.2v-.1l.1.1c-.1-.1 0-.1 0-.1 0-.1-.1-.1-.1-.1v-.1l.1.1v-.1l.1.1s.1.1.1 0-.1-.2 0-.2v.1h.1v-.3h.1V17c.1.1.2.4.2.2 0 0-.1-.2-.1-.3.1 0 0-.2.2 0v-.1c.1 0 .1-.2.2 0 0 0 0 .1.1.2 0-.1.1.1 0-.1 0-.1-.1-.1-.1-.2s.1-.1.1 0v-.1c.1.1.1.2.1.1v-.1l.1.1s-.1-.2 0-.1c0 0 0 .1.1.1v-.2l.1.1s0-.1-.1-.1c.1 0 .1 0 .2.1-.1-.3 0-.4.1-.4v.1c.1 0 0-.1 0-.1 0 .1.1.1.1.2.1 0 0-.1 0-.2s0 .1 0 0c0 0 .1 0 0-.1 0 0 .1.1.1.2v-.1c.1.1.1.3.2.5.1.1 0 .2.1.2 0-.1-.1-.3-.2-.3 0-.1-.2-.3-.1-.3v.1c.1.1 0-.1 0-.1l-.1-.2c.1 0 0 .1.1.1 0-.1 0-.2-.1-.2-.1-.2.1 0 0-.1.1.1.1.3.2.3-.1-.1 0-.2-.2-.3 0 0 .1.1.1.2.1.1-.1-.2.1 0l-.1-.1s0 .1.1.1c0 0 0-.2.1 0v-.2c-.1-.1 0 .1-.1 0 .1.1 0 0 0-.1v.1-.1s0 .1.1.1v-.1c0-.1.1.2.1.1v.1s.1.1.1 0-.1-.2-.1-.3c0 0 .1.1 0 0v.1l.1.1-.1-.2s.1 0 .1.1c0 0-.1-.1-.1-.2 0 .1.1.1.2.2l.1.2c0 .1.1.1.1.2v-.1c-.2-.2-.1-.3-.3-.5 0-.1.3.5.2.1 0 0-.1-.2-.1-.1 0 0-.1-.2 0-.1 0 .1.1.2.2.3 0-.1 0 0 0 0 0 .1.1.2.1.2v-.1l-.1-.1c0-.1.1.1 0-.1 0 0-.1-.1-.1-.2v-.1.1c.1 0-.1-.1 0-.1l.1.1c.1.1-.1 0 0 .2v-.1s.2.3.1.1c0-.1 0-.1-.1-.2v-.2c.1.2.1 0 .1.2-.1-.1-.1 0 0 .1.1.2 0 0 0 .2a1.44 1.44 0 0 0 .2.3V16c-.1-.1-.1-.1-.1-.2 0 0 .1-.1 0-.2l.1.2c0-.1.1-.1.2-.1-.1-.2 0-.1-.1-.2l-.2-.2s0 .1.1.1c0-.1.1.1 0 0 0 .1.1.2.2.4 0-.1 0 .1.1.1v-.2c.1.1.1-.1.1-.1.1.1.1.2.2.2 0 0-.1-.2 0-.1 0 0 .1.1 0-.2l.1.2.1.1c.1.1 0 0 .1-.1l-.1-.1c0-.1.1 0 .1-.1v.1-.1c0 .1.1.1.1.1l.1.3s0-.1-.1-.2-.1 0 0 .1v-.1c.1.1.1.1.1.2v.1c0-.1-.1-.1-.1-.1.1.1.1.2 0 .2-.1-.1 0 .1-.1.1 0-.1-.1-.2-.1-.3h-.1c0 .1.1.2.1.3v-.1c0 .1.1.2 0 .2h-.2v-.1c.1.2 0 .1 0 .2-.1 0-.1.2-.2 0-.1.1-.1.2-.2.3l-.1-.1c0 .1 0-.1-.1 0 .1.1 0 .2.1.2-.1-.1-.1.1-.1.2v-.1c0 .2-.1.1-.1.1l-.1-.1v.3h-.2c0 .3-.2.2-.2.4l-.1-.1c0 .3-.2.2-.3.3l-.1-.2c-.1 0 0 .1 0 .2-.1 0 0 .1-.1 0v.1c-.1 0-.1 0-.2.1l-.1-.1c0 .1-.1 0 0 .2-.1-.1-.1.2-.2 0v.1s-.2 0-.2.1c0 0 0-.1-.1-.1v.1c0 .2-.2 0-.3.1-.1.2-.3.2-.4.3 0 .2-.2-.1-.1.2l-.1-.1c0 .1-.2 0-.1.1-.1-.1-.1.1-.2 0v-.1c-.1-.1 0 .2-.1 0v.1c-.2 0-.2.2-.3.3-.2-.1-.2-.3-.2-.2 0 0 0 .1 0 0 0 .1-.2-.2-.1-.1s0 .1.1.2c-.1 0-.2-.2-.2 0V19c.1.2-.1.2 0 .4-.3.2-.5.5-.7.7-.3.1-.5.4-.8.4-.2-.1-.2-.1-.2 0v-.1c.1.1 0 0 0 .2-.1 0-.2.1-.3.2 0 0 0-.2-.1-.1v.1s0 .1.1.1c-.2.3-.6.1-.9.3-.1 0-.2.1-.2.2-.3-.1-.6-.1-.7.1.3.3.1-.1.1-.3z"/><path d="M38 16.3c0-.1-.1-.1-.1-.2 0 0 .1.1.1.2zm-1.1-.4c.1 0 0-.1 0 0 0-.1 0-.1 0 0 0-.1 0-.1 0 0zm-.1 0v-.2.2zm-.3-.2c-.1 0-.1 0 0 0z"/><path d="M36.5 15.9s0-.1 0 0zm-.4 0s0 .1 0 0c0 0 0-.1 0 0zm-.1.2s0-.1 0 0zm-2.5 1.8zm-1.2.7s0-.1 0 0c0-.1 0 0 0 0zm-.5.7v-.1l.1.2zm1.7-5.7s-.1-.1 0 0zm-8.9 5c-.1-.4.3-.1.2-.4 0 0 .1.2.1.1 0-.3.2-.3.5-.2v.1-.3s.1.1.1.2V18c-.1-.3.1 0 .1-.2v.1c0-.2.1-.3.2-.4 0 0 .1.1.1.2-.1-.1 0-.2 0-.2.1.1 0-.1.1-.1 0-.2.1 0 0-.1l.1.1c-.1-.2.1.1.1 0h.1c0-.1.1 0 0-.1.1.1 0 .1.1.2a.78.78 0 0 1 .4-.4l.1.1v-.1s0 .1.1.1-.1-.2 0-.1c0 0 0 .1.1.1v-.1c0-.1.1 0 0-.1v.1c.1.1-.1-.2 0-.1v.1-.2s.1 0 .1-.1l.1.2c-.1-.2 0-.1-.1-.3h.1c0 .1.1.2.1.2l.1.1v.1-.1c0-.1-.1-.3-.1-.4 0 .1.1.2.1.2l-.1-.3.1.1v-.1s0-.1.1.1v.1-.1s0-.1-.1-.2c0 0 .1.1 0 .1v-.4c0-.1.1.2 0 .1.1.1 0-.2.2-.1 0 0-.1-.1 0-.1l.1.1c0 .1 0 0 0-.1s0-.2.1-.2c0 0-.1-.2 0-.2v.1h.1c0-.1 0 .2-.1 0 .1.1 0-.2 0 0 0 0 0-.1.1-.1 0 0 .1.2.1.1v-.2c0 .1 0-.1.1.1l.1.1s0-.2-.1-.2c-.1-.2 0 0 0-.2.1 0 .1 0 .2.1v-.1.1l.2.2c0-.1-.1-.2-.1-.2.1.2 0-.2.1 0 0 0 0 .1.1.2.1.2 0-.2 0-.1l-.1-.2c.1.1 0-.1.1 0 0-.1.1 0 0-.1.1.1.1-.2.3.1v-.1c-.1-.1 0 .1 0 0v-.1s.1 0 .1.2c.1.1-.1-.3 0-.3 0 .1 0 .1.1.1V15l.2.2v-.1l.1.1c-.1-.1 0-.1 0-.1 0-.1-.1-.1-.1-.1v-.1l.1.1v-.1l.1.1s.1.1.1 0-.1-.2 0-.2v.1h.1v-.3h.1v-.2c.1.1.2.4.2.2 0 0-.1-.2-.1-.3.1 0 0-.2.2 0v-.1c.1 0 .1-.2.2 0 0 0 0 .1.1.2 0-.1.1.1 0-.1 0-.1-.1-.1-.1-.2s.1-.1.1 0V14c.1.1.1.2.1.1V14l.1.1s-.1-.2 0-.1c0 0 0 .1.1.1v-.2l.1.1s0-.1-.1-.1c.1 0 .1 0 .2.1-.1-.3 0-.4.1-.4v.1c.1 0 0-.1 0-.1 0 .1.1.1.1.2.1 0 0-.1 0-.2s0 .1 0 0c0 0 .1 0 0-.1 0 0 .1.1.1.2v-.1c.1.1.1.3.2.5.1.1 0 .2.1.2 0-.1-.1-.3-.2-.3 0-.1-.2-.3-.1-.3v.1c.1.1 0-.1 0-.1l-.1-.2c.1 0 0 .1.1.1 0-.1 0-.2-.1-.2-.1-.2.1 0 0-.1.1.1.1.3.2.3-.1-.1 0-.2-.2-.3 0 0 .1.1.1.2.1.1-.1-.2.1 0l-.1-.1s0 .1.1.1c0 0 0-.2.1 0v-.2c-.1-.1 0 .1-.1 0 .1.1 0 0 0-.1v.1-.1s0 .1.1.1v-.1c0-.1.1.2.1.1v.1s.1.1.1 0-.1-.2-.1-.3c0 0 .1.1 0 0v.1l.1.1-.1-.2s.1 0 .1.1c0 0-.1-.1-.1-.2 0 .1.1.1.2.2l.1.2c0 .1.1.1.1.2v-.1c-.2-.2-.1-.3-.3-.5 0-.1.3.5.2.1 0 0-.1-.2-.1-.1 0 0-.1-.2 0-.1 0 .1.1.2.2.3 0-.1 0 0 0 0 0 .1.1.2.1.2v-.1l-.1-.1c0-.1.1.1 0-.1 0 0-.1-.1-.1-.2v-.1.1c.1 0-.1-.1 0-.1l.1.1c.1.1-.1 0 0 .2V13s.2.3.1.1c0-.1 0-.1-.1-.2v-.2c.1.2.1 0 .1.2-.1-.1-.1 0 0 .1.1.2 0 0 0 .2a1.44 1.44 0 0 0 .2.3v-.1c-.1-.1-.1-.1-.1-.2 0 0 .1-.1 0-.2l.1.2c0-.1.1-.1.2-.1-.1-.2 0-.1-.1-.2l-.2-.2s0 .1.1.1c0-.1.1.1 0 0 0 .1.1.2.2.4 0-.1 0 .1.1.1v-.2c.1.1.1-.1.1-.1.1.1.1.2.2.2 0 0-.1-.2 0-.1 0 0 .1.1 0-.2l.1.2.1.1c.1.1 0 0 .1-.1l-.1-.1c0-.1.1 0 .1-.1v.1-.1c0 .1.1.1.1.1l.1.3s0-.1-.1-.2-.1 0 0 .1v-.1c.1.1.1.1.1.2v.1c0-.1-.1-.1-.1-.1.1.1.1.2 0 .2-.1-.1 0 .1-.1.1 0-.1-.1-.2-.1-.3H33c0 .1.1.2.1.3v-.1c0 .1.1.2 0 .2h-.2v-.1c.1.2 0 .1 0 .2-.1 0-.1.2-.2 0-.1.1-.1.2-.2.3l-.1-.1c0 .1 0-.1-.1 0 .1.1 0 .2.1.2-.1-.1-.1.1-.1.2v-.1c0 .2-.1.1-.1.1l-.1-.1v.3h-.2c0 .3-.2.2-.2.4l-.1-.1c0 .3-.2.2-.3.3l-.1-.2c-.1 0 0 .1 0 .2-.1 0 0 .1-.1 0v.1c-.1 0-.1 0-.2.1l-.1-.1c0 .1-.1 0 0 .2-.1-.1-.1.2-.2 0v.1s-.2 0-.2.1c0 0 0-.1-.1-.1v.1c0 .2-.2 0-.3.1-.1.2-.3.2-.4.3 0 .2-.2-.1-.1.2l-.1-.1c0 .1-.2 0-.1.1-.1-.1-.1.1-.2 0v-.1c-.1-.1 0 .2-.1 0v.1c-.2 0-.2.2-.3.3-.2-.1-.2-.3-.2-.2 0 0 0 .1 0 0 0 .1-.2-.2-.1-.1s0 .1.1.2c-.1 0-.2-.2-.2 0v-.1c.1.2-.1.2 0 .4-.3.2-.5.5-.7.7-.3.1-.5.4-.8.4-.2-.1-.2-.1-.2 0v-.1c.1.1 0 0 0 .2-.1 0-.2.1-.3.2 0 0 0-.2-.1-.1v.1s0 .1.1.1c-.2.3-.6.1-.9.3-.1 0-.2.1-.2.2-.3-.1-.6-.1-.7.1.3.2.1-.1.1-.3z"/><path d="M33.5 13.6c0-.1-.1-.1-.1-.2 0 .1 0 .2.1.2zm-1.1-.3s0-.1 0 0c0-.1 0-.1 0 0 0-.1 0-.1 0 0zm-.1 0v-.2.2zm-.3-.2c-.1 0-.1 0 0 0-.1 0-.1 0 0 0zm0 .2s0-.1 0 0zm-.4 0s0 .1 0 0c0 0-.1-.1 0 0zm-.1.2s0-.1 0 0zM29 15.3zm-1.2.7s-.1-.1 0 0c0-.1 0 0 0 0zm-.5.6l.1.2zM29 11s-.1-.1 0 0zm-8.9 5c-.1-.4.3-.1.2-.4 0 0 .1.2.1.1 0-.3.2-.3.5-.2v.1-.3s.1.1.1.2v-.1c-.1-.3.1 0 .1-.2v.1c0-.2.1-.3.2-.4 0 0 .1.1.1.2-.1-.1 0-.2 0-.2.1.1 0-.1.1-.1 0-.2.1 0 0-.1l.1.1c-.1-.2.1.1.1 0h.1c0-.1.1 0 0-.1.1.1 0 .1.1.2a.78.78 0 0 1 .4-.4l.1.1v-.1s0 .1.1.1-.1-.2 0-.1c0 0 0 .1.1.1v-.1c0-.1.1 0 0-.1v.1c.1.1-.1-.2 0-.1v.1-.2s.1 0 .1-.1l.1.2c-.1-.2 0-.1-.1-.3h.1c0 .1.1.2.1.2l.1.1v.1-.1c0-.1-.1-.3-.1-.4 0 .1.1.2.1.2l-.1-.3.1.1v-.1s0-.1.1.1v.1-.1s0-.1-.1-.2c0 0 .1.1 0 .1v-.4c0-.1.1.2 0 .1.1.1 0-.2.2-.1 0 0-.1-.1 0-.1l.1.1c0 .1 0 0 0-.1s0-.2.1-.2c0 0-.1-.2 0-.2v.1h.1c0-.1 0 .2-.1 0 .1.1 0-.2 0 0 0 0 0-.1.1-.1 0 0 .1.2.1.1v-.2c0 .1 0-.1.1.1l.1.1s0-.2-.1-.2c-.1-.2 0 0 0-.2.1 0 .1 0 .2.1v-.1.1l.2.2c0-.1-.1-.2-.1-.2.1.2 0-.2.1 0 0 0 0 .1.1.2.1.2 0-.2 0-.1l-.1-.2c.1.1 0-.1.1 0 0-.1.1 0 0-.1.1.1.1-.2.3.1v-.1c-.1-.1 0 .1 0 0v-.1s.1 0 .1.2c.1.1-.1-.3 0-.3 0 .1 0 .1.1.1v-.1l.2.2v-.1l.1.1c-.1-.1 0-.1 0-.1 0-.1-.1-.1-.1-.1v-.1l.1.1v-.1l.1.1s.1.1.1 0-.1-.2 0-.2v.1h.1V12h.1v-.2c.1.1.2.4.2.2 0 0-.1-.2-.1-.3.1 0 0-.2.2 0v-.1c.1 0 .1-.2.2 0 0 0 0 .1.1.2 0-.1.1.1 0-.1 0-.1-.1-.1-.1-.2s.1-.1.1 0v-.1c.1.1.1.2.1.1v-.1l.1.1s-.1-.2 0-.1c0 0 0 .1.1.1v-.2l.1.1s0-.1-.1-.1c.1 0 .1 0 .2.1-.1-.3 0-.4.1-.4v.1c.1 0 0-.1 0-.1 0 .1.1.1.1.2.1 0 0-.1 0-.2s0 .1 0 0c0 0 .1 0 0-.1 0 0 .1.1.1.2V11c.1.1.1.3.2.5.1.1 0 .2.1.2 0-.1-.1-.3-.2-.3 0-.1-.2-.3-.1-.3v.1c.1.1 0-.1 0-.1l-.1-.2c.1 0 0 .1.1.1 0-.1 0-.2-.1-.2-.1-.2.1 0 0-.1.1.1.1.3.2.3-.1-.1 0-.2-.2-.3 0 0 .1.1.1.2.1.1-.1-.2.1 0l-.1-.1s0 .1.1.1c0 0 0-.2.1 0v-.2c-.1-.1 0 .1-.1 0 .1.1 0 0 0-.1v.1-.1s0 .1.1.1v-.1c0-.1.1.2.1.1v.1s.1.1.1 0-.1-.2-.1-.3c0 0 .1.1 0 0v.1l.1.1-.1-.2s.1 0 .1.1c0 0-.1-.1-.1-.2 0 .1.1.1.2.2l.1.2c0 .1.1.1.1.2v-.1c-.2-.2-.1-.3-.3-.5 0-.1.3.5.2.1 0 0-.1-.2-.1-.1 0 0-.1-.2 0-.1 0 .1.1.2.2.3 0-.1 0 0 0 0 0 .1.1.2.1.2v-.1l-.1-.1c0-.1.1.1 0-.1 0 0-.1-.1-.1-.2v-.1.1c.1 0-.1-.1 0-.1l.1.1c.1.1-.1 0 0 .2v-.1s.2.3.1.1c0-.1 0-.1-.1-.2v-.2c.1.2.1 0 .1.2-.1-.1-.1 0 0 .1.1.2 0 0 0 .2a1.44 1.44 0 0 0 .2.3v-.1c-.1-.1-.1-.1-.1-.2 0 0 .1-.1 0-.2l.1.2c0-.1.1-.1.2-.1-.1-.2 0-.1-.1-.2l-.2-.2s0 .1.1.1c0-.1.1.1 0 0 0 .1.1.2.2.4 0-.1 0 .1.1.1v-.2c.1.1.1-.1.1-.1.1.1.1.2.2.2 0 0-.1-.2 0-.1 0 0 .1.1 0-.2l.1.2.1.1c.1.1 0 0 .1-.1l-.1-.1c0-.1.1 0 .1-.1v.1-.1c0 .1.1.1.1.1l.1.3s0-.1-.1-.2-.1 0 0 .1v-.1c.1.1.1.1.1.2v.1c0-.1-.1-.1-.1-.1.1.1.1.2 0 .2-.1-.1 0 .1-.1.1 0-.1-.1-.2-.1-.3h-.1c0 .1.1.2.1.3v-.1c0 .1.1.2 0 .2h-.2V11c.1.2 0 .1 0 .2-.1 0-.1.2-.2 0-.1.1-.1.2-.2.3l-.1-.1c0 .1 0-.1-.1 0 .1.1 0 .2.1.2-.1-.1-.1.1-.1.2v-.1c0 .2-.1.1-.1.1l-.1-.1v.3h-.2c0 .3-.2.2-.2.4l-.1-.1c0 .3-.2.2-.3.3l-.1-.2c-.1 0 0 .1 0 .2-.1 0 0 .1-.1 0v.1c-.1 0-.1 0-.2.1l-.1-.1c0 .1-.1 0 0 .2-.1-.1-.1.2-.2 0v.1s-.2 0-.2.1c0 0 0-.1-.1-.1v.1c0 .2-.2 0-.3.1-.1.2-.3.2-.4.3 0 .2-.2-.1-.1.2l-.1-.1c0 .1-.2 0-.1.1-.1-.1-.1.1-.2 0v-.1c-.1-.1 0 .2-.1 0v.1c-.2 0-.2.2-.3.3-.2-.1-.2-.3-.2-.2 0 0 0 .1 0 0 0 .1-.2-.2-.1-.1s0 .1.1.2c-.1 0-.2-.2-.2 0v-.1c.1.2-.1.2 0 .4-.3.2-.5.5-.7.7-.3.1-.5.4-.8.4-.2-.1-.2-.1-.2 0v-.1c.1.1 0 0 0 .2-.1 0-.2.1-.3.2 0 0 0-.2-.1-.1v.1s0 .1.1.1c-.2.3-.6.1-.9.3-.1 0-.2.1-.2.2-.3-.1-.6-.1-.7.1.3.2.1-.1.1-.3z"/><path d="M29 11c0-.1-.1-.1-.1-.2 0 .1 0 .2.1.2zm-1.1-.3s0-.1 0 0c0-.1 0-.1 0 0 0-.1 0-.1 0 0zm-.2 0v-.2.2zm-.3-.2s0-.1 0 0zm.1.2s0-.1 0 0c0 0 0-.1 0 0zm-.4 0s0 .1 0 0c0 0-.1-.1 0 0zm-.1.2s0-.1 0 0c0-.1 0-.1 0 0zm-2.5 1.8v-.1.1zm-1.2.7s-.1-.1 0 0c-.1-.1 0 0 0 0zm-.5.6l.1.2zm1.7-5.6c0-.1-.1-.1 0 0zm-8.9 5c-.1-.4.3-.1.2-.4 0 0 .1.2.1.1 0-.3.2-.3.5-.2v.1-.3s.1.1.1.2v-.1c-.1-.3.1 0 .1-.2v.1c0-.2.1-.3.2-.4 0 0 .1.1.1.2-.1-.1 0-.2 0-.2.1.1 0-.1.1-.1 0-.2.1 0 0-.1l.1.1c-.1-.2.1.1.1 0h.1c0-.1.1 0 0-.1.1.1 0 .1.1.2a.78.78 0 0 1 .4-.4l.1.1v-.1s0 .1.1.1-.1-.2 0-.1c0 0 0 .1.1.1v-.1c0-.1.1 0 0-.1v.1c.1.1-.1-.2 0-.1v.1-.2s.1 0 .1-.1l.1.2c-.1-.2 0-.1-.1-.3h.1c0 .1.1.2.1.2l.1.1v.1-.1c0-.1-.1-.3-.1-.4 0 .1.1.2.1.2l-.1-.3.1.1v-.1s0-.1.1.1v.1-.1s0-.1-.1-.2c0 0 .1.1 0 .1v-.4c0-.1.1.2 0 .1.1.1 0-.2.2-.1 0 0-.1-.1 0-.1l.1.1c0 .1 0 0 0-.1s0-.2.1-.2c0 0-.1-.2 0-.2v.1h.1c0-.1 0 .2-.1 0 .1.1 0-.2 0 0 0 0 0-.1.1-.1 0 0 .1.2.1.1v-.2c0 .1 0-.1.1.1l.1.1s0-.2-.1-.2c-.1-.2 0 0 0-.2.1 0 .1 0 .2.1v-.1.1l.2.2c0-.1-.1-.2-.1-.2.1.2 0-.2.1 0 0 0 0 .1.1.2.1.2 0-.2 0-.1l-.1-.2c.1.1 0-.1.1 0 0-.1.1 0 0-.1.1.1.1-.2.3.1V10c-.1-.1 0 .1 0 0v-.1s.1 0 .1.2c.1.1-.1-.3 0-.3 0 .1 0 .1.1.1v-.1l.2.2v-.1l.1.1c-.1-.1 0-.1 0-.1 0-.1-.1-.1-.1-.1v-.1l.1.1v-.1l.1.1s.1.1.1 0-.1-.2 0-.2v.1h.1v-.3h.1v-.2c.1.1.2.4.2.2 0 0-.1-.2-.1-.3.1 0 0-.2.2 0V9c.1 0 .1-.2.2 0 0 0 0 .1.1.2 0-.1.1.1 0-.1 0-.1-.1-.1-.1-.2s.1-.1.1 0v-.1c.1.1.1.2.1.1v-.1l.1.1s-.1-.2 0-.1c0 0 0 .1.1.1v-.2l.1.1s0-.1-.1-.1c.1 0 .1 0 .2.1-.1-.3 0-.4.1-.4v.1c.1 0 0-.1 0-.1 0 .1.1.1.1.2.1 0 0-.1 0-.2s0 .1 0 0c0 0 .1 0 0-.1 0 0 .1.1.1.2v-.1c.1.1.1.3.2.5.1.1 0 .2.1.2 0-.1-.1-.3-.2-.3 0-.1-.2-.3-.1-.3v.1c.1.1 0-.1 0-.1l-.1-.2c.1 0 0 .1.1.1 0-.1 0-.2-.1-.2-.1-.2.1 0 0-.1.1.1.1.3.2.3-.1-.1 0-.2-.2-.3 0 0 .1.1.1.2.1.1-.1-.2.1 0l-.1-.1s0 .1.1.1c0 0 0-.2.1 0v-.2c-.1-.1 0 .1-.1 0 .1.1 0 0 0-.1v.1V8s0 .1.1.1V8c0-.1.1.2.1.1v.1s.1.1.1 0-.1-.2-.1-.3c0 0 .1.1 0 0V8l.1.1-.1-.2s.1 0 .1.1c0 0-.1-.1-.1-.2 0 .1.1.1.2.2l.1.2c0 .1.1.1.1.2v-.1c-.2-.2-.1-.3-.3-.5 0-.1.3.5.2.1 0 0-.1-.2-.1-.1 0 0-.1-.2 0-.1 0 .1.1.2.2.3 0-.1 0 0 0 0 0 .1.1.2.1.2v-.1L23 8c0-.1.1.1 0-.1 0 0-.1-.1-.1-.2v-.1.1c.1 0-.1-.1 0-.1l.1.1c.1.1-.1 0 0 .2v-.1s.2.3.1.1c0-.1 0-.1-.1-.2v-.2c.1.2.1 0 .1.2-.1-.1-.1 0 0 .1.1.2 0 0 0 .2a1.44 1.44 0 0 0 .2.3v-.1c-.1-.1-.1-.1-.1-.2 0 0 .1-.1 0-.2l.1.2c0-.1.1-.1.2-.1-.1-.2 0-.1-.1-.2l-.2-.2s0 .1.1.1c0-.1.1.1 0 0 0 .1.1.2.2.4 0-.1 0 .1.1.1v-.2c.1.1.1-.1.1-.1.1.1.1.2.2.2 0 0-.1-.2 0-.1 0 0 .1.1 0-.2l.1.2.1.1c.1.1 0 0 .1-.1l-.1-.1c0-.1.1 0 .1-.1v.1-.1c0 .1.1.1.1.1l.1.3s0-.1-.1-.2-.1 0 0 .1v-.1c.1.1.1.1.1.2v.1c0-.1-.1-.1-.1-.1.1.1.1.2 0 .2-.1-.1 0 .1-.1.1 0-.1-.1-.2-.1-.3H24c0 .1.1.2.1.3v-.1c0 .1.1.2 0 .2h-.2v-.1c.1.2 0 .1 0 .2-.1 0-.1.2-.2 0-.1.1-.1.2-.2.3l-.1-.1c0 .1 0-.1-.1 0 .1.1 0 .2.1.2-.1-.1-.1.1-.1.2v-.1c0 .2-.1.1-.1.1l-.1-.1v.3h-.2c0 .3-.2.2-.2.4l-.1-.1c0 .3-.2.2-.3.3l-.1-.2c-.1 0 0 .1 0 .2-.1 0 0 .1-.1 0v.1c-.1 0-.1 0-.2.1l-.1-.1c0 .1-.1 0 0 .2-.1-.1-.1.2-.2 0v.1s-.2 0-.2.1c0 0 0-.1-.1-.1v.1c0 .2-.2 0-.3.1-.1.2-.3.2-.4.3 0 .2-.2-.1-.1.2l-.1-.1c0 .1-.2 0-.1.1-.1-.1-.1.1-.2 0V11c-.1-.1 0 .2-.1 0v.1c-.2 0-.2.2-.3.3-.2-.1-.2-.3-.2-.2 0 0 0 .1 0 0 0 .1-.2-.2-.1-.1s0 .1.1.2c-.1 0-.2-.2-.2 0v-.1c.1.2-.1.2 0 .4-.3.2-.5.5-.7.7-.3.1-.5.4-.8.4-.2-.1-.2-.1-.2 0v-.1c.1.1 0 0 0 .2-.1 0-.2.1-.3.2 0 0 0-.2-.1-.1v.1s0 .1.1.1c-.2.3-.6.1-.9.3-.1 0-.2.1-.2.2-.3-.1-.6-.1-.7.1.3.2.1-.1.1-.3z"/><path d="M24.4 8.4c0-.1-.1-.1-.1-.2 0 .1.1.2.1.2zm-1-.3s0-.1 0 0c0-.1 0-.1 0 0 0-.1 0-.1 0 0zm-.2 0v-.2.2zm-.3-.2s0-.1 0 0zm.1.2s-.1-.1 0 0zm-.4 0s0 .1 0 0c0 0-.1-.1 0 0zm-.1.2c-.1 0-.1-.1 0 0zm-2.6 1.8V10l.1.1zm-1.1.7s-.1-.1 0 0c-.1-.1 0 0 0 0zm-.5.6l.1.2zM20 5.8c0-.1-.1-.1 0 0zm-8.9 5c-.1-.4.3-.1.2-.4 0 0 .1.2.1.1 0-.3.2-.3.5-.2v.1-.3s.1.1.1.2v-.1c-.1-.3.1 0 .1-.2v.1c0-.2.1-.3.2-.4 0 0 .1.1.1.2-.1-.1 0-.2 0-.2.1.1 0-.1.1-.1 0-.2.1 0 0-.1l.1.1c-.1-.2.1.1.1 0h.1c0-.1.1 0 0-.1.1.1 0 .1.1.2a.78.78 0 0 1 .4-.4l.1.1v-.1s0 .1.1.1-.1-.2 0-.1c0 0 0 .1.1.1v-.1c0-.1.1 0 0-.1v.1c.1.1-.1-.2 0-.1v.1-.2s.1 0 .1-.1l.1.2c-.1-.2 0-.1-.1-.3h.1c0 .1.1.2.1.2l.1.1v.1-.1c0-.1-.1-.3-.1-.4 0 .1.1.2.1.2l-.1-.3.1.1v-.1s0-.1.1.1v.1-.1s0-.1-.1-.2c0 0 .1.1 0 .1v-.4c0-.1.1.2 0 .1.1.1 0-.2.2-.1 0 0-.1-.1 0-.1l.1.1c0 .1 0 0 0-.1s0-.2.1-.2c0 0-.1-.2 0-.2v.1h.1c0-.1 0 .2-.1 0 .1.1 0-.2 0 0 0 0 0-.1.1-.1 0 0 .1.2.1.1v-.2c0 .1 0-.1.1.1l.1.1s0-.2-.1-.2c-.1-.2 0 0 0-.2.1 0 .1 0 .2.1v-.1.1l.2.2c0-.1-.1-.2-.1-.2.1.2 0-.2.1 0 0 0 0 .1.1.2.1.2 0-.2 0-.1l-.1-.2c.1.1 0-.1.1 0 0-.1.1 0 0-.1.1.1.1-.2.3.1v-.1c-.1-.1 0 .1 0 0v-.1s.1 0 .1.2c.1.1-.1-.3 0-.3 0 .1 0 .1.1.1v-.1l.2.2v-.1l.1.1c-.1-.1 0-.1 0-.1 0-.1-.1-.1-.1-.1v-.1l.1.1v-.1l.1.1s.1.1.1 0-.1-.2 0-.2v.1h.1v-.3h.1v-.2c.1.1.2.4.2.2 0 0-.1-.2-.1-.3.1 0 0-.2.2 0v-.1c.1 0 .1-.2.2 0 0 0 0 .1.1.2 0-.1.1.1 0-.1 0-.1-.1-.1-.1-.2s.1-.1.1 0v-.1c.1.1.1.2.1.1v-.1l.1.1s-.1-.2 0-.1c0 0 0 .1.1.1v-.2l.1.1s0-.1-.1-.1c.1 0 .1 0 .2.1-.1-.3 0-.4.1-.4v.1c.1 0 0-.1 0-.1 0 .1.1.1.1.2.1 0 0-.1 0-.2s0 .1 0 0c0 0 .1 0 0-.1 0 0 .1.1.1.2v-.1c.1.1.1.3.2.5.1.1 0 .2.1.2 0-.1-.1-.3-.2-.3 0-.1-.2-.3-.1-.3V6c.1.1 0-.1 0-.1l-.1-.2c.1 0 0 .1.1.1 0-.1 0-.2-.1-.2-.1-.2.1 0 0-.1.1.1.1.3.2.3-.1-.1 0-.2-.2-.3 0 0 .1.1.1.2.1.1-.1-.2.1 0l-.1-.1s0 .1.1.1c0 0 0-.2.1 0v-.1c-.1-.1 0 .1-.1 0 .1.1 0 0 0-.1v.1-.1s0 .1.1.1v-.1c0-.1.1.2.1.1v.1s.1.1.1 0-.1-.2-.1-.3c0 0 .1.1 0 0v.1l.1.1-.1-.2s.1 0 .1.1c0 0-.1-.1-.1-.2 0 .1.1.1.2.2l.1.2c0 .1.1.1.1.2v-.1c-.2-.2-.1-.3-.3-.5 0-.1.3.4.2.1 0 0-.1-.2-.1-.1 0 0-.1-.2 0-.1 0 .1.1.2.2.3 0-.1 0 0 0 0 0 .1.1.2.1.2v-.1l-.1-.1c0-.1.1.1 0-.1 0 0-.1-.1-.1-.2v-.1.1c.1 0-.1-.1 0-.1l.1.1c.1.1-.1 0 0 .2v-.1s.2.3.1.1c0-.1 0-.1-.1-.1v-.2c.1.1.1 0 .1.1-.1-.1-.1 0 0 .1.1.2 0 0 0 .2a1.44 1.44 0 0 0 .2.3v-.1c-.1-.1-.1-.1-.1-.2 0 0 .1-.1 0-.2 0 0 .1.1.1.2 0-.1.1-.1.2-.1-.1-.2 0-.1-.1-.2l-.2-.2s0 .1.1.1c0-.1.1.1 0 0 0 .1.1.2.2.4 0-.1 0 .1.1.1v-.2c.1.1.1-.1.1-.1.1.1.1.2.2.2 0 0-.1-.1 0-.1 0 0 .1.1 0-.2l.1.2.1.1c.1.1 0 0 .1-.1l-.1-.1c0-.1.1 0 .1-.1v.1-.1c0 .1.1.1.1.1l.1.3s0-.1-.1-.2-.1 0 0 .1v-.1c.1.1.1.1.1.2v.1c0-.1-.1-.1-.1-.1.1.1.1.2 0 .2-.1-.1 0 .1-.1.1 0-.1-.1-.2-.1-.3h-.1c0 .1.1.2.1.3v-.1c0 .1.1.2 0 .2h-.2v-.1c.1.2 0 .1 0 .2-.1 0-.1.2-.2 0-.1.1-.1.2-.2.3l-.1-.1c0 .1 0-.1-.1 0 .1.1 0 .2.1.2-.1-.1-.1.1-.1.2v-.1c0 .2-.1.1-.1.1l-.1-.1v.3h-.2c0 .3-.2.2-.2.4l-.1-.1c0 .3-.2.2-.3.3l-.1-.2c-.1 0 0 .1 0 .2-.1 0 0 .1-.1 0v.1c-.1 0-.1 0-.2.1l-.1-.1c0 .1-.1 0 0 .2-.1-.1-.1.2-.2 0v.1s-.2 0-.2.1c0 0 0-.1-.1-.1V8c0 .2-.2 0-.3.1-.1.2-.3.2-.4.3 0 .2-.2-.1-.1.2l-.1-.1c0 .1-.2 0-.1.1-.1-.1-.1.1-.2 0v-.1c-.1-.1 0 .2-.1 0v.1c-.2 0-.2.2-.3.3-.2-.1-.2-.3-.2-.2 0 0 0 .1 0 0 0 .1-.2-.2-.1-.1s0 .1.1.2c-.1 0-.2-.2-.2 0v-.1c.1.2-.1.2 0 .4-.3.2-.5.5-.7.7-.3.1-.5.4-.8.4-.2-.1-.2-.1-.2 0v-.1c.1.1 0 0 0 .2-.1 0-.2.1-.3.2 0 0 0-.2-.1-.1v.1s0 .1.1.1c-.2.3-.6.1-.9.3-.1 0-.2.1-.2.2-.3-.1-.6-.1-.7.1.2.1 0-.2.1-.4z"/><path d="M19.9 5.8c0-.1-.1-.1-.1-.2 0 .1.1.2.1.2zm-1-.3s0-.1 0 0c0-.1-.1-.1 0 0 0-.1 0-.1 0 0zm-.2 0v-.1.1zm-.3-.2s0-.1 0 0zm.1.2s0-.1 0 0c0 0-.1-.1 0 0zm-.4 0s-.1-.1 0 0zm-.1.2s-.1-.1 0 0c-.1-.1-.1-.1 0 0zm-2.6 1.8v-.1l.1.1zm-1.1.6c0 .1-.1 0 0 0-.1 0-.1.1 0 0zm-.5.7l.1.2z"/></g><path d="M33.4 23.8v10.3l9.1-5.2V18.5z" class="E"/><g class="F"><path d="M33.7 23.8c0-.1-.1.1 0 0zm.3-.1c.2-.6 1-.6 1.3-1 0 0 .1.2.2.1.3-.5 1.1-.8 1.8-.9v.1c.1 0 .2-.3.3-.3v.1c0-.1.2-.2.2-.3.1 0 .1.1.2.1v-.2c0-.4.4-.2.6-.5v.1c.3-.4.8-.6 1.2-1 0 0 0 .1.1.2 0-.1.1-.2.2-.3.1.1.1-.2.3-.2 0-.2.2 0 .2-.2l.1.1c-.1-.2.2 0 .2-.1.1-.1.2 0 .2-.1.2-.2.3-.1.3-.3.1.1-.2.2-.1.3l1.3-.9v.7c-.1.2-.1.2-.1.3 0 0 0 .2.1.2l-.1.1c-.1.2.2 0 .1.2h-.2c.1 0 .1.2.2.3h-.1c.1.1 0 .3.1.4h-.1c-.1.2.2.1.1.2h-.1c.2.2.1.4.2.6v.6c0 .1-.2 0-.2.2.2 0 .1.3.3.2 0 .2-.1.4 0 .5-.1-.1-.2.1-.2 0l-.1.1c-.1 0 0-.1-.1-.1 0 .1.1.3 0 .3.1.1.3.2.3.4-.1-.1-.2 0-.2 0l.4.3c0 .1-.2 0-.1.1 0 0 .1 0 .1.1 0 0 0 .3-.1.3s0-.1-.1 0c0 .1.1.1.1.3 0 .1.1.2.2.2 0-.1-.1 0-.1-.1.1.1.1.2.1.3h-.1c.1.2.2.3.3.5.1 0-.2-.1-.1-.1-.1.2.2.5 0 .7h.1c0 .1-.1.1-.1.2-.1 0 0 .1 0 .2.1.1.2.5.1.8l.2.2h-.1c-.1 0 0 .2-.1.2.1.1-.1-.5 0-.3-.1 0 .2.2 0 .2 0 .1.1.2 0 .3 0 0-.2-.1-.2 0 0 .2 0 0 .1.2v.1c.1 0 0 .1.1.1-.1 0 .1.2-.1.2h-.2c0 .1.2.1.2.2H43c.2 0 0 .2.2.4v.4c-.1.1-.2.1-.3.1-.1.1-.2.3-.4.3 0 0 .1-.1 0-.1s-.1.1-.2.2c0 0-.2 0-.3-.1-.1.1 0 .2.1.3-.2-.1-.2.3-.4.2 0 0 .1-.2 0-.2-.2-.1-.1.2-.3.2l.1.1c-.1-.1-.2.2-.2 0 0 .1-.2 0-.1.2-.3 0-.5.4-.8.2 0 0-.1.1 0 .1s0-.1.1-.1v.1c-.1 0-.2 0-.2-.1-.2 0 0 .4-.3.4 0-.1-.1-.1-.1 0v.2c-.2 0-.2-.1-.2-.2-.1.1-.2.1-.1.2l-.2-.1c.1.1 0 .1 0 .2 0 0-.1 0-.1.1s.2 0 .2 0c0 .1-.1.1-.1.2 0-.1-.2 0-.2 0-.1 0 0 .1 0 .1h-.1.1c-.1 0-.1-.1-.2 0 0 .1.1.2 0 .2v-.1h-.2v.1c0 .1-.2.1-.1.3h-.2c-.1 0-.2.1-.2.2 0 0-.1.1-.1.2-.1 0-.2-.3-.3-.2s0 .3 0 .3c-.2 0-.3.3-.6.3v.1c-.3.1-.5.4-.8.4 0-.1 0-.1-.1-.2 0 .1-.1 0-.1.1.1.1.1.1.2.1-.1.1-.4.3-.5.2.1 0 0 .1 0 .1-.1-.2-.2-.1-.3 0v.1h-.1c0 .1 0 .2-.2.2 0 0 0-.1-.1-.1-.1.2-.3.4-.5.4l-.1-.1c-.1 0-.2.2-.1.2-.3.1-.4.1-.5 0-.4.4-.9.8-1.3 1.1v-.7l.1-.1c.1-.3-.1.1-.1-.1.1 0 .2-.3.2-.3.1-.3-.1-.2-.2-.3-.1.1.1.1-.1.2 0 0 .1-.4-.1-.3l.2-.2-.1-.1c.2-.3.3.1.5-.2v-.1c.2-.2.2.1.2-.2-.1 0-.3 0-.3.2 0-.2-.3.1-.3-.2.1-.1 0 .3.1.1s-.1-.3 0-.4c0 .2-.2.1-.2 0 .1-.2.1.1.2-.2-.1 0-.2-.2-.2 0-.2-.1 0-.3-.1-.4.1-.1.3.2.4 0-.1 0-.2-.2-.4-.1 0-.1.1-.1.2 0 .1-.1-.2-.2 0-.3h-.1s.1-.1.2-.1c0-.1-.2-.3 0-.3 0 0 0-.2-.2-.1-.1.1.1.1-.1.2.2-.1 0-.2-.1-.2h.1s0-.1-.1-.2c-.1-.2.2 0 .2-.2l.1.1s.1-.1 0-.2c-.1 0-.2-.1-.3-.1 0-.1.1 0 0-.1l.1.1s.2-.1.2-.2-.2-.2-.3-.1c0-.1.1-.1.1-.1 0-.1-.1 0-.2-.1.1 0 .2-.2.3-.3l.2.1v-.1c.1.1.1 0 .3 0 0 0 0-.1-.1-.2-.2.2-.3-.2-.5-.1-.1-.2.5-.1.2-.4-.1 0-.2-.1-.2.1 0-.1-.2-.1-.1-.3.1.1.2-.1.4 0-.1 0-.1.1 0 .1s.2 0 .2-.1 0-.2-.1-.2 0 .1-.1.1c0-.2.2-.2-.1-.3 0 .1-.1.1-.2.1v-.1h.1c.1-.2-.2-.1-.1-.3l.2-.1c.1 0-.1.3.2.2 0-.1-.1-.2 0-.3v.1s.3-.1.1-.3c-.1-.1-.1 0-.2 0 0-.2-.1-.3-.1-.4.2 0 0-.2.2-.1-.1.1-.1.3.1.4.2-.1 0 .2.2.2 0-.2.2-.2.3-.2 0 0 0-.1-.1-.1h-.3c0-.2 0-.3-.2-.4.1-.1.2 0 .2 0v-.6c-.2.1 0-.2-.2-.1 0 .1-.2.2-.3.1 0-.1.1 0 .1 0-.1-.1.2-.1 0-.2.1.2.2 0 .4.1-.1-.1.1 0 .1-.1-.1-.1-.2-.3-.2-.5.2-.2 0-.5 0-.7.1-.1.3 0 .3-.1s-.2.1-.1-.1c0 0 .1-.3-.1-.4h.2v-.1h.2c.1-.1 0-.2 0-.3l-.1.1c-.1-.2 0-.3 0-.5h.1l-.1-.1c.1 0 .2-.1.1-.1l.3.3c-.1.1-.1-.1-.2 0-.1 0-.1.2 0 .2v-.1c.2 0 .2.1.3.1v-.1c.1.1.1.1.1.3-.1-.1-.1 0-.1 0 .1 0 .2.1.1.3-.2.1.1.3.1.4-.1-.1-.3-.2-.3-.3-.1.1 0 .1-.1.2.1 0 .3.1.3.2H34c0 .1.2.1.2.3 0 .3 0 .5-.1.7H34c.2.1.1.4.2.5-.1.3.1.6-.1.7.1.5.2.8.1 1.3l-.2-.1c.1.1-.1 0-.1.1.1-.1.2.1.2.2-.1.2 0 .5.1.7h-.1c.2.2 0 .4 0 .6l-.1.1c.2.1.2.2.3.4 0 .1 0 .4-.1.5.1.1.1.3.1.4v.2c0 .1 0 .2.1.3l-.1.2c.1 0 .1 0 .1.1.1 0 .2 0 .3-.2l-.1.3s.2-.2.1-.3c0 0 .1-.2.1 0 .1 0 0-.1 0-.2.3-.1.4-.1.6-.3h-.1s0 .1.1.1c.1-.1.3-.1.1-.3.3 0 .5-.4.8-.4v-.2c.2-.1.5-.1.6-.3 0 0 0 .1.1.1v-.2c.3-.3.8-.3 1.1-.5.5-.4 1.1-.7 1.7-1 .1-.3.5-.1.5-.4.1 0 .2-.1.2 0 .1-.2.5-.1.6-.4.1 0 .2-.1.3-.2s.2-.2.3-.1v.1c.1 0-.1-.2.1 0l-.1-.1h.1v-.3c0-.2-.1-.5-.1-.7.1-.4.4 0 .2-.4 0 0-.1 0 0 0-.1-.1.3-.2.1-.3-.1 0-.1-.1-.2-.1.1-.3.2-.3.1-.5h.1c-.2-.2-.1-.5-.3-.7 0-1.3-.2-2.6-.2-3.8v-1.5c.1-.3 0-.2 0-.1V20v.2h-.1l-.3.2c-.2.1-.4.2-.6.4.1 0 0-.2 0-.1v.1s-.1.2 0 .2c-1 .7-2.2 1-3.2 1.7-.3.1-.6.3-.8.5-.9.3-1.7.5-2.4 1.1-.3.1-.4-.4-.1-.6zm-.3.3c-.1 0-.1.1-.2 0 .1.1.2 0 .2 0zm-.8 2.9c-.1 0-.1 0 0 0-.1 0-.1 0 0 0z"/><path d="M32.8 27.6c-.1 0-.1-.2-.1-.3l.1.3zm-.3.7s-.1 0 0 0c0-.1 0 0 0 0zm.2 0c0 .1 0 .1 0 0 0 .1-.1 0 0 0zm-.2 1.5s.1.1 0 .2c0-.1-.1-.2 0-.2zm.1.7c0 .1-.1.1 0 0zm8.8-.4l-.1.1v-.1zM43 25c0-.1.1 0 0 0 .1 0 0-.1 0 0zm-.3-2.9h-.2z"/></g><path d="M24.3 39.4l13.5 7.8V26.5l-13.5-7.8z" class="E"/><g class="F"><path d="M24.6 39.3c-.3-.1.1.2-.2 0 .1-.1.1-.1.2 0z"/><path d="M24.5 38.5c-.4-.9 0-2-.2-2.9 0-.1.2 0 .2-.2-.3-.9-.1-2.3.1-3.5l.1.1c0-.2-.2-.5-.1-.7 0 0 .1.1.1 0-.1-.1 0-.4-.1-.5 0-.1.1-.1.2-.2l-.1-.1c-.3-.4 0-.9-.1-1.3 0 0 .1.1.1 0-.2-.8-.2-1.8-.2-2.6 0 0 .1.1.2 0-.1 0-.2-.3-.2-.5.2-.1-.1-.4 0-.7-.2-.2.1-.3-.1-.5l.1-.1c-.2-.1.1-.3 0-.5v-.4c0-.3.1-.5-.1-.5.1-.1.1.3.2.1-.2-1.2-.1-2.2-.1-3.5.1-.1.1-.2.1-.2 0-.1 0-.4-.1-.7h.1c.1-.1-.2-.5-.1-.6 0 .2.1.3.2.3v-.2c.1 0 .3.1.5.2 0 0-.1 0 0 .1.2-.1.4.3.6.3l-.1.1c.3.3.1-.2.4.1-.1 0 0 0-.1.1.1 0 .3.1.5.2s.3.2.5.2c.3.1.5.3.9.5.1.1-.2.2.2.3.1-.2.5.2.5-.1.2.2.6.5.8.5-.1 0 0 .3-.2.2l.1.2c-.1 0-.1-.1-.1 0 .1 0 .4.2.5.2.2 0 .5-.1.8.1-.2 0 0 .2-.1.2l.6-.1c.1 0 0 .1.1.2h.2s.4.2.4.4c0 .1-.2-.1-.1.1l.4.2c.1.1.4.1.3 0-.1 0 0 .1-.1 0 .1 0 .4.1.6.2-.1 0-.1 0-.2.1.3 0 .6.1.9.2 0-.1-.2.1-.2 0 .3.3.8.3 1 .6-.1 0 0-.1 0-.1.2.1.1.2.2.2 0 .1.2.1.3.1s0 0-.1 0c.2 0 .9.3 1.2.6h.4l-.1.1c0 .1.3.2.3.3.3 0-.8-.3-.5-.3 0 .1.4 0 .3.2.2.1.4.1.5.3 0 0-.2.1-.1.1.3.1.1 0 .3.1h.2c.1-.1.2.1.2 0 0 .1.4.2.3.3l-.1.1h.4v.1c.1-.2.2.2.5.1.2.1.3.3.5.4 0 .2 0 .5-.1.5 0 .1.1.3.1.4v.3s0-.1-.1-.1c-.1.1 0 .2 0 .3 0 0-.1.3-.2.4.1.2.2.1.3.2-.2.2.1.5-.1.8 0-.1-.1-.3-.2-.1-.2.2.2.4.1.7l.2-.1c-.1.1.1.4-.1.4.1.1-.1.3.1.3-.2.5.1 1.2-.2 1.4 0 .1 0 .2.1.2.1-.1-.1-.2 0-.2 0 .1 0 .1.1.1 0 .2 0 .3-.2.1-.1.3.3.3.2.8-.1 0-.1 0-.1.1l.1.2c0 .3-.2.2-.3.2 0 .1 0 .3.1.4l-.2.2c.1-.1.1.1.1.2v-.1.3c.1 0 .1-.2.1-.3 0 .1 0 .2.1.3-.1 0-.1.2-.1.3s.1.2.1.2c-.1 0 0 .2-.1.1 0 0 .1-.1 0-.2 0 .1-.2.1-.1.3.1.1.2 0 .2.2 0-.1-.1-.1-.1-.1l-.1.2h.1c.1.1 0 .4.2.4 0 .1-.1.3-.1.4-.1.1 0 .3 0 .5 0 .1 0 .3.1.4-.1.2-.4.1-.3.3 0 .2.2.3.3.2-.1.4.1.8-.1 1.1 0 0 .1 0 .1.1 0 .5.1 1.1-.1 1.5 0-.2-.1 0-.2 0 .1.1-.1.2.1.2.1 0 .2 0 .2-.2v1c0-.1.1 0 .1 0-.2 0-.2.2-.1.4h.1l-.1.1c0 .1.2.1.1.3H39c.1.2.2.4.1.6l-.1.2c0 .1.1.2.1.1-.1.3-.1.5-.2.7.2.3.2.6.3 1v1.1h-.1c-.1.3.1.2.1.4-.1-.1-.2.2-.2-.1-.1.4.1.6.2.9.1.1-.1-.3.1-.1 0 .1-.1.5.1.8-.1.1-.2-.2-.2-.3l.1.3c-.1.1-.2-.2-.2-.5s-.2-.4-.3-.4v.2c-.2 0-.2-.6-.2-.3.1.2.3.7.3.6 0 .5.3.7.3 1.2-.1 0 0-.5-.1-.5s0 .3 0 .5c0 0-.1 0-.2-.1.3.2.2.4.1.3-.3-.3 0-.1-.3-.4 0 .1-.3 0 0 .3 0 .2-.4-.3-.6-.2-.2-.2.3-.2-.1-.5.1.2-.5-.1-.2.3-.2-.2-.2-.3-.1-.3-.2-.2-.6-.1-.6-.4l-.1.1c-.1-.1-.2-.2-.2-.3-.2-.1-.5-.1-.4-.3 0 0-.3-.2-.3 0 .1.2.2 0 .3.2 0-.2-.3-.1-.4-.1V47c-.1 0-.2-.1-.3 0 .1 0 .1-.1 0-.1l-.1.1c-.3-.1 0-.2-.2-.3h.2s-.1-.2-.2-.2c-.1.1-.2.1-.3.2-.2 0 0-.1-.2-.1h.2s0-.2-.2-.3c-.1 0-.4 0-.2.2-.1 0-.2-.2-.1-.2-.2-.1 0 .1-.2.1 0-.1-.2-.3-.3-.5h.3l-.1-.1c.2 0 0-.1.1-.2-.1-.1-.2-.1-.3-.1.1.3-.4.1-.5.4-.3-.1.1-.6-.4-.5 0 .1-.2.1 0 .2-.2-.1-.3.1-.4-.1.2 0-.1-.3.2-.3 0 0 .1.1.2.1 0-.1.1-.2-.1-.3-.1 0-.3-.2-.3 0-.1.1.2.1 0 .2-.3-.1-.2-.3-.4-.2.2.1.1.2.1.3l-.2-.1h.1c-.3-.2-.2.1-.4-.1v-.2c.1-.1.4.3.5.1-.2-.1-.3 0-.5-.2h.2c-.1 0 0-.3-.3-.3-.2 0-.1 0-.1.1-.3-.2-.4-.1-.6-.2.1-.1-.3-.2 0-.2 0 .1.5.4.7.3 0-.2.2.2.4 0-.2-.1-.1-.3-.1-.4H32c-.1.1 0 .1-.1.3-.3-.2-.5-.3-.8-.3-.1-.1 0-.2.1-.1l-1-.6c.1.3-.4-.2-.3.1.1.1.2.3.1.4-.1-.1 0-.1 0-.1-.2 0-.1-.3-.3-.2.3.1.2-.2.3-.3-.3 0 .1-.1-.1-.2-.3 0-.5-.1-.8-.2-.2-.3-.7-.4-1-.6-.1-.2.1-.3 0-.4-.2-.1 0 .2-.2 0-.1 0-.4-.4-.6-.2l.2-.1h-.2s0-.1.1-.1c-.1-.2-.3-.2-.5-.3v.2c-.3-.1-.5-.3-.8-.4l.1-.1H26c.1-.1 0-.2-.2-.2h.6c.1.1-.2 0-.2.2 0 .1.3.3.4.2-.1-.1-.1 0-.2-.1 0-.2.2-.1.3-.1-.1 0-.1-.1-.1-.1.1 0 .3 0 .4.1-.2 0 0 .1 0 .1.1-.1.3 0 .5.1.1.2.5.1.7.3a.45.45 0 0 1-.5 0c.1.2.2.1.3.3.1 0 .3-.2.5-.1v.1c.2.1.3-.1.5.1.4.3.8.5 1.1.7v.1c.3-.1.6.3.9.3.3.3.9.4 1 .7l2.1 1-.2.1c.2 0 0 .1.2.2-.1-.2.3 0 .4-.1.3.3.7.4 1.1.5v.1c.4 0 .6.3 1 .6 0 .1 0 .2.2.2a1.7 1.7 0 0 1 .7.1c.1.1.2.2.4.2l.2.2c.3 0 .4.1.6.2 0-.2 0-.4-.1-.6h.1c0-.1 0-.1-.1-.2v-2.2l.2.1c.1-.2 0-.5-.2-.5.1-.2-.1-.6.1-.8 0-.3-.1-.3-.1-.5.1-.5.1-.7 0-1.1v.1s.1.1.1-.1c-.1-.2 0-.6-.2-.5.1-.5-.1-1.2.1-1.6-.1 0-.1-.1-.1-.1 0-.4.1-.9 0-1.2 0-.1.1.1.1-.1 0-.1-.1 0-.1-.1-.1-.7.1-1.4.1-2.1-.1-1.1-.1-2.3-.1-3.4-.2-.4.2-.9-.1-1.2 0-.1 0-.3.1-.3-.1-.3.1-.8 0-1.2v.1c.1-.4 0-.8.1-1.3 0 0 0 .1.1.1.1-.2-.2-.5 0-.5h-.1v-.2c-.1 0-.1-.1-.2-.1l-1.8-.9c-.6-.5.2-.4-.4-.5 0-.1-.1.1-.1 0-.2-.1-.2-.4-.4-.4 0 .2-.1 0-.2.1-.3-.3-.3-.5-.7-.5h.1c-.5 0-.8-.4-1.3-.3l-5.9-3.2-1-.6v1.7c-.2.5-.2.6-.1 1.1 0 0 0-.1-.1 0 .2 0 0 .4.2.5v2.5c0-.1-.2-.2-.1 0l.1.2c0 .1.1.2.2.1.1 2.1-.2 4.3-.2 6.3-.1.5 0 1.2 0 1.8-.2 1.6-.4 3-.2 4.7-1.5-.6-1.9-.8-2-1.5z"/><path d="M24.9 39.4c0 .1.2.2 0 .3 0-.1-.1-.2 0-.3zm3.9 3.2s0 .1 0 0c0 0-.1.1 0 0-.1.1-.1 0 0 0zm1 .7s-.3 0-.5-.1l.5.1zm.9.9c.1.1.1.1 0 0-.1 0 0 0 0 0zm.2-.1c.1 0 .1.1.1.2 0-.1-.2-.2-.1-.2zm2.1 1.4c.1 0 .2 0 .2.1 0 0-.3 0-.2-.1zm1.1.5c0 .1 0 .1 0 0 .1.1 0 .2 0 0zm4.3-16.7v.1zm-6.2-6.7c-.1 0 0-.1 0 0 .1 0-.1 0 0 0zm-4.6-2.2l-.1.1z"/></g><path d="M24.3 18.7l13.5 7.8 18-10.3-13.6-7.9z" class="E"/><g class="F"><path d="M24.6 18.6c-.3-.1.1.2-.2 0 .1-.1.1-.1.2 0zm.6-.2c.5-.8 1.7-1 2.4-1.7.1-.1.1.2.3 0 .6-.7 2-1.3 3-1.6v.1c.2-.1.3-.4.5-.5v.1c0-.1.3-.3.4-.4.1 0 .1.1.3.1v-.2c.2-.5.8-.4 1.1-.8v.1c.6-.6 1.4-1 2.2-1.5 0 .1 0 .2.1.2 0-.1.2-.3.4-.5.2.1.3-.3.6-.4.1-.2.3-.1.4-.3h.2c0-.2.3 0 .4-.2.1-.1.2-.1.3-.2.3-.2.5-.2.4-.3.2 0-.3.2 0 .3.9-.7 1.9-1.3 2.9-1.8h.3c.1-.1.3-.2.4-.4h.2c.2 0 .2-.3.4-.3-.1.1-.1.2-.1.2s0-.1.1-.1c.2 0 .3.1.5.2h-.1c.3 0 .4.3.6.3h-.1c.3.3.2-.1.4.1-.1 0-.1 0-.1.1.3 0 .7.3 1 .4s.5.3.9.5c.1.1-.2.2.2.3.1-.2.5.2.5-.1.2.2.6.5.8.5-.1 0 0 .3-.2.2l.1.2c-.1 0-.1-.1-.1 0 .1 0 .4.2.5.2.2 0 .5-.1.8.1-.2 0 0 .2-.1.2l.6-.1c.1 0 0 .1.1.2h.2s.4.2.4.4c0 .1-.2-.1-.1.1l.4.2c.1.1.4.1.3 0-.1 0 0 .1-.1 0 .1 0 .4.1.6.2-.1 0-.1 0-.2.1.3 0 .6.1.9.2 0-.1-.2.1-.2 0 .3.3.8.3 1 .6-.1 0 0-.1 0-.1.2.1.1.2.2.2 0 .1.2.1.3.1s0 0-.1 0c.2 0 .9.3 1.2.6h.4l-.1.1c0 .1.3.2.3.3.3 0-.8-.3-.5-.3 0 .1.4 0 .3.2.2.1.4.1.5.3 0 0-.2.1-.1.1.3.1.1 0 .3.1l.2.1c.1-.1.3.2.3 0 0 .1.6.3.4.4h-.2c.1.1.4 0 .6.1v.1c.3-.1.3.2.8.3.1.1.3.2.5.3l-.6.3c-.1.2-.3.3-.6.5l.1-.1c-.3.1-.2.1-.3.2 0 0-.5.1-.7.2-.2.2 0 .2 0 .3-.1 0-.2 0-.3.1-.1 0-.1.1-.2.1-.1.1-.2.2-.4.2 0-.1.2-.2 0-.2-.3-.1-.2.3-.5.4l.2.1c-.2 0-.3.3-.4.1 0 .1-.3.1-.2.3-.5.1-1 .7-1.4.5 0 .1-.2.1-.1.2.2 0 .1-.1.2-.1v.1c-.2 0-.3.1-.2-.1-.3.1-.1.4-.5.6 0-.1-.1-.1-.2 0l-.1.2c-.3.1-.2-.1-.3-.2-.1.1-.3.2-.3.3h-.2c.2 0-.1.1-.1.2v-.1l-.2.1c.1.1.2 0 .3 0 0 .1-.1.1-.2.2 0-.1-.3 0-.3.1-.1 0-.1.2-.1.2s-.2.1-.2 0c0 0 .1 0 .2-.1-.1 0-.2-.1-.3.1-.1.1.2.2-.1.3v-.2l-.2.1v.1c0 .1-.3.2-.3.4-.1.1-.3.1-.4.1-.2 0-.3.2-.4.3-.1 0-.2.1-.3.2-.2 0-.3-.3-.4-.1-.2.1-.2.3-.1.3-.3.1-.6.5-1 .5 0 .1 0 .1-.1.2-.5.2-.9.7-1.4.7.1-.1 0-.1-.1-.2-.1.2-.2 0-.1.2.1.1.1.1.2.1-.2.2-.7.4-.8.5.1 0 .1.1 0 .1-.1-.2-.3-.1-.4.1v.1h-.2c0 .1 0 .2-.2.2 0 0 0-.1-.1-.1-.1.2-.3.4-.5.4h-.2c-.1.1-.1.2 0 .2-.3.1-.5.2-.7.1-.3.5-1.1 1-1.7 1.3v-.1c-.2 0 0 .2-.2.2 0-.1-.2-.1-.1-.2-.3.1-.2.3-.3.4 0 .1.1-.1.1 0 0 0-.3.1-.3.3-.1 0-.1-.1-.1-.2l-.1.1c-.3 0 .2-.5 0-.6l-.1.1c-.2-.1.3-.3-.1-.2-.1.1-.2.4 0 .4-.4.3 0 .4-.5.7-.1 0 .4-.3.3-.3-.2 0-.3.1-.4.3-.1 0-.2 0-.2-.1.2.2 0 .3-.2.2-.3-.2.2 0-.2-.3-.1 0-.5-.1-.2.1-.1 0-.2 0-.3-.1 0 0-.1-.1-.2-.1 0-.2.4-.1.2-.3 0 .1-.4 0-.3.2-.1-.1 0-.2.1-.2-.1-.2-.5 0-.4-.2l-.1.1c0-.1-.1-.1-.1-.2-.1-.1-.5-.1-.4-.2 0 0-.3-.2-.3 0 .1.2.2 0 .3.2 0-.2-.3-.1-.4-.1v-.1c-.1 0-.2-.1-.3 0 .1 0 .1-.1 0-.1l-.1.1c-.3-.1 0-.2-.2-.3h.2s-.1-.2-.2-.2c-.1.1-.2.1-.3.2-.2 0 0-.1-.2-.1h.2s0-.2-.2-.3c-.1 0-.4 0-.2.2-.1 0-.2-.2-.1-.2-.2-.1 0 .1-.2.1 0-.1-.2-.3-.3-.5h.3l-.1-.1c.2 0 0-.1.1-.2-.1-.1-.2-.1-.3-.1.1.3-.4.1-.5.4-.3-.1.1-.6-.4-.5 0 .1-.2.1 0 .2-.2-.1-.3.1-.4-.1.2 0-.1-.3.2-.3 0 0 .1.1.2.1 0-.1.1-.2-.1-.3-.1 0-.3-.2-.3 0-.1.1.2.1 0 .2-.3-.1-.2-.3-.4-.2.2.1.1.2.1.3l-.2-.1h.1c-.3-.2-.2.1-.4-.1v-.2c.1-.1.4.3.5.1-.2-.1-.3 0-.5-.2h.2c-.1 0 0-.3-.3-.3-.2 0-.1 0-.1.1-.3-.2-.4-.1-.6-.2.1-.1-.3-.2 0-.2 0 .1.5.4.7.3 0-.2.2.2.4 0-.2-.1-.1-.3-.1-.4h-.2c-.1.1 0 .1-.1.3-.3-.2-.5-.3-.8-.3-.1-.1 0-.2.1-.1l-1-.6c.1.3-.4-.2-.3.1.1.1.2.3.1.4-.1-.1 0-.1 0-.1-.2 0-.1-.3-.3-.2.3.1.2-.2.3-.3-.3 0 .1-.1-.1-.2-.3 0-.5-.1-.8-.2-.2-.3-.7-.4-1-.6-.1-.2.1-.3 0-.4-.2-.1 0 .2-.2 0-.1 0-.4-.4-.6-.2l.2-.1h-.2s0-.1.1-.1c-.1-.2-.3-.2-.5-.3v.2c-.3-.1-.5-.3-.8-.4l.1-.1h-.2c.1-.1 0-.2-.2-.2h.6c.1.1-.2 0-.2.2 0 .1.3.3.4.2-.1-.1-.1 0-.2-.1 0-.2.2-.1.3-.1-.1 0-.1-.1-.1-.1.1 0 .3 0 .4.1-.2 0 0 .1 0 .1.1-.1.3 0 .5.1.1.2.5.1.7.3a.45.45 0 0 1-.5 0c.1.2.2.1.3.3.1 0 .3-.2.5-.1v.1c.2.1.3-.1.5.1.4.3.8.5 1.1.7v.1c.3-.1.6.3.9.3.3.3.9.4 1 .7l2.1 1-.2.1c.2 0 0 .1.2.2-.1-.2.3 0 .4-.1.3.3.7.4 1.1.5v.1c.4 0 .6.3 1 .6 0 .1 0 .2.2.2a1.7 1.7 0 0 1 .7.1 3.04 3.04 0 0 1 .7.5c.3.1.5.2.7.3l.3.2c.1 0 .2-.1.2-.1.2-.1.3-.2.5-.4l.1.1c.7-.7 1.7-1 2.3-1.5v.2c.2-.1.5-.3.3-.4.2-.1.5-.4.7-.3.2-.1.2-.2.4-.4.5-.2.6-.3 1-.5h-.1c0 .1 0 .1.1.1.1-.1.6-.3.3-.4.5-.1 1-.7 1.5-.8-.1 0 0-.1 0-.2.4-.2.8-.3 1.1-.6.1 0 0 .2.1.1s0-.1 0-.2c.5-.5 1.3-.6 1.8-1 .9-.7 2-1.2 2.9-1.8.2-.3.8-.3 1-.7.1 0 .3-.2.3 0 .2-.3.8-.3 1-.7l-.1.1c.1 0 .2-.1.3-.1h.1s.1-.1.2-.1l.1.1c.2 0-.2-.1.2-.1h-.2c.1 0 .1 0 .2-.1a.76.76 0 0 0-.4-.2l-.8-.4c-.6-.5.2-.4-.4-.5 0-.1-.1.1-.1 0-.2-.1-.2-.4-.4-.4 0 .2-.1 0-.2.1-.3-.3-.3-.5-.7-.5h.1c-.5 0-.8-.4-1.3-.3l-5.9-3.2c-.4-.3-.9-.5-1.3-.8l-.7-.4c-.2-.1-.1 0-.1-.1l-.2.1-.8.5-1.6.9c-.6.1-.6.1-1 .5v-.1c.1.2-.3.2-.3.4l-2.1 1.2c.1-.1.1-.2 0-.1l-.1.2c-.1.1-.2.2 0 .2-1.8 1.2-3.8 2-5.6 3-.5.2-1 .6-1.5.9-1.5.6-2.8 1.2-4.2 2.1-.5-1.1-.6-1.6 0-2z"/><path d="M24.9 18.7c0 .1.2.2 0 .3 0-.1-.1-.2 0-.3zm3.9 3.2s0 .1 0 0c0 0-.1.1 0 0-.1.1-.1 0 0 0zm1 .7s-.3 0-.5-.1l.5.1zm.9.9c.1.1.1.1 0 0-.1 0 0 0 0 0zm.2-.2c.1 0 .1.1.1.2 0 0-.2-.1-.1-.2zm2.1 1.5c.1 0 .2 0 .2.1 0 0-.3 0-.2-.1zm1.1.5c0 .1 0 .1 0 0 .1.1 0 .2 0 0zM53.7 18l-.1.1V18zm-3.5-5.7c-.1 0 0-.1 0 0 0-.1-.2-.1 0 0zM45.5 10v.2z"/></g><path d="M37.8 47.2l18.1-10.4V16.1L37.8 26.5z" class="E"/><g class="F"><path d="M37.9 46.9c-.3.2.2 0-.1.2-.1-.1 0-.2.1-.2zm.1-.7c-.4-1 0-2.3-.2-3.3 0-.1.2 0 .2-.3-.3-1-.1-2.7.1-4l.1.1c0-.2-.2-.5-.1-.8 0 0 .1.1.1 0-.1-.1 0-.5-.1-.6 0-.1.1-.1.2-.2l-.1-.2c-.3-.4 0-1-.1-1.5 0 0 .1.1.1 0-.2-.9-.2-2-.2-3 0 0 .1.1.2 0-.1 0-.2-.4-.2-.6.2-.1-.1-.5 0-.8-.2-.2.1-.3-.1-.5l.1-.2c-.2-.1.1-.3 0-.5v-.4c0-.4.1-.6-.1-.6.1-.1.1.4.2.2 0-.4-.1-.8-.1-1.3v-1.3c.4-.3.8-.5 1.3-.7h.3c.1-.1.4-.3.5-.4h.2c.2-.1.1-.3.4-.3-.1.1-.1.2 0 .2.1-.2.4-.3.6-.5 0 0-.1.1 0 .1.2-.3.5-.2.6-.4v.1c.4-.1 0-.2.3-.3-.1.1 0 .1 0 .1.2-.3.7-.5.9-.7.3-.2.6-.3.9-.6.1 0 .1.2.4 0-.1-.2.5-.4.2-.5.3-.1.8-.3.9-.5-.1.1.3.1 0 .3h.2c0 .1-.2.1-.1.1.1-.1.4-.3.5-.4.2-.2.3-.5.6-.7-.1.2.2.1.1.2l.3-.6c.1-.1.1.1.2 0 0 0 0-.1.1-.2 0 0 .5-.3.6-.2.1 0-.2.1 0 .1.2-.1.2-.2.4-.3s.4-.3.2-.3c-.1 0 .1.1-.1.1 0-.2.3-.3.5-.4-.1.1 0 .1 0 .2.2-.3.5-.5.8-.7 0-.1 0 .2-.1.2.5-.1.8-.6 1.2-.7l-.1-.1c.2-.1.3 0 .4-.1 0 .1.2-.1.3-.2 0-.1 0 0-.1.1.2-.2.8-.7 1.3-.8 0 0 .2-.3.3-.4v.1c.1 0 .3-.2.4-.1.1-.2-.8.6-.5.3.1 0 .3-.4.3-.2.2-.1.3-.3.6-.3-.1 0-.1.2.1.1.3-.2 0-.1.3-.3l.1-.1c-.1-.1.4-.2.2-.2.1.1.6-.4.6-.2v.2c.2-.1.3-.3.4-.5.1-.3.4-.2.7-.6l.6-.3c0 .3 0 .5-.1.7.1.2.2.5.1.9 0-.1 0-.2-.1-.1-.1.3 0 .3 0 .5l-.2.8c.1.3.2.2.3.2-.2.2.1.6-.1.9 0-.1-.1-.3-.2-.1-.2.2.2.4.1.7l.2-.1c-.1.2.1.5-.1.5.1.1-.1.4.1.3-.2.5.1 1.3-.2 1.7 0 .1 0 .3.1.2s-.1-.2 0-.2c0 .1 0 .1.1.1 0 .2 0 .3-.2.1-.1.4.3.4.2.9-.1 0-.1 0-.1.2l.1.3c0 .3-.2.2-.3.2 0 .2 0 .4.1.4l-.2.2c.1-.2.1.1.1.2v-.1.3c.1 0 .1-.2.1-.3 0 .1 0 .2.1.3-.1 0-.1.3-.1.4 0 .2.1.2.1.2-.1 0 0 .3-.1.1 0 0 .1-.1 0-.2 0 .1-.2.1-.1.3s.2 0 .2.3c0-.1-.1-.1-.1-.2l-.1.3h.1c.1.1 0 .4.2.5 0 .1-.1.3-.1.4-.1.2 0 .4 0 .5s0 .3.1.4c-.1.2-.4.1-.3.3 0 .2.2.4.3.3-.1.4.1.9-.1 1.3 0 .1.1 0 .1.1 0 .6.1 1.3-.1 1.7 0-.2-.1 0-.2 0 .1.1-.1.2.1.2.1 0 .2 0 .2-.2v1.1c0-.1.1 0 .1.1-.2 0-.2.2-.1.4h.1l-.1.1c0 .1.2.1.1.3 0 0-.1 0-.1.1.1.2.2.5.1.7l-.1.2c0 .1.1.3.1.1-.1.4-.1.6-.2.8.1.2.2.4.2.7v1.2l-1.2.7v-.1c-.2 0 0 .2-.2.2 0-.1-.2 0-.1-.2-.3.1-.3.3-.4.4 0 .1.1-.1.1 0 0 0-.4.1-.4.3-.1 0-.1-.1-.1-.2l-.1.2c-.3 0 .3-.5 0-.6l-.1.1c-.2 0 .3-.4-.1-.2-.1.2-.2.4 0 .4-.3.2 0 .4-.3.6-.1 0 .3-.2.1-.2s-.3.3-.5.3c.2 0 .1.2 0 .2-.2 0 0-.2-.2 0 0 .1-.2.3 0 .2 0 .2-.3.1-.3.3-.2-.1.1-.4-.2-.3.1.1-.3.3 0 .4-.1 0-.2 0-.2-.2-.2 0-.3.4-.4.2v.2H52c-.1.1-.3.4-.4.2 0 0-.3.2-.2.3.2 0 .2-.2.4-.1-.2 0-.3.2-.4.3l-.1-.1c0 .1-.2.1-.2.2 0-.1 0-.1-.1-.1v.1c-.2.2-.2-.1-.4 0l.2-.2s-.2 0-.3.1v.4c-.1.1-.1-.1-.2.1l.1-.2s-.2-.1-.4 0c-.1.1-.2.3 0 .3-.1.1-.3.1-.2 0-.2.2.1.1-.1.3h-.6l.1-.3-.1.1c.1-.2-.1 0-.1-.2-.1 0-.2.1-.3.2.4 0-.1.5 0 .6-.3.3-.5-.3-.7.2.1 0 0 .3.2.1-.2.1 0 .3-.4.4.2-.2-.3-.1-.1-.3 0 .1.2 0 .2-.1-.1 0-.1-.2-.3-.1-.1.1-.3.2-.2.3s.2-.1.2 0c-.3.2-.4.1-.4.3.2-.1.3 0 .3 0l-.2.2v-.1c-.4.1 0 .2-.4.4l-.2-.1c0-.2.5-.2.3-.4-.2.1-.2.3-.5.3l.1-.1c-.1 0-.3-.2-.5.1-.1.2 0 .1 0 .2-.3.2-.4.3-.6.5 0-.2-.4.2-.2-.1.2 0 .7-.3.7-.5-.2-.1.3-.1.3-.3-.3.2-.4 0-.5-.1-.1 0-.1.1-.2.2 0 .1.1.1.2.2-.3.2-.6.4-.7.6-.1 0-.2-.1 0-.2-.3.2-.7.5-1.1.6.3 0-.4.3-.1.3.2-.1.4 0 .4.1-.1.1 0-.1-.1-.1-.1.2-.3 0-.4.2.3-.3-.1-.3-.1-.4-.2.2 0-.1-.3 0-.2.2-.5.4-.7.6-.4.1-.8.5-1.1.7-.2 0-.2-.2-.4-.1s.2.1-.1.2c-.1.1-.6.2-.6.5V46c-.1 0-.1.1-.1.1s-.1-.1-.1-.2c-.3 0-.4.2-.6.4h.2c-.3.3-.6.3-.9.5v-.1l-.2.2c0-.1-.2-.1-.3.1l.4-.5c.2 0-.1.2.1.3.1 0 .4-.2.4-.3l-.2.2c-.1-.1.1-.2.1-.3-.1 0-.2 0-.2.1.1-.1.2-.2.4-.3-.1.1.1 0 .1.1 0-.1.1-.3.4-.4.3 0 .4-.3.7-.5a.55.55 0 0 1-.3.5c.2 0 .2-.1.4-.2 0-.1 0-.3.2-.5l.1.1c.2-.2.1-.3.4-.4a7.62 7.62 0 0 0 1.3-.7l.1.1c.1-.3.6-.4.8-.7.5-.2.9-.6 1.2-.6.8-.5 1.4-1 2.2-1.4l-.1.2c.1-.2.1 0 .3-.1-.2 0 .1-.3.2-.4.4-.1.8-.5 1.1-.8l.1.1c.2-.3.7-.4 1.1-.6h.3c.1-.3.3-.3.5-.6l.9-.4c.8-.7 1.8-1.1 2.6-1.8l.1.1c.2-.2.4-.3.6-.5l.2-.1.1-.1v-1.3l.2.1c.1-.3 0-.6-.2-.6.1-.3-.1-.7.1-.9 0-.3-.1-.3-.1-.6.1-.6.1-.8 0-1.3v.1c0 .1.1.1.1-.1-.1-.2 0-.7-.2-.5.1-.6-.1-1.3.1-1.9-.1 0-.1-.1-.1-.2 0-.5.1-1 0-1.4 0-.1.1.1.1-.1 0-.1-.1 0-.1-.2-.1-.8.1-1.6.1-2.4-.1-1.3-.1-2.7-.1-3.9-.2-.4.2-1-.1-1.3 0-.1 0-.4.1-.3-.1-.3.1-.9 0-1.4v.1-.9h.1c.1-.2-.2 0 0-.3l-.1.1v-.2c-.4.2-.3.3-1.4 1-.8.3-.2-.3-.7.2-.1 0 0 .1 0 .1-.2.2-.5 0-.6.2.1.1-.1.1 0 .2-.5.2-.7.1-.9.4v-.1c-.3.4-.8.6-1.1 1l-6.5 4-4.9 2.8-.2.1v.6c-.2.6-.2.7-.1 1.3 0 0 0-.1-.1 0 .2 0 0 .5.2.5v2.8c0-.2-.2-.2-.1 0l.1.2c0 .1.1.3.2.1.1 2.5-.2 4.9-.2 7.3-.1.6 0 1.4 0 2-.2 1.8-.4 3.5-.2 5.3 0 0-.4-.2-.5-1z"/><path d="M38.2 46.7c.1 0 .3 0 .2.2-.1-.1-.2-.1-.2-.2zm5.3-2.1s0 .1-.1.1c.2-.1.1-.1.1-.1zm1.3-.7c0 .1-.2.3-.4.4l.4-.4zm1.4-.4c-.1.1 0 0 0 0zm0-.2c.1-.1.2 0 .2 0 0-.1-.2.1-.2 0zm2.6-1.3c.1 0 .2-.2.3-.1-.1-.1-.3.2-.3.1zm1.2-.8c.1-.1.1 0 0 0zm6.4-22l.1.2-.1-.1zm-7.5.3c-.1.1-.1 0-.2 0 .1-.1 0 .1.2 0zM44 22.8v.1z"/></g><path d="M47 41.9l27 15.7V47.2L47 31.6z" class="E"/><g class="F"><path d="M47.3 41.8c-.3-.1.1.2-.2 0 0-.1.1-.1.2 0z"/><path d="M47.1 40.9c-.4-1 0-2.3-.2-3.4 0-.1.2 0 .2-.3-.3-1-.1-2.7.1-3.9l.1.1c0-.2-.2-.5-.1-.7l.1.1c-.1-.1 0-.4-.1-.6 0 0 .1.1.2.1l-.1-.3c0-.1-.1-.2-.1-.3.1-.1.3.1.5.3s.4.3.6.3c0 0-.1 0 0 .1.8.2 1.8.9 2.7 1.3-.1 0-.1.1-.1.2.1-.1.4 0 .7.1 0 .2.5.1.7.3.3 0 .3.3.5.2l.1.2c.2-.1.2.3.5.3.2 0 .2.2.4.2.4.2.5.4.6.2.1.2-.4-.1-.3.1 1.2.5 2.3 1.2 3.5 1.8.1.1.2.2.2.3.1 0 .4.2.6.2 0 0 0 .1.1.2.2.2.3 0 .5.2-.1 0-.2 0-.2.1.3 0 .5.2.8.3h-.1c.3 0 .4.3.7.3h-.1c.3.3.2-.1.5.1h-.1c.4 0 .8.3 1.1.4.3.2.6.4 1 .5.1.1-.2.2.2.3.1-.2.6.3.5 0 .3.2.7.5.9.5-.2 0 0 .3-.2.2l.1.2c-.1 0-.2-.1-.2 0 .1.1.5.2.6.3.3 0 .6 0 .9.1-.2 0 0 .2-.1.2h.7c.1.1 0 .1.1.2h.2s.5.2.5.4c0 .1-.2-.1-.1 0 .2.1.3.1.5.2.1.1.5.2.3 0-.1-.1 0 .1-.1 0 .2 0 .4.1.6.2-.1 0-.1 0-.2.1.4 0 .7.2 1 .3 0-.1-.2.1-.2 0 .3.3.9.3 1.2.7-.1 0 0-.1 0-.1.2.1.1.2.3.3 0 .1.2.1.3.1s0 0-.1 0c.2 0 1 .4 1.4.7a1.34 1.34 0 0 0 .5.1l-.1.1c.1.1.3.2.3.3.3 0-.9-.4-.5-.3 0 .1.5.1.3.2.2.1.5.1.6.3 0 0-.2 0-.1.1.3.1.1 0 .3.1h.2c.1-.1.2.2.2 0 0 .1.4.2.3.3l-.1.1c.1.1.3 0 .4 0v.1c.1-.1.1 0 .2 0l.1.1c.1 0 .2.1.2.1.2.1.4.3.6.4 0 .3 0 .5-.1.6.1.4.2.5.1.8 0 0 0-.1-.1-.1-.1.2 0 .2 0 .3 0 0-.1.3-.2.5.1.2.2.2.3.2-.2.2.1.6-.1.9 0-.1-.1-.3-.2-.1-.2.2.2.4.1.7l.2-.1c-.1.2.1.5-.1.5.1.1-.1.4.1.3-.2.5.1 1.3-.2 1.7 0 .1 0 .3.1.2s-.1-.2 0-.2c0 .1 0 .1.1.1 0 .2 0 .3-.2.1-.1.4.3.4.2.9-.1 0-.1 0-.1.2l.1.3c0 .3-.2.2-.3.2 0 .2 0 .4.1.4l-.2.2c.1-.2.1.1.1.2v-.1.4c.1 0 .1-.3.1-.4v.2c0 .1 0 .2.1.3-.1-.1-.1.4-.1.6s.1.3.1.4c-.1 0 0 .4-.1.1 0-.1.1-.1 0-.3 0 .1-.2 0-.1.4.1.3.2.2.2.5 0-.2-.1-.2-.1-.4l-.1.3.1.2c.1.3 0 .6.1.9-.2-.1-.5-.4-.7-.5-.3-.2-.5-.3-.7-.3-.1-.1-.4-.2-.5-.2-.3-.3 0-.5-.4-.5-.3-.2-.5 0-.4.1-.3-.3-.8-.3-1-.7h-.2c-.5-.3-1.2-.5-1.5-1 .2 0 .1-.1.1-.2-.2 0-.1-.2-.2 0 0 .1-.1.1 0 .3-.3-.1-.8-.4-.9-.6.1.1 0 .1-.1.1.1-.1-.1-.3-.3-.3l-.1.1-.1-.2c-.1 0-.2.1-.3 0v-.1a1.08 1.08 0 0 1-.7-.3l-.1-.2c-.1 0-.3 0-.2.1-.3-.3-.5-.4-.5-.6-.7-.1-1.5-.5-2.2-.9h.1c-.1-.2-.2.1-.3-.1.1 0-.1-.2.1-.2-.2-.2-.4-.1-.6-.2-.1.1.2 0 .1.1 0 0-.3-.3-.4-.2 0-.1.1-.2.1-.2h-.2c-.1-.3.6 0 .5-.3l-.2-.1c-.1-.2.5.1.1-.2-.2 0-.4.1-.3.2-.3-.2-.3.2-.7 0 0-.1.3.1.3 0-.1-.2-.4-.1-.5-.3.1.1-.1.2-.2.2-.1-.2.2 0-.1-.2-.1 0-.3 0-.2.1-.2.1-.2-.2-.5-.2 0-.2.4-.1.2-.3 0 .1-.4 0-.4.2-.1-.1 0-.2.1-.2-.1-.2-.5 0-.4-.3l-.1.1c0-.1-.1-.1-.1-.2-.1-.1-.5-.1-.4-.3 0 0-.4-.2-.3 0 .2.2.3 0 .3.3-.1-.2-.3-.1-.4-.2v-.1c-.1 0-.2-.1-.3-.1.1 0 .1-.1 0-.1l-.1.1c-.3-.1 0-.2-.2-.3h.3s-.1-.2-.2-.2c-.1.1-.3.1-.3.2-.2 0 0-.1-.2-.1h.3s0-.2-.2-.3c-.2 0-.4 0-.3.2-.1-.1-.2-.2-.1-.2-.2-.1 0 .1-.3.1 0-.1-.2-.3-.3-.5h.3l-.1-.1c.3 0 0-.2.1-.2-.1-.1-.2-.1-.3-.1.2.4-.5.1-.5.3-.4-.2 0-.6-.5-.5 0 .1-.2.1 0 .2-.2-.2-.3.1-.5-.1.3 0-.1-.3.3-.3-.1 0 .1.1.2.2 0-.1.1-.2-.1-.3s-.3-.2-.4-.1.2.1.1.2c-.3-.1-.3-.3-.5-.2.2.1.2.2.1.3l-.2-.1h.1c-.3-.3-.2.1-.5-.1l-.1-.2c.2-.1.4.3.5.1-.2-.1-.3-.1-.5-.2h.2c-.1 0 0-.4-.4-.4-.2 0-.1 0-.1.1-.3-.2-.5-.2-.7-.3.1-.1-.4-.2 0-.3.1.2.6.4.8.4 0-.3.3.2.4 0-.3-.2-.2-.3-.1-.5-.1 0-.2 0-.2-.1-.1.1 0 .1 0 .3-.3-.2-.6-.3-.8-.3-.1-.1 0-.2.2-.1-.4-.2-.8-.4-1.1-.7.1.3-.4-.2-.3 0 .2.2.3.4.1.4-.1-.1 0-.1 0-.1-.2 0-.1-.3-.4-.2.4.1.2-.2.3-.3-.3-.1.1-.1-.2-.2l-.9-.3c-.3-.3-.8-.5-1.1-.7-.1-.2.1-.3-.1-.4s0 .3-.2 0c-.1 0-.5-.4-.7-.2l.2-.1h-.2c0-.1 0-.1.1-.1-.1-.2-.4-.2-.6-.3l.1.2c-.4-.1-.5-.3-.9-.5l.1-.1h-.2c.1-.1 0-.2-.2-.2l.6.1c.1.1-.2 0-.2.2 0 .1.3.3.5.2-.1-.1-.1-.1-.2-.1 0-.2.2 0 .3-.1-.1 0-.1-.1-.2-.1.2 0 .3.1.5.2-.2 0 0 .1 0 .1.1-.1.3 0 .5.1.1.2.5.2.8.4-.2 0-.4.1-.6 0 .1.2.2.1.3.3.1 0 .3-.1.5-.1v.1c.2.1.3 0 .6.1a9.13 9.13 0 0 0 1.3.8v.1c.3-.1.7.3 1 .4.4.3 1 .5 1.2.8l2.3 1.2h-.2c.2 0 0 .1.2.2-.1-.2.3 0 .4 0 .3.3.8.5 1.2.6v.1c.4 0 .7.4 1.1.7 0 .1 0 .2.2.3.3 0 .4.1.8.2.2.1.6.4.8.6 1 .3 1.8 1 2.8 1.4v.1c1 .3 2 1.1 2.8 1.5l-.2.1c.2.2.6.3.6.1.2.2.7.3.7.5.2.2.3.1.6.2l1.1.7-.1-.1c-.1 0-.1.1 0 .2.2 0 .6.4.6.1.4.4 1.2.6 1.6 1 0-.1.1 0 .2 0 .2.1.4.3.6.4.1.1.2.1.3.2h.1s-.1.1 0 .1v-.1c.1 0 .1 0 .3.2 0 0 .1-.1.1-.2v-3.4c-.2-.4.2-1-.1-1.3 0-.1 0-.4.1-.3-.1-.3.1-.9 0-1.4v.1c.1-.5 0-.9.1-1.4 0 0 0 .2.1.2.1-.2-.2-.5 0-.6h-.1v-.2c-.1-.1-.1-.1-.3-.2s-.4-.2-.7-.3c-.4-.2-.9-.4-1.3-.7-.7-.5.2-.4-.5-.5 0-.1-.1.1-.1 0-.3-.1-.2-.4-.4-.4 0 .2-.1 0-.2.1-.4-.3-.4-.5-.8-.6h.1c-.5 0-.9-.4-1.4-.4l-6.8-3.7-6.5-3.8c-.4-.5-.5-.5-1.1-.8h.1c-.1.1-.4-.2-.5-.1l-2.4-1.4c.1.1.3 0 .1-.1h-.2c-.1 0-.3 0-.2.1l-1.9-1-.2-.1s0-.1-.1-.1l-.1.1v1.2c-.1.6 0 1.4 0 2-.2 1.8-.4 3.5-.2 5.4-.9-1.1-1.4-1.3-1.5-2.1z"/><path d="M47.6 42c0 .1.2.3 0 .3 0-.2-.1-.3 0-.3zm4.5 3.5s.1.1 0 0c0 .1-.1.1 0 0-.1.1 0 .1 0 0zm1.2.8c-.1 0-.3 0-.5-.1l.5.1zm1.1 1c.1.1 0 .1 0 0-.1 0-.1 0 0 0zm.1-.1l.2.2c0-.1-.2-.2-.2-.2zm2.5 1.6c.1 0 .2 0 .2.2 0-.1-.3-.1-.2-.2zm1.2.6c.1 0 .1.1 0 0 .2.1.1.1 0 0zm16.4.9v.2h-.1zm-7.1-7.5c-.2 0 0-.1 0 0 .1 0-.1 0 0 0zm-5.2-2.6l-.1.1z"/></g><path d="M47 31.6l27 15.6 9-5.2-27.1-15.6z" class="E"/><g class="F"><path d="M47.3 31.4c-.3-.1.1.2-.2 0 0-.1.1-.1.2 0zm.6-.2c.7-.8 2-1.1 2.8-1.9.1-.1.1.2.3 0 .8-.8 2.3-1.5 3.5-1.9v.1c.2-.1.4-.4.6-.5v.1c0-.1.4-.3.4-.4.1 0 .1.1.2.1 0-.1 0-.1.1-.2 0 0 .1-.1.1-.2.3 0 .7.5 1.2.6 0 0-.1 0-.1.1.9.3 1.8.9 2.7 1.3-.1 0-.1.1-.1.2.1-.1.4 0 .7.1 0 .2.5.1.7.3.3 0 .3.3.5.2l.1.2c.2-.1.2.3.5.3.2 0 .2.2.4.2.4.2.5.4.6.2.1.2-.4-.1-.3.1 1.2.5 2.3 1.2 3.5 1.8.1.1.2.2.2.3.1 0 .4.2.6.2 0 0 0 .1.1.2.2.2.3 0 .5.2-.1 0-.2 0-.2.1.3 0 .5.2.8.3h-.1c.3 0 .4.3.7.3h-.1c.3.3.2-.1.5.1h-.1c.4 0 .8.3 1.1.4.3.2.6.4 1 .5.1.1-.2.2.2.3.1-.2.6.3.5 0 .3.2.7.5.9.5-.2 0 0 .3-.2.2l.1.2c-.1 0-.2-.1-.2 0 .1.1.5.2.6.3.3 0 .6 0 .9.1-.2 0 0 .2-.1.2h.7c.1.1 0 .1.1.2h.2s.5.2.5.4c0 .1-.2-.1-.1 0 .2.1.3.1.5.2.1.1.5.2.3 0-.1-.1 0 .1-.1 0 .2 0 .4.1.6.2-.1 0-.1 0-.2.1.4 0 .7.2 1 .3 0-.1-.2.1-.2 0 .3.3.9.3 1.2.7-.1 0 0-.1 0-.1.2.1.1.2.3.3 0 .1.2.1.3.1s0 0-.1 0c.2 0 1 .4 1.4.7a1.34 1.34 0 0 0 .5.1l-.1.1c.1.1.3.2.3.3.3 0-.9-.4-.5-.3 0 .1.5.1.3.2.2.1.5.1.6.3 0 0-.2 0-.1.1.3.1.1 0 .3.1h.2c0-.1.3.2.3 0 0 .1.7.3.5.4l-.2.1c.2.1.4.1.6.1v.1c.3-.1.4.3.9.3.1.1.4.3.6.4-.3.1-.5.3-.7.3-.2.2-.3.4-.8.5l.1-.1c-.3.1-.3.1-.4.3 0 0-.5.2-.8.2-.2.2 0 .2 0 .3-.3-.1-.5.4-.8.4 0-.1.2-.3 0-.2-.3-.1-.3.3-.6.4l.2.1c-.2 0-.4.3-.4.2-.1.1-.4.1-.3.3-.5.1-1.1.7-1.5.6 0 .1-.2.1-.2.2.2 0 .1-.2.2-.1-.1 0 0 .1 0 .1-.2 0-.3.1-.2-.1-.4.1-.2.5-.6.6 0-.1-.1-.1-.2 0l-.2.2c-.3.1-.2-.1-.3-.2-.1.1-.3.2-.3.3h-.3c.2 0-.1.1-.1.2v-.1s-.2.1-.3.2c.1.1.2 0 .3 0 0 .1-.2.1-.2.3 0-.1-.3.1-.4.1s-.1.2-.1.2-.2.1-.2 0c0 0 .1 0 .2-.1-.1 0-.2-.1-.3.1-.1.1.2.2-.1.3.1-.1 0-.1.1-.2-.1 0-.2.1-.3.1v.1H75c-.1.2-.4.3-.6.5-.2-.1-.4-.3-.6-.4-.2-.2-.4-.3-.6-.3-.1 0-.3-.1-.4-.1-.2-.2.1-.4-.1-.4-.2-.1-.4 0-.4.1-.3-.3-.8-.3-1-.7h-.2c-.5-.3-1.2-.5-1.5-1 .2 0 .1-.1.1-.2-.2 0-.1-.2-.2 0 0 .1-.1.1 0 .3-.3-.1-.8-.4-.9-.6.1.1 0 .1-.1.1.1-.1-.1-.3-.3-.3l-.1.1-.1-.2c-.1 0-.2.1-.3 0v-.1a1.08 1.08 0 0 1-.7-.3l-.1-.2c-.1 0-.3 0-.2.1-.3-.3-.5-.4-.5-.6-.7-.1-1.5-.5-2.2-.9h.1c-.1-.2-.2.1-.3-.1.1 0-.1-.2.1-.2-.2-.2-.4-.1-.6-.2-.1.1.2 0 .1.1 0 0-.3-.3-.4-.2 0-.1.1-.2.1-.2h-.2c-.1-.3.6 0 .5-.3l-.2-.1c-.1-.2.5.1.1-.2-.2 0-.4.1-.3.2-.3-.2-.3.2-.7 0 0-.1.3.1.3 0-.1-.2-.4-.1-.5-.3.1.1-.1.2-.2.2-.1-.2.2 0-.1-.2-.1 0-.3 0-.2.1-.2.1-.2-.2-.5-.2 0-.2.4-.1.2-.3 0 .1-.4 0-.4.2-.1-.1 0-.2.1-.2-.1-.2-.5 0-.4-.3l-.1.1c0-.1-.1-.1-.1-.2-.1-.1-.5-.1-.4-.3 0 0-.4-.2-.3 0 .2.2.3 0 .3.3-.1-.2-.3-.1-.4-.2v-.1c-.1 0-.2-.1-.3-.1.1 0 .1-.1 0-.1l-.1.1c-.3-.1 0-.2-.2-.3h.3s-.1-.2-.2-.2c-.1.1-.3.1-.3.2-.2 0 0-.1-.2-.1h.3s0-.2-.2-.3c-.2 0-.4 0-.3.2-.1-.1-.2-.2-.1-.2-.2-.1 0 .1-.3.1 0-.1-.2-.3-.3-.5h.3l-.1-.1c.3 0 0-.2.1-.2-.1-.1-.2-.1-.3-.1.2.4-.5.1-.5.3-.4-.2 0-.6-.5-.5 0 .1-.2.1 0 .2-.2-.2-.3.1-.5-.1.3 0-.1-.3.3-.3-.1 0 .1.1.2.2 0-.1.1-.2-.1-.3s-.3-.2-.4-.1.2.1.1.2c-.3-.1-.3-.3-.5-.2.2.1.2.2.1.3l-.2-.1h.1c-.3-.3-.2.1-.5-.1l-.1-.2c.2-.1.4.3.5.1-.2-.1-.3-.1-.5-.2h.2c-.1 0 0-.4-.4-.4-.2 0-.1 0-.1.1-.3-.2-.5-.2-.7-.3.1-.1-.4-.2 0-.3.1.2.6.4.8.4 0-.3.3.2.4 0-.3-.2-.2-.3-.1-.5-.1 0-.2 0-.2-.1-.1.1 0 .1 0 .3-.3-.2-.6-.3-.8-.3-.1-.1 0-.2.2-.1-.4-.2-.8-.4-1.1-.7.1.3-.4-.2-.3 0 .2.2.3.4.1.4-.1-.1 0-.1 0-.1-.2 0-.1-.3-.4-.2.4.1.2-.2.3-.3-.3-.1.1-.1-.2-.2l-.9-.3c-.3-.3-.8-.5-1.1-.7-.1-.2.1-.3-.1-.4s0 .3-.2 0c-.1 0-.5-.4-.7-.2l.2-.1h-.2c0-.1 0-.1.1-.1-.1-.2-.4-.2-.6-.3l.1.2c-.4-.1-.5-.3-.9-.5l.1-.1h-.2c.1-.1 0-.2-.2-.2l.6.1c.1.1-.2 0-.2.2 0 .1.3.3.5.2-.1-.1-.1-.1-.2-.1 0-.2.2 0 .3-.1-.1 0-.1-.1-.2-.1.2 0 .3.1.5.2-.2 0 0 .1 0 .1.1-.1.3 0 .5.1.1.2.5.2.8.4-.2 0-.4.1-.6 0 .1.2.2.1.3.3.1 0 .3-.1.5-.1v.1c.2.1.3 0 .6.1a9.13 9.13 0 0 0 1.3.8v.1c.3-.1.7.3 1 .4.4.3 1 .5 1.2.8l2.3 1.2h-.2c.2 0 0 .1.2.2-.1-.2.3 0 .4 0 .3.3.8.5 1.2.6v.1c.4 0 .7.4 1.1.7 0 .1 0 .2.2.3.3 0 .4.1.8.2.2.1.6.4.8.6 1 .3 1.8 1 2.8 1.4v.1c1 .3 2 1.1 2.8 1.5l-.2.1c.2.2.6.3.6.1.2.2.7.3.7.5.2.2.3.1.6.2l1.1.7-.1-.1c-.1 0-.1.1 0 .2.2 0 .6.4.6.1.4.4 1.2.6 1.6 1 0-.1.1 0 .2 0 .4.3.8.6 1.2.7 0 .1-.2 0 0 .1.1 0 0-.1.2 0l.6.3c.1 0 .1.1.1.1h.1a.76.76 0 0 0 .4-.2c1.1-.8 2.3-1.4 3.4-2 .3-.4 1-.3 1.1-.7.1 0 .3-.2.3 0 .2-.3.9-.4 1.2-.8 0 0-.1 0-.1.1.1 0 .2-.1.3-.1.1-.1.2-.1.2-.1.1 0 .1-.1.2-.1v.1c.2 0-.1-.2.3-.1H82c.1 0 .2-.1.2-.1-.3-.2-.4-.1-1.5-.7-.7-.5.2-.4-.5-.5 0-.1-.1.1-.1 0-.3-.1-.2-.4-.4-.4 0 .2-.1 0-.2.1-.4-.3-.4-.5-.8-.6h.1c-.5 0-.9-.4-1.4-.4l-6.8-3.7-6.5-3.8c-.4-.5-.5-.5-1.1-.8h.1c-.1.1-.4-.2-.5-.1l-2.4-1.4c.1.1.3 0 .1-.1h-.2c-.1 0-.3 0-.2.1l-1.9-1-.9-.6-.2-.1c-.1 0-.2-.1-.2-.1l-.1.1-.7.3-1.3.7c-.5.2-1.2.7-1.7 1-1.7.7-3.2 1.4-4.8 2.5-.8-.9-.8-1.4-.2-1.9zm-.3.4c0 .1.2.3 0 .3 0-.1-.1-.3 0-.3zm4.5 3.6s.1.1 0 0c0 .1-.1.1 0 0z"/><path d="M53.3 36c-.1 0-.3 0-.5-.1l.5.1zm1.1.9c.1.1 0 .1 0 0-.1 0-.1 0 0 0zm.1-.1l.2.2c0-.1-.2-.1-.2-.2zm2.5 1.7c.1 0 .2 0 .2.2 0-.2-.3-.2-.2-.2zm1.2.6c.2.1.1.1 0 0zm22.3 5l-.1.1v-.1zm-4-6.5c-.2 0-.1-.1 0 0 .1 0-.2 0 0 0zM71.2 35h.1l-.1.1z"/></g><g fill="#878787"><path d="M78.6 39.7c0-.1-.1-.1 0 0 0-.1 0 0 0 0zm-8.9 5c-.1-.4.3-.1.2-.4 0 0 .1.2.1.1 0-.3.2-.3.5-.2v.1-.3s.1.1.1.2v-.1c-.1-.3.1 0 .1-.2v.1c0-.2.1-.3.2-.4 0 0 .1.1.1.2-.1-.1 0-.2 0-.2.1.1 0-.1.1-.1 0-.2.1 0 0-.1l.1.1c-.1-.2.1.1.1 0h.1c0-.1.1 0 0-.1.1.1 0 .1.1.2a.78.78 0 0 1 .4-.4l.1.1v-.1s0 .1.1.1-.1-.2 0-.1c0 0 0 .1.1.1v-.1c0-.1.1 0 0-.1v.1c.1.1-.1-.2 0-.1v.1-.2s.1 0 .1-.1l.1.2c-.1-.2 0-.1-.1-.3h.1c0 .1.1.2.1.2l.1.1v.1-.1c0-.1-.1-.3-.1-.4 0 .1.1.2.1.2l-.1-.3.1.1v-.1s0-.1.1.1v.1-.1s0-.1-.1-.2c0 0 .1.1 0 .1v-.4c0-.1.1.2 0 .1.1.1 0-.2.2-.1 0 0-.1-.1 0-.1l.1.1c0 .1 0 0 0-.1s0-.2.1-.2c0 0-.1-.2 0-.2v.1h.1c0-.1 0 .2-.1 0 .1.1 0-.2 0 0 0 0 0-.1.1-.1 0 0 .1.2.1.1v-.2c0 .1 0-.1.1.1l.1.1s0-.2-.1-.2c-.1-.2 0 0 0-.2.1 0 .1 0 .2.1v-.1.1l.2.2c0-.1-.1-.2-.1-.2.1.2 0-.2.1 0 0 0 0 .1.1.2.1.2 0-.2 0-.1l-.1-.2c.1.1 0-.1.1 0 0-.1.1 0 0-.1.1.1.1-.2.3.1v-.1c-.1-.1 0 .1 0 0v-.1s.1 0 .1.2c.1.1-.1-.3 0-.3 0 .1 0 .1.1.1v-.1l.2.2v-.1l.1.1c-.1-.1 0-.1 0-.1 0-.1-.1-.1-.1-.1V41l.1.1V41l.1.1s.1.1.1 0-.1-.2 0-.2v.1h.1v-.3h.1v-.2c.1.1.2.4.2.2 0 0-.1-.2-.1-.3.1 0 0-.2.2 0v-.1c.1 0 .1-.2.2 0 0 0 0 .1.1.2 0-.1.1.1 0-.1 0-.1-.1-.1-.1-.2s.1-.1.1 0v-.1c.1.1.1.2.1.1v-.1l.1.1s-.1-.2 0-.1c0 0 0 .1.1.1V40l.1.1s0-.1-.1-.1c.1 0 .1 0 .2.1-.1-.3 0-.4.1-.4v.1c.1 0 0-.1 0-.1 0 .1.1.1.1.2.1 0 0-.1 0-.2s0 .1 0 0c0 0 .1 0 0-.1 0 0 .1.1.1.2v-.1c.1.1.1.3.2.5.1.1 0 .2.1.2 0-.1-.1-.3-.2-.3 0-.1-.2-.3-.1-.3v.1c.1.1 0-.1 0-.1l-.1-.2c.1 0 0 .1.1.1 0-.1 0-.2-.1-.2-.1-.2.1 0 0-.1.1.1.1.3.2.3-.1-.1 0-.2-.2-.3 0 0 .1.1.1.2.1.1-.1-.2.1 0l-.1-.1s0 .1.1.1c0 0 0-.2.1 0v-.2c-.1-.1 0 .1-.1 0 .1.1 0 0 0-.1v.1-.1s0 .1.1.1v-.1c0-.1.1.2.1.1v.1s.1.1.1 0-.1-.2-.1-.3c0 0 .1.1 0 0v.1l.1.1-.1-.2s.1 0 .1.1c0 0-.1-.1-.1-.2 0 .1.1.1.2.2l.1.2c0 .1.1.1.1.2v-.1c-.2-.2-.1-.3-.3-.5 0-.1.3.5.2.1 0 0-.1-.2-.1-.1 0 0-.1-.2 0-.1 0 .1.1.2.2.3 0-.1 0 0 0 0 0 .1.1.2.1.2v-.1l-.1-.1c0-.1.1.1 0-.1 0 0-.1-.1-.1-.2v-.1.1c.1 0-.1-.1 0-.1l.1.1c.1.1-.1 0 0 .2v-.1s.2.3.1.1c0-.1 0-.1-.1-.2v-.2c.1.2.1 0 .1.2-.1-.1-.1 0 0 .1.1.2 0 0 0 .2a1.44 1.44 0 0 0 .2.3v-.1c-.1-.1-.1-.1-.1-.2 0 0 .1-.1 0-.2l.1.2c0-.1.1-.1.2-.1-.1-.2 0-.1-.1-.2l-.2-.2s0 .1.1.1c0-.1.1.1 0 0 0 .1.1.2.2.4 0-.1 0 .1.1.1v-.2c.1.1.1-.1.1-.1.1.1.1.2.2.2 0 0-.1-.2 0-.1 0 0 .1.1 0-.2l.1.2.1.1c.1.1 0 0 .1-.1l-.1-.1c0-.1.1 0 .1-.1v.1-.1c0 .1.1.1.1.1l.1.3s0-.1-.1-.2-.1 0 0 .1v-.1c.1.1.1.1.1.2v.1c0-.1-.1-.1-.1-.1.1.1.1.2 0 .2-.1-.1 0 .1-.1.1 0-.1-.1-.2-.1-.3h-.1c0 .1.1.2.1.3v-.1c0 .1.1.2 0 .2H78v-.1c.1.2 0 .1 0 .2-.1 0-.1.2-.2 0-.1.1-.1.2-.2.3l-.1-.1c0 .1 0-.1-.1 0 .1.1 0 .2.1.2-.1-.1-.1.1-.1.2v-.1c0 .2-.1.1-.1.1l-.1-.1v.3H77c0 .3-.2.2-.2.4l-.1-.1c0 .3-.2.2-.3.3l-.1-.2c-.1 0 0 .1 0 .2-.1 0 0 .1-.1 0v.1c-.1 0-.1 0-.2.1l-.1-.1c0 .1-.1 0 0 .2-.1-.1-.1.2-.2 0v.1s-.2 0-.2.1c0 0 0-.1-.1-.1v.1c0 .2-.2 0-.3.1-.1.2-.3.2-.4.3 0 .2-.2-.1-.1.2l-.1-.1c0 .1-.2 0-.1.1-.1-.1-.1.1-.2 0v-.1c-.1-.1 0 .2-.1 0v.1c-.2 0-.2.2-.3.3-.2-.1-.2-.3-.2-.2 0 0 0 .1 0 0 0 .1-.2-.2-.1-.1s0 .1.1.2c-.1 0-.2-.2-.2 0v-.1c.1.2-.1.2 0 .4-.3.2-.5.5-.7.7-.3.1-.5.4-.8.4-.2-.1-.2-.1-.2 0v-.1c.1.1 0 0 0 .2-.1 0-.2.1-.3.2 0 0 0-.2-.1-.1v.1s0 .1.1.1c-.2.3-.6.1-.9.3-.1 0-.2.1-.2.2-.3-.1-.6-.1-.7.1.3.2.1-.2.1-.3z"/><path d="M78.6 39.7c0-.1-.1-.1-.1-.2 0 .1 0 .1.1.2zm-1.1-.4s0-.1 0 0zm-.2.1v-.2.2zm-.3-.2s0-.1 0 0c0-.1 0 0 0 0zm.1.1c0 .1 0 0 0 0s0-.1 0 0zm-.4 0s0 .1 0 0c0 .1 0 0 0 0zm-.1.2zm-2.5 1.8v.1zm-1.2.7c0 .1-.1 0 0 0-.1-.1 0 0 0 0zm-.5.7l.1.1zm1.7-5.6c0-.1-.1-.1 0 0zm-8.9 5c-.1-.4.3-.1.2-.4 0 0 .1.2.1.1 0-.3.2-.3.5-.2v.1-.3s.1.1.1.2v-.1c-.1-.3.1 0 .1-.2v.1c0-.2.1-.3.2-.4 0 0 .1.1.1.2-.1-.1 0-.2 0-.2.1.1 0-.1.1-.1 0-.2.1 0 0-.1l.1.1c-.1-.2.1.1.1 0h.1c0-.1.1 0 0-.1.1.1 0 .1.1.2a.78.78 0 0 1 .4-.4l.1.1v-.1s0 .1.1.1-.1-.2 0-.1c0 0 0 .1.1.1v-.1c0-.1.1 0 0-.1v.1c.1.1-.1-.2 0-.1v.1-.2s.1 0 .1-.1l.1.2c-.1-.2 0-.1-.1-.3h.1c0 .1.1.2.1.2l.1.1v.1-.1c0-.1-.1-.3-.1-.4 0 .1.1.2.1.2L68 40l.1.1V40s0-.1.1.1v.1-.1s0-.1-.1-.2c0 0 .1.1 0 .1v-.4c0-.1.1.2 0 .1.1.1 0-.2.2-.1 0 0-.1-.1 0-.1l.1.1c0 .1 0 0 0-.1s0-.2.1-.2c0 0-.1-.2 0-.2v.1h.1c0-.1 0 .2-.1 0 .1.1 0-.2 0 0 0 0 0-.1.1-.1 0 0 .1.2.1.1V39c0 .1 0-.1.1.1l.1.1s0-.2-.1-.2c-.1-.2 0 0 0-.2.1 0 .1 0 .2.1v-.1.1l.2.2c0-.1-.1-.2-.1-.2.1.2 0-.2.1 0 0 0 0 .1.1.2.1.2 0-.2 0-.1l-.1-.2c.1.1 0-.1.1 0 0-.1.1 0 0-.1.1.1.1-.2.3.1v-.1c-.1-.1 0 .1 0 0v-.1s.1 0 .1.2c.1.1-.1-.3 0-.3 0 .1 0 .1.1.1v-.1l.2.2v-.1l.1.1c-.1-.1 0-.1 0-.1 0-.1-.1-.1-.1-.1v-.1l.1.1v-.1l.1.1s.1.1.1 0-.1-.2 0-.2v.1h.1v-.3h.1v-.2c.1.1.2.4.2.2 0 0-.1-.2-.1-.3.1 0 0-.2.2 0v-.1c.1 0 .1-.2.2 0 0 0 0 .1.1.2 0-.1.1.1 0-.1 0-.1-.1-.1-.1-.2s.1-.1.1 0v-.1c.1.1.1.2.1.1v-.1l.1.1s-.1-.2 0-.1c0 0 0 .1.1.1v-.2l.1.1s0-.1-.1-.1c.1 0 .1 0 .2.1-.1-.3 0-.4.1-.4v.1c.1 0 0-.1 0-.1 0 .1.1.1.1.2.1 0 0-.1 0-.2s0 .1 0 0c0 0 .1 0 0-.1 0 0 .1.1.1.2v-.1c.1.1.1.3.2.5.1.1 0 .2.1.2 0-.1-.1-.3-.2-.3 0-.1-.2-.3-.1-.3v.1c.1.1 0-.1 0-.1l-.1-.2c.1 0 0 .1.1.1 0-.1 0-.2-.1-.2-.1-.2.1 0 0-.1.1.1.1.3.2.3-.1-.1 0-.2-.2-.3 0 0 .1.1.1.2.1.1-.1-.2.1 0l-.1-.1s0 .1.1.1c0 0 0-.2.1 0v-.2c-.1-.1 0 .1-.1 0 .1.1 0 0 0-.1v.1-.1s0 .1.1.1v-.1c0-.1.1.2.1.1v.1s.1.1.1 0-.1-.2-.1-.3c0 0 .1.1 0 0v.1l.1.1-.1-.2s.1 0 .1.1c0 0-.1-.1-.1-.2 0 .1.1.1.2.2l.1.2c0 .1.1.1.1.2V37c-.2-.2-.1-.3-.3-.5 0-.1.3.5.2.1 0 0-.1-.2-.1-.1 0 0-.1-.2 0-.1 0 .1.1.2.2.3 0-.1 0 0 0 0 0 .1.1.2.1.2v-.1l-.1-.1c0-.1.1.1 0-.1 0 0-.1-.1-.1-.2v-.1.1c.1 0-.1-.1 0-.1l.1.1c.1.1-.1 0 0 .2v-.1s.2.3.1.1c0-.1 0-.1-.1-.2v-.2c.1.2.1 0 .1.2-.1-.1-.1 0 0 .1.1.2 0 0 0 .2a1.44 1.44 0 0 0 .2.3v-.1c-.1-.1-.1-.1-.1-.2 0 0 .1-.1 0-.2l.1.2c0-.1.1-.1.2-.1-.1-.2 0-.1-.1-.2l-.2-.2s0 .1.1.1c0-.1.1.1 0 0 0 .1.1.2.2.4 0-.1 0 .1.1.1v-.2c.1.1.1-.1.1-.1.1.1.1.2.2.2 0 0-.1-.2 0-.1 0 0 .1.1 0-.2l.1.2.1.1c.1.1 0 0 .1-.1l-.1-.1c0-.1.1 0 .1-.1v.1-.1c0 .1.1.1.1.1l.1.3s0-.1-.1-.2-.1 0 0 .1v-.1c.1.1.1.1.1.2v.1c0-.1-.1-.1-.1-.1.1.1.1.2 0 .2-.1-.1 0 .1-.1.1 0-.1-.1-.2-.1-.3h-.1c0 .1.1.2.1.3V37c0 .1.1.2 0 .2h-.2v-.1c.1.2 0 .1 0 .2-.1 0-.1.2-.2 0-.1.1-.1.2-.2.3l-.1-.1c0 .1 0-.1-.1 0 .1.1 0 .2.1.2-.1-.1-.1.1-.1.2v-.1c0 .2-.1.1-.1.1l-.1-.1v.3h-.2c0 .3-.2.2-.2.4l-.1-.1c0 .3-.2.2-.3.3l-.1-.2c-.1 0 0 .1 0 .2-.1 0 0 .1-.1 0v.1c-.1 0-.1 0-.2.1l-.1-.1c0 .1-.1 0 0 .2-.1-.1-.1.2-.2 0v.1s-.2 0-.2.1c0 0 0-.1-.1-.1v.1c0 .2-.2 0-.3.1-.1.2-.3.2-.4.3 0 .2-.2-.1-.1.2l-.1-.1c0 .1-.2 0-.1.1-.1-.1-.1.1-.2 0v-.1c-.1-.1 0 .2-.1 0v.1c-.2 0-.2.2-.3.3-.2-.1-.2-.3-.2-.2 0 0 0 .1 0 0 0 .1-.2-.2-.1-.1s0 .1.1.2c-.1 0-.2-.2-.2 0v-.1c.1.2-.1.2 0 .4-.3.2-.5.5-.7.7-.3.1-.5.4-.8.4-.2-.1-.2-.1-.2 0v-.1c.1.1 0 0 0 .2-.1 0-.2.1-.3.2 0 0 0-.2-.1-.1v.1s0 .1.1.1c-.2.3-.6.1-.9.3-.1 0-.2.1-.2.2-.3-.1-.6-.1-.7.1.3.2.1-.2.1-.3z"/><path d="M74 37.1c0-.1-.1-.1-.1-.2.1.1.1.1.1.2zm-1-.4s0-.1 0 0c0-.1 0 0 0 0zm-.2.1v-.2.2zm-.3-.2c0-.1 0-.1 0 0 0-.1 0 0 0 0zm.1.1c0 .1 0 0 0 0s-.1-.1 0 0zm-.4 0c0 .1 0 .1 0 0 0 .1-.1-.1 0 0zm-.1.2c-.1 0-.1-.1 0 0zm-2.6 1.8l.1.1zm-1.1.7c0 .1-.1 0 0 0-.1-.1 0 0 0 0zm-.5.7l.1.1zm1.7-5.6c0-.1-.1-.1 0 0 0-.1 0 0 0 0zm-8.9 5c-.1-.4.3-.1.2-.4 0 0 .1.2.1.1 0-.3.2-.3.5-.2v.1-.3s.1.1.1.2v-.1c-.1-.3.1 0 .1-.2v.1c0-.2.1-.3.2-.4 0 0 .1.1.1.2-.1-.1 0-.2 0-.2.1.1 0-.1.1-.1 0-.2.1 0 0-.1l.1.1c-.1-.2.1.1.1 0h.1c0-.1.1 0 0-.1.1.1 0 .1.1.2a.78.78 0 0 1 .4-.4l.1.1V38s0 .1.1.1-.1-.2 0-.1c0 0 0 .1.1.1V38c0-.1.1 0 0-.1v.1c.1.1-.1-.2 0-.1v.1-.2s.1 0 .1-.1l.1.2c-.1-.2 0-.1-.1-.3h.1c0 .1.1.2.1.2l.1.1v.1-.1c0-.1-.1-.3-.1-.4 0 .1.1.2.1.2l-.1-.3.1.1v-.1s0-.1.1.1v.1-.1s0-.1-.1-.2c0 0 .1.1 0 .1V37c0-.1.1.2 0 .1.1.1 0-.2.2-.1 0 0-.1-.1 0-.1l.1.1c0 .1 0 0 0-.1s0-.2.1-.2c0 0-.1-.2 0-.2v.1h.1c0-.1 0 .2-.1 0 .1.1 0-.2 0 0 0 0 0-.1.1-.1 0 0 .1.2.1.1v-.2c0 .1 0-.1.1.1l.1.1s0-.2-.1-.2c-.1-.2 0 0 0-.2.1 0 .1 0 .2.1v-.1.1l.2.2c0-.1-.1-.2-.1-.2.1.2 0-.2.1 0 0 0 0 .1.1.2.1.2 0-.2 0-.1l-.1-.2c.1.1 0-.1.1 0 0-.1.1 0 0-.1.1.1.1-.2.3.1v-.1c-.1-.1 0 .1 0 0V36s.1 0 .1.2c.1.1-.1-.3 0-.3 0 .1 0 .1.1.1v-.1l.2.2V36l.1.1c-.1-.1 0-.1 0-.1 0-.1-.1-.1-.1-.1v-.1l.1.1v-.1l.1.1s.1.1.1 0-.1-.2 0-.2v.1h.1v-.3h.1v-.2c.1.1.2.4.2.2 0 0-.1-.2-.1-.3.1 0 0-.2.2 0v-.1c.1 0 .1-.2.2 0 0 0 0 .1.1.2 0-.1.1.1 0-.1 0-.1-.1-.1-.1-.2s.1-.1.1 0v-.1c.1.1.1.2.1.1v-.1l.1.1s-.1-.2 0-.1c0 0 0 .1.1.1v-.2l.1.1s0-.1-.1-.1c.1 0 .1 0 .2.1-.1-.3 0-.4.1-.4v.1c.1 0 0-.1 0-.1 0 .1.1.1.1.2.1 0 0-.1 0-.2s0 .1 0 0c0 0 .1 0 0-.1 0 0 .1.1.1.2v-.1c.1.1.1.3.2.5.1.1 0 .2.1.2 0-.1-.1-.3-.2-.3 0-.1-.2-.3-.1-.3v.1c.1.1 0-.1 0-.1l-.1-.2c.1 0 0 .1.1.1 0-.1 0-.2-.1-.2-.1-.2.1 0 0-.1.1.1.1.3.2.3-.1-.1 0-.2-.2-.3 0 0 .1.1.1.2.1.1-.1-.2.1 0l-.1-.1s0 .1.1.1c0 0 0-.2.1 0v-.2c-.1-.1 0 .1-.1 0 .1.1 0 0 0-.1v.1-.1s0 .1.1.1v-.1c0-.1.1.2.1.1v.1s.1.1.1 0-.1-.2-.1-.3c0 0 .1.1 0 0v.1l.1.1-.1-.2s.1 0 .1.1c0 0-.1-.1-.1-.2 0 .1.1.1.2.2l.1.2c0 .1.1.1.1.2v-.1c-.2-.2-.1-.3-.3-.5 0-.1.3.5.2.1 0 0-.1-.2-.1-.1 0 0-.1-.2 0-.1 0 .1.1.2.2.3 0-.1 0 0 0 0 0 .1.1.2.1.2v-.1l-.1-.1c0-.1.1.1 0-.1 0 0-.1-.1-.1-.2v-.1.1c.1 0-.1-.1 0-.1l.1.1c.1.1-.1 0 0 .2v-.1s.2.3.1.1c0-.1 0-.1-.1-.2v-.2c.1.2.1 0 .1.2-.1-.1-.1 0 0 .1.1.2 0 0 0 .2a1.44 1.44 0 0 0 .2.3v-.1c-.1-.1-.1-.1-.1-.2 0 0 .1-.1 0-.2l.1.2c0-.1.1-.1.2-.1-.1-.2 0-.1-.1-.2l-.2-.2s0 .1.1.1c0-.1.1.1 0 0 0 .1.1.2.2.4 0-.1 0 .1.1.1V34c.1.1.1-.1.1-.1.1.1.1.2.2.2 0 0-.1-.2 0-.1 0 0 .1.1 0-.2l.1.2.1.1c.1.1 0 0 .1-.1l-.1-.1c0-.1.1 0 .1-.1v.1-.1c0 .1.1.1.1.1l.1.3s0-.1-.1-.2-.1 0 0 .1V34c.1.1.1.1.1.2v.1c0-.1-.1-.1-.1-.1.1.1.1.2 0 .2-.1-.1 0 .1-.1.1 0-.1-.1-.2-.1-.3h-.1c0 .1.1.2.1.3v-.1c0 .1.1.2 0 .2H69v-.1c.1.2 0 .1 0 .2-.1 0-.1.2-.2 0-.1.1-.1.2-.2.3l-.1-.1c0 .1 0-.1-.1 0 .1.1 0 .2.1.2-.1-.1-.1.1-.1.2v-.1c0 .2-.1.1-.1.1l-.1-.1v.3H68c0 .3-.2.2-.2.4l-.1-.1c0 .3-.2.2-.3.3l-.1-.2c-.1 0 0 .1 0 .2-.1 0 0 .1-.1 0v.1c-.1 0-.1 0-.2.1l-.1-.1c0 .1-.1 0 0 .2-.1-.1-.1.2-.2 0v.1s-.2 0-.2.1c0 0 0-.1-.1-.1v.1c0 .2-.2 0-.3.1-.1.2-.3.2-.4.3 0 .2-.2-.1-.1.2l-.1-.1c0 .1-.2 0-.1.1-.1-.1-.1.1-.2 0v-.1c-.1-.1 0 .2-.1 0v.1c-.2 0-.2.2-.3.3-.2-.1-.2-.3-.2-.2 0 0 0 .1 0 0 0 .1-.2-.2-.1-.1s0 .1.1.2c-.1 0-.2-.2-.2 0v-.1c.1.2-.1.2 0 .4-.3.2-.5.5-.7.7-.3.1-.5.4-.8.4-.2-.1-.2-.1-.2 0v-.1c.1.1 0 0 0 .2-.1 0-.2.1-.3.2 0 0 0-.2-.1-.1v.1s0 .1.1.1c-.2.3-.6.1-.9.3-.1 0-.2.1-.2.2-.3-.1-.6-.1-.7.1.2.2.1-.2.1-.3z"/><path d="M69.5 34.5c0-.1-.1-.1-.1-.2.1.1.1.1.1.2zm-1-.4s-.1-.1 0 0zm-.2.1V34v.2zM68 34c0-.1 0-.1 0 0 0-.1 0 0 0 0zm.1.1s-.1-.1 0 0zm-.4 0s0 .1 0 0c0 .1-.1-.1 0 0zm-.1.2c-.1 0-.1 0 0 0zM65 36.1h.1zm-1.1.7c0 .1-.1 0 0 0-.1-.1-.1 0 0 0zm-.5.7l.1.1zm1.7-5.7s-.1 0 0 0c0 0 0 .1 0 0z"/><path d="M56.2 36.9c-.1-.4.3-.1.2-.4 0 0 .1.2.1.1 0-.3.2-.3.5-.2v.1-.3s.1.1.1.2v-.1c-.1-.3.1 0 .1-.2v.1c0-.2.1-.3.2-.4 0 0 .1.1.1.2-.1-.1 0-.2 0-.2.1.1 0-.1.1-.1 0-.2.1 0 0-.1l.1.1c-.1-.2.1.1.1 0h.1c0-.1.1 0 0-.1.1.1 0 .1.1.2a.78.78 0 0 1 .4-.4l.1.1v-.1s0 .1.1.1-.1-.2 0-.1c0 0 0 .1.1.1v-.1c0-.1.1 0 0-.1v.1c.1.1-.1-.2 0-.1v.1-.2s.1 0 .1-.1l.1.2c-.1-.2 0-.1-.1-.3h.1c0 .1.1.2.1.2l.1.1v.1-.1c0-.1-.1-.3-.1-.4 0 .1.1.2.1.2l-.1-.3.1.1v-.1s0-.1.1.1v.1-.1s0-.1-.1-.2c0 0 .1.1 0 .1v-.4c0-.1.1.2 0 .1.1.1 0-.2.2-.1 0 0-.1-.1 0-.1l.1.1c0 .1 0 0 0-.1s0-.2.1-.2c0 0-.1-.2 0-.2v.1h.1c0-.1 0 .2-.1 0 .1.1 0-.2 0 0 0 0 0-.1.1-.1 0 0 .1.2.1.1v-.2c0 .1 0-.1.1.1l.1.1s0-.2-.1-.2c-.1-.2 0 0 0-.2.1 0 .1 0 .2.1v-.1.1l.2.2c0-.1-.1-.2-.1-.2.1.2 0-.2.1 0 0 0 0 .1.1.2.1.2 0-.2 0-.1l-.1-.2c.1.1 0-.1.1 0 0-.1.1 0 0-.1.1.1.1-.2.3.1v-.1c-.1-.1 0 .1 0 0v-.1s.1 0 .1.2c.1.1-.1-.3 0-.3 0 .1 0 .1.1.1v-.1l.2.2v-.1l.1.1c-.1-.1 0-.1 0-.1 0-.1-.1-.1-.1-.1v-.1l.1.1v-.1l.1.1s.1.1.1 0-.1-.2 0-.2v.1h.1v-.3h.1v-.2c.1.1.2.4.2.2 0 0-.1-.2-.1-.3.1 0 0-.2.2 0v-.1c.1 0 .1-.2.2 0 0 0 0 .1.1.2 0-.1.1.1 0-.1 0-.1-.1-.1-.1-.2s.1-.1.1 0v-.1c.1.1.1.2.1.1v-.1l.1.1s-.1-.2 0-.1c0 0 0 .1.1.1v-.2l.1.1s0-.1-.1-.1c.1 0 .1 0 .2.1-.1-.3 0-.4.1-.4v.1c.1 0 0-.1 0-.1 0 .1.1.1.1.2.1 0 0-.1 0-.2s0 .1 0 0c0 0 .1 0 0-.1 0 0 .1.1.1.2v-.1c.1.1.1.3.2.5.1.1 0 .2.1.2 0-.1-.1-.3-.2-.3 0-.1-.2-.3-.1-.3v.1c.1.1 0-.1 0-.1l-.1-.2c.1 0 0 .1.1.1 0-.1 0-.2-.1-.2-.1-.2.1 0 0-.1.1.1.1.3.2.3-.1-.1 0-.2-.2-.3 0 0 .1.1.1.2.1.1-.1-.2.1 0l-.1-.1s0 .1.1.1c0 0 0-.2.1 0v-.2c-.1-.1 0 .1-.1 0 .1.1 0 0 0-.1v.1-.1s0 .1.1.1v-.1c0-.1.1.2.1.1v.1s.1.1.1 0-.1-.2-.1-.3c0 0 .1.1 0 0v.1l.1.1-.1-.2s.1 0 .1.1c0 0-.1-.1-.1-.2 0 .1.1.1.2.2l.1.2c0 .1.1.1.1.2v-.1c-.2-.2-.1-.3-.3-.5 0-.1.3.5.2.1 0 0-.1-.2-.1-.1 0 0-.1-.2 0-.1 0 .1.1.2.2.3 0-.1 0 0 0 0 0 .1.1.2.1.2v-.1l-.1-.1c0-.1.1.1 0-.1 0 0-.1-.1-.1-.2v-.1.1c.1 0-.1-.1 0-.1l.1.1c.1.1-.1 0 0 .2v-.1s.2.3.1.1c0-.1 0-.1-.1-.2V31c.1.2.1 0 .1.2-.1-.1-.1 0 0 .1.1.2 0 0 0 .2a1.44 1.44 0 0 0 .2.3v-.1c-.1-.1-.1-.1-.1-.2 0 0 .1-.1 0-.2l.1.2c0-.1.1-.1.2-.1-.1-.2 0-.1-.1-.2l-.2-.2s0 .1.1.1c0-.1.1.1 0 0 0 .1.1.2.2.4 0-.1 0 .1.1.1v-.2c.1.1.1-.1.1-.1.1.1.1.2.2.2 0 0-.1-.2 0-.1 0 0 .1.1 0-.2l.1.2.1.1c.1.1 0 0 .1-.1l-.1-.1c0-.1.1 0 .1-.1v.1-.1c0 .1.1.1.1.1l.1.3s0-.1-.1-.2-.1 0 0 .1v-.1c.1.1.1.1.1.2v.1c0-.1-.1-.1-.1-.1.1.1.1.2 0 .2-.1-.1 0 .1-.1.1 0-.1-.1-.2-.1-.3h-.1c0 .1.1.2.1.3v-.1c0 .1.1.2 0 .2h-.2v-.1c.1.2 0 .1 0 .2-.1 0-.1.2-.2 0-.1.1-.1.2-.2.3l-.1-.1c0 .1 0-.1-.1 0 .1.1 0 .2.1.2-.1-.1-.1.1-.1.2v-.1c0 .2-.1.1-.1.1l-.1-.1v.3h-.2c0 .3-.2.2-.2.4l-.1-.1c0 .3-.2.2-.3.3l-.1-.2c-.1 0 0 .1 0 .2-.1 0 0 .1-.1 0v.1c-.1 0-.1 0-.2.1l-.1-.1c0 .1-.1 0 0 .2-.1-.1-.1.2-.2 0v.1s-.2 0-.2.1c0 0 0-.1-.1-.1v.1c0 .2-.2 0-.3.1-.1.2-.3.2-.4.3 0 .2-.2-.1-.1.2l-.1-.1c0 .1-.2 0-.1.1-.1-.1-.1.1-.2 0v-.1c-.1-.1 0 .2-.1 0v.1c-.2 0-.2.2-.3.3-.2-.1-.2-.3-.2-.2 0 0 0 .1 0 0 0 .1-.2-.2-.1-.1s0 .1.1.2c-.1 0-.2-.2-.2 0v-.1c.1.2-.1.2 0 .4-.3.2-.5.5-.7.7-.3.1-.5.4-.8.4-.2-.1-.2-.1-.2 0v-.1c.1.1 0 0 0 .2-.1 0-.2.1-.3.2 0 0 0-.2-.1-.1v.1s0 .1.1.1c-.2.3-.6.1-.9.3-.1 0-.2.1-.2.2-.3-.1-.6-.1-.7.1.2.2.1-.2.1-.3z"/><path d="M65 31.9c0-.1-.1-.1-.1-.2 0 .1.1.1.1.2zm-1-.4s-.1-.1 0 0c0-.1 0 0 0 0zm-.2.1v-.2.2zm-.3-.2c0-.1 0-.1 0 0 0-.1 0-.1 0 0zm.1.1c-.1 0-.1-.1 0 0zm-.4 0s0 .1 0 0c0 .1-.1-.1 0 0zm-.1.2s-.1 0 0 0c-.1 0-.1-.1 0 0zm-2.6 1.8h.1zm-1.2.7c.1.1 0 0 0 0 0-.1 0 0 0 0zm-.4.7l.1.1zm1.6-5.7c.1 0 0-.1 0 0 .1 0 .1.1 0 0zm-8.8 5.1c-.1-.4.3-.1.2-.4 0 0 .1.2.1.1 0-.3.2-.3.5-.2v.1-.3s.1.1.1.2v-.1c-.1-.3.1 0 .1-.2v.1c0-.2.1-.3.2-.4 0 0 .1.1.1.2-.1-.1 0-.2 0-.2.1.1 0-.1.1-.1 0-.2.1 0 0-.1l.1.1c-.1-.2.1.1.1 0h.1c0-.1.1 0 0-.1.1.1 0 .1.1.2a.78.78 0 0 1 .4-.4l.1.1v-.1s0 .1.1.1-.1-.2 0-.1c0 0 0 .1.1.1v-.1c0-.1.1 0 0-.1v.1c.1.1-.1-.2 0-.1v.1-.2s.1 0 .1-.1l.1.2c-.1-.2 0-.1-.1-.3h.1c0 .1.1.2.1.2l.1.1v.1-.1c0-.1-.1-.3-.1-.4 0 .1.1.2.1.2l-.1-.3.1.1v-.1s0-.1.1.1v.1-.1s0-.1-.1-.2c0 0 .1.1 0 .1v-.4c0-.1.1.2 0 .1.1.1 0-.2.2-.1 0 0-.1-.1 0-.1l.1.1c0 .1 0 0 0-.1s0-.2.1-.2c0 0-.1-.2 0-.2v.1h.1c0-.1 0 .2-.1 0 .1.1 0-.2 0 0 0 0 0-.1.1-.1 0 0 .1.2.1.1v-.2c0 .1 0-.1.1.1l.1.1s0-.2-.1-.2c-.1-.2 0 0 0-.2.1 0 .1 0 .2.1V31v.1l.2.2c0-.1-.1-.2-.1-.2.1.2 0-.2.1 0 0 0 0 .1.1.2.1.2 0-.2 0-.1l-.1-.2c.1.1 0-.1.1 0 0-.1.1 0 0-.1.1.1.1-.2.3.1v-.1c-.1-.1 0 .1 0 0v-.1s.1 0 .1.2c.1.1-.1-.3 0-.3 0 .1 0 .1.1.1v-.1l.2.2v-.1l.1.1c-.1-.1 0-.1 0-.1 0-.1-.1-.1-.1-.1v-.1l.1.1v-.1l.1.1s.1.1.1 0-.1-.2 0-.2v.1h.1v-.3h.1v-.2c.1.1.2.4.2.2 0 0-.1-.2-.1-.3.1 0 0-.2.2 0v-.1c.1 0 .1-.2.2 0 0 0 0 .1.1.2 0-.1.1.1 0-.1 0-.1-.1-.1-.1-.2s.1-.1.1 0v-.1c.1.1.1.2.1.1v-.1l.1.1s-.1-.2 0-.1c0 0 0 .1.1.1v-.2l.1.1s0-.1-.1-.1c.1 0 .1 0 .2.1-.1-.3 0-.4.1-.4v.1c.1 0 0-.1 0-.1 0 .1.1.1.1.2.1 0 0-.1 0-.2s0 .1 0 0c0 0 .1 0 0-.1 0 0 .1.1.1.2v-.1c.1.1.1.3.2.5.1.1 0 .2.1.2 0-.1-.1-.3-.2-.3 0-.1-.2-.3-.1-.3v.1c.1.1 0-.1 0-.1l-.1-.2c.1 0 0 .1.1.1 0-.1 0-.2-.1-.2-.1-.2.1 0 0-.1.1.1.1.3.2.3-.1-.1 0-.2-.2-.3 0 0 .1.1.1.2.1.1-.1-.2.1 0l-.1-.1s0 .1.1.1c0 0 0-.2.1 0V29c-.1-.1 0 .1-.1 0 .1.1 0 0 0-.1v.1-.1s0 .1.1.1v-.1c0-.1.1.2.1.1v.1s.1.1.1 0-.1-.2-.1-.3c0 0 .1.1 0 0v.1l.1.1-.1-.2s.1 0 .1.1c0 0-.1-.1-.1-.2 0 .1.1.1.2.2l.1.2c0 .1.1.1.1.2v-.1c-.2-.2-.1-.3-.3-.5 0-.1.3.5.2.1 0 0-.1-.2-.1-.1 0 0-.1-.2 0-.1 0 .1.1.2.2.3 0-.1 0 0 0 0 0 .1.1.2.1.2V29l-.1-.1c0-.1.1.1 0-.1 0 0-.1-.1-.1-.2v.3c.1 0-.1-.1 0-.1l.1.1c.1.1-.1 0 0 .2V29s.2.3.1.1c0-.1 0-.1-.1-.2v-.2c.1.2.1 0 .1.2-.1-.1-.1 0 0 .1.1.2 0 0 0 .2a1.44 1.44 0 0 0 .2.3v-.1c-.1-.1-.1-.1-.1-.2 0 0 .1-.1 0-.2l.1.2c0-.1.1-.1.2-.1-.1-.2 0-.1-.1-.2l-.2-.2s0 .1.1.1c0-.1.1.1 0 0 0 .1.1.2.2.4 0-.1 0 .1.1.1v-.2c.1.1.1-.1.1-.1.1.1.1.2.2.2 0 0-.1-.2 0-.1 0 0 .1.1 0-.2l.1.2.1.1c.1.1 0 0 .1-.1l-.1-.1c0-.1.1 0 .1-.1v.1-.1c0 .1.1.1.1.1l.1.3s0-.1-.1-.2-.1 0 0 .1v-.1c.1.1.1.1.1.2v.1c0-.1-.1-.1-.1-.1.1.1.1.2 0 .2-.1-.1 0 .1-.1.1 0-.1-.1-.2-.1-.3h-.1c0 .1.1.2.1.3v-.1c0 .1.1.2 0 .2H60v-.1c.1.2 0 .1 0 .2-.1 0-.1.2-.2 0-.1.1-.1.2-.2.3l-.1-.1c0 .1 0-.1-.1 0 .1.1 0 .2.1.2-.1-.1-.1.1-.1.2v-.1c0 .2-.1.1-.1.1l-.1-.1v.3H59c0 .3-.2.2-.2.4l-.1-.1c0 .3-.2.2-.3.3l-.1-.2c-.1 0 0 .1 0 .2-.1 0 0 .1-.1 0v.1c-.1 0-.1 0-.2.1l-.1-.1c0 .1-.1 0 0 .2-.1-.1-.1.2-.2 0v.1s-.2 0-.2.1c0 0 0-.1-.1-.1v.1c0 .2-.2 0-.3.1-.1.2-.3.2-.4.3 0 .2-.2-.1-.1.2l-.1-.1c0 .1-.2 0-.1.1-.1-.1-.1.1-.2 0v-.1c-.1-.1 0 .2-.1 0v.1c-.2 0-.2.2-.3.3-.2-.1-.2-.3-.2-.2 0 0 0 .1 0 0 0 .1-.2-.2-.1-.1s0 .1.1.2c-.1 0-.2-.2-.2 0v-.1c.1.2-.1.2 0 .4-.3.2-.5.5-.7.7-.3.1-.5.4-.8.4-.2-.1-.2-.1-.2 0v-.1c.1.1 0 0 0 .2-.1 0-.2.1-.3.2 0 0 0-.2-.1-.1v.1s0 .1.1.1c-.2.3-.6.1-.9.3-.1 0-.2.1-.2.2-.3-.1-.6-.1-.7.1.2-.1 0-.5.1-.6z"/><path d="M60.5 29.3c0-.1-.1-.1-.1-.2 0 0 .1.1.1.2zm-1-.4s-.1 0 0 0c-.1 0-.1-.1 0 0 0-.1 0 0 0 0zm-.2.1v-.2.2zm-.3-.2c0-.1-.1-.1 0 0 0-.1 0-.1 0 0zm.1.1s-.1 0 0 0c-.1 0-.1-.1 0 0zm-.4 0s0 .1 0 0c0 .1-.1-.1 0 0zm-.1.2c-.1 0-.1 0 0 0-.1 0-.1-.1 0 0zM56 30.9zm-1.2.7c0-.1 0 0 0 0zm-.4.7l.1.1z"/></g><path d="M74 47.2v10.4l9-5.3V42z" class="E"/><g class="F"><path d="M74.3 47.3c0-.2-.1.1 0 0 0-.1 0 0 0 0zm.3-.2c.2-.6 1-.6 1.3-1 0 0 .1.2.2.1.3-.5 1.1-.8 1.8-.9v.1c.1 0 .2-.3.3-.3v.1c0-.1.2-.2.2-.3.1 0 .1.1.2.1v-.2c0-.4.4-.2.6-.5v.1c.3-.4.8-.6 1.2-1 0 0 0 .1.1.2 0-.1.1-.2.2-.3.1.1.1-.2.3-.2 0-.2.2 0 .2-.2l.1.1c-.1-.2.2 0 .2-.1.1-.1.2 0 .2-.1.2-.2.3-.1.3-.3.1.1-.2.2-.1.3l1.3-.9v.7c-.1.2-.1.2-.1.3 0 0 0 .2.1.2l-.1.1c-.1.2.2 0 .1.2H83c.1 0 .1.2.2.3h-.1c.1.1 0 .3.1.4h-.1c-.1.2.2.1.1.2h-.1c.2.2.1.4.2.6v.6c0 .1-.2 0-.2.2.2 0 .1.3.3.2 0 .2-.1.4 0 .5-.1-.1-.2.1-.2-.1l-.1.1c-.1 0 0-.1-.1-.1 0 .1.1.3 0 .3.1.1.3.2.3.4-.1-.1-.2 0-.2 0l.4.3c0 .1-.2 0-.1.1 0 0 .1 0 .1.1 0 0 0 .3-.1.3s0-.1-.1 0c0 .1.1.1.1.3 0 .1.1.2.2.2 0-.1-.1 0-.1-.1.1.1.1.2.1.3h-.1c.1.2.2.3.3.5.1 0-.2-.1-.1-.1-.1.2.2.5 0 .7h.1c0 .1-.1.1-.1.2-.1 0 0 .1 0 .2.1.1.2.5.1.8l.2.2h-.1c-.1 0 0 .2-.1.2.1.1-.1-.5 0-.3-.1 0 .2.2 0 .2 0 .1.1.2 0 .3 0 0-.2-.1-.2 0 0 .2 0 0 .1.2v.1c.1 0 0 .1.1.1-.1 0 .1.2-.1.2h-.2c0 .1.2.1.2.2h-.1c.2 0 0 .2.2.4v.4c-.1.1-.2.1-.3.1-.1.1-.2.3-.4.3 0 0 .1-.1 0-.1s-.1.1-.2.2c0 0-.2 0-.3-.1-.1.1 0 .2.1.3-.2-.1-.2.3-.4.2 0 0 .1-.2 0-.2-.2-.1-.1.2-.3.2l.1.1c-.1-.1-.2.2-.2 0 0 .1-.2 0-.1.2-.3 0-.5.4-.8.2 0 0-.1.1 0 .1s0-.1.1-.1v.1c-.1 0-.2 0-.2-.1-.2 0 0 .4-.3.4 0-.1-.1-.1-.1 0v.2c-.2 0-.2-.1-.2-.2-.1.1-.2.1-.1.2l-.2-.1c.1.1 0 .1 0 .1s-.1 0-.1.1.2 0 .2 0c0 .1-.1.1-.1.2 0-.1-.2 0-.2 0-.1 0 0 .1 0 .1h-.1.1c-.1 0-.1-.1-.2 0 0 .1.1.2 0 .2v-.1h-.2v.1c0 .1-.2.1-.1.3h-.2c-.1 0-.2.1-.2.2 0 0-.1.1-.1.2-.1 0-.2-.3-.3-.2s0 .3 0 .3c-.2 0-.3.3-.6.3v.1c-.3.1-.5.4-.8.4 0-.1 0-.1-.1-.2 0 .1-.1 0-.1.1.1.1.1.1.2.1-.1.1-.4.3-.5.2.1 0 0 .1 0 .1-.1-.2-.2-.1-.3 0v.1h-.1c0 .1 0 .2-.2.2 0 0 0-.1-.1-.1-.1.2-.3.4-.5.4l-.1-.1c-.1 0-.2.2-.1.2-.3.1-.4.1-.5 0-.4.4-.9.8-1.3 1.1v-.7l.1-.1c.1-.3-.1.1-.1-.1.1 0 .2-.3.2-.3.1-.3-.1-.2-.2-.3-.1.1.1.1-.1.2 0 0 .1-.4-.1-.3l.2-.2-.1-.1c.2-.3.3.1.5-.2v-.1c.2-.2.2.1.2-.2-.1 0-.3 0-.3.2 0-.2-.3.1-.3-.2.1-.1 0 .3.1.1s-.1-.3 0-.4c0 .2-.2.1-.2 0 .1-.2.1.1.2-.2-.1 0-.2-.2-.2 0-.2-.1 0-.3-.1-.4.1-.1.3.2.4 0-.1 0-.2-.2-.4-.1 0-.1.1-.1.2 0 .1-.1-.2-.2 0-.3h-.1s.1-.1.2-.1c0-.1-.2-.3 0-.3 0 0 0-.2-.2-.1-.1.1.1.1-.1.2.2-.1 0-.2-.1-.2h.1s0-.1-.1-.2c-.1-.2.2 0 .2-.2l.1.1s.1-.1 0-.2c-.1 0-.2-.1-.3-.1 0-.1.1 0 0-.1l.1.1s.2-.1.2-.2-.2-.2-.3-.1c0-.1.1-.1.1-.1 0-.1-.1 0-.2-.1.1 0 .2-.2.3-.3l.2.1v-.1c.1.1.1 0 .3 0 0 0 0-.1-.1-.2-.2.2-.3-.2-.5-.1-.1-.2.5-.1.2-.4-.1 0-.2-.1-.2.1 0-.1-.2-.1-.1-.3.1.1.2-.1.4 0-.1 0-.1.1 0 .1s.2 0 .2-.1 0-.2-.1-.2 0 .1-.1.1c0-.2.2-.2-.1-.3 0 .1-.1.1-.2.1l-.1-.1h.1c.1-.2-.2-.1-.1-.3l.2-.1c.1 0-.1.3.2.2 0-.1-.1-.2 0-.3v.1s.3-.1.1-.3c-.1-.1-.1 0-.2 0 0-.2-.1-.3-.1-.4.2 0 0-.2.2-.1-.1.1-.1.3.1.4.2-.1 0 .2.2.2 0-.2.2-.2.3-.2 0 0 0-.1-.1-.1h-.3c0-.2 0-.3-.2-.4.1-.1.2 0 .2 0v-.6c-.2.1 0-.2-.2-.1 0 .1-.2.2-.3.1 0-.1.1 0 .1 0-.1-.1.2-.1 0-.2.1.2.2 0 .4.1-.1-.1.1 0 .1-.1-.1-.1-.2-.3-.2-.5.2-.2 0-.5 0-.7.1-.1.3 0 .3-.1s-.2.1-.1-.1c0 0 .1-.3-.1-.4h.2v-.1h.2c.1-.1 0-.2 0-.3l-.1.1c-.1-.2 0-.3 0-.5h.1l-.1-.1c.1 0 .2-.1.1-.1l.3.3c-.1.1-.1-.1-.2 0-.1 0-.1.2 0 .2v-.1c.2 0 .2.1.3.1v-.1c.1.1.1.1.1.3-.1-.1-.1 0-.1 0 .1 0 .2.1.1.3-.2.1.1.3.1.4-.1-.1-.3-.2-.3-.3-.1.1 0 .1-.1.2.1 0 .3.1.3.2h-.1c0 .1.2.1.2.3 0 .3 0 .5-.1.7h-.1c.2.1.1.4.2.5-.1.3.1.6-.1.7.1.5.2.8.1 1.3l-.2-.1c.1.1-.1 0-.1.1.1-.1.2.1.2.2-.1.2 0 .5.1.7h-.1c.2.2 0 .4 0 .6l-.1.1c.2.1.2.2.3.4 0 .1 0 .4-.1.5.1.1.1.3.1.4v.2c0 .1 0 .2.1.3l-.1.2c.1 0 .1 0 .1.1.1 0 .2 0 .3-.2l-.1.3s.2-.2.1-.3c0 0 .1-.2.1 0 .1 0 0-.1 0-.2.3-.1.4-.1.6-.3h-.1s0 .1.1.1c.1-.1.3-.1.1-.3.3 0 .5-.4.8-.4v-.2c.2-.1.5-.1.6-.3 0 0 0 .1.1.1v-.2c.3-.3.8-.3 1.1-.5.5-.4 1.1-.7 1.7-1 .1-.3.5-.1.5-.4.1 0 .2-.1.2 0 .1-.2.5-.1.6-.4.1 0 .2-.1.3-.2s.2-.2.3-.1v.1c.1 0-.1-.2.1 0l-.1-.1h.1v-.3c0-.2-.1-.5-.1-.7.1-.4.4 0 .2-.4 0 0-.1 0 0 0-.1-.1.3-.2.1-.3-.1 0-.1-.1-.2-.1.1-.3.2-.3.1-.5h.1c-.2-.2-.1-.5-.3-.7 0-1.3-.2-2.6-.2-3.8v-1.5c.1-.3 0-.2 0-.1v-.1.2h-.1l-.3.2c-.2.1-.4.2-.6.4.1 0 0-.2 0-.1v.1s-.1.2 0 .2c-1 .7-2.2 1-3.2 1.7-.3.1-.6.3-.8.5-.9.3-1.7.5-2.4 1.1-.2.3-.3-.1 0-.4z"/><path d="M74.3 47.5c-.1 0-.1.1-.2 0h.2zm-.8 2.8s-.1.1 0 0c-.1 0-.2 0 0 0-.1 0-.1 0 0 0zm-.1.8c-.1 0-.1-.2-.1-.3l.1.3zm-.3.6c0 .1-.1.1 0 0zm.2.1c0 .1 0 .1 0 0 0 .1-.1 0 0 0zm-.2 1.5s.1.1 0 .2c0-.1-.1-.3 0-.2zm.1.6c0 .1 0 .1 0 0 0 .1-.1.1 0 0zm8.8-.3l-.1.1v-.1zm1.6-5.1c-.1-.1.1-.1 0 0 .1 0 0-.1 0 0zm-.4-3h-.1z"/></g></svg>