<svg xmlns="http://www.w3.org/2000/svg" xmlns:xlink="http://www.w3.org/1999/xlink" viewBox="0 0 59.6 54.3"><path d="M48.7 42.2V31.8l-13.5 7.8V50z" fill="#fff"/><g fill="#202020"><path d="M48.4 42.1c0 .2.1-.1.1.1l-.1-.1z"/><path d="M48.1 42.3c-.3.6-1.2.7-1.7 1.3-.1 0-.1-.2-.2-.1-.4.6-1.4.9-2.2 1.1v-.1c-.2 0-.2.3-.4.4v-.1c0 .1-.2.2-.2.3-.1 0-.1-.1-.2-.1v.2c-.1.4-.5.3-.8.6v-.1c-.4.5-1 .8-1.5 1.1 0 0 0-.1-.1-.2a.76.76 0 0 1-.2.4c-.1-.1-.2.3-.4.3 0 .2-.2 0-.2.2h-.1c0 .2-.2 0-.3.2-.1.1-.2 0-.3.1-.2.2-.4.1-.3.3-.1-.1.2-.2 0-.3-.6.5-1.3.9-2.1 1.3h-.2c-.1.1-.3.2-.3.3 0 0 0-.1-.1-.1s-.2.3-.3.3c.1-.1.1-.2.1-.2l-.5.5c0-.1.1-.1.1-.2-.3.3-.3.1-.5.3l.1-.1c.1-.3-.2.3-.1 0l.1-.1c-.2 0-.1-.4-.2-.6v-.8c0-.1.2 0 .2-.2-.2 0-.1-.4-.3-.3 0-.2.1-.5 0-.6.1.1.2-.1.2.1l.1-.1c.1 0 0 .1.1.1 0-.1-.1-.3 0-.4-.1-.1-.3-.3-.3-.5.1.1.2-.1.2 0l-.4-.4c0-.1.2 0 .1-.1 0 0-.1 0-.1-.1 0 0 0-.4.1-.4s0 .1.1 0c0-.1-.1-.2-.1-.3s-.1-.3-.2-.2c0 .1.1 0 .1.1-.1-.1-.1-.3-.1-.4 0 0 .1 0 .1.1-.1-.2-.2-.4-.3-.7-.1 0 .2.1.1.1.1-.3-.2-.6 0-.9h-.1c0-.1.1-.1.1-.2.1 0 0-.1 0-.2v.1c-.1-.1-.2-.7-.1-1 0 0-.2-.2-.2-.3h.1c.1-.1 0-.2.1-.3-.1-.1.1.6 0 .4.1 0-.2-.3 0-.2 0-.1-.1-.3 0-.4 0 0 .2.1.2 0 0-.2 0-.1-.1-.2v-.1c-.1 0 0-.2-.1-.1.1 0-.1-.3.1-.3h.2c0-.1-.2-.1-.2-.2h.1c-.2 0 0-.3-.2-.5v-.5c.2-.1.3-.1.4-.1.1-.1.3-.3.5-.4 0 0-.1.1 0 .1.2 0 .1-.1.2-.1h.4c.1-.1 0-.2 0-.3.2.1.3-.3.5-.2 0 0-.1.2 0 .2.2.1.1-.3.4-.3l-.1-.1c.1 0 .2-.2.3-.1 0-.1.2-.1.1-.2.4 0 .7-.5 1-.3 0 0 .2-.1.1-.1s-.1.1-.1.1v-.1c.1 0 .2 0 .2.1.3 0 .1-.4.3-.5 0 .1.1.1.1 0l.1-.2c.2-.1.2.1.2.2.1-.1.2-.1.2-.2l.2.1c-.1 0 0-.1.1-.2 0 0 .1 0 .2-.1 0-.1-.2 0-.2 0 0-.1.1-.1.1-.2 0 .1.2 0 .3 0s0-.1.1-.2c0 0 .1-.1.1 0 0 0-.1 0-.1.1.1 0 .1.1.2 0 0-.1-.1-.2.1-.2v.1h.2v-.1c0-.1.2-.2.2-.3.1 0 .2 0 .3-.1.1 0 .2-.1.3-.2 0 0 .2-.1.2-.2.2 0 .3.3.3.1.1-.1.1-.3 0-.3.3-.1.4-.4.7-.3v-.1c.3-.1.6-.5 1-.5-.1.1 0 .1.1.1 0-.1.2 0 .1-.1s-.1-.1-.2-.1c.2-.2.5-.3.6-.3-.1 0 0-.1 0-.1.1.1.2.1.3 0v-.1h.1s-.1-.2.1-.2c0 0 0 .1.1.1.1-.1.2-.3.3-.3l.2.1s.1-.2 0-.1c.3 0 .4-.1.5 0 .2-.5.7-.8 1.1-1v.1c.2 0 0-.1.1-.1 0 .1.2.1.1.2.2 0 .2-.3.4-.4 0-.1-.1.1-.1 0 0 0 .4-.1.4-.3.1 0 0 .2 0 .3l.2-.2c.2.1-.4.6-.2.7l.1-.1c.1.1-.2.3 0 .3.1-.1.2-.5.1-.5.3-.2.2-.5.5-.7.1.1-.3.2-.2.3s.3-.3.5-.3c-.1 0 0-.3.2-.4.2 0-.2.3.1.1.1-.1.4-.4.2-.4.2-.4.3-.1.5-.4 0 .2-.5.7-.3.6.1-.2.5-.5.5-.7v.1c0 .1-.1.1-.1.2l-.1.1c0 .2.2.1 0 .5l.1-.1a.76.76 0 0 1-.2.4c0 .1.2.3 0 .5 0 0 0 .4.2.1.1-.3-.1-.2.1-.5-.2.3 0 .3.1.5l-.1.1c0 .1 0 .3.1.3 0 0-.1 0-.1.1h.1c.1.4-.2.2-.2.5l-.1-.2s-.1.2 0 .3c.1 0 .2.1.3.1 0 .2-.1.1 0 .3l-.1-.2s-.2.2-.2.4c0 .1.2.2.3.1 0 .1-.1.2-.1.1 0 .2.1 0 .2.1l-.3.3-.2-.1v.1c-.1-.1-.1.1-.3 0 0 .1 0 .1.1.2.2-.2.3.2.5.2.1.3-.5.2-.2.4.1 0 .2.1.2-.1 0 .2.2.1.1.3-.1-.1-.2.2-.4 0 .1 0 .1-.1 0-.1-.1.1-.2 0-.2.2 0 .1 0 .3.1.2.1 0 0-.2.1-.1 0 .2-.2.2.1.3 0-.1.1-.2.2-.2v.1H50c-.1.2.2.1.1.3l-.2.1c-.1-.1.1-.3-.2-.3 0 .1.1.2 0 .4v-.1s-.3.1-.1.3c.1.1.1 0 .2 0 0 .3.1.3.1.5-.2 0 0 .3-.2.1.1-.1.1-.4-.1-.5-.2.1 0-.2-.2-.3 0 .2-.2.2-.3.2 0 0 0 .1.1.1h.3c0 .2 0 .4.2.5-.1.1-.2 0-.2 0v.8c.2-.2 0 .3.2.2 0-.1.2-.3.3-.2 0 .1-.1 0-.1 0 .1.1-.2.2 0 .3-.1-.2-.2 0-.4-.1.1.2-.1 0-.1.2.1.2.2.4.2.6-.2.2 0 .6 0 .8-.1.1-.3 0-.3.2 0 .1.2-.1.1.1 0 .1-.1.4.1.5l-.2-.1v.1h-.2c-.1.1 0 .3 0 .4l.1-.1c.1.2 0 .4 0 .6h-.1l.1.1c-.1 0-.2.1-.1.2l-.3-.4c.1-.1.1.1.2 0 .1 0 .1-.3 0-.3v.1c-.2 0-.2-.1-.3-.2v.1c-.1-.1-.1-.2-.1-.3.1.1.1 0 .1 0-.1 0-.2-.1-.1-.3.2-.1-.1-.3-.1-.5.1.1.3.2.3.3.1-.1 0-.1.1-.3-.1-.1-.3-.1-.3-.3h.1c0-.1-.2-.1-.2-.3 0-.3 0-.7.1-.9h.1c-.2-.1-.1-.5-.2-.7.1-.3-.1-.7.1-.9-.1-.6-.2-1.1-.1-1.6l.2.1c-.1-.1.1-.1.1-.2-.1.1-.2-.1-.2-.2.1-.3 0-.6-.1-.8h.1c-.1-.1-.1-.3-.1-.4s.1-.2.1-.3c0 0 .1-.1.1-.2-.2 0-.2-.1-.3-.1 0-.1 0-.3.1-.4h-.1c-.2.2-.3.2-.4.3s-.2.1-.3.3l-.1-.1c0 .1-.2.2-.3.3s-.3.2-.5.3c-.3.2-.6.3-.8.5l-.1-.2c-.2 0-.3.2-.2.4-.2 0-.3.3-.5.2-.2.1-.1.2-.3.3-.3.1-.5.2-.7.4h.1c0-.1 0-.1-.1-.1-.1.1-.4.2-.2.3-.4.1-.7.5-1.1.5.1 0 0 .1 0 .1-.3.2-.6.2-.8.4-.1 0 0-.1-.1-.1v.1c-.4.4-1 .4-1.3.7-.6.5-1.4.9-2.1 1.3-.1.3-.6.1-.7.5-.1 0-.2.1-.2 0-.1.2-.6.2-.8.5v-.1c-.3.1-.5.3-.8.4 0 0 .1-.1 0-.1-.2 0 0 .3-.2.1l.1.1h-.1a13.8 13.8 0 0 0 .1 1.4c-.1.5-.4 0-.2.5.1.2-.3.3-.1.4.1 0 .1.1.2.1-.1.3-.2.4-.1.6h-.1c.2.3.1.6.3.9l.1 2.4.1 1.2v.6c0 .1 0 0 0 0l.6-.3c.3-.1.5-.3.8-.4.4 0 .5 0 .8-.3v.1c-.1-.1.2-.2.2-.3l1.5-.9c-.1.1 0 .2 0 .1V46c.1-.1.1-.2 0-.2 1.3-.9 2.7-1.4 4-2.1.3-.1.8-.4 1.1-.6 1.1-.4 2.1-.8 3-1.5.1 0 .2.4-.1.7zm.3-.5c.1 0 .1-.2.2-.1 0 .1-.1.1-.2.1z"/><path d="M49.3 38.3c-.1 0 0-.1 0 0 0-.1.1 0 0 0zm0-1c.1 0 .1.2.1.3l-.1-.3zm.3-.8c.1-.1.1-.1 0 0 .1.1 0 0 0 0zm-.2-.1c0-.1 0-.1.1-.1 0 0 .1.2-.1.1zm.3-1.8s-.1-.1 0-.2c-.1.1.1.2 0 .2zm-.2-.9v-.1c.1-.1.1 0 0 .1zm-12.9 4.5l.1-.1v.1zm-2 6.3c.1.1-.1.1 0 0-.1 0 0 .1 0 0zm.4 3.7h.1z"/></g><path d="M8.1 24v10.4L35.2 50V39.6L8.1 24z" fill="#fff"/><g fill="#202020"><path d="M8.4 24.2c0-.3-.1.2-.1-.2.1 0 .1.1.1.2zm.5.5c1 .2 2 1.1 3 1.5.1 0-.1.2.1.3 1 .3 2.4 1.2 3.4 2.1h-.1c.2.2.5.1.8.3 0 0-.1 0-.1.1.1-.1.4.2.6.2.1.1 0 .2.1.3h.2c.5-.1.8.5 1.4.6 0 0-.1 0-.1.1.9.3 1.8.9 2.7 1.3-.1 0-.1.1-.1.1.1-.1.4 0 .7.1 0 .2.5.1.7.3.3 0 .3.3.5.2l.1.2c.2-.1.2.3.5.3.2 0 .2.2.4.2.4.1.5.4.6.2.1.2-.4-.1-.3.1 1.2.5 2.3 1.2 3.5 1.9.1.1.2.2.2.3.1 0 .4.2.6.2 0 0 0 .1.1.1.2.2.3 0 .5.2-.1 0-.2 0-.2.1.3 0 .5.2.8.3h-.1c.3 0 .4.3.7.3H30c.3.3.2-.1.5.1h-.1c.4 0 .8.3 1.1.4.3.2.6.4 1 .5.1.1-.2.2.2.3.1-.2.6.3.5 0 .3.2.7.5.9.5-.2 0 0 .3-.2.2l.1.2c-.1 0-.2-.1-.2 0 .1.1.5.2.6.3.3 0 .5-.1 1 .2-.2 0 0 .2-.2.2h.6s.1.1.1.2c0 .2-.2.1-.1.3l.1.1c0 .1 0 .6-.1.6-.1.1 0-.2-.1-.1 0 .3.1.3.1.5s.1.5.2.3c0-.1-.1 0-.1-.1.1.1.1.4.1.6 0-.1-.1-.1-.1-.1l.3 1c.1 0-.2-.1-.1-.2-.1.5.2 1 0 1.4 0-.1.1 0 .1 0 0 .2-.1.2-.1.4-.1 0 0 .2 0 .3s0 0 0-.1c.1.2.2 1.1.1 1.6 0 0 .2.3.2.4h-.1c-.1.1 0 .4-.1.4.1.2-.1-.9 0-.6-.1.1.2.5 0 .4 0 .2.1.5 0 .7 0-.1-.2-.2-.2 0 0 .3 0 .1.1.3v.2c.1 0 0 .4.1.2-.1 0 .1.8-.1.6l-.2-.1c0 .2.2.4.2.6H36c.2.2 0 .5.2.9v.7c-.2-.2-.5-.3-.6-.5-.2 0-.5-.1-.8-.4.1 0 .2.1.2 0-.2-.2-.3-.2-.4-.2l-.6-.6c-.3-.1-.2.1-.3.1-.1-.3-.6-.2-.7-.5.1 0 .3.1.2-.1-.1-.3-.4-.1-.7-.3v.2c-.1-.2-.5-.2-.3-.3-.1 0-.3-.3-.4-.1-.4-.4-1.2-.6-1.3-1-.1 0-.2-.1-.3 0 .1.1.2 0 .2.1h-.1c-.1-.1-.2-.2 0-.2-.3-.3-.5.1-.9-.2.1 0 0-.1-.1-.2H29c-.3-.2-.1-.2 0-.3-.2-.1-.3-.2-.4-.1l-.1-.2c.1.2-.2 0-.2 0h.1c0-.1-.2-.1-.3-.2 0 .1.1.2.2.3-.1 0-.2-.1-.3-.1.1-.1-.2-.2-.3-.3s-.2 0-.2 0c0-.1-.2-.1-.1-.1 0 0 .1.1.2.1-.1-.1 0-.2-.2-.2s-.1.2-.3 0h.2l-.2-.2-.1.1v-.1c-.1.1-.4-.2-.5-.1l-.3-.3c-.1-.1-.3-.2-.5-.2-.1 0-.3-.1-.4-.1-.2-.2.1-.4-.1-.4-.2-.1-.4 0-.4.1-.3-.3-.8-.3-1-.7h-.2c-.5-.3-1.2-.5-1.5-1 .2 0 .1-.1.1-.1-.2 0-.1-.2-.2 0 0 .1-.1.1 0 .3-.3-.1-.8-.4-.9-.6.1.1 0 .1-.1.1.1-.1-.1-.3-.3-.3l-.1.1-.1-.1c-.1 0-.2.1-.3 0V42a1.08 1.08 0 0 1-.7-.3l-.1-.2c-.1 0-.3 0-.2.1-.3-.3-.5-.4-.5-.6-.7-.1-1.5-.5-2.2-.9h.1c-.1-.2-.2.1-.3-.1.1 0-.1-.2.1-.2-.2-.2-.4-.1-.6-.1-.1.1.2 0 .1.1 0 0-.3-.3-.4-.2 0-.1.1-.1.1-.2h-.2c-.1-.3.6 0 .5-.3l-.2-.1c-.1-.2.5.1.1-.2-.2 0-.4.1-.3.2-.3-.1-.3.2-.7 0 0-.1.3.1.3 0-.1-.2-.4-.1-.5-.3.1.1-.1.2-.2.1-.1-.2.2 0-.1-.2-.1 0-.3 0-.2.1-.2.1-.2-.2-.5-.1 0-.2.4-.1.2-.3 0 .1-.4 0-.4.2-.1-.1 0-.2.1-.2-.1-.2-.5 0-.4-.3l-.1.1c0-.1-.1-.1-.1-.2-.1-.1-.5-.1-.4-.3 0 0-.4-.2-.3 0 .2.2.3 0 .3.3-.1-.2-.3-.1-.4-.2v-.1c-.1 0-.2-.1-.3-.1.1 0 .1-.1 0-.1l-.1.1c-.3-.1 0-.2-.2-.3h.3s-.1-.2-.2-.2c-.1.1-.3.1-.3.2-.2 0 0-.1-.2-.1h.3s0-.2-.2-.3c-.2 0-.4 0-.3.1-.1-.1-.2-.2-.1-.2-.2-.1 0 .1-.3.1 0-.1-.2-.3-.3-.5h.3l-.1-.1c.3 0 0-.1.1-.2-.1-.1-.2-.1-.3-.1.2.4-.5.1-.5.4-.4-.2 0-.6-.5-.5 0 .1-.2.1 0 .2-.1-.1-.2 0-.2 0-.1 0-.1 0-.3-.1.4.1-.2-.4.3-.2 0 .1.2.1.2.2-.1-.1.2-.2-.1-.3-.2-.1-.5-.3-.5-.2-.1.1.3.2.1.2-.3-.1-.4-.3-.5-.3 0-.1 0-.1-.1-.2v.3c.1.1 0 .2 0 .2l-.2-.1v-.3H8c.1-.8-.2-.2-.1-.9l.2-.2c.1 0-.1.9.2.7 0-.4-.1-.6 0-.8v.2c0-.1.3-.2.1-.5-.1-.2-.1 0-.2 0 0-.4-.1-.5-.1-.8.2 0 0-.5.2-.2-.1.1-.1.7.1.8.2-.1 0 .3.2.4 0-.3.2-.3.3-.4 0-.1 0-.2-.1-.2s-.1.1-.3.1c0-.4 0-.7-.2-.9.1-.1.2-.1.2.1v-1.3c-.2.3 0-.4-.2-.3 0 .2-.2.4-.3.3 0-.1.1 0 .1 0-.1-.2.2-.3 0-.4.1.4.2.1.4.1-.1-.3.1 0 .1-.3-.1-.3-.2-.6-.2-.9.2-.4 0-1 0-1.3.1-.2.3-.1.3-.3s-.2.2-.1-.2c0-.1.1-.6-.1-.7l.2.1v-.2c.1 0 .1-.1.2 0 .1-.2 0-.4 0-.7l-.1.1c-.1-.4 0-.6 0-1h.1l-.1-.2c.1 0 .2-.1.1-.3l.3.6c-.1.2-.1-.2-.2-.1s-.1.4 0 .5v-.2c.2 0 .2.2.3.3V26c.1.1.1.3.1.5-.1-.1-.1.1-.1 0 .1 0 .2.2.1.5-.2.2.1.5.1.9-.1-.1-.3-.3-.3-.5-.1.2 0 .2-.1.4.1.1.3.2.3.4h-.1c0 .2.2.2.2.5 0 .5 0 1.1-.1 1.5h-.1c.2.2.1.8.2 1-.1.5.1 1.1-.1 1.4.1.6.1 1.4.1 1.7.1.1.2.1.4.2-.1 0-.1 0-.2.1.2 0 0 .1.2.2-.1-.2.3 0 .4 0 .3.3.8.5 1.2.6v.1c.4 0 .7.4 1.1.6 0 .1 0 .2.2.3.3 0 .4.1.8.2.2.1.6.4.8.6 1 .3 1.8 1 2.8 1.4v.1c1 .3 2 1.1 2.8 1.5l-.2.1c.2.2.6.3.6.1.2.2.7.3.7.5.2.2.3.1.6.2.5.4.6.4 1.1.7l-.1-.1c-.1 0-.1.1 0 .2.2 0 .6.4.6.1.4.4 1.2.6 1.6 1 0-.1.1 0 .2 0 .4.3.8.6 1.2.7 0 .1-.2 0 0 .1.1 0 0-.1.2 0 .8.3 1.3.9 2 1.3 1.2.5 2.3 1.3 3.4 1.9.5 0 .8.7 1.2.6.1.1.3.2.2.3.4 0 .8.6 1.3.7h-.1c.1.1.2.2.3.2s.2.1.2.1c.1 0 .1 0 .2.1v.1c.1.2.1-.2.2.2v-.2l.2.2c0-.4-.1-.5-.1-1.7.1-.8.4 0 .2-.7 0 0-.1 0 0 0-.1-.3.3-.4.1-.6-.1.1-.1-.1-.2-.1.1-.5.2-.6.1-1h.1c-.2-.5-.1-1-.3-1.4v-3h-.1s-.1 0-.2-.1l-.2-.1-2.7-1.5-6.5-3.8c-.4-.5-.5-.5-1.1-.8h.1c-.1.1-.4-.2-.5-.1L21.9 33c.1.1.3 0 .1-.1h-.2c-.1 0-.3 0-.2.1-2.2-1.1-4.1-2.6-6.2-3.8l-1.8-1c-1.5-1.1-2.8-2.1-4.5-2.9-1.4-.7-.9-.9-.2-.6z"/><path d="M8.4 24.6c-.1.1-.1.3-.2.1 0 0 .1-.2.2-.1zm-.9 5.7v.1c0-.1-.1-.2 0-.1 0 0 0-.1 0 0zm0 1.4c-.1 0-.1-.3-.1-.5l.1.5zm-.3 1.4c-.1.1-.1.1 0 0-.1-.1 0 0 0 0zm.2.1c0 .1 0 .2-.1.2 0 0-.1-.2.1-.2zm1.8 2.9c.1 0 .2 0 .2.2 0-.2-.3-.2-.2-.2zm1.2.6c.1.1 0 .1 0 .1v-.1zm21.8 12.2l-.2-.1h.1zm3.5-6.7c0-.1.1-.1.1-.1 0 .1-.1-.1-.1.1zm-3.3-4.4l-.1.1z"/></g><g fill="#fff"><path d="M30.4 43.3s-.1 0 0 0zm.1-6.2c.4.1 0 .2.2.3h-.2c.3.1.1.2-.1.3h-.1s.2 0 .1.1h-.1c.3 0 0 .1.1.1h-.1c.2.1.2.1.2.2h-.2.2c-.2 0 .1 0 0 .1.2 0-.1 0 .1 0h-.1c.2 0-.1 0 0 0 0 0-.1 0 .1 0h-.2c.2.1.1.2.1.3h-.1c-.1 0 .2 0 .1 0h-.2c.1 0 .1 0 .2.1h-.1c.1 0 0 0 .1.1h-.1c-.1 0 .2 0 .1 0h-.1c.2 0 .1.1.2.1v.1h-.2.3s-.1.1 0 .1h-.4c.1 0 .3 0 .3.1h-.2.4c.1 0 .2 0 .3.1.1 0-.2 0-.1 0-.1 0 .2.1 0 .1-.1 0 0 0 0 0 .1 0 .2.1.1.1.1 0-.1-.1 0 0-.1 0 .2 0 0 0H31h.1c-.1 0 .1 0-.1 0h-.2.3c-.1 0 0 .1-.2.1-.1 0 0 0 0 0h-.2.3c-.2 0 .1 0-.1.1h-.2c-.2 0 .2 0 .1.1h.2c-.1 0 .1 0-.1 0 .1 0-.1 0 .1 0-.2 0 .1.1-.2.1h.1c.1 0-.1 0 0 0h.1-.2c-.1 0 .3 0 .2.1h-.1c-.1 0 0 0 0 0h.1-.3.3c-.1 0 .1.1-.1.1h.1s.1.1-.1.1h-.2c.1 0-.1 0 .1 0h.2v.1h.1c-.1 0-.1 0-.2.1.3 0 .3.1.3.2h-.1c-.1 0 .1 0 .1 0H31c-.1 0 .1 0 .2 0s-.1 0 .1 0c0 0-.1 0 .1 0h-.3c-.1 0 .1 0 0 0h.1c-.1 0 .2 0 0 0h.1-.2.2c.1 0-.1 0 .1 0-.2 0 0 0 .1 0h-.1.1c.1 0-.2 0-.2 0h-.1s-.1 0 0 0h.3s-.1 0 0 0h-.1c.1 0-.5 0-.2 0h.3-.4s-.2 0 .1 0h.1c-.1 0 .2 0 .1 0h-.2c-.1 0 .1 0-.2 0h-.1.2s.1 0 .1.1H31c.1 0 .1 0-.1-.1h-.1l.2.1h-.2v.1h.4c.1 0-.2 0 0 0h-.4c.1 0-.1 0-.1 0 .1 0 .2 0 .2.1-.2 0 0 .1 0 .1h-.2s-.1 0 .1 0h-.4c-.1 0 0 0 0 0h.1c.1 0 0 0 0 .1h-.6c.2 0-.1 0-.1-.1 0 0 0-.1.1-.1h.1c-.2 0-.1-.1-.2-.1.1 0-.1-.1.1-.1-.1-.1-.2-.1-.1-.2h.2c-.1 0 .1 0 .1 0h-.2c.1 0 0-.1-.1-.1h.1c-.2 0 0-.1 0-.1h.1c-.2 0-.2 0-.3-.1l.1-.1c-.2-.1-.1-.2-.2-.2h.1c-.3-.1 0-.2-.2-.2h.2c.1 0 0 0-.2 0 .1 0-.1 0 .1-.1h-.1c.1 0 .1-.1 0-.1h.1-.2c.1 0-.1-.1.1-.1h-.1s.1-.1 0-.1c-.1-.1.1-.1.1-.2-.1-.1-.1-.2-.1-.3-.2 0 .2-.1-.1-.1h.1c-.1 0 .1-.1 0-.1.1 0 0-.1.1-.1h.1c.1 0-.2 0 0 0h-.1c.1-.1-.1-.2-.1-.3.1-.1.4 0 .2 0 0 0-.1 0 0 0-.1 0 .3 0 .1 0h-.2c.1 0 .2 0 .1-.1h.1c-.2 0-.1-.1-.3-.1 0-.2-.2-.4-.2-.6s-.1-.4.1-.6c.2 0 .2 0 .1-.1h.1-.2v-.2h-.2c-.1-.2.2-.4.2-.5.1 0 0-.1 0-.1.2-.1.4-.3.2-.4.4 1.6.9 1.6 1 1.7z"/><path d="M30.4 43.2zm.8-.4zm.1-.1zm.3-.1z"/><path d="M31.4 42.6zm.2-.2s-.1-.1 0 0c0-.1.1 0 0 0zm-.1-.1zm-.3-1.9zm0-.8zm-.4-.5h-.1zm-9.3-22.9L8.1 24l27.1 15.6 13.4-7.7z"/></g><g fill="#202020"><path d="M21.5 16.6c.3-.2-.2 0 .2-.2-.1.1-.1.2-.2.2zm.9.4c1.2.2 2.2 1.3 3.4 1.7.1.1-.1.2.2.3 1.2.3 2.7 1.4 3.8 2.3h-.1c.2.2.6.2.8.3 0 0-.1 0-.1.1.1-.1.5.2.6.2.1.1 0 .2.1.3h.2c.6 0 1 .6 1.6.8h-.1c1 .3 2 1 3 1.5-.1 0-.1.1-.1.1.1-.1.4 0 .7.2 0 .2.5.1.8.4.3 0 .3.3.6.2l.1.2c.2-.1.3.3.5.3.2.1.2.2.4.3.4.2.6.4.7.3.1.2-.4-.2-.3.1 1.3.6 2.6 1.4 3.9 2.1.1.1.2.2.2.3.1 0 .5.3.7.3 0 0 0 .1.1.2.2.2.3 0 .6.2-.1 0-.2 0-.2.1.3 0 .6.2.8.3h-.1c.3 0 .5.3.8.4h-.1c.3.3.2-.1.5.1h-.1c.4 0 .9.4 1.3.5.4.2.7.5 1.3.7.1.1-.3 0-.2.1 0 0-.1 0-.2.1.4 0-.5.4 0 .3-.5.2-1.1.5-1.3.7.1-.1-.3-.1 0-.3h-.3c0-.1.2-.1.1-.1-.1.1-.5.4-.6.4-.2.2-.3.5-.7.8.2-.2-.2-.1-.1-.2l-.4.6c-.1.1-.1-.1-.3 0 0 0 0 .1-.1.2-.1 0-.5.4-.7.2-.1 0 .2-.2 0-.1s-.2.2-.5.3c-.2.1-.4.3-.2.3.1-.1-.1-.1.1-.1-.1.2-.3.3-.6.5.1-.1 0-.1 0-.2-.3.3-.6.5-.9.8 0 .1.1-.2.1-.2-.5.2-.9.7-1.3.8.1 0 .1.1.1.1-.2.1-.3 0-.4.1 0-.1-.2.1-.3.2 0 .1-.1 0 .1-.1-.2.2-1 .8-1.5.9 0 0-.2.3-.3.4v-.1c-.1 0-.4.2-.4.1-.2.3.8-.6.6-.4-.1 0-.3.4-.4.2-.2.1-.4.4-.6.4.1 0 .1-.2-.1-.1-.3.2-.1.1-.3.3l-.1.1c0 .1-.3.1-.1.2-.1-.1-.4.3-.5.1V39a.76.76 0 0 0-.2.4h-.1c.1.2-.3.1-.5.4-.2.1-.5.2-.8.4l-.6-.4-.3-.1-.2-.1c-.1 0-.2-.1-.3-.2h.2c-.1-.1-.2-.1-.3-.2 0 0-.3-.3-.4-.5-.3-.1-.2.1-.3.1-.1-.3-.7-.2-.8-.5.1 0 .4.1.2-.1-.1-.3-.5-.1-.8-.4v.2c-.1-.2-.5-.2-.4-.3-.1 0-.3-.3-.4-.1-.5-.4-1.3-.7-1.5-1.1-.1 0-.3-.1-.3 0 .1.2.2 0 .2.1h-.1c-.1-.1-.3-.2 0-.3-.3-.3-.5 0-1-.3.1 0 0-.1-.1-.2h-.3c-.3-.2-.1-.2 0-.4-.2-.1-.4-.2-.5-.1l-.1-.3c.1.2-.2 0-.3 0h.1c0-.1-.2-.1-.3-.2 0 .1.2.2.3.3-.1 0-.2-.1-.4-.1.1-.1-.2-.2-.3-.3s-.2 0-.3 0c0-.1-.2-.1-.1-.2.1 0 .1.1.2.1-.1-.1 0-.2-.3-.2-.2 0-.1.2-.3 0h.2l-.2-.2-.1.1v-.1c-.1.1-.4-.2-.5-.1-.1-.1-.3-.2-.4-.3s-.4-.2-.5-.2a.76.76 0 0 0-.4-.2c-.2-.2.1-.4-.2-.4-.2-.1-.5 0-.4.1-.4-.3-.9-.4-1.2-.8h-.2c-.6-.4-1.3-.6-1.7-1.1.2.1.1-.1.1-.1-.2 0-.1-.2-.3-.1 0 .1-.1.1.1.3-.4-.1-.9-.5-1-.6.1.1 0 .1-.1.1.1-.1-.1-.3-.4-.4l-.1.1-.1-.2c-.1 0-.2.1-.3-.1v-.1c-.2 0-.6-.1-.8-.3l-.1-.2c-.1 0-.3-.1-.2.1-.3-.3-.6-.4-.6-.6-.8-.1-1.7-.6-2.5-1.1h.1c-.2-.2-.2 0-.3-.1.1 0-.1-.2.1-.2-.3-.2-.4-.1-.6-.2-.1.1.2 0 .1.1 0 0-.4-.3-.5-.2 0-.1.1-.1.1-.2h-.2c-.1-.3.6 0 .5-.3l-.2-.1c-.1-.2.5.1.1-.2-.2 0-.5.1-.3.2-.4-.2-.3.2-.7 0-.1-.1.3.2.3 0-.1-.2-.4-.2-.5-.3.2.1-.1.2-.2.1-.2-.2.2 0-.1-.2-.1 0-.4 0-.2.1-.2.1-.3-.2-.5-.2 0-.2.5-.1.2-.3 0 .1-.5-.1-.4.2-.1-.1-.1-.2.1-.2-.1-.2-.5 0-.5-.3l-.1.1c0-.1-.1-.1-.2-.3-.1 0-.2-.1-.3-.1s-.3-.2-.2-.2c-.1 0-.7-.4-.6-.1.3.3.5.2.6.5-.2-.3-.6-.3-.9-.4v-.1c-.2-.1-.5-.3-.7-.3.2 0 .2 0 .1-.1h-.3c-.7-.3.2-.1-.4-.4l.5.2c-.1 0-.1-.2-.4-.3-.3 0-.7-.1-1-.2-.1-.1-.2-.1-.2-.1.1 0 .2 0 .3-.2l-.1.2.2.1c.1 0 .1 0 0-.1.2-.1.5-.2.7-.3s.3-.4-.2-.2c.2-.1.6-.3.5-.1.4-.3-.2 0 .1-.3l1.2-.4c-.1.1-.2.2-.2.3l.2-.1c-.2.3.2 0 .2.2.2-.1.3-.2.4-.3-.3 0-.2-.1-.1-.3.1-.1.2-.3.1-.4.4-.3.5.3.8-.2-.1 0 0-.3-.2-.1.3-.1.1-.3.4-.4-.2.2.3 0 .1.4 0-.1-.2.1-.3.1.2 0 .1.2.3 0 .2-.1.4-.2.3-.3s-.2.1-.2 0c.3-.2.5-.1.5-.4-.2.1-.3 0-.3 0l.2-.2v.1c.4-.2 0-.2.4-.4h.3c0 .2-.6.3-.4.4.2-.1.3-.3.5-.4 0 0-.1.1-.2.1.1 0 .3.2.6-.2.1-.2 0-.1 0-.2.4-.2.4-.4.7-.5 0 .2.4-.2.3.1-.2 0-.7.3-.8.5.2.1-.3.1-.3.4.3-.2.4 0 .5.1.1 0 .2-.1.2-.2s-.1-.1-.2-.2c.4-.2.7-.4.8-.6.1 0 .2.1 0 .2.4-.3.8-.5 1.2-.7-.3 0 .4-.3.2-.3-.2.1-.5.1-.4-.1.1-.1 0 .1.1.1.1-.2.3 0 .4-.2-.3.3 0 .3.1.4.2-.2 0 .1.3 0 .2-.2.5-.5.8-.7.5-.1 1-.5 1.3-.7.2 0 .2.2.4.1s-.3-.1.1-.2c.1-.1.7-.2.6-.5v.2c.1 0 .1-.1.2-.1 0 0 .1.1 0 .1.3 0 .4-.3.6-.4h-.2c.3-.3.6-.3 1-.6v.1l.2-.2c0 .1.2.1.3-.1l-.4.6c-.2 0 .1-.2 0-.3-.1 0-.5.2-.5.3l.2-.2c.1.1-.1.2-.1.4.1 0 .2-.1.2-.1-.1.1-.2.2-.5.4.1-.1-.1 0-.1-.1 0 .1-.1.3-.4.4-.3 0-.5.4-.8.5.1-.2.2-.4.3-.5-.2.1-.2.1-.5.2 0 .1 0 .3-.3.5l-.1-.1c-.2.2-.1.3-.5.5-.5.3-1.1.6-1.5.8l-.1-.1c-.1.3-.7.5-.9.7-.5.2-1 .7-1.4.7-.8.6-1.6 1.1-2.5 1.6l.1-.2c-.1.2-.2 0-.3.1.2 0-.2.3-.2.4-.2.1-.5.2-.7.4-.1.1-.2.2-.2.3h-.1c0 .1-.2.2-.5.3l.1.1s-.1.1 0 .1c.4 0 .4.1.7.1l.8.6c1.1.4 2 1.1 3.2 1.6v.1c1.1.4 2.3 1.3 3.2 1.6l-.2.1c.2.2.6.3.6.1.2.2.7.3.8.5.3.2.4.1.6.2.5.4.7.5 1.3.8l-.1-.1c-.1 0-.1.1 0 .2.2.1.7.5.6.1.5.4 1.3.6 1.8 1.1 0-.1.1 0 .2 0 .5.3.9.7 1.4.8.1.1-.2 0 0 .1.1 0 0-.1.2 0 .8.4 1.5 1 2.3 1.4 1.3.6 2.6 1.5 3.9 2.1.5.1.9.7 1.3.7.1.1.4.2.2.3.4.1.8.6 1.4.8h-.1c.4.4.9.5 1.4.9h-.2c.2.2.6.1.5.4h.1v-.1l.2.2.1-.1.2-.1c.2-.1.5-.3.7-.4l1.4-.9c.9-.4.3.3.8-.2.1 0 0-.1 0-.1.2-.2.5 0 .6-.2-.1-.1.1-.1 0-.2.5-.2.7-.1 1-.5v.1c.4-.5 1-.7 1.2-1.1l3.4-2.1 1.7-1c.1-.1.1 0 .1 0L43 30.3l-3.7-2.2c-.5-.5-.5-.5-1.2-.8h.1c-.1.1-.5-.3-.6-.1-.9-.6-1.8-1-2.7-1.6.2.1.3 0 .1-.1h-.2v-.1c-.1 0-.3-.1-.2.1-2.5-1.3-4.7-2.9-7-4.2-.5-.4-1.3-.8-2-1.1-1.7-1.2-3.2-2.3-5.1-3.2.7-.1 1.1-.4 1.9 0zm-1.3-.2c-.1 0-.3 0-.2-.1.1 0 .2 0 .2.1zm-5.9 2.5s0-.1.1-.1c-.2 0-.1 0-.1.1z"/><path d="M13.7 20.1c0-.1.3-.3.4-.4l-.4.4zm-1.5.5c-.2 0-.1 0 0-.1.1 0 0 0 0 .1zm0 .2c-.1.1-.2.1-.3 0 .1.1.3-.2.3 0zm-3 1.4c-.1.1-.4.3-.5.3.2 0 .6-.4.5-.3zm-2.3 1.5c-.1 0-.1.1-.2.1-.2.1-.2 0 0-.1h.2zm24.9 14.6h-.1v-.1zM43 35.7c.1-.1.1 0 .2 0-.1.1 0-.1-.2 0zm5.9-3.8l-.1.1h-.3z"/></g><g fill="#5b7995"><path d="M39.5 37.2c.1.1 0-.1 0 0s0 .1 0 0zM12.7 21.7c.5-.1.7.4 1.2.4 0 0-.1.2 0 .2.5-.1.9.4 1.2.8.1.1.3 0 .3 0l-.1.1c.1-.1.2 0 .3 0v.2l.1-.1c.3-.2.3.2.6.2l-.1.1c.4 0 .7.2 1.1.4 0 0-.1.1-.1.2.1-.1.2-.1.3-.1 0 .1.2 0 .3.1.2-.1.1.1.2 0v.1c.1-.2.1.2.2.1.1 0 .1.1.1.1.2 0 .2.2.3 0 0 .1-.2 0-.2.2.5.1.9.4 1.3.6v.2c.1 0 .2.1.3 0v.1c0 .1.2-.1.2 0-.1 0-.1.1-.1.1.1-.1.2 0 .3 0 0 0-.1 0-.1.1.2-.1.2.1.3.1l-.1.1c.1.2.1-.1.2 0l-.1.1c.2-.1.3.1.5.1.1 0 .2.2.4.2 0 .1-.1.2 0 .2.1-.2.3 0 .3-.2.1.1.2.2.3.2-.1 0-.1.2-.2.2v.1c0 .1 0-.1-.1 0 0 0 .2 0 .2.1.1 0 .3-.2.5-.1-.1 0-.1.2-.1.2l.4-.2s-.1.1 0 .1c0 0 .1 0 .1-.1 0 0 .2.1.1.2 0 .1-.1 0-.1.1h.2s.2 0 .2-.1c0 0 0 .1-.1 0 .1-.1.2 0 .3 0 0 0-.1 0-.1.1.2-.1.3 0 .5 0 0-.1-.1.1-.1.1.1.2.4 0 .5.3v-.1c.1 0 0 .2.1.1 0 .1.1 0 .1 0 .1 0 .4 0 .5.2l.2-.1-.1.1c0 .1.1.1.1.1.2-.1-.4-.1-.2-.1 0 .1.2-.1.1 0 .1 0 .2 0 .2.1l-.1.1h.3c.1-.1.1.1.1-.1 0 .1.2 0 .1.2l-.1.1.2-.1v.1c.1-.2.1.1.2 0 .1.1.2.1.2.3h.2c0 .1.1 0 .1 0s0 .2.1.3c.1 0 .1-.1.2-.2 0 .2.3 0 .3.2 0 0-.2 0-.1.1 0 .2.2-.1.3.1l.1-.2c0 .1.2 0 .1.1.1 0 .1.1.2 0 .1.2.5.2.4.5h.1c0-.1-.1 0-.1 0h.1c0 .1.1.1 0 .2.1.2.3-.2.4 0v.1l.2-.1c.1.1 0 .2-.1.3.1 0 .1.1.2 0v.2c0-.1.1 0 .1 0l.1.1V30h.2c-.1.1 0 .1.1.2 0 0 .1-.1.1 0s.1.1 0 .1c0 0 0-.1-.1 0 0 .1 0 .1.1.1s.1-.2.2-.1c0 0-.1 0-.1.1l.1.1.1-.1c.1-.1.2 0 .2 0s.1.1.1.2.1.1.2 0h.2c0 .1-.2.4 0 .3.1 0 .2-.1.2-.2.1.1.3.1.4.3 0 0 0-.1.1-.1.2.1.5.1.5.4-.1 0-.1.1-.1.1.1-.1 0 .1.1 0 0-.1.1-.1 0-.2.1 0 .3.1.3.2 0-.1 0-.1.1-.1-.1.1 0 .2.1.2l.1-.1v.1s.1-.2.2 0v.1c.1 0 .3-.1.3 0v.2s.1 0 .1-.1c.1.1.2.2.1.3.4-.1.7 0 .9.2v.1c0 .1.1-.1.1 0-.1 0 0 .2-.1.2.1.1.2 0 .3 0 .1-.1-.1 0 0-.1 0 0 .1.1.2 0 0 .1-.1.1-.1.2h.1c0 .2-.3.2-.3.4h.1c0 .2-.2.1-.1.2.1 0 .3-.2.2-.3.1 0 .2-.3.4-.2 0 .1-.1 0-.2.1 0 .1.2 0 .2.1 0-.1.1-.2.1-.2 0 .1-.1.1 0 .2.1-.1.2-.1.1-.2.1-.1.1.1.2 0 0 .1-.3.2-.2.3 0-.1.2-.1.3-.3 0 .1 0 .1-.1.2 0 .1.3-.1.2.1l.1-.1v.2s.3-.1.2.1c0 0 .1.1.2-.1 0-.1-.1 0-.1-.1 0 .2.1 0 .2 0v.1h.2s-.1.1 0 .1l.1-.1c.1 0-.1.2 0 .2h-.1s0 .1.1.1l.2-.2c.1 0 0 .1.1.1l-.1.1v.2c.1 0 .2-.1.2-.2 0 0 .1.1 0 .2.1 0 0-.1.2-.1v.3l-.2.1c-.1.1 0 .1-.1.2h.1c0-.3.3-.2.4-.4.2 0-.2.5.1.3 0-.1.2-.2 0-.2.1.1.2-.2.2 0-.1 0 0 .2-.2.3 0-.1 0-.1-.1-.1 0 .1-.1.2 0 .2h.2c.1-.1-.1 0 0-.1.1 0 0 .2.2 0-.1 0 0-.1 0-.2h.1l-.1.1c.1.1.1-.1.2 0v.2c-.1.1-.2-.2-.2.1.1 0 .2 0 .2.1h-.1s-.1.3.1.2c.1 0 .1-.1.1-.1h.3c-.1.1.1.1 0 .2 0-.1-.2-.2-.3-.1 0 .2-.1-.1-.2.1.1.1 0 .2 0 .4h.1c.1-.1 0-.1.1-.2.1.1.2.1.4 0 0 .1-.1.2-.1.2.2 0 .3.1.4.3 0-.2.2 0 .2-.1v-.2c.1-.1 0 .2.1.1-.2 0-.2.2-.3.3.1 0-.1.1 0 .1h.4c0 .2.3.2.4.3 0 .1-.1.2-.1.3.1 0 0-.2.1-.1 0 0 .1.2.3 0l-.1.1h.1s0 .1-.1.1c0 .1.2.1.2.1v-.1c.2 0 .2.1.3.2l-.1.1h.1c-.1.1 0 .2 0 .1l-.3.1c0-.1.1-.1.2-.2 0-.1-.1-.1-.2-.1h.1l-.2.2s0 .1.1 0h-.2c.1 0 0-.1.1-.1-.1.1-.2.1-.2 0 0-.2-.2 0-.3-.1.1-.1.2-.2.3-.2 0-.1-.1 0-.1-.1-.1.1-.2.2-.3.2v-.1c-.1 0-.2.1-.3 0-.2-.1-.3-.3-.5-.3v-.1c-.2.1-.3-.1-.4 0-.1-.2-.4-.1-.4-.3-.3-.1-.6-.2-.9-.4l.1-.1c-.1.1 0-.1-.1-.1 0 .1-.2.1-.2.1-.1-.2-.3-.2-.5-.1v-.1c-.2.1-.3-.1-.4-.3v-.2c-.2.1-.2.1-.4.1-.1 0-.2-.2-.3-.3-.5 0-.7-.3-1.1-.4v-.1c-.5 0-.8-.4-1.1-.5l.1-.2c-.1-.1-.2-.1-.3.1-.1-.1-.3 0-.3-.2-.1-.1-.2 0-.3 0-.2-.2-.2-.2-.4-.3 0 0 .1-.1 0-.1s-.2-.2-.3.1c-.1-.2-.5-.1-.6-.4 0 .1-.1 0-.1.1-.2-.1-.3-.3-.5-.3 0 0 .1-.1 0-.1 0 0 0 .1-.1.1-.3 0-.5-.4-.7-.5-.5-.1-.9-.5-1.3-.7-.2.1-.2-.4-.5-.2 0-.1-.1-.1 0-.2-.2 0-.2-.3-.5-.2-.1-.2-.3-.1-.4-.3h.1c0-.1-.3.1-.2-.1l-.1.1c-.3-.3-.8-.4-1.2-.6-.2-.3.2-.4-.1-.3 0 0-.1.1 0 0-.1 0 0-.3-.1-.2 0 .1-.1 0-.1.1-.1-.2-.1-.3-.3-.3v-.1c-.3.1-.4-.1-.6 0L21 27.2c-.8-.5-1.7-.9-2.4-1.5-.1-.3-.1-.3-.4-.3v-.1c-.1.1-.2-.1-.3 0-.3-.2-.6-.3-.9-.5.1 0 .2-.1.1-.1H17s-.1 0-.1.1c-.9-.3-1.5-1.1-2.3-1.5-.2-.2-.5-.3-.7-.4-.5-.5-.9-1-1.6-1.2-.2.3.1 0 .4 0z"/><path d="M39.3 37.2c0-.1 0-.2.1-.2 0 0 0 .1-.1.2zm-1.4-1.8s0-.1 0 0c0-.1.1-.1 0 0 0-.1 0 0 0 0zm-.5-.3c0-.1.2 0 .2 0h-.2zm-.3-.6s.1-.1 0 0zm-.1.2v-.1s.1 0 0 .1zm-.8-.8c-.1 0-.1.1 0 0-.1 0 0 0 0 0zm-.5-.1s0-.1 0 0c-.1-.1 0-.1 0 0zm-8.3-4.5v.1z"/><path d="M23.8 27.3c-.1 0 0-.1 0 0 .1-.1-.1-.1 0 0zm-2.1-.8l-.1.1zm22.2 8.2c.1 0 0-.2 0 0zM17.2 19.1c.5-.1.7.4 1.2.4 0 0-.1.2 0 .2.5-.1.9.4 1.2.8.1.1.3 0 .3 0l-.1.1c.1-.1.2 0 .3 0v.2l.1-.1c.3-.2.3.2.6.2l-.1.1c.4 0 .7.2 1.1.4 0 0-.1.1-.1.2.1-.1.2-.1.3-.1 0 .1.2 0 .3.1.2-.1.1.1.2 0v.1c.1-.2.1.2.2.1.1 0 .1.1.1.1.2 0 .2.2.3 0 0 .1-.2 0-.2.2.5.1.9.4 1.3.6v.2c.1 0 .2.1.3 0v.1c0 .1.2-.1.2 0-.1 0-.1.1-.1.1.1-.1.2 0 .3 0 0 0-.1 0-.1.1.2-.1.2.1.3.1l-.1.1c.1.2.1-.1.2 0l-.1.1c.2-.1.3.1.5.1.1 0 .2.2.4.2 0 .1-.1.2 0 .2.1-.2.3 0 .3-.2.1.1.2.2.3.2-.1 0-.1.2-.2.2v.1c0 .1 0-.1-.1 0 0 0 .2 0 .2.1.1 0 .3-.2.5-.1-.1 0-.1.2-.1.2l.4-.2s-.1.1 0 .1c0 0 .1 0 .1-.1 0 0 .2.1.1.2 0 .1-.1 0-.1.1h.2s.2 0 .2-.1c0 0 0 .1-.1 0 .1-.1.2 0 .3 0 0 0-.1 0-.1.1.2-.1.3 0 .5 0 0-.1-.1.1-.1.1.1.2.4 0 .5.3v-.1c.1 0 0 .2.1.1 0 .1.1 0 .1 0 .1 0 .4 0 .5.2l.2-.1-.1.1c0 .1.1.1.1.1.2-.1-.4-.1-.2-.1 0 .1.2-.1.1 0 .1 0 .2 0 .2.1l-.1.1h.3c.1-.1.1.1.1-.1 0 .1.2 0 .1.2l-.1.1.2-.1v.1c.1-.2.1.1.2 0 .1.1.2.1.2.3h.2c0 .1.1 0 .1 0s0 .2.1.3c.1 0 .1-.1.2-.2 0 .2.3 0 .3.2 0 0-.2 0-.1.1 0 .2.2-.1.3.1l.1-.2c0 .1.2 0 .1.1.1 0 .1.1.2 0 .1.2.5.2.4.5h.1c0-.1-.1 0-.1 0h.1c0 .1.1.1 0 .2.1.2.3-.2.4 0v.1l.2-.1c.1.1 0 .2-.1.3.1 0 .1.1.2 0v.2c0-.1.1 0 .1 0l.1.1v-.2h.2c-.1.1 0 .1.1.2 0 0 .1-.1.1 0s.1.1 0 .1c0 0 0-.1-.1 0 0 .1 0 .1.1.1s.1-.2.2-.1c0 0-.1 0-.1.1l.1.1.1-.1c.1-.1.2 0 .2 0s.1.1.1.2.1.1.2 0h.2c0 .1-.2.4 0 .3.1 0 .2-.1.2-.2.1.1.3.1.4.3 0 0 0-.1.1-.1.2.1.5.1.5.4-.1 0-.1.1-.1.1.1-.1 0 .1.1 0 0-.1.1-.1 0-.2.1 0 .3.1.3.2 0-.1 0-.1.1-.1-.1.1 0 .2.1.2l.1-.1v.1s.1-.2.2 0v.1c.1 0 .3-.1.3 0v.2s.1 0 .1-.1c.1.1.2.2.1.3.4-.1.7 0 .9.2v.1c0 .1.1-.1.1 0-.1 0 0 .2-.1.2.1.1.2 0 .3 0 .1-.1-.1 0 0-.1 0 0 .1.1.2 0 0 .1-.1.1-.1.2h.1c0 .2-.3.2-.3.4h.1c0 .2-.2.1-.1.2.1 0 .3-.2.2-.3.1 0 .2-.3.4-.2 0 .1-.1 0-.2.1 0 .1.2 0 .2.1 0-.1.1-.2.1-.2 0 .1-.1.1 0 .2.1-.1.2-.1.1-.2.1-.1.1.1.2 0 0 .1-.3.2-.2.3 0-.1.2-.1.3-.3 0 .1 0 .1-.1.2 0 .1.3-.1.2.1l.1-.1v.2s.3-.1.2.1c0 0 .1.1.2-.1 0-.1-.1 0-.1-.1 0 .2.1 0 .2 0v.1h.2s-.1.1 0 .1l.1-.1c.1 0-.1.2 0 .2h-.1s0 .1.1.1l.2-.2c.1 0 0 .1.1.1l-.1.1v.2c.1 0 .2-.1.2-.2 0 0 .1.1 0 .2.1 0 0-.1.2-.1v.3l-.2.1c-.1.1 0 .1-.1.2h.1c0-.3.3-.2.4-.4.2 0-.2.5.1.3 0-.1.2-.2 0-.2.1.1.2-.2.2 0-.1 0 0 .2-.2.3 0-.1 0-.1-.1-.1 0 .1-.1.2 0 .2h.2c.1-.1-.1 0 0-.1.1 0 0 .2.2 0-.1 0 0-.1 0-.2h.1l-.1.1c.1.1.1-.1.2 0v.2c-.1.1-.2-.2-.2.1.1 0 .2 0 .2.1H42s-.1.3.1.2c.1 0 .1-.1.1-.1h.3c-.1.1.1.1 0 .2 0-.1-.2-.2-.3-.1 0 .2-.1-.1-.2.1.1.1 0 .2 0 .4h.1c.1-.1 0-.1.1-.2.1.1.2.1.4 0 0 .1-.1.2-.1.2.2 0 .3.1.4.3 0-.2.2 0 .2-.1v-.2c.1-.1 0 .2.1.1-.2 0-.2.2-.3.3.1 0-.1.1 0 .1h.4c0 .2.3.2.4.3 0 .1-.1.2-.1.3.1 0 0-.2.1-.1 0 0 .1.2.3 0l-.1.1h.1s0 .1-.1.1c0 .1.2.1.2.1v-.1c.2 0 .2.1.3.2l-.1.1h.1c-.1.1 0 .2 0 .1l-.3.1c0-.1.1-.1.2-.2 0-.1-.1-.1-.2-.1h.1l-.2.2s0 .1.1 0h-.2c.1 0 0-.1.1-.1-.1.1-.2.1-.2 0 0-.2-.2 0-.3-.1.1-.1.2-.2.3-.2 0-.1-.1 0-.1-.1-.1.1-.2.2-.3.2v-.1c-.1 0-.2.1-.3 0-.2-.1-.3-.3-.5-.3v-.1c-.2.1-.3-.1-.4 0-.1-.2-.4-.1-.4-.3-.3-.1-.6-.2-.9-.4l.1-.1c-.1.1 0-.1-.1-.1 0 .1-.2.1-.2.1-.1-.2-.3-.2-.5-.1v-.1c-.2.1-.3-.1-.4-.3v-.2c-.2.1-.2.1-.4.1-.1 0-.2-.2-.3-.3-.5 0-.7-.3-1.1-.4v-.1c-.5 0-.8-.4-1.1-.5l.1-.2c-.1-.1-.2-.1-.3.1-.1-.1-.3 0-.3-.2-.1-.1-.2 0-.3 0-.2-.2-.2-.2-.4-.3 0 0 .1-.1 0-.1s-.2-.2-.3.1c-.1-.2-.5-.1-.6-.4 0 .1-.1 0-.1.1-.2-.1-.3-.3-.5-.3 0 0 .1-.1 0-.1 0 0 0 .1-.1.1-.3 0-.5-.4-.7-.5-.5-.1-.9-.5-1.3-.7-.2.1-.2-.4-.5-.2 0-.1-.1-.1 0-.2-.2 0-.2-.3-.5-.2-.1-.2-.3-.1-.4-.3h.1c0-.1-.3.1-.2-.1l-.1.1c-.3-.3-.8-.4-1.2-.6-.2-.3.2-.4-.1-.3 0 0-.1.1 0 0-.1 0 0-.3-.1-.2 0 .1-.1 0-.1.1-.1-.2-.1-.3-.3-.3v-.1c-.3.1-.4-.1-.6 0l-2.6-1.3c-.8-.5-1.7-.9-2.4-1.5-.1-.3-.1-.3-.4-.3v-.1c-.1.1-.2-.1-.3 0-.3-.2-.6-.3-.9-.5.1 0 .2-.1.1-.1h-.1s-.1 0-.1.1c-.9-.3-1.5-1.1-2.3-1.5-.2-.2-.5-.3-.7-.4-.5-.5-.9-1-1.6-1.2-.2.3.1 0 .4 0z"/><path d="M43.8 34.6c0-.1 0-.2.1-.2 0 0 0 .1-.1.2zm-1.4-1.8c-.1 0-.1 0 0 0 0-.1 0-.1 0 0 0-.1 0 0 0 0zm-.5-.3c0-.1.2 0 .2 0h-.2zm-.3-.5c0-.1 0-.1 0 0 .1-.1.1-.1 0 0zm-.1.1V32c-.1 0 .1 0 0 .1zm-.8-.8c-.1 0-.2.1 0 0-.1 0 0 0 0 0zm-.6-.1c0-.1 0-.1 0 0zm-8.2-4.5v.1zm-3.6-2c-.1 0 0-.1 0 0 0-.1-.1 0 0 0zm-2.1-.8l-.1.1z"/></g><defs><path id="A" d="M44.2 29.2l6 3.4-.1-19.5-15.3-7.4L4.1 24.1 4.4 36 26 49.3z"/></defs><clipPath id="B"><use xlink:href="#A"/></clipPath><g clip-path="url(#B)"><path d="M48.7 31.8V16.2L26.1 29.3v15.5l4.6-2.6V37l13.5-7.8v5.2z" fill="#fff"/><g fill="#202020"><path d="M48.4 31.6c0 .3.1-.2.1.2-.1-.1-.1-.1-.1-.2zm-.8.6c-.4.4-.9.8-1.5 1.1s-1.1.6-1.7 1.1c-.1.1.2-.4-.1-.1-.1-.3-.2-1.2-.1-2s.1-1.5.3-2.5h.1c0-.4-.1-.5-.1-.8 0-.1.2-.1.1-.2-.2.3-.6.4-.8.6-.1 0 0-.1-.2-.1l-.2.3c-.3.3-.5.4-.8.6-.3.1-.6.3-.8.5v-.1c-.8.7-1.9 1.3-2.8 1.9 0-.1 0-.2-.1-.2 0 .1-.3.4-.5.5-.2-.1-.4.4-.7.5-.2.3-.4.1-.5.4H37c0 .2-.4.1-.5.3-.2.1-.3.1-.4.2-.4.3-.6.3-.5.4-.2 0 .3-.3 0-.3-1.2.9-2.5 1.6-3.8 2.3-.2 0-.3.1-.3 0-.1.1-.5.3-.5.4h-.2c0 .3.2.3.1.6 0-.1-.1-.2-.2-.1.1.3.1.6.2.9 0 0 0-.1-.1-.1.1.3 0 .6.1.9l-.1-.1c-.1.5.2.1.1.5 0-.1-.1-.1-.1-.1.2.4.1 1 .2 1.3v1.3c0 .1-.1 0-.2.1 0 0-.1 0-.2.1.2.1-.6.4-.3.5-.3.1-.9.4-1 .5.1-.1-.3-.1 0-.3H29c0-.1.2-.1.1-.1-.1.1-.5.4-.6.4-.2.2-.3.5-.7.8.2-.2-.2-.1-.1-.2-.1.2-.3.5-.6.7-.2.1 0-.2-.3 0 0 .1-.1.2-.2.3 0 0-.8.5-.7.2 0-.1.3-.2.2-.2 0 0-.1 0-.1.1 0-.2-.1-.2-.1-.4s-.1-.5-.2-.2c0 .2.1-.2.1.1-.1 0-.1-.5-.1-.8 0 .1.1.1.1.1-.1-.2-.1-.4-.2-.7 0-.2-.1-.4-.1-.6-.1 0 .2.2.1.2.1-.5-.2-1.1 0-1.5 0 .1-.1 0-.1 0 0-.3.1-.3.1-.4.1 0 0-.2 0-.4 0-.1 0 0 0 .1-.1-.2-.2-1.2-.1-1.8 0 0-.2-.3-.2-.5h.1c.1-.1 0-.4.1-.5-.1-.3.1 1 0 .7.1-.1-.2-.5 0-.4 0-.3-.1-.5 0-.8 0 .1.2.2.2 0 0-.4 0-.1-.1-.4v-.2c-.1 0 0-.3-.1-.2.1 0-.1-.5.1-.5h.2c0-.2-.2-.3-.2-.4 0 0 0-.1.1 0-.2 0 0-.4-.2-.6.1-.3 0-.8.2-1-.1-.3-.2-.5-.1-.8 0 .1 0 .1.1.1.1-.2 0-.2 0-.4 0 0 .1-.4.2-.6-.1-.3-.2-.2-.3-.2.2-.2-.1-.7.1-1 0 .1.1.4.2.2.2-.2-.2-.5-.1-.8l-.2.1c.1-.2-.1-.5.1-.5v-.3c0-.1 0-.2-.1-.2v-.8l.5-.3c.2-.1.3-.2.4-.3.2-.1.4-.2.6-.1.1-.1.3-.1.2-.2-.2 0-.1.2-.2.1.1 0 .1-.1 0-.1.2-.1.3-.1.2.1.4-.1.2-.5.7-.7 0 .1.1.1.2 0l.2-.3c.3-.1.3 0 .3.1.2-.1.3-.2.4-.3h.3c-.2 0 .1-.1.2-.2l-.1.1c.1 0 .2-.1.3-.2-.1 0-.3 0-.4.1 0-.1.2-.2.3-.3 0 .1.3-.1.4-.1.2-.1.1-.2.2-.2 0 0 .2-.1.2 0 0 0-.2 0-.2.1.1 0 .2.1.3-.1.1-.1-.2-.2.2-.3-.1.1 0 .1-.1.2l.3-.1v-.1c0-.1.4-.3.4-.4.1-.1.3-.1.5-.2.2 0 .4-.2.5-.3.1 0 .3-.2.4-.3.3 0 .3.3.5.1.2-.1.2-.4.1-.4.4-.2.8-.6 1.3-.6 0-.1 0-.1.1-.2.6-.3 1.2-.8 1.7-.9-.2.1 0 .1.1.2.1-.2.2 0 .2-.2-.1-.1-.1-.1-.3-.1.3-.3.8-.5 1.1-.6-.1 0-.1 0 0-.1 0 .1.3 0 .5-.1v-.1h.2c.1-.1 0-.2.2-.3 0 0 .1 0 .1.1.2-.2.4-.5.6-.5h.3c.1-.1.2-.2 0-.2.4-.1.7-.3.8-.2.5-.6 1.4-1.2 2.2-1.6v.1c.2-.1 0-.2.2-.2 0 .1.2 0 .1.2.3-.1.3-.3.5-.5 0-.1-.1.1-.1 0 0 0 .4-.2.4-.3.1 0 .1.1.1.2l.1-.2c.3 0-.3.5 0 .6l.2-.1c.2 0-.3.4.1.2.1-.2.2-.4 0-.4.3-.3 0-.4.4-.6.2 0-.3.2-.2.3.2 0 .3-.3.5-.3-.2.1-.1-.2 0-.3.2-.1-.1.2.2 0 0-.1.2-.3 0-.2 0-.2.3-.1.4-.3.2.1-.1.4.2.3-.1-.1.3-.4 0-.4.1 0 .2 0 .2.2.2 0 .3-.5.5-.3v-.1h.3c.1 0 .2-.1.3-.2s.3-.2.3-.1c.1-.1.7-.4.4-.4-.4.1-.4.4-.7.3.3 0 .5-.3.8-.5v.1c.1-.1.5-.3.6-.4-.1.1-.1.1 0 .1l.2-.2c.6-.4 0 .2.6-.1l-.4.4c.1-.1.2 0 .5-.2.2-.2.5-.5.6-.7.1-.1.2-.1.2-.1 0 .1-.1.2 0 .3l-.1-.2-.2.1v.1c0 .2-.1.5-.1.7s.2.5.3 0c0 .3-.1.6-.1.5 0 .5.1-.2.2.2-.1.3-.2.9-.3 1.3-.1-.1-.1-.2-.2-.3v.3c-.1-.3-.1.2-.3.1a.9.9 0 0 0 .1.5c.1-.2.2-.1.3.1.1.1.2.3.3.2.1.5-.5.3-.2.8.1-.1.2.1.2-.1 0 .3.2.2.1.6-.1-.3-.2.3-.4-.1.1 0 .1-.2 0-.3-.1.1-.2 0-.2.3 0 .2 0 .4.1.4s0-.3.1-.2c0 .4-.2.4.1.6 0-.2.1-.3.2-.3v.3h-.1c-.1.4.2.1.1.5l-.2.2c-.1-.1.1-.6-.2-.5 0 .3.1.4 0 .6v-.2c0 .1-.3.2-.1.6.1.2.1 0 .2.1 0 .4.1.6.1.9-.2-.1 0 .5-.2.2.1-.1.1-.8-.1-.9-.2.2 0-.4-.2-.4 0 .4-.2.3-.3.4 0 .1 0 .2.1.3.1 0 .1-.1.3-.1 0 .4 0 .8.2 1-.1.1-.2.1-.2-.1v1.4c.2-.3 0 .5.2.3 0-.2.2-.5.3-.3 0 .1-.1 0-.1.1.1.2-.2.3 0 .5-.1-.4-.2-.1-.4-.2.1.3-.1 0-.1.3.1.3.2.7.2 1-.2.4 0 1.1 0 1.5-.1.2-.3.1-.3.3 0 .3.2-.2.1.2 0 .1-.1.7.1.8l-.2-.1v.2c-.1 0-.1.1-.2 0-.1.2 0 .5 0 .8l.1-.2c.1.4 0 .7 0 1.1h-.1l.1.3c-.1-.1-.2.2-.1.3l-.3-.6c.1-.2.1.2.2.1s.1-.5 0-.5v.3c-.2 0-.2-.2-.3-.3v.2c-.1-.1-.1-.3-.1-.6.1.2.1-.1.1 0-.1 0-.2-.3-.1-.6.2-.2-.1-.6-.1-1 .1.1.3.3.3.6.1-.2 0-.3.1-.5-.1-.1-.3-.2-.3-.5h.1c0-.3-.2-.3-.2-.6 0-.6 0-1.2.1-1.7h.1c-.2-.3-.1-.8-.2-1.2.1-.6-.1-1.3.1-1.5-.1-1-.2-1.9-.1-3l.2.2c-.1-.2.1-.1.1-.3-.1.2-.2-.3-.2-.4.1-.2 0-.5 0-.7s-.1-.3-.1-.3l.1-.1c-.1-.1-.1-.2 0-.5h-.2s0-.2-.1-.1c-.2.3-.3.3-.5.5l-.9.4c-.9.8-2 1.2-2.9 2l-.1-.1c-.9.8-2.2 1.3-3 1.9v-.2c-.3.1-.6.4-.4.5-.3.1-.6.5-.9.4-.3.1-.3.3-.5.4l-1.3.7.1-.1c0-.1 0-.1-.1-.1-.2.2-.7.4-.4.5-.6.2-1.2.9-1.9 1 .1 0 0 .1-.1.2-.5.3-1.1.5-1.4.8-.1 0 .1-.2-.1-.1-.1.1 0 .1-.1.2-.7.6-1.7.8-2.4 1.3-1.2.9-2.6 1.6-3.8 2.3 0 0-.1.1-.2.1h-.1s0 .1.1.2c0 .1 0 .4-.1.3.1.4-.1 1 0 1.6v-.1c-.1.5 0 1-.1 1.6 0-.1 0-.2-.1-.2-.1.2.2.5 0 .6 0 .1.1.1.1 0-.1 1.3.1 2.6.1 3.9-.1 1-.4.1-.2.8 0 .1.1 0 0 0 .1.3-.3.5-.1.6.1-.1.1.1.2.1-.1.6-.2.7-.1 1.1h-.1c.2.5.1 1.1.3 1.6v1.2l.2-.1h.1l.5-.3 1.1-.7.5-.3v-5.1l2.3-1.3 1.8-1c.7-.2.7-.2 1.3-.6v.1c0-.2.5-.3.4-.5l2.7-1.6c-.1.1-.2.3 0 .1l.1-.2c.1-.1.2-.2 0-.2l2.6-1.5.7-.4 1-.5 2.5-1.4v5.1c0 .1-.1.1-.1.3h.2c.1 0 .1 0 .2-.1l.6-.3c.8-.4 1.5-.8 2.3-1.4.2-.6.2-.1-.5.4z"/><path d="M48.4 31.1c.1-.1.1-.3.2-.1 0 0-.1.2-.2.1zm.9-6.4v-.1c0 .1.1.1 0 .2v-.1zm0-1.6c.1 0 .1.4.1.6l-.1-.6zm.3-1.5c.1-.2.1-.1 0 0 .1.1 0 0 0 0zm-.2-.2c0-.1 0-.2.1-.3 0 .1.1.4-.1.3zm.3-3.3c0-.1-.1-.5 0-.6-.1.2.1.8 0 .6zm-.2-2.7v-.2c0-.2.1-.1.1 0l-.1.2zM25.6 30.9l-.1-.1h.1zm0 12.5c0 .2-.1.2-.1.3 0-.3.1 0 .1-.3zm5.1-1h-.1l-.1-.1z"/></g><path d="M12.6 21.5V37l13.5 7.8V29.3z" fill="#fff"/><g fill="#202020"><path d="M12.9 21.6c0-.2-.1.1-.1-.1.1 0 .1 0 .1.1zm.3.4c.8 0 1.5.9 2.3 1 .1 0-.1.2.1.2.8.1 1.8.9 2.5 1.6H18c.1.1.4.1.6.2 0 0-.1 0-.1.1.1-.1.3.1.4.1v.3l.2-.1c.4-.1.6.4 1.1.5 0 0-.1 0-.1.1.7.2 1.4.6 2.1.9 0 0-.1.1-.1.2.1-.1.3 0 .5.1 0 .2.4.1.5.2.2 0 .2.2.4.1v.1c.2-.1.2.2.3.2s.2.1.3.2c.3.1.4.3.5.1 0 .2-.3-.1-.2.1.6.2 1.2.5 1.8.9v1c-.1.1-.1.2-.1.2 0 .1 0 .4.1.5l-.1.1c-.1.2.2.2.1.4 0-.1-.1-.1-.2-.1.1.2.1.4.2.6 0 0 0-.1-.1-.1.1.2 0 .4.1.6l-.1-.1c-.1.3.2.1.1.4 0-.1-.1 0-.1 0 .2.2.1.6.2.9v.8c0 .1-.2 0-.2.3.2 0 .1.5.3.3 0 .2-.1.6 0 .8-.1-.1-.2.1-.2-.1l-.1.1c-.1 0 0-.2-.1-.1 0 .1.1.4 0 .5.1.2.3.4.3.7-.1-.1-.2.1-.2 0l.4.4c0 .1-.2 0-.1.2l.1.1s0 .4-.1.5c-.1 0 0-.2-.1 0 0 .2.1.2.1.4 0 .1.1.4.2.2 0-.1-.1 0-.1-.1.1.1.1.3.1.5 0-.1-.1-.1-.1-.1l.3.8c.1 0-.2-.1-.1-.1-.1.4.2.7 0 1h.1c0 .2-.1.2-.1.3-.1 0 0 .1 0 .3 0 .1 0 0 0-.1.1.2.2.8.1 1.2 0 0 .2.2.2.3h-.1c-.1.1 0 .3-.1.3.1.2-.1-.7 0-.5-.1.1.2.3 0 .3 0 .2.1.3 0 .5 0-.1-.2-.2-.2 0 0 .3 0 .1.1.4v.2c.1.1 0 .3.1.2-.1 0 .1.6-.1.4l-.2-.2c0 .1.2.4.2.5h-.1c.2.3 0 .3.2.8v.5c-.2-.1-.3-.2-.5-.4-.2 0-.3 0-.6-.2h.1c-.2-.2-.2-.1-.3-.1l-.5-.5c-.2 0-.2.1-.2.2-.1-.3-.7-.2-.7-.5.1 0 .3 0 .2-.1 0-.3-.3 0-.5-.2v.2c0-.1-.4-.1-.3-.2-.1 0-.2-.2-.3 0-.3-.3-.9-.4-1-.8-.1 0-.2-.1-.2 0s.2 0 .2.1h-.1c-.1-.1-.2-.2 0-.2-.2-.2-.4.1-.7-.1 0-.1 0-.1-.1-.1h-.2c-.2-.1 0-.2 0-.3-.1 0-.3-.1-.3-.1v-.2c0 .1-.1 0-.2 0h.1c0-.1-.1-.1-.2-.1 0 .1.1.2.1.2h-.3c.1-.1-.1-.2-.2-.2-.1-.1-.2 0-.2 0 0-.1-.2-.1 0-.1 0 0 0 .1.1.1 0-.1 0-.2-.2-.2-.1 0-.1.2-.3 0h.2l-.2-.2-.1.1V42c-.1.1-.3-.1-.4 0-.1 0-.2-.2-.2-.2-.1-.1-.2-.2-.4-.1 0 0-.2-.1-.3-.1-.1-.2.2-.4-.1-.4-.2-.1-.3 0-.3.1-.2-.2-.6-.2-.8-.5-.1 0 0 .1-.1 0-.4-.3-.9-.4-1.1-.7.1 0 .1-.1.1-.1-.1 0-.1-.1-.2 0 0 .1-.1.1 0 .2-.3-.1-.6-.3-.7-.5 0 .1 0 .1-.1.1.1-.1-.1-.3-.2-.3l-.1.1v-.1c-.1 0-.2.1-.2 0v-.1c-.2 0-.4 0-.5-.2V39c-.1 0-.2 0-.1.1-.2-.2-.4-.3-.4-.5-.2 0-.4 0-.6-.1a4.67 4.67 0 0 1-1-.5v-1.1h.1c.1-.2-.1-.1-.1-.2.1 0 .2-.1.2 0 .1-.2-.1-.3-.2-.4-.1 0 .1.1-.1.1 0 0 .1-.3-.1-.3.1-.1.2 0 .2 0l-.1-.1c.2-.2.3.4.5.2v-.1c.2-.1.2.3.2 0-.1-.1-.3-.3-.3-.1 0-.3-.3-.1-.3-.4.1-.1 0 .2.1.2.1-.1-.1-.3 0-.4 0 .1-.2 0-.2-.1.1-.1.1.1.2-.1-.1 0-.2-.2-.2-.1-.2-.1 0-.2-.1-.4.1-.1.3.2.4 0-.1 0-.2-.3-.4-.2 0-.1.1-.1.2 0 .1-.1-.2-.3 0-.4h-.1l.2-.2c0-.1-.2-.4 0-.4 0 0 0-.3-.2-.2-.1.2.1.2-.1.3.2-.1 0-.2-.1-.3h.1c0-.1 0-.2-.1-.2h.1l-.1-.1c-.1-.2.2-.1.2-.3l.1.2s.1-.1 0-.2c-.1 0-.2-.1-.3-.2 0-.1.1-.1 0-.2l.1.2s.2-.1.2-.3c0-.1-.2-.3-.3-.1 0-.1.1-.2.1-.1 0-.2-.1 0-.2-.1.1-.1.2-.3.3-.4l.2.2v-.1c.1.1.1-.1.3 0 0-.1 0-.2-.1-.3-.2.2-.3-.3-.5-.2-.1-.3.5-.2.2-.5-.1 0-.2-.1-.2.1 0-.2-.2-.1-.1-.4.1.2.2-.2.4.1-.1 0-.1.1 0 .2.1-.1.2 0 .2-.2 0-.1 0-.3-.1-.3s0 .2-.1.1c0-.3.2-.3-.1-.4 0 .2-.1.2-.2.2v-.2h.1c.1-.3-.2-.1-.1-.4l.2-.1c.1.1-.1.4.2.4 0-.2-.1-.2 0-.4v.1c0-.1.3-.1.1-.4-.1-.1-.1 0-.2 0 0-.3-.1-.4-.1-.6.2 0 0-.3.2-.1-.1.1-.1.5.1.6.2-.1 0 .2.2.3 0-.2.2-.2.3-.3 0-.1 0-.1-.1-.2-.1 0-.1.1-.3.1 0-.3 0-.5-.2-.7.1-.1.2-.1.2 0v-1c-.2.2 0-.3-.2-.2 0 .2-.2.3-.3.2 0-.1.1 0 .1 0-.1-.1.2-.2 0-.3.1.3.2.1.4.1-.1-.2.1 0 .1-.2-.1-.2-.2-.5-.2-.7.2-.3 0-.7 0-1 .1-.1.3 0 .3-.2s-.2.1-.1-.1c0-.1.1-.5-.1-.5l.2.1v-.1c.1 0 .1-.1.2 0 .1-.2 0-.3 0-.5l-.1.1c-.1-.3 0-.5 0-.8h.1l-.1-.2c.1 0 .2-.1.1-.2l.3.4c-.1.1-.1-.1-.2-.1-.1.1-.1.3 0 .4v-.2c.2 0 .2.1.3.2v-.1c.1.1.1.2.1.4-.1-.1-.1.1-.1 0 .1 0 .2.2.1.4-.2.1.1.4.1.6-.1-.1-.3-.2-.3-.4-.1.1 0 .2-.1.3.1.1.3.1.3.3h-.1c0 .2.2.2.2.4 0 .4 0 .8-.1 1.1h-.1c.2.2.1.6.2.8-.1.4.1.8-.1 1 .1.7.2 1.3.1 2l-.2-.1c.1.1-.1.1-.1.2.1-.1.2.2.2.3-.1.3 0 .7.1 1H13c.2.3 0 .6 0 1 0 0-.1.1-.1.2.2.2.2.3.3.6 0 .2 0 .5-.1.7.2.8.1 1.5.2 2.3l-.1.1c0 .1 0 .2.1.2v.4c.1.1.1.1.3.2l.6.3-.2.1c.2.2.4.2.5 0 .2.2.5.2.5.4.2.1.3 0 .4.1.3.3.5.3.8.5l-.1-.1c-.1 0-.1.1 0 .1.2 0 .5.3.4 0 .3.3.9.4 1.2.8 0-.1.1 0 .2 0 .3.2.6.5.9.5 0 .1-.1 0 0 .1.1 0 0-.1.2 0 .6.2 1 .7 1.5 1 .9.4 1.8 1 2.6 1.4.4 0 .5.5.9.4 0 .1.2.2.1.2a.76.76 0 0 1 .4.2c.1.1.2.1.2.2 0 0 .1 0 .1.1h.1c.1.2.2 0 .3.2v.1c.1.2 0-.2.2.1l-.1-.2s.1.1.2.1v-1c.1-.6.4 0 .2-.5 0 0-.1 0 0 0-.1-.2.3-.3.1-.4-.1 0-.1-.1-.2-.1.1-.4.2-.5.1-.8h.1c-.2-.4-.1-.8-.3-1.1l-.2-5.8v-4l-.1-.1-.2-.1c-.3-.4-.3-.4-.8-.6-.1.1-.3-.2-.4 0-.6-.4-1.2-.7-1.8-1 .1 0 .2 0 .1-.1h-.2c-.1 0-.2 0-.2.1-1.7-.8-3.1-2-4.6-2.9-.3-.3-.9-.5-1.3-.7-1.1-.9-2.1-1.6-3.4-2.2-.2-.4.2-.7.8-.5z"/><path d="M12.9 21.9c-.1 0-.1.2-.2.1 0-.1.1-.1.2-.1zm-.9 4.3s-.1-.1 0 0c0-.1 0-.1 0 0zm0 1c-.1 0-.1-.3-.1-.4l.1.4zm-.3 1.1c-.1.1-.1 0 0 0-.1-.1 0-.1 0 0zm.2 0c0 .1 0 .1-.1.2 0 0-.1-.2.1-.2zm-.2 2.2s.1.2 0 .2c0 0-.2-.2 0-.2zm.1 1.1s-.1 0 0 0c-.1.1-.1.1 0 0zm12 12.5h-.1l.1-.1zm2.9-5.1c0-.1.1-.1.1-.1 0 .1-.1-.1-.1.1zm-.4-4.5v.1h-.1z"/></g><path d="M17.1 29.2v5.2l4.5 2.6v-5.2z" fill="#436685"/><g fill="#202020"><path d="M17.4 29.3c-.1-.1-.2 0 0 0 0-.1 0 0 0 0zm-.2.2c.4-.2.5.3.8.2 0 0-.1.2 0 .2.4-.1.6.2.8.6 0 .1.2-.1.2 0l-.1.1c.1-.1.1 0 .2 0v.2l.1-.1c.3-.2.2.1.4.1v.1c.3-.1.5.1.8.2 0 0-.1.1-.1.2.1-.1.2-.1.2-.1 0 .1.2-.1.2 0 .1-.1 0 .1.2 0v.1c.1-.2 0 .1.1.1s0 .1.1.1.1.1.2 0c0 .1-.1 0-.2.2a1.08 1.08 0 0 1 .7.3v.4l-.1.1s0 .1.1.1h-.1c-.1.1.2.1.1.1h-.2l.2.2h-.1c.1.1 0 .1.1.2h-.1c-.1.1.2 0 .1.1h-.1c.2.1.1.2.2.3v.3s-.2 0-.2.1c.2 0 .1.2.3.1 0 .1-.1.2 0 .3h-.4s.1.1 0 .2c.1.1.3.1.3.2h-.2l.4.1s-.2 0-.1.1h.1s0 .1-.1.1h-.1c0 .1.1.1.1.1s.1.1.2.1h-.1c.1 0 .1.1.1.2h-.1l.3.3c.1 0-.2-.1-.1-.1-.1.1.2.4 0 .5h.1c0 .1-.1 0-.1.1-.1 0 0 .1 0 .1 0 .1 0 0 0-.1.1.1.2.5.1.6l.2.3-.1-.1c-.1 0 0 .1-.1.1.1.2-.1-.5 0-.2-.1-.1.2.3 0 .2 0 .1.1.3 0 .3 0 0-.2-.3-.2-.2s0 .1.1.2v.1c.1.1 0 .1.1.2-.1-.1.1.3-.1 0l-.2-.2c0 .1.2.3.2.4l-.1-.1c.2.4 0 .1.2.4v.1c-.1 0-.1-.1-.2-.2 0 .1 0 .2-.1 0V38c-.1-.1-.1 0-.1 0s-.2-.3-.3-.4c0 .1.1.3.1.4-.2-.4-.1.1-.3-.3v-.2c-.2-.3 0 .2-.2 0l.1.3c-.1-.2-.1 0-.2-.2 0 .1-.1-.1-.1.1-.2-.3-.5-.2-.5-.6h-.1c0 .1.1 0 .1 0v.1c0-.1-.1-.1 0-.2-.1-.2-.2.2-.3.1V37l-.1.1c-.1-.1 0-.2.1-.3h-.2v-.2c0 .1-.1 0-.1.1h-.1v.1h-.1c.1-.1 0-.1 0-.1l-.1.1v-.1s0 .1 0 0c0 0 .1-.1 0-.1s-.1.2-.1.1l.1-.1v-.1l-.1.1c-.1.1-.1 0-.2.1v-.1c0-.1-.1-.1-.1 0h-.1c0-.1.2-.4.1-.3 0 0-.2.1-.2.2 0-.1-.2 0-.2-.2 0 0 0 .1-.1.1-.1-.1-.3 0-.3-.3.1 0 .1-.1.1-.1-.1.1 0-.1-.1 0 0 .1-.1.1-.1.2-.1 0-.2-.1-.2-.2 0 0 0 .1-.1.1.1-.1 0-.2 0-.2l-.1.1v-.1s-.1.2-.1.1v-.1c-.1 0-.2.1-.2 0v-.1s-.2 0-.1.1c-.1-.1-.2-.2-.1-.3-.3.1-.6 0-.8-.1v-.4h.1c.1-.1-.1 0-.1-.1.1 0 .2-.1.2-.1.1-.1-.1-.1-.2-.2-.1 0 .1 0-.1.1 0 0 .1-.2-.1-.2h.2l-.1-.1c.2-.1.3.1.5 0s.2.1.2 0c-.1 0-.3-.1-.3 0 0-.1-.3-.1-.3-.2.1 0 0 .1.1.1.1-.1-.1-.1 0-.1h-.2.2c-.1 0-.2-.1-.2 0-.2 0 0-.1-.1-.1.1 0 .3.1.4 0-.1 0-.2-.1-.4-.1h.2c.1 0-.2-.1 0-.1h-.1s.1 0 .2-.1c0 0-.2-.1 0-.1 0 0 0-.1-.2-.1-.1.1.1.1-.1.1.2 0 0-.1-.1-.1h.1s0-.1-.1-.1c-.1-.1.2 0 .2-.1l.1.1s.1 0 0-.1h-.3s.1 0 0-.1l.1.1s.2 0 .2-.1c0 0-.2-.1-.3 0 0 0 .1-.1.1 0 0-.1-.1 0-.2 0 .1 0 .2-.1.3-.1l.2.1h.3s0-.1-.1-.1c-.2.1-.3-.1-.5-.1-.1-.1.5-.1.2-.2h-.2c0-.1-.2 0-.1-.1.1.1.2-.1.4 0-.1 0-.1 0 0 .1.1 0 .2 0 .2-.1 0 0 0-.1-.1-.1s0 .1-.1 0c0-.1.2-.1-.1-.1 0 0-.1.1-.2.1v-.1h.1c.1-.1-.2 0-.1-.1h.2c.1 0-.1.1.2.1 0-.1-.1-.1 0-.1 0 0 .3 0 .1-.1h-.2c0-.1-.1-.1-.1-.2.2 0 0-.1.2 0-.1 0-.1.2.1.2s0 .1.2.1c0-.1.2-.1.3-.1l-.1-.1h-.3c0-.1 0-.2-.2-.2h.2v-.3c-.2.1 0-.1-.2-.1 0 0-.2.1-.3.1h.1c-.1 0 .2-.1 0-.1.1.1.2 0 .4 0-.1-.1.1 0 .1-.1-.1-.1-.2-.1-.2-.2.2-.1 0-.2 0-.3.1 0 .3 0 .3-.1s-.2 0-.1 0c0 0 .1-.1-.1-.2h.4c.1 0 0-.1 0-.2h-.1c-.1-.1 0-.2 0-.3h.1l-.1-.1c.1 0 .2 0 .1-.1l-.3-.7c0 .1-.1 0-.2 0s-.1.1 0 .1v-.1c.2 0 .2 0 .3.1l-.1-.1c.1.1.1.1.1.2h-.1c.1 0 .2.1.1.1-.2 0 .1.1.1.2-.1 0-.3-.1-.3-.1-.1 0 0 .1-.1.1.1 0 .3 0 .3.1h-.1c0 .1.2.1.2.1 0 .1 0 .3-.1.4h-.1c.2.1.1.2.2.3-.1.1.1.3-.1.3.1.2.2.4.1.7h-.2c.1 0-.1 0-.1.1.1 0 .2.1.2.1-.1.1 0 .2.1.3h-.1c.2.1 0 .2 0 .3 0 0-.1 0-.1.1.2.1.2.1.3.2 0 .1 0 .2-.1.3.2.2.1.6.2.6h-.1c.1 0 .1 0 .1.1 0 0 .1.1.2.1l-.1.2c0 .1.1 0 .2-.1 0 0 .2 0 .1.1 0 .1.1 0 .2 0 .1.1.1.1.3.2l-.1.1c.1 0 .1.1.2-.1 0 .2.3.1.4.3 0-.1.1-.1.1-.1.1.1.2.2.3.2 0 0-.1.1 0 .1 0 0 0-.1.1-.1.2 0 .3.3.5.4.2 0 .4.1.4.1h.1c0-.2.1.3.1-.1v.2c0-.2.1.2.1 0 .1.2 0 0 .1.1v.1c.1.2-.1-.3.1.1l-.1-.2s0 .1.1.1c0-.1-.1-.3-.1-.4l.2.2s-.1-.1 0 0c-.1-.1.3.2.1 0-.1-.1-.1-.1-.2-.1.1 0 .2.1.1 0h.1c-.2-.2-.1-.2-.3-.3v-.3l-.1-.5c0-.3-.1-.6-.1-1v-1c.1-.2.1-.2 0-.1v-.1c-.1.1-.1 0-.2.1l-.6-.3.1-.1-.2.2c-.6-.2-1-.8-1.5-1-.1-.1-.3-.2-.5-.2-.3-.4-.6-.8-1-.9.1 0 .3-.4.5-.4z"/><path d="M17.4 29.4c-.1 0-.1.1-.2 0h.2zm-.8 1.4s-.1 0 0 0c-.1 0-.2 0 0 0-.1 0-.1 0 0 0zm-.1.4c-.1 0-.1-.1-.1-.1l.1.1zm-.3.3s-.1 0 0 0z"/><path d="M16.4 31.5c0 .1-.1.1 0 0 0 .1-.2 0 0 0zm-.2.8s-.2 0 0 0zm.1.3s-.1 0 0 0c-.1.1-.1 0 0 0zm4.9 4.8h-.1v-.1zm1-2.3c-.1-.1 0-.1 0 0 .1 0 0-.1 0 0zm-.4-1.5h-.1z"/></g><path d="M26.1 29.3l22.6-13.1-13.5-7.7-22.5 13z" fill="#fff"/><g fill="#202020"><path d="M26.2 28.9c-.3.2.2 0-.1.1-.1 0 0-.1.1-.1z"/><path d="M25.4 28.6c-1-.2-2-1.1-3-1.5-.1 0 .1-.2-.1-.3-1-.3-2.4-1.2-3.4-2.1h.1c-.2-.2-.5-.1-.8-.3 0 0 .1 0 .1-.1-.1.1-.4-.2-.6-.2-.1-.1 0-.2-.1-.3h-.2c-.5.1-.8-.5-1.4-.6 0 0 .1 0 .1-.1-.9-.3-1.8-.8-2.8-1.4.1 0 .3 0 .3-.1a1.9 1.9 0 0 1-.9-.3s0-.1-.1-.1c.1-.1.1-.2.4-.3 0-.2.5-.2.4-.4h.3c-.1-.2.4-.1.5-.3.2-.1.3-.1.4-.2.3-.2.6-.3.5-.4.2 0-.3.2 0 .3 1-.8 2.2-1.4 3.3-2.1h.3c.1-.1.4-.3.5-.4h.2c.2-.1.1-.3.4-.4-.1.1-.1.1 0 .2.1-.2.4-.4.6-.5 0 0-.1.1 0 .1.2-.3.5-.2.6-.4v.1c.4-.1 0-.2.3-.3-.1.1 0 .1 0 .1.2-.3.7-.5.9-.7.3-.2.6-.3 1-.6.1 0 .1.2.4 0-.1-.1.5-.4.2-.5.3-.1.8-.3.9-.5-.1.1.3.1 0 .3h.2c0 .1-.2.1-.1.1.1-.1.4-.3.5-.4.2-.2.3-.5.6-.7-.1.2.2.1.1.2l.3-.6c.1-.1.1.1.2 0 0 0 0-.1.1-.2 0 0 .5-.3.6-.2.1 0-.2.1 0 .1.2-.1.2-.2.4-.3s.4-.3.2-.3c-.1 0 .1.1-.1.1 0-.1.3-.3.5-.4-.1.1 0 .1 0 .2.2-.3.5-.5.8-.7 0-.1 0 .2-.1.2.5-.1.8-.6 1.2-.7l-.1-.1c.2-.1.3 0 .4-.1 0 .1.2-.1.3-.2 0-.1 0 0-.1.1.2-.2.8-.7 1.3-.8 0 0 .2-.3.3-.4v.1c.1 0 .3-.2.4-.1.1-.2-.8.6-.5.3.1 0 .3-.4.3-.2.2-.1.3-.3.6-.4-.1 0-.1.2.1.1.3-.2 0-.1.3-.3l.1-.1c0-.1.3-.1.1-.2.1.1.4-.3.4-.1v.1c.1-.1.1-.3.2-.4h.1c0-.1 0-.1.1-.2 0 0 .1 0 .1-.1.1 0 .1-.1.2-.2.2-.1.5-.2.7-.3.2.1.4.3.5.4.3.1.5.1.7.3h-.2c.1.1.2.1.3.1 0 0 .2.3.3.4.2 0 .2-.1.3-.1.1.3.6.2.7.5-.1 0-.3-.1-.2.1.1.3.4.1.7.3V9c.1.2.5.1.3.3.1 0 .3.3.4.1.4.4 1.2.6 1.3 1 .1 0 .2.1.3 0-.1-.1-.2 0-.2-.1h.1c.1.1.2.2 0 .3.3.3.5-.1.9.2-.1 0 0 .1.1.2h.3c.3.2.1.2 0 .3.2.1.3.2.4.1l.1.2c-.1-.2.2 0 .2 0h-.1c0 .1.2.1.3.2 0-.1-.1-.2-.2-.3.1 0 .2.1.3.1-.1.1.2.2.3.3s.2 0 .2 0c0 .1.2.1.1.1 0 0-.1-.1-.2-.1.1.1 0 .2.2.2s.1-.2.3 0h-.2l.2.2.1-.1v.1c.1-.1.4.2.5.1l.3.3c.1.1.3.2.5.2.1 0 .3.1.4.1.2.2-.1.4.1.4.2.1.4 0 .4-.1.3.3.8.3 1 .7.1 0 0-.1.2 0 .4.3.9.5 1.3.7s.9.5 1 .7c-.3-.1-.2 0-.3 0 .2 0 .2.1.2.1-.1 0-.2 0 0 .1.2 0 .3 0 .5-.1l-.1-.1s.1 0 .1.1c-.4.3-1.2.7-1.5.8.2-.1.1 0 0 .1-.2-.1-.5.1-.7.3v.1h-.3c-.1.1 0 .3-.3.3 0 0-.1 0-.1-.1-.1.2-.3.4-.6.5h-.2c-.1.1-.2.2 0 .2-.4.1-.6.2-.8.2-.4.6-1.2 1.1-1.9 1.4v-.1c-.2 0 0 .2-.2.2 0-.1-.2 0-.1-.2-.3.1-.3.3-.4.4 0 .1.1-.1.1 0 0 0-.4.1-.4.3-.1 0-.1-.1-.1-.2l-.1.1c-.3 0 .3-.5 0-.6l-.1.1c-.2 0 .3-.4-.1-.2-.1.1-.2.4 0 .4-.3.2 0 .4-.3.6-.1 0 .3-.2.1-.2s-.3.3-.5.3c.2 0 .1.2 0 .2-.2 0 0-.2-.2 0 0 .1-.2.3 0 .2 0 .2-.3.1-.3.3-.2-.1.1-.4-.2-.3.1.1-.3.4 0 .4-.1 0-.2 0-.2-.2-.2 0-.3.4-.4.2v.1H40c-.1.1-.3.4-.4.2 0 0-.3.2-.2.3.2 0 .2-.2.4-.1-.2 0-.3.2-.4.3l-.1-.1c0 .1-.2.1-.2.2 0-.1 0-.1-.1-.1v.1c-.2.2-.2-.1-.4 0l.2-.2s-.2 0-.3.1v.4c-.1.1-.1-.1-.2.1l.1-.2s-.2-.1-.4 0c-.1.1-.2.4 0 .3-.1.1-.3.1-.2 0-.2.2.1.1-.1.3h-.6l.1-.3v1.1c.1-.2-.1 0-.1-.2-.1 0-.2.1-.3.2.4 0-.1.5 0 .6-.3.3-.5-.3-.7.2.1 0 0 .3.2.1-.2.1 0 .3-.4.4.2-.2-.3-.1-.1-.4 0 .1.2 0 .2-.1-.1 0-.1-.2-.3-.1-.1.1-.3.2-.2.3s.2-.1.2 0c-.3.2-.4.1-.4.3.2-.1.3 0 .3 0l-.2.2v-.1c-.4.1 0 .2-.4.4l-.2-.1c0-.2.5-.2.3-.4-.2.1-.2.3-.5.3l.1-.1c-.1 0-.3-.2-.5.1-.1.1 0 .1 0 .2-.3.2-.4.4-.6.5 0-.2-.4.2-.2-.1.2 0 .7-.3.7-.5-.2-.1.3-.1.3-.4-.3.1-.4 0-.5-.1-.1 0-.1.1-.2.2 0 .1.1.1.2.2a1.41 1.41 0 0 0-.7.6c-.1 0-.2-.1 0-.2-.3.2-.7.5-1.1.6.3 0-.4.3-.1.3.2-.1.4 0 .4.1-.1.1 0-.1-.1-.1-.1.2-.3 0-.4.2.3-.3-.1-.3-.1-.4-.2.2 0-.1-.3 0-.2.2-.5.4-.7.6-.4.1-.8.5-1.1.7-.2 0-.2-.2-.4-.1s.2.1-.1.2c-.1.1-.6.2-.6.5v-.2c-.1 0-.1.1-.1.1l-.1-.1c-.3 0-.4.2-.6.4h.2c-.3.3-.6.3-.9.5v-.1l-.2.2c0-.1-.2-.1-.3.1l.4-.5c.2 0-.1.2.1.3.1 0 .4-.2.4-.3l-.2.2c-.1-.1.1-.2.1-.4-.1 0-.2 0-.2.1.1-.1.2-.2.4-.3-.1.1.1 0 .1.1 0-.1.1-.3.4-.4.3 0 .4-.4.7-.5a.55.55 0 0 1-.3.5c.2 0 .2-.1.4-.2 0-.1 0-.3.2-.5l.1.1c.2-.2.1-.3.4-.4a7.62 7.62 0 0 0 1.3-.7l.1.1c.1-.3.6-.4.8-.7.5-.2.9-.6 1.2-.6.8-.5 1.4-1 2.2-1.4l-.1.2c.1-.2.1 0 .3-.1-.2 0 .1-.3.2-.4.4-.1.8-.5 1.1-.8l.1.1c.2-.4.7-.4 1.1-.6h.3c.1-.3.3-.3.5-.6l.9-.4c.8-.7 1.8-1.1 2.6-1.8l.1.1c.8-.7 2-1.2 2.7-1.7v.2c.3-.1.5-.4.4-.5.3-.1.5-.4.8-.4.1 0 .2-.1.2-.2v-.1c.2 0 .3-.1.3-.2h.3l.1-.1h-.4c.1 0-.1-.1-.2-.1h-.1s-.1-.1-.2-.1c0 .1-.1 0-.2 0-.4-.3-.8-.6-1.2-.7 0-.1.2 0 0-.1-.1 0 0 .1-.2 0-.8-.3-1.3-.9-2-1.3-1.2-.5-2.3-1.3-3.4-1.9-.5 0-.8-.7-1.2-.6-.1-.1-.3-.2-.2-.3-.4 0-.8-.6-1.3-.7h.1c-.4-.3-.8-.4-1.2-.8h.2c-.1-.2-.5-.1-.5-.3l-.1.1s-.1-.1-.2-.1-.1.1-.3.2l-.6.4c-.4.3-.8.5-1.2.8-.8.3-.2-.3-.7.2-.1 0 0 .1 0 .1-.2.2-.5 0-.6.2.1.1-.1.1 0 .2-.5.2-.7.1-.9.4v-.1c-.3.4-.8.6-1.1 1l-6.5 4-6.6 3.7c-.6.1-.7.1-1.2.5v-.1c0 .2-.4.3-.4.4l-.3.2-.1.1c.1 0 .2 0 .2-.1l.8.4 1.5 1c1 .7 2 1.3 3.1 1.9l1.8 1c1.5 1.1 2.8 2.1 4.5 2.9.3.1-.1.3-.8 0zm1.1.1c.1 0 .3 0 .2.1-.1 0-.2 0-.2-.1z"/><path d="M31.8 26.6s0 .1-.1.1c.2 0 .1 0 .1-.1zm1.3-.7c0 .1-.2.3-.4.4l.4-.4zm1.4-.4c.1 0 .1 0 0 .1-.1 0 0 0 0-.1zm0-.2c.1-.1.2 0 .2 0 0-.1-.2.1-.2 0zm2.6-1.3c.1 0 .2-.2.3-.1-.1 0-.3.2-.3.1zm1.1-.8c.2 0 .2.1 0 0zm0-13.6h.2l-.1.1zm-10 2.3c-.1.1-.1 0-.2 0 .2-.1.1.1.2 0zm-4.9 3.3v-.1l.1.2z"/></g></g></svg>