<svg xmlns="http://www.w3.org/2000/svg" xmlns:xlink="http://www.w3.org/1999/xlink" viewBox="0 0 47.9 43.3"><path d="M39.4 33.4v-8.5l-11.1 6.4v8.5z" fill="#fff"/><g fill="#202020"><path d="M39.1 33.3c0 .2.1-.1.1.1-.1 0-.2-.1-.1-.1zm-.3.2c-.2.6-1 .6-1.4 1.1 0 0-.1-.2-.2-.1-.3.5-1.1.8-1.8.9v-.1c-.1 0-.2.3-.3.3v-.1c0 .1-.2.2-.2.3-.1 0-.1-.1-.2-.1v.1c0 .4-.5.2-.6.5v-.1c-.3.4-.8.6-1.2 1 0 0 0-.1-.1-.2 0 .1-.1.3-.2.3-.1-.1-.1.2-.3.2 0 .2-.2 0-.2.2l-.1-.1c.1.2-.2 0-.2.1-.1.1-.1 0-.2.1s-.3.1-.2.2c-.1-.1.1-.1 0-.3-.5.5-1.1.8-1.7 1.1-.1 0-.1 0-.1-.1l-.3.3v-.1c-.1 0-.2.3-.3.3.1-.1.1-.2.1-.2-.1.2-.3.3-.4.4 0 0 .1-.1.1-.2-.2.3-.2.1-.4.3l.1-.1c.1-.2-.2.3-.1 0l.1-.1c-.2.1-.1-.3-.2-.4v-.6c0-.1.2-.1.2-.3-.2.1-.1-.3-.3-.2 0-.2.1-.5 0-.6.1.1.2-.1.2.1l.1-.1c.1 0 0 .1.1.1 0-.1-.1-.3 0-.3-.1-.1-.3-.2-.4-.5.1.1.2 0 .2 0l-.4-.3c0-.1.1 0 .1-.1 0 0-.1 0-.1-.1 0 0 0-.3.1-.3s0 .1.1 0c0-.1-.1-.1-.1-.3 0-.1-.1-.3-.2-.1 0 .1.1 0 .1.1-.1-.1-.1-.2-.1-.3h.1c-.1-.2-.2-.4-.3-.5-.1 0 .2.1.1.1.1-.2-.2-.5 0-.7h-.1c0-.1.1-.1.1-.2.1 0 0-.1 0-.2-.1-.1-.2-.5-.1-.8l-.2-.2h.1c.1 0 0-.2.1-.2-.1-.1.1.5 0 .3.1 0-.2-.2 0-.2 0-.1-.1-.2 0-.3 0 0 .2.1.1 0 0-.2 0 0-.1-.2v-.1c-.1 0 0-.1-.1-.1.1 0-.1-.2.1-.2h.1c0-.1-.1-.1-.2-.2h.1c-.2 0 0-.2-.1-.4v-.4c.1-.1.2-.1.4-.1.1-.1.2-.3.4-.3 0 0-.1.1 0 .1s.1-.1.2-.1h.3c.1-.1 0-.2 0-.3.2.1.2-.3.4-.2 0 0-.1.2 0 .2.2.1.1-.3.3-.2l-.1-.1c.1.1.2-.2.2 0 0-.1.2 0 .1-.2.3 0 .5-.4.9-.2l.1-.1c-.1 0 0 .1-.1.1v-.1c.1 0 .2 0 .2.1.2 0 0-.4.3-.4 0 .1.1.1.1 0v-.2c.1 0 .2.1.2.2.1-.1.2-.1.1-.2l.2.1c-.1-.1 0-.1 0-.1s.1 0 .1-.1-.1 0-.2 0c0-.1.1-.1.1-.2 0 .1.2 0 .2 0 .1 0 0-.1 0-.1.1 0 .1.1.2 0 0-.1-.1-.2 0-.2v.1h.1V28c0-.1.2-.1.1-.3h.2c.1 0 .2-.1.2-.2 0 0 .1-.1.1-.2.1 0 .2.3.3.2s.1-.3 0-.3c.2 0 .3-.3.6-.3v-.1c.3-.1.5-.4.8-.4 0 .1 0 .1.1.1 0-.1.1 0 .1-.1-.1-.1-.1-.1-.2-.1.1-.1.4-.3.5-.3-.1 0 0-.1 0-.1.1.1.2.1.3 0v-.1h.1s-.1-.2.1-.2c0 0 0 .1.1.1 0-.1.1-.3.3-.3l.1.1s.1-.1 0-.1c.2 0 .3-.1.4 0 .1-.2.2-.4.4-.5.1-.1.2-.1.3-.2s.3-.1.4-.2v.1c.2 0 0-.2.2-.2 0 .1.1.1.1.2.2 0 .2-.3.4-.4 0-.1-.1.1-.1 0s.3-.1.4-.3v.3l.1-.2c.1.1-.4.6-.2.7l.1-.1c.1.1-.2.3 0 .3.1-.1.2-.5.1-.5.2-.2.2-.5.5-.7 0 .1-.2.2-.2.3.1.1.3-.2.4-.3-.1 0 .1-.3.2-.4.1 0-.2.3 0 .2.1-.1.3-.4.2-.4.2-.4.2-.1.5-.4 0 .2-.5.6-.3.6.1-.2.5-.5.5-.7v.1c0 .1-.1.1-.1.2l-.1.1c0 .2.2 0 0 .4l.1-.1c0 .1-.1.2-.1.4 0 .1.2.2 0 .4 0 0 0 .3.1.1.1-.3-.1-.1.1-.5-.1.3 0 .3.1.4l-.1.1s0 .2.1.2l-.1.1h.1c.1.3-.2.2-.2.5l-.1-.1s-.1.2 0 .3h.3c0 .1-.1.1 0 .3l-.1-.2s-.2.2-.2.4c0 .1.2.3.3.1 0 .1-.1.3-.1.2 0 .2.1 0 .2.2l-.3.3-.2-.1v.1c-.1-.1-.1 0-.3 0 0 0 0 .1.1.2.2-.2.3.2.5.1.1.2-.5.1-.2.4.1 0 .2.1.2-.1 0 .1.2.1.1.3-.1-.1-.2.1-.4 0 .1 0 .1-.1 0-.1-.1.1-.2 0-.2.1s0 .2.1.2 0-.1.1-.1c0 .2-.1.2.1.3 0-.1.1-.1.2-.1v.1h-.1c-.1.2.1.1.1.3l-.2.1c-.1 0 .1-.3-.2-.3 0 .1.1.2 0 .3v-.1s-.3.1-.1.3c.1.1.1 0 .2 0 0 .2.1.3.1.4-.2 0 0 .2-.2.1.1-.1.1-.4-.1-.4-.2.1 0-.2-.2-.2 0 .2-.2.1-.3.2 0 0 0 .1.1.1h.3c0 .2 0 .4.1.5-.1.1-.2 0-.2 0v.6c.2-.1 0 .2.2.1 0-.1.2-.2.3-.1 0 .1-.1 0-.1 0 .1.1-.2.1 0 .2-.1-.2-.2 0-.4-.1.1.1-.1 0-.1.1.1.1.2.3.2.5-.1.2 0 .5 0 .7-.1.1-.3 0-.3.1s.2-.1.1.1c0 0-.1.3.1.4h-.2v.1h-.2c-.1.1 0 .2 0 .3l.1-.1c.1.2 0 .3 0 .5h-.1l.1.1c-.1 0-.2.1-.1.1l-.3-.3c.1-.1.1.1.2 0 .1 0 .1-.2 0-.3v.1c-.1 0-.1-.1-.3-.1v.1c-.1-.1-.1-.1-.1-.3.1.1.1 0 .1 0-.1 0-.2-.1-.1-.3.2-.1-.1-.3-.1-.4.1.1.3.1.3.3.1-.1 0-.1.1-.2-.1 0-.3-.1-.3-.2h.1c0-.1-.2-.1-.2-.3 0-.3 0-.5.1-.8h.1c-.2-.1-.1-.4-.2-.5.1-.3-.1-.6.1-.7-.1-.5-.1-.9-.1-1.4l.1.1c-.1-.1.1-.1.1-.1-.1.1-.1-.1-.2-.2.1-.2 0-.5-.1-.7h.1c-.2-.1 0-.2 0-.4 0 0 .1-.1.1-.2h-.3c0-.1 0-.2.1-.4h-.1c-.3.3-.4.3-.6.5v-.1c0 .1-.1.1-.1.2-.1.1-.2.1-.4.2-.3.1-.5.3-.7.4l-.1-.2c-.1 0-.3.2-.1.3-.1 0-.3.3-.4.2-.1 0-.1.2-.2.3-.3.1-.4.1-.6.3h.1s0-.1-.1-.1c-.1.1-.4.1-.1.3-.3 0-.5.4-.9.4v.1c-.2.1-.5.1-.6.4 0 0 0-.1-.1-.1v.1c-.3.3-.8.3-1.1.5-.5.5-1.1.7-1.7 1.1-.1.3-.5.1-.5.4-.1 0-.2.1-.2 0-.1.2-.5.1-.6.4-.1 0-.2.1-.3.1-.1.1-.3.2-.3.1v-.1c-.1 0 .1.2-.1 0l.1.1h-.1v.3c0 .3.1.5.1.8-.1.4-.4 0-.2.4.1.1-.3.2-.1.3.1 0 .1.1.2.1-.1.3-.2.3-.1.5h-.1c.2.2.1.5.4.7 0 .7.1 1.3.1 2l.1 1v.2c.1-.1-.3.1.9-.5.4 0 .4 0 .6-.2v.1c-.1-.1.2-.1.1-.3.4-.2.8-.5 1.2-.7-.1 0 0 .2 0 .1V36s.1-.2 0-.2c1-.8 2.3-1.1 3.3-1.7.3-.1.6-.4.9-.5.9-.3 1.7-.5 2.5-1.2.2.4.3.8 0 1.1z"/><path d="M39.1 33.1c.1 0 .1-.1.2-.1-.1.1-.2.1-.2.1zm.8-2.9s.1-.1 0 0zm.1-.8c.1 0 .1.2.1.3l-.1-.3zm.3-.7c0 .1 0 .1 0 0zm-.2 0c0-.1 0-.1.1-.1-.1 0 0 .1-.1.1zm.2-1.5s-.1-.1 0-.1c0 0 .1.1 0 .1zm-.1-1v-.1s.1 0 0 .1zM29.4 30h.1zm-1.7 5.3c.1.1 0 0 0 0-.1 0 0 .1 0 0zm.4 3.1l.1-.1z"/></g><path d="M6.1,18.5V27l22.2,12.8v-8.5C26.1,30.1,8.7,20,6.1,18.5z" fill="#fff"/><g fill="#202020"><path d="M6.4 18.7c0-.3-.1.1-.1-.2.1 0 .1.1.1.2zm.3.4c.9.1 1.6.9 2.5 1.2.1 0-.1.2.1.2.9.2 2 1 2.8 1.7H12c.1.1.5.1.6.2 0 0-.1 0-.1.1.1-.1.4.1.5.1 0 .1 0 .2.1.3l.2-.1c.5-.1.7.4 1.2.5 0 0-.1 0-.1.1.7.2 1.5.7 2.3 1 0 0-.1.1-.1.2.1-.1.3 0 .5.1 0 .2.4.1.6.3.2 0 .2.2.4.1v.2c.2-.1.2.2.4.2.1 0 .2.2.3.2.3.1.4.3.5.2 0 .2-.3-.1-.2.1 1 .4 1.9 1 2.9 1.5.1.1.1.2.1.2.1 0 .4.2.5.1 0 0 0 .1.1.1.1.1.3 0 .4.1-.1 0-.1 0-.1.1.2 0 .4.1.6.2h-.1c.3 0 .4.2.6.3H24c.2.3.2-.1.4.1-.1 0-.1 0-.1.1.3 0 .7.3.9.3.3.1.5.3.8.4.1.1-.1.2.1.3.1-.2.5.2.4-.1a3.04 3.04 0 0 0 .7.5c-.1 0 0 .3-.2.2l.1.2c-.1 0-.1-.1-.1 0 .1 0 .4.1.5.2.2 0 .5-.1.9.1-.2 0-.1.2-.2.2h.5l.1.1c0 .1-.1.1-.1.3 0 0 .1 0 .1.1v.3c0 .1 0 .2-.1.3-.1 0 0-.2-.1-.1 0 .2.1.2.1.4 0 .1.1.4.2.3 0-.1-.1 0-.1-.1.1.1.1.3.1.5 0-.1-.1-.1-.1-.1l.3.9c.1 0-.2-.1-.1-.2-.1.4.2.8 0 1.1h.1c0 .2-.1.2-.1.3-.1 0 0 .1 0 .3 0 .1 0 0 0-.1.1.2.2.9.1 1.3l.2.3h-.1c-.1.1 0 .3-.1.3.1.2-.1-.8 0-.5-.1.1.2.4 0 .3 0 .2.1.4 0 .5 0 0-.2-.1-.1 0 0 .3 0 .1.1.4v.2c.1 0 0 .3.1.2-.1 0 .1.6-.1.5l-.1-.1c0 .1.1.4.2.6h-.1c.2.3 0 .4.1.8v.5c-.2-.1-.4-.3-.5-.4-.2 0-.4 0-.7-.3h.1c-.2-.2-.2-.1-.4-.2l-.5-.5c-.2 0-.2.1-.2.2-.1-.2-.3-.3-.4-.3s-.3-.1-.3-.2c.1 0 .3 0 .2-.1 0-.3-.4 0-.6-.3v.2c0-.2-.4-.1-.3-.3-.1 0-.3-.2-.3 0-.3-.4-1-.5-1.1-.9-.1 0-.2-.1-.2 0s.2 0 .2.1h-.1c-.1-.1-.2-.2 0-.2-.2-.3-.4.1-.7-.1 0 0 0-.1-.1-.1H23c-.2-.1 0-.2 0-.3-.1 0-.3-.1-.4-.1l-.1-.2c0 .2-.1 0-.2 0h.1c0-.1-.1-.1-.2-.1 0 .1.1.2.2.3h-.3c.1-.1-.1-.2-.2-.3s-.2 0-.2 0c0-.1-.2-.1 0-.1 0 0 0 .1.1.1 0-.1 0-.2-.2-.2-.1 0-.1.2-.3 0h.2l-.2-.2-.1.1v-.1c-.1.1-.3-.1-.4 0-.1 0-.2-.2-.3-.3a.76.76 0 0 0-.4-.2c-.1 0-.2-.1-.3-.1-.1-.2.2-.4-.1-.4-.2-.1-.4 0-.3.1-.3-.2-.7-.3-.9-.6h-.1c-.4-.3-1-.4-1.2-.8.1 0 .1-.1.1-.1-.1 0-.1-.2-.2 0 0 .1-.1.1 0 .2-.3-.1-.7-.3-.8-.5 0 .1 0 .1-.1.1.1-.1-.1-.3-.3-.3l-.1.1v-.1c-.1 0-.2.1-.3 0v-.1c-.2 0-.5 0-.6-.2l-.1-.2c-.1 0-.2 0-.1.1-.2-.2-.4-.3-.4-.5-.6 0-1.3-.4-1.8-.7-.1-.1-.1.1-.2 0 .1 0 0-.2.1-.2-.2-.2-.3 0-.5-.1-.1.1.1 0 0 .1 0 0-.3-.2-.4-.1 0-.1.1-.1.1-.2h-.2c-.1-.2.5-.1.5-.3h-.1c0-.2.4 0 .1-.2-.2 0-.4.1-.3.2-.3-.1-.3.2-.6 0 0-.1.2.1.2 0-.1-.2-.3-.1-.4-.2.1.1-.1.2-.2.2-.1-.1.2-.1 0-.2-.1 0-.3 0-.2.1-.2.1-.2-.2-.4-.1 0-.1.4-.1.2-.3 0 .1-.4 0-.3.2-.1-.1 0-.2.1-.2-.1-.1-.4 0-.3-.2l-.1.1c0-.1-.1-.1-.1-.2-.1-.1-.5 0-.3-.2 0 0-.3-.2-.3 0 .1.2.2 0 .2.2 0-.2-.2-.1-.4-.1v-.1c-.1 0-.2-.1-.3 0 .1 0 .1-.1 0-.1l.2-.2c-.3-.1 0-.2-.2-.3h.2l-.2-.2c-.1.1-.2.1-.3.2-.1 0 0-.1-.2-.1h.2s0-.2-.2-.3c-.1 0-.4 0-.2.2-.1 0-.2-.2-.1-.2-.2-.1 0 .1-.2.1 0-.1-.2-.3-.3-.5l.3-.1-.1-.1c.2 0 0-.1.1-.2-.1-.1-.2-.1-.3-.1.1.3-.4.1-.5.4-.3-.1.1-.6-.4-.5 0 .1-.2.1 0 .2-.1-.1-.1 0-.2 0s-.2 0-.4-.2c.4.1-.1-.3.3-.2-.1 0 .2.2.2.2 0-.1.1-.2-.1-.3s-.4-.2-.5-.1.3.1.1.2c-.3-.1-.3-.2-.4-.3 0-.1 0-.1-.1-.2v.2c.1.1 0 .1 0 .2l-.2-.1v-.2H5c.1-.6-.1-.1-.1-.7l.2-.3c.1.1-.1.8.2.7 0-.3-.1-.5 0-.7v.2c0-.1.3-.2.1-.5-.1-.1-.1 0-.2 0 0-.3-.1-.4-.1-.6.2 0 0-.4.2-.1-.1.1-.1.6.1.7.2-.1 0 .3.2.3 0-.3.2-.3.3-.3 0-.1 0-.1-.1-.2-.1 0-.1.1-.3.1 0-.3 0-.6-.1-.7.1-.1.2-.1.2 0v-1c-.2.2 0-.4-.2-.2 0 .2-.2.3-.3.2 0-.1.1 0 .1 0-.1-.1.2-.2 0-.4.1.3.2.1.4.1-.1-.2.1 0 .1-.2-.1-.2-.2-.5-.2-.8.1-.3 0-.8 0-1.1.1-.1.3 0 .3-.2s-.2.1-.1-.1c0-.1.1-.5-.1-.6l.2.1v-.1c.1 0 .1-.1.2 0 .1-.2 0-.4 0-.5l-.1.1c-.1-.3 0-.5 0-.8H6l-.1-.2c.1 0 .2-.1.1-.2l.3.5c-.1.1-.1-.1-.2-.1-.1.1-.1.4 0 .4v-.2c.1 0 .1.1.3.2V20c.1.1.1.2.1.4-.1-.1-.1.1-.1 0 .1 0 .2.2.1.4-.2.2.1.4.1.7-.1-.1-.3-.3-.3-.4-.1.2 0 .2-.1.4.1.1.3.1.3.4h-.1c0 .2.2.2.2.5 0 .4 0 .9-.1 1.2h-.1c.2.2.1.6.2.9-.1.4.1.9-.1 1.1 0 .3 0 .5.1.8v.5c.1 0 .2.1.3.2 0 0-.1 0-.2.1.2 0 0 .1.1.1-.1-.2.2 0 .4-.1.2.3.7.4 1 .5v.1c.4 0 .6.3.9.5 0 .1 0 .2.1.2a1.7 1.7 0 0 1 .7.1c.2.1.5.3.6.5.8.2 1.5.8 2.3 1.1v.1c.9.2 1.6.9 2.3 1.2l-.2.1c.2.2.5.2.5.1.2.2.5.2.6.4a.9.9 0 0 0 .5.1c.4.3.5.4.9.5l-.1-.1c-.1 0-.1.1 0 .1.2 0 .5.4.5.1.3.4 1 .4 1.3.8 0-.1.1 0 .2 0 .4.2.7.5 1 .6 0 .1-.1 0 0 .1.1 0 0-.1.2 0 .6.2 1.1.8 1.6 1.1 1 .4 1.9 1 2.8 1.5.4 0 .6.6 1 .5 0 .1.3.2.2.2.3 0 .6.5 1 .5H27c.2.3.2.1.4.3v.1c.1.2 0-.2.2.1 0 0 0-.2-.1-.2.1 0 .1.1.2.1v-1.2c.1-.7.4 0 .2-.6 0 0-.1 0 0 0-.1-.2.3-.3.1-.5-.1.1-.1-.1-.2-.1.1-.4.2-.5.1-.8h.1c-.2-.4-.1-.8-.4-1.2v-2.3h-.1l-1-.5-1.5-.8-5.3-3.2c-.3-.4-.4-.4-.9-.6-.1.1-.3-.2-.5-.1l-2-1.1c.1 0 .2 0 .1-.1h-.2c-.1 0-.2 0-.2.1-1.8-.9-3.4-2.2-5.1-3.1-.4-.3-1-.6-1.4-.8-1.2-.9-2.3-1.8-3.7-2.4-.1-.1.3-.3.9-.1z"/><path d="M6.4 19c-.1 0-.1.2-.2.1 0-.1.1-.1.2-.1zm-.9 4.6c.1.1 0 .1 0 0 0 .1-.1 0 0 0zm0 1.2c-.1 0-.1-.3-.1-.4l.1.4zM5.2 26c-.1.1-.1 0 0 0-.1-.1 0-.1 0 0zm.2 0c0 .1 0 .1-.1.2 0 0-.1-.2.1-.2zm1.5 2.5s.2 0 .2.1c0 0-.3 0-.2-.1zm1 .5c.1.1.1.1 0 0zm17.9 10l-.2-.1h.1zm3-5.6c0-.1.1-.1.1-.1 0 .1-.1 0-.1.1zM26 29.8l-.1.1z"/></g><g fill="#fff"><path d="M24.3 34.3zm.1-5.1c.4.1 0 .1.2.2h-.2c.3.1.1.2-.1.2h-.1c.3 0 0 .1.1.1h-.1c.2 0 .2.1.2.2h-.2.2c-.1 0 .1 0 0 0 .1 0-.1 0 .1 0h-.1c.2 0-.1 0 0 0 0 0-.1 0 .1 0h-.2c.2.1.1.2.1.2h-.1c-.1 0 .2 0 .1 0h-.1c-.1 0 .2 0 .1 0h-.1c.2 0 .1 0 .2.1v.1h-.2.3s-.1 0 0 .1h-.4.6c.1 0 .2 0 .3.1.1 0-.2 0-.1 0-.1 0 .2.1 0 .1-.1 0 0 0 0 0 .1 0 .2.1.1.1.1 0-.1-.1 0 0-.1 0 .2 0 0 0H25h.2c-.1 0 .1 0-.1 0H25h.1c-.1 0 0 0 0 0h-.2.3c-.2 0 .1 0-.1 0h-.2c-.2 0 .2 0 .1 0h.2c-.1 0 .1 0-.1 0 .1 0-.1 0 .1 0-.1 0 .1.1-.2.1h.1c.1 0-.1 0 0 0h.1-.2c-.1 0 .3 0 .2 0h-.1c-.1 0 0 0 0 0h.1-.3.3c-.1 0 .1 0-.1.1h.1s.1.1-.1.1h-.2c.1 0-.1 0 .1 0h.2v.1h.1-.2c.3 0 .3.1.3.1h-.1c-.1 0 .1 0 .1 0h-.2c-.1 0 .1 0 .2 0s-.1 0 .1 0c0 0-.1 0 .1 0h-.2c-.1 0 .1 0 0 0h.2c-.1 0 .2 0 0 0h.1c.1 0-.1 0 .1 0-.1 0 0 0 .1 0h-.2c.1 0-.2 0-.2 0h-.1s-.1 0 0 0h.3s-.1 0 0 0h-.1c.1 0-.5 0-.2 0h.3-.4s-.1 0 .1 0h.2c-.1 0 .1 0 .1 0h-.2c-.1 0 .1 0-.2 0h-.1.1c.1 0 .1 0-.1 0h-.1.1-.2v.1h.4c.1 0-.2 0 0 0H25c.1 0-.1 0-.1 0 .1 0 .2 0 .2.1-.1 0 0 .1 0 .1h-.2s-.1 0 .1 0h-.4c-.1 0 0 0 0 0h.1c.1 0 0 0 0 .1h-.6c.2 0-.1 0-.1 0s0-.1.1-.1h.1c-.2 0-.1 0-.2-.1.1 0-.1-.1.1-.1-.1-.1-.1-.1-.1-.2h.1c-.1 0 .1 0 .1 0H24c.1 0 0-.1-.1-.1h.1c-.2 0 0 0 0-.1h.1-.3l.1-.1c-.2-.1-.1-.1-.2-.2h.1c-.3-.1 0-.1-.1-.2h.2c.1 0 0 0-.2 0 .1 0-.1 0 .1 0h-.1c.1 0 .1 0 0-.1h.1-.2c.1 0-.1-.1.1-.1h-.1s.1-.1 0-.1.1-.1.1-.1c-.1-.1-.1-.2-.1-.2-.2 0 .2-.1-.1-.1h.1c-.1 0 .1-.1 0-.1.1 0 0-.1.1-.1h.1c.1 0-.2 0 0 0h-.1c.1-.1-.1-.1-.1-.2h.2s-.1 0 0 0c-.1 0 .3 0 .1 0h-.2c.1 0 .2 0 .1-.1h.1c-.2 0-.1-.1-.4-.1 0-.2-.2-.3-.2-.5s-.1-.3.1-.5c.2 0 .2 0 .1-.1h.1-.2v-.2h-.2c-.1-.1.2-.3.1-.5.1 0 0-.1 0-.1.2-.1.4-.2.2-.3.4 2.3.8 2.3.9 2.3z"/><path d="M24.3 34.3h.2c0-.1-.1 0-.2 0zm.8-.4zm.1-.1zm.3-.1zm-.2 0zm.2-.2zm-.1 0c.1-.1.1-.1 0 0zm-.3-1.6zm0-.6c0-.1.1-.1 0 0 .1 0 0-.1 0 0zm-.3-.4h-.2zm-7.7-18.8l-11 6.4 22.2 12.8 11-6.4z"/></g><g fill="#202020"><path d="M17.1 12.5c.2-.2-.2 0 .1-.1 0 0 0 .1-.1.1zm.7.3c1 .1 1.8 1 2.8 1.3.1 0-.1.2.1.3 1 .2 2.2 1.1 3.1 1.9h-.1c.2.1.5.1.7.3 0 0-.1 0-.1.1.1-.1.4.2.5.1.1.1 0 .2.1.3h.2c.5-.1.8.5 1.3.6 0 0-.1 0-.1.1.8.2 1.7.8 2.5 1.2-.1 0-.1.1-.1.1.1-.1.4 0 .6.1 0 .2.4.1.6.3.3 0 .2.2.5.2l.1.2c.2-.1.2.3.4.3s.2.2.3.2c.3.1.5.3.5.2 0 .2-.3-.1-.3.1 1.1.5 2.2 1.1 3.2 1.7.1.1.1.2.1.3.1 0 .4.2.5.2 0 0 0 .1.1.1.2.2.3 0 .5.1-.1 0-.2 0-.2.1.2 0 .5.1.7.2h-.1c.3 0 .4.3.6.3h-.1c.3.3.2-.1.4.1-.1 0-.1 0-.1.1.3 0 .8.3 1.1.5.4.2.6.4 1.1.6 0 .1-.3 0-.2.1 0 0-.1 0-.1.1.4 0-.4.3.1.3-.4.2-.9.4-1.1.6.1-.1-.3-.1-.1-.2h-.2c0-.1.2-.1 0-.1-.1 0-.3.3-.4.3-.1.2-.2.5-.5.7.1-.1-.2-.1-.1-.2l-.3.6c-.1.1-.1-.1-.2 0v.2s-.4.3-.6.2c-.1 0 .1-.1 0-.1-.2.1-.2.2-.4.3-.1 0-.3.3-.1.3.1 0-.1-.1.1-.1 0 .1-.3.3-.5.4v-.2c-.2.3-.5.5-.7.7 0 .1 0-.2.1-.2-.4.1-.7.6-1.1.6l.1.1c-.2.1-.2 0-.3.1 0-.1-.1.1-.3.2 0 .1 0 0 0-.1a8.14 8.14 0 0 1-1.2.8s-.1.3-.2.3v-.1c-.1 0-.3.2-.4.1-.1.2.7-.5.5-.3-.1 0-.3.4-.3.2-.2.1-.3.3-.5.3.1 0 .1-.2-.1-.1-.3.2 0 .1-.2.2l-.1.1c0 .1-.2.1-.1.2-.1-.1-.4.3-.4.1v-.1c-.1.1-.1.2-.2.3h-.1c.1.2-.2.1-.4.4l-.6.3c-.2-.1-.4-.3-.5-.4-.1 0-.3-.1-.4-.1s-.2-.1-.3-.2h.1c-.1-.1-.2-.1-.3-.1 0 0-.2-.3-.3-.4-.2 0-.2.1-.3.1 0-.3-.6-.2-.7-.5.1 0 .3.1.2-.1 0-.3-.4 0-.6-.3v.2c-.1-.2-.4-.1-.3-.3-.1 0-.3-.2-.3-.1-.4-.4-1.1-.5-1.2-1-.1 0-.2-.1-.2 0s.2 0 .2.1h-.1c-.1-.1-.2-.2 0-.2-.2-.3-.5.1-.8-.2 0 0 0-.1-.1-.1h-.3c-.2-.2-.1-.2 0-.3-.1-.1-.3-.2-.4-.1l-.1-.2c.1.2-.1 0-.2 0h.1c0-.1-.2-.1-.3-.1 0 .1.1.2.2.3-.1 0-.2-.1-.3-.1.1-.1-.2-.2-.3-.3s-.2 0-.2 0c0-.1-.2-.1 0-.1 0 0 .1.1.2.1-.1-.1 0-.2-.2-.2-.1 0-.1.2-.3 0h.2l-.2-.2-.1.1v-.1c-.1.1-.4-.2-.5-.1-.1 0-.2-.2-.3-.3a.76.76 0 0 0-.4-.2c-.1 0-.2-.1-.4-.1-.1-.2.1-.4-.1-.4-.2-.1-.4 0-.4.1-.3-.3-.8-.3-1-.6h-.2c-.5-.3-1.1-.5-1.4-.9.2 0 .1-.1.1-.1-.2 0-.1-.2-.2 0 0 .1-.1.1 0 .2a3.6 3.6 0 0 1-.9-.5c.1.1 0 .1-.1.1.1-.1-.1-.3-.3-.3l-.1.1v-.1c-.1 0-.2.1-.3 0v-.1c-.2 0-.5 0-.6-.2l-.1-.2c-.1 0-.3 0-.1.1-.3-.3-.5-.4-.5-.5-.7 0-1.4-.5-2-.8-.1-.1-.1.1-.2 0 .1 0 0-.2.1-.2-.2-.2-.4-.1-.5-.1-.1.1.1 0 .1.1 0 0-.3-.3-.4-.1 0-.1.1-.1.1-.2h-.2c-.1-.3.5 0 .5-.3l-.1-.1c0-.2.4 0 .1-.2-.2 0-.4.1-.3.2-.3-.1-.3.2-.6 0 0-.1.3.1.3 0-.1-.2-.3-.1-.5-.2.1.1-.1.2-.2.2-.1-.1.2-.1 0-.2-.1 0-.3 0-.2.1-.2.1-.2-.2-.4-.1 0-.2.4-.1.2-.3 0 .1-.4 0-.4.2-.1-.1 0-.2.1-.2-.1-.1-.5 0-.4-.2l-.1.1c0-.1-.1-.1-.1-.2-.2-.1-.8-.3-.6-.4-.1 0-.5-.3-.5-.1.2.2.5.1.5.4-.1-.2-.5-.3-.7-.4l.1-.1c-.1 0-.4-.2-.6-.2.1 0 .2 0 .1-.1h-.3c-.6-.3.2-.1-.3-.4l.5.2c-.1 0-.1-.1-.3-.2-.3 0-.6-.1-.9-.1-.1 0-.1-.1-.1-.1.1 0 .2 0 .2-.1v.1l.2.1s.1 0 .1-.1c.2 0 .4-.1.6-.2.1-.1.2-.3-.2-.1.2-.1.5-.2.5-.1.3-.2-.2 0 0-.2.2-.1.8-.3 1.1-.3 0 .1-.1.2-.1.3l.2-.1c-.1.2.2 0 .3.1.1 0 .2-.1.3-.2-.3 0-.3-.1-.2-.2s.2-.3.1-.4c.3-.2.4-.1.5 0 .1 0 .2.1.3-.2-.1 0 0-.3-.2-.1.2-.1 0-.3.3-.3-.1.2.3.1.1.4 0-.1-.2 0-.2.1.1 0 .1.2.3.1.1-.1.3-.2.2-.3s-.2.1-.2 0c.2-.2.4 0 .4-.3-.2.1-.3 0-.3 0l.2-.2v.1c.3-.1 0-.2.3-.3l.2.1c0 .2-.5.2-.3.4.2-.1.2-.2.4-.3l-.1.1c.1 0 .3.2.5-.1.1-.1 0-.1 0-.2.3-.2.4-.3.5-.5 0 .2.4-.2.2.1-.1 0-.6.2-.6.5.2.1-.3.1-.2.3.3-.1.3 0 .5.1.1 0 .1-.1.1-.2s-.1-.1-.2-.2c.3-.1.5-.4.6-.5.1 0 .2.1 0 .2l1-.6c-.3 0 .3-.3.1-.3-.2.1-.4 0-.4-.1.1 0 0 .1.1.1.1-.2.3 0 .3-.2-.3.2.1.2.1.4.2-.2 0 .1.3 0l.6-.6c.4 0 .8-.5 1-.6.2 0 .2.2.3.1.2-.1-.2-.1.1-.2.1-.1.5-.2.5-.5v.2c.1 0 .1-.1.1-.1l.1.1c.2 0 .3-.2.5-.3h-.2c.3-.3.5-.3.8-.5v.1l.1-.2c0 .1.2.1.3 0l-.3.5c-.2 0 .1-.2-.1-.3-.1 0-.4.1-.4.3.1 0 .1-.1.2-.2.1.1 0 .2-.1.3 0 0 .2 0 .1-.1-.1.1-.2.2-.4.3.1-.1-.1 0-.1-.1 0 .1-.1.3-.3.4-.2 0-.4.3-.6.4a.55.55 0 0 1 .3-.5c-.2 0-.2.1-.4.1 0 .1 0 .3-.2.5l-.1-.1c-.2.2-.1.3-.4.4-.5.2-.9.5-1.2.6l-.1-.1c-.1.3-.6.4-.8.6-.5.1-.8.6-1.1.6l-2 1.3v-.2c-.1.2-.1 0-.3.1.2 0-.1.2-.1.4-.2.1-.3.1-.4.2s-.1.2-.1.2h-.1c.1.1-.1.2-.4.3 0 0 0 .1.1.1 0 0-.2.1-.1.1.4 0 .4.1.7.1.1.1.2.2.5.4.9.3 1.7.9 2.6 1.3v.1c1 .3 1.8 1 2.6 1.3l-.2.1c.2.2.5.2.5.1.2.2.6.2.7.5.2.2.3.1.5.2.4.3.6.4 1 .6l-.1-.1c-.1 0-.1.1 0 .2.2 0 .6.4.5.1.4.4 1.1.5 1.5.9 0-.1.1 0 .2 0 .4.2.8.6 1.1.7 0 .1-.2 0 0 .1.1 0 0-.1.2 0 .7.3 1.2.9 1.9 1.2 1.1.5 2.2 1.2 3.2 1.7.4 0 .7.6 1.1.5.1.1.3.2.2.2.3 0 .7.5 1.1.6h-.1c.3.3.8.4 1.1.7h-.2c.1.2.5.1.4.3 0 0 .1-.1 0-.1 0 0 .1.1.2.1s.1-.1.2-.1l.6-.4c.4-.3.8-.5 1.1-.8.7-.3.2.3.7-.1.1 0 0-.1 0-.1.2-.2.5 0 .5-.1-.1-.1 0-.1 0-.2.5-.2.6-.1.9-.4v.1c.3-.4.8-.6 1-1l2.8-1.7.7-.4c.2-.1.5-.3.5-.3V26l-.4-.2-4.5-2.7c-.4-.5-.4-.5-1-.7-.1.1-.4-.2-.5-.1-.7-.5-1.5-.8-2.2-1.3.1.1.3 0 .1-.1h-.2c-.1 0-.3 0-.2.1-2-1-3.8-2.4-5.7-3.5-.4-.3-1.1-.6-1.6-.9-1.4-1-2.6-2-4.1-2.7.2-1.1.6-1.4 1.2-1.1zm-1-.1c-.1 0-.3 0-.2-.1.1 0 .2 0 .2.1zm-5 1.9h-.1l.1-.1v.1z"/><path d="M10.6 15.2c0-.1.2-.3.3-.4l-.3.4zm-1.2.3c-.1 0-.1 0 0-.1.1.1 0 .1 0 .1zm0 .2h-.2c0 .1.2-.1.2 0zm-2.7 1.4c-.1.1-.3.2-.5.2.2 0 .5-.4.5-.2zm-1.8 1.2c-.1 0-.1 0-.2.1-.2.1-.2 0-.1-.1h.3zm20.6 12h-.1v-.1zm9.3-2.1c.1-.1.1 0 .1 0-.1.1 0-.1-.1 0zm4.8-3.2h-.4z"/></g><g fill="#5b7995"><path d="M31.8 29.4c.1 0 0-.1 0 0zM9.9 16.7c.5-.2.6.4 1 .3 0 0-.1.2 0 .2.4-.1.8.3 1 .7 0 .1.2 0 .3 0l-.1.1c.1-.1.1 0 .2 0v.2l.1-.1c.3-.2.3.2.5.1v.1c.3 0 .6.2.9.3 0 0-.1.1-.1.2.1-.1.2-.1.3-.1 0 .1.2 0 .2.1.1-.1 0 .1.2 0v.1c.1-.2 0 .1.1.1s0 .1.1.1.1.1.2 0c0 .1-.1 0-.2.2.4.1.8.3 1.1.5v.2h.2v.1c0 .1.2-.1.2 0l-.1.1c.1-.1.2 0 .3 0l-.1.1c.1-.1.1.1.2.1l-.1.1c0 .2.1-.1.2 0l-.1.1c.2-.1.3 0 .4 0s.2.1.3.1c0 .1-.1.2 0 .2.1-.2.2 0 .3-.2.1.1.2.2.3.2-.1 0-.1.2-.1.2v.1c0 .1 0 0-.1 0 0 0 .2 0 .2.1a.76.76 0 0 1 .4-.2c-.1 0-.1.2-.1.2l.3-.2s-.1.1 0 .1l.1-.1s.2 0 .1.2c0 .1-.1 0-.1.1h.2s.2 0 .2-.1c0 0 0 .1-.1 0 .1-.1.2-.1.2 0l-.1.1c.2-.1.3-.1.4 0 0-.1-.1.1-.1.1.1.2.4 0 .4.2v-.1c.1 0 0 .1 0 .1 0 .1.1 0 .1 0 .1 0 .4 0 .5.2l.2-.1-.1.1c0 .1.1 0 .1.1.1-.1-.3 0-.2-.1 0 .1.2-.1.1 0 .1 0 .2 0 .2.1l-.1.1h.2c.1-.1.1.1.1-.1 0 .1.1 0 0 .2l-.1.1s.1-.1.2-.1v.1c.1-.2.1.1.2-.1 0 .1.2.1.2.3.1 0 .2-.1.2 0h-.1c0 .1 0 0 .1 0v.3c.1 0 .1-.1.2-.2 0 .2.2 0 .2.2 0 0-.1 0-.1.1 0 .2.2-.1.2.1l.1-.2c0 .1.2 0 .1.1.1 0 .1.1.1 0 .1.2.4.1.3.5h.1c0-.1-.1 0-.1 0h.1c0 .1 0 .1-.1.2 0 .1.3-.2.4-.1v.1l.1-.1c.1.1 0 .2-.1.3h.2v.2c0-.1.1 0 .1-.1h.1v-.2h.1c-.1.1 0 .1.1.1l.1-.1c0 .1.1 0 0 .1 0 0 0-.1 0 0s-.1.1 0 .1.1-.2.1-.1c0 0-.1 0-.1.1v.1l.1-.1c.1-.1.1 0 .2-.1 0 0 0 .1.1.1 0 .1.1.1.2 0h.1c0 .1-.2.4 0 .3.1 0 .2-.1.2-.2.1.1.3 0 .3.3 0 0 0-.1.1-.1.1.1.4.1.4.3-.1 0-.1.1-.1.1.1-.1 0 .1.1 0 0-.1.1-.1 0-.2.1 0 .3.1.3.2 0-.1 0-.1.1-.1-.1.1 0 .2 0 .2l.1-.1v.1s.1-.2.1 0v.1c.1 0 .2-.1.3 0v.1s.1 0 .1-.1c.1.1.1.2.1.3.3-.2.6 0 .8.1v.1c0 .1.1-.1.1 0 0 0 0 .2-.1.2 0 .1.2 0 .2 0 .1-.1-.1 0 0-.1 0 0 .1.1.2 0 0 .1-.1.1-.1.2h.1c0 .2-.3.2-.3.4h.1c0 .2-.2.1-.1.2.1 0 .2-.2.2-.3.1 0 .2-.3.3-.2 0 .1-.1 0-.1.1s.1 0 .2.1c0-.1.1-.2.1-.2 0 .1-.1.1 0 .2 0-.1.2-.1.1-.2.1-.1 0 .1.2 0 0 .1-.2.2-.2.3 0-.1.2-.1.2-.3 0 0 0 .1-.1.2 0 .1.2-.1.1.1l.1-.1v.2s.2-.1.1.1c0 0 .1 0 .1-.1s-.1 0-.1-.1c0 .2.1 0 .2 0v.1h.1s-.1.1 0 .1l.1-.1c.1 0-.1.2 0 .2h-.1v.1l.2-.2c.1 0 0 .1.1 0l-.1.1v.2c.1 0 .2-.1.2-.2v.1c.1 0 0-.1.1-.1v.3l-.1.1c-.1.1 0 .1-.1.2h.1c0-.3.3-.2.4-.4.1 0-.2.5.1.3 0-.1.1-.2 0-.2.1.1.2-.2.2 0-.1 0 0 .2-.2.3v-.1c0 .1-.1.2 0 .2 0 0 .1 0 .2-.1s-.1 0 0-.1c.1 0 0 .2.2 0-.1 0 0-.1 0-.2h.1v.1c.1.1.1-.1.2 0v.2c-.1.1-.1-.1-.2.1h.1s-.1.3.1.2c.1 0 0-.1.1-.1h.3c-.1.1.1.1 0 .2 0-.1-.1-.2-.3-.1-.1.2-.1-.1-.2.1.1 0 0 .2-.1.3h.1c.1-.1 0-.1.1-.2.1.1.2.1.3 0 0 .1-.1.2-.1.2.1 0 .2.1.3.2 0-.2.1 0 .2-.1 0-.1 0-.2.1-.3v.1c.1-.1 0 .2.1.1-.1 0-.1.2-.2.3.1 0-.1.1 0 .1h.3c0 .2.3.1.4.2 0 .1-.1.2-.1.3.1 0 0-.2.1-.1 0 0 .1.2.3 0l-.1.1h.1s0 .1-.1.1c0 .1.1 0 .2.1v-.1c.1 0 .2.1.3.1l-.1.1h.1c-.1.1 0 .2 0 .1l-.3.1c0-.1.1-.1.1-.2s-.1-.1-.1 0h.1l-.2.2s0 .1 0 0h-.2c.1 0 0-.1.1-.1-.1.1-.1.1-.2 0 0-.2-.2 0-.3-.1.1-.1.2-.2.3-.2 0-.1-.1 0-.1-.1-.1.1-.2.2-.3.2v-.1c-.1 0-.2.1-.2.1-.1-.1-.3-.2-.4-.3v-.1c-.2.1-.2 0-.4 0-.1-.2-.4-.1-.3-.3-.3-.1-.5-.1-.8-.3l.1-.1c-.1.1 0-.1 0-.1 0 .1-.1.1-.2.2 0-.2-.3-.1-.4-.1v-.1c-.2.1-.2-.1-.3-.2v-.1c-.1.1-.2.1-.3.1s-.2-.1-.2-.2c-.4 0-.6-.3-1-.3v-.1c-.4.1-.6-.3-.9-.4l.1-.2c0-.1-.2 0-.3.1 0-.1-.2 0-.2-.2-.1-.1-.1 0-.2 0-.1-.1-.2-.2-.3-.2 0 0 .1-.1 0-.1s-.2-.2-.2.1c-.1-.2-.4-.1-.5-.4 0 .1-.1 0-.1.1-.1-.1-.2-.3-.4-.2 0 0 .1-.1 0-.1 0 0 0 .1-.1.1-.3 0-.4-.4-.6-.5-.4-.1-.8-.4-1.1-.5-.2.1-.2-.3-.4-.1 0-.1-.1-.1 0-.1-.2.1-.2-.3-.4-.2-.1-.2-.3-.1-.4-.3h.1c0-.1-.2.1-.1-.1l-.1.1c-.3-.3-.6-.3-1-.4-.1-.3.2-.4-.1-.3 0 0-.1.1 0 0-.1 0 0-.3-.1-.2 0 .1-.1 0-.1.1-.1-.2 0-.3-.2-.3v-.1c-.2.1-.3-.1-.6.1-.7-.4-1.5-.6-2.2-1-.6-.4-1.4-.7-2-1.2-.1-.3-.1-.3-.3-.3v-.1c-.1.1-.1-.1-.2.1-.2-.2-.5-.3-.8-.4l.1-.1-.1.1s-.1 0-.1.1c-.7-.3-1.2-.9-1.9-1.3-.1-.1-.4-.2-.5-.3-.4-.5-.7-.9-1.3-1 0-.1.2-.5.5-.4z"/><path d="M31.6 29.3c0-.1 0-.1.1-.2 0 .1 0 .2-.1.2zm-1-1.6c-.1.1-.1 0 0 0 0 0 0-.1 0 0zm-.4-.2c0-.1.1-.1.2 0h-.2zM30 27c0-.1 0-.1 0 0zm-.1.1V27c-.1.1 0 0 0 .1zm-.7-.6s-.1 0 0 0c-.1 0 0-.1 0 0zm-.4-.1c-.1 0-.1-.1 0 0-.1-.1 0-.1 0 0zm-6.9-3.6h.1z"/><path d="M19 21.1s0-.1 0 0c.1-.1 0 0 0 0zm-1.7-.6l-.1.1zm18.1 6.8c.1 0 0-.2 0 0zM13.6 14.6c.5-.2.6.4 1 .3 0 0-.1.2 0 .2.4-.1.8.3 1 .7 0 .1.2 0 .3 0l-.1.1c.1-.1.1 0 .2 0v.2l.1-.1c.3-.2.3.2.5.1v.1c.3 0 .6.2.9.3 0 0-.1.1-.1.2.1-.1.2-.1.3-.1 0 .1.2 0 .2.1.1-.1 0 .1.2 0v.1c.1-.2 0 .1.1.1s0 .1.1.1.1.1.2 0c0 .1-.1 0-.2.2.4.1.8.3 1.1.5v.2h.2v.1c0 .1.2-.1.2 0l-.1.1c.1-.1.2 0 .3 0l-.1.1c.1-.1.1.1.2.1l-.1.1c0 .2.1-.1.2 0l-.1.1c.2-.1.3 0 .4 0s.2.1.3.1c0 .1-.1.2 0 .2.1-.2.2 0 .3-.2.1.1.2.2.3.2-.1 0-.1.2-.1.2v.1c0 .1 0 0-.1 0 0 0 .2 0 .2.1a.76.76 0 0 1 .4-.2c-.1 0-.1.2-.1.2l.3-.2s-.1.1 0 .1l.1-.1s.2 0 .1.2c0 .1-.1 0-.1.1h.2s.2 0 .2-.1c0 0 0 .1-.1 0 .1-.1.2-.1.2 0l-.1.1c.2-.1.3-.1.4 0 0-.1-.1.1-.1.1.1.2.4 0 .4.2v-.1c.1 0 0 .1 0 .1 0 .1.1 0 .1 0 .1 0 .4 0 .5.2l.2-.1-.1.1c0 .1.1 0 .1.1.1-.1-.3 0-.2-.1 0 .1.2-.1.1 0 .1 0 .2 0 .2.1l-.1.1h.2c.1-.1.1.1.1-.1 0 .1.1 0 0 .2l-.1.1s.1-.1.2-.1v.1c.1-.2.1.1.2-.1 0 .1.2.1.2.3.1 0 .2-.1.2 0h-.1c0 .1 0 0 .1 0v.3c.1 0 .1-.1.2-.2-.1.2.2 0 .2.2 0 0-.1 0-.1.1 0 .2.2-.1.2.1l.1-.2c0 .1.2 0 .1.1.1 0 .1.1.1 0 .1.2.4.1.3.5h.1c0-.1-.1 0-.1 0h.1c0 .1 0 .1-.1.2 0 .1.3-.2.4-.1v.1l.1-.1c.1.1 0 .2-.1.3h.2v.2c0-.1.1 0 .1-.1h.1v-.2h.1c-.1.1 0 .1.1.1l.1-.1c0 .1.1 0 0 .1 0 0 0-.1 0 0s-.1.1 0 .1.1-.2.1-.1c0 0-.1 0-.1.1v.1l.1-.1c.1-.1.1 0 .2-.1 0 0 0 .1.1.1 0 .1.1.1.2 0h.1c0 .1-.2.4 0 .3.1 0 .2-.1.2-.2.1.1.3 0 .3.3 0 0 0-.1.1-.1.1.1.4.1.4.3-.1 0-.1.1-.1.1.1-.1 0 .1.1 0 0-.1.1-.1 0-.2.1 0 .3.1.3.2 0-.1 0-.1.1-.1-.1.1 0 .2 0 .2l.1-.1v.1s.1-.2.1 0v.1c.1 0 .2-.1.3 0v.1s.1 0 .1-.1c.1.1.1.2.1.3.3-.2.6 0 .8.1v.1c0 .1.1-.1.1 0 0 0 0 .2-.1.2 0 .1.2 0 .2 0 .1-.1-.1 0 0-.1 0 0 .1.1.2 0 0 .1-.1.1-.1.2h.1c0 .2-.3.2-.3.4h.1c0 .2-.2.1-.1.2.1 0 .2-.2.2-.3.1 0 .2-.3.3-.2 0 .1-.1 0-.1.1s.1 0 .2.1c0-.1.1-.2.1-.2 0 .1-.1.1 0 .2 0-.1.2-.1.1-.2.1-.1 0 .1.2 0 0 .1-.2.2-.2.3 0-.1.2-.1.2-.3 0 0 0 .1-.1.2 0 .1.2-.1.1.1l.1-.1v.2s.2-.1.1.1c0 0 .1 0 .1-.1s-.1 0-.1-.1c0 .2.1 0 .2 0v.1h.1s-.1.1 0 .1l.1-.1c.1 0-.1.2 0 .2h-.1v.1l.2-.2c.1 0 0 .1.1 0l-.1.1v.2c.1 0 .2-.1.2-.2v.1c.1 0 0-.1.1-.1v.3l-.1.1c-.1.1 0 .1-.1.2h.1c0-.3.3-.2.4-.4.1 0-.2.5.1.3 0-.1.1-.2 0-.2.1.1.2-.2.2 0-.1 0 0 .2-.2.3v-.1c0 .1-.1.2 0 .2 0 0 .1 0 .2-.1s-.1 0 0-.1c.1 0 0 .2.2 0-.1 0 0-.1 0-.2h.1v.1c.1.1.1-.1.2 0v.2c-.1.1-.1-.1-.2.1h.1s-.1.3.1.2c.1 0 0-.1.1-.1h.3c-.1.1.1.1 0 .2 0-.1-.1-.2-.3-.1-.1.2-.1-.1-.2.1.1 0 0 .2-.1.3h.1c.1-.1 0-.1.1-.2.1.1.2.1.3 0 0 .1-.1.2-.1.2.1 0 .2.1.3.2 0-.2.1 0 .2-.1 0-.1 0-.2.1-.3v.1c.1-.1 0 .2.1.1-.1 0-.1.2-.2.3.1 0-.1.1 0 .1h.3c0 .2.3.1.4.2 0 .1-.1.2-.1.3.1 0 0-.2.1-.1 0 0 .1.2.3 0l-.1.1h.1s0 .1-.1.1c0 .1.1 0 .2.1v-.1c.1 0 .2.1.3.1l-.1.1h.1c-.1.1 0 .2 0 .1l-.3.1c0-.1.1-.1.1-.2s-.1-.1-.1 0h.1l-.2.2s0 .1 0 0h-.2c.1 0 0-.1.1-.1-.1.1-.1.1-.2 0 0-.2-.2 0-.3-.1.1-.1.2-.2.3-.2 0-.1-.1 0-.1-.1-.1.1-.2.2-.3.2v-.1c-.1 0-.2.1-.2.1-.1-.1-.3-.2-.4-.3v-.1c-.2.1-.2 0-.4 0-.1-.2-.4-.1-.3-.3-.3-.1-.5-.1-.8-.3l.1-.1c-.1.1 0-.1 0-.1 0 .1-.1.1-.2.2 0-.2-.3-.1-.4-.1v-.1c-.2.1-.2-.1-.3-.2v-.1c-.1.1-.2.1-.3.1s-.2-.1-.2-.2c-.4 0-.6-.3-1-.3v-.1c-.4.1-.6-.3-.9-.4l.1-.2c0-.1-.2 0-.3.1 0-.1-.2 0-.2-.2-.1-.1-.1 0-.2 0-.1-.1-.2-.2-.3-.2 0 0 .1-.1 0-.1s-.2-.2-.2.1c-.1-.2-.4-.1-.5-.4 0 .1-.1 0-.1.1-.1-.1-.2-.3-.4-.2 0 0 .1-.1 0-.1 0 0 0 .1-.1.1-.3 0-.4-.4-.6-.5-.4-.1-.8-.4-1.1-.5-.2.1-.2-.3-.4-.1 0-.1-.1-.1 0-.1-.2.1-.2-.3-.4-.2-.1-.2-.3-.1-.4-.3h.1c0-.1-.2.1-.1-.1l-.1.1c-.3-.3-.6-.3-1-.4-.1-.3.2-.4-.1-.3 0 0-.1.1 0 0-.1 0 0-.3-.1-.2 0 .1-.1 0-.1.1-.1-.2 0-.3-.2-.3v-.1c-.2.1-.3-.1-.6.1-.7-.4-1.5-.6-2.2-1-.6-.4-1.4-.7-2-1.2-.1-.3-.1-.3-.3-.3v-.1c-.1.1-.1-.1-.2.1-.2-.2-.5-.3-.8-.4l.1-.1-.1.1s-.1 0-.1.1c-.7-.3-1.2-.9-1.9-1.3-.1-.1-.4-.2-.5-.3-.4-.5-.7-.9-1.3-1-.1-.2.2-.5.5-.4z"/><path d="M35.3 27.2c0-.1 0-.1.1-.2 0 .1 0 .2-.1.2zm-1.1-1.6s.1-.1 0 0zm-.3-.2c0-.1.1-.1.2 0h-.2zm-.3-.5c0-.1.1-.1 0 0 .1-.1.1 0 0 0zm-.1.1v-.1c0 .1.1 0 0 .1zm-.6-.6c-.1 0-.1 0 0 0-.1 0 0-.1 0 0zm-.5-.1c0-.1 0-.1 0 0 0-.1 0-.1 0 0zm-6.8-3.6zM22.7 19c-.1 0 0-.1 0 0 0-.1-.1 0 0 0zm-1.8-.6v.1z"/></g><defs><path id="A" d="M35.7 22.8l4.9 2.8-.1-16L28 3.5 2.8 18.6l.2 9.8 17.8 10.8z"/></defs><clipPath id="B"><use xlink:href="#A"/></clipPath><g clip-path="url(#B)"><path d="M39.4 24.9V12.2L20.9 22.8v12.7l3.7-2.1v-4.2l11.1-6.4V27z" fill="#fff"/><g fill="#202020"><path d="M39.1 24.7c0 .3.1-.1.1.2-.1-.1-.2-.1-.1-.2zm-.6.5c-.3.4-.8.6-1.2.9-.5.3-.9.4-1.4.9-.1.1.2-.4 0-.1-.1-.2-.2-.9-.1-1.6 0-.6.1-1.3.3-2.1h.1c0-.3-.1-.4-.1-.6 0-.1.1-.1.1-.2-.2.2-.5.4-.6.5-.1 0 0-.2-.1-.1l-.2.3c-.2.3-.4.4-.6.5s-.5.2-.7.4v-.1c-.6.6-1.5 1.1-2.3 1.6 0-.1 0-.1-.1-.2 0 .1-.2.3-.4.5-.2-.1-.3.3-.6.4-.1.2-.3.1-.4.3H30c0 .2-.3.1-.4.2s-.3.1-.4.2c-.3.2-.5.2-.4.4-.2 0 .3-.2 0-.3-1 .7-2 1.3-3.1 1.9h-.3c-.1.1-.4.3-.4.4h-.2c0 .2.2.3.1.5 0-.1-.1-.1-.1-.1.1.2.1.5.1.7 0 0 0-.1-.1-.1.1.3 0 .5.1.7l-.1-.1c-.1.4.2.1.1.4 0-.1-.1 0-.1-.1.2.3.1.8.2 1.1v1.1c0 .1-.1 0-.2 0 0 0-.1 0-.2.1.2.1-.5.4-.2.4-.3.1-.7.3-.9.5.1-.1-.2-.1 0-.3h-.2c0-.1.2-.1.1-.1-.1.1-.4.3-.5.3-.1.2-.2.5-.6.8.2-.2-.1-.2 0-.3a3.04 3.04 0 0 1-.5.7c-.1.1 0-.2-.2 0 0 .1-.1.1-.2.3 0 0-.6.4-.5.1 0-.1.2-.2.2-.2H21c0-.1-.1-.1-.1-.3s-.1-.4-.2-.1c0 .1.1-.2.1.1-.1 0-.1-.3-.1-.6 0 .1.1 0 .1 0-.1-.3-.2-.8-.3-1.2-.1 0 .2.1.1.2.1-.5-.2-.9 0-1.3 0 .1-.1 0-.1 0 0-.2.1-.2.1-.3.1 0 0-.2 0-.3s0 0 0 .1c-.1-.2-.2-1-.1-1.4 0 0-.2-.3-.2-.4h.1c.1-.1 0-.4.1-.4-.1-.2.1.9 0 .6.1-.1-.2-.4 0-.4 0-.2-.1-.4 0-.6 0 .1.2.2.1 0 0-.3 0-.1-.1-.3V29c-.1 0 0-.3-.1-.2.1 0-.1-.4.1-.4h.1c0-.1-.1-.2-.2-.3h.1c-.2 0 0-.3-.1-.5.1-.3 0-.7.1-.8-.1-.2-.1-.4-.1-.6 0 0 0 .1.1.1.1-.1 0-.2 0-.3 0 0 .1-.3.2-.5-.1-.2-.2-.1-.3-.2.2-.2-.1-.6.1-.8 0 .1.1.3.2.1.2-.2-.2-.4-.1-.7l-.2.1c.1-.1-.1-.5.1-.4-.1-.1.1-.5-.1-.5v-.6l.8-.5c.2-.1.4-.1.5-.1 0-.1.2-.1.1-.2-.1 0-.1.1-.2.1v-.1c.2 0 .3-.1.2.1.4-.1.2-.4.6-.6 0 .1.1.1.2 0l.1-.2c.3-.1.2.1.3.2.1-.1.3-.2.3-.3h.2c-.2 0 .1-.1.1-.2v.1s.2-.1.3-.1c-.1-.1-.2 0-.3 0 0-.1.1-.1.2-.2 0 .1.3 0 .4-.1.1 0 .1-.2.1-.2s.2-.1.1 0c0 0-.1 0-.2.1.1 0 .1.1.3-.1.1-.1-.1-.2.1-.3 0 .1 0 .1-.1.2l.3-.1v-.1c0-.1.3-.2.3-.4.1-.1.3-.1.4-.1.2 0 .3-.1.4-.3.1 0 .2-.1.3-.3.2 0 .3.3.4.1.2-.1.2-.3.1-.4.4-.1.6-.5 1-.5 0-.1 0-.1.1-.1.5-.2.9-.7 1.4-.7-.1.1 0 .1.1.2.1-.1.2 0 .1-.2-.1-.1-.1-.1-.2-.1.3-.2.7-.5.9-.5-.1 0-.1-.1 0-.1.1.1.3 0 .4-.1v-.1h.1c0-.1 0-.2.2-.2l.1.1c.1-.2.3-.4.5-.5h.2c.1-.1.1-.2 0-.2.4-.1.5-.2.7-.1.4-.6 1.1-1 1.8-1.4v.1c.2 0 0-.2.2-.2 0 .1.2.1.1.2.3-.1.2-.3.4-.4 0-.1-.1.1-.1 0 0 0 .4-.1.3-.3.1 0 .1.1.1.2l.1-.1c.3 0-.3.5 0 .6l.1-.1c.2.1-.3.4.1.2.1-.1.1-.4 0-.4.3-.2 0-.4.3-.6.1 0-.3.2-.1.2s.3-.2.4-.3c-.2 0-.1-.2 0-.2.2 0 0 .2.2.1 0-.1.2-.3 0-.2 0-.2.3-.1.3-.3.1.1-.1.4.2.3-.1-.1.2-.3 0-.4.1 0 .2.1.1.2.2 0 .2-.4.4-.2v-.1h.3c.2-.1.6-.6.6-.4.1-.1.5-.3.4-.4-.3.1-.3.3-.5.2.3 0 .5-.3.7-.5v.1c.1-.1.4-.2.5-.4-.1.1-.1.1 0 .1l.2-.2c.5-.4 0 .2.5-.1l-.4.3c.1-.1.1 0 .4-.1.1-.2.4-.5.6-.7l.1-.1c0 .1-.1.2 0 .3l-.1-.1-.1.1v.1c0 .2-.1.4-.1.6 0 .1.2.4.3-.1 0 .2-.1.5-.1.5 0 .4.1-.2.2.1-.1.2-.2.8-.3 1.1-.1-.1-.1-.2-.2-.2v.2c-.1-.2-.1.2-.3.1 0 .1 0 .3.1.4.1-.2.2-.2.3 0 .1.1.2.4.3.3 0 .4-.1.4-.2.4-.1.1-.2.1 0 .3.1-.1.2.1.2-.1 0 .2.2.2.1.5-.1-.2-.2.2-.4-.1.1 0 .1-.2 0-.2-.1.1-.2 0-.2.2 0 .1 0 .4.1.3.1 0 0-.2.1-.1 0 .3-.1.4.1.5 0-.2.1-.2.2-.2v.2h-.1c-.1.4.1.1.1.5l-.2.2c-.1-.1.1-.5-.2-.4 0 .2.1.3 0 .5v-.2c0 .1-.3.2-.1.5.1.2.1 0 .2 0 0 .4.1.5.1.7-.2 0 0 .4-.2.1.1-.1.1-.6-.1-.8-.2.1 0-.3-.2-.4 0 .3-.2.3-.3.3 0 .1 0 .2.1.2s.1-.1.3-.1c0 .3 0 .6.1.8-.1.1-.2.1-.2 0v1.2c.2-.2 0 .4.2.3 0-.2.2-.4.3-.3 0 .1-.1 0-.1 0 .1.2-.2.2 0 .4-.1-.4-.2-.1-.4-.1.1.3-.1 0-.1.2.1.3.2.6.2.9-.1.4 0 .9 0 1.2-.1.2-.3 0-.3.2s.2-.2.1.2c0 .1-.1.6.1.7l-.2-.1v.2c-.1 0-.1.1-.2 0-.1.2 0 .4 0 .6l.1-.1c.1.4 0 .6 0 .9h-.1l.1.2c-.1 0-.2.1-.1.3l-.3-.5c.1-.1.1.2.2.1s.1-.4 0-.5v.2c-.1 0-.1-.1-.3-.2v.2c-.1-.1-.1-.3-.1-.5.1.1.1-.1.1 0-.1 0-.2-.2-.1-.5.2-.2-.1-.5-.1-.8.1.1.3.3.3.5.1-.2 0-.2.1-.4-.1-.1-.3-.2-.3-.4h.1c0-.2-.2-.2-.2-.5 0-.5 0-1 .1-1.4h.1c-.2-.2-.1-.7-.2-1 .1-.5-.1-1 .1-1.3-.1-.8-.1-1.6-.1-2.4l.1.1c-.1-.2.1-.1.1-.3-.1.2-.1-.2-.2-.3.1-.2 0-.4 0-.5s-.1-.2-.1-.2l.1-.1c-.1 0-.1-.2 0-.4h-.1s0-.2-.1-.1c-.2.3-.3.3-.4.5-.1.1-.2.1-.5.2-.7.7-1.6 1-2.4 1.6l-.1-.1c-.7.7-1.8 1.1-2.5 1.6v-.2c-.3.1-.5.3-.4.4-.3.1-.5.4-.7.3-.2.1-.2.2-.4.4-.5.2-.6.3-1 .6h.1c0-.1 0-.1-.1-.1-.1.1-.6.3-.3.4-.5.1-1 .7-1.5.8.1 0 0 .1-.1.2-.4.2-.9.4-1.1.6-.1 0 0-.2-.1-.1s0 .1-.1.2c-.6.5-1.4.6-1.9 1-1 .7-2.1 1.3-3.1 1.9-.1.1 0 .1-.1.1h-.1s0 .1.1.1c0-.1 0 .3-.1.2.1.3-.1.9 0 1.3v-.1c-.1.5 0 .9-.1 1.3 0 0 0-.1-.1-.1-.1.2.2.4 0 .5 0 .1.1.1.1 0-.1 1 .1 2.1.1 3.2-.1.8-.4 0-.2.7.1.2-.3.4-.1.5.1-.1.1.1.2.1-.1.5-.2.6-.1.9h-.1c.2.4.1 1 .4 1.3v.6l.4-.2.9-.6.2-.1c.1 0 .2-.1.1-.1v-4.2l2-1.1c.5-.3 1-.5 1.5-.8.6-.1.6-.1 1.1-.5v.1c-.1-.2.4-.2.3-.4.8-.4 1.5-.9 2.2-1.3-.1.1-.1.2 0 .1l.1-.2c.1-.1.2-.2 0-.2.7-.5 1.4-.9 2.1-1.3l.6-.3 1-.6 2-1.1v3.3c-.1 1 0 .8 0 .9s-.1.1-.1.2h.4l.2-.1c.6-.3 1.2-.7 1.9-1.1.1.3.1.7-.4 1.2z"/><path d="M39.1 24.4c.1-.1.1-.3.2-.1-.1 0-.2.1-.2.1zm.8-5.3s.1-.1 0 0zm.1-1.3c.1 0 .1.3.1.5l-.1-.5zm.3-1.3c0-.1.1-.1 0 0 0 .1 0 0 0 0zm-.2-.1c0-.1 0-.2.1-.2-.1 0 0 .2-.1.2zm.2-3c0-.1-.1-.4 0-.5 0 .1.1.6 0 .5zm-.1-2.2V11c0-.2.1-.1.1 0l-.1.2zm-19.9 13v-.1h.1zm0 10.4c0 .2-.1.2-.1.2 0-.2.2 0 .1-.2zm4.3-1l-.1-.1z"/></g><path d="M9.8 16.4v12.7l11.1 6.4V22.8z" fill="#fff"/><g fill="#202020"><path d="M10.1 16.5c0-.2-.1.1-.1-.1.1 0 .1.1.1.1zm.1.4c.7 0 1.2.7 1.9.8.1 0-.1.2 0 .2.7.1 1.5.7 2 1.3H14c.1.1.4 0 .5.1 0 0-.1 0-.1.1.1-.1.3.1.4 0v.2l.1-.1c.4-.1.5.3.9.4 0 0-.1 0-.1.1.6.1 1.1.5 1.7.7 0 0-.1.1-.1.2.1-.1.3 0 .4 0 0 .2.3 0 .4.2.2-.1.1.2.3.1v.1c.2-.1.1.2.3.2.1 0 .1.1.2.1.2.1.3.2.4.1 0 .1-.2-.1-.2.2.5.2 1 .4 1.5.7v.9c-.1.1-.1.1-.1.2s0 .3.1.4c0 0-.1 0-.1.1-.1.1.2.2.1.3 0-.1-.1-.1-.1-.1.1.1.1.3.1.5 0 0 0-.1-.1-.1.1.2 0 .3.1.5l-.1-.1c-.1.3.2.1.1.3h-.1c.2.2.1.5.2.7v.7c0 .1-.2 0-.2.2.2 0 .1.4.3.3 0 .2-.1.5 0 .6-.1-.1-.2.1-.2-.1l-.1.1c-.1 0 0-.1-.1-.1 0 .1.1.3 0 .4.1.1.3.3.4.5-.1-.1-.2.1-.2 0l.4.3c0 .1-.1 0-.1.1 0 0 .1 0 .1.1 0 0 0 .3-.1.4-.1 0 0-.1-.1 0 0 .1.1.2.1.3s.1.3.2.2c0-.1-.1 0-.1-.1.1.1.1.3.1.4 0 0-.1 0-.1-.1l.3.6c.1 0-.2-.1-.1-.1-.1.3.2.6 0 .8h.1c0 .1-.1.1-.1.2-.1 0 0 .1 0 .2V32c.1.1.2.6.1 1 0 0 .2.2.2.3h-.1v.1c0 .1 0 .1-.1.1.1.1 0-.1 0-.3 0-.1-.1-.3 0-.2-.1 0 .2.3 0 .2 0 .2.1.4 0 .6 0 0-.2-.2-.1 0 0 .3 0 .1.1.3v.2c.1.1 0 .3.1.2-.1 0 .1.5-.1.3l-.1-.2c0 .1.1.3.2.5h-.1c.2.3 0 .3.1.7v.4c-.1-.1-.3-.2-.4-.3-.1 0-.2 0-.5-.2h.1c-.2-.2-.2-.1-.3-.1 0 0-.3-.3-.4-.5-.1 0-.1.2-.1.2-.1-.3-.5-.1-.7-.5.1 0 .3 0 .2-.1-.1-.3-.4 0-.5-.2v.2c0-.1-.3-.1-.2-.2-.1 0-.2-.2-.3 0-.2-.3-.8-.3-.8-.7-.1 0-.1-.1-.2 0 0 .1.1 0 .1.1h-.1c-.1-.1-.1-.1 0-.2-.1-.2-.4.1-.6-.1v-.1h-.2c-.1-.1 0-.2 0-.3-.1 0-.2-.1-.3 0V33c0 .1-.1 0-.2 0h.1s-.1-.1-.2-.1c0 .1.1.2.1.2h-.2c.1-.1-.1-.2-.2-.2-.1-.1-.1 0-.2 0 0-.1-.1-.1 0-.1 0 0 0 .1.1.1 0-.1 0-.2-.1-.2s-.1.2-.2.1c.1 0 .1 0 .1-.1l-.1-.1-.1.1c-.1.1-.2-.1-.3 0-.1 0-.1-.2-.2-.2 0-.1-.2-.1-.3-.1 0 0-.2-.1-.3-.1-.1-.1.2-.4 0-.3-.1-.1-.3.1-.3.2-.2-.2-.5-.2-.6-.4 0 0 0 .1-.1 0-.3-.2-.7-.3-.9-.6.1 0 .1-.1.1-.1-.1 0 0-.1-.1 0 0 .1-.1.1 0 .2-.2-.1-.5-.2-.6-.4 0 .1 0 .1-.1.1.1-.1 0-.2-.2-.3l-.1.1v-.1c-.1 0-.1.1-.2 0v-.1c-.1 0-.4 0-.5-.1v-.2c-.1 0-.2 0-.1.1-.2-.2-.3-.3-.3-.4h-.4l-.2-.1c-.3-.1-.5-.2-.8-.4v-.9h.1c.1-.2-.1-.1-.1-.3.1 0 .1-.1.2 0 .1-.2-.1-.2-.2-.4-.1 0 .1.1-.1.1 0 0 .1-.3-.1-.3h.2l-.1-.1c.2-.1.3.3.5.2v-.1c.1-.1.2.3.2 0-.1-.1-.3-.2-.4-.1 0-.2-.4-.1-.3-.4.1-.1 0 .2.1.1s-.1-.2 0-.3c0 .1-.2 0-.2-.1.1-.1.1.1.1-.1-.1 0-.1-.2-.2 0-.2-.1 0-.2-.1-.3.1-.1.3.2.4 0-.1 0-.2-.2-.4-.1 0-.1.1-.1.2 0 .1-.1-.2-.3 0-.3h-.1l.1-.1c0-.1-.2-.3 0-.3 0 0 0-.3-.1-.2s.1.2-.1.2c.1-.1 0-.2-.1-.3h.1s0-.2-.1-.2c-.1-.2.2 0 .2-.2l.1.1s.1-.1 0-.2c-.1 0-.2-.1-.3-.1 0-.1.1 0 0-.1l.1.1s.2-.1.2-.2-.2-.2-.3-.1c0-.1.1-.2.1-.1 0-.2-.1 0-.2-.1l.3-.3.2.1V24c.1.1.1-.1.3 0 0-.1 0-.1-.1-.2-.2.2-.3-.2-.5-.2-.1-.3.5-.2.2-.4-.1 0-.2-.1-.2.1 0-.2-.2-.1-.1-.3.1.1.2-.1.4 0-.1 0-.1.1 0 .1.1-.1.2 0 .2-.1s0-.2-.1-.2 0 .2-.1.1c0-.2.1-.2-.1-.3 0 .1-.1.2-.2.2v-.1h.1c.1-.2-.1-.1-.1-.3l.2-.1c.1.1-.1.3.2.3 0-.1-.1-.2 0-.3v.1s.3-.1.1-.3c-.1-.1-.1 0-.2 0 0-.2-.1-.3-.1-.5.2 0 0-.3.2-.1-.1.1-.1.4.1.5.2-.1 0 .2.2.2 0-.2.2-.2.3-.2 0 0 0-.1-.1-.1h-.3c0-.2 0-.4-.1-.5.1-.1.2 0 .2 0v-.8c-.2.2 0-.3-.2-.2 0 .1-.2.2-.3.2 0-.1.1 0 .1 0-.1-.1.2-.2 0-.3.1.2.2 0 .4.1-.1-.2.1 0 .1-.2-.1-.2-.2-.4-.2-.6.1-.2 0-.6 0-.8.1-.1.3 0 .3-.2 0-.1-.2.1-.1-.1 0-.1.1-.4-.1-.4l.2.1v-.1h.2c.1-.1 0-.3 0-.4l-.1.1c-.1-.2 0-.4 0-.6h.1l-.1-.1c.1 0 .2-.1.1-.2l.3.4c-.1.1-.1-.1-.2 0-.1 0-.1.3 0 .3v-.1c.1 0 .1.1.3.2v-.1c.1.1.1.2.1.3-.1-.1-.1 0-.1 0 .1 0 .2.1.1.3-.2.1.1.3.1.5-.1-.1-.3-.2-.3-.3-.1.1 0 .1-.1.3.1.1.3.1.3.3h-.1c0 .1.2.1.2.3 0 .3 0 .7-.1.9h-.1c.2.1.1.5.2.6-.1.3.1.7-.1.9.1.6.1 1 .1 1.6l-.1-.1c.1.1-.1.1-.1.2.1-.1.1.1.2.2-.1.3 0 .6.1.8h-.1c.2.2 0 .5 0 .8 0 0-.1.1-.1.2.2.2.1.2.3.5 0 .2 0 .4-.1.6.2.6.1 1.3.2 1.9h-.1c0 .1 0 .1.1.2v.2c.1 0 .1.1.2.1.1.1.3.2.5.2l-.1.1c.1.1.4.1.4 0 .1.1.4.1.4.3.1.1.2 0 .4.1.3.2.4.3.7.4h-.1s-.1.1 0 .1.4.3.4 0c.2.3.8.3 1 .6 0-.1.1 0 .1-.1.3.1.5.4.8.5 0 0-.1.1 0 .1s0-.1.1-.1c.5.1.8.6 1.2.8.8.3 1.5.8 2.1 1.1.3 0 .4.5.8.3 0 .1.2.1.1.2.1 0 .2.1.4.2 0 .1.1.1.1 0 .1.2.1 0 .2.2v.1c.1.2 0-.3.1.1l-.1-.2.1.1c0-.2-.1-.5-.1-.6 0 0 .1-.1.1-.2h.1c.1 0 .1 0 0-.2 0 0-.1 0 0 0-.1-.2.3-.3.1-.4-.1 0-.1-.1-.2-.1.1-.3.2-.4.1-.6h.1c-.2-.3-.1-.6-.4-.9l-.2-4.7v-3.2l-.1-.1c-.2-.4-.3-.4-.6-.5-.1.1-.3-.1-.4 0-.5-.3-1-.5-1.5-.9.1 0 .2-.1.1-.1H17c-.1 0-.2 0-.1.1-1.4-.6-2.5-1.6-3.8-2.4-.3-.2-.7-.4-1.1-.6-.9-.8-1.7-1.4-2.7-1.9.1.3.5 0 .9.2z"/><path d="M10.1 16.8c-.1 0-.1.2-.2.1 0-.1.1-.1.2-.1zm-.9 3.5s-.1-.1 0 0c0 0 0-.1 0 0zm0 .9c-.1 0-.1-.2-.1-.3l.1.3zm-.3.8c-.1.1-.1 0 0 0-.1-.1 0 0 0 0zm.2.1c0 .1 0 .1-.1.1 0 0-.1-.2.1-.1zm-.3 1.8s.1.1 0 .2c.1-.1-.1-.3 0-.2zm.2.8s-.1 0 0 0c-.1.1-.1.1 0 0zm9.9 10.4l-.1-.1h.1zm2.5-4.3c0-.1.1-.1 0 0 .1 0 0-.2 0 0zm-.3-3.7v.1h-.2z"/></g><path d="M13.5 22.8V27l3.7 2.2v-4.3z" fill="#436685"/><g fill="#202020"><path d="M13.8 22.8c-.1 0-.2.1 0 0zm-.2.3c.4-.2.4.2.7.1 0 0-.1.2 0 .2.3-.1.5.2.6.5 0 .1.2-.1.2 0l-.1.1c.1-.1.1 0 .2-.1 0 0 0 .1-.1.2l.1-.1c.2-.2.2.1.4 0v.1c.3-.1.4.1.6.1 0 0-.1.1-.1.2.1-.1.1-.1.2-.1 0 .1.1-.1.2 0 .1-.1 0 .1.1 0v.1c.1-.2 0 .1.1.1s0 .1.1.1.1.1.2 0c0 .1-.1 0-.2.2.2 0 .4.1.6.2v.3c-.1 0-.1.1-.1.1s0 .1.1.1h-.1c-.1 0 .2 0 .1.1h-.1c.1 0 .1.1.1.2h-.1c.1.1 0 .1.1.2h-.1c-.1.1.2 0 .1.1h-.1c.2.1.1.2.2.2v.2s-.2 0-.2.1c.2 0 .1.1.3.1 0 .1-.1.2 0 .2h-.4s.1.1 0 .1a.76.76 0 0 1 .4.2h-.2l.4.1h-.1.1s0 .1-.1.1h-.1l.1.1s.1.1.2.1h-.1c.1 0 .1.1.1.2 0 0-.1 0-.1-.1a1.38 1.38 0 0 1 .3.4c.1 0-.2-.1-.1-.1-.1.1.2.4 0 .4 0 0 .1.1.1 0 0 .1-.1 0-.1 0-.1 0 0 .1 0 .1 0 .1 0 0 0-.1.1.1.2.5.1.5l.2.3-.1-.1c-.1 0 0 .1-.1 0 .1.2-.1-.4 0-.2-.1-.1.2.3 0 .1 0 .1.1.3 0 .2 0 0-.2-.3-.1-.2 0 .1 0 .1.1.2v.1c.1.2 0 .1.1.2-.1-.1.1.2-.1 0l-.1-.2s.1.3.2.4l-.1-.1c.2.4 0 .1.1.4v.1c-.1 0-.1-.1-.2-.2 0 .1 0 .2-.1.1v-.1c-.1-.1-.1 0-.1 0s-.2-.3-.3-.4c0 .1.1.3.1.4-.2-.4-.1.1-.3-.2v-.2c-.2-.4 0 .2-.1 0l.1.3c-.1-.2-.1.1-.1-.2 0 .1-.1-.1-.1.1-.2-.3-.4-.1-.5-.5 0 0-.1 0-.1.1s0-.1.1 0v.1c0-.1-.1-.1 0-.3-.1-.2-.1.3-.2.1v-.1l-.1.1c-.1-.1 0-.2 0-.3h-.1v-.3c0 .1-.1 0-.1.1H16v.2h-.1c.1-.1 0-.1-.1-.1l-.1.1v-.1s0 .1 0 0c0 0 .1-.1 0-.1s-.1.2-.1.1l.1-.1v-.1l-.1.1c-.1.1-.1 0-.2.1v-.1c0-.1-.1-.1-.1 0h-.1c0-.1.2-.4.1-.3 0 0-.2.1-.2.2 0-.1-.2 0-.2-.2 0 0 0 .1-.1.1-.1-.1-.3 0-.3-.3l.1-.1c-.1.1 0-.1-.1 0 0 .1-.1.1-.1.2-.1 0-.2 0-.2-.1 0 0 0 .1-.1.1.1-.1 0-.2 0-.2v.1-.1s-.1.2-.1.1v-.1c-.1.1-.2.1-.3 0V28s-.1 0-.1.1c-.1-.1-.1-.2-.1-.3-.3.1-.5 0-.7-.1v-.3h.1c.1-.1-.1 0-.1-.1.1 0 .1-.1.2-.1.1-.1-.1-.1-.2-.1s.1 0-.1.1c0 0 .1-.2-.1-.1h.1c.2-.1.3.1.5 0 .1-.1.2.1.2 0H13c0-.1-.4 0-.3-.1.1 0 0 .1.1.1.1-.1-.1-.1 0-.2 0 .1-.2 0-.2 0h.1c-.1 0-.1-.1-.2 0-.2 0 0-.1-.1-.1.1 0 .3.1.4 0-.1 0-.2-.1-.4 0h.2c.1 0-.2-.1 0-.1h-.1.1s-.2-.1 0-.1c0 0 0-.1-.1-.1s.1 0-.1.1c.1 0 0-.1-.1-.1h.1l-.1-.1c-.1-.1.2 0 .2-.1h.1s.1 0 0-.1h-.2s.2 0 .2-.1c0 0-.2-.1-.3 0 0 0 .1-.1.1 0h-.2c.1 0 .2-.1.3-.1h.5l-.1-.1c-.2.1-.3-.1-.5 0-.1-.1.5 0 .2-.1h-.2s-.2 0-.1-.1h.4c-.1 0-.1 0 0 0h.2s0-.1-.1-.1h-.1c0-.1.1-.1-.1-.1h-.1c.1-.1-.1 0-.1-.1h.2c.1 0-.1.1.2.1 0 0-.1-.1 0-.1 0 0 .3 0 .1-.1h-.2c0-.1-.1-.1-.1-.2.2 0 0-.1.2 0-.1 0-.1.1.1.2.2 0 0 .1.2.1 0-.1.2-.1.3-.1H13c0-.1 0-.1-.1-.2h.2v-.3c-.2 0 0-.1-.2 0 0 0-.2.1-.3.1h.1c-.1 0 .2 0 0-.1.1.1.2 0 .4 0-.1-.1.1 0 .1 0-.1-.1-.2-.1-.2-.2.1-.1 0-.2 0-.3h.2s.1-.1-.1-.1h.4c.1 0 0-.1 0-.1h-.1c-.1-.1 0-.1 0-.2h.1l.3.1c-.1-.9-.2-1-.2-.9-.2 0-.2.1 0 .1-.1-.1-.1-.1 0-.1.1.1.1.1.2.1s.1.1.1.1h-.1c.1 0 .2 0 .1.1-.2 0 .1.1.1.2-.1 0-.3-.1-.3-.1-.1 0 0 0-.1.1.1 0 .3 0 .3.1h-.1s.2 0 .2.1 0 .2-.1.3h-.1c.2 0 .1.1.2.2-.1.1.1.2-.1.3.1.2.1.4.1.5h-.1c.1 0-.1 0-.1.1.1 0 .1 0 .2.1-.1.1 0 .2.1.3H14c.2.1 0 .2 0 .3 0 0-.1 0-.1.1.2 0 .1.1.3.2 0 .1 0 .1-.1.2.1.1.1.2.1.3 0 0 0 .1.1.1h-.1.1s0 .1.1 0l-.1.1c0 .1.1 0 .2-.1 0 .1.1-.1 0 .1 0 .1.1 0 .2 0 .1.1.1.1.2.1l-.1.1c.1 0 .1.1.2-.1 0 .2.3 0 .3.3 0-.1.1-.1.1-.1.1 0 .1.2.2.2 0 0-.1.1 0 .1 0 0 0-.1.1-.1.2 0 .2.3.4.3.1-.1.1 0 .2 0v.1c0-.2.1.3 0-.1v.2c0-.2.1.2 0 0 .1.2 0 0 .1.1 0 0 0 .1.1.1.1.2-.1-.3.1.1l-.1-.2s0 .1.1.1c0 0-.1-.3-.1-.4l.2.2s-.1-.1 0 0c-.1-.1.3.2.1.1l-.2-.2c.1 0 .2.1.1 0l.1.1c-.2-.2-.1-.2-.4-.3v-.4c0-.3-.1-.5-.1-.8v-.6c.1-.1.1-.2 0-.1v-.1l-.1.1c-.1-.1-.3-.2-.5-.3l.1-.1-.2.2c-.5-.1-.8-.7-1.2-.9-.1-.1-.2-.1-.4-.2-.2-.4-.4-.7-.8-.8-.1-.2.2-.5.4-.5z"/><path d="M13.8 22.9c-.1 0-.1.1-.2 0h.2zm-.9 1.2s-.1 0 0 0zm0 .3c-.1 0-.1-.1-.1-.1l.1.1zm-.3.3c-.1 0-.1 0 0 0-.1-.1 0-.1 0 0zm.1 0s-.1 0 0 0zm-.2.6c.1 0-.1 0 0 0zm.1.3zm4.3 4v.1-.1zm.8-1.9zm-.3-1.3h-.2z"/></g><path d="M20.9 22.8l18.5-10.6-11.1-6.4L9.9 16.5z" fill="#fff"/><g fill="#202020"><path d="M20.9 22.5c-.2.1.2 0-.1.1 0 0 0-.1.1-.1zm-.6-.3c-.9-.1-1.6-.9-2.5-1.2-.1 0 .1-.2-.1-.2-.9-.2-2-1-2.8-1.7h.1c-.1-.1-.5-.1-.6-.2 0 0 .1 0 .1-.1-.1.1-.4-.1-.5-.1 0-.1 0-.2-.1-.3l-.2.1c-.5.1-.7-.4-1.2-.5 0 0 .1 0 .1-.1-.7-.2-1.5-.7-2.4-1.1h.3c-.2 0-.5-.1-.8-.2.1 0 0 0-.1-.1 0-.1 0-.2.3-.3 0-.1.4-.1.3-.3h.3c-.1-.1.4-.1.4-.2.1-.1.3-.1.4-.2.3-.2.5-.2.4-.3.2 0-.2.2 0 .3.8-.7 1.8-1.2 2.7-1.7h.3c.1-.1.3-.2.4-.4h.1c.2 0 .1-.3.3-.3v.2c.1-.2.3-.3.5-.5v.1c.1-.2.4-.2.5-.4v.1c.3-.1 0-.2.3-.3v.1c.1-.3.5-.5.8-.6.2-.2.5-.3.8-.5.1 0 .1.2.3 0-.1-.2.4-.3.1-.4l.8-.4c-.1.1.2.1 0 .3h.2c0 .1-.2.1-.1.1.1-.1.3-.3.4-.3.1-.2.2-.5.5-.7-.1.1.2.1.1.2l.2-.5c.1-.1.1.1.2 0v-.2s.4-.3.5-.1c.1 0-.1.1 0 .1.2-.1.1-.2.3-.3.1 0 .3-.3.1-.3-.1 0 .1.1-.1.1 0-.1.2-.3.4-.4v.2c.2-.3.4-.4.6-.6 0-.1 0 .2-.1.2.4-.1.6-.5 1-.6l-.1-.1c.2-.1.2 0 .3-.1 0 .1.1-.1.2-.2 0-.1 0 0 0 .1.1-.1.7-.6 1.1-.7 0 0 .1-.3.2-.3v.1c.1 0 .3-.2.3-.1.1-.2-.6.5-.4.3.1 0 .2-.3.3-.2.2-.1.3-.3.5-.3 0 0 0 .2.1.1.2-.1 0-.1.2-.2l.1-.1c0-.1.2-.1.1-.2.1.1.3-.2.4-.1v.1c.1-.1.1-.2.1-.3h.1c0-.1 0-.1.1-.2.1 0 .2-.1.3-.2.2-.1.4-.2.5-.3.2.1.4.2.4.3.1 0 .3.1.4.1s.2.1.3.1h-.1c.1.1.1.1.3.1 0 0 .2.2.3.4.2 0 .2-.1.3-.2 0 .3.5.1.6.4-.1 0-.3 0-.2.1 0 .3.4 0 .6.3v-.2c0 .2.4.1.3.3.1 0 .3.2.3 0 .3.4 1 .5 1.1.9.1 0 .2.1.2 0s-.2 0-.2-.1h.1c.1.1.2.2 0 .2.2.3.4-.1.7.1 0 0 0 .1.1.1h.3c.2.1 0 .2 0 .3.1 0 .3.1.4.1l.1.2c0-.2.1 0 .2 0h-.1c0 .1.1.1.2.1 0-.1-.1-.2-.2-.3h.3c-.1.1.1.2.2.3s.2 0 .2 0c0 .1.2.1 0 .1 0 0 0-.1-.1-.1 0 .1 0 .2.2.2.1 0 .1-.2.3 0h-.2l.2.2.1-.1v.1c.1-.1.3.1.4 0 .1 0 .2.2.3.3a.76.76 0 0 0 .4.2c.1 0 .2.1.3.1.1.2-.2.4.1.4.2.1.4 0 .3-.1.1.1.3.2.5.3.1 0 .2.1.2.1l.3.3h.2c.3.2.7.4 1.1.6s.7.4.8.6c-.3-.1-.2 0-.3 0 .1 0 .2.1.2.1-.1 0-.1 0 0 .1.2 0 .3 0 .4-.1h.1c-.3.2-.9.6-1.3.7.2 0 .1 0 .1.1-.2-.1-.5.1-.6.2l.1.1h-.2c0 .1.1.2-.2.3h-.1l-.3.3c-.1.1-.2.1-.3.2h-.2c-.1 0-.1.2 0 .2-.3.1-.5.2-.6.1-.3.5-1 .9-1.5 1.2V15c-.2 0 0 .1-.1.2 0-.1-.2-.1-.1-.2-.3 0-.2.3-.3.4 0 .1.1-.1.1 0 0 0-.3.1-.3.3-.1 0-.1-.1-.1-.2l-.1.1c-.2-.1.2-.5-.1-.5l-.1.1c-.2-.1.2-.3-.1-.2-.1.1-.1.4 0 .4-.3.2 0 .4-.2.5-.1 0 .2-.1.1-.2-.2 0-.2.2-.4.3.2 0 .1.2 0 .2-.2 0 0-.2-.2-.1 0 .1-.1.3 0 .2 0 .2-.2.1-.3.3-.1-.1.1-.4-.2-.3.1.1-.2.3 0 .4-.1 0-.2-.1-.1-.2-.2 0-.2.4-.4.2v.1h-.2c-.1.1-.3.4-.4.2 0 0-.3.2-.1.2s.1-.2.3-.1c-.2-.1-.2.1-.3.3v-.1c0 .1-.2.1-.2.2 0-.1 0-.1-.1-.1v.1c-.2.2-.2-.1-.4 0l.1-.2s-.1 0-.2.1v.4c-.1.1-.1-.1-.2.1l.1-.2s-.2-.1-.4 0c-.1.1-.2.3 0 .3-.1 0-.2.1-.2 0-.2.1.1.1 0 .2h-.5l.1-.3-.1.1c.1-.2-.1 0-.1-.2-.1 0-.1.1-.2.2.3.1-.1.4.1.6-.3.2-.5-.4-.6.1.1 0 0 .3.2.1-.2.1 0 .3-.3.3.1-.2-.3-.1-.1-.3 0 .1.2 0 .2-.1-.1 0-.1-.2-.3-.1-.1.1-.3.2-.2.3s.2-.1.2 0c-.2.2-.4 0-.3.3.1-.1.2 0 .3.1l-.1.1v-.1c-.3.1 0 .2-.3.3l-.2-.1c0-.2.4-.2.3-.3-.2.1-.2.2-.4.3l.1-.1c-.1 0-.3-.2-.4.1-.1.1 0 .1 0 .2-.3.2-.3.3-.5.4 0-.2-.3.2-.2-.1.1 0 .5-.2.6-.4-.2-.1.2-.1.2-.3-.2.1-.3 0-.4-.1-.1 0-.1.1-.1.1 0 .1.1.1.2.2-.3.1-.5.3-.5.5-.1 0-.1-.1-.1-.2-.3.2-.6.4-.9.5.3.1-.3.2-.1.3.2 0 .4 0 .3.1-.1 0 0-.1-.1-.1-.1.2-.3 0-.3.2.2-.2-.1-.2-.1-.4-.1.2 0-.1-.2 0-.1.2-.4.4-.6.5-.4 0-.7.4-.9.5-.2 0-.2-.2-.3-.1-.2.1.2.1-.1.2 0 .1-.5.1-.4.4v-.2l-.1.1-.1-.1c-.2 0-.3.2-.5.3h.2c-.2.2-.5.3-.7.4v-.1l-.1.1c0-.1-.2-.1-.2 0l.3-.5c.1 0-.1.2.1.2.1 0 .3-.1.3-.2-.1 0-.1.1-.1.1-.1-.1 0-.2.1-.3 0 0-.1 0-.1.1.1-.1.1-.2.3-.3-.1.1.1 0 .1.1-.1-.1.1-.3.3-.3s.3-.3.6-.4c0 .2-.1.3-.2.5.2 0 .2-.1.3-.1 0-.1 0-.3.1-.5l.1.1c.1-.1.1-.3.3-.4l1.1-.5.1.1c0-.3.5-.4.7-.6.4-.1.7-.5 1-.5l1.8-1.2v.2c.1-.2.1 0 .2-.1-.2 0 .1-.2.1-.4.4-.1.7-.4.9-.6l.1.1c.2-.3.6-.4.9-.5.1 0 .2.1.3 0 .1-.3.2-.3.4-.5.2-.1.5-.3.8-.3.6-.6 1.4-.9 2.1-1.5l.1.1c.6-.6 1.6-1 2.2-1.4v.2c.2-.1.4-.3.3-.4.1 0 .2-.1.3-.2s.2-.1.3-.1 0-.1 0-.2c.2 0 .3-.1.3-.1h.3l.1-.1h-.4c.1 0 0-.1-.1-.1s-.1 0-.1-.1c0 .1-.1 0-.1.1-.3-.2-.6-.5-1-.6 0-.1.1 0 0-.1-.1 0 0 .1-.2 0-.6-.2-1.1-.8-1.6-1-1-.4-1.9-1-2.8-1.5-.4 0-.6-.6-1-.5 0-.1-.3-.2-.2-.2-.3 0-.6-.5-1-.5h.1c-.3-.3-.7-.3-1-.6h.2c-.1-.2-.5 0-.3-.2 0 0-.1.1 0 .1l-.1-.1c-.1 0-.1.1-.2.1l-.5.3-1 .7c-.7.2-.2-.3-.6.1-.1 0 0 .1 0 .1-.1.2-.4-.1-.5.1.1.1 0 .1 0 .2-.4.1-.5.1-.8.3v-.1c-.2.4-.7.5-.8.9l-5.4 3.3-5.4 3c-.5.1-.6.1-1 .4V16c0 .1 0 .1-.1.2 0 0-.1 0-.1.1v.1c-.1 0-.1.1-.1.1h-.2.3l.3.2c.4.3.8.5 1.3.8l2.5 1.6c.4.3 1 .6 1.4.8 1.2.9 2.3 1.8 3.7 2.4-1.2-.1-1.5.2-2.1-.1z"/><path d="M21.1 22.3c.1 0 .3 0 .2.2 0-.1-.1-.1-.2-.2zm4.5-1.6v.1-.1zm1.1-.5c0 .1-.2.3-.3.3l.3-.3zm1.1-.3c.1 0 .1 0 0 .1-.1 0 0-.1 0-.1zm0-.2h.2c-.1-.1-.2.1-.2 0zm2.2-1s.1-.1.2-.1c-.1 0-.2.2-.2.1zm.9-.7c.1 0 .1.1 0 0zm-.1-11.4h.2l-.1.1zm-8.3 1.9c-.1.1-.1 0-.1 0 .1-.1 0 .1.1 0zm-4 2.7h.1v.2z"/></g></g></svg>