<?xml version="1.0" encoding="utf-8"?>
<!-- Generator: Adobe Illustrator 24.0.1, SVG Export Plug-In . SVG Version: 6.00 Build 0)  -->
<svg version="1.1" id="Layer_1" xmlns="http://www.w3.org/2000/svg" xmlns:xlink="http://www.w3.org/1999/xlink" x="0px" y="0px"
	 viewBox="0 0 47.9 43.3" style="enable-background:new 0 0 47.9 43.3;" xml:space="preserve">
<style type="text/css">
	.st0{fill:#FFFFFF;}
	.st1{fill:#202020;}
	.st2{fill:none;}
	.st3{fill:#5B7995;}
	.st4{clip-path:url(#SVGID_2_);}
	.st5{fill:#436685;}
</style>
<g>
	<g>
		<g>
			<polygon class="st0" points="39.4,33.4 39.4,24.9 28.3,31.3 28.3,39.8 			"/>
			<g>
				<g>
					<g>
						<g>
							<path class="st1" d="M39.1,33.3c0,0.2,0.1-0.1,0.1,0.1C39.1,33.4,39,33.3,39.1,33.3z"/>
							<path class="st1" d="M38.8,33.5c-0.2,0.6-1,0.6-1.4,1.1c0,0-0.1-0.2-0.2-0.1c-0.3,0.5-1.1,0.8-1.8,0.9v-0.1
								c-0.1,0-0.2,0.3-0.3,0.3v-0.1c0,0.1-0.2,0.2-0.2,0.3c-0.1,0-0.1-0.1-0.2-0.1v0.1c0,0.4-0.5,0.2-0.6,0.5v-0.1
								c-0.3,0.4-0.8,0.6-1.2,1c0,0,0-0.1-0.1-0.2c0,0.1-0.1,0.3-0.2,0.3c-0.1-0.1-0.1,0.2-0.3,0.2l0,0c0,0.2-0.2,0-0.2,0.2L32,37.6
								c0.1,0.2-0.2,0-0.2,0.1l0,0c-0.1,0.1-0.1,0-0.2,0.1l0,0c-0.1,0.1-0.3,0.1-0.2,0.2c-0.1-0.1,0.1-0.1,0-0.3
								c-0.5,0.5-1.1,0.8-1.7,1.1c-0.1,0-0.1,0-0.1-0.1c-0.1,0.1-0.2,0.2-0.3,0.3v-0.1c-0.1,0-0.2,0.3-0.3,0.3
								c0.1-0.1,0.1-0.2,0.1-0.2c-0.1,0.2-0.3,0.3-0.4,0.4c0,0,0.1-0.1,0.1-0.2c-0.2,0.3-0.2,0.1-0.4,0.3l0,0l0,0l0.1-0.1l0,0
								c0.1-0.2-0.2,0.3-0.1,0l0.1-0.1c-0.2,0.1-0.1-0.3-0.2-0.4l0,0c0-0.2,0-0.4,0-0.6c0-0.1,0.2-0.1,0.2-0.3
								c-0.2,0.1-0.1-0.3-0.3-0.2c0-0.2,0.1-0.5,0-0.6c0.1,0.1,0.2-0.1,0.2,0.1l0.1-0.1c0.1,0,0,0.1,0.1,0.1c0-0.1-0.1-0.3,0-0.3
								c-0.1-0.1-0.3-0.2-0.4-0.5c0.1,0.1,0.2,0,0.2,0L28,36.2c0-0.1,0.1,0,0.1-0.1c0,0-0.1,0-0.1-0.1c0,0,0-0.3,0.1-0.3
								s0,0.1,0.1,0c0-0.1-0.1-0.1-0.1-0.3l0,0c0-0.1-0.1-0.3-0.2-0.1c0,0.1,0.1,0,0.1,0.1c-0.1-0.1-0.1-0.2-0.1-0.3H28
								c-0.1-0.2-0.2-0.4-0.3-0.5c-0.1,0,0.2,0.1,0.1,0.1c0.1-0.2-0.2-0.5,0-0.7h-0.1c0-0.1,0.1-0.1,0.1-0.2c0.1,0,0-0.1,0-0.2l0,0
								c-0.1-0.1-0.2-0.5-0.1-0.8l-0.2-0.2h0.1c0.1,0,0-0.2,0.1-0.2c-0.1-0.1,0.1,0.5,0,0.3c0.1,0-0.2-0.2,0-0.2
								c0-0.1-0.1-0.2,0-0.3c0,0,0.2,0.1,0.1,0c0-0.2,0,0-0.1-0.2v-0.1c-0.1,0,0-0.1-0.1-0.1c0.1,0-0.1-0.2,0.1-0.2h0.1
								c0-0.1-0.1-0.1-0.2-0.2c0,0,0,0,0.1,0c-0.2,0,0-0.2-0.1-0.4c0-0.1,0-0.2,0-0.4c0.1-0.1,0.2-0.1,0.4-0.1
								c0.1-0.1,0.2-0.3,0.4-0.3c0,0-0.1,0.1,0,0.1s0.1-0.1,0.2-0.1c0,0,0.2,0,0.3,0c0.1-0.1,0-0.2,0-0.3c0.2,0.1,0.2-0.3,0.4-0.2
								c0,0-0.1,0.2,0,0.2c0.2,0.1,0.1-0.3,0.3-0.2l-0.1-0.1c0.1,0.1,0.2-0.2,0.2,0c0-0.1,0.2,0,0.1-0.2c0.3,0,0.5-0.4,0.9-0.2
								l0.1-0.1c-0.1,0,0,0.1-0.1,0.1v-0.1c0.1,0,0.2,0,0.2,0.1c0.2,0,0-0.4,0.3-0.4c0,0.1,0.1,0.1,0.1,0v-0.2
								c0.1,0,0.2,0.1,0.2,0.2c0.1-0.1,0.2-0.1,0.1-0.2l0.2,0.1c-0.1-0.1,0-0.1,0-0.1l0,0c0,0,0.1,0,0.1-0.1s-0.1,0-0.2,0
								c0-0.1,0.1-0.1,0.1-0.2c0,0.1,0.2,0,0.2,0c0.1,0,0-0.1,0-0.1h0.1H32c0.1,0,0.1,0.1,0.2,0c0-0.1-0.1-0.2,0-0.2v0.1h0.1V28l0,0
								c0-0.1,0.2-0.1,0.1-0.3c0.1,0,0.2,0,0.2,0l0,0c0.1,0,0.2-0.1,0.2-0.2l0,0c0,0,0.1-0.1,0.1-0.2c0.1,0,0.2,0.3,0.3,0.2
								c0.1-0.1,0.1-0.3,0-0.3c0.2,0,0.3-0.3,0.6-0.3v-0.1c0.3-0.1,0.5-0.4,0.8-0.4c0,0.1,0,0.1,0.1,0.1c0-0.1,0.1,0,0.1-0.1
								c-0.1-0.1-0.1-0.1-0.2-0.1c0.1-0.1,0.4-0.3,0.5-0.3c-0.1,0,0-0.1,0-0.1c0.1,0.1,0.2,0.1,0.3,0v-0.1h0.1c0,0-0.1-0.2,0.1-0.2
								c0,0,0,0.1,0.1,0.1c0-0.1,0.1-0.3,0.3-0.3l0.1,0.1c0,0,0.1-0.1,0-0.1c0.2,0,0.3-0.1,0.4,0c0.1-0.2,0.2-0.4,0.4-0.5
								c0.1-0.1,0.2-0.1,0.3-0.2c0.1-0.1,0.3-0.1,0.4-0.2v0.1c0.2,0,0-0.2,0.2-0.2c0,0.1,0.1,0.1,0.1,0.2c0.2,0,0.2-0.3,0.4-0.4
								c0-0.1-0.1,0.1-0.1,0s0.3-0.1,0.4-0.3c0,0,0,0.2,0,0.3l0.1-0.2c0.1,0.1-0.4,0.6-0.2,0.7l0.1-0.1c0.1,0.1-0.2,0.3,0,0.3
								c0.1-0.1,0.2-0.5,0.1-0.5c0.2-0.2,0.2-0.5,0.5-0.7c0,0.1-0.2,0.2-0.2,0.3c0.1,0.1,0.3-0.2,0.4-0.3c-0.1,0,0.1-0.3,0.2-0.4
								c0.1,0-0.2,0.3,0,0.2c0.1-0.1,0.3-0.4,0.2-0.4c0.2-0.4,0.2-0.1,0.5-0.4c0,0.2-0.5,0.6-0.3,0.6c0.1-0.2,0.5-0.5,0.5-0.7
								c0,0,0,0,0,0.1s-0.1,0.1-0.1,0.2L40.3,23l0,0c0,0.2,0.2,0,0,0.4l0.1-0.1c0,0.1-0.1,0.2-0.1,0.4c0,0.1,0.2,0.2,0,0.4
								c0,0,0,0.3,0.1,0.1c0.1-0.3-0.1-0.1,0.1-0.5c-0.1,0.3,0,0.3,0.1,0.4l-0.1,0.1c0,0,0,0.2,0.1,0.2l-0.1,0.1h0.1
								c0.1,0.3-0.2,0.2-0.2,0.5l-0.1-0.1c0,0-0.1,0.2,0,0.3c0.1,0,0.2,0,0.3,0c0,0.1-0.1,0.1,0,0.3l-0.1-0.2c0,0-0.2,0.2-0.2,0.4
								c0,0.1,0.2,0.3,0.3,0.1c0,0.1-0.1,0.3-0.1,0.2c0,0.2,0.1,0,0.2,0.2c-0.1,0.1-0.2,0.2-0.3,0.3l-0.2-0.1v0.1
								c-0.1-0.1-0.1,0-0.3,0c0,0,0,0.1,0.1,0.2c0.2-0.2,0.3,0.2,0.5,0.1c0.1,0.2-0.5,0.1-0.2,0.4c0.1,0,0.2,0.1,0.2-0.1
								c0,0.1,0.2,0.1,0.1,0.3c-0.1-0.1-0.2,0.1-0.4,0c0.1,0,0.1-0.1,0-0.1c-0.1,0.1-0.2,0-0.2,0.1s0,0.2,0.1,0.2s0-0.1,0.1-0.1
								c0,0.2-0.1,0.2,0.1,0.3c0-0.1,0.1-0.1,0.2-0.1v0.1h-0.1c-0.1,0.2,0.1,0.1,0.1,0.3l-0.2,0.1c-0.1,0,0.1-0.3-0.2-0.3
								c0,0.1,0.1,0.2,0,0.3v-0.1c0,0-0.3,0.1-0.1,0.3c0.1,0.1,0.1,0,0.2,0c0,0.2,0.1,0.3,0.1,0.4c-0.2,0,0,0.2-0.2,0.1
								c0.1-0.1,0.1-0.4-0.1-0.4c-0.2,0.1,0-0.2-0.2-0.2c0,0.2-0.2,0.1-0.3,0.2c0,0,0,0.1,0.1,0.1s0.1,0,0.3,0c0,0.2,0,0.4,0.1,0.5
								c-0.1,0.1-0.2,0-0.2,0c0,0.2,0,0.4,0,0.6c0.2-0.1,0,0.2,0.2,0.1c0-0.1,0.2-0.2,0.3-0.1c0,0.1-0.1,0-0.1,0
								c0.1,0.1-0.2,0.1,0,0.2c-0.1-0.2-0.2,0-0.4-0.1c0.1,0.1-0.1,0-0.1,0.1c0.1,0.1,0.2,0.3,0.2,0.5c-0.1,0.2,0,0.5,0,0.7
								c-0.1,0.1-0.3,0-0.3,0.1s0.2-0.1,0.1,0.1l0,0c0,0-0.1,0.3,0.1,0.4h-0.2v0.1c-0.1,0-0.1,0-0.2,0c-0.1,0.1,0,0.2,0,0.3l0.1-0.1
								c0.1,0.2,0,0.3,0,0.5h-0.1l0.1,0.1c-0.1,0-0.2,0.1-0.1,0.1l-0.3-0.3c0.1-0.1,0.1,0.1,0.2,0c0.1,0,0.1-0.2,0-0.3
								c0,0.1,0,0.1,0,0.1c-0.1,0-0.1-0.1-0.3-0.1v0.1c-0.1-0.1-0.1-0.1-0.1-0.3c0.1,0.1,0.1,0,0.1,0c-0.1,0-0.2-0.1-0.1-0.3
								c0.2-0.1-0.1-0.3-0.1-0.4c0.1,0.1,0.3,0.1,0.3,0.3c0.1-0.1,0-0.1,0.1-0.2c-0.1,0-0.3-0.1-0.3-0.2H39c0-0.1-0.2-0.1-0.2-0.3
								c0-0.3,0-0.5,0.1-0.8H39c-0.2-0.1-0.1-0.4-0.2-0.5c0.1-0.3-0.1-0.6,0.1-0.7c-0.1-0.5-0.1-0.9-0.1-1.4l0.1,0.1
								c-0.1-0.1,0.1-0.1,0.1-0.1c-0.1,0.1-0.1-0.1-0.2-0.2c0.1-0.2,0-0.5-0.1-0.7h0.1c-0.2-0.1,0-0.2,0-0.4c0,0,0.1-0.1,0.1-0.2
								c-0.2,0-0.1,0-0.3,0c0-0.1,0-0.2,0.1-0.4c0,0,0,0-0.1,0c-0.3,0.3-0.4,0.3-0.6,0.5v-0.1c0,0.1-0.1,0.1-0.1,0.2
								c-0.1,0.1-0.2,0.1-0.4,0.2c-0.3,0.1-0.5,0.3-0.7,0.4l-0.1-0.2c-0.1,0-0.3,0.2-0.1,0.3c-0.1,0-0.3,0.3-0.4,0.2
								c-0.1,0-0.1,0.2-0.2,0.3c-0.3,0.1-0.4,0.1-0.6,0.3h0.1c0,0,0-0.1-0.1-0.1c-0.1,0.1-0.4,0.1-0.1,0.3c-0.3,0-0.5,0.4-0.9,0.4
								v0.1c-0.2,0.1-0.5,0.1-0.6,0.4c0,0,0-0.1-0.1-0.1v0.1c-0.3,0.3-0.8,0.3-1.1,0.5c-0.5,0.5-1.1,0.7-1.7,1.1l0,0
								c-0.1,0.3-0.5,0.1-0.5,0.4c-0.1,0-0.2,0.1-0.2,0c-0.1,0.2-0.5,0.1-0.6,0.4l0,0c-0.1,0-0.2,0.1-0.3,0.1
								c-0.1,0.1-0.3,0.2-0.3,0.1c0,0,0,0,0-0.1c-0.1,0,0.1,0.2-0.1,0l0.1,0.1h-0.1v0.1c0,0.1,0,0,0,0.2c0,0.3,0.1,0.5,0.1,0.8
								c-0.1,0.4-0.4,0-0.2,0.4c0,0,0.1,0,0,0c0.1,0.1-0.3,0.2-0.1,0.3c0.1,0,0.1,0.1,0.2,0.1c-0.1,0.3-0.2,0.3-0.1,0.5h-0.1
								c0.2,0.2,0.1,0.5,0.4,0.7c0,0.7,0.1,1.3,0.1,2l0.1,1c0,0.2,0,0.2,0,0.2l0,0l0,0c0.1-0.1-0.3,0.1,0.9-0.5c0.4,0,0.4,0,0.6-0.2
								c0,0,0,0,0,0.1c-0.1-0.1,0.2-0.1,0.1-0.3c0.4-0.2,0.8-0.5,1.2-0.7c-0.1,0,0,0.2,0,0.1V36l0,0c0,0,0.1-0.2,0-0.2
								c1-0.8,2.3-1.1,3.3-1.7c0.3-0.1,0.6-0.4,0.9-0.5c0.9-0.3,1.7-0.5,2.5-1.2C39,32.8,39.1,33.2,38.8,33.5z"/>
							<path class="st1" d="M39.1,33.1c0.1,0,0.1-0.1,0.2-0.1C39.2,33.1,39.1,33.1,39.1,33.1z"/>
							<path class="st1" d="M39.9,30.2C39.9,30.2,40,30.1,39.9,30.2C40,30.2,40,30.2,39.9,30.2C40,30.2,40,30.2,39.9,30.2z"/>
							<path class="st1" d="M40,29.4c0.1,0,0.1,0.2,0.1,0.3L40,29.4z"/>
							<path class="st1" d="M40.3,28.7C40.3,28.7,40.4,28.7,40.3,28.7C40.3,28.8,40.3,28.8,40.3,28.7z"/>
							<path class="st1" d="M40.1,28.7c0-0.1,0-0.1,0.1-0.1C40.1,28.6,40.2,28.7,40.1,28.7z"/>
							<path class="st1" d="M40.3,27.2c0,0-0.1-0.1,0-0.1C40.3,27.1,40.4,27.2,40.3,27.2z"/>
							<path class="st1" d="M40.2,26.2v-0.1C40.2,26.1,40.3,26.1,40.2,26.2L40.2,26.2z"/>
							<polygon class="st1" points="29.4,30 29.4,30 29.5,30 							"/>
							<path class="st1" d="M27.7,35.3C27.8,35.4,27.7,35.3,27.7,35.3C27.6,35.3,27.7,35.4,27.7,35.3z"/>
							<polygon class="st1" points="28.1,38.4 28.1,38.4 28.2,38.3 							"/>
						</g>
					</g>
				</g>
			</g>
		</g>
		<g>
			<g>
				<path class="st0" d="M6.1,18.5V27l22.2,12.8v-8.5C26.1,30.1,8.7,20,6.1,18.5z"/>
				<g>
					<g>
						<g>
							<g>
								<path class="st1" d="M6.4,18.7c0-0.3-0.1,0.1-0.1-0.2C6.4,18.5,6.4,18.6,6.4,18.7z"/>
								<path class="st1" d="M6.7,19.1c0.9,0.1,1.6,0.9,2.5,1.2c0.1,0-0.1,0.2,0.1,0.2c0.9,0.2,2,1,2.8,1.7H12
									c0.1,0.1,0.5,0.1,0.6,0.2c0,0-0.1,0-0.1,0.1c0.1-0.1,0.4,0.1,0.5,0.1c0,0.1,0,0.2,0.1,0.3l0.2-0.1c0.5-0.1,0.7,0.4,1.2,0.5
									c0,0-0.1,0-0.1,0.1c0.7,0.2,1.5,0.7,2.3,1c0,0-0.1,0.1-0.1,0.2c0.1-0.1,0.3,0,0.5,0.1c0,0.2,0.4,0.1,0.6,0.3l0,0
									c0.2,0,0.2,0.2,0.4,0.1v0.2c0.2-0.1,0.2,0.2,0.4,0.2l0,0c0.1,0,0.2,0.2,0.3,0.2l0,0c0.3,0.1,0.4,0.3,0.5,0.2
									c0,0.2-0.3-0.1-0.2,0.1c1,0.4,1.9,1,2.9,1.5c0.1,0.1,0.1,0.2,0.1,0.2c0.1,0,0.4,0.2,0.5,0.1c0,0,0,0.1,0.1,0.1
									c0.1,0.1,0.3,0,0.4,0.1C23,28,23,28,23,28.1c0.2,0,0.4,0.1,0.6,0.2h-0.1c0.3,0,0.4,0.2,0.6,0.3H24c0.2,0.3,0.2-0.1,0.4,0.1
									c-0.1,0-0.1,0-0.1,0.1c0.3,0,0.7,0.3,0.9,0.3l0,0c0.3,0.1,0.5,0.3,0.8,0.4c0.1,0.1-0.1,0.2,0.1,0.3c0.1-0.2,0.5,0.2,0.4-0.1
									c0.2,0.2,0.5,0.4,0.7,0.5c-0.1,0,0,0.3-0.2,0.2l0.1,0.2c-0.1,0-0.1-0.1-0.1,0c0.1,0,0.4,0.1,0.5,0.2c0.2,0,0.5-0.1,0.9,0.1
									c-0.2,0-0.1,0.2-0.2,0.2c0.1,0,0.3,0,0.5,0l0.1,0.1c0,0.1-0.1,0.1-0.1,0.3c0,0,0.1,0,0.1,0.1c0,0,0,0.2,0,0.3
									c0,0.1,0,0.2-0.1,0.3c-0.1,0,0-0.2-0.1-0.1c0,0.2,0.1,0.2,0.1,0.4l0,0c0,0.1,0.1,0.4,0.2,0.3c0-0.1-0.1,0-0.1-0.1
									c0.1,0.1,0.1,0.3,0.1,0.5c0-0.1-0.1-0.1-0.1-0.1c0.1,0.3,0.2,0.6,0.3,0.9c0.1,0-0.2-0.1-0.1-0.2c-0.1,0.4,0.2,0.8,0,1.1h0.1
									c0,0.2-0.1,0.2-0.1,0.3c-0.1,0,0,0.1,0,0.3c0,0.1,0,0,0-0.1c0.1,0.2,0.2,0.9,0.1,1.3l0.2,0.3h-0.1c-0.1,0.1,0,0.3-0.1,0.3
									c0.1,0.2-0.1-0.8,0-0.5c-0.1,0.1,0.2,0.4,0,0.3c0,0.2,0.1,0.4,0,0.5c0,0-0.2-0.1-0.1,0c0,0.3,0,0.1,0.1,0.4v0.2
									c0.1,0,0,0.3,0.1,0.2c-0.1,0,0.1,0.6-0.1,0.5L29,38.8c0,0.1,0.1,0.4,0.2,0.6c0,0,0,0-0.1,0c0.2,0.3,0,0.4,0.1,0.8
									c0,0.1,0,0.4,0,0.5c-0.2-0.1-0.4-0.3-0.5-0.4c-0.2,0-0.4,0-0.7-0.3h0.1c-0.2-0.2-0.2-0.1-0.4-0.2c0,0-0.4-0.4-0.5-0.5
									c-0.2,0-0.2,0.1-0.2,0.2c-0.1-0.2-0.3-0.3-0.4-0.3s-0.3-0.1-0.3-0.2c0.1,0,0.3,0,0.2-0.1c0-0.3-0.4,0-0.6-0.3v0.2
									c0-0.2-0.4-0.1-0.3-0.3c-0.1,0-0.3-0.2-0.3,0c-0.3-0.4-1-0.5-1.1-0.9c-0.1,0-0.2-0.1-0.2,0s0.2,0,0.2,0.1h-0.1
									c-0.1-0.1-0.2-0.2,0-0.2c-0.2-0.3-0.4,0.1-0.7-0.1c0,0,0-0.1-0.1-0.1H23c-0.2-0.1,0-0.2,0-0.3c-0.1,0-0.3-0.1-0.4-0.1
									l-0.1-0.2c0,0.2-0.1,0-0.2,0h0.1c0-0.1-0.1-0.1-0.2-0.1c0,0.1,0.1,0.2,0.2,0.3c-0.1,0-0.2,0-0.3,0c0.1-0.1-0.1-0.2-0.2-0.3
									c-0.1-0.1-0.2,0-0.2,0c0-0.1-0.2-0.1,0-0.1c0,0,0,0.1,0.1,0.1c0-0.1,0-0.2-0.2-0.2c-0.1,0-0.1,0.2-0.3,0c0.1,0,0.1,0,0.2,0
									l-0.2-0.2l-0.1,0.1c0,0,0,0,0-0.1c-0.1,0.1-0.3-0.1-0.4,0c-0.1,0-0.2-0.2-0.3-0.3l0,0c-0.1-0.1-0.3-0.2-0.4-0.2l0,0
									c-0.1,0-0.2-0.1-0.3-0.1c-0.1-0.2,0.2-0.4-0.1-0.4c-0.2-0.1-0.4,0-0.3,0.1c-0.3-0.2-0.7-0.3-0.9-0.6c-0.1,0,0,0-0.1,0
									c-0.4-0.3-1-0.4-1.2-0.8c0.1,0,0.1-0.1,0.1-0.1c-0.1,0-0.1-0.2-0.2,0c0,0.1-0.1,0.1,0,0.2c-0.3-0.1-0.7-0.3-0.8-0.5
									c0,0.1,0,0.1-0.1,0.1c0.1-0.1-0.1-0.3-0.3-0.3l-0.1,0.1v-0.1c-0.1,0-0.2,0.1-0.3,0v-0.1c-0.2,0-0.5,0-0.6-0.2l-0.1-0.2
									c-0.1,0-0.2,0-0.1,0.1c-0.2-0.2-0.4-0.3-0.4-0.5c-0.6,0-1.3-0.4-1.8-0.7l0,0c-0.1-0.1-0.1,0.1-0.2,0c0.1,0,0-0.2,0.1-0.2
									c-0.2-0.2-0.3,0-0.5-0.1c-0.1,0.1,0.1,0,0,0.1c0,0-0.3-0.2-0.4-0.1c0-0.1,0.1-0.1,0.1-0.2h-0.2c-0.1-0.2,0.5-0.1,0.5-0.3
									h-0.1c0-0.2,0.4,0,0.1-0.2c-0.2,0-0.4,0.1-0.3,0.2c-0.3-0.1-0.3,0.2-0.6,0c0-0.1,0.2,0.1,0.2,0c-0.1-0.2-0.3-0.1-0.4-0.2
									c0.1,0.1-0.1,0.2-0.2,0.2c-0.1-0.1,0.2-0.1,0-0.2c-0.1,0-0.3,0-0.2,0.1c-0.2,0.1-0.2-0.2-0.4-0.1c0-0.1,0.4-0.1,0.2-0.3
									c0,0.1-0.4,0-0.3,0.2c-0.1-0.1,0-0.2,0.1-0.2c-0.1-0.1-0.4,0-0.3-0.2l-0.1,0.1c0-0.1-0.1-0.1-0.1-0.2
									c-0.1-0.1-0.5,0-0.3-0.2c0,0-0.3-0.2-0.3,0c0.1,0.2,0.2,0,0.2,0.2c0-0.2-0.2-0.1-0.4-0.1v-0.1c-0.1,0-0.2-0.1-0.3,0
									c0.1,0,0.1-0.1,0-0.1l0.2-0.2c-0.3-0.1,0-0.2-0.2-0.3h0.2c0,0-0.1-0.1-0.2-0.2c-0.1,0.1-0.2,0.1-0.3,0.2
									c-0.1,0,0-0.1-0.2-0.1h0.2c0,0,0-0.2-0.2-0.3c-0.1,0-0.4,0-0.2,0.2c-0.1,0-0.2-0.2-0.1-0.2c-0.2-0.1,0,0.1-0.2,0.1
									c0-0.1-0.2-0.3-0.3-0.5l0.3-0.1l-0.1-0.1c0.2,0,0-0.1,0.1-0.2C7.3,28,7.2,28,7.1,28c0.1,0.3-0.4,0.1-0.5,0.4
									c-0.3-0.1,0.1-0.6-0.4-0.5c0,0.1-0.2,0.1,0,0.2c-0.1-0.1-0.1,0-0.2,0s-0.2,0-0.4-0.2C6,28,5.5,27.6,5.9,27.7
									c-0.1,0,0.2,0.2,0.2,0.2c0-0.1,0.1-0.2-0.1-0.3c-0.2-0.1-0.4-0.2-0.5-0.1s0.3,0.1,0.1,0.2c-0.3-0.1-0.3-0.2-0.4-0.3
									c0-0.1,0-0.1-0.1-0.2c0,0.1,0,0.2,0,0.2c0.1,0.1,0,0.1,0,0.2l-0.2-0.1v-0.2H5c0.1-0.6-0.1-0.1-0.1-0.7l0.2-0.3
									C5.2,26.4,5,27.1,5.3,27c0-0.3-0.1-0.5,0-0.7c0,0,0,0.1,0,0.2c0-0.1,0.3-0.2,0.1-0.5c-0.1-0.1-0.1,0-0.2,0
									c0-0.3-0.1-0.4-0.1-0.6c0.2,0,0-0.4,0.2-0.1c-0.1,0.1-0.1,0.6,0.1,0.7c0.2-0.1,0,0.3,0.2,0.3C5.6,26,5.8,26,5.9,26
									c0-0.1,0-0.1-0.1-0.2c-0.1,0-0.1,0.1-0.3,0.1c0-0.3,0-0.6-0.1-0.7c0.1-0.1,0.2-0.1,0.2,0c0-0.3,0-0.7,0-1
									c-0.2,0.2,0-0.4-0.2-0.2c0,0.2-0.2,0.3-0.3,0.2c0-0.1,0.1,0,0.1,0c-0.1-0.1,0.2-0.2,0-0.4c0.1,0.3,0.2,0.1,0.4,0.1
									c-0.1-0.2,0.1,0,0.1-0.2c-0.1-0.2-0.2-0.5-0.2-0.8c0.1-0.3,0-0.8,0-1.1c0.1-0.1,0.3,0,0.3-0.2s-0.2,0.1-0.1-0.1l0,0
									c0-0.1,0.1-0.5-0.1-0.6L5.8,21v-0.1c0.1,0,0.1-0.1,0.2,0c0.1-0.2,0-0.4,0-0.5l-0.1,0.1c-0.1-0.3,0-0.5,0-0.8H6l-0.1-0.2
									c0.1,0,0.2-0.1,0.1-0.2l0.3,0.5c-0.1,0.1-0.1-0.1-0.2-0.1c-0.1,0.1-0.1,0.4,0,0.4c0-0.1,0-0.1,0-0.2c0.1,0,0.1,0.1,0.3,0.2
									c0-0.1,0-0.1,0-0.1c0.1,0.1,0.1,0.2,0.1,0.4c-0.1-0.1-0.1,0.1-0.1,0c0.1,0,0.2,0.2,0.1,0.4c-0.2,0.2,0.1,0.4,0.1,0.7
									c-0.1-0.1-0.3-0.3-0.3-0.4c-0.1,0.2,0,0.2-0.1,0.4c0.1,0.1,0.3,0.1,0.3,0.4H6.4c0,0.2,0.2,0.2,0.2,0.5c0,0.4,0,0.9-0.1,1.2
									H6.4c0.2,0.2,0.1,0.6,0.2,0.9c-0.1,0.4,0.1,0.9-0.1,1.1c0,0.3,0,0.5,0.1,0.8c0,0.3,0,0.4,0,0.5c0.1,0,0.2,0.1,0.3,0.2
									c0,0-0.1,0-0.2,0.1c0.2,0,0,0.1,0.1,0.1c-0.1-0.2,0.2,0,0.4-0.1c0.2,0.3,0.7,0.4,1,0.5v0.1c0.4,0,0.6,0.3,0.9,0.5
									c0,0.1,0,0.2,0.1,0.2c0.3,0,0.4,0,0.7,0.1c0.2,0.1,0.5,0.3,0.6,0.5c0.8,0.2,1.5,0.8,2.3,1.1v0.1c0.9,0.2,1.6,0.9,2.3,1.2
									l-0.2,0.1c0.2,0.2,0.5,0.2,0.5,0.1c0.2,0.2,0.5,0.2,0.6,0.4c0.2,0.1,0.3,0.1,0.5,0.1c0.4,0.3,0.5,0.4,0.9,0.5l-0.1-0.1
									c-0.1,0-0.1,0.1,0,0.1c0.2,0,0.5,0.4,0.5,0.1c0.3,0.4,1,0.4,1.3,0.8c0-0.1,0.1,0,0.2,0c0.4,0.2,0.7,0.5,1,0.6
									c0,0.1-0.1,0,0,0.1c0.1,0,0-0.1,0.2,0c0.6,0.2,1.1,0.8,1.6,1.1c1,0.4,1.9,1,2.8,1.5l0,0c0.4,0,0.6,0.6,1,0.5
									c0,0.1,0.3,0.2,0.2,0.2c0.3,0,0.6,0.5,1,0.5c0,0,0,0-0.1,0c0.2,0.3,0.2,0.1,0.4,0.3c0,0,0,0,0,0.1c0.1,0.2,0-0.2,0.2,0.1
									c0,0,0-0.2-0.1-0.2c0.1,0,0.1,0.1,0.2,0.1c0-0.1,0-0.3,0-0.5v-0.2c0,0,0-0.1,0-0.2v-0.3c0.1-0.7,0.4,0,0.2-0.6
									c0,0-0.1,0,0,0c-0.1-0.2,0.3-0.3,0.1-0.5c-0.1,0.1-0.1-0.1-0.2-0.1c0.1-0.4,0.2-0.5,0.1-0.8H28c-0.2-0.4-0.1-0.8-0.4-1.2
									c0-0.5,0-1,0-1.5v-0.7v-0.1l0,0l0,0l0,0h-0.1l0,0l-0.2-0.1l-0.8-0.4L25,30.5c-1.8-1.1-3.6-2-5.3-3.2
									c-0.3-0.4-0.4-0.4-0.9-0.6c0,0,0.1,0,0,0c-0.1,0.1-0.3-0.2-0.5-0.1c-0.7-0.4-1.3-0.7-2-1.1c0.1,0,0.2,0,0.1-0.1h-0.2l0,0
									c-0.1,0-0.2,0-0.2,0.1c-1.8-0.9-3.4-2.2-5.1-3.1c-0.4-0.3-1-0.6-1.4-0.8c-1.2-0.9-2.3-1.8-3.7-2.4
									C5.7,19.1,6.1,18.9,6.7,19.1z"/>
								<path class="st1" d="M6.4,19c-0.1,0-0.1,0.2-0.2,0.1C6.2,19,6.3,19,6.4,19z"/>
								<path class="st1" d="M5.5,23.6C5.6,23.7,5.5,23.7,5.5,23.6C5.5,23.7,5.4,23.6,5.5,23.6L5.5,23.6z"/>
								<path class="st1" d="M5.5,24.8c-0.1,0-0.1-0.3-0.1-0.4L5.5,24.8z"/>
								<path class="st1" d="M5.2,26C5.1,26.1,5.1,26,5.2,26C5.1,25.9,5.2,25.9,5.2,26z"/>
								<path class="st1" d="M5.4,26c0,0.1,0,0.1-0.1,0.2C5.3,26.2,5.2,26,5.4,26z"/>
								<path class="st1" d="M6.9,28.5c0,0,0.2,0,0.2,0.1C7.1,28.6,6.8,28.6,6.9,28.5z"/>
								<path class="st1" d="M7.9,29C8,29,8,29,7.9,29C8,29.1,8,29.1,7.9,29L7.9,29z"/>
								<polygon class="st1" points="25.8,39 25.6,38.9 25.7,38.9 								"/>
								<path class="st1" d="M28.8,33.4c0-0.1,0.1-0.1,0.1-0.1C28.9,33.4,28.8,33.3,28.8,33.4z"/>
								<polygon class="st1" points="26,29.8 26,29.8 25.9,29.9 								"/>
							</g>
						</g>
					</g>
				</g>
			</g>
			<g>
				<g>
					<g>
						<g>
							<g>
								<path class="st0" d="M24.3,34.3C24.3,34.3,24.4,34.3,24.3,34.3L24.3,34.3z"/>
								<path class="st0" d="M24.4,29.2c0.4,0.1,0,0.1,0.2,0.2h-0.2c0.3,0.1,0.1,0.2-0.1,0.2h-0.1h0.1h-0.1c0.1,0,0,0,0.1,0
									c0,0-0.1,0-0.2,0h0.1c0.3,0,0,0.1,0.1,0.1h-0.1c0.2,0,0.2,0.1,0.2,0.2c0,0-0.1,0-0.2,0c0.1,0,0.2,0,0.2,0c-0.1,0,0.1,0,0,0
									l0,0c0.1,0-0.1,0,0.1,0h-0.1c0.2,0-0.1,0,0,0l0,0l0,0l0,0c0,0-0.1,0,0.1,0c-0.1,0-0.1,0-0.2,0c0.2,0.1,0.1,0.2,0.1,0.2
									c-0.1,0-0.1,0-0.1,0s0,0,0.1,0h-0.1c-0.1,0,0.2,0,0.1,0h-0.1c0.1,0,0.1,0,0.1,0s0,0-0.1,0c0.1,0,0,0,0.1,0h-0.1
									c-0.1,0,0.2,0,0.1,0h-0.1c0.2,0,0.1,0,0.2,0.1l0,0c0,0,0,0,0,0.1h-0.2c0.2,0,0.1,0,0.3,0c0,0-0.1,0,0,0.1
									c-0.1,0-0.2,0-0.2,0h-0.1c-0.1,0,0,0-0.1,0c0,0,0.1,0,0,0c0.1,0,0.3,0,0.4,0c-0.1,0-0.2,0-0.2,0h0.4h-0.1h0.1c0,0,0,0-0.1,0
									s0,0-0.1,0h0.1l0,0c0,0,0.1,0,0.2,0h-0.1c0.1,0,0.1,0,0.1,0h-0.1c0.1,0,0.2,0,0.3,0.1c0.1,0-0.2,0-0.1,0
									c-0.1,0,0.2,0.1,0,0.1h0.1H25c-0.1,0,0,0,0,0l0,0c0.1,0,0.2,0.1,0.1,0.1h0.2h-0.1c-0.1,0,0,0-0.1,0c0.1,0-0.1-0.1,0,0
									c-0.1,0,0.2,0,0,0c0,0,0.1,0,0,0c0,0-0.2,0-0.1,0c0,0,0,0,0.1,0l0,0c0.1,0,0,0,0.1,0c-0.1,0,0.1,0-0.1,0H25c0,0,0.1,0,0.2,0
									c0,0,0,0-0.1,0c0.2,0,0,0,0.1,0c-0.1,0,0,0-0.1,0c0.1,0,0.1,0,0.1,0s0,0-0.1,0s0,0,0,0s-0.1,0-0.2,0c0.1,0,0.2,0,0.3,0
									c-0.2,0,0.1,0-0.1,0c0,0-0.1,0-0.2,0c-0.2,0,0.2,0,0.1,0h0.2c-0.1,0,0.1,0-0.1,0c0.1,0-0.1,0,0.1,0c-0.1,0,0.1,0.1-0.2,0.1
									c0,0,0,0,0.1,0s-0.1,0,0,0c0,0,0,0,0.1,0c0,0,0,0-0.2,0c-0.1,0,0.3,0,0.2,0c-0.1,0-0.1,0-0.1,0h0.1c0,0-0.2,0-0.3,0
									c0,0,0,0,0.1,0h-0.2c0.1,0,0.1,0,0.1,0l0,0l0,0c0.1,0,0.1,0,0.1,0s0,0,0.1,0c-0.1,0-0.1,0-0.1,0h0.1c-0.1,0,0,0-0.1,0
									c0,0,0.1,0,0,0c0,0-0.2,0-0.1,0s0.2,0,0.2,0H25h-0.1H25l0,0c0.1,0,0,0,0.2,0h-0.1l0,0c-0.1,0,0,0,0,0l0,0c0,0,0,0,0.1,0
									c-0.1,0-0.4,0-0.3,0c0,0,0.2,0,0.3,0c-0.1,0,0.1,0-0.1,0.1h0.1c0,0,0.1,0.1-0.1,0.1c0,0-0.1,0-0.2,0c0.1,0-0.1,0,0.1,0
									c0.1,0,0.1,0,0.2,0v0.1h0.1c-0.2,0-0.2,0-0.1,0h0.1h-0.1c0,0,0.2,0,0.1,0h-0.1c0.1,0,0.2,0,0.1,0h-0.1h0.1
									c-0.1,0-0.1,0-0.2,0c0.3,0,0.3,0.1,0.3,0.1h-0.1c-0.1,0,0.1,0,0.1,0c-0.1,0-0.1,0-0.2,0s0.1,0,0.2,0s-0.1,0,0.1,0
									c0,0-0.1,0,0.1,0c-0.1,0-0.2,0-0.2,0h0.1c-0.2,0-0.3,0-0.5,0l0,0c-0.1,0-0.2,0-0.2,0c0.1,0,0.3,0,0.4,0c0,0,0.4,0,0.3,0
									s0,0-0.1,0s0.1,0,0,0h0.2c-0.1,0-0.1,0-0.1,0c0.1,0,0.1,0,0.2,0c0.2,0,0,0,0.1,0c-0.1,0-0.3,0-0.4,0c0.1,0,0.2,0,0.4,0
									c0,0-0.1,0-0.2,0s0.2,0,0,0h0.1h-0.1c0,0,0.2,0,0,0c0,0,0,0,0.1,0s-0.1,0,0.1,0c-0.1,0,0,0,0.1,0h-0.3c0,0,0,0,0.1,0h-0.1
									h0.1c0.1,0-0.2,0-0.2,0h-0.1c0,0-0.1,0,0,0s0.2,0,0.3,0c0,0-0.1,0,0,0h-0.1h-0.2c0,0,0.2,0,0.3,0h-0.1c0,0,0.1,0,0.2,0
									c-0.1,0-0.2,0-0.3,0h-0.2l0,0c-0.1,0-0.1,0-0.3,0c0,0,0,0,0.1,0c0.2,0,0.3,0,0.5,0c0.1,0-0.5,0-0.2,0c0.1,0,0.2,0,0.2,0
									s0.2,0,0.1,0s-0.2,0-0.4,0c0.1,0,0.1,0,0,0s-0.2,0-0.2,0s0,0,0.1,0s0,0,0.1,0c0,0-0.1,0,0.1,0c0,0,0.1,0,0.2,0l0,0l0,0
									c-0.1,0,0.1,0,0.1,0h-0.2c-0.1,0,0.1,0-0.2,0c0,0,0.1,0,0,0l0,0c0,0-0.3,0-0.1,0c0.1,0,0.1,0,0.2,0h0.1c-0.2,0,0,0-0.2,0
									c0.1,0,0.1,0-0.1,0s0,0-0.2,0c0,0-0.2,0-0.3,0c0,0,0,0,0.1,0s0.1,0,0.3,0c0,0,0,0,0.1,0c-0.1,0-0.2,0-0.2,0s0,0,0,0.1
									c0.2,0,0,0,0.2,0c0,0,0.2,0,0.3,0h-0.1c0.1,0-0.2,0,0,0c-0.1,0-0.2,0-0.4,0c0.1,0-0.1,0-0.1,0c0.1,0,0.2,0,0.2,0.1
									c-0.1,0,0,0.1,0,0.1c-0.1,0-0.3,0-0.3,0s0.2,0,0.1,0l0,0c0,0-0.1,0,0.1,0h-0.2l0,0c-0.1,0-0.1,0-0.2,0s0,0,0,0h0.1
									c0.1,0,0,0,0,0.1h-0.1h0.1c-0.1,0-0.2,0-0.1,0h-0.3c0.1,0,0.1,0,0.2,0s0.1,0,0,0l0,0c-0.1,0-0.1,0-0.3,0l0,0
									c-0.1,0-0.1,0-0.1,0c0.1,0,0.1,0,0.1,0c-0.1,0-0.2,0-0.1,0c0.2,0-0.1,0-0.1,0c0.1,0,0.3,0,0.3,0c0.1,0,0,0,0.1,0
									c-0.1,0-0.3,0-0.3,0h0.1H24c0,0,0-0.1,0.1-0.1h0.1c-0.2,0-0.1,0-0.2-0.1c0.1,0-0.1-0.1,0.1-0.1C24,31.2,24,31.2,24,31.1h0.1
									c-0.1,0,0.1,0,0.1,0c-0.1,0-0.1,0-0.2,0c0.1,0,0-0.1-0.1-0.1H24c-0.2,0,0,0,0-0.1h0.1c-0.2,0-0.1,0-0.3,0c0,0,0,0,0.1-0.1
									c-0.2-0.1-0.1-0.1-0.2-0.2h0.1c-0.3-0.1,0-0.1-0.1-0.2h0.2c0.1,0,0,0-0.2,0c0.1,0-0.1,0,0.1,0h-0.1c0.1,0,0.1,0,0-0.1l0,0
									h0.1c-0.1,0,0,0-0.2,0c0.1,0-0.1-0.1,0.1-0.1c-0.1,0-0.1,0-0.1,0s0.1-0.1,0-0.1h0.1h-0.1c-0.1,0,0.1-0.1,0.1-0.1
									c-0.1-0.1-0.1-0.2-0.1-0.2l0,0c-0.2,0,0.2-0.1-0.1-0.1c0,0,0,0,0.1,0c-0.1,0,0.1-0.1,0-0.1l0,0c0.1,0,0-0.1,0.1-0.1
									c0,0,0,0,0.1,0s-0.2,0,0,0h-0.1c0.1-0.1-0.1-0.1-0.1-0.2c0.1,0,0.4,0,0.2,0c0,0-0.1,0,0,0c-0.1,0,0.3,0,0.1,0
									c-0.1,0-0.1,0-0.2,0c0.1,0,0.2,0,0.1-0.1h0.1c-0.2,0-0.1-0.1-0.4-0.1c0-0.2-0.2-0.3-0.2-0.5s-0.1-0.3,0.1-0.5
									c0.2,0,0.2,0,0.1-0.1c0,0,0,0,0.1,0c-0.2,0,0,0-0.2,0c0-0.1,0-0.1,0-0.2h0.1h-0.1l0,0c0,0-0.1,0-0.2,0
									c-0.1-0.1,0.2-0.3,0.1-0.5c0.1,0,0-0.1,0-0.1c0.2-0.1,0.4-0.2,0.2-0.3C23.9,29.2,24.3,29.2,24.4,29.2z"/>
								<path class="st0" d="M24.3,34.3c0.1,0,0.1,0,0.2,0C24.5,34.2,24.4,34.3,24.3,34.3z"/>
								<path class="st0" d="M25.1,33.9C25.1,33.9,25.2,33.9,25.1,33.9C25.2,33.9,25.3,33.9,25.1,33.9
									C25.2,33.9,25.2,33.9,25.1,33.9z"/>
								<path class="st0" d="M25.2,33.8c0.1,0,0.1,0,0.1,0H25.2z"/>
								<path class="st0" d="M25.5,33.7C25.5,33.7,25.6,33.7,25.5,33.7L25.5,33.7z"/>
								<path class="st0" d="M25.3,33.7C25.3,33.7,25.4,33.7,25.3,33.7C25.3,33.7,25.4,33.7,25.3,33.7z"/>
								<path class="st0" d="M25.5,33.5L25.5,33.5C25.5,33.5,25.6,33.5,25.5,33.5z"/>
								<path class="st0" d="M25.4,33.5L25.4,33.5C25.5,33.4,25.5,33.4,25.4,33.5L25.4,33.5z"/>
								<path class="st0" d="M25.1,31.9h0.1H25.1z"/>
								<path class="st0" d="M25.1,31.3C25.1,31.2,25.2,31.2,25.1,31.3C25.2,31.3,25.1,31.2,25.1,31.3z"/>
								<polygon class="st0" points="24.8,30.9 24.8,30.9 24.6,30.9 								"/>
							</g>
						</g>
					</g>
				</g>
			</g>
		</g>
		<g>
			<g>
				<polygon class="st0" points="17.1,12.1 6.1,18.5 28.3,31.3 39.3,24.9 				"/>
				<g>
					<g>
						<g>
							<g>
								<path class="st1" d="M17.1,12.5c0.2-0.2-0.2,0,0.1-0.1C17.2,12.4,17.2,12.5,17.1,12.5z"/>
								<path class="st1" d="M17.8,12.8c1,0.1,1.8,1,2.8,1.3c0.1,0-0.1,0.2,0.1,0.3c1,0.2,2.2,1.1,3.1,1.9h-0.1
									c0.2,0.1,0.5,0.1,0.7,0.3c0,0-0.1,0-0.1,0.1c0.1-0.1,0.4,0.2,0.5,0.1c0.1,0.1,0,0.2,0.1,0.3h0.2c0.5-0.1,0.8,0.5,1.3,0.6
									c0,0-0.1,0-0.1,0.1c0.8,0.2,1.7,0.8,2.5,1.2c-0.1,0-0.1,0.1-0.1,0.1c0.1-0.1,0.4,0,0.6,0.1c0,0.2,0.4,0.1,0.6,0.3l0,0
									c0.3,0,0.2,0.2,0.5,0.2l0.1,0.2c0.2-0.1,0.2,0.3,0.4,0.3l0,0c0.2,0,0.2,0.2,0.3,0.2l0,0c0.3,0.1,0.5,0.3,0.5,0.2
									c0,0.2-0.3-0.1-0.3,0.1c1.1,0.5,2.2,1.1,3.2,1.7c0.1,0.1,0.1,0.2,0.1,0.3c0.1,0,0.4,0.2,0.5,0.2c0,0,0,0.1,0.1,0.1
									c0.2,0.2,0.3,0,0.5,0.1c-0.1,0-0.2,0-0.2,0.1c0.2,0,0.5,0.1,0.7,0.2h-0.1c0.3,0,0.4,0.3,0.6,0.3h-0.1
									c0.3,0.3,0.2-0.1,0.4,0.1c-0.1,0-0.1,0-0.1,0.1c0.3,0,0.8,0.3,1.1,0.5l0,0c0.4,0.2,0.6,0.4,1.1,0.6c0,0.1-0.3,0-0.2,0.1
									c0,0-0.1,0-0.1,0.1c0.4,0-0.4,0.3,0.1,0.3c-0.4,0.2-0.9,0.4-1.1,0.6c0.1-0.1-0.3-0.1-0.1-0.2h-0.2c0-0.1,0.2-0.1,0-0.1
									c-0.1,0-0.3,0.3-0.4,0.3c-0.1,0.2-0.2,0.5-0.5,0.7c0.1-0.1-0.2-0.1-0.1-0.2l-0.3,0.6c-0.1,0.1-0.1-0.1-0.2,0
									c0,0,0,0.1,0,0.2c0,0-0.4,0.3-0.6,0.2c-0.1,0,0.1-0.1,0-0.1c-0.2,0.1-0.2,0.2-0.4,0.3l0,0c-0.1,0-0.3,0.3-0.1,0.3
									c0.1,0-0.1-0.1,0.1-0.1c0,0.1-0.3,0.3-0.5,0.4c0-0.1,0-0.1,0-0.2c-0.2,0.3-0.5,0.5-0.7,0.7c0,0.1,0-0.2,0.1-0.2
									c-0.4,0.1-0.7,0.6-1.1,0.6l0.1,0.1c-0.2,0.1-0.2,0-0.3,0.1c0-0.1-0.1,0.1-0.3,0.2c0,0.1,0,0,0-0.1c-0.1,0.1-0.8,0.6-1.2,0.8
									c0,0-0.1,0.3-0.2,0.3v-0.1c-0.1,0-0.3,0.2-0.4,0.1c-0.1,0.2,0.7-0.5,0.5-0.3c-0.1,0-0.3,0.4-0.3,0.2
									c-0.2,0.1-0.3,0.3-0.5,0.3c0.1,0,0.1-0.2-0.1-0.1c-0.3,0.2,0,0.1-0.2,0.2l-0.1,0.1c0,0.1-0.2,0.1-0.1,0.2
									c-0.1-0.1-0.4,0.3-0.4,0.1v-0.1c-0.1,0.1-0.1,0.2-0.2,0.3h-0.1c0.1,0.2-0.2,0.1-0.4,0.4c-0.2,0.1-0.4,0.2-0.6,0.3
									c-0.2-0.1-0.4-0.3-0.5-0.4c-0.1,0-0.3-0.1-0.4-0.1s-0.2-0.1-0.3-0.2H27c-0.1-0.1-0.2-0.1-0.3-0.1c0,0-0.2-0.3-0.3-0.4
									c-0.2,0-0.2,0.1-0.3,0.1c0-0.3-0.6-0.2-0.7-0.5c0.1,0,0.3,0.1,0.2-0.1c0-0.3-0.4,0-0.6-0.3v0.2c-0.1-0.2-0.4-0.1-0.3-0.3
									c-0.1,0-0.3-0.2-0.3-0.1c-0.4-0.4-1.1-0.5-1.2-1c-0.1,0-0.2-0.1-0.2,0s0.2,0,0.2,0.1c-0.1,0-0.1,0-0.1,0
									c-0.1-0.1-0.2-0.2,0-0.2c-0.2-0.3-0.5,0.1-0.8-0.2c0,0,0-0.1-0.1-0.1h-0.3c-0.2-0.2-0.1-0.2,0-0.3c-0.1-0.1-0.3-0.2-0.4-0.1
									l-0.1-0.2c0.1,0.2-0.1,0-0.2,0h0.1c0-0.1-0.2-0.1-0.3-0.1c0,0.1,0.1,0.2,0.2,0.3c-0.1,0-0.2-0.1-0.3-0.1
									c0.1-0.1-0.2-0.2-0.3-0.3c-0.1-0.1-0.2,0-0.2,0c0-0.1-0.2-0.1,0-0.1c0,0,0.1,0.1,0.2,0.1c-0.1-0.1,0-0.2-0.2-0.2
									c-0.1,0-0.1,0.2-0.3,0c0.1,0,0.1,0,0.2,0l-0.2-0.2L20,27.6c0,0,0,0,0-0.1c-0.1,0.1-0.4-0.2-0.5-0.1c-0.1,0-0.2-0.2-0.3-0.3
									l0,0c-0.1-0.1-0.3-0.2-0.4-0.2l0,0c-0.1,0-0.2-0.1-0.4-0.1c-0.1-0.2,0.1-0.4-0.1-0.4c-0.2-0.1-0.4,0-0.4,0.1
									c-0.3-0.3-0.8-0.3-1-0.6c-0.1,0,0,0-0.2,0c-0.5-0.3-1.1-0.5-1.4-0.9c0.2,0,0.1-0.1,0.1-0.1c-0.2,0-0.1-0.2-0.2,0
									c0,0.1-0.1,0.1,0,0.2c-0.3-0.1-0.8-0.4-0.9-0.5c0.1,0.1,0,0.1-0.1,0.1c0.1-0.1-0.1-0.3-0.3-0.3l-0.1,0.1v-0.1
									c-0.1,0-0.2,0.1-0.3,0v-0.1c-0.2,0-0.5,0-0.6-0.2l-0.1-0.2c-0.1,0-0.3,0-0.1,0.1c-0.3-0.3-0.5-0.4-0.5-0.5
									c-0.7,0-1.4-0.5-2-0.8l0,0c-0.1-0.1-0.1,0.1-0.2,0c0.1,0,0-0.2,0.1-0.2c-0.2-0.2-0.4-0.1-0.5-0.1c-0.1,0.1,0.1,0,0.1,0.1
									c0,0-0.3-0.3-0.4-0.1c0-0.1,0.1-0.1,0.1-0.2H9.2c-0.1-0.3,0.5,0,0.5-0.3l-0.1-0.1c0-0.2,0.4,0,0.1-0.2
									c-0.2,0-0.4,0.1-0.3,0.2c-0.3-0.1-0.3,0.2-0.6,0c0-0.1,0.3,0.1,0.3,0c-0.1-0.2-0.3-0.1-0.5-0.2c0.1,0.1-0.1,0.2-0.2,0.2
									c-0.1-0.1,0.2-0.1,0-0.2c-0.1,0-0.3,0-0.2,0.1C8,21.8,8,21.5,7.8,21.6c0-0.2,0.4-0.1,0.2-0.3c0,0.1-0.4,0-0.4,0.2
									c-0.1-0.1,0-0.2,0.1-0.2c-0.1-0.1-0.5,0-0.4-0.2l-0.1,0.1c0-0.1-0.1-0.1-0.1-0.2c-0.2-0.1-0.8-0.3-0.6-0.4
									c-0.1,0-0.5-0.3-0.5-0.1c0.2,0.2,0.5,0.1,0.5,0.4c-0.1-0.2-0.5-0.3-0.7-0.4l0.1-0.1c-0.1,0-0.4-0.2-0.6-0.2
									c0.1,0,0.2,0,0.1-0.1H5.1c-0.6-0.3,0.2-0.1-0.3-0.4l0.5,0.2c-0.1,0-0.1-0.1-0.3-0.2c-0.3,0-0.6-0.1-0.9-0.1
									C4,19.6,4,19.5,4,19.5c0.1,0,0.2,0,0.2-0.1v0.1l0.2,0.1c0,0,0.1,0,0.1-0.1c0.2,0,0.4-0.1,0.6-0.2c0.1-0.1,0.2-0.3-0.2-0.1
									c0.2-0.1,0.5-0.2,0.5-0.1c0.3-0.2-0.2,0,0-0.2c0.2-0.1,0.8-0.3,1.1-0.3c0,0.1-0.1,0.2-0.1,0.3l0.2-0.1
									c-0.1,0.2,0.2,0,0.3,0.1c0.1,0,0.2-0.1,0.3-0.2c-0.3,0-0.3-0.1-0.2-0.2c0.1-0.1,0.2-0.3,0.1-0.4c0.3-0.2,0.4-0.1,0.5,0
									c0.1,0,0.2,0.1,0.3-0.2c-0.1,0,0-0.3-0.2-0.1c0.2-0.1,0-0.3,0.3-0.3c-0.1,0.2,0.3,0.1,0.1,0.4c0-0.1-0.2,0-0.2,0.1
									C8,18,8,18.2,8.2,18.1c0.1-0.1,0.3-0.2,0.2-0.3c-0.1-0.1-0.2,0.1-0.2,0c0.2-0.2,0.4,0,0.4-0.3c-0.2,0.1-0.3,0-0.3,0l0.2-0.2
									v0.1c0.3-0.1,0-0.2,0.3-0.3L9,17.2c0,0.2-0.5,0.2-0.3,0.4c0.2-0.1,0.2-0.2,0.4-0.3L9,17.4c0.1,0,0.3,0.2,0.5-0.1
									c0.1-0.1,0-0.1,0-0.2c0.3-0.2,0.4-0.3,0.5-0.5c0,0.2,0.4-0.2,0.2,0.1c-0.1,0-0.6,0.2-0.6,0.5c0.2,0.1-0.3,0.1-0.2,0.3
									c0.3-0.1,0.3,0,0.5,0.1c0.1,0,0.1-0.1,0.1-0.2s-0.1-0.1-0.2-0.2c0.3-0.1,0.5-0.4,0.6-0.5c0.1,0,0.2,0.1,0,0.2
									c0.3-0.2,0.7-0.4,1-0.6c-0.3,0,0.3-0.3,0.1-0.3c-0.2,0.1-0.4,0-0.4-0.1c0.1,0,0,0.1,0.1,0.1c0.1-0.2,0.3,0,0.3-0.2
									c-0.3,0.2,0.1,0.2,0.1,0.4c0.2-0.2,0,0.1,0.3,0c0.2-0.2,0.4-0.4,0.6-0.6c0.4,0,0.8-0.5,1-0.6c0.2,0,0.2,0.2,0.3,0.1
									c0.2-0.1-0.2-0.1,0.1-0.2l0,0c0.1-0.1,0.5-0.2,0.5-0.5v0.2c0.1,0,0.1-0.1,0.1-0.1l0.1,0.1c0.2,0,0.3-0.2,0.5-0.3h-0.2
									c0.3-0.3,0.5-0.3,0.8-0.5v0.1l0.1-0.2c0,0.1,0.2,0.1,0.3,0l-0.3,0.5c-0.2,0,0.1-0.2-0.1-0.3c-0.1,0-0.4,0.1-0.4,0.3
									c0.1,0,0.1-0.1,0.2-0.2c0.1,0.1,0,0.2-0.1,0.3c0,0,0.2,0,0.1-0.1c-0.1,0.1-0.2,0.2-0.4,0.3c0.1-0.1-0.1,0-0.1-0.1
									c0,0.1-0.1,0.3-0.3,0.4c-0.2,0-0.4,0.3-0.6,0.4c0-0.2,0.1-0.4,0.3-0.5c-0.2,0-0.2,0.1-0.4,0.1c0,0.1,0,0.3-0.2,0.5l-0.1-0.1
									c-0.2,0.2-0.1,0.3-0.4,0.4c-0.5,0.2-0.9,0.5-1.2,0.6L12,16.1c-0.1,0.3-0.6,0.4-0.8,0.6c-0.5,0.1-0.8,0.6-1.1,0.6
									c-0.7,0.5-1.3,0.9-2,1.3v-0.2c-0.1,0.2-0.1,0-0.3,0.1c0.2,0-0.1,0.2-0.1,0.4C7.5,19,7.4,19,7.3,19.1s-0.1,0.2-0.1,0.2H7.1
									c0.1,0.1-0.1,0.2-0.4,0.3c0,0,0,0.1,0.1,0.1c0,0-0.2,0.1-0.1,0.1c0.4,0,0.4,0.1,0.7,0.1c0.1,0.1,0.2,0.2,0.5,0.4
									c0.9,0.3,1.7,0.9,2.6,1.3v0.1c1,0.3,1.8,1,2.6,1.3l-0.2,0.1c0.2,0.2,0.5,0.2,0.5,0.1c0.2,0.2,0.6,0.2,0.7,0.5
									c0.2,0.2,0.3,0.1,0.5,0.2c0.4,0.3,0.6,0.4,1,0.6l-0.1-0.1c-0.1,0-0.1,0.1,0,0.2c0.2,0,0.6,0.4,0.5,0.1
									c0.4,0.4,1.1,0.5,1.5,0.9c0-0.1,0.1,0,0.2,0c0.4,0.2,0.8,0.6,1.1,0.7c0,0.1-0.2,0,0,0.1c0.1,0,0-0.1,0.2,0
									c0.7,0.3,1.2,0.9,1.9,1.2c1.1,0.5,2.2,1.2,3.2,1.7l0,0c0.4,0,0.7,0.6,1.1,0.5c0.1,0.1,0.3,0.2,0.2,0.2
									c0.3,0,0.7,0.5,1.1,0.6h-0.1c0.3,0.3,0.8,0.4,1.1,0.7c0,0-0.1,0-0.2,0c0.1,0.2,0.5,0.1,0.4,0.3c0,0,0.1-0.1,0-0.1
									c0,0,0.1,0.1,0.2,0.1s0.1-0.1,0.2-0.1l0.6-0.4c0.4-0.3,0.8-0.5,1.1-0.8c0.7-0.3,0.2,0.3,0.7-0.1c0.1,0,0-0.1,0-0.1
									c0.2-0.2,0.5,0,0.5-0.1c-0.1-0.1,0-0.1,0-0.2c0.5-0.2,0.6-0.1,0.9-0.4v0.1c0.3-0.4,0.8-0.6,1-1c0.9-0.6,1.9-1.1,2.8-1.7
									l0.7-0.4c0.2-0.1,0.5-0.3,0.5-0.3s0,0,0-0.1l0,0l0,0l0,0l-0.4-0.2L35,24.9c-1-0.6-2-1.2-3-1.8c-0.4-0.5-0.4-0.5-1-0.7
									c0,0,0.1,0,0,0c-0.1,0.1-0.4-0.2-0.5-0.1c-0.7-0.5-1.5-0.8-2.2-1.3c0.1,0.1,0.3,0,0.1-0.1h-0.2l0,0c-0.1,0-0.3,0-0.2,0.1
									c-2-1-3.8-2.4-5.7-3.5c-0.4-0.3-1.1-0.6-1.6-0.9c-1.4-1-2.6-2-4.1-2.7C16.8,12.8,17.2,12.5,17.8,12.8z"/>
								<path class="st1" d="M16.8,12.7c-0.1,0-0.3,0-0.2-0.1C16.7,12.6,16.8,12.6,16.8,12.7z"/>
								<path class="st1" d="M11.8,14.6h-0.1l0.1-0.1C11.8,14.5,11.8,14.5,11.8,14.6z"/>
								<path class="st1" d="M10.6,15.2c0-0.1,0.2-0.3,0.3-0.4L10.6,15.2z"/>
								<path class="st1" d="M9.4,15.5c-0.1,0-0.1,0,0-0.1C9.5,15.5,9.4,15.5,9.4,15.5z"/>
								<path class="st1" d="M9.4,15.7c-0.1,0-0.2,0-0.2,0C9.2,15.8,9.4,15.6,9.4,15.7z"/>
								<path class="st1" d="M6.7,17.1c-0.1,0.1-0.3,0.2-0.5,0.2C6.4,17.3,6.7,16.9,6.7,17.1z"/>
								<path class="st1" d="M4.9,18.3c-0.1,0-0.1,0-0.2,0.1c-0.2,0.1-0.2,0-0.1-0.1H4.9z"/>
								<polygon class="st1" points="25.5,30.3 25.4,30.3 25.4,30.2 								"/>
								<path class="st1" d="M34.8,28.2c0.1-0.1,0.1,0,0.1,0C34.8,28.3,34.9,28.1,34.8,28.2z"/>
								<polygon class="st1" points="39.6,25 39.5,25 39.2,25 								"/>
							</g>
						</g>
					</g>
				</g>
			</g>
			<g>
				<line class="st2" x1="31.9" y1="29.2" x2="9.7" y2="16.4"/>
				<g>
					<g>
						<g>
							<g>
								<path class="st3" d="M31.8,29.4C31.9,29.4,31.8,29.3,31.8,29.4L31.8,29.4z"/>
								<path class="st3" d="M9.9,16.7c0.5-0.2,0.6,0.4,1,0.3c0,0-0.1,0.2,0,0.2c0.4-0.1,0.8,0.3,1,0.7l0,0c0,0.1,0.2,0,0.3,0
									c0,0,0,0-0.1,0.1c0.1-0.1,0.1,0,0.2,0c0,0.1,0,0.1,0,0.2l0.1-0.1c0.3-0.2,0.3,0.2,0.5,0.1c0,0,0,0,0,0.1
									c0.3,0,0.6,0.2,0.9,0.3c0,0-0.1,0.1-0.1,0.2c0.1-0.1,0.2-0.1,0.3-0.1c0,0.1,0.2,0,0.2,0.1l0,0c0.1-0.1,0,0.1,0.2,0v0.1
									c0.1-0.2,0,0.1,0.1,0.1l0,0c0.1,0,0,0.1,0.1,0.1l0,0c0.1,0,0.1,0.1,0.2,0c0,0.1-0.1,0-0.2,0.2c0.4,0.1,0.8,0.3,1.1,0.5
									c0,0.1,0,0.1,0,0.2c0,0,0.1,0,0.2,0v0.1c0,0.1,0.2-0.1,0.2,0L16,20.2c0.1-0.1,0.2,0,0.3,0c0,0,0,0-0.1,0.1
									c0.1-0.1,0.1,0.1,0.2,0.1l-0.1,0.1c0,0.2,0.1-0.1,0.2,0c0,0,0,0-0.1,0.1c0.2-0.1,0.3,0,0.4,0l0,0c0.1,0,0.2,0.1,0.3,0.1
									c0,0.1-0.1,0.2,0,0.2c0.1-0.2,0.2,0,0.3-0.2c0.1,0.1,0.2,0.2,0.3,0.2c-0.1,0-0.1,0.2-0.1,0.2v0.1c0,0.1,0,0-0.1,0
									c0,0,0.2,0,0.2,0.1c0.1-0.1,0.3-0.2,0.4-0.2c-0.1,0-0.1,0.2-0.1,0.2l0.3-0.2c0,0-0.1,0.1,0,0.1l0.1-0.1c0,0,0.2,0,0.1,0.2
									c0,0.1-0.1,0-0.1,0.1c0.1,0,0.1,0,0.2,0l0,0c0,0,0.2,0,0.2-0.1c0,0,0,0.1-0.1,0c0.1-0.1,0.2-0.1,0.2,0l-0.1,0.1
									c0.2-0.1,0.3-0.1,0.4,0c0-0.1-0.1,0.1-0.1,0.1c0.1,0.2,0.4,0,0.4,0.2v-0.1c0.1,0,0,0.1,0,0.1c0,0.1,0.1,0,0.1,0l0,0
									c0.1,0,0.4,0,0.5,0.2l0.2-0.1l-0.1,0.1c0,0.1,0.1,0,0.1,0.1c0.1-0.1-0.3,0-0.2-0.1c0,0.1,0.2-0.1,0.1,0c0.1,0,0.2,0,0.2,0.1
									l-0.1,0.1c0.1,0,0,0,0.1,0h0.1c0.1-0.1,0.1,0.1,0.1-0.1c0,0.1,0.1,0,0,0.2l-0.1,0.1c0,0,0.1-0.1,0.2-0.1c0,0,0,0,0,0.1
									c0.1-0.2,0.1,0.1,0.2-0.1c0,0.1,0.2,0.1,0.2,0.3c0.1,0,0.2-0.1,0.2,0c0,0,0,0-0.1,0c0,0.1,0,0,0.1,0c0,0,0,0.2,0,0.3
									c0.1,0,0.1-0.1,0.2-0.2c0,0.2,0.2,0,0.2,0.2c0,0-0.1,0-0.1,0.1c0,0.2,0.2-0.1,0.2,0.1l0.1-0.2c0,0.1,0.2,0,0.1,0.1
									c0.1,0,0.1,0.1,0.1,0c0.1,0.2,0.4,0.1,0.3,0.5h0.1c0-0.1-0.1,0-0.1,0s0,0,0.1,0c0,0.1,0,0.1-0.1,0.2c0,0.1,0.3-0.2,0.4-0.1
									c0,0.1,0,0.1,0,0.1l0.1-0.1c0.1,0.1,0,0.2-0.1,0.3c0,0,0.1,0,0.2,0V24c0-0.1,0.1,0,0.1-0.1l0,0c0,0,0,0,0.1,0
									c0-0.1,0-0.1,0-0.2h0.1c-0.1,0.1,0,0.1,0.1,0.1l0.1-0.1c0,0.1,0.1,0,0,0.1c0,0,0-0.1,0,0s-0.1,0.1,0,0.1s0.1-0.2,0.1-0.1
									c0,0-0.1,0-0.1,0.1V24l0.1-0.1l0,0c0.1-0.1,0.1,0,0.2-0.1c0,0,0,0.1,0.1,0.1l0,0c0,0.1,0.1,0.1,0.2,0l0,0h0.1
									c0,0.1-0.2,0.4,0,0.3c0.1,0,0.2-0.1,0.2-0.2c0.1,0.1,0.3,0,0.3,0.3c0,0,0-0.1,0.1-0.1c0.1,0.1,0.4,0.1,0.4,0.3
									c-0.1,0-0.1,0.1-0.1,0.1c0.1-0.1,0,0.1,0.1,0c0-0.1,0.1-0.1,0-0.2c0.1,0,0.3,0.1,0.3,0.2c0-0.1,0-0.1,0.1-0.1
									c-0.1,0.1,0,0.2,0,0.2l0.1-0.1v0.1c0,0,0.1-0.2,0.1,0v0.1c0.1,0,0.2-0.1,0.3,0v0.1c0,0,0.1,0,0.1-0.1
									c0.1,0.1,0.1,0.2,0.1,0.3c0.3-0.2,0.6,0,0.8,0.1v0.1c0,0.1,0.1-0.1,0.1,0c0,0,0,0.2-0.1,0.2c0,0.1,0.2,0,0.2,0
									c0.1-0.1-0.1,0,0-0.1c0,0,0.1,0.1,0.2,0c0,0.1-0.1,0.1-0.1,0.2h0.1c0,0.2-0.3,0.2-0.3,0.4h0.1c0,0.2-0.2,0.1-0.1,0.2
									c0.1,0,0.2-0.2,0.2-0.3c0.1,0,0.2-0.3,0.3-0.2c0,0.1-0.1,0-0.1,0.1s0.1,0,0.2,0.1c0-0.1,0.1-0.2,0.1-0.2
									c0,0.1-0.1,0.1,0,0.2c0-0.1,0.2-0.1,0.1-0.2c0.1-0.1,0,0.1,0.2,0c0,0.1-0.2,0.2-0.2,0.3c0-0.1,0.2-0.1,0.2-0.3
									c0,0,0,0.1-0.1,0.2c0,0.1,0.2-0.1,0.1,0.1l0.1-0.1c0,0,0,0.1,0,0.2c0,0,0.2-0.1,0.1,0.1c0,0,0.1,0,0.1-0.1s-0.1,0-0.1-0.1
									c0,0.2,0.1,0,0.2,0v0.1h0.1c0,0-0.1,0.1,0,0.1l0.1-0.1c0.1,0-0.1,0.2,0,0.2h-0.1v0.1c0.1-0.1,0.2-0.2,0.2-0.2
									c0.1,0,0,0.1,0.1,0l-0.1,0.1v0.2c0.1,0,0.2-0.1,0.2-0.2v0.1c0.1,0,0-0.1,0.1-0.1c0,0.1,0,0.2,0,0.3l-0.1,0.1l0,0
									c-0.1,0.1,0,0.1-0.1,0.2h0.1c0-0.3,0.3-0.2,0.4-0.4c0.1,0-0.2,0.5,0.1,0.3c0-0.1,0.1-0.2,0-0.2c0.1,0.1,0.2-0.2,0.2,0
									c-0.1,0,0,0.2-0.2,0.3c0-0.1,0-0.1,0-0.1c0,0.1-0.1,0.2,0,0.2c0,0,0.1,0,0.2-0.1s-0.1,0,0-0.1c0.1,0,0,0.2,0.2,0
									c-0.1,0,0-0.1,0-0.2h0.1v0.1c0.1,0.1,0.1-0.1,0.2,0v0.2c-0.1,0.1-0.1-0.1-0.2,0.1c0.1,0,0.1,0,0.2,0c0,0,0,0-0.1,0
									c0,0-0.1,0.3,0.1,0.2c0.1,0,0-0.1,0.1-0.1s0.2,0,0.3,0c-0.1,0.1,0.1,0.1,0,0.2c0-0.1-0.1-0.2-0.3-0.1
									c-0.1,0.2-0.1-0.1-0.2,0.1c0.1,0,0,0.2-0.1,0.3h0.1c0.1-0.1,0-0.1,0.1-0.2c0.1,0.1,0.2,0.1,0.3,0c0,0.1-0.1,0.2-0.1,0.2
									c0.1,0,0.2,0.1,0.3,0.2c0-0.2,0.1,0,0.2-0.1c0-0.1,0-0.2,0.1-0.3v0.1c0.1-0.1,0,0.2,0.1,0.1c-0.1,0-0.1,0.2-0.2,0.3
									c0.1,0-0.1,0.1,0,0.1s0.2,0,0.3,0c0,0.2,0.3,0.1,0.4,0.2c0,0.1-0.1,0.2-0.1,0.3c0.1,0,0-0.2,0.1-0.1l0,0c0,0,0.1,0.2,0.3,0
									l-0.1,0.1c0,0,0,0,0.1,0c0,0,0,0.1-0.1,0.1c0,0.1,0.1,0,0.2,0.1v-0.1c0.1,0,0.2,0.1,0.3,0.1l-0.1,0.1h0.1
									c-0.1,0.1,0,0.2,0,0.1L32.1,29c0-0.1,0.1-0.1,0.1-0.2s-0.1-0.1-0.1,0c0,0,0,0,0.1,0c-0.1,0.1-0.1,0.1-0.2,0.2c0,0,0,0.1,0,0
									c-0.1,0-0.1,0-0.2,0c0.1,0,0-0.1,0.1-0.1c-0.1,0.1-0.1,0.1-0.2,0c0-0.2-0.2,0-0.3-0.1c0.1-0.1,0.2-0.2,0.3-0.2
									c0-0.1-0.1,0-0.1-0.1c-0.1,0.1-0.2,0.2-0.3,0.2v-0.1c-0.1,0-0.2,0.1-0.2,0.1c-0.1-0.1-0.3-0.2-0.4-0.3v-0.1
									c-0.2,0.1-0.2,0-0.4,0c-0.1-0.2-0.4-0.1-0.3-0.3c-0.3-0.1-0.5-0.1-0.8-0.3l0.1-0.1c-0.1,0.1,0-0.1,0-0.1
									c0,0.1-0.1,0.1-0.2,0.2c0-0.2-0.3-0.1-0.4-0.1v-0.1c-0.2,0.1-0.2-0.1-0.3-0.2v-0.1c-0.1,0.1-0.2,0.1-0.3,0.1
									c-0.1,0-0.2-0.1-0.2-0.2c-0.4,0-0.6-0.3-1-0.3v-0.1c-0.4,0.1-0.6-0.3-0.9-0.4l0.1-0.2c0-0.1-0.2,0-0.3,0.1
									c0-0.1-0.2,0-0.2-0.2c-0.1-0.1-0.1,0-0.2,0c-0.1-0.1-0.2-0.2-0.3-0.2l0,0c0,0,0.1-0.1,0-0.1s-0.2-0.2-0.2,0.1
									c-0.1-0.2-0.4-0.1-0.5-0.4c0,0.1-0.1,0-0.1,0.1c-0.1-0.1-0.2-0.3-0.4-0.2c0,0,0.1-0.1,0-0.1c0,0,0,0.1-0.1,0.1
									c-0.3,0-0.4-0.4-0.6-0.5c-0.4-0.1-0.8-0.4-1.1-0.5l0,0c-0.2,0.1-0.2-0.3-0.4-0.1c0-0.1-0.1-0.1,0-0.1
									c-0.2,0.1-0.2-0.3-0.4-0.2l0,0c-0.1-0.2-0.3-0.1-0.4-0.3H21c0-0.1-0.2,0.1-0.1-0.1l-0.1,0.1c-0.3-0.3-0.6-0.3-1-0.4
									c-0.1-0.3,0.2-0.4-0.1-0.3c0,0-0.1,0.1,0,0c-0.1,0,0-0.3-0.1-0.2c0,0.1-0.1,0-0.1,0.1c-0.1-0.2,0-0.3-0.2-0.3v-0.1
									c-0.2,0.1-0.3-0.1-0.6,0.1c-0.7-0.4-1.5-0.6-2.2-1c-0.6-0.4-1.4-0.7-2-1.2C14.4,20,14.4,20,14.2,20c0,0,0,0,0-0.1
									C14.1,20,14.1,19.8,14,20c-0.2-0.2-0.5-0.3-0.8-0.4l0.1-0.1l-0.1,0.1l0,0c0,0-0.1,0-0.1,0.1c-0.7-0.3-1.2-0.9-1.9-1.3
									c-0.1-0.1-0.4-0.2-0.5-0.3c-0.4-0.5-0.7-0.9-1.3-1C9.4,17,9.6,16.6,9.9,16.7z"/>
								<path class="st3" d="M31.6,29.3c0-0.1,0-0.1,0.1-0.2C31.7,29.2,31.7,29.3,31.6,29.3z"/>
								<path class="st3" d="M30.6,27.7C30.5,27.8,30.5,27.7,30.6,27.7C30.6,27.7,30.6,27.6,30.6,27.7L30.6,27.7z"/>
								<path class="st3" d="M30.2,27.5c0-0.1,0.1-0.1,0.2,0H30.2z"/>
								<path class="st3" d="M30,27C30,26.9,30,26.9,30,27L30,27z"/>
								<path class="st3" d="M29.9,27.1V27C29.8,27.1,29.9,27,29.9,27.1z"/>
								<path class="st3" d="M29.2,26.5C29.2,26.5,29.1,26.5,29.2,26.5C29.1,26.5,29.2,26.4,29.2,26.5z"/>
								<path class="st3" d="M28.8,26.4C28.7,26.4,28.7,26.3,28.8,26.4C28.7,26.3,28.8,26.3,28.8,26.4L28.8,26.4z"/>
								<polygon class="st3" points="21.9,22.8 22,22.8 22,22.8 								"/>
								<path class="st3" d="M19,21.1C19,21.1,19,21,19,21.1C19.1,21,19,21.1,19,21.1z"/>
								<polygon class="st3" points="17.3,20.5 17.3,20.5 17.2,20.6 								"/>
							</g>
						</g>
					</g>
				</g>
			</g>
			<g>
				<line class="st2" x1="35.6" y1="27.1" x2="13.4" y2="14.2"/>
				<g>
					<g>
						<g>
							<g>
								<path class="st3" d="M35.4,27.3C35.5,27.3,35.4,27.1,35.4,27.3C35.5,27.3,35.4,27.3,35.4,27.3z"/>
								<path class="st3" d="M13.6,14.6c0.5-0.2,0.6,0.4,1,0.3c0,0-0.1,0.2,0,0.2c0.4-0.1,0.8,0.3,1,0.7l0,0c0,0.1,0.2,0,0.3,0
									c0,0,0,0-0.1,0.1c0.1-0.1,0.1,0,0.2,0c0,0.1,0,0.1,0,0.2l0.1-0.1c0.3-0.2,0.3,0.2,0.5,0.1c0,0,0,0,0,0.1
									c0.3,0,0.6,0.2,0.9,0.3c0,0-0.1,0.1-0.1,0.2c0.1-0.1,0.2-0.1,0.3-0.1c0,0.1,0.2,0,0.2,0.1l0,0c0.1-0.1,0,0.1,0.2,0v0.1
									c0.1-0.2,0,0.1,0.1,0.1l0,0c0.1,0,0,0.1,0.1,0.1l0,0c0.1,0,0.1,0.1,0.2,0c0,0.1-0.1,0-0.2,0.2c0.4,0.1,0.8,0.3,1.1,0.5
									c0,0.1,0,0.1,0,0.2c0,0,0.1,0,0.2,0V18c0,0.1,0.2-0.1,0.2,0l-0.1,0.1c0.1-0.1,0.2,0,0.3,0c0,0,0,0-0.1,0.1
									c0.1-0.1,0.1,0.1,0.2,0.1L20,18.4c0,0.2,0.1-0.1,0.2,0c0,0,0,0-0.1,0.1c0.2-0.1,0.3,0,0.4,0l0,0c0.1,0,0.2,0.1,0.3,0.1
									c0,0.1-0.1,0.2,0,0.2c0.1-0.2,0.2,0,0.3-0.2c0.1,0.1,0.2,0.2,0.3,0.2c-0.1,0-0.1,0.2-0.1,0.2v0.1c0,0.1,0,0-0.1,0
									c0,0,0.2,0,0.2,0.1c0.1-0.1,0.3-0.2,0.4-0.2c-0.1,0-0.1,0.2-0.1,0.2L22,19c0,0-0.1,0.1,0,0.1l0.1-0.1c0,0,0.2,0,0.1,0.2
									c0,0.1-0.1,0-0.1,0.1c0.1,0,0.1,0,0.2,0l0,0c0,0,0.2,0,0.2-0.1c0,0,0,0.1-0.1,0c0.1-0.1,0.2-0.1,0.2,0l-0.1,0.1
									c0.2-0.1,0.3-0.1,0.4,0c0-0.1-0.1,0.1-0.1,0.1c0.1,0.2,0.4,0,0.4,0.2v-0.1c0.1,0,0,0.1,0,0.1c0,0.1,0.1,0,0.1,0l0,0
									c0.1,0,0.4,0,0.5,0.2l0.2-0.1l-0.1,0.1c0,0.1,0.1,0,0.1,0.1c0.1-0.1-0.3,0-0.2-0.1c0,0.1,0.2-0.1,0.1,0c0.1,0,0.2,0,0.2,0.1
									L24,20c0.1,0,0,0,0.1,0h0.1c0.1-0.1,0.1,0.1,0.1-0.1c0,0.1,0.1,0,0,0.2l-0.1,0.1c0,0,0.1-0.1,0.2-0.1c0,0,0,0,0,0.1
									c0.1-0.2,0.1,0.1,0.2-0.1c0,0.1,0.2,0.1,0.2,0.3c0.1,0,0.2-0.1,0.2,0c0,0,0,0-0.1,0c0,0.1,0,0,0.1,0c0,0,0,0.2,0,0.3
									c0.1,0,0.1-0.1,0.2-0.2c-0.1,0.2,0.2,0,0.2,0.2c0,0-0.1,0-0.1,0.1c0,0.2,0.2-0.1,0.2,0.1l0.1-0.2c0,0.1,0.2,0,0.1,0.1
									c0.1,0,0.1,0.1,0.1,0c0.1,0.2,0.4,0.1,0.3,0.5h0.1c0-0.1-0.1,0-0.1,0s0,0,0.1,0c0,0.1,0,0.1-0.1,0.2c0,0.1,0.3-0.2,0.4-0.1
									c0,0.1,0,0.1,0,0.1l0.1-0.1c0.1,0.1,0,0.2-0.1,0.3c0,0,0.1,0,0.2,0v0.2c0-0.1,0.1,0,0.1-0.1l0,0c0,0,0,0,0.1,0
									c0-0.1,0-0.1,0-0.2H27c-0.1,0.1,0,0.1,0.1,0.1l0.1-0.1c0,0.1,0.1,0,0,0.1c0,0,0-0.1,0,0s-0.1,0.1,0,0.1s0.1-0.2,0.1-0.1
									c0,0-0.1,0-0.1,0.1v0.1l0.1-0.1l0,0c0.1-0.1,0.1,0,0.2-0.1c0,0,0,0.1,0.1,0.1l0,0c0,0.1,0.1,0.1,0.2,0l0,0h0.1
									c0,0.1-0.2,0.4,0,0.3c0.1,0,0.2-0.1,0.2-0.2c0.1,0.1,0.3,0,0.3,0.3c0,0,0-0.1,0.1-0.1c0.1,0.1,0.4,0.1,0.4,0.3
									c-0.1,0-0.1,0.1-0.1,0.1c0.1-0.1,0,0.1,0.1,0c0-0.1,0.1-0.1,0-0.2c0.1,0,0.3,0.1,0.3,0.2c0-0.1,0-0.1,0.1-0.1
									c-0.1,0.1,0,0.2,0,0.2l0.1-0.1v0.1c0,0,0.1-0.2,0.1,0v0.1c0.1,0,0.2-0.1,0.3,0v0.1c0,0,0.1,0,0.1-0.1C30,22.8,30,22.9,30,23
									c0.3-0.2,0.6,0,0.8,0.1v0.1c0,0.1,0.1-0.1,0.1,0c0,0,0,0.2-0.1,0.2c0,0.1,0.2,0,0.2,0c0.1-0.1-0.1,0,0-0.1
									c0,0,0.1,0.1,0.2,0c0,0.1-0.1,0.1-0.1,0.2h0.1c0,0.2-0.3,0.2-0.3,0.4H31c0,0.2-0.2,0.1-0.1,0.2c0.1,0,0.2-0.2,0.2-0.3
									c0.1,0,0.2-0.3,0.3-0.2c0,0.1-0.1,0-0.1,0.1s0.1,0,0.2,0.1c0-0.1,0.1-0.2,0.1-0.2c0,0.1-0.1,0.1,0,0.2
									c0-0.1,0.2-0.1,0.1-0.2c0.1-0.1,0,0.1,0.2,0c0,0.1-0.2,0.2-0.2,0.3c0-0.1,0.2-0.1,0.2-0.3c0,0,0,0.1-0.1,0.2
									c0,0.1,0.2-0.1,0.1,0.1l0.1-0.1c0,0,0,0.1,0,0.2c0,0,0.2-0.1,0.1,0.1c0,0,0.1,0,0.1-0.1s-0.1,0-0.1-0.1c0,0.2,0.1,0,0.2,0
									V24h0.1c0,0-0.1,0.1,0,0.1l0.1-0.1c0.1,0-0.1,0.2,0,0.2h-0.1v0.1c0.1-0.1,0.2-0.2,0.2-0.2c0.1,0,0,0.1,0.1,0l-0.1,0.1v0.2
									c0.1,0,0.2-0.1,0.2-0.2v0.1c0.1,0,0-0.1,0.1-0.1c0,0.1,0,0.2,0,0.3l-0.1,0.1l0,0c-0.1,0.1,0,0.1-0.1,0.2h0.1
									c0-0.3,0.3-0.2,0.4-0.4c0.1,0-0.2,0.5,0.1,0.3c0-0.1,0.1-0.2,0-0.2c0.1,0.1,0.2-0.2,0.2,0c-0.1,0,0,0.2-0.2,0.3
									c0-0.1,0-0.1,0-0.1c0,0.1-0.1,0.2,0,0.2c0,0,0.1,0,0.2-0.1s-0.1,0,0-0.1c0.1,0,0,0.2,0.2,0c-0.1,0,0-0.1,0-0.2h0.1v0.1
									c0.1,0.1,0.1-0.1,0.2,0v0.2c-0.1,0.1-0.1-0.1-0.2,0.1c0.1,0,0.1,0,0.2,0c0,0,0,0-0.1,0c0,0-0.1,0.3,0.1,0.2
									c0.1,0,0-0.1,0.1-0.1s0.2,0,0.3,0c-0.1,0.1,0.1,0.1,0,0.2c0-0.1-0.1-0.2-0.3-0.1C34,25.3,34,25,33.9,25.2
									c0.1,0,0,0.2-0.1,0.3h0.1c0.1-0.1,0-0.1,0.1-0.2c0.1,0.1,0.2,0.1,0.3,0c0,0.1-0.1,0.2-0.1,0.2c0.1,0,0.2,0.1,0.3,0.2
									c0-0.2,0.1,0,0.2-0.1c0-0.1,0-0.2,0.1-0.3v0.1c0.1-0.1,0,0.2,0.1,0.1c-0.1,0-0.1,0.2-0.2,0.3c0.1,0-0.1,0.1,0,0.1
									s0.2,0,0.3,0c0,0.2,0.3,0.1,0.4,0.2c0,0.1-0.1,0.2-0.1,0.3c0.1,0,0-0.2,0.1-0.1l0,0c0,0,0.1,0.2,0.3,0l-0.1,0.1
									c0,0,0,0,0.1,0c0,0,0,0.1-0.1,0.1c0,0.1,0.1,0,0.2,0.1v-0.1c0.1,0,0.2,0.1,0.3,0.1L36,26.7h0.1c-0.1,0.1,0,0.2,0,0.1
									l-0.3,0.1c0-0.1,0.1-0.1,0.1-0.2s-0.1-0.1-0.1,0c0,0,0,0,0.1,0c-0.1,0.1-0.1,0.1-0.2,0.2c0,0,0,0.1,0,0c-0.1,0-0.1,0-0.2,0
									c0.1,0,0-0.1,0.1-0.1c-0.1,0.1-0.1,0.1-0.2,0c0-0.2-0.2,0-0.3-0.1c0.1-0.1,0.2-0.2,0.3-0.2c0-0.1-0.1,0-0.1-0.1
									c-0.1,0.1-0.2,0.2-0.3,0.2v-0.1c-0.1,0-0.2,0.1-0.2,0.1c-0.1-0.1-0.3-0.2-0.4-0.3v-0.1c-0.2,0.1-0.2,0-0.4,0
									c-0.1-0.2-0.4-0.1-0.3-0.3c-0.3-0.1-0.5-0.1-0.8-0.3l0.1-0.1c-0.1,0.1,0-0.1,0-0.1c0,0.1-0.1,0.1-0.2,0.2
									c0-0.2-0.3-0.1-0.4-0.1v-0.1c-0.2,0.1-0.2-0.1-0.3-0.2v-0.1c-0.1,0.1-0.2,0.1-0.3,0.1c-0.1,0-0.2-0.1-0.2-0.2
									c-0.4,0-0.6-0.3-1-0.3v-0.1c-0.4,0.1-0.6-0.3-0.9-0.4l0.1-0.2c0-0.1-0.2,0-0.3,0.1c0-0.1-0.2,0-0.2-0.2
									c-0.1-0.1-0.1,0-0.2,0c-0.1-0.1-0.2-0.2-0.3-0.2l0,0c0,0,0.1-0.1,0-0.1s-0.2-0.2-0.2,0.1c-0.1-0.2-0.4-0.1-0.5-0.4
									c0,0.1-0.1,0-0.1,0.1c-0.1-0.1-0.2-0.3-0.4-0.2c0,0,0.1-0.1,0-0.1c0,0,0,0.1-0.1,0.1c-0.3,0-0.4-0.4-0.6-0.5
									c-0.4-0.1-0.8-0.4-1.1-0.5l0,0c-0.2,0.1-0.2-0.3-0.4-0.1c0-0.1-0.1-0.1,0-0.1c-0.2,0.1-0.2-0.3-0.4-0.2l0,0
									c-0.1-0.2-0.3-0.1-0.4-0.3h0.1c0-0.1-0.2,0.1-0.1-0.1l-0.1,0.1c-0.3-0.3-0.6-0.3-1-0.4c-0.1-0.3,0.2-0.4-0.1-0.3
									c0,0-0.1,0.1,0,0c-0.1,0,0-0.3-0.1-0.2c0,0.1-0.1,0-0.1,0.1c-0.1-0.2,0-0.3-0.2-0.3v-0.1c-0.2,0.1-0.3-0.1-0.6,0.1
									c-0.7-0.4-1.5-0.6-2.2-1c-0.6-0.4-1.4-0.7-2-1.2c-0.1-0.3-0.1-0.3-0.3-0.3c0,0,0,0,0-0.1c-0.1,0.1-0.1-0.1-0.2,0.1
									c-0.2-0.2-0.5-0.3-0.8-0.4l0.1-0.1l-0.1,0.1l0,0c0,0-0.1,0-0.1,0.1c-0.7-0.3-1.2-0.9-1.9-1.3c-0.1-0.1-0.4-0.2-0.5-0.3
									c-0.4-0.5-0.7-0.9-1.3-1C13,14.8,13.3,14.5,13.6,14.6z"/>
								<path class="st3" d="M35.3,27.2c0-0.1,0-0.1,0.1-0.2C35.4,27.1,35.4,27.2,35.3,27.2z"/>
								<path class="st3" d="M34.2,25.6L34.2,25.6C34.2,25.6,34.3,25.5,34.2,25.6C34.3,25.6,34.2,25.6,34.2,25.6z"/>
								<path class="st3" d="M33.9,25.4c0-0.1,0.1-0.1,0.2,0H33.9z"/>
								<path class="st3" d="M33.6,24.9C33.6,24.8,33.7,24.8,33.6,24.9C33.7,24.8,33.7,24.9,33.6,24.9z"/>
								<path class="st3" d="M33.5,25v-0.1C33.5,25,33.6,24.9,33.5,25z"/>
								<path class="st3" d="M32.9,24.4C32.8,24.4,32.8,24.4,32.9,24.4C32.8,24.4,32.9,24.3,32.9,24.4z"/>
								<path class="st3" d="M32.4,24.3C32.4,24.2,32.4,24.2,32.4,24.3C32.4,24.2,32.4,24.2,32.4,24.3L32.4,24.3z"/>
								<path class="st3" d="M25.6,20.7h0.1H25.6z"/>
								<path class="st3" d="M22.7,19C22.6,19,22.7,18.9,22.7,19C22.7,18.9,22.6,19,22.7,19z"/>
								<polygon class="st3" points="20.9,18.4 20.9,18.4 20.9,18.5 								"/>
							</g>
						</g>
					</g>
				</g>
			</g>
		</g>
	</g>
	<g>
		<g>
			<g>
				<defs>
					<polygon id="SVGID_1_" points="35.7,22.8 40.6,25.6 40.5,9.6 28,3.5 2.8,18.6 3,28.4 20.8,39.2 					"/>
				</defs>
				<clipPath id="SVGID_2_">
					<use xlink:href="#SVGID_1_"  style="overflow:visible;"/>
				</clipPath>
				<g class="st4">
					<g>
						<polygon class="st0" points="39.4,24.9 39.4,12.2 20.9,22.8 20.9,35.5 24.6,33.4 24.6,29.2 35.7,22.8 35.7,27 						"/>
						<g>
							<g>
								<g>
									<g>
										<path class="st1" d="M39.1,24.7c0,0.3,0.1-0.1,0.1,0.2C39.1,24.8,39,24.8,39.1,24.7z"/>
										<path class="st1" d="M38.5,25.2c-0.3,0.4-0.8,0.6-1.2,0.9c-0.5,0.3-0.9,0.4-1.4,0.9c-0.1,0.1,0.2-0.4,0-0.1l0,0
											c-0.1-0.2-0.2-0.9-0.1-1.6c0-0.6,0.1-1.3,0.3-2.1h0.1c0-0.3-0.1-0.4-0.1-0.6l0,0c0-0.1,0.1-0.1,0.1-0.2
											c-0.2,0.2-0.5,0.4-0.6,0.5c-0.1,0,0-0.2-0.1-0.1l-0.2,0.3c-0.2,0.3-0.4,0.4-0.6,0.5S34.2,23.8,34,24v-0.1
											c-0.6,0.6-1.5,1.1-2.3,1.6c0-0.1,0-0.1-0.1-0.2c0,0.1-0.2,0.3-0.4,0.5c-0.2-0.1-0.3,0.3-0.6,0.4l0,0
											c-0.1,0.2-0.3,0.1-0.4,0.3H30c0,0.2-0.3,0.1-0.4,0.2l0,0c-0.1,0.1-0.3,0.1-0.4,0.2l0,0c-0.3,0.2-0.5,0.2-0.4,0.4
											c-0.2,0,0.3-0.2,0-0.3c-1,0.7-2,1.3-3.1,1.9c-0.1,0-0.2,0-0.3,0C25.3,29,25,29.2,25,29.3c0,0-0.1,0-0.2,0l0,0
											c0,0.2,0.2,0.3,0.1,0.5c0-0.1-0.1-0.1-0.1-0.1c0.1,0.2,0.1,0.5,0.1,0.7c0,0,0-0.1-0.1-0.1c0.1,0.3,0,0.5,0.1,0.7l-0.1-0.1
											c-0.1,0.4,0.2,0.1,0.1,0.4c0-0.1-0.1,0-0.1-0.1c0.2,0.3,0.1,0.8,0.2,1.1l0,0c0,0.3,0,0.6,0,1.1c0,0.1-0.1,0-0.2,0
											c0,0-0.1,0-0.2,0.1c0.2,0.1-0.5,0.4-0.2,0.4c-0.3,0.1-0.7,0.3-0.9,0.5c0.1-0.1-0.2-0.1,0-0.3h-0.2c0-0.1,0.2-0.1,0.1-0.1
											c-0.1,0.1-0.4,0.3-0.5,0.3c-0.1,0.2-0.2,0.5-0.6,0.8c0.2-0.2-0.1-0.2,0-0.3c-0.1,0.2-0.3,0.5-0.5,0.7
											c-0.1,0.1,0-0.2-0.2,0c0,0.1-0.1,0.1-0.2,0.3c0,0-0.6,0.4-0.5,0.1c0-0.1,0.2-0.2,0.2-0.2H21c0-0.1-0.1-0.1-0.1-0.3l0,0
											c0-0.2-0.1-0.4-0.2-0.1c0,0.1,0.1-0.2,0.1,0.1c-0.1,0-0.1-0.3-0.1-0.6c0,0.1,0.1,0,0.1,0c-0.1-0.3-0.2-0.8-0.3-1.2
											c-0.1,0,0.2,0.1,0.1,0.2c0.1-0.5-0.2-0.9,0-1.3c0,0.1-0.1,0-0.1,0c0-0.2,0.1-0.2,0.1-0.3c0.1,0,0-0.2,0-0.3
											c0-0.1,0,0,0,0.1c-0.1-0.2-0.2-1-0.1-1.4c0,0-0.2-0.3-0.2-0.4h0.1c0.1-0.1,0-0.4,0.1-0.4c-0.1-0.2,0.1,0.9,0,0.6
											c0.1-0.1-0.2-0.4,0-0.4c0-0.2-0.1-0.4,0-0.6c0,0.1,0.2,0.2,0.1,0c0-0.3,0-0.1-0.1-0.3V29c-0.1,0,0-0.3-0.1-0.2
											c0.1,0-0.1-0.4,0.1-0.4h0.1c0-0.1-0.1-0.2-0.2-0.3c0,0,0,0,0.1,0c-0.2,0,0-0.3-0.1-0.5c0.1-0.3,0-0.7,0.1-0.8
											c-0.1-0.2-0.1-0.4-0.1-0.6c0,0,0,0.1,0.1,0.1c0.1-0.1,0-0.2,0-0.3c0,0,0.1-0.3,0.2-0.5c-0.1-0.2-0.2-0.1-0.3-0.2
											c0.2-0.2-0.1-0.6,0.1-0.8c0,0.1,0.1,0.3,0.2,0.1c0.2-0.2-0.2-0.4-0.1-0.7L20.4,24c0.1-0.1-0.1-0.5,0.1-0.4
											c-0.1-0.1,0.1-0.5-0.1-0.5c0-0.2,0-0.4,0-0.6c0.3-0.2,0.6-0.4,0.8-0.5c0.2-0.1,0.4-0.1,0.5-0.1c0-0.1,0.2-0.1,0.1-0.2
											c-0.1,0-0.1,0.1-0.2,0.1v-0.1c0.2,0,0.3-0.1,0.2,0.1c0.4-0.1,0.2-0.4,0.6-0.6c0,0.1,0.1,0.1,0.2,0l0.1-0.2
											c0.3-0.1,0.2,0.1,0.3,0.2c0.1-0.1,0.3-0.2,0.3-0.3h0.2c-0.2,0,0.1-0.1,0.1-0.2v0.1c0,0,0.2-0.1,0.3-0.1
											c-0.1-0.1-0.2,0-0.3,0c0-0.1,0.1-0.1,0.2-0.2c0,0.1,0.3,0,0.4-0.1c0.1,0,0.1-0.2,0.1-0.2s0.2-0.1,0.1,0c0,0-0.1,0-0.2,0.1
											c0.1,0,0.1,0.1,0.3-0.1c0.1-0.1-0.1-0.2,0.1-0.3c0,0.1,0,0.1-0.1,0.2l0.3-0.1v-0.1l0,0c0-0.1,0.3-0.2,0.3-0.4
											c0.1-0.1,0.3-0.1,0.4-0.1l0,0c0.2,0,0.3-0.1,0.4-0.3l0,0c0.1,0,0.2-0.1,0.3-0.3c0.2,0,0.3,0.3,0.4,0.1
											c0.2-0.1,0.2-0.3,0.1-0.4c0.4-0.1,0.6-0.5,1-0.5c0-0.1,0-0.1,0.1-0.1c0.5-0.2,0.9-0.7,1.4-0.7c-0.1,0.1,0,0.1,0.1,0.2
											c0.1-0.1,0.2,0,0.1-0.2c-0.1-0.1-0.1-0.1-0.2-0.1c0.3-0.2,0.7-0.5,0.9-0.5c-0.1,0-0.1-0.1,0-0.1c0.1,0.1,0.3,0,0.4-0.1
											v-0.1h0.1c0-0.1,0-0.2,0.2-0.2l0.1,0.1c0.1-0.2,0.3-0.4,0.5-0.5h0.2c0.1-0.1,0.1-0.2,0-0.2c0.4-0.1,0.5-0.2,0.7-0.1
											c0.4-0.6,1.1-1,1.8-1.4v0.1c0.2,0,0-0.2,0.2-0.2c0,0.1,0.2,0.1,0.1,0.2c0.3-0.1,0.2-0.3,0.4-0.4c0-0.1-0.1,0.1-0.1,0
											c0,0,0.4-0.1,0.3-0.3c0.1,0,0.1,0.1,0.1,0.2l0.1-0.1c0.3,0-0.3,0.5,0,0.6l0.1-0.1c0.2,0.1-0.3,0.4,0.1,0.2
											c0.1-0.1,0.1-0.4,0-0.4c0.3-0.2,0-0.4,0.3-0.6c0.1,0-0.3,0.2-0.1,0.2c0.2,0,0.3-0.2,0.4-0.3c-0.2,0-0.1-0.2,0-0.2
											c0.2,0,0,0.2,0.2,0.1c0-0.1,0.2-0.3,0-0.2c0-0.2,0.3-0.1,0.3-0.3c0.1,0.1-0.1,0.4,0.2,0.3c-0.1-0.1,0.2-0.3,0-0.4
											c0.1,0,0.2,0.1,0.1,0.2c0.2,0,0.2-0.4,0.4-0.2v-0.1c0.1,0,0.1,0,0.3,0c0.2-0.1,0.6-0.6,0.6-0.4c0.1-0.1,0.5-0.3,0.4-0.4
											c-0.3,0.1-0.3,0.3-0.5,0.2c0.3,0,0.5-0.3,0.7-0.5v0.1c0.1-0.1,0.4-0.2,0.5-0.4c-0.1,0.1-0.1,0.1,0,0.1l0.2-0.2
											c0.5-0.4,0,0.2,0.5-0.1L39.5,11c0.1-0.1,0.1,0,0.4-0.1c0.1-0.2,0.4-0.5,0.6-0.7c0.1-0.1,0.1-0.1,0.1-0.1
											c0,0.1-0.1,0.2,0,0.3l-0.1-0.1l-0.1,0.1v0.1c0,0.2-0.1,0.4-0.1,0.6c0,0.1,0.2,0.4,0.3-0.1c0,0.2-0.1,0.5-0.1,0.5
											c0,0.4,0.1-0.2,0.2,0.1c-0.1,0.2-0.2,0.8-0.3,1.1c-0.1-0.1-0.1-0.2-0.2-0.2v0.2c-0.1-0.2-0.1,0.2-0.3,0.1
											c0,0.1,0,0.3,0.1,0.4c0.1-0.2,0.2-0.2,0.3,0c0.1,0.1,0.2,0.4,0.3,0.3c0,0.4-0.1,0.4-0.2,0.4c-0.1,0.1-0.2,0.1,0,0.3
											c0.1-0.1,0.2,0.1,0.2-0.1c0,0.2,0.2,0.2,0.1,0.5c-0.1-0.2-0.2,0.2-0.4-0.1c0.1,0,0.1-0.2,0-0.2c-0.1,0.1-0.2,0-0.2,0.2
											c0,0.1,0,0.4,0.1,0.3c0.1,0,0-0.2,0.1-0.1c0,0.3-0.1,0.4,0.1,0.5c0-0.2,0.1-0.2,0.2-0.2v0.2h-0.1
											c-0.1,0.4,0.1,0.1,0.1,0.5l-0.2,0.2c-0.1-0.1,0.1-0.5-0.2-0.4c0,0.2,0.1,0.3,0,0.5c0,0,0-0.1,0-0.2c0,0.1-0.3,0.2-0.1,0.5
											c0.1,0.2,0.1,0,0.2,0c0,0.4,0.1,0.5,0.1,0.7c-0.2,0,0,0.4-0.2,0.1c0.1-0.1,0.1-0.6-0.1-0.8c-0.2,0.1,0-0.3-0.2-0.4
											c0,0.3-0.2,0.3-0.3,0.3c0,0.1,0,0.2,0.1,0.2s0.1-0.1,0.3-0.1c0,0.3,0,0.6,0.1,0.8c-0.1,0.1-0.2,0.1-0.2,0
											c0,0.4,0,0.8,0,1.2c0.2-0.2,0,0.4,0.2,0.3c0-0.2,0.2-0.4,0.3-0.3c0,0.1-0.1,0-0.1,0c0.1,0.2-0.2,0.2,0,0.4
											c-0.1-0.4-0.2-0.1-0.4-0.1c0.1,0.3-0.1,0-0.1,0.2c0.1,0.3,0.2,0.6,0.2,0.9c-0.1,0.4,0,0.9,0,1.2c-0.1,0.2-0.3,0-0.3,0.2
											s0.2-0.2,0.1,0.2l0,0c0,0.1-0.1,0.6,0.1,0.7l-0.2-0.1c0,0.1,0,0.1,0,0.2c-0.1,0-0.1,0.1-0.2,0c-0.1,0.2,0,0.4,0,0.6
											l0.1-0.1c0.1,0.4,0,0.6,0,0.9h-0.1l0.1,0.2c-0.1,0-0.2,0.1-0.1,0.3l-0.3-0.5c0.1-0.1,0.1,0.2,0.2,0.1s0.1-0.4,0-0.5
											c0,0.1,0,0.1,0,0.2c-0.1,0-0.1-0.1-0.3-0.2c0,0.1,0,0.2,0,0.2C39,23.2,39,23,39,22.8c0.1,0.1,0.1-0.1,0.1,0
											c-0.1,0-0.2-0.2-0.1-0.5c0.2-0.2-0.1-0.5-0.1-0.8c0.1,0.1,0.3,0.3,0.3,0.5c0.1-0.2,0-0.2,0.1-0.4
											c-0.1-0.1-0.3-0.2-0.3-0.4h0.1c0-0.2-0.2-0.2-0.2-0.5c0-0.5,0-1,0.1-1.4h0.1c-0.2-0.2-0.1-0.7-0.2-1
											c0.1-0.5-0.1-1,0.1-1.3c-0.1-0.8-0.1-1.6-0.1-2.4l0.1,0.1c-0.1-0.2,0.1-0.1,0.1-0.3c-0.1,0.2-0.1-0.2-0.2-0.3
											c0.1-0.2,0-0.4,0-0.5s-0.1-0.2-0.1-0.2l0.1-0.1c-0.1,0-0.1-0.2,0-0.4h-0.1c0,0,0-0.2-0.1-0.1c-0.2,0.3-0.3,0.3-0.4,0.5
											c-0.1,0.1-0.2,0.1-0.5,0.2c-0.7,0.7-1.6,1-2.4,1.6L35.3,15c-0.7,0.7-1.8,1.1-2.5,1.6v-0.2c-0.3,0.1-0.5,0.3-0.4,0.4
											c-0.3,0.1-0.5,0.4-0.7,0.3c-0.2,0.1-0.2,0.2-0.4,0.4c-0.5,0.2-0.6,0.3-1,0.6h0.1c0-0.1,0-0.1-0.1-0.1
											c-0.1,0.1-0.6,0.3-0.3,0.4c-0.5,0.1-1,0.7-1.5,0.8c0.1,0,0,0.1-0.1,0.2c-0.4,0.2-0.9,0.4-1.1,0.6c-0.1,0,0-0.2-0.1-0.1
											s0,0.1-0.1,0.2c-0.6,0.5-1.4,0.6-1.9,1c-1,0.7-2.1,1.3-3.1,1.9l0,0c-0.1,0.1,0,0.1-0.1,0.1h-0.1c0,0,0,0.1,0.1,0.1
											c0-0.1,0,0.3-0.1,0.2c0.1,0.3-0.1,0.9,0,1.3v-0.1c-0.1,0.5,0,0.9-0.1,1.3c0,0,0-0.1-0.1-0.1c-0.1,0.2,0.2,0.4,0,0.5
											c0,0.1,0.1,0.1,0.1,0c-0.1,1,0.1,2.1,0.1,3.2c-0.1,0.8-0.4,0-0.2,0.7c0,0,0.1,0,0,0c0.1,0.2-0.3,0.4-0.1,0.5
											c0.1-0.1,0.1,0.1,0.2,0.1c-0.1,0.5-0.2,0.6-0.1,0.9h-0.1c0.2,0.4,0.1,1,0.4,1.3v0.3c0,0.1,0,0.1,0,0.1v0.1
											c0,0.1,0,0.1,0,0.1l0.2-0.1l0,0l0,0l0.2-0.1l0.9-0.6l0.2-0.1c0.1,0,0.2-0.1,0.1-0.1l0,0l0,0c0-0.6,0-1.2,0-1.8v-2.4
											c0.7-0.4,1.3-0.8,2-1.1c0.5-0.3,1-0.5,1.5-0.8c0.6-0.1,0.6-0.1,1.1-0.5v0.1c-0.1-0.2,0.4-0.2,0.3-0.4
											c0.8-0.4,1.5-0.9,2.2-1.3c-0.1,0.1-0.1,0.2,0,0.1l0.1-0.2l0,0c0.1-0.1,0.2-0.2,0-0.2c0.7-0.5,1.4-0.9,2.1-1.3l0.6-0.3
											l1-0.6c0.7-0.4,1.3-0.7,2-1.1c0,1.1,0,2.2,0,3.3c-0.1,1,0,0.8,0,0.9s-0.1,0.1-0.1,0.2c0,0,0.1,0,0.2,0h0.1h0.1l0.2-0.1
											c0.6-0.3,1.2-0.7,1.9-1.1C39,24.3,39,24.7,38.5,25.2z"/>
										<path class="st1" d="M39.1,24.4c0.1-0.1,0.1-0.3,0.2-0.1C39.2,24.3,39.1,24.4,39.1,24.4z"/>
										<path class="st1" d="M39.9,19.1C39.9,19.1,40,19,39.9,19.1C40,19.1,40,19.1,39.9,19.1C40,19.1,40,19.1,39.9,19.1z"/>
										<path class="st1" d="M40,17.8c0.1,0,0.1,0.3,0.1,0.5L40,17.8z"/>
										<path class="st1" d="M40.3,16.5C40.3,16.4,40.4,16.4,40.3,16.5C40.3,16.6,40.3,16.5,40.3,16.5z"/>
										<path class="st1" d="M40.1,16.4c0-0.1,0-0.2,0.1-0.2C40.1,16.2,40.2,16.4,40.1,16.4z"/>
										<path class="st1" d="M40.3,13.4c0-0.1-0.1-0.4,0-0.5C40.3,13,40.4,13.5,40.3,13.4z"/>
										<path class="st1" d="M40.2,11.2c0-0.1,0-0.1,0-0.2c0-0.2,0.1-0.1,0.1,0L40.2,11.2z"/>
										<polygon class="st1" points="20.3,24.2 20.3,24.1 20.4,24.1 										"/>
										<path class="st1" d="M20.3,34.6c0,0.2-0.1,0.2-0.1,0.2C20.2,34.6,20.4,34.8,20.3,34.6z"/>
										<polygon class="st1" points="24.6,33.6 24.6,33.6 24.5,33.5 										"/>
									</g>
								</g>
							</g>
						</g>
					</g>
					<g>
						<g>
							<polygon class="st0" points="9.8,16.4 9.8,29.1 20.9,35.5 20.9,22.8 							"/>
							<g>
								<g>
									<g>
										<g>
											<path class="st1" d="M10.1,16.5c0-0.2-0.1,0.1-0.1-0.1C10.1,16.4,10.1,16.5,10.1,16.5z"/>
											<path class="st1" d="M10.2,16.9c0.7,0,1.2,0.7,1.9,0.8c0.1,0-0.1,0.2,0,0.2c0.7,0.1,1.5,0.7,2,1.3H14
												c0.1,0.1,0.4,0,0.5,0.1c0,0-0.1,0-0.1,0.1c0.1-0.1,0.3,0.1,0.4,0c0,0.1,0,0.1,0,0.2l0.1-0.1c0.4-0.1,0.5,0.3,0.9,0.4
												c0,0-0.1,0-0.1,0.1c0.6,0.1,1.1,0.5,1.7,0.7c0,0-0.1,0.1-0.1,0.2c0.1-0.1,0.3,0,0.4,0c0,0.2,0.3,0,0.4,0.2l0,0
												c0.2-0.1,0.1,0.2,0.3,0.1v0.1c0.2-0.1,0.1,0.2,0.3,0.2l0,0c0.1,0,0.1,0.1,0.2,0.1l0,0c0.2,0.1,0.3,0.2,0.4,0.1
												c0,0.1-0.2-0.1-0.2,0.2c0.5,0.2,1,0.4,1.5,0.7c0,0.3,0,0.6,0,0.9c-0.1,0.1-0.1,0.1-0.1,0.2s0,0.3,0.1,0.4
												c0,0-0.1,0-0.1,0.1c-0.1,0.1,0.2,0.2,0.1,0.3c0-0.1-0.1-0.1-0.1-0.1c0.1,0.1,0.1,0.3,0.1,0.5c0,0,0-0.1-0.1-0.1
												c0.1,0.2,0,0.3,0.1,0.5l-0.1-0.1c-0.1,0.3,0.2,0.1,0.1,0.3h-0.1c0.2,0.2,0.1,0.5,0.2,0.7l0,0c0,0.2,0,0.5,0,0.7
												c0,0.1-0.2,0-0.2,0.2c0.2,0,0.1,0.4,0.3,0.3c0,0.2-0.1,0.5,0,0.6c-0.1-0.1-0.2,0.1-0.2-0.1L20.5,28c-0.1,0,0-0.1-0.1-0.1
												c0,0.1,0.1,0.3,0,0.4c0.1,0.1,0.3,0.3,0.4,0.5c-0.1-0.1-0.2,0.1-0.2,0l0.4,0.3c0,0.1-0.1,0-0.1,0.1c0,0,0.1,0,0.1,0.1
												c0,0,0,0.3-0.1,0.4c-0.1,0,0-0.1-0.1,0c0,0.1,0.1,0.2,0.1,0.3l0,0c0,0.1,0.1,0.3,0.2,0.2c0-0.1-0.1,0-0.1-0.1
												c0.1,0.1,0.1,0.3,0.1,0.4c0,0-0.1,0-0.1-0.1c0.1,0.2,0.2,0.4,0.3,0.6c0.1,0-0.2-0.1-0.1-0.1c-0.1,0.3,0.2,0.6,0,0.8h0.1
												c0,0.1-0.1,0.1-0.1,0.2c-0.1,0,0,0.1,0,0.2c0,0,0,0,0-0.1c0.1,0.1,0.2,0.6,0.1,1c0,0,0.2,0.2,0.2,0.3h-0.1v0.1
												c0,0.1,0,0.1-0.1,0.1c0.1,0.1,0-0.1,0-0.3c0-0.1-0.1-0.3,0-0.2c-0.1,0,0.2,0.3,0,0.2c0,0.2,0.1,0.4,0,0.6
												c0,0-0.2-0.2-0.1,0c0,0.3,0,0.1,0.1,0.3v0.2c0.1,0.1,0,0.3,0.1,0.2c-0.1,0,0.1,0.5-0.1,0.3l-0.1-0.2
												c0,0.1,0.1,0.3,0.2,0.5c0,0,0,0-0.1,0c0.2,0.3,0,0.3,0.1,0.7c0,0.1,0,0.3,0,0.4c-0.1-0.1-0.3-0.2-0.4-0.3
												c-0.1,0-0.2,0-0.5-0.2h0.1c-0.2-0.2-0.2-0.1-0.3-0.1c0,0-0.3-0.3-0.4-0.5c-0.1,0-0.1,0.2-0.1,0.2
												c-0.1-0.3-0.5-0.1-0.7-0.5c0.1,0,0.3,0,0.2-0.1c-0.1-0.3-0.4,0-0.5-0.2v0.2c0-0.1-0.3-0.1-0.2-0.2c-0.1,0-0.2-0.2-0.3,0
												c-0.2-0.3-0.8-0.3-0.8-0.7c-0.1,0-0.1-0.1-0.2,0c0,0.1,0.1,0,0.1,0.1h-0.1c-0.1-0.1-0.1-0.1,0-0.2
												c-0.1-0.2-0.4,0.1-0.6-0.1c0-0.1,0-0.1,0-0.1h-0.2c-0.1-0.1,0-0.2,0-0.3c-0.1,0-0.2-0.1-0.3,0V33c0,0.1-0.1,0-0.2,0h0.1
												c0,0-0.1-0.1-0.2-0.1c0,0.1,0.1,0.2,0.1,0.2c-0.1,0-0.1,0-0.2,0c0.1-0.1-0.1-0.2-0.2-0.2c-0.1-0.1-0.1,0-0.2,0
												c0-0.1-0.1-0.1,0-0.1c0,0,0,0.1,0.1,0.1c0-0.1,0-0.2-0.1-0.2s-0.1,0.2-0.2,0.1c0.1,0,0.1,0,0.1-0.1l-0.1-0.1l-0.1,0.1
												l0,0c-0.1,0.1-0.2-0.1-0.3,0c-0.1,0-0.1-0.2-0.2-0.2l0,0c0-0.1-0.2-0.1-0.3-0.1l0,0c0,0-0.2-0.1-0.3-0.1
												c-0.1-0.1,0.2-0.4,0-0.3c-0.1-0.1-0.3,0.1-0.3,0.2c-0.2-0.2-0.5-0.2-0.6-0.4c0,0,0,0.1-0.1,0c-0.3-0.2-0.7-0.3-0.9-0.6
												c0.1,0,0.1-0.1,0.1-0.1c-0.1,0,0-0.1-0.1,0c0,0.1-0.1,0.1,0,0.2c-0.2-0.1-0.5-0.2-0.6-0.4c0,0.1,0,0.1-0.1,0.1
												c0.1-0.1,0-0.2-0.2-0.3l-0.1,0.1v-0.1c-0.1,0-0.1,0.1-0.2,0v-0.1c-0.1,0-0.4,0-0.5-0.1v-0.2c-0.1,0-0.2,0-0.1,0.1
												C10.1,30.2,10,30.1,10,30c-0.1,0-0.2,0-0.3,0H9.6l-0.2-0.1c-0.3-0.1-0.5-0.2-0.8-0.4c0-0.3,0-0.6,0-0.9h0.1
												c0.1-0.2-0.1-0.1-0.1-0.3c0.1,0,0.1-0.1,0.2,0c0.1-0.2-0.1-0.2-0.2-0.4c-0.1,0,0.1,0.1-0.1,0.1c0,0,0.1-0.3-0.1-0.3
												c0.1,0,0.2,0,0.2,0l-0.1-0.1c0.2-0.1,0.3,0.3,0.5,0.2v-0.1c0.1-0.1,0.2,0.3,0.2,0c-0.1-0.1-0.3-0.2-0.4-0.1
												c0-0.2-0.4-0.1-0.3-0.4c0.1-0.1,0,0.2,0.1,0.1s-0.1-0.2,0-0.3c0,0.1-0.2,0-0.2-0.1c0.1-0.1,0.1,0.1,0.1-0.1
												c-0.1,0-0.1-0.2-0.2,0c-0.2-0.1,0-0.2-0.1-0.3c0.1-0.1,0.3,0.2,0.4,0c-0.1,0-0.2-0.2-0.4-0.1c0-0.1,0.1-0.1,0.2,0
												c0.1-0.1-0.2-0.3,0-0.3H8.3L8.4,26c0-0.1-0.2-0.3,0-0.3c0,0,0-0.3-0.1-0.2c-0.1,0.1,0.1,0.2-0.1,0.2
												c0.1-0.1,0-0.2-0.1-0.3h0.1c0,0,0-0.2-0.1-0.2h0.1H8.1C8,25,8.3,25.2,8.3,25l0.1,0.1c0,0,0.1-0.1,0-0.2
												c-0.1,0-0.2-0.1-0.3-0.1c0-0.1,0.1,0,0-0.1l0.1,0.1c0,0,0.2-0.1,0.2-0.2s-0.2-0.2-0.3-0.1c0-0.1,0.1-0.2,0.1-0.1
												c0-0.2-0.1,0-0.2-0.1c0.1-0.1,0.2-0.2,0.3-0.3l0.2,0.1V24c0.1,0.1,0.1-0.1,0.3,0c0-0.1,0-0.1-0.1-0.2
												c-0.2,0.2-0.3-0.2-0.5-0.2c-0.1-0.3,0.5-0.2,0.2-0.4c-0.1,0-0.2-0.1-0.2,0.1c0-0.2-0.2-0.1-0.1-0.3
												c0.1,0.1,0.2-0.1,0.4,0c-0.1,0-0.1,0.1,0,0.1c0.1-0.1,0.2,0,0.2-0.1s0-0.2-0.1-0.2s0,0.2-0.1,0.1c0-0.2,0.1-0.2-0.1-0.3
												c0,0.1-0.1,0.2-0.2,0.2v-0.1h0.1c0.1-0.2-0.1-0.1-0.1-0.3l0.2-0.1c0.1,0.1-0.1,0.3,0.2,0.3c0-0.1-0.1-0.2,0-0.3v0.1
												c0,0,0.3-0.1,0.1-0.3c-0.1-0.1-0.1,0-0.2,0c0-0.2-0.1-0.3-0.1-0.5c0.2,0,0-0.3,0.2-0.1c-0.1,0.1-0.1,0.4,0.1,0.5
												c0.2-0.1,0,0.2,0.2,0.2C8.9,22,9.1,22,9.2,22c0,0,0-0.1-0.1-0.1s-0.1,0-0.3,0c0-0.2,0-0.4-0.1-0.5c0.1-0.1,0.2,0,0.2,0
												c0-0.3,0-0.5,0-0.8c-0.2,0.2,0-0.3-0.2-0.2c0,0.1-0.2,0.2-0.3,0.2c0-0.1,0.1,0,0.1,0c-0.1-0.1,0.2-0.2,0-0.3
												c0.1,0.2,0.2,0,0.4,0.1c-0.1-0.2,0.1,0,0.1-0.2c-0.1-0.2-0.2-0.4-0.2-0.6c0.1-0.2,0-0.6,0-0.8c0.1-0.1,0.3,0,0.3-0.2
												c0-0.1-0.2,0.1-0.1-0.1l0,0c0-0.1,0.1-0.4-0.1-0.4l0.2,0.1v-0.1c0.1,0,0.1,0,0.2,0c0.1-0.1,0-0.3,0-0.4l-0.1,0.1
												c-0.1-0.2,0-0.4,0-0.6h0.1l-0.1-0.1c0.1,0,0.2-0.1,0.1-0.2l0.3,0.4c-0.1,0.1-0.1-0.1-0.2,0c-0.1,0-0.1,0.3,0,0.3
												c0-0.1,0-0.1,0-0.1c0.1,0,0.1,0.1,0.3,0.2v-0.1c0.1,0.1,0.1,0.2,0.1,0.3c-0.1-0.1-0.1,0-0.1,0c0.1,0,0.2,0.1,0.1,0.3
												c-0.2,0.1,0.1,0.3,0.1,0.5c-0.1-0.1-0.3-0.2-0.3-0.3c-0.1,0.1,0,0.1-0.1,0.3c0.1,0.1,0.3,0.1,0.3,0.3H9.7
												c0,0.1,0.2,0.1,0.2,0.3c0,0.3,0,0.7-0.1,0.9H9.7c0.2,0.1,0.1,0.5,0.2,0.6c-0.1,0.3,0.1,0.7-0.1,0.9
												c0.1,0.6,0.1,1,0.1,1.6l-0.1-0.1c0.1,0.1-0.1,0.1-0.1,0.2c0.1-0.1,0.1,0.1,0.2,0.2c-0.1,0.3,0,0.6,0.1,0.8H9.9
												c0.2,0.2,0,0.5,0,0.8c0,0-0.1,0.1-0.1,0.2c0.2,0.2,0.1,0.2,0.3,0.5c0,0.2,0,0.4-0.1,0.6c0.2,0.6,0.1,1.3,0.2,1.9h-0.1
												c0,0.1,0,0.1,0.1,0.2c0,0,0,0,0,0.1v0.1c0.1,0,0.1,0.1,0.2,0.1c0.1,0.1,0.3,0.2,0.5,0.2l-0.1,0.1c0.1,0.1,0.4,0.1,0.4,0
												c0.1,0.1,0.4,0.1,0.4,0.3c0.1,0.1,0.2,0,0.4,0.1c0.3,0.2,0.4,0.3,0.7,0.4h-0.1c0,0-0.1,0.1,0,0.1s0.4,0.3,0.4,0
												c0.2,0.3,0.8,0.3,1,0.6c0-0.1,0.1,0,0.1-0.1c0.3,0.1,0.5,0.4,0.8,0.5c0,0-0.1,0.1,0,0.1s0-0.1,0.1-0.1
												c0.5,0.1,0.8,0.6,1.2,0.8c0.8,0.3,1.5,0.8,2.1,1.1l0,0c0.3,0,0.4,0.5,0.8,0.3c0,0.1,0.2,0.1,0.1,0.2
												c0.1,0,0.2,0.1,0.4,0.2c0,0.1,0.1,0.1,0.1,0l0,0c0.1,0.2,0.1,0,0.2,0.2c0,0,0,0,0,0.1c0.1,0.2,0-0.3,0.1,0.1l-0.1-0.2
												L20,34c0-0.2-0.1-0.5-0.1-0.6c0,0,0.1-0.1,0.1-0.2h0.1c0.1,0,0.1,0,0-0.2c0,0-0.1,0,0,0c-0.1-0.2,0.3-0.3,0.1-0.4
												c-0.1,0-0.1-0.1-0.2-0.1c0.1-0.3,0.2-0.4,0.1-0.6h0.1c-0.2-0.3-0.1-0.6-0.4-0.9c0-1.6-0.2-3.1-0.2-4.7c0-0.6,0-1.3,0-1.9
												c0-0.5,0-1.6,0-1.3l0,0l0,0L19.5,23c-0.2-0.4-0.3-0.4-0.6-0.5c0,0,0.1,0,0,0c-0.1,0.1-0.3-0.1-0.4,0
												c-0.5-0.3-1-0.5-1.5-0.9c0.1,0,0.2-0.1,0.1-0.1H17l0,0c-0.1,0-0.2,0-0.1,0.1c-1.4-0.6-2.5-1.6-3.8-2.4
												c-0.3-0.2-0.7-0.4-1.1-0.6c-0.9-0.8-1.7-1.4-2.7-1.9C9.4,17,9.8,16.7,10.2,16.9z"/>
											<path class="st1" d="M10.1,16.8c-0.1,0-0.1,0.2-0.2,0.1C9.9,16.8,10,16.8,10.1,16.8z"/>
											<path class="st1" d="M9.2,20.3C9.3,20.3,9.2,20.3,9.2,20.3S9.1,20.2,9.2,20.3C9.2,20.3,9.2,20.2,9.2,20.3z"/>
											<path class="st1" d="M9.2,21.2c-0.1,0-0.1-0.2-0.1-0.3L9.2,21.2z"/>
											<path class="st1" d="M8.9,22C8.8,22.1,8.8,22,8.9,22C8.8,21.9,8.9,22,8.9,22z"/>
											<path class="st1" d="M9.1,22.1c0,0.1,0,0.1-0.1,0.1C9,22.2,8.9,22,9.1,22.1z"/>
											<path class="st1" d="M8.8,23.9c0,0,0.1,0.1,0,0.2C8.9,24,8.7,23.8,8.8,23.9z"/>
											<path class="st1" d="M9,24.7C9,24.7,8.9,24.7,9,24.7C8.9,24.8,8.9,24.8,9,24.7L9,24.7z"/>
											<polygon class="st1" points="18.9,35.1 18.8,35 18.9,35 											"/>
											<path class="st1" d="M21.4,30.8C21.4,30.7,21.5,30.7,21.4,30.8C21.5,30.8,21.4,30.6,21.4,30.8z"/>
											<polygon class="st1" points="21.1,27.1 21.1,27.2 20.9,27.2 											"/>
										</g>
									</g>
								</g>
							</g>
						</g>
						<g>
							<polygon class="st5" points="13.5,22.8 13.5,27 17.2,29.2 17.2,24.9 							"/>
							<g>
								<g>
									<g>
										<g>
											<path class="st1" d="M13.8,22.8C13.7,22.8,13.6,22.9,13.8,22.8L13.8,22.8z"/>
											<path class="st1" d="M13.6,23.1c0.4-0.2,0.4,0.2,0.7,0.1c0,0-0.1,0.2,0,0.2c0.3-0.1,0.5,0.2,0.6,0.5l0,0
												c0,0.1,0.2-0.1,0.2,0c0,0,0,0-0.1,0.1c0.1-0.1,0.1,0,0.2-0.1c0,0,0,0.1-0.1,0.2l0.1-0.1c0.2-0.2,0.2,0.1,0.4,0
												c0,0,0,0,0,0.1c0.3-0.1,0.4,0.1,0.6,0.1c0,0-0.1,0.1-0.1,0.2c0.1-0.1,0.1-0.1,0.2-0.1c0,0.1,0.1-0.1,0.2,0l0,0
												c0.1-0.1,0,0.1,0.1,0v0.1c0.1-0.2,0,0.1,0.1,0.1l0,0c0.1,0,0,0.1,0.1,0.1l0,0c0.1,0,0.1,0.1,0.2,0c0,0.1-0.1,0-0.2,0.2
												c0.2,0,0.4,0.1,0.6,0.2v0.3c-0.1,0-0.1,0.1-0.1,0.1s0,0.1,0.1,0.1h-0.1c-0.1,0,0.2,0,0.1,0.1h-0.1c0.1,0,0.1,0.1,0.1,0.2
												c0,0,0,0-0.1,0c0.1,0.1,0,0.1,0.1,0.2h-0.1c-0.1,0.1,0.2,0,0.1,0.1h-0.1c0.2,0.1,0.1,0.2,0.2,0.2l0,0c0,0.1,0,0.1,0,0.2
												c0,0-0.2,0-0.2,0.1c0.2,0,0.1,0.1,0.3,0.1c0,0.1-0.1,0.2,0,0.2c-0.1,0-0.2,0-0.2,0h-0.1c-0.1,0,0,0-0.1,0
												c0,0,0.1,0.1,0,0.1c0.1,0,0.3,0.1,0.4,0.2c-0.1,0-0.2,0-0.2,0l0.4,0.1h-0.1h0.1c0,0,0,0.1-0.1,0.1s0,0-0.1,0l0.1,0.1l0,0
												c0,0,0.1,0.1,0.2,0.1h-0.1c0.1,0,0.1,0.1,0.1,0.2c0,0-0.1,0-0.1-0.1c0.1,0.1,0.2,0.2,0.3,0.4c0.1,0-0.2-0.1-0.1-0.1
												c-0.1,0.1,0.2,0.4,0,0.4c0,0,0.1,0.1,0.1,0c0,0.1-0.1,0-0.1,0c-0.1,0,0,0.1,0,0.1c0,0.1,0,0,0-0.1
												c0.1,0.1,0.2,0.5,0.1,0.5l0.2,0.3l-0.1-0.1c-0.1,0,0,0.1-0.1,0c0.1,0.2-0.1-0.4,0-0.2c-0.1-0.1,0.2,0.3,0,0.1
												c0,0.1,0.1,0.3,0,0.2c0,0-0.2-0.3-0.1-0.2c0,0.1,0,0.1,0.1,0.2v0.1c0.1,0.2,0,0.1,0.1,0.2c-0.1-0.1,0.1,0.2-0.1,0
												L18,29.3c0,0,0.1,0.3,0.2,0.4c0,0,0,0-0.1-0.1c0.2,0.4,0,0.1,0.1,0.4c0,0,0,0,0,0.1c-0.1,0-0.1-0.1-0.2-0.2
												c0,0.1,0,0.2-0.1,0.1c0,0,0,0,0-0.1c-0.1-0.1-0.1,0-0.1,0s-0.2-0.3-0.3-0.4c0,0.1,0.1,0.3,0.1,0.4
												c-0.2-0.4-0.1,0.1-0.3-0.2c0,0,0-0.1,0-0.2c-0.2-0.4,0,0.2-0.1,0l0.1,0.3c-0.1-0.2-0.1,0.1-0.1-0.2
												c0,0.1-0.1-0.1-0.1,0.1c-0.2-0.3-0.4-0.1-0.5-0.5c0,0-0.1,0-0.1,0.1s0-0.1,0.1,0c0,0,0,0,0,0.1c0-0.1-0.1-0.1,0-0.3
												c-0.1-0.2-0.1,0.3-0.2,0.1c0-0.1,0-0.1,0-0.1l-0.1,0.1c-0.1-0.1,0-0.2,0-0.3h-0.1v-0.3c0,0.1-0.1,0-0.1,0.1l0,0
												c0,0,0,0-0.1,0c0,0.1,0,0.1,0,0.2h-0.1c0.1-0.1,0-0.1-0.1-0.1l-0.1,0.1c0-0.1,0,0,0-0.1c0,0,0,0.1,0,0c0,0,0.1-0.1,0-0.1
												s-0.1,0.2-0.1,0.1l0.1-0.1v-0.1l-0.1,0.1l0,0c-0.1,0.1-0.1,0-0.2,0.1v-0.1l0,0c0-0.1-0.1-0.1-0.1,0l0,0h-0.1
												c0-0.1,0.2-0.4,0.1-0.3c0,0-0.2,0.1-0.2,0.2c0-0.1-0.2,0-0.2-0.2c0,0,0,0.1-0.1,0.1c-0.1-0.1-0.3,0-0.3-0.3l0.1-0.1
												c-0.1,0.1,0-0.1-0.1,0c0,0.1-0.1,0.1-0.1,0.2c-0.1,0-0.2,0-0.2-0.1c0,0,0,0.1-0.1,0.1c0.1-0.1,0-0.2,0-0.2v0.1v-0.1
												c0,0-0.1,0.2-0.1,0.1v-0.1c-0.1,0.1-0.2,0.1-0.3,0V28c0,0-0.1,0-0.1,0.1c-0.1-0.1-0.1-0.2-0.1-0.3
												c-0.3,0.1-0.5,0-0.7-0.1c0-0.1,0-0.2,0-0.3h0.1c0.1-0.1-0.1,0-0.1-0.1c0.1,0,0.1-0.1,0.2-0.1c0.1-0.1-0.1-0.1-0.2-0.1
												s0.1,0-0.1,0.1c0,0,0.1-0.2-0.1-0.1c0.1,0,0.2,0,0.2,0h-0.1c0.2-0.1,0.3,0.1,0.5,0l0,0c0.1-0.1,0.2,0.1,0.2,0
												c-0.1,0-0.3,0-0.4,0c0-0.1-0.4,0-0.3-0.1c0.1,0,0,0.1,0.1,0.1c0.1-0.1-0.1-0.1,0-0.2c0,0.1-0.2,0-0.2,0
												c0.1,0,0.1,0,0.1,0c-0.1,0-0.1-0.1-0.2,0c-0.2,0,0-0.1-0.1-0.1c0.1,0,0.3,0.1,0.4,0c-0.1,0-0.2-0.1-0.4,0
												c0,0,0.1,0,0.2,0s-0.2-0.1,0-0.1h-0.1h0.1c0,0-0.2-0.1,0-0.1c0,0,0-0.1-0.1-0.1s0.1,0-0.1,0.1c0.1,0,0-0.1-0.1-0.1h0.1
												c0,0,0,0-0.1-0.1h0.1h-0.1c-0.1-0.1,0.2,0,0.2-0.1h0.1c0,0,0.1,0,0-0.1c-0.1,0-0.2,0-0.3,0c0,0,0.1,0,0,0h0.1
												c0,0,0.2,0,0.2-0.1c0,0-0.2-0.1-0.3,0c0,0,0.1-0.1,0.1,0c0,0-0.1,0-0.2,0c0.1,0,0.2-0.1,0.3-0.1h0.2l0,0
												c0.1,0,0.1,0,0.3,0c0,0,0,0-0.1-0.1c-0.2,0.1-0.3-0.1-0.5,0c-0.1-0.1,0.5,0,0.2-0.1c-0.1,0-0.2,0-0.2,0s-0.2,0-0.1-0.1
												c0.1,0,0.2,0,0.4,0c-0.1,0-0.1,0,0,0s0.2,0,0.2,0s0-0.1-0.1-0.1s0,0-0.1,0c0-0.1,0.1-0.1-0.1-0.1c0,0-0.1,0-0.2,0l0,0
												h0.1c0.1-0.1-0.1,0-0.1-0.1h0.2c0.1,0-0.1,0.1,0.2,0.1c0,0-0.1-0.1,0-0.1l0,0c0,0,0.3,0,0.1-0.1c-0.1,0-0.1,0-0.2,0
												c0-0.1-0.1-0.1-0.1-0.2c0.2,0,0-0.1,0.2,0c-0.1,0-0.1,0.1,0.1,0.2c0.2,0,0,0.1,0.2,0.1c0-0.1,0.2-0.1,0.3-0.1
												c0,0,0,0-0.1,0s-0.1,0-0.3,0c0-0.1,0-0.1-0.1-0.2c0.1,0,0.2,0,0.2,0c0-0.1,0-0.2,0-0.3c-0.2,0,0-0.1-0.2,0
												c0,0-0.2,0.1-0.3,0.1h0.1c-0.1,0,0.2,0,0-0.1c0.1,0.1,0.2,0,0.4,0c-0.1-0.1,0.1,0,0.1,0c-0.1-0.1-0.2-0.1-0.2-0.2
												c0.1-0.1,0-0.2,0-0.3c0.1,0,0.3,0,0.3,0s-0.2,0-0.1,0l0,0c0,0,0.1-0.1-0.1-0.1h0.2l0,0c0.1,0,0.1,0,0.2,0s0-0.1,0-0.1
												h-0.1c-0.1-0.1,0-0.1,0-0.2h0.1h-0.1c0.1,0,0.2,0,0.1,0l0.3,0.1C13.7,23.1,13.6,23,13.6,23.1c-0.2,0-0.2,0.1,0,0.1
												C13.5,23.1,13.5,23.1,13.6,23.1c0.1,0.1,0.1,0.1,0.2,0.1l0,0c0.1,0,0.1,0.1,0.1,0.1c-0.1,0-0.1,0-0.1,0
												c0.1,0,0.2,0,0.1,0.1c-0.2,0,0.1,0.1,0.1,0.2c-0.1,0-0.3-0.1-0.3-0.1c-0.1,0,0,0-0.1,0.1c0.1,0,0.3,0,0.3,0.1h-0.1
												c0,0,0.2,0,0.2,0.1s0,0.2-0.1,0.3h-0.1c0.2,0,0.1,0.1,0.2,0.2c-0.1,0.1,0.1,0.2-0.1,0.3C14,24.8,14,25,14,25.1h-0.1
												c0.1,0-0.1,0-0.1,0.1c0.1,0,0.1,0,0.2,0.1c-0.1,0.1,0,0.2,0.1,0.3H14c0.2,0.1,0,0.2,0,0.3c0,0-0.1,0-0.1,0.1
												c0.2,0,0.1,0.1,0.3,0.2c0,0.1,0,0.1-0.1,0.2c0.1,0.1,0.1,0.2,0.1,0.3c0,0,0,0.1,0.1,0.1h-0.1c0.1,0,0.1,0,0.1,0
												s0,0.1,0.1,0l-0.1,0.1c0,0.1,0.1,0,0.2-0.1c0,0.1,0.1-0.1,0,0.1c0,0.1,0.1,0,0.2,0c0.1,0.1,0.1,0.1,0.2,0.1l0,0l-0.1,0.1
												c0.1,0,0.1,0.1,0.2-0.1c0,0.2,0.3,0,0.3,0.3c0-0.1,0.1-0.1,0.1-0.1c0.1,0,0.1,0.2,0.2,0.2c0,0-0.1,0.1,0,0.1
												c0,0,0-0.1,0.1-0.1c0.2,0,0.2,0.3,0.4,0.3c0.1-0.1,0.1,0,0.2,0v0.1c0-0.2,0.1,0.3,0-0.1c0,0.1,0,0,0,0.2
												c0-0.2,0.1,0.2,0,0l0,0c0.1,0.2,0,0,0.1,0.1c0,0,0,0.1,0.1,0.1c0.1,0.2-0.1-0.3,0.1,0.1L16.5,28c0,0,0,0.1,0.1,0.1
												c0,0-0.1-0.3-0.1-0.4c0.1,0.1,0.4,0.4,0.2,0.2c0,0-0.1-0.1,0,0c-0.1-0.1,0.3,0.2,0.1,0.1c-0.1-0.1-0.1-0.1-0.2-0.2
												c0.1,0,0.2,0.1,0.1,0l0.1,0.1c-0.2-0.2-0.1-0.2-0.4-0.3v-0.1l0,0v-0.1v-0.2c0-0.3-0.1-0.5-0.1-0.8c0-0.2,0-0.4,0-0.6l0,0
												l0,0c0.1-0.1,0.1-0.2,0-0.1c0,0,0,0,0-0.1c-0.1,0.1,0,0-0.1,0.1c-0.1-0.1-0.3-0.2-0.5-0.3l0.1-0.1l-0.1,0.1l0,0l-0.1,0.1
												c-0.5-0.1-0.8-0.7-1.2-0.9c-0.1-0.1-0.2-0.1-0.4-0.2c-0.2-0.4-0.4-0.7-0.8-0.8C13.1,23.4,13.4,23.1,13.6,23.1z"/>
											<path class="st1" d="M13.8,22.9c-0.1,0-0.1,0.1-0.2,0C13.6,22.9,13.7,22.9,13.8,22.9z"/>
											<path class="st1" d="M12.9,24.1L12.9,24.1C12.9,24.1,12.8,24.1,12.9,24.1L12.9,24.1z"/>
											<path class="st1" d="M12.9,24.4c-0.1,0-0.1-0.1-0.1-0.1L12.9,24.4z"/>
											<path class="st1" d="M12.6,24.7C12.5,24.7,12.5,24.7,12.6,24.7C12.5,24.6,12.6,24.6,12.6,24.7z"/>
											<path class="st1" d="M12.7,24.7L12.7,24.7C12.7,24.7,12.6,24.7,12.7,24.7z"/>
											<path class="st1" d="M12.5,25.3C12.6,25.3,12.6,25.3,12.5,25.3C12.6,25.3,12.4,25.3,12.5,25.3z"/>
											<path class="st1" d="M12.6,25.6L12.6,25.6L12.6,25.6L12.6,25.6z"/>
											<path class="st1" d="M16.9,29.6v0.1V29.6z"/>
											<path class="st1" d="M17.7,27.7C17.7,27.7,17.8,27.7,17.7,27.7C17.8,27.7,17.7,27.7,17.7,27.7z"/>
											<polygon class="st1" points="17.4,26.4 17.4,26.4 17.2,26.4 											"/>
										</g>
									</g>
								</g>
							</g>
						</g>
					</g>
					<g>
						<polygon class="st0" points="20.9,22.8 39.4,12.2 28.3,5.8 9.9,16.5 						"/>
						<g>
							<g>
								<g>
									<g>
										<path class="st1" d="M20.9,22.5c-0.2,0.1,0.2,0-0.1,0.1C20.8,22.6,20.8,22.5,20.9,22.5z"/>
										<path class="st1" d="M20.3,22.2c-0.9-0.1-1.6-0.9-2.5-1.2c-0.1,0,0.1-0.2-0.1-0.2c-0.9-0.2-2-1-2.8-1.7H15
											c-0.1-0.1-0.5-0.1-0.6-0.2c0,0,0.1,0,0.1-0.1c-0.1,0.1-0.4-0.1-0.5-0.1c0-0.1,0-0.2-0.1-0.3l-0.2,0.1
											c-0.5,0.1-0.7-0.4-1.2-0.5c0,0,0.1,0,0.1-0.1c-0.7-0.2-1.5-0.7-2.4-1.1c0.1,0,0.3,0,0.3,0c-0.2,0-0.5-0.1-0.8-0.2
											c0.1,0,0,0-0.1-0.1c0-0.1,0-0.2,0.3-0.3l0,0c0-0.1,0.4-0.1,0.3-0.3h0.3c-0.1-0.1,0.4-0.1,0.4-0.2l0,0
											c0.1-0.1,0.3-0.1,0.4-0.2l0,0c0.3-0.2,0.5-0.2,0.4-0.3c0.2,0-0.2,0.2,0,0.3c0.8-0.7,1.8-1.2,2.7-1.7c0.1,0,0.2,0,0.3,0
											c0.1-0.1,0.3-0.2,0.4-0.4h0.1c0.2,0,0.1-0.3,0.3-0.3c0,0.1,0,0.1,0,0.2c0.1-0.2,0.3-0.3,0.5-0.5v0.1
											c0.1-0.2,0.4-0.2,0.5-0.4v0.1c0.3-0.1,0-0.2,0.3-0.3c0,0.1,0,0.1,0,0.1c0.1-0.3,0.5-0.5,0.8-0.6l0,0
											c0.2-0.2,0.5-0.3,0.8-0.5c0.1,0,0.1,0.2,0.3,0c-0.1-0.2,0.4-0.3,0.1-0.4c0.2-0.1,0.6-0.3,0.8-0.4c-0.1,0.1,0.2,0.1,0,0.3
											h0.2c0,0.1-0.2,0.1-0.1,0.1c0.1-0.1,0.3-0.3,0.4-0.3c0.1-0.2,0.2-0.5,0.5-0.7c-0.1,0.1,0.2,0.1,0.1,0.2l0.2-0.5
											c0.1-0.1,0.1,0.1,0.2,0c0,0,0-0.1,0-0.2c0,0,0.4-0.3,0.5-0.1c0.1,0-0.1,0.1,0,0.1c0.2-0.1,0.1-0.2,0.3-0.3l0,0
											c0.1,0,0.3-0.3,0.1-0.3c-0.1,0,0.1,0.1-0.1,0.1c0-0.1,0.2-0.3,0.4-0.4c0,0.1,0,0.1,0,0.2c0.2-0.3,0.4-0.4,0.6-0.6
											c0-0.1,0,0.2-0.1,0.2c0.4-0.1,0.6-0.5,1-0.6l-0.1-0.1c0.2-0.1,0.2,0,0.3-0.1c0,0.1,0.1-0.1,0.2-0.2c0-0.1,0,0,0,0.1
											c0.1-0.1,0.7-0.6,1.1-0.7c0,0,0.1-0.3,0.2-0.3v0.1c0.1,0,0.3-0.2,0.3-0.1c0.1-0.2-0.6,0.5-0.4,0.3c0.1,0,0.2-0.3,0.3-0.2
											c0.2-0.1,0.3-0.3,0.5-0.3c0,0,0,0.2,0.1,0.1c0.2-0.1,0-0.1,0.2-0.2L26.6,6c0-0.1,0.2-0.1,0.1-0.2c0.1,0.1,0.3-0.2,0.4-0.1
											v0.1c0.1-0.1,0.1-0.2,0.1-0.3h0.1c0-0.1,0-0.1,0.1-0.2c0.1,0,0.2-0.1,0.3-0.2c0.2-0.1,0.4-0.2,0.5-0.3
											c0.2,0.1,0.4,0.2,0.4,0.3c0.1,0,0.3,0.1,0.4,0.1s0.2,0.1,0.3,0.1h-0.1c0.1,0.1,0.1,0.1,0.3,0.1c0,0,0.2,0.2,0.3,0.4
											c0.2,0,0.2-0.1,0.3-0.2c0,0.3,0.5,0.1,0.6,0.4c-0.1,0-0.3,0-0.2,0.1c0,0.3,0.4,0,0.6,0.3V6.2c0,0.2,0.4,0.1,0.3,0.3
											c0.1,0,0.3,0.2,0.3,0c0.3,0.4,1,0.5,1.1,0.9c0.1,0,0.2,0.1,0.2,0s-0.2,0-0.2-0.1h0.1c0.1,0.1,0.2,0.2,0,0.2
											c0.2,0.3,0.4-0.1,0.7,0.1c0,0,0,0.1,0.1,0.1H34c0.2,0.1,0,0.2,0,0.3c0.1,0,0.3,0.1,0.4,0.1l0.1,0.2c0-0.2,0.1,0,0.2,0
											h-0.1c0,0.1,0.1,0.1,0.2,0.1c0-0.1-0.1-0.2-0.2-0.3c0.1,0,0.2,0,0.3,0c-0.1,0.1,0.1,0.2,0.2,0.3c0.1,0.1,0.2,0,0.2,0
											c0,0.1,0.2,0.1,0,0.1c0,0,0-0.1-0.1-0.1c0,0.1,0,0.2,0.2,0.2c0.1,0,0.1-0.2,0.3,0c-0.1,0-0.1,0-0.2,0l0.2,0.2l0.1-0.1
											c0,0,0,0,0,0.1c0.1-0.1,0.3,0.1,0.4,0c0.1,0,0.2,0.2,0.3,0.3l0,0c0.1,0.1,0.3,0.2,0.4,0.2l0,0c0.1,0,0.2,0.1,0.3,0.1
											c0.1,0.2-0.2,0.4,0.1,0.4c0.2,0.1,0.4,0,0.3-0.1c0.1,0.1,0.3,0.2,0.5,0.3c0.1,0,0.2,0.1,0.2,0.1c0.1,0.1,0.2,0.2,0.3,0.3
											c0.1,0,0.1,0,0.2,0c0.3,0.2,0.7,0.4,1.1,0.6s0.7,0.4,0.8,0.6c-0.3-0.1-0.2,0-0.3,0c0.1,0,0.2,0.1,0.2,0.1
											c-0.1,0-0.1,0,0,0.1c0.2,0,0.3,0,0.4-0.1l0,0h0.1c-0.3,0.2-0.9,0.6-1.3,0.7c0.2,0,0.1,0,0.1,0.1c-0.2-0.1-0.5,0.1-0.6,0.2
											l0.1,0.1h-0.2c0,0.1,0.1,0.2-0.2,0.3h-0.1c-0.1,0.1-0.2,0.2-0.3,0.3c-0.1,0.1-0.2,0.1-0.3,0.2h-0.2c-0.1,0-0.1,0.2,0,0.2
											c-0.3,0.1-0.5,0.2-0.6,0.1c-0.3,0.5-1,0.9-1.5,1.2V15c-0.2,0,0,0.1-0.1,0.2c0-0.1-0.2-0.1-0.1-0.2c-0.3,0-0.2,0.3-0.3,0.4
											c0,0.1,0.1-0.1,0.1,0c0,0-0.3,0.1-0.3,0.3c-0.1,0-0.1-0.1-0.1-0.2l-0.1,0.1c-0.2-0.1,0.2-0.5-0.1-0.5l-0.1,0.1
											c-0.2-0.1,0.2-0.3-0.1-0.2c-0.1,0.1-0.1,0.4,0,0.4c-0.3,0.2,0,0.4-0.2,0.5c-0.1,0,0.2-0.1,0.1-0.2c-0.2,0-0.2,0.2-0.4,0.3
											c0.2,0,0.1,0.2,0,0.2c-0.2,0,0-0.2-0.2-0.1c0,0.1-0.1,0.3,0,0.2c0,0.2-0.2,0.1-0.3,0.3c-0.1-0.1,0.1-0.4-0.2-0.3
											c0.1,0.1-0.2,0.3,0,0.4c-0.1,0-0.2-0.1-0.1-0.2c-0.2,0-0.2,0.4-0.4,0.2v0.1c-0.1,0-0.1,0-0.2,0c-0.1,0.1-0.3,0.4-0.4,0.2
											c0,0-0.3,0.2-0.1,0.2c0.2,0,0.1-0.2,0.3-0.1c-0.2-0.1-0.2,0.1-0.3,0.3v-0.1c0,0.1-0.2,0.1-0.2,0.2c0-0.1,0-0.1-0.1-0.1
											v0.1c-0.2,0.2-0.2-0.1-0.4,0l0.1-0.2c0,0-0.1,0-0.2,0.1c0,0.1,0,0.3,0,0.4c-0.1,0.1-0.1-0.1-0.2,0.1l0.1-0.2
											c0,0-0.2-0.1-0.4,0c-0.1,0.1-0.2,0.3,0,0.3c-0.1,0-0.2,0.1-0.2,0c-0.2,0.1,0.1,0.1,0,0.2c-0.1,0-0.4,0-0.5,0l0.1-0.3
											L30.4,18c0.1-0.2-0.1,0-0.1-0.2c-0.1,0-0.1,0.1-0.2,0.2c0.3,0.1-0.1,0.4,0.1,0.6c-0.3,0.2-0.5-0.4-0.6,0.1
											c0.1,0,0,0.3,0.2,0.1c-0.2,0.1,0,0.3-0.3,0.3c0.1-0.2-0.3-0.1-0.1-0.3c0,0.1,0.2,0,0.2-0.1c-0.1,0-0.1-0.2-0.3-0.1
											c-0.1,0.1-0.3,0.2-0.2,0.3c0.1,0.1,0.2-0.1,0.2,0c-0.2,0.2-0.4,0-0.3,0.3c0.1-0.1,0.2,0,0.3,0.1l-0.1,0.1v-0.1
											c-0.3,0.1,0,0.2-0.3,0.3l-0.2-0.1c0-0.2,0.4-0.2,0.3-0.3c-0.2,0.1-0.2,0.2-0.4,0.3l0.1-0.1c-0.1,0-0.3-0.2-0.4,0.1
											c-0.1,0.1,0,0.1,0,0.2C28,19.9,28,20,27.8,20.1c0-0.2-0.3,0.2-0.2-0.1c0.1,0,0.5-0.2,0.6-0.4c-0.2-0.1,0.2-0.1,0.2-0.3
											c-0.2,0.1-0.3,0-0.4-0.1c-0.1,0-0.1,0.1-0.1,0.1c0,0.1,0.1,0.1,0.2,0.2c-0.3,0.1-0.5,0.3-0.5,0.5c-0.1,0-0.1-0.1-0.1-0.2
											c-0.3,0.2-0.6,0.4-0.9,0.5c0.3,0.1-0.3,0.2-0.1,0.3c0.2,0,0.4,0,0.3,0.1c-0.1,0,0-0.1-0.1-0.1c-0.1,0.2-0.3,0-0.3,0.2
											c0.2-0.2-0.1-0.2-0.1-0.4c-0.1,0.2,0-0.1-0.2,0c-0.1,0.2-0.4,0.4-0.6,0.5c-0.4,0-0.7,0.4-0.9,0.5c-0.2,0-0.2-0.2-0.3-0.1
											c-0.2,0.1,0.2,0.1-0.1,0.2l0,0c0,0.1-0.5,0.1-0.4,0.4v-0.2l-0.1,0.1l-0.1-0.1c-0.2,0-0.3,0.2-0.5,0.3h0.2
											c-0.2,0.2-0.5,0.3-0.7,0.4v-0.1l-0.1,0.1c0-0.1-0.2-0.1-0.2,0l0.3-0.5c0.1,0-0.1,0.2,0.1,0.2c0.1,0,0.3-0.1,0.3-0.2
											c-0.1,0-0.1,0.1-0.1,0.1c-0.1-0.1,0-0.2,0.1-0.3c0,0-0.1,0-0.1,0.1c0.1-0.1,0.1-0.2,0.3-0.3c-0.1,0.1,0.1,0,0.1,0.1
											c-0.1-0.1,0.1-0.3,0.3-0.3c0.2,0,0.3-0.3,0.6-0.4c0,0.2-0.1,0.3-0.2,0.5c0.2,0,0.2-0.1,0.3-0.1c0-0.1,0-0.3,0.1-0.5
											l0.1,0.1c0.1-0.1,0.1-0.3,0.3-0.4c0.4-0.2,0.8-0.4,1.1-0.5l0.1,0.1c0-0.3,0.5-0.4,0.7-0.6c0.4-0.1,0.7-0.5,1-0.5
											c0.6-0.4,1.1-0.8,1.8-1.2V18c0.1-0.2,0.1,0,0.2-0.1c-0.2,0,0.1-0.2,0.1-0.4c0.4-0.1,0.7-0.4,0.9-0.6l0.1,0.1
											c0.2-0.3,0.6-0.4,0.9-0.5c0.1,0,0.2,0.1,0.3,0c0.1-0.3,0.2-0.3,0.4-0.5c0.2-0.1,0.5-0.3,0.8-0.3c0.6-0.6,1.4-0.9,2.1-1.5
											l0.1,0.1c0.6-0.6,1.6-1,2.2-1.4v0.2c0.2-0.1,0.4-0.3,0.3-0.4c0.1,0,0.2-0.1,0.3-0.2c0.1-0.1,0.2-0.1,0.3-0.1
											c0.1,0,0-0.1,0-0.2c0.2,0,0.3-0.1,0.3-0.1l0,0c0.1,0,0.2,0,0.3,0c0,0,0,0,0.1-0.1c-0.1,0-0.1,0-0.4,0c0.1,0,0-0.1-0.1-0.1
											s-0.1,0-0.1-0.1c0,0.1-0.1,0-0.1,0.1c-0.3-0.2-0.6-0.5-1-0.6c0-0.1,0.1,0,0-0.1c-0.1,0,0,0.1-0.2,0
											c-0.6-0.2-1.1-0.8-1.6-1c-1-0.4-1.9-1-2.8-1.5l0,0c-0.4,0-0.6-0.6-1-0.5c0-0.1-0.3-0.2-0.2-0.2c-0.3,0-0.6-0.5-1-0.5
											c0,0,0,0,0.1,0c-0.3-0.3-0.7-0.3-1-0.6c0,0,0.1,0,0.2,0c-0.1-0.2-0.5,0-0.3-0.2c0,0-0.1,0.1,0,0.1l-0.1-0.1
											c-0.1,0-0.1,0.1-0.2,0.1l-0.5,0.3c-0.3,0.2-0.7,0.5-1,0.7c-0.7,0.2-0.2-0.3-0.6,0.1c-0.1,0,0,0.1,0,0.1
											c-0.1,0.2-0.4-0.1-0.5,0.1c0.1,0.1,0,0.1,0,0.2c-0.4,0.1-0.5,0.1-0.8,0.3V8.5c-0.2,0.4-0.7,0.5-0.8,0.9
											c-1.8,1.1-3.5,2.3-5.4,3.3c-1.8,1-3.5,2.1-5.4,3c-0.5,0.1-0.6,0.1-1,0.4V16c0,0.1,0,0.1-0.1,0.2c0,0-0.1,0-0.1,0.1
											c0,0,0,0,0,0.1c-0.1,0-0.1,0.1-0.1,0.1l0,0c0,0-0.3,0-0.2,0h0.2H13h0.2l0,0l0,0l0.3,0.2c0.4,0.3,0.8,0.5,1.3,0.8
											c0.8,0.5,1.6,1.1,2.5,1.6c0.4,0.3,1,0.6,1.4,0.8c1.2,0.9,2.3,1.8,3.7,2.4C21.2,22.2,20.9,22.5,20.3,22.2z"/>
										<path class="st1" d="M21.1,22.3c0.1,0,0.3,0,0.2,0.2C21.3,22.4,21.2,22.4,21.1,22.3z"/>
										<path class="st1" d="M25.6,20.7C25.6,20.7,25.7,20.7,25.6,20.7v0.1C25.6,20.8,25.6,20.8,25.6,20.7z"/>
										<path class="st1" d="M26.7,20.2c0,0.1-0.2,0.3-0.3,0.3L26.7,20.2z"/>
										<path class="st1" d="M27.8,19.9c0.1,0,0.1,0,0,0.1C27.7,20,27.8,19.9,27.8,19.9z"/>
										<path class="st1" d="M27.8,19.7c0.1,0,0.1,0,0.2,0C27.9,19.6,27.8,19.8,27.8,19.7z"/>
										<path class="st1" d="M30,18.7c0,0,0.1-0.1,0.2-0.1C30.1,18.6,30,18.8,30,18.7z"/>
										<path class="st1" d="M30.9,18L30.9,18C31,18,31,18.1,30.9,18L30.9,18z"/>
										<polygon class="st1" points="30.8,6.6 31,6.6 30.9,6.7 										"/>
										<path class="st1" d="M22.5,8.5c-0.1,0.1-0.1,0-0.1,0C22.5,8.4,22.4,8.6,22.5,8.5z"/>
										<polygon class="st1" points="18.5,11.2 18.6,11.2 18.6,11.4 										"/>
									</g>
								</g>
							</g>
						</g>
					</g>
				</g>
			</g>
		</g>
	</g>
</g>
<g>
</g>
<g>
</g>
<g>
</g>
<g>
</g>
<g>
</g>
<g>
</g>
</svg>
