<svg xmlns="http://www.w3.org/2000/svg" viewBox="0 0 59.6 54.3"><style><![CDATA[.D{fill:#202020}.E{fill:#fff}]]></style><path d="M45.4 35.4V14.7l-9.1-5.2.1 20.7z" class="E"/><g class="D"><path d="M45.2 35.3c0 .2.1-.1.1.1-.1 0-.2 0-.1-.1zm-.3-.4c-.8 0-1.5-.9-2.3-1-.1 0 .1-.2-.1-.2-.8-.1-1.8-.9-2.5-1.6h.1c-.1-.1-.4-.1-.6-.2 0 0 .1 0 .1-.1-.1.1-.3-.1-.4-.1v-.3l-.2.1c-.4.1-.6-.4-1.1-.5 0 0 .1 0 .1-.1-.5-.1-1-.4-1.5-.7v-.7h.2c-.1 0-.2-.3-.2-.5.2-.1-.1-.3 0-.6-.2-.2.1-.3-.1-.4l.1-.1c-.2-.1.1-.3 0-.4v-.3c-.1-.3.1-.5-.1-.5.1-.1.1.3.2.1-.2-1-.1-2-.2-2.9.1-.1.1-.2.1-.2 0-.1 0-.4-.1-.5l.1-.1c.1-.2-.2-.2-.1-.4 0 .1.1.1.2.1-.1-.2-.1-.4-.2-.6 0 0 0 .1.1.1-.1-.2 0-.4-.1-.6l.1.1c.1-.3-.2-.1-.1-.4 0 .1.1 0 .1 0-.2-.2-.1-.6-.2-.9v-.8c0-.1.2 0 .2-.3-.2 0-.1-.5-.3-.3 0-.2.1-.6 0-.8.1.1.2-.1.2.1l.1-.1c.1 0 0 .2.1.1 0-.1-.1-.4 0-.5-.1-.2-.3-.4-.3-.7.1.1.2-.1.2 0l-.4-.4c0-.1.2 0 .1-.2 0 0-.1 0-.1-.1 0 0 0-.4.1-.5.1 0 0 .2.1 0 0-.2-.1-.2-.1-.4 0-.1-.1-.4-.2-.2 0 .1.1 0 .1.1-.1-.1-.1-.3-.1-.5 0 .1.1 0 .1.1l-.3-.8c-.1 0 .2.1.1.1.1-.4-.2-.7 0-1h-.1c0-.2.1-.2.1-.3.1 0 0-.1 0-.3 0-.1 0 0 0 .1-.1-.2-.2-.8-.1-1.2 0 0-.2-.2-.2-.3h.1c.1-.1 0-.3.1-.3-.1-.2.1.7 0 .5.1-.1-.2-.3 0-.3 0-.2-.1-.3 0-.5 0 .1.2.2.2 0 0-.3 0-.1-.1-.4v-.2c-.1-.1 0-.3-.1-.2.1 0-.1-.6.1-.4l.2.2c0-.1-.2-.4-.2-.5h.1c-.2-.3 0-.3-.2-.8V8c.2.1.3.2.5.4.2 0 .3 0 .6.2h-.1c.2.2.2.1.3.1l.5.5c.2 0 .2-.1.2-.2.1.3.7.2.7.5-.1 0-.3 0-.2.1 0 .3.3 0 .5.2v-.2c0 .1.4.1.3.2.1 0 .2.2.3 0 .3.3.9.4 1 .8.1 0 .2.1.2 0s-.2 0-.2-.1h.1c.1.1.2.2 0 .2.2.2.4-.1.7.1 0 .1 0 .1.1.1h.2c.2.1 0 .2 0 .3.1 0 .3.1.3.1v.2c0-.1.1 0 .2 0h-.1c0 .1.1.1.2.1 0-.1-.1-.2-.1-.2h.3c-.1.1.1.2.2.2.1.1.2 0 .2 0 0 .1.2.1 0 .1 0 0 0-.1-.1-.1 0 .1 0 .2.2.2.1 0 .1-.2.3 0h-.2l.2.2.1-.1v.1c.1-.1.3.1.4 0 .1 0 .2.2.2.2.1.1.2.2.4.1 0 0 .2.1.3.1.1.2-.2.4.1.4.2.1.3 0 .3-.1a.76.76 0 0 0 .4.2h.1l.2.1c.1.1.2.1.3.2h.2l.2.1v1c0 .2 0 .4-.1.5 0-.1-.1 0-.2 0 .1.1-.1.1.1.2.1 0 .2 0 .2-.1 0 .3.1.7 0 .8 0-.1.1 0 .1 0-.2 0-.2.2-.1.3h.1l-.1.1c0 .1.2.1.1.2h-.1c.1.1.2.4.1.5l-.1.1c0 .1.1.2.1.1-.1.3-.1.5-.2.6.3.5.3 1.2.3 1.8h-.1c-.1.1.1.1.1.2-.1 0-.2.1-.2 0-.1.2.1.3.2.4.1 0-.1-.1.1-.1 0 0-.1.3.1.3-.1.1-.2 0-.2 0l.1.1c-.2.2-.3-.4-.5-.2v.1c-.2.1-.2-.3-.2 0 .1.1.3.3.3.1 0 .3.3.1.3.4-.1.1 0-.2-.1-.2-.1.1.1.3 0 .4 0-.1.2 0 .2.1-.1.1-.1-.1-.2.1.1 0 .2.2.2.1.2.1 0 .2.1.3-.1.1-.3-.2-.4 0 .1 0 .2.3.4.2 0 .1-.1.1-.2 0-.1.1.2.3 0 .4h.1l-.2.2c0 .1.2.4 0 .4 0 0 0 .3.2.2.1-.2-.1-.2.1-.3-.2.1 0 .2.1.3h-.1c0 .1 0 .2.1.2h-.1l.1.1c.1.2-.2.1-.2.3l-.1-.2s-.1.1 0 .2c.1 0 .2.1.3.2 0 .1-.1.1 0 .2l-.1-.2s-.2.1-.2.3c0 .1.2.3.3.1 0 .1-.1.2-.1.1 0 .2.1 0 .2.1-.1.1-.2.3-.3.4l-.2-.2v.1c-.1-.1-.1.1-.3 0 0 .1 0 .2.1.3.2-.2.3.3.5.2.1.3-.5.2-.2.5.1 0 .2.1.2-.1 0 .2.2.1.1.4-.1-.2-.2.2-.4-.1.1 0 .1-.1 0-.2-.1.1-.2 0-.2.2 0 .1 0 .3.1.3s0-.2.1-.1c0 .3-.2.3.1.4 0-.2.1-.2.2-.2v.2h-.1c-.1.3.2.1.1.4l-.2.1c-.1-.1.1-.4-.2-.4 0 .2.1.2 0 .4v-.1c0 .1-.3.1-.1.4.1.1.1 0 .2 0 0 .3.1.4.1.6-.2 0 0 .3-.2.1.1-.1.1-.5-.1-.6-.2.1 0-.2-.2-.3 0 .2-.2.2-.3.3 0 .1 0 .1.1.2.1 0 .1-.1.3-.1 0 .3 0 .5.2.7-.1.1-.2.1-.2 0v1c.2-.2 0 .3.2.2 0-.2.2-.3.3-.2 0 .1-.1 0-.1 0 .1.1-.2.2 0 .3-.1-.3-.2 0-.4-.1.1.2-.1 0-.1.2.1.2.2.5.2.7-.2.3 0 .7 0 1-.1.1-.3 0-.3.2s.2-.1.1.1c0 .1-.1.5.1.5l-.2-.1v.1c-.1 0-.1.1-.2 0-.1.2 0 .3 0 .5l.1-.1c.1.3 0 .5 0 .8h-.1l.1.2c-.1 0-.2.1-.1.2l-.3-.4c.1-.1.1.1.2.1.1-.1.1-.3 0-.4v.2c-.2 0-.2-.1-.3-.2v.1c-.1-.1-.1-.2-.1-.4.1.1.1-.1.1 0-.1 0-.2-.2-.1-.4.2-.1-.1-.4-.1-.6.1.1.3.2.3.4.1-.1 0-.2.1-.3-.1-.1-.3-.1-.3-.3h.1c0-.2-.2-.2-.2-.4 0-.4 0-.8.1-1.1h.1c-.2-.2-.1-.6-.2-.8.1-.4-.1-.8.1-1-.1-.7-.2-1.3-.1-2l.2.1c-.1-.1.1-.1.1-.2-.1.1-.2-.2-.2-.3.1-.3 0-.7-.1-1h.1c-.2-.3 0-.6 0-1 0 0 .1-.1.1-.2-.2-.2-.2-.3-.3-.6 0-.2 0-.5.1-.7-.2-.8-.1-1.5-.2-2.3l.1-.1c-.3-.8 0-1.7-.2-2.4l.2.1c.1-.2-.1-.5-.2-.4.1-.2-.1-.5.1-.6 0-.2-.1-.3-.1-.4a1.7 1.7 0 0 0 0-1v.1h.1c-.1-.1 0-.5-.2-.4v-.7s-.1 0-.1.1l-.3-.3c-.2-.1-.3-.2-.5-.2 0-.1.1 0 0-.1-.1 0 0 .1-.2 0-.6-.2-1-.7-1.5-1-.9-.4-1.8-1-2.6-1.4-.4 0-.5-.5-.9-.4 0-.1-.2-.2-.1-.2a.76.76 0 0 1-.4-.2c-.1-.1-.2-.1-.2-.2 0 0-.1 0-.1-.1-.1-.2-.2 0-.3-.2v-.1c-.1-.2 0 .2-.2-.1l.1.2s-.1-.1-.2-.1v1c-.1.6-.4 0-.2.5.1.2-.3.3-.1.4.1-.1.1.1.2.1-.1.4-.2.5-.1.8h-.1c.2.4.1.8.3 1.1l.2 5.8v5.7c-.2.5-.2.5-.1 1h-.1c.2 0 0 .4.2.4v2.1c0-.1-.2-.2-.1 0l.1.1h.2l.5.3 1 .7c.7.5 1.4.9 2.1 1.3.3.3.9.5 1.3.7 1.1.9 2.1 1.6 3.4 2.2-.1.8-.5 1.1-1 .9z"/><path d="M45.1 35c.1 0 .1-.2.2-.1 0 .1-.1.1-.2.1zm.9-4.3c-.1 0 0 0 0 0s.1.1 0 0c0 .1 0 .1 0 0zm0-1.1c.1 0 .1.3.1.4l-.1-.4zm.3-1c.1-.1.1 0 0 0 .1.1 0 .1 0 0zm-.2 0c0-.1 0-.1.1-.2 0 0 .1.2-.1.2zm.2-2.3s-.1-.2 0-.2c0 .1.1.3 0 .2zm-.1-1c.1-.1.1-.1 0 0zm-7.6-15.1h.1v.1zm-2.8 5.1c0 .1-.1.1-.1.1 0-.1.1.1.1-.1zm.4 4.4h.1z"/></g><g class="E"><path d="M44.1 13.5s-.1.1 0 0zm-.1 5.3c-.4-.1 0-.1-.2-.2h.2c-.3-.1-.1-.2.1-.3h.1c-.3 0 0-.1-.1-.1h.1c-.2-.1-.2-.1-.2-.2.2 0-.1 0 0 0-.2 0 .1 0-.1 0h.1c-.2 0 .1 0 0 0 0 0 .1 0-.1 0h.2c-.2-.1-.1-.2-.1-.3h.1c.1 0-.2 0-.1 0h.1c.1 0-.2 0-.1 0h.1c-.2 0-.1-.1-.2-.1v-.1h.2-.3s.1 0 0-.1h.4s-.1 0 0 0c-.1 0-.3 0-.3-.1h.2-.4c-.1 0-.2 0-.3-.1-.1 0 .2 0 .1 0 .1 0-.2-.1 0-.1h-.1.1c-.1 0-.2-.1-.1-.1h-.1.1c-.1 0 .1.1 0 0 .1 0-.2 0 0 0 0 0-.1 0 0 0s-.1 0 .1 0h.1-.2c.1 0 0 0 .2-.1h-.1c.2 0-.1 0 .1-.1h.2c.2 0-.2 0-.1 0h-.2c.1 0-.1 0 .1 0-.1 0 .1 0-.1 0 .2 0-.1-.1.2-.1h-.1c-.1 0 .1 0 0 0h-.1.2c.1 0-.3 0-.2-.1h.2s-.1 0 0 0h-.2c.1 0-.1-.1.1-.1h-.1s-.1-.1.1-.1h.2c-.1 0 .1 0-.1 0h-.2v-.1h-.1.2c-.3 0-.3-.1-.3-.1h.1c.1 0-.1 0-.1 0h.2c.1 0-.1 0-.2 0s.1 0-.1 0c0 0 .1 0-.1 0h.3c.1 0-.1 0 0 0h-.1c.1 0-.2 0 0 0h-.1.2s-.2 0 0 0h-.2c-.1 0 .1 0-.1 0 .2 0 0 0-.1 0s.2 0 .2 0h.1-.2c-.1 0 .5 0 .2 0H43h.4c-.1 0-.1 0 0 0 0 0 .2 0-.1 0h-.1c.1 0-.2 0-.1 0h.2c.1 0-.1 0 .2 0 0 0-.1 0 0 0-.1 0-.1 0 .1 0h.1l-.2-.1h.2V16h-.4c-.1 0 .2 0 0 0h.4c-.1 0 .1 0 .1 0-.1 0-.2 0-.2-.1.2 0 0-.1 0-.1h.2s.1 0-.1 0h.3c-.1 0 0 0 0-.1h.2c-.1 0-.1 0 0 0h.4c-.2 0 .1 0 .1.1h-.2.2s0 .1-.1.1h-.1c.2 0 .1 0 .2.1-.1 0 .1.1-.1.1.1.1.2.1.1.2h-.2c.1 0-.1 0-.1 0h.2c-.1 0 0 .1.1.1h-.1c.2 0 0 0 0 .1h-.1.3l-.1.1c.2.1.1.1.2.2h-.5c.3.1 0 .1.2.2h-.2c-.1 0 0 0 .2 0-.1 0 .1 0-.1.1h.1c-.1 0-.1 0 0 .1h-.1.2c-.1 0 .1.1-.1.1h.1s-.1.1 0 .1h-.1.1c.1 0-.1.1-.1.1.1.1.1.2.1.3.2 0-.2.1.1.1h-.1c.1 0-.1.1 0 .1-.1 0 0 .1-.1.1h-.1c-.1 0 .2 0 0 0h.1c-.1.1.1.1.1.2h-.2c.1 0-.3 0-.1 0h.2c-.1 0-.2 0-.1.1h-.1c.2 0 .1.1.3.1 0 .2.2.3.2.5s.1.3-.1.5c-.2 0-.2 0-.1.1h-.1.2v.2h-.1.3c.1.2-.2.3-.2.5-.1 0 0 .1 0 .1-.2.1-.4.2-.2.4 0-1.9-.5-1.9-.6-2z"/><path d="M44.1 13.6h-.2.2zm-.8.3s-.1 0 0 0c-.1 0-.1 0 0 0-.1 0-.1 0 0 0zm-.1.1c-.1 0-.1 0 0 0zm-.3.1s-.1 0 0 0z"/><path d="M43.1 14.1s-.1 0 0 0zm-.2.2s-.1 0 0 0zm.1.1s-.1 0 0 0zm.3 1.6zm0 .7s-.1 0 0 0c-.1 0 0 0 0 0zm.4.4h.1zm1.6 18.6c0-.1 0-.1 0 0z"/><path d="M43.8 34.7c.2-.3 0 0 .2-.2 0 0-.1.2-.1.1.2-.2.1-.1 0 .1l.1-.1-.1.1.1-.1s-.1.1-.1.2l.1-.1c.2-.3 0 0 .1-.1v.1c.1-.2.1-.1.2-.2 0 0-.1.1-.1.2.1-.1.1-.1.1-.2-.1.1.1-.1 0 0 .1-.1 0 .1.1-.1v.1c.1-.2 0 .1 0 0 0 0 0 .1.1-.1-.1.1 0 0-.1.2l.1-.1c0 .1 0 .1-.1.1l.1-.1v.1l.1-.1s0 .1-.1.1l.1-.1v.1c.1-.1 0 0 0 0v.1c0 .1.1-.2.1-.1v.1l.1-.1-.1.2c.1-.2 0-.1.2-.2 0 0 0 .1 0 0 0 .1-.1.2-.1.2v.2s0-.1 0 0c.1-.1.2-.3.2-.3 0 .1-.1.2-.1.2l.2-.3s-.1.1 0 .1c0 0 0-.1.1-.1l-.1.1v.1s0-.1.1-.1c0 0 0 .1 0 0l.1-.1s0 .1-.1.1c.1-.1.1-.2.1-.2 0-.1-.1.1-.1.1 0 .1.1-.1 0 0 0 0 .1-.1 0-.1 0 0-.1.1 0 .1 0 .1 0 0 0 0s.1-.1.1 0l.1-.1-.1.1v.1c.1-.1-.1.1 0 0 0 .1.1-.1 0 0 0 0 .1-.1 0 0l-.1.1v-.1l.1-.1c0 .1 0 0-.1.1l-.1.1s.1-.1.1-.2v.1c.1-.2 0 0 .1-.1 0 .1 0 0-.1.1 0-.1.1-.1.1-.1v.1c0 .1 0 0 0 0s-.1.1-.1.2c0-.1.1-.2.1-.2-.1.2.1-.1 0 .1l-.1.1c-.1.2.1-.1 0 0l.1-.2c0 .1.1-.1 0 .1 0-.1 0 .1.1-.1-.1.1.1-.1-.1.2v-.1c0-.1 0 .1 0 0v-.1l-.1.2c0 .1.2-.3.1-.2v.1l.1-.1s-.1.1-.1.3l.1-.1-.1.1c0-.1 0-.1.1-.1 0-.1 0-.1.1-.1l.1-.1c-.1.1 0 .1 0 .1l.1-.1v.1s-.1.1 0 .1c0 0 .1-.2.1-.1 0 0 0 .1-.1.1v.1l.2-.2v.1c0 .1 0 0 0 0v-.1c0 .1-.2.4-.1.3l.1-.2c0 .1.1-.1 0 .1v-.1s.1-.1 0 .1l-.1.1c0-.1 0 .1 0-.1 0-.1.1-.1.1-.2v-.1c-.1.1-.1.2-.1.1v-.1.1s.1-.2.1-.1v.1c0-.1.1-.2.1-.1l-.1.1.1-.1c0 .1 0 .1-.1.2.2-.3.2-.3.2-.2v.1c0 .1.1-.1 0-.1 0 .1-.1.1-.1.2s.1-.1.1-.1c0-.1 0 0 0 0s0 .1 0-.1c0 0-.1.1-.1.2v-.1c-.1.1-.2.3-.3.4s-.1.1-.1.2c0-.1.2-.2.2-.3l.2-.3c0 .1 0 0-.1.1 0 .1 0 0 0 0l.1-.2c0 .1-.1.1-.1.1 0-.1.1-.1.1-.2.1-.2 0 0 .1-.1-.1.1-.2.3-.2.3.1-.1.1-.1.2-.3 0 0-.1.1-.1.2s.1-.2 0 0l.1-.1s0 .1-.1.1c0 0 .1-.1 0 0l.1-.1c0-.1-.1.1 0-.1-.1.1 0 0 0-.1v.1-.1s0 .1-.1.1l.1-.1s-.1.2-.1.1v.1s0 .1 0 0 .1-.2.2-.3c0 0-.1.1 0 0l-.2.2.1-.2s0 .1-.1.1c0 0 .1-.1.1-.2 0 .1-.1.1-.1.3l-.1.1c-.1.1 0 .1-.1.2.1-.2.2-.3.3-.5 0 0-.3.5-.1.2 0 0 .1-.2.1-.1 0 0 .1-.2.1-.1s-.1.2-.2.3c0-.1 0 0 0 0 0 .1-.1.2-.1.2l.1-.1c.1-.1 0 0 0-.1 0 0-.1.1 0-.1 0 0 0-.1.1-.2v.1c0 .1.1-.1.1-.1l-.1.1c-.1.1 0-.1-.1.1 0 0 .1-.1 0 0 0 0-.2.3-.1.1 0-.1 0-.1.1-.1l.1-.1c-.1.1 0 0-.1.2 0-.1 0-.1 0 0-.1.2 0 0-.1.1 0 0-.1.2-.2.3.1-.1.1-.1.1-.2l.1-.1-.1.2.2-.4s0 .1-.1.1c.1-.1-.1.1 0 0 0 0-.1.2-.2.3 0-.1-.1.1 0 .1 0-.1.1-.1.1-.1-.1.1 0 0 0 0 0 .1-.1.2-.1.3 0 0 .1-.2.1-.1 0 0 0 .1.1-.1l-.1.2-.1.1c-.1.1 0 0 0 0v-.1c0-.1 0 0 0 0l-.3.2c0 .1-.1.1 0 .1l-.2.2c0-.1.1-.1.1-.2s0-.1 0 0c-.1.1-.1.1-.1.2v.1s0-.1.1-.1l-.1.1c.1-.1-.1.1 0 0s.1-.2.2-.3v-.1c0 .1-.1.2-.2.3v-.1s-.1.2-.1.1v-.2c-.1.2 0 .1-.1.1 0-.1-.1.1 0-.1l-.1.1.1-.1c-.1.1 0-.1 0-.1-.1.1-.1.1-.1.2 0-.1 0 0-.1.1v-.1c-.1.2 0 0 0 0l.1-.1c-.1.1-.1.1-.1.2v-.1c-.1.2-.1 0-.2.2l.1-.1c-.2.2-.1 0-.1.1l.1-.2c0-.1 0 0-.1.2 0-.1-.1.1 0-.1 0 0 0 .1-.1.1 0-.1 0-.1 0 0l.1-.1s0-.1-.1.2c.1-.1-.1.1 0-.1 0 .1 0 .1-.1.1 0 0 0-.1 0 0l.1-.1s0 .1-.1.1c-.1.1 0-.1 0-.1-.1.1-.1 0-.1 0-.1.2.1-.2-.1.1v-.1c-.1.1 0-.1 0 0v-.2c0-.1-.1.2 0 0l-.1.1c0-.1-.1 0-.1.1 0-.1.2-.3.1-.2 0 0 0 .1 0 0 0 0 .1-.2.1-.1-.1.1 0 .1-.1.1 0-.1.1-.2 0-.1v-.1c-.1.2-.1.1-.2.3-.1 0-.2.1-.3.1 0-.1-.1 0-.1-.1.1-.2.1-.2 0-.1v-.1l-.1.1h-.1l.1-.1-.2.2c-.1.1 0-.2-.1-.2 0-.1 0 0 0 0 .1-.2.1-.4 0-.3.4-.1.6-.4.7-.5z"/><path d="M45.3 35.7c0-.1.1-.1.1-.2-.1 0-.1.1-.1.2zm.3-.8c0-.1 0-.1 0 0 0-.1 0 0 0 0zm0-.1c0-.1.1-.1.1-.1l-.1.1zm.1-.2c0-.1 0-.1 0 0 0-.1 0-.1 0 0zm-.1.1s.1-.1 0 0zm.1-.2s-.1 0 0 0c-.1 0 0-.1 0 0z"/><path d="M45.6 34.6s0-.1 0 0c0-.1 0-.1 0 0zm-.6-.1l-.1.1zm-.3-.1c0 .1.1 0 0 0zm-.2.3l-.1.1zm-5.2-13.2l4.5 2.6-22.6 13-4.5-2.5z"/></g><g class="D"><path d="M39.5 21.4c-.2-.1 0 .2-.2 0 .1-.1.2-.1.2 0z"/><path d="M38.5 21.8c-.5.7-1.5.9-2.1 1.5-.1.1-.1-.2-.2 0-.5.6-1.7 1.1-2.6 1.4v-.1c-.2 0-.3.3-.5.4v-.1c0 .1-.3.2-.3.3-.1 0-.1-.1-.2-.1v.2c-.1.4-.7.4-.9.7v-.1c-.5.5-1.2.9-1.8 1.3 0-.1 0-.1-.1-.2 0 .1-.1.3-.3.4-.2-.1-.2.3-.5.3-.1.2-.3 0-.3.3h-.2c0 .2-.3 0-.3.2-.1.1-.2.1-.3.1-.2.2-.4.2-.3.3-.2-.1.2-.2 0-.3-.8.6-1.6 1.1-2.5 1.6h-.3c-.1.1-.3.2-.3.3h-.1c-.2 0-.1.3-.3.3v-.2c-.1.2-.3.3-.4.4v-.1c-.1.2-.4.2-.5.3v-.1c-.3 0 0 .2-.2.3V31c-.1.3-.5.4-.7.6a3.04 3.04 0 0 0-.7.5c-.1 0-.1-.2-.3 0 .1.2-.4.3-.1.4-.2.1-.6.2-.7.4.1-.1-.2-.1 0-.3h-.2c0-.1.2-.1.1-.1-.1.1-.3.3-.4.3-.1.2-.2.5-.4.6.1-.1-.2-.1-.1-.2l-.2.5c-.1.1-.1-.1-.2 0v.1s-.3.2-.4.1c-.1 0 .1-.1 0-.1-.2.1-.1.1-.2.2-.1 0-.2.2 0 .2.1 0-.1 0 0-.1 0 .1 0 .2-.1.2 0 0-.1 0-.1-.1v.3c.2 0-.3 0-.1 0-.1 0-.1 0-.2.1.2.1.6.1.5.3h.1c.1 0-.1.1 0 .1-.1 0 .1 0 .2 0s0 0-.1 0c.1 0 .2 0 .3.1.1 0 .4.2.5.3h.4l-.1.1c0 .1.3.1.2.2.2 0-.7-.3-.4-.2 0 .1.4 0 .3.1.2.1.4 0 .5.2 0 0-.2.1-.1.1.2.1.1 0 .3 0h.1c.1-.1.2.1.2 0 0 .1.3.1.2.3l-.1.1c.1 0 .2 0 .3-.1v.1c.1-.1.1 0 .2 0 0 0 .1.1.1 0 0 .1.1.1.1.1h.1c.1-.1 0-.2.3-.3 0 0-.1.1 0 .1s.1-.1.2-.2h.4c.1-.1 0-.2 0-.3.2.1.3-.4.6-.3 0 .1-.2.2 0 .2.2.1.2-.3.5-.3l-.1-.1c.2 0 .3-.3.3-.1 0-.1.3-.1.2-.2.4-.1.8-.6 1.2-.4 0 0 .2-.1.1-.2-.1 0-.1.1-.2.1v-.1c.1 0 .2-.1.2.1.3 0 .1-.4.5-.5 0 .1.1.1.2 0l.1-.2c.2-.1.2.1.3.2.1-.1.2-.1.2-.3l.2.1c-.2 0 0-.1.1-.2v.1l.2-.1c0-.1-.2 0-.3 0 0-.1.1-.1.2-.2 0 .1.2 0 .3-.1.1 0 .1-.2.1-.2s.2-.1.1 0c0 0-.1 0-.1.1.1 0 .1.1.2 0s-.2-.2.1-.2v.2h.2V33c0-.1.3-.2.2-.3.1-.1.2 0 .3-.1.1 0 .3-.1.3-.2.1 0 .2-.1.2-.2.2 0 .3.3.3.1.2-.1.1-.3 0-.3.3-.1.5-.4.8-.4v-.1c.4-.2.8-.6 1.2-.6-.1.1 0 .1.1.1 0-.1.2 0 .1-.1s-.1-.1-.2-.1c.2-.2.6-.4.7-.4-.1 0 0-.1 0-.1.1.1.3.1.3 0v-.1h.1c0-.1 0-.2.1-.2 0 0 0 .1.1.1.1-.1.2-.4.4-.4h.2s.1-.2 0-.2c.3-.1.5-.1.6-.1.3-.5.9-.9 1.4-1.1v.1c.2 0 0-.1.1-.2 0 .1.2.1.1.2.2 0 .2-.3.3-.4 0-.1-.1.1-.1 0 0 0 .3-.1.3-.2.1 0 .1.1.1.2l.1-.1c.2.1-.2.5.1.5l.1-.1c.2.1-.2.3.1.2.1-.1.1-.4-.1-.4.2-.2-.1-.4.2-.5.1 0-.2.1-.1.2.2 0 .2-.2.3-.2-.2 0-.1-.2 0-.2.2 0 0 .2.2.1 0-.1.1-.3 0-.2 0-.2.2-.1.3-.3.1.1 0 .4.2.3-.1-.1.2-.3 0-.4.1 0 .2.1.1.2.2 0 .2-.4.3-.2v-.1h.2c.1-.1.2-.4.3-.2 0 0 .3-.2.1-.2s-.1.2-.3.1c.2.1.2-.1.3-.2v.1s.2-.1.2-.2c0 .1 0 .1.1.1v-.1c.2-.2.2.1.3 0l-.1.2s.2 0 .2-.1v-.4c.1-.1.1.1.2-.1l-.1.2s.2.1.3 0 .2-.3 0-.3h.2c.2-.1-.1-.1 0-.2h.5l-.1.2.1-.1c-.1.2.1.1.1.2.1 0 .1-.1.2-.2-.3-.1.1-.4-.1-.6.3-.2.4.4.6-.1-.1 0 0-.3-.2-.1.2-.1 0-.3.3-.3-.1.2.3.1.1.3 0-.1-.2 0-.2.1.1 0 .1.2.3.1.1-.1.2-.2.2-.3-.1-.1-.2.1-.2 0 .2-.2.3 0 .3-.3-.1.1-.2 0-.3-.1l.1-.1v.1c.3-.1 0-.2.3-.3l.2.1c0 .2-.4.1-.2.3.2-.1.2-.2.3-.3l-.1.1s.1 0 .2.1c.1 0 .2 0 .2-.1s0-.1-.1-.1c.1-.1 0-.1 0-.1.2.1.1 0 .3.1-.2 0-.2 0-.1.2.2.1-.1 0 0 .2.1-.1.3.1.4.2.1 0 .1-.1.1-.1-.1-.1-.1-.1-.2-.1.2-.1.2-.2.1-.3.1 0 .3 0 .2.1.1-.1.3-.2.5-.3-.3.1-.3-.1-.5 0 0 0-.3.1-.5 0h.2c-.2 0 .3 0-.1 0h.7c-.3-.1.2 0 .1-.1-.3-.1-.5-.1-.7-.2 0-.2-.4-.2-.6-.4-.1-.1.1-.2 0-.3-.2-.1 0 .2-.2 0-.1 0-.3-.3-.5-.1l.2-.1h-.1s0-.1.1-.1c-.1-.2-.3-.1-.5-.2v.1c-.3-.1-.4-.3-.7-.4l.1-.1h-.2c.1-.1 0-.2-.1-.2h.5c.1.1-.2 0-.2.2 0 .1.3.2.3.1-.1-.1-.1 0-.2 0 0-.1.2-.1.3-.1l-.1-.1c.1 0 .2 0 .4.1-.1 0 0 .1 0 .1.1-.1.2-.1.4.1 0 .2.4.1.6.3-.2.1-.3.1-.5.1.1.1.2.1.3.2.1 0 .2-.2.5-.1v.1c.2 0 .2-.1.5.1.4.3.9.6 1.2.8h-.1c.4 0 .7.3 1 .4l-.1.1c-.6.2-.9.6-1.3.7l-1 .7c-.3.2-.5.4-.9.5V26c-.1.2-.1 0-.2 0 .2 0-.1.2-.1.3-.3.1-.6.4-.8.6l-.1-.1c-.2.3-.5.3-.8.5-.1 0-.2-.1-.2 0-.1.2-.2.3-.4.5-.2.1-.5.2-.7.3-.5.6-1.3.9-1.9 1.4l-.1-.1c-.5.6-1.5.9-2 1.3v-.2c-.2 0-.4.3-.3.4-.2 0-.4.3-.6.3-.2.1-.2.2-.3.3-.4.1-.5.2-.9.5h.1c0-.1 0-.1-.1-.1-.1.1-.5.2-.3.4-.4.1-.8.6-1.3.6.1 0 0 .1 0 .2-.3.2-.7.3-.9.5-.1 0 0-.1-.1-.1-.1.1 0 .1 0 .2-.5.4-1.1.5-1.6.8-.8.6-1.7 1.1-2.5 1.5-.2.3-.7.2-.8.6-.1 0-.3.1-.3 0-.2.2-.7.2-.9.6l.1-.1c-.4.1-.6.4-1 .5l.1-.1c-.1 0-.1.1-.2.2s-.2.2-.3.1c-.1.1 0 .2 0 .1-.2.1-.4.2-.7.3-.3-.1-.5-.3-.8-.4s-.3-.2-.5-.3c-.3-.2-.7-.3-1-.5-.5-.4.2-.4-.3-.5 0-.1-.1.1 0 0-.2 0-.1-.4-.3-.3 0 .1-.1 0-.2.1-.5-.4-.4-.5-1-.7h.1c-.7-.2-1.1-.5-2-.8l-.1-.1 6.1-3.8 5-2.8c.5 0 .5-.1.9-.4v.1c-.1-.1.3-.2.3-.4.6-.3 1.2-.7 1.8-1.1-.1.1-.1.2 0 .1l.1-.2c.1-.1.1-.2 0-.2 1.5-1 3.3-1.7 4.8-2.6.4-.1.9-.5 1.3-.8 1.3-.5 2.5-1 3.6-1.8-.7.1-.6.6-1.1 1zm1.3-.3c0 .1.1.2 0 .3 0-.1-.1-.2 0-.3z"/><path d="M42.4 24h-.2.2zm-.1.3c-.1 0-.1-.1-.1-.1.1 0 .1 0 .1.1zm-.6 0c0-.1 0-.1 0 0 0-.1 0-.1 0 0zm.1.1s-.1-.1 0 0zm-1.9.9s-.1.1-.2.1c.1 0 .2-.2.2-.1zm-.8.6c-.1 0-.1 0 0 0-.2 0-.2-.1 0 0zM23 35.5l.1-.1v.1zm-4.9-1.1zm3.1-2.2l-.1-.2z"/></g><path d="M21.2 47.5V37.1l22.6-13v10.4z" class="E"/><g class="D"><path d="M20.9 47.3c0 .3.1-.1.1.2-.1 0-.1-.1-.1-.2zm1.2-.1c.5-.8 1.7-1 2.4-1.7.1-.1.1.2.3 0 .6-.7 2-1.3 3.1-1.6v.1c.2-.1.3-.4.5-.5v.1c0-.1.3-.3.4-.4.1 0 .1.1.3.1v-.2c.2-.5.8-.4 1.1-.8v.1c.6-.6 1.5-1 2.2-1.5 0 .1 0 .1.1.2 0-.1.2-.3.4-.5.2.1.3-.3.6-.4.1-.2.3-.1.4-.3h.2c0-.2.3-.1.4-.2s.2-.1.3-.2c.3-.2.5-.2.4-.4.2 0-.3.2 0 .3.9-.7 1.9-1.3 2.9-1.8h.3c.1-.1.4-.2.4-.4h.2c.2 0 .1-.3.3-.3-.1.1-.1.1 0 .2.1-.2.3-.3.5-.5 0 0-.1.1 0 .1.2-.3.4-.2.6-.4v.1c.4-.1 0-.2.3-.3v.1c.2-.3.6-.5.8-.7.3-.2.6-.3.8-.5.1 0 .1.2.3 0-.1-.1.5-.3.2-.4.3-.1.7-.3.8-.4 0 .1.3.1.1.2h.3c0 .1-.2.1-.1.1s.2-.1.3-.2V34c-.1-.3-.3-.5-.3-.8.1.2.2-.1.2 0l-.4-.5c0-.1.2 0 .1-.2l-.1-.1s0-.5.1-.5 0 .2.1.1c0-.2-.1-.2-.1-.4 0-.1-.1-.4-.2-.3 0 .1.1 0 .1.1-.1-.1-.1-.4-.1-.6 0 .1.1.1.1.1l-.3-.9c-.1 0 .2.1.1.2.1-.4-.2-.9 0-1.2 0 .1-.1 0-.1 0 0-.2.1-.2.1-.3.1 0 0-.2 0-.3s0 0 0 .1c-.1-.2-.2-.9-.1-1.4 0 0-.2-.3-.2-.4h.1c.1-.1 0-.3.1-.4-.1-.2.1.8 0 .5.1-.1-.2-.4 0-.3 0-.2-.1-.4 0-.6 0 .1.2.2.2 0 0-.3 0-.1-.1-.3v-.1c-.1 0 0-.1-.1 0 .1-.1-.1-.1.1-.3l.2-.1c0-.1-.2 0-.2 0s0-.1.1-.1c-.2.2 0-.2-.2 0v-.3s-.1 0-.1-.1c-.2.2-.2.3-.3.3 0 0 0-.1.1-.1 0 0-.1 0-.1.1 0 0-.1-.1-.3-.1-.1.1 0 .2 0 .3h-.1c-.1 0-.1.1-.2.1-.1.1-.2.2-.4.2 0-.1.2-.2 0-.2-.3-.1-.2.3-.5.4l.2.1c-.2 0-.3.3-.4.1 0 .1-.3.1-.2.3-.5.1-1 .7-1.4.5 0 .1-.2.1-.1.2.2 0 .1-.1.2-.1v.1c-.2 0-.3.1-.2-.1-.3.1-.1.4-.5.6 0-.1-.1-.1-.2 0l-.1.2c-.3.1-.2-.1-.3-.2-.1.1-.3.2-.3.3H38c.2 0-.1.1-.1.2v-.1l-.2.1c.1.1.2 0 .3 0 0 .1-.1.1-.2.2 0-.1-.3 0-.3.1-.1 0-.1.2-.1.2s-.2.1-.2 0c0 0 .1 0 .2-.1-.1 0-.2-.1-.3.1-.1.1.2.2-.1.3v-.2l-.2.1v.1c0 .1-.3.2-.3.4-.1.1-.3.1-.4.1-.2 0-.3.1-.4.3-.1 0-.2.1-.3.2-.2 0-.3-.3-.4-.1-.2.1-.2.3-.1.4-.3.1-.6.5-1 .5 0 .1 0 .1-.1.1-.5.2-.9.7-1.4.7.1-.1 0-.1-.1-.2-.1.1-.2 0-.1.2.1.1.1.1.2.1-.2.2-.7.4-.8.5.1 0 .1.1 0 .1-.1-.1-.3-.1-.4.1v.1H31c0 .1 0 .2-.2.2 0 0 0-.1-.1-.1-.1.2-.3.4-.5.4H30c-.1.1-.1.2 0 .2-.3.1-.5.2-.7.1-.3.5-1.1 1-1.7 1.3v-.1c-.2 0 0 .2-.2.2 0-.1-.2-.1-.1-.2-.3.1-.2.3-.3.4 0 .1.1-.1.1 0 0 0-.3.1-.3.3-.1 0-.1-.1-.1-.2l-.1.1c-.3 0 .2-.5 0-.6l-.1.1c-.2-.1.3-.3-.1-.2-.1.1-.1.4 0 .4-.3.2 0 .4-.3.5-.1 0 .2-.2.1-.2-.2 0-.3.2-.4.3.2 0 .1.2 0 .2-.2 0 0-.2-.2-.1 0 .1-.2.3 0 .2 0 .2-.3.1-.3.3-.1-.1.1-.4-.2-.3.1.1-.2.3 0 .4-.1 0-.2-.1-.1-.2-.2 0-.2.4-.4.2v.1h-.3c-.1.1-.3.4-.4.2 0 0-.3.2-.1.3.2 0 .1-.2.3-.1-.2-.1-.2.2-.3.3v-.1c0 .1-.2.1-.2.2 0-.1 0-.1-.1-.1v.1c-.2.2-.2-.1-.4 0l.1-.2s-.2 0-.3.1v.4c-.1.1-.1-.1-.2.1l.1-.2s-.2-.1-.4 0c-.1.1-.2.3 0 .3-.1 0-.2.1-.2 0-.2.1.1.1 0 .2h-.6v-.2l-.1.1c0-.2-.1-.1-.1-.2-.1 0-.1.1-.1.2.3.1.1.3.4.4 0 0-.5-.1-.2.1h.3s.1.1 0 .2c-.1-.2-.2.2-.4-.1.1 0 .1-.2 0-.2s-.2 0-.2.2c0 .1 0 .3.1.3s0-.2.1-.1c0 .3-.2.3.1.5 0-.2.1-.2.2-.2v.2h-.1c-.1.3.2.1.1.4l-.2.1c-.1-.1.1-.5-.2-.4 0 .2.1.3 0 .5V39c0 .1-.3.1-.1.5.1.2.1 0 .2 0 0 .3.1.5.1.7-.2 0 0 .4-.2.1.1-.1.1-.6-.1-.7-.2.1 0-.3-.2-.3 0 .3-.2.3-.3.3 0 .1 0 .1.1.2.1 0 .1-.1.3-.1 0 .3 0 .6.2.8-.1.1-.2.1-.2 0v1.1c.2-.2 0 .4.2.2 0-.2.2-.4.3-.2 0 .1-.1 0-.1 0 .1.1-.2.2 0 .4-.1-.3-.2-.1-.4-.1.1.2-.1 0-.1.2.1.2.2.5.2.8-.2.3 0 .8 0 1.1-.1.2-.3 0-.3.2s.2-.2.1.2c0 .1-.1.5.1.6l-.2-.1v.2c-.1 0-.1.1-.2 0-.1.2 0 .4 0 .6l.1-.1c.1.3 0 .6 0 .9h-.1l.1.2c-.1 0-.2.1-.1.2l-.3-.5c.1-.1.1.2.2.1s.1-.4 0-.4v.2c-.2 0-.2-.1-.3-.2v.2c-.1-.1-.1-.2-.1-.4.1.1.1-.1.1 0-.1 0-.2-.2-.1-.5.2-.2-.1-.5-.1-.8.1.1.3.3.3.4.1-.2 0-.2.1-.4-.1-.1-.3-.2-.3-.4h.1c0-.2-.2-.2-.2-.5 0-.5 0-.9.1-1.3h.1c-.2-.2-.1-.7-.2-.9.1-.5-.1-1 .1-1.2-.1-.8-.2-1.5-.1-2.3l.2.1c-.1-.1.1-.1.1-.3-.1.2-.2-.3-.2-.4V37c.3-.2.8-.5.9-.7l.1.1c.2-.3.6-.4 1-.6.1 0 .2.1.3 0 .1-.3.2-.3.5-.5.2-.1.6-.3.8-.3.7-.6 1.5-1 2.3-1.6l.1.1c.7-.7 1.7-1 2.3-1.5v.2c.2-.1.5-.3.3-.4.2-.1.5-.4.7-.3.2-.1.2-.2.4-.4.5-.2.6-.3 1-.5h-.1c0 .1 0 .1.1.1.1-.1.6-.3.3-.4.5-.1 1-.7 1.5-.8-.1 0 0-.1 0-.2.4-.2.8-.3 1.1-.6.1 0 0 .1.1.1.1-.1 0-.1 0-.2.5-.5 1.3-.6 1.8-1 .9-.7 2-1.2 2.9-1.8.2-.4.8-.3 1-.7.1 0 .3-.1.3 0 .2-.3.8-.3 1-.7l-.1.1c.1 0 .2-.1.3-.1l.4-.3c.3-.2.6-.4.9-.5-.1.1-.2.1-.2.2.2 0 .7-.6.7-.4.1-.1.2-.2.1-.2.2-.1.5-.3.7-.4v3.7c-.1.7-.4 0-.2.6.1.2-.3.4-.1.5.1-.1.1.1.2.1-.1.5-.2.5-.1.9h-.1c.2.4.1.9.3 1.3l.2 5-2.5 1.5-5.8 3.3c-.6.1-.6.1-1 .5v-.1c.1.2-.3.2-.3.4l-2.1 1.2c.1-.1.1-.2 0-.1l-.1.2c-.1.1-.2.2 0 .2-1.8 1.2-3.8 2-5.6 3-.5.2-1 .6-1.5.9-1.5.6-2.8 1.2-4.2 2.1.8.1.7-.4 1.3-.8z"/><path d="M20.9 47c.1-.1.1-.2.2-.1 0 0-.1.1-.2.1zm.9-5c-.1 0 0-.1 0 0zm0-1.3c.1 0 .1.3.1.5l-.1-.5zm.3-1.1c.1-.1.1-.1 0 0zm-.2-.1c0-.1 0-.1.1-.2 0 0 .1.2-.1.2zm.3-1.8s0-.1 0 0c0-.1.1.1 0 0zm.7-.6c.2 0 .1.1 0 0zM41.7 26l-.1.1V26zm1.5 4.9c0 .1-.1.1-.1.1 0-.1.1.1.1-.1zm-.9 4.2l.1.2z"/></g><path d="M29.4 25.8c.3 2.3-4.1 6.5-4.5 2.5-.3-2.2 4.1-6.5 4.5-2.5z" fill="#436685"/><g class="D"><path d="M29.7 25.8s-.1.1 0 0z"/><path d="M29.6 25.6c-.4-.1 0-.5-.4-.6 0 0 .2-.1.1-.1-.3-.1-.3-.4-.4-.8 0-.1-.2.1-.2 0V24c-.1.1-.1 0-.2.1v-.2l-.1.1c-.2.3-.2 0-.3.1V24c-.2.2-.4.2-.5.3 0 0 0-.1-.1-.2v.2c-.1-.1 0 .2-.1.1 0 .1-.1 0 0 .1l-.1-.1c.1.2-.1-.1-.1 0s-.1 0-.1 0c0 .1-.1 0 0 .1-.1-.1 0-.1-.1-.2-.1.3-.3.4-.5.6-.1 0-.1 0-.1-.1v.2h-.1c-.1 0 .1.2 0 .1 0 0 0-.1-.1-.1.1.1 0 .1 0 .2l-.1-.1c.1.1-.1 0-.1.1l-.1-.1c-.1 0 .1.1 0 .1l-.1-.1c.1.2 0 .2 0 .3s-.1.1-.1.2l-.2-.1c.2.1 0 .1.2.2-.1 0-.2.1-.1.1 0-.1-.2-.1-.2-.1h-.1c-.1 0 0 0 0-.1v.1a1.44 1.44 0 0 1 .2.3c0-.1-.2-.1-.2-.1l.3.3s-.1-.1-.1 0c0 0 .1 0 .1.1 0 0 0 .1-.2 0-.1 0 0 0-.1-.1v.1s0 .1.1.1c0 0-.1 0 0 0 .1.1.1.1.1.2 0 0-.1 0-.1-.1.1.1.1.2.2.3.1 0-.1-.1-.1-.1-.1 0 .1.2-.1.2-.1 0 0 0 0 .1s.1.2 0 .3l.2.1h-.1c-.1 0 0 .1-.1 0 .1.1-.1-.2 0-.1-.1 0 .2.1 0 .1 0 0 .1.1 0 .1h-.2l.1.1h.1c-.1 0 .1.1-.1.1h-.1c.2 0 0 0 .2.1-.1 0 0 .1-.1.1.1 0 .2 0 .1.1h-.1c-.1 0 0 0 0 0s-.1.1-.2.1h.3c-.2.1.2.1 0 .2h-.2c-.2.1.2 0 .1.1l.2-.1c-.1.1.1 0 0 .1.1 0 0 .1.1 0-.1.1.2.1-.1.3h.1c.1-.1-.1 0 0 0h.1s0 .1-.2.1c-.1.1.3-.1.3-.1-.1 0-.1.1-.1.1l.1-.1-.2.2h.1l-.1.1c.1-.1.1 0 .1-.1v-.1l.1-.1c-.1.1 0 .1 0 .1l.1-.1v.1s0-.1 0 0c0 0-.1.1 0 .1 0 0 .1-.2.1-.1 0 0 0 .1-.1.1v.1-.1c0-.1 0 0 .1-.1v.1c0 .1 0 0 0 0v-.1.3-.3c0 .1.1-.1.1 0v-.1c.1 0 .1-.2.2 0 0 0 0 .1.1.2 0-.1.1.1 0-.1 0-.1-.1-.1-.1-.2s.1-.1.2 0v-.1l.1.1v-.1l.1.1s-.1-.2 0-.1c0 0 0 .1.1.1v-.2l.1.1s0-.1-.1-.1c.1 0 .1 0 .2.1-.1-.3 0-.4.1-.5v.1c.1 0-.1-.1 0-.1 0 .1.1.1.2.2.1 0 0-.1 0-.2-.1-.1 0 .1 0 0 0 0 .1 0 0-.1l.2.2V28c.2.1.2.3.3.4s.1.2.2.2c0-.1-.2-.3-.2-.3 0-.1-.2-.3-.2-.3.1 0 0 0 .1.1s0-.1 0-.1c-.1 0-.2-.1-.2-.2.1 0 .1.1.1.1l-.1-.1c-.1-.1.1 0 0-.1l.3.3c-.1-.1-.1-.2-.3-.3 0 0 .1.1.2.1s-.1-.2.1 0l-.1-.1s.1 0 .1.1c0 0-.1-.2.1 0 0 0 0-.1-.1-.1s0 .1-.1 0c.1.1 0 0 0-.1h.1v-.1l.1.1-.1-.1c0-.1.2.1.2.1v.1h.1l-.2-.2s.1.1 0 0l.1.1s.2.1.2 0c0 0-.1-.2-.2-.2 0 0 .1 0 .1.1 0-.1-.1-.1-.1-.1.1 0 .2 0 .3.1l.1.1c.1.1.1 0 .2.1v-.1c-.2-.1-.2-.2-.4-.3 0-.1.5.3.2 0-.1 0-.2-.1-.2-.1s-.2-.1-.1-.1c.1.1.2.1.3.2-.1 0-.1 0 0 0s.2.1.2.1 0-.1-.1-.1c-.1-.1 0 0-.1 0 0-.1.2 0 0-.1 0 0-.1 0-.2-.1V27h.1c.1 0-.1-.1-.1-.1h.2c.1.1-.1 0 .1.1 0 0-.1-.1 0-.1 0 0 .3.1.2 0 0-.1-.1 0-.2-.1 0-.1-.1-.1-.1-.2.2.1 0-.1.2.1-.1 0-.1.1 0 .1.2.1 0 0 .1.1 0 0 .2 0 .3.1v-.1c-.1-.1-.1 0-.2-.1.1 0 0-.1-.1-.2.1 0 .2.1.2.1 0-.1 0-.1.1-.2-.2 0 0-.1-.2-.1 0 0-.2 0-.3-.1h.1c-.1-.1.2 0 0-.1 0 .1.2.1.4.2-.1-.1.1 0 .1 0-.1-.1-.1-.1-.1-.2.2 0 0-.2 0-.2h.2s.1-.1-.1-.1h.4c.1 0 0-.1 0-.1h-.1c-.1-.1 0-.1 0-.2h.2s.1.1.2.1c-.1 0-.1 0-.2-.1-.1.1-.1.2 0 .2.2 0 .2 0 .3.1.1 0 .1.1.1.1h-.1c.1 0 .2.1.1.1-.2 0 .1.1 0 .2-.1 0-.2-.1-.3-.1s0 0-.1.1c.1 0 .3.1.3.1h-.1c0 .1.2.1.2.1-.1.1-.1.2-.2.3h-.1c.2.1 0 .2.1.3-.1.1 0 .3-.2.2 0 .2 0 .4-.2.5l-.1-.1c.1.1-.1 0-.1 0 .1 0 .1.1.2.2-.1 0-.1.2-.1.3h-.1c.1.2-.1.2-.2.2 0 0-.1-.1-.1 0 .1.1.1.2.1.3 0 0-.1.1-.2.1 0 .3-.2.4-.3.6l-.1-.1c0 .3-.4.3-.4.6l-.1-.2c-.1 0-.1.1 0 .2-.1 0-.1.2-.2 0-.1 0 0 .1 0 .2-.2 0-.2 0-.3.1 0 0 0-.1-.1-.1 0 .1-.2 0 0 .2-.1 0-.2 0-.2.1-.1 0-.2.1-.3 0v.1c-.2 0-.3-.1-.4 0v-.1s0 .1-.1.1-.3 0-.4-.1-.2-.2-.3-.2-.2 0-.3-.1-.2-.1-.2-.2l-.2-.3c-.1-.1-.1-.2-.1-.2-.2 0 .1-.3-.2-.3 0 0 0-.1.1-.1-.2 0 .1-.2-.1-.3.1-.1-.1-.2 0-.3h.1c.1-.1-.2-.1 0-.1h-.1c0-.3-.1-.6-.1-.9.2-.2.4 0 .3-.1 0 0-.1 0 0 0 0-.1.3 0 .2-.1-.1 0-.1 0-.2-.1.1-.1.3-.1.2-.2h.1c-.2-.2 0-.2-.2-.4.2-.6.3-1.1.7-1.6.4-.4.7-.9 1.3-1.2.2.1.2.1.3-.1v.1c-.1-.1.1-.1 0-.2l.6-.3v.1-.3c.3-.2.8-.2 1.2-.1.2 0 .4.2.6.3s.3.3.5.4c.1.2.3.4.4.5 0 .6-.1.9.1 1.3-.4.4-.9.4-1 .2z"/><path d="M29.7 25.9c-.1 0-.1.1-.2 0 .1.1.2 0 .2 0zm-.9.9s-.1 0 0 0c-.1 0-.1 0 0 0-.1 0-.1 0 0 0zm-.2.2c-.1 0-.1-.1-.1-.1.1 0 .1.1.1.1zm-.3.1c-.1 0-.1 0 0 0-.1 0-.1 0 0 0zm.1.1s-.1-.1 0 0zm-.4.3s0 .1 0 0c0 0-.1-.1 0 0zm-.1.2c0 .1 0 0 0 0zm-2.3 1.1zm.1-1.7zm.2-1.1l-.1-.1z"/></g><path d="M39.3 11.2l4.5 2.6-22.6 13-4.5-2.6z" class="E"/><g class="D"><path d="M39.6 11c-.2-.1 0 .2-.2 0h.2z"/><path d="M38.5 11.4c-.5.7-1.5.9-2.1 1.5-.1.1-.1-.2-.2 0-.5.6-1.7 1.1-2.6 1.4v-.1c-.2 0-.3.3-.5.4v-.1c0 .1-.3.2-.3.3-.1 0-.1-.1-.2-.1v.2c-.1.4-.7.4-.9.7v-.1c-.5.5-1.2.9-1.8 1.3 0-.1 0-.1-.1-.2 0 .1-.1.3-.3.4-.2-.1-.2.3-.5.3-.1.2-.3 0-.3.3h-.2c0 .2-.3 0-.3.2-.1.1-.2.1-.3.1-.2.2-.4.2-.3.3-.2-.1.2-.2 0-.3-.8.6-1.6 1.1-2.5 1.6h-.3c-.1.1-.3.2-.3.3h-.1c-.2 0-.1.3-.3.3v-.2c-.1.2-.3.3-.4.4v-.1c-.1.2-.4.2-.5.3v-.1c-.3 0 0 .2-.2.3v-.1c-.1.3-.5.4-.7.6a3.04 3.04 0 0 0-.7.5c-.1 0-.1-.2-.3 0 .1.2-.4.3-.1.4-.2.1-.6.2-.7.4.1-.1-.2-.1 0-.3h-.2c0-.1.2-.1.1-.1-.1.1-.3.3-.4.3-.1.2-.2.5-.4.6.1-.1-.2-.1-.1-.2l-.2.5c-.1.1-.1-.1-.2 0v.1s-.3.2-.4.1c-.1 0 .1-.1 0-.1-.2.1-.1.1-.2.2-.1 0-.2.2 0 .2.1 0-.1 0 0-.1 0 .1 0 .2-.1.2 0 0-.1 0-.1-.1v.3c.2 0-.3 0-.1 0-.1 0-.1 0-.2.1.2.1.6.1.5.3h.1c.1 0-.1.1 0 .1-.1 0 .1 0 .2 0s0 0-.1 0c.1 0 .2 0 .3.1.1 0 .4.2.5.3h.4l-.1.1c0 .1.3.1.2.2.2 0-.7-.3-.4-.2 0 .1.4 0 .3.1.2.1.4 0 .5.2 0 0-.2.1-.1.1.2.1.1 0 .3 0h.1c.1-.1.2.1.2 0 0 .1.3.1.2.3l-.1.1c.1 0 .2 0 .3-.1v.1c.1-.1.1 0 .2 0 0 0 .1.1.1 0 0 .1.1.1.1.1h.1c.1-.1 0-.2.3-.3 0 0-.1.1 0 .1s.1-.1.2-.2h.4c.1-.1 0-.2 0-.3.2.1.3-.4.6-.3 0 .1-.2.2 0 .2.2.1.2-.3.5-.3l-.1-.1c.2 0 .3-.3.3-.1 0-.1.3-.1.2-.2.4-.1.8-.6 1.2-.4 0 0 .2-.1.1-.2-.1 0-.1.1-.2.1v-.1c.1 0 .2-.1.2.1.3 0 .1-.4.5-.5 0 .1.1.1.2 0l.1-.2c.2-.1.2.1.3.2.1-.1.2-.1.2-.3l.2.1c-.2 0 0-.1.1-.2v.1l.2-.1c0-.1-.2 0-.3 0 0-.1.1-.1.2-.2 0 .1.2 0 .3-.1.1 0 .1-.2.1-.2s.2-.1.1 0c0 0-.1 0-.1.1.1 0 .1.1.2 0s-.2-.2.1-.2v.2h.2v-.1c0-.1.3-.2.2-.3.1-.1.2 0 .3-.1.1 0 .3-.1.3-.2.1 0 .2-.1.2-.2.2 0 .3.3.3.1.2-.1.1-.3 0-.3.3-.1.5-.4.8-.4v-.1c.4-.2.8-.6 1.2-.6-.1.1 0 .1.1.1 0-.1.2 0 .1-.1s-.1-.1-.2-.1c.2-.2.6-.4.7-.4-.1 0 0-.1 0-.1.1.1.3.1.3 0v-.1h.1c0-.1 0-.2.1-.2 0 0 0 .1.1.1.1-.1.2-.4.4-.4h.2s.1-.2 0-.2c.3-.1.5-.1.6-.1.3-.5.9-.9 1.4-1.1v.1c.2 0 0-.1.1-.2 0 .1.2.1.1.2.2 0 .2-.3.3-.4 0-.1-.1.1-.1 0 0 0 .3-.1.3-.2.1 0 .1.1.1.2l.1-.1c.2.1-.2.5.1.5l.1-.1c.2.1-.2.3.1.2.1-.1.1-.4-.1-.4.2-.2-.1-.4.2-.5.1 0-.2.1-.1.2.2 0 .2-.2.3-.2-.2 0-.1-.2 0-.2.2 0 0 .2.2.1 0-.1.1-.3 0-.2 0-.2.2-.1.3-.3.1.1 0 .4.2.3-.1-.1.2-.3 0-.4.1 0 .2.1.1.2.2 0 .2-.4.3-.2v-.1h.2c.1-.1.2-.4.3-.2 0 0 .3-.2.1-.2s-.1.2-.3.1c.2.1.2-.1.3-.2v.1s.2-.1.2-.2c0 .1 0 .1.1.1v-.1c.2-.2.2.1.3 0l-.1.2s.2 0 .2-.1v-.4c.1-.1.1.1.2-.1l-.1.2s.2.1.3 0 .2-.3 0-.3h.2c.2-.1-.1-.1 0-.2h.5l-.1.2.1-.1c-.1.2.1.1.1.2.1 0 .1-.1.2-.2-.3-.1.1-.4-.1-.6.3-.2.4.4.6-.1-.1 0 0-.3-.2-.1.2-.1 0-.3.3-.3-.1.2.3.1.1.3 0-.1-.2 0-.2.1.1 0 .1.2.3.1.1-.1.2-.2.2-.3-.1-.1-.2.1-.2 0 .2-.2.3 0 .3-.3-.1.1-.2 0-.3-.1l.1-.1v.1c.3-.1 0-.2.3-.3l.2.1c0 .2-.4.1-.2.3.2-.1.2-.2.3-.3l-.1.1s.1 0 .2.1c.1 0 .2 0 .2-.1s0-.1-.1-.1c.1-.1 0-.1 0-.1.2.1.1 0 .3.1-.2 0-.2 0-.1.2.2.1-.1 0 0 .2.1-.1.3.1.4.2.1 0 .1-.1.1-.1-.1-.1-.1-.1-.2-.1.2-.1.2-.2.1-.3.1 0 .3 0 .2.1.1-.1.3-.2.5-.3-.3.1-.3-.1-.5 0 0 0-.3.1-.5 0h.2c-.2 0 .3 0-.1 0h.7c-.3-.1.2 0 .1-.1-.3-.1-.5-.1-.7-.2 0-.2-.4-.2-.6-.4-.1-.1.1-.2 0-.3-.2-.1 0 .2-.2 0-.1 0-.3-.3-.5-.1l.2-.1h-.1s0-.1.1-.1c-.1-.2-.3-.1-.5-.2v.1c-.3-.1-.4-.3-.7-.4l.1-.1h-.2c.1-.1 0-.2-.1-.2h.5c.1.1-.2 0-.2.2 0 .1.3.2.3.1-.1-.1-.1 0-.2 0 0-.1.2-.1.3-.1l-.1-.1c.1 0 .2 0 .4.1-.1 0 0 .1 0 .1.1-.1.2-.1.4.1 0 .2.4.1.6.3-.2.1-.3.1-.5.1.1.1.2.1.3.2.1 0 .2-.2.5-.1v.1c.2 0 .2-.1.5.1.4.3.9.6 1.2.8h-.1c.4 0 .7.3 1 .4l-.1.1c-.6.2-.9.6-1.3.7l-1 .7c-.3.2-.5.4-.9.5v-.2c-.1.2-.1 0-.2 0 .2 0-.1.2-.1.3-.3.1-.6.4-.8.6l-.1-.1c-.2.3-.5.3-.8.5-.1 0-.2-.1-.2 0-.1.2-.2.3-.4.5-.2.1-.5.2-.7.3-.5.6-1.3.9-1.9 1.4l-.1-.1c-.5.6-1.5.9-2 1.3v-.2c-.2 0-.4.3-.3.4-.2 0-.4.3-.6.3-.2.1-.2.2-.3.3-.4.1-.5.2-.9.5h.1c0-.1 0-.1-.1-.1-.1.1-.5.2-.3.4-.4.1-.8.6-1.3.6.1 0 0 .1 0 .2-.3.2-.7.3-.9.5-.1 0 0-.1-.1-.1-.1.1 0 .1 0 .2-.5.4-1.1.5-1.6.8-.8.6-1.7 1.1-2.5 1.5-.2.3-.7.2-.8.6-.1 0-.3.1-.3 0-.2.2-.7.2-.9.6l.1-.1c-.4.1-.6.4-1 .5l.1-.1c-.1 0-.1.1-.2.2s-.2.2-.3.1c-.1.1 0 .2 0 .1-.2.1-.4.2-.7.3-.3-.1-.5-.3-.8-.4s-.3-.2-.5-.3c-.3-.2-.7-.3-1-.5-.5-.4.2-.4-.3-.5 0-.1-.1.1 0 0-.2 0-.1-.4-.3-.3 0 .1-.1 0-.2.1-.5-.4-.4-.5-1-.7h.1c-.7-.2-1.1-.5-2-.8l-.1-.1 6.1-3.8 5-2.8c.5 0 .5-.1.9-.4v.1c-.1-.1.3-.2.3-.4.6-.3 1.2-.7 1.8-1.1-.1.1-.1.2 0 .1l.1-.2c.1-.1.1-.2 0-.2 1.5-1 3.3-1.7 4.8-2.6.4-.1.9-.5 1.3-.8 1.3-.5 2.5-1 3.6-1.8-.7.2-.6.6-1.1 1z"/><path d="M39.8 11.2c0 .1.1.2 0 .3v-.3zm2.7 2.5s-.1 0 0 0h-.2.2zm-.2.2c-.1 0-.1-.1-.1-.1.1 0 .1.1.1.1zm-.6 0s0-.1 0 0zm.1.2s0-.1 0 0c0 0 0-.1 0 0zm-1.9.8s-.1.1-.2.1c.1 0 .2-.2.2-.1zm-.8.6c-.1 0-.1 0 0 0-.2.1-.2 0 0 0zM23 25.2l.1-.1zm-4.9-1.1h.2c-.1 0-.1-.1-.2 0zm3.1-2.3v-.1z"/></g><path d="M43.8 19v-5.2l-22.6 13V32z" class="E"/><g class="D"><path d="M43.5 18.8c0 .2.1-.1.1.1-.1 0-.1 0-.1-.1z"/><path d="M43 19.2c-.5.7-1.5.9-2.1 1.5-.1.1-.1-.2-.2 0-.5.6-1.7 1.1-2.6 1.4V22c-.2 0-.3.3-.5.4v-.1c0 .1-.3.2-.3.3-.1 0-.1-.1-.2-.1v.2c-.1.4-.7.4-.9.7v-.1c-.5.5-1.2.9-1.8 1.3 0-.1 0-.1-.1-.2 0 .1-.1.3-.3.4-.2-.1-.2.3-.5.3-.1.2-.3 0-.3.3H33c0 .2-.3 0-.3.2-.1.1-.2.1-.3.1-.2.2-.4.2-.3.3-.2-.1.2-.2 0-.3-.8.6-1.6 1.1-2.5 1.6h-.3c-.1.1-.3.2-.3.3h-.1c-.2 0-.1.3-.3.3v-.2c-.1.2-.3.3-.4.4V28c-.1.2-.4.2-.5.3v-.1c-.3 0 0 .2-.2.3v-.1c-.1.3-.5.4-.7.6a3.04 3.04 0 0 0-.7.5c-.1 0-.1-.2-.3 0 .1.2-.4.3-.1.4-.2.1-.6.2-.7.4.1-.1-.2-.1 0-.3h-.2c0-.1.2-.1.1-.1-.1.1-.3.3-.4.3-.1.2-.2.5-.4.6.1-.1-.2-.1-.1-.2l-.2.5c-.1.1-.1-.1-.2 0v.1s-.3.3-.5.1c-.1 0 .2-.1 0-.1-.2.1-.2.2-.3.3-.1 0-.4.3-.2.3.1 0 0-.1.1-.1-.1.2-.3.4-.6.5.1-.1.1-.1.1-.2-.3.4-.7.6-1.1.9-.1.1.3-.3.3-.3-.1 0-.1 0-.2.1 0-.4-.2-.6 0-1.1 0 0-.1.2-.1.1 0-.3.1-.4.1-.5.1-.1 0-.2 0-.3s0-.1 0 .1c0-.1-.1-.4-.1-.7v-.7s-.2-.2-.2-.3h.1c.1-.1 0-.3.1-.3-.1-.2.1.7 0 .5.1-.1-.2-.3 0-.3 0-.2-.1-.3 0-.5 0 0 .2.1.2 0 0-.2 0-.1-.1-.3v-.1c-.1 0 0-.2-.1-.1.1 0-.1-.4.1-.3h.2c0-.1-.2-.2-.2-.3h.1c-.1 0-.1 0-.1-.2 0-.1 0-.2-.1-.4v-.5c.2-.1.3-.2.5-.2.2-.2.4-.4.5-.4 0 0-.1.1 0 .1s.1-.1.2-.2h.4c.1-.1 0-.2 0-.3.2.1.3-.4.6-.3 0 .1-.2.2 0 .2.2.1.2-.3.5-.3l-.1-.1c.2 0 .3-.3.3-.1 0-.1.3-.1.2-.2.4-.1.8-.6 1.2-.4 0 0 .2-.1.1-.2-.1 0-.1.1-.2.1v-.1c.1 0 .2-.1.2.1.3 0 .1-.4.5-.5 0 .1.1.1.2 0l.1-.2c.2-.1.2.1.3.2.1-.1.2-.1.2-.3l.2.1c-.2 0 0-.1.1-.2v.1l.2-.1c0-.1-.2 0-.3 0 0-.1.1-.1.2-.2 0 .1.2 0 .3-.1.1 0 .1-.2.1-.2s.2-.1.1 0c0 0-.1 0-.1.1.1 0 .1.1.2 0s-.2-.2.1-.2v.2h.2v-.1c0-.1.3-.2.2-.3.1-.1.2 0 .3-.1.1 0 .3-.1.3-.2.1 0 .2-.1.2-.2.2 0 .3.3.3.1.2-.1.1-.3 0-.3.3-.1.5-.4.8-.4v-.1c.4-.2.8-.6 1.2-.6-.1.1 0 .1.1.1 0-.1.2 0 .1-.1s-.1-.1-.2-.1c.2-.2.6-.4.7-.4-.1 0 0-.1 0-.1.1.1.3.1.3 0V20h.1c0-.1 0-.2.1-.2 0 0 0 .1.1.1.1-.1.2-.4.4-.4h.2s.1-.2 0-.2c.3-.1.5-.1.6-.1.3-.5.9-.9 1.4-1.1v.1c.2 0 0-.1.1-.2 0 .1.2.1.1.2.2 0 .2-.3.3-.4 0-.1-.1.1-.1 0 0 0 .3-.1.3-.2.1 0 .1.1.1.2l.1-.1c.2.1-.2.5.1.5l.1-.1c.2.1-.2.3.1.2.1-.1.1-.4-.1-.4.2-.2-.1-.4.2-.5.1 0-.2.1-.1.2.2 0 .2-.2.3-.2-.2 0-.1-.2 0-.2.2 0 0 .2.2.1 0-.1.1-.3 0-.2 0-.2.2-.1.3-.3.1.1 0 .4.2.3-.1-.1.2-.3 0-.4.1 0 .2.1.1.2.2 0 .2-.4.3-.2v-.1h.2c.1-.1.2-.4.3-.2 0 0 .3-.2.1-.2s-.1.2-.3.1c.2.1.2-.1.3-.2v.1s.2-.1.2-.2c0 .1 0 .1.1.1V16c.2-.2.2.1.3 0l-.1.2s.2 0 .2-.1v-.4c.1-.1.1.1.2-.1l-.1.2s.2.1.3 0 .2-.3 0-.3h.2c.2-.1-.1-.1 0-.2h.5l-.1.2.1-.1c-.1.2.1.1.1.2.1 0 .1-.1.2-.2-.3-.1.1-.4-.1-.6.3-.2.4.4.6-.1-.1 0 0-.3-.2-.1.2-.1 0-.3.3-.3-.1.2.3.1.1.3 0-.1-.2 0-.2.1.1 0 .1.2.3.1.1-.1.2-.2.2-.3-.1-.1-.2.1-.2 0 .2-.2.3 0 .3-.3-.1.1-.2 0-.3-.1l.1-.1v.1c.3-.1 0-.2.3-.3l.2.1c0 .2-.4.1-.2.3.2-.1.2-.2.3-.3l-.1.1s.1 0 .2.1c.1 0 .2 0 .3-.2.2-.2 0-.1 0-.2.4-.3.6-.5.9-.6-.1.2.5-.3.2.1-.1 0-.8.4-.9.6.2.1-.3.2-.3.4.3-.2.3 0 .4.1.1 0 .1-.1.2-.2 0-.1-.1-.1-.1-.2.3-.1.6-.4.9-.7.1 0 0 .2-.1.3.4-.3.8-.5 1-.6v.1c.2-.6 0 .4.2 0 0-.3.2-.8.3-.8 0 .2-.1.1-.1.3.1 0-.2.6 0 .5-.1-.4-.2.3-.4.4.1.1-.1.1-.1.4.1.1.2.4.2.7-.2.5 0 1 0 1.3-.1.1-.3 0-.3.2s.2-.1.1.1c0 .1-.1.5.1.5l-.2-.1v.1c-.1 0-.1.1-.2 0-.1.2 0 .3 0 .5l.1-.1c.1.3 0 .5 0 .8h-.1l.1.2c-.1 0-.2.1-.1.2l-.3-.4c.1-.1.1.1.2.1.1-.1.1-.3 0-.4v.2c-.2 0-.2-.1-.3-.2v.1c-.1-.1-.1-.2-.1-.4.1.1.1-.1.1 0-.1 0-.2-.2-.1-.4.2-.1-.1-.4-.1-.6.1.1.3.2.3.4.1-.1 0-.2.1-.3-.1-.1-.3-.1-.3-.3h.1c0-.2-.2-.2-.2-.4 0-.3 0-.6.1-.8l.1-.1c-.2.1-.1-.2-.2-.3 0 0-.1 0-.1.1-.2 0-.5.4-.6.2-.1.1-.2.2-.3.2l-.1.1-.2.1c-.3.2-.5.4-.9.5v-.2c-.1.2-.1 0-.2 0 .2 0-.1.2-.1.3-.3.1-.6.4-.8.6l-.1-.1c-.2.3-.5.3-.8.5-.1 0-.2-.1-.2 0-.1.2-.2.3-.4.5-.2.1-.5.2-.7.3-.5.6-1.3.9-1.9 1.4l-.1-.1c-.5.6-1.5.9-2 1.3v-.2c-.2 0-.4.3-.3.4-.2 0-.4.3-.6.3-.2.1-.2.2-.3.3-.4.1-.5.2-.9.5h.1c0-.1 0-.1-.1-.1-.1.1-.5.2-.3.4-.4.1-.8.6-1.3.6.1 0 0 .1 0 .2-.3.2-.7.3-.9.5-.1 0 0-.1-.1-.1-.1.1 0 .1 0 .2-.5.4-1.1.5-1.6.8-.8.6-1.7 1.1-2.5 1.5-.2.3-.7.2-.8.6-.1 0-.3.1-.3 0-.2.2-.7.2-.9.6l.1-.1c-.4.1-.6.4-1 .5l.1-.1c-.1 0-.1.1-.2.2 0 .1 0 .1-.1 0l.1.1s-.1 0-.2.1v.7c0 .4.1.7.1 1.1-.1.6-.4 0-.2.5.1.2-.3.3-.1.4.1-.1.1.1.2.1-.1.1-.2.3-.1.4H22c.2 0 .1.3.3 0-.2.1 2.1-1.4 3.6-2.3l5-2.8c.5 0 .5-.1.9-.4v.1c-.1-.1.3-.2.3-.4.6-.3 1.2-.7 1.8-1.1-.1.1-.1.2 0 .1l.1-.2c.1-.1.1-.2 0-.2 1.5-1 3.3-1.7 4.8-2.6.4-.1.9-.5 1.3-.8 1.3-.5 2.5-1 3.6-1.8-.3.2-.2.7-.7 1.1zm.5-.7c.1 0 .1-.2.2-.1 0 .1-.1.2-.2.1z"/><path d="M44.3 13.5v-.2c.1.1.2.1 0 .2zm-.8-.3c0-.1.4-.4.6-.5l-.6.5zm-1.4.5c-.2 0-.1 0 .1-.1l-.1.1z"/><path d="M42 13.9c-.1.1-.2.1-.3.1.1.1.3-.2.3-.1zm-2.1 1s-.1.1-.2.1c.1 0 .2-.2.2-.1zm-.8.6c-.1 0-.1 0 0 0-.2.1-.2 0 0 0zM23 25.2l.1-.1zm-1.4 7.2c.1-.1 0 .1 0 0-.1.1.1-.1 0 0zm4.1-2.8l-.1-.1z"/></g><path d="M22.8 48.4V27.7l-9-5.2v20.7z" class="E"/><g class="D"><path d="M22.5 48.3c0 .2.1-.1.1.2-.1-.1-.1-.1-.1-.2zm-.3-.4c-.8 0-1.5-.9-2.3-1-.1 0 .1-.2-.1-.2-.8-.1-1.8-.9-2.5-1.6h.1c-.1-.1-.4-.1-.6-.2 0 0 .1 0 .1-.1-.1.1-.3-.1-.4-.1v-.3l-.2.1c-.4.1-.6-.4-1.1-.5 0 0 .1 0 .1-.1-.5-.1-1-.4-1.5-.7v-.6h.2c-.1 0-.2-.3-.2-.5.2-.1-.1-.3 0-.6-.2-.2.1-.3-.1-.4l.1-.1c-.2-.1.1-.3 0-.4v-.3c0-.3.1-.5-.1-.5.1-.1.1.3.2.1-.2-1-.1-2-.1-2.9.1-.1.1-.2.1-.2 0-.1 0-.4-.1-.5l.1-.1c.1-.2-.2-.2-.1-.4 0 .1.1.1.2.1-.1-.2-.1-.4-.2-.6 0 0 0 .1.1.1-.1-.2 0-.4-.1-.6l.1.1c.1-.3-.2-.1-.1-.4 0 .1.1 0 .1 0-.2-.2-.1-.6-.2-.9v-.8c0-.1.2 0 .2-.3-.2 0-.1-.5-.3-.3 0-.2.1-.6 0-.8.1.1.2-.1.2.1l.1-.1c.1 0 0 .2.1.1 0-.1-.1-.4 0-.5-.1-.2-.3-.4-.3-.7.1.1.2-.1.2 0l-.4-.4c0-.1.2 0 .1-.2l-.1-.1s0-.4.1-.5c.1 0 0 .2.1 0 0-.2-.1-.2-.1-.4 0-.1-.1-.4-.2-.2 0 .1.1 0 .1.1-.1-.1-.1-.3-.1-.5 0 .1.1.1.1.1l-.3-.8c-.1 0 .2.1.1.1.1-.4-.2-.7 0-1h-.1c0-.2.1-.2.1-.3.1 0 0-.1 0-.3 0-.1 0 0 0 .1-.1-.2-.2-.8-.1-1.2 0 0-.2-.2-.2-.3h.1c.1-.1 0-.3.1-.3-.1-.2.1.7 0 .5.1-.1-.2-.3 0-.3 0-.2-.1-.3 0-.5 0 .1.2.2.2 0 0-.3 0-.1-.1-.4v-.2c-.1-.1 0-.3-.1-.2.1 0-.1-.6.1-.4l.2.2c0-.1-.2-.4-.2-.5h.1c-.2-.3 0-.3-.2-.8v-.5c.2.1.3.2.5.4.2 0 .3 0 .6.2h-.1c.2.2.2.1.3.1l.5.5c.2 0 .2-.1.2-.2.1.3.7.2.7.5-.1 0-.3 0-.2.1 0 .3.3 0 .5.2v-.2c0 .1.4.1.3.2.1 0 .2.2.3 0 .3.3.9.4 1 .8.1 0 .2.1.2 0s-.2 0-.2-.1h.1c.1.1.2.2 0 .2.2.2.4-.1.7.1 0 .1 0 .1.1.1h.2c.2.1 0 .2 0 .3.1 0 .3.1.3.1v.2c0-.1.1 0 .2 0h-.1c0 .1.1.1.2.1 0-.1-.1-.2-.1-.2h.3c-.1.1.1.2.2.2.1.1.2 0 .2 0 0 .1.2.1 0 .1 0 0 0-.1-.1-.1 0 .1 0 .2.2.2.1 0 .1-.2.3 0h-.2l.2.2.1-.1v.1c.1-.1.3.1.4 0 .1 0 .2.2.2.2.1.1.2.2.4.1 0 0 .2.1.3.1.1.2-.2.4.1.4.2.1.3 0 .3-.1a.76.76 0 0 0 .4.2c.1 0 .4.2.5.4h.2l.3.2v1c0 .2 0 .4-.1.5 0-.1-.1 0-.2 0 .1.1-.1.1.1.2.1 0 .2 0 .2-.1v.8c0-.1.1 0 .1 0-.2 0-.2.2-.1.3h.1l-.1.1c0 .1.2.1.1.2h-.1c.1.1.2.4.1.5l-.1.1c0 .1.1.2.1.1-.1.3-.1.5-.2.6.3.5.3 1.2.3 1.8h-.1c-.1.1.1.1.1.2-.1 0-.2.1-.2 0-.1.2.1.3.2.4.1 0-.1-.1.1-.1 0 0-.1.3.1.3-.1.1-.2 0-.2 0l.1.1c-.2.2-.3-.4-.5-.2v.1c-.2.1-.2-.3-.2 0 .1.1.3.3.3.1 0 .3.3.1.3.4-.1.1 0-.2-.1-.2-.1.1.1.3 0 .4.1-.1.2 0 .2.1-.1.1-.1-.1-.2.1.1 0 .2.2.2.1.2.1 0 .2.1.3-.1.1-.3-.2-.4 0 .1 0 .2.3.4.2 0 .1-.1.1-.2 0-.1.1.2.3 0 .4h.1l-.2.2c0 .1.2.4 0 .4 0 0 0 .3.2.2.1-.2-.1-.2.1-.3-.2.1 0 .2.1.3h-.1c0 .1 0 .2.1.2h-.1l.1.1c.1.2-.2.1-.2.3l-.1-.2s-.1.1 0 .2c.1 0 .2.1.3.2 0 .1-.1.1 0 .2l-.1-.2s-.2.1-.2.3c0 .1.2.3.3.1 0 .1-.1.2-.1.1 0 .2.1 0 .2.1-.1.1-.2.3-.3.4l-.2-.2v.1c-.1-.1-.1.1-.3 0 0 .1 0 .2.1.3.2-.2.3.3.5.2.1.3-.5.2-.2.5.1 0 .2.1.2-.1 0 .2.2.1.1.4-.1-.2-.2.2-.4-.1.1 0 .1-.1 0-.2-.1.1-.2 0-.2.2 0 .1 0 .3.1.3s0-.2.1-.1c0 .3-.2.3.1.4 0-.2.1-.2.2-.2v.2H24c-.1.3.2.1.1.4l-.2.1c-.1-.1.1-.4-.2-.4 0 .2.1.2 0 .4v-.1c0 .1-.3.1-.1.4.1.1.1 0 .2 0 0 .3.1.4.1.6-.2 0 0 .3-.2.1.1-.1.1-.5-.1-.6-.2.1 0-.2-.2-.3 0 .2-.2.2-.3.3 0 .1 0 .1.1.2.1 0 .1-.1.3-.1 0 .3 0 .5.2.7-.1.1-.2.1-.2 0v1c.2-.2 0 .3.2.2 0-.2.2-.3.3-.2 0 .1-.1 0-.1 0 .1.1-.2.2 0 .3-.1-.3-.2-.1-.4-.1.1.2-.1 0-.1.2.1.2.2.5.2.7-.2.3 0 .7 0 1-.1.1-.3 0-.3.2s.2-.1.1.1c0 .1-.1.5.1.5l-.2-.1v.1c-.1 0-.1.1-.2 0-.1.2 0 .3 0 .5l.1-.1c.1.3 0 .5 0 .8h-.1l.1.2c-.1 0-.2.1-.1.2l-.3-.4c.1-.1.1.1.2.1.1-.1.1-.3 0-.4v.2c-.2 0-.2-.1-.3-.2v.1c-.1-.1-.1-.2-.1-.4.1.1.1-.1.1 0-.1 0-.2-.2-.1-.4.2-.2-.1-.4-.1-.6.1.1.3.2.3.4.1-.2 0-.2.1-.3-.1-.1-.3-.1-.3-.3h.1c0-.2-.2-.2-.2-.4 0-.4 0-.8.1-1.1h.1c-.2-.2-.1-.6-.2-.8.1-.4-.1-.8.1-1-.1-.7-.2-1.3-.1-2l.2.1c-.1-.1.1-.1.1-.2-.1.1-.2-.2-.2-.3.1-.3 0-.7-.1-1h.1c-.2-.3 0-.6 0-1 0 0 .1-.1.1-.2-.2-.2-.2-.3-.3-.6 0-.2 0-.5.1-.7-.2-.8-.1-1.5-.2-2.3l.1-.1c-.3-.8 0-1.7-.2-2.4l.2.1c.1-.2 0-.5-.2-.4.1-.2-.1-.5.1-.6 0-.2-.1-.3-.1-.4a1.7 1.7 0 0 0 0-1v.1h.1c-.1-.1 0-.5-.2-.4v-.7s-.1 0-.1.1l-.3-.3c-.2-.1-.3-.2-.5-.2 0-.1.1 0 0-.1-.1 0 0 .1-.2 0-.6-.2-1-.7-1.5-1-.9-.4-1.8-.9-2.6-1.4-.4 0-.5-.5-.9-.4 0-.1-.2-.2-.1-.2a.76.76 0 0 1-.4-.2c-.1-.1-.2-.1-.2-.2 0 0-.1 0-.1-.1h-.1c-.1-.2-.2 0-.3-.2v-.1c-.1-.2 0 .2-.2-.1l.1.2s-.1-.1-.2-.1v1c-.1.6-.4 0-.2.5.1.2-.3.3-.1.4.1 0 .1.1.2.1-.1.4-.2.5-.1.8h-.1c.2.4.1.8.3 1.1l.2 5.8-.1 5.7c-.2.5-.2.5-.1 1h-.1c.2 0 0 .4.2.4V42c0-.1-.2-.2-.1 0l.1.1h.2l.5.3 1 .7c.7.5 1.4.9 2.1 1.3.3.3.9.5 1.3.7 1.1.9 2.1 1.7 3.3 2.2.2.5-.2.8-.8.6z"/><path d="M22.5 48c.1 0 .1-.2.2-.1 0 0-.1.1-.2.1zm.9-4.3c-.1 0 0 0 0 0s.1.1 0 0c0 0 0 .1 0 0zm0-1c.1 0 .1.3.1.4l-.1-.4zm.3-1.1c.1-.1.1 0 0 0 .1.1 0 .1 0 0zm-.2 0c0-.1 0-.1.1-.2 0 0 .1.2-.1.2zm.3-2.2s-.1-.2 0-.2c-.1 0 .1.2 0 .2zm-.2-1.1c.1-.1.1-.1 0 0zm-7.5-15.1h.1v.1zm-2.9 5.2c0 .1-.1.1-.1.1.1-.2.1 0 .1-.1zm.4 4.4v-.1h.1z"/></g><g class="E"><path d="M21.5 26.5s-.1 0 0 0zm-.1 5.3c-.4-.1 0-.1-.2-.2h.2c-.3-.1-.1-.2.1-.3h.1c-.3 0 0-.1-.1-.1h.1c-.2-.1-.2-.1-.2-.2.2 0-.1 0 0 0-.2 0 .1 0-.1 0h.1c-.2 0 .1 0 0 0 0 0 .1 0-.1 0h.2c-.2-.1-.1-.2-.1-.3h.1c.1 0-.2 0-.1 0h.1c.1 0-.2 0-.1 0h.1c-.2 0-.1-.1-.2-.1v-.1h.2-.3s.1 0 0-.1h.4s-.1 0 0 0c-.1 0-.3 0-.3-.1h.2-.4c-.1 0-.2 0-.3-.1-.1 0 .2 0 .1 0 .1 0-.2-.1 0-.1h-.1.1c-.1 0-.2-.1-.1-.1h-.1.1c-.1 0 .1.1 0 0 .1 0-.2 0 0 0 0 0-.1 0 0 0s-.1 0 .1 0h.1-.2c.1 0 0 0 .2-.1h-.1c.2 0-.1 0 .1-.1h.2c.2 0-.2 0-.1 0h-.2c.1 0-.1 0 .1 0-.1 0 .1 0-.1 0 .2 0-.1-.1.2-.1H21c-.1 0 .1 0 0 0h-.1.2c.1 0-.3 0-.2-.1h.2s-.1 0 0 0h-.2c.1 0-.1-.1.1-.1h-.1s-.1-.1.1-.1h.2c-.1 0 .1 0-.1 0h-.2v-.1h-.1.1-.3c-.3 0-.3-.1-.3-.1h.1c.1 0-.1 0-.1 0h.2c.1 0-.1 0-.2 0s.1 0-.1 0c0 0 .1 0-.1 0h.3c.1 0-.1 0 0 0h-.1c.1 0-.2 0 0 0h-.1.2s-.2 0 0 0h-.2c-.1 0 .1 0-.1 0 .2 0 0 0-.1 0s.2 0 .2 0h.1-.2c-.1 0 .5 0 .2 0H20h.4c-.1 0-.1 0 0 0 0 0 .2 0-.1 0h-.1c.1 0-.2 0-.1 0h.2c.1 0-.1 0 .2 0 0 0-.1 0 0 0-.1 0-.1 0 .1 0h.1l-.2-.1h.2V29h-.4c-.1 0 .2 0 0 0h.4c-.1 0 .1 0 .1 0-.1 0-.2 0-.2-.1.2 0 0-.1 0-.1h.2s.1 0-.1 0h.3c-.1 0 0 0 0-.1h.2c-.1 0-.1 0 0 0h.4c-.2 0 .1 0 .1.1h-.1s0 .1-.1.1h-.1c.2 0 .1 0 .2.1-.1 0 .1.1-.1.1.1.1.2.1.1.2h-.2c.1 0-.1 0-.1 0h.2c-.1 0 0 .1.1.1h-.1c.2 0 0 0 0 .1h-.1.3l-.1.1c.2.1.1.1.2.2h-.1c.3.1 0 .1.2.2h-.2c-.1 0 0 0 .2 0-.1 0 .1 0-.1.1h.1c-.1 0-.1 0 0 .1h-.1.2c-.1 0 .1.1-.1.1h.1s-.1.1 0 .1h-.1.1c.1 0-.1.1-.1.1.1.1.1.2.1.3.2 0-.2.1.1.1H22c.1 0-.1.1 0 .1-.1 0 0 .1-.1.1h-.1c-.1 0 .2 0 0 0h.1c-.1.1.1.1.1.2h-.2c.1 0-.3 0-.1 0h.2c-.1 0-.2 0-.1.1h-.1c.2 0 .1.1.3.1 0 .2.2.3.2.5s.1.3-.1.5c-.2 0-.2 0-.1.1h-.1.2v.2H22h.3c.1.2-.2.3-.2.5-.1 0 0 .1 0 .1-.2.1-.4.2-.2.4 0-1.9-.4-1.9-.5-2z"/><path d="M21.5 26.6h-.2.2zm-.8.3s-.1 0 0 0c-.1 0-.2 0 0 0-.1 0-.1 0 0 0zm-.1.1c-.1 0-.1 0 0 0zm-.3.1s-.1 0 0 0z"/><path d="M20.5 27.1s-.1 0 0 0c0 0-.1 0 0 0zm-.2.2s-.1 0 0 0zm.1.1c-.1 0-.1 0 0 0zm.3 1.6zm0 .7s-.1 0 0 0c-.1 0 0 0 0 0zm.3.4h.2zm1.7 18.6c0-.1 0-.1 0 0 0 0-.1 0 0 0z"/><path d="M21.2 47.7c.2-.3 0 0 .2-.2 0 0-.1.2-.1.1.2-.2.1-.1 0 .1l.1-.1-.1.1.1-.1s-.1.1-.1.2l.1-.1c.2-.3 0 0 .1-.1v.1c.1-.2.1-.1.2-.2 0 0-.1.1-.1.2.1-.1.1-.2.1-.2-.1.1.1-.1 0 0 .1-.1 0 .1.1-.1v.1c.1-.2 0 .1 0 0 0 0 0 .1.1-.1-.1.1 0 0-.1.2l.1-.1c0 .1 0 .1-.1.1l.1-.1v.1s.1-.2.1-.1c0 0 0 .1-.1.1l.1-.1v.1c.1-.1 0 0 0 0v.1c0 .1.1-.2.1-.1v.1l.1-.1-.1.2c.1-.2 0-.1.2-.2 0 0 0 .1 0 0 0 .1-.1.2-.1.2v.2s0-.1 0 0c.1-.1.2-.3.2-.3 0 .1-.1.2-.1.2l.2-.3s-.1.1 0 .1c0 0 0-.1.1-.1l-.1.1v.1s0-.1.1-.2c0 0 0 .1 0 0l.1-.1s0 .1-.1.1c.1-.1.1-.2.1-.2 0-.1-.1.1-.1.1 0 .1.1-.1 0 0 0 0 .1-.1 0-.1 0 0-.1.1 0 .1 0 .1 0 0 0 0s.1-.1.1 0l.1-.2-.1.1v.1c.1-.1-.1.1 0 0 0 .1.1-.2 0 0 0 0 .1-.1 0 0l-.1.1v-.1l.1-.1c0 .1 0 0-.1.1l-.1.1s.1-.1.1-.2v.1c.1-.2 0 0 .1-.1 0 .1 0 0-.1.1 0-.1.1-.1.1-.1v.1c0 .1 0 0 0 0s-.1.1-.1.2c0-.1.1-.2.1-.2-.1.2.1-.1 0 .1l-.1.1c-.1.2.1-.1 0 0l.1-.2c0 .1.1-.1 0 .1 0-.1 0 .1.1-.1-.1.1.1-.1-.1.2v-.1c0-.1 0 .1 0 0v-.1l-.1.2c0 .1.2-.3.1-.2v.1l.1-.1s-.1.2-.1.3l.1-.1-.1.1c0-.1 0-.1.1-.1 0-.1 0-.1.1-.1l.1-.1c-.1.1 0 .1 0 .1l.1-.1v.1s-.1.1 0 .1c0 0 .1-.2.1-.1 0 0 0 .1-.1.1v.1l.2-.2v.1c0 .1 0 0 0 0v-.1c0 .1-.2.4-.1.3l.1-.2c0 .1.1-.1 0 .1v-.1s.1-.1 0 .1c0 0-.1.1-.1.2 0-.1 0 .1 0-.1 0-.1.1-.1.1-.2v-.1c-.1.1-.1.2-.1.1v-.1.1s.1-.2.1-.1v.1c0-.1.1-.2.1-.1l-.1.1.1-.1c0 .1 0 .1-.1.2.2-.3.2-.3.2-.2v.1c0 .1.1-.1 0-.1 0 .1-.1.1-.1.2s.1-.1.1-.1c0-.1 0 0 0 0s0 .1 0-.1c0 0-.1.1-.1.2v-.1c-.1.2-.2.3-.3.4s-.1.1-.1.2c0-.1.2-.2.2-.3l.2-.3c0 .1 0 0-.1.1 0 .1 0 0 0 0l.1-.2c0 .1-.1.1-.1.1 0-.1.1-.1.1-.2.1-.2 0 0 .1-.1-.1.1-.2.3-.2.3.1-.1.1-.2.2-.3 0 0-.1.1-.1.2s.1-.2 0 0l.1-.1s0 .1-.1.1c0 0 .1-.2 0 0l.1-.1c0-.1-.1.1 0-.1-.1.1 0 0 0-.1v.1-.1s0 .1-.1.1l.1-.1-.1.2v.1s0 .1 0 0 .1-.2.2-.3c0 0-.1.1 0 0l-.1.1-.1.2.1-.2s0 .1-.1.1c0 0 .1-.1.1-.2 0 .1-.1.2-.1.3l-.1.2c-.1.1 0 .1-.1.2.1-.2.2-.3.3-.5 0 0-.3.5-.1.2 0 0 .1-.2.1-.1 0 0 .1-.2.1-.1s-.1.2-.2.3c0-.1 0 0 0 0 0 .1-.1.2-.1.2l.1-.1c.1-.1 0 0 0-.1 0 0-.1.1 0-.1 0 0 0-.1.1-.2v.1c0 .1.1-.1.1-.1l-.1.2c-.1.1 0-.1-.1.1 0 0 .1-.1 0 0 0 0-.2.3-.1.1 0-.1 0-.1.1-.2l.1-.1-.1.2c0-.1 0-.1 0 0l-.1.2s-.1.2-.2.3c.1-.1.1-.1.1-.2l.1-.1-.1.2.2-.4s0 .1-.1.1c.1-.1-.1.2 0 0 0 0-.1.2-.2.3 0-.1-.1.1 0 .1 0-.1.1-.1.1-.2-.1.1 0 0 0 0 0 .1-.1.2-.1.3 0 0 .1-.2.1-.1 0 0 0 .1.1-.1l-.1.2-.1.1c-.1.1 0 0 0 0v-.1c0-.1 0 0 0 0l-.1.1c0 .1-.1.2 0 .1l-.2.2c0-.1.1-.1.1-.2s0-.1 0 0c-.1.1-.1.1-.1.2s0 .1-.1.1c0 0 0-.1.1-.1-.1.1-.1.2-.1.1.1-.1-.1.1 0 0s.1-.2.2-.3v-.1c0 .1-.1.2-.2.3v-.1s-.1.2-.1.1v-.2c-.1.2 0 .1-.1.1 0-.1-.1.1 0-.1l-.1.1.1-.1c-.1.1 0-.1 0-.1-.1.1-.1.1-.1.2 0-.1 0 0-.1.1v-.1c-.1.2 0 0 0 0l.1-.1c-.1.1-.1.1-.1.2v-.1c-.1.2-.1 0-.2.2l.1-.1c-.2.2-.1 0-.1.1l.1-.2c0-.1 0 0-.1.2 0-.1-.1.1 0-.1 0 0 0 .1-.1.1 0-.1 0-.1 0 0l.1-.1s0-.1-.1.2c.1-.1-.1.1 0-.1 0 .1 0 .1-.1.1 0 0 0-.1 0 0l.1-.1s0 .1-.1.1c-.1.1 0-.1 0-.1-.1.1-.1 0-.1 0-.1.2.1-.2-.1.1v-.1c-.1.1 0-.1 0 0v-.2c0-.1-.1.2 0 0l-.1.1c0-.1-.1 0-.1.1 0-.1.2-.3.1-.2 0 0 0 .1 0 0 0 0 .1-.2.1-.1-.1.1 0 .1-.1.1 0-.1.1-.2 0-.1v-.1c-.1.2-.1.1-.2.3-.1 0-.2.1-.3.1 0-.1-.1 0-.1-.1.1-.2.1-.2 0-.1v-.1l-.1.1h-.1l.1-.1-.2.2c-.1.1 0-.2-.1-.2 0-.1 0 0 0 0 .1-.2.1-.4 0-.3.3-.2.5-.5.6-.6z"/><path d="M22.7 48.7c0-.1.1-.1.1-.2-.1 0-.1.1-.1.2zm.3-.8c-.1 0 0-.1 0 0 0-.1 0-.1 0 0 0-.1 0 0 0 0zm0-.1c0-.1.1-.1 0 0zm.1-.2c0-.1 0-.1 0 0 0-.1 0-.1 0 0z"/><path d="M23 47.7s.1-.1 0 0zm.1-.2s-.1 0 0 0c-.1 0 0-.1 0 0z"/><path d="M23 47.6s0-.1 0 0c0-.1 0-.1 0 0zm-.6-.1l-.1.1zm-.3-.1c0 .1.1 0 0 0 .1-.1 0 0 0 0zm-.3.3h.1l-.1.1z"/><path d="M13.8 53.6V32.9l9-5.2v20.7z"/></g><g class="D"><path d="M13.5 53.5c0 .2.1-.1.1.2-.1-.1-.1-.1-.1-.2zm1-.1c.5-.7 1.5-.8 2-1.5.1-.1.1.2.2 0 .5-.7 1.7-1.1 2.6-1.4v.1c.2 0 .3-.3.5-.4v.1c0-.1.3-.2.3-.3.1 0 .1.1.2.1v-.2c.1-.4.7-.3.9-.7v.1c.3-.4.9-.7 1.3-1v-.6s.1.1.2 0c-.1 0-.2-.3-.2-.5.2-.1-.1-.3 0-.6-.2-.2.1-.3-.1-.4l.1-.1c-.2-.1.1-.3 0-.4v-.3c0-.3.1-.5-.1-.5.1-.1.1.3.2.1-.2-1-.1-2-.1-2.9.1-.1.1-.2.1-.2 0-.1 0-.4-.1-.5l.1-.1c.1-.2-.2-.2-.1-.4 0 .1.1.1.2.1-.1-.2-.1-.4-.2-.6 0 0 0 .1.1.1-.1-.2 0-.4-.1-.6l.1.1c.1-.3-.2-.1-.1-.4 0 .1.1 0 .1 0-.2-.2-.1-.6-.2-.9v-.8c0-.1.2 0 .2-.3-.2 0-.1-.5-.3-.3 0-.2.1-.6 0-.8.1.1.2-.1.2.1l.1-.1c.1 0 0 .2.1.1 0-.1-.1-.4 0-.5-.1-.2-.3-.4-.3-.7.1.1.2-.1.2 0l-.4-.4c0-.1.2 0 .1-.2l-.1-.1s0-.4.1-.5c.1 0 0 .2.1 0 0-.2-.1-.2-.1-.4 0-.1-.1-.4-.2-.2 0 .1.1 0 .1.1-.1-.1-.1-.3-.1-.5 0 .1.1.1.1.1l-.3-.8c-.1 0 .2.1.1.1.1-.4-.2-.7 0-1h-.1c0-.2.1-.2.1-.3.1 0 0-.1 0-.3 0-.1 0 0 0 .1-.1-.2-.2-.8-.1-1.2 0 0-.2-.2-.2-.3h.1c.1-.1 0-.3.1-.3-.1-.2.1.7 0 .5.1-.1-.2-.3 0-.3 0-.2-.1-.4 0-.5 0 0 .2.1.2 0 0-.2 0 0-.1-.1-.1 0 0-.1-.1 0 .1-.1-.1-.1.1-.3l.2-.1c0-.1-.2 0-.2 0s0-.1.1-.1c-.2.2 0-.2-.2 0v-.2s-.1 0 0-.1c-.1.2-.2.3-.3.3 0 0 0-.1.1-.1 0-.1-.1 0-.1.1 0 0-.1-.1-.2-.1-.1.1 0 .2 0 .3-.1-.2-.1.2-.4.2 0-.1.2-.2 0-.2-.2-.1-.2.3-.5.3l.1.1c-.2 0-.3.3-.3.1 0 .1-.3.1-.2.2-.4.1-.8.6-1.2.4 0 0-.2.1-.1.2.1 0 .1-.1.2-.1v.1c-.1 0-.2.1-.2-.1-.3 0-.1.4-.4.5 0-.1-.1-.1-.2 0l-.1.2c-.2.1-.2-.1-.3-.2-.1.1-.2.1-.2.3l-.2-.1c.2 0 0 .1-.1.2v-.1l-.2.1c0 .1.2 0 .3 0 0 .1-.1.1-.2.2 0-.1-.2 0-.3.1-.1 0 0 .2-.1.2 0 0-.2.1-.1 0 0 0 .1 0 .1-.1-.1 0-.1-.1-.2 0s.2.2-.1.2v-.2h-.2v.1c0 .1-.3.2-.2.3-.1.1-.2 0-.3.1-.1 0-.3.1-.3.2-.1 0-.2.1-.2.2-.2 0-.3-.3-.3-.1-.2.1-.1.3 0 .3-.2 0-.3.1-.4.2-.2.1-.1.1-.3.1v.1h-.1v.2c0 .1 0 .4-.1.5 0-.1-.1 0-.2 0 .1.1-.1.1.1.2.1 0 .2 0 .2-.1v.8c0-.1.1 0 .1 0-.2 0-.2.2-.1.3h.1l-.1.1c0 .1.2.1.1.2h-.1c.1.1.2.4.1.5l-.1.1c0 .1.1.2.1.1-.1.3-.1.5-.2.6.3.5.3 1.2.3 1.8h-.1c-.1.1.1.1.1.2-.1 0-.2.1-.2 0-.1.2.1.3.2.4.1 0-.1-.1.1-.1 0 0-.1.3.1.3-.1.1-.2 0-.2 0l.1.1c-.2.2-.3-.4-.5-.2v.1c-.2.1-.2-.3-.2 0 .1.1.3.3.3.1 0 .3.3.1.3.4-.1.1 0-.2-.1-.2-.1.1.1.3 0 .4.1-.1.2 0 .2.1-.1.1-.1-.1-.2.1.1 0 .2.2.2.1.2.1 0 .2.1.3-.1.1-.3-.2-.4 0 .1 0 .2.3.4.2 0 .1-.1.1-.2 0-.1.1.2.3 0 .4h.1l-.2.2c0 .1.2.4 0 .4 0 0 0 .3.2.2.1-.2-.1-.2.1-.3-.2.1 0 .2.1.3h-.1c0 .1 0 .2.1.2h-.1l.1.1c.1.2-.2.1-.2.3l-.1-.2s-.1.1 0 .2c.1 0 .2.1.3.2 0 .1-.1.1 0 .2l-.1-.2s-.2.1-.2.3c0 .1.2.3.3.1 0 .1-.1.2-.1.1 0 .2.1 0 .2.1-.1.1-.2.3-.3.4l-.2-.2v.1c-.1-.2-.1.1-.3 0 0 .1 0 .2.1.3.2-.2.3.3.5.2.1.3-.5.2-.2.5.1 0 .2.1.2-.1 0 .2.2.1.1.4-.1-.2-.2.2-.4-.1.1 0 .1-.1 0-.2-.1.1-.2 0-.2.2 0 .1 0 .3.1.3s0-.2.1-.1c0 .3-.2.3.1.4 0-.2.1-.2.2-.2v.2h-.1c-.1.3.2.1.1.4l-.2.1c-.1-.1.1-.4-.2-.4 0 .2.1.2 0 .4v-.1c0 .1-.3.1-.1.4.1.1.1 0 .2 0 0 .3.1.4.1.6-.2 0 0 .3-.2.1.1-.1.1-.5-.1-.6-.2.1 0-.2-.2-.3 0 .2-.2.2-.3.3 0 .1 0 .1.1.2.1 0 .1-.1.3-.1 0 .3 0 .5.2.7-.1.1-.2.1-.2 0v1c.2-.2 0 .3.2.2 0-.2.2-.3.3-.2 0 .1-.1 0-.1 0 .1.1-.2.2 0 .3-.1-.3-.2-.1-.4-.1.1.2-.1 0-.1.2.1.2.2.5.2.7-.2.3 0 .7 0 1-.1.1-.3 0-.3.2s.2-.1.1.1c0 .1-.1.5.1.5l-.2-.1v.1c-.1 0-.1.1-.2 0-.1.2 0 .3 0 .5l.1-.1c.1.3 0 .5 0 .8h-.1l.1.2c-.1 0-.2.1-.1.2l-.3-.4c.1-.1.1.1.2.1.1-.1.1-.3 0-.4v.2c-.2 0-.2-.1-.3-.2v.1c-.1-.1-.1-.2-.1-.4.1.1.1-.1.1 0-.1 0-.2-.2-.1-.4.2-.2-.1-.4-.1-.6.1.1.3.2.3.4.1-.2 0-.2.1-.3-.1-.1-.3-.1-.3-.3h.1c0-.2-.2-.2-.2-.4 0-.4 0-.8.1-1.1h.1c-.2-.2-.1-.6-.2-.8.1-.4-.1-.8.1-1-.1-.7-.2-1.3-.1-2l.2.1c-.1-.1.1-.1.1-.2-.1.1-.2-.2-.2-.3.1-.3 0-.7-.1-1h.1c-.2-.3 0-.6 0-1 0 0 .1-.1.1-.2-.2-.2-.2-.3-.3-.6 0-.2 0-.5.1-.7-.2-.8-.1-1.5-.2-2.3l.1-.1c-.3-.8 0-1.7-.2-2.4l.2.1c.1-.2 0-.5-.2-.4.1-.2-.1-.5.1-.6 0-.2-.1-.3-.1-.4a1.7 1.7 0 0 0 0-1v.1h.1c-.1-.1 0-.5-.2-.4v-1.6l.6-.3c-.1 0 0-.1.1-.2.3-.2.4-.2.6-.3s.3-.2.4-.3c.1 0 0 .1.1.1.1-.1 0-.1 0-.2.5-.4 1.1-.5 1.6-.8.8-.6 1.7-1 2.5-1.5.2-.3.7-.2.8-.6.1 0 .3-.1.3 0 .1-.1.2-.2.4-.3.1 0 .2-.1.3-.1 0 0 .1 0 .1-.1.1 0 .1-.1.2-.2 0 0-.1 0-.1.1.6-.2 1-.6 1.6-.9-.1.1-.2.1-.2.2.2 0 .6-.6.6-.3.1-.1.2-.2.1-.2l.6-.3v1.8c0 .5.1 1.1.1 1.6-.1.6-.4 0-.2.5.1.2-.3.3-.1.4.1 0 .1.1.2.1-.1.4-.2.5-.1.8H23c.2.4.1.8.3 1.1l.2 5.8-.1 5.7c-.2.5-.2.5-.1 1h-.1c.2 0 0 .3.2.4v2.1c0-.1-.2-.2-.1 0l.1.1c0 .2.1.4.2.2v1.1l-1.1.6-.5.3-1.1.5c-.7.4-1.5.7-2.2 1.1a9.13 9.13 0 0 0-1.3.8c-1.3.5-2.5 1-3.6 1.8.3 1 .3.5.7.1zm-1-.2c.1 0 .1-.2.2-.1 0 .1-.1.1-.2.1zm.8-4.3c.1 0 .2.1 0 0 .1.1.1.1 0 0z"/><path d="M14.4 47.9c.1 0 .1.3.1.4l-.1-.4zm.3-1.1c0-.1.1 0 0 0 0 .1 0 .1 0 0zm-.2 0c0-.1 0-.1.1-.2-.1 0 0 .2-.1.2zm.2-2.2s-.1-.2 0-.2c0 0 .1.2 0 .2zm-.1-1.1c.1-.1.1-.1 0 0zM21 29.4v.1l-.1-.1zm1.3 4.2c0 .1-.1.1-.1.1 0-.1.1 0 .1-.1zm.3 4.4v-.1l.2.1z"/></g><path d="M4.8 27.7l9-5.2 9 5.2-9 5.2z" class="E"/><g class="D"><path d="M4.8 27.4c-.1.1.1.1-.1.1 0-.1 0-.1.1-.1z"/><path d="M5.2 28.1c.6-.1 1 .6 1.6.6.1 0-.1.2 0 .2.6 0 1.2.6 1.7 1.1h-.1c.1.1.3 0 .4.1 0 0-.1 0-.1.1.1-.1.2.1.3 0v.2l.1-.1c.3-.2.4.3.7.3 0 0-.1 0-.1.1.5.1 1 .4 1.4.5 0 0-.1.1-.1.2.1-.1.2-.1.4 0 0 .2.3 0 .4.1.2-.1.1.2.3 0v.1c.2-.1.1.2.2.1.1 0 .1.1.2.1.2 0 .2.2.3.1 0 .1-.2 0-.2.2.4.1.8.3 1.2.5l.5-.3c.1 0 .2 0 .2.1 0-.1.2-.1.2-.3h.1c.1 0 0-.2.2-.2v.2c0-.2.2-.2.3-.3v.1c0-.2.2-.1.3-.3v.1c.2 0 0-.2.1-.2v.1c.1-.2.3-.3.4-.4s.3-.1.5-.3c.1 0 .1.2.2.1-.1-.2.2-.2 0-.4.2 0 .4-.1.5-.2 0 .1.2.2.1.2h.1c0 .1-.1 0 0 .1 0 0 .2-.2.3-.2 0-.2 0-.4.2-.5 0 .1.2.1.1.2l.1-.5s.1.1.2 0v-.1s.2-.2.3 0c.1 0-.1.1 0 .1l.2-.2c.1 0 .2-.2 0-.2 0 0 .1.1 0 .1 0-.1.1-.2.2-.3v.1c.1-.2.2-.3.3-.5 0-.1 0 .2 0 .1.3 0 .3-.4.6-.3l-.1-.1c.1 0 .2.1.2 0 0 .1.1-.1.1-.1 0-.1 0 0 0 .1 0-.1.4-.4.6-.4v-.2l.1.1h.2c0-.1-.2.2-.2.1.1.1 0-.2.1-.1.1 0 0-.1.1-.1 0 0 .1.1.2.1.1-.1 0 0 0-.1-.1 0 .1 0-.1-.1.1 0 0-.1.3 0h.2l-.2-.1h.1c-.4 0 .1 0-.2-.1h.2l.1-.1c-.2 0-.3 0-.3-.1h.2c.1 0 0 0-.1 0 .1 0 .1-.1.2-.1-.2 0-.3.1-.4.1.2-.1-.3 0-.1-.1 0 0 .2 0 .2-.1.1-.2-.3 0-.3-.1l-.1.1c0-.1-.2 0-.1-.1-.1 0-.1-.1-.2 0-.2-.3-.6-.3-.6-.6 0 0-.1-.1-.2 0 0 .1.1 0 .1 0h-.1c0-.1-.1-.1 0-.2-.1-.2-.3.2-.5 0v-.1h-.2c-.1-.1 0-.2.1-.3-.1 0-.2-.1-.3 0v-.2c0 .1-.1 0-.2 0l-.1-.1c0 .1 0 .1.1.2h-.2c.1-.1-.1-.1-.1-.2s-.1 0-.2 0c0-.1-.1-.1 0-.1 0 0 0 .1.1.1 0-.1 0-.2-.1-.1-.1 0-.1.2-.2.1 0 0 .1 0 .1-.1l-.1-.1-.1.1c-.1.1-.2-.1-.3 0-.1 0-.1-.1-.1-.2s-.2-.1-.3-.1c0 0-.1-.1-.2 0 0-.1.2-.4 0-.3-.1 0-.3.1-.3.2-.1-.2-.4-.1-.5-.4 0 0 0 .1-.1 0-.2-.2-.6-.2-.7-.5.1 0 .1-.1.1-.1-.1 0 0-.1-.1 0 0 .1-.1.1 0 .2-.2 0-.4-.2-.5-.3 0 .1 0 .1-.1.1.1-.1 0-.2-.1-.2l-.1.1v-.1s-.1.2-.2 0v-.1c-.1 0-.3.1-.4-.1v-.2s-.2 0-.1.1c-.1-.2-.2-.2-.2-.4h-.5V23v.1c0-.1-.1-.1-.1-.2-.1 0-.1.2-.1.3s0-.1.1 0c0 0-.2 0-.2.2-.1 0-.1-.1-.1-.2v.1c-.2-.1.1-.4-.1-.5l-.1.1c-.1-.1.1-.3-.1-.2 0 .1 0 .3.1.3-.1.1.1.3-.1.4-.1 0 .1-.1 0-.2-.1 0-.1.1-.2.2.1 0 .1.2.1.2-.1 0 0-.1-.1-.1 0 .1-.1.2.1.2 0 .2-.2 0-.2.2-.1-.1 0-.3-.2-.3.1.1-.1.3.1.4-.1 0-.1-.1-.1-.2-.1 0-.1.3-.2.1v.1s-.1 0-.2-.1c-.1 0-.1.3-.2.1 0 0-.2.1 0 .2.1 0 .1-.1.2 0-.1-.1-.1.1-.2.2v-.1s-.1.1-.1.2c0 0 0-.1-.1-.1v.1c-.1.1-.1-.2-.3 0v-.1h-.2c0 .1 0 .2.1.3 0 .1-.1-.1-.1 0v-.2s-.2-.1-.3-.1c0 .1-.1.3.1.3 0 0-.2 0-.2-.1-.1.1.1.1 0 .2-.1 0-.3-.1-.4-.1v-.2h-.1c0-.2-.1-.1-.1-.2-.1 0-.1.1-.1.1.3.1 0 .4.2.5-.2.2-.4-.4-.4 0 .1 0 0 .2.1.1-.1 0 0 .2-.2.2 0-.1-.2-.1-.1-.3 0 .1.1 0 .1 0-.1 0-.1-.2-.2-.1s-.2.1-.1.2.1-.1.1.1c-.1.1-.2 0-.2.2.1-.1.2 0 .2.1l-.1.1v-.1c-.2 0 0 .2-.2.2l-.2-.1c0-.1.3-.1.1-.3-.1 0-.1.2-.2.2v-.1s-.2-.2-.3 0c0 .1 0 .1.1.2-.2.1-.2.2-.3.3-.1-.2-.2.1-.2-.1.1 0 .3-.1.3-.3-.2-.1.2 0 .1-.3-.1.1-.2-.1-.3-.2 0 0 0 .1-.1.1 0 .1.1.1.2.2-.2.1-.3.2-.3.4-.1 0-.1-.1-.1-.2l-.6.3c.2.1-.2.1 0 .3.1 0 .3.1.3.2-.1 0 0-.1-.1-.1 0 .1-.2-.1-.2.1.1-.1-.1-.2-.1-.4-.1.1 0-.1-.2 0-.1.1-.2.3-.3.4-.2 0-.4.2-.6.3-.1 0-.2-.2-.3-.2-.1.1.2.1 0 .1 0 .1-.3 0-.2.3v-.1l-.1-.1c-.2-.1-.2.1-.3.2l.1.1c-.1.2-.3.1-.4.3V27l-.1.1c0-.1-.2-.1-.2 0l.1-.4c.1 0 0 .2.1.2.1.1.2 0 .2-.2-.1 0 0 0-.1.1-.1-.1 0-.2 0-.3h-.1c0-.1.1-.1.2-.2 0 .1.1.1.1.1-.1-.1 0-.2.2-.3.2.1.2-.2.3-.3 0 .1 0 .3-.1.4.1 0 .1-.1.2 0 0-.1-.1-.3 0-.4l.1.1c.1-.1 0-.2.2-.3.3-.1.5-.2.7-.3l.1.1c0-.2.3-.3.4-.4.3 0 .4-.4.6-.3a4.44 4.44 0 0 1 1.1-.8v.2c0-.1.1 0 .2 0-.1 0 0-.2 0-.3.2 0 .4-.3.5-.4l.1.1c.1-.3.3-.2.6-.3 0 0 .1.1.2 0 0-.2.1-.2.2-.4.1-.1.3-.1.5-.2.3-.5.8-.6 1.2-1l.1.1c.2-.2.6-.5.9-.6.5.3 1 .6 1.2.6l-.1.2c.1.1.3.1.3 0 .1.1.3.1.3.3.1.1.2 0 .3 0 .2.2.3.3.5.4 0 0-.1.1 0 .1s.3.2.3 0c.2.3.6.2.8.5 0-.1.1 0 .1-.1.2.1.4.4.6.4 0 0-.1.1 0 .1s0-.1.1-.1c.4.1.6.5 1 .7.6.2 1.2.6 1.7.9.3-.1.3.4.6.3 0 .1.2.1.1.2.3 0 .6.5 1.1.6H22c.2.3.7.4 1 .6h-.3c0 .1.7.1.3.2h.2a1.38 1.38 0 0 0 .4.3c-.7.4-1.2.8-2 1.3-.7.3-.3-.3-.7.1-.1 0 0 .1 0 0-.1.1-.3-.1-.3 0 .1.1 0 .1 0 .2-.3 0-.4 0-.5.2V29c-.1.3-.4.3-.4.7l-3.2 2.1c-.5.2-.9.5-1.3.8l-.7.4c-.4.2-.8.5-1.2.7l-1.1-.7c-.2-.3-.2-.3-.5-.4-.1.1-.2-.1-.3 0-.4-.3-.8-.4-1.2-.7.1 0 .2-.1.1-.1h-.1c-.1 0-.2 0-.1.1-1.1-.5-2-1.4-3.1-1.9-.2-.2-.6-.4-.9-.5-.7-.6-1.3-1.2-2.2-1.5.6.3.9 0 1.3.1z"/><path d="M4.9 27.3c.1 0 .2 0 .2.2-.1-.1-.2-.1-.2-.2zm2.9-.7s.1.1 0 0c0 .1 0 0 0 0zm.7-.3c0 .1-.1.2-.2.3l.2-.3zm.7-.1c.1 0 .1.1 0 .1v-.1z"/><path d="M9.2 26c.1 0 0 .2 0 0zm1.3-.5l.1-.1s0 .2-.1.1zm.6-.5c.1 0 .1.1 0 0zm9.9 2.3zm-1.8 1.9c-.1.1-.1 0 0 0-.1-.1-.1.1 0 0zM16.8 31l.1.1z"/></g><path d="M13.8 53.6V32.9l-9-5.2-.1 20.7z" class="E"/><g class="D"><path d="M13.5 53.5c0 .2.1-.1.1.2-.1-.1-.1-.1-.1-.2zm-.3-.4c-.8 0-1.5-.9-2.3-1-.1 0 .1-.2-.1-.2-.8-.1-1.8-.9-2.5-1.6h.1c-.1-.1-.4-.1-.6-.2 0 0 .1 0 .1-.1-.1.1-.3-.1-.4-.1v-.3l-.2.1c-.4.1-.6-.4-1.1-.5 0 0 .1 0 .1-.1-.5-.1-1-.4-1.5-.7v-.7H5c-.1 0-.2-.3-.2-.5.2-.1-.1-.3 0-.6-.2-.2.1-.3-.1-.4l.1-.1c-.2-.1.1-.3 0-.4v-.3c0-.3.1-.5-.1-.5.1-.1.1.3.2.1-.2-1-.1-2-.1-2.9.1-.1.1-.2.1-.2 0-.1 0-.4-.1-.5l.1-.1c.1-.2-.2-.2-.1-.4 0 .1.1.1.2.1-.1-.2-.1-.4-.1-.6 0 0 0 .1.1.1-.1-.2 0-.4-.1-.6l.1.1c.1-.3-.2-.1-.1-.4 0 .1.1 0 .1 0-.2-.3-.1-.6-.2-.9v-.8c0-.1.2 0 .2-.3-.2 0-.1-.5-.3-.3 0-.2.1-.6 0-.8.1.1.2-.1.2.1l.1-.1c.1 0 0 .2.1.1 0-.1-.1-.4 0-.5-.1-.2-.3-.4-.3-.7.1.1.2-.1.2 0l-.3-.4c0-.1.2 0 .1-.2l-.1-.1s0-.4.1-.5c.1 0 0 .2.1 0 0-.2-.1-.2-.1-.4 0-.1-.1-.4-.2-.2 0 .1.1 0 .1.1-.1-.1-.1-.3-.1-.5 0 .1.1.1.1.1l-.3-.8c-.1 0 .2.1.1.1.1-.4-.2-.7 0-1h-.1c0-.2.1-.2.1-.3.1 0 0-.1 0-.3 0-.1 0 0 0 .1-.1-.2-.2-.8-.1-1.2 0 0-.2-.2-.2-.3h.1c.1-.1 0-.3.1-.3-.1-.2.1.7 0 .5.1-.1-.2-.3 0-.3 0-.2-.1-.3 0-.5 0 .1.2.2.2 0 0-.3 0-.1-.1-.4v-.2c-.1-.1 0-.3-.1-.2.1 0 0-.6.1-.4l.2.2c0-.1-.2-.4-.2-.5h.1c-.2-.3 0-.3-.2-.8v-.5c.2.1.3.2.5.4.2 0 .3 0 .6.2h-.1c.2.2.2.1.3.1l.5.5c.2 0 .2-.1.2-.2.1.3.7.2.7.5-.1 0-.3 0-.2.1 0 .3.3 0 .5.2v-.2c0 .1.4.1.3.2.1 0 .2.2.3 0 .3.3.9.4 1 .8.1 0 .2.1.2 0s-.2 0-.2-.1h.1c.1.1.2.2 0 .2.2.2.4-.1.7.1 0 .1 0 .1.1.1h.2c.2.1 0 .2 0 .3.1 0 .3.1.3.1v.2c0-.1.1 0 .2 0h-.1c0 .1.1.1.2.1 0-.1-.1-.2-.1-.2h.3c-.1.1.1.2.2.2.1.1.2 0 .2 0 0 .1.2.1 0 .1 0 0 0-.1-.1-.1 0 .1 0 .2.2.2.1 0 .1-.2.3 0h-.2l.2.2.1-.1v.1c.1-.1.3.1.4 0 .1 0 .2.2.2.2.1.1.2.2.4.1 0 0 .2.1.3.1.1.2-.2.4.1.4.2.1.3 0 .3-.1a.76.76 0 0 0 .4.2h.1l.2.1c.1.1.2.1.3.2h.2l.2.1v1c0 .2 0 .4-.1.5 0-.1-.1 0-.2 0 .1.1-.1.1.1.2.1 0 .2 0 .2-.1v.8c0-.1.1 0 .1 0-.2 0-.2.2-.1.3h.1l-.6 1.2c0 .1.2.1.1.2h-.1c.1.1.2.4.1.5l-.1.1c0 .1.1.2.1.1-.1.3-.1.5-.2.6.3.5.3 1.2.3 1.8h-.1c-.1.1.1.1.1.2-.1 0-.2.1-.2 0-.1.2.1.3.2.4.1 0-.1-.1.1-.1 0 0-.1.3.1.3h-.2l.1.1c-.2.2-.3-.4-.5-.2v.1c-.2.1-.2-.3-.2 0 .1.1.3.3.3.1 0 .3.3.1.3.4-.1.1 0-.2-.1-.2-.1.1.1.3 0 .4.1-.1.2 0 .2.1-.1.1-.1-.1-.2.1.1 0 .2.2.2.1.2.1 0 .2.1.4-.1.1-.3-.2-.4 0 .1 0 .2.3.4.2 0 .1-.1.1-.2 0-.1.1.2.3 0 .4h.1l-.2.2c0 .1.2.4 0 .4 0 0 0 .3.2.2.1-.2-.1-.2.1-.3-.2.1 0 .2.1.3h-.1c0 .1 0 .2.1.2h-.1l.1.1c.1.2-.2 0-.2.3l-.1-.2s-.1.1 0 .2c.1 0 .2.1.3.2 0 .1-.1.1 0 .2l-.1-.2s-.2.1-.2.3c0 .1.2.3.3.1 0 .1-.1.2-.1.1 0 .2.1 0 .2.1-.1.1-.2.3-.3.4l-.2-.2v.1c-.1-.2-.1.1-.3 0 0 .1 0 .2.1.3.2-.2.3.3.5.2.1.3-.5.2-.2.5.1 0 .2.1.2-.1 0 .2.2.1.1.4-.1-.2-.2.2-.4-.1.1 0 .1-.1 0-.2-.1.1-.2 0-.2.2 0 .1 0 .3.1.3s0-.2.1-.1c0 .3-.2.3.1.4 0-.2.1-.2.2-.2v.2h-.1c-.1.3.2.1.1.4l-.2.1c-.1-.1.1-.4-.2-.4 0 .2.1.2 0 .4v-.1c0 .1-.3.1-.1.4.1.1.1 0 .2 0 0 .3.1.4.1.6-.2 0 0 .3-.2.1.1-.1.1-.5-.1-.6-.2.1 0-.2-.2-.3 0 .2-.2.2-.3.3 0 .1 0 .1.1.2.1 0 .1-.1.3-.1 0 .3 0 .5.2.7-.1.1-.2.1-.2 0v1c.2-.2 0 .3.2.2 0-.2.2-.3.3-.2 0 .1-.1 0-.1 0 .1.1-.2.2 0 .3-.1-.3-.2-.1-.4-.1.1.2-.1 0-.1.2.1.2.2.5.2.7-.2.3 0 .7 0 1-.1.1-.3 0-.3.2s.2-.1.1.1c0 .1-.1.5.1.5l-.2-.1v.1c-.1 0-.1.1-.2 0-.1.2 0 .3 0 .5l.1-.1c.1.3 0 .5 0 .8h-.1l.1.2c-.1 0-.2.1-.1.2l-.3-.4c.1-.1.1.1.2.1.1-.1.1-.3 0-.4v.2c-.2 0-.2-.1-.3-.2v.1c-.1-.1-.1-.2-.1-.4.1.1.1-.1.1 0-.1 0-.2-.2-.1-.4.2-.2-.1-.4-.1-.6.1.1.3.2.3.4.1-.2 0-.2.1-.3-.1-.1-.3-.1-.3-.3h.1c0-.2-.2-.2-.2-.4 0-.4 0-.8.1-1.1h.1c-.2-.2-.1-.6-.2-.8.1-.4-.1-.8.1-1-.1-.7-.2-1.3-.1-2l.2.1c-.1-.1.1-.1.1-.2-.1.1-.2-.2-.2-.3.1-.3 0-.7-.1-1h.1c-.2-.3 0-.6 0-1 0 0 .1-.1.1-.2-.2-.2-.2-.3-.3-.6 0-.2 0-.5.1-.7-.2-.8-.1-1.5-.2-2.3l.1-.1c-.3-.8 0-1.7-.2-2.4l.2.1c.1-.2 0-.5-.2-.4.1-.2-.1-.5.1-.6 0-.2-.1-.3-.1-.4a1.7 1.7 0 0 0 0-1v.1h.1c-.1-.1.1-.5-.2-.4v-.7s-.1 0-.1.1l-.3-.3c-.2-.1-.3-.2-.5-.2 0-.1.1 0 0-.1-.1 0 0 .1-.2 0-.6-.2-1-.7-1.5-1-.9-.4-1.8-1-2.6-1.4-.4 0-.5-.5-.9-.4 0-.1-.2-.2-.1-.2a.76.76 0 0 1-.4-.2c-.1-.1-.2-.1-.2-.2 0 0-.1 0-.1-.1h-.1c-.1-.2-.2 0-.3-.2v-.1c-.1-.2 0 .2-.2-.1l.1.2s-.1-.1-.2-.1v1c-.1.6-.4 0-.2.5.1.2-.3.3-.1.4.1 0 .1.1.2.1-.1.4-.2.5-.1.8h-.1c.2.4.1.8.3 1.1l.2 5.8-.1 5.7c-.2.5-.2.5-.1 1h-.1c.2 0 0 .3.2.4v2.1c0-.1-.2-.2-.1 0l.1.1h.2l.5.3 1 .7c.7.5 1.4.9 2.1 1.3.3.3.9.5 1.3.7 1.1.9 2.1 1.7 3.4 2.2.3-.4 0-.1-.6-.3z"/><path d="M13.5 53.2c.1 0 .1-.2.2-.1 0 .1-.1.1-.2.1zm.9-4.3c-.1 0 0 0 0 0s.1.1 0 0c0 .1 0 .1 0 0zm0-1c.1 0 .1.3.1.4l-.1-.4zm.3-1.1c.1-.1.1 0 0 0 .1.1 0 .1 0 0zm-.2 0c0-.1 0-.1.1-.2 0 0 .1.2-.1.2zm.3-2.2s-.1-.2 0-.2c-.1 0 .1.2 0 .2zm-.1-1.1c0-.1 0-.1 0 0zM7.1 28.4h.1v.1zm-2.9 5.1c0 .1-.1.1-.1.1.1-.1.2.1.1-.1zm.4 4.5v-.1h.1z"/></g><g class="E"><path d="M12.5 31.7c-.1 0-.2.1 0 0zm-.1 5.3c-.4-.1 0-.1-.2-.2h.2c-.3-.1-.1-.2.1-.3h.1c-.3 0 0-.1-.1-.1h.1c-.2-.1-.2-.1-.2-.2.2 0-.1 0 0 0-.2 0 .1 0-.1 0h.1c-.2 0 .1 0 0 0 0 0 .1 0-.1 0h.2c-.2-.1-.1-.2-.1-.3h.1c.1 0-.2 0-.1 0h.1c.1 0-.2 0-.1 0h.1c-.2 0-.1 0-.2-.1v-.1h.2-.3s.1 0 0-.1h.4s-.1 0 0 0c-.1 0-.3 0-.3-.1h.2-.4c-.1 0-.2 0-.3-.1-.1 0 .2 0 .1 0 .1 0-.2-.1 0-.1h-.1.1c-.1 0-.2-.1-.1-.1h-.1.1c-.1 0 .1.1 0 0 .1 0-.2 0 0 0 0 0-.1 0 0 0s-.1 0 .1 0h.1-.2c.1 0 0 0 .2-.1h-.1c.2 0-.1 0 .1-.1h.2c.2 0-.2 0-.1 0h-.2c.1 0-.1 0 .1 0-.1 0 .1 0-.1 0 .2 0-.1-.1.2-.1H12c-.1 0 .1 0 0 0h-.1.2c.1 0-.3 0-.2-.1h.2s-.1 0 0 0h-.2c.1 0-.1-.1.1-.1h-.1s-.1-.1.1-.1h.2c-.1 0 .1 0-.1 0h-.2v-.1h-.1.1-.3c-.3 0-.3-.1-.3-.1h.1c.1 0-.1 0-.1 0h.2c.1 0-.1 0-.2 0s.1 0-.1 0c0 0 .1 0-.1 0h.3c.1 0-.1 0 0 0h-.1c.1 0-.2 0 0 0h-.1.2s-.2 0 0 0h-.2c-.1 0 .1 0-.1 0 .2 0 0 0-.1 0s.2 0 .2 0h.1-.2c-.1 0 .5 0 .2 0H11h.4c-.1 0-.1 0 0 0 0 0 .2 0-.1 0h-.1c.1 0-.2 0-.1 0h.2c.1 0-.1 0 .2 0 0 0-.1 0 0 0-.1 0-.1 0 .1 0h.1l-.2-.1h.2v-.1h-.4c-.1 0 .2 0 0 0h.4c-.1 0 .1 0 .1 0-.1 0-.2 0-.2-.1.2 0 0-.1 0-.1h.2s.1 0-.1 0h.3c-.1 0 0 0 0-.1h.2c-.1 0-.1 0 0 0h.4c-.2 0 .1 0 .1.1h-.2.2s0 .1-.1.1h-.1c.2 0 .1 0 .2.1-.1 0 .1.1-.1.1.1.1.2.1.1.2h-.2c.1 0-.1 0-.1 0h.2c-.1 0 0 .1.1.1h-.1c.2 0 0 0 0 .1h-.1.3l-.1.1c.2.1.1.1.2.2h-.1c.3.1 0 .1.2.2h-.2c-.1 0 0 0 .2 0-.1 0 .1 0-.1.1h.1c-.1 0-.1 0 0 .1h-.1.2c-.1 0 .1.1-.1.1h.1s-.1.1 0 .1H13h.1c.1 0-.1.1-.1.1.1.1.1.2.1.3.2 0-.2.1.1.1h-.1c.1 0-.1.1 0 .1-.1 0 0 .1-.1.1h-.1c-.1 0 .2 0 0 0h.1c-.1.1.1.1.1.2h-.2c.1 0-.3 0-.1 0h.2c-.1 0-.2 0-.1.1h-.1c.2 0 .1.1.3.1 0 .2.2.3.2.5s.1.3-.1.5c-.2 0-.2 0-.1.1H13h.2v.2h-.1.3c.1.2-.2.3-.2.5-.1 0 0 .1 0 .1-.2.1-.4.2-.2.4-.1-1.9-.5-1.9-.6-2z"/><path d="M12.5 31.8h-.2.2zm-.9.3c.1 0 0 .1 0 0 0 .1-.1 0 0 0zm0 .1c-.1 0-.1 0 0 0zm-.3.1c-.1 0-.1 0 0 0-.1 0 0 0 0 0zm.2 0s-.1 0 0 0c-.1 0-.2 0 0 0zm-.3.2c.1 0-.1 0 0 0zm.2.1s-.1 0 0 0c-.1 0-.1 0 0 0zm.3 1.6zm0 .7s-.1 0 0 0c-.1 0 0 0 0 0zm.3.4h.2zm1.6 18.6c.1-.1.1-.1 0 0z"/><path d="M12.1 52.9c.2-.3 0 0 .2-.2 0 0-.1.2-.1.1.2-.3.1-.1 0 .1l.1-.1-.1.1.1-.1s-.1.1-.1.2l.1-.1c.2-.3 0 0 .1-.1v.1c.1-.2.1-.1.2-.2 0 0-.1.1-.1.2.1-.1.1-.2.1-.2-.1.1.1-.1 0 0 .1-.1 0 .1.1-.1v.1c.1-.2 0 .1 0 0 0 0 0 .1.1-.1-.1.1 0 0-.1.2l.1-.1c0 .1 0 .1-.1.1l.1-.1v.1s.1-.2.1-.1c0 0 0 .1-.1.1l.1-.1v.1c.1-.1 0 0 0 0v.1c0 .1.1-.2.1-.1v.1l.1-.1-.1.2c.1-.2 0-.1.2-.2 0 0 0 .1 0 0 0 .1-.1.2-.1.2v.2s0-.1 0 0c.1-.1.2-.3.2-.3 0 .1-.1.2-.1.2l.2-.3s-.1.1 0 .1c0 0 0-.1.1-.1l-.1.1v.1s0-.1.1-.2c0 0 0 .1 0 0l.1-.1s0 .1-.1.1c.1-.1.1-.2.1-.2 0-.1-.1.1-.1.1 0 .1.1-.1 0 0 0 0 .1-.1 0-.1 0 0-.1.1 0 .1 0 .1 0 0 0 0s.1-.1.1 0l.1-.2-.1.1v.1c.1-.1-.1.1 0 0 0 .1.1-.2 0 0 0 0 .1-.1 0 0l-.1.1v-.1l.1-.1c0 .1 0 0-.1.1l-.1.1s.1-.1.1-.2v.1c.1-.2 0 0 .1-.1 0 .1 0 0-.1.1 0-.1.1-.1.1-.1v.1c0 .1 0 0 0 0s-.1.1-.1.2c0-.1.1-.2.1-.2-.1.2.1-.1 0 .1l-.1.1c-.1.2.1-.1 0 0l.1-.2c0 .1.1-.1 0 .1 0-.1 0 .1.1-.1-.1.1.1-.1-.1.2v-.1c0-.1 0 .1 0 0v-.1l-.1.2c0 .1.2-.3.1-.2v.1l.1-.1s-.1.2-.1.3l.1-.1-.1.1c0-.1 0-.1.1-.1 0-.1 0-.1.1-.1l.1-.1c-.1.1 0 .1 0 .1l.1-.1v.1s-.1.1 0 .1c0 0 .1-.2.1-.1 0 0 0 .1-.1.1v.1l.2-.2v.1c0 .1 0 0 0 0v-.1c0 .1-.2.4-.1.3l.1-.2c0 .1.1-.1 0 .1v-.1s.1-.1 0 .1c0 0-.1.1-.1.2 0-.1 0 .1 0-.1 0-.1.1-.1.1-.2v-.1c-.1.1-.1.2-.1.1v-.1.1s.1-.2.1-.1v.1c0-.1.1-.2.1-.1l-.1.1.1-.1c0 .1 0 .1-.1.2.2-.3.2-.3.2-.2v.1c0 .1.1-.1 0-.1 0 .1-.1.1-.1.2s.1-.1.1-.1c0-.1 0 0 0 0s0 .1 0-.1c0 0-.1.1-.1.2v-.1c-.1.2-.2.3-.3.4l-.6.1c0-.1.2-.2.2-.3l.2-.3c0 .1 0 0-.1.1 0 .1 0 0 0 0l.1-.2c0 .1-.1.1-.1.1 0-.1.1-.1.1-.2.1-.2 0 0 .1-.1-.1.1-.2.3-.2.3.1-.1.1-.2.2-.3 0 0-.1.1-.1.2s.1-.2 0 0l.1-.1s0 .1-.1.1c0 0 .1-.2 0 0l.1-.1c0-.1-.1.1 0-.1-.1.1 0 0 0-.1v.1-.1s0 .1-.1.1l.1-.1-.1.2v.1s0 .1 0 0 .1-.2.2-.3c0 0-.1.1 0 0l-.1.1-.1.2.1-.2s0 .1-.1.1c0 0 .1-.1.1-.2 0 .1-.1.2-.1.3l-.1.2c-.1.1 0 .1-.1.2.1-.2.2-.3.3-.5 0 0-.3.5-.1.2 0 0 .1-.2.1-.1 0 0 .1-.2.1-.1s-.1.2-.2.3c0-.1 0 0 0 0 0 .1-.1.2-.1.2l.1-.1c.1-.1 0 0 0-.1 0 0-.1.1 0-.1 0 0 0-.1.1-.2v.1c0 .1.1-.1.1-.1l-.1.2c-.1.1 0-.1-.1.1 0 0 .1-.1 0 0 0 0-.2.3-.1.1 0-.1 0-.1.1-.2l.1-.1-.1.2c0-.1 0-.1 0 0l-.1.2s-.1.2-.2.3c.1-.1.1-.1.1-.2l.1-.1-.1.2.2-.4s0 .1-.1.1c.1-.1-.1.2 0 0 0 0-.1.2-.2.3 0-.1-.1.1 0 .1 0-.1.1-.1.1-.2-.1.1 0 0 0 0 0 .1-.1.2-.1.3 0 0 .1-.2.1-.1 0 0 0 .1.1-.1l-.1.2-.1.1c-.1.1 0 0 0 0v-.1c0-.1 0 0 0 0l-.1.1c0 .1-.1.2 0 .1l-.2.2c0-.1.1-.1.1-.2s0-.1 0 0c-.1.1-.1.1-.1.2s0 .1-.1.1c0 0 0-.1.1-.1-.1.1-.1.2-.1.1.1-.1-.1.1 0 0s.1-.2.2-.3v-.1c0 .1-.1.2-.2.3v-.1s-.1.2-.1.1v-.2c-.1.2 0 .1-.1.1 0-.1-.1.1 0-.1l-.1.1.1-.1c-.1.1 0-.1 0-.1-.1.1-.1.1-.1.2 0-.1 0 0-.1.1v-.1c-.1.2 0 0 0 0l.1-.1c-.1.1-.1.1-.1.2v-.1c-.1.2-.1 0-.2.2l.1-.1c-.2.2-.1 0-.1.1l.1-.2c0-.1 0 0-.1.2 0-.1-.1.1 0-.1 0 0 0 .1-.1.1 0-.1 0-.1 0 0l.1-.1s0-.1-.1.2c.1-.1-.1.1 0-.1 0 .1 0 .1-.1.1 0 0 0-.1 0 0l.1-.1s0 .1-.1.1c-.1.1 0-.1 0-.1-.1.1-.1 0-.1 0-.1.2.1-.2-.1.1V54c-.1.1 0-.1 0 0v-.2c0-.1-.1.2 0 0l-.1.1c0-.1-.1 0-.1.1 0-.1.2-.3.1-.2 0 0 0 .1 0 0 0 0 .1-.2.1-.1-.1.1 0 .1-.1.1 0-.1.1-.2 0-.1v-.1c-.1.2-.1.1-.2.3-.1 0-.2.1-.3.1 0-.1-.1 0-.1-.1.1-.2.1-.2 0-.1v-.1l-.1.1h-.1l.1-.1-.2.2c-.1.1 0-.2-.1-.2 0-.1 0 0 0 0 .1-.2.1-.4 0-.3.9-.1 1.1-.4 1.1-.5z"/><path d="M13.6 53.9c0-.1.1-.1.1-.2 0 0 0 .1-.1.2zm.3-.8c.1 0 .1-.1 0 0 .1-.1.1 0 0 0zm0-.1c0-.1.1-.1 0 0zm.2-.2c0-.1 0-.1 0 0 0-.1 0-.1 0 0z"/><path d="M14 52.9s0-.1 0 0zm0-.2s.1-.1 0 0zm-.1.1s0-.1 0 0c0-.1.1-.1 0 0zm-.6-.1v.1zm-.2-.1c0 .1 0 0 0 0zm-.3.3l-.1.1zm41.6-22.7V9.5l-9-5.2V25z"/></g><g class="D"><path d="M54.1 30c0 .2.1-.1.1.1-.1.1-.1 0-.1-.1zm-.3-.4c-.8 0-1.5-.9-2.3-1-.1 0 .1-.2-.1-.2-.8-.1-1.8-.9-2.5-1.6h.1c-.1-.1-.4-.1-.6-.2 0 0 .1 0 .1-.1-.1.1-.3-.1-.4-.1v-.3l-.2.1c-.4.1-.6-.4-1.1-.5 0 0 .1 0 .1-.1-.5-.1-1-.4-1.5-.7v-.6h.2c-.1 0-.2-.3-.2-.5.2-.1-.1-.3 0-.6-.2-.2.1-.3-.1-.4l.1-.1c-.2-.1.1-.3 0-.4V22c0-.3.1-.5-.1-.5.1-.1.1.3.2.1-.2-1-.1-2-.1-2.9.1-.1.1-.2.1-.2 0-.1 0-.4-.1-.5l.1-.1c.1-.2-.2-.2-.1-.4 0 .1.1.1.2.1-.1-.2-.1-.4-.2-.6 0 0 0 .1.1.1-.1-.2 0-.4-.1-.6l.1.1c.1-.3-.2-.1-.1-.4 0 .1.1 0 .1 0-.2-.2-.1-.6-.2-.9v-.8c0-.1.2 0 .2-.3-.2 0-.1-.5-.3-.3 0-.2.1-.6 0-.8.1.1.2-.1.2.1l.1-.1c.1 0 0 .2.1.1 0-.1-.1-.4 0-.5-.1-.2-.3-.4-.3-.7.1.1.2-.1.2 0l-.4-.4c0-.1.2 0 .1-.2l-.1-.1s0-.4.1-.5c.1 0 0 .2.1 0 0-.2-.1-.2-.1-.4 0-.1-.1-.4-.2-.2 0 .1.1 0 .1.1-.1-.1-.1-.3-.1-.5 0 .1.1.1.1.1l-.3-.8c-.1 0 .2.1.1.1.1-.4-.2-.7 0-1h-.1c0-.2.1-.2.1-.3.1 0 0-.1 0-.3 0-.1 0 0 0 .1-.1-.2-.2-.8-.1-1.2 0 0-.2-.2-.2-.3h.1c.1-.1 0-.3.1-.3-.1-.2.1.7 0 .5.1-.1-.2-.3 0-.3 0-.2-.1-.3 0-.5 0 .1.2.2.2 0 0-.3 0-.1-.1-.4V5c-.1-.1 0-.3-.1-.2.1 0-.1-.6.1-.4l.2.2c0-.1-.2-.4-.2-.5h.1c-.2-.3 0-.3-.2-.8v-.5c.2.1.3.2.5.4.2 0 .3 0 .6.2h-.1c.2.2.2.1.3.1l.5.5c.2 0 .2-.1.2-.2.1.3.7.2.7.5-.1 0-.3 0-.2.1 0 .3.3 0 .5.2v-.2c0 .1.4.1.3.2.1 0 .2.2.3 0 .3.3.9.4 1 .8.1 0 .2.1.2 0s-.2 0-.2-.1h.1c.1.1.2.2 0 .2.2.2.4-.1.7.1v.1h.2c.2.1 0 .2 0 .3.1 0 .3.1.3.1v.2c0-.1.1 0 .2 0h-.1c0 .1.1.1.2.1 0-.1-.1-.2-.1-.2h.3c-.1.1.1.2.2.2.1.1.2 0 .2 0 0 .1.2.1 0 .1 0 0 0-.1-.1-.1 0 .1 0 .2.2.2.1 0 .1-.2.3 0h-.2l.2.2.1-.1v.1c.1-.1.3.1.4 0 .1 0 .2.2.2.2.1.1.2.2.4.1 0 0 .2.1.3.1.1.2-.2.4.1.4.2.1.3 0 .3-.1a.76.76 0 0 0 .4.2c.1 0 .4.2.5.4h.2l.3.2v1c0 .2 0 .4-.1.5 0-.1-.1 0-.2 0 .1.1-.1.1.1.2.1 0 .2 0 .2-.1v.8c0-.1.1 0 .1 0-.2 0-.2.2-.1.3h.1l-.1.1c0 .1.2.1.1.2h-.1c.1.1.2.4.1.5l-.1.1c0 .1.1.2.1.1-.1.3-.1.5-.2.6.3.5.3 1.2.3 1.8h-.1c-.1.1.1.1.1.2-.1 0-.2.1-.2 0-.1.2.1.3.2.4.1 0-.1-.1.1-.1 0 0-.1.3.1.3-.1.1-.2 0-.2 0l.1.1c-.2.2-.3-.4-.5-.2v.1c-.2.1-.2-.3-.2 0 .1.1.3.3.3.1 0 .3.3.1.3.4-.1.1 0-.2-.1-.2-.1.1.1.3 0 .4 0-.1.2 0 .2.1-.1.1-.1-.1-.2.1.1 0 .2.2.2.1.2.1 0 .2.1.3-.1.1-.3-.2-.4 0 .1 0 .2.3.4.2 0 .1-.1.1-.2 0-.1.1.2.3 0 .4h.1l-.2.2c0 .1.2.4 0 .4 0 0 0 .3.2.2.1-.2-.1-.2.1-.3-.2.1 0 .2.1.3h-.1c0 .1 0 .2.1.2h-.1l.1.1c.1.2-.2.1-.2.3l-.1-.2s-.1.1 0 .2c.1 0 .2.1.3.2 0 .1-.1.1 0 .2l-.1-.2s-.2.1-.2.3c0 .1.2.3.3.1 0 .1-.1.2-.1.1 0 .2.1 0 .2.1-.1.1-.2.3-.3.4l-.2-.2v.1c-.1-.1-.1.1-.3 0 0 .1 0 .2.1.3.2-.2.3.3.5.2.1.3-.5.2-.2.5.1 0 .2.1.2-.1 0 .2.2.1.1.4-.1-.2-.2.2-.4-.1.1 0 .1-.1 0-.2-.1.1-.2 0-.2.2 0 .1 0 .3.1.3s0-.2.1-.1c0 .3-.2.3.1.4 0-.2.1-.2.2-.2v.2h-.1c-.1.3.2.1.1.4l-.2.1c-.1-.1.1-.4-.2-.4 0 .2.1.2 0 .4v-.1c0 .1-.3.1-.1.4.1.1.1 0 .2 0 0 .3.1.4.1.6-.2 0 0 .3-.2.1.1-.1.1-.5-.1-.6-.2.1 0-.2-.2-.3 0 .2-.2.2-.3.3 0 .1 0 .1.1.2.1 0 .1-.1.3-.1 0 .3 0 .5.2.7-.1.1-.2.1-.2 0v1c.2-.2 0 .3.2.2 0-.2.2-.3.3-.2 0 .1-.1 0-.1 0 .1.1-.2.2 0 .3-.1-.3-.2-.1-.4-.1.1.2-.1 0-.1.2.1.2.2.5.2.7-.2.3 0 .7 0 1-.1.1-.3 0-.3.2s.2-.1.1.1c0 .1-.1.5.1.5l-.2-.1v.1c-.1 0-.1.1-.2 0-.1.2 0 .3 0 .5l.1-.1c.1.3 0 .5 0 .8h-.1l.1.2c-.1 0-.2.1-.1.2l-.3-.4c.1-.1.1.1.2.1.1-.1.1-.3 0-.4v.2c-.2 0-.2-.1-.3-.2v.1c-.1-.1-.1-.2-.1-.4.1.1.1-.1.1 0-.1 0-.2-.2-.1-.4.2-.1-.1-.4-.1-.6.1.1.3.2.3.4.1-.1 0-.2.1-.3-.1-.1-.3-.1-.3-.3h.1c0-.2-.2-.2-.2-.4 0-.4 0-.8.1-1.1h.1c-.2-.2-.1-.6-.2-.8.1-.4-.1-.8.1-1-.1-.7-.2-1.3-.1-2l.2.1c-.1-.1.1-.1.1-.2-.1.1-.2-.2-.2-.3.1-.3 0-.7-.1-1h.1c-.2-.3 0-.6 0-1 0 0 .1-.1.1-.2-.2-.2-.2-.3-.3-.6 0-.2 0-.5.1-.7-.2-.8-.1-1.5-.2-2.3l.1-.1c-.3-.8 0-1.7-.2-2.4l.2.1c.1-.2 0-.5-.2-.4.1-.2-.1-.5.1-.6 0-.2-.1-.3-.1-.4a1.7 1.7 0 0 0 0-1v.1h.1c-.1-.1 0-.5-.2-.4v-.7s-.1 0-.1.1l-.3-.3c-.2-.1-.3-.2-.5-.2 0-.1.1 0 0-.1-.1 0 0 .1-.2 0-.6-.2-1-.7-1.5-1-.9-.4-1.8-.9-2.6-1.4-.4 0-.5-.5-.9-.4 0-.1-.2-.2-.1-.2a.76.76 0 0 1-.4-.2c-.1-.1-.2-.1-.2-.2 0 0-.1 0-.1-.1h-.1c-.1-.2-.2 0-.3-.2v-.1c-.1-.2 0 .2-.2-.1l.1.2s-.1-.1-.2-.1v1c-.1.6-.4 0-.2.5.1.2-.3.3-.1.4.1 0 .1.1.2.1-.1.4-.2.5-.1.8h-.1c.2.4.1.8.3 1.1l.2 5.8-.1 5.7c-.2.5-.2.5-.1 1h-.1c.2 0 0 .4.2.4v2.1c0-.1-.2-.2-.1 0l.1.1h.2l.5.3 1 .7c.7.5 1.4.9 2.1 1.3.3.3.9.5 1.3.7 1.1.9 2.1 1.6 3.3 2.2.2.6-.1.9-.7.6z"/><path d="M54.1 29.8c.1 0 .1-.2.2-.1-.1 0-.1.1-.2.1zm.8-4.3s.1-.1 0 0zm.1-1.1c.1 0 .1.3.1.4l-.1-.4zm.3-1c0-.1.1-.1 0 0 0 .1 0 0 0 0zm-.2-.1c0-.1 0-.1.1-.2-.1.1 0 .2-.1.2zm.2-2.2s-.1-.2 0-.2c0 0 .1.3 0 .2zm-.1-1s0-.1 0 0c0-.2.1-.1 0 0zM47.7 5zm-2.9 5.1c0 .1-.1.1-.1.1 0-.1.1 0 .1-.1zm.4 4.4h.1z"/></g><g class="E"><path d="M53.1 8.3c-.1 0-.2 0 0 0zm-.1 5.3c-.4-.1 0-.1-.2-.2h.2c-.3-.1-.1-.2.1-.3h.1c-.3 0 0-.1-.1-.1h.1c-.2-.1-.2-.1-.2-.2.2 0-.1 0 0 0-.2 0 .1 0-.1 0h.1c-.2 0 .1 0 0 0 0 0 .1 0-.1 0h.2c-.2-.1-.1-.2-.1-.3h.1c.1 0-.2 0-.1 0h.1c.1 0-.2 0-.1 0h.1c-.2 0-.1-.1-.2-.1v-.1h.2-.3s.1 0 0-.1h.4s-.1 0 0 0c-.1 0-.3 0-.3-.1h.2-.4c-.1 0-.2 0-.3-.1-.1 0 .2 0 .1 0 .1 0-.2-.1 0-.1h-.1.1c-.1 0-.2-.1-.1-.1h-.1.1c-.1 0 .1.1 0 0 .1 0-.2 0 0 0 0 0-.1 0 0 0s-.1 0 .1 0h.1-.2c.1 0 0 0 .2-.1h-.1c.2 0-.1 0 .1-.1h.2c.2 0-.2 0-.1 0h-.2c.1 0-.1 0 .1 0-.1 0 .1 0-.1 0 .2 0-.1-.1.2-.1h-.1c-.1 0 .1 0 0 0h-.1.2c.1 0-.3 0-.2-.1h.2s-.1 0 0 0h-.2c.1 0-.1-.1.1-.1h-.1s-.1-.1.1-.1h.2c-.1 0 .1 0-.1 0h-.2v-.1h-.1.2c-.3 0-.3-.1-.3-.1h.1c.1 0-.1 0-.1 0h.2c.1 0-.1 0-.2 0s.1 0-.1 0c0 0 .1 0-.1 0h.3c.1 0-.1 0 0 0h-.1c.1 0-.2 0 0 0h-.1.2s-.2 0 0 0h-.2c-.1 0 .1 0-.1 0 .2 0 0 0-.1 0s.2 0 .2 0h.1-.2c-.1 0 .5 0 .2 0H52h.4c-.1 0-.1 0 0 0 0 0 .2 0-.1 0h-.1c.1 0-.2 0-.1 0h.2c.1 0-.1 0 .2 0 0 0-.1 0 0 0-.1 0-.1 0 .1 0h.1l-.2-.1h.2v-.1h-.4c-.1 0 .2 0 0 0h.4c-.1 0 .1 0 .1 0-.1 0-.2 0-.2-.1.2 0 0-.1 0-.1h.2s.1 0-.1 0h.3c-.1 0 0 0 0-.1h.2c-.1 0-.1 0 0 0h.4c-.2 0 .1 0 .1.1h-.2.2s0 .1-.1.1h-.1c.2 0 .1 0 .2.1-.1 0 .1.1-.1.1.1.1.2.1.1.2h-.2c.1 0-.1 0-.1 0h.2c-.1 0 0 .1.1.1h-.1c.2 0 0 0 0 .1h-.1.3l-.1.1c.2.1.1.1.2.2h-.1c.3.1 0 .1.2.2h-.2c-.1 0 0 0 .2 0-.1 0 .1 0-.1.1h.1c-.1 0-.1 0 0 .1h-.1.2c-.1 0 .1.1-.1.1h.1s-.1.1 0 .1H54h.1c.1 0-.1.1-.1.1.1.1.1.2.1.3.2 0-.2.1.1.1h-.1c.1 0-.1.1 0 .1-.1 0 0 .1-.1.1h-.1c-.1 0 .2 0 0 0h.1c-.1.1.1.1.1.2h-.2c.1 0-.3 0-.1 0h.2c-.1 0-.2 0-.1.1h-.1c.2 0 .1.1.3.1 0 .2.2.3.2.5s.1.3-.1.5c-.2 0-.2 0-.1.1H54h.2v.2h-.1.3c.1.2-.2.3-.2.5-.1 0 0 .1 0 .1-.2.1-.4.2-.2.4-.5-2-.9-2-1-2z"/><path d="M53.1 8.3h-.2.2zm-.9.4s-.1 0 0 0zm0 .1c-.1 0-.1 0 0 0zm-.3.1c-.1 0-.1 0 0 0-.1 0 0 0 0 0zm.2 0s-.1 0 0 0c-.1 0-.2 0 0 0zm-.3.2c.1 0-.1 0 0 0zm.1.1zm.3 1.6v-.1l.1.1zm0 .7zm.4.3h.2zm1.6 18.6c.1 0 .1-.1 0 0 0 0 0 .1 0 0z"/><path d="M52.7 29.5c.2-.3 0 0 .2-.2 0 0-.1.2-.1.1.2-.2.1-.1 0 .1l.1-.1-.1.1.1-.1s-.1.1-.1.2l.1-.1c.2-.3 0 0 .1-.1v.1c.1-.2.1-.1.2-.2 0 0-.1.1-.1.2.1-.1.1-.1.1-.2-.1.1.1-.1 0 0 .1-.1 0 .1.1-.1v.1c.1-.2 0 .1 0 0 0 0 0 .1.1-.1-.1.1 0 0-.1.2l.1-.1c0 .1 0 .1-.1.1l.1-.1v.1l.1-.1s0 .1-.1.1l.1-.1v.1c.1-.1 0 0 0 0v.1c0 .1.1-.2.1-.1v.1l.1-.1-.1.2c.1-.2 0-.1.2-.2 0 0 0 .1 0 0 0 .1-.1.2-.1.2v.2s0-.1 0 0c.1-.1.2-.3.2-.3 0 .1-.1.2-.1.2l.2-.3s-.1.1 0 .1c0 0 0-.1.1-.1l-.1.1v.1s0-.1.1-.1c0 0 0 .1 0 0l.1-.1s0 .1-.1.1c.1-.1.1-.2.1-.2 0-.1-.1.1-.1.1 0 .1.1-.1 0 0 0 0 .1-.1 0-.1 0 0-.1.1 0 .1 0 .1 0 0 0 0s.1-.1.1 0l.1-.1-.1.1v.1c.1-.1-.1.1 0 0 0 .1.1-.1 0 0 0 0 .1-.1 0 0l-.1.1v-.1l.1-.1c0 .1 0 0-.1.1l-.1.1s.1-.1.1-.2v.1c.1-.2 0 0 .1-.1 0 .1 0 0-.1.1 0-.1.1-.1.1-.1v.1c0 .1 0 0 0 0s-.1.1-.1.2c0-.1.1-.2.1-.2-.1.2.1-.1 0 .1l-.1.1c-.1.2.1-.1 0 0l.1-.2c0 .1.1-.1 0 .1 0-.1 0 .1.1-.1-.1.1.1-.1-.1.2v-.1c0-.1 0 .1 0 0v-.1l-.1.2c0 .1.2-.3.1-.2v.1l.1-.1s-.1.1-.1.3l.1-.1-.1.1c0-.1 0-.1.1-.1 0-.1 0-.1.1-.1l.1-.1c-.1.1 0 .1 0 .1l.1-.1v.1s-.1.1 0 .1c0 0 .1-.2.1-.1 0 0 0 .1-.1.1v.1l.2-.2v.1c0 .1 0 0 0 0v-.1c0 .1-.2.4-.1.3l.1-.2c0 .1.1-.1 0 .1v-.1s.1-.1 0 .1l-.1.1c0-.1 0 .1 0-.1 0-.1.1-.1.1-.2v-.1c-.1.1-.1.2-.1.1v-.1.1s.1-.2.1-.1v.1c0-.1.1-.2.1-.1l-.1.1.1-.1c0 .1 0 .1-.1.2.2-.3.2-.3.2-.2v.1c0 .1.1-.1 0-.1 0 .1-.1.1-.1.2s.1-.1.1-.1c0-.1 0 0 0 0s0 .1 0-.1c0 0-.1.1-.1.2v-.1c-.1.1-.2.3-.3.4s-.1.1-.1.2c0-.1.2-.2.2-.3l.2-.3c0 .1 0 0-.1.1 0 .1 0 0 0 0l.1-.2c0 .1-.1.1-.1.1 0-.1.1-.1.1-.2.1-.2 0 0 .1-.1-.1.1-.2.3-.2.3.1-.1.1-.1.2-.3 0 0-.1.1-.1.2s.1-.2 0 0l.1-.1s0 .1-.1.1c0 0 .1-.1 0 0l.1-.1c0-.1-.1.1 0-.1-.1.1 0 0 0-.1v.1-.1s0 .1-.1.1l.1-.1s-.1.2-.1.1v.1s0 .1 0 0 .1-.2.2-.3c0 0-.1.1 0 0l-.2.2.1-.2s0 .1-.1.1c0 0 .1-.1.1-.2 0 .1-.1.1-.1.3l-.1.1c-.1.1 0 .1-.1.2.1-.2.2-.3.3-.5 0 0-.3.5-.1.2 0 0 .1-.2.1-.1 0 0 .1-.2.1-.1s-.1.2-.2.3c0-.1 0 0 0 0 0 .1-.1.2-.1.2l.1-.1c.1-.1 0 0 0-.1 0 0-.1.1 0-.1 0 0 0-.1.1-.2v.1c0 .1.1-.1.1-.1l-.1.1c-.1.1 0-.1-.1.1 0 0 .1-.1 0 0 0 0-.2.3-.1.1 0-.1 0-.1.1-.1l.1-.1c-.1.1 0 0-.1.2 0-.1 0-.1 0 0-.1.2 0 0-.1.1 0 0-.1.2-.2.3.1-.1.1-.1.1-.2l.1-.1-.1.2.2-.4s0 .1-.1.1c.1-.1-.1.1 0 0 0 0-.1.2-.2.3 0-.1-.1.1 0 .1 0-.1.1-.1.1-.1-.1.1 0 0 0 0 0 .1-.1.2-.1.3 0 0 .1-.2.1-.1 0 0 0 .1.1-.1l-.1.2-.1.1c-.1.1 0 0 0 0V30c0-.1 0 0 0 0l-.1.1c0 .1-.1.1 0 .1l-.2.2c0-.1.1-.1.1-.2s0-.1 0 0c-.1.1-.1.1-.1.2v.1s0-.1.1-.1l-.1.1c.1-.1-.1.1 0 0s.1-.2.2-.3v-.1c0 .1-.1.2-.2.3v-.1s-.1.2-.1.1v-.2c-.1.2 0 .1-.1.1 0-.1-.1.1 0-.1l-.1.1.1-.1c-.1.1 0-.1 0-.1-.1.1-.1.1-.1.2 0-.1 0 0-.1.1v-.1c-.1.2 0 0 0 0l.1-.1c-.1.1-.1.1-.1.2v-.1c-.1.2-.1 0-.2.2l.1-.1c-.2.2-.1 0-.1.1l.1-.2c0-.1 0 0-.1.2 0-.1-.1.1 0-.1 0 0 0 .1-.1.1 0-.1 0-.1 0 0l.1-.1s0-.1-.1.2c.1-.1-.1.1 0-.1 0 .1 0 .1-.1.1 0 0 0-.1 0 0l.1-.1s0 .1-.1.1c-.1.1 0-.1 0-.1-.1.1-.1 0-.1 0-.1.2.1-.2-.1.1v-.1c-.1.1 0-.1 0 0v-.2c0-.1-.1.2 0 0l-.1.1c0-.1-.1 0-.1.1 0-.1.2-.3.1-.2 0 0 0 .1 0 0 0 0 .1-.2.1-.1-.1.1 0 .1-.1.1 0-.1.1-.2 0-.1v-.1c-.1.2-.1.1-.2.3-.1 0-.2.1-.3.1 0-.1-.1 0-.1-.1.1-.2.1-.2 0-.1v-.1l-.1.1h-.1l.1-.1-.2.2c-.1.1 0-.2-.1-.2 0-.1 0 0 0 0 .1-.2.1-.4 0-.3.2 0 .5-.4.5-.4z"/><path d="M54.2 30.4c0-.1.1-.1.1-.2 0 .1-.1.2-.1.2zm.3-.8c0 .1.1 0 0 0 .1 0 .1-.1 0 0z"/><path d="M54.5 29.6c0-.1.1-.1.1-.1l-.1.1zm.2-.3s0-.1 0 0zm-.1.1s0-.1 0 0zm0-.2s0 .1 0 0c0 .1.1-.1 0 0z"/><path d="M54.5 29.3c.1 0 .1-.1 0 0zm-.6 0zm-.2-.1s0-.1 0 0c0-.1 0 0 0 0zm-.3.2l-.1.2z"/><path d="M45.4 35.4V14.7l9-5.2v20.7z"/></g><g class="D"><path d="M45.1 35.3c0 .2.1-.1.1.1-.1 0-.2-.1-.1-.1zm1-.1c.5-.7 1.5-.9 2-1.5.1-.1.1.2.2 0 .5-.6 1.7-1.1 2.6-1.4v.1c.2 0 .3-.3.5-.4v.1c0-.1.3-.2.3-.3.1 0 .1.1.2.1v-.2c.1-.4.7-.4.9-.7v.1c.3-.4.9-.7 1.3-1v-.6s.1.1.2 0c-.1 0-.2-.3-.2-.5.2-.1-.1-.3 0-.6-.2-.2.1-.3-.1-.4l.1-.1c-.2-.1.1-.3 0-.4v-.3c0-.3.1-.5-.1-.5.1-.1.1.3.2.1-.2-1-.1-2-.1-2.9.1-.1.1-.2.1-.2 0-.1 0-.4-.1-.5l.1-.1c.1-.2-.2-.2-.1-.4 0 .1.1.1.2.1-.1-.2-.1-.4-.2-.6 0 0 0 .1.1.1-.1-.2 0-.4-.1-.6l.1.1c.1-.3-.2-.1-.1-.4 0 .1.1 0 .1 0-.2-.2-.1-.6-.2-.9v-.8c0-.1.2 0 .2-.3-.2 0-.1-.5-.3-.3 0-.2.1-.6 0-.8.1.1.2-.1.2.1l.1-.1c.1 0 0 .2.1.1 0-.1-.1-.4 0-.5-.1-.2-.3-.4-.3-.7.1.1.2-.1.2 0l-.4-.4c0-.1.2 0 .1-.2l-.1-.1s0-.4.1-.5c.1 0 0 .2.1 0 0-.2-.1-.2-.1-.4 0-.1-.1-.4-.2-.2 0 .1.1 0 .1.1-.1-.1-.1-.3-.1-.5 0 .1.1.1.1.1l-.3-.8c-.1 0 .2.1.1.1.1-.4-.2-.7 0-1h-.1c0-.2.1-.2.1-.3.1 0 0-.1 0-.3 0-.1 0 0 0 .1-.1-.2-.2-.8-.1-1.2 0 0-.2-.2-.2-.3h.1c.1-.1 0-.3.1-.3-.1-.2.1.7 0 .5.1-.1-.2-.3 0-.3 0-.2-.1-.4 0-.5 0 0 .2.1.2 0 0-.2 0 0-.1-.1-.1 0 0-.1-.1 0 .1-.1-.1-.1.1-.3l.2-.1c0-.1-.2 0-.2 0s0-.1.1-.1c-.2.2 0-.2-.2 0V10s-.1 0 0-.1c-.1.2-.2.3-.3.3 0 0 0-.1.1-.1 0-.1-.1 0-.1.1 0 0-.1-.1-.2-.1-.1.1 0 .2 0 .3-.1-.2-.1.2-.4.2 0-.1.2-.2 0-.2-.2-.1-.2.3-.5.3l.1.1c-.2 0-.3.3-.3.1 0 .1-.3.1-.2.2-.4.1-.8.6-1.2.4 0 0-.2.1-.1.2.1 0 .1-.1.2-.1v.1c-.1 0-.2.1-.2-.1-.3 0-.1.4-.4.5 0-.1-.1-.1-.2 0l-.1.2c-.2.1-.2-.1-.3-.2-.1.1-.2.1-.2.3l-.2-.1c.2 0 0 .1-.1.2v-.1l-.2.1c0 .1.2 0 .3 0 0 .1-.1.1-.2.2 0-.1-.2 0-.3.1-.1 0 0 .2-.1.2 0 0-.2.1-.1 0 0 0 .1 0 .1-.1-.1 0-.1-.1-.2 0s.2.2-.1.2v-.2h-.2v.1c0 .1-.3.2-.2.3-.1.1-.2 0-.3.1-.1 0-.3.1-.3.2-.1 0-.2.1-.2.2-.2 0-.3-.3-.3-.1-.2.1-.1.3 0 .3-.2 0-.3.1-.4.2-.2.1-.1.1-.3.1v.1h-.1v.2c0 .1 0 .4-.1.5 0-.1-.1 0-.2 0 .1.1-.1.1.1.2.1 0 .2 0 .2-.1v.8c0-.1.1 0 .1 0-.2 0-.2.2-.1.3h.1l-.1.1c0 .1.2.1.1.2h-.1c.1.1.2.4.1.5l-.1.1c0 .1.1.2.1.1-.1.3-.1.5-.2.6.3.5.3 1.2.3 1.8h-.1c-.1.1.1.1.1.2-.1 0-.2.1-.2 0-.1.2.1.3.2.4.1 0-.1-.1.1-.1 0 0-.1.3.1.3-.1.1-.2 0-.2 0l.1.1c-.2.2-.3-.4-.5-.2v.1c-.2.1-.2-.3-.2 0 .1.1.3.3.3.1 0 .3.3.1.3.4-.1.1 0-.2-.1-.2-.1.1.1.3 0 .4 0-.1.2 0 .2.1-.1.1-.1-.1-.2.1.1 0 .2.2.2.1.2.1 0 .2.1.3-.1.1-.3-.2-.4 0 .1 0 .2.3.4.2 0 .1-.1.1-.2 0-.1.1.2.3 0 .4h.1l-.2.2c0 .1.2.4 0 .4 0 0 0 .3.2.2.1-.2-.1-.2.1-.3-.2.1 0 .2.1.3h-.1c0 .1 0 .2.1.2h-.1l.1.1c.1.2-.2.1-.2.3l-.1-.2s-.1.1 0 .2c.1 0 .2.1.3.2 0 .1-.1.1 0 .2l-.1-.2s-.2.1-.2.3c0 .1.2.3.3.1 0 .1-.1.2-.1.1 0 .2.1 0 .2.1-.1.1-.2.3-.3.4l-.2-.2v.1c-.1-.1-.1.1-.3 0 0 .1 0 .2.1.3.2-.2.3.3.5.2.1.3-.5.2-.2.5.1 0 .2.1.2-.1 0 .2.2.1.1.4-.1-.2-.2.2-.4-.1.1 0 .1-.1 0-.2-.1.1-.2 0-.2.2 0 .1 0 .3.1.3s0-.2.1-.1c0 .3-.2.3.1.4 0-.2.1-.2.2-.2v.2h-.1c-.1.3.2.1.1.4l-.2.1c-.1-.1.1-.4-.2-.4 0 .2.1.2 0 .4v-.1c0 .1-.3.1-.1.4.1.1.1 0 .2 0 0 .3.1.4.1.6-.2 0 0 .3-.2.1.1-.1.1-.5-.1-.6-.2.1 0-.2-.2-.3 0 .2-.2.2-.3.3 0 .1 0 .1.1.2.1 0 .1-.1.3-.1 0 .3 0 .5.2.7-.1.1-.2.1-.2 0v1c.2-.2 0 .3.2.2 0-.2.2-.3.3-.2 0 .1-.1 0-.1 0 .1.1-.2.2 0 .3-.1-.3-.2-.1-.4-.1.1.2-.1 0-.1.2.1.2.2.5.2.7-.2.3 0 .7 0 1-.1.1-.3 0-.3.2s.2-.1.1.1c0 .1-.1.5.1.5l-.2-.1v.1c-.1 0-.1.1-.2 0-.1.2 0 .3 0 .5l.1-.1c.1.3 0 .5 0 .8h-.1l.1.2c-.1 0-.2.1-.1.2l-.3-.4c.1-.1.1.1.2.1.1-.1.1-.3 0-.4v.2c-.2 0-.2-.1-.3-.2v.1c-.1-.1-.1-.2-.1-.4.1.1.1-.1.1 0-.1 0-.2-.2-.1-.4.2-.1-.1-.4-.1-.6.1.1.3.2.3.4.1-.1 0-.2.1-.3-.1-.1-.3-.1-.3-.3h.1c0-.2-.2-.2-.2-.4 0-.4 0-.8.1-1.1h.1c-.2-.2-.1-.6-.2-.8.1-.4-.1-.8.1-1-.1-.7-.2-1.3-.1-2l.2.1c-.1-.1.1-.1.1-.2-.1.1-.2-.2-.2-.3.1-.3 0-.7-.1-1h.1c-.2-.3 0-.6 0-1 0 0 .1-.1.1-.2-.2-.2-.2-.3-.3-.6 0-.2 0-.5.1-.7-.2-.8-.1-1.5-.2-2.3l.1-.1c-.3-.8 0-1.7-.2-2.4l.2.1c.1-.2 0-.5-.2-.4.1-.2-.1-.5.1-.6 0-.2-.1-.3-.1-.4a1.7 1.7 0 0 0 0-1v.1h.1c-.1-.1 0-.5-.2-.4v-1.6l.6-.3c-.1 0 0-.1.1-.2.3-.2.4-.2.6-.3a1.38 1.38 0 0 0 .4-.3c.1 0 0 .1.1.1.1-.1 0-.1 0-.2.5-.4 1.1-.5 1.6-.8.8-.6 1.7-1 2.5-1.5.2-.3.7-.2.8-.6.1 0 .3-.1.3 0 .1-.1.2-.2.4-.3.1 0 .2-.1.3-.1 0 0 .1 0 .1-.1.1 0 .1-.1.2-.2 0 0-.1 0-.1.1.6-.2 1-.6 1.6-.9-.1.1-.2.1-.2.2.2 0 .6-.6.6-.3.1-.1.2-.2.1-.2l.6-.3v1.8c0 .5.1 1.1.1 1.6-.1.6-.4 0-.2.5.1.2-.3.3-.1.4.1 0 .1.1.2.1-.1.4-.2.5-.1.8h-.1c.2.4.1.8.3 1.1l.2 5.8-.1 5.7c-.2.5-.2.5-.1 1h-.1c.2 0 0 .4.2.4v2.1c0-.1-.2-.2-.1 0l.1.1c0 .2.1.4.2.2V30l-.8 1.4-.5.3-1.1.5c-.7.4-1.5.7-2.2 1.1-.4.1-.9.5-1.3.8-1.3.5-2.5 1-3.6 1.8 0 .1 0-.3.4-.7zm-1-.2c.1 0 .1-.2.2-.1-.1 0-.2.1-.2.1zm.8-4.3s0-.1 0 0z"/><path d="M45.9 29.6c.1 0 .1.3.1.4l-.1-.4zm.3-1c.1-.1.1-.1 0 0 .1.1.1 0 0 0zm-.1-.1c0-.1 0-.1.1-.2-.1.1 0 .3-.1.2zm.2-2.2s-.1-.2 0-.2c0 .1.1.3 0 .2zm-.1-1s0-.1 0 0c0-.2.1-.1 0 0zm6.4-14.2l-.1.1v-.1zm1.2 4.2c0 .1-.1.1-.1.1 0-.1.1 0 .1-.1zm.4 4.4h.1z"/></g><path d="M36.3 9.5l9.1-5.2 9 5.2-9 5.2z" class="E"/><g class="D"><path d="M36.3 9.2c-.1.1.1.1-.1.1 0-.1 0-.1.1-.1z"/><path d="M36.7 9.9c.6-.1 1 .6 1.6.6.1 0-.1.2 0 .2.6 0 1.2.6 1.7 1.1h-.1c.1.1.3 0 .4.1 0 0-.1 0-.1.1.1-.1.2.1.3 0v.2l.1-.1c.3-.2.4.3.7.3 0 0-.1 0-.1.1.5.1 1 .4 1.4.6 0 0-.1.1-.1.2.1-.1.2-.1.4 0 0 .2.3 0 .4.1.2-.1.1.2.3 0v.1c.2-.1.1.2.2.1.1 0 .1.1.2.1.2 0 .2.2.3.1 0 .1-.2 0-.2.2.4.1.8.3 1.1.5l.5-.3c.1 0 .2 0 .2.1 0-.1.2-.1.2-.3h.1c.1 0 0-.2.2-.2v.2c0-.2.2-.2.3-.3v.1c0-.2.2-.1.3-.3v.1c.2 0 0-.2.1-.2v.1c.1-.2.3-.3.4-.4s.3-.1.5-.3c.1 0 .1.2.2.1-.1-.2.2-.2 0-.4.2 0 .4-.1.5-.2 0 .1.2.2.1.2h.1c0 .1-.1 0 0 .1 0 0 .2-.2.3-.2 0-.2 0-.4.2-.5 0 .1.2.1.1.2l.1-.5s.1.1.2 0v-.1s.2-.2.3 0c.1 0-.1.1 0 .1l.2-.2c.1 0 .2-.2 0-.2 0 0 .1.1 0 .1 0-.1.1-.2.2-.3v.1c.1-.2.2-.3.3-.5 0-.1 0 .2 0 .1.3 0 .3-.4.6-.3l-.1-.1c.1 0 .2.1.2 0 0 .1.1-.1.1-.1 0-.1 0 0 0 .1 0-.1.4-.4.6-.4v-.2l.1.1h.2c0-.1-.2.2-.2.1.1.1 0-.2.1-.1.1 0 0-.1.1-.1 0 0 .1.1.2.1.1-.1 0 0 0-.1-.1 0 .1 0-.1-.1.1 0 0-.1.3 0h.2l-.2-.1h.1c-.4 0 .1 0-.2-.1h.2l.1-.1c-.2 0-.3 0-.3-.1h.2c.1 0 0 0-.1 0 .1 0 .1-.1.2-.1-.2 0-.3.1-.4.1.2-.1-.3 0-.1-.1 0 0 .2 0 .2-.1.1-.2-.3 0-.3-.1l-.1.1c0-.1-.2 0-.1-.1-.1 0-.1-.1-.2 0-.2-.3-.6-.3-.6-.6 0 0-.1-.1-.2 0 0 .1.1 0 .1 0h-.1c0-.1-.1-.1 0-.2-.1-.2-.3.2-.5 0V8h-.2c-.1-.1 0-.2.1-.3-.1 0-.2-.1-.3 0v-.2c0 .1-.1 0-.2 0l-.1-.1c0 .1 0 .1.1.2H50c.1-.1-.1-.1-.1-.2s-.1 0-.2 0c0-.1-.1-.1 0-.1 0 0 0 .1.1.1 0-.1 0-.2-.1-.1-.1 0-.1.2-.2.1 0 0 .1 0 .1-.1l-.1-.1-.1.1c-.1.1-.2-.1-.3 0-.1 0-.1-.1-.1-.2s-.2-.1-.3-.1c0 0-.1-.1-.2 0-.1-.1.2-.4 0-.3-.1 0-.3.1-.3.2-.1-.2-.4-.1-.5-.4 0 0 0 .1-.1 0-.2-.2-.6-.2-.7-.5.1 0 .1-.1.1-.1-.1 0 0-.1-.1 0 0 .1-.1.1 0 .2-.2 0-.4-.2-.5-.3 0 .1 0 .1-.1.1.1-.1 0-.2-.1-.2l-.1.1v-.1s-.1.2-.2 0v-.1c-.1 0-.3.1-.4-.1v-.2s-.2 0-.1.1c-.1-.2-.2-.2-.2-.4-.2 0-.2 0-.3.1h-.2V5v.1c0-.1-.1-.1-.1-.2-.1 0-.1.2-.1.3s0-.1.1 0c0 0-.2 0-.2.2-.1 0-.1-.1-.1-.2v.1c-.2-.1.1-.4-.1-.5l-.1.1c-.1-.1.1-.3-.1-.2 0 .1 0 .3.1.3-.1.1.1.3-.1.4-.1 0 .1-.1 0-.2-.1 0-.1.1-.2.2.1 0 .1.2.1.2-.1 0 0-.1-.1-.1 0 .1-.1.2.1.2 0 .2-.2 0-.2.2-.1-.1 0-.3-.2-.3.1.1-.1.3.1.4-.1 0-.1-.1-.1-.2-.1 0-.1.3-.2.1V6s-.1 0-.2-.1c-.1 0-.1.3-.2.1 0 0-.2.1 0 .2.1 0 .1-.1.2 0-.1-.1-.1.1-.2.2v-.1s-.1.1-.1.2c0 0 0-.1-.1-.1v.1c-.1.1-.1-.2-.3 0v-.1h-.2c0 .1 0 .2.1.3 0 .1-.1-.1-.1 0v-.2s-.2-.1-.3-.1c0 .1-.1.3.1.3 0 0-.2 0-.2-.1-.1.1.1.1 0 .2-.1 0-.3 0-.4-.1v-.2h-.1c0-.2-.1-.1-.1-.2-.1 0-.1.1-.1.1.3.1 0 .4.2.5-.2.2-.4-.4-.4 0 .1 0 0 .2.1.1-.1 0 0 .2-.2.2.1-.1-.2-.1-.1-.3 0 .1.1 0 .1 0-.1 0-.1-.2-.2-.1s-.2.1-.1.2.1-.1.1.1c-.1.1-.2 0-.2.2.1-.1.2 0 .2.1l-.1.1v-.1c-.2 0 0 .2-.2.2l-.2-.1c0-.1.3-.1.1-.3-.1 0-.1.2-.2.2v-.1s-.2-.2-.3 0c0 .1 0 .1.1.2-.2.1-.2.2-.3.3-.1-.2-.2.1-.2-.1.1 0 .3-.1.3-.3-.2-.1.2 0 .1-.3-.1.1-.2-.1-.3-.2 0 0 0 .1-.1.1 0 .1.1.1.2.2-.2.1-.3.2-.3.4-.1 0-.1-.1-.1-.2l-.6.3c.2.1-.2.1 0 .3.1 0 .3.1.3.2-.1 0 0-.1-.1-.1 0 .1-.2-.1-.2.1.1-.1-.1-.2-.1-.4-.1.1 0-.1-.2 0-.1.1-.2.3-.3.4-.2 0-.4.2-.6.3-.1 0-.2-.2-.3-.2-.1.1.2.1 0 .1 0 .1-.3 0-.3.3v-.1l-.1-.1c-.2-.1-.2.1-.3.2l.1.1c-.1.2-.3.1-.4.3V9l-.1.1c0-.1-.2-.1-.2 0l.1-.4c.1 0 0 .2.1.2.1.1.2 0 .2-.2-.1 0 0 0-.1.1-.1-.1 0-.2 0-.3h-.1c0-.1.1-.1.2-.2 0 .1.1.1.1.1-.1-.1 0-.2.2-.3.2.1.2-.2.3-.3 0 .1 0 .3-.1.4.1 0 .1-.1.2 0 0-.1-.1-.3 0-.4l.1.1c.1-.1 0-.2.2-.3.3-.1.5-.2.7-.3l.1.1c0-.2.3-.3.4-.4.3 0 .4-.4.6-.3a4.44 4.44 0 0 1 1.1-.8v.2c0-.1.1 0 .2 0-.1 0 0-.2 0-.3.2 0 .4-.3.5-.4l.1.1c.1-.3.3-.2.6-.3 0 0 .1.1.2 0 0-.2.1-.2.2-.4.1-.1.3-.1.5-.2.3-.5.8-.6 1.3-1l.1.1c.2-.2.6-.5.9-.7.4.3 1 .6 1.1.6l-.1.2c.1.1.3.1.3 0 .1.1.3.1.3.3.1.1.2 0 .3 0 .2.2.3.3.6.4 0 0-.1.1 0 .1s.3.2.3 0c.2.3.6.2.8.5 0-.1.1 0 .1-.1.2.1.4.4.6.4 0 0-.1.1 0 .1s0-.1.1-.1c.4.1.7.5 1 .7.6.2 1.2.6 1.8.9.3-.1.3.4.6.3 0 .1.2.1.1.2.3 0 .6.5 1.1.6h-.1c.2.3.7.4 1 .6h-.3c0 .1.7.1.3.2h.2a1.38 1.38 0 0 0 .4.3c-.7.4-1.2.8-2 1.3-.7.3-.3-.3-.7.1-.1 0 0 .1 0 0-.1.1-.3-.1-.3 0 .1.1 0 .1 0 .2-.3 0-.4 0-.5.2v-.1c-.1.3-.4.3-.5.7l-3.2 2.1-2.1 1.2c-.4.2-.8.5-1.2.7l-1-.6c-.2-.3-.2-.3-.5-.4-.1.1-.2-.1-.3 0-.4-.3-.8-.4-1.2-.7.1 0 .2-.1.1-.1h-.1c-.1 0-.2 0-.1.1-1.1-.5-2-1.4-3.1-2-.2-.2-.6-.4-.9-.5-.7-.6-1.3-1.2-2.2-1.5.7.2 1-.1 1.4 0zm-.3-.8c.1 0 .2 0 .2.2-.1-.1-.2-.1-.2-.2zm2.9-.7c.1 0 .1.1 0 0 .1.1 0 0 0 0zm.7-.3c0 .1-.1.2-.2.3l.2-.3z"/><path d="M40.7 8c.1 0 .1.1 0 .1V8zm0-.2c.1 0 0 .1 0 0zm1.4-.5l.1-.1c-.1 0-.1.2-.1.1zm.5-.5c.1 0 .1.1 0 0zm10 2.3h-.1l.1-.1zM50.7 11s-.1-.1 0 0c0-.1-.1 0 0 0zm-2.4 1.8l.1-.1v.2z"/></g></svg>