<?xml version="1.0" encoding="utf-8"?>
<!-- Generator: Adobe Illustrator 24.0.2, SVG Export Plug-In . SVG Version: 6.00 Build 0)  -->
<svg version="1.1" id="Layer_1" xmlns="http://www.w3.org/2000/svg" xmlns:xlink="http://www.w3.org/1999/xlink" x="0px" y="0px"
	 viewBox="0 0 58.2 44.6" style="enable-background:new 0 0 58.2 44.6;" xml:space="preserve">
<style type="text/css">
	.st0{fill:#003050;}
	.st1{fill:#202020;}
	.st2{opacity:0.2;}
	.st3{fill:#B1C5D2;}
	.st4{fill:#F7F9FC;}
	.st5{fill:none;}
</style>
<g>
	<g>
		<path class="st0" d="M47,25c0.2,1-4.7,3.1-5.3,3.6c-0.1-0.4,0.2-1.3-0.3-1.6c0.2-0.3,2-0.9,1.9-1.3s0.3-2.4-0.3-2.5L25,12.7
			c-1-0.8-4.7,2.2-5.6,2.5c0.6-2.9-3.1,0.5-3.9,0.7c-0.3,0.1-0.1,1.5-0.2,1.7c-1.3,0.9-2.9,0.9-2.5,3c-0.5-0.4-2.6-1.2-2.6-2
			c0.2,1.1-0.5,2.4,0.7,3.1l21.7,12.6c2.5,2,11.5-5.4,13.8-6.1C47.6,27.4,46.9,26.1,47,25z"/>
		<g>
			<g>
				<g>
					<g>
						<path class="st1" d="M47.2,25.3c0.1-0.6-0.2,0.3,0-0.4C47.3,25,47.4,25.2,47.2,25.3z"/>
						<path class="st1" d="M46.9,26.2c0.1,0.3,0.2,0.6,0.1,1c0,0.3-0.3,0.7-0.6,0.8c-0.7,0.3-1.3,0.6-1.8,1c-0.1,0.1-0.1-0.2-0.3,0
							c-0.9,0.9-2.7,1.9-4.2,2.5v-0.1c-0.3,0.1-0.5,0.5-0.8,0.6c0,0,0.1-0.1,0-0.1c0,0.1-0.5,0.3-0.5,0.5c-0.1,0-0.2-0.1-0.3,0
							l-0.1,0.2c-0.3,0.5-1.1,0.6-1.6,1c0,0,0.1-0.1,0-0.1c-0.5,0.3-1,0.6-1.6,0.8s-1.3,0.3-1.9,0.2c0.1,0,0.1-0.1,0.1-0.2
							c-0.1,0.1-0.4,0.1-0.7-0.1l0,0l0,0c-0.1-0.2-0.5-0.2-0.8-0.4l0,0c-0.3,0-0.3-0.3-0.6-0.3l-0.1-0.2C31,33.4,30.9,33,30.6,33
							l0,0c-0.2-0.1-0.3-0.2-0.5-0.3l0,0c-0.4-0.2-0.6-0.4-0.7-0.3c-0.1-0.2,0.4,0.2,0.3-0.1c-1.5-0.7-2.8-1.5-4.2-2.3
							c-0.1-0.2-0.2-0.2-0.3-0.3c-0.2,0-0.5-0.3-0.7-0.3c0,0-0.1-0.1-0.1-0.2c-0.2-0.2-0.3,0-0.6-0.2c0.1,0,0.2,0,0.2-0.1
							c-0.3,0-0.6-0.2-0.9-0.3h0.1c-0.3,0-0.5-0.3-0.8-0.4h0.1c-0.4-0.4-0.2,0.1-0.5-0.2c0.1,0,0.1,0,0.1-0.1
							c-0.4,0-0.9-0.4-1.3-0.6l0,0c-0.4-0.2-0.8-0.5-1.2-0.7c-0.2-0.1,0.1-0.2-0.3-0.4c0,0.2-0.7-0.3-0.5,0
							c-0.3-0.2-0.9-0.6-1.1-0.7c0.2,0-0.2-0.3,0.1-0.2l-0.2-0.2c0-0.1,0.2,0.2,0.2,0c-0.1-0.1-0.6-0.2-0.7-0.3
							c-0.3,0-0.5,0-0.9-0.2c0.2,0-0.1-0.3,0-0.2h-0.6c-0.1-0.1,0-0.2-0.2-0.2c0,0.1-0.1,0-0.1,0s-0.6-0.3-0.7-0.5
							c-0.1-0.1,0.2,0.1,0.1-0.1c-0.3-0.2-0.3-0.1-0.5-0.3l0,0c-0.2-0.1-0.5-0.2-0.3,0c0.1,0.1-0.1-0.1,0.1,0
							c-0.1,0-0.4-0.1-0.7-0.3c0.1,0,0.1,0,0.1-0.1c-0.3-0.1-0.7-0.2-1.1-0.4c0,0.1,0.1-0.1,0.2,0c-0.5-0.4-0.9-0.4-1.3-0.7
							l-0.3-0.1c0,0-0.1-0.1-0.1-0.2c0.1,0,0,0.1,0,0.1c-0.3-0.2-0.2-0.3-0.4-0.5c0-0.1-0.2-0.2-0.3-0.5c-0.1-0.1,0-0.1,0.1,0.1
							c-0.1-0.1-0.3-0.6-0.3-1s0-0.8,0.1-1.1c0,0-0.2-0.3-0.2-0.4h0.1c0,0,0,0,0-0.1h1c0,0,0,0,0,0.1c0.1,0,0-0.1,0-0.1H10
							c0.1,0.2,0.1,0.5,0,0.3c0.1-0.1,0-0.2-0.1-0.3h1l0,0c0,0,0.2,0.1,0.3,0.3c0,0-0.2,0-0.1,0.1c0.3,0.2,0.1,0,0.4,0.2l0.2,0.1
							c0,0,0.1,0,0.2,0l0,0c0,0.1,0.2,0.1,0.2,0.3v0.2c0.1,0,0.2-0.1,0.2-0.1v0.1c-0.1-0.3,0.2,0.1,0.2-0.1l0,0c0-0.1,0-0.3,0.1-0.3
							c-0.1-0.1,0.1-0.6,0.4-0.8c0,0.1-0.1,0.2-0.1,0.2c0.2-0.2,0.2-0.2,0.4-0.4c0,0,0.5-0.2,0.7-0.2c0.2-0.2,0.1-0.3,0.1-0.3
							c0.2,0,0.3-0.1,0.5-0.2s0.1-0.2,0.3-0.2c0,0-0.1,0.2,0,0.2c0.2,0,0.2,0,0.2-0.1S15,16.9,15,16.8c-0.1,0-0.1,0-0.2,0
							c0.1,0-0.1-0.5,0.1-0.5c-0.1-0.2,0.1-0.7,0-0.7c0.1-0.1,0.1-0.2,0.2-0.3c0.1-0.1,0.2-0.2,0.3-0.2c0.3-0.1,0.4-0.2,0.6-0.3
							c0.3-0.2,0.6-0.4,0.9-0.3c0.1-0.1,0.3-0.2,0.2-0.2c-0.2,0-0.2,0.2-0.2,0.2c0.1,0,0.1-0.1,0-0.1c0.2-0.1,0.3-0.2,0.3,0.1
							c0.5-0.2,0.3-0.5,0.9-0.8c0,0.1,0.1,0.1,0.2,0s0.2-0.2,0.3-0.3c0.5-0.1,0.3,0.1,0.3,0.2c0.1,0,0.3,0,0.5,0s0.3,0.1,0.4,0.2
							c0,0.1,0,0.2,0,0.3c0-0.2,0.1,0,0.1,0.1l0,0l0,0l0,0c0,0,0,0,0,0.1c0,0,0,0.1,0,0.2c0-0.1,0.1-0.2,0.1-0.3l0,0l0,0v0.1
							c0,0.1-0.1,0.1-0.1,0.2l0,0c0,0,0,0,0.1,0s0.1-0.2,0.2-0.2c0,0.1,0.1-0.1,0,0.1c0,0,0,0-0.1,0.1c0,0,0,0.2,0.2,0
							c0.1-0.1,0-0.3,0.1-0.3c0,0,0,0.1-0.1,0.2h0.2v-0.1l0,0c0-0.1,0-0.1,0.1-0.2c0.1-0.1,0.2-0.2,0.2-0.2c0.1-0.1,0.3-0.1,0.5-0.2
							l0,0c0.2,0,0.4-0.2,0.5-0.4l0,0c0.1,0,0.3-0.2,0.4-0.3c0.3-0.1,0.3,0.3,0.5,0c0.3-0.1,0.3-0.4,0.2-0.4c0.5-0.2,1-0.6,1.8-0.5
							c0.1,0,0-0.1,0.3-0.1c0.2,0,0.3,0.2,0.5,0.2c0.6,0.3,1.2,0.5,1.5,1c-0.2-0.1-0.1,0.1-0.1,0.2c0.2,0,0.1,0.2,0.3,0.1
							c0-0.1,0.1-0.1-0.1-0.3c0.4,0.2,0.9,0.5,1.1,0.7c-0.1-0.1,0-0.1,0.1-0.1c-0.1,0.1,0.2,0.3,0.4,0.4l0.1-0.1l0.1,0.2
							c0.1,0,0.1-0.2,0.3,0.1v0.1c0.2,0,0.5,0.1,0.8,0.3l0.2,0.3c0.1,0,0.3,0.1,0.1-0.1c0.4,0.3,0.6,0.5,0.7,0.7
							c0.7,0.1,1.6,0.7,2.4,1.2V17c0.2,0.2,0.1-0.1,0.2,0.1c0,0,0.2,0.3,0,0.2c0.3,0.3,0.3,0.1,0.5,0.2c0-0.1-0.1,0-0.1-0.1
							c0,0,0.4,0.3,0.4,0.2c0.1,0.1,0.1,0.2,0,0.2h0.2c0.3,0.3-0.4,0-0.1,0.3l0.2,0.1c0.2,0.2-0.4-0.1,0,0.2c0.2,0,0.3-0.1,0.1-0.2
							c0.4,0.2,0.1-0.2,0.5,0c0.1,0.2-0.3-0.2-0.2,0c0.2,0.2,0.4,0.2,0.5,0.3c-0.2-0.2-0.1-0.2,0-0.2c0.2,0.2-0.1,0,0.2,0.2
							c0,0,0.3,0.1,0-0.1c0-0.1,0.3,0.3,0.4,0.2c0.2,0.2-0.2,0.1,0.2,0.3c-0.1-0.2,0.3,0.1,0-0.2c0.1,0.1,0.2,0.2,0.2,0.2
							c0.2,0.2,0.3,0.1,0.5,0.3v-0.1c0.1,0.1,0.2,0.2,0.3,0.3c0.2,0.1,0.4,0.2,0.5,0.3c0,0,0.4,0.3,0.2,0.1
							c-0.3-0.2-0.2-0.1-0.4-0.3c0.3,0.2,0.3,0.2,0.4,0.3l0.1,0.1c0.1,0,0.3,0.2,0.2,0.1c0,0,0,0,0.1,0.1l0,0
							c0.3,0.2,0.2,0.2,0.5,0.4l-0.2-0.1c0,0,0.2,0.2,0.3,0.2v-0.1c0.1,0.1,0.2,0.1,0.3,0.2l-0.1-0.1c0,0,0.3,0.2,0.5,0.4
							c0.1,0.1,0.2,0.1,0-0.1c0.1,0.1,0.3,0.2,0.3,0.2c0.2,0.2-0.1-0.1,0.1,0c0.2,0.1,0.5,0.4,0.8,0.5h-0.1l0.2,0.1
							c-0.1,0,0.2,0.1,0.2,0.2c0.1,0.1,0.2,0.1,0.3,0.2c-0.5-0.3,0.1,0-0.2-0.2c0.4,0.3,0.7,0.5,0.9,0.6c-0.1-0.1,0,0-0.3-0.2
							c0.2,0.1,0.2,0.1,0.4,0.3c-0.2-0.1,0.5,0.3,0.2,0.1c-0.1-0.1-0.2-0.1-0.3-0.2c0.2,0.1,0.2,0.1,0.4,0.3c0.1,0,0.1,0.1,0.2,0.1
							l0.5-0.2c0.2,0.1,0.3,0.2,0.4,0.2c0.1,0.1,0.1,0.1,0.1,0.1s0-0.2-0.2-0.3s-0.4-0.2-0.1-0.1c0.2,0.1,0.3,0.2,0.4,0.3
							c0.1,0.1,0.1,0.2,0.1,0.2c0,0.1,0,0.2,0.1,0.3c0,0.1,0,0.2,0.2,0.3c0-0.3,0-0.5,0.1-0.5c0.1,0.2,0.1,0.3,0.1,0.5l-0.1-0.1
							c0,0.6,0.2,0.2,0.2,0.8l-0.2,0.2c-0.1-0.1,0.1-0.8-0.2-0.7c0,0.3,0.1,0.5,0,0.8c0-0.1,0-0.2,0-0.2c0,0.1-0.3,0.2-0.2,0.7
							c0.1,0.2,0.1,0.1,0.2,0.1c0,0.2,0,0.2,0,0.4s0,0.4,0,0.5c0,0.2-0.1,0.3-0.2,0.5c0-0.2-0.7,0.6-0.4,0.1c0.1,0,0.3-0.2,0.4-0.4
							c0.1-0.2,0.1-0.5,0.1-0.7s-0.1-0.2-0.1-0.3c-0.2,0.2,0-0.4-0.2-0.5c0,0.4-0.2,0.4-0.3,0.4c0,0.1,0,0.2,0.1,0.3
							s0.1-0.1,0.2-0.1v0.1c0.1,0.6-0.3,1-0.5,1.2c-0.2,0.1-0.2-0.1,0-0.2c-0.3,0.2-0.5,0.3-0.8,0.5c-0.2,0.1-0.5,0.2-0.7,0.3
							c0.1,0,0.1,0,0.1,0.1l0,0l0,0c0,0,0,0-0.1-0.1c0,0-0.1-0.1-0.2-0.1l0.1-0.6c0.2,0.1,0.4,0.3,0.3,0.1c-0.1-0.1-0.2-0.2-0.3-0.2
							l-0.2,0.7c0.1,0.1,0.2,0.2,0.3,0.3c0,0.1,0,0,0.1,0.1h0.1c0,0,0.1,0.1,0,0.1c0,0,0-0.1-0.1-0.1l0,0c0,0,0-0.1-0.1-0.1v-0.1
							c-0.1-0.1-0.2-0.2-0.3-0.3l0.2-0.8c0.3,0.1,0.4,0.5,0.6,0.6c0,0.1,0,0,0-0.1l-0.1-0.1c-0.1-0.1-0.1-0.1-0.1-0.1
							c-0.1,0-0.1,0-0.1,0c0,0.1,0,0.2-0.1,0.2c0.2,0.2,0.1,0.2,0.1,0.2s-0.1,0,0,0.2s0.1,0.4,0.2,0.5l0,0c0,0,0.3-0.1,0.4-0.2
							c0.2-0.1,0.3-0.2,0.4-0.3c0.2,0,0.2,0.2,0.4,0.1c0.3-0.1-0.3-0.1,0.1-0.2l0,0c0.1-0.1,0.7-0.3,0.7-0.5v0.2
							c0.1,0,0.1-0.1,0.2-0.1c0,0,0.1,0.1,0,0.2c0.3,0,0.5-0.3,0.7-0.4H45c0.4-0.3,0.7-0.4,1-0.7V26l0.2-0.2c0,0.1,0.3,0,0.3-0.1
							c-0.1,0.2-0.3,0.4-0.4,0.7c-0.2,0.1,0.1-0.2-0.1-0.3c-0.1,0-0.5,0.2-0.5,0.4c0.2-0.1,0.1-0.1,0.2-0.2c0.1,0.1-0.1,0.2-0.1,0.4
							c0.1,0,0.2-0.1,0.2-0.1c-0.1,0.2-0.3,0.3-0.5,0.4c0.1-0.2-0.1,0-0.1-0.1c0,0.1-0.2,0.3-0.5,0.4c-0.3,0-0.5,0.4-0.9,0.5
							c0.1-0.2,0.2-0.4,0.4-0.6c-0.3,0.1-0.3,0.1-0.5,0.2c-0.1,0.2-0.1,0.3-0.3,0.5l-0.1-0.1C43,28,43,28.2,42.6,28.4
							c-0.2,0.1-0.5,0.2-0.7,0.3c-0.1,0-0.2,0.1-0.3,0.2L41.5,29c0,0,0,0-0.1,0c0-0.4,0-0.6,0-0.9l0.1-0.1c-0.1,0-0.1-0.2-0.2-0.4
							c0,0,0-0.1,0-0.2l0,0c0,0,0,0-0.1,0l-0.4-0.3l0.3-0.3c0.2-0.2,0.3-0.2,0.4-0.3c0.3-0.1,0.6-0.3,0.8-0.4
							c0.2-0.2,0.3-0.2,0.5-0.3c0.1-0.1,0-0.2,0-0.3c0-0.4,0-0.8,0-1.2c0-0.2,0-0.4,0-0.5s0-0.2,0-0.2s-0.1,0,0.1-0.1
							c0.1-0.1,0.1-0.1,0.1-0.1h0.4c-0.1-0.1-0.2-0.1-0.3-0.2l0,0c-0.1,0-0.2-0.1-0.3-0.2c0.3,0.2-0.1,0-0.2-0.1
							c-0.5-0.3-1-0.6-1.4-0.7h-0.1c-0.3-0.1-0.9-0.5-1.4-0.8c-0.1-0.1-0.2-0.2-0.4-0.3c-0.2,0-0.3-0.1-0.7-0.3
							c-0.3-0.2-0.8-0.5-1.2-0.7c-1-0.4-2.3-1.2-3.4-1.7l-0.1-0.2c-1.1-0.4-2.6-1.4-3.6-1.8l0.1-0.2c-0.3-0.2-0.7-0.3-0.7-0.2
							c-0.3-0.2-0.8-0.3-1-0.6c-0.3-0.2-0.4-0.1-0.7-0.3c-0.6-0.4-0.8-0.5-1.5-0.9l0.1,0.1c0.1,0,0.1-0.1,0-0.2
							c-0.2-0.1-0.8-0.5-0.7-0.2c-0.4-0.4-1.1-0.6-1.5-0.9l-0.1-0.1c0,0.1,0,0.1-0.1,0.1c-0.3,0-1,0.2-1.3,0.5
							c-0.1,0,0.1-0.2-0.1-0.1c-0.1,0.1,0,0.1-0.1,0.2c-0.4,0.3-0.8,0.5-1.3,0.8l-0.3,0.2c-0.2,0.1-0.3,0.2-0.5,0.3
							c-0.3,0.2-0.7,0.4-1,0.5s-0.5,0.3-0.8,0.4c-0.1,0-0.2,0-0.6,0.1l0.1-0.8c0-0.3,0-0.5,0.2-0.8l0.4-0.3c0,0,0,0,0,0.1
							s0,0.1,0,0.2c0,0.1,0,0.2,0,0.2c-0.1,0-0.3,0.1-0.6,0.2c-0.5,0.3-1,0.6-1.5,0.9l0,0c-0.1,0.1-0.2,0.2-0.3,0.3
							c-0.1,0.1-0.4,0.2-0.3,0.2h-0.1c0,0,0,0.1,0.1,0.1c0,0,0,0.1-0.1,0.1c0,0.1,0.1,0.7,0,1.2c0,0.1-0.1,0.2-0.2,0.3
							c-0.1,0.1-0.2,0.2-0.3,0.2c-0.2,0.2-0.5,0.3-0.6,0.4c0,0,0.1,0,0.1-0.1c-0.6,0.2-1,0.5-1.4,0.7c0,0,0.1-0.1,0-0.2
							c-0.2,0.1-0.1,0.3-0.3,0.3c-0.1,0.2,0.1,0.2,0.1,0.1c-0.1,0.6,0.1,1.6,0.2,2.3c-0.2,0-0.7-0.4-1.1-0.6
							c-0.4-0.3-0.8-0.5-1.2-0.7c-0.5-0.2-0.7-0.3-1-0.5s-0.6-0.4-0.8-0.8c-0.2-0.3-0.2-0.7-0.1-0.8H11c-0.1,0.5-0.3-0.2-0.1,0.6
							c0,0.1,0.1,0.1,0,0.1c0,0.4-0.3,0.5-0.2,0.7c0.2-0.1,0.1,0.1,0.2,0.2c-0.1,0.5-0.2,0.7,0,0.9h-0.1c0.2,0.1,0.3,0.1,0.4,0.2
							l-0.5-0.1c0.3,0.2,0.7,0.3,0.9,0.3c2.9,1.5,5.6,3,8.5,4.5c2.8,1.6,5.5,3.1,8.3,4.8c0.6,0.6,0.6,0.6,1.4,0.9h-0.1
							c0.1-0.1,0.5,0.3,0.7,0.2c0.9,0.5,1.8,1,2.7,1.5l0.1,0.1c0,0,0.1,0,0.1,0.1c-0.1,0-0.2,0.1-0.1,0.1l0.1-0.1l0,0
							c0.1,0,0.2-0.1,0.1-0.1c0.4,0,1-0.1,1.7-0.3c0.6-0.2,1.3-0.5,1.9-0.8c1.3-0.6,2.6-1.3,3.8-2.1c0.6-0.3,1.4-0.9,2.1-1.3
							c0.5-0.3,1-0.5,1.5-0.8c0.3-0.1,0.5-0.2,0.8-0.4c0.1-0.1,0.3-0.1,0.4-0.2c0.1,0,0.2-0.1,0.2-0.1s0,0,0.1,0
							c0.3-0.1,0.4-0.3,0.4-0.8s-0.2-1-0.1-1.8C46.3,24.9,46.7,25.3,46.9,26.2z"/>
						<path class="st1" d="M46.9,25.8c-0.1,0-0.4,0.2-0.3-0.1C46.7,25.7,46.9,25.7,46.9,25.8z"/>
						<path class="st1" d="M42.2,27.1C42.1,27.1,42.2,27,42.2,27.1C42.2,27,42.3,27.1,42.2,27.1L42.2,27.1z"/>
						<path class="st1" d="M42.8,26.9c0,0.1-0.3,0.3-0.5,0.4L42.8,26.9z"/>
						<path class="st1" d="M44.2,25.2C44.2,25,44.3,25.1,44.2,25.2C44.2,25.3,44.2,25.2,44.2,25.2z"/>
						<path class="st1" d="M44,25c0-0.1,0-0.2,0.1-0.3C44,24.8,44.1,25.1,44,25z"/>
						<path class="st1" d="M40.8,21.7c-0.1,0-0.2-0.1-0.3-0.2C40.6,21.6,40.8,21.7,40.8,21.7z"/>
						<path class="st1" d="M39.5,20.9C39.5,20.9,39.4,20.9,39.5,20.9C39.2,20.7,39.3,20.7,39.5,20.9L39.5,20.9z"/>
						<polygon class="st1" points="14.8,17.2 14.7,17 14.8,17.1 						"/>
						<path class="st1" d="M13,23.3c0.2,0,0.1,0.1,0.1,0.2C13,23.3,13.2,23.4,13,23.3z"/>
						<polygon class="st1" points="19.2,26.5 19.1,26.5 19.2,26.4 						"/>
					</g>
				</g>
			</g>
		</g>
	</g>
	<g class="st2">
		<path d="M47,25c0.2,1-4.7,3.1-5.3,3.6c-0.1-0.4,0.2-1.3-0.3-1.6c0.2-0.3,2-0.9,1.9-1.3s0.3-2.4-0.3-2.5L25,12.7
			c-1-0.8-4.7,2.2-5.6,2.5c0.6-2.9-3.1,0.5-3.9,0.7c-0.3,0.1-0.1,1.5-0.2,1.7c-1.3,0.9-2.9,0.9-2.5,3c-0.5-0.4-2.6-1.2-2.6-2
			c0.2,1.1-0.5,2.4,0.7,3.1l21.7,12.6c2.5,2,11.5-5.4,13.8-6.1C47.6,27.4,46.9,26.1,47,25z"/>
		<g>
			<g>
				<g>
					<g>
						<path class="st1" d="M47.2,25.3c0.1-0.6-0.2,0.3,0-0.4C47.3,25,47.4,25.2,47.2,25.3z"/>
						<path class="st1" d="M46.9,26.2c0.1,0.3,0.2,0.6,0.1,1c0,0.3-0.3,0.7-0.6,0.8c-0.7,0.3-1.3,0.6-1.8,1c-0.1,0.1-0.1-0.2-0.3,0
							c-0.9,0.9-2.7,1.9-4.2,2.5v-0.1c-0.3,0.1-0.5,0.5-0.8,0.6c0,0,0.1-0.1,0-0.1c0,0.1-0.5,0.3-0.5,0.5c-0.1,0-0.2-0.1-0.3,0
							l-0.1,0.2c-0.3,0.5-1.1,0.6-1.6,1c0,0,0.1-0.1,0-0.1c-0.5,0.3-1,0.6-1.6,0.8s-1.3,0.3-1.9,0.2c0.1,0,0.1-0.1,0.1-0.2
							c-0.1,0.1-0.4,0.1-0.7-0.1l0,0l0,0c-0.1-0.2-0.5-0.2-0.8-0.4l0,0c-0.3,0-0.3-0.3-0.6-0.3l-0.1-0.2C31,33.4,30.9,33,30.6,33
							l0,0c-0.2-0.1-0.3-0.2-0.5-0.3l0,0c-0.4-0.2-0.6-0.4-0.7-0.3c-0.1-0.2,0.4,0.2,0.3-0.1c-1.5-0.7-2.8-1.5-4.2-2.3
							c-0.1-0.2-0.2-0.2-0.3-0.3c-0.2,0-0.5-0.3-0.7-0.3c0,0-0.1-0.1-0.1-0.2c-0.2-0.2-0.3,0-0.6-0.2c0.1,0,0.2,0,0.2-0.1
							c-0.3,0-0.6-0.2-0.9-0.3h0.1c-0.3,0-0.5-0.3-0.8-0.4h0.1c-0.4-0.4-0.2,0.1-0.5-0.2c0.1,0,0.1,0,0.1-0.1
							c-0.4,0-0.9-0.4-1.3-0.6l0,0c-0.4-0.2-0.8-0.5-1.2-0.7c-0.2-0.1,0.1-0.2-0.3-0.4c0,0.2-0.7-0.3-0.5,0
							c-0.3-0.2-0.9-0.6-1.1-0.7c0.2,0-0.2-0.3,0.1-0.2l-0.2-0.2c0-0.1,0.2,0.2,0.2,0c-0.1-0.1-0.6-0.2-0.7-0.3
							c-0.3,0-0.5,0-0.9-0.2c0.2,0-0.1-0.3,0-0.2h-0.6c-0.1-0.1,0-0.2-0.2-0.2c0,0.1-0.1,0-0.1,0s-0.6-0.3-0.7-0.5
							c-0.1-0.1,0.2,0.1,0.1-0.1c-0.3-0.2-0.3-0.1-0.5-0.3l0,0c-0.2-0.1-0.5-0.2-0.3,0c0.1,0.1-0.1-0.1,0.1,0
							c-0.1,0-0.4-0.1-0.7-0.3c0.1,0,0.1,0,0.1-0.1c-0.3-0.1-0.7-0.2-1.1-0.4c0,0.1,0.1-0.1,0.2,0c-0.5-0.4-0.9-0.4-1.3-0.7
							l-0.3-0.1c0,0-0.1-0.1-0.1-0.2c0.1,0,0,0.1,0,0.1c-0.3-0.2-0.2-0.3-0.4-0.5c0-0.1-0.2-0.2-0.3-0.5c-0.1-0.1,0-0.1,0.1,0.1
							c-0.1-0.1-0.3-0.6-0.3-1s0-0.8,0.1-1.1c0,0-0.2-0.3-0.2-0.4h0.1c0,0,0,0,0-0.1h1c0,0,0,0,0,0.1c0.1,0,0-0.1,0-0.1H10
							c0.1,0.2,0.1,0.5,0,0.3c0.1-0.1,0-0.2-0.1-0.3h1l0,0c0,0,0.2,0.1,0.3,0.3c0,0-0.2,0-0.1,0.1c0.3,0.2,0.1,0,0.4,0.2l0.2,0.1
							c0,0,0.1,0,0.2,0l0,0c0,0.1,0.2,0.1,0.2,0.3v0.2c0.1,0,0.2-0.1,0.2-0.1v0.1c-0.1-0.3,0.2,0.1,0.2-0.1l0,0c0-0.1,0-0.3,0.1-0.3
							c-0.1-0.1,0.1-0.6,0.4-0.8c0,0.1-0.1,0.2-0.1,0.2c0.2-0.2,0.2-0.2,0.4-0.4c0,0,0.5-0.2,0.7-0.2c0.2-0.2,0.1-0.3,0.1-0.3
							c0.2,0,0.3-0.1,0.5-0.2s0.1-0.2,0.3-0.2c0,0-0.1,0.2,0,0.2c0.2,0,0.2,0,0.2-0.1S15,16.9,15,16.8c-0.1,0-0.1,0-0.2,0
							c0.1,0-0.1-0.5,0.1-0.5c-0.1-0.2,0.1-0.7,0-0.7c0.1-0.1,0.1-0.2,0.2-0.3c0.1-0.1,0.2-0.2,0.3-0.2c0.3-0.1,0.4-0.2,0.6-0.3
							c0.3-0.2,0.6-0.4,0.9-0.3c0.1-0.1,0.3-0.2,0.2-0.2c-0.2,0-0.2,0.2-0.2,0.2c0.1,0,0.1-0.1,0-0.1c0.2-0.1,0.3-0.2,0.3,0.1
							c0.5-0.2,0.3-0.5,0.9-0.8c0,0.1,0.1,0.1,0.2,0s0.2-0.2,0.3-0.3c0.5-0.1,0.3,0.1,0.3,0.2c0.1,0,0.3,0,0.5,0s0.3,0.1,0.4,0.2
							c0,0.1,0,0.2,0,0.3c0-0.2,0.1,0,0.1,0.1l0,0l0,0l0,0c0,0,0,0,0,0.1c0,0,0,0.1,0,0.2c0-0.1,0.1-0.2,0.1-0.3l0,0l0,0v0.1
							c0,0.1-0.1,0.1-0.1,0.2l0,0c0,0,0,0,0.1,0s0.1-0.2,0.2-0.2c0,0.1,0.1-0.1,0,0.1c0,0,0,0-0.1,0.1c0,0,0,0.2,0.2,0
							c0.1-0.1,0-0.3,0.1-0.3c0,0,0,0.1-0.1,0.2h0.2v-0.1l0,0c0-0.1,0-0.1,0.1-0.2c0.1-0.1,0.2-0.2,0.2-0.2c0.1-0.1,0.3-0.1,0.5-0.2
							l0,0c0.2,0,0.4-0.2,0.5-0.4l0,0c0.1,0,0.3-0.2,0.4-0.3c0.3-0.1,0.3,0.3,0.5,0c0.3-0.1,0.3-0.4,0.2-0.4c0.5-0.2,1-0.6,1.8-0.5
							c0.1,0,0-0.1,0.3-0.1c0.2,0,0.3,0.2,0.5,0.2c0.6,0.3,1.2,0.5,1.5,1c-0.2-0.1-0.1,0.1-0.1,0.2c0.2,0,0.1,0.2,0.3,0.1
							c0-0.1,0.1-0.1-0.1-0.3c0.4,0.2,0.9,0.5,1.1,0.7c-0.1-0.1,0-0.1,0.1-0.1c-0.1,0.1,0.2,0.3,0.4,0.4l0.1-0.1l0.1,0.2
							c0.1,0,0.1-0.2,0.3,0.1v0.1c0.2,0,0.5,0.1,0.8,0.3l0.2,0.3c0.1,0,0.3,0.1,0.1-0.1c0.4,0.3,0.6,0.5,0.7,0.7
							c0.7,0.1,1.6,0.7,2.4,1.2V17c0.2,0.2,0.1-0.1,0.2,0.1c0,0,0.2,0.3,0,0.2c0.3,0.3,0.3,0.1,0.5,0.2c0-0.1-0.1,0-0.1-0.1
							c0,0,0.4,0.3,0.4,0.2c0.1,0.1,0.1,0.2,0,0.2h0.2c0.3,0.3-0.4,0-0.1,0.3l0.2,0.1c0.2,0.2-0.4-0.1,0,0.2c0.2,0,0.3-0.1,0.1-0.2
							c0.4,0.2,0.1-0.2,0.5,0c0.1,0.2-0.3-0.2-0.2,0c0.2,0.2,0.4,0.2,0.5,0.3c-0.2-0.2-0.1-0.2,0-0.2c0.2,0.2-0.1,0,0.2,0.2
							c0,0,0.3,0.1,0-0.1c0-0.1,0.3,0.3,0.4,0.2c0.2,0.2-0.2,0.1,0.2,0.3c-0.1-0.2,0.3,0.1,0-0.2c0.1,0.1,0.2,0.2,0.2,0.2
							c0.2,0.2,0.3,0.1,0.5,0.3v-0.1c0.1,0.1,0.2,0.2,0.3,0.3c0.2,0.1,0.4,0.2,0.5,0.3c0,0,0.4,0.3,0.2,0.1
							c-0.3-0.2-0.2-0.1-0.4-0.3c0.3,0.2,0.3,0.2,0.4,0.3l0.1,0.1c0.1,0,0.3,0.2,0.2,0.1c0,0,0,0,0.1,0.1l0,0
							c0.3,0.2,0.2,0.2,0.5,0.4l-0.2-0.1c0,0,0.2,0.2,0.3,0.2v-0.1c0.1,0.1,0.2,0.1,0.3,0.2l-0.1-0.1c0,0,0.3,0.2,0.5,0.4
							c0.1,0.1,0.2,0.1,0-0.1c0.1,0.1,0.3,0.2,0.3,0.2c0.2,0.2-0.1-0.1,0.1,0c0.2,0.1,0.5,0.4,0.8,0.5h-0.1l0.2,0.1
							c-0.1,0,0.2,0.1,0.2,0.2c0.1,0.1,0.2,0.1,0.3,0.2c-0.5-0.3,0.1,0-0.2-0.2c0.4,0.3,0.7,0.5,0.9,0.6c-0.1-0.1,0,0-0.3-0.2
							c0.2,0.1,0.2,0.1,0.4,0.3c-0.2-0.1,0.5,0.3,0.2,0.1c-0.1-0.1-0.2-0.1-0.3-0.2c0.2,0.1,0.2,0.1,0.4,0.3c0.1,0,0.1,0.1,0.2,0.1
							l0.5-0.2c0.2,0.1,0.3,0.2,0.4,0.2c0.1,0.1,0.1,0.1,0.1,0.1s0-0.2-0.2-0.3s-0.4-0.2-0.1-0.1c0.2,0.1,0.3,0.2,0.4,0.3
							c0.1,0.1,0.1,0.2,0.1,0.2c0,0.1,0,0.2,0.1,0.3c0,0.1,0,0.2,0.2,0.3c0-0.3,0-0.5,0.1-0.5c0.1,0.2,0.1,0.3,0.1,0.5l-0.1-0.1
							c0,0.6,0.2,0.2,0.2,0.8l-0.2,0.2c-0.1-0.1,0.1-0.8-0.2-0.7c0,0.3,0.1,0.5,0,0.8c0-0.1,0-0.2,0-0.2c0,0.1-0.3,0.2-0.2,0.7
							c0.1,0.2,0.1,0.1,0.2,0.1c0,0.2,0,0.2,0,0.4s0,0.4,0,0.5c0,0.2-0.1,0.3-0.2,0.5c0-0.2-0.7,0.6-0.4,0.1c0.1,0,0.3-0.2,0.4-0.4
							c0.1-0.2,0.1-0.5,0.1-0.7s-0.1-0.2-0.1-0.3c-0.2,0.2,0-0.4-0.2-0.5c0,0.4-0.2,0.4-0.3,0.4c0,0.1,0,0.2,0.1,0.3
							s0.1-0.1,0.2-0.1v0.1c0.1,0.6-0.3,1-0.5,1.2c-0.2,0.1-0.2-0.1,0-0.2c-0.3,0.2-0.5,0.3-0.8,0.5c-0.2,0.1-0.5,0.2-0.7,0.3
							c0.1,0,0.1,0,0.1,0.1l0,0l0,0c0,0,0,0-0.1-0.1c0,0-0.1-0.1-0.2-0.1l0.1-0.6c0.2,0.1,0.4,0.3,0.3,0.1c-0.1-0.1-0.2-0.2-0.3-0.2
							l-0.2,0.7c0.1,0.1,0.2,0.2,0.3,0.3c0,0.1,0,0,0.1,0.1h0.1c0,0,0.1,0.1,0,0.1c0,0,0-0.1-0.1-0.1l0,0c0,0,0-0.1-0.1-0.1v-0.1
							c-0.1-0.1-0.2-0.2-0.3-0.3l0.2-0.8c0.3,0.1,0.4,0.5,0.6,0.6c0,0.1,0,0,0-0.1l-0.1-0.1c-0.1-0.1-0.1-0.1-0.1-0.1
							c-0.1,0-0.1,0-0.1,0c0,0.1,0,0.2-0.1,0.2c0.2,0.2,0.1,0.2,0.1,0.2s-0.1,0,0,0.2s0.1,0.4,0.2,0.5l0,0c0,0,0.3-0.1,0.4-0.2
							c0.2-0.1,0.3-0.2,0.4-0.3c0.2,0,0.2,0.2,0.4,0.1c0.3-0.1-0.3-0.1,0.1-0.2l0,0c0.1-0.1,0.7-0.3,0.7-0.5v0.2
							c0.1,0,0.1-0.1,0.2-0.1c0,0,0.1,0.1,0,0.2c0.3,0,0.5-0.3,0.7-0.4H45c0.4-0.3,0.7-0.4,1-0.7V26l0.2-0.2c0,0.1,0.3,0,0.3-0.1
							c-0.1,0.2-0.3,0.4-0.4,0.7c-0.2,0.1,0.1-0.2-0.1-0.3c-0.1,0-0.5,0.2-0.5,0.4c0.2-0.1,0.1-0.1,0.2-0.2c0.1,0.1-0.1,0.2-0.1,0.4
							c0.1,0,0.2-0.1,0.2-0.1c-0.1,0.2-0.3,0.3-0.5,0.4c0.1-0.2-0.1,0-0.1-0.1c0,0.1-0.2,0.3-0.5,0.4c-0.3,0-0.5,0.4-0.9,0.5
							c0.1-0.2,0.2-0.4,0.4-0.6c-0.3,0.1-0.3,0.1-0.5,0.2c-0.1,0.2-0.1,0.3-0.3,0.5l-0.1-0.1C43,28,43,28.2,42.6,28.4
							c-0.2,0.1-0.5,0.2-0.7,0.3c-0.1,0-0.2,0.1-0.3,0.2L41.5,29c0,0,0,0-0.1,0c0-0.4,0-0.6,0-0.9l0.1-0.1c-0.1,0-0.1-0.2-0.2-0.4
							c0,0,0-0.1,0-0.2l0,0c0,0,0,0-0.1,0l-0.4-0.3l0.3-0.3c0.2-0.2,0.3-0.2,0.4-0.3c0.3-0.1,0.6-0.3,0.8-0.4
							c0.2-0.2,0.3-0.2,0.5-0.3c0.1-0.1,0-0.2,0-0.3c0-0.4,0-0.8,0-1.2c0-0.2,0-0.4,0-0.5s0-0.2,0-0.2s-0.1,0,0.1-0.1
							c0.1-0.1,0.1-0.1,0.1-0.1h0.4c-0.1-0.1-0.2-0.1-0.3-0.2l0,0c-0.1,0-0.2-0.1-0.3-0.2c0.3,0.2-0.1,0-0.2-0.1
							c-0.5-0.3-1-0.6-1.4-0.7h-0.1c-0.3-0.1-0.9-0.5-1.4-0.8c-0.1-0.1-0.2-0.2-0.4-0.3c-0.2,0-0.3-0.1-0.7-0.3
							c-0.3-0.2-0.8-0.5-1.2-0.7c-1-0.4-2.3-1.2-3.4-1.7l-0.1-0.2c-1.1-0.4-2.6-1.4-3.6-1.8l0.1-0.2c-0.3-0.2-0.7-0.3-0.7-0.2
							c-0.3-0.2-0.8-0.3-1-0.6c-0.3-0.2-0.4-0.1-0.7-0.3c-0.6-0.4-0.8-0.5-1.5-0.9l0.1,0.1c0.1,0,0.1-0.1,0-0.2
							c-0.2-0.1-0.8-0.5-0.7-0.2c-0.4-0.4-1.1-0.6-1.5-0.9l-0.1-0.1c0,0.1,0,0.1-0.1,0.1c-0.3,0-1,0.2-1.3,0.5
							c-0.1,0,0.1-0.2-0.1-0.1c-0.1,0.1,0,0.1-0.1,0.2c-0.4,0.3-0.8,0.5-1.3,0.8l-0.3,0.2c-0.2,0.1-0.3,0.2-0.5,0.3
							c-0.3,0.2-0.7,0.4-1,0.5s-0.5,0.3-0.8,0.4c-0.1,0-0.2,0-0.6,0.1l0.1-0.8c0-0.3,0-0.5,0.2-0.8l0.4-0.3c0,0,0,0,0,0.1
							s0,0.1,0,0.2c0,0.1,0,0.2,0,0.2c-0.1,0-0.3,0.1-0.6,0.2c-0.5,0.3-1,0.6-1.5,0.9l0,0c-0.1,0.1-0.2,0.2-0.3,0.3
							c-0.1,0.1-0.4,0.2-0.3,0.2h-0.1c0,0,0,0.1,0.1,0.1c0,0,0,0.1-0.1,0.1c0,0.1,0.1,0.7,0,1.2c0,0.1-0.1,0.2-0.2,0.3
							c-0.1,0.1-0.2,0.2-0.3,0.2c-0.2,0.2-0.5,0.3-0.6,0.4c0,0,0.1,0,0.1-0.1c-0.6,0.2-1,0.5-1.4,0.7c0,0,0.1-0.1,0-0.2
							c-0.2,0.1-0.1,0.3-0.3,0.3c-0.1,0.2,0.1,0.2,0.1,0.1c-0.1,0.6,0.1,1.6,0.2,2.3c-0.2,0-0.7-0.4-1.1-0.6
							c-0.4-0.3-0.8-0.5-1.2-0.7c-0.5-0.2-0.7-0.3-1-0.5s-0.6-0.4-0.8-0.8c-0.2-0.3-0.2-0.7-0.1-0.8H11c-0.1,0.5-0.3-0.2-0.1,0.6
							c0,0.1,0.1,0.1,0,0.1c0,0.4-0.3,0.5-0.2,0.7c0.2-0.1,0.1,0.1,0.2,0.2c-0.1,0.5-0.2,0.7,0,0.9h-0.1c0.2,0.1,0.3,0.1,0.4,0.2
							l-0.5-0.1c0.3,0.2,0.7,0.3,0.9,0.3c2.9,1.5,5.6,3,8.5,4.5c2.8,1.6,5.5,3.1,8.3,4.8c0.6,0.6,0.6,0.6,1.4,0.9h-0.1
							c0.1-0.1,0.5,0.3,0.7,0.2c0.9,0.5,1.8,1,2.7,1.5l0.1,0.1c0,0,0.1,0,0.1,0.1c-0.1,0-0.2,0.1-0.1,0.1l0.1-0.1l0,0
							c0.1,0,0.2-0.1,0.1-0.1c0.4,0,1-0.1,1.7-0.3c0.6-0.2,1.3-0.5,1.9-0.8c1.3-0.6,2.6-1.3,3.8-2.1c0.6-0.3,1.4-0.9,2.1-1.3
							c0.5-0.3,1-0.5,1.5-0.8c0.3-0.1,0.5-0.2,0.8-0.4c0.1-0.1,0.3-0.1,0.4-0.2c0.1,0,0.2-0.1,0.2-0.1s0,0,0.1,0
							c0.3-0.1,0.4-0.3,0.4-0.8s-0.2-1-0.1-1.8C46.3,24.9,46.7,25.3,46.9,26.2z"/>
						<path class="st1" d="M46.9,25.8c-0.1,0-0.4,0.2-0.3-0.1C46.7,25.7,46.9,25.7,46.9,25.8z"/>
						<path class="st1" d="M42.2,27.1C42.1,27.1,42.2,27,42.2,27.1C42.2,27,42.3,27.1,42.2,27.1L42.2,27.1z"/>
						<path class="st1" d="M42.8,26.9c0,0.1-0.3,0.3-0.5,0.4L42.8,26.9z"/>
						<path class="st1" d="M44.2,25.2C44.2,25,44.3,25.1,44.2,25.2C44.2,25.3,44.2,25.2,44.2,25.2z"/>
						<path class="st1" d="M44,25c0-0.1,0-0.2,0.1-0.3C44,24.8,44.1,25.1,44,25z"/>
						<path class="st1" d="M40.8,21.7c-0.1,0-0.2-0.1-0.3-0.2C40.6,21.6,40.8,21.7,40.8,21.7z"/>
						<path class="st1" d="M39.5,20.9C39.5,20.9,39.4,20.9,39.5,20.9C39.2,20.7,39.3,20.7,39.5,20.9L39.5,20.9z"/>
						<polygon class="st1" points="14.8,17.2 14.7,17 14.8,17.1 						"/>
						<path class="st1" d="M13,23.3c0.2,0,0.1,0.1,0.1,0.2C13,23.3,13.2,23.4,13,23.3z"/>
						<polygon class="st1" points="19.2,26.5 19.1,26.5 19.2,26.4 						"/>
					</g>
				</g>
			</g>
		</g>
	</g>
	<g>
		<g>
			<path class="st3" d="M43,23.2c-0.2,0.1-19.5-12-19.3-10.5c0,0.4-12.3,6.2-10.6,6.9c0.3-0.1,19.5,12,19.3,10.5
				C32.4,29.6,44.7,23.9,43,23.2z"/>
			<g>
				<g>
					<g>
						<g>
							<path class="st1" d="M42.7,23.4C42.9,23.4,42.9,23.4,42.7,23.4C42.8,23.3,42.8,23.3,42.7,23.4C42.8,23.3,42.8,23.4,42.7,23.4
								L42.7,23.4L42.7,23.4c0.1,0,0.2,0,0.3,0C43,23.4,42.9,23.4,42.7,23.4C42.8,23.4,42.8,23.4,42.7,23.4
								C42.8,23.4,42.8,23.4,42.7,23.4z"/>
							<path class="st1" d="M42.7,23.7c-0.3,0.8-1.5,1.1-2.2,1.8c-0.1,0.1-0.1-0.2-0.3,0c-0.6,0.7-1.9,1.2-3,1.5v-0.1
								c-0.2,0.1-0.3,0.3-0.5,0.4v-0.1c0,0.1-0.3,0.2-0.4,0.3c-0.1,0-0.1-0.1-0.3-0.1v0.2c-0.2,0.4-0.8,0.4-1.1,0.7v-0.1
								c-0.6,0.5-1.4,0.9-2.1,1.4c0-0.1,0-0.2-0.1-0.2c0,0.2-0.2,0.3-0.3,0.5c0,0,0,0-0.1,0.1l-0.1,0.1c-0.1,0-0.3,0.1-0.4,0l0,0
								c-0.2,0.1-0.3-0.2-0.5-0.1l-0.1-0.2C31,30,31,29.6,30.8,29.6l0,0c-0.2,0-0.2-0.1-0.3-0.2l0,0c-0.3-0.1-0.5-0.3-0.5-0.1
								c0-0.2,0.3,0.1,0.2-0.2c-1.1-0.3-2-0.9-3-1.4c-0.1-0.1-0.1-0.2-0.1-0.2c-0.1,0-0.4-0.2-0.5-0.2c0,0,0-0.1-0.1-0.1
								c-0.2-0.2-0.3,0-0.4-0.1c0.1,0,0.2,0,0.2-0.1c-0.2,0-0.4-0.1-0.7-0.2h0.1c-0.3,0-0.4-0.3-0.6-0.3h0.1
								c-0.2-0.3-0.2,0.1-0.4-0.1c0.1,0,0.1,0,0.1-0.1c-0.3,0-0.7-0.3-1-0.3l0,0c-0.3-0.1-0.5-0.3-0.8-0.4c-0.1-0.1,0.2-0.2-0.1-0.3
								c-0.1,0.2-0.5-0.2-0.5,0.1c-0.2-0.2-0.5-0.4-0.7-0.5c0.1,0,0-0.3,0.2-0.2l-0.1-0.2c0.1,0,0.1,0.1,0.1,0
								c-0.1,0-0.4-0.2-0.5-0.2c-0.2,0-0.5,0.1-0.8-0.1c0.2,0,0-0.2,0.1-0.2l-0.6,0.1c-0.1,0,0-0.1-0.1-0.2c0,0-0.1,0-0.2,0
								c0,0-0.4-0.2-0.4-0.4c0-0.1,0.2,0.1,0.1-0.1c-0.2-0.1-0.2-0.1-0.4-0.2l0,0c-0.1-0.1-0.4-0.1-0.3,0c0.1,0,0-0.1,0.1,0
								c-0.1,0-0.4-0.1-0.5-0.2c0.1,0,0.1,0,0.2-0.1c-0.3,0-0.6-0.1-0.9-0.2c0,0.1,0.2-0.1,0.2,0c-0.3-0.3-0.8-0.3-1-0.6v0.1
								c-0.2-0.1-0.1-0.2-0.2-0.2c0-0.1-0.2-0.1-0.3-0.1s0,0,0.1,0c-0.2,0-0.9-0.3-1.2-0.6c0,0-0.3,0-0.4,0l0.1-0.1
								c0-0.1-0.3-0.2-0.2-0.3c-0.3,0,0.7,0.3,0.4,0.3c0-0.1-0.4,0-0.3-0.1c-0.2-0.1-0.4-0.1-0.5-0.3c0,0,0.2-0.1,0.1-0.1
								c-0.3-0.1-0.1,0-0.3-0.1h-0.1c-0.1,0.1-0.2-0.1-0.2,0c0-0.1-0.4-0.2-0.3-0.3l0.1-0.1c-0.1,0-0.3,0-0.5,0v-0.1
								c-0.1,0.1-0.2,0-0.3-0.1s-0.2-0.1-0.4-0.1c-0.1-0.1-0.2-0.3-0.3-0.4s-0.1-0.3,0-0.4c0-0.2,0-0.4,0.2-0.7c0,0-0.1,0.1,0,0.1
								c0.2-0.1,0.2-0.2,0.2-0.3c0,0,0.4-0.2,0.6-0.3c0.1-0.2,0-0.2,0-0.3c0.4,0,0.4-0.5,0.7-0.5c0,0.1-0.2,0.3,0,0.2
								c0.3,0.1,0.2-0.3,0.5-0.4l-0.2-0.1c0.2,0,0.3-0.3,0.4-0.1c0-0.1,0.3-0.1,0.2-0.3c0.5-0.1,0.9-0.7,1.3-0.5
								c0-0.1,0.2-0.1,0.1-0.2c-0.1,0-0.1,0.1-0.2,0.1v-0.1c0.2,0,0.3-0.1,0.2,0.1c0.3-0.1,0.1-0.4,0.5-0.6c0,0.1,0.1,0.1,0.2,0
								l0.1-0.2c0.2-0.1,0.2,0.1,0.3,0.2c0.1-0.1,0.3-0.2,0.3-0.3l0.2,0.1c-0.2,0,0.1-0.1,0.1-0.2v0.1l0.2-0.1c0-0.1-0.2,0-0.3,0
								c0-0.1,0.1-0.1,0.2-0.2c0,0.1,0.2,0,0.3-0.1c0.1,0,0.1-0.2,0.1-0.2s0.2-0.1,0.1,0c0,0-0.1,0-0.2,0.1c0.1,0,0.1,0.1,0.3,0
								c0.1-0.1-0.1-0.2,0.1-0.3c0,0.1,0,0.1,0,0.2H19v-0.1l0,0c0-0.1,0.3-0.2,0.3-0.3c0.1-0.1,0.3,0,0.4-0.1l0,0
								c0.2,0,0.3-0.1,0.4-0.3l0,0c0.1,0,0.2-0.1,0.3-0.2c0.2,0,0.3,0.3,0.4,0.1c0.2-0.1,0.2-0.3,0.1-0.3c0.3-0.1,0.6-0.4,1-0.4
								c0-0.1,0-0.1,0.1-0.1c0.2-0.1,0.4-0.3,0.6-0.4c0.1-0.1,0.2-0.1,0.3-0.2c0,0,0.1-0.1,0.2-0.2c0.1,0,0.2-0.1,0.2-0.1
								c-0.1,0.2,0.1,0.1,0.1,0.2c0-0.2,0.2,0,0.2-0.2c0-0.1,0-0.2-0.3-0.1c0.4-0.3,1.2,0,1.4,0.2c-0.1-0.1,0-0.1,0.1-0.1
								c-0.1,0.1,0.1,0.3,0.3,0.3l0.1-0.1l0.1,0.1c0.1,0,0.2-0.2,0.3,0v0.1c0.2,0,0.5,0,0.6,0.2l0.1,0.2c0.1,0,0.2,0,0.1-0.1
								c0.3,0.2,0.4,0.3,0.5,0.5c0.6,0,1.4,0.4,1.9,0.7l0,0c0.1,0.1,0.1-0.1,0.2,0c-0.1,0,0,0.2-0.1,0.2c0.2,0.2,0.3,0,0.5,0.1
								c0.1-0.1-0.1,0-0.1-0.1c0,0,0.3,0.2,0.4,0.1c0,0.1-0.1,0.2-0.1,0.2h0.2c0.1,0.2-0.5,0.1-0.5,0.3h0.1c0,0.2-0.4,0-0.1,0.2
								c0.2,0,0.4-0.1,0.3-0.2c0.3,0.1,0.3-0.2,0.6,0c0,0.1-0.3-0.1-0.3,0c0.1,0.2,0.3,0.1,0.4,0.2c-0.1-0.1,0.1-0.2,0.2-0.2
								c0.1,0.2-0.2,0.1,0,0.2c0.1,0,0.3,0,0.2-0.1c0.2-0.1,0.2,0.2,0.4,0.1c0,0.2-0.4,0.1-0.2,0.3c0-0.1,0.4,0,0.3-0.2
								c0.1,0.1,0,0.2-0.1,0.2c0.1,0.1,0.4,0,0.3,0.2l0.1-0.1c0,0.1,0.1,0.1,0.1,0.2c0.1,0.1,0.5,0.1,0.3,0.2c0,0,0.3,0.2,0.3,0
								c-0.1-0.2-0.2,0-0.2-0.2c0,0.2,0.3,0.1,0.4,0.1v0.1c0.1,0,0.2,0.1,0.3,0c-0.1,0-0.1,0.1,0,0.1l0.1-0.1c0.3,0.1,0,0.2,0.2,0.3
								h-0.2c0,0,0.1,0.1,0.2,0.2c0.1-0.1,0.2-0.1,0.3-0.2c0.2,0,0,0.1,0.2,0.1h-0.2c0,0,0,0.2,0.2,0.3c0.1,0,0.4,0,0.2-0.2
								c0.1,0,0.2,0.2,0.1,0.2c0.2,0.1,0-0.1,0.2-0.1c0,0.1,0.2,0.3,0.3,0.5H34l0.1,0.1c-0.2,0,0,0.1-0.1,0.2
								c0.1,0.1,0.2,0.1,0.3,0.1c-0.1-0.3,0.4-0.1,0.5-0.4c0.3,0.1-0.1,0.6,0.4,0.5c0-0.1,0.2-0.1,0-0.2c0.2,0.1,0.2-0.1,0.4,0.1
								c-0.2,0,0.1,0.3-0.2,0.3c0,0-0.1-0.1-0.2-0.1c0,0.1-0.1,0.2,0.1,0.3c0.1,0,0.3,0.2,0.3,0c0.1-0.1-0.2-0.1,0-0.2
								c0.3,0.1,0.2,0.3,0.4,0.2c-0.2-0.1-0.1-0.2-0.1-0.3l0.2,0.1H36c0.3,0.2,0.2-0.1,0.4,0.1v0.2c-0.1,0.1-0.4-0.3-0.4-0.1
								c0.2,0.1,0.3,0,0.4,0.2c0,0-0.1,0-0.2,0c0.1,0,0,0.3,0.3,0.3c0.2,0,0.1,0,0.1-0.1c0.3,0.2,0.4,0.1,0.6,0.2
								c-0.1,0.1,0.3,0.2,0,0.2c0-0.1-0.5-0.4-0.7-0.3c0,0.2-0.2-0.2-0.4,0c0.2,0.1,0.1,0.3,0.1,0.4c0.1,0,0.2,0,0.2,0
								c0.1-0.1,0-0.1,0.1-0.3c0.2,0.2,0.5,0.3,0.7,0.3c0,0.1,0,0.2-0.1,0.1c0.3,0.2,0.6,0.4,0.9,0.6c-0.1-0.3,0.3,0.2,0.3-0.1
								c-0.1-0.1-0.2-0.3-0.1-0.4c0.1,0.1,0,0.1,0,0.1c0.2,0,0.1,0.3,0.3,0.2c-0.3-0.1-0.2,0.2-0.3,0.3c0.3,0-0.1,0.1,0.1,0.2
								c0.2,0,0.5,0.1,0.8,0.2c0.2,0.3,0.7,0.4,1,0.6c0.1,0.2-0.1,0.2,0,0.4c0.2,0.1,0-0.2,0.2,0l0,0c0.1,0,0.4,0.4,0.6,0.2
								l-0.2,0.1c0,0,0.1,0,0.2,0c0,0,0,0.1-0.1,0.1c0.1,0.2,0.3,0.2,0.5,0.3V21c0.3,0.1,0.5,0.3,0.8,0.4L42,21.5h0.2
								c-0.1,0.1,0,0.2,0.2,0.2h-0.6c-0.1-0.1,0.2,0,0.2-0.2c0-0.1-0.3-0.2-0.4-0.2c0.1,0.1,0.1,0,0.2,0.1c0,0.2-0.2,0.1-0.3,0.1
								l0.1,0.1c-0.1,0-0.3,0-0.4-0.1c0.1,0,0-0.1,0-0.1c-0.1,0.1-0.3,0-0.5-0.1c-0.1-0.2-0.4-0.1-0.7-0.3c0.2-0.1,0.3-0.1,0.5,0
								c-0.1-0.2-0.2-0.1-0.3-0.2c-0.1,0-0.3,0.2-0.5,0.1v-0.1c-0.2-0.1-0.3,0.1-0.5-0.1c-0.4-0.3-0.8-0.5-1-0.7v-0.1
								c-0.3,0.1-0.6-0.3-0.8-0.3c-0.3-0.3-0.9-0.4-1-0.7c-0.7-0.3-1.3-0.6-2-1l0.2-0.1c-0.2,0,0-0.1-0.2-0.2c0.1,0.2-0.2,0-0.4,0.1
								c-0.3-0.3-0.7-0.4-1-0.5v-0.1c-0.4,0-0.6-0.3-0.9-0.6c0-0.1,0-0.2-0.1-0.2c-0.3,0-0.4,0-0.7-0.1c-0.2-0.1-0.5-0.3-0.7-0.5
								c-0.9-0.2-1.6-0.8-2.4-1.1v-0.1c-0.9-0.2-1.7-0.9-2.4-1.1l0.2-0.2c-0.2-0.2-0.5-0.2-0.5,0C25.3,13,25,13,24.9,12.8
								c-0.2-0.1-0.3,0-0.5-0.1s-0.3-0.2-0.5-0.2c0,0-0.1,0-0.2,0l0,0c0,0,0-0.1,0-0.2h-0.1c0,0.1,0,0.1,0.1,0.2l0,0
								c0,0-0.1,0.1-0.2,0.1c-0.1,0.1-0.2,0.2-0.4,0.3c-0.2,0.2-0.5,0.3-0.7,0.3c0.1,0,0,0.1,0,0.2c-0.4,0.2-0.8,0.3-1.1,0.6
								c-0.1,0,0-0.2-0.1-0.1c-0.1,0.1,0,0.1,0,0.2c-0.5,0.4-1.3,0.5-1.8,0.9c-0.9,0.6-2,1.1-2.8,1.7l0,0c-0.2,0.3-0.8,0.3-0.9,0.6
								c-0.1,0-0.3,0.1-0.3,0c-0.2,0.3-0.7,0.3-1,0.7c0,0,0,0,0.1-0.1c-0.4,0.2-0.2,0.2-0.5,0.3c0,0,0,0-0.1-0.1
								c-0.2,0,0.2,0.1-0.2,0.2h0.2c-0.2,0.2,0.1,0.2,0.2,0.2h0.2l0.4,0.2c0.3,0.1,0.5,0.3,0.8,0.4c0.5,0.5-0.2,0.4,0.4,0.5
								c0,0.1,0.1-0.1,0.1,0c0.2,0.1,0.2,0.4,0.3,0.4c0-0.2,0.1,0,0.2-0.1c0.3,0.3,0.3,0.5,0.7,0.5h-0.1c0.5,0,0.8,0.4,1.2,0.3
								c1.9,1.1,3.8,2.1,5.7,3.1c1.8,1.1,3.7,2,5.5,3.2c0.3,0.4,0.4,0.4,0.9,0.6c0,0-0.1,0,0,0c0.1-0.1,0.3,0.2,0.5,0
								c0.2,0.1,0.3,0.2,0.5,0.2l0.3,0.1c0.1,0,0.2,0.1,0.2,0l0,0l0,0l0,0l0.1-0.1c-0.1,0.1-0.1,0.3,0,0.2l0.1-0.2l0,0
								c0.1-0.1,0.2-0.2,0-0.2c1.8-1.2,3.8-1.8,5.5-2.8c0.5-0.2,1-0.6,1.5-0.8c0.7-0.3,1.4-0.6,2-0.9c0.3-0.2,0.6-0.4,0.9-0.6
								c0.1-0.1,0.2-0.2,0.3-0.3l0,0c0.2,0.1,0.2,0.1,0.4,0.1h0.1l0,0l0,0C42.9,23.5,42.8,23.7,42.7,23.7
								C42.8,23.7,42.8,23.7,42.7,23.7c0.1-0.1,0.1-0.2,0.2-0.2c0,0,0,0,0.1-0.1l0,0c0,0,0.1,0-0.1,0c-0.2,0,0,0,0,0
								C42.9,23.5,42.8,23.6,42.7,23.7z"/>
							<path class="st1" d="M42.4,23.2c0-0.1-0.1-0.2,0-0.3C42.5,23,42.5,23.2,42.4,23.2z"/>
							<path class="st1" d="M38.7,20L38.7,20C38.7,20,38.8,19.9,38.7,20C38.8,20,38.8,20,38.7,20z"/>
							<path class="st1" d="M37.7,19.3c0,0,0.3,0,0.5,0.1L37.7,19.3z"/>
							<path class="st1" d="M36.9,18.5C36.8,18.4,36.8,18.4,36.9,18.5L36.9,18.5z"/>
							<path class="st1" d="M36.7,18.6c-0.1,0-0.1-0.1-0.1-0.2C36.5,18.5,36.8,18.5,36.7,18.6z"/>
							<path class="st1" d="M34.6,17.1c0,0-0.2,0-0.2-0.1C34.5,17.1,34.7,17.1,34.6,17.1z"/>
							<path class="st1" d="M33.6,16.6L33.6,16.6C33.5,16.5,33.6,16.5,33.6,16.6L33.6,16.6z"/>
							<polygon class="st1" points="14.4,17.3 14.5,17.2 14.5,17.3 							"/>
							<path class="st1" d="M18.5,23.4C18.6,23.4,18.5,23.5,18.5,23.4C18.4,23.4,18.6,23.4,18.5,23.4z"/>
							<polygon class="st1" points="23,25.6 22.9,25.6 23,25.5 							"/>
						</g>
					</g>
				</g>
			</g>
		</g>
		<g>
			<path class="st4" d="M39.5,27c0.7-0.6,3.2,0.1,1.9,1.1l-1.9,1.1c-0.7,0.6-3.2-0.1-1.9-1.1L39.5,27z"/>
			<g>
				<g>
					<g>
						<g>
							<path class="st1" d="M39.3,26.8C39.3,26.8,39.4,26.9,39.3,26.8C39.3,26.8,39.3,26.7,39.3,26.8z"/>
							<path class="st1" d="M39.3,26.9c0.1,0.4-0.3,0.2-0.3,0.4c0,0-0.1-0.2-0.1-0.1c0.1,0.3-0.2,0.3-0.6,0.2l0,0
								c-0.1,0,0.1,0.1,0,0.1c0,0,0,0-0.1-0.1c0.1,0.1,0,0.1,0,0.1s-0.1-0.1-0.2-0.1l0.1,0.1c0.2,0.2-0.1,0.1-0.1,0.2c0,0,0,0-0.1,0
								c0.1,0.2-0.1,0.2-0.2,0.3h-0.1c0.1,0,0.1,0.1,0.1,0.1c-0.1,0,0,0-0.1,0.1l0,0c0.1,0-0.1,0,0,0h-0.1c0.1,0-0.1,0,0,0l0,0
								c0,0-0.1,0,0,0l0,0c0,0-0.1,0,0,0c-0.1,0,0,0-0.2,0c0,0.1-0.1,0.2-0.1,0.4c-0.1,0-0.1,0.1-0.1,0.1s0,0,0.1,0
								c0,0-0.1,0-0.1,0.1s0.2-0.1,0.1,0c0,0-0.1,0-0.1,0.1c0.1,0,0.1,0,0.2,0c0,0,0,0-0.1,0c0.2-0.1,0,0.1,0.1,0h-0.1
								c0,0.1,0.2-0.1,0.1,0c0,0-0.1,0-0.1,0.1c0.2-0.1,0.2,0,0.2,0l0,0c0,0,0.1,0.1,0.1,0l-0.1,0.2c0.1-0.2,0.1,0,0.2-0.2
								c0,0,0,0.1,0.1,0.1c0,0.1-0.1,0.2-0.1,0.2v0.1c0,0.1,0,0,0,0.1h0.1c0.1-0.1,0.2-0.3,0.2-0.3c0,0.1,0,0.2-0.1,0.2l0.1-0.3v0.1
								v-0.1c0,0,0.1,0,0,0.1c0,0.1,0,0,0,0.1c0,0,0-0.1,0.1-0.1l0,0c0,0,0.1-0.1,0.1-0.2c0,0,0,0.1,0,0s0.1-0.1,0.1-0.1V29
								c0-0.1,0.1-0.2,0.1-0.3s0,0.2,0,0.1c0,0.1,0.1-0.2,0.2,0v-0.1v0.1c0,0.1,0,0,0,0l0,0c0-0.1,0.1-0.2,0.1-0.1v-0.2v0.1
								c0,0.1,0,0,0.1,0.1c0-0.1-0.1,0.1,0,0c0,0.1,0-0.2,0,0c0,0,0-0.1,0,0c0,0,0,0.2,0,0.1c0,0,0,0,0-0.1l0,0c0-0.1,0,0,0-0.1
								c0,0.1,0-0.1,0.1,0.1l0.1,0.1l-0.1-0.2c0,0,0,0,0,0.1c-0.1-0.2,0,0-0.1-0.1l0,0l0.1-0.1c0,0,0,0,0.1,0.1c0-0.1,0-0.1,0-0.1
								s0,0,0,0.1l0,0c0,0,0.1,0.1,0.2,0.1c0-0.1-0.1-0.2-0.1-0.2c0.1,0.2,0-0.1,0.1,0c0,0,0,0.1,0.1,0.1c0.1,0.2,0-0.1,0-0.1
								l-0.1-0.1c0.1,0.1,0-0.1,0.1,0c0,0,0.1,0,0-0.1c0.1,0.1,0.1-0.1,0.3,0.1c0,0,0,0,0-0.1c-0.1,0,0,0,0,0l0,0c0,0,0.1,0,0.1,0.1
								c0.1,0-0.1-0.2,0-0.2c0,0,0.1,0.1,0.1,0v-0.1c0,0,0.1,0.1,0.2,0.2c0,0,0,0,0-0.1l0.1,0.1c-0.1,0,0,0,0-0.1l0,0l0,0h-0.1
								c0,0,0,0,0-0.1c0.1,0.1,0.1,0,0.1,0V28c0,0,0,0,0.1,0l0,0c0,0,0.1,0.1,0.1,0l-0.1-0.1c0,0,0,0,0,0.1h0.1h-0.1l0,0
								c-0.1-0.1,0,0,0-0.1h0.1l0,0c0.1,0,0,0,0,0l0,0l0,0c0.1,0,0.3,0.2,0.2,0.1l-0.1-0.1c0.1,0,0-0.1,0.2,0l0,0
								c0.1,0,0.1-0.1,0.2,0h0.1c0,0,0.1,0,0,0s-0.1,0-0.1,0s0.1,0,0.2,0c0,0,0,0-0.1,0c0.1,0,0.1,0,0.1,0h-0.1h0.1h-0.1
								c0,0,0,0,0.1,0h-0.1h0.1h-0.1c0.1,0,0.1,0,0.2,0c-0.2,0-0.2,0-0.2,0h0.1c0.1,0-0.1,0-0.1,0c0.1,0,0.2-0.1,0.2-0.1
								c0.1,0-0.1,0-0.2,0c-0.1,0,0.1,0-0.1,0c0,0,0.1,0-0.1,0l0.2-0.1h-0.1c0.2-0.1,0.3-0.1,0.5-0.2l0,0c0.1-0.1,0.2,0,0.2-0.1
								c-0.1,0-0.3,0.1-0.3,0.2c0,0-0.3,0.2-0.3,0.1c0.1,0,0,0,0.1-0.1s-0.1,0,0,0l-0.2,0.1c0.1,0,0.1-0.1,0.1-0.1
								c-0.1,0-0.1,0.1-0.2,0.1c-0.2,0.1,0,0-0.1,0c0.1-0.1,0.3-0.2,0.3-0.3c-0.1,0.1-0.2,0.1-0.3,0.2c0,0,0.1-0.1,0.2-0.2
								c0.1-0.1-0.2,0.2,0,0l-0.1,0.1c0,0,0-0.1,0.1-0.1c0,0-0.1,0.1,0,0c0,0,0,0-0.1,0.1c0,0.1,0.1-0.1,0,0.1c0.1-0.1,0,0,0,0v-0.1
								c0,0,0,0-0.1,0.1l0.1-0.1l-0.1,0.1l0.1-0.2l0.1-0.1c0,0,0-0.1,0,0c-0.1,0.1-0.1,0.2-0.2,0.3c0,0,0.1-0.1,0,0l0.1-0.1l0.1-0.2
								l-0.1,0.2c0,0,0-0.1,0.1-0.1c0,0,0,0.1-0.1,0.2c0-0.1,0.1-0.2,0.1-0.3l0.1-0.2l0,0c0.1-0.1,0-0.1,0.1-0.2l0,0
								c-0.1,0.2-0.1,0.3-0.2,0.5c0,0.1,0.1-0.5,0-0.2c0,0.1-0.1,0.2,0,0.2c0,0-0.1,0.2-0.1,0.1s0-0.2,0.1-0.3c0,0.1,0,0.1,0,0
								s0.1-0.2,0-0.2c0,0,0,0-0.1,0.1c0,0.1,0,0,0,0.1c0,0,0-0.2-0.1,0.1c0,0,0,0.1,0,0.2l0,0v-0.1c0-0.1,0,0.2-0.1,0.1v-0.2
								c0-0.1,0,0.1,0.1-0.2c0,0,0,0.1-0.1,0l0,0c0,0,0-0.3,0-0.1c0,0.1,0,0.1,0,0.2l-0.1,0.1c0-0.2,0,0,0-0.2c0,0.1,0,0.1,0.1-0.1
								c0-0.2,0,0,0.1-0.2c0,0,0-0.2,0-0.3c0,0,0,0,0,0.1s0,0.1,0,0.3c0,0-0.1,0-0.1,0.1c0-0.1,0-0.2,0-0.2h-0.1c0,0.2,0,0,0,0.2
								c0,0,0,0.2,0,0.3v-0.1c0,0.1,0-0.2,0,0c0-0.1,0-0.2,0-0.4c0,0.1,0-0.1,0-0.1c0,0.1-0.1,0.2-0.1,0.2c-0.1-0.2-0.1,0-0.1,0
								c0-0.1,0-0.3-0.1-0.3c0,0,0.1,0.2,0,0.1l0,0c0,0-0.1-0.1,0,0.1v-0.2l0,0c0-0.1,0-0.1,0-0.2c-0.1-0.1,0,0-0.1,0v0.1
								c0,0.1-0.1,0-0.1,0v-0.1v0.1c0-0.1-0.1-0.1-0.1-0.1c0-0.1,0-0.2-0.1-0.3c0,0,0,0.1,0.1,0.2c0,0.1,0.1,0,0-0.1c0,0,0,0,0,0.1
								c-0.1-0.1,0-0.1-0.1-0.2l0,0c0-0.1,0-0.1,0-0.1c0,0.1,0,0.1,0,0.1c0-0.1,0-0.2,0-0.2c0.1,0.1,0-0.1,0.1-0.1
								c0,0.1,0,0.3,0,0.3c0,0.1,0,0,0.1,0c0-0.1,0-0.3,0-0.3v0.1c0-0.1,0-0.2,0.1-0.2s0.2,0,0.2,0v0.1c0-0.2,0.1-0.1,0.2-0.2
								c0.1,0.1,0.2-0.1,0.2,0.1c0.1-0.1,0.3-0.1,0.4,0l-0.1,0.1c0-0.1,0,0.1,0,0.1c0-0.1,0.1-0.1,0.1-0.2c0,0.1,0.2,0,0.3,0v0.1
								c0.2-0.2,0.2,0,0.2,0.1V26c0.1-0.1,0.2-0.1,0.3-0.1c0,0,0.1,0.1,0.1,0.2c0.3,0,0.3,0.3,0.5,0.4l-0.1,0.1
								c0.3,0.1,0,0.4,0.1,0.6h-0.2c-0.1,0,0,0.1,0.2,0.1c-0.1,0,0,0.1-0.2,0.2c-0.1,0,0.1,0.1,0.1,0.1c-0.1,0.1-0.2,0.1-0.2,0.2
								l0,0c0,0-0.1,0-0.2,0c0,0-0.2,0,0.1,0.1c-0.2,0-0.1,0.2-0.3,0.2c0.1,0,0.1,0,0.1,0.1c-0.1,0-0.3,0-0.2,0.1c0,0-0.1-0.1-0.1,0
								c0,0,0.1,0,0.1,0.1s-0.3,0.1-0.4,0.2c-0.1,0.2-0.3,0.3-0.5,0.4l0,0c0.1,0.2-0.3,0-0.1,0.2c0,0-0.1,0-0.1-0.1
								c0,0.1-0.2,0-0.2,0.2l0,0c-0.1,0-0.1,0.1-0.2,0.1c0,0,0,0,0-0.1c-0.1-0.1,0,0.2-0.1,0c0,0,0,0.1,0.1,0.1h-0.1l0.1-0.1
								c-0.2,0.1-0.4,0.3-0.6,0.4c-0.2-0.1-0.1-0.4-0.2-0.2c0,0,0,0.1,0,0c0,0.1-0.1-0.2-0.1-0.1s0,0.1,0,0.2
								c-0.1-0.1-0.1-0.2-0.2-0.1v-0.1c-0.1,0.2-0.2,0.1-0.2,0.4c-0.2,0-0.5,0-0.7,0s-0.6-0.1-0.9-0.2c-0.5-0.3-1-1-0.8-1.5
								c0.3-0.2,0.2-0.1,0.2-0.3c0,0,0,0,0.1,0c-0.2,0,0-0.1-0.1-0.1c0.1-0.1,0.1-0.2,0.2-0.3c0.1,0,0.1-0.1,0.2-0.2
								c0,0,0.1,0.1,0.1,0h-0.1l0,0l-0.1-0.1c0.3-0.3,0.9-0.4,1.2-0.7c0.1,0,0.2-0.1,0.3-0.2c0.4,0,0.7,0,0.9-0.3
								C39.1,26.4,39.3,26.8,39.3,26.9z"/>
							<path class="st1" d="M39.4,26.7c0.1,0.1,0.1,0.1,0.2,0.2C39.5,26.9,39.4,26.8,39.4,26.7z"/>
							<path class="st1" d="M40.3,27.3C40.3,27.3,40.3,27.4,40.3,27.3C40.3,27.4,40.3,27.5,40.3,27.3C40.3,27.4,40.3,27.4,40.3,27.3
								z"/>
							<path class="st1" d="M40.4,27.4C40.4,27.5,40.4,27.5,40.4,27.4L40.4,27.4z"/>
							<path class="st1" d="M40.5,27.7C40.5,27.8,40.5,27.8,40.5,27.7L40.5,27.7z"/>
							<path class="st1" d="M40.5,27.5C40.6,27.5,40.6,27.6,40.5,27.5C40.6,27.6,40.5,27.7,40.5,27.5z"/>
							<path class="st1" d="M40.7,27.8C40.7,27.8,40.7,27.7,40.7,27.8C40.7,27.7,40.7,27.9,40.7,27.8z"/>
							<path class="st1" d="M40.8,27.7L40.8,27.7C40.8,27.7,40.7,27.8,40.8,27.7L40.8,27.7z"/>
							<path class="st1" d="M39.5,28.6v-0.1V28.6z"/>
							<path class="st1" d="M38.5,28.9C38.4,28.9,38.5,28.8,38.5,28.9C38.5,28.8,38.4,28.9,38.5,28.9z"/>
							<polygon class="st1" points="37.8,29.1 37.8,29.1 37.7,29.2 							"/>
						</g>
					</g>
				</g>
			</g>
		</g>
		<g>
			<path class="st0" d="M21.4,11.4c1.9-2.6,23,12.2,24.9,12.6c0.9,0.5,0.9,1.4,0,1.9L35.8,32c-1.9,2.6-23-12.2-24.9-12.6
				c-0.9-0.5-0.9-1.4,0-1.9L21.4,11.4z M43,23.2c-0.2,0.1-19.5-12-19.3-10.5c0,0.4-12.3,6.2-10.6,6.9c0.3-0.1,19.5,12,19.3,10.5
				C32.4,29.6,44.7,23.9,43,23.2L43,23.2z M41.3,28.1c1.3-1-1.1-1.7-1.9-1.1l-1.9,1.1c-1.3,1,1.1,1.7,1.9,1.1L41.3,28.1z M15.5,15.8
				c-0.5,0.4,0.4,0.7,0.7,0.4c0.1-0.2,3.9-1.8,3.1-2.2C18.7,13.6,16,15.7,15.5,15.8L15.5,15.8z"/>
			<g>
				<path class="st5" d="M21.4,11.4c1.9-2.6,23,12.2,24.9,12.6c0.9,0.5,0.9,1.4,0,1.9L35.8,32c-1.9,2.6-23-12.2-24.9-12.6
					c-0.9-0.5-0.9-1.4,0-1.9L21.4,11.4z M43,23.2c-0.2,0.1-19.5-12-19.3-10.5c0,0.4-12.3,6.2-10.6,6.9c0.3-0.1,19.5,12,19.3,10.5
					C32.4,29.6,44.7,23.9,43,23.2L43,23.2z M41.3,28.1c1.3-1-1.1-1.7-1.9-1.1l-1.9,1.1c-1.3,1,1.1,1.7,1.9,1.1L41.3,28.1z
					 M15.5,15.8c-0.5,0.4,0.4,0.7,0.7,0.4c0.1-0.2,3.9-1.8,3.1-2.2C18.7,13.6,16,15.7,15.5,15.8L15.5,15.8z"/>
				<g>
					<g>
						<g>
							<path class="st1" d="M15.6,16.1C15.6,16,15.5,16,15.6,16.1L15.6,16.1z"/>
							<path class="st1" d="M15.7,16c-0.1-0.4,0.2-0.1,0.2-0.4c0,0,0.1,0.2,0.1,0.1c0-0.3,0.2-0.3,0.5-0.2l0,0v-0.2c0,0,0,0,0.1,0.1
								c-0.1-0.1,0-0.1,0-0.2c0,0,0.1,0.1,0.1,0.2l-0.1-0.1c-0.1-0.3,0.1,0,0.1-0.2c0,0,0,0,0,0.1c0-0.2,0.1-0.3,0.2-0.4
								c0,0,0.1,0.1,0.1,0.2c-0.1-0.1-0.1-0.2,0-0.2c0.1,0.1,0-0.1,0-0.1l0,0c-0.1-0.1,0.1,0,0-0.1l0.1,0.1c-0.1-0.2,0.1,0.1,0,0
								l0,0l0,0l0,0c0-0.1,0.1,0,0-0.1c0.1,0.1,0,0.1,0.1,0.2c0-0.2,0.2-0.3,0.3-0.3l0.1,0.1c0,0,0,0,0-0.1c0,0,0,0.1,0.1,0.1
								c0,0-0.1-0.2,0-0.1c0,0,0,0.1,0.1,0.1c0-0.1,0-0.1,0-0.2c0,0,0,0,0,0.1c0-0.1,0.1,0,0-0.1v0.1c0.1,0.1-0.1-0.2,0-0.1v0.1
								c0-0.2,0-0.1,0-0.2l0,0c0,0,0.1,0,0.1-0.1l0.1,0.2c-0.1-0.2,0-0.1-0.1-0.3H18c0,0.1,0.1,0.2,0.1,0.2l0.1,0.1c0,0.1,0,0,0,0.1
								v-0.1c0-0.1-0.1-0.3,0-0.4c0,0.1,0.1,0.2,0.1,0.2v-0.4c0,0,0,0.1,0.1,0.1v-0.1c0,0,0.1-0.1,0.1,0.1c0,0.1,0,0,0,0.1v-0.1l0,0
								c0,0,0-0.1,0-0.2v0.1c0-0.1,0-0.1,0.1-0.2v0.1c0-0.2,0.1-0.2,0.1-0.3s0,0.2,0,0.1c0.1,0.1,0.2-0.2,0.3,0v-0.1
								c0,0,0,0.1,0.1,0.1c0,0.1,0,0,0.1,0l0,0c0,0,0.2,0,0.3,0l-0.1-0.1c0.1,0,0.2,0.1,0.2,0.2c0,0,0.2,0,0.3,0.1h-0.1
								c0,0.1,0.1,0.2,0,0.2c0.1,0.1,0-0.1,0-0.2c-0.1-0.1-0.2-0.1-0.1-0.1c-0.1,0,0.3,0.1,0.1,0.2c0,0.1,0.2,0.2,0,0.3
								c0,0-0.1-0.1-0.2,0c0,0.1,0,0,0.1,0.1v0.1c0.1,0,0,0.1,0.1,0.1c-0.1,0,0,0.1-0.2,0l-0.1-0.1c0,0,0.1,0.1,0.1,0.2
								c0,0,0,0-0.1,0c0.2,0.2,0,0,0,0.2c-0.1,0-0.1,0.1-0.2,0c0,0.1,0,0.2,0,0.1c0,0,0,0,0-0.1c-0.1,0,0,0,0,0s-0.1-0.1-0.2-0.1
								c0,0.1,0.1,0.2,0.1,0.2c-0.2-0.2,0,0.2-0.1,0c0,0,0-0.1-0.1-0.1c-0.2-0.2,0,0.2,0,0.1l0.1,0.1c-0.1-0.1,0,0.1-0.1,0
								c0,0.1-0.1,0,0,0.1c-0.1-0.1-0.1,0.2-0.3-0.1c0,0,0,0,0,0.1c0.1,0.1,0-0.1,0,0c0,0,0,0,0,0.1c0,0-0.1,0-0.1-0.2
								c-0.1-0.1,0.1,0.3,0,0.3c0-0.1,0-0.1-0.1-0.1v0.1c0,0-0.1-0.1-0.2-0.2c0,0,0,0,0,0.1L18.2,15c0.1,0.1,0,0.1,0,0.1l0,0l0,0
								c0,0.1,0.1,0.1,0.1,0.1s0,0,0,0.1c-0.1-0.1-0.1-0.1-0.1-0.1v0.1c0-0.1,0,0-0.1-0.1l0,0c0,0-0.1-0.1-0.1,0s0.1,0.2,0,0.2v-0.1
								h-0.1v0.1l0,0c0,0.1,0,0.1,0,0.2h-0.1l0,0c0,0,0,0,0,0.1l0,0c0,0,0,0,0,0.1c-0.1-0.1-0.2-0.4-0.2-0.2c0,0,0.1,0.2,0.1,0.3
								c-0.1,0,0,0.1-0.2,0V16c-0.1,0-0.1,0.2-0.2,0c0,0,0-0.1-0.1-0.2c0,0.1-0.1-0.1,0,0.1c0,0.1,0.1,0.1,0.1,0.2
								c0,0.1-0.1,0.1-0.1,0v0.1c-0.1-0.1-0.1-0.2-0.1-0.1v0.1L17,16.1c0,0,0.1,0.2,0,0.1v-0.1c0,0.1,0,0.2,0,0.2l-0.1-0.1
								c0,0,0,0.1,0.1,0.1c-0.1-0.1-0.1,0-0.2-0.2c0.1,0.3,0,0.4-0.1,0.4v-0.1v0.1c0-0.1-0.1-0.1-0.1-0.2c-0.1,0,0,0.1,0,0.2
								s0-0.1,0,0c0,0-0.1,0,0,0.1l-0.1-0.2v0.1c-0.1-0.1-0.1-0.3-0.2-0.5l0,0c-0.1-0.1,0-0.2-0.1-0.2c0,0.1,0.1,0.3,0.1,0.3
								c0,0.1,0.1,0.3,0.1,0.3c0-0.1,0,0,0-0.1c-0.1-0.1,0,0.1,0,0l0.1,0.2c0,0,0-0.1-0.1-0.1c0,0.1,0,0.2,0.1,0.2
								c0.1,0.2,0,0,0,0.1c-0.1-0.1-0.1-0.3-0.2-0.3c0.1,0.1,0,0.2,0.2,0.3c0,0-0.1-0.1-0.1-0.2s0.1,0.2-0.1,0l0.1,0.1
								c0,0,0-0.1-0.1-0.1c0,0,0,0.2-0.1,0c0,0,0,0,0,0.2c0.1,0.1,0-0.1,0.1,0.1c-0.1-0.1,0,0,0,0.1v-0.1c0,0,0,0,0,0.1
								c0,0,0-0.1-0.1-0.1v0.1c0,0.1-0.1-0.2-0.1-0.1v-0.1c0,0-0.1-0.1,0,0c0,0.1,0.1,0.2,0.1,0.3c0,0-0.1-0.1,0,0v-0.1
								c0,0-0.1-0.2-0.1-0.1l0.1,0.2c0,0,0,0-0.1-0.1c0,0,0.1,0.1,0.1,0.2c0-0.1-0.1-0.1-0.2-0.2l-0.1-0.2l0,0
								c-0.1-0.1-0.1-0.1-0.1-0.2c0,0,0,0,0,0.1c0.1,0.1,0.1,0.2,0.2,0.2c0,0,0,0.1,0.1,0.1c-0.1-0.1-0.1-0.2-0.2-0.2
								c0,0,0-0.1-0.1-0.1c0,0-0.1-0.1-0.2-0.2l0,0c0-0.1-0.1-0.1-0.1-0.1l0.6,0.7c0,0,0,0.1-0.1,0.1c0-0.1-0.2-0.1-0.2-0.3h0.1
								l-0.4-0.5l0,0l0,0l0.3,0.4c0,0,0,0-0.1,0c0,0-0.1,0.1,0,0.2s0.1-0.1,0.1,0.1c-0.1,0.1-0.2-0.1-0.1,0.2c0,0,0.1,0.1,0.2,0.2
								l-0.1,0.1v-0.1c-0.2,0,0,0.2-0.1,0.2l-0.1-0.2c0-0.1,0.2,0,0.1-0.2c-0.1,0-0.1,0.1-0.1,0.1l0,0c0,0-0.1-0.3-0.2-0.1
								c0,0.1,0,0.1,0,0.2c-0.1,0-0.1,0.1-0.2,0.1c0-0.2-0.1,0,0-0.2c0,0.1,0.2,0.1,0.2-0.1c-0.1-0.2,0.1,0,0.1-0.2
								c-0.1,0-0.1-0.2-0.1-0.3c0,0,0,0,0,0.1s0,0.1,0,0.2c-0.1,0-0.1,0-0.2,0.2c0-0.1,0-0.2,0-0.2c-0.1,0-0.2,0-0.2,0
								c0,0.2-0.1,0-0.1,0.2c0,0,0,0.2,0,0.3v-0.1c-0.1,0.1,0-0.2-0.1,0c0.1,0,0.1-0.2,0.1-0.4c-0.1,0.1,0-0.1,0-0.1
								C14.8,17,14.8,17,14.7,17c0-0.2-0.2-0.1-0.2-0.1c0-0.1,0.2-0.2,0.1-0.3c0,0-0.1,0.2-0.1,0l0,0c-0.1,0,0-0.2-0.2-0.1
								c0.1,0,0.1,0,0.2,0c0,0,0,0-0.1,0c0.1,0,0.1,0,0.2,0c0.1-0.1,0,0,0-0.1h-0.1c-0.1-0.1,0.1-0.2,0.1-0.2l0.1,0.1v-0.1
								c0.1,0.1,0.1,0.1,0.1,0c0,0.1,0.1,0.2,0.2,0.2c-0.1,0-0.1-0.1-0.2-0.1c-0.1,0-0.1,0,0,0.1l0,0c0.1,0.1,0.1,0.1,0.2,0.1l0,0
								c0.1,0,0,0,0,0l0,0l0,0C15.5,16,15.5,16,15.7,16L15.7,16c-0.1,0-0.1,0-0.2,0h-0.1c0,0,0,0,0,0.1C15.4,16.1,15.5,16,15.7,16
								L15.7,16C15.6,16,15.6,15.8,15.7,16C15.6,15.9,15.7,15.9,15.7,16L15.7,16c0.1-0.1,0.1,0,0.1-0.1c0,0.1,0.1-0.1,0.1,0.1
								c0.1-0.1,0-0.2,0.1,0l0,0l0,0l-0.1,0.1l0,0C15.8,16.1,15.8,16.1,15.7,16l0.1-0.1c0,0,0,0,0-0.1c0.2,0,0.1-0.1,0.1-0.2
								l0.1,0.1c0-0.2,0.1-0.1,0.2-0.1l0.1,0.1c0-0.2,0-0.2,0-0.3c0,0,0.1,0,0.2,0c0-0.3,0.2-0.2,0.2-0.4l0.1,0.1
								c0-0.3,0.2-0.1,0.3-0.3l0.1,0.2c0.1,0,0-0.1,0-0.2c0.1,0,0-0.1,0.1,0v-0.1c0.1,0,0.1,0,0.1,0l0,0c0,0,0,0.1,0.1,0.1
								c0-0.1,0.1,0,0-0.2c0.1,0.1,0.1-0.2,0.2,0c0-0.1,0-0.1,0-0.1s0.2,0.1,0.2-0.1c0,0,0,0.1,0.1,0.1v-0.1c0-0.2,0.2,0,0.3,0
								c0.1-0.2,0.2-0.2,0.3-0.3l0,0c-0.1-0.2,0.2,0.1,0.1-0.2c0,0,0,0,0.1,0.1c0-0.1,0.1,0,0.1-0.1l0,0c0.1,0.1,0-0.1,0.1,0
								c0,0,0,0,0,0.1c0.1,0.1-0.1-0.2,0,0l-0.1-0.1c0,0,0,0,0.1,0l0,0l0,0c0.2,0.2,0.4,0.3,0.5,0.2l0,0l0,0l0,0l-0.1,0.1l0,0l0,0
								V14v0.1l0,0c0,0,0,0.1,0,0.2c0,0.1,0,0.2,0,0.2v0.1l0,0l0,0l-0.1,0.1c-0.1,0.1-0.2,0.2-0.3,0.2c-0.2,0.1-0.4,0.3-0.7,0.3
								c-0.2-0.1-0.2-0.1-0.2,0c0,0,0,0,0-0.1c0.1,0.1,0,0,0,0.2c-0.1,0-0.2,0.1-0.3,0.2l-0.1-0.1v0.1l0,0c0,0,0,0.1,0.1,0.1
								c-0.2,0.3-0.6,0.1-0.8,0.3c-0.1,0-0.1,0.1-0.2,0.2c-0.2,0-0.3-0.1-0.4,0c-0.1,0-0.3,0.1-0.3,0.2C15.8,16.5,15.6,16.1,15.7,16
								z"/>
							<path class="st1" d="M15.6,16.1c0-0.1-0.1-0.1-0.2-0.2C15.5,16,15.6,16,15.6,16.1z"/>
							<path class="st1" d="M15.5,16.9C15.5,16.8,15.5,16.9,15.5,16.9S15.5,17,15.5,16.9L15.5,16.9z"/>
							<path class="st1" d="M15.8,16.9C15.8,17,15.7,17,15.8,16.9C15.7,17,15.7,17,15.8,16.9z"/>
							<path class="st1" d="M16.1,17.2C16.1,17.3,16.1,17.3,16.1,17.2C16.1,17.3,16.1,17.3,16.1,17.2z"/>
							<path class="st1" d="M16.1,17C16.1,17,16.1,17.1,16.1,17C16.1,17.1,16.1,17.2,16.1,17z"/>
							<path class="st1" d="M16.8,16.9L16.8,16.9C16.8,16.9,16.9,17,16.8,16.9z"/>
							<path class="st1" d="M16.8,16.8L16.8,16.8C16.9,16.8,16.9,16.9,16.8,16.8L16.8,16.8z"/>
							<polygon class="st1" points="19.2,15.2 19.2,15.2 19.2,15.1 							"/>
							<path class="st1" d="M18.8,13.5C18.8,13.5,18.8,13.4,18.8,13.5C18.8,13.4,18.8,13.5,18.8,13.5z"/>
							<polygon class="st1" points="18.2,14.1 18.2,14 18.2,14.2 							"/>
						</g>
					</g>
				</g>
				<g>
					<g>
						<g>
							<path class="st1" d="M41.2,27.9C41.2,27.9,41.3,27.9,41.2,27.9C41.2,27.9,41.1,27.8,41.2,27.9z"/>
							<path class="st1" d="M41.1,28c0,0.4-0.2,0.1-0.3,0.4c0,0,0-0.2,0-0.1c-0.1,0.4-0.3,0.3-0.4,0.2v-0.1l-0.1,0.2c0,0,0,0,0-0.1
								c0,0.1-0.1,0.1-0.1,0.2c0,0,0-0.1,0.1-0.2l-0.1,0.1c-0.2,0.3-0.1,0.1-0.2,0.2c0,0,0,0,0.1-0.1c-0.2,0.2-0.3,0.3-0.5,0.3
								c0,0,0.1-0.1,0.2-0.1c-0.1,0.1-0.2,0.1-0.2,0.2c0.1-0.1-0.2,0.1-0.1,0.1l0,0c-0.1,0-0.1,0-0.1,0l0,0l0,0l0,0l0,0l0,0l0.4,0.1
								l0,0l0,0l-0.1-0.1c0.1,0.2-0.1-0.1-0.1,0l0,0c0,0.1-0.1,0-0.1,0l0,0c0,0.1-0.1,0,0,0.1c-0.1-0.1,0-0.1-0.1-0.2
								c-0.1,0.2-0.3,0.2-0.5,0.3c0-0.1,0-0.1,0-0.1s-0.1,0-0.1,0.1v-0.1c0-0.1,0,0.2-0.1,0.1c0,0,0-0.1,0-0.2
								c0,0.1-0.1,0.1-0.1,0.1s0,0,0-0.1c0,0.1-0.1,0-0.1,0v-0.1c0-0.1,0,0.2-0.1,0.1v-0.1c-0.1,0.2-0.1,0.1-0.2,0.2l0,0
								c0,0-0.1,0-0.2,0c0,0,0.1-0.2,0-0.2c0,0.2-0.1,0-0.1,0.3l-0.1-0.1c0-0.1,0.1-0.2,0.1-0.2V29c0-0.1,0,0,0-0.1
								c0,0-0.1,0.1-0.1,0c-0.1,0.1-0.2,0.3-0.3,0.3c0.1,0,0.1-0.2,0.1-0.2c-0.1,0.1-0.2,0.2-0.2,0.3c0,0,0.1-0.1,0-0.1
								c0,0,0,0.1-0.1,0.1c0,0-0.1,0,0-0.2c0-0.1,0,0,0.1-0.1h-0.1l0,0c0,0-0.1,0-0.2,0.1c0,0,0.1-0.1,0,0s-0.2,0-0.2,0
								s0.1,0,0.1-0.1c-0.2,0-0.2,0-0.3,0s0.2,0,0.1,0c0.1-0.1-0.3-0.2-0.1-0.3h-0.1l0.1-0.1c0.1,0,0,0,0-0.1l0,0
								c-0.1,0-0.2-0.2,0-0.3c0,0-0.2-0.1-0.1-0.1h0.1c0.1,0,0-0.1,0.1-0.1c-0.1-0.1,0,0.2,0,0.1c0.1,0-0.2-0.1,0-0.1
								c0,0-0.1-0.1,0-0.1c0,0,0.2,0.1,0.2,0c0,0,0,0-0.1-0.1l0,0c-0.1,0,0,0-0.1-0.1c0.1,0,0-0.1,0.2,0l0.1,0.1
								c0,0-0.1-0.1-0.2-0.1c0,0,0,0,0.1,0c-0.2-0.1,0.1,0-0.1-0.2c0.1,0,0.1-0.1,0.3,0c0-0.1,0-0.2,0-0.2s0,0,0,0.1
								c0.1,0,0,0,0-0.1l0.2,0.1c0-0.1-0.1-0.2-0.1-0.2c0.2,0.2,0.1-0.2,0.3-0.1c0,0,0,0.1,0,0.2c0.1,0.2,0-0.2,0.1-0.1L37.6,27
								c0,0.1,0-0.1,0.1,0c0-0.1,0.1,0,0-0.1c0.1,0.1,0.2-0.2,0.3,0.1c0,0,0,0,0-0.1s0,0.1,0,0v-0.1c0,0,0,0,0,0.2
								c0.1,0.1,0.1-0.3,0.2-0.3c0,0.1,0,0.1,0,0.1l0.1-0.1c0,0,0,0.2,0,0.3c0,0,0.1,0,0.1-0.1V27c0-0.1,0-0.1,0.1-0.1l0,0l0,0
								c0-0.1,0-0.1,0-0.1c0-0.1,0,0,0.1-0.1c0,0.1,0,0.1,0,0.1l0.1-0.1c0,0.1,0,0,0,0.1l0,0v0.1c0-0.1,0.1-0.2,0.1-0.2
								s0,0.1-0.1,0.1l0,0v-0.1l0,0c0.1-0.1,0.1,0,0.2-0.2v0.1l0,0c0,0,0,0,0.1-0.1l0,0c0,0,0.1,0,0.1-0.1c0,0.1-0.2,0.3-0.1,0.2
								l0.2-0.2c0,0,0.2-0.1,0.2,0c0,0,0.1,0,0.1-0.1c0.1,0,0.3-0.1,0.2,0c-0.1,0-0.1,0.1-0.2,0.1c0.1-0.1-0.1,0,0.1,0
								c0.1,0,0.1-0.1,0.1-0.1c0.1,0,0.2,0,0.1,0l0,0l0,0l0,0l0,0l0,0l-1.1-0.2l0,0l0,0c0.1,0.1,0.2,0.1,0.2,0V26l0.1,0.1
								c0,0-0.1-0.2,0-0.1c0,0,0,0.1,0.1,0.1c0-0.1,0-0.3,0.1-0.2l0.1,0.1v-0.1c0.1,0,0.2,0,0.2,0.2c0-0.3,0.3-0.4,0.4-0.4v0.1
								c0,0.1,0-0.1,0-0.1c0,0.1,0,0.2,0,0.2C40,26,40,25.8,40,25.7c0-0.1,0,0.1,0-0.1c0,0,0.1,0.1,0.1-0.1c0,0.1,0,0.2,0,0.2v-0.1
								c0,0.2-0.1,0.3,0,0.5l0,0c0,0.2-0.1,0.2,0,0.2c0-0.1,0-0.3,0-0.3c0.1,0,0-0.3,0.1-0.3c0,0.1-0.1,0,0,0.1c0,0.1,0.1-0.1,0.1,0
								c0-0.1,0-0.2,0-0.2c0,0.1,0,0.1,0,0.2c0-0.1,0.1-0.1,0-0.2c0-0.2,0,0,0.1-0.1c0,0.1-0.1,0.3,0,0.4c0-0.1,0.1-0.2,0.1-0.4
								c0,0,0,0.1,0,0.2s0.1-0.2,0.1,0v-0.1c0,0,0,0.1,0,0.2c0,0,0.1-0.2,0.1,0c0,0,0.1,0,0.1-0.1s-0.1,0.1,0-0.1
								c0,0.2,0.1,0,0.1-0.1v0.1c0,0,0,0,0.1-0.1v0.1v-0.1c0.1,0,0,0.2,0,0.2l-0.1,0.1v0.1c0-0.1,0.1-0.2,0.1-0.3c0,0,0,0.1,0,0
								l-0.1,0.1v0.2l0.1-0.2c0,0,0,0.1,0,0.2c0.1,0,0-0.1,0.1-0.2c0,0.1,0,0.2,0,0.3L41,26.2l0,0c-0.1,0.1,0,0.1-0.1,0.3
								c0,0,0,0,0.1,0c0-0.2,0.2-0.3,0.2-0.5c0.1,0-0.2,0.5,0,0.2c0-0.1,0.1-0.2,0-0.2c0,0,0.1-0.2,0.2-0.1c-0.1,0.1,0,0.2-0.2,0.3
								c0-0.1,0-0.1,0,0s-0.1,0.2,0,0.2c0,0,0.1,0,0.1-0.1c0.1-0.1,0,0,0-0.1c0.1,0,0,0.2,0.1,0c0,0,0-0.1,0-0.2h0.1h-0.1
								c0,0.1,0.1-0.1,0.2,0v0.2c-0.1,0.1-0.1-0.1-0.2,0.1h0.1c0,0,0,0-0.1,0c0,0-0.2,0.3,0,0.2c0.1,0,0.1-0.1,0.1-0.1
								c0.1,0,0.2,0,0.2,0c-0.1,0.1,0.1,0.1-0.1,0.2c0-0.1-0.1-0.2-0.2-0.1c-0.1,0.2,0-0.1-0.2,0.1c0,0-0.1,0.2-0.2,0.3
								c0,0,0,0,0.1,0c0.1-0.1,0.1-0.1,0.1-0.2c0,0.1,0.1,0.1,0.3,0c0,0.1-0.1,0.1-0.2,0.1c0.1,0,0.1,0.1,0.2,0.2
								c0.2-0.2,0.1,0.1,0.2,0c0-0.1,0.1-0.2,0.2-0.2c0,0-0.1,0-0.1,0.1c0.1,0-0.1,0.2,0.1,0.1c-0.1-0.1-0.2,0.1-0.4,0.1
								c0.1,0-0.1,0-0.1,0.1c0.1,0,0.2,0.1,0.2,0.2c-0.1,0.1,0,0.2-0.1,0.3c-0.1,0-0.2-0.1-0.3-0.1c0,0,0.2,0.1,0.1,0.1l0,0
								c0,0-0.2,0,0,0.2l-0.2-0.1l0,0L41,27.7c-0.1-0.1,0,0.1,0,0.1L41.1,28C41.1,28,41,27.9,41.1,28l-0.2-0.1V28
								c-0.1-0.1-0.1-0.1-0.1,0c0-0.1-0.1-0.2-0.1-0.3c0.1,0,0.1,0.1,0.2,0.2c0.1,0.1,0.1,0,0-0.1c0,0,0,0,0,0.1
								c-0.1-0.1-0.1-0.1-0.2-0.2l0,0c0-0.1,0-0.1,0-0.1l0.1,0.1c-0.1-0.1-0.1-0.1-0.1-0.1c0.1,0.1-0.1-0.1,0-0.1
								c0.1,0.1,0.2,0.2,0.2,0.2c0.1,0,0,0,0.1,0c-0.1-0.1-0.2-0.2-0.3-0.2h0.1l-0.2-0.1c0.1,0,0,0,0.1,0h0.1c-0.2,0-0.1,0-0.2,0
								c0.1-0.1-0.1,0,0-0.1c-0.1,0-0.2,0-0.3,0l0.1-0.1c-0.1,0.1,0-0.1,0-0.1c0,0.1-0.1,0.1-0.1,0.2c0-0.1-0.1,0-0.2,0.1v-0.1
								c-0.1,0.2-0.1,0-0.1,0v-0.1c-0.1,0.2-0.1,0.1-0.1,0.2c0,0-0.1,0-0.1-0.1c-0.1,0.2-0.2,0.1-0.3,0.2v-0.1
								c-0.1,0.3-0.2,0-0.2,0.2l-0.1-0.2c0,0,0,0.1,0,0.2c0,0,0,0.1-0.1,0c0,0,0.1,0.1,0,0.1c0,0,0-0.1-0.1-0.1l-0.7-0.7L38,27.5
								c0,0,0,0.1-0.1,0.1l0,0l0.1-0.1c-0.1,0,0,0-0.2,0.2c0.1,0-0.2,0.2-0.1,0.2L37.6,28c0,0.1,0,0,0,0.2l0.1-0.1
								c0,0,0,0.1-0.1,0.1c-0.1,0.2,0,0.1,0,0.2c-0.1,0.3-0.1,0.3-0.1,0.4l0,0c0,0.2-0.1-0.1,0,0.2c0,0,0,0,0-0.1c0,0.1-0.1,0,0,0
								l0,0c0-0.1,0-0.1,0-0.2l0,0l0,0c-0.1,0,0.1,0.1,0,0h0.1c-0.1,0,0,0.1,0,0.1c-0.1,0-0.3,0-0.2,0c0,0,0.1,0,0,0
								c0.1,0-0.3,0-0.1,0c0.1,0,0.1,0,0.2,0c-0.1,0-0.2,0-0.1,0h-0.1c0.1,0,0.1,0,0.2,0l0,0l0,0l0,0l-0.3,0.1l0,0l0,0l0,0l0,0l0,0
								l0,0c0,0,0.2-0.2,0.3-0.3c0,0,0,0,0.1,0s0.2,0,0.3,0c0.2,0.1,0.4,0,0.5,0.1c0.1,0.2,0.1,0.2,0.1,0.1c0,0,0,0,0,0.1
								c0-0.1,0-0.1,0,0s0.1,0.1,0.1,0.2l0.7,0.7l0.5-0.7c0-0.1,0.1-0.1,0.2-0.2L39.9,29l0.1-0.1l0,0l0.1-0.1
								c0.3-0.4,0.1-0.6,0.1-0.8c0,0,0-0.1,0-0.2c0,0.1,0.3,0.2,0.3,0C41,27.5,41.2,27.9,41.1,28z"/>
							<path class="st1" d="M41.2,27.8c0.1,0.1,0.1,0.1,0.2,0.2C41.3,27.9,41.3,27.9,41.2,27.8z"/>
							<path class="st1" d="M42.2,27.2C42.2,27.2,42.3,27.2,42.2,27.2C42.3,27.2,42.4,27.2,42.2,27.2C42.3,27.2,42.3,27.2,42.2,27.2
								z"/>
							<path class="st1" d="M42.1,26.8c0.1,0,0.2,0,0.2,0C42.2,26.8,42.1,26.9,42.1,26.8z"/>
							<path class="st1" d="M42,26.4C42,26.3,42,26.3,42,26.4C42.1,26.4,42,26.4,42,26.4z"/>
							<path class="st1" d="M41.9,26.5C41.9,26.5,41.9,26.4,41.9,26.5C41.9,26.5,42,26.4,41.9,26.5z"/>
							<path class="st1" d="M41.4,26C41.4,26,41.4,26.1,41.4,26C41.4,26,41.5,25.9,41.4,26z"/>
							<path class="st1" d="M41.2,26C41.1,26,41.1,26,41.2,26C41.1,26,41.2,26,41.2,26L41.2,26z"/>
							<path class="st1" d="M37.8,27.4v-0.1V27.4z"/>
							<path class="st1" d="M36.9,29.3C36.9,29.3,36.9,29.4,36.9,29.3C36.8,29.4,36.9,29.3,36.9,29.3z"/>
							<polygon class="st1" points="37.9,29.5 37.9,29.5 38,29.4 							"/>
						</g>
					</g>
				</g>
				<g>
					<g>
						<g>
							<path class="st1" d="M42.7,23.4C42.9,23.4,42.9,23.4,42.7,23.4C42.8,23.3,42.8,23.3,42.7,23.4C42.8,23.3,42.8,23.4,42.7,23.4
								L42.7,23.4L42.7,23.4c0.1,0,0.2,0,0.3,0C43,23.4,42.9,23.4,42.7,23.4C42.8,23.4,42.8,23.4,42.7,23.4
								C42.8,23.4,42.8,23.4,42.7,23.4z"/>
							<path class="st1" d="M42.7,23.7c-0.3,0.8-1.5,1.1-2.2,1.8c-0.1,0.1-0.1-0.2-0.3,0c-0.6,0.7-1.9,1.2-3,1.5v-0.1
								c-0.2,0.1-0.3,0.3-0.5,0.4v-0.1c0,0.1-0.3,0.2-0.4,0.3c-0.1,0-0.1-0.1-0.3-0.1v0.2c-0.2,0.4-0.8,0.4-1.1,0.7v-0.1
								c-0.6,0.5-1.4,0.9-2.1,1.4c0-0.1,0-0.2-0.1-0.2c0,0.2-0.2,0.3-0.3,0.5c0,0,0,0-0.1,0.1l-0.1,0.1c-0.1,0-0.3,0.1-0.4,0l0,0
								c-0.2,0.1-0.3-0.2-0.5-0.1l-0.1-0.2C31,30,31,29.6,30.8,29.6l0,0c-0.2,0-0.2-0.1-0.3-0.2l0,0c-0.3-0.1-0.5-0.3-0.5-0.1
								c0-0.2,0.3,0.1,0.2-0.2c-1.1-0.3-2-0.9-3-1.4c-0.1-0.1-0.1-0.2-0.1-0.2c-0.1,0-0.4-0.2-0.5-0.2c0,0,0-0.1-0.1-0.1
								c-0.2-0.2-0.3,0-0.4-0.1c0.1,0,0.2,0,0.2-0.1c-0.2,0-0.4-0.1-0.7-0.2h0.1c-0.3,0-0.4-0.3-0.6-0.3h0.1
								c-0.2-0.3-0.2,0.1-0.4-0.1c0.1,0,0.1,0,0.1-0.1c-0.3,0-0.7-0.3-1-0.3l0,0c-0.3-0.1-0.5-0.3-0.8-0.4c-0.1-0.1,0.2-0.2-0.1-0.3
								c-0.1,0.2-0.5-0.2-0.5,0.1c-0.2-0.2-0.5-0.4-0.7-0.5c0.1,0,0-0.3,0.2-0.2l-0.1-0.2c0.1,0,0.1,0.1,0.1,0
								c-0.1,0-0.4-0.2-0.5-0.2c-0.2,0-0.5,0.1-0.8-0.1c0.2,0,0-0.2,0.1-0.2l-0.6,0.1c-0.1,0,0-0.1-0.1-0.2c0,0-0.1,0-0.2,0
								c0,0-0.4-0.2-0.4-0.4c0-0.1,0.2,0.1,0.1-0.1c-0.2-0.1-0.2-0.1-0.4-0.2l0,0c-0.1-0.1-0.4-0.1-0.3,0c0.1,0,0-0.1,0.1,0
								c-0.1,0-0.4-0.1-0.5-0.2c0.1,0,0.1,0,0.2-0.1c-0.3,0-0.6-0.1-0.9-0.2c0,0.1,0.2-0.1,0.2,0c-0.3-0.3-0.8-0.3-1-0.6v0.1
								c-0.2-0.1-0.1-0.2-0.2-0.2c0-0.1-0.2-0.1-0.3-0.1s0,0,0.1,0c-0.2,0-0.9-0.3-1.2-0.6c0,0-0.3,0-0.4,0l0.1-0.1
								c0-0.1-0.3-0.2-0.2-0.3c-0.3,0,0.7,0.3,0.4,0.3c0-0.1-0.4,0-0.3-0.1c-0.2-0.1-0.4-0.1-0.5-0.3c0,0,0.2-0.1,0.1-0.1
								c-0.3-0.1-0.1,0-0.3-0.1h-0.1c-0.1,0.1-0.2-0.1-0.2,0c0-0.1-0.4-0.2-0.3-0.3l0.1-0.1c-0.1,0-0.3,0-0.5,0v-0.1
								c-0.1,0.1-0.2,0-0.3-0.1s-0.2-0.1-0.4-0.1c-0.1-0.1-0.2-0.3-0.3-0.4s-0.1-0.3,0-0.4c0-0.2,0-0.4,0.2-0.7c0,0-0.1,0.1,0,0.1
								c0.2-0.1,0.2-0.2,0.2-0.3c0,0,0.4-0.2,0.6-0.3c0.1-0.2,0-0.2,0-0.3c0.4,0,0.4-0.5,0.7-0.5c0,0.1-0.2,0.3,0,0.2
								c0.3,0.1,0.2-0.3,0.5-0.4l-0.2-0.1c0.2,0,0.3-0.3,0.4-0.1c0-0.1,0.3-0.1,0.2-0.3c0.5-0.1,0.9-0.7,1.3-0.5
								c0-0.1,0.2-0.1,0.1-0.2c-0.1,0-0.1,0.1-0.2,0.1v-0.1c0.2,0,0.3-0.1,0.2,0.1c0.3-0.1,0.1-0.4,0.5-0.6c0,0.1,0.1,0.1,0.2,0
								l0.1-0.2c0.2-0.1,0.2,0.1,0.3,0.2c0.1-0.1,0.3-0.2,0.3-0.3l0.2,0.1c-0.2,0,0.1-0.1,0.1-0.2v0.1l0.2-0.1c0-0.1-0.2,0-0.3,0
								c0-0.1,0.1-0.1,0.2-0.2c0,0.1,0.2,0,0.3-0.1c0.1,0,0.1-0.2,0.1-0.2s0.2-0.1,0.1,0c0,0-0.1,0-0.2,0.1c0.1,0,0.1,0.1,0.3,0
								c0.1-0.1-0.1-0.2,0.1-0.3c0,0.1,0,0.1,0,0.2H19v-0.1l0,0c0-0.1,0.3-0.2,0.3-0.3c0.1-0.1,0.3,0,0.4-0.1l0,0
								c0.2,0,0.3-0.1,0.4-0.3l0,0c0.1,0,0.2-0.1,0.3-0.2c0.2,0,0.3,0.3,0.4,0.1c0.2-0.1,0.2-0.3,0.1-0.3c0.3-0.1,0.6-0.4,1-0.4
								c0-0.1,0-0.1,0.1-0.1c0.2-0.1,0.4-0.3,0.6-0.4c0.1-0.1,0.2-0.1,0.3-0.2c0,0,0.1-0.1,0.2-0.2c0.1,0,0.2-0.1,0.2-0.1
								c-0.1,0.2,0.1,0.1,0.1,0.2c0-0.2,0.2,0,0.2-0.2c0-0.1,0-0.2-0.3-0.1c0.4-0.3,1.2,0,1.4,0.2c-0.1-0.1,0-0.1,0.1-0.1
								c-0.1,0.1,0.1,0.3,0.3,0.3l0.1-0.1l0.1,0.1c0.1,0,0.2-0.2,0.3,0v0.1c0.2,0,0.5,0,0.6,0.2l0.1,0.2c0.1,0,0.2,0,0.1-0.1
								c0.3,0.2,0.4,0.3,0.5,0.5c0.6,0,1.4,0.4,1.9,0.7l0,0c0.1,0.1,0.1-0.1,0.2,0c-0.1,0,0,0.2-0.1,0.2c0.2,0.2,0.3,0,0.5,0.1
								c0.1-0.1-0.1,0-0.1-0.1c0,0,0.3,0.2,0.4,0.1c0,0.1-0.1,0.2-0.1,0.2h0.2c0.1,0.2-0.5,0.1-0.5,0.3h0.1c0,0.2-0.4,0-0.1,0.2
								c0.2,0,0.4-0.1,0.3-0.2c0.3,0.1,0.3-0.2,0.6,0c0,0.1-0.3-0.1-0.3,0c0.1,0.2,0.3,0.1,0.4,0.2c-0.1-0.1,0.1-0.2,0.2-0.2
								c0.1,0.2-0.2,0.1,0,0.2c0.1,0,0.3,0,0.2-0.1c0.2-0.1,0.2,0.2,0.4,0.1c0,0.2-0.4,0.1-0.2,0.3c0-0.1,0.4,0,0.3-0.2
								c0.1,0.1,0,0.2-0.1,0.2c0.1,0.1,0.4,0,0.3,0.2l0.1-0.1c0,0.1,0.1,0.1,0.1,0.2c0.1,0.1,0.5,0.1,0.3,0.2c0,0,0.3,0.2,0.3,0
								c-0.1-0.2-0.2,0-0.2-0.2c0,0.2,0.3,0.1,0.4,0.1v0.1c0.1,0,0.2,0.1,0.3,0c-0.1,0-0.1,0.1,0,0.1l0.1-0.1c0.3,0.1,0,0.2,0.2,0.3
								h-0.2c0,0,0.1,0.1,0.2,0.2c0.1-0.1,0.2-0.1,0.3-0.2c0.2,0,0,0.1,0.2,0.1h-0.2c0,0,0,0.2,0.2,0.3c0.1,0,0.4,0,0.2-0.2
								c0.1,0,0.2,0.2,0.1,0.2c0.2,0.1,0-0.1,0.2-0.1c0,0.1,0.2,0.3,0.3,0.5H34l0.1,0.1c-0.2,0,0,0.1-0.1,0.2
								c0.1,0.1,0.2,0.1,0.3,0.1c-0.1-0.3,0.4-0.1,0.5-0.4c0.3,0.1-0.1,0.6,0.4,0.5c0-0.1,0.2-0.1,0-0.2c0.2,0.1,0.2-0.1,0.4,0.1
								c-0.2,0,0.1,0.3-0.2,0.3c0,0-0.1-0.1-0.2-0.1c0,0.1-0.1,0.2,0.1,0.3c0.1,0,0.3,0.2,0.3,0c0.1-0.1-0.2-0.1,0-0.2
								c0.3,0.1,0.2,0.3,0.4,0.2c-0.2-0.1-0.1-0.2-0.1-0.3l0.2,0.1H36c0.3,0.2,0.2-0.1,0.4,0.1v0.2c-0.1,0.1-0.4-0.3-0.4-0.1
								c0.2,0.1,0.3,0,0.4,0.2c0,0-0.1,0-0.2,0c0.1,0,0,0.3,0.3,0.3c0.2,0,0.1,0,0.1-0.1c0.3,0.2,0.4,0.1,0.6,0.2
								c-0.1,0.1,0.3,0.2,0,0.2c0-0.1-0.5-0.4-0.7-0.3c0,0.2-0.2-0.2-0.4,0c0.2,0.1,0.1,0.3,0.1,0.4c0.1,0,0.2,0,0.2,0
								c0.1-0.1,0-0.1,0.1-0.3c0.2,0.2,0.5,0.3,0.7,0.3c0,0.1,0,0.2-0.1,0.1c0.3,0.2,0.6,0.4,0.9,0.6c-0.1-0.3,0.3,0.2,0.3-0.1
								c-0.1-0.1-0.2-0.3-0.1-0.4c0.1,0.1,0,0.1,0,0.1c0.2,0,0.1,0.3,0.3,0.2c-0.3-0.1-0.2,0.2-0.3,0.3c0.3,0-0.1,0.1,0.1,0.2
								c0.2,0,0.5,0.1,0.8,0.2c0.2,0.3,0.7,0.4,1,0.6c0.1,0.2-0.1,0.2,0,0.4c0.2,0.1,0-0.2,0.2,0l0,0c0.1,0,0.4,0.4,0.6,0.2
								l-0.2,0.1c0,0,0.1,0,0.2,0c0,0,0,0.1-0.1,0.1c0.1,0.2,0.3,0.2,0.5,0.3V21c0.3,0.1,0.5,0.3,0.8,0.4L42,21.5h0.2
								c-0.1,0.1,0,0.2,0.2,0.2h-0.6c-0.1-0.1,0.2,0,0.2-0.2c0-0.1-0.3-0.2-0.4-0.2c0.1,0.1,0.1,0,0.2,0.1c0,0.2-0.2,0.1-0.3,0.1
								l0.1,0.1c-0.1,0-0.3,0-0.4-0.1c0.1,0,0-0.1,0-0.1c-0.1,0.1-0.3,0-0.5-0.1c-0.1-0.2-0.4-0.1-0.7-0.3c0.2-0.1,0.3-0.1,0.5,0
								c-0.1-0.2-0.2-0.1-0.3-0.2c-0.1,0-0.3,0.2-0.5,0.1v-0.1c-0.2-0.1-0.3,0.1-0.5-0.1c-0.4-0.3-0.8-0.5-1-0.7v-0.1
								c-0.3,0.1-0.6-0.3-0.8-0.3c-0.3-0.3-0.9-0.4-1-0.7c-0.7-0.3-1.3-0.6-2-1l0.2-0.1c-0.2,0,0-0.1-0.2-0.2c0.1,0.2-0.2,0-0.4,0.1
								c-0.3-0.3-0.7-0.4-1-0.5v-0.1c-0.4,0-0.6-0.3-0.9-0.6c0-0.1,0-0.2-0.1-0.2c-0.3,0-0.4,0-0.7-0.1c-0.2-0.1-0.5-0.3-0.7-0.5
								c-0.9-0.2-1.6-0.8-2.4-1.1v-0.1c-0.9-0.2-1.7-0.9-2.4-1.1l0.2-0.2c-0.2-0.2-0.5-0.2-0.5,0C25.3,13,25,13,24.9,12.8
								c-0.2-0.1-0.3,0-0.5-0.1s-0.3-0.2-0.5-0.2c0,0-0.1,0-0.2,0l0,0c0,0,0-0.1,0-0.2h-0.1c0,0.1,0,0.1,0.1,0.2l0,0
								c0,0-0.1,0.1-0.2,0.1c-0.1,0.1-0.2,0.2-0.4,0.3c-0.2,0.2-0.5,0.3-0.7,0.3c0.1,0,0,0.1,0,0.2c-0.4,0.2-0.8,0.3-1.1,0.6
								c-0.1,0,0-0.2-0.1-0.1c-0.1,0.1,0,0.1,0,0.2c-0.5,0.4-1.3,0.5-1.8,0.9c-0.9,0.6-2,1.1-2.8,1.7l0,0c-0.2,0.3-0.8,0.3-0.9,0.6
								c-0.1,0-0.3,0.1-0.3,0c-0.2,0.3-0.7,0.3-1,0.7c0,0,0,0,0.1-0.1c-0.4,0.2-0.2,0.2-0.5,0.3c0,0,0,0-0.1-0.1
								c-0.2,0,0.2,0.1-0.2,0.2h0.2c-0.2,0.2,0.1,0.2,0.2,0.2h0.2l0.4,0.2c0.3,0.1,0.5,0.3,0.8,0.4c0.5,0.5-0.2,0.4,0.4,0.5
								c0,0.1,0.1-0.1,0.1,0c0.2,0.1,0.2,0.4,0.3,0.4c0-0.2,0.1,0,0.2-0.1c0.3,0.3,0.3,0.5,0.7,0.5h-0.1c0.5,0,0.8,0.4,1.2,0.3
								c1.9,1.1,3.8,2.1,5.7,3.1c1.8,1.1,3.7,2,5.5,3.2c0.3,0.4,0.4,0.4,0.9,0.6c0,0-0.1,0,0,0c0.1-0.1,0.3,0.2,0.5,0
								c0.2,0.1,0.3,0.2,0.5,0.2l0.3,0.1c0.1,0,0.2,0.1,0.2,0l0,0l0,0l0,0l0.1-0.1c-0.1,0.1-0.1,0.3,0,0.2l0.1-0.2l0,0
								c0.1-0.1,0.2-0.2,0-0.2c1.8-1.2,3.8-1.8,5.5-2.8c0.5-0.2,1-0.6,1.5-0.8c0.7-0.3,1.4-0.6,2-0.9c0.3-0.2,0.6-0.4,0.9-0.6
								c0.1-0.1,0.2-0.2,0.3-0.3l0,0c0.2,0.1,0.2,0.1,0.4,0.1h0.1l0,0l0,0C42.9,23.5,42.8,23.7,42.7,23.7
								C42.8,23.7,42.8,23.7,42.7,23.7c0.1-0.1,0.1-0.2,0.2-0.2c0,0,0,0,0.1-0.1l0,0c0,0,0.1,0-0.1,0c-0.2,0,0,0,0,0
								C42.9,23.5,42.8,23.6,42.7,23.7z"/>
							<path class="st1" d="M42.4,23.2c0-0.1-0.1-0.2,0-0.3C42.5,23,42.5,23.2,42.4,23.2z"/>
							<path class="st1" d="M38.7,20L38.7,20C38.7,20,38.8,19.9,38.7,20C38.8,20,38.8,20,38.7,20z"/>
							<path class="st1" d="M37.7,19.3c0,0,0.3,0,0.5,0.1L37.7,19.3z"/>
							<path class="st1" d="M36.9,18.5C36.8,18.4,36.8,18.4,36.9,18.5L36.9,18.5z"/>
							<path class="st1" d="M36.7,18.6c-0.1,0-0.1-0.1-0.1-0.2C36.5,18.5,36.8,18.5,36.7,18.6z"/>
							<path class="st1" d="M34.6,17.1c0,0-0.2,0-0.2-0.1C34.5,17.1,34.7,17.1,34.6,17.1z"/>
							<path class="st1" d="M33.6,16.6L33.6,16.6C33.5,16.5,33.6,16.5,33.6,16.6L33.6,16.6z"/>
							<polygon class="st1" points="14.4,17.3 14.5,17.2 14.5,17.3 							"/>
							<path class="st1" d="M18.5,23.4C18.6,23.4,18.5,23.5,18.5,23.4C18.4,23.4,18.6,23.4,18.5,23.4z"/>
							<polygon class="st1" points="23,25.6 22.9,25.6 23,25.5 							"/>
						</g>
					</g>
				</g>
				<g>
					<g>
						<g>
							<path class="st1" d="M21.4,11.1c-0.3,0.3,0.2-0.1-0.2,0.2C21.3,11.2,21.3,11.1,21.4,11.1z"/>
							<path class="st1" d="M20.4,11.8c-0.7,0.8-2,1.2-2.9,1.9c-0.1,0.1-0.1-0.2-0.3,0c-0.8,0.8-2.3,1.5-3.6,2v-0.1
								c-0.2,0.1-0.4,0.4-0.7,0.5V16c0,0.1-0.4,0.3-0.4,0.4c-0.1,0-0.2-0.1-0.3,0l-0.1,0.2c-0.2,0.5-0.9,0.5-1.3,0.9v-0.1
								c-0.3,0.2-0.6,0.6-0.6,1s0.3,0.8,0.6,0.9c0,0,0,0,0.1,0H11c0.2,0.1,0.3,0.1,0.5,0.2c-0.1,0-0.1,0.1-0.1,0.2
								c0.1-0.1,0.4,0,0.7,0.1c0,0.2,0.5,0.1,0.7,0.3l0,0c0.3,0,0.3,0.3,0.5,0.2l0.1,0.2c0.2-0.1,0.2,0.3,0.5,0.3l0,0
								c0.2,0,0.2,0.2,0.4,0.3l0,0c0.4,0.2,0.5,0.4,0.6,0.3c0,0.2-0.4-0.2-0.3,0.1c1.2,0.6,2.4,1.3,3.5,2c0.1,0.1,0.2,0.2,0.2,0.3
								c0.1,0,0.5,0.2,0.6,0.2c0,0,0,0.1,0.1,0.2c0.2,0.2,0.3,0,0.5,0.2c-0.1,0-0.2,0-0.2,0.1c0.3,0,0.5,0.2,0.8,0.3H20
								c0.3,0,0.4,0.3,0.7,0.4h-0.1c0.3,0.3,0.2-0.1,0.5,0.1c-0.1,0-0.1,0-0.1,0c0.4,0,0.8,0.4,1.1,0.5l0,0c0.3,0.2,0.6,0.4,1,0.6
								c0.1,0.1-0.2,0.2,0.2,0.3c0.1-0.2,0.6,0.3,0.5,0c0.3,0.2,0.7,0.5,0.9,0.6c-0.2,0,0,0.3-0.2,0.2l0.1,0.2c-0.1,0-0.2-0.1-0.2,0
								c0.1,0.1,0.5,0.2,0.6,0.3c0.3,0,0.6,0,1,0.2c-0.2,0,0,0.2-0.1,0.2h0.7c0.1,0.1,0,0.1,0.2,0.2c0,0,0.1,0,0.2,0
								c0,0,0.5,0.2,0.5,0.4c0,0.1-0.2-0.1-0.1,0.1c0.2,0.1,0.3,0.1,0.5,0.2l0,0c0.1,0.1,0.5,0.2,0.4,0c-0.1-0.1,0,0.1-0.1,0
								c0.2,0,0.4,0.1,0.7,0.2c-0.1,0-0.1,0-0.2,0.1c0.4,0,0.7,0.2,1.1,0.3c0-0.1-0.2,0.1-0.2,0c0.4,0.3,1,0.3,1.3,0.6
								c-0.1,0,0-0.1,0-0.1c0.2,0.1,0.1,0.2,0.3,0.3c0,0.1,0.2,0.1,0.3,0.1s0,0-0.1,0c0.2,0,1.1,0.3,1.5,0.6c0,0,0.3,0,0.5,0
								l-0.1,0.1c0.1,0.1,0.4,0.1,0.3,0.2c0.3,0-0.9-0.2-0.6-0.2c0,0.1,0.5,0,0.4,0.1c0.2,0.1,0.5,0,0.6,0.2c0,0-0.2,0.1,0,0.1
								c0.3,0.1,0.1,0,0.4,0h0.2c0-0.1,0.3,0.1,0.2-0.1c0,0.1,0.4,0,0.4,0.2l-0.1,0.1c0.1,0,0.2-0.1,0.3-0.2c0,0,0,0,0,0.1
								c0-0.2,0.3,0,0.3-0.2c0.1,0,0.1,0,0.1,0l0.2-0.2c0.2-0.1,0.3-0.2,0.4-0.1c0.2-0.2,0.3-0.3,0.6-0.4l-0.1,0.1
								c0.2,0,0.2-0.1,0.3-0.2c0,0,0.3,0,0.5-0.1c0.2-0.2,0-0.2,0-0.3c0.3,0.1,0.5-0.5,0.8-0.4c0,0.1-0.2,0.3,0,0.2
								c0.3,0.1,0.3-0.3,0.6-0.4l-0.2-0.1c0.2,0,0.4-0.3,0.4-0.2c0.1-0.1,0.4-0.2,0.3-0.3c0.6-0.2,1.1-0.8,1.6-0.7
								c0-0.1,0.2-0.1,0.2-0.2c-0.2,0-0.1,0.2-0.2,0.1c0.1,0,0-0.1,0-0.1c0.2,0,0.3-0.1,0.2,0.1c0.4-0.1,0.2-0.5,0.7-0.7
								c0,0.1,0.1,0.1,0.2,0l0.2-0.3c0.3-0.1,0.2,0,0.3,0.2c0.1-0.1,0.3-0.2,0.3-0.3h0.3c-0.2,0,0.1-0.1,0.1-0.2v0.1
								c0,0,0.2-0.1,0.3-0.2c-0.1-0.1-0.3,0-0.3,0c0-0.1,0.2-0.2,0.2-0.3c0,0.1,0.3-0.1,0.4-0.1c0.2,0,0.1-0.2,0.1-0.2
								s0.2-0.1,0.2,0c0,0-0.1,0-0.2,0.1c0.1,0,0.2,0.1,0.3-0.1c0.1-0.1-0.2-0.2,0.2-0.3c0,0.1,0,0.1-0.1,0.2l0.3-0.1v-0.1l0,0
								c0-0.1,0.4-0.3,0.3-0.4c0.1-0.1,0.3-0.1,0.4-0.1l0,0c0.2,0,0.3-0.2,0.4-0.3l0,0c0.1,0,0.3-0.2,0.3-0.3c0.2,0,0.3,0.3,0.4,0.1
								c0.2-0.1,0-0.3,0-0.3c0.1-0.1,0.1-0.2,0.1-0.2s0-0.1,0-0.2c-0.1,0-0.1,0-0.1,0c0-0.1-0.1-0.1-0.1-0.1l0,0l0,0
								c-0.6-0.2-0.9-0.4-1.2-0.7c0.2,0,0.1-0.1,0.1-0.2c-0.2,0-0.1-0.2-0.2-0.1c0,0.1-0.1,0.1,0.1,0.3c-0.4-0.1-0.8-0.4-1-0.6
								c0.1,0.1,0,0.1-0.1,0.1c0.1-0.1-0.1-0.3-0.3-0.3l-0.1,0.1l-0.1-0.2c-0.1,0-0.2,0.1-0.3-0.1v-0.1c-0.2,0-0.5-0.1-0.7-0.3
								l-0.1-0.2c-0.1,0-0.3,0-0.2,0.1C42.2,22,42,21.9,42,21.7c-0.7-0.1-1.6-0.6-2.2-1h0.1c-0.1-0.2-0.2,0-0.3-0.1
								c0.1,0-0.1-0.2,0.1-0.2c-0.2-0.2-0.4-0.1-0.6-0.2c-0.1,0.1,0.2,0,0.1,0.1c0,0-0.3-0.3-0.4-0.2c0-0.1,0.1-0.2,0.1-0.2h-0.2
								c-0.1-0.3,0.6,0,0.5-0.3L39,19.5c-0.1-0.2,0.5,0.1,0.1-0.2c-0.2,0-0.4,0.1-0.3,0.2c-0.3-0.2-0.3,0.2-0.7,0
								c0-0.1,0.3,0.2,0.3,0c-0.1-0.2-0.4-0.2-0.5-0.3c0.1,0.2-0.1,0.2-0.2,0.1c-0.1-0.2,0.2,0-0.1-0.2c-0.1,0-0.3,0-0.2,0.1
								c-0.2,0.1-0.2-0.2-0.5-0.2c0-0.2,0.4-0.1,0.2-0.3c0,0.1-0.4-0.1-0.4,0.2c-0.1-0.1,0-0.2,0.1-0.2c-0.1-0.2-0.5,0-0.4-0.3
								l-0.1,0.1c0-0.1-0.1-0.1-0.1-0.3c-0.1-0.1-0.5-0.1-0.4-0.3c-0.1,0-0.4-0.2-0.3,0c0.2,0.2,0.3,0,0.3,0.3
								C35.7,18,35.5,18,35.4,18v-0.1c-0.1,0-0.2-0.1-0.3-0.1c0.1,0,0.1-0.1,0-0.1L35,17.8c-0.3-0.1,0-0.2-0.2-0.3h0.3
								c0,0-0.1-0.2-0.2-0.2c-0.1,0.1-0.3,0.1-0.3,0.2c-0.2,0,0-0.1-0.2-0.1h0.3c0,0,0-0.2-0.2-0.3c-0.2,0-0.4,0-0.3,0.1
								C34.1,17.1,34,17,34.1,17c-0.3-0.1,0,0.1-0.3,0.1c0-0.1-0.3-0.3-0.3-0.5h0.3l-0.1-0.1c0.3,0,0-0.2,0.1-0.2
								c-0.1-0.1-0.2-0.1-0.3-0.1c0.2,0.4-0.5,0.1-0.5,0.3c-0.4-0.2,0-0.6-0.5-0.5c0,0.1-0.2,0.1,0,0.2c-0.2-0.2-0.3,0.1-0.5-0.1
								c0.3,0-0.1-0.3,0.3-0.3c-0.1,0,0.1,0.1,0.2,0.2c-0.1-0.1,0.1-0.2-0.1-0.3c-0.2-0.1-0.4-0.2-0.4-0.1c-0.1,0.1,0.2,0.1,0.1,0.2
								c-0.3-0.1-0.3-0.3-0.5-0.2c0.2,0.1,0.2,0.2,0.1,0.3l-0.2-0.1h0.1c-0.3-0.3-0.2,0.1-0.5-0.1L31,15.5c0.2-0.1,0.5,0.3,0.5,0.1
								c-0.2-0.1-0.3-0.1-0.5-0.2c0.1,0,0.1,0,0.2,0c-0.1,0,0-0.4-0.4-0.4c-0.2,0-0.1,0-0.1,0.1c-0.4-0.2-0.5-0.2-0.8-0.3
								c0.1-0.1-0.4-0.2-0.1-0.3c0.1,0.2,0.6,0.4,0.8,0.3c0-0.3,0.3,0.2,0.4,0c-0.3-0.2-0.2-0.3-0.2-0.5c-0.1,0-0.2,0-0.2,0
								c-0.1,0.1,0,0.1,0,0.3c-0.3-0.2-0.6-0.3-0.9-0.3c-0.1-0.1,0-0.2,0.2-0.1c-0.4-0.2-0.8-0.4-1.1-0.6c0.1,0.3-0.4-0.2-0.3,0.1
								c0.2,0.1,0.3,0.3,0.1,0.4c-0.1-0.1,0-0.1,0-0.1c-0.2,0-0.2-0.3-0.4-0.2c0.4,0.1,0.2-0.2,0.3-0.3c-0.3,0,0.1-0.1-0.2-0.2
								c-0.3,0-0.6-0.1-0.9-0.2c-0.3-0.3-0.9-0.4-1.2-0.5c-0.1-0.1,0-0.3-0.1-0.4c-0.2-0.1,0.1,0.2-0.2,0l0,0
								c-0.1,0-0.5-0.3-0.7-0.1l0.2-0.1c0,0-0.1,0-0.2,0c0-0.1,0-0.1,0.1-0.1c-0.2-0.2-0.4-0.1-0.7-0.2l0.1,0.2
								c-0.4,0-0.6-0.2-1-0.2v-0.1h-0.2c0.1-0.1-0.1-0.2-0.3-0.1c0.2-0.1,0.4-0.2,0.6-0.2c0.2,0.1-0.2,0.1-0.1,0.2
								c0.1,0.1,0.4,0.1,0.5,0.1c-0.1,0-0.1,0-0.3,0c0-0.2,0.2-0.1,0.3-0.2c-0.1,0-0.2-0.1-0.2,0c0.2,0,0.3,0,0.5,0
								c-0.2,0,0.1,0.1,0,0.1c0-0.1,0.3-0.1,0.6,0c0.2,0.2,0.6,0.1,0.9,0.3c-0.2,0.1-0.4,0.1-0.6,0.1c0.2,0.1,0.2,0.1,0.4,0.2
								c0.1-0.1,0.3-0.2,0.5-0.1v0.1c0.3,0,0.3-0.1,0.6,0.1c0.5,0.3,1,0.5,1.4,0.7V13c0.3-0.1,0.7,0.3,1,0.3
								c0.4,0.3,1.1,0.5,1.2,0.7c0.9,0.4,1.6,0.7,2.4,1.2h-0.2c0.2,0,0.1,0.1,0.2,0.2c-0.1-0.2,0.3,0,0.4,0c0.3,0.3,0.9,0.5,1.2,0.6
								v0.1c0.4,0,0.7,0.4,1.1,0.7c0,0.1,0,0.2,0.2,0.3c0.3,0,0.4,0.1,0.8,0.2c0.2,0.2,0.6,0.4,0.8,0.6c1,0.3,1.9,1,2.9,1.5v0.1
								c1,0.3,2,1.2,2.9,1.6L43,21.2c0.2,0.2,0.6,0.3,0.6,0.1c0.2,0.2,0.7,0.3,0.7,0.5c0.2,0.2,0.3,0.1,0.6,0.2
								c0.5,0.4,0.7,0.5,1.1,0.7l-0.1-0.1c-0.1,0-0.1,0.1,0,0.2c0.2,0,0.6,0.4,0.6,0.1c0.2,0.2,0.7,0.4,0.9,0.5h0.1h0.1
								c0.3,0.2,0.5,0.4,0.7,0.7c0-0.1,0.2,0.1,0.3,0.2c0.2,0.5,0.2,1.1,0,1.5s-0.5,0.6-0.7,0.8c-0.1,0,0.1-0.2-0.2,0
								c-0.1,0.1,0,0.1-0.1,0.2c-0.7,0.5-1.5,0.7-2.2,1.1c-1.1,0.8-2.4,1.4-3.5,2.1l0,0c-0.3,0.4-1,0.3-1.1,0.8
								c-0.1,0-0.3,0.2-0.3,0.1c-0.2,0.3-0.9,0.4-1.3,0.8c0,0,0.1,0,0.1-0.1c-0.5,0.2-0.8,0.5-1.3,0.7c0,0,0.1-0.1,0.1-0.2
								c-0.2,0-0.3,0.4-0.5,0.3c-0.1,0.1,0,0.1,0,0.1c-0.2,0.1-0.4,0.2-0.5,0.3l0.2-0.2c-0.3,0.4-0.8,0.6-1.2,0.6
								c-0.3,0-0.7,0-0.9,0c-0.6-0.1-1.1-0.2-1.6-0.4c-0.8-0.5,0.1-0.4-0.6-0.5c0-0.1-0.1,0.1-0.1,0c-0.3,0-0.3-0.4-0.5-0.4
								c0,0.2-0.2,0-0.2,0.1c-0.5-0.3-0.5-0.5-0.9-0.5h0.1c-0.5,0-1-0.4-1.5-0.3c-2.5-1.2-4.8-2.4-7.1-3.8c-2.2-1.4-4.5-2.7-6.6-4.2
								c-0.4-0.5-0.5-0.5-1.1-0.8h0.1c-0.1,0.1-0.4-0.2-0.5-0.1c-0.8-0.5-1.6-1-2.5-1.4c0.1,0,0.3,0,0.1-0.1h-0.2l0,0
								c-0.1,0-0.3,0-0.2,0.1c-0.1,0-0.2-0.1-0.3-0.1l-0.2-0.1l-0.2-0.1c-0.3-0.2-0.5-0.3-0.6-0.5c-0.2-0.2-0.4-0.4-0.5-0.8
								c-0.3-0.6,0-1.5,0.3-1.8c0.3-0.4,0.8-0.7,1-0.8l0.8-0.4c1-0.5,2-1,3-1.6c0.5-0.2,1.2-0.7,1.8-1.1c1.8-0.8,3.3-1.5,4.9-2.6
								C21.1,10.8,21.1,11.3,20.4,11.8z"/>
							<path class="st1" d="M21.9,10.9c0.1,0,0.3,0.1,0.2,0.2C22,11,21.9,11,21.9,10.9z"/>
							<path class="st1" d="M27.2,13.5C27.2,13.5,27.3,13.6,27.2,13.5C27.2,13.6,27.1,13.6,27.2,13.5C27.2,13.6,27.2,13.5,27.2,13.5
								z"/>
							<path class="st1" d="M28.5,14.2c0,0-0.4,0-0.5-0.1L28.5,14.2z"/>
							<path class="st1" d="M29.6,15.2C29.7,15.3,29.6,15.3,29.6,15.2L29.6,15.2z"/>
							<path class="st1" d="M29.8,15.1c0.1,0,0.1,0.1,0.2,0.2C29.9,15.2,29.7,15.2,29.8,15.1z"/>
							<path class="st1" d="M32.3,16.7c0.1,0,0.2,0.1,0.3,0.2C32.5,16.8,32.2,16.8,32.3,16.7z"/>
							<path class="st1" d="M33.6,17.4L33.6,17.4C33.7,17.5,33.6,17.5,33.6,17.4L33.6,17.4z"/>
							<polygon class="st1" points="38.4,29.9 38.5,29.8 38.5,29.9 							"/>
							<path class="st1" d="M28.7,29.2C28.5,29.2,28.6,29.1,28.7,29.2C28.7,29.1,28.5,29.1,28.7,29.2z"/>
							<polygon class="st1" points="23.2,26.5 23.3,26.5 23.2,26.7 							"/>
						</g>
					</g>
				</g>
			</g>
		</g>
		<g>
			<path class="st4" d="M18.5,14.1c3-0.5-2.9,2.8-3.1,2.2C14.6,15.8,18.5,14.3,18.5,14.1z"/>
			<g>
				<g>
					<g>
						<g>
							<path class="st1" d="M18.5,13.8C18.5,13.8,18.5,13.9,18.5,13.8C18.5,13.8,18.5,13.7,18.5,13.8z"/>
							<path class="st1" d="M18.3,14c0.1,0.4-0.2,0.1-0.2,0.4c0,0-0.1-0.2-0.1-0.1c0,0.3-0.2,0.3-0.5,0.1v-0.1v0.2c0,0,0,0,0-0.1
								c0,0.1,0,0.1,0,0.2c0,0-0.1-0.1-0.1-0.2v0.1c0.1,0.3-0.1,0-0.1,0.2c0,0,0,0,0-0.1c0,0.2-0.1,0.3-0.2,0.4c0,0,0-0.1-0.1-0.2
								c0.1,0.1,0,0.2,0,0.2c-0.1-0.1,0,0.1,0,0.1l0,0c0,0.2-0.1-0.1,0,0.1l-0.1-0.1c0.1,0.2-0.1-0.1,0,0l0,0l0,0l0,0
								c0,0.1-0.1,0,0,0.1c-0.1-0.1,0-0.1-0.1-0.2c0,0.2-0.2,0.3-0.3,0.3l-0.1-0.1c0,0,0,0,0,0.1c0,0,0-0.1-0.1-0.1
								c0,0,0.1,0.2,0,0.1c0,0,0-0.1-0.1-0.1c0,0.1,0,0.1,0,0.2c0,0,0,0,0-0.1c0,0.1-0.1,0,0,0.1v-0.1c-0.1-0.1,0.1,0.2,0,0.1v-0.1
								c0.1,0.2,0,0.2,0,0.2l0,0c0,0-0.1,0-0.1,0.1c0,0-0.1-0.2-0.1-0.1c0.1,0.2,0,0.1,0.1,0.3H16c0-0.1-0.2-0.2-0.1-0.2l-0.1-0.1
								c0-0.1,0,0,0-0.1v0.1c0,0.1,0.2,0.3,0.2,0.3c0-0.1-0.2-0.1-0.2-0.2c0.1,0.1,0.1,0.2,0.2,0.3c0,0-0.1-0.1-0.1,0
								c0,0,0.1,0,0.1,0.1c0,0,0,0-0.1,0s0,0-0.1-0.1c0,0,0,0,0,0.1l0,0l0,0l0,0l0,0h-0.1l0,0c0,0,0,0,0.1-0.1l0,0
								c0,0,0.1-0.1,0.1-0.2L15.8,16l0,0l0,0c0-0.1,0-0.1,0-0.1s0,0,0-0.1l0,0v-0.1l0,0l0,0v-0.2v0.1c0,0.1,0,0,0,0.1
								c0-0.1,0,0.1,0,0c0,0.1,0-0.2,0,0c0,0,0-0.1,0,0v0.2c0,0,0,0,0-0.1l0,0c0-0.1,0,0,0-0.1c0,0.1,0-0.1,0.1,0.1v0.1v-0.2
								c0,0,0,0,0,0.1c-0.1-0.2,0,0,0-0.2c0,0.1,0.1,0,0.1,0.1c0-0.1,0-0.2,0-0.1c0,0,0,0,0,0.1l0,0c0,0,0.1,0.1,0.1,0.2
								c0-0.1-0.1-0.2-0.1-0.3c0.1,0.2,0-0.2,0.1,0c0,0,0,0.1,0,0.2c0.1,0.2,0-0.2,0-0.1L16,15.5c0.1,0.1,0-0.1,0.1,0
								c0-0.1,0.1,0,0-0.1c0.1,0.1,0.1-0.1,0.3,0.1c0,0,0,0,0-0.1s0,0.1,0,0c0,0,0,0,0-0.1c0,0,0,0,0.1,0.2c0.1,0.1-0.1-0.3,0-0.3
								c0,0.1,0,0.1,0,0.1v-0.1c0,0,0.1,0.1,0.2,0.3c0,0,0,0,0-0.1l0.1,0.1c-0.1-0.1,0-0.1,0-0.1l0,0l0,0c0-0.1-0.1-0.1-0.1-0.1
								s0,0,0-0.1c0,0.1,0.1,0.1,0.1,0.1v-0.1c0,0.1,0,0,0.1,0.1l0,0c0,0,0.1,0.1,0.1,0s-0.1-0.2,0-0.2v0.1h0.1v-0.1l0,0
								c0-0.1,0,0,0-0.2c0,0,0.1,0,0.1,0.1l0,0c0,0,0,0,0-0.1l0,0c0,0,0,0,0-0.1c0.1,0.1,0.2,0.4,0.2,0.2c0,0-0.1-0.2-0.1-0.3
								c0.1,0,0-0.1,0.2,0v-0.1c0.1,0,0.1-0.2,0.2,0c0,0,0,0.1,0.1,0.2c0-0.1,0.1,0.1,0-0.1c0-0.1-0.1-0.1-0.1-0.2
								c0-0.1,0.1-0.1,0.1,0v-0.1c0.1,0.1,0.1,0.2,0.1,0.1v-0.1l0.1,0.1c0,0-0.1-0.2,0-0.1c0,0,0,0.1,0.1,0.1c0-0.1-0.1-0.2,0-0.2
								l0.1,0.1c0,0,0-0.1-0.1-0.1c0.1,0,0.1,0,0.2,0.2c-0.1-0.3,0-0.4,0.1-0.4v0.1c0.1,0-0.1-0.1,0-0.1c0,0.1,0.1,0.1,0.1,0.2
								c0.1,0,0-0.1,0-0.2c0-0.1,0,0.1,0,0c0,0,0.1,0,0-0.1c0,0,0.1,0.1,0.1,0.2v-0.1c0.1,0.1,0.1,0.3,0.3,0.4l0,0
								c0.1,0.1,0,0.2,0.1,0.2c0-0.1-0.1-0.3-0.2-0.3c0-0.1-0.2-0.3-0.1-0.3c0.1,0.1,0,0,0.1,0.1s0-0.1,0,0L18.7,14
								c0.1,0,0.1,0.1,0.1,0.1c0-0.1-0.1-0.1-0.1-0.2c-0.1-0.2,0.1,0,0-0.1c0.1,0.1,0.2,0.3,0.2,0.3c-0.1-0.1-0.1-0.2-0.2-0.3
								c0,0,0.1,0.1,0.1,0.2c0.1,0-0.1-0.2,0,0l-0.1-0.1c0,0,0,0,0.1,0.1c0,0-0.1-0.2,0,0C18.4,14.2,18.4,14.2,18.3,14
								C18.3,14,18.4,14.2,18.3,14C18.4,14.1,18.3,14,18.3,14L18.3,14L18.3,14L18.3,14L18.3,14C18.2,13.8,18.4,14.1,18.3,14L18.3,14
								c0.1,0.1,0.2,0.2,0.2,0.1c-0.1-0.1-0.1-0.2-0.2-0.3c0,0,0.1,0.1,0,0V14c0.1,0,0.2,0.1,0.2,0.1C18.5,14,18.4,13.9,18.3,14
								C18.4,13.9,18.4,13.9,18.3,14c0.1,0,0-0.1,0-0.2c0.1,0,0.1,0.1,0.2,0.2l0.1,0.2l0,0c0.1,0.1,0.1,0.1,0.2,0.2c0,0,0,0,0-0.1
								c-0.2-0.2-0.2-0.3-0.3-0.4c0-0.1,0.4,0.4,0.2,0.1c0,0-0.2-0.2-0.1-0.1c0,0-0.1-0.2-0.1-0.1c0.1,0.1,0.2,0.2,0.3,0.3l0,0
								c0.1,0,0.2,0.2,0.2,0.1c0,0,0,0-0.1-0.1s0,0-0.1-0.1c0,0,0.1,0.1,0-0.1c0,0-0.1-0.1-0.2-0.1l0,0l0.1,0.1l0,0l0,0
								c0,0,0,0,0.1,0.1l0.1,0.1l0,0l0,0c0,0,0,0,0.1,0.1c0,0-0.1-0.1,0,0l0,0c0,0,0.3,0.2,0.1,0.1c0.1,0,0,0,0,0
								c0.2,0.1,0.2,0.1,0.3,0.2h0.1l0,0c-0.1,0-0.2-0.1-0.3-0.1l0,0c0,0,0,0,0.1,0.1c0,0,0.2,0.1,0.3,0.2l0,0
								c-0.1-0.1-0.1-0.1-0.2-0.1c0,0.1,0.3,0.1,0.3,0.1l0,0c0.1,0,0.1,0,0,0.1c0-0.1,0,0.1,0,0.1c0-0.1,0-0.1,0-0.1l0,0v0.1
								c0-0.1,0,0,0,0s0,0.1,0,0s0-0.1,0-0.1c0,0.1-0.1,0.2-0.1,0.2c0-0.2-0.1,0-0.1,0c0-0.1,0-0.3,0-0.3s0,0.2,0,0.1l0,0
								c0,0-0.1-0.1-0.1,0.1v-0.2l0,0c0-0.1,0-0.1,0-0.2c0-0.1,0,0-0.1,0v0.1c0,0.1-0.1,0-0.1,0v-0.1v0.1c0-0.1,0-0.2,0-0.1v-0.3
								c0,0.1,0,0.1,0,0.2c0,0.1,0.1,0.1,0,0c0,0,0,0,0,0.1c0-0.2,0-0.2,0-0.3l0,0c0-0.1,0-0.1,0-0.1c0,0.1,0,0.1,0,0.1
								c0-0.1,0-0.2,0-0.2c0,0.2,0.1-0.1,0.1-0.1c0,0.1,0,0.3,0,0.3c0,0.1,0,0,0,0.1c0-0.1,0-0.3,0-0.3v0.1c0,0,0-0.2,0.1-0.2
								s0.2,0,0.2,0.1v0.1c0.1-0.2,0.2,0,0.3-0.1c0,0.1,0.2,0.3,0.2,0.3c0,0.1,0,0.2-0.1,0.2c0,0.2,0,0.4-0.2,0.4l-0.1-0.1
								c0.1,0.1-0.1,0-0.1,0c0.1,0.1,0.1,0.1,0.1,0.2c-0.1,0-0.1,0.1-0.1,0.2l-0.1-0.1c0.1,0.2-0.1,0.1-0.1,0.1l-0.1-0.1
								c0.1,0.2,0,0.2,0.1,0.3c0,0-0.1,0-0.2,0c0,0.3-0.2,0.2-0.2,0.4l-0.1-0.1c0,0.3-0.2,0.2-0.2,0.3l-0.1-0.2c-0.1,0,0,0.1,0,0.2
								c-0.1,0,0,0.1-0.1,0v0.1c-0.1,0-0.1,0-0.2,0.1l0,0l-0.1-0.1c0,0.1-0.1,0,0,0.2c-0.1-0.1-0.1,0.2-0.2,0c0,0.1,0,0.1,0,0.1
								s-0.2-0.1-0.2,0.1c0,0,0-0.1-0.1-0.1v0.1c0,0.2-0.2,0-0.3,0c-0.1,0.2-0.3,0.2-0.4,0.3l0,0c0,0.2-0.2-0.1-0.1,0.2
								c0,0,0,0-0.1-0.1c0,0.1-0.2-0.1-0.2,0.1l0,0c-0.1-0.1-0.1,0.1-0.2,0c0,0,0,0,0-0.1c-0.1-0.1,0,0.2-0.1,0V17
								c-0.2,0-0.3,0.2-0.4,0.3c-0.2-0.1-0.1-0.4-0.2-0.2c0,0,0,0.1,0,0c0,0.1-0.1-0.3-0.1-0.1c0,0.1,0,0.1,0,0.2
								c-0.1-0.1-0.2-0.2-0.3-0.1V17c-0.1,0.1-0.2,0.1-0.3,0c-0.1,0-0.3-0.2-0.4-0.4l0.3,0.4c-0.1,0-0.1,0-0.2,0
								c-0.1,0-0.3-0.3-0.4-0.5c-0.1-0.3,0-0.5,0-0.7c0.1-0.3,0.2-0.4,0.3-0.5c0.2-0.2,0.3-0.3,0.4-0.5c0.3-0.2,0.5-0.4,0.9-0.4
								c0.2,0.1,0.2,0.1,0.2,0c0,0,0,0,0,0.1c-0.1-0.2,0,0,0-0.2c0.1,0,0.2-0.1,0.3-0.2c0,0,0,0.2,0.1,0.1v-0.1l0,0
								c0,0,0-0.1-0.1-0.2c0.2-0.3,0.6-0.1,0.8-0.3c0.1,0,0.1-0.1,0.2-0.1s0.3,0.1,0.4,0.1h0.1l0,0l0,0l0,0l0.1,0.1
								c0.1,0.2,0.3,0.4,0.4,0.4C18.4,14.1,18.4,14.1,18.3,14C18.4,14,18.4,13.9,18.3,14C18.3,13.9,18.2,13.8,18.3,14L18.3,14z"/>
							<path class="st1" d="M18.6,13.8c0,0.1,0,0.1,0,0.2C18.6,13.9,18.6,13.8,18.6,13.8z"/>
							<path class="st1" d="M19.1,14.4L19.1,14.4C19.2,14.4,19.1,14.4,19.1,14.4L19.1,14.4z"/>
							<path class="st1" d="M19.3,14.1L19.3,14.1C19.2,14.1,19.3,14.1,19.3,14.1z"/>
							<path class="st1" d="M18.8,14C18.8,13.9,18.8,14,18.8,14C18.9,14,18.9,14,18.8,14z"/>
							<path class="st1" d="M18.8,13.9L18.8,13.9C18.8,13.9,18.7,13.9,18.8,13.9z"/>
							<path class="st1" d="M18.4,13.8C18.4,13.8,18.5,13.9,18.4,13.8C18.5,13.9,18.4,13.7,18.4,13.8z"/>
							<path class="st1" d="M18.4,14L18.4,14C18.4,14,18.4,13.9,18.4,14L18.4,14z"/>
							<polygon class="st1" points="16.3,15.5 16.3,15.5 16.3,15.6 							"/>
							<path class="st1" d="M15.5,16.1L15.5,16.1L15.5,16.1z"/>
							<polygon class="st1" points="15.9,15.8 15.9,15.8 15.8,15.7 							"/>
						</g>
					</g>
				</g>
			</g>
		</g>
	</g>
</g>
</svg>
