<svg xmlns="http://www.w3.org/2000/svg" viewBox="0 0 53.8 67.3"><style><![CDATA[.I{fill:#202020}.J{fill:#18222b}]]></style><path d="M29.7 38.8l10.5 6.1-17 9.9-10.6-6.1z" fill="#51708f"/><g class="I"><path d="M30 38.7c-.2-.1 0 .2-.2 0 .1-.1.1-.1.2 0z"/><path d="M28.9 39.1c-.5.7-1.5.9-2.1 1.5-.1.1-.1-.2-.3 0-.5.7-1.7 1.1-2.7 1.4v-.1c-.2.1-.3.3-.5.4v-.1c0 .1-.3.2-.3.3-.1 0-.1-.1-.2-.1v.2c-.1.4-.7.4-1 .7v-.1c-.5.5-1.3.9-1.9 1.3 0-.1 0-.2-.1-.2 0 .1-.1.3-.3.4-.1-.1-.2.3-.5.3-.1.2-.3.1-.3.3h-.2c0 .2-.3 0-.4.2-.1.1-.2.1-.3.2-.2.2-.4.2-.4.3-.2-.1.2-.2 0-.3-.8.6-1.7 1.1-2.5 1.6h-.3c-.1.1-.3.2-.4.3h-.1c-.2 0-.1.2-.3.3 0-.1 0-.1-.1-.2-.1.2-.3.3-.4.4 0 0 0-.1-.1-.1 0 .2-.4.2-.4.3l-.1-.1c-.5.1.2.1-.1.2h-.1v.1c.3.1.4.2.6.3H13c.2.1.4.3.7.3.1.1-.2.1.1.3.1-.2.5.2.4-.1.2.2.5.4.7.4-.1 0 0 .3-.2.2l.1.2c-.1 0-.1-.1-.1 0 .1 0 .4.1.4.2.2 0 .5-.1.8 0-.2 0 0 .2-.1.2l.5-.1c.1 0 0 .1.1.2h.1s.4.2.3.3c0 .1-.2 0-.1.1.2.1.2 0 .4.1.1.1.4.1.3 0-.1 0 0 .1-.1 0 .1 0 .3 0 .5.1-.1 0-.1 0-.1.1.3 0 .5.1.8.2 0-.1-.2.1-.2 0 .3.3.7.2.9.5v-.1c.1.1.1.2.2.2 0 .1.1 0 .3.1.1 0 0 0-.1 0 .2 0 .8.3 1.1.5h.4l.2.3c0 .1.3.1.2.2.2 0-.7-.3-.4-.2 0 .1.4 0 .3.1.1.1.4.1.5.2 0 0-.2.1-.1.1.2.1.1 0 .3.1h.1c.1-.1.2.1.2 0 0 .1.3.1.2.3l-.1.1c.1 0 .2 0 .3-.1v.1c.1-.1.1 0 .2 0 0 0 .1.1.1 0 0 .1.1.1.1.1h.1c.1-.1 0-.2.3-.3 0 0-.1.1 0 .1s.1-.1.2-.2h.4c.1-.1 0-.2 0-.3.3.1.4-.4.6-.3 0 .1-.2.2 0 .2.3.1.2-.3.5-.3l-.1-.1c.1 0 .3-.3.3-.1 0-.1.3-.1.2-.2.4-.1.8-.6 1.2-.4 0-.1.2-.1.1-.2-.1 0-.1.1-.1.1v-.1c.1 0 .2-.1.2.1.3 0 .1-.4.5-.5 0 .1.1.1.1 0l.1-.2c.2-.1.2.1.3.2.1-.1.2-.2.2-.3l.2.1c-.1 0 0-.1.1-.2v.1l.2-.1c0-.1-.2 0-.3 0 0-.1.1-.1.2-.2 0 .1.2 0 .3-.1.1 0 .1-.2.1-.2s.2-.1.1 0c0 0-.1 0-.1.1.1 0 .1.1.2 0s-.1-.2.1-.2v.2h.2v-.1c0-.1.3-.2.2-.3.1-.1.2 0 .3-.1.1 0 .3-.1.3-.2.1 0 .2-.1.2-.2.2 0 .3.3.4.1.1-.1.1-.3 0-.3.3-.1.5-.4.9-.4v-.1c.4-.2.8-.6 1.2-.6-.1.1 0 .1.1.2 0-.1.2 0 .1-.1s-.1-.1-.2-.1c.2-.2.6-.4.8-.4-.1 0 0-.1 0-.1.1.2.3.1.3-.1v-.1h.1c0-.1 0-.2.1-.2 0 0 0 .1.1.1.1-.2.2-.4.4-.4h.2c.1 0 .1-.2 0-.2.3-.1.5-.2.6-.1.3-.5.9-.9 1.4-1.2v.1c.2 0 0-.2.1-.2 0 .1.2.1.1.2.2 0 .2-.3.3-.4 0-.1-.1.1-.1 0 0 0 .3-.1.3-.2.1 0 .1.1.1.2l.1-.1c.2.1-.2.5.1.5l.1-.1c.2.1-.2.3.1.2.1-.1.1-.4-.1-.4.2-.2 0-.4.1-.4s-.1.1 0 .2c.1 0 .1-.1.2-.1-.1 0-.2-.1-.2-.2.1 0 .1.1.2.1-.1-.1-.1-.1-.2-.1-.2-.1.1 0-.1-.1.2 0 .3.2.5.1-.2 0-.2-.1-.5-.1h.3c.2 0-.3-.1.1-.1h-.2.3s-.4 0-.1-.1h-.3c-.1 0 .2 0-.1 0 .2 0-.1 0-.2 0h.1-.3c-.1 0 .2-.1.2-.1h.1s.1-.1 0-.1c-.1.1-.2.1-.3.2 0 0 .1-.1 0 0l.1-.1s.1-.1 0-.2c-.1 0-.3 0-.2.2-.1 0-.2-.2 0-.2-.2-.1 0 .1-.2.1 0-.1-.2-.3-.2-.5l.3-.1h.1c.2 0 0-.1.1-.2-.1-.1-.2-.1-.3-.1.1.3-.4.2-.5.4-.3-.1.1-.6-.4-.4 0 .1-.2.1 0 .2-.2-.1-.2.1-.4-.1.2 0 0-.3.2-.3l.1.1c0-.1.1-.2 0-.3-.1 0-.3-.1-.3 0-.1.1.2.1 0 .2-.2-.1-.2-.3-.4-.1.2.1.1.2.1.3h-.1c-.2-.2-.2.1-.4-.1v-.2c.1-.1.3.3.4 0-.2-.1-.3 0-.4-.2h.1s0-.3-.3-.3c-.2 0-.1 0-.1.1-.3-.1-.4-.1-.6-.2.1-.1-.3-.2 0-.2 0 .1.4.3.6.3 0-.2.2.1.3 0-.2-.1-.1-.3-.1-.4h-.2c-.1.1 0 .1-.1.3-.2-.2-.5-.2-.7-.2 0-.1 0-.2.1-.2-.3-.1-.6-.3-.8-.5.1.3-.3-.1-.3.1.1.1.2.3 0 .3-.1-.1 0-.1 0-.1-.2 0-.1-.3-.3-.2.3.1.2-.2.3-.3-.2 0 .1-.1-.1-.2-.2 0-.5-.1-.7-.2-.2-.3-.6-.4-.9-.5-.1-.1.1-.2 0-.3s0 .2-.2 0c-.1 0-.4-.3-.5-.2l.2-.1H31s0-.1.1-.1c-.1-.2-.3-.2-.5-.2v.2c-.3-.1-.4-.3-.7-.4l.1-.1h-.2c.1-.1 0-.2-.1-.2h.5c.1.1-.2 0-.2.2 0 .1.3.2.4.2-.1-.1-.1 0-.2 0 0-.2.2-.1.3-.1l-.1-.1c.1 0 .2 0 .4.1-.1 0 0 .1 0 .1.1-.1.3-.1.4.1s.4.1.6.3c-.2.1-.3.1-.5.1.1.1.1.1.3.2.1 0 .2-.2.5-.1v.1c.2 0 .3-.1.5.1.3.3.7.5 1 .6v.1c.3-.1.5.2.8.3.3.3.8.3.9.6.6.3 1.2.5 1.8.9l-.2.1c.2 0 0 .1.2.2-.1-.2.2 0 .3-.1.2.3.6.4.9.4v.1c.2 0 .3.1.5.2.2.2.4.3.6.5 0 .1 0 .2.1.2.4 0 .5.1 1.1.3.2.1.5.3.6.4 0-.5-.1-.4-.2-.4-.5.6-2.2 1.4-2.6 1.8l-.1-.1c-.6.6-1.5.9-2 1.3v-.2c-.2 0-.4.3-.3.4-.2 0-.4.3-.6.3-.2.1-.2.2-.3.3l-.9.5h.1c0-.1 0-.1-.1-.1-.1.1-.5.2-.3.4-.5.1-.8.6-1.3.7.1 0 0 .1 0 .2-.3.2-.8.3-1 .5-.1 0 0-.2-.1-.1s0 .1 0 .2c-.5.4-1.1.5-1.6.8-.8.6-1.7 1.1-2.6 1.6-.2.3-.8.2-.8.6-.1 0-.3.1-.3 0-.2.2-.7.3-.9.6l.1-.1c-.4.1-.6.4-1 .5l.1-.1c-.1 0-.1.1-.2.2s-.2.2-.3.1c-.1.1 0 .2 0 .1-.2.1-.4.2-.7.3-.3-.2-.5-.3-.8-.4s-.4-.2-.5-.3c-.3-.2-.7-.3-1-.5-.5-.4.2-.4-.4-.5 0-.1-.1.1 0 0-.2 0-.1-.4-.3-.3 0 .2-.1 0-.2.1-.3-.3-.3-.4-.6-.5h.1c-.4 0-.7-.3-1.1-.3l-3.9-2.1-.7-.4-1.3-.7-1.8-1.1 3.6-2.1 2.1-1.1c.5-.1.5-.1.9-.4v.1c-.1-.2.3-.2.3-.3.6-.3 1.2-.7 1.9-1.1-.1.1-.1.2 0 .1l.1-.2c.1-.1.1-.2 0-.2 1.6-1.1 3.3-1.7 4.9-2.7a9.13 9.13 0 0 0 1.3-.8c1.3-.5 2.5-1 3.7-1.8-.3 0-.2.5-.7.9z"/><path d="M30.2 38.8c0 .1.1.2 0 .3 0-.1-.1-.2 0-.3zm3.4 2.9s0 .1 0 0c0 .1-.1.1 0 0-.1.1-.1 0 0 0zm.9.6c0 .1-.3 0-.4-.1l.4.1zm.8.8c0 .1 0 .1 0 0-.1 0-.1 0 0 0zm.1-.1c.1 0 .1.1.1.2 0-.1-.2-.1-.1-.2zm1.9 1.3s.2 0 .2.1c-.1-.1-.3 0-.2-.1zm.9.4c0 .1-.1.1 0 0zM25 53.1l.1-.1v.1zm-6.7-1.8c-.1 0 0-.1 0-.1s-.2 0 0 .1zm-4.1-1.9l-.1.1z"/></g><path d="M23.2 55.6l-10.6-6.1v-.8l10.6 6.1z" class="J"/><g class="I"><path d="M23 55.8c.1.1 0-.1 0 0s0 .1 0 0zm.4-.5c-.2-.2-.2-.3-.2-.5-.1-.1-.3-.2-.5-.2 0 0 .1-.2 0-.2-.4.1-.8-.3-1-.7 0-.1-.2 0-.3 0l.1-.1c-.1.1-.1 0-.2 0v-.2l-.1.1c-.3.2-.3-.2-.5-.1v-.1c-.3 0-.6-.2-.9-.3 0 0 .1-.1.1-.2-.1.1-.2.1-.3.1 0-.2-.2 0-.2-.1-.1.1 0-.1-.2 0v-.1c-.1.2 0-.1-.1-.1s0-.1-.1-.1-.1-.2-.2 0c0-.1.1 0 .2-.2-.4-.1-.8-.3-1.1-.5v-.2h-.2v-.1c0-.1-.2.1-.2 0l.1-.1c-.1.1-.2 0-.3 0l.1-.1c-.1.1-.1-.1-.2-.1l.1-.1c0-.2-.1.2-.2 0l.1-.1c-.2.1-.3 0-.4 0s-.2-.1-.3-.1c0-.1.1-.2 0-.2-.1.2-.2 0-.3.2-.1-.1-.2-.2-.3-.2.1 0 .1-.2.1-.2v-.1c0-.1 0 0 .1 0 0 0-.2 0-.2-.1a.76.76 0 0 1-.4.2c.1 0 .1-.2.1-.2l-.3.2s.1-.1 0-.1l-.1.1s-.2 0-.1-.2c0-.1.1 0 .1-.1H15s-.2 0-.2.1c0 0 0-.1.1 0-.1.1-.2 0-.2 0l.1-.1c-.2.1-.3.1-.4 0-.1.1.1-.1.1-.1-.1-.2-.4 0-.4-.2 0 0-.1.1 0 .1-.1 0 0-.2-.1-.1 0-.1-.1 0-.1 0-.1 0 0 0 .1 0-.1 0-.4 0-.5-.2l-.2.1.1-.1c0-.1-.1 0-.1-.1-.1.1.3 0 .2.1 0-.1-.2.1-.1 0-.1 0-.2 0-.2-.1l.1-.1h-.2c-.1.1-.1-.1-.1.1 0-.1-.2 0-.1-.2l.1-.1s-.1.1-.2.1v-.1c-.1.2-.1-.1-.2 0 0-.1-.1-.1-.1-.1l.9-.5s0 .1-.1.1c.1.1.1.1.1.2h-.1c-.1 0 0 0 0 0s-.1.1-.2.1h.3c-.2.1.1 0 0 .1 0 0-.1 0-.1.1h-.1c-.1.1.3-.1.2 0l.1-.1c-.1.1.1 0 0 .1.1 0 0 .1.1-.1-.1.1.3.1.2.4h.1c0-.1-.1 0-.1 0h.1c0 .1.1.1-.1.2.1.2.3-.2.4-.1 0 .1-.1.1 0 .1l.1-.1c.1.1 0 .2-.1.3h.2v.2c0-.1.1 0 .1-.1h.1v-.2h.1c-.1.1 0 .1.1.2l.1-.1c0 .1.1 0 0 .1 0 0 0-.1-.1 0 0 .1-.1.2 0 .1.1 0 .1-.2.1-.1 0 0-.1 0-.1.1v.1l.1-.1c.1-.1.1 0 .2-.1 0 0 0 .1.1.1 0 .1.1.1.2 0h.1c0 .1-.2.4-.1.3.1 0 .2-.1.2-.2.1.1.3 0 .3.3 0 0 0-.1.1-.1.1.1.4.1.4.3-.1 0-.1.1-.1.2.1-.1 0 .1.1 0 0-.1.1-.1 0-.2.1 0 .3.1.3.2 0-.1 0-.1.1-.1-.1.1 0 .2 0 .2l.1-.1v.1s.1-.2.1 0v.1c.1 0 .2-.1.3 0v.2s.1 0 .1-.1c.1.1.1.2.1.3.3-.2.6 0 .8.1v.1c0 .1.1-.1.1 0 0 0 0 .2-.1.2 0 .1.2 0 .2 0 .1-.1-.1 0 0-.1 0 0 .1.1.2 0 0 .1-.1.1-.1.2h.1c0 .2-.3.2-.3.4h.1c0 .2-.2.1-.1.2.1 0 .2-.2.2-.3.1 0 .2-.3.3-.2 0 .1-.1 0-.1.1s.1 0 .2.1c0-.1.1-.2.1-.2 0 .1-.1.1 0 .2.1-.1.2-.1.1-.2.1-.2.1.1.2 0 0 .1-.2.2-.2.3 0-.1.2-.1.2-.3 0 0 0 .1-.1.2 0 .1.2-.1.1.1l.1-.1v.2s.2-.1.1.1c0 0 .1 0 .1-.1s-.1 0-.1-.1c0 .2.1 0 .2 0v.1h.1s-.1.1 0 .1l.1-.1c.1 0-.1.2 0 .2h-.1v.1l.2-.2c.1 0 0 .1.1 0l-.1.1v.2c.1 0 .2-.1.2-.2v.2c.1 0 0-.1.1-.1v.3H20c-.1.1 0 .1-.1.2h.1c0-.3.3-.2.4-.4.1 0-.2.5.1.3 0-.1.1-.2 0-.2.1.1.2-.2.2 0-.1 0 0 .2-.2.3v-.1c0 .1-.1.2 0 .2s.1 0 .2-.1-.1 0 0-.1c.1 0 0 .2.2 0-.1 0 0-.1 0-.2h.1v.1c.1.1.1-.1.2 0v.2c-.1.1-.1-.1-.2.1h.1s-.1.3.1.2c.1 0 0-.1.1-.1h.3c-.1.1.1.1 0 .2 0-.1-.1-.2-.3-.1-.1.2-.1-.1-.2.1.1 0 0 .2-.1.3h.1c.1-.1 0-.1.1-.2.1.1.2.1.3 0 0 .1-.1.2-.1.2.1 0 .3.1.3.2 0-.2.1 0 .2-.1 0-.1 0-.2.1-.3v.1c.1-.1 0 .2.1.1-.1 0-.1.2-.2.3.1 0-.1.1 0 .1h.3c0 .2.3.2.4.2 0 .1-.1.2-.1.3.1 0 0-.2.1-.1 0 0 .1.2.3 0l-.4.1h.1s0 .1-.1.1c0 .2.1 0 .2.1v-.1c.1 0 .2.1.3.2l-.1.1h.1c-.1.1 0 .2 0 .1l-.3.1c0-.1.1-.1.1-.2s-.1-.1-.1 0h.1l-.2.2s0 .1 0 0h-.2c.1 0 0-.1.1-.1-.1.1-.1.1-.2 0 0-.2-.2 0-.3-.1.1-.1.2-.2.3-.2 0-.1-.1 0-.1-.1-.1.1-.2.2-.3.2v-.1c-.1 0-.2.1-.2.1-.1-.1-.3-.2-.4-.3v-.1c-.2.2-.2 0-.4 0-.1-.2-.4-.1-.3-.3-.3-.1-.5-.1-.8-.3l.1-.1c-.1.1 0-.1 0-.1 0 .1-.1.1-.2.2-.1-.2-.3-.1-.4-.1v-.1c-.2.1-.2-.1-.4-.2v-.2c-.1.1-.2.1-.3.1s-.2-.2-.2-.3c-.4 0-.6-.3-1-.3v-.1c-.4.1-.6-.3-.9-.4l.1-.2c0-.1-.2 0-.3.1 0-.1-.2 0-.2-.2-.1-.1-.1 0-.2 0-.1-.2-.2-.2-.3-.2l.1-.1c-.1 0-.2-.2-.2.1-.1-.2-.4-.1-.5-.4 0 .1-.1 0-.1.1-.1-.1-.2-.3-.4-.2 0 0 .1-.1 0-.1s0 .1-.1.1c-.3 0-.4-.4-.6-.5-.4-.1-.8-.4-1.1-.5-.1 0-.1 0-.2-.1s-.2-.2-.4-.1c0-.1-.2-.1-.1-.2-.2 0-.3-.2-.4-.3 0-.1 0-.2-.1-.2.1-.3 0-.5.1-.8 0 0 0 .1.1.1.1-.1-.2-.2 0-.3h-.1v-.2l.1-1.2 1 .6c.3.2.6.2.9.3.2.3-.2.3.1.3 0 0 .1-.1 0 0 .1 0 0 .3.1.2s.1 0 .1-.1c.1.2.1.3.2.3h.3c.2-.1.3.1.6-.1.7.4 1.5.7 2.2 1 .7.4 1.4.7 2 1.3.1.3.1.3.3.3v.1c.1-.1.1.1.2-.1.2.2.5.3.8.4l-.1.1.1-.1s.1 0 .1-.1c.7.3 1.2.9 1.9 1.3.1.2.4.2.6.3 0 .1.1.1.2.2s.2.2.3.2c.2.2.3.3.5.4v1.2c-.2.2-.6.2-.7-.1z"/><path d="M22.9 55.8c0-.1 0-.2.1-.2-.1 0-.1.1-.1.2zm-1.1-1.6c-.1 0-.1-.1 0 0 0-.1 0-.1 0 0 0-.1 0-.1 0 0zm-.4-.3c0-.1.2-.1.2 0h-.2zm-.2-.5s0-.1 0 0zm-.2.2v-.1s.1 0 0 .1zm-.6-.7c-.1 0-.1 0 0 0-.1 0 0-.1 0 0zm-.5-.1c0-.1 0-.1 0 0zm-6.7-3.5l.1-.1-.1.1zm1.3 1.1s0 .1 0 0c-.1 0 0 0 0 0zm1.8.6v-.2z"/></g><path d="M23.8 47.3l-.8-.5.3-6.7 3.2-1.8z" class="J"/><g class="I"><path d="M23.7 47.5s0-.1 0 0c0 0 0 .1 0 0zm.4-.4c-.3-.3.2-.5 0-.9 0 0 .2.1.2 0-.2-.3.1-.7.4-.9.1 0-.1-.2-.1-.2h.1c-.1 0 0-.1-.1-.2h.2l-.1-.1c-.3-.2.1-.2 0-.4h.1c-.1-.3 0-.5 0-.8 0 0 .1.1.2.1-.1 0-.1-.1-.1-.2.1 0-.1-.2 0-.2-.1-.1.1-.1 0-.2h.1c-.2-.1.1 0 0-.1 0-.1.1 0 0-.1 0-.1.1-.1 0-.2.1 0 0 .1.2.1-.1-.4 0-.7.1-1h.2s0-.1-.1-.2h.1c.1 0-.1-.1-.1-.2l.1.1c-.1-.1-.1-.2-.1-.2h.1c-.1-.1.1-.1 0-.2h.1c.1-.1-.2-.1-.1-.2h.1c-.1-.1 0-.2-.1-.3 0-.1.1-.2 0-.3 0 0 .2 0 .2-.1-.2 0 0-.1-.3-.1 0-.1.2-.2.1-.2.1 0 .3-.1.3 0l.1-.1c.1 0 0 .1.1 0v-.2h-.4c.1 0 .3-.2.3-.1-.1 0-.3.1-.4.1 0 0 .2-.1.1-.1s-.1 0-.1.1l.3-.3h-.1c0-.1-.1 0-.2.1 0 0 .1-.1.1 0-.1.1-.2.1-.2 0 0 0 .1-.1.2-.1-.2.1-.2.1-.3.2s.2-.2.2-.1c.2-.3-.2.1.1-.2 0 0-.2.2-.1.2 0 0 .2-.3.1-.2.1-.1 0 0-.1 0-.1.1.1-.1.1-.1-.1.1-.2.2-.1 0V39c-.1.1-.3.3-.3.4l.2-.2c.1-.1-.1 0 .1-.2-.2.3.3-.3.1-.1.1-.2-.3.4-.1.1 0 0-.2.3-.1.1l.2-.3-.3.3-.1.2c.1-.2-.1.1.1-.2l.2-.3s-.2.3-.3.4c0 0 0-.1.1-.1-.2.4 0 0-.2.3 0-.1-.1 0 0-.2-.1.1-.1.3-.1.2l.1-.1c0-.1 0 0-.1.1v-.3c-.1.1-.1.3-.1.4.1-.3-.1.2-.1 0l.1-.2c0-.3-.1.3-.1.1v.2c0-.1-.1.2 0-.1v.2c-.1-.1-.1.2-.2-.1v.1c0 .1 0-.1 0 0v.1l-.1-.2c-.1-.1.1.3 0 .3 0-.1 0-.1-.1-.1v.1c-.1 0-.1-.1-.2-.2 0 0-.1.1 0 .2l-.2.2c.1.1 0 .1 0 .1 0 .1.1.1.1.1v.1c-.1-.1-.1 0-.1-.1v.1l-.1-.1s-.1-.1-.1 0 .2.2.1.1c0 0 0-.1-.1-.1h-.1l.2.2h-.1c-.1 0 0 0 0 .1l.1.1c-.1 0-.4-.1-.3 0 0 0 .2.1.3.1-.1 0 .1.1-.1.2h.1c0 .2.1.3-.1.4h-.2c.1 0-.1 0 .1.1h.2v.3h.1c-.2 0-.2 0-.1.1 0 0 .2 0 .1.1h-.1c.1.1.2.1.1.2h-.1s.1.1.1 0c-.1.1-.1.2-.2.2.3.2.3.4.3.6H24c-.1 0 .1 0 .1.1h-.2c-.1.1.1.1.1.2.1 0-.1 0 .1 0 0 0-.1.1.1.1h-.1c-.2 0-.3-.1-.5-.1-.1 0-.2-.1-.2 0 .1 0 .3.1.3.1 0 .1.3.1.3.2-.1 0 0-.1-.1-.1s.1.1 0 .1h.1c.1 0 .1.1.2 0 .2 0-.1.1.1.1-.1 0-.3-.1-.4 0 .1 0 .2.1.4.1h-.2c-.1 0 .2.1 0 .1 0 0 .2.1 0 .1 0 0 0 .1.1.1s-.1-.1.1-.1c-.1 0 0 .1.1.1H24s0 .1.1.1H24h.1c0 .1-.2 0-.2.1l-.1-.1s-.1 0-.1.1c.1 0 .2 0 .3.1 0 0-.1 0 0 .1l-.1-.1s-.2 0-.2.1c0 0 .2.1.3 0 0 0-.1.1-.1 0 0 .1.1 0 .2.1-.1 0-.2.1-.3.1l-.2-.1c-.1-.1-.1 0-.3 0 0 0 0 .1.1.1.3-.1.3.1.5.1 0 .1-.5 0-.2.2h.2c0 .1.2.1.1.1-.1-.1-.2 0-.4 0 .1 0 .1 0 0-.1h-.2s0 .1.1.1 0-.1.1 0c0 .1-.1.1.1.1 0 0 .1-.1.2 0v.1h-.1c-.1.1.1 0 .1.1h-.2c-.1 0 .1-.1-.2-.1 0 .1.1.1 0 .1 0 0-.3 0-.1.1h.2c0 .1.1.1.1.2-.2 0 0 .1-.2 0 .1 0 .1-.2-.1-.2s0-.1-.2-.1c0 .1-.2.1-.3.1l.1.1h.3c0 .1 0 .2.1.2h-.2v.3c.2 0 0 .1.2 0h.2c.1 0-.2 0 0 0h-.4c.1 0-.1 0-.1 0 .1 0 .1.1.2.1-.1.1 0 .2 0 .2 0 .1-.3.2-.2.2 0 0 .1-.1.1 0 0 0 0 .2.2 0l-.2.1h.1l-.1.1c0 .1.1 0 .2.1v-.1c.1 0 .1.1.2.1l-.1.1h.1c-.1.1-.1.2 0 .1l-.3.2c0-.1.1-.1.1-.2s0-.1-.1 0h.1l-.2.2s0 .1 0 0H23c.1 0 0-.1.1-.1-.1.1-.2.1-.2 0 .1-.1-.2 0-.3-.1.2-.1.3-.1.4-.1v-.1c-.1 0-.3.1-.4.1l.1-.1h-.1s-.1 0-.1-.1c.1-.2.1-.4.1-.5h.1c-.2 0-.1-.3-.2-.3.1-.1-.1-.3.1-.3-.1-.2-.1-.4-.1-.7h.1c-.1 0 .1 0 .1-.1-.1 0-.1-.1-.2-.1.1-.1 0-.2-.1-.3h.1c-.2-.1 0-.2 0-.3 0 0 .1 0 .1-.1-.2-.1-.1-.1-.2-.2 0-.1 0-.2.1-.2-.2-.3-.1-.5-.2-.8h.1c-.2-.3 0-.6-.1-.8h.2c.1-.1 0-.2-.2-.2.1-.1-.1-.2.1-.2 0-.1-.1-.1-.1-.2.1-.1.1-.2 0-.3h.1s.1-.2-.2-.1c.1-.1-.1-.3.1-.5h-.1c0-.1.1-.4 0-.6 0 0 .1.1.1 0s-.1 0-.1-.1v-.4c.2-.1.5-.1.6-.2l.3-.3c.1 0 .1-.1.2-.1.2-.1.5-.3.7-.4.1-.3.4 0 .5-.4 0 0 .1-.1.1.1.1-.2.3 0 .5-.4l-.1.1c.1 0 .4-.3.5-.2 0 0-.1.1-.1.2s.3-.4.2-.1l.1-.2c.3-.1.9-.6 1.4-1 .1.1-.6.8-.1.3 0 .1.2-.2.1-.1.1-.1 0 0 0 .1-.1.2-.2.3-.1.2.2-.3.1-.1.3-.3-.2.4-.4.7-.3.6l-.1.1c.3-.2 0 .2.4 0-.3 1-.4 2.1-.7 3.3l-.1.3-.1.2.1.7-.3.9c-.2.1-.2.1-.2.3h-.1c.1 0 0 .1.1.2 0 .2 0 .4-.1.6 0 0-.1-.1-.1 0l.2.2c0 .6-.5 1.1-.6 1.7-.1.1-.1.3-.1.5-.3.4-.6.7-.6 1.2-.2-.1-.6-.3-.6-.5z"/><path d="M23.6 47.5c0-.1 0-.1.1-.2-.1 0-.1.1-.1.2zm-.1-1.3zm.1-.3c.1 0 .1.1.1.1l-.1-.1zm.3-.3zm-.1 0c0-.1 0-.1 0 0 0-.1.1 0 0 0zm.2-.8s-.1 0 0 0c0 0 .1.1 0 0zm-.1-.3c0-.1.1 0 0 0zm.9-4.6v.1-.1zm.6 0c.1 0-.1.1-.1.1l.1-.1zm.2.7h.2z"/></g><path d="M27.7 45.1l-3.9 2.2.4-6.7 3.2-1.8z" fill="#23303e"/><g class="I"><path d="M27.8 45.3s-.1-.1 0 0c0 0 0 .1 0 0z"/><path d="M27.9 44.8c-.4-.2 0-.6-.3-.8 0 0 .2 0 .1-.1-.3-.3-.2-.7 0-1h.1c0-.1-.2-.1-.1-.2h.1c-.1 0-.1-.1-.1-.1s.1 0 .2-.1h-.1c-.3-.1 0-.3-.2-.4h.1c-.2-.2-.2-.5-.3-.8h.2c-.1 0-.2-.1-.2-.2.1 0-.1-.1-.1-.2-.2 0 .1-.1-.1-.1h.1c-.2 0 .1-.1 0-.1v-.1c-.1-.1 0-.2-.1-.1.1-.1.1.1.2 0-.2-.3-.2-.6-.2-.9.1-.1.1-.2.1-.2s0-.1-.1 0c0 0 .1-.1.1-.2s-.2.2-.1 0c0 0 .1-.1.1-.2-.1.1-.1 0-.1 0l.1-.1c-.1.1 0 0 0-.1l-.1.1.1-.2c0-.1-.2.3-.2.3 0-.1.1-.1.1-.2-.2.3-.3.3-.4.4v-.1c-.1.1-.1 0-.2.2 0 0 .1-.3 0-.2 0 .2-.1.2-.1.4 0 0-.1 0-.2.1v-.5s-.1.2-.2.2c0 .2 0 .4-.1.5 0-.1-.1-.2-.1-.2v.4l-.1-.1v.1s-.1.1-.2 0v-.1s0 .1-.1.1c0 0-.1.1 0 .2 0 0-.1-.1 0-.1 0 .1 0 .2-.1.2v-.1c0 .2 0 .3-.1.3 0 .1 0-.2 0-.1-.2 0-.1.3-.3.2l.1.1c-.1 0-.1-.1-.1 0 0-.1 0 0 0 .1s0 0 0 0-.1.1-.1.2c0 0-.1.1-.1 0l.1.2-.1-.1h-.1c.1.1 0-.2.1 0-.1-.1.1.2 0 0 0 0 .1.1-.1.1l-.1-.1.2.2c-.1 0 0 .1-.1 0l-.2-.3s.1.1.2.1h-.1c.2.1 0 0 .1.1-.1 0 0 .1-.1.2.1.1.1.1.1.2h-.1c-.1 0 0 0 0 .1 0 0-.1.1-.2.1.1.1.2 0 .3.1-.2 0 .1.2-.1.2 0 0-.1-.1-.2 0-.2 0 .2.1 0 .2h.2c-.1 0 .1.1-.1.1.1 0-.1.1.1.1-.2.1.1.3-.3.4 0 0 0 .1.1.1s-.1 0 0-.1h.1s-.1.1-.2 0c-.1.1.3.1.2.2h-.1l.1.1c0 .1-.2 0-.3 0 0 0 0 .1.1.1h-.2c.1 0 .1 0 .1.1v.1c.1 0 .1 0 .1-.1 0 0 0 .1.1.1-.1 0-.1.1-.1.1s.1 0 .1.1c-.1 0 0 .1-.1 0 0 0-.2 0-.1.1.1 0 .2 0 .2.1h-.1l-.1.1h.1c.1 0 0 .1.2.1l-.1.1c-.1 0 0 .1 0 .1s0 .1.1.1c-.1 0-.4 0-.3.1 0 .1.2.1.3.1-.1.1.1.2-.1.3h.1c0 .2.1.3-.1.4h-.2c.1 0-.1 0 .1.1h.2v.2h-.1.1c-.2 0-.2 0-.1.1h.1l-.1.1s.1 0 .1-.1l-.2.2.3-.1-.1.1c-.1.1.1-.2.1-.1l-.3.3c-.1.1.1-.1.2-.2s-.1.1.1-.1c0 0-.1.1.1-.1-.1.1-.2.3-.2.3l.1-.1-.5.7c-.2.3-.2.2-.2.3.1-.1.3-.4.4-.5l.4-.5-.1.2c-.1.2.1-.1 0 0 .1-.1.2-.3.3-.4-.1.1-.1.2-.1.3.1-.2.2-.3.2-.4.2-.3 0 .1.1-.2-.1.2-.3.5-.4.6.1-.2.2-.3.4-.6 0 .1-.1.2-.2.4 0 .1.2-.4 0 0l.1-.2c0 .1 0 .1-.1.2 0 0 .1-.3 0 0l.1-.2c0-.1-.1.2 0-.1-.1.2 0 0 .1-.1v.1l.1-.2c0 .1 0 .1-.1.2l.1-.2c0-.1-.1.3-.1.2v.2c0-.2.1-.3.1-.4s0 .2 0 0v.4c0-.1.1-.3.1-.3v.2-.2.8s0-.1.1-.1v-.6c0-.1.1.6.1.2v-.3c0 .1.1.2.1.4 0-.1 0 0 0 0 0 .1 0 .2.1.2v-.3c0-.1.1.1 0-.1 0 0-.1-.1-.1-.2v.1s-.1-.1 0-.1l.1.1c0 .2-.1 0 0 .2v-.1.1s.2.3.2 0c0-.1 0-.1-.1-.2.1-.1 0-.2.1-.2.1.2.1 0 .1.1-.1-.1-.2 0-.1.2s-.1 0 0 .2c.1 0 .2.1.2.2v-.1c0-.1-.1-.1-.1-.2.1 0 .1-.1.1-.3.1 0 .1.2.1.2.1-.1.2-.1.3-.1-.2-.1.1-.1 0-.2-.1 0-.2-.1-.2-.2 0 0 0 .1.1.1 0-.1.1.1.1 0 0 .1.1.2.2.4 0-.1 0 .1.1.1 0-.1.1-.2.1-.3.2.1.2-.1.3-.2.1 0 .1.2.2.2 0 0-.1-.1 0-.1 0 0 .2 0 .1-.2l.1.2v-.1l.1.1c.1.1.1-.1.1-.1l-.1-.1c0-.1.1-.1.2-.1v.1-.1c0 .1.1.1.1 0v.3c-.1 0 0-.1-.1-.2s-.1 0-.1.1v-.1c.1.1 0 .2.1.3 0 .1 0 .1-.1.1 0-.1-.1-.1-.1-.1.1.1 0 .2 0 .2-.1-.1-.1.2-.2.2 0-.1-.1-.3 0-.3h-.1c0 .1.1.3.1.3v-.1.2c-.1 0-.3.1-.4.1v-.1c.1.2-.1.2-.1.3-.2 0-.2.2-.3.1-.1.1-.1.2-.2.3s-.3.2-.4.3v-.2c0 .1 0-.1-.1 0 .1.1 0 .2-.1.3-.1 0-.3.2-.4.4v-.1c-.1.3-.3.2-.4.2v-.1c-.1.3-.2.3-.4.5-.1 0-.2.1-.3 0-.2.3-.4.4-.6.5v-.6l.1-.2c-.3-.1 0-.9-.1-1.1l.2-.1c.1-.1 0-.2-.2-.1.1-.1-.1-.3.1-.4 0-.1-.1-.1-.1-.2.1-.2.1-.4 0-.5h.1s.1-.2-.2-.1c.1-.1-.1-.3.1-.5h-.1c0-.1.1-.3 0-.4-.1-.2.1-.4.1-.6-.1-.3 0-.7 0-1-.2-.1.2-.2-.1-.3 0 0 0-.1.1-.1-.1-.1.1-.2 0-.4.1-.1 0-.2.1-.4h.1c.1 0-.2-.1 0-.2h-.1v-.5c0-.2 0-.5-.1-.7.1 0 .1-.1.2-.2.4-.1.3.3.4 0 0 0 0-.1 0 0 0-.1.3.1.3 0-.1-.1 0-.1 0-.2.2 0 .3.1.3 0v.1c0-.3.2-.2.1-.5l.4-.3.2-.2.4-.2 1.6-1 1-.6.1 2.6c-.2.4-.2.4-.1.7h-.1c.2 0 0 .2.2.2v.7h-.1.1s.1.1.2 0c.2.6-.1 1.2 0 1.8-.1.2 0 .3.1.5-.2.5-.4.9-.2 1.4-.5.2-.9.2-1 0z"/><path d="M27.7 45.4c-.1-.1-.1-.1-.1-.2 0 .1.1.1.1.2zm-1.7 0c0-.1 0-.1 0 0 0-.1 0-.1 0 0zm-.3.1v-.2.2zm-.4-.1c-.1 0-.1 0 0 0-.1 0-.1 0 0 0zm0 .2s0-.1 0 0zm-.3-.1s0 .1 0 0c0 .1 0-.1 0 0zm0 .2s0-.1 0 0v-.1.1zm-.3-3.6h-.1zm.9-1.7c.1 0 .1.1 0 0 .1.1.1 0 0 0zm1-1v.1-.2z"/></g><path d="M11.1 48.2l-1.4-.8V28.1l29.2-16.9z" class="J"/><g class="I"><path d="M10.8 48.3c.3.2-.1-.2.2.1-.1 0-.1 0-.2-.1zm1.2-1c.4-1.2 1.7-2.2 2.3-3.4.1-.1.1.2.3-.2.5-1.2 1.9-2.7 3-3.8v.1c.2-.2.3-.6.5-.8 0 0 0 .1.1.1 0-.1.3-.5.3-.6.1-.1.2 0 .3-.1v-.2c0-.6.7-1 1-1.6v.1c.5-1 1.3-2 2-3.1 0 .1 0 .2.1.1-.1-.1.1-.5.3-.7.2 0 .2-.5.5-.8 0-.3.3-.3.3-.6l.2-.1c-.1-.2.3-.3.4-.5s.2-.2.3-.4c.2-.4.5-.6.4-.6.2-.1-.2.4.1.3.8-1.4 1.8-2.6 2.8-3.9.2-.1.2-.2.3-.2.1-.1.3-.5.4-.7 0 0 .1 0 .2-.1.2-.2 0-.4.3-.6v.2c.1-.3.3-.6.5-.9v.1c.1-.4.4-.5.5-.8v.1c.4-.3-.1-.2.2-.5v.1c.1-.4.5-.9.7-1.3s.5-.7.8-1.1c.1-.1.1.2.4-.2-.2-.1.4-.7.1-.6.3-.3.7-.7.8-1 0 .2.3 0 .1.3l.2-.1c0 .1-.2.2 0 .2.1-.1.3-.6.4-.6.1-.3.1-.7.4-1.1-.1.2.2 0 .2.2l.1-.8c.1-.1.1.1.2-.2v-.2s.4-.6.6-.5c.1 0-.1.2 0 .1.2-.2.1-.3.3-.5.1-.1.3-.5.1-.4-.1.1.1 0 0 .1 0-.2.2-.5.4-.7v.2c0-.2.1-.3.2-.5 0-.1.1-.2.1-.3-.1 0 .2.1.1.1.2-.1.3-.3.3-.4s.1-.2.3-.4c0 0-.3.2-.2.1s.4-.3.4-.3c.2-.1 0-.1 0-.1-.1.1.1-.1.1 0v-.2c0-.1.2-.3.5-.6-.1.1-.3.2-.4.3-.2.1-.3.2-.3.2l.4-.4c.2-.2-.2.1.1-.1-.4.4.2-.1.5-.3l-.1.1.1-.1c.1-.1-.9.7-.4.3-.2.1-.7.5-.5.3 0 0 .6-.5.4-.4-.3.2-.2.2-.5.4l-.5.5c.2-.2-.3.3 0-.1l.3-.3c-.1.1-.4.4-.5.6 0 0 0-.1.1-.1-.3.4-.2.1-.4.4-.1 0-.3.2-.4.1l-.2.2s0 .1-.1.1-.1.1-.2.1c0-.1.1-.1.1-.1-.2 0-.2.1-.3.2 0-.1-.4.1-.6.1-.2.2-.1.3 0 .3-.3-.1-.6.5-1 .5.1-.1.3-.3.1-.2-.3-.1-.3.4-.8.5l.2.1c-.2 0-.5.4-.5.2-.1.1-.4.2-.3.3-.6.2-1.3.9-1.9.8-.1.1-.3.2-.2.2.2 0 .1-.2.2-.1-.1 0-.1.1-.1.1-.2.1-.3.1-.3-.1-.5.1-.3.5-.8.7 0-.1-.1-.1-.2 0l-.2.3c-.3.2-.3 0-.3-.1-.2.1-.4.2-.4.4H27c.2 0-.1.1-.2.2l.1-.1c-.1 0-.2.1-.3.2.1 0 .3 0 .4-.1l-.3.3c0-.1-.3.1-.5.2s-.1.2-.2.2c0 0-.3.1-.2 0 0 0 .1 0 .2-.1-.1 0-.2-.1-.4.1-.1.1.2.2-.2.3.1-.1.1-.1.1-.2l-.3.1v.1h-.1c0 .1-.4.3-.4.4-.1.1-.4.1-.5.2-.2 0-.4.2-.5.4-.1 0-.3.2-.4.3-.3.1-.3-.3-.5 0-.2.1-.3.4-.1.4-.5.2-.9.6-1.4.7 0 .1 0 .1-.1.2-.6.3-1.3.9-1.9 1 .2-.1 0-.1-.1-.2-.1.2-.2 0-.2.2.1.1.1.1.3.1-.4.3-.9.6-1.2.6.1 0 .1 0 0 .1 0-.1-.3 0-.5.1v.1h-.2c-.1.1 0 .2-.2.3h-.1c-.2.2-.4.5-.7.5h-.3c-.1.1-.2.2 0 .2-.4.2-.7.3-.9.3-.5.7-1.5 1.3-2.4 1.7v-.1c-.3.1-.1.2-.2.2 0-.1-.2 0-.1-.2-.4.1-.3.3-.5.5 0 .1.1-.1.1 0 0 0-.5.2-.4.3-.1 0-.1-.1-.1-.2l-.1.2c-.3 0 .4-.6 0-.6l-.2.1c-.2 0 .4-.4-.1-.2-.1.2-.2.5 0 .4-.4.3 0 .4-.4.6-.2 0 .3-.2.2-.3-.3 0-.4.3-.5.3.2 0 .1.2.1.2-.1 0 0-.1-.2-.1 0 .1 0 .1.1.1s.1.1.1.1-.1 0 0 .1c-.1 0-.3-.2-.4-.1.1 0 .1.1.2.1.1.1.1.2.2.1 0 .1-.1.2-.2.1-.1.2.2.5 0 .6l.1.1c0 .1-.1.2-.1.3 0 .2.2.6 0 .6 0 .1 0 .5.1.3.1-.3-.1-.3.1-.5-.1.2 0 .4.1.5h-.1c0 .1 0 .3.1.4 0-.1-.1 0-.1 0l.1.1c.1.4-.2.1-.2.5l-.1-.3c0 .1-.1.2-.1.4l.3.3c.1.2-.1.1 0 .3l-.1-.3s-.2.2-.2.5c0 .2.2.5.3.2 0 .1-.1.3-.1.2 0 .3.1 0 .2.2-.1.1-.2.5-.3.7l-.2-.3v.2c-.1-.3-.1.1-.3 0 0 .1 0 .3.1.4.2-.4.3.4.6.3.1.5-.5.3-.2.9.1-.1.2.2.2-.2 0 .3.2.2.1.6-.1-.3-.2.3-.4-.1.1 0 .1-.2 0-.3-.1.1-.2 0-.2.3 0 .2 0 .5.1.4.1 0 0-.3.1-.2 0 .4-.1.5.1.6 0-.3.1-.3.2-.3l.1.3-.1-.1c-.1.5.1.1.1.6l-.2.2c-.1-.1.1-.7-.2-.6 0 .3.1.4.1.7 0-.1 0-.2-.1-.2 0 .1-.3.2-.1.6.1.2.1.1.2.1 0 .5.1.6.1.9-.2-.1 0 .5-.2.2.1-.2.1-.8-.1-1-.2.2 0-.4-.2-.5 0 .4-.2.4-.3.4 0 .1.1.2.1.3.1 0 .1-.1.3-.1 0 .4 0 .8.1 1.1-.1.1-.2.1-.2-.1v1.5c.2-.3.1.5.2.3 0-.3.2-.5.3-.3 0 .2-.1 0-.1.1.1.2-.2.3 0 .5-.1-.5-.2-.1-.4-.2.1.3-.1 0-.1.3.1.3.2.7.2 1.1-.1.5 0 1.2 0 1.6-.1.2-.3.1-.3.3 0 .3.2-.2.1.2 0 .1-.1.8.1.9l-.2-.1c0 .1 0 .2.1.2-.1 0-.1.1-.2 0-.1.3 0 .5 0 .8l.1-.2c.1.5 0 .7 0 1h.1l-.1.1.3.1c-.1 0 0 .2.2.2-.2 0-.5-.1-.8-.2 0-.1.1-.1.1 0h.2v-.1c0-.2 0-.4-.1-.5 0 .2 0 .2.1.3-.1.1-.1-.1-.3-.3v.3c-.1-.2-.1-.4-.1-.7.1.2.1-.1.1 0-.1 0-.2-.3-.1-.6.2-.2-.1-.6-.1-1 .1.2.3.4.3.6.1-.3 0-.3.1-.5-.1-.1-.3-.2-.3-.5h.1c0-.2-.2-.2-.2-.6.1-.6.1-1.3.1-1.8h.1c-.2-.3-.1-.9-.2-1.3.1-.6-.1-1.4.1-1.7-.1-1.1-.1-2.1-.1-3.2l.1.2c-.1-.2.1-.1.1-.3-.1.2-.1-.3-.2-.4.1-.5 0-1.2-.1-1.6h.1c-.2-.5 0-1 0-1.6 0-.1.1-.2.1-.3-.2-.3-.1-.5-.3-.9 0-.3 0-.9.1-1.2 0-.2-.1-.4-.1-.6v-1l1.4-.8c.4-.2.7-.4 1.1-.7l.1.1c1-.9 2.4-1.4 3.3-2.1v.2c.3-.1.6-.4.5-.5.3-.1.7-.5.9-.5.3-.1.3-.3.5-.5.6-.3.9-.4 1.4-.8l-.1.1c0 .1 0 .1.1.1.2-.2.8-.4.5-.5.7-.2 1.3-.9 2-1.1-.1 0 .1-.1.1-.2.5-.3 1.1-.5 1.5-.9.1 0-.1.2.1.1.1-.1 0-.1.1-.2.8-.6 1.8-.9 2.5-1.4 1.3-.9 2.8-1.7 4.1-2.5v.1c.4-.4 1.1-.4 1.3-.9.1 0 .4-.2.4-.1.3-.3 1-.5 1.5-.9l-.1.1c.6-.2 1-.6 1.5-.8 0 .1-.1.1-.1.2.1 0 .2-.1.3-.2.2-.1.3-.3.5-.2.2-.1.1-.2 0-.1a23.81 23.81 0 0 0 3-1.8L41 9.1c.5-.2.2 0 0 .2s-.4.4.1 0v.1c-.2.2.3-.2.1-.1-.1.2-1.4 1.4-1.1 1.3.5-.5.1 0 .4-.3-.9 1.1-1.3 1.4-1.5 1.8l-.2.1c0 .2-.2.5-.5.9-.2.4-.5.7-.5 1-.4.6-.8 1.1-1.3 1.7l-.7 1c-.5.6-.9 1.3-1.3 1.9l-2.7 3.8-5.6 7.3c-.6.5-.6.5-1 1.2v-.1c.1.1-.3.5-.3.6l-2 2.7c.1-.2 0-.3-.1-.1l-.1.3h-.1c-.1.1-.1.3 0 .2-1.7 2.5-3.7 4.6-5.4 7-.5.5-1 1.3-1.4 2-1.5 1.7-2.9 3.2-4.1 5.1 0-.1-.2-.6.3-1.4z"/><path d="M10.4 48.1c0-.1-.2-.3 0-.3v.3zm-.2-6.7s0-.1.1-.1c0 .1.1.2 0 .2l-.1-.1zm.1-1.7c.1 0 .1.4.1.6l-.1-.6zm.3-1.7c0-.1.1-.1 0 0 0 .1 0 .1 0 0zm-.2-.1c0-.1 0-.2.1-.3-.1 0 0 .3-.1.3zm.2-3.6c0-.1-.1-.3 0-.3 0 .1.1.4 0 .3zm-.1-1.6v-.1c0-.2.1-.1 0 .1zm21.8-17l-.2.1v-.1zm3-.6c0 .1-.1 0-.1 0 .1-.1.1.1.1 0zm-4 5.9h.1l.1.1z"/></g><path d="M9.7 28.1l1.4.9 29.3-16.9-1.5-.9z" fill="#51708f"/><g class="I"><path d="M9.9 28c-.2-.1.1.2-.2 0 .1-.1.2-.1.2 0zm.6-.2c.5-.8 1.7-1 2.4-1.6.1-.1.1.2.3 0 .6-.7 1.9-1.3 3-1.6v.1c.2-.1.3-.4.5-.5v.1c0-.1.3-.3.4-.4.1 0 .1.1.3.1v-.2c.1-.5.7-.4 1.1-.8v.1c.6-.5 1.4-1 2.1-1.5 0 .1 0 .1.1.2 0-.1.2-.3.4-.5.2.1.3-.3.5-.4.1-.2.3-.1.4-.3h.2c0-.2.3 0 .4-.2.1-.1.2-.1.3-.2.3-.2.5-.2.4-.4.2 0-.3.2 0 .3.9-.7 1.9-1.2 2.8-1.8h.3c.1-.1.4-.2.4-.4h.2c.2 0 .1-.3.3-.3-.1.1-.1.1 0 .2.1-.2.3-.3.5-.5 0 0-.1.1 0 .1.1-.2.4-.2.5-.4v.1c.4-.1 0-.2.3-.3v.1c.2-.3.6-.5.8-.6l.8-.5c.1 0 .1.2.3 0-.1-.2.4-.3.2-.4.3-.1.7-.3.8-.4-.1.1.2.1 0 .3h.2c0 .1-.2.1-.1.1.1-.1.4-.3.5-.3.1-.2.2-.5.5-.7-.1.1.2.1.1.2l.2-.6c.1-.1.1.1.2 0v-.2s.4-.3.5-.1c.1 0-.1.1 0 .1.2-.1.2-.2.3-.3s.3-.3.1-.3c-.1 0 .1.1-.1.1 0-.1.2-.3.4-.4v.2c.2-.3.4-.4.7-.7 0-.1 0 .2-.1.2.4-.1.6-.6 1-.6l-.1-.1c.2-.1.2 0 .3-.1 0 .1.1-.1.2-.2 0-.1 0 0 0 .1.1-.1.7-.6 1.1-.7 0 0 .1-.3.2-.3v.1c.1 0 .3-.2.3-.1.1-.2-.6.5-.4.3.1.1.3-.4.3-.2.1-.1.2-.1.2-.2.1-.1.2-.2.3-.2-.1 0-.1.3 0 .1.3-.2.1-.1.3-.3l.1-.1c0-.1.3.2.2 0 0 .1.6.3.4.4l-.1.1c.2.1.3 0 .4 0v.1c.1-.2.2.2.5.1l.3.3.9.6-.9.4c-.1.1-.3.1-.3.1-.1.1-.3.3-.5.4l.1-.1c-.2 0-.2.1-.2.2H39c-.1.1 0 .2 0 .3-.3-.1-.4.4-.7.3 0-.1.2-.2 0-.2-.3-.1-.2.3-.5.4l.2.1c-.2 0-.3.3-.4.1 0 .1-.3.1-.2.3-.5.1-.9.6-1.3.5 0 .1-.2.1-.1.2.2 0 .1-.1.2-.1v.1c-.2 0-.3.1-.2-.1-.3.1-.1.4-.5.6 0-.1-.1-.1-.2 0l-.1.2c-.2.1-.2-.1-.3-.2-.1.1-.3.2-.3.3l-.2-.1c.2 0-.1.1-.1.2v-.1l-.2.1c.1.1.2 0 .3 0 0 .1-.1.1-.2.2 0-.1-.2 0-.3.1-.1 0-.1.2-.1.2s-.2.1-.1 0c0 0 .1 0 .2-.1-.1 0-.1-.1-.3.1-.1.1.2.2-.1.3v-.2l-.2.1v.1c0 .1-.3.2-.3.4-.1.1-.3.1-.4.1-.2 0-.3.1-.3.3-.1 0-.2.1-.3.2-.2 0-.3-.3-.4-.1-.2.1-.2.3-.1.4-.3.1-.6.5-1 .5 0 .1 0 .1-.1.1-.5.2-.9.6-1.3.7.1-.1 0-.1-.1-.1-.1.1-.2 0-.1.1s.1.1.2.1c-.2.2-.6.4-.8.4.1 0 .1.1 0 .1-.1-.1-.3-.1-.4.1v.1l.1.2c0 .1 0 .2-.1.2 0 0 0-.1-.1-.1-.1.2-.3.4-.5.4h-.2c-.1 0-.1.2 0 .2-.3.1-.5.2-.7.1-.3.5-1 1-1.6 1.3V22c-.2 0 0 .2-.1.2 0-.1-.2-.1-.1-.2-.3.1-.2.3-.3.4 0 .1.1-.1.1 0 0 0-.3.1-.3.3-.1 0-.1-.1-.1-.2l-.1.1c-.3 0 .2-.5-.1-.6h-.2c-.2-.1.2-.3-.1-.2-.1.1-.1.4 0 .4-.3.2 0 .4-.3.5-.1 0 .2-.2.1-.2-.2 0-.3.2-.4.3.2 0 .1.2 0 .2-.2 0 0-.2-.2-.1 0 .1-.2.3 0 .2 0 .2-.3.1-.3.3-.1-.1.1-.4-.2-.3.1.1-.2.3 0 .4-.1 0-.2-.1-.1-.2-.2 0-.2.4-.4.2v.1h-.2c-.1.1-.3.4-.4.2 0 0-.3.2-.1.3.2 0 .1-.2.3-.1-.2-.1-.2.1-.3.3v-.1c0 .1-.2.1-.2.2 0-.1 0-.1-.1-.1v.1c-.2.2-.2-.1-.4 0l.1-.2s-.2 0-.3.1v.4c-.1.1-.1-.1-.2.1l.1-.2s-.2-.1-.4 0c-.1.1-.2.3 0 .3-.1 0-.2.1-.2 0-.2.1.1.1 0 .2h-.5l.1-.3-.1.1c.1-.2-.1 0-.1-.2-.1 0-.2.1-.2.2.4.1-.1.4.1.6-.3.2-.5-.4-.6.1.1 0 0 .3.2.1-.2.1 0 .3-.3.3.1-.2-.3-.1-.1-.3 0 .1.2 0 .2-.1-.1 0-.1-.2-.3-.1-.1.1-.3.2-.2.3s.2-.1.2 0c-.2.2-.4 0-.4.3.1-.1.3 0 .3.1l-.1.1v-.1c-.3.1 0 .2-.3.3l-.2-.1c0-.2.4-.2.3-.4-.2.1-.2.2-.4.3l.1-.1c-.1 0-.3-.2-.5.1-.1.1 0 .1 0 .2-.3.2-.3.3-.5.4 0-.2-.3.2-.2-.1.1 0 .6-.2.6-.4-.2-.1.2-.1.2-.3-.2.1-.3 0-.4-.1-.1 0-.1.1-.1.1 0 .1.1.1.2.2-.3.1-.5.3-.6.5-.1 0-.1-.1-.1-.2-.3.2-.6.4-.9.5.3.1-.3.2-.1.3.2 0 .4 0 .3.1-.1 0 0-.1-.1-.1-.1.2-.3 0-.3.2.3-.2-.1-.2-.1-.4-.2.2-.1-.1-.3 0l-.6.6c-.4 0-.7.4-1 .6-.2 0-.2-.2-.3-.1-.2.1.2.1-.1.2-.1.1-.5.2-.5.4v-.2c-.1 0-.1.1-.1.1l-.1-.1c-.2 0-.3.2-.5.3h.1c-.1.1-.2.2-.3.2-.2-.1-.4-.3-.6-.4l.1-.1h-.2c.1-.1 0-.2-.2-.2h.5c.1.1-.2.1-.1.2 0 .1.3.3.4.2-.1-.1-.1 0-.2 0 0-.2.1-.1.2-.2l-.1-.1h.2s.1 0 .1-.1c-.1.1.1.1 0 .1 0-.2.1-.3.3-.3s.3-.3.6-.4c0 .2-.1.3-.2.5.2 0 .2-.1.4-.1 0-.1 0-.3.2-.5l.1.1c.1-.1.1-.3.3-.4l1.1-.6.1.1c.1-.3.5-.4.7-.6.4-.1.8-.6 1.1-.5.6-.5 1.2-.9 1.9-1.2v.2c.1-.2.1 0 .2-.1-.2 0 .1-.2.1-.4.4-.1.7-.4.9-.7l.1.1c.2-.3.6-.4 1-.5.1 0 .2.1.3 0 .1-.3.2-.3.4-.5.2-.1.5-.3.8-.3.6-.6 1.5-1 2.2-1.5l.1.1c.6-.7 1.7-1 2.3-1.5v.2c.2-.1.4-.3.3-.4.2-.1.5-.4.7-.3.2-.1.2-.2.4-.4.5-.2.6-.3 1-.5h-.1c0 .1 0 .1.1.1.1-.1.6-.3.3-.4.5-.1.9-.7 1.4-.7-.1 0 0-.1 0-.2.4-.2.8-.3 1.1-.6.1 0 0 .1.1.1.1-.1 0-.1 0-.2.5-.4 1.3-.6 1.8-.9.9-.7 1.9-1.2 2.9-1.8v.1c.2-.3.8-.3.9-.6.1 0 .3-.1.3 0 .2-.3.8-.3 1-.6l-.1.1c.4-.1.7-.4 1.1-.6l-.1.1c.2 0 .3-.4.4-.2.1-.1 0-.1 0-.1.2-.1.3-.1.5-.2v1.2c-.2-.1-.5-.3-.7-.4l-.2-.1h-.2l-.2.2c-.6.1-.2-.5-.6-.1-.1 0 0 .1 0 .1-.2.2-.4-.1-.5.1.1.1 0 .1 0 .2-.4.1-.6.1-.8.3V13c-.2.4-.7.5-.9.9l-5.6 3.5-5.6 3.2c-.5.1-.6.1-1 .5V21c.1.2-.3.2-.3.4l-2.1 1.2c.1-.1.1-.2 0-.1l-.2.1c-.1.1-.1.2 0 .2-1.7 1.2-3.7 1.9-5.4 3-.5.2-1 .6-1.5.9-1.5.6-2.8 1.1-4.1 2.1 0-.1 0-.5.5-1z"/><path d="M10.2 28.1c0 .1.1.2 0 .3v-.3zm4.4-.5h.1c-.1 0-.1.1-.1.1v-.1zm1.1-.6c0 .1-.2.3-.3.3l.3-.3zm1.1-.3c.1 0 .1 0 0 .1v-.1zm0-.2h.2s-.1.2-.2 0zm2.3-1s.1-.1.2-.1c-.1-.1-.2.2-.2.1zm1-.7c.1-.1.1 0 0 0zm18.3-10.9l-.1.1v-.1zm-4-.7c-.1.1-.1 0-.1 0 0-.1 0 .1.1 0zM30.2 16l.1.2z"/></g><path d="M40.4 31.3L11.1 48.2V29l29.3-16.9z" fill="#364a5e"/><g class="I"><path d="M40.3 31.7c.3-.2-.3 0 .2-.2 0 .1 0 .1-.2.2zm.3-1.7c-.4-1.3 0-2.9-.2-4.3 0-.2.2 0 .2-.3-.3-1.3-.1-3.4.1-5l.1.1c0-.3-.2-.7-.1-1 0 0 .1.1.1 0-.1-.1 0-.6-.1-.7 0-.1.1-.1.2-.3l-.1-.2c-.3-.5 0-1.3-.1-2 0 0 .1.1.1 0-.2-1.1-.2-2.6-.2-3.7l.2-.2c-.1.1-.1 0-.2-.2-.1.1-.2.1-.3.2 0-.1-.2 0-.3.2-.2.1-.3.3-.4.3v-.1c-.2.3-.3.1-.5.4h-.2c0 .2-.4.1-.6.3s-.3.1-.5.3c-.4.3-.7.3-.6.5-.2 0 .4-.3.1-.3-1.3 1-2.8 1.8-4.3 2.6-.2 0-.3.1-.4 0-.1.1-.5.3-.6.5h-.2c-.3.1-.2.3-.5.4.1-.1.1-.2 0-.2-.2.3-.5.4-.8.6l.1-.1c-.3.3-.6.3-.8.5l.1-.1c-.5.2 0 .2-.5.4.1-.1 0-.1 0-.1-.3.4-.9.6-1.2.9-.4.2-.8.4-1.2.8-.2 0-.1-.2-.5 0 .1.1-.7.5-.3.5-.4.2-1 .4-1.2.6.1-.1-.3-.1 0-.3h-.3c0-.1.2-.1.1-.1-.1.1-.5.4-.7.5-.2.3-.4.6-.8.9.2-.2-.2-.1-.1-.2l-.4.7c-.1.1-.1-.1-.3.1 0 0 0 .1-.1.2-.1 0-.6.4-.7.3-.1 0 .2-.2 0-.1-.3.2-.3.2-.5.4-.2.1-.5.4-.2.4.1-.1-.1-.1.1-.1-.1.2-.4.4-.6.5.1-.1 0-.1 0-.2-.3.3-.7.6-1 .9 0 .1.1-.2.2-.2-.6.2-1 .8-1.5.9.1 0 .1.1.1.1-.3.1-.3 0-.5.2 0 0-.2.1-.4.3-.1.1-.1 0 .1-.1-.2.2-1.1.8-1.7 1 0 0-.2.4-.4.4v-.1c-.1 0-.4.3-.5.2-.2.3 1-.7.7-.4-.1 0-.4.5-.4.3-.3.1-.4.4-.7.5.1 0 .1-.3-.1-.1-.4.2-.1.1-.3.3l-.2.1c0 .1-.3.2-.1.2-.1 0-.5.4-.6.2v-.1c-.1.1-.2.3-.3.4h-.1c.1.2-.4.2-.5.5-.1 0-.2.1-.3.1 0 .1 0 .2-.1.2.1.2.1.5.1.8 0-.1 0-.2-.1-.2-.1.2 0 .3 0 .5 0 0-.1.4-.2.6.1.3.2.2.3.2-.2.3.1.8-.1 1.1 0-.1-.1-.4-.2-.2-.2.3.2.5.1 1l.2-.1c-.1.2.1.6-.1.6.1.1-.1.5.1.5-.1.7.1 1.7-.2 2.1 0 .1 0 .3.1.3.1-.2-.1-.2 0-.3 0 .1.1.1.1.1 0 .2-.1.4-.2.2-.1.5.3.5.2 1.1-.1 0-.1 0-.1.2l.1.3c0 .4-.2.2-.3.2 0 .2 0 .5.1.6l-.2.3c.1-.2.1.2.1.3v-.1c-.1 0 0 .3 0 .4.1 0 .1-.3.1-.4.1.1 0 .3.1.4-.1 0-.1.3-.1.5s.1.2.1.3c-.1 0 0 .3-.1.2 0-.1.1-.2 0-.3-.1.1-.2.1-.1.4.1.2.2 0 .2.3 0-.1-.1-.1-.1-.2l-.1.3c.1.1 0 .5.2.6 0 .2-.1.4-.1.5-.1.2 0 .5.1.7 0 .1 0 .4.1.5-.1.3-.4.1-.3.4 0 .3.2.5.3.3-.1.5.1 1.1-.1 1.6l.1.1c0 .3.1.4 0 .7 0 0 .1 0 .1.1-.1.1-.1.2-.1.3.1-.2.1.1.2-.2 0-.1.1-.2 0-.2.2-.2.3-.3.5-.2-.1 0-.1 0 0-.1.1.2.4 0 .6-.2v-.1h.2c.1-.1 0-.2.3-.3h.1c.2-.2.4-.5.7-.6h.3c.1-.1.2-.3 0-.2.5-.2.7-.3.9-.3.6-.7 1.6-1.3 2.5-1.8v.1c.3-.1 0-.2.2-.2 0 .1.3 0 .1.2.4-.1.4-.3.5-.5 0-.1-.1.2-.2 0 0 0 .5-.2.5-.3.1 0 .1.1.1.2l.2-.2c.3 0-.4.6 0 .6l.2-.1c.3 0-.4.4.1.2.2-.2.2-.5 0-.4.4-.3 0-.4.5-.7.2 0-.4.2-.2.3.3 0 .4-.3.6-.4-.2.1-.1-.2 0-.3.3-.1-.1.2.3 0 0-.1.3-.3 0-.2 0-.2.4-.2.5-.4.2.1-.2.5.2.3-.1-.1.4-.4.1-.5.2 0 .2 0 .2.2.2 0 .4-.5.5-.3v-.2h.3c.2-.1.5-.5.6-.3 0 0 .5-.3.2-.3-.3.1-.2.3-.5.2.3 0 .4-.2.5-.3h.1c.1-.1.3-.2.3-.3 0 .1 0 .1.1.1V40c.3-.3.2.1.5-.1l-.2.2s.2 0 .4-.2c0-.1.1-.3.1-.4.2-.2.1.1.3-.2l-.2.3s.3.1.5-.1c.1-.1.3-.4 0-.3.1-.1.3-.1.3 0 .3-.2-.1-.1.1-.3.1 0 .5-.1.8-.1l-.2.3.2-.1c-.1.3.2 0 .1.2.1 0 .3-.2.3-.3-.5 0 .2-.5 0-.6.4-.3.6.3.9-.3-.1 0 0-.3-.2-.1.3-.2.1-.3.5-.4-.2.2.4 0 .1.4 0-.1-.2.1-.3.1.2 0 .1.2.4 0 .2-.1.4-.3.3-.3-.1-.1-.3.2-.2 0 .3-.3.5-.1.5-.4-.2.2-.3.1-.4 0l.2-.2v.1c.5-.2 0-.2.5-.4h.3c0 .2-.6.3-.5.5.3-.2.3-.3.6-.4l-.2.2c.1 0 .4.2.6-.2.2-.2 0-.1 0-.2l.8-.6c0 .2.5-.3.3.1-.2 0-.8.4-.9.6.3.1-.4.2-.4.4.4-.2.4 0 .5.1.1 0 .2-.2.2-.2 0-.1-.1 0-.2-.2.4-.2.8-.5.9-.7.2 0 .2.1 0 .2.4-.3 1-.6 1.4-.8-.4 0 .5-.3.2-.4-.3.1-.5.1-.5-.1.2-.1 0 .1.1.1.1-.2.4 0 .5-.3-.4.3 0 .3 0 .4.3-.3 0 .1.3-.1.3-.3.6-.5.9-.8.5-.1 1.1-.6 1.5-.8.2 0 .2.2.4.1.3-.2-.3-.1.1-.2.1-.1.8-.3.7-.6v.2c.1 0 .1-.1.2-.2 0 0 .1 0 0 .2.3 0 .5-.3.7-.5h-.2c.4-.3.7-.4 1.1-.7v.1l.2-.2c0 .1.3.1.3-.1l-.5.6c-.2 0 .1-.2 0-.3-.1 0-.5.2-.5.3.2-.1.2-.1.2-.2.1.1-.1.2-.2.4.1 0 .2-.1.2-.1-.1.2-.3.3-.5.4.1-.2-.1 0-.1-.1 0 .1-.2.3-.5.5-.3 0-.5.4-.9.6.1-.2.2-.4.4-.6-.3.1-.3.2-.5.2-.1.2-.1.3-.3.6l-.1-.1c-.2.2-.2.3-.5.5l-1.7.9-.1-.1c-.1.3-.8.5-1.1.8-.6.2-1.2.8-1.6.8-1 .7-1.8 1.2-2.9 1.8l.1-.2c-.1.2-.2 0-.3.1.3 0-.2.3-.3.4-.5.2-1 .6-1.4 1l-.1-.1c-.3.4-.9.5-1.4.8-.1 0-.2 0-.4.1-.2.3-.4.4-.7.7-.3.2-.8.4-1.1.5-1 .8-2.2 1.4-3.3 2.2h-.1c-1 .9-2.5 1.5-3.4 2.2v-.2c-.3.1-.7.5-.5.5-.3.1-.7.5-1 .5-.3.2-.3.3-.6.5-.2.1-.3.1-.4.2s-.2.1-.4.2c-.4.2-.7.4-1.2.7l.3-.1c.1-.1.1-.2-.1-.1-.4.3-1.3.7-1.1.8-.1.1-.3.1-.5.2v-3.1c0-.1 0-.2.1-.3-.1.1-.1-.1-.1-.2 0-.6.1-1.3 0-1.8 0-.1.1.2.1-.1 0-.2-.1 0-.1-.2-.1-1 .1-2.1.1-3l-.1-5h.1c-.2-.5.2-1.3-.1-1.7.1-.1 0-.5.1-.4-.1-.4.1-1.2 0-1.8v.1c.1-.6 0-1.2.1-1.8 0 .1 0 .2.1.2.1-.3-.2-.6 0-.7 0-.1-.1-.1-.1 0v-1.1l1.9-1.2 1.6-1c1-.4.3.3.9-.3.1 0 0-.1 0-.1.3-.2.6 0 .7-.3-.1-.1.1-.1.1-.2.6-.3.8-.2 1.2-.5v.1c.4-.5 1.1-.7 1.4-1.2l8.4-5.1 8.4-4.8c.8-.2.8-.2 1.5-.7 0 0-.1.1 0 .1 0-.2.5-.3.5-.5.3-.1.5-.3.7-.4l.9-.5 2.8-1.6v.4c0-.4-.2-.3-.1.1l.1.3v.1c0 .3.1.5.2.1V15l-.1 2.3-.1 4.6c-.1.7 0 1.8 0 2.5-.2 2.3-.4 4.4-.2 6.8-.3.1-.7-.2-.8-1.2zm-.7 1.9c-.1 0-.4.1-.2-.1.1 0 .2 0 .2.1zm-6.7 2.9h-.1c.1 0 .1-.2.2-.2-.1.1-.1.2-.1.2z"/><path d="M31.6 35.7c0-.1.3-.3.5-.5l-.5.5zm-1.7.6c-.2 0-.1 0 0-.1.1 0 0 .1 0 .1zm0 .2c-.1.1-.2.1-.3.1 0 0 .3-.2.3-.1zm-3.4 1.7c-.1 0-.2.2-.3.2.1 0 .3-.3.3-.2zm-1.4 1s-.1 0-.1.1c-.2 0-.1-.1.1-.1zM11.7 33v.2l-.1-.1zm8.3-8.5c.1-.1.1 0 .2 0-.2 0 0-.2-.2 0zm6.3-4.1l-.1-.1z"/></g><path d="M12.4 46.2V29.5l26.7-15.4v16.7z" fill="#7192ad"/><g class="I"><path d="M12.1 46c0 .3.1-.2.1.2-.1 0-.1-.1-.1-.2zm1.4-.2c.8-.9 2.3-1.3 3.2-2.1.1-.1.1.2.3 0 .9-.8 2.6-1.6 4-2.2v.1c.3-.1.5-.4.7-.6v.1c0-.1.4-.3.5-.5.1 0 .2.1.3 0l.1-.2c.2-.5 1-.5 1.5-1v.1c.8-.7 1.9-1.3 2.9-1.9 0 .1 0 .2.1.2 0-.2.3-.4.5-.5.2.1.4-.4.7-.5.1-.3.4-.1.5-.4h.2c0-.2.4-.1.5-.3s.3-.1.5-.2c.4-.3.6-.3.6-.4.2 0-.4.3 0 .3 1.2-.9 2.5-1.6 3.8-2.4.2 0 .3-.1.3 0 .1-.1.5-.3.5-.4h.2c.3-.1.2-.3.5-.4-.1.1-.1.2 0 .2.2-.2.5-.4.7-.6 0 0-.1.1 0 .1.2-.3.5-.3.7-.5v.1c.5-.1 0-.2.4-.4-.1.1 0 .1 0 .1.2-.3.8-.6 1.1-.8a.76.76 0 0 1 .4-.2v-.7c0-.2.2 0 .2-.4-.2 0-.1-.7-.3-.5 0-.4.1-1 0-1.2.1.2.2-.2.2.1l.1-.2c.1 0 0 .2.1.2 0-.1-.1-.6 0-.7-.1-.3-.3-.5-.3-1 .1.2.2-.1.2 0l-.4-.6c0-.1.2 0 .1-.3l-.1-.1c0-.1 0-.6.1-.7s0 .3.1.1c0-.3-.1-.3-.1-.6 0-.2-.1-.5-.2-.4 0 .1.1 0 .1.1-.1-.1-.1-.5-.1-.7 0 .1.1.1.1.1l-.3-1.2c-.1 0 .2.2.1.2.1-.5-.2-1.1 0-1.6 0 .1-.1 0-.1 0 0-.3.1-.3.1-.4.1 0 0-.2 0-.4 0-.1 0 0 0 .1-.1-.2-.2-1.2-.1-1.8 0 0-.2-.4-.2-.5h.1c.1-.1 0-.4.1-.5-.1-.3.1 1.1 0 .7.1-.1-.2-.5 0-.4 0-.3-.1-.5 0-.8 0 .1.2.2.2 0 0-.4 0-.1-.1-.4v-.2c-.1 0 0-.3-.1-.2.1-.1-.1-.3.1-.3h.2c0-.1-.2-.1-.2-.1s0-.1.1-.1c-.2.2 0-.2-.2-.1v-.3h-.1c-.2.2-.3.3-.4.3l.1-.1c-.1 0-.1.1-.2.1 0 0-.2-.1-.4 0-.2.2 0 .3 0 .3-.3-.1-.6.5-.9.5.1-.1.3-.3.1-.2-.3-.1-.3.4-.7.5l.2.1c-.2 0-.4.4-.5.2-.1.1-.4.2-.3.3-.6.2-1.3.8-1.8.8-.1.1-.3.1-.2.2.2 0 .1-.2.2-.1-.1 0-.1.1 0 .1-.2.1-.3.1-.2-.1-.4.1-.2.5-.7.7 0-.1-.1-.1-.2 0l-.2.3c-.3.1-.3 0-.3-.1-.1.1-.4.2-.4.4h-.3c.2 0-.1.1-.2.2l.1-.1c-.1 0-.2.1-.3.2.1 0 .3 0 .4-.1l-.3.3c0-.1-.3.1-.5.1-.2.1-.1.2-.2.2 0 0-.3.1-.2 0 0 0 .1 0 .2-.1-.1 0-.2-.1-.3.1-.1.1.2.2-.2.3.1-.1 0-.1.1-.2l-.3.1v.1c0 .1-.4.3-.4.4-.1.1-.3.1-.5.2-.2 0-.4.2-.5.3-.1 0-.3.2-.4.3-.3.1-.3-.3-.5-.1-.2.1-.3.4-.1.4-.4.2-.8.6-1.3.7 0 .1 0 .1-.1.2-.6.3-1.2.8-1.8.9.1-.1 0-.1-.1-.2-.1.2-.2 0-.2.2.1.1.1.1.3.1-.3.3-.9.6-1.1.6.1 0 .1 0 0 .1 0-.1-.3 0-.5.1v.1h-.2c-.1.1 0 .2-.2.3 0 0-.1 0-.1-.1-.2.2-.4.5-.6.5h-.3c-.1.1-.2.2 0 .2-.4.1-.7.3-.9.2-.5.6-1.4 1.2-2.2 1.6V27c-.2.1 0 .2-.2.2 0-.1-.2 0-.1-.2-.3.1-.3.3-.5.5 0 .1.1-.1.1 0 0 0-.4.2-.4.3-.1 0-.1-.1-.1-.2l-.1.2c-.3 0 .3-.5 0-.6l-.1.1c-.2 0 .4-.4-.1-.2-.1.2-.2.4 0 .4-.4.3 0 .4-.4.6-.1 0 .3-.2.2-.3-.3 0-.4.3-.5.3.2-.1.1.2 0 .3-.2.1.1-.2-.2 0 0 .1-.2.3 0 .2 0 .2-.3.1-.4.4-.3 0 0-.4-.3-.3.1.1-.3.4 0 .5-.1 0-.2 0-.2-.2-.2 0-.3.5-.5.3v.1H14c-.2.1-.4.5-.5.3 0 0-.1.1-.2.1 0 0 0 .1.1.1 0 0 .1-.1.2-.1s.1-.1.2 0c-.2 0-.4.2-.3.2h-.1v.1l-.1-.1h.2c.1 0-.2-.1-.2 0l-.1-.1s-.1 0-.1.1c.1 0 .2.1.3.2.1.2-.1.1 0 .3l-.1-.3s-.2.2-.2.4.2.4.3.2c0 .1-.1.3-.1.2 0 .3.1 0 .2.2-.1.1-.2.4-.3.6l-.2-.3v.2c-.1-.2-.1.1-.3 0 0 .1 0 .3.1.4.2-.4.3.4.6.3.1.5-.5.3-.2.8.1-.1.2.2.2-.2 0 .3.2.2.1.6-.1-.3-.2.3-.4-.1.1 0 .1-.2 0-.3-.1.1-.2 0-.2.3 0 .2 0 .5.1.4.1 0 0-.3.1-.2 0 .4-.1.4.1.6 0-.2.1-.3.2-.3l.1.3h-.1c-.1.4.1.1.1.6l-.2.2c-.1-.1.1-.6-.2-.5 0 .3.1.4.1.6 0-.1 0-.1-.1-.2 0 .1-.3.2-.1.6.1.2.1 0 .2.1 0 .5.1.6.1.9-.2-.1 0 .5-.2.2.1-.2.1-.8-.1-1-.2.2 0-.3-.2-.5 0 .4-.2.3-.3.4 0 .1.1.2.1.3.1 0 .1-.1.3-.1 0 .4 0 .8.1 1-.1.1-.2.1-.2-.1v1.5c.2-.3.1.5.2.3 0-.2.2-.5.3-.3 0 .2-.1 0-.1.1.1.2-.2.3 0 .5-.1-.4-.2-.1-.4-.2.1.3-.1 0-.1.3.1.3.2.7.2 1-.1.4 0 1.1 0 1.5-.1.2-.3.1-.3.3 0 .3.2-.2.1.2 0 .1-.1.7.1.8l-.2-.1c0 .1 0 .1.1.2-.1 0-.1.1-.2 0-.1.2 0 .5 0 .8l.1-.2c.1.4 0 .7 0 1.2h-.1l.1.3c-.1-.1-.2.2-.1.3l-.3-.7c.1-.2.1.2.2.1s.1-.5 0-.6c0 .2 0 .2.1.3-.1 0-.1-.2-.3-.3v.2c-.1-.2-.1-.3-.1-.6.1.2.1-.1.1 0-.1 0-.2-.3-.1-.6.2-.2-.1-.6-.1-1 .1.2.3.3.3.6.1-.2 0-.3.1-.5-.1-.1-.3-.2-.3-.5h.1c0-.3-.2-.3-.2-.7.1-.6.1-1.2.1-1.7h.1c-.2-.3-.1-.9-.2-1.2.1-.6-.1-1.3.1-1.6-.1-1-.1-2-.1-3l.1.2c-.1-.2.1-.1.1-.3-.1.2-.1-.3-.2-.4.1-.5 0-1.1-.1-1.5h.1c-.2-.5 0-.9 0-1.5 0-.1.1-.2.1-.4 0-.1-.1-.2-.1-.3.1-.2.4-.3.7-.6a4.67 4.67 0 0 1 1-.5c.9-.8 2-1.3 3-2l.1.1c.9-.8 2.3-1.3 3.1-2v.2c.3-.1.6-.4.5-.5.3-.1.6-.5.9-.4.3-.1.3-.3.5-.4l1.3-.7H23c0 .1 0 .1.1.1.2-.2.8-.4.4-.5.6-.2 1.3-.9 1.9-1-.1 0 0-.1.1-.2.5-.3 1.1-.5 1.4-.8.1 0-.1.2.1.1.1-.1 0-.1.1-.2.7-.6 1.7-.8 2.4-1.3 1.2-.9 2.6-1.6 3.8-2.3.3-.4 1.1-.4 1.3-.8.1 0 .4-.2.4-.1.3-.3 1-.4 1.4-.9 0 0-.1 0-.1.1.3-.1.5-.2.7-.4.2-.1.3-.2.5-.3l.6-.3-.3.3c.3-.1.8-.7.9-.5.2-.1.2-.3.1-.2.3-.2.6-.3 1-.5v2.7c0 .6.1 1.2.1 1.8-.1 1-.4.1-.2.8 0 .1.1 0 0 .1.1.3-.3.5-.1.7.1-.1.1.1.2.1-.1.6-.2.7-.1 1.2h-.1c.2.5.1 1.2.3 1.6l.1 4.4.1 2.2v3l-4.2 2.4-3.7 2.1c-.7.2-.7.2-1.4.7v-.1c0 .2-.5.3-.4.5-1 .5-1.8 1-2.8 1.6.1-.1.1-.3 0-.2l-.1.2c-.1.1-.2.2 0 .2-2.4 1.5-4.9 2.6-7.3 4-.6.3-1.4.8-2 1.2l-5.4 2.8s0-.5.7-1z"/><path d="M12.1 45.6c.1-.1.1-.3.2-.1 0 0-.1.1-.2.1zm.8-6.6s0-.1.1-.1c0 .1.1.2 0 .2l-.1-.1zm.1-1.6c.1 0 .1.4.1.6l-.1-.6zm.3-1.6c.1-.1.1-.1 0 0 .1.1 0 0 0 0zm-.2-.1c0-.1 0-.2.1-.3 0 0 .1.3-.1.3zm.3-3.4c0-.1-.1-.3 0-.3-.1.1.1.4 0 .3zm-.2-1.5v-.1c.1-.2.1-.1 0 .1zm23.1-14.5l-.1.1zm2.3 6.7c0 .2-.1.1-.1.1 0-.1.1.1.1-.1zm.4 6.7h.1z"/></g><path d="M12.7 29.7l26.4-15.2v-.4L12.4 29.5v16.7l.3-.2z" fill="#2b79ad"/><g class="I"><path d="M12.8 29.4c-.3.2.2 0-.2.2 0-.1 0-.2.2-.2zm-.3 1.5c.4 1.1 0 2.6.2 3.8 0 .1-.2 0-.2.3.3 1.2.1 3.1-.1 4.5l-.1-.1c0 .3.1.6.1.9 0 0-.1-.1-.1 0 .1.1.1.5.1.7-.1.1-.1.1-.2.3l.1.2c.3.5 0 1.1.1 1.8 0 0-.1-.1-.1 0 .2.9.2 1.9.2 2.9-.1.1-.2.1-.3.2l-.1.1v-.4c.1 0 .1.1.2 0-.1-.1-.2-.4-.2-.7.1-.1-.1-.5-.1-.9-.1-.3.1-.4-.1-.6l.1-.2c-.2-.1.1-.4 0-.6s.1-.3 0-.5c-.1-.5.1-.7-.1-.7.1-.2.1.4.2.2-.2-1.5-.1-3-.1-4.5.1-.2.1-.3.1-.3 0-.2 0-.6-.1-.7 0 0 .1-.1.1-.2.1-.3-.2-.3-.1-.6 0 .1.1.2.1.1-.1-.3-.1-.6-.1-.9 0 0 0 .1.1.1-.1-.3 0-.6-.1-.9l.1.1c.1-.5-.2-.1-.1-.5 0 .1.1.1.1.1-.2-.4-.1-1-.2-1.3v-1.3c0-.2.2 0 .2-.4-.2 0-.1-.7-.3-.5 0-.2.1-.7.1-1 .1-.1.2-.1.3-.2-.1.1.3.1.1.2h.3c0 .1-.2.1-.1.1s.1-.1.2-.2.2-.2.3-.2c.2-.2.3-.5.7-.8-.1.2.2.1.1.2l.4-.6c.1-.1.1.1.3 0 0 0 0-.1.1-.2.1 0 .5-.4.7-.2.1 0-.2.2 0 .1s.2-.2.5-.4c.2-.1.4-.3.2-.3 0 .1.2.1.1.2.1-.2.3-.4.6-.5-.1.1 0 .1 0 .2.3-.3.6-.5.9-.8 0-.1-.1.2-.1.2.5-.2.9-.7 1.4-.8-.1 0-.1-.1-.1-.1.2-.1.3 0 .4-.1 0 .1.2-.1.3-.2 0-.1.1 0-.1.1.2-.2 1-.8 1.5-1 0 0 .2-.3.3-.4v.1c.1 0 .4-.2.4-.1.2-.3-.9.6-.6.4.1 0 .4-.4.4-.2.2-.1.4-.4.6-.4-.1 0-.1.2.1.1.3-.2.1-.1.3-.3l.1-.1c0-.1.3-.1.1-.2.1.1.4-.3.5-.1v.1c.1-.1.1-.3.2-.4h.1c-.1-.2.3-.2.4-.4.3-.1.7-.4 1-.4.2-.2.4-.4.6-.5l-.1.1c.2 0 .2-.1.3-.2 0 0 .4-.1.6-.1.2-.2 0-.3 0-.3.3.1.6-.5.9-.5-.1.1-.3.3-.1.2.3.1.3-.4.7-.5l-.2-.1c.2 0 .4-.4.5-.2.1-.1.4-.2.3-.3.6-.2 1.3-.8 1.8-.8.1-.1.3-.1.2-.2-.2 0-.1.2-.2.1.1 0 .1-.1 0-.1.2-.1.3-.1.2.1.4-.1.2-.5.7-.7 0 .1.1.1.2 0l.2-.3c.3-.1.3 0 .3.1.2-.1.4-.2.4-.4h.3c-.2 0 .1-.1.2-.2l-.1.1c.1 0 .2-.1.3-.2-.1 0-.3 0-.4.1l.3-.3c0 .1.3-.1.5-.1.2-.1.1-.2.2-.2 0 0 .3-.1.2 0 0 0-.2 0-.2.1.1 0 .2.1.3-.1.1-.1-.2-.2.2-.3-.1.1 0 .1-.1.2l.3-.1v-.1c0-.1.4-.3.4-.4.1-.1.3-.1.5-.2.2 0 .4-.2.5-.3.1 0 .3-.2.4-.3.3-.1.3.3.5.1.2-.1.3-.4.1-.4.4-.2.8-.6 1.3-.7 0-.1 0-.1.1-.2.3-.1.6-.3.8-.5l1-.6v2l-.3.2c-.2.1-.4.2-.6.2.2-.1 0-.1-.1-.2-.1.2-.2 0-.2.2.1.1.1.1.3.1-.3.3-.9.6-1.1.6.1 0 .1 0 0 .1 0-.1-.3 0-.5.1v.1H37c-.1.1 0 .2-.2.3 0 0-.1 0-.1-.1-.2.2-.4.5-.7.5h-.3c-.1.1-.2.2 0 .2-.4.1-.7.3-.8.2-.5.6-1.4 1.2-2.2 1.6v-.1c-.2.1 0 .2-.2.2 0-.1-.2 0-.1-.2-.3.1-.3.3-.5.5 0 .1.1-.1.2 0 0 0-.4.2-.4.3-.1 0-.1-.1-.1-.2l-.1.2c-.3 0 .3-.5 0-.6l-.1.1c-.2 0 .4-.4-.1-.2-.1.2-.2.4 0 .4-.4.3 0 .4-.4.6-.1 0 .3-.2.2-.3-.3 0-.4.3-.5.3.2-.1.1.2 0 .3-.2.1.1-.2-.2 0 0 .1-.2.3 0 .2 0 .2-.3.1-.4.4-.2-.1.1-.4-.2-.3.1.1-.3.4 0 .5-.1 0-.2 0-.2-.2-.2 0-.3.5-.5.3v.1h-.3c-.2.1-.4.5-.5.3 0 0-.4.2-.2.3.3-.1.2-.2.4-.1-.2 0-.3.2-.4.3H28c-.1.1-.3.2-.3.3 0-.1 0-.1-.1-.1v.1c-.3.2-.2-.1-.5.1l.2-.2s-.2 0-.3.1v.4c-.1.1-.1-.1-.3.1l.1-.2s-.2-.1-.5.1c-.1.1-.3.4 0 .3-.1.1-.3.1-.3 0-.2.2.1.1-.1.3-.1 0-.5.1-.7.1l.1-.3-.2.1c.1-.2-.2 0-.1-.2-.1 0-.2.2-.3.3.4 0-.2.5 0 .6-.4.3-.5-.3-.8.2.1 0 0 .3.2.1-.3.1-.1.3-.4.4.2-.2-.4 0-.1-.4 0 .1.2-.1.3-.1-.1 0-.1-.2-.4 0-.1.1-.4.3-.3.3.1.1.2-.2.2 0-.3.2-.5.1-.5.4.2-.1.3 0 .4 0l-.2.2v-.1c-.4.2 0 .2-.4.4h-.3c0-.2.6-.3.4-.4-.3.1-.3.3-.5.4l.1-.1c-.1 0-.3-.2-.6.2-.1.2 0 .1 0 .2-.4.3-.5.4-.7.5 0-.2-.5.2-.3-.1.2 0 .7-.3.8-.5-.2-.1.3-.1.3-.4-.3.2-.4 0-.5-.1-.1 0-.1.1-.2.2 0 .1.1.1.2.2-.4.2-.7.4-.8.6-.1 0-.2-.1 0-.2-.4.3-.8.5-1.3.7.4 0-.4.3-.2.3.2-.1.5-.1.4.1-.1.1 0-.1-.1-.1-.1.2-.4 0-.4.2.4-.3 0-.3-.1-.4-.2.2 0-.1-.3 0-.2.2-.5.5-.8.7-.5.1-1 .5-1.3.8-.2 0-.2-.2-.4-.1s.3.1-.1.2c-.1.1-.7.3-.6.5v-.2c-.1 0-.1.1-.1.1l-.1-.1c-.3 0-.4.3-.6.4h.2c-.3.3-.6.4-1 .6v-.1l-.2.2c0-.1-.2-.1-.3.1l.4-.6c.2 0-.1.2.1.3.1 0 .5-.2.5-.3l-.2.2c-.1-.1.1-.2.1-.4-.1 0-.2.1-.2.1l.4-.4c-.1.1.1 0 .1.1-.1-.1.1-.3.4-.4.3 0 .5-.4.8-.5-.1.2-.2.4-.3.5.2-.1.2-.1.5-.2 0-.1 0-.3.3-.5l.1.1c.2-.2.1-.3.5-.5.5-.3 1.1-.6 1.5-.8l.1.1c.1-.3.7-.5 1-.8.6-.2 1.1-.7 1.4-.7l2.6-1.6-.1.2c.1-.2.1 0 .3-.1-.3 0 .1-.3.2-.4.5-.1.9-.6 1.3-.9l.1.1c.3-.4.8-.5 1.3-.7h.3a1.72 1.72 0 0 1 .6-.6 4.67 4.67 0 0 1 1-.5c.9-.8 2-1.3 3-2l.1.1c.9-.8 2.3-1.3 3.1-2v.2c.3-.1.6-.4.5-.5.3-.1.6-.5.9-.4.3-.1.3-.3.5-.4l1.3-.7-.1.1c0 .1 0 .1.1.1.2-.2.8-.4.4-.5.2-.1.3-.1.5-.2l-.4.7v-.4l1.2.7c-.4.2-.7.5-1.1.6.1 0 0 .1-.1.2-.5.3-1.1.5-1.4.8-.1 0 .1-.2-.1-.1-.1.1 0 .1-.1.2-.7.6-1.7.8-2.4 1.3-1.2.9-2.6 1.6-3.8 2.3-.3.4-1.1.4-1.3.8-.1 0-.4.2-.4.1-.3.3-1 .4-1.4.9 0 0 .1 0 .1-.1-.5.2-.9.6-1.5.8 0 0 .1-.1.1-.2-.2 0-.4.5-.6.3-.1.1 0 .1 0 .1-1.2.6-2.3 1.4-3.4 2.1-.9.4-.3-.3-.8.2-.1 0 0 .1 0 .1-.2.2-.5 0-.6.2.1.1-.1.1 0 .2-.6.2-.7.2-1.1.5v-.1c-.4.5-1 .7-1.2 1.1l-2.8 1.7-1.4.9h-.7l-.1.1v1.7l-.1 8.7c-.2.7-.2.7-.1 1.5 0 0 0-.1-.1 0 .2 0 0 .5.2.6v3.2c0-.2-.1-.3-.1-.1l.1.2h-.1c0 .1.1.3.2.2v.1l-1.6-.9.3-.2-.6.9c-.1-2.7.2-5.3.2-7.9.1-.7 0-1.6 0-2.3.2-2.1.4-4 .2-6.1.1 0 .5.3.6 1.2z"/><path d="M13.1 29.2c.1 0 .3 0 .2.1 0-.1-.2-.1-.2-.1zm6.1-2.6h.1c-.1 0-.1.1-.2.1.1 0 .1 0 .1-.1zm1.4-.8c0 .1-.3.3-.4.4l.4-.4zm1.5-.5c.1 0 .1 0 0 .1v-.1zm.1-.2c.1-.1.2-.1.3-.1-.1 0-.3.3-.3.1zm3-1.5c.1 0 .2-.2.3-.1-.1 0-.3.2-.3.1zm1.3-.9s.1 0 .1-.1c.1.1 0 .2-.1.1zm1.1-2.6l.1-.1v.1zm-10.9 6.3c-.1.1-.1 0-.2 0 .2-.1.1.1.2 0zm-4.5 4.5h.2z"/></g><path d="M40.2 45.8l-17 9.8v-.8l17-9.9z" fill="#2d3e50"/><g class="I"><path d="M40.3 46.1c.1-.1-.2-.1 0 0 0-.1 0 0 0 0zm.1-.8c-.1-.1-.1-.2-.2-.4-.3.3-.8.3-1.1.7 0 0-.1-.2-.2-.1-.3.5-1.1.8-1.8.9v-.1c-.1 0-.2.3-.3.3v-.1c0 .1-.2.2-.2.3-.1 0-.1-.1-.2-.1v.2c0 .4-.4.2-.6.5v-.1c-.3.4-.8.6-1.2.9 0 0 0-.1-.1-.2 0 .1-.1.2-.2.3-.1-.1-.1.2-.3.2 0 .2-.2 0-.2.2l-.1-.1c.1.2-.2 0-.2.1s-.1 0-.2.1-.3.1-.2.2c-.1-.1.1-.1 0-.3-.5.5-1.1.8-1.6 1.1-.1 0-.1 0-.2-.1 0 .1-.2.2-.2.3H31c-.1 0 0 .2-.2.2V50c0 .2-.2.2-.3.3v-.1c0 .2-.2.1-.3.2v-.1c-.2 0 0 .2-.1.2v-.1c-.1.2-.3.3-.4.4s-.3.2-.5.3c-.1 0-.1-.2-.2-.1.1.2-.2.2 0 .3-.1 0-.4.1-.5.2 0-.1-.2-.2-.1-.2h-.1c0-.1.1 0 0-.1 0 0-.2.2-.3.2 0 .2 0 .4-.2.5 0-.1-.1-.2-.1-.2l-.1.5s-.1-.1-.1 0v.1s-.2.2-.3 0c-.1 0 .1-.1 0-.1l-.2.2c-.1 0-.2.2 0 .2 0 0-.1-.1 0-.1 0 .1-.1.2-.2.3v-.1c-.1.2-.2.3-.3.5 0 .1 0-.2 0-.1-.3 0-.3.4-.6.3l.1.1c-.1 0-.2-.1-.2 0 0-.1-.1.1-.1.1 0 .1 0 0 0-.1-.1.1-.4.4-.6.5 0 0 0 .2-.1.3v-.1c-.1 0-.2.1-.2 0 0 .2.3-.3.3-.2-.1-.1-.1.3-.1.1-.1.1-.1.2-.3.2 0 0 0-.2-.1-.1s0 .1-.1.2v.1c0 .1-.1.1 0 .1-.1-.1-.2.2-.3 0v-.1c-.1 0 0 .2 0 .2.1.2-.1 0 0 .2h-.1s0 .1-.1 0c.1.1.1.2.1.2H24c-.1 0 0 0 0 .1l-.2.2H23c.1-.1 0-.2-.1-.3.2.1.2-.3.4-.2 0 0-.1.2 0 .2.2.1.1-.2.3-.2l-.1-.1c.1.1.2-.2.2 0 0-.1.2 0 .1-.2.3 0 .5-.4.8-.2 0 0 .1-.1 0-.1s0 .1-.1.1v-.1c.1 0 .2 0 .2.1.2 0 0-.4.3-.4 0 .1.1.1.1 0v-.2c.1 0 .2.1.2.2.1-.1.1-.1.1-.2l.2.1c-.1-.1 0-.1 0-.1s.1 0 .1-.1-.1 0-.2 0c0-.1.1-.1.1-.2 0 .1.2 0 .2 0 .1 0 0-.1 0-.1.1 0 .1.1.2 0 0-.1-.1-.2 0-.2v.1h.1v-.1c0-.1.2-.1.1-.3h.2c.1 0 .2-.1.2-.2 0 0 .1-.1.1-.2.1 0 .2.3.3.2s0-.3 0-.3c.2 0 .3-.3.6-.3V52c.3-.1.5-.4.8-.4 0 .1 0 .1.1.2 0-.1.1 0 .1-.1-.1-.1-.1-.1-.2-.1.1-.1.4-.3.5-.2-.1 0 0-.1 0-.1.1.2.2.1.3 0v-.1h.1s-.1-.2.1-.2c0 0 0 .1.1.1 0-.1.1-.3.2-.3l.3.2s.1-.2 0-.2c.2 0 .3-.1.4 0 .1-.4.5-.7.9-.8v.1c.1 0 0-.1.1-.1 0 .1.1.1.1.2.2 0 .1-.2.2-.3 0-.1 0 .1-.1 0 0 0 .2 0 .2-.2.1 0 .1.1.1.2v-.1c.2.1-.1.4.1.5l.1-.1c.1.1-.1.3.1.2 0-.1 0-.3-.1-.3.1-.1-.1-.3.1-.4.1 0-.1.1 0 .2.1 0 .1-.2.2-.2-.1 0-.1-.2-.1-.2.1 0 0 .2.1.1 0-.1.1-.2-.1-.2 0-.2.2 0 .2-.2.1.1 0 .3.2.3-.1-.1.1-.3-.1-.4.1 0 .1.1.1.2.1 0 .1-.3.2-.1v-.1s.1 0 .2.1c.1 0 .1-.3.2-.1 0 0 .2-.1 0-.2-.1 0-.1.2-.2 0 .1.1.1-.1.2-.2v.1s.1-.1.1-.2c0 0 0 .1.1.1v-.1c.1-.1.1.2.3.1v.1h.2c0-.1 0-.2-.1-.3 0-.1.1.1.1 0v.2s.2.1.3.1c0-.1.1-.3-.1-.3 0 0 .2 0 .2.1.1-.1-.1-.1 0-.2.1 0 .3.1.4.1v.2h.1c0 .2.1.1.1.2.1 0 .1-.1.1-.1-.3-.1 0-.4-.2-.5.2-.2.4.4.4 0-.1 0 0-.2-.1-.1.1 0 0-.2.2-.2 0 .1.2.1.1.3 0-.1-.1 0-.1 0 .1 0 .1.2.2.1s.2-.1.1-.2-.1.1-.1-.1c.1-.1.2 0 .2-.2-.1.1-.2 0-.2-.1l.1-.1v.1c.2 0 0-.2.2-.2l.2.1c0 .2-.3.1-.1.3.1 0 .1-.2.2-.2v.1s.2.2.3 0c0-.1 0-.1-.1-.2.2-.1.2-.2.3-.3.1.2.2-.1.2.1-.1 0-.3.1-.3.3.2.1-.2 0-.1.3.1-.1.2.1.3.2 0 0 0-.1.1-.1 0-.1-.1-.1-.2-.2.2-.1.3-.2.3-.3.1 0 .1.1.1.2.2-.1.4-.2.5-.3-.2-.1.2-.2 0-.3-.1 0-.3-.1-.3-.2.1 0 0 .1.1.1 0-.1.2.1.2-.1-.1.2.1.2.1.4.1-.1 0 .1.2 0 .1-.1.2-.3.3-.4.2 0 .4-.2.6-.3.1 0 .2.2.3.2.1-.1-.2-.1 0-.1 0-.1.3 0 .2-.3v.1s.1.1.1.2c.2.1.2-.1.3-.2l-.1-.1c.1-.2.3-.1.4-.3v.1l.1-.1c0 .1.2.1.2 0l-.1.4c-.1 0 0-.2-.1-.2-.1-.1-.2 0-.2.2.1 0 0 0 .1-.1.1.1 0 .2 0 .3h.1c0 .1-.1.1-.2.2 0-.1-.1-.1-.1-.1.1.1 0 .2-.2.3-.6-.6-.6-.3-.7-.2 0-.2 0-.3.1-.4-.1 0-.1.1-.2 0 0 .1.1.3 0 .4l-.2-.1c-.1.1 0 .2-.2.3-.3.1-.5.2-.7.3l-.1-.1c0 .2-.3.3-.4.4-.3 0-.4.4-.6.3-.3.3-.7.5-1.1.8v-.2c0 .1-.1 0-.2 0 .1.1 0 .2 0 .3-.2 0-.4.3-.5.4l-.1-.1c-.1.3-.3.2-.6.3 0 0-.1-.1-.2 0 0 .2-.1.2-.2.4-.1.1-.3.1-.5.2-.3.5-.8.6-1.2 1l-.1-.1c-.3.5-1 .6-1.3.9l-.1-.2c-.1 0-.2.2-.1.3-.1 0-.3.3-.4.2-.1 0-.1.2-.2.3-.3.1-.4.1-.6.3h.1s0-.1-.1-.1c-.1.1-.3.1-.1.3-.3 0-.5.4-.8.4v.2c-.2.1-.5.1-.6.3 0 0 0-.1-.1-.1v.1c-.3.3-.8.3-1.1.5-.5.4-1.1.7-1.6 1-.1.3-.5.1-.5.4-.1 0-.2.1-.2 0-.1.2-.5.1-.6.4-.1 0-.2.1-.3.1l-1 .7-.1-1.4v-.5s0 .1.1.1c.1-.1-.2-.4 0-.5 0-.1-.1-.1-.1 0v-.5c.2-.1.3-.2.5-.3l.3-.2c.1-.1.2-.1.2-.1.2-.2.4-.3.6-.4.4-.1.2.3.4 0 0 0 0-.1 0 0 .1-.1.3.1.3 0-.1-.1 0-.1 0-.2.3 0 .4 0 .5-.2v.1c.1-.3.4-.3.4-.7l3.2-2.1c1.1-.6 2.1-1.3 3.3-1.8.4 0 .4 0 .6-.2v.1c-.1-.2.2-.1.1-.3.4-.2.8-.5 1.2-.7-.1 0 0 .2 0 .1v-.1s.1-.2 0-.2c1-.7 2.2-1 3.2-1.7.3-.1.6-.3.8-.5.6-.2 1.2-.3 1.7-.6l1-.5v2c.4-.1 0-.2-.1-.6z"/><path d="M40.1 46.2c-.1 0-.2 0-.2-.2.1.1.2.1.2.2zm-2.8.7s-.1-.1 0 0v-.1c-.1 0 0 0 0 .1zm-.7.3c0-.1.1-.2.2-.3l-.2.3zm-.7 0c-.1 0-.1 0 0 0zm0 .2h-.1c0 .1.1-.1.1 0zm-1.3.6l-.1.1s0-.2.1-.1zm-.6.4c-.1 0-.1-.1 0 0zm-10.5 6.4h.1zm3.3-1.5c0-.1.1 0 0 0 0 .1.1 0 0 0zm2.3-1.8l-.1-.1z"/></g></svg>