<?xml version="1.0" encoding="utf-8"?>
<!-- Generator: Adobe Illustrator 24.0.2, SVG Export Plug-In . SVG Version: 6.00 Build 0)  -->
<svg version="1.1" id="Layer_1" xmlns="http://www.w3.org/2000/svg" xmlns:xlink="http://www.w3.org/1999/xlink" x="0px" y="0px"
	 viewBox="0 0 53.8 67.3" style="enable-background:new 0 0 53.8 67.3;" xml:space="preserve">
<style type="text/css">
	.st0{fill:#51708F;}
	.st1{fill:#202020;}
	.st2{fill:#18222B;}
	.st3{fill:#23303E;}
	.st4{fill:#364A5E;}
	.st5{fill:#7192AD;}
	.st6{fill:#2B79AD;}
	.st7{fill:#2D3E50;}
</style>
<g>
	<g>
		<polygon class="st0" points="29.7,38.8 40.2,44.9 23.2,54.8 12.6,48.7 		"/>
		<g>
			<g>
				<g>
					<g>
						<path class="st1" d="M30,38.7c-0.2-0.1,0,0.2-0.2,0C29.9,38.6,29.9,38.6,30,38.7z"/>
						<path class="st1" d="M28.9,39.1c-0.5,0.7-1.5,0.9-2.1,1.5c-0.1,0.1-0.1-0.2-0.3,0c-0.5,0.7-1.7,1.1-2.7,1.4l0-0.1
							c-0.2,0.1-0.3,0.3-0.5,0.4c0,0,0-0.1,0-0.1c0,0.1-0.3,0.2-0.3,0.3c-0.1,0-0.1-0.1-0.2-0.1l0,0.2c-0.1,0.4-0.7,0.4-1,0.7
							c0,0,0-0.1,0-0.1c-0.5,0.5-1.3,0.9-1.9,1.3c0-0.1,0-0.2-0.1-0.2c0,0.1-0.1,0.3-0.3,0.4c-0.1-0.1-0.2,0.3-0.5,0.3v0
							c-0.1,0.2-0.3,0.1-0.3,0.3l-0.2,0c0,0.2-0.3,0-0.4,0.2l0,0c-0.1,0.1-0.2,0.1-0.3,0.2l0,0c-0.2,0.2-0.4,0.2-0.4,0.3
							c-0.2-0.1,0.2-0.2,0-0.3c-0.8,0.6-1.7,1.1-2.5,1.6c-0.1,0-0.2,0-0.3,0c-0.1,0.1-0.3,0.2-0.4,0.3c0,0-0.1,0-0.1,0
							c-0.2,0-0.1,0.2-0.3,0.3c0-0.1,0-0.1-0.1-0.2c-0.1,0.2-0.3,0.3-0.4,0.4c0,0,0-0.1-0.1-0.1c0,0.2-0.4,0.2-0.4,0.3l-0.1-0.1
							c-0.5,0.1,0.2,0.1-0.1,0.2c0,0-0.1,0-0.1,0c0,0,0,0.1,0,0.1c0.3,0.1,0.4,0.2,0.6,0.3c0,0-0.1,0-0.1,0c0.2,0.1,0.4,0.3,0.7,0.3
							c0.1,0.1-0.2,0.1,0.1,0.3c0.1-0.2,0.5,0.2,0.4-0.1c0.2,0.2,0.5,0.4,0.7,0.4c-0.1,0,0,0.3-0.2,0.2l0.1,0.2
							c-0.1,0-0.1-0.1-0.1,0c0.1,0,0.4,0.1,0.4,0.2c0.2,0,0.5-0.1,0.8,0c-0.2,0,0,0.2-0.1,0.2l0.5-0.1c0.1,0,0,0.1,0.1,0.2
							c0,0,0.1,0,0.1,0c0,0,0.4,0.2,0.3,0.3c0,0.1-0.2,0-0.1,0.1c0.2,0.1,0.2,0,0.4,0.1l0,0c0.1,0.1,0.4,0.1,0.3,0
							c-0.1,0,0,0.1-0.1,0c0.1,0,0.3,0,0.5,0.1c-0.1,0-0.1,0-0.1,0.1c0.3,0,0.5,0.1,0.8,0.2c0-0.1-0.2,0.1-0.2,0
							c0.3,0.3,0.7,0.2,0.9,0.5c0,0,0-0.1,0-0.1c0.1,0.1,0.1,0.2,0.2,0.2c0,0.1,0.1,0,0.3,0.1c0.1,0,0,0-0.1,0
							c0.2,0,0.8,0.3,1.1,0.5c0,0,0.3,0,0.4,0L21.3,53c0,0.1,0.3,0.1,0.2,0.2c0.2,0-0.7-0.3-0.4-0.2c0,0.1,0.4,0,0.3,0.1
							c0.1,0.1,0.4,0.1,0.5,0.2c0,0-0.2,0.1-0.1,0.1c0.2,0.1,0.1,0,0.3,0.1l0.1,0c0.1-0.1,0.2,0.1,0.2,0c0,0.1,0.3,0.1,0.2,0.3
							l-0.1,0.1c0.1,0,0.2,0,0.3-0.1c0,0,0,0.1,0,0.1c0.1-0.1,0.1,0,0.2,0c0,0,0.1,0.1,0.1,0c0,0.1,0.1,0.1,0.1,0.1c0,0,0.1,0,0.1,0
							c0.1-0.1,0-0.2,0.3-0.3c0,0-0.1,0.1,0,0.1c0.1,0,0.1-0.1,0.2-0.2c0,0,0.3,0,0.4,0c0.1-0.1,0-0.2,0-0.3
							c0.3,0.1,0.4-0.4,0.6-0.3c0,0.1-0.2,0.2,0,0.2c0.3,0.1,0.2-0.3,0.5-0.3l-0.1-0.1c0.1,0,0.3-0.3,0.3-0.1c0-0.1,0.3-0.1,0.2-0.2
							c0.4-0.1,0.8-0.6,1.2-0.4c0-0.1,0.2-0.1,0.1-0.2c-0.1,0-0.1,0.1-0.1,0.1c0,0,0-0.1,0-0.1c0.1,0,0.2-0.1,0.2,0.1
							c0.3,0,0.1-0.4,0.5-0.5c0,0.1,0.1,0.1,0.1,0l0.1-0.2c0.2-0.1,0.2,0.1,0.3,0.2c0.1-0.1,0.2-0.2,0.2-0.3l0.2,0.1
							c-0.1,0,0-0.1,0.1-0.2l0,0.1c0,0,0.2-0.1,0.2-0.1c0-0.1-0.2,0-0.3,0c0-0.1,0.1-0.1,0.2-0.2c0,0.1,0.2,0,0.3-0.1
							c0.1,0,0.1-0.2,0.1-0.2c0,0,0.2-0.1,0.1,0c0,0-0.1,0-0.1,0.1c0.1,0,0.1,0.1,0.2,0c0.1-0.1-0.1-0.2,0.1-0.2c0,0.1,0,0.1,0,0.2
							l0.2,0l0-0.1c0,0,0,0,0,0c0-0.1,0.3-0.2,0.2-0.3c0.1-0.1,0.2,0,0.3-0.1l0,0c0.1,0,0.3-0.1,0.3-0.2l0,0c0.1,0,0.2-0.1,0.2-0.2
							c0.2,0,0.3,0.3,0.4,0.1c0.1-0.1,0.1-0.3,0-0.3c0.3-0.1,0.5-0.4,0.9-0.4c0-0.1,0-0.1,0-0.1c0.4-0.2,0.8-0.6,1.2-0.6
							c-0.1,0.1,0,0.1,0.1,0.2c0-0.1,0.2,0,0.1-0.1c-0.1-0.1-0.1-0.1-0.2-0.1c0.2-0.2,0.6-0.4,0.8-0.4c-0.1,0,0-0.1,0-0.1
							c0.1,0.2,0.3,0.1,0.3-0.1l0-0.1l0.1,0c0-0.1,0-0.2,0.1-0.2c0,0,0,0.1,0.1,0.1c0.1-0.2,0.2-0.4,0.4-0.4l0.2,0
							c0.1,0,0.1-0.2,0-0.2c0.3-0.1,0.5-0.2,0.6-0.1c0.3-0.5,0.9-0.9,1.4-1.2l0,0.1c0.2,0,0-0.2,0.1-0.2c0,0.1,0.2,0.1,0.1,0.2
							c0.2,0,0.2-0.3,0.3-0.4c0-0.1-0.1,0.1-0.1,0c0,0,0.3-0.1,0.3-0.2c0.1,0,0.1,0.1,0.1,0.2l0.1-0.1c0.2,0.1-0.2,0.5,0.1,0.5
							l0.1-0.1c0.2,0.1-0.2,0.3,0.1,0.2c0.1-0.1,0.1-0.4-0.1-0.4c0.2-0.2,0-0.4,0.1-0.4c0.1,0-0.1,0.1,0,0.2c0.1,0,0.1-0.1,0.2-0.1
							c-0.1,0-0.2-0.1-0.2-0.2c0.1,0,0.1,0.1,0.2,0.1c-0.1-0.1-0.1-0.1-0.2-0.1c-0.2-0.1,0.1,0-0.1-0.1c0.2,0,0.3,0.2,0.5,0.1
							c-0.2,0-0.2-0.1-0.5-0.1c0.1,0,0.2,0,0.3,0c0.2,0-0.3-0.1,0.1-0.1l-0.2,0c0.1,0,0.1,0,0.2,0c0,0,0,0,0.1,0c0,0-0.4,0-0.1-0.1
							c0,0-0.1,0-0.3,0c-0.1,0,0.2,0-0.1,0c0.2,0-0.1,0-0.2,0l0.1,0c0,0,0,0-0.2,0c0.1,0,0.1,0,0.1,0l-0.2,0c-0.1,0,0.2-0.1,0.2-0.1
							c0,0,0.1,0,0.1,0c0,0,0.1-0.1,0-0.1c-0.1,0.1-0.2,0.1-0.3,0.2c0,0,0.1-0.1,0,0c0,0,0.1-0.1,0.1-0.1s0.1-0.1,0-0.2
							c-0.1,0-0.3,0-0.2,0.2c-0.1,0-0.2-0.2,0-0.2c-0.2-0.1,0,0.1-0.2,0.1c0-0.1-0.2-0.3-0.2-0.5l0.3-0.1L37.7,44
							c0.2,0,0-0.1,0.1-0.2c-0.1-0.1-0.2-0.1-0.3-0.1c0.1,0.3-0.4,0.2-0.5,0.4c-0.3-0.1,0.1-0.6-0.4-0.4c0,0.1-0.2,0.1,0,0.2
							c-0.2-0.1-0.2,0.1-0.4-0.1c0.2,0,0-0.3,0.2-0.3c0,0,0.1,0.1,0.1,0.1c0-0.1,0.1-0.2,0-0.3c-0.1,0-0.3-0.1-0.3,0
							c-0.1,0.1,0.2,0.1,0,0.2c-0.2-0.1-0.2-0.3-0.4-0.1c0.2,0.1,0.1,0.2,0.1,0.3l-0.2,0l0.1,0c-0.2-0.2-0.2,0.1-0.4-0.1l0-0.2
							c0.1-0.1,0.3,0.3,0.4,0c-0.2-0.1-0.3,0-0.4-0.2c0,0,0.1,0,0.1,0c0,0,0-0.3-0.3-0.3c-0.2,0-0.1,0-0.1,0.1
							c-0.3-0.1-0.4-0.1-0.6-0.2c0.1-0.1-0.3-0.2,0-0.2c0,0.1,0.4,0.3,0.6,0.3c0-0.2,0.2,0.1,0.3,0c-0.2-0.1-0.1-0.3-0.1-0.4
							c0,0-0.1,0-0.2,0c-0.1,0.1,0,0.1-0.1,0.3c-0.2-0.2-0.5-0.2-0.7-0.2c0-0.1,0-0.2,0.1-0.2c-0.3-0.1-0.6-0.3-0.8-0.5
							c0.1,0.3-0.3-0.1-0.3,0.1c0.1,0.1,0.2,0.3,0,0.3c-0.1-0.1,0-0.1,0-0.1c-0.2,0-0.1-0.3-0.3-0.2c0.3,0.1,0.2-0.2,0.3-0.3
							c-0.2,0,0.1-0.1-0.1-0.2c-0.2,0-0.5-0.1-0.7-0.2c-0.2-0.3-0.6-0.4-0.9-0.5c-0.1-0.1,0.1-0.2,0-0.3c-0.1-0.1,0,0.2-0.2,0l0,0
							c-0.1,0-0.4-0.3-0.5-0.2l0.2-0.1c0,0-0.1,0-0.1,0c0,0,0-0.1,0.1-0.1c-0.1-0.2-0.3-0.2-0.5-0.2l0,0.2c-0.3-0.1-0.4-0.3-0.7-0.4
							l0.1-0.1l-0.2,0c0.1-0.1,0-0.2-0.1-0.2l0.5,0c0.1,0.1-0.2,0-0.2,0.2c0,0.1,0.3,0.2,0.4,0.2c-0.1-0.1-0.1,0-0.2,0
							c0-0.2,0.2-0.1,0.3-0.1c0,0-0.1-0.1-0.1-0.1c0.1,0,0.2,0,0.4,0.1c-0.1,0,0,0.1,0,0.1c0.1-0.1,0.3-0.1,0.4,0.1
							c0.1,0.2,0.4,0.1,0.6,0.3c-0.2,0.1-0.3,0.1-0.5,0.1c0.1,0.1,0.1,0.1,0.3,0.2c0.1,0,0.2-0.2,0.5-0.1l0,0.1
							c0.2,0,0.3-0.1,0.5,0.1c0.3,0.3,0.7,0.5,1,0.6l0,0.1c0.3-0.1,0.5,0.2,0.8,0.3c0.3,0.3,0.8,0.3,0.9,0.6
							c0.6,0.3,1.2,0.5,1.8,0.9l-0.2,0.1c0.2,0,0,0.1,0.2,0.2c-0.1-0.2,0.2,0,0.3-0.1c0.2,0.3,0.6,0.4,0.9,0.4l0,0.1
							c0.2,0,0.3,0.1,0.5,0.2c0.2,0.2,0.4,0.3,0.6,0.5c0,0.1,0,0.2,0.1,0.2c0.4,0,0.5,0.1,1.1,0.3c0.2,0.1,0.5,0.3,0.6,0.4
							C41.2,44.9,41.1,45,41,45c-0.5,0.6-2.2,1.4-2.6,1.8l-0.1-0.1c-0.6,0.6-1.5,0.9-2,1.3l0-0.2c-0.2,0-0.4,0.3-0.3,0.4
							c-0.2,0-0.4,0.3-0.6,0.3c-0.2,0.1-0.2,0.2-0.3,0.3c-0.4,0.2-0.5,0.3-0.9,0.5l0.1,0c0-0.1,0-0.1-0.1-0.1
							c-0.1,0.1-0.5,0.2-0.3,0.4c-0.5,0.1-0.8,0.6-1.3,0.7c0.1,0,0,0.1,0,0.2c-0.3,0.2-0.8,0.3-1,0.5c-0.1,0,0-0.2-0.1-0.1
							c-0.1,0.1,0,0.1,0,0.2c-0.5,0.4-1.1,0.5-1.6,0.8c-0.8,0.6-1.7,1.1-2.6,1.6l0,0c-0.2,0.3-0.8,0.2-0.8,0.6c-0.1,0-0.3,0.1-0.3,0
							c-0.2,0.2-0.7,0.3-0.9,0.6c0,0,0,0,0.1-0.1c-0.4,0.1-0.6,0.4-1,0.5c0,0,0.1-0.1,0.1-0.1c-0.1,0-0.1,0.1-0.2,0.2
							c-0.1,0.1-0.2,0.2-0.3,0.1c-0.1,0.1,0,0.2,0,0.1c-0.2,0.1-0.4,0.2-0.7,0.3c-0.3-0.2-0.5-0.3-0.8-0.4c-0.3-0.1-0.4-0.2-0.5-0.3
							c-0.3-0.2-0.7-0.3-1-0.5c-0.5-0.4,0.2-0.4-0.4-0.5c0-0.1-0.1,0.1,0,0c-0.2,0-0.1-0.4-0.3-0.3c0,0.2-0.1,0-0.2,0.1
							c-0.3-0.3-0.3-0.4-0.6-0.5l0.1,0c-0.4,0-0.7-0.3-1.1-0.3c-0.9-0.5-1.8-0.9-2.6-1.4l-1.3-0.7l-0.7-0.4l-1.3-0.7
							c-0.6-0.4-1.2-0.7-1.8-1.1c1.2-0.7,2.4-1.4,3.6-2.1c0.7-0.4,1.4-0.8,2.1-1.1c0.5-0.1,0.5-0.1,0.9-0.4c0,0,0,0.1,0,0.1
							c-0.1-0.2,0.3-0.2,0.3-0.3c0.6-0.3,1.2-0.7,1.9-1.1c-0.1,0.1-0.1,0.2,0,0.1l0.1-0.2l0,0c0.1-0.1,0.1-0.2,0-0.2
							c1.6-1.1,3.3-1.7,4.9-2.7c0.4-0.2,0.9-0.5,1.3-0.8c1.3-0.5,2.5-1,3.7-1.8C29.3,38.2,29.4,38.7,28.9,39.1z"/>
						<path class="st1" d="M30.2,38.8c0,0.1,0.1,0.2,0,0.3C30.2,39,30.1,38.9,30.2,38.8z"/>
						<path class="st1" d="M33.6,41.7C33.6,41.7,33.6,41.8,33.6,41.7C33.6,41.8,33.5,41.8,33.6,41.7C33.5,41.8,33.5,41.7,33.6,41.7z
							"/>
						<path class="st1" d="M34.5,42.3c0,0.1-0.3,0-0.4-0.1L34.5,42.3z"/>
						<path class="st1" d="M35.3,43.1C35.3,43.2,35.3,43.2,35.3,43.1C35.2,43.1,35.2,43.1,35.3,43.1z"/>
						<path class="st1" d="M35.4,43c0.1,0,0.1,0.1,0.1,0.2C35.5,43.1,35.3,43.1,35.4,43z"/>
						<path class="st1" d="M37.3,44.3c0,0,0.2,0,0.2,0.1C37.4,44.3,37.2,44.4,37.3,44.3z"/>
						<path class="st1" d="M38.2,44.7C38.2,44.7,38.2,44.7,38.2,44.7C38.2,44.8,38.1,44.8,38.2,44.7L38.2,44.7z"/>
						<polygon class="st1" points="25,53.1 25.1,53 25.1,53.1 						"/>
						<path class="st1" d="M18.3,51.3c-0.1,0,0-0.1,0-0.1C18.3,51.2,18.1,51.2,18.3,51.3z"/>
						<polygon class="st1" points="14.2,49.4 14.2,49.4 14.1,49.5 						"/>
					</g>
				</g>
			</g>
		</g>
	</g>
	<g>
		<polygon class="st2" points="23.2,55.6 12.6,49.5 12.6,48.7 23.2,54.8 		"/>
		<g>
			<g>
				<g>
					<g>
						<path class="st1" d="M23,55.8C23.1,55.9,23,55.7,23,55.8C23,55.9,23,55.9,23,55.8z"/>
						<path class="st1" d="M23.4,55.3c-0.2-0.2-0.2-0.3-0.2-0.5c-0.1-0.1-0.3-0.2-0.5-0.2c0,0,0.1-0.2,0-0.2c-0.4,0.1-0.8-0.3-1-0.7
							l0,0c0-0.1-0.2,0-0.3,0c0,0,0,0,0.1-0.1c-0.1,0.1-0.1,0-0.2,0c0-0.1,0-0.1,0-0.2l-0.1,0.1c-0.3,0.2-0.3-0.2-0.5-0.1
							c0,0,0,0,0-0.1c-0.3,0-0.6-0.2-0.9-0.3c0,0,0.1-0.1,0.1-0.2c-0.1,0.1-0.2,0.1-0.3,0.1c0-0.2-0.2,0-0.2-0.1l0,0
							c-0.1,0.1,0-0.1-0.2,0l0-0.1c-0.1,0.2,0-0.1-0.1-0.1l0,0c-0.1,0,0-0.1-0.1-0.1l0,0c-0.1,0-0.1-0.2-0.2,0c0-0.1,0.1,0,0.2-0.2
							c-0.4-0.1-0.8-0.3-1.1-0.5c0-0.1,0-0.1,0-0.2c0,0-0.1,0-0.2,0c0,0,0-0.1,0-0.1c0-0.1-0.2,0.1-0.2,0c0,0,0.1-0.1,0.1-0.1
							c-0.1,0.1-0.2,0-0.3,0c0,0,0,0,0.1-0.1c-0.1,0.1-0.1-0.1-0.2-0.1l0.1-0.1c0-0.2-0.1,0.2-0.2,0c0,0,0,0,0.1-0.1
							c-0.2,0.1-0.3,0-0.4,0c0,0,0,0,0,0c-0.1,0-0.2-0.1-0.3-0.1c0-0.1,0.1-0.2,0-0.2c-0.1,0.2-0.2,0-0.3,0.2
							c-0.1-0.1-0.2-0.2-0.3-0.2c0.1,0,0.1-0.2,0.1-0.2v-0.1c0-0.1,0,0,0.1,0c0,0-0.2,0-0.2-0.1c-0.1,0.1-0.3,0.2-0.4,0.2
							c0.1,0,0.1-0.2,0.1-0.2l-0.3,0.2c0,0,0.1-0.1,0-0.1c0,0-0.1,0.1-0.1,0.1c0,0-0.2,0-0.1-0.2c0-0.1,0.1,0,0.1-0.1
							c-0.1,0-0.1,0-0.2,0l0,0c0,0-0.2,0-0.2,0.1c0,0,0-0.1,0.1,0c-0.1,0.1-0.2,0-0.2,0c0,0,0.1-0.1,0.1-0.1c-0.2,0.1-0.3,0.1-0.4,0
							c-0.1,0.1,0.1-0.1,0.1-0.1c-0.1-0.2-0.4,0-0.4-0.2c0,0-0.1,0.1,0,0.1c-0.1,0,0-0.2-0.1-0.1c0-0.1-0.1,0-0.1,0
							c-0.1,0,0,0,0.1,0c-0.1,0-0.4,0-0.5-0.2c0,0-0.2,0.1-0.2,0.1l0.1-0.1c0-0.1-0.1,0-0.1-0.1c-0.1,0.1,0.3,0,0.2,0.1
							c0-0.1-0.2,0.1-0.1,0c-0.1,0-0.2,0-0.2-0.1c0,0,0.1-0.1,0.1-0.1c-0.1,0-0.1,0-0.1,0l-0.1,0c-0.1,0.1-0.1-0.1-0.1,0.1
							c0-0.1-0.2,0-0.1-0.2l0.1-0.1c0,0-0.1,0.1-0.2,0.1c0,0,0,0,0-0.1c-0.1,0.2-0.1-0.1-0.2,0c0-0.1-0.1-0.1-0.1-0.1l0.9-0.5
							c0,0,0,0.1-0.1,0.1c0.1,0.1,0.1,0.1,0.1,0.2c0,0,0,0-0.1,0c-0.1,0,0,0,0,0c0,0-0.1,0.1-0.2,0.1c0.1,0,0.2,0,0.3,0
							c-0.2,0.1,0.1,0,0,0.1c0,0,0,0,0,0c0,0,0,0,0,0c0,0-0.1,0-0.1,0.1c0,0,0,0-0.1,0c-0.1,0.1,0.3-0.1,0.2,0l0.1-0.1
							c-0.1,0.1,0.1,0,0,0.1c0.1,0,0,0.1,0.1-0.1c-0.1,0.1,0.3,0.1,0.2,0.4c0,0,0.1,0,0.1,0c0-0.1-0.1,0-0.1,0c0,0,0.1,0,0.1,0
							c0,0.1,0.1,0.1-0.1,0.2c0.1,0.2,0.3-0.2,0.4-0.1c0,0.1-0.1,0.1,0,0.1l0.1-0.1c0.1,0.1,0,0.2-0.1,0.3c0.1,0,0.1,0,0.2,0l0,0.2
							c0-0.1,0.1,0,0.1-0.1l0,0c0,0,0.1,0,0.1,0c0-0.1,0-0.1,0-0.2c0.1,0,0.1,0,0.1,0c-0.1,0.1,0,0.1,0.1,0.2c0,0,0.1-0.1,0.1-0.1
							c0,0.1,0.1,0,0,0.1c0,0,0-0.1-0.1,0c0,0.1-0.1,0.2,0,0.1c0.1,0,0.1-0.2,0.1-0.1c0,0-0.1,0-0.1,0.1l0,0.1l0.1-0.1c0,0,0,0,0,0
							c0.1-0.1,0.1,0,0.2-0.1c0,0,0,0.1,0.1,0.1h0c0,0.1,0.1,0.1,0.2,0l0,0c0,0,0.1,0,0.1,0c0,0.1-0.2,0.4-0.1,0.3
							c0.1,0,0.2-0.1,0.2-0.2c0.1,0.1,0.3,0,0.3,0.3c0,0,0-0.1,0.1-0.1c0.1,0.1,0.4,0.1,0.4,0.3c-0.1,0-0.1,0.1-0.1,0.2
							c0.1-0.1,0,0.1,0.1,0c0-0.1,0.1-0.1,0-0.2c0.1,0,0.3,0.1,0.3,0.2c0-0.1,0-0.1,0.1-0.1c-0.1,0.1,0,0.2,0,0.2l0.1-0.1l0,0.1
							c0,0,0.1-0.2,0.1,0c0,0,0,0.1,0,0.1c0.1,0,0.2-0.1,0.3,0l0,0.2c0,0,0.1,0,0.1-0.1c0.1,0.1,0.1,0.2,0.1,0.3
							c0.3-0.2,0.6,0,0.8,0.1l0,0.1c0,0.1,0.1-0.1,0.1,0c0,0,0,0.2-0.1,0.2c0,0.1,0.2,0,0.2,0c0.1-0.1-0.1,0,0-0.1
							c0,0,0.1,0.1,0.2,0c0,0.1-0.1,0.1-0.1,0.2l0.1,0c0,0.2-0.3,0.2-0.3,0.4l0.1,0c0,0.2-0.2,0.1-0.1,0.2c0.1,0,0.2-0.2,0.2-0.3
							c0.1,0,0.2-0.3,0.3-0.2c0,0.1-0.1,0-0.1,0.1c0,0.1,0.1,0,0.2,0.1c0-0.1,0.1-0.2,0.1-0.2c0,0.1-0.1,0.1,0,0.2
							c0.1-0.1,0.2-0.1,0.1-0.2c0.1-0.2,0.1,0.1,0.2,0c0,0.1-0.2,0.2-0.2,0.3c0-0.1,0.2-0.1,0.2-0.3c0,0,0,0.1-0.1,0.2
							c0,0.1,0.2-0.1,0.1,0.1l0.1-0.1c0,0,0,0.1,0,0.2c0,0,0.2-0.1,0.1,0.1c0,0,0.1,0,0.1-0.1c0-0.1-0.1,0-0.1-0.1
							c0,0.2,0.1,0,0.2,0l0,0.1c0,0,0.1,0,0.1,0c0,0-0.1,0.1,0,0.1l0.1-0.1c0.1,0-0.1,0.2,0,0.2l-0.1,0c0,0,0,0.1,0,0.1
							c0.1-0.1,0.2-0.2,0.2-0.2c0.1,0,0,0.1,0.1,0l-0.1,0.1c0,0,0,0.2,0,0.2c0.1,0,0.2-0.1,0.2-0.2c0,0,0,0.1,0,0.2
							c0.1,0,0-0.1,0.1-0.1c0,0.1,0,0.2,0,0.3L20,53.2l0,0c-0.1,0.1,0,0.1-0.1,0.2c0,0,0.1,0,0.1,0c0-0.3,0.3-0.2,0.4-0.4
							c0.1,0-0.2,0.5,0.1,0.3c0-0.1,0.1-0.2,0-0.2c0.1,0.1,0.2-0.2,0.2,0c-0.1,0,0,0.2-0.2,0.3c0-0.1,0-0.1,0-0.1
							c0,0.1-0.1,0.2,0,0.2c0.1,0,0.1,0,0.2-0.1c0.1-0.1-0.1,0,0-0.1c0.1,0,0,0.2,0.2,0c-0.1,0,0-0.1,0-0.2l0.1,0l0,0.1
							c0.1,0.1,0.1-0.1,0.2,0l0,0.2c-0.1,0.1-0.1-0.1-0.2,0.1c0.1,0,0.1,0,0.2,0c0,0,0,0-0.1,0c0,0-0.1,0.3,0.1,0.2
							c0.1,0,0-0.1,0.1-0.1c0.1,0,0.2,0,0.3,0c-0.1,0.1,0.1,0.1,0,0.2c0-0.1-0.1-0.2-0.3-0.1c-0.1,0.2-0.1-0.1-0.2,0.1
							c0.1,0,0,0.2-0.1,0.3c0,0,0.1,0,0.1,0c0.1-0.1,0-0.1,0.1-0.2c0.1,0.1,0.2,0.1,0.3,0c0,0.1-0.1,0.2-0.1,0.2
							c0.1,0,0.3,0.1,0.3,0.2c0-0.2,0.1,0,0.2-0.1c0-0.1,0-0.2,0.1-0.3c0,0,0,0.1,0,0.1c0.1-0.1,0,0.2,0.1,0.1
							c-0.1,0-0.1,0.2-0.2,0.3c0.1,0-0.1,0.1,0,0.1c0.1,0,0.2,0,0.3,0c0,0.2,0.3,0.2,0.4,0.2c0,0.1-0.1,0.2-0.1,0.3
							c0.1,0,0-0.2,0.1-0.1l0,0c0,0,0.1,0.2,0.3,0L22.5,55c0,0,0,0,0.1,0c0,0,0,0.1-0.1,0.1c0,0.2,0.1,0,0.2,0.1l0-0.1
							c0.1,0,0.2,0.1,0.3,0.2l-0.1,0.1l0.1,0c-0.1,0.1,0,0.2,0,0.1l-0.3,0.1c0-0.1,0.1-0.1,0.1-0.2c0-0.1-0.1-0.1-0.1,0
							c0,0,0,0,0.1,0c-0.1,0.1-0.1,0.1-0.2,0.2c0,0,0,0.1,0,0c-0.1,0-0.1,0-0.2,0c0.1,0,0-0.1,0.1-0.1c-0.1,0.1-0.1,0.1-0.2,0
							c0-0.2-0.2,0-0.3-0.1c0.1-0.1,0.2-0.2,0.3-0.2c0-0.1-0.1,0-0.1-0.1c-0.1,0.1-0.2,0.2-0.3,0.2l0-0.1c-0.1,0-0.2,0.1-0.2,0.1
							c-0.1-0.1-0.3-0.2-0.4-0.3l0-0.1c-0.2,0.2-0.2,0-0.4,0c-0.1-0.2-0.4-0.1-0.3-0.3c-0.3-0.1-0.5-0.1-0.8-0.3l0.1-0.1
							c-0.1,0.1,0-0.1,0-0.1c0,0.1-0.1,0.1-0.2,0.2c-0.1-0.2-0.3-0.1-0.4-0.1l0-0.1c-0.2,0.1-0.2-0.1-0.4-0.2c0,0,0-0.1,0-0.2
							c-0.1,0.1-0.2,0.1-0.3,0.1c-0.1,0-0.2-0.2-0.2-0.3c-0.4,0-0.6-0.3-1-0.3l0-0.1c-0.4,0.1-0.6-0.3-0.9-0.4l0.1-0.2
							c0-0.1-0.2,0-0.3,0.1c0-0.1-0.2,0-0.2-0.2c-0.1-0.1-0.1,0-0.2,0c-0.1-0.2-0.2-0.2-0.3-0.2l0,0c0,0,0.1-0.1,0.1-0.1
							c-0.1,0-0.2-0.2-0.2,0.1c-0.1-0.2-0.4-0.1-0.5-0.4c0,0.1-0.1,0-0.1,0.1c-0.1-0.1-0.2-0.3-0.4-0.2c0,0,0.1-0.1,0-0.1
							c-0.1,0,0,0.1-0.1,0.1c-0.3,0-0.4-0.4-0.6-0.5c-0.4-0.1-0.8-0.4-1.1-0.5l0,0c-0.1,0-0.1,0-0.2-0.1c-0.1-0.1-0.2-0.2-0.4-0.1
							c0-0.1-0.2-0.1-0.1-0.2c-0.2,0-0.3-0.2-0.4-0.3c0-0.1,0-0.2-0.1-0.2c0,0,0,0,0,0c0.1-0.3,0-0.5,0.1-0.8c0,0,0,0.1,0.1,0.1
							c0.1-0.1-0.2-0.2,0-0.3c0,0-0.1,0-0.1,0c0-0.1,0-0.1,0-0.2l0.1-1.2l1,0.6c0.3,0.2,0.6,0.2,0.9,0.3c0.2,0.3-0.2,0.3,0.1,0.3
							c0,0,0.1-0.1,0,0c0.1,0,0,0.3,0.1,0.2c0.1-0.1,0.1,0,0.1-0.1c0.1,0.2,0.1,0.3,0.2,0.3L14.4,49c0.2-0.1,0.3,0.1,0.6-0.1
							c0.7,0.4,1.5,0.7,2.2,1c0.7,0.4,1.4,0.7,2,1.3c0.1,0.3,0.1,0.3,0.3,0.3c0,0,0,0,0,0.1c0.1-0.1,0.1,0.1,0.2-0.1
							c0.2,0.2,0.5,0.3,0.8,0.4c0,0-0.1,0.1-0.1,0.1l0.1-0.1l0,0c0,0,0.1,0,0.1-0.1c0.7,0.3,1.2,0.9,1.9,1.3
							c0.1,0.2,0.4,0.2,0.6,0.3c0,0.1,0.1,0.1,0.2,0.2c0.1,0.1,0.2,0.2,0.3,0.2c0.2,0.2,0.3,0.3,0.5,0.4c0,0.3,0,0.5,0,0.7
							c0,0.1,0,0.2,0,0.3c0,0.1,0,0.2,0,0.2C23.9,55.6,23.5,55.6,23.4,55.3z"/>
						<path class="st1" d="M22.9,55.8c0-0.1,0-0.2,0.1-0.2C22.9,55.6,22.9,55.7,22.9,55.8z"/>
						<path class="st1" d="M21.8,54.2C21.7,54.2,21.7,54.1,21.8,54.2C21.8,54.1,21.8,54.1,21.8,54.2C21.8,54.1,21.8,54.1,21.8,54.2z
							"/>
						<path class="st1" d="M21.4,53.9c0-0.1,0.2-0.1,0.2,0L21.4,53.9z"/>
						<path class="st1" d="M21.2,53.4C21.2,53.4,21.2,53.3,21.2,53.4C21.2,53.4,21.2,53.4,21.2,53.4z"/>
						<path class="st1" d="M21,53.6c0,0,0-0.1,0-0.1C21,53.5,21.1,53.5,21,53.6z"/>
						<path class="st1" d="M20.4,52.9C20.3,52.9,20.3,52.9,20.4,52.9C20.3,52.9,20.4,52.8,20.4,52.9z"/>
						<path class="st1" d="M19.9,52.8C19.9,52.8,19.9,52.8,19.9,52.8C19.9,52.7,19.9,52.7,19.9,52.8L19.9,52.8z"/>
						<polygon class="st1" points="13.2,49.3 13.3,49.2 13.2,49.3 						"/>
						<path class="st1" d="M14.5,50.4C14.5,50.4,14.5,50.5,14.5,50.4C14.4,50.4,14.5,50.4,14.5,50.4z"/>
						<polygon class="st1" points="16.3,51 16.3,51 16.3,50.8 						"/>
					</g>
				</g>
			</g>
		</g>
	</g>
	<g>
		<polygon class="st2" points="23.8,47.3 23,46.8 23.3,40.1 26.5,38.3 		"/>
		<g>
			<g>
				<g>
					<g>
						<path class="st1" d="M23.7,47.5C23.7,47.5,23.7,47.4,23.7,47.5C23.7,47.5,23.7,47.6,23.7,47.5z"/>
						<path class="st1" d="M24.1,47.1c-0.3-0.3,0.2-0.5,0-0.9c0,0,0.2,0.1,0.2,0c-0.2-0.3,0.1-0.7,0.4-0.9l0,0
							c0.1,0-0.1-0.2-0.1-0.2c0,0,0,0,0.1,0c-0.1,0,0-0.1-0.1-0.2c0,0,0.1,0,0.2,0l-0.1-0.1c-0.3-0.2,0.1-0.2,0-0.4c0,0,0,0,0.1,0
							c-0.1-0.3,0-0.5,0-0.8c0,0,0.1,0.1,0.2,0.1c-0.1,0-0.1-0.1-0.1-0.2c0.1,0-0.1-0.2,0-0.2l0,0c-0.1-0.1,0.1-0.1,0-0.2h0.1
							c-0.2-0.1,0.1,0,0-0.1l0,0c0-0.1,0.1,0,0-0.1h0c0-0.1,0.1-0.1,0-0.2c0.1,0,0,0.1,0.2,0.1c-0.1-0.4,0-0.7,0.1-1
							c0.1,0,0.1,0,0.2,0c0,0,0-0.1-0.1-0.2c0,0,0.1,0,0.1,0c0.1,0-0.1-0.1-0.1-0.2c0,0,0.1,0.1,0.1,0.1c-0.1-0.1-0.1-0.2-0.1-0.2
							c0,0,0,0,0.1,0c-0.1-0.1,0.1-0.1,0-0.2l0.1,0c0.1-0.1-0.2-0.1-0.1-0.2c0,0,0.1,0,0.1,0c-0.1-0.1,0-0.2-0.1-0.3c0,0,0,0,0,0
							c0-0.1,0.1-0.2,0-0.3c0,0,0.2,0,0.2-0.1c-0.2,0,0-0.1-0.3-0.1c0-0.1,0.2-0.2,0.1-0.2c0.1,0,0.3-0.1,0.3,0l0.1-0.1
							c0.1,0,0,0.1,0.1,0c0,0,0-0.1,0-0.2c-0.1,0-0.4,0-0.4,0c0.1,0,0.3-0.2,0.3-0.1c-0.1,0-0.3,0.1-0.4,0.1c0,0,0.2-0.1,0.1-0.1
							c-0.1,0-0.1,0-0.1,0.1c0,0,0,0,0.2-0.2c0.1-0.1,0,0,0.1-0.1c0,0-0.1,0-0.1,0l0,0c0-0.1-0.1,0-0.2,0.1c0,0,0.1-0.1,0.1,0
							c-0.1,0.1-0.2,0.1-0.2,0c0,0,0.1-0.1,0.2-0.1c-0.2,0.1-0.2,0.1-0.3,0.2c-0.1,0.1,0.2-0.2,0.2-0.1c0.2-0.3-0.2,0.1,0.1-0.2
							c0,0-0.2,0.2-0.1,0.2c0,0,0.2-0.3,0.1-0.2c0.1-0.1,0,0-0.1,0c-0.1,0.1,0.1-0.1,0.1-0.1c-0.1,0.1-0.2,0.2-0.1,0c0,0,0,0,0-0.1
							c-0.1,0.1-0.3,0.3-0.3,0.4l0.2-0.2c0.1-0.1-0.1,0,0.1-0.2c-0.2,0.3,0.3-0.3,0.1-0.1c0.1-0.2-0.3,0.4-0.1,0.1
							c0,0-0.2,0.3-0.1,0.1c0,0,0.2-0.3,0.2-0.3c-0.1,0.1-0.1,0.1-0.2,0.2l-0.1,0.1c-0.1,0.2,0,0-0.1,0.2c0.1-0.2-0.1,0.1,0.1-0.2
							l0.2-0.3c0,0-0.2,0.3-0.3,0.4c0,0,0-0.1,0.1-0.1c-0.2,0.4,0,0-0.2,0.3c0-0.1-0.1,0,0-0.2c-0.1,0.1-0.1,0.3-0.1,0.2
							c0,0,0,0,0.1-0.1c0-0.1,0,0-0.1,0.1c0,0,0-0.2,0-0.3c-0.1,0.1-0.1,0.3-0.1,0.4c0.1-0.3-0.1,0.2-0.1,0c0,0,0.1-0.2,0.1-0.2
							c0-0.3-0.1,0.3-0.1,0.1l0,0.2c0-0.1-0.1,0.2,0-0.1c0,0.1,0,0,0,0.2c-0.1-0.1-0.1,0.2-0.2-0.1c0,0,0,0,0,0.1c0,0.1,0-0.1,0,0
							c0,0,0,0.1,0,0.1c0,0,0,0-0.1-0.2c-0.1-0.1,0.1,0.3,0,0.3c0-0.1,0-0.1-0.1-0.1l0,0.1c-0.1,0-0.1-0.1-0.2-0.2
							c0,0-0.1,0.1,0,0.2L24,40.1c0.1,0.1,0,0.1,0,0.1c0,0,0,0,0,0c0,0,0,0,0,0c0,0.1,0.1,0.1,0.1,0.1c0,0.1,0,0,0,0.1
							c-0.1-0.1-0.1,0-0.1-0.1c0,0,0,0.1,0,0.1c0,0,0,0-0.1-0.1c0,0,0.1,0,0,0c0,0-0.1-0.1-0.1,0c0,0.1,0.2,0.2,0.1,0.1
							c0,0,0-0.1-0.1-0.1l-0.1,0l0.1,0.1c0,0,0,0,0,0c0.1,0.1,0,0,0.1,0.1c0,0-0.1,0-0.1,0c0,0,0,0,0,0l0,0c-0.1,0,0,0,0,0.1l0,0
							c0,0,0,0,0.1,0.1c-0.1,0-0.4-0.1-0.3,0c0,0,0.2,0.1,0.3,0.1c-0.1,0,0.1,0.1-0.1,0.2c0,0,0.1,0,0.1,0c0,0.2,0.1,0.3-0.1,0.4
							c0,0-0.1,0-0.2,0c0.1,0-0.1,0,0.1,0.1c0.1,0,0.1,0,0.2,0c0,0.1,0,0.2,0,0.3c0,0,0.1,0,0.1,0c-0.2,0-0.2,0-0.1,0.1l0.1,0
							l-0.1,0c0,0,0.2,0,0.1,0.1c0,0-0.1,0-0.1,0c0.1,0.1,0.2,0.1,0.1,0.2l-0.1,0c0,0,0.1,0.1,0.1,0c-0.1,0.1-0.1,0.2-0.2,0.2
							c0.3,0.2,0.3,0.4,0.3,0.6l-0.1,0c-0.1,0,0.1,0,0.1,0.1c-0.1,0-0.1,0-0.2,0c-0.1,0.1,0.1,0.1,0.1,0.2c0.1,0-0.1,0,0.1,0
							c0,0-0.1,0.1,0.1,0.1c-0.1,0-0.2,0-0.2,0l0.1,0c-0.2,0-0.3-0.1-0.5-0.1l0,0c-0.1,0-0.2-0.1-0.2,0c0.1,0,0.3,0.1,0.3,0.1
							c0,0.1,0.3,0.1,0.3,0.2c-0.1,0,0-0.1-0.1-0.1c-0.1,0,0.1,0.1,0,0.1c0.1,0,0.2,0,0.2,0c-0.1,0-0.1,0-0.1,0c0.1,0,0.1,0.1,0.2,0
							c0.2,0-0.1,0.1,0.1,0.1c-0.1,0-0.3-0.1-0.4,0c0.1,0,0.2,0.1,0.4,0.1c0,0-0.1,0-0.2,0c-0.1,0,0.2,0.1,0,0.1l0.1,0
							c0,0-0.1,0-0.1,0c0,0,0.2,0.1,0,0.1c0,0,0,0.1,0.1,0.1c0.1,0-0.1-0.1,0.1-0.1c-0.1,0,0,0.1,0.1,0.1H24c0,0,0,0.1,0.1,0.1
							c0,0-0.1,0-0.1,0l0.1,0c0,0.1-0.2,0-0.2,0.1l-0.1-0.1c0,0-0.1,0-0.1,0.1c0.1,0,0.2,0,0.3,0.1c0,0-0.1,0,0,0.1l-0.1-0.1
							c0,0-0.2,0-0.2,0.1c0,0,0.2,0.1,0.3,0c0,0-0.1,0.1-0.1,0c0,0.1,0.1,0,0.2,0.1c-0.1,0-0.2,0.1-0.3,0.1l-0.2-0.1v0
							c-0.1-0.1-0.1,0-0.3,0c0,0,0,0.1,0.1,0.1c0.3-0.1,0.3,0.1,0.5,0.1c0,0.1-0.5,0-0.2,0.2c0.1,0,0.2,0,0.2,0
							c0,0.1,0.2,0.1,0.1,0.1c-0.1-0.1-0.2,0-0.4,0c0.1,0,0.1,0,0-0.1c-0.1,0-0.2,0-0.2,0c0,0,0,0.1,0.1,0.1c0.1,0,0-0.1,0.1,0
							c0,0.1-0.1,0.1,0.1,0.1c0,0,0.1-0.1,0.2,0l0,0.1l-0.1,0c-0.1,0.1,0.1,0,0.1,0.1l-0.2,0c-0.1,0,0.1-0.1-0.2-0.1
							c0,0.1,0.1,0.1,0,0.1c0,0,0,0,0,0c0,0-0.3,0-0.1,0.1c0.1,0,0.1,0,0.2,0c0,0.1,0.1,0.1,0.1,0.2c-0.2,0,0,0.1-0.2,0
							c0.1,0,0.1-0.2-0.1-0.2c-0.2,0,0-0.1-0.2-0.1c0,0.1-0.2,0.1-0.3,0.1c0,0,0,0,0.1,0.1c0.1,0,0.1,0,0.3,0c0,0.1,0,0.2,0.1,0.2
							c-0.1,0-0.2,0-0.2,0c0,0.1,0,0.2,0,0.3c0.2,0,0,0.1,0.2,0c0,0,0.2,0,0.3,0c0,0-0.1,0-0.1,0c0.1,0-0.2,0,0,0
							c-0.1,0-0.2,0-0.4,0c0.1,0-0.1,0-0.1,0c0.1,0,0.1,0.1,0.2,0.1c-0.1,0.1,0,0.2,0,0.2c0,0,0,0,0,0c0,0.1-0.3,0.2-0.2,0.2
							c0,0,0.1-0.1,0.1,0l0,0c0,0,0,0.2,0.2,0l-0.2,0.1c0,0,0,0,0.1,0c0,0-0.1,0.1-0.1,0.1c0,0.1,0.1,0,0.2,0.1l0-0.1
							c0.1,0,0.1,0.1,0.2,0.1l-0.1,0.1l0.1,0c-0.1,0.1-0.1,0.2,0,0.1l-0.3,0.2c0-0.1,0.1-0.1,0.1-0.2c0-0.1,0-0.1-0.1,0
							c0,0,0,0,0.1,0c-0.1,0.1-0.1,0.1-0.2,0.2c0,0,0,0.1,0,0c-0.1,0-0.1,0-0.2,0c0.1,0,0-0.1,0.1-0.1c-0.1,0.1-0.2,0.1-0.2,0
							c0.1-0.1-0.2,0-0.3-0.1c0.2-0.1,0.3-0.1,0.4-0.1c0-0.1,0,0,0-0.1c-0.1,0-0.3,0.1-0.4,0.1l0.1-0.1c0,0-0.1,0-0.1,0
							c0,0-0.1,0-0.1-0.1c0.1-0.2,0.1-0.4,0.1-0.5l0.1,0c-0.2,0-0.1-0.3-0.2-0.3c0.1-0.1-0.1-0.3,0.1-0.3c-0.1-0.2-0.1-0.4-0.1-0.7
							l0.1,0c-0.1,0,0.1,0,0.1-0.1c-0.1,0-0.1-0.1-0.2-0.1c0.1-0.1,0-0.2-0.1-0.3h0.1c-0.2-0.1,0-0.2,0-0.3c0,0,0.1,0,0.1-0.1
							c-0.2-0.1-0.1-0.1-0.2-0.2c0-0.1,0-0.2,0.1-0.2c-0.2-0.3-0.1-0.5-0.2-0.8l0.1,0c-0.2-0.3,0-0.6-0.1-0.8l0.2,0
							c0.1-0.1,0-0.2-0.2-0.2c0.1-0.1-0.1-0.2,0.1-0.2c0-0.1-0.1-0.1-0.1-0.2c0.1-0.1,0.1-0.2,0-0.3l0,0c0,0,0.1,0,0.1,0
							c0,0,0.1-0.2-0.2-0.1c0.1-0.1-0.1-0.3,0.1-0.5c-0.1,0-0.1,0-0.1,0c0-0.1,0.1-0.4,0-0.6c0,0,0.1,0.1,0.1,0c0-0.1-0.1,0-0.1-0.1
							c0-0.2,0-0.3,0-0.4c0.2-0.1,0.5-0.1,0.6-0.2c0.1-0.1,0.2-0.2,0.3-0.3c0.1,0,0.1-0.1,0.2-0.1c0.2-0.1,0.5-0.3,0.7-0.4v0
							c0.1-0.3,0.4,0,0.5-0.4c0,0,0.1-0.1,0.1,0.1c0.1-0.2,0.3,0,0.5-0.4c0,0,0,0-0.1,0.1c0.1,0,0.4-0.3,0.5-0.2
							c0,0-0.1,0.1-0.1,0.2c0,0.1,0.3-0.4,0.2-0.1c0,0,0.1-0.2,0.1-0.2c0.3-0.1,0.9-0.6,1.4-1c0.1,0.1-0.6,0.8-0.1,0.3
							c0,0.1,0.2-0.2,0.1-0.1c0.1-0.1,0,0,0,0.1c-0.1,0.2-0.2,0.3-0.1,0.2c0.2-0.3,0.1-0.1,0.3-0.3c-0.2,0.4-0.4,0.7-0.3,0.6
							l-0.1,0.1c0.3-0.2,0,0.2,0.4,0c-0.3,1-0.4,2.1-0.7,3.3l-0.1,0.3l-0.1,0.2L26.5,42c-0.1,0.3-0.2,0.6-0.3,0.9
							C26,43,26,43,26,43.2c0,0,0,0-0.1,0c0.1,0,0,0.1,0.1,0.2C26,43.6,26,43.8,25.9,44c0,0-0.1-0.1-0.1,0l0.1,0.1l0,0
							c0,0,0.1,0.1,0.1,0.1c0,0.6-0.5,1.1-0.6,1.7c-0.1,0.1-0.1,0.3-0.1,0.5c-0.3,0.4-0.6,0.7-0.6,1.2
							C24.5,47.5,24.1,47.3,24.1,47.1z"/>
						<path class="st1" d="M23.6,47.5c0-0.1,0-0.1,0.1-0.2C23.6,47.3,23.6,47.4,23.6,47.5z"/>
						<path class="st1" d="M23.5,46.2C23.5,46.2,23.6,46.2,23.5,46.2C23.6,46.2,23.7,46.2,23.5,46.2C23.6,46.2,23.6,46.2,23.5,46.2z
							"/>
						<path class="st1" d="M23.6,45.9c0.1,0,0.1,0.1,0.1,0.1L23.6,45.9z"/>
						<path class="st1" d="M23.9,45.6C24,45.6,24,45.6,23.9,45.6C24,45.6,24,45.6,23.9,45.6z"/>
						<path class="st1" d="M23.8,45.6C23.8,45.5,23.8,45.5,23.8,45.6C23.8,45.5,23.9,45.6,23.8,45.6z"/>
						<path class="st1" d="M24,44.8C24,44.8,23.9,44.8,24,44.8C24,44.8,24.1,44.9,24,44.8z"/>
						<path class="st1" d="M23.9,44.5C23.9,44.5,23.9,44.5,23.9,44.5C23.9,44.4,24,44.5,23.9,44.5L23.9,44.5z"/>
						<polygon class="st1" points="24.8,39.9 24.8,40 24.8,39.9 						"/>
						<path class="st1" d="M25.4,39.9c0.1,0-0.1,0.1-0.1,0.1C25.3,40,25.4,39.9,25.4,39.9z"/>
						<polygon class="st1" points="25.6,40.6 25.6,40.6 25.8,40.6 						"/>
					</g>
				</g>
			</g>
		</g>
	</g>
	<g>
		<polygon class="st3" points="27.7,45.1 23.8,47.3 24.2,40.6 27.4,38.8 		"/>
		<g>
			<g>
				<g>
					<g>
						<path class="st1" d="M27.8,45.3C27.8,45.3,27.7,45.2,27.8,45.3C27.8,45.3,27.8,45.4,27.8,45.3z"/>
						<path class="st1" d="M27.9,44.8c-0.4-0.2,0-0.6-0.3-0.8c0,0,0.2,0,0.1-0.1c-0.3-0.3-0.2-0.7,0-1l0.1,0c0-0.1-0.2-0.1-0.1-0.2
							c0,0,0.1,0,0.1,0c-0.1,0-0.1-0.1-0.1-0.1c0,0,0.1,0,0.2-0.1l-0.1,0c-0.3-0.1,0-0.3-0.2-0.4c0,0,0.1,0,0.1,0
							c-0.2-0.2-0.2-0.5-0.3-0.8c0,0,0.1,0,0.2,0c-0.1,0-0.2-0.1-0.2-0.2c0.1,0-0.1-0.1-0.1-0.2l0,0c-0.2,0,0.1-0.1-0.1-0.1l0.1,0
							c-0.2,0,0.1-0.1,0-0.1h0c0,0,0-0.1,0-0.1l0,0c-0.1-0.1,0-0.2-0.1-0.1c0.1-0.1,0.1,0.1,0.2,0c-0.2-0.3-0.2-0.6-0.2-0.9
							c0.1-0.1,0.1-0.2,0.1-0.2c0,0,0-0.1-0.1,0c0,0,0.1-0.1,0.1-0.2c0-0.1-0.2,0.2-0.1,0c0,0,0.1-0.1,0.1-0.2c-0.1,0.1-0.1,0-0.1,0
							c0,0,0,0,0.1-0.1c-0.1,0.1,0,0,0-0.1c0,0,0,0-0.1,0.1l0.1-0.2c0-0.1-0.2,0.3-0.2,0.3c0-0.1,0.1-0.1,0.1-0.2
							c-0.2,0.3-0.3,0.3-0.4,0.4c0,0,0-0.1,0-0.1c-0.1,0.1-0.1,0-0.2,0.2c0,0,0.1-0.3,0-0.2c0,0.2-0.1,0.2-0.1,0.4
							c0,0-0.1,0-0.2,0.1c0-0.1,0-0.2,0-0.3l0-0.1c0-0.1,0,0,0-0.1c0,0-0.1,0.2-0.2,0.2c0,0.2,0,0.4-0.1,0.5c0-0.1-0.1-0.2-0.1-0.2
							c0,0.1,0,0.3,0,0.4c0,0-0.1-0.1-0.1-0.1c0,0,0,0.1,0,0.1c0,0-0.1,0.1-0.2,0c0,0,0-0.1,0-0.1c0,0,0,0.1-0.1,0.1l0,0
							c0,0-0.1,0.1,0,0.2c0,0-0.1-0.1,0-0.1c0,0.1,0,0.2-0.1,0.2c0,0,0-0.1,0-0.1c0,0.2,0,0.3-0.1,0.3c0,0.1,0-0.2,0-0.1
							c-0.2,0-0.1,0.3-0.3,0.2c0,0,0.1,0.1,0.1,0.1c-0.1,0-0.1-0.1-0.1,0c0-0.1,0,0,0,0.1c0,0.1,0,0,0,0c0,0-0.1,0.1-0.1,0.2
							c0,0-0.1,0.1-0.1,0c0,0,0.1,0.2,0.1,0.2l-0.1-0.1c-0.1,0,0,0-0.1,0c0.1,0.1,0-0.2,0.1,0c-0.1-0.1,0.1,0.2,0,0
							c0,0,0.1,0.1-0.1,0.1c0,0-0.1-0.1-0.1-0.1c0,0,0,0,0,0c0,0,0,0,0.1,0.1l0,0c0.1,0.1,0,0,0.1,0.1c-0.1,0,0,0.1-0.1,0L24.5,41
							c0,0,0.1,0.1,0.2,0.1c0,0,0,0-0.1,0c0.2,0.1,0,0,0.1,0.1c-0.1,0,0,0.1-0.1,0.2c0.1,0.1,0.1,0.1,0.1,0.2c0,0,0,0-0.1,0
							c-0.1,0,0,0,0,0.1c0,0-0.1,0.1-0.2,0.1c0.1,0.1,0.2,0,0.3,0.1c-0.2,0,0.1,0.2-0.1,0.2c0,0-0.1-0.1-0.2,0c-0.2,0,0.2,0.1,0,0.2
							l0.2,0c-0.1,0,0.1,0.1-0.1,0.1c0.1,0-0.1,0.1,0.1,0.1c-0.2,0.1,0.1,0.3-0.3,0.4c0,0,0,0.1,0.1,0.1c0.1,0-0.1,0,0-0.1
							c0,0,0,0,0.1,0c0,0-0.1,0.1-0.2,0c-0.1,0.1,0.3,0.1,0.2,0.2c-0.1,0-0.1,0-0.1,0l0.1,0.1c0,0.1-0.2,0-0.3,0c0,0,0,0.1,0.1,0.1
							l-0.2,0c0.1,0,0.1,0,0.1,0.1l0,0c0,0,0,0,0,0.1c0.1,0,0.1,0,0.1-0.1c0,0,0,0.1,0.1,0.1c-0.1,0-0.1,0.1-0.1,0.1
							c0,0,0.1,0,0.1,0.1c-0.1,0,0,0.1-0.1,0c0,0,0.1,0,0,0c0,0-0.2,0-0.1,0.1c0.1,0,0.2,0,0.2,0.1c0,0-0.1,0-0.1,0l-0.1,0.1l0.1,0
							c0,0,0,0,0,0c0.1,0,0,0.1,0.2,0.1c0,0-0.1,0.1-0.1,0.1l0,0c-0.1,0,0,0.1,0,0.1h0c0,0,0,0.1,0.1,0.1c-0.1,0-0.4,0-0.3,0.1
							c0,0.1,0.2,0.1,0.3,0.1c-0.1,0.1,0.1,0.2-0.1,0.3c0,0,0.1,0,0.1,0c0,0.2,0.1,0.3-0.1,0.4c0,0-0.1,0-0.2,0c0.1,0-0.1,0,0.1,0.1
							c0.1,0,0.1,0,0.2,0c0,0,0,0.1,0,0.2c0,0,0,0-0.1,0c0,0,0.1,0,0.1,0c-0.2,0-0.2,0-0.1,0.1l0.1,0l-0.1,0c0,0,0.2,0,0.1,0
							c0,0-0.1,0-0.1,0c0.1,0,0.2,0,0.1,0l-0.1,0.1c0,0,0.1,0,0.1-0.1c-0.1,0.1-0.1,0.1-0.2,0.2c0.3-0.1,0.3-0.1,0.3-0.1l-0.1,0.1
							c-0.1,0.1,0.1-0.2,0.1-0.1c-0.1,0.1-0.2,0.2-0.3,0.3c-0.1,0.1,0.1-0.1,0.2-0.2c0.1-0.1-0.1,0.1,0.1-0.1c0,0-0.1,0.1,0.1-0.1
							c-0.1,0.1-0.2,0.3-0.2,0.3l0.1-0.1c-0.2,0.3-0.3,0.4-0.5,0.7h0c-0.2,0.3-0.2,0.2-0.2,0.3c0.1-0.1,0.3-0.4,0.4-0.5
							c0,0,0.4-0.5,0.4-0.5c-0.1,0.2,0,0-0.1,0.2c-0.1,0.2,0.1-0.1,0,0c0.1-0.1,0.2-0.3,0.3-0.4l0,0c-0.1,0.1-0.1,0.2-0.1,0.3
							c0.1-0.2,0.2-0.3,0.2-0.4c0.2-0.3,0,0.1,0.1-0.2c-0.1,0.2-0.3,0.5-0.4,0.6c0.1-0.2,0.2-0.3,0.4-0.6c0,0.1-0.1,0.2-0.2,0.4
							c0,0.1,0.2-0.4,0,0l0.1-0.2c0,0.1,0,0.1-0.1,0.2c0,0,0.1-0.3,0,0c0,0,0,0,0.1-0.2c0-0.1-0.1,0.2,0-0.1c-0.1,0.2,0,0,0.1-0.1
							l0,0.1c0,0,0,0,0.1-0.2c0,0.1,0,0.1-0.1,0.2l0.1-0.2c0-0.1-0.1,0.3-0.1,0.2l0,0.1c0,0,0,0.1,0,0.1c0-0.2,0.1-0.3,0.1-0.4
							c0-0.1,0,0.2,0,0l0,0.2c0,0,0,0.2,0,0.2c0-0.1,0.1-0.3,0.1-0.3c0,0,0,0.1,0,0.2c0,0,0-0.2,0-0.2c0,0.1,0,0.2,0,0.3l0,0.2l0,0
							c0,0.2,0,0.1,0,0.3c0,0,0-0.1,0.1-0.1c0-0.3,0-0.4,0-0.6c0-0.1,0.1,0.6,0.1,0.2c0-0.1,0-0.2,0-0.2c0,0,0-0.2,0-0.1
							c0,0.1,0.1,0.2,0.1,0.4c0-0.1,0,0,0,0c0,0.1,0,0.2,0.1,0.2c0,0,0,0,0-0.2c0-0.1,0,0,0-0.1c0-0.1,0.1,0.1,0-0.1
							c0,0-0.1-0.1-0.1-0.2l0,0l0,0.1c0,0-0.1-0.1,0-0.1c0,0,0.1,0.1,0.1,0.1c0,0.2-0.1,0,0,0.2c0,0,0-0.1,0-0.1c0,0,0,0,0,0.1
							c0,0,0.2,0.3,0.2,0c0-0.1,0-0.1-0.1-0.2c0.1-0.1,0-0.2,0.1-0.2c0.1,0.2,0.1,0,0.1,0.1c-0.1-0.1-0.2,0-0.1,0.2
							c0.1,0.2-0.1,0,0,0.2c0.1,0,0.2,0.1,0.2,0.2c0,0,0-0.1,0-0.1c0-0.1-0.1-0.1-0.1-0.2c0.1,0,0.1-0.1,0.1-0.3
							c0.1,0,0.1,0.2,0.1,0.2c0.1-0.1,0.2-0.1,0.3-0.1c-0.2-0.1,0.1-0.1,0-0.2c-0.1,0-0.2-0.1-0.2-0.2c0,0,0,0.1,0.1,0.1
							c0-0.1,0.1,0.1,0.1,0c0,0.1,0.1,0.2,0.2,0.4c0-0.1,0,0.1,0.1,0.1c0-0.1,0.1-0.2,0.1-0.3c0.2,0.1,0.2-0.1,0.3-0.2
							c0.1,0,0.1,0.2,0.2,0.2c0,0-0.1-0.1,0-0.1l0,0c0,0,0.2,0,0.1-0.2l0.1,0.2c0,0,0,0,0-0.1c0,0,0.1,0.1,0.1,0.1
							c0.1,0.1,0.1-0.1,0.1-0.1l-0.1-0.1c0-0.1,0.1-0.1,0.2-0.1l0,0.1l0-0.1c0,0.1,0.1,0.1,0.1,0l0,0.3c-0.1,0,0-0.1-0.1-0.2
							c-0.1-0.1-0.1,0-0.1,0.1c0,0,0,0,0-0.1c0.1,0.1,0,0.2,0.1,0.3c0,0,0.1,0,0,0c0,0.1,0,0.1-0.1,0.1c0-0.1-0.1-0.1-0.1-0.1
							c0.1,0.1,0,0.2,0,0.2c-0.1-0.1-0.1,0.2-0.2,0.2c0-0.1-0.1-0.3,0-0.3c-0.1,0,0,0-0.1,0c0,0.1,0.1,0.3,0.1,0.3l0-0.1
							c0,0.1,0,0.2,0,0.2c-0.1,0-0.3,0.1-0.4,0.1l0-0.1c0.1,0.2-0.1,0.2-0.1,0.3c-0.2,0-0.2,0.2-0.3,0.1c-0.1,0.1-0.1,0.2-0.2,0.3
							c-0.1,0.1-0.3,0.2-0.4,0.3l0-0.2c0,0.1,0-0.1-0.1,0c0.1,0.1,0,0.2-0.1,0.3c-0.1,0-0.3,0.2-0.4,0.4l0-0.1
							c-0.1,0.3-0.3,0.2-0.4,0.2c0,0,0-0.2,0-0.1c-0.1,0.3-0.2,0.3-0.4,0.5c-0.1,0-0.2,0.1-0.3,0c-0.2,0.3-0.4,0.4-0.6,0.5
							c0-0.2,0-0.4,0-0.6l0.1-0.2c-0.3-0.1,0-0.9-0.1-1.1l0.2-0.1c0.1-0.1,0-0.2-0.2-0.1c0.1-0.1-0.1-0.3,0.1-0.4
							c0-0.1-0.1-0.1-0.1-0.2c0.1-0.2,0.1-0.4,0-0.5l0,0c0,0,0.1,0,0.1,0c0,0,0.1-0.2-0.2-0.1c0.1-0.1-0.1-0.3,0.1-0.5
							c-0.1,0-0.1,0-0.1,0c0-0.1,0.1-0.3,0-0.4c0,0,0.1,0,0.1,0c0,0-0.1,0-0.1,0c-0.1-0.2,0.1-0.4,0.1-0.6c-0.1-0.3,0-0.7,0-1l0,0
							c-0.2-0.1,0.2-0.2-0.1-0.3c0,0,0-0.1,0.1-0.1c-0.1-0.1,0.1-0.2,0-0.4c0,0,0,0,0,0c0.1-0.1,0-0.2,0.1-0.4c0,0,0,0,0.1,0
							c0.1,0-0.2-0.1,0-0.2c0,0-0.1,0-0.1,0c0-0.1,0-0.3,0-0.5c0-0.2,0-0.5-0.1-0.7c0.1,0,0.1-0.1,0.2-0.2c0.4-0.1,0.3,0.3,0.4,0
							c0,0,0-0.1,0,0c0-0.1,0.3,0.1,0.3,0c-0.1-0.1,0-0.1,0-0.2c0.2,0,0.3,0.1,0.3,0l0,0.1c0-0.3,0.2-0.2,0.1-0.5l0.4-0.3l0.2-0.2
							l0.4-0.2c0.5-0.3,1.1-0.7,1.6-1c0.3-0.2,0.7-0.4,1-0.6c0,0.8,0.1,1.7,0.1,2.6c-0.2,0.4-0.2,0.4-0.1,0.7c0,0,0,0-0.1,0
							c0.2,0,0,0.2,0.2,0.2c0,0.2,0,0.5,0,0.7c0,0-0.1,0-0.1,0l0.1,0l0,0c0,0,0.1,0.1,0.2,0c0.2,0.6-0.1,1.2,0,1.8
							c-0.1,0.2,0,0.3,0.1,0.5c-0.2,0.5-0.4,0.9-0.2,1.4C28.4,45,28,45,27.9,44.8z"/>
						<path class="st1" d="M27.7,45.4c-0.1-0.1-0.1-0.1-0.1-0.2C27.6,45.3,27.7,45.3,27.7,45.4z"/>
						<path class="st1" d="M26,45.4C26.1,45.4,26,45.4,26,45.4C26,45.3,26,45.3,26,45.4C26,45.3,26,45.3,26,45.4z"/>
						<path class="st1" d="M25.7,45.5c0-0.1,0-0.2,0-0.2L25.7,45.5z"/>
						<path class="st1" d="M25.3,45.4C25.2,45.4,25.2,45.4,25.3,45.4C25.2,45.4,25.2,45.4,25.3,45.4z"/>
						<path class="st1" d="M25.3,45.6C25.3,45.6,25.3,45.6,25.3,45.6C25.3,45.6,25.3,45.5,25.3,45.6z"/>
						<path class="st1" d="M25,45.5C25,45.5,25,45.6,25,45.5C25,45.6,25,45.4,25,45.5z"/>
						<path class="st1" d="M25,45.7C25,45.7,25,45.6,25,45.7c0,0,0-0.1,0-0.1L25,45.7z"/>
						<polygon class="st1" points="24.7,42.1 24.7,42.1 24.6,42.1 						"/>
						<path class="st1" d="M25.6,40.4C25.7,40.4,25.7,40.5,25.6,40.4C25.7,40.5,25.7,40.4,25.6,40.4z"/>
						<polygon class="st1" points="26.6,39.4 26.6,39.5 26.6,39.3 						"/>
					</g>
				</g>
			</g>
		</g>
	</g>
	<g>
		<polygon class="st2" points="11.1,48.2 9.7,47.4 9.7,28.1 38.9,11.2 		"/>
		<g>
			<g>
				<g>
					<g>
						<path class="st1" d="M10.8,48.3c0.3,0.2-0.1-0.2,0.2,0.1C10.9,48.4,10.9,48.4,10.8,48.3z"/>
						<path class="st1" d="M12,47.3c0.4-1.2,1.7-2.2,2.3-3.4c0.1-0.1,0.1,0.2,0.3-0.2c0.5-1.2,1.9-2.7,3-3.8l0,0.1
							c0.2-0.2,0.3-0.6,0.5-0.8c0,0,0,0.1,0.1,0.1c0-0.1,0.3-0.5,0.3-0.6c0.1-0.1,0.2,0,0.3-0.1v-0.2c0-0.6,0.7-1,1-1.6
							c0,0,0,0.1,0,0.1c0.5-1,1.3-2,2-3.1c0,0.1,0,0.2,0.1,0.1c-0.1-0.1,0.1-0.5,0.3-0.7c0.2,0,0.2-0.5,0.5-0.8l0,0
							c0-0.3,0.3-0.3,0.3-0.6l0.2-0.1c-0.1-0.2,0.3-0.3,0.4-0.5l0,0c0.1-0.2,0.2-0.2,0.3-0.4h0c0.2-0.4,0.5-0.6,0.4-0.6
							c0.2-0.1-0.2,0.4,0.1,0.3c0.8-1.4,1.8-2.6,2.8-3.9c0.2-0.1,0.2-0.2,0.3-0.2c0.1-0.1,0.3-0.5,0.4-0.7c0,0,0.1,0,0.2-0.1
							c0.2-0.2,0-0.4,0.3-0.6c0,0.1,0,0.2,0,0.2c0.1-0.3,0.3-0.6,0.5-0.9c0,0.1,0,0.1,0,0.1c0.1-0.4,0.4-0.5,0.5-0.8l0,0.1
							c0.4-0.3-0.1-0.2,0.2-0.5c0,0.1,0,0.1,0,0.1c0.1-0.4,0.5-0.9,0.7-1.3c0,0,0,0,0,0c0.2-0.4,0.5-0.7,0.8-1.1
							c0.1-0.1,0.1,0.2,0.4-0.2c-0.2-0.1,0.4-0.7,0.1-0.6c0.3-0.3,0.7-0.7,0.8-1c0,0.2,0.3,0,0.1,0.3l0.2-0.1c0,0.1-0.2,0.2,0,0.2
							c0.1-0.1,0.3-0.6,0.4-0.6c0.1-0.3,0.1-0.7,0.4-1.1c-0.1,0.2,0.2,0,0.2,0.2l0.1-0.8c0.1-0.1,0.1,0.1,0.2-0.2c0,0,0-0.1,0-0.2
							c0,0,0.4-0.6,0.6-0.5c0.1,0-0.1,0.2,0,0.1c0.2-0.2,0.1-0.3,0.3-0.5l0,0c0.1-0.1,0.3-0.5,0.1-0.4c-0.1,0.1,0.1,0,0,0.1
							c0-0.2,0.2-0.5,0.4-0.7c0,0.1,0,0.1,0,0.2c0-0.2,0.1-0.3,0.2-0.5c0-0.1,0.1-0.2,0.1-0.3c-0.1,0,0.2,0.1,0.1,0.1
							c0.2-0.1,0.3-0.3,0.3-0.4c0-0.1,0.1-0.2,0.3-0.4c0,0-0.3,0.2-0.2,0.1c0.1-0.1,0.4-0.3,0.4-0.3c0.2-0.1,0-0.1,0-0.1
							c-0.1,0.1,0.1-0.1,0.1,0c0,0,0-0.1,0-0.2c0-0.1,0.2-0.3,0.5-0.6c-0.1,0.1-0.3,0.2-0.4,0.3c-0.2,0.1-0.3,0.2-0.3,0.2l0.4-0.4
							c0.2-0.2-0.2,0.1,0.1-0.1c-0.4,0.4,0.2-0.1,0.5-0.3c0,0,0,0-0.1,0.1c0,0,0,0,0.1-0.1c0.1-0.1-0.9,0.7-0.4,0.3
							c-0.2,0.1-0.7,0.5-0.5,0.3c0,0,0.6-0.5,0.4-0.4c-0.3,0.2-0.2,0.2-0.5,0.4l-0.2,0.2c-0.3,0.3-0.1,0.1-0.3,0.3
							c0.2-0.2-0.3,0.3,0-0.1l0.3-0.3c-0.1,0.1-0.4,0.4-0.5,0.6c0,0,0-0.1,0.1-0.1c-0.3,0.4-0.2,0.1-0.4,0.4c-0.1,0-0.3,0.2-0.4,0.1
							c-0.1,0.1-0.1,0.1-0.2,0.2c0,0,0,0.1-0.1,0.1c-0.1,0-0.1,0.1-0.2,0.1c0-0.1,0.1-0.1,0.1-0.1c-0.2,0-0.2,0.1-0.3,0.2
							c0-0.1-0.4,0.1-0.6,0.1c-0.2,0.2-0.1,0.3,0,0.3c-0.3-0.1-0.6,0.5-1,0.5c0.1-0.1,0.3-0.3,0.1-0.2c-0.3-0.1-0.3,0.4-0.8,0.5
							l0.2,0.1c-0.2,0-0.5,0.4-0.5,0.2c-0.1,0.1-0.4,0.2-0.3,0.3c-0.6,0.2-1.3,0.9-1.9,0.8c-0.1,0.1-0.3,0.2-0.2,0.2
							c0.2,0,0.1-0.2,0.2-0.1c-0.1,0-0.1,0.1-0.1,0.1c-0.2,0.1-0.3,0.1-0.3-0.1c-0.5,0.1-0.3,0.5-0.8,0.7c0-0.1-0.1-0.1-0.2,0
							l-0.2,0.3c-0.3,0.2-0.3,0-0.3-0.1c-0.2,0.1-0.4,0.2-0.4,0.4l-0.3,0c0.2,0-0.1,0.1-0.2,0.2l0.1-0.1c-0.1,0-0.2,0.1-0.3,0.2
							c0.1,0,0.3,0,0.4-0.1c-0.1,0.1-0.2,0.2-0.3,0.3c0-0.1-0.3,0.1-0.5,0.2c-0.2,0.1-0.1,0.2-0.2,0.2c0,0-0.3,0.1-0.2,0
							c0,0,0.1,0,0.2-0.1c-0.1,0-0.2-0.1-0.4,0.1c-0.1,0.1,0.2,0.2-0.2,0.3c0.1-0.1,0.1-0.1,0.1-0.2l-0.3,0.1l0,0.1c0,0,0,0-0.1,0
							c0,0.1-0.4,0.3-0.4,0.4c-0.1,0.1-0.4,0.1-0.5,0.2l0,0c-0.2,0-0.4,0.2-0.5,0.4v0c-0.1,0-0.3,0.2-0.4,0.3
							c-0.3,0.1-0.3-0.3-0.5,0c-0.2,0.1-0.3,0.4-0.1,0.4c-0.5,0.2-0.9,0.6-1.4,0.7c0,0.1,0,0.1-0.1,0.2c-0.6,0.3-1.3,0.9-1.9,1
							c0.2-0.1,0-0.1-0.1-0.2c-0.1,0.2-0.2,0-0.2,0.2c0.1,0.1,0.1,0.1,0.3,0.1c-0.4,0.3-0.9,0.6-1.2,0.6c0.1,0,0.1,0,0,0.1
							c0-0.1-0.3,0-0.5,0.1l0,0.1l-0.2,0c-0.1,0.1,0,0.2-0.2,0.3c0,0-0.1,0-0.1,0c-0.2,0.2-0.4,0.5-0.7,0.5l-0.3,0
							c-0.1,0.1-0.2,0.2,0,0.2c-0.4,0.2-0.7,0.3-0.9,0.3c-0.5,0.7-1.5,1.3-2.4,1.7l0-0.1c-0.3,0.1-0.1,0.2-0.2,0.2
							c0-0.1-0.2,0-0.1-0.2c-0.4,0.1-0.3,0.3-0.5,0.5c0,0.1,0.1-0.1,0.1,0c0,0-0.5,0.2-0.4,0.3c-0.1,0-0.1-0.1-0.1-0.2l-0.1,0.2
							c-0.3,0,0.4-0.6,0-0.6l-0.2,0.1c-0.2,0,0.4-0.4-0.1-0.2c-0.1,0.2-0.2,0.5,0,0.4c-0.4,0.3,0,0.4-0.4,0.6
							c-0.2,0,0.3-0.2,0.2-0.3c-0.3,0-0.4,0.3-0.5,0.3c0.2,0,0.1,0.2,0.1,0.2c-0.1,0,0-0.1-0.2-0.1c0,0.1,0,0.1,0.1,0.1
							c0.1,0,0.1,0.1,0.1,0.1c0,0-0.1,0,0,0.1c-0.1,0-0.3-0.2-0.4-0.1c0.1,0,0.1,0.1,0.2,0.1c0.1,0.1,0.1,0.2,0.2,0.1
							c0,0.1-0.1,0.2-0.2,0.1c-0.1,0.2,0.2,0.5,0,0.6l0.1,0.1c0,0.1-0.1,0.2-0.1,0.3c0,0.2,0.2,0.6,0,0.6c0,0.1,0,0.5,0.1,0.3
							c0.1-0.3-0.1-0.3,0.1-0.5c-0.1,0.2,0,0.4,0.1,0.5l-0.1,0c0,0.1,0,0.3,0.1,0.4c0-0.1-0.1,0-0.1,0l0.1,0.1
							c0.1,0.4-0.2,0.1-0.2,0.5l-0.1-0.3c0,0.1-0.1,0.2-0.1,0.4c0.1,0.1,0.2,0.2,0.3,0.3c0.1,0.2-0.1,0.1,0,0.3l-0.1-0.3
							c0,0-0.2,0.2-0.2,0.5c0,0.2,0.2,0.5,0.3,0.2c0,0.1-0.1,0.3-0.1,0.2c0,0.3,0.1,0,0.2,0.2c-0.1,0.1-0.2,0.5-0.3,0.7l-0.2-0.3
							v0.2c-0.1-0.3-0.1,0.1-0.3,0c0,0.1,0,0.3,0.1,0.4c0.2-0.4,0.3,0.4,0.6,0.3c0.1,0.5-0.5,0.3-0.2,0.9c0.1-0.1,0.2,0.2,0.2-0.2
							c0,0.3,0.2,0.2,0.1,0.6c-0.1-0.3-0.2,0.3-0.4-0.1c0.1,0,0.1-0.2,0-0.3c-0.1,0.1-0.2,0-0.2,0.3c0,0.2,0,0.5,0.1,0.4
							c0.1,0,0-0.3,0.1-0.2c0,0.4-0.1,0.5,0.1,0.6c0-0.3,0.1-0.3,0.2-0.3l0.1,0.3l-0.1-0.1c-0.1,0.5,0.1,0.1,0.1,0.6l-0.2,0.2
							c-0.1-0.1,0.1-0.7-0.2-0.6c0,0.3,0.1,0.4,0.1,0.7c0-0.1,0-0.2-0.1-0.2c0,0.1-0.3,0.2-0.1,0.6c0.1,0.2,0.1,0.1,0.2,0.1
							c0,0.5,0.1,0.6,0.1,0.9c-0.2-0.1,0,0.5-0.2,0.2c0.1-0.2,0.1-0.8-0.1-1c-0.2,0.2,0-0.4-0.2-0.5c0,0.4-0.2,0.4-0.3,0.4
							c0,0.1,0.1,0.2,0.1,0.3c0.1,0,0.1-0.1,0.3-0.1c0,0.4,0,0.8,0.1,1.1c-0.1,0.1-0.2,0.1-0.2-0.1c0,0.5,0,1,0,1.5
							c0.2-0.3,0.1,0.5,0.2,0.3c0-0.3,0.2-0.5,0.3-0.3c0,0.2-0.1,0-0.1,0.1c0.1,0.2-0.2,0.3,0,0.5c-0.1-0.5-0.2-0.1-0.4-0.2
							c0.1,0.3-0.1,0-0.1,0.3c0.1,0.3,0.2,0.7,0.2,1.1c-0.1,0.5,0,1.2,0,1.6c-0.1,0.2-0.3,0.1-0.3,0.3c0,0.3,0.2-0.2,0.1,0.2l0,0
							c0,0.1-0.1,0.8,0.1,0.9l-0.2-0.1c0,0.1,0,0.2,0.1,0.2c-0.1,0-0.1,0.1-0.2,0c-0.1,0.3,0,0.5,0,0.8l0.1-0.2c0.1,0.5,0,0.7,0,1
							c0,0,0.1,0,0.1,0l-0.1,0.1l0.3,0.1c-0.1,0,0,0.2,0.2,0.2c-0.2,0-0.5-0.1-0.8-0.2v0c0-0.1,0.1-0.1,0.1,0c0.1,0,0.2,0,0.2,0
							c0,0,0,0,0-0.1c0-0.2,0-0.4-0.1-0.5c0,0.2,0,0.2,0.1,0.3c-0.1,0.1-0.1-0.1-0.3-0.3c0,0.1,0,0.3,0,0.3
							c-0.1-0.2-0.1-0.4-0.1-0.7c0.1,0.2,0.1-0.1,0.1,0c-0.1,0-0.2-0.3-0.1-0.6c0.2-0.2-0.1-0.6-0.1-1c0.1,0.2,0.3,0.4,0.3,0.6
							c0.1-0.3,0-0.3,0.1-0.5c-0.1-0.1-0.3-0.2-0.3-0.5l0.1,0C9.5,44,9.3,44,9.3,43.6c0.1-0.6,0.1-1.3,0.1-1.8l0.1,0
							c-0.2-0.3-0.1-0.9-0.2-1.3c0.1-0.6-0.1-1.4,0.1-1.7c-0.1-1.1-0.1-2.1-0.1-3.2l0.1,0.2c-0.1-0.2,0.1-0.1,0.1-0.3
							c-0.1,0.2-0.1-0.3-0.2-0.4c0.1-0.5,0-1.2-0.1-1.6l0.1,0c-0.2-0.5,0-1,0-1.6c0-0.1,0.1-0.2,0.1-0.3c-0.2-0.3-0.1-0.5-0.3-0.9
							c0-0.3,0-0.9,0.1-1.2c0-0.2-0.1-0.4-0.1-0.6c0-0.3,0-0.7,0-1c0.5-0.3,0.9-0.5,1.4-0.8c0.4-0.2,0.7-0.4,1.1-0.7l0.1,0.1
							c1-0.9,2.4-1.4,3.3-2.1l0,0.2c0.3-0.1,0.6-0.4,0.5-0.5c0.3-0.1,0.7-0.5,0.9-0.5c0.3-0.1,0.3-0.3,0.5-0.5
							c0.6-0.3,0.9-0.4,1.4-0.8l-0.1,0.1c0,0.1,0,0.1,0.1,0.1c0.2-0.2,0.8-0.4,0.5-0.5c0.7-0.2,1.3-0.9,2-1.1
							c-0.1,0,0.1-0.1,0.1-0.2c0.5-0.3,1.1-0.5,1.5-0.9c0.1,0-0.1,0.2,0.1,0.1c0.1-0.1,0-0.1,0.1-0.2c0.8-0.6,1.8-0.9,2.5-1.4
							c1.3-0.9,2.8-1.7,4.1-2.5l0,0.1c0.4-0.4,1.1-0.4,1.3-0.9c0.1,0,0.4-0.2,0.4-0.1c0.3-0.3,1-0.5,1.5-0.9c0,0-0.1,0.1-0.1,0.1
							c0.6-0.2,1-0.6,1.5-0.8c0,0.1-0.1,0.1-0.1,0.2c0.1,0,0.2-0.1,0.3-0.2c0.2-0.1,0.3-0.3,0.5-0.2c0.2-0.1,0.1-0.2,0-0.1
							c1-0.5,2-1.1,3-1.8c1.2-0.7,2.3-1.4,3.5-2.1c0.5-0.2,0.2,0,0,0.2c-0.2,0.2-0.4,0.4,0.1,0c0,0,0,0.1,0,0.1
							c-0.2,0.2,0.3-0.2,0.1-0.1c-0.1,0.2-1.4,1.4-1.1,1.3c0.5-0.5,0.1,0,0.4-0.3c-0.9,1.1-1.3,1.4-1.5,1.8l-0.2,0.1
							c0,0.2-0.2,0.5-0.5,0.9c-0.2,0.4-0.5,0.7-0.5,1c-0.4,0.6-0.8,1.1-1.3,1.7l-0.7,1c-0.5,0.6-0.9,1.3-1.3,1.9
							c-0.9,1.3-1.8,2.5-2.7,3.8c-1.9,2.4-3.6,4.9-5.6,7.3c-0.6,0.5-0.6,0.5-1,1.2c0,0,0-0.1,0-0.1c0.1,0.1-0.3,0.5-0.3,0.6
							c-0.7,0.9-1.3,1.8-2,2.7c0.1-0.2,0-0.3-0.1-0.1l-0.1,0.3h-0.1c-0.1,0.1-0.1,0.3,0,0.2c-1.7,2.5-3.7,4.6-5.4,7
							c-0.5,0.5-1,1.3-1.4,2c-1.5,1.7-2.9,3.2-4.1,5.1C11.7,48.6,11.5,48.1,12,47.3z"/>
						<path class="st1" d="M10.4,48.1c0-0.1-0.2-0.3,0-0.3C10.4,47.9,10.4,48.1,10.4,48.1z"/>
						<path class="st1" d="M10.2,41.4c0,0,0-0.1,0.1-0.1c0,0.1,0.1,0.2,0,0.2C10.3,41.5,10.3,41.5,10.2,41.4z"/>
						<path class="st1" d="M10.3,39.7c0.1,0,0.1,0.4,0.1,0.6L10.3,39.7z"/>
						<path class="st1" d="M10.6,38C10.6,37.9,10.7,37.9,10.6,38C10.6,38.1,10.6,38.1,10.6,38z"/>
						<path class="st1" d="M10.4,37.9c0-0.1,0-0.2,0.1-0.3C10.4,37.6,10.5,37.9,10.4,37.9z"/>
						<path class="st1" d="M10.6,34.3c0-0.1-0.1-0.3,0-0.3C10.6,34.1,10.7,34.4,10.6,34.3z"/>
						<path class="st1" d="M10.5,32.7c0,0,0-0.1,0-0.1C10.5,32.4,10.6,32.5,10.5,32.7L10.5,32.7z"/>
						<polygon class="st1" points="32.3,15.7 32.1,15.8 32.1,15.7 						"/>
						<path class="st1" d="M35.3,15.1c0,0.1-0.1,0-0.1,0C35.3,15,35.3,15.2,35.3,15.1z"/>
						<polygon class="st1" points="31.3,21 31.4,21 31.5,21.1 						"/>
					</g>
				</g>
			</g>
		</g>
	</g>
	<g>
		<polygon class="st0" points="9.7,28.1 11.1,29 40.4,12.1 38.9,11.2 		"/>
		<g>
			<g>
				<g>
					<g>
						<path class="st1" d="M9.9,28c-0.2-0.1,0.1,0.2-0.2,0C9.8,27.9,9.9,27.9,9.9,28z"/>
						<path class="st1" d="M10.5,27.8c0.5-0.8,1.7-1,2.4-1.6c0.1-0.1,0.1,0.2,0.3,0c0.6-0.7,1.9-1.3,3-1.6l0,0.1
							c0.2-0.1,0.3-0.4,0.5-0.5c0,0,0,0.1,0,0.1c0-0.1,0.3-0.3,0.4-0.4c0.1,0,0.1,0.1,0.3,0.1l0-0.2c0.1-0.5,0.7-0.4,1.1-0.8
							c0,0,0,0.1,0,0.1c0.6-0.5,1.4-1,2.1-1.5c0,0.1,0,0.1,0.1,0.2c0-0.1,0.2-0.3,0.4-0.5c0.2,0.1,0.3-0.3,0.5-0.4v0
							c0.1-0.2,0.3-0.1,0.4-0.3l0.2,0c0-0.2,0.3,0,0.4-0.2l0,0c0.1-0.1,0.2-0.1,0.3-0.2l0,0c0.3-0.2,0.5-0.2,0.4-0.4
							c0.2,0-0.3,0.2,0,0.3c0.9-0.7,1.9-1.2,2.8-1.8c0.1,0,0.2,0,0.3,0c0.1-0.1,0.4-0.2,0.4-0.4c0,0,0.1,0,0.2,0
							c0.2,0,0.1-0.3,0.3-0.3c-0.1,0.1-0.1,0.1,0,0.2c0.1-0.2,0.3-0.3,0.5-0.5c0,0-0.1,0.1,0,0.1c0.1-0.2,0.4-0.2,0.5-0.4l0,0.1
							c0.4-0.1,0-0.2,0.3-0.3c0,0.1,0,0.1,0,0.1c0.2-0.3,0.6-0.5,0.8-0.6c0,0,0,0,0,0c0.3-0.2,0.5-0.3,0.8-0.5c0.1,0,0.1,0.2,0.3,0
							c-0.1-0.2,0.4-0.3,0.2-0.4c0.3-0.1,0.7-0.3,0.8-0.4c-0.1,0.1,0.2,0.1,0,0.3l0.2,0c0,0.1-0.2,0.1-0.1,0.1
							c0.1-0.1,0.4-0.3,0.5-0.3c0.1-0.2,0.2-0.5,0.5-0.7c-0.1,0.1,0.2,0.1,0.1,0.2l0.2-0.6c0.1-0.1,0.1,0.1,0.2,0c0,0,0-0.1,0-0.2
							c0,0,0.4-0.3,0.5-0.1c0.1,0-0.1,0.1,0,0.1c0.2-0.1,0.2-0.2,0.3-0.3l0,0c0.1-0.1,0.3-0.3,0.1-0.3c-0.1,0,0.1,0.1-0.1,0.1
							c0-0.1,0.2-0.3,0.4-0.4c0,0.1,0,0.1,0,0.2c0.2-0.3,0.4-0.4,0.7-0.7c0-0.1,0,0.2-0.1,0.2c0.4-0.1,0.6-0.6,1-0.6
							c0,0-0.1-0.1-0.1-0.1c0.2-0.1,0.2,0,0.3-0.1c0,0.1,0.1-0.1,0.2-0.2c0-0.1,0,0,0,0.1c0.1-0.1,0.7-0.6,1.1-0.7
							c0,0,0.1-0.3,0.2-0.3l0,0.1c0.1,0,0.3-0.2,0.3-0.1c0.1-0.2-0.6,0.5-0.4,0.3c0.1,0.1,0.3-0.4,0.3-0.2c0.1-0.1,0.2-0.1,0.2-0.2
							c0.1-0.1,0.2-0.2,0.3-0.2c-0.1,0-0.1,0.3,0,0.1c0.3-0.2,0.1-0.1,0.3-0.3l0.1-0.1l0,0c0-0.1,0.3,0.2,0.2,0
							c0,0.1,0.6,0.3,0.4,0.4l-0.1,0.1c0.2,0.1,0.3,0,0.4,0c0,0,0,0.1,0,0.1c0.1-0.2,0.2,0.2,0.5,0.1c0.1,0.1,0.2,0.2,0.3,0.3
							l0.9,0.6l-0.9,0.4c-0.1,0.1-0.3,0.1-0.3,0.1c-0.1,0.1-0.3,0.3-0.5,0.4c0,0,0.1-0.1,0.1-0.1c-0.2,0-0.2,0.1-0.2,0.2
							c0,0-0.3,0-0.5,0c-0.1,0.1,0,0.2,0,0.3c-0.3-0.1-0.4,0.4-0.7,0.3c0-0.1,0.2-0.2,0-0.2c-0.3-0.1-0.2,0.3-0.5,0.4l0.2,0.1
							c-0.2,0-0.3,0.3-0.4,0.1c0,0.1-0.3,0.1-0.2,0.3c-0.5,0.1-0.9,0.6-1.3,0.5c0,0.1-0.2,0.1-0.1,0.2c0.2,0,0.1-0.1,0.2-0.1
							c0,0,0,0.1,0,0.1c-0.2,0-0.3,0.1-0.2-0.1c-0.3,0.1-0.1,0.4-0.5,0.6c0-0.1-0.1-0.1-0.2,0l-0.1,0.2c-0.2,0.1-0.2-0.1-0.3-0.2
							c-0.1,0.1-0.3,0.2-0.3,0.3l-0.2-0.1c0.2,0-0.1,0.1-0.1,0.2l0-0.1c0,0-0.2,0.1-0.2,0.1c0.1,0.1,0.2,0,0.3,0
							c0,0.1-0.1,0.1-0.2,0.2c0-0.1-0.2,0-0.3,0.1c-0.1,0-0.1,0.2-0.1,0.2c0,0-0.2,0.1-0.1,0c0,0,0.1,0,0.2-0.1
							c-0.1,0-0.1-0.1-0.3,0.1c-0.1,0.1,0.2,0.2-0.1,0.3c0-0.1,0-0.1,0-0.2l-0.2,0.1l0,0.1c0,0,0,0,0,0c0,0.1-0.3,0.2-0.3,0.4
							c-0.1,0.1-0.3,0.1-0.4,0.1l0,0c-0.2,0-0.3,0.1-0.3,0.3l0,0c-0.1,0-0.2,0.1-0.3,0.2c-0.2,0-0.3-0.3-0.4-0.1
							c-0.2,0.1-0.2,0.3-0.1,0.4c-0.3,0.1-0.6,0.5-1,0.5c0,0.1,0,0.1-0.1,0.1c-0.5,0.2-0.9,0.6-1.3,0.7c0.1-0.1,0-0.1-0.1-0.1
							c-0.1,0.1-0.2,0-0.1,0.1c0.1,0.1,0.1,0.1,0.2,0.1c-0.2,0.2-0.6,0.4-0.8,0.4c0.1,0,0.1,0.1,0,0.1c-0.1-0.1-0.3-0.1-0.4,0.1
							l0,0.1L28,20c0,0.1,0,0.2-0.1,0.2c0,0,0-0.1-0.1-0.1c-0.1,0.2-0.3,0.4-0.5,0.4l-0.2,0c-0.1,0-0.1,0.2,0,0.2
							c-0.3,0.1-0.5,0.2-0.7,0.1c-0.3,0.5-1,1-1.6,1.3l0-0.1c-0.2,0,0,0.2-0.1,0.2c0-0.1-0.2-0.1-0.1-0.2c-0.3,0.1-0.2,0.3-0.3,0.4
							c0,0.1,0.1-0.1,0.1,0c0,0-0.3,0.1-0.3,0.3c-0.1,0-0.1-0.1-0.1-0.2l-0.1,0.1c-0.3,0,0.2-0.5-0.1-0.6L23.6,22
							c-0.2-0.1,0.2-0.3-0.1-0.2c-0.1,0.1-0.1,0.4,0,0.4c-0.3,0.2,0,0.4-0.3,0.5c-0.1,0,0.2-0.2,0.1-0.2c-0.2,0-0.3,0.2-0.4,0.3
							c0.2,0,0.1,0.2,0,0.2c-0.2,0,0-0.2-0.2-0.1c0,0.1-0.2,0.3,0,0.2c0,0.2-0.3,0.1-0.3,0.3c-0.1-0.1,0.1-0.4-0.2-0.3
							c0.1,0.1-0.2,0.3,0,0.4c-0.1,0-0.2-0.1-0.1-0.2c-0.2,0-0.2,0.4-0.4,0.2l0,0.1c-0.1,0-0.1,0-0.2,0c-0.1,0.1-0.3,0.4-0.4,0.2
							c0,0-0.3,0.2-0.1,0.3c0.2,0,0.1-0.2,0.3-0.1c-0.2-0.1-0.2,0.1-0.3,0.3l0-0.1c0,0.1-0.2,0.1-0.2,0.2c0-0.1,0-0.1-0.1-0.1v0.1
							c-0.2,0.2-0.2-0.1-0.4,0l0.1-0.2c0,0-0.2,0-0.3,0.1c0,0.1,0,0.3,0,0.4c-0.1,0.1-0.1-0.1-0.2,0.1l0.1-0.2c0,0-0.2-0.1-0.4,0
							c-0.1,0.1-0.2,0.3,0,0.3c-0.1,0-0.2,0.1-0.2,0c-0.2,0.1,0.1,0.1,0,0.2c-0.1,0-0.4,0-0.5,0l0.1-0.3l-0.1,0.1
							c0.1-0.2-0.1,0-0.1-0.2c-0.1,0-0.2,0.1-0.2,0.2c0.4,0.1-0.1,0.4,0.1,0.6c-0.3,0.2-0.5-0.4-0.6,0.1c0.1,0,0,0.3,0.2,0.1
							c-0.2,0.1,0,0.3-0.3,0.3c0.1-0.2-0.3-0.1-0.1-0.3c0,0.1,0.2,0,0.2-0.1c-0.1,0-0.1-0.2-0.3-0.1c-0.1,0.1-0.3,0.2-0.2,0.3
							c0.1,0.1,0.2-0.1,0.2,0c-0.2,0.2-0.4,0-0.4,0.3c0.1-0.1,0.3,0,0.3,0.1l-0.1,0.1l0-0.1c-0.3,0.1,0,0.2-0.3,0.3l-0.2-0.1
							c0-0.2,0.4-0.2,0.3-0.4c-0.2,0.1-0.2,0.2-0.4,0.3c0,0,0.1-0.1,0.1-0.1c-0.1,0-0.3-0.2-0.5,0.1c-0.1,0.1,0,0.1,0,0.2
							c-0.3,0.2-0.3,0.3-0.5,0.4c0-0.2-0.3,0.2-0.2-0.1c0.1,0,0.6-0.2,0.6-0.4c-0.2-0.1,0.2-0.1,0.2-0.3c-0.2,0.1-0.3,0-0.4-0.1
							c-0.1,0-0.1,0.1-0.1,0.1c0,0.1,0.1,0.1,0.2,0.2c-0.3,0.1-0.5,0.3-0.6,0.5c-0.1,0-0.1-0.1-0.1-0.2c-0.3,0.2-0.6,0.4-0.9,0.5
							c0.3,0.1-0.3,0.2-0.1,0.3c0.2,0,0.4,0,0.3,0.1c-0.1,0,0-0.1-0.1-0.1c-0.1,0.2-0.3,0-0.3,0.2c0.3-0.2-0.1-0.2-0.1-0.4
							c-0.2,0.2-0.1-0.1-0.3,0c-0.2,0.2-0.4,0.4-0.6,0.6c-0.4,0-0.7,0.4-1,0.6c-0.2,0-0.2-0.2-0.3-0.1c-0.2,0.1,0.2,0.1-0.1,0.2l0,0
							c-0.1,0.1-0.5,0.2-0.5,0.4l0-0.2c-0.1,0-0.1,0.1-0.1,0.1c0,0-0.1-0.1-0.1-0.1c-0.2,0-0.3,0.2-0.5,0.3c0,0,0.1,0,0.1,0
							c-0.1,0.1-0.2,0.2-0.3,0.2c-0.2-0.1-0.4-0.3-0.6-0.4l0.1-0.1l-0.2,0c0.1-0.1,0-0.2-0.2-0.2c0.2,0,0.4,0,0.5,0
							c0.1,0.1-0.2,0.1-0.1,0.2c0,0.1,0.3,0.3,0.4,0.2c-0.1-0.1-0.1,0-0.2,0c0-0.2,0.1-0.1,0.2-0.2c0,0-0.1-0.1-0.1-0.1
							c0.1,0,0.1,0,0.2,0c0,0,0.1,0,0.1-0.1c-0.1,0.1,0.1,0.1,0,0.1c0-0.2,0.1-0.3,0.3-0.3c0.2,0,0.3-0.3,0.6-0.4
							c0,0.2-0.1,0.3-0.2,0.5c0.2,0,0.2-0.1,0.4-0.1c0-0.1,0-0.3,0.2-0.5l0.1,0.1c0.1-0.1,0.1-0.3,0.3-0.4c0.4-0.2,0.8-0.4,1.1-0.6
							l0.1,0.1c0.1-0.3,0.5-0.4,0.7-0.6c0.4-0.1,0.8-0.6,1.1-0.5c0.6-0.5,1.2-0.9,1.9-1.2l0,0.2c0.1-0.2,0.1,0,0.2-0.1
							c-0.2,0,0.1-0.2,0.1-0.4c0.4-0.1,0.7-0.4,0.9-0.7l0.1,0.1c0.2-0.3,0.6-0.4,1-0.5c0.1,0,0.2,0.1,0.3,0c0.1-0.3,0.2-0.3,0.4-0.5
							c0.2-0.1,0.5-0.3,0.8-0.3c0.6-0.6,1.5-1,2.2-1.5l0.1,0.1c0.6-0.7,1.7-1,2.3-1.5l0,0.2c0.2-0.1,0.4-0.3,0.3-0.4
							c0.2-0.1,0.5-0.4,0.7-0.3c0.2-0.1,0.2-0.2,0.4-0.4c0.5-0.2,0.6-0.3,1-0.5l-0.1,0c0,0.1,0,0.1,0.1,0.1c0.1-0.1,0.6-0.3,0.3-0.4
							c0.5-0.1,0.9-0.7,1.4-0.7c-0.1,0,0-0.1,0-0.2c0.4-0.2,0.8-0.3,1.1-0.6c0.1,0,0,0.1,0.1,0.1c0.1-0.1,0-0.1,0-0.2
							c0.5-0.4,1.3-0.6,1.8-0.9c0.9-0.7,1.9-1.2,2.9-1.8l0,0.1c0.2-0.3,0.8-0.3,0.9-0.6c0.1,0,0.3-0.1,0.3,0c0.2-0.3,0.8-0.3,1-0.6
							c0,0,0,0-0.1,0.1c0.4-0.1,0.7-0.4,1.1-0.6c0,0-0.1,0.1-0.1,0.1c0.2,0,0.3-0.4,0.4-0.2c0.1-0.1,0-0.1,0-0.1
							c0.2-0.1,0.3-0.1,0.5-0.2v1.2c-0.2-0.1-0.5-0.3-0.7-0.4l-0.2-0.1c0,0,0,0-0.1,0l-0.1,0l-0.1,0.1l0,0c0,0-0.1,0.1-0.1,0.1
							C38,12.6,38.4,12,38,12.4c-0.1,0,0,0.1,0,0.1c-0.2,0.2-0.4-0.1-0.5,0.1c0.1,0.1,0,0.1,0,0.2c-0.4,0.1-0.6,0.1-0.8,0.3l0-0.1
							c-0.2,0.4-0.7,0.5-0.9,0.9c-1.9,1.2-3.7,2.3-5.6,3.5c-1.9,1-3.7,2.2-5.6,3.2c-0.5,0.1-0.6,0.1-1,0.5c0,0,0-0.1,0-0.1
							c0.1,0.2-0.3,0.2-0.3,0.4c-0.7,0.4-1.3,0.8-2.1,1.2c0.1-0.1,0.1-0.2,0-0.1L21,22.6l0,0c-0.1,0.1-0.1,0.2,0,0.2
							c-1.7,1.2-3.7,1.9-5.4,3c-0.5,0.2-1,0.6-1.5,0.9c-1.5,0.6-2.8,1.1-4.1,2.1C10,28.7,10,28.3,10.5,27.8z"/>
						<path class="st1" d="M10.2,28.1c0,0.1,0.1,0.2,0,0.3C10.2,28.3,10.2,28.2,10.2,28.1z"/>
						<path class="st1" d="M14.6,27.6c0,0,0.1,0,0.1,0c-0.1,0-0.1,0.1-0.1,0.1C14.6,27.7,14.6,27.7,14.6,27.6z"/>
						<path class="st1" d="M15.7,27c0,0.1-0.2,0.3-0.3,0.3L15.7,27z"/>
						<path class="st1" d="M16.8,26.7c0.1,0,0.1,0,0,0.1C16.8,26.8,16.8,26.8,16.8,26.7z"/>
						<path class="st1" d="M16.8,26.5c0.1,0,0.1,0,0.2,0C17,26.5,16.9,26.7,16.8,26.5z"/>
						<path class="st1" d="M19.1,25.5c0,0,0.1-0.1,0.2-0.1C19.2,25.3,19.1,25.6,19.1,25.5z"/>
						<path class="st1" d="M20.1,24.8C20.1,24.8,20.1,24.8,20.1,24.8C20.2,24.7,20.2,24.8,20.1,24.8L20.1,24.8z"/>
						<polygon class="st1" points="38.4,13.9 38.3,14 38.3,13.9 						"/>
						<path class="st1" d="M34.4,13.2c-0.1,0.1-0.1,0-0.1,0C34.3,13.1,34.3,13.3,34.4,13.2z"/>
						<polygon class="st1" points="30.2,16 30.2,16 30.3,16.2 						"/>
					</g>
				</g>
			</g>
		</g>
	</g>
	<g>
		<polygon class="st4" points="40.4,31.3 11.1,48.2 11.1,29 40.4,12.1 		"/>
		<g>
			<g>
				<g>
					<g>
						<path class="st1" d="M40.3,31.7c0.3-0.2-0.3,0,0.2-0.2C40.5,31.6,40.5,31.6,40.3,31.7z"/>
						<path class="st1" d="M40.6,30c-0.4-1.3,0-2.9-0.2-4.3c0-0.2,0.2,0,0.2-0.3c-0.3-1.3-0.1-3.4,0.1-5l0.1,0.1
							c0-0.3-0.2-0.7-0.1-1c0,0,0.1,0.1,0.1,0c-0.1-0.1,0-0.6-0.1-0.7c0-0.1,0.1-0.1,0.2-0.3l-0.1-0.2c-0.3-0.5,0-1.3-0.1-2
							c0,0,0.1,0.1,0.1,0c-0.2-1.1-0.2-2.6-0.2-3.7c0,0,0.1-0.1,0.2-0.2c-0.1,0.1-0.1,0-0.2-0.2c-0.1,0.1-0.2,0.1-0.3,0.2
							c0-0.1-0.2,0-0.3,0.2c-0.2,0.1-0.3,0.3-0.4,0.3l0-0.1c-0.2,0.3-0.3,0.1-0.5,0.4l-0.2,0c0,0.2-0.4,0.1-0.6,0.3l0,0
							c-0.2,0.2-0.3,0.1-0.5,0.3l0,0c-0.4,0.3-0.7,0.3-0.6,0.5c-0.2,0,0.4-0.3,0.1-0.3c-1.3,1-2.8,1.8-4.3,2.6c-0.2,0-0.3,0.1-0.4,0
							c-0.1,0.1-0.5,0.3-0.6,0.5c0,0-0.1,0-0.2,0c-0.3,0.1-0.2,0.3-0.5,0.4c0.1-0.1,0.1-0.2,0-0.2c-0.2,0.3-0.5,0.4-0.8,0.6
							c0,0,0.1-0.1,0.1-0.1c-0.3,0.3-0.6,0.3-0.8,0.5l0.1-0.1c-0.5,0.2,0,0.2-0.5,0.4c0.1-0.1,0-0.1,0-0.1c-0.3,0.4-0.9,0.6-1.2,0.9
							c0,0,0,0,0,0c-0.4,0.2-0.8,0.4-1.2,0.8c-0.2,0-0.1-0.2-0.5,0c0.1,0.1-0.7,0.5-0.3,0.5c-0.4,0.2-1,0.4-1.2,0.6
							c0.1-0.1-0.3-0.1,0-0.3l-0.3,0c0-0.1,0.2-0.1,0.1-0.1c-0.1,0.1-0.5,0.4-0.7,0.5c-0.2,0.3-0.4,0.6-0.8,0.9
							c0.2-0.2-0.2-0.1-0.1-0.2l-0.4,0.7c-0.1,0.1-0.1-0.1-0.3,0.1c0,0,0,0.1-0.1,0.2c-0.1,0-0.6,0.4-0.7,0.3c-0.1,0,0.2-0.2,0-0.1
							c-0.3,0.2-0.3,0.2-0.5,0.4l0,0c-0.2,0.1-0.5,0.4-0.2,0.4c0.1-0.1-0.1-0.1,0.1-0.1c-0.1,0.2-0.4,0.4-0.6,0.5
							c0.1-0.1,0-0.1,0-0.2c-0.3,0.3-0.7,0.6-1,0.9c0,0.1,0.1-0.2,0.2-0.2c-0.6,0.2-1,0.8-1.5,0.9c0.1,0,0.1,0.1,0.1,0.1
							c-0.3,0.1-0.3,0-0.5,0.2c0,0-0.2,0.1-0.4,0.3c-0.1,0.1-0.1,0,0.1-0.1c-0.2,0.2-1.1,0.8-1.7,1c0,0-0.2,0.4-0.4,0.4l0-0.1
							c-0.1,0-0.4,0.3-0.5,0.2c-0.2,0.3,1-0.7,0.7-0.4c-0.1,0-0.4,0.5-0.4,0.3c-0.3,0.1-0.4,0.4-0.7,0.5c0.1,0,0.1-0.3-0.1-0.1
							c-0.4,0.2-0.1,0.1-0.3,0.3l-0.2,0.1c0,0.1-0.3,0.2-0.1,0.2c-0.1,0-0.5,0.4-0.6,0.2l0-0.1c-0.1,0.1-0.2,0.3-0.3,0.4
							c0,0-0.1,0-0.1,0c0.1,0.2-0.4,0.2-0.5,0.5c-0.1,0-0.2,0.1-0.3,0.1c0,0.1,0,0.2-0.1,0.2c0.1,0.2,0.1,0.5,0.1,0.8
							c0-0.1,0-0.2-0.1-0.2c-0.1,0.2,0,0.3,0,0.5c0,0-0.1,0.4-0.2,0.6c0.1,0.3,0.2,0.2,0.3,0.2c-0.2,0.3,0.1,0.8-0.1,1.1
							c0-0.1-0.1-0.4-0.2-0.2c-0.2,0.3,0.2,0.5,0.1,1l0.2-0.1c-0.1,0.2,0.1,0.6-0.1,0.6c0.1,0.1-0.1,0.5,0.1,0.5
							c-0.1,0.7,0.1,1.7-0.2,2.1c0,0.1,0,0.3,0.1,0.3c0.1-0.2-0.1-0.2,0-0.3c0,0.1,0.1,0.1,0.1,0.1c0,0.2-0.1,0.4-0.2,0.2
							c-0.1,0.5,0.3,0.5,0.2,1.1c-0.1,0-0.1,0-0.1,0.2l0.1,0.3c0,0.4-0.2,0.2-0.3,0.2c0,0.2,0,0.5,0.1,0.6l-0.2,0.3
							c0.1-0.2,0.1,0.2,0.1,0.3l0-0.1c-0.1,0,0,0.3,0,0.4c0.1,0,0.1-0.3,0.1-0.4c0.1,0.1,0,0.3,0.1,0.4c-0.1,0-0.1,0.3-0.1,0.5
							c0,0.2,0.1,0.2,0.1,0.3c-0.1,0,0,0.3-0.1,0.2c0-0.1,0.1-0.2,0-0.3c-0.1,0.1-0.2,0.1-0.1,0.4c0.1,0.2,0.2,0,0.2,0.3
							c0-0.1-0.1-0.1-0.1-0.2l-0.1,0.3l0.1,0c0,0,0,0-0.1,0c0.1,0.1,0,0.5,0.2,0.6c0,0.2-0.1,0.4-0.1,0.5l0,0
							c-0.1,0.2,0,0.5,0.1,0.7l0,0c0,0.1,0,0.4,0.1,0.5c-0.1,0.3-0.4,0.1-0.3,0.4c0,0.3,0.2,0.5,0.3,0.3c-0.1,0.5,0.1,1.1-0.1,1.6
							c0,0,0.1,0.1,0.1,0.1c0,0.3,0.1,0.4,0,0.7c0,0,0.1,0,0.1,0.1c-0.1,0.1-0.1,0.2-0.1,0.3c0.1-0.2,0.1,0.1,0.2-0.2
							c0-0.1,0.1-0.2,0-0.2c0.2-0.2,0.3-0.3,0.5-0.2c-0.1,0-0.1,0,0-0.1c0.1,0.2,0.4,0,0.6-0.2l0-0.1h0.2c0.1-0.1,0-0.2,0.3-0.3
							c0,0,0.1,0,0.1,0c0.2-0.2,0.4-0.5,0.7-0.6l0.3,0c0.1-0.1,0.2-0.3,0-0.2c0.5-0.2,0.7-0.3,0.9-0.3c0.6-0.7,1.6-1.3,2.5-1.8
							l0,0.1c0.3-0.1,0-0.2,0.2-0.2c0,0.1,0.3,0,0.1,0.2c0.4-0.1,0.4-0.3,0.5-0.5c0-0.1-0.1,0.2-0.2,0c0,0,0.5-0.2,0.5-0.3
							c0.1,0,0.1,0.1,0.1,0.2l0.2-0.2c0.3,0-0.4,0.6,0,0.6l0.2-0.1c0.3,0-0.4,0.4,0.1,0.2c0.2-0.2,0.2-0.5,0-0.4
							c0.4-0.3,0-0.4,0.5-0.7c0.2,0-0.4,0.2-0.2,0.3c0.3,0,0.4-0.3,0.6-0.4c-0.2,0.1-0.1-0.2,0-0.3c0.3-0.1-0.1,0.2,0.3,0
							c0-0.1,0.3-0.3,0-0.2c0-0.2,0.4-0.2,0.5-0.4c0.2,0.1-0.2,0.5,0.2,0.3c-0.1-0.1,0.4-0.4,0.1-0.5c0.2,0,0.2,0,0.2,0.2
							c0.2,0,0.4-0.5,0.5-0.3v-0.2c0.1,0,0.2,0,0.3,0c0.2-0.1,0.5-0.5,0.6-0.3c0,0,0.5-0.3,0.2-0.3c-0.3,0.1-0.2,0.3-0.5,0.2
							c0.3,0,0.4-0.2,0.5-0.3l0.1,0c0.1-0.1,0.3-0.2,0.3-0.3c0,0.1,0,0.1,0.1,0.1l0-0.2c0.3-0.3,0.2,0.1,0.5-0.1l-0.2,0.2
							c0,0,0.2,0,0.4-0.2c0-0.1,0.1-0.3,0.1-0.4c0.2-0.2,0.1,0.1,0.3-0.2l-0.2,0.3c0,0,0.3,0.1,0.5-0.1c0.1-0.1,0.3-0.4,0-0.3
							c0.1-0.1,0.3-0.1,0.3,0c0.3-0.2-0.1-0.1,0.1-0.3c0.1,0,0.5-0.1,0.8-0.1l-0.2,0.3l0.2-0.1c-0.1,0.3,0.2,0,0.1,0.2
							c0.1,0,0.3-0.2,0.3-0.3c-0.5,0,0.2-0.5,0-0.6c0.4-0.3,0.6,0.3,0.9-0.3c-0.1,0,0-0.3-0.2-0.1c0.3-0.2,0.1-0.3,0.5-0.4
							c-0.2,0.2,0.4,0,0.1,0.4c0-0.1-0.2,0.1-0.3,0.1c0.2,0,0.1,0.2,0.4,0c0.2-0.1,0.4-0.3,0.3-0.3c-0.1-0.1-0.3,0.2-0.2,0
							c0.3-0.3,0.5-0.1,0.5-0.4c-0.2,0.2-0.3,0.1-0.4,0l0.2-0.2l0,0.1c0.5-0.2,0-0.2,0.5-0.4l0.3,0c0,0.2-0.6,0.3-0.5,0.5
							c0.3-0.2,0.3-0.3,0.6-0.4c0,0-0.1,0.1-0.2,0.2c0.1,0,0.4,0.2,0.6-0.2c0.2-0.2,0-0.1,0-0.2c0.4-0.3,0.5-0.4,0.8-0.6
							c0,0.2,0.5-0.3,0.3,0.1c-0.2,0-0.8,0.4-0.9,0.6c0.3,0.1-0.4,0.2-0.4,0.4c0.4-0.2,0.4,0,0.5,0.1c0.1,0,0.2-0.2,0.2-0.2
							c0-0.1-0.1,0-0.2-0.2c0.4-0.2,0.8-0.5,0.9-0.7c0.2,0,0.2,0.1,0,0.2c0.4-0.3,1-0.6,1.4-0.8c-0.4,0,0.5-0.3,0.2-0.4
							c-0.3,0.1-0.5,0.1-0.5-0.1c0.2-0.1,0,0.1,0.1,0.1c0.1-0.2,0.4,0,0.5-0.3c-0.4,0.3,0,0.3,0,0.4c0.3-0.3,0,0.1,0.3-0.1
							c0.3-0.3,0.6-0.5,0.9-0.8c0.5-0.1,1.1-0.6,1.5-0.8c0.2,0,0.2,0.2,0.4,0.1c0.3-0.2-0.3-0.1,0.1-0.2l0,0
							c0.1-0.1,0.8-0.3,0.7-0.6l0,0.2c0.1,0,0.1-0.1,0.2-0.2c0,0,0.1,0,0,0.2c0.3,0,0.5-0.3,0.7-0.5h-0.2c0.4-0.3,0.7-0.4,1.1-0.7
							l0,0.1l0.2-0.2c0,0.1,0.3,0.1,0.3-0.1L39,32.3c-0.2,0,0.1-0.2,0-0.3c-0.1,0-0.5,0.2-0.5,0.3c0.2-0.1,0.2-0.1,0.2-0.2
							c0.1,0.1-0.1,0.2-0.2,0.4c0.1,0,0.2-0.1,0.2-0.1c-0.1,0.2-0.3,0.3-0.5,0.4c0.1-0.2-0.1,0-0.1-0.1c0,0.1-0.2,0.3-0.5,0.5
							c-0.3,0-0.5,0.4-0.9,0.6c0.1-0.2,0.2-0.4,0.4-0.6c-0.3,0.1-0.3,0.2-0.5,0.2c-0.1,0.2-0.1,0.3-0.3,0.6l-0.1-0.1
							c-0.2,0.2-0.2,0.3-0.5,0.5c-0.6,0.3-1.2,0.6-1.7,0.9l-0.1-0.1c-0.1,0.3-0.8,0.5-1.1,0.8c-0.6,0.2-1.2,0.8-1.6,0.8
							c-1,0.7-1.8,1.2-2.9,1.8l0.1-0.2c-0.1,0.2-0.2,0-0.3,0.1c0.3,0-0.2,0.3-0.3,0.4c-0.5,0.2-1,0.6-1.4,1l-0.1-0.1
							c-0.3,0.4-0.9,0.5-1.4,0.8c-0.1,0-0.2,0-0.4,0.1c-0.2,0.3-0.4,0.4-0.7,0.7c-0.3,0.2-0.8,0.4-1.1,0.5c-1,0.8-2.2,1.4-3.3,2.2
							l-0.1,0c-1,0.9-2.5,1.5-3.4,2.2l0-0.2c-0.3,0.1-0.7,0.5-0.5,0.5c-0.3,0.1-0.7,0.5-1,0.5c-0.3,0.2-0.3,0.3-0.6,0.5
							c-0.2,0.1-0.3,0.1-0.4,0.2c-0.1,0.1-0.2,0.1-0.4,0.2c-0.4,0.2-0.7,0.4-1.2,0.7l0.3-0.1c0.1-0.1,0.1-0.2-0.1-0.1
							c-0.4,0.3-1.3,0.7-1.1,0.8c-0.1,0.1-0.3,0.1-0.5,0.2c0-0.6,0-1.2,0-1.8c0-0.3,0-0.6,0-0.9c0-0.2,0-0.3,0-0.4
							c0-0.1,0-0.2,0.1-0.3c-0.1,0.1-0.1-0.1-0.1-0.2c0-0.6,0.1-1.3,0-1.8c0-0.1,0.1,0.2,0.1-0.1c0-0.2-0.1,0-0.1-0.2
							c-0.1-1,0.1-2.1,0.1-3c-0.1-1.7-0.1-3.4-0.1-5l0.1,0c-0.2-0.5,0.2-1.3-0.1-1.7c0.1-0.1,0-0.5,0.1-0.4c-0.1-0.4,0.1-1.2,0-1.8
							c0,0.1,0,0.1,0,0.1c0.1-0.6,0-1.2,0.1-1.8c0,0.1,0,0.2,0.1,0.2c0.1-0.3-0.2-0.6,0-0.7c0-0.1-0.1-0.1-0.1,0l0-0.5
							c0-0.2,0-0.4,0-0.6c1-0.6,1.4-0.8,1.9-1.2c0.5-0.3,1.1-0.7,1.6-1c1-0.4,0.3,0.3,0.9-0.3c0.1,0,0-0.1,0-0.1
							c0.3-0.2,0.6,0,0.7-0.3c-0.1-0.1,0.1-0.1,0.1-0.2c0.6-0.3,0.8-0.2,1.2-0.5v0.1c0.4-0.5,1.1-0.7,1.4-1.2
							c2.9-1.7,5.6-3.4,8.4-5.1c2.8-1.6,5.5-3.2,8.4-4.8c0.8-0.2,0.8-0.2,1.5-0.7c0,0-0.1,0.1,0,0.1c0-0.2,0.5-0.3,0.5-0.5
							c0.3-0.1,0.5-0.3,0.7-0.4l0.9-0.5c0.9-0.5,1.8-1.1,2.8-1.6c0,0.1,0,0.3,0,0.4c0-0.4-0.2-0.3-0.1,0.1l0.1,0.3l0,0.1
							c0,0.3,0.1,0.5,0.2,0.1c0,0.8,0,1.6,0,2.3V15l-0.1,2.3c-0.1,1.5-0.1,3.1-0.1,4.6c-0.1,0.7,0,1.8,0,2.5
							c-0.2,2.3-0.4,4.4-0.2,6.8C41.1,31.3,40.7,31,40.6,30z"/>
						<path class="st1" d="M39.9,31.9c-0.1,0-0.4,0.1-0.2-0.1C39.8,31.8,39.9,31.8,39.9,31.9z"/>
						<path class="st1" d="M33.2,34.8c0,0-0.1,0-0.1,0c0.1,0,0.1-0.2,0.2-0.2C33.2,34.7,33.2,34.8,33.2,34.8z"/>
						<path class="st1" d="M31.6,35.7c0-0.1,0.3-0.3,0.5-0.5L31.6,35.7z"/>
						<path class="st1" d="M29.9,36.3c-0.2,0-0.1,0,0-0.1C30,36.2,29.9,36.3,29.9,36.3z"/>
						<path class="st1" d="M29.9,36.5c-0.1,0.1-0.2,0.1-0.3,0.1C29.6,36.6,29.9,36.4,29.9,36.5z"/>
						<path class="st1" d="M26.5,38.2c-0.1,0-0.2,0.2-0.3,0.2C26.3,38.4,26.5,38.1,26.5,38.2z"/>
						<path class="st1" d="M25.1,39.2c0,0-0.1,0-0.1,0.1C24.8,39.3,24.9,39.2,25.1,39.2L25.1,39.2z"/>
						<polygon class="st1" points="11.7,33 11.7,33.2 11.6,33.1 						"/>
						<path class="st1" d="M20,24.5c0.1-0.1,0.1,0,0.2,0C20,24.5,20.2,24.3,20,24.5z"/>
						<polygon class="st1" points="26.3,20.4 26.3,20.4 26.2,20.3 						"/>
					</g>
				</g>
			</g>
		</g>
	</g>
	<g>
		<polygon class="st5" points="12.4,46.2 12.4,29.5 39.1,14.1 39.1,30.8 		"/>
		<g>
			<g>
				<g>
					<g>
						<path class="st1" d="M12.1,46c0,0.3,0.1-0.2,0.1,0.2C12.1,46.2,12.1,46.1,12.1,46z"/>
						<path class="st1" d="M13.5,45.8c0.8-0.9,2.3-1.3,3.2-2.1c0.1-0.1,0.1,0.2,0.3,0c0.9-0.8,2.6-1.6,4-2.2l0,0.1
							c0.3-0.1,0.5-0.4,0.7-0.6c0,0,0,0.1,0,0.1c0-0.1,0.4-0.3,0.5-0.5c0.1,0,0.2,0.1,0.3,0l0.1-0.2c0.2-0.5,1-0.5,1.5-1
							c0,0,0,0.1,0,0.1c0.8-0.7,1.9-1.3,2.9-1.9c0,0.1,0,0.2,0.1,0.2c0-0.2,0.3-0.4,0.5-0.5c0.2,0.1,0.4-0.4,0.7-0.5l0,0
							c0.1-0.3,0.4-0.1,0.5-0.4l0.2,0c0-0.2,0.4-0.1,0.5-0.3l0,0c0.1-0.2,0.3-0.1,0.5-0.2l0,0c0.4-0.3,0.6-0.3,0.6-0.4
							c0.2,0-0.4,0.3,0,0.3c1.2-0.9,2.5-1.6,3.8-2.4c0.2,0,0.3-0.1,0.3,0c0.1-0.1,0.5-0.3,0.5-0.4c0,0,0.1,0,0.2,0
							c0.3-0.1,0.2-0.3,0.5-0.4c-0.1,0.1-0.1,0.2,0,0.2c0.2-0.2,0.5-0.4,0.7-0.6c0,0-0.1,0.1,0,0.1c0.2-0.3,0.5-0.3,0.7-0.5l0,0.1
							c0.5-0.1,0-0.2,0.4-0.4c-0.1,0.1,0,0.1,0,0.1c0.2-0.3,0.8-0.6,1.1-0.8c0,0,0,0,0,0c0.1-0.1,0.3-0.2,0.4-0.2c0-0.2,0-0.4,0-0.7
							c0-0.2,0.2,0,0.2-0.4c-0.2,0-0.1-0.7-0.3-0.5c0-0.4,0.1-1,0-1.2c0.1,0.2,0.2-0.2,0.2,0.1l0.1-0.2c0.1,0,0,0.2,0.1,0.2
							c0-0.1-0.1-0.6,0-0.7c-0.1-0.3-0.3-0.5-0.3-1c0.1,0.2,0.2-0.1,0.2,0l-0.4-0.6c0-0.1,0.2,0,0.1-0.3c0,0-0.1-0.1-0.1-0.1
							c0-0.1,0-0.6,0.1-0.7c0.1-0.1,0,0.3,0.1,0.1c0-0.3-0.1-0.3-0.1-0.6l0,0c0-0.2-0.1-0.5-0.2-0.4c0,0.1,0.1,0,0.1,0.1
							c-0.1-0.1-0.1-0.5-0.1-0.7c0,0.1,0.1,0.1,0.1,0.1c-0.1-0.4-0.2-0.8-0.3-1.2c-0.1,0,0.2,0.2,0.1,0.2c0.1-0.5-0.2-1.1,0-1.6
							c0,0.1-0.1,0-0.1,0c0-0.3,0.1-0.3,0.1-0.4c0.1,0,0-0.2,0-0.4c0-0.1,0,0,0,0.1c-0.1-0.2-0.2-1.2-0.1-1.8c0,0-0.2-0.4-0.2-0.5
							l0.1,0c0.1-0.1,0-0.4,0.1-0.5c-0.1-0.3,0.1,1.1,0,0.7c0.1-0.1-0.2-0.5,0-0.4c0-0.3-0.1-0.5,0-0.8c0,0.1,0.2,0.2,0.2,0
							c0-0.4,0-0.1-0.1-0.4l0-0.2c-0.1,0,0-0.3-0.1-0.2c0.1-0.1-0.1-0.3,0.1-0.3l0.2,0c0-0.1-0.2-0.1-0.2-0.1c0,0,0-0.1,0.1-0.1
							c-0.2,0.2,0-0.2-0.2-0.1c0-0.1,0-0.2,0-0.3c-0.1,0-0.1,0-0.1,0c-0.2,0.2-0.3,0.3-0.4,0.3c0,0,0.1-0.1,0.1-0.1
							c-0.1,0-0.1,0.1-0.2,0.1c0,0-0.2-0.1-0.4,0c-0.2,0.2,0,0.3,0,0.3c-0.3-0.1-0.6,0.5-0.9,0.5c0.1-0.1,0.3-0.3,0.1-0.2
							c-0.3-0.1-0.3,0.4-0.7,0.5l0.2,0.1c-0.2,0-0.4,0.4-0.5,0.2c-0.1,0.1-0.4,0.2-0.3,0.3c-0.6,0.2-1.3,0.8-1.8,0.8
							c-0.1,0.1-0.3,0.1-0.2,0.2c0.2,0,0.1-0.2,0.2-0.1c-0.1,0-0.1,0.1,0,0.1c-0.2,0.1-0.3,0.1-0.2-0.1c-0.4,0.1-0.2,0.5-0.7,0.7
							c0-0.1-0.1-0.1-0.2,0l-0.2,0.3c-0.3,0.1-0.3,0-0.3-0.1c-0.1,0.1-0.4,0.2-0.4,0.4l-0.3,0c0.2,0-0.1,0.1-0.2,0.2l0.1-0.1
							c-0.1,0-0.2,0.1-0.3,0.2c0.1,0,0.3,0,0.4-0.1c-0.1,0.1-0.2,0.2-0.3,0.3c0-0.1-0.3,0.1-0.5,0.1c-0.2,0.1-0.1,0.2-0.2,0.2
							c0,0-0.3,0.1-0.2,0c0,0,0.1,0,0.2-0.1c-0.1,0-0.2-0.1-0.3,0.1c-0.1,0.1,0.2,0.2-0.2,0.3c0.1-0.1,0-0.1,0.1-0.2l-0.3,0.1l0,0.1
							c0,0,0,0,0,0c0,0.1-0.4,0.3-0.4,0.4c-0.1,0.1-0.3,0.1-0.5,0.2l0,0c-0.2,0-0.4,0.2-0.5,0.3v0c-0.1,0-0.3,0.2-0.4,0.3
							c-0.3,0.1-0.3-0.3-0.5-0.1c-0.2,0.1-0.3,0.4-0.1,0.4c-0.4,0.2-0.8,0.6-1.3,0.7c0,0.1,0,0.1-0.1,0.2c-0.6,0.3-1.2,0.8-1.8,0.9
							c0.1-0.1,0-0.1-0.1-0.2c-0.1,0.2-0.2,0-0.2,0.2c0.1,0.1,0.1,0.1,0.3,0.1c-0.3,0.3-0.9,0.6-1.1,0.6c0.1,0,0.1,0,0,0.1
							c0-0.1-0.3,0-0.5,0.1l0,0.1l-0.2,0c-0.1,0.1,0,0.2-0.2,0.3c0,0-0.1,0-0.1-0.1c-0.2,0.2-0.4,0.5-0.6,0.5l-0.3,0
							c-0.1,0.1-0.2,0.2,0,0.2c-0.4,0.1-0.7,0.3-0.9,0.2c-0.5,0.6-1.4,1.2-2.2,1.6l0-0.1c-0.2,0.1,0,0.2-0.2,0.2
							c0-0.1-0.2,0-0.1-0.2c-0.3,0.1-0.3,0.3-0.5,0.5c0,0.1,0.1-0.1,0.1,0c0,0-0.4,0.2-0.4,0.3c-0.1,0-0.1-0.1-0.1-0.2l-0.1,0.2
							c-0.3,0,0.3-0.5,0-0.6l-0.1,0.1c-0.2,0,0.4-0.4-0.1-0.2c-0.1,0.2-0.2,0.4,0,0.4c-0.4,0.3,0,0.4-0.4,0.6
							c-0.1,0,0.3-0.2,0.2-0.3c-0.3,0-0.4,0.3-0.5,0.3c0.2-0.1,0.1,0.2,0,0.3c-0.2,0.1,0.1-0.2-0.2,0c0,0.1-0.2,0.3,0,0.2
							c0,0.2-0.3,0.1-0.4,0.4C15,29,15.3,28.6,15,28.7c0.1,0.1-0.3,0.4,0,0.5c-0.1,0-0.2,0-0.2-0.2c-0.2,0-0.3,0.5-0.5,0.3l0,0.1
							c-0.1,0-0.2,0-0.3,0c-0.2,0.1-0.4,0.5-0.5,0.3c0,0-0.1,0.1-0.2,0.1c0,0,0,0.1,0.1,0.1c0,0,0.1-0.1,0.2-0.1
							c0.1,0,0.1-0.1,0.2,0c-0.2,0-0.4,0.2-0.3,0.2L13.4,30c0,0,0,0,0,0.1c0,0-0.1-0.1-0.1-0.1l0.1,0l0.1,0c0.1,0-0.2-0.1-0.2,0
							c0,0-0.1-0.1-0.1-0.1c0,0-0.1,0-0.1,0.1c0.1,0,0.2,0.1,0.3,0.2c0.1,0.2-0.1,0.1,0,0.3l-0.1-0.3c0,0-0.2,0.2-0.2,0.4
							c0,0.2,0.2,0.4,0.3,0.2c0,0.1-0.1,0.3-0.1,0.2c0,0.3,0.1,0,0.2,0.2c-0.1,0.1-0.2,0.4-0.3,0.6l-0.2-0.3v0.2
							c-0.1-0.2-0.1,0.1-0.3,0c0,0.1,0,0.3,0.1,0.4c0.2-0.4,0.3,0.4,0.6,0.3c0.1,0.5-0.5,0.3-0.2,0.8c0.1-0.1,0.2,0.2,0.2-0.2
							c0,0.3,0.2,0.2,0.1,0.6c-0.1-0.3-0.2,0.3-0.4-0.1c0.1,0,0.1-0.2,0-0.3c-0.1,0.1-0.2,0-0.2,0.3c0,0.2,0,0.5,0.1,0.4
							c0.1,0,0-0.3,0.1-0.2c0,0.4-0.1,0.4,0.1,0.6c0-0.2,0.1-0.3,0.2-0.3l0.1,0.3l-0.1,0c-0.1,0.4,0.1,0.1,0.1,0.6l-0.2,0.2
							c-0.1-0.1,0.1-0.6-0.2-0.5c0,0.3,0.1,0.4,0.1,0.6c0-0.1,0-0.1-0.1-0.2c0,0.1-0.3,0.2-0.1,0.6c0.1,0.2,0.1,0,0.2,0.1
							c0,0.5,0.1,0.6,0.1,0.9c-0.2-0.1,0,0.5-0.2,0.2c0.1-0.2,0.1-0.8-0.1-1c-0.2,0.2,0-0.3-0.2-0.5c0,0.4-0.2,0.3-0.3,0.4
							c0,0.1,0.1,0.2,0.1,0.3c0.1,0,0.1-0.1,0.3-0.1c0,0.4,0,0.8,0.1,1c-0.1,0.1-0.2,0.1-0.2-0.1c0,0.5,0,1,0,1.5
							c0.2-0.3,0.1,0.5,0.2,0.3c0-0.2,0.2-0.5,0.3-0.3c0,0.2-0.1,0-0.1,0.1c0.1,0.2-0.2,0.3,0,0.5c-0.1-0.4-0.2-0.1-0.4-0.2
							c0.1,0.3-0.1,0-0.1,0.3c0.1,0.3,0.2,0.7,0.2,1c-0.1,0.4,0,1.1,0,1.5c-0.1,0.2-0.3,0.1-0.3,0.3c0,0.3,0.2-0.2,0.1,0.2l0,0
							c0,0.1-0.1,0.7,0.1,0.8l-0.2-0.1c0,0.1,0,0.1,0.1,0.2c-0.1,0-0.1,0.1-0.2,0c-0.1,0.2,0,0.5,0,0.8l0.1-0.2c0.1,0.4,0,0.7,0,1.2
							l-0.1,0l0.1,0.3c-0.1-0.1-0.2,0.2-0.1,0.3l-0.3-0.7c0.1-0.2,0.1,0.2,0.2,0.1c0.1-0.1,0.1-0.5,0-0.6c0,0.2,0,0.2,0.1,0.3
							c-0.1,0-0.1-0.2-0.3-0.3c0,0.1,0,0.2,0,0.2c-0.1-0.2-0.1-0.3-0.1-0.6c0.1,0.2,0.1-0.1,0.1,0c-0.1,0-0.2-0.3-0.1-0.6
							c0.2-0.2-0.1-0.6-0.1-1c0.1,0.2,0.3,0.3,0.3,0.6c0.1-0.2,0-0.3,0.1-0.5c-0.1-0.1-0.3-0.2-0.3-0.5l0.1,0
							C12.2,41.4,12,41.4,12,41c0.1-0.6,0.1-1.2,0.1-1.7l0.1,0c-0.2-0.3-0.1-0.9-0.2-1.2c0.1-0.6-0.1-1.3,0.1-1.6
							c-0.1-1-0.1-2-0.1-3l0.1,0.2c-0.1-0.2,0.1-0.1,0.1-0.3c-0.1,0.2-0.1-0.3-0.2-0.4c0.1-0.5,0-1.1-0.1-1.5l0.1,0
							c-0.2-0.5,0-0.9,0-1.5c0-0.1,0.1-0.2,0.1-0.4c0-0.1-0.1-0.2-0.1-0.3c0.1-0.2,0.4-0.3,0.7-0.6c0.3-0.2,0.7-0.4,1-0.5
							c0.9-0.8,2-1.3,3-2l0.1,0.1c0.9-0.8,2.3-1.3,3.1-2l0,0.2c0.3-0.1,0.6-0.4,0.5-0.5c0.3-0.1,0.6-0.5,0.9-0.4
							c0.3-0.1,0.3-0.3,0.5-0.4c0.6-0.3,0.8-0.4,1.3-0.7L23,22.5c0,0.1,0,0.1,0.1,0.1c0.2-0.2,0.8-0.4,0.4-0.5
							c0.6-0.2,1.3-0.9,1.9-1c-0.1,0,0-0.1,0.1-0.2c0.5-0.3,1.1-0.5,1.4-0.8c0.1,0-0.1,0.2,0.1,0.1c0.1-0.1,0-0.1,0.1-0.2
							c0.7-0.6,1.7-0.8,2.4-1.3c1.2-0.9,2.6-1.6,3.8-2.3l0,0c0.3-0.4,1.1-0.4,1.3-0.8c0.1,0,0.4-0.2,0.4-0.1c0.3-0.3,1-0.4,1.4-0.9
							c0,0-0.1,0-0.1,0.1c0.3-0.1,0.5-0.2,0.7-0.4c0.2-0.1,0.3-0.2,0.5-0.3c0.2-0.1,0.4-0.2,0.6-0.3c-0.1,0.1-0.2,0.2-0.3,0.3
							c0.3-0.1,0.8-0.7,0.9-0.5c0.2-0.1,0.2-0.3,0.1-0.2c0.3-0.2,0.6-0.3,1-0.5c0,0.9,0,1.8,0,2.7c0,0.6,0.1,1.2,0.1,1.8
							c-0.1,1-0.4,0.1-0.2,0.8c0,0.1,0.1,0,0,0.1c0.1,0.3-0.3,0.5-0.1,0.7c0.1-0.1,0.1,0.1,0.2,0.1c-0.1,0.6-0.2,0.7-0.1,1.2l-0.1,0
							c0.2,0.5,0.1,1.2,0.3,1.6c0,1.5,0.1,3,0.1,4.4l0.1,2.2l0,1.1l0,1.6v0.3c-1.4,0.8-2.8,1.6-4.2,2.4c-1.2,0.7-2.5,1.4-3.7,2.1
							c-0.7,0.2-0.7,0.2-1.4,0.7c0,0,0-0.1,0-0.1c0,0.2-0.5,0.3-0.4,0.5c-1,0.5-1.8,1-2.8,1.6c0.1-0.1,0.1-0.3,0-0.2l-0.1,0.2l0,0
							c-0.1,0.1-0.2,0.2,0,0.2c-2.4,1.5-4.9,2.6-7.3,4c-0.6,0.3-1.4,0.8-2,1.2c-1.9,0.9-3.7,1.7-5.4,2.8
							C12.8,46.8,12.8,46.3,13.5,45.8z"/>
						<path class="st1" d="M12.1,45.6c0.1-0.1,0.1-0.3,0.2-0.1C12.3,45.5,12.2,45.6,12.1,45.6z"/>
						<path class="st1" d="M12.9,39c0,0,0-0.1,0.1-0.1c0,0.1,0.1,0.2,0,0.2C13,39.1,13,39.1,12.9,39z"/>
						<path class="st1" d="M13,37.4c0.1,0,0.1,0.4,0.1,0.6L13,37.4z"/>
						<path class="st1" d="M13.3,35.8C13.4,35.7,13.4,35.7,13.3,35.8C13.4,35.9,13.3,35.8,13.3,35.8z"/>
						<path class="st1" d="M13.1,35.7c0-0.1,0-0.2,0.1-0.3C13.2,35.4,13.3,35.7,13.1,35.7z"/>
						<path class="st1" d="M13.4,32.3c0-0.1-0.1-0.3,0-0.3C13.3,32.1,13.5,32.4,13.4,32.3z"/>
						<path class="st1" d="M13.2,30.8c0,0,0-0.1,0-0.1C13.3,30.5,13.3,30.6,13.2,30.8L13.2,30.8z"/>
						<polygon class="st1" points="36.3,16.3 36.2,16.4 36.2,16.4 						"/>
						<path class="st1" d="M38.6,23c0,0.2-0.1,0.1-0.1,0.1C38.5,23,38.6,23.2,38.6,23z"/>
						<polygon class="st1" points="39,29.7 39,29.7 39.1,29.7 						"/>
					</g>
				</g>
			</g>
		</g>
	</g>
	<g>
		<polygon class="st6" points="12.7,29.7 39.1,14.5 39.1,14.1 12.4,29.5 12.4,46.2 12.7,46 		"/>
		<g>
			<g>
				<g>
					<g>
						<path class="st1" d="M12.8,29.4c-0.3,0.2,0.2,0-0.2,0.2C12.6,29.5,12.6,29.4,12.8,29.4z"/>
						<path class="st1" d="M12.5,30.9c0.4,1.1,0,2.6,0.2,3.8c0,0.1-0.2,0-0.2,0.3c0.3,1.2,0.1,3.1-0.1,4.5l-0.1-0.1
							c0,0.3,0.1,0.6,0.1,0.9c0,0-0.1-0.1-0.1,0c0.1,0.1,0.1,0.5,0.1,0.7c-0.1,0.1-0.1,0.1-0.2,0.3l0.1,0.2c0.3,0.5,0,1.1,0.1,1.8
							c0,0-0.1-0.1-0.1,0c0.2,0.9,0.2,1.9,0.2,2.9v0l0,0c-0.1,0.1-0.2,0.1-0.3,0.2l-0.1,0.1l0-0.2c0-0.1,0-0.2,0-0.2
							c0.1,0,0.1,0.1,0.2,0c-0.1-0.1-0.2-0.4-0.2-0.7c0.1-0.1-0.1-0.5-0.1-0.9l0,0c-0.1-0.3,0.1-0.4-0.1-0.6l0.1-0.2
							c-0.2-0.1,0.1-0.4,0-0.6l0,0c-0.1-0.2,0.1-0.3,0-0.5l0,0c-0.1-0.5,0.1-0.7-0.1-0.7c0.1-0.2,0.1,0.4,0.2,0.2
							c-0.2-1.5-0.1-3-0.1-4.5c0.1-0.2,0.1-0.3,0.1-0.3c0-0.2,0-0.6-0.1-0.7c0,0,0.1-0.1,0.1-0.2c0.1-0.3-0.2-0.3-0.1-0.6
							c0,0.1,0.1,0.2,0.1,0.1c-0.1-0.3-0.1-0.6-0.1-0.9c0,0,0,0.1,0.1,0.1c-0.1-0.3,0-0.6-0.1-0.9l0.1,0.1c0.1-0.5-0.2-0.1-0.1-0.5
							c0,0.1,0.1,0.1,0.1,0.1c-0.2-0.4-0.1-1-0.2-1.3c0,0,0,0,0,0c0-0.4,0-0.8,0-1.3c0-0.2,0.2,0,0.2-0.4c-0.2,0-0.1-0.7-0.3-0.5
							c0-0.2,0.1-0.7,0.1-1c0.1-0.1,0.2-0.1,0.3-0.2c-0.1,0.1,0.3,0.1,0.1,0.2l0.3,0c0,0.1-0.2,0.1-0.1,0.1c0.1,0,0.1-0.1,0.2-0.2
							c0.1-0.1,0.2-0.2,0.3-0.2c0.2-0.2,0.3-0.5,0.7-0.8c-0.1,0.2,0.2,0.1,0.1,0.2l0.4-0.6c0.1-0.1,0.1,0.1,0.3,0c0,0,0-0.1,0.1-0.2
							c0.1,0,0.5-0.4,0.7-0.2c0.1,0-0.2,0.2,0,0.1c0.2-0.1,0.2-0.2,0.5-0.4l0,0c0.2-0.1,0.4-0.3,0.2-0.3C16,27,16.2,27,16.1,27.1
							c0.1-0.2,0.3-0.4,0.6-0.5c-0.1,0.1,0,0.1,0,0.2c0.3-0.3,0.6-0.5,0.9-0.8c0-0.1-0.1,0.2-0.1,0.2c0.5-0.2,0.9-0.7,1.4-0.8
							c-0.1,0-0.1-0.1-0.1-0.1c0.2-0.1,0.3,0,0.4-0.1c0,0.1,0.2-0.1,0.3-0.2c0-0.1,0.1,0-0.1,0.1c0.2-0.2,1-0.8,1.5-1
							c0,0,0.2-0.3,0.3-0.4l0,0.1c0.1,0,0.4-0.2,0.4-0.1c0.2-0.3-0.9,0.6-0.6,0.4c0.1,0,0.4-0.4,0.4-0.2c0.2-0.1,0.4-0.4,0.6-0.4
							c-0.1,0-0.1,0.2,0.1,0.1c0.3-0.2,0.1-0.1,0.3-0.3l0.1-0.1c0-0.1,0.3-0.1,0.1-0.2c0.1,0.1,0.4-0.3,0.5-0.1l0,0.1
							c0.1-0.1,0.1-0.3,0.2-0.4c0,0,0.1,0,0.1,0c-0.1-0.2,0.3-0.2,0.4-0.4c0.3-0.1,0.7-0.4,1-0.4c0.2-0.2,0.4-0.4,0.6-0.5
							c0,0-0.1,0.1-0.1,0.1c0.2,0,0.2-0.1,0.3-0.2c0,0,0.4-0.1,0.6-0.1c0.2-0.2,0-0.3,0-0.3c0.3,0.1,0.6-0.5,0.9-0.5
							c-0.1,0.1-0.3,0.3-0.1,0.2c0.3,0.1,0.3-0.4,0.7-0.5l-0.2-0.1c0.2,0,0.4-0.4,0.5-0.2c0.1-0.1,0.4-0.2,0.3-0.3
							c0.6-0.2,1.3-0.8,1.8-0.8c0.1-0.1,0.3-0.1,0.2-0.2c-0.2,0-0.1,0.2-0.2,0.1c0.1,0,0.1-0.1,0-0.1c0.2-0.1,0.3-0.1,0.2,0.1
							c0.4-0.1,0.2-0.5,0.7-0.7c0,0.1,0.1,0.1,0.2,0l0.2-0.3c0.3-0.1,0.3,0,0.3,0.1c0.2-0.1,0.4-0.2,0.4-0.4l0.3,0
							c-0.2,0,0.1-0.1,0.2-0.2l-0.1,0.1c0.1,0,0.2-0.1,0.3-0.2c-0.1,0-0.3,0-0.4,0.1c0.1-0.1,0.2-0.2,0.3-0.3c0,0.1,0.3-0.1,0.5-0.1
							c0.2-0.1,0.1-0.2,0.2-0.2c0,0,0.3-0.1,0.2,0c0,0-0.2,0-0.2,0.1c0.1,0,0.2,0.1,0.3-0.1c0.1-0.1-0.2-0.2,0.2-0.3
							c-0.1,0.1,0,0.1-0.1,0.2l0.3-0.1l0-0.1c0,0,0,0,0,0c0-0.1,0.4-0.3,0.4-0.4c0.1-0.1,0.3-0.1,0.5-0.2l0,0c0.2,0,0.4-0.2,0.5-0.3
							v0c0.1,0,0.3-0.2,0.4-0.3c0.3-0.1,0.3,0.3,0.5,0.1c0.2-0.1,0.3-0.4,0.1-0.4c0.4-0.2,0.8-0.6,1.3-0.7c0-0.1,0-0.1,0.1-0.2
							c0.3-0.1,0.6-0.3,0.8-0.5l1-0.6l0,1.2c0,0.1,0,0.3,0,0.4l0,0.4l-0.3,0.2c-0.2,0.1-0.4,0.2-0.6,0.2c0.2-0.1,0-0.1-0.1-0.2
							c-0.1,0.2-0.2,0-0.2,0.2c0.1,0.1,0.1,0.1,0.3,0.1c-0.3,0.3-0.9,0.6-1.1,0.6c0.1,0,0.1,0,0,0.1c0-0.1-0.3,0-0.5,0.1l0,0.1
							l-0.2,0c-0.1,0.1,0,0.2-0.2,0.3c0,0-0.1,0-0.1-0.1c-0.2,0.2-0.4,0.5-0.7,0.5l-0.3,0c-0.1,0.1-0.2,0.2,0,0.2
							c-0.4,0.1-0.7,0.3-0.8,0.2c-0.5,0.6-1.4,1.2-2.2,1.6l0-0.1c-0.2,0.1,0,0.2-0.2,0.2c0-0.1-0.2,0-0.1-0.2
							c-0.3,0.1-0.3,0.3-0.5,0.5c0,0.1,0.1-0.1,0.2,0c0,0-0.4,0.2-0.4,0.3c-0.1,0-0.1-0.1-0.1-0.2l-0.1,0.2c-0.3,0,0.3-0.5,0-0.6
							l-0.1,0.1c-0.2,0,0.4-0.4-0.1-0.2c-0.1,0.2-0.2,0.4,0,0.4c-0.4,0.3,0,0.4-0.4,0.6c-0.1,0,0.3-0.2,0.2-0.3
							c-0.3,0-0.4,0.3-0.5,0.3c0.2-0.1,0.1,0.2,0,0.3c-0.2,0.1,0.1-0.2-0.2,0c0,0.1-0.2,0.3,0,0.2c0,0.2-0.3,0.1-0.4,0.4
							c-0.2-0.1,0.1-0.4-0.2-0.3c0.1,0.1-0.3,0.4,0,0.5c-0.1,0-0.2,0-0.2-0.2c-0.2,0-0.3,0.5-0.5,0.3l0,0.1c-0.1,0-0.2,0-0.3,0
							c-0.2,0.1-0.4,0.5-0.5,0.3c0,0-0.4,0.2-0.2,0.3c0.3-0.1,0.2-0.2,0.4-0.1c-0.2,0-0.3,0.2-0.4,0.3l-0.1,0
							c-0.1,0.1-0.3,0.2-0.3,0.3c0-0.1,0-0.1-0.1-0.1l0,0.1c-0.3,0.2-0.2-0.1-0.5,0.1l0.2-0.2c0,0-0.2,0-0.3,0.1c0,0.1,0,0.3,0,0.4
							c-0.1,0.1-0.1-0.1-0.3,0.1l0.1-0.2c0,0-0.2-0.1-0.5,0.1c-0.1,0.1-0.3,0.4,0,0.3c-0.1,0.1-0.3,0.1-0.3,0
							c-0.2,0.2,0.1,0.1-0.1,0.3c-0.1,0-0.5,0.1-0.7,0.1l0.1-0.3l-0.2,0.1c0.1-0.2-0.2,0-0.1-0.2c-0.1,0-0.2,0.2-0.3,0.3
							c0.4,0-0.2,0.5,0,0.6c-0.4,0.3-0.5-0.3-0.8,0.2c0.1,0,0,0.3,0.2,0.1c-0.3,0.1-0.1,0.3-0.4,0.4c0.2-0.2-0.4,0-0.1-0.4
							c0,0.1,0.2-0.1,0.3-0.1c-0.1,0-0.1-0.2-0.4,0c-0.1,0.1-0.4,0.3-0.3,0.3c0.1,0.1,0.2-0.2,0.2,0c-0.3,0.2-0.5,0.1-0.5,0.4
							c0.2-0.1,0.3,0,0.4,0l-0.2,0.2v-0.1c-0.4,0.2,0,0.2-0.4,0.4l-0.3,0c0-0.2,0.6-0.3,0.4-0.4c-0.3,0.1-0.3,0.3-0.5,0.4
							c0,0,0.1-0.1,0.1-0.1c-0.1,0-0.3-0.2-0.6,0.2c-0.1,0.2,0,0.1,0,0.2c-0.4,0.3-0.5,0.4-0.7,0.5c0-0.2-0.5,0.2-0.3-0.1
							c0.2,0,0.7-0.3,0.8-0.5c-0.2-0.1,0.3-0.1,0.3-0.4c-0.3,0.2-0.4,0-0.5-0.1c-0.1,0-0.1,0.1-0.2,0.2c0,0.1,0.1,0.1,0.2,0.2
							c-0.4,0.2-0.7,0.4-0.8,0.6c-0.1,0-0.2-0.1,0-0.2c-0.4,0.3-0.8,0.5-1.3,0.7c0.4,0-0.4,0.3-0.2,0.3c0.2-0.1,0.5-0.1,0.4,0.1
							c-0.1,0.1,0-0.1-0.1-0.1c-0.1,0.2-0.4,0-0.4,0.2c0.4-0.3,0-0.3-0.1-0.4c-0.2,0.2,0-0.1-0.3,0c-0.2,0.2-0.5,0.5-0.8,0.7
							c-0.5,0.1-1,0.5-1.3,0.8c-0.2,0-0.2-0.2-0.4-0.1c-0.2,0.1,0.3,0.1-0.1,0.2l0,0c-0.1,0.1-0.7,0.3-0.6,0.5l0-0.2
							c-0.1,0-0.1,0.1-0.1,0.1c0,0-0.1-0.1-0.1-0.1c-0.3,0-0.4,0.3-0.6,0.4l0.2,0c-0.3,0.3-0.6,0.4-1,0.6l0-0.1l-0.2,0.2
							c0-0.1-0.2-0.1-0.3,0.1l0.4-0.6c0.2,0-0.1,0.2,0.1,0.3c0.1,0,0.5-0.2,0.5-0.3c-0.1,0.1-0.1,0.1-0.2,0.2
							c-0.1-0.1,0.1-0.2,0.1-0.4c-0.1,0-0.2,0.1-0.2,0.1c0.1-0.1,0.2-0.2,0.4-0.4c-0.1,0.1,0.1,0,0.1,0.1c-0.1-0.1,0.1-0.3,0.4-0.4
							c0.3,0,0.5-0.4,0.8-0.5c-0.1,0.2-0.2,0.4-0.3,0.5c0.2-0.1,0.2-0.1,0.5-0.2c0-0.1,0-0.3,0.3-0.5l0.1,0.1
							c0.2-0.2,0.1-0.3,0.5-0.5c0.5-0.3,1.1-0.6,1.5-0.8l0.1,0.1c0.1-0.3,0.7-0.5,1-0.8c0.6-0.2,1.1-0.7,1.4-0.7
							c0.9-0.6,1.6-1.1,2.6-1.6l-0.1,0.2c0.1-0.2,0.1,0,0.3-0.1c-0.3,0,0.1-0.3,0.2-0.4c0.5-0.1,0.9-0.6,1.3-0.9l0.1,0.1
							c0.3-0.4,0.8-0.5,1.3-0.7c0.1,0,0.2,0,0.3,0c0.2-0.3,0.3-0.4,0.6-0.6c0.3-0.2,0.7-0.4,1-0.5c0.9-0.8,2-1.3,3-2l0.1,0.1
							c0.9-0.8,2.3-1.3,3.1-2l0,0.2c0.3-0.1,0.6-0.4,0.5-0.5c0.3-0.1,0.6-0.5,0.9-0.4c0.3-0.1,0.3-0.3,0.5-0.4
							c0.6-0.3,0.8-0.4,1.3-0.7l-0.1,0.1c0,0.1,0,0.1,0.1,0.1c0.2-0.2,0.8-0.4,0.4-0.5c0.2-0.1,0.3-0.1,0.5-0.2l-0.4,0.7
							c0-0.1,0-0.3,0-0.4l1.2,0.7c-0.4,0.2-0.7,0.5-1.1,0.6c0.1,0,0,0.1-0.1,0.2c-0.5,0.3-1.1,0.5-1.4,0.8c-0.1,0,0.1-0.2-0.1-0.1
							c-0.1,0.1,0,0.1-0.1,0.2c-0.7,0.6-1.7,0.8-2.4,1.3c-1.2,0.9-2.6,1.6-3.8,2.3l0,0c-0.3,0.4-1.1,0.4-1.3,0.8
							c-0.1,0-0.4,0.2-0.4,0.1c-0.3,0.3-1,0.4-1.4,0.9c0,0,0.1,0,0.1-0.1c-0.5,0.2-0.9,0.6-1.5,0.8c0,0,0.1-0.1,0.1-0.2
							c-0.2,0-0.4,0.5-0.6,0.3c-0.1,0.1,0,0.1,0,0.1c-1.2,0.6-2.3,1.4-3.4,2.1c-0.9,0.4-0.3-0.3-0.8,0.2c-0.1,0,0,0.1,0,0.1
							c-0.2,0.2-0.5,0-0.6,0.2c0.1,0.1-0.1,0.1,0,0.2c-0.6,0.2-0.7,0.2-1.1,0.5l0-0.1c-0.4,0.5-1,0.7-1.2,1.1
							c-0.9,0.6-1.9,1.1-2.8,1.7l-1.4,0.9L13.5,30l-0.1,0.1l0,0l0,0l0,0l0,0.5l0,1.2c-0.1,2.9,0.1,5.7-0.1,8.7
							c-0.2,0.7-0.2,0.7-0.1,1.5c0,0,0-0.1-0.1,0c0.2,0,0,0.5,0.2,0.6c0,1.1,0,2.1,0,3.2c0-0.2-0.1-0.3-0.1-0.1l0.1,0.2l-0.1,0
							c0,0.1,0.1,0.3,0.2,0.2v0.1l-1.6-0.9l0.3-0.2L11.5,46c-0.1-2.7,0.2-5.3,0.2-7.9c0.1-0.7,0-1.6,0-2.3c0.2-2.1,0.4-4,0.2-6.1
							C12,29.7,12.4,30,12.5,30.9z"/>
						<path class="st1" d="M13.1,29.2c0.1,0,0.3,0,0.2,0.1C13.3,29.2,13.1,29.2,13.1,29.2z"/>
						<path class="st1" d="M19.2,26.6c0,0,0.1,0,0.1,0c-0.1,0-0.1,0.1-0.2,0.1C19.2,26.7,19.2,26.7,19.2,26.6z"/>
						<path class="st1" d="M20.6,25.8c0,0.1-0.3,0.3-0.4,0.4L20.6,25.8z"/>
						<path class="st1" d="M22.1,25.3c0.1,0,0.1,0,0,0.1C22.1,25.4,22.1,25.4,22.1,25.3z"/>
						<path class="st1" d="M22.2,25.1c0.1-0.1,0.2-0.1,0.3-0.1C22.4,25,22.2,25.3,22.2,25.1z"/>
						<path class="st1" d="M25.2,23.6c0.1,0,0.2-0.2,0.3-0.1C25.4,23.5,25.2,23.7,25.2,23.6z"/>
						<path class="st1" d="M26.5,22.7c0,0,0.1,0,0.1-0.1C26.7,22.7,26.6,22.8,26.5,22.7L26.5,22.7z"/>
						<polygon class="st1" points="27.6,20.1 27.7,20 27.7,20.1 						"/>
						<path class="st1" d="M16.7,26.4c-0.1,0.1-0.1,0-0.2,0C16.7,26.3,16.6,26.5,16.7,26.4z"/>
						<polygon class="st1" points="12.2,30.9 12.2,30.9 12.4,30.9 						"/>
					</g>
				</g>
			</g>
		</g>
	</g>
	<g>
		<polygon class="st7" points="40.2,45.8 23.2,55.6 23.2,54.8 40.2,44.9 		"/>
		<g>
			<g>
				<g>
					<g>
						<path class="st1" d="M40.3,46.1C40.4,46,40.1,46,40.3,46.1C40.3,46,40.3,46.1,40.3,46.1z"/>
						<path class="st1" d="M40.4,45.3c-0.1-0.1-0.1-0.2-0.2-0.4l0,0l0,0c-0.3,0.3-0.8,0.3-1.1,0.7c0,0-0.1-0.2-0.2-0.1
							c-0.3,0.5-1.1,0.8-1.8,0.9v-0.1c-0.1,0-0.2,0.3-0.3,0.3c0,0,0-0.1,0-0.1c0,0.1-0.2,0.2-0.2,0.3c-0.1,0-0.1-0.1-0.2-0.1v0.2
							c0,0.4-0.4,0.2-0.6,0.5c0,0,0-0.1,0-0.1c-0.3,0.4-0.8,0.6-1.2,0.9c0,0,0-0.1-0.1-0.2c0,0.1-0.1,0.2-0.2,0.3
							c-0.1-0.1-0.1,0.2-0.3,0.2v0c0,0.2-0.2,0-0.2,0.2l-0.1-0.1c0.1,0.2-0.2,0-0.2,0.1l0,0c0,0.1-0.1,0-0.2,0.1l0,0
							c-0.1,0.1-0.3,0.1-0.2,0.2c-0.1-0.1,0.1-0.1,0-0.3c-0.5,0.5-1.1,0.8-1.6,1.1c-0.1,0-0.1,0-0.2-0.1c0,0.1-0.2,0.2-0.2,0.3
							c0,0-0.1,0-0.1,0c-0.1,0,0,0.2-0.2,0.2c0-0.1,0-0.1,0-0.2c0,0.2-0.2,0.2-0.3,0.3c0,0,0-0.1,0-0.1c0,0.2-0.2,0.1-0.3,0.2l0-0.1
							c-0.2,0,0,0.2-0.1,0.2c0,0,0-0.1,0-0.1c-0.1,0.2-0.3,0.3-0.4,0.4c0,0,0,0,0,0c-0.1,0.1-0.3,0.2-0.5,0.3
							c-0.1,0-0.1-0.2-0.2-0.1c0.1,0.2-0.2,0.2,0,0.3c-0.1,0-0.4,0.1-0.5,0.2c0-0.1-0.2-0.2-0.1-0.2l-0.1,0c0-0.1,0.1,0,0-0.1
							c0,0-0.2,0.2-0.3,0.2c0,0.2,0,0.4-0.2,0.5c0-0.1-0.1-0.2-0.1-0.2l-0.1,0.5c0,0-0.1-0.1-0.1,0c0,0,0,0.1,0,0.1
							c0,0-0.2,0.2-0.3,0c-0.1,0,0.1-0.1,0-0.1c-0.1,0.1-0.1,0.1-0.2,0.2l0,0c-0.1,0-0.2,0.2,0,0.2c0,0-0.1-0.1,0-0.1
							c0,0.1-0.1,0.2-0.2,0.3c0,0,0-0.1,0-0.1c-0.1,0.2-0.2,0.3-0.3,0.5c0,0.1,0-0.2,0-0.1c-0.3,0-0.3,0.4-0.6,0.3
							c0,0,0.1,0.1,0.1,0.1c-0.1,0-0.2-0.1-0.2,0c0-0.1-0.1,0.1-0.1,0.1c0,0.1,0,0,0-0.1c-0.1,0.1-0.4,0.4-0.6,0.5
							c0,0,0,0.2-0.1,0.3l0-0.1c-0.1,0-0.2,0.1-0.2,0c0,0.2,0.3-0.3,0.3-0.2c-0.1-0.1-0.1,0.3-0.1,0.1c-0.1,0.1-0.1,0.2-0.3,0.2
							c0,0,0-0.2-0.1-0.1c-0.1,0.1,0,0.1-0.1,0.2l0,0.1c0,0.1-0.1,0.1,0,0.1c-0.1-0.1-0.2,0.2-0.3,0l0-0.1c-0.1,0,0,0.2,0,0.2
							c0,0,0,0,0,0c0.1,0.2-0.1,0,0,0.2c-0.1,0-0.1,0-0.1,0c0,0,0,0.1-0.1,0c0.1,0.1,0.1,0.2,0.1,0.2c0,0,0,0-0.1,0
							c-0.1,0,0,0,0,0.1c0,0-0.1,0.1-0.2,0.2L23,55.4h0c0.1-0.1,0-0.2-0.1-0.3c0.2,0.1,0.2-0.3,0.4-0.2c0,0-0.1,0.2,0,0.2
							c0.2,0.1,0.1-0.2,0.3-0.2l-0.1-0.1c0.1,0.1,0.2-0.2,0.2,0c0-0.1,0.2,0,0.1-0.2c0.3,0,0.5-0.4,0.8-0.2c0,0,0.1-0.1,0-0.1
							c-0.1,0,0,0.1-0.1,0.1c0,0,0-0.1,0-0.1c0.1,0,0.2,0,0.2,0.1c0.2,0,0-0.4,0.3-0.4c0,0.1,0.1,0.1,0.1,0l0-0.2
							c0.1,0,0.2,0.1,0.2,0.2c0.1-0.1,0.1-0.1,0.1-0.2l0.2,0.1c-0.1-0.1,0-0.1,0-0.1l0,0c0,0,0.1,0,0.1-0.1c0-0.1-0.1,0-0.2,0
							c0-0.1,0.1-0.1,0.1-0.2c0,0.1,0.2,0,0.2,0c0.1,0,0-0.1,0-0.1c0,0,0.1,0,0.1,0c0,0-0.1,0-0.1,0c0.1,0,0.1,0.1,0.2,0
							c0-0.1-0.1-0.2,0-0.2c0,0,0,0.1,0,0.1l0.1,0l0-0.1c0,0,0,0,0,0c0-0.1,0.2-0.1,0.1-0.3c0,0,0.2,0,0.2,0l0,0
							c0.1,0,0.2-0.1,0.2-0.2l0,0c0,0,0.1-0.1,0.1-0.2c0.1,0,0.2,0.3,0.3,0.2c0.1-0.1,0-0.3,0-0.3c0.2,0,0.3-0.3,0.6-0.3
							c0,0,0-0.1,0-0.1c0.3-0.1,0.5-0.4,0.8-0.4c0,0.1,0,0.1,0.1,0.2c0-0.1,0.1,0,0.1-0.1c-0.1-0.1-0.1-0.1-0.2-0.1
							c0.1-0.1,0.4-0.3,0.5-0.2c-0.1,0,0-0.1,0-0.1c0.1,0.2,0.2,0.1,0.3,0l0-0.1l0.1,0c0,0-0.1-0.2,0.1-0.2c0,0,0,0.1,0.1,0.1
							c0-0.1,0.1-0.3,0.2-0.3L30,51c0,0,0.1-0.2,0-0.2c0.2,0,0.3-0.1,0.4,0c0.1-0.4,0.5-0.7,0.9-0.8l0,0.1c0.1,0,0-0.1,0.1-0.1
							c0,0.1,0.1,0.1,0.1,0.2c0.2,0,0.1-0.2,0.2-0.3c0-0.1,0,0.1-0.1,0c0,0,0.2,0,0.2-0.2c0.1,0,0.1,0.1,0.1,0.2l0-0.1
							c0.2,0.1-0.1,0.4,0.1,0.5l0.1-0.1c0.1,0.1-0.1,0.3,0.1,0.2c0-0.1,0-0.3-0.1-0.3c0.1-0.1-0.1-0.3,0.1-0.4c0.1,0-0.1,0.1,0,0.2
							c0.1,0,0.1-0.2,0.2-0.2c-0.1,0-0.1-0.2-0.1-0.2c0.1,0,0,0.2,0.1,0.1c0-0.1,0.1-0.2-0.1-0.2c0-0.2,0.2,0,0.2-0.2
							c0.1,0.1,0,0.3,0.2,0.3c-0.1-0.1,0.1-0.3-0.1-0.4c0.1,0,0.1,0.1,0.1,0.2c0.1,0,0.1-0.3,0.2-0.1l0-0.1c0,0,0.1,0,0.2,0.1
							c0.1,0,0.1-0.3,0.2-0.1c0,0,0.2-0.1,0-0.2c-0.1,0-0.1,0.2-0.2,0c0.1,0.1,0.1-0.1,0.2-0.2l0,0.1c0,0,0.1-0.1,0.1-0.2
							c0,0,0,0.1,0.1,0.1l0-0.1c0.1-0.1,0.1,0.2,0.3,0.1l0,0.1c0,0,0.1,0,0.2,0c0-0.1,0-0.2-0.1-0.3c0-0.1,0.1,0.1,0.1,0l0,0.2
							c0,0,0.2,0.1,0.3,0.1c0-0.1,0.1-0.3-0.1-0.3c0,0,0.2,0,0.2,0.1c0.1-0.1-0.1-0.1,0-0.2c0.1,0,0.3,0.1,0.4,0.1l0,0.2l0.1,0
							c0,0.2,0.1,0.1,0.1,0.2c0.1,0,0.1-0.1,0.1-0.1c-0.3-0.1,0-0.4-0.2-0.5c0.2-0.2,0.4,0.4,0.4,0c-0.1,0,0-0.2-0.1-0.1
							c0.1,0,0-0.2,0.2-0.2c0,0.1,0.2,0.1,0.1,0.3c0-0.1-0.1,0-0.1,0c0.1,0,0.1,0.2,0.2,0.1c0.1-0.1,0.2-0.1,0.1-0.2
							c-0.1-0.1-0.1,0.1-0.1-0.1c0.1-0.1,0.2,0,0.2-0.2c-0.1,0.1-0.2,0-0.2-0.1l0.1-0.1l0,0.1c0.2,0,0-0.2,0.2-0.2l0.2,0.1
							c0,0.2-0.3,0.1-0.1,0.3c0.1,0,0.1-0.2,0.2-0.2c0,0,0,0,0,0.1c0,0,0.2,0.2,0.3,0c0-0.1,0-0.1-0.1-0.2c0.2-0.1,0.2-0.2,0.3-0.3
							c0.1,0.2,0.2-0.1,0.2,0.1c-0.1,0-0.3,0.1-0.3,0.3c0.2,0.1-0.2,0-0.1,0.3c0.1-0.1,0.2,0.1,0.3,0.2c0,0,0-0.1,0.1-0.1
							c0-0.1-0.1-0.1-0.2-0.2c0.2-0.1,0.3-0.2,0.3-0.3c0.1,0,0.1,0.1,0.1,0.2c0.2-0.1,0.4-0.2,0.5-0.3c-0.2-0.1,0.2-0.2,0-0.3
							c-0.1,0-0.3-0.1-0.3-0.2c0.1,0,0,0.1,0.1,0.1c0-0.1,0.2,0.1,0.2-0.1c-0.1,0.2,0.1,0.2,0.1,0.4c0.1-0.1,0,0.1,0.2,0
							c0.1-0.1,0.2-0.3,0.3-0.4c0.2,0,0.4-0.2,0.6-0.3c0.1,0,0.2,0.2,0.3,0.2c0.1-0.1-0.2-0.1,0-0.1v0c0-0.1,0.3,0,0.2-0.3l0,0.2
							c0,0,0,0,0-0.1c0,0,0.1,0.1,0.1,0.2c0.2,0.1,0.2-0.1,0.3-0.2l-0.1-0.1c0.1-0.2,0.3-0.1,0.4-0.3l0,0.1l0.1-0.1
							c0,0.1,0.2,0.1,0.2,0l-0.1,0.4c-0.1,0,0-0.2-0.1-0.2c-0.1-0.1-0.2,0-0.2,0.2c0.1,0,0,0,0.1-0.1c0.1,0.1,0,0.2,0,0.3
							c0,0,0.1,0,0.1,0c0,0.1-0.1,0.1-0.2,0.2c0-0.1-0.1-0.1-0.1-0.1c0.1,0.1,0,0.2-0.2,0.3C39,46.7,39,47,38.9,47.1
							c0-0.2,0-0.3,0.1-0.4c-0.1,0-0.1,0.1-0.2,0c0,0.1,0.1,0.3,0,0.4L38.6,47c-0.1,0.1,0,0.2-0.2,0.3c-0.3,0.1-0.5,0.2-0.7,0.3
							l-0.1-0.1c0,0.2-0.3,0.3-0.4,0.4c-0.3,0-0.4,0.4-0.6,0.3c-0.3,0.3-0.7,0.5-1.1,0.8l0-0.2c0,0.1-0.1,0-0.2,0
							c0.1,0.1,0,0.2,0,0.3c-0.2,0-0.4,0.3-0.5,0.4l-0.1-0.1c-0.1,0.3-0.3,0.2-0.6,0.3c0,0-0.1-0.1-0.2,0c0,0.2-0.1,0.2-0.2,0.4
							c-0.1,0.1-0.3,0.1-0.5,0.2c-0.3,0.5-0.8,0.6-1.2,1l-0.1-0.1c-0.3,0.5-1,0.6-1.3,0.9l-0.1-0.2c-0.1,0-0.2,0.2-0.1,0.3
							c-0.1,0-0.3,0.3-0.4,0.2c-0.1,0-0.1,0.2-0.2,0.3c-0.3,0.1-0.4,0.1-0.6,0.3l0.1,0c0,0,0-0.1-0.1-0.1c-0.1,0.1-0.3,0.1-0.1,0.3
							c-0.3,0-0.5,0.4-0.8,0.4c0,0,0,0.1,0,0.2c-0.2,0.1-0.5,0.1-0.6,0.3c0,0,0-0.1-0.1-0.1c0,0,0,0.1,0,0.1
							c-0.3,0.3-0.8,0.3-1.1,0.5c-0.5,0.4-1.1,0.7-1.6,1l0,0c-0.1,0.3-0.5,0.1-0.5,0.4c-0.1,0-0.2,0.1-0.2,0
							c-0.1,0.2-0.5,0.1-0.6,0.4c0,0,0,0,0,0c-0.1,0-0.2,0.1-0.3,0.1l-1,0.7l-0.1-1.4c0-0.1,0-0.2,0-0.5c0,0,0,0.1,0.1,0.1
							c0.1-0.1-0.2-0.4,0-0.5c0-0.1-0.1-0.1-0.1,0c0-0.2,0-0.3,0-0.5c0.2-0.1,0.3-0.2,0.5-0.3l0.3-0.2c0.1-0.1,0.2-0.1,0.2-0.1
							c0.2-0.2,0.4-0.3,0.6-0.4c0.4-0.1,0.2,0.3,0.4,0c0,0,0-0.1,0,0c0.1-0.1,0.3,0.1,0.3,0c-0.1-0.1,0-0.1,0-0.2
							c0.3,0,0.4,0,0.5-0.2l0,0.1c0.1-0.3,0.4-0.3,0.4-0.7c1.1-0.7,2.1-1.4,3.2-2.1c1.1-0.6,2.1-1.3,3.3-1.8c0.4,0,0.4,0,0.6-0.2
							c0,0,0,0,0,0.1c-0.1-0.2,0.2-0.1,0.1-0.3c0.4-0.2,0.8-0.5,1.2-0.7c-0.1,0,0,0.2,0,0.1l0-0.1l0,0c0,0,0.1-0.2,0-0.2
							c1-0.7,2.2-1,3.2-1.7c0.3-0.1,0.6-0.3,0.8-0.5c0.6-0.2,1.2-0.3,1.7-0.6l1-0.5l0,1.1c0,0.3,0,0.6,0,0.9
							C40.9,45.8,40.5,45.7,40.4,45.3z"/>
						<path class="st1" d="M40.1,46.2c-0.1,0-0.2,0-0.2-0.2C40,46.1,40.1,46.1,40.1,46.2z"/>
						<path class="st1" d="M37.3,46.9C37.3,46.9,37.2,46.8,37.3,46.9c0,0,0-0.1,0-0.1C37.2,46.8,37.3,46.8,37.3,46.9z"/>
						<path class="st1" d="M36.6,47.2c0-0.1,0.1-0.2,0.2-0.3L36.6,47.2z"/>
						<path class="st1" d="M35.9,47.2C35.8,47.2,35.8,47.2,35.9,47.2C35.9,47.2,35.9,47.2,35.9,47.2z"/>
						<path class="st1" d="M35.9,47.4c0,0-0.1,0-0.1,0C35.8,47.5,35.9,47.3,35.9,47.4z"/>
						<path class="st1" d="M34.6,48c0,0-0.1,0.1-0.1,0.1C34.5,48.1,34.5,47.9,34.6,48z"/>
						<path class="st1" d="M34,48.4C34,48.4,34,48.4,34,48.4C33.9,48.4,33.9,48.3,34,48.4L34,48.4z"/>
						<polygon class="st1" points="23.5,54.8 23.5,54.8 23.6,54.8 						"/>
						<path class="st1" d="M26.8,53.3C26.8,53.2,26.9,53.3,26.8,53.3C26.8,53.4,26.9,53.3,26.8,53.3z"/>
						<polygon class="st1" points="29.1,51.5 29.1,51.5 29,51.4 						"/>
					</g>
				</g>
			</g>
		</g>
	</g>
</g>
</svg>
