<svg xmlns="http://www.w3.org/2000/svg" viewBox="0 0 82.1 60.9"><g fill="#202020"><path d="M2.6 29.3c.4 0 0 .1.2.2h-.2c.3 0 .1.1-.1.2h-.1c.3 0 0 0 .1.1h-.1c.2 0 .2.1.2.1h-.2.2c-.1 0 .1 0 .1 0 .1 0-.1 0 .1 0h-.1c.2 0-.1 0 0 0s-.1 0 0 0-.1 0 .1 0h-.2c.2.1.1.1.1.2h-.1c-.1 0 .2 0 .1 0h-.1.1c-.1 0 .2 0 .1 0h-.1.3s-.1 0 0 0h-.3.6s.1 0-.1 0h-.1.5c.1 0-.2 0-.1 0-.1 0 .2 0 0 .1-.1 0 0 0 .1 0s.2 0 .1.1c.1 0-.1 0 0 0-.1 0 .2 0 0 0h-.1.3c-.1 0 .1 0-.1 0h-.1.1c-.1 0 0 0 0 0h-.2.3c-.2 0 .1 0-.1 0h-.2c-.2 0 .2 0 .1 0h.2c-.1 0 .1 0-.1 0 .1 0-.1 0 .1 0-.1 0 .1.1-.2.1h.1c.1 0-.1 0 0 0h.1-.2c-.1 0 .3 0 .2 0h-.1.1-.3c-.1 0 0 0 0 0h.1c-.1 0 0 0 .1 0h.1-.3.3c-.1 0 .1 0-.1.1h.1s.1.1-.1.1h-.2c.1 0-.1 0 .1 0h.1c.3 0 .3.1.3.1H4c-.1 0 .1 0 .1 0h-.2c-.1 0 .1 0 .2 0s-.1 0 .1 0c0 0-.1 0 .1 0h-.2c-.1 0 .1 0 0 0h.3c.2 0-.1 0 .1 0h-.2c-.1 0 .2 0 0 0h.1c.1 0-.1 0 .1 0-.1 0 0 0 .1 0h-.1.1c.1 0-.2 0-.2 0h-.2.3c.1 0-.1 0 0 0h-.6.6c.1 0-.5 0-.2 0h.3-.4s-.1 0 .1 0h.2c-.1 0 .1 0 .1 0h-.2c-.1 0 .1 0-.2 0h-.1.1c.1 0 .1 0-.1 0H4h.1-.2v.1h.4c.1 0-.2 0 0 0h-.4c.1 0-.1 0-.1 0H4c-.1 0 0 0 0 .1h-.2s-.1 0 .1 0h-.3c-.1 0 0 0 0 0h-.1.1-.4c.2 0-.1 0-.1 0 .1 0 .1 0 .1-.1h.1-.2c.1 0-.1 0 .1-.1-.1 0-.1-.1-.1-.1h.1c-.1 0 .1 0 .1 0h-.2c.1 0 0 0-.1-.1h.1c-.2 0 0 0 0-.1h.1H3c-.2 0-.1-.1-.2-.1h.1c-.3 0 0-.1-.2-.1h.2c.1 0-.1 0-.2 0 .1 0-.1 0 .1 0h-.1c.1 0 .1 0 0-.1h.1c-.1 0 .1 0-.2 0 .1 0-.1-.1.1-.1h-.1s.1 0 0-.1c-.1 0 .1-.1.1-.1-.1-.1-.1-.1-.1-.2h.1c-.2 0 .2 0-.1-.1h.1c-.1 0 .1 0 0-.1.1 0 0 0 .1-.1h.1c.1 0-.2 0 0 0h-.1c.1 0-.1-.1-.1-.2h.2c.1 0-.1 0 0 0-.1 0 .3 0 .1 0h-.1.1c-.2 0-.1 0-.4-.1-.1-.1-.2-.2-.2-.3.1-.1-.1-.2.1-.3.2 0 .2 0 .1-.1h.1-.2v-.1h.1-.2c-.1-.1.2-.2.1-.3.1 0 0-.1 0-.1.2-.1.4-.2.2-.2-.7 1.7-.2 1.7-.1 1.7zM2.5 33zm.8-.3zm.1-.1zm.3 0zm-.2 0zm.2-.2zm-.1 0z"/><path d="M3.3 31.3zm0-.5zm-.4-.3h-.1z"/></g><g fill="#fefefe"><path d="M57.5 27.2c.1-.1.3-.1.3.1 0 0-.3.1-.3-.1z"/><path d="M56.6 27.1c.3-.1.4.1.9.1-.4.3-.6 0-.9.1v-.2z"/></g><path d="M57.8 27.3c-.3-.2-.3.2 0 0zm-32.4 3.2c.1-.4-1.2-.3-1.6-.3.3.2.6.2 1 .2.2.1.4.2.6.1zm31.3-3.2c.2 0 .4.2.9-.1-9.1-.4-16.4-4.3-23.9-9-.6-.3-.6-.5 0-.8 3.1-1.4 6.3-5.1 9.9-3.1l24.2 13.9c.6.3.6.5 0 .8-3.2 1.4-6 4.3-9.5 4.9l-32.5-3.4c8.5.5 15.5 4.4 22.6 8.9 1.1 1.1-4.6 3-5.6 4-5.9 2.1-21.6-11.3-28.5-14-1.6-1.2 6.9-4.3 8.1-5.6 11.2.2 22.8 2.6 34.3 3.5z" fill="#002a54"/><path d="M67.8 44.3c7.5-4.3 11.3-10 11.3-15.6C83.2 63.9 4.6 65.4 2.8 33l.6-.2c9.5 21.4 46.1 21.8 64.4 11.5z" fill="#fff"/><path d="M25.5 30.4c0 .3-.5.1-.7 0v-.2c.3.1.5.1.7.2z" fill="#fefefe"/><path d="M56.6 27.1v.2c-11.4-.9-23.1-3.3-34.4-3.4-1.1 1.2-9.7 4.5-8.1 5.6 7 2.7 22.5 16.1 28.5 14 1-1 6.6-2.9 5.6-4-7.1-4.5-14.1-8.4-22.6-8.9 10.8.8 21.7 2.3 32.5 3.4 3.4-.5 6.2-3.4 9.5-4.9.6-.3.6-.5 0-.9L43.4 14.3c-3.6-2-6.8 1.7-9.9 3.1-.6.3-.6.5 0 .8 7.4 4.5 14.4 8.5 23.1 8.9zM68 13.2C111.4 45 17 68.5 3.4 32.9-.1 4.7 50 1.5 68 13.2z" fill="#fff"/><path d="M24.8 30.3v.2c-.4 0-.7 0-1-.2.5-.2.7 0 1 0z" fill="#fefefe"/><g fill="#202020"><path d="M3 32.4c.1.7.1-.4.1.5 0-.1-.1-.3-.1-.5zM4.2 35c1.4 1.8 3 4.4 5 5.9.2.2-.2.1.3.5l7.7 5H17c.5.3 1.2.4 1.7.7 0 0-.2 0-.1.1.2 0 1 .3 1.3.3.2.1.1.2.4.4h.4c1 .1 2.2.7 3.4 1-.1 0-.2 0-.1.1l3.3.7 3.5.6c-.1 0-.2.1-.1.2.1-.1.9-.1 1.5 0 .3.2 1.1 0 1.8.2h-.1c.6-.1.8.2 1.2 0l.3.1c.3-.2.8.2 1.2.1.4 0 .6.1 1 .1.9 0 1.4.1 1.4 0 .3.1-.9 0-.4.2l4.5-.1 4.5-.3c.4 0 .6 0 .6.1.3-.1 1.1-.1 1.4-.3-.1 0 .2 0 .4 0 .6 0 .6-.3 1.2-.3-.2.1-.3.1-.2.2.5-.2 1.2-.3 1.8-.5-.1 0-.2.1-.2.1.6-.3 1.2-.2 1.7-.4l-.2.1c.9-.1.2-.3 1-.4-.2.1-.1.1-.1.1.7-.3 1.9-.6 2.6-.9.8-.2 1.6-.5 2.4-.8.3-.1 0 .3.8-.1-.1-.1 1.3-.6.8-.6l2.2-.9c-.3.2.4.1-.1.3.2 0 .3 0 .5-.1 0 .1-.4.2-.3.2.3-.1 1.1-.6 1.3-.7.4-.4.8-.8 1.6-1.3-.3.3.3 0 .1.2l.9-1c.3-.2.1.1.5-.2-.1 0 .1-.2.2-.3.1 0 1-.8 1.2-.7.1 0-.4.3-.1.2.4-.3.4-.4.9-.8.3-.2.8-.8.4-.6-.2.2.1 0-.2.2.1-.2.6-.7 1-1.1-.1.2-.1.2-.1.3.4-.6 1-1.2 1.5-1.9-.1-.1-.1.3-.2.4.8-.7 1.4-1.8 2-2.4-.1.1-.1 0-.1 0 .3-.4.4-.3.5-.6.1 0 .2-.4.4-.7 0-.2.1 0-.1.2.1-.2.3-.8.6-1.4.1-.3.3-.6.5-.9s.3-.6.4-.9c-.1 0 .1-.7.2-.9l.1.1c.1-.2.3-.8.4-.8.1-.6-.6 2-.5 1.3.2-.2.2-1 .3-.8.2-.5.1-1 .4-1.5-.1.1.1.5.1 0 .1-.7 0-.2.1-.8v-.4c-.1 0 0-.2 0-.3s0-.1-.1-.1c.1.1-.2-.9 0-.9l.2.1c-.1-.3-.2-.5-.3-.7v-.1c-.2 0-.1-.7-.4-1.1-.1-.7-.5-1.6-.5-1.9-.2-.5-.5-.8-.7-1.4.1.1.1.2.2.2-.1-.3-.2-.4-.4-.7.1 0-.3-.7-.4-1.1-.3-.4-.3-.2-.4-.2-.1-.5-.9-1.1-1.1-1.7.1.1.5.5.3.2-.1-.5-.7-.6-1.1-1.3v.3c-.1-.3-.8-.7-.6-.8-.2-.1-.6-.7-.6-.5-.8-1-2.3-1.8-2.8-2.5-.2-.1-.5-.3-.5-.2.2.3.4.2.4.3-.1-.1-.2-.1-.2 0-.3-.3-.5-.4-.1-.3-.7-.6-.9-.2-1.8-.8.1 0 0-.1-.3-.3l-.6-.2c-.6-.4-.3-.3-.2-.5l-.9-.4-.3-.3c.3.3-.3-.1-.5-.1h.2c0-.1-.4-.2-.7-.3 0 .1.4.3.6.4-.2 0-.5-.2-.7-.2.1-.1-.5-.3-.8-.5s-.4 0-.5-.1c0-.1-.5-.2-.2-.2.1 0 .2.2.4.2-.2-.1-.1-.2-.6-.3-.4-.1 0 .3-.6 0h.4l-.6-.3-.1.1c-.1-.1 0 0 0-.1-.2 0-.9-.3-1.1-.2-.3-.1-.6-.3-.9-.4h.1c-.3-.2-.8-.3-1.1-.3-.2-.1-.7-.2-.9-.2-.5-.2-.1-.5-.6-.5-.5-.1-.8 0-.6.1-.9-.3-2-.4-2.8-.7-.1 0-.1.1-.3 0-1.3-.3-2.9-.3-3.9-.7.4 0 0-.1 0-.2-.3 0-.4-.2-.5 0 0 .1 0 .1.4.2-.8 0-2.1-.2-2.5-.3.2.1 0 .1-.1.1.1-.2-.5-.2-1-.2l-.1.1-.3-.1c-.2 0-.2.2-.6.1l-.1-.1c-.5 0-1.1.2-1.6.1l-.4-.2c-.2 0-.6.1-.2.1l-1.7-.2c-1.5.3-3.7.4-5.4.5l.1-.1c-.5 0-.2.2-.6.1.1-.1-.4-.1 0-.2-.7 0-.9.2-1.3.3-.1.1.3-.1.3 0-.1 0-.9 0-1 .2-.2 0-.1-.2 0-.2l-.4.1c-.5-.1 1.1-.5.6-.6l-.4.1c-.4-.1 1-.3 0-.2-.4.1-.7.4-.4.4-.9.2-.4.4-1.3.5-.3 0 .7-.1.5-.2-.4 0-.9.2-1.2.2.4 0 .1.2-.2.3-.5 0 .3-.2-.4-.1-.1.1-.7.3-.1.2-.2.2-.7.1-1 .3-.2-.1.6-.4-.1-.4.1.1-.9.3-.4.5-.3 0-.3-.1-.1-.2-.4 0-.9.4-1.1.2l-.1.2H26c-.4.1-1.1.5-1.1.3-.1 0-.9.3-.6.3.5-.1.5-.3.9-.1-.4-.1-.7.2-1 .3l-.1-.1c-.2.1-.6.2-.6.3.1-.1 0-.1-.1-.1l-.1.2c-.7.3-.2-.2-.9.1l.5-.3c-.1 0-.4 0-.7.2-.1.1-.3.3-.4.5-.4.2-.2-.1-.5.2.1-.1.3-.2.4-.3s-.4-.1-.9.1c-.3.2-.7.5-.2.3-.2.1-.6.2-.4 0-.5.2.1.1-.3.3-.2 0-.9.2-1.3.2l.4-.4-.3.1c.4-.3-.3 0-.1-.3-.2.1-.5.2-.7.4.7-.1-.6.6-.3.7-.9.5-.8-.2-1.5.5.2 0-.2.3.3 0-.5.3-.3.4-.9.6.4-.3-.6.1 0-.4 0 .1.4-.2.5-.2-.3 0-.1-.2-.6.1-.3.2-.8.5-.6.5.1.1.5-.3.4-.1-.6.4-.8.3-1 .7.4-.3.6-.2.6-.1-.1.1-.3.2-.4.3l.1-.1c-.8.4-.1.3-.9.7-.1 0-.3 0-.4.1.1-.3 1.1-.6.8-.7-.5.3-.6.5-1 .7l.3-.3c-.2.1-.5 0-1.1.6-.3.3 0 .1 0 .2l-1.3 1.2c0-.2-.8.6-.4.1.3-.1 1.3-.9 1.4-1.2-.4 0 .6-.4.6-.7-.6.4-.7.2-.9.2-.2.1-.3.3-.4.4 0 .2.2 0 .3.1-.7.5-1.2 1-1.4 1.4-.2.1-.3 0 0-.2l-2 2c.5-.3-.6.8-.2.6.3-.3.7-.5.6-.3-.2.2-.1-.1-.2 0-.2.3-.5.3-.6.7.5-.7-.1-.3-.1-.5-.3.5-.1-.1-.4.4l-1 1.8c-.6.7-1.1 1.9-1.3 2.7-.2.3-.3 0-.5.4-.1.5.3-.3 0 .4V24c0 .2-.5 1.3-.3 1.6l-.1-.3c-.1.1 0 .3 0 .4-.1 0-.1.2-.1-.1-.2.5-.2 1-.2 1.5l.1-.3-.1 2.3h-.1l.1.5c-.1-.1-.2.3-.1.6l-.3-1.3c.1-.4.1.4.2.2s.1-1 0-1.1v.6c-.2.1-.1-.4-.2-.6 0 .2-.1.4 0 .4-.1-.3-.1-.7 0-1.2 0 .4.1-.2.1 0-.1 0-.1-.6 0-1.2.2-.4.1-1.2.4-2 .1.3 0 .7 0 1.2.2-.5.1-.5.3-1 0-.3-.2-.5 0-1.1h.1c.2-.5 0-.6.3-1.3.5-1.1 1.3-2.2 1.8-3h.1c.1-.6 1-1.4 1.4-2l1.3-1.3c.4-.4.8-.7 1.1-.9 1.6-1.4 3.1-2.5 5.1-3.5l-.3.3c.3-.3.3 0 .6-.2-.4.1.4-.4.6-.6.9-.3 2-1 2.8-1.4l.1.1c.7-.5 1.8-.7 2.8-1 .1 0 .4 0 .6-.1.5-.3.8-.4 1.6-.7.6-.2 1.6-.4 2.3-.5 2.3-.8 4.7-1 7.1-1.4l.2.1c2.4-.5 5.3-.4 7.4-.5l-.2.2c.6.1 1.5 0 1.3-.2.6.1 1.6-.1 2 .1.7.1.8 0 1.4 0 1.3.2 1.8.2 3 .3h-.3c-.1 0-.2.1.1.2.5 0 1.7.3 1.3 0 1.3.3 3.1.3 4.3.8-.1-.1.2 0 .4 0 1.1.2 2.3.7 3.2.8.2.1-.3 0 .1.2.3 0 0-.1.4 0 1.9.4 3.6 1.3 5.3 1.9a28.81 28.81 0 0 1 8.1 4.4h-.1c.9.5 1.7 1.6 2.5 2 .1.2.6.7.4.6.3.2.7.7 1.1 1.2l1.1 1.4-.2-.2c.6 1 1.3 1.8 1.7 3-.1-.1-.2-.3-.2-.3.1.5.7.9.6 1.3.1.3.2.1.1 0 .5 1.3.9 2.6 1.1 4l.2 1c0 .1.1.5 0 .7l-.1.5-.4 2.1c-.8 1.8-.4 0-.8 1.5-.1.1.1.1 0 .1-.1.6-.6.8-.7 1.2.2-.1-.1.3 0 .3l-.7 1.1c-.1.1-.2.3-.3.4-.1.2-.2.3-.3.5v-.1c-.2.5-.6 1-.9 1.5s-.7.9-.9 1.4c-2.1 2.4-4.4 4.4-7 5.9s-5.3 2.8-8.2 3.8c-2.9.9-5.7 1.6-8.6 2l-2.2.3c-.7.1-1.5.2-2.2.2l-4.5.1c-1.4-.2-1.5-.2-3.1-.1.1 0 .2 0 .1-.1-.1.2-1.1 0-1.2.1-2.2-.1-4.3-.3-6.5-.7.4 0 .6-.1.1-.1h-.5l-.1-.1c-.3 0-.6 0-.3.1-5.7-.9-11.1-2.8-16.1-5.6-.6-.3-1.3-.8-2-1.2s-1.4-.9-2-1.3c-3.3-2.9-5.8-6-7.7-10 0 .7.6 1.1 1.5 2.6zm-1.3-3.5c.1-.2.1-.7.2-.3-.1.1-.1.4-.2.3zm4.3-12l.2-.2c-.1.1-.1.3-.2.4v-.2zm2.2-2.4c0 .1-.4.6-.7.9l.7-.9zm2.6-1.7c.3-.1.2 0-.1.2-.1 0 0-.1.1-.2zm0-.2c.2-.2.3-.2.5-.2 0-.1-.5.3-.5.2zm5.9-3.1c.1-.1.4-.3.6-.3-.2 0-.7.4-.6.3z"/><path d="M20.8 10.8c.1 0 .1 0 .2-.1.2 0 0 .1-.2.1zm53.5 8.1l-.2-.2v-.1zm-2.2 21.5c-.2.3-.2.1-.3.1.3-.2 0 .2.3-.1zm-11.3 7.1h.1l.1.2zM79.3 34c0-.1 0-.1 0 0l-.5-.1c0 .1 0 0 .1 0l.4.1c0-.1-.1-.1 0 0l-.4-.1v.1l-.1-.1.5.1c.1-.1 0 0 0 0zm-76.6.2c.5 1.1.4 2.7 1.1 3.8.1.1-.2 0-.1.3.7 1.1 1.3 2.8 2 4.2h-.1c.1.3.5.4.6.7h-.1c.1 0 .4.4.5.5v.3h.2c.5.2.7.9 1.3 1.3H8c.9.6 1.8 1.5 2.8 2.2-.1 0-.1 0-.1.1.1-.1.4.1.7.3 0 .2.5.2.8.5.3 0 .3.3.6.3l.1.2c.2-.1.3.3.5.3.2.1.2.2.4.3.4.2.6.4.7.3.1.2-.4-.2-.3.1l4.1 2c.1.1.2.2.2.3.1 0 .5.2.7.2-.1 0 .1.1.1.2.2.2.4 0 .6.1-.1 0-.2 0-.2.1.3 0 .6.1.9.2h-.1c.4 0 .6.2.9.2h-.1c.4.3.2-.1.6.1-.1 0-.1 0-.1.1.4 0 1 .2 1.4.3s.8.3 1.3.3c.1.1-.1.2.3.3 0-.2.7.1.5-.2.4.1.9.3 1.2.3-.2 0 .1.3-.2.2l.2.2c-.1.1-.2-.1-.2 0 .1 0 .6.1.8.1.3 0 .6-.2 1.1-.1-.2 0 .1.2-.1.2.2-.1.5-.1.7-.2.1 0 0 .2.2.1 0 0 .1-.1.2-.1s.6.1.7.3c.1.1-.3 0-.1.1h.6c.2.1.6 0 .4-.1-.1 0 0 .1-.1 0 .1-.1.5-.1.8 0-.1 0-.1.1-.1.1.4-.1.8-.1 1.2-.1 0-.1-.2.1-.2.1.5.2 1.1 0 1.6.2-.1 0 0-.1 0-.1.3 0 .2.2.4.1 0 .1.2 0 .4 0 .1 0 0 0-.1 0 .3 0 1.3-.1 1.8.1 0 0 .4-.2.5-.1l-.1.1c.1.1.4 0 .5.1.3-.1-1.1.1-.7 0 .1.1.5-.2.4 0 .3 0 .5-.1.8 0-.1 0-.2.2 0 .2.4 0 .1 0 .4-.1h.2c0-.1.3 0 .2-.1 0 .1.6 0 .5.1l-.1.1c.2 0 .3-.2.4-.2 0 0 .1 0 .1.1 0-.2.4 0 .6-.1.3.1.9 0 1 .2.3-.1.5-.2.8-.1-.1 0-.1 0-.2.1.2.1.2 0 .4 0 0 0 .4.1.6.2.3-.1.2-.2.2-.3.3.2.7-.2 1 0-.1 0-.4.1-.2.2.3.2.5-.2.9-.1l-.1-.2c.2.1.6-.1.5 0 .1-.1.5 0 .4-.1.6.1 1.5-.2 1.9.1.1 0 .3 0 .3-.1-.2-.1-.2.1-.3 0 .1 0 .1-.1.1-.1.2 0 .4 0 .2.2.4.1.4-.3 1-.3 0 .1 0 .1.2.1l.3-.2c.4 0 .2.1.3.3.2 0 .4-.1.5-.2l.3.1c-.2-.1.1-.1.2-.1h-.1.4c0-.1-.3-.1-.4-.1.1-.1.2-.1.4-.2 0 .1.3 0 .5 0s.2-.1.2-.1c0 .1.3 0 .2.1h-.2c.1 0 .1.1.4 0 .2-.1-.1-.2.3-.2-.1 0-.1.1-.1.2h.3v-.1c.1-.1.5-.1.5-.3h.5c.2 0 .4-.1.6-.2a.76.76 0 0 0 .4-.2c.3 0 .2.4.4.2.3-.1.4-.3.2-.3.5 0 1-.3 1.4-.3.1-.1 0-.1.1-.1.7-.1 1.4-.5 2-.5-.2.1 0 .1 0 .2.1-.1.2 0 .2-.1-.1-.1 0-.1-.2-.1.4-.2 1-.4 1.2-.3-.1 0-.1-.1 0-.1 0 .2.3.1.5 0v-.1h.2c.1-.1 0-.2.3-.2l.1.1c.2-.2.5-.4.7-.4l.3.1c.1-.1.2-.2 0-.2.4-.1.7-.2.9-.1.6-.6 1.6-1 2.4-1.4v.1c.2 0 .1-.2.2-.2 0 .1.2.1.1.2.3-.1.3-.3.5-.4 0-.1-.1.1-.1 0 0 0 .4-.2.4-.3.1 0 .1.1.1.2l.1-.2c.3 0-.4.5 0 .6l.2-.1c.2 0-.4.4.1.2.1-.2.2-.4 0-.4.4-.2 0-.4.4-.6.1 0-.3.2-.2.3.3 0 .4-.3.5-.3-.2.1-.1-.2 0-.3.2-.1-.1.2.2 0 0-.1.2-.3 0-.2 0-.2.3-.1.4-.3.2.1-.1.4.2.3-.1-.1.3-.4 0-.4.1 0 .2 0 .2.2.2 0 .3-.5.5-.3v-.2h.3c.1-.1.4-.5.5-.3 0 0 .4-.3.2-.3-.3.1-.2.3-.4.2.2 0 .3-.2.4-.4h.1c.1-.1.2-.2.2-.3 0 .1 0 .1.1.1v-.2c.3-.3.2.1.4-.1l-.2.2s.2 0 .3-.2v-.4c.1-.2.1 0 .2-.2l-.1.3s.2 0 .4-.1c.1-.1.2-.4 0-.3.1-.1.3-.2.3 0 .2-.2-.1-.1.1-.3.1 0 .4-.2.6-.2l-.1.3.1-.1c-.1.3.2 0 .2.2.1-.1.2-.2.2-.3-.4.1.1-.5-.2-.6.3-.4.6.2.7-.4-.1 0-.1-.3-.2 0 .2-.2 0-.3.3-.5-.1.3.4 0 .2.3 0-.1-.2.1-.2.2.1 0 .1.2.4 0 .1-.2.3-.3.2-.4s-.2.2-.2 0c.2-.3.4-.2.3-.5-.1.2-.3.2-.3.1l.1-.2v.1c.3-.3 0-.2.3-.5h.3c0 .2-.4.4-.2.5.2-.2.2-.3.4-.5 0 .1-.1.1-.1.2.1-.1.4.1.5-.4.1-.2 0-.1-.1-.2.3-.4.3-.5.4-.8.1.2.3-.4.3 0-.2.1-.6.6-.5.8.3 0-.2.3-.1.5.2-.3.4-.2.5-.1.1-.1.1-.2.1-.3-.1-.1-.1 0-.3-.1.3-.3.5-.7.5-.9.1-.1.2 0 .1.2.2-.4.6-.8.8-1.2-.3.2.2-.5 0-.4-.2.2-.4.3-.4.1.1-.1.1 0 .1 0 0-.2.3-.2.2-.4-.2.4.2.2.3.3.1-.3.1.1.3-.2l.3-1c.3-.3.5-1 .6-1.4.1-.2.3 0 .4-.2.1-.3-.3.1 0-.2 0-.1.3-.7.1-.8l.1.2v-.2c.1 0 .1 0 .1.1.2-.2.1-.5.2-.8l-.1.1c0-.5.2-.7.3-1.2h.1v-.3c.1.1.2-.1.1-.3.1.2.1.5.1.7-.1.2-.1-.2-.2-.1s-.2.5-.1.6c.1-.2 0-.2 0-.3.2 0 .1.2.2.3 0-.1.1-.2 0-.2 0 .2 0 .3-.1.6 0-.2-.1.1-.1 0 .1 0 .1.3 0 .6-.2.2-.1.6-.3 1-.1-.2-.1-.4-.1-.7-.1.2-.1.3-.2.5.1.2.2.3.1.6h-.1c-.1.3.1.3-.1.7l-.8 1.6h-.1c.1.3-.4.8-.5 1.2-.4.5-.6 1.2-1 1.3-.6.9-1.1 1.7-1.9 2.5v-.2c-.1.2-.1 0-.3.2.2-.1-.1.3-.1.5-.4.3-.8.8-1.1 1.2l-.1-.1c-.2.4-.7.6-1.2 1-.1 0-.2 0-.3.1-.1.3-.3.4-.6.7l-1 .6c-.9.9-2.1 1.4-3.1 2.1l-.1-.1c-1 .8-2.4 1.2-3.4 1.7v-.2c-.3.1-.7.3-.5.4-.3.1-.7.4-1 .3-.3.1-.4.2-.6.3-.7.1-.9.2-1.5.5h.1c.1-.1 0-.2-.1-.1-.2.1-.9.2-.6.4-.7.1-1.5.5-2.2.5.1 0-.1.1-.1.2-.6.2-1.2.2-1.6.4-.1 0 .1-.1-.1-.1-.1.1 0 .1-.1.2-.9.3-1.9.3-2.8.4-1.5.4-3.1.5-4.6.7-.5.2-1.2-.1-1.6.2-.1 0-.4 0-.4-.1-.4.2-1.1 0-1.7.1h.1c-.6-.1-1.1.1-1.7 0 .1 0 .2 0 .2-.1-.2-.1-.6.2-.7 0-.1 0-.1.1 0 .1-1.3-.1-2.8 0-4.1 0-1-.2 0-.4-.8-.3-.1 0-.1.1-.1 0-.3 0-.4-.3-.7-.2.1.2-.1.1-.2.2-.6-.1-.7-.3-1.2-.2v-.1c-.6.2-1.2 0-1.7.2-3.1-.3-6.1-.8-9-1.6-2.9-.9-5.7-1.8-8.4-3.4-.6-.5-.6-.5-1.3-.9h.1c-.1.1-.5-.3-.6-.2l-2.8-1.9c.2.1.3 0 .1-.1l-.3-.1v-.1c-.1-.1-.3-.1-.2 0C7.8 47 6 44.6 4.5 42l-1.1-2.2c-.6-2.2-.9-4.2-1.2-6.4-.1-.4.3-.1.5.8z"/><path d="M79.3 34.4c-.1.1-.2.3-.3.1.1 0 .2-.1.3-.1zm-2.9 6l-.1.1c0-.1 0-.2.1-.2-.1 0-.1 0 0 .1zm-.9 1.4c-.1-.1.1-.4.2-.6l-.2.6zm-1.2 1c-.1.1-.1 0 0 0zm.1.2l-.2.2s.1-.3.2-.2zM72 45.3c-.1.1-.1.2-.3.2.1 0 .2-.3.3-.2zm-1.1 1.1s-.1 0-.1.1c-.1 0-.1-.1 0-.1h.1zm-26.8 9.2l.2-.1v.1zm-12.6-.5c-.2 0-.1-.1-.1-.1.1 0-.1 0 .1.1zM24.7 54v.2zm54.6-25.3s-.1 0 0 0zm0 5.1c-.4-.1 0-.1-.2-.2h.2c-.3-.1-.1-.2.1-.3h.1c-.3 0 0-.1-.1-.1h.1c-.2-.1-.2-.1-.2-.2.1 0-.1 0-.1 0-.1 0 .1 0-.1 0h.1c-.2 0 .1 0 0 0s.1 0 0 0 .1 0-.1 0h.2c-.2-.1-.1-.2-.1-.2h.1c.1 0-.2 0-.1 0h.1c.1 0-.2 0-.1 0h.1c-.2 0-.1 0-.2-.1v-.1h.2-.3s.1 0 0-.1h.3-.6s-.1 0 .1 0h-.1c-.1 0-.2 0-.3-.1-.1 0 .2 0 .1 0 .1 0-.2-.1 0-.1h-.1.1c.1 0 0 0-.1 0s0 0 0 0c-.1 0-.2-.1-.1-.1h-.1.1c-.1 0 .1.1 0 0 .1 0-.2 0 0 0 0 0-.1 0 0 0h-.2c.1 0-.1 0 .1 0h.2-.3c.2 0-.1 0 .1-.1h.2c.2 0-.2 0-.1 0h-.2c.1 0-.1 0 .1 0-.1 0 .1 0-.1 0 .1 0-.1-.1.2-.1h-.1c-.1 0 .1 0 0 0h-.1.2c.1 0-.3 0-.2 0h.2s-.1 0 0 0 0 0-.1 0h-.1c.1 0-.1 0 .1-.1h-.1s-.1-.1.1-.1h.2c-.1 0 .1 0-.1 0h-.2c-.1 0-.1-.1 0-.1H78h.2c-.3 0-.3-.1-.3-.2h.1c.1 0-.1 0-.1 0h.2c.1 0-.1 0-.2 0s.1 0-.1 0c0 0 .1 0-.1 0h.2c.1 0-.1 0 0 0h-.3c-.2 0 .1 0-.1 0h.2c.1 0-.2 0 0 0h-.1.1s-.2 0 0 0h-.1c-.1 0 .1 0-.1 0 .1 0 0 0-.1 0s.2 0 .2 0h.2-.3c-.1 0 .1 0 0 0s.5 0 .2 0h-.3.4c-.1 0-.1 0 0 0 0 0 .1 0-.1 0h-.2c.1 0-.1 0-.1 0h.2c.1 0-.1 0 .2 0h-.2.2c-.1 0-.1 0 .1 0h.1l-.1-.1h.2v-.1h-.4c-.1 0 .2 0 0 0h.4c-.1 0 .1 0 .1 0-.1 0-.2 0-.2-.1.1 0 0-.1 0-.1h.2s.1 0-.1 0h.2c-.1 0 0 0 0-.1h.2c-.1 0-.1 0 0 0h-.1.4c-.2 0 .1 0 .1 0h-.2.2c-.1 0-.1.1-.1.1h-.1c.2 0 .1 0 .2.1-.1 0 .1.1-.1.1.1.1.1.1.1.2h-.1c.1 0-.1 0-.1 0h.2c-.1 0 0 .1.1.1h-.1c.2 0 0 0 0 .1h-.1.3l-.1.1c.2.1.1.1.2.2h-.1c.3.1 0 .1.1.2H79c-.1 0 .1 0 .2 0-.1 0 .1 0-.1 0h.1c-.1 0-.1 0 0 .1h-.1c.1 0-.1 0 .2 0-.1 0 .1.1-.1.1h.1s-.1.1 0 .1h-.1.1c.1 0-.1.1-.1.2.1.1.1.2.1.2h-.1c.2 0-.2.1.1.1h-.1c.1 0-.1.1 0 .1-.1 0 0 .1-.1.1H79c-.1 0 .2 0 0 0h.1c-.1.1.1.2.1.2H79c-.1 0 .1 0 0 0 .1 0-.3 0-.1 0h.2c-.1 0-.2 0-.1.1h-.1c.2 0 .1.1.4.1 0 .2.2.3.2.5-.1.2.1.3-.1.5-.2 0-.2 0-.1.1h-.1.2v.2h-.1.2c.1.2-.2.3-.1.5-.1 0 0 .1 0 .1-.2.1-.4.2-.2.3.6-1.9.2-2 .1-2z"/><path d="M79.4 28.7h-.2.2zm-.9.4s-.1 0 0 0c-.1 0 0 0 0 0zm0 .1h-.1.1zm-.3.1c-.1 0-.1 0 0 0-.1-.1-.1-.1 0 0z"/><path d="M78.3 29.3s-.1 0 0 0zm-.2.1s.1.1 0 0c.1.1-.1 0 0 0zm.1.1s-.1 0 0 0zm.3 1.6h.1zm0 .7c-.1 0 0 0 0 0zm.4.3h.1z"/></g></svg>