<svg xmlns="http://www.w3.org/2000/svg" xmlns:xlink="http://www.w3.org/1999/xlink" baseProfile="tiny" viewBox="0 0 53.8 67.25"><style><![CDATA[.B{fill:#202020}.C{fill:#7192ad}.D{fill:#9db5cc}.E{fill:#b1c6d3}.F{fill:#f8fafd}]]></style><path d="M41.18 58.6l1.3-.76.1-37.6-1.3.76z" class="D"/><g class="B"><path d="M41.2 58.3c-.23.17.2.03-.13.14 0-.07.02-.14.13-.14zm.17-.64c-.38-.93.01-2.14-.23-3.16-.02-.12.2.03.16-.24-.3-.98-.1-2.53.12-3.72l.06.07c.04-.23-.15-.5-.12-.75.04 0 .06.08.1.02-.12-.06-.05-.44-.14-.54.05-.1.14-.1.2-.2L41.4 49c-.32-.38.03-.93-.14-1.46.03.03.06.08.1.04-.2-.84-.15-1.9-.22-2.83.05.04.13.07.2.02-.14-.05-.18-.34-.2-.6.15-.1-.13-.43-.05-.73l.03.03c-.15-.22.1-.32-.1-.5l.1-.14c-.2-.1.1-.32 0-.5l-.04.01c-.05-.17.05-.26.02-.42v-.02c-.05-.37.06-.58-.1-.58.13-.13.06.36.24.16-.16-1.22-.13-2.47-.13-3.7.06-.14.08-.23.15-.26-.03-.12-.03-.46-.1-.57 0 .04.08-.08.1-.14.06-.22-.18-.24-.1-.5.04.1.1.13.15.1-.12-.2-.1-.5-.14-.73.03.04.04.1.1.1-.14-.27.03-.5-.06-.73l.1.1c.1-.38-.2-.1-.13-.44.03.08.07.05.1.07-.17-.3-.1-.8-.17-1.1.01.02.04.01.04.01-.02-.33.03-.68-.04-1.05.04-.13.23.04.2-.3-.2.01-.07-.6-.3-.4.03-.3.1-.78.04-.98.07.14.23-.15.24.1l.1-.2c.08.03-.03.2.07.14-.01-.13-.08-.5-.05-.6-.1-.23-.32-.45-.35-.82.07.18.2-.1.24.02l-.35-.53c-.01-.13.15-.03.1-.2-.05.01-.08-.07-.12-.13.02-.05-.04-.52.14-.58.07-.05.04.2.1.07 0-.23-.06-.24-.07-.47h.02c.03-.15-.08-.45-.18-.3-.01.1.1-.04.06.12-.1-.1-.13-.38-.14-.6.03.08.08.07.13.1-.14-.3-.2-.64-.25-1-.1-.01.16.13.1.18.12-.45-.17-.92.01-1.3.02.06-.12.03-.1.03.01-.2.14-.2.1-.34.07-.01-.02-.18-.04-.32-.05-.07.04-.04.04.1-.06-.2-.17-1-.06-1.47-.05.01-.18-.3-.17-.4l.1.04c.07-.1-.01-.36.1-.37-.14-.23.12.88.01.57.1-.08-.18-.43-.03-.36 0-.2-.13-.42-.02-.63-.02.06.16.17.15 0-.02-.3-.05-.07-.1-.4l-.05-.23c-.1-.05.02-.4-.1-.28.03-.01.04-.1.03-.2.16-.1.36-.24.43-.14l.07.13c.13-.1.13-.25.23-.4.03 0 .1 0 .1.02-.07-.22.3-.15.34-.38.14-.04.28-.12.42-.2l.92-.47-.06.97c-.01.16-.03.3-.1.37.07.2.15.4.1.65-.02-.05-.03-.1-.07-.13-.07.15-.01.2.03.33-.03-.03-.13.3-.2.47.07.2.2.14.26.16-.22.2.14.6-.06.84-.03-.07-.1-.3-.16-.13-.22.2.16.4.05.7l.18-.08c-.1.14.1.46-.08.43.07.1-.06.37.12.33-.15.5.1 1.24-.23 1.55.03.07 0 .26.1.22.1-.12-.07-.17 0-.2.01.07.05.08.08.1-.04.16-.05.28-.2.13-.1.35.3.36.23.8-.07-.02-.1.01-.1.15l.13.25c-.03.3-.17.16-.3.17.02.16.01.35.1.42l-.16.2c.1-.14.07.13.1.2l-.03-.07c-.05.03-.02.2-.01.3.08-.02.1-.2.13-.3.05.08.04.2.1.3-.12-.04-.1.25-.1.38-.03.14.1.16.1.2-.06 0-.01.23-.1.12-.02-.05.06-.1.01-.2-.05.1-.16.08-.08.28.06.15.24-.04.16.24-.03-.07-.08-.1-.12-.14l-.06.26.1.01c-.03.03-.04.01-.05.03.12.08.03.4.17.45.01.13-.08.27-.1.4v-.02c-.07.15-.02.36.05.48h-.02c-.01.08.01.28.07.38-.08.2-.42.07-.28.3 0 .2.2.34.27.25-.08.38.1.82-.07 1.18.04.06.07.02.1.13-.05.56.13 1.2-.1 1.64-.05-.16-.1-.01-.17-.01.1.14-.1.16.07.2.1-.01.15 0 .2-.16.05.34.05.85-.04 1.03.05-.1.08-.02.1.05-.16-.03-.2.22-.13.4l.1.03-.1.12c.03.07.2.08.1.27-.04.01-.08.02-.1.05.08.2.2.47.13.68l-.14.17c.02.1.1.24.14.08-.1.36-.1.6-.22.7.3.62.3 1.52.28 2.24h-.07c-.07.2.13.1.08.24-.07-.06-.15.15-.24-.01-.08.28.13.36.16.54.1.03-.06-.14.06-.1.03.03-.08.38.07.43-.06.07-.16.01-.22-.02l.07.17c-.17.2-.3-.47-.5-.26l.02.16c-.15.15-.17-.4-.22-.02.07.17.28.32.35.16.04.35.35.16.33.54-.1.1-.02-.3-.14-.23-.12.18.06.36.02.52.06-.18.2-.03.23.1-.07.2-.14-.13-.15.15.08.05.15.3.2.08.2.1-.05.28.1.43-.13.1-.3-.28-.38.02.13-.05.17.37.37.2-.04.12-.14.13-.22.04-.08.17.23.4-.02.46l.13.06c-.04.05-.08.13-.15.2 0 .15.18.48-.02.46.02.05.01.4.15.26.08-.2-.1-.24.1-.36-.15.15.02.3.07.43l-.08.02c.03.07.01.24.1.28-.04-.06-.1-.03-.12.03l.12.08c.06.3-.2.07-.17.35l-.1-.22c.02.05-.1.14-.05.28.1.05.23.15.32.2.05.16-.12.07-.01.23l-.13-.2c-.03-.03-.18.14-.17.36.04.14.2.35.25.13 0 .1-.06.26-.14.17.04.25.1-.03.18.18-.07.1-.17.35-.28.52l-.18-.22v.15c-.14-.2-.1.1-.26-.01-.02.1.03.22.07.32.24-.3.33.33.55.24.06.4-.54.25-.2.67.06-.07.23.13.16-.12-.03.25.22.17.13.46-.1-.22-.22.23-.36-.08.07.02.06-.18.04-.22-.08.1-.22-.02-.22.23.02.16.02.37.14.34.13-.01-.01-.24.1-.14.04.3-.15.36.07.5-.02-.2.1-.25.2-.24l.05.23-.08-.04c-.06.37.15.1.13.46l-.17.17c-.14-.08.06-.52-.17-.45-.01.23.1.3.05.52-.02-.05-.03-.1-.05-.16-.01.08-.32.16-.14.5.07.17.08.05.17.05.03.37.1.48.13.72-.17-.05-.02.42-.2.16.1-.12.1-.66-.07-.8-.2.13.03-.3-.17-.37-.01.3-.2.28-.33.33-.01.08.05.16.07.2.12.04.12-.07.25-.08-.03.33.03.65.15.83-.06.1-.18.08-.2-.06a6.84 6.84 0 0 1-.02 1.2c.2-.24.05.42.2.25.05-.2.2-.37.28-.26-.01.13-.1 0-.13.05.1.16-.18.25 0 .4-.06-.36-.24-.07-.4-.14.1.26-.1-.01-.1.24.1.26.15.58.2.86-.15.36-.01.9 0 1.24-.08.17-.26.05-.3.24 0 .2.2-.16.1.16l-.03-.03c.04.1-.12.58.13.68l-.2-.1c-.02.06.03.1.05.16-.06 0-.12.07-.16-.03-.13.2.02.4.02.63l.1-.14c.06.3.02.54.01.78a2.38 2.38 0 0 0-.3.18l-.07-.08-.16.17c-.02-.1-.23-.07-.28.06.12-.17.22-.34.27-.47.17-.02-.02.16.14.2.08.01.2-.04.3-.1-.01-.1-.04-.2-.1-.24a.36.36 0 0 0 .03.21c0 .01-.01.02-.02.03-.07-.03-.1-.06-.08-.1-.05-.07-.07-.17-.13-.24.01.06-.04.1.01.14a.72.72 0 0 1-.1-.4c.06.12.1-.05.14-.01-.14-.01-.18-.2-.14-.47.16-.2-.1-.5-.06-.8.14.13.25.28.3.47.07-.2 0-.2.07-.4-.1-.1-.26-.16-.32-.4l.1-.01c-.05-.23-.2-.23-.17-.52l.07-1.4.1-.01c-.22-.2-.08-.7-.17-1 .1-.48-.1-1.05.08-1.3-.08-.85-.15-1.6-.1-2.48l.15.15c-.1-.16.1-.1.06-.26-.12.18-.15-.22-.24-.33.12-.4-.01-.9-.1-1.25l.1-.01c-.2-.35-.02-.77.01-1.2.04-.05.14-.13.13-.26-.16-.24-.15-.36-.25-.7a4.22 4.22 0 0 1 .11-.93c-.23-.96-.08-1.94-.2-2.94l.12-.07c-.25-.97-.02-2.16-.15-3l.2.08c.06-.26-.05-.6-.2-.53.06-.26-.1-.65.07-.8.04-.27-.1-.33-.12-.55.08-.53.06-.73.03-1.23l-.01.12c.04.06.13.06.14-.06-.06-.2.06-.7-.2-.5.14-.53-.1-1.25.08-1.77-.07.04-.08-.1-.12-.14 0-.47.14-.96.02-1.34.03-.07.1.12.12-.07-.02-.1-.1 0-.12-.14-.12-.76.13-1.54.1-2.23-.12-1.23-.06-2.5-.07-3.7h.05c-.2-.4.2-.92-.1-1.24.05-.1.02-.36.12-.3-.13-.3.13-.88-.04-1.33 0 .04.01.07.03.1.1-.46-.04-.86.06-1.35.02.05.04.14.08.15.1-.2-.2-.44.03-.55 0-.1-.12-.08-.1-.01.02-.18.03-.37.03-.56l1.05.6-.65.4-.18.13-.08.08.04.18.04.6c-.14.8-.4.05-.22.67-.05.05.1.04.04.05.06.24-.26.37-.14.54.14-.07.08.1.17.12-.1.48-.23.58-.12.96l-.08-.03c.2.45.1.97.34 1.34l.2 7.23-.1 7.12c-.2.56-.2.6-.12 1.23-.03-.02-.04-.06-.07-.02.16.03.01.44.17.5l.01 2.63c-.02-.15-.15-.22-.14-.05l.1.18-.05.03c.02.12.1.25.16.13.14 2.3-.2 4.57-.17 6.83-.07.54-.01 1.3.02 1.88-.22 1.73-.4 3.28-.26 5.04-.03.02-.45-.2-.55-.94z"/><path d="M41.5 58.1c.1.04.3-.02.2.15-.06-.05-.2-.08-.2-.15zm1.56-4.62c-.02-.01.03-.08.05-.1.01.07.07.13.03.18 0-.07-.04-.06-.08-.1zm.06-1.38c.07.02.13.3.14.5l-.14-.5zm.3-1.27c.06-.1.1-.08.1.07-.03.01-.05-.04-.1-.07zm-.17-.1c0-.1.04-.16.08-.2-.05 0 .05.24-.08.2zm.22-2.77c-.01-.07-.07-.2.02-.27-.06.06.1.32-.02.27zm-.1-1.3c0-.04.02-.06 0-.1.03-.08.1 0 .1.07l-.1.04zm-.23-23.48l.04.14-.08-.02zm-2.42 3.63c.05.14-.07.1-.08.12 0-.12.1.05.08-.12zm.35 5.55v-.04l.15.01z"/></g><path d="M41.3 21.02l1.3-.76L17.95 6.03l-1.32.76z" class="E"/><g class="B"><path d="M41.27 20.72c-.17.14.17.05-.1.12 0-.07.02-.13.1-.12z"/><path d="M40.75 20.5c-.8-.02-1.42-.82-2.2-1-.1-.03.13-.17-.08-.23-.8-.12-1.74-.87-2.42-1.52l.08-.02c-.13-.12-.4-.06-.56-.18.02-.03.08-.02.07-.1-.1.08-.32-.12-.43-.08-.04-.08.01-.15-.04-.25l-.16.06c-.4.13-.6-.38-1.04-.43.03-.02.08-.02.07-.06-.66-.15-1.34-.6-2-.9.05-.03.12-.1.1-.16-.1.1-.3.02-.5-.05 0-.17-.35-.05-.5-.23l.03-.02c-.22.05-.17-.2-.38-.1l-.03-.15c-.17.14-.16-.2-.33-.2l-.02.04c-.14-.02-.15-.14-.27-.18v-.03c-.27-.1-.36-.28-.43-.13-.02-.16.27.1.23-.15-.9-.32-1.7-.83-2.52-1.3-.06-.1-.1-.16-.1-.22-.1-.02-.32-.15-.44-.12.03.01-.01-.1-.05-.13-.12-.14-.25.06-.38-.1.1 0 .13-.03.14-.1-.2.03-.38-.1-.56-.16.04-.01.1 0 .1-.05-.25.02-.3-.2-.5-.23l.1-.05c-.2-.24-.17.12-.36-.06.07.01.07-.04.1-.06-.3.03-.6-.2-.82-.28.02 0 .03-.03.03-.03-.23-.1-.44-.3-.72-.37-.07-.1.14-.18-.1-.28-.08.17-.44-.16-.4.1-.2-.14-.47-.4-.63-.4.13-.01.02-.25.2-.17l-.07-.17c.06-.06.12.1.12-.01-.1-.04-.37-.12-.43-.2-.2.01-.46.1-.72-.01.15.01.04-.22.13-.2l-.53.1c-.1-.04.06-.14-.1-.16-.02.05-.1.04-.14.06-.02-.04-.37-.16-.3-.34 0-.08.16.04.1-.06-.15-.1-.2-.04-.35-.12h.01c-.1-.08-.34-.1-.28.05.07.05.03-.1.1 0-.12.05-.32-.03-.47-.1.07 0 .1-.04.13-.07-.28.01-.52-.08-.78-.16-.05.07.17-.1.18-.03-.24-.27-.7-.2-.85-.5.05.01-.04.12-.03.1-.14-.1-.07-.2-.18-.2.03-.07-.13-.05-.24-.08-.08.02-.01-.05.08 0-.16-.02-.75-.23-1-.5-.02.05-.28.05-.35 0l.08-.08c-.03-.1-.24-.13-.2-.22-.22.03.64.23.38.2-.01-.1-.38-.01-.25-.12-.14-.08-.35-.05-.43-.22.03.04.2-.07.08-.13-.2-.1-.1.01-.26-.05v-.75l.08-.1c-.05-.1.2-.1.05-.16.07.06.26-.22.34-.05l.04.14c.08-.06.07-.22.1-.3.02.01.06.02.06.04-.12-.2.27-.13.37-.4.15-.04.32-.14.48-.22.16.1.3.2.36.32.2.03.5.12.6.24-.04 0-.1-.02-.12.02.07.1.12.08.23.1-.04.02.14.23.2.36.17.02.2-.1.24-.16.02.26.47.1.53.37-.06 0-.26-.02-.17.1.02.26.34.01.5.22l.04-.2c.04.15.36.08.24.23.1-.02.2.2.28.03.26.33.87.4.92.8.06 0 .17.1.2.01-.03-.13-.15 0-.14-.08.05.02.08-.02.1-.03.08.1.16.16-.01.23.18.23.4-.12.66.1-.05.06-.04.1.05.13l.23-.01c.18.14.03.2-.03.32.1.04.24.12.33.07l.05.2c-.03-.15.12-.02.2-.01h-.06c-.01.06.13.1.2.12.02-.07-.08-.17-.14-.23.08-.02.16.04.26.03-.08.1.12.17.2.23.08.08.16-.03.2-.01-.03.06.15.1.03.13-.04 0-.04-.1-.12-.08.04.08-.02.17.14.17.13 0 .1-.22.24-.05-.06 0-.1.04-.16.05l.14.15.06-.1c.01.04-.01.04-.01.06.1-.07.28.12.4.03.1.04.14.17.22.23H25a.38.38 0 0 0 .35.14l-.02.02c.05.04.2.1.3.08.1.15-.16.4.06.36.14.08.32-.05.3-.14.22.2.6.22.75.5.06-.02.05-.06.14-.03.35.25.86.34 1.04.7-.13-.02-.06.1-.1.15.14-.03.06.15.17.02.04-.1.07-.13-.01-.23.25.08.6.28.67.43-.04-.08.02-.08.1-.07-.1.13.06.25.2.27l.07-.07.03.13c.06 0 .16-.15.23.01-.01.04-.02.07-.02.1.17.01.42-.01.52.15l.04.2c.07.02.2 0 .13-.1.2.2.34.3.36.46.56-.02 1.16.3 1.63.6l-.05.06c.1.13.13-.07.2.02-.08.04.02.2-.12.2.15.17.3.03.44.07.07-.07-.13 0-.04-.1.04-.02.22.2.32.1.02.08-.07.15-.13.18h.15c.05.23-.46.08-.43.35l.1.04c.02.2-.36-.01-.13.2.15 0 .35-.12.28-.24.25.1.28-.24.53-.08.03.1-.2-.1-.22.03.06.17.27.08.36.18-.1-.12.08-.2.17-.16.1.13-.15.07.02.2.07-.06.27-.01.16-.15.16-.13.16.15.34.08-.01.15-.34.16-.18.33.03-.13.33-.01.32-.24.06.08.02.17-.08.2.07.13.4-.05.3.2l.1-.1c.01.06.05.1.07.2.1.06.4.03.3.2.04 0 .26.14.24-.03-.1-.15-.2-.01-.2-.2.02.2.2.1.32.1l-.03.07c.06 0 .17.08.24.03-.06.02-.07.07-.04.1l.1-.07c.22.06-.06.2.15.3h-.2c.04 0 .05.13.16.15l.3-.2c.13.02-.01.13.15.1l-.2.03c-.04.02 0 .2.15.3.1.02.33-.03.2-.17.07.04.14.15.04.2.18.06.04-.1.2-.1.02.1.15.3.2.44l-.24.07.1.06c-.2.05.01.13-.14.22.05.06.16.06.24.06-.07-.32.38-.16.44-.38.3.1-.1.56.35.42-.02-.08.2-.15 0-.2.15.12.22-.13.37.07-.2-.01.04.28-.23.28.05-.06-.1-.12-.13-.12.03.1-.13.18.04.28.1.04.26.12.3.01.06-.1-.17-.08-.03-.15.23.08.17.27.36.12-.14-.06-.1-.2-.06-.27l.18.04-.07.06c.2.2.15-.1.37.06l.03.2c-.13.1-.3-.25-.4-.03.15.1.26.02.37.16-.04 0-.1-.02-.13-.02.05.04-.05.34.26.3.15 0 .07-.05.12-.13.26.12.38.08.54.16-.12.13.27.18.01.23-.03-.13-.4-.33-.56-.24-.01.23-.18-.14-.33.01.2.12.1.28.05.42.05.04.13.02.17.02.08-.1.01-.13.07-.24.2.16.45.22.63.2.04.1-.04.2-.13.15a4.04 4.04 0 0 1 .78.47c-.06-.27.3.12.27-.1-.1-.12-.15-.3-.04-.34.08.06-.05.07-.03.13.16-.03.08.25.27.16-.27-.08-.17.18-.3.3.22.02-.06.1.1.2a2.64 2.64 0 0 1 .67.17c.17.27.6.35.82.47.07.13-.1.24.01.34.14.08-.01-.23.16-.03l-.04.02c.08 0 .33.33.52.14l-.16.13c.03.04.1.02.13.02-.03.05-.01.13-.1.13.06.2.28.14.43.22l-.03-.15c.06.01.1.03.15.05l.3.14-.3.22c-.17.12-.34.14-.5.28l-.05-.1-.1.14c-.02-.1-.18-.1-.2.02l.23-.45c.13 0-.04.18.08.24.1.05.3-.1.28-.2-.1.04-.08.06-.13.13-.1-.12.02-.2.03-.3-.04.03-.13.03-.1.07.04-.1.12-.17.24-.24v.5l-.03-.02c.02 0 .03 0 .04-.01v-.45c0 .01 0 .02.02.03v.4c0-.03-.04-.08 0-.1-.08.1-.24.07-.4-.07-.05-.2-.38-.1-.56-.26a.82.82 0 0 1 .46-.08c-.1-.13-.14-.08-.24-.2-.1.05-.24.16-.43.12l.04-.1c-.18-.04-.25.1-.43-.05-.3-.23-.65-.43-.9-.6l.04-.1c-.25.1-.5-.2-.74-.23-.27-.27-.75-.32-.82-.56-.6-.26-1.14-.48-1.7-.85l.17-.07c-.16.03-.03-.1-.14-.15.06.17-.22.05-.34.1-.2-.25-.6-.34-.9-.38l.04-.1c-.33.03-.53-.28-.8-.47-.01-.06-.02-.17-.1-.2-.24.05-.32-.01-.6-.05a2.99 2.99 0 0 1-.56-.45c-.75-.17-1.33-.67-2.06-.94v-.13c-.77-.15-1.45-.8-2.06-1l.16-.15c-.14-.15-.42-.18-.45-.03-.14-.15-.48-.16-.5-.37-.16-.13-.26-.04-.42-.1-.3-.27-.45-.33-.8-.5l.08.06c.06-.02.1-.1.03-.15-.15-.02-.43-.3-.43-.03-.28-.33-.9-.38-1.14-.74 0 .07-.1.04-.16.05-.3-.18-.57-.48-.88-.53-.03-.06.14-.05.01-.13-.1-.02-.05.07-.16.05-.57-.18-.96-.7-1.43-.94-.88-.36-1.7-.9-2.5-1.34l.03-.04c-.36.01-.52-.52-.87-.4-.04-.08-.23-.16-.13-.2-.27-.01-.52-.44-.9-.47.03.02.05.02.1.02-.25-.27-.6-.3-.87-.57.04 0 .1.02.14-.02-.04-.08-.14-.08-.22-.08-.04.01-.06.02-.04-.1-.03-.02-.06.1-.04.1-.03-.04-.08-.07-.12-.1-.04.02-.08.04-.1.07-.05.03-.04.04-.18.13l-.63.44v-1.3l.52.25c.45.42-.17.36.34.45.01.06.07-.06.05-.02.2.04.12.37.3.33.03-.15.1-.03.16-.1.27.27.27.42.58.47l-.06.05c.4-.01.7.28 1.07.2l4.9 2.6 4.7 2.8c.28.4.3.4.76.57-.03.02-.06.01-.05.05.1-.13.3.15.42.04.58.37 1.15.64 1.76 1-.1-.04-.22.05-.1.1h.17v.05c.1.02.22 0 .16-.1 1.6.76 2.94 1.92 4.46 2.75.32.26.86.5 1.26.7 1.04.85 1.98 1.6 3.22 2.14.01-.12-.35.16-.88-.03zm.75.07c.08.05.24.01.2.17-.06-.06-.17-.1-.2-.17z"/><path d="M40.28 18.28c-.02.02-.03-.06-.04-.08.05.02.12-.02.14.04-.05-.02-.06.02-.1.04zm-.88-.58c.05-.06.27.01.4.07l-.4-.07zm-.7-.74c-.04-.1-.01-.1.1-.05-.01.03-.05.03-.1.05zm-.15.1c-.07-.04-.08-.1-.1-.15-.02.05.2.06.1.15zm-1.73-1.25c-.05-.02-.17-.02-.17-.12.01.08.26.05.17.12zm-.92-.4c-.03-.02-.03-.04-.07-.04-.03-.06.05-.07.1-.05l-.02.1zM20.18 6.68l.1.02-.05.06zM19.9 9.3c.12.01.03.1.04.1-.08-.03.08-.05-.04-.1zm3.88 1.82l-.03-.01.08-.13z"/></g><path d="M16.63 6.8l-.1 37.6L41.18 58.6l.1-37.6z" class="F"/><g class="B"><path d="M16.9 7.1c-.03-.48-.13.26-.06-.32.07.07.1.16.06.32zm1.03.66c1.54.45 3.13 1.8 4.73 2.46.18.1-.15.15.27.34 1.58.57 3.76 2.03 5.4 3.24h-.14c.3.23.82.3 1.16.52-.02.04-.14-.02-.1.08.15-.05.67.32.86.33.12.12.06.2.2.34h.27c.72.05 1.35.8 2.2 1.1-.05.01-.14-.02-.1.04 1.33.54 2.85 1.46 4.26 2.2-.08.01-.17.06-.12.15.14-.08.58.13.96.32.1.22.7.25 1.1.57l-.05.01c.4.05.43.35.78.34l.15.22c.24-.1.4.36.73.42v-.04c.27.1.35.26.64.4l.01.03.27.14c.01.53-.05.82.08.8-.13.24-.06-.66-.24-.26.16 2.05.12 4.17.12 6.24-.06.23-.08.38-.15.44.03.2.03.78.1.97 0-.07-.08.13-.1.24-.06.38.17.4.1.82-.04-.16-.1-.22-.15-.17.12.35.1.82.14 1.24-.03-.06-.04-.17-.1-.15.14.46-.03.83.06 1.23l-.1-.15c-.1.64.2.2.13.75-.03-.13-.07-.1-.1-.1.17.52.1 1.36.16 1.88-.01-.03-.04-.02-.04-.02l.04 1.77c-.04.23-.23-.07-.2.52.2-.02.07 1 .28.66-.03.5-.1 1.32-.04 1.66-.07-.23-.23.25-.24-.18l-.1.32c-.08-.05.03-.33-.07-.23l.05 1.02c.1.4.32.76.35 1.4-.07-.3-.2.17-.24-.03l.35.9c.01.2-.15.05-.1.35.05-.02.08.12.12.2-.02.08.04.88-.14.97-.07.1-.04-.35-.1-.1 0 .4.06.4.06.8h-.02c-.03.26.08.76.18.48.01-.18-.1.07-.06-.2.1.18.13.64.14 1.03-.03-.13-.08-.12-.13-.17.14.53.2 1.08.24 1.67.1.01-.16-.22-.1-.3-.12.75.17 1.55-.01 2.18-.02-.1.12-.06.1-.05-.01.36-.14.35-.1.58-.07.02.02.3.04.54.05.13-.04.06-.04-.15.06.34.17 1.7.06 2.48.05-.01.18.48.17.66l-.1-.07c-.07.16.01.6-.1.63.14.4-.1-1.48-.01-.96-.1.13.18.72.02.6 0 .36.13.7.02 1.06.02-.1-.16-.3-.15 0 .02.5.05.15.1.56l.05.26c.1.02-.02.46.1.27-.1.06.05.75-.13.7l-.15-.07a.71.71 0 0 0 .1.3c.04.1.1.23.13.36-.01.04-.04.12-.07.1.22.14-.02.75.15 1.3-.04.32-.04.75-.05 1.14-.37-.22-.7-.44-.88-.62-.4-.16-.87-.33-1.4-.7.12.04.26.12.3.1-.3-.24-.44-.26-.64-.34.06 0-.38-.37-.6-.58-.34-.12-.3.04-.36.1-.17-.35-.94-.38-1.2-.76.12.04.5.17.27-.03-.17-.35-.65-.2-1.05-.54l.02.22c-.15-.2-.72-.3-.58-.43-.2-.03-.5-.36-.54-.18-.67-.56-1.86-.97-2.16-1.5-.12-.04-.37-.22-.36-.1.13.2.28.08.32.18-.1-.05-.14-.02-.17-.01-.2-.17-.4-.3-.1-.3-.46-.4-.68-.05-1.3-.5.07-.05.03-.1-.17-.2l-.43-.1c-.4-.27-.16-.28-.1-.4-.24-.1-.5-.28-.66-.26l-.2-.3c.14.2-.22-.04-.35-.08l.12.03c-.02-.07-.3-.2-.43-.26-.01.08.24.27.38.37-.14-.02-.32-.13-.5-.17.1-.08-.33-.3-.5-.4-.2-.14-.3-.04-.35-.08.03-.06-.33-.2-.13-.2.08.02.13.15.27.17-.1-.12-.04-.2-.36-.3-.24-.07-.07.24-.43-.06.12.04.17 0 .27.01l-.35-.27-.07.1c-.04-.05 0-.04-.01-.07-.17.04-.6-.3-.75-.24-.2-.1-.36-.3-.54-.42h.04c-.2-.2-.5-.32-.73-.36h.02c-.12-.08-.4-.23-.6-.26-.27-.25.1-.42-.3-.5-.3-.18-.6-.1-.5.03-.52-.4-1.25-.6-1.7-1.05-.1-.01-.07.05-.25-.03-.8-.5-1.8-.9-2.35-1.46.26.1.07-.1.1-.15-.25-.03-.2-.23-.34-.12-.03.1-.07.13.14.3-.52-.24-1.27-.67-1.5-.9.1.12-.01.08-.13.05.12-.12-.23-.35-.54-.46l-.1.06-.13-.2c-.12-.03-.22.1-.44-.13 0-.05.03-.07-.05-.15l-.94-.4a4.22 4.22 0 0 1 0-.94c.05-.2.1-.22.14-.34-.02-.15-.1-.4-.14-.14.1-.6.1-1 .22-1.2-.3-1.05-.3-2.56-.28-3.78l.07.04c.07-.33-.13-.17-.08-.4.07.1.15-.25.24.01.08-.47-.13-.6-.16-.9-.1-.05.06.24-.06.2-.03-.05.08-.65-.07-.72.06-.12.16-.03.22.04l-.07-.3c.17-.35.3.8.5.43l-.02-.26c.15-.25.17.7.22.04-.07-.3-.28-.53-.35-.28-.04-.6-.35-.28-.33-.92.1-.17.02.5.14.4.12-.3-.06-.6-.02-.87-.06.3-.2.05-.23-.15.07-.33.14.2.15-.25-.08-.08-.15-.5-.2-.13-.2-.17.05-.48-.1-.73.13-.15.3.48.38-.03-.13.08-.17-.63-.37-.36.04-.2.14-.22.22-.07.08-.28-.23-.7.02-.78l-.13-.1.15-.36c0-.25-.18-.8.02-.78-.02-.08-.01-.65-.15-.43-.1.36.1.4-.1.6.15-.25-.02-.5-.07-.72l.08-.03c-.03-.12-.01-.4-.1-.48.04.1.1.05.12-.05l-.12-.13c-.06-.5.2-.12.17-.6l.1.37c-.02-.08.1-.24.05-.48l-.32-.34c-.05-.27.12-.12.01-.4l.13.35c.04.05.18-.24.18-.6-.04-.23-.2-.6-.25-.23 0-.18.06-.44.14-.3-.04-.4-.1.05-.18-.3.07-.15.17-.6.28-.87l.18.37v-.25c.14.32.1-.16.26.02.02-.17-.03-.37-.07-.54-.24.5-.33-.56-.55-.4-.06-.68.54-.42.2-1.13-.06.12-.22-.22-.16.2.03-.42-.22-.3-.13-.78.1.37.23-.4.35.14-.07-.04-.06.3-.04.38.08-.17.22.04.22-.4-.02-.26-.02-.62-.14-.57-.13.01.01.4-.1.23-.04-.52.15-.6-.07-.83.02.33-.1.4-.2.4l-.05-.4.08.08c.06-.62-.15-.18-.13-.78l.17-.28c.14.14-.07.87.17.76.01-.4-.1-.52-.05-.9a2.16 2.16 0 0 0 .05.27c.01-.14.32-.28.14-.83-.07-.3-.08-.08-.17-.08-.02-.62-.1-.8-.13-1.2.17.08.02-.7.2-.27-.1.2-.1 1.1.07 1.33.2-.23-.03.5.17.63.01-.5.2-.48.33-.56.01-.14-.04-.27-.07-.36-.12-.06-.12.12-.25.13.03-.56-.03-1.1-.15-1.4.06-.2.18-.13.2.1a19.14 19.14 0 0 1 .02-2.01c-.2.4-.04-.7-.2-.43-.05.34-.2.63-.28.44.01-.2.1.01.13-.08-.1-.27.18-.42 0-.68.06.6.24.12.4.23-.1-.44.1.02.1-.4a12.9 12.9 0 0 1-.19-1.46c.15-.6.01-1.54 0-2.1.08-.28.26-.1.3-.4 0-.36-.2.27-.1-.27l.03.05c-.04-.16.12-.98-.13-1.14l.2.17c.02-.1-.03-.2-.05-.28.06 0 .12-.12.16.04.13-.33-.02-.7-.02-1.06l-.1.23c-.1-.62.03-1.03-.01-1.63l.1.02-.07-.35c.1.1.18-.24.1-.43l.27.92c-.07.26-.13-.28-.24-.12-.1.14-.07.7.04.78.01-.2-.01-.22-.05-.4.15-.07.15.25.25.4-.01-.1.04-.27-.01-.3.07.22.1.44.1.8-.06-.25-.1.13-.14.04.14.03.18.38.14.82-.16.32.1.84.05 1.36a1.94 1.94 0 0 1-.3-.8c-.07.33 0 .36-.07.7.1.16.26.27.32.7h-.1c.05.4.2.4.17.88l-.07 2.35-.1.02c.22.36.08 1.2.17 1.67-.1.82.1 1.77-.08 2.2l.1 4.2-.15-.25c.1.27-.1.17-.06.44.12-.3.15.36.24.55-.12.66.01 1.52.1 2.1l-.1.02c.2.6.02 1.3-.01 2.05-.04.1-.14.22-.13.44.16.4.15.6.25 1.2 0 .43-.04 1.13-.1 1.57.23 1.62.07 3.28.2 4.97l-.12.12c.25 1.64.01 3.65.14 5.04l-.2-.14c-.06.44.05 1 .2.9v.24c0 .1 0 .18.01.2.01.06.02.1.02.16.03.03.05.06.04.1.03.03.06.04.1.06.07.03.14.05.2.07.13.04.25.06.42.14.74.52 1.04.67 1.8 1.06l-.18-.12c-.1-.01-.15.06.02.18.3.1.98.63.83.26.7.57 1.88.95 2.55 1.56-.03-.1.17 0 .27.01.7.4 1.34.93 1.95 1.15.1.1-.23 0 .05.17.18.07.05-.07.27.01 1.17.53 2.2 1.4 3.22 1.97l5.44 3.04-.04.03c.67.17 1.26.95 1.86.97.1.12.5.32.36.34.53.15 1.22.85 1.97 1.1-.06-.04-.1-.05-.18-.07.3.24.63.4.96.6l.5.27.25.15c.1.06.06.05.1.1-.03.01-.08 0-.12.03.05.08.13.07.2.06.06 0 .1-.01.15.16.07.04.01-.13-.02-.14l.3.2-.01-.4-.02-.2v-.2l-.01-.3-.1-2.32c.14-1.33.4-.08.22-1.13.05-.1-.1-.06-.04-.08-.06-.4.26-.63.14-.92-.14.12-.08-.2-.17-.2.1-.82.23-.98.12-1.62l.08.05c-.2-.76-.1-1.63-.34-2.27l-.18-12.22.1-12.02.17-1c.01-.13.01-.27 0-.44-.01-.08-.01-.18-.02-.28l-.03-.24c.03 0 .04.02.07 0-.1 0-.08-.05-.1-.08-.03-.01-.06-.01-.1.03h-.02l-.2-.12-.48-.28-.95-.54-1.95-1.1c.22.1.4.05.14-.08l-.32-.06-.02-.06c-.18-.08-.4-.12-.26.03-3.44-1.82-6.6-4.02-9.92-5.9-.75-.5-1.9-1.1-2.77-1.57-2.42-1.65-4.6-3.12-7.25-4.46.04.05.6-.12 1.7.4z"/><path d="M16.92 7.7c-.08.1-.13.44-.24.17.08-.03.17-.2.24-.17zm-.87 9.05c.02.01-.03.13-.05.16-.01-.1-.07-.22-.03-.3.01.1.04.1.08.15zm-.05 2.3c-.07-.03-.13-.53-.14-.82l.14.82zm-.3 2.16c-.06.2-.1.13-.1-.12.03-.02.05.07.1.12zm.15.15c0 .18-.04.27-.08.36.06-.01-.04-.42.08-.36zm-.22 4.7c.01.1.07.36-.02.46.06-.12-.1-.55.02-.46zm.1 2.17c0 .07-.02.1 0 .18-.03.13-.1-.01-.1-.12l.1-.06zM36.6 56.6l-.22-.1.06-.04zm5.16-10.37c-.05-.24.07-.16.08-.2.01.2-.1-.08-.08.2zm-.34-9.36v.07l-.15-.03z"/></g><path d="M37.75 60.65l1.32-.76.1-37.6-1.3.76z" class="D"/><g class="B"><path d="M37.78 60.32c-.23.17.2.03-.13.14 0-.06.02-.13.13-.14zm.16-.62c-.38-.93.01-2.14-.23-3.15-.02-.12.2.03.16-.24-.3-.98-.1-2.53.12-3.72l.06.07c.04-.23-.15-.5-.12-.75.04 0 .06.08.1.02-.12-.06-.05-.44-.14-.54.05-.1.14-.1.2-.2l-.13-.14c-.32-.38.03-.93-.14-1.46.03.03.06.08.1.04-.2-.84-.15-1.9-.22-2.83.05.04.13.07.2.02-.14-.05-.18-.34-.2-.6.15-.1-.13-.43-.05-.73l.03.03c-.15-.22.1-.32-.1-.5l.1-.14c-.2-.1.1-.32 0-.5l-.04.01c-.05-.17.05-.26.02-.42l.02-.01c-.05-.37.06-.58-.1-.58.13-.13.06.36.24.16-.16-1.22-.13-2.47-.13-3.7.06-.14.08-.23.15-.26-.03-.12-.03-.46-.1-.57 0 .04.08-.08.1-.14.06-.22-.18-.24-.1-.5.04.1.1.13.15.1-.12-.2-.1-.5-.14-.73.03.04.04.1.1.1-.14-.27.03-.5-.06-.73l.1.1c.1-.38-.2-.1-.13-.44.03.08.07.05.1.07-.17-.3-.1-.8-.17-1.1.01.02.04.01.04.01-.02-.33.03-.68-.04-1.05.04-.13.23.04.2-.3-.2.01-.07-.6-.3-.4.03-.3.1-.78.04-.98.07.14.23-.15.24.1l.1-.2c.08.03-.03.2.07.14-.01-.13-.08-.5-.05-.6-.1-.23-.32-.45-.35-.82.07.18.2-.1.24.02l-.35-.53c-.01-.13.15-.03.1-.2-.05.01-.08-.07-.12-.13.02-.05-.04-.52.14-.58.07-.05.04.2.1.07 0-.23-.06-.24-.07-.47h.02c.03-.15-.08-.45-.18-.3-.01.1.1-.04.06.12-.1-.1-.13-.38-.14-.6.03.08.08.07.13.1-.14-.3-.2-.64-.25-1-.1-.01.16.13.1.18.12-.45-.17-.92.01-1.3.02.06-.12.03-.1.03.01-.2.14-.2.1-.34.07-.01-.02-.18-.04-.32-.05-.07.04-.04.04.1-.06-.2-.17-1-.06-1.47-.05.01-.18-.3-.17-.4l.1.04c.07-.1-.01-.36.1-.37-.14-.23.12.88.01.57.1-.08-.18-.43-.03-.36 0-.2-.13-.42-.02-.63-.02.06.16.17.15 0-.02-.3-.05-.07-.1-.4l-.05-.23c-.1-.05.02-.4-.1-.28.03-.01.04-.1.03-.2.16-.1.36-.24.43-.14l.07.13c.13-.1.13-.25.23-.4.03 0 .1 0 .1.02-.07-.22.3-.15.34-.38.14-.04.28-.12.42-.2l.92-.47-.06.97c-.01.16-.03.3-.1.37.07.2.15.4.1.65-.02-.05-.03-.1-.07-.13-.07.15-.01.2.03.33-.03-.03-.13.3-.2.47.07.2.2.14.26.16-.22.2.14.6-.06.84-.03-.07-.1-.3-.16-.13-.22.2.16.4.05.7l.18-.08c-.1.14.1.46-.08.43.07.1-.06.37.12.33-.15.5.1 1.24-.23 1.55.03.07 0 .26.1.22.1-.12-.07-.17 0-.2.01.07.05.08.08.1-.04.16-.05.28-.2.13-.1.35.3.36.23.8-.07-.02-.1.01-.1.15l.13.25c-.03.3-.17.16-.3.17.02.16.01.35.1.42l-.16.2c.1-.14.07.13.1.2l-.03-.07c-.05.03-.02.2-.01.3.08-.02.1-.2.13-.3.05.08.04.2.1.3-.12-.04-.1.25-.1.38-.03.14.1.16.1.2-.06 0-.01.23-.1.12-.02-.05.06-.1.01-.2-.05.1-.16.08-.08.28.06.15.24-.04.16.24-.03-.07-.08-.1-.12-.14l-.06.26h.1c-.03.03-.04.01-.05.03.12.08.03.4.17.45.01.13-.08.27-.1.4l-.01-.02c-.07.15-.02.36.05.48l-.02-.01c-.01.08.01.28.07.38-.08.2-.42.07-.28.3 0 .2.2.34.27.25-.08.38.1.82-.07 1.18.04.06.07.02.1.13-.05.56.13 1.2-.1 1.64-.05-.16-.1-.01-.17-.01.1.14-.1.16.07.2.1-.01.15 0 .2-.16.05.34.05.85-.04 1.03.05-.1.08-.02.1.05-.16-.03-.2.22-.13.4l.1.03-.1.12c.03.07.2.08.1.27-.04.01-.08.02-.1.05.08.2.2.47.13.68l-.14.17c.02.1.1.24.14.08-.1.36-.1.6-.22.7.3.62.3 1.52.28 2.24l-.07-.02c-.07.2.13.1.08.24-.07-.06-.15.15-.24-.01-.08.28.13.36.16.54.1.03-.06-.14.06-.1.03.03-.08.38.07.43-.06.07-.16.02-.22-.02l.07.17c-.17.2-.3-.47-.5-.26l.02.16c-.15.15-.17-.4-.22-.02.07.17.28.32.35.16.04.35.35.16.33.54-.1.1-.02-.3-.14-.23-.12.18.06.36.02.52.06-.18.2-.03.23.1-.07.2-.14-.13-.15.15.08.05.15.3.2.08.2.1-.05.28.1.43-.13.1-.3-.28-.38.02.13-.05.17.37.37.2-.04.12-.14.13-.22.04-.08.17.23.4-.02.46l.13.06c-.04.05-.08.13-.15.2 0 .15.18.48-.02.46.02.05.01.4.15.26.08-.2-.1-.24.1-.36-.15.15.02.3.07.43H40c.03.07.01.24.1.28-.04-.06-.1-.03-.12.03l.12.08c.06.3-.2.07-.17.35l-.1-.22c.02.05-.1.15-.05.28.1.05.23.15.32.2.05.16-.12.07-.01.23l-.13-.2c-.04-.03-.18.14-.18.36.04.14.2.35.25.13 0 .1-.06.26-.14.17.04.25.1-.03.18.18-.07.1-.17.35-.28.52l-.18-.22v.15c-.14-.2-.1.1-.26-.01-.02.1.03.22.07.32.24-.3.33.33.55.25.06.4-.54.25-.2.67.06-.07.23.13.16-.12-.03.25.22.17.13.46-.1-.22-.22.23-.36-.08.07.02.06-.18.04-.22-.08.1-.22-.02-.22.23.02.16.02.37.14.34.13-.01-.01-.24.1-.14.04.3-.15.36.07.5-.02-.2.1-.25.2-.24l.05.23-.08-.04c-.06.37.15.1.13.46l-.17.17c-.14-.08.06-.52-.17-.45-.01.23.1.3.05.52-.02-.05-.03-.1-.05-.16-.01.08-.32.16-.14.5.07.17.08.05.17.05.03.37.1.48.13.72-.17-.05-.02.42-.2.16.1-.12.1-.66-.07-.8-.2.13.03-.3-.17-.37-.01.3-.2.28-.33.33-.01.08.05.16.07.2.12.04.12-.07.25-.08-.03.33.03.65.15.83-.06.1-.18.08-.2-.06a6.84 6.84 0 0 1-.02 1.2c.2-.24.05.42.2.25.05-.2.2-.37.28-.26-.01.13-.1 0-.13.05.1.16-.18.25 0 .4-.06-.36-.24-.07-.4-.14.1.26-.1-.01-.1.25.1.26.15.58.2.86-.15.36-.01.9 0 1.24-.08.17-.26.05-.3.24 0 .2.2-.16.1.16l-.04-.03c.04.1-.12.58.13.68l-.2-.1c-.02.06.03.1.05.16-.06 0-.12.07-.16-.03-.13.2.02.4.02.63l.1-.14c.06.3.02.54.01.78a2.38 2.38 0 0 0-.3.18l-.08-.08-.16.17c-.02-.1-.23-.07-.28.06.12-.17.22-.34.27-.47.17-.02-.02.16.14.2.08.01.2-.04.3-.1-.01-.1-.04-.2-.1-.24a.36.36 0 0 0 .03.21c0 .01-.01.02-.02.03-.07-.03-.1-.06-.08-.1-.04-.07-.07-.17-.13-.24.01.06-.04.1.01.14-.07-.15-.1-.24-.1-.4.06.12.1-.05.14-.01-.14-.01-.18-.2-.14-.47.16-.2-.1-.5-.06-.8.14.13.25.28.3.47.07-.2 0-.2.07-.4-.1-.1-.26-.16-.32-.4l.1-.01c-.05-.23-.2-.23-.17-.52l.07-1.4.1-.01c-.22-.2-.08-.7-.17-1 .1-.48-.1-1.05.08-1.3-.08-.85-.15-1.6-.1-2.48l.15.15c-.1-.16.1-.1.06-.26-.12.18-.15-.22-.24-.33.12-.4-.01-.9-.1-1.25l.1-.01c-.2-.35-.02-.77.01-1.2.04-.05.14-.13.13-.26-.16-.24-.15-.36-.25-.7a4.22 4.22 0 0 1 .11-.93c-.23-.96-.08-1.94-.2-2.94l.12-.07c-.25-.97-.02-2.16-.15-3l.2.08c.06-.26-.05-.6-.2-.53.06-.26-.1-.65.07-.8.04-.27-.1-.33-.12-.55.08-.53.06-.73.03-1.23l-.01.12c.04.06.13.06.14-.06-.06-.2.06-.7-.2-.5.14-.53-.1-1.25.08-1.77-.07.04-.08-.1-.12-.14 0-.47.14-.96.02-1.34.03-.07.1.12.12-.07-.02-.1-.1 0-.12-.14-.12-.76.13-1.54.1-2.23-.12-1.23-.06-2.5-.07-3.7l.05.01c-.2-.4.2-.92-.1-1.24.05-.1.02-.36.12-.3-.13-.3.13-.88-.04-1.33 0 .04.01.07.03.1.1-.46-.04-.86.06-1.35.02.05.04.14.08.15.1-.2-.2-.44.03-.55 0-.1-.12-.08-.1-.01.02-.18.03-.37.03-.56l1.05.6-.65.4-.18.13-.08.08.04.18.04.6c-.14.8-.4.05-.22.67-.05.05.1.04.04.05.06.24-.26.37-.14.54.14-.07.08.1.17.12-.1.48-.23.58-.12.96l-.08-.03c.2.45.1.97.34 1.34l.2 7.23-.1 7.12c-.2.56-.2.6-.12 1.23-.03-.02-.04-.06-.07-.02.16.03.01.44.17.5v2.63c-.02-.15-.15-.22-.14-.05l.1.18-.05.03c.02.12.1.25.16.13.14 2.3-.2 4.57-.17 6.83-.07.54-.01 1.3.02 1.88-.22 1.73-.4 3.28-.26 5.04 0-.03-.42-.26-.52-.98z"/><path d="M38.07 60.14c.1.04.3-.02.2.15-.06-.06-.2-.08-.2-.15zm1.57-4.64c-.02-.01.03-.08.05-.1.01.07.07.13.03.18-.01-.07-.05-.06-.08-.1zm.06-1.36c.07.02.13.3.14.5l-.14-.5zm.3-1.27c.06-.1.1-.08.1.07-.03.01-.05-.04-.1-.07zm-.17-.1c0-.1.04-.16.08-.2-.06.01.04.25-.08.2zm.22-2.77c-.01-.07-.07-.2.02-.27-.06.07.08.32-.02.27zm-.1-1.3c0-.04.02-.06 0-.1.03-.08.1 0 .1.07l-.1.04zm-.24-23.45l.04.14-.07-.02zm-2.4 3.62c.05.14-.07.1-.08.12-.01-.13.1.05.08-.12zm.35 5.53l-.01-.04.15.02z"/></g><path d="M37.86 23.06l1.3-.76L14.52 8.06l-1.3.77z" class="E"/><g class="B"><path d="M37.85 22.75c-.17.14.17.05-.1.12 0-.06.01-.12.1-.12z"/><path d="M37.32 22.53c-.8-.02-1.42-.82-2.2-1-.1-.03.13-.17-.08-.23-.8-.12-1.74-.87-2.42-1.52l.08-.02c-.13-.12-.4-.06-.56-.18.02-.03.08-.02.07-.1-.1.08-.32-.12-.43-.08-.04-.08.01-.15-.04-.25l-.16.06c-.4.13-.6-.38-1.04-.43.03-.02.08-.02.07-.06-.66-.15-1.34-.6-2-.9.05-.03.1-.1.1-.16-.1.1-.3.02-.5-.05 0-.17-.35-.05-.5-.23l.03-.02c-.22.05-.17-.2-.38-.1l-.03-.15c-.17.14-.16-.2-.33-.2l-.02.04c-.14-.02-.15-.15-.27-.18v-.03c-.27-.1-.36-.28-.43-.13-.02-.16.27.1.23-.15-.9-.32-1.7-.83-2.52-1.3-.06-.1-.1-.16-.1-.22-.1-.02-.32-.15-.44-.12.03.01-.01-.1-.05-.13-.12-.14-.25.06-.38-.1.1 0 .13-.03.14-.1-.2.03-.38-.1-.56-.16.04-.01.1 0 .1-.05-.25.02-.3-.2-.5-.23l.1-.05c-.2-.24-.17.12-.36-.06.07.01.07-.04.1-.06-.3.03-.6-.2-.82-.28.02 0 .03-.03.03-.03-.23-.1-.44-.3-.72-.37-.07-.1.14-.18-.1-.28-.08.17-.44-.16-.4.1-.2-.14-.47-.4-.63-.4.13-.01.02-.25.2-.17l-.07-.17c.06-.06.12.1.12-.01-.1-.04-.37-.12-.43-.2-.2.01-.46.1-.72-.01.15.01.04-.22.13-.2l-.53.1c-.1-.04.06-.14-.1-.16-.02.05-.1.04-.14.06-.02-.04-.37-.16-.3-.34 0-.08.16.04.1-.06-.15-.1-.2-.04-.35-.12l.01-.02c-.1-.08-.34-.1-.28.05.07.05.03-.1.1 0-.12.05-.32-.03-.47-.1.07 0 .1-.04.13-.07-.28.01-.52-.08-.78-.16-.05.07.17-.1.18-.03-.24-.28-.7-.2-.85-.5.05.01-.04.12-.03.1-.14-.1-.07-.2-.18-.2.03-.07-.13-.05-.24-.08-.08.02-.01-.05.08 0-.16-.02-.75-.23-1-.5-.02.05-.28.05-.35 0l.08-.08c-.03-.1-.24-.13-.2-.22-.22.03.64.23.38.2 0-.1-.38-.01-.25-.12-.14-.08-.35-.05-.43-.22.03.04.2-.07.08-.13-.2-.1-.1.01-.26-.05v-.75l.08-.1c-.05-.1.2-.1.05-.16.07.07.26-.22.34-.05l.05.14c.08-.06.07-.22.1-.3.02.01.06.02.06.04-.12-.2.27-.13.37-.4.15-.04.32-.14.48-.22.16.1.3.2.36.32.2.03.5.12.6.24-.04 0-.1-.02-.12.02.07.1.12.08.23.1-.04.02.14.23.2.36.17.02.2-.1.24-.16.02.26.47.1.53.37-.06 0-.26-.02-.17.1.02.26.34.01.5.22l.04-.2c.04.15.36.08.24.23.1-.02.2.2.28.03.26.33.87.4.92.8.06 0 .17.1.2.01-.03-.13-.15 0-.14-.08.05.02.08-.02.1-.03.08.1.16.16-.01.23.18.23.4-.12.66.1-.05.06-.04.1.05.13h.23c.18.14.03.2-.03.32.1.04.24.12.33.07l.05.2c-.03-.15.12-.02.2-.01H20c-.01.06.13.1.2.12.02-.07-.08-.17-.14-.23.08-.02.16.04.26.03-.08.1.12.17.2.23.08.08.16-.03.2-.01-.03.06.15.1.03.13-.04 0-.04-.1-.12-.08.04.08-.02.17.14.17.13 0 .1-.22.24-.05-.06 0-.1.04-.16.05l.14.15.06-.1c.01.04-.01.04-.01.06.1-.07.28.12.4.03.1.04.14.17.22.23h-.02c.07.12.22.16.35.14l-.02.02c.05.04.2.1.3.08.1.15-.16.4.06.36.14.08.32-.05.3-.14.22.2.6.22.75.5.06-.02.05-.06.14-.03.35.25.86.34 1.04.7-.13-.02-.06.1-.1.15.14-.03.06.15.17.02.04-.1.07-.13-.01-.23.25.08.6.28.67.43-.04-.08.02-.08.1-.07-.1.13.06.25.2.27l.07-.07.03.13c.06 0 .16-.15.23.01-.01.04-.02.07-.02.1.17.01.42-.01.52.15l.04.2c.07.02.2 0 .13-.1.2.2.34.3.36.46.56-.02 1.16.3 1.63.6l-.05.06c.1.13.13-.07.2.02-.08.04.02.2-.12.2.14.17.3.03.44.07.07-.07-.13 0-.04-.1.04-.02.22.2.32.1.02.08-.07.15-.13.18h.15c.05.23-.46.08-.43.35l.1.04c.02.2-.36-.01-.13.2.15 0 .35-.12.28-.24.25.1.28-.24.53-.08.03.1-.2-.1-.22.03.06.17.27.08.36.18-.1-.12.08-.2.17-.16.1.13-.15.07.02.2.07-.06.27-.01.16-.15.16-.13.16.15.33.08-.01.15-.34.16-.18.33.03-.13.33-.01.32-.24.06.08.02.17-.08.2.07.13.4-.05.3.2l.1-.1c.01.06.05.1.07.2.1.06.4.03.3.2.04 0 .26.14.24-.03-.1-.15-.2-.01-.2-.2.02.2.2.1.32.1l-.03.07c.06 0 .17.08.24.03-.06.02-.07.07-.04.1l.1-.07c.22.06-.06.2.15.3h-.2c.04 0 .05.13.16.15l.3-.2c.13.02-.01.13.15.1l-.2.03c-.04.02 0 .2.15.3.1.02.33-.03.2-.17.07.04.14.15.04.2.18.06.04-.1.2-.1.02.1.15.3.2.44l-.24.07.1.06c-.2.05.01.13-.14.22.05.06.16.06.24.06-.07-.32.38-.16.44-.38.3.1-.1.56.35.42-.02-.08.2-.15 0-.2.15.12.22-.13.37.07-.2 0 .04.28-.23.28.05-.06-.1-.12-.13-.12.03.1-.13.18.04.28.1.04.26.12.3.01.06-.1-.17-.08-.03-.15.23.08.17.27.36.12-.14-.06-.1-.2-.06-.27l.18.04-.07.06c.2.2.15-.1.37.06l.03.2c-.13.1-.3-.25-.4-.03.15.1.26.02.37.16-.04 0-.1-.02-.13-.02.05.04-.05.34.26.3.15 0 .07-.05.12-.13.26.12.38.08.54.16-.12.13.27.18.01.23-.03-.13-.4-.33-.56-.24-.01.23-.18-.14-.33.01.2.12.1.28.05.42.05.04.13.02.17.02.08-.1.01-.13.07-.24.2.16.45.22.63.2.04.1-.04.2-.13.15a4.04 4.04 0 0 1 .78.47c-.06-.27.3.12.27-.1-.1-.12-.15-.3-.04-.34.08.06-.05.07-.03.13.16-.03.08.25.27.16-.27-.08-.17.18-.3.3.22.02-.06.1.1.2a2.64 2.64 0 0 1 .67.17c.17.27.6.35.82.47.07.13-.1.24.01.34.14.08-.01-.23.16-.03h-.04c.08 0 .33.33.52.14l-.16.13c.03.04.1.02.13.02-.03.05-.01.13-.1.13.06.2.28.14.43.22l-.03-.15c.06.01.1.03.15.05l.3.14-.3.22c-.17.12-.34.14-.5.28l-.05-.1-.1.14c-.02-.1-.18-.1-.2.02l.23-.45c.13 0-.04.18.08.24.1.05.3-.1.28-.2-.1.04-.08.06-.13.13-.1-.12.02-.2.03-.3-.04.03-.13.03-.1.07.04-.1.12-.17.24-.24v.5l-.03-.02c.02 0 .03 0 .04-.01v-.45c0 .01 0 .02.02.03v.4c0-.03-.04-.08 0-.1-.08.1-.24.07-.4-.07-.05-.2-.38-.1-.56-.26a.82.82 0 0 1 .46-.08c-.1-.13-.14-.08-.24-.2-.1.05-.24.16-.43.12l.04-.1c-.18-.04-.25.1-.43-.05-.3-.23-.65-.43-.9-.6l.04-.1c-.25.1-.5-.2-.74-.23-.27-.27-.75-.32-.82-.57-.6-.26-1.14-.48-1.7-.85l.17-.07c-.16.03-.03-.1-.14-.15.06.17-.22.05-.34.1-.2-.25-.6-.34-.9-.38l.04-.1c-.33.03-.53-.28-.8-.47-.01-.06-.02-.17-.1-.2-.24.05-.32-.01-.6-.05a2.99 2.99 0 0 1-.56-.45c-.75-.17-1.33-.67-2.06-.94v-.13c-.77-.15-1.45-.8-2.06-1l.16-.15c-.14-.15-.42-.18-.45-.03-.14-.15-.48-.16-.5-.37-.16-.13-.26-.04-.42-.1-.3-.27-.45-.33-.8-.5l.08.06c.06-.02.1-.1.03-.15-.15-.02-.43-.3-.43-.03-.28-.33-.9-.38-1.14-.74 0 .07-.1.04-.16.05-.3-.18-.57-.48-.88-.53-.03-.06.14-.05.01-.13-.1-.02-.05.07-.16.05-.57-.18-.96-.7-1.43-.94-.88-.36-1.7-.9-2.5-1.34l.03-.04c-.36.01-.52-.52-.87-.4-.04-.08-.23-.16-.13-.2-.27-.01-.52-.44-.9-.47.03.02.05.02.1.02-.25-.27-.6-.3-.87-.57.04 0 .1.02.14-.02-.04-.08-.14-.08-.22-.08-.04.01-.06.02-.04-.1-.03-.02-.06.1-.04.1-.03-.04-.08-.07-.12-.1-.04.02-.08.04-.1.07-.05.03-.04.04-.18.13l-.63.44V8.23l.52.25c.45.42-.17.36.34.45.01.06.07-.06.05-.02.2.04.12.37.3.33.03-.15.1-.03.16-.1.27.27.27.42.58.47l-.06.05c.4-.01.7.28 1.06.2l4.9 2.6 4.7 2.8c.28.4.3.4.76.57-.03.02-.06.01-.05.05.1-.13.3.15.42.04l1.75 1c-.1-.04-.22.05-.1.1h.17v.05c.1.02.22 0 .16-.1 1.6.76 2.94 1.92 4.46 2.75.32.26.86.5 1.26.7 1.04.85 1.98 1.6 3.22 2.14.03-.1-.33.2-.86-.01zm.75.07c.08.05.24.01.2.17-.06-.07-.17-.1-.2-.17z"/><path d="M36.85 20.3c-.02.02-.03-.06-.04-.08.05.02.12-.02.14.04-.05-.01-.06.03-.1.04zm-.88-.55c.05-.06.27.01.4.07l-.4-.07zm-.7-.75c-.04-.1-.01-.1.1-.05-.01.03-.05.03-.1.05zm-.14.1c-.07-.04-.08-.1-.1-.15-.03.06.18.06.1.15zm-1.73-1.24c-.05-.02-.17-.02-.17-.12.02.08.26.04.17.12zm-.92-.4c-.03-.02-.03-.04-.07-.04-.03-.06.05-.07.1-.05v.1zM16.75 8.72l.12.02-.05.06zm-.25 2.63c.12.01.03.1.04.1-.1-.04.07-.06-.04-.1zm3.85 1.8l-.03-.01.08-.13z"/></g><path d="M13.2 8.83l-.1 37.6 24.65 14.23.1-37.6z" class="F"/><g class="B"><path d="M13.48 9.14c-.03-.48-.13.26-.06-.32.06.07.1.17.06.32zm1.02.66c1.54.45 3.13 1.8 4.73 2.46.18.1-.15.16.27.34 1.58.57 3.76 2.03 5.4 3.24l-.14-.01c.3.23.82.3 1.16.52-.02.04-.14-.02-.1.08.15-.05.66.32.86.33.12.12.06.2.2.34h.27c.72.05 1.35.8 2.2 1.1-.05.01-.14-.02-.1.04 1.33.54 2.85 1.46 4.26 2.2-.08.01-.17.06-.12.15.14-.08.58.13.96.32.1.22.7.25 1.1.57l-.05.01c.4.05.43.35.78.34l.15.22c.24-.1.4.36.73.42l.01-.04c.27.1.35.26.64.4l.01.03.27.14c.01.53-.05.82.08.8-.13.24-.06-.66-.24-.26.16 2.05.12 4.17.12 6.24-.06.23-.08.38-.15.44.03.2.03.78.1.97 0-.07-.08.13-.1.24-.06.38.17.4.1.82-.04-.16-.1-.22-.15-.17.12.35.1.82.14 1.24-.03-.06-.04-.17-.1-.15.14.46-.03.83.06 1.23l-.1-.15c-.1.64.2.2.12.75-.03-.13-.07-.1-.1-.1.17.52.1 1.36.16 1.88-.01-.03-.04-.02-.04-.02l.1 1.74c-.04.23-.23-.07-.2.52.2-.02.07 1 .28.66-.03.5-.1 1.32-.04 1.65-.07-.23-.23.25-.24-.18l-.1.32c-.08-.05.03-.33-.07-.23l.05 1.02c.1.4.32.76.35 1.4-.07-.3-.2.17-.24-.03l.35.9c.01.2-.15.05-.1.35.05-.02.08.12.12.2-.02.08.04.88-.14.97-.07.1-.04-.35-.1-.1 0 .4.06.4.06.8l-.02.01c-.03.26.08.76.18.48.01-.18-.1.07-.06-.2.1.18.13.64.13 1.03-.03-.13-.08-.12-.13-.17.14.53.2 1.08.24 1.67.1.01-.16-.22-.1-.3-.12.75.17 1.55-.01 2.18-.02-.1.12-.06.1-.05-.01.36-.14.35-.1.58-.07.02.02.3.04.54.05.13-.04.06-.04-.15.06.34.17 1.7.06 2.48.05-.02.18.48.17.66l-.1-.07c-.07.16.01.6-.1.63.14.4-.1-1.48-.01-.96-.1.13.18.72.02.6 0 .36.13.7.02 1.06.02-.1-.16-.3-.15 0 .02.5.05.15.1.56l.05.26c.1.02-.02.46.1.27-.1.06.05.75-.13.7l-.15-.07a.71.71 0 0 0 .1.3c.04.1.1.23.13.36-.01.04-.04.12-.07.1.22.14-.02.75.15 1.3-.04.32-.04.75-.05 1.14-.37-.22-.7-.44-.88-.62-.4-.16-.87-.33-1.4-.7.12.04.26.12.3.1-.3-.24-.44-.26-.64-.34.06 0-.38-.37-.6-.58-.34-.12-.3.04-.36.1-.17-.35-.94-.38-1.2-.76.12.04.5.17.27-.03-.17-.35-.65-.2-1.05-.54v.22c-.15-.2-.72-.3-.58-.43-.2-.03-.5-.36-.54-.18-.67-.56-1.86-.97-2.16-1.5-.12-.04-.37-.22-.36-.1.13.2.28.08.32.18-.1-.05-.14-.02-.17-.01-.2-.17-.4-.3-.1-.3-.46-.4-.68-.05-1.3-.5.07-.05.03-.1-.17-.2l-.43-.1c-.4-.27-.16-.28-.1-.4-.24-.1-.5-.28-.66-.26l-.2-.3c.14.2-.22-.04-.35-.08l.12.03c-.02-.07-.3-.2-.43-.26-.01.08.24.27.38.37-.14-.02-.32-.14-.5-.17.1-.08-.33-.3-.5-.4-.2-.14-.3-.04-.35-.08.03-.06-.33-.2-.13-.2.08.02.13.15.27.17-.1-.12-.04-.2-.36-.3-.24-.07-.07.24-.43-.06.12.04.17 0 .27.01l-.35-.27-.07.1c-.04-.05 0-.04-.01-.07-.17.04-.6-.3-.75-.24-.2-.1-.36-.3-.54-.42l.04.01c-.2-.2-.5-.32-.73-.36l.02-.02c-.12-.08-.4-.23-.6-.26-.27-.25.1-.42-.3-.5-.3-.18-.6-.1-.5.03-.52-.4-1.25-.6-1.7-1.05-.1-.01-.07.05-.25-.03-.8-.5-1.8-.9-2.35-1.46.26.1.07-.1.1-.15-.25-.03-.2-.23-.34-.12-.03.1-.07.13.14.3-.52-.24-1.27-.67-1.5-.9.1.12-.01.08-.13.05.12-.12-.23-.35-.54-.46l-.1.06-.13-.2c-.12-.03-.22.1-.44-.13 0-.05.03-.07-.05-.15l-.94-.4a4.22 4.22 0 0 1 0-.94c.05-.2.1-.22.14-.34-.02-.15-.1-.4-.14-.14.1-.6.1-1 .22-1.2-.3-1.05-.3-2.56-.28-3.78l.07.04c.07-.33-.13-.17-.08-.4.07.1.15-.25.24.01.08-.47-.13-.6-.16-.9-.1-.05.06.24-.06.2-.03-.05.08-.65-.07-.72.06-.12.16-.03.22.04l-.07-.3c.17-.35.3.8.5.43l-.02-.26c.15-.25.17.7.22.04-.07-.3-.28-.53-.35-.28-.04-.6-.35-.28-.33-.92.1-.18.02.5.14.4.12-.3-.06-.6-.02-.87-.06.3-.2.05-.23-.15.07-.33.14.2.15-.25-.08-.08-.15-.5-.2-.13-.2-.17.05-.48-.1-.73.13-.15.3.48.38-.03-.13.08-.17-.63-.37-.36.04-.2.14-.22.22-.07.08-.28-.23-.7.02-.78l-.13-.1.15-.36c0-.25-.18-.8.02-.78-.02-.08-.01-.65-.15-.43-.08.36.1.4-.1.6.15-.25-.02-.5-.07-.72l.08-.03c-.03-.12-.01-.4-.1-.48.04.1.1.05.12-.05l-.12-.13c-.06-.5.2-.12.17-.6l.1.37c-.02-.08.1-.24.05-.48l-.32-.34c-.05-.27.12-.12.01-.4l.13.35c.03.05.18-.24.18-.6-.04-.23-.2-.6-.25-.23 0-.18.06-.44.14-.3-.04-.4-.12.05-.18-.3.07-.15.17-.6.28-.87l.18.37v-.25c.14.32.1-.16.26.02.02-.17-.03-.37-.07-.54-.24.5-.33-.56-.55-.4-.06-.68.54-.42.2-1.13-.06.12-.22-.22-.16.2.03-.42-.22-.3-.13-.78.1.37.23-.4.35.14-.07-.04-.06.3-.04.38.08-.17.22.04.22-.4-.02-.26-.02-.62-.14-.57-.13.01.01.4-.1.23-.04-.52.15-.6-.07-.83.02.33-.1.4-.2.4l-.05-.4.08.08c.06-.62-.15-.18-.13-.78l.17-.28c.14.14-.07.87.17.77.01-.4-.1-.52-.05-.9a2.16 2.16 0 0 0 .05.27c.01-.14.32-.28.14-.83-.07-.3-.08-.08-.17-.08-.02-.62-.1-.8-.13-1.2.17.08.02-.7.2-.27-.1.2-.1 1.1.07 1.33.2-.23-.03.5.17.63.01-.5.2-.48.33-.56.01-.14-.04-.27-.07-.36-.12-.06-.12.12-.25.13.03-.56-.03-1.1-.15-1.4.06-.2.18-.13.2.1a19.14 19.14 0 0 1 .02-2.01c-.2.4-.05-.7-.2-.43-.05.34-.2.63-.28.44.01-.2.1.01.13-.08-.1-.27.18-.42 0-.68.06.6.24.12.4.23-.1-.44.1.02.1-.4a12.9 12.9 0 0 1-.19-1.46c.15-.6.01-1.54 0-2.1.08-.28.26-.1.3-.4 0-.36-.2.27-.1-.27l.03.05c-.04-.16.12-.98-.13-1.14l.2.17c.02-.1-.03-.2-.05-.28.06 0 .12-.12.16.04.13-.33-.02-.7-.02-1.06l-.1.23c-.1-.62.03-1.03-.01-1.63l.1.02-.07-.35c.1.1.18-.24.1-.43l.27.92c-.07.26-.13-.28-.24-.12-.1.14-.07.7.04.78.01-.2-.01-.22-.05-.4.15-.07.15.25.25.4-.01-.1.04-.27-.01-.3.07.22.1.44.1.8-.06-.25-.1.13-.14.04.14.03.18.38.14.82-.16.32.1.84.05 1.36a1.94 1.94 0 0 1-.3-.8c-.07.33 0 .36-.07.7.1.16.26.27.32.7l-.1.02c.05.4.2.4.17.88l-.07 2.35-.1.02c.22.36.08 1.2.17 1.67-.1.82.1 1.77-.08 2.2l.1 4.2-.15-.25c.1.27-.1.17-.06.44.12-.3.15.36.24.55-.12.66.01 1.52.1 2.1h-.1c.2.6.02 1.3-.01 2.05-.04.1-.14.22-.13.44.16.4.15.6.25 1.2 0 .43-.04 1.13-.1 1.57.23 1.62.07 3.28.2 4.97l-.12.12c.25 1.64.01 3.65.14 5.04l-.2-.14c-.06.44.05 1 .2.9l-.02.24c0 .1 0 .18.01.2.01.06.02.1.02.16.03.03.05.06.04.1.03.03.06.04.1.06.07.03.14.05.2.07.13.04.25.06.42.14.74.52 1.04.67 1.8 1.06l-.18-.12c-.1-.01-.15.06.02.18.3.1.98.63.83.26.7.57 1.88.95 2.55 1.56-.03-.1.17 0 .27.01.7.4 1.34.93 1.95 1.15.1.1-.23 0 .05.16.18.07.05-.07.27.01 1.17.53 2.2 1.4 3.22 1.97l5.44 3.04-.04.03c.67.17 1.26.95 1.86.97.1.12.5.32.36.34.53.15 1.22.85 1.97 1.1-.06-.04-.1-.05-.18-.07.3.24.63.4.95.6l.5.27.25.15c.1.06.06.05.1.1-.03.01-.08 0-.12.03.05.08.13.07.2.06.06 0 .1-.01.15.16.07.04.01-.13-.02-.14l.3.2V59l-.02-.2v-.2l-.01-.3-.1-2.32c.14-1.33.4-.08.22-1.13.05-.1-.1-.06-.04-.08-.06-.4.26-.63.14-.92-.15.12-.08-.2-.17-.2.1-.82.23-.98.12-1.62l.08.05c-.2-.76-.1-1.63-.34-2.27l-.18-12.22.1-12.02.17-1c.01-.13.01-.27 0-.44-.01-.08-.01-.18-.02-.28l-.03-.24c.03 0 .04.02.07 0-.1 0-.08-.05-.1-.08-.03-.01-.06-.01-.1.03l-.02-.02-.2-.12-.48-.28-.95-.54-1.95-1.1c.22.1.4.05.14-.08l-.32-.06v-.06c-.18-.08-.4-.12-.26.03-3.44-1.82-6.6-4.03-9.92-5.9-.75-.5-1.9-1.1-2.77-1.57-2.42-1.65-4.6-3.12-7.25-4.46.06.07.6-.1 1.72.42z"/><path d="M13.5 9.73c-.08.1-.13.44-.24.17.08-.03.17-.2.24-.17zm-.88 9.05c.02.01-.03.13-.05.16-.01-.1-.07-.22-.03-.3.01.12.05.1.08.15zm-.05 2.32c-.07-.03-.13-.53-.14-.82l.14.82zm-.3 2.16c-.06.2-.1.13-.1-.12.04-.02.05.06.1.12zm.17.14c0 .18-.04.27-.08.36.05-.01-.05-.42.08-.36zm-.23 4.7c.01.1.07.36-.02.46.06-.1-.1-.54.02-.46zm.1 2.17c0 .07-.02.1 0 .18-.03.13-.1-.01-.1-.12l.1-.06zm20.86 28.37l-.22-.1.07-.05zm5.17-10.37c-.05-.24.07-.16.08-.2.01.2-.1-.08-.08.2zM38 38.9v.08l-.15-.03z"/></g><path d="M34.28 62.7l1.3-.77.1-37.6-1.32.77z" class="D"/><g class="B"><path d="M34.3 62.36c-.23.17.2.03-.13.14 0-.07.03-.13.13-.14zm.17-.63c-.38-.93.01-2.14-.23-3.16-.02-.12.2.03.16-.24-.3-.98-.1-2.53.12-3.72l.06.07c.04-.23-.15-.5-.12-.75.04 0 .06.08.1.02-.12-.06-.05-.44-.14-.54.05-.1.14-.1.2-.2l-.13-.14c-.32-.38.03-.93-.14-1.46.03.03.06.08.1.04-.2-.84-.15-1.9-.22-2.83.05.04.13.07.2.02-.14-.05-.18-.34-.2-.6.15-.1-.13-.43-.05-.73l.03.03c-.15-.22.1-.32-.1-.5l.1-.14c-.2-.1.1-.32 0-.5h-.04c-.05-.17.05-.26.02-.42v-.01c-.05-.37.06-.58-.1-.58.13-.13.06.36.24.16-.16-1.22-.13-2.47-.13-3.7.06-.14.08-.23.15-.26-.03-.12-.03-.46-.1-.57 0 .04.08-.08.1-.14.06-.22-.18-.24-.1-.5.04.1.1.13.15.1-.12-.2-.1-.5-.14-.73.03.04.04.1.1.1-.14-.27.03-.5-.06-.73l.1.1c.1-.38-.2-.1-.13-.44.03.08.07.05.1.07-.17-.3-.1-.8-.17-1.1.01.02.04.01.04.01-.02-.33.03-.68-.04-1.05.04-.13.23.04.2-.3-.2.01-.07-.6-.3-.4.03-.3.1-.78.04-.98.07.14.23-.15.24.1l.1-.2c.08.03-.03.2.07.14-.01-.13-.08-.5-.05-.6-.1-.23-.32-.45-.35-.82.07.18.2-.1.24.02l-.35-.53c-.01-.13.15-.03.1-.2-.05.01-.08-.07-.12-.13.02-.05-.04-.52.14-.58.07-.05.04.2.1.07 0-.23-.06-.24-.07-.47h.02c.03-.15-.08-.45-.18-.28-.01.1.1-.04.06.12-.1-.1-.13-.38-.14-.6.03.08.08.07.13.1-.14-.3-.2-.64-.25-1-.1-.01.16.13.1.18.12-.45-.17-.92.01-1.3.02.06-.12.03-.1.03.01-.2.14-.2.1-.34.07-.01-.02-.18-.04-.32-.05-.07.04-.04.04.1-.06-.2-.17-1-.06-1.47-.05.01-.18-.3-.17-.4l.1.04c.07-.1-.01-.36.1-.37-.14-.23.12.88.01.57.1-.08-.18-.43-.03-.36 0-.2-.13-.42-.02-.63-.02.06.16.17.15 0-.02-.3-.05-.07-.1-.4l-.05-.23c-.1-.05.02-.4-.1-.28.03-.01.04-.1.03-.2.16-.1.36-.24.43-.14l.07.13c.13-.1.13-.25.23-.4.03 0 .1 0 .1.02-.07-.22.3-.15.34-.38.14-.04.28-.12.42-.2l.92-.47-.06.97c-.01.16-.03.3-.1.37.07.2.15.4.1.65-.02-.05-.03-.1-.07-.13-.07.15-.01.2.03.33-.03-.03-.13.3-.2.47.07.2.2.14.26.16-.22.2.14.6-.06.84-.03-.07-.1-.3-.16-.13-.22.2.16.4.05.7l.18-.08c-.1.14.1.46-.08.43.07.1-.06.37.12.33-.15.5.1 1.24-.23 1.55.03.07 0 .26.1.22.1-.12-.07-.17 0-.2.01.07.05.08.08.1-.04.16-.05.28-.2.13-.1.35.3.36.23.8-.07-.02-.1.01-.1.14l.13.25c-.03.3-.17.16-.3.17.02.16.01.35.1.42l-.16.2c.1-.14.07.13.1.2l-.03-.07c-.05.03-.02.2-.01.3.08-.02.1-.2.13-.3.05.08.04.2.1.3-.12-.04-.1.25-.1.38-.03.14.1.16.1.2-.06 0-.01.23-.1.12-.02-.05.06-.1.01-.2-.05.1-.16.08-.08.28.06.15.24-.04.16.24-.03-.07-.08-.1-.12-.14l-.06.26.1.01c-.03.03-.04.01-.05.03.12.08.03.4.17.45.01.13-.08.27-.1.4l-.01-.02c-.07.15-.02.35.05.48l-.02-.01c-.01.08.01.28.07.38-.08.2-.42.07-.28.3 0 .2.2.34.27.25-.08.38.1.82-.07 1.17.04.06.07.02.1.13-.05.56.13 1.2-.1 1.64-.05-.16-.1-.01-.17-.01.1.14-.1.16.07.2.1-.01.15 0 .2-.16.05.34.05.85-.04 1.03.05-.1.08-.02.1.05-.16-.02-.2.22-.13.4l.1.03-.1.12c.03.07.2.08.1.27-.04.01-.08.02-.1.05.08.2.2.47.13.68l-.14.17c.02.1.1.24.14.08-.1.36-.1.6-.22.7.3.62.3 1.52.28 2.24h-.07c-.07.2.13.1.08.24-.07-.06-.15.15-.24-.01-.08.28.13.36.16.54.1.03-.06-.14.06-.1.03.03-.08.38.07.43-.06.07-.16.01-.22-.02l.07.17c-.17.2-.3-.47-.5-.26l.02.16c-.15.15-.17-.4-.22-.02.07.17.28.32.35.16.04.35.35.16.33.54-.1.1-.02-.3-.14-.23-.12.18.06.36.02.52.06-.18.2-.03.23.1-.07.2-.14-.13-.15.15.08.05.15.3.2.08.2.1-.05.28.1.43-.13.1-.3-.28-.38.02.13-.05.17.37.37.2-.04.12-.14.13-.22.04-.08.17.23.4-.02.46l.13.06c-.04.05-.08.13-.15.2 0 .15.18.48-.02.46.02.05.01.4.15.26.08-.2-.1-.24.1-.36-.15.15.02.3.07.43l-.08.02c.03.07.01.24.1.28-.04-.06-.1-.03-.12.03l.12.08c.06.3-.2.07-.17.36l-.1-.22c.02.05-.1.14-.05.28.1.05.23.15.32.2.05.16-.12.07-.01.23l-.13-.2c-.04-.03-.18.14-.18.36.04.14.2.35.25.13 0 .1-.06.26-.14.17.04.24.1-.03.18.18-.07.1-.17.36-.28.52l-.18-.22v.15c-.14-.2-.1.1-.26-.01-.02.1.03.22.07.32.24-.3.33.33.55.24.06.4-.54.25-.2.67.06-.07.23.13.16-.12-.03.25.22.17.13.46-.1-.22-.22.23-.36-.08.07.02.06-.18.04-.22-.08.1-.22-.02-.22.23.02.16.02.37.14.34.13-.01-.01-.24.1-.14.04.3-.15.36.07.5-.02-.2.1-.24.2-.24l.05.23-.08-.04c-.06.37.15.1.13.46l-.17.17c-.14-.08.06-.52-.17-.45-.01.23.1.3.05.52-.02-.05-.03-.1-.05-.16-.01.08-.32.16-.14.5.07.17.08.05.17.05.03.37.1.48.13.72-.17-.05-.02.42-.2.16.1-.12.1-.66-.07-.8-.2.13.03-.3-.17-.37-.01.3-.2.28-.33.33-.01.08.05.16.07.2.12.04.12-.07.25-.08-.03.33.03.65.15.83-.06.1-.18.08-.2-.06a6.84 6.84 0 0 1-.02 1.2c.2-.24.05.42.2.25.05-.2.2-.37.28-.26-.01.13-.1 0-.13.05.1.16-.18.25 0 .4-.06-.36-.24-.07-.4-.14.1.26-.1-.01-.1.25.1.26.15.58.2.86-.15.36-.01.9 0 1.24-.08.17-.26.05-.3.24 0 .2.2-.16.1.16l-.04-.03c.04.1-.12.58.13.68l-.2-.1c-.02.06.03.1.05.16-.06 0-.12.07-.16-.03-.13.2.02.4.02.63l.1-.14c.06.3.02.54.01.78a2.38 2.38 0 0 0-.3.18l-.08-.08-.16.17c-.02-.1-.23-.07-.28.06.12-.17.22-.34.27-.47.17-.02-.02.16.14.2.08.01.2-.04.3-.1-.01-.1-.04-.2-.1-.24a.36.36 0 0 0 .03.21c0 .01-.01.02-.02.03-.07-.03-.1-.06-.08-.1-.05-.07-.07-.17-.13-.24.01.06-.04.1.01.14a.72.72 0 0 1-.1-.4c.06.12.1-.05.14-.01-.14-.01-.18-.2-.14-.47.16-.2-.1-.5-.06-.8.14.13.25.28.3.47.07-.2 0-.2.07-.4-.1-.1-.26-.16-.32-.4l.1-.01c-.05-.23-.2-.23-.17-.52l.07-1.4.1-.01c-.22-.2-.08-.7-.17-1 .1-.48-.1-1.05.08-1.3-.08-.85-.15-1.6-.1-2.48l.15.15c-.1-.16.1-.1.06-.26-.12.18-.15-.22-.24-.33.12-.4-.01-.9-.1-1.25l.1-.01c-.2-.35-.02-.77.01-1.2.04-.05.14-.13.13-.26-.16-.24-.15-.36-.25-.7a4.22 4.22 0 0 1 .11-.93c-.23-.96-.08-1.94-.2-2.94l.12-.07c-.25-.97-.02-2.16-.15-3l.2.08c.06-.26-.05-.6-.2-.53.06-.26-.1-.65.07-.8.04-.27-.1-.33-.12-.55.08-.53.06-.73.03-1.23l-.01.12c.04.06.13.06.14-.06-.06-.2.06-.7-.2-.5.14-.53-.1-1.25.08-1.77-.07.04-.08-.1-.12-.14 0-.47.14-.96.02-1.34.03-.07.1.12.12-.07-.02-.1-.1 0-.12-.14-.12-.76.13-1.54.1-2.23-.12-1.23-.06-2.5-.07-3.7h.05c-.2-.4.2-.92-.1-1.24.05-.1.02-.36.12-.3-.13-.3.13-.88-.04-1.33 0 .04.01.07.03.1.1-.46-.04-.86.06-1.35.02.05.04.14.08.15.1-.2-.2-.44.03-.55 0-.1-.12-.08-.1-.01.02-.18.03-.37.03-.56l1.05.6-.65.4-.18.13-.08.08.04.18.04.6c-.14.8-.4.05-.22.67-.05.05.1.04.04.05.06.24-.26.37-.14.54.14-.07.08.1.17.12-.1.48-.23.58-.12.96l-.08-.03c.2.45.1.97.34 1.34l.2 7.23-.1 7.12c-.2.56-.2.6-.12 1.23-.03-.03-.04-.06-.07-.02.16.03.01.44.17.5l.01 2.63c-.02-.15-.15-.22-.14-.05l.1.18-.05.03c.02.12.1.25.16.13.14 2.3-.2 4.57-.17 6.83-.07.54-.01 1.3.02 1.88-.22 1.73-.4 3.28-.26 5.04-.01 0-.43-.23-.52-.96z"/><path d="M34.6 62.17c.1.04.3-.02.2.15-.06-.05-.2-.07-.2-.15zm1.56-4.62c-.02-.01.03-.08.05-.1.01.07.07.13.03.18-.01-.07-.05-.06-.08-.1zm.04-1.37c.07.02.13.3.14.5l-.14-.5zm.32-1.28c.06-.1.1-.08.1.07-.04.01-.06-.04-.1-.07zm-.17-.1c0-.1.04-.16.08-.2-.06 0 .04.25-.08.2zm.22-2.76c-.01-.07-.07-.2.02-.27-.06.06.1.32-.02.27zm-.1-1.3c0-.04.02-.06 0-.1.03-.08.1 0 .1.07l-.1.04zm-.22-23.47l.03.14-.07-.02zm-2.42 3.62c.05.14-.07.1-.08.12-.01-.13.1.04.08-.12zm.35 5.55v-.04l.15.01z"/></g><path d="M34.38 25.1l1.32-.77L11.04 10.1l-1.3.76z" class="E"/><g class="B"><path d="M34.37 24.8c-.17.14.17.05-.1.12 0-.06.02-.12.1-.12zm-.53-.23c-.8-.02-1.42-.82-2.2-1-.1-.03.13-.17-.08-.23-.8-.12-1.74-.87-2.42-1.52l.08-.02c-.13-.12-.4-.06-.56-.18.02-.03.08-.02.07-.1-.1.08-.32-.12-.43-.08-.04-.08.01-.15-.04-.25l-.16.06c-.4.13-.6-.38-1.04-.43.03-.02.08-.02.07-.06-.66-.15-1.34-.6-2-.9.05-.03.1-.1.1-.16-.1.1-.3.02-.5-.05 0-.17-.35-.05-.5-.23l.03-.02c-.22.05-.17-.2-.38-.1l-.03-.15c-.17.14-.16-.2-.33-.2V19c-.14-.02-.15-.15-.27-.18v-.03c-.27-.1-.36-.28-.43-.13-.02-.16.27.1.23-.15-.9-.32-1.7-.83-2.52-1.3-.06-.1-.1-.16-.1-.22-.1-.02-.32-.15-.44-.12.03.01-.01-.1-.05-.13-.12-.14-.25.06-.38-.1.1 0 .13-.03.14-.1-.2.03-.38-.1-.56-.16.04-.01.1 0 .1-.05-.25.02-.3-.2-.5-.23l.1-.05c-.2-.24-.17.12-.36-.06.07 0 .07-.04.1-.06-.3.03-.6-.2-.82-.28.02 0 .03-.03.03-.03-.23-.1-.44-.3-.72-.37-.07-.1.14-.18-.1-.28-.08.17-.44-.16-.4.1-.2-.14-.47-.4-.63-.4.13-.01.02-.25.2-.17l-.07-.17c.06-.05.12.1.12-.01-.1-.04-.37-.12-.43-.2-.2.01-.46.1-.72-.01.15.01.04-.22.13-.2l-.53.1c-.1-.04.06-.14-.1-.17-.02.05-.1.04-.14.06-.02-.04-.37-.16-.3-.34 0-.08.16.04.1-.06-.15-.1-.2-.04-.35-.12v-.02c-.1-.08-.34-.1-.28.05.07.05.03-.1.1 0-.12.05-.32-.03-.47-.1.07 0 .1-.04.13-.07-.28.01-.52-.08-.78-.16-.05.07.17-.1.18-.03-.24-.28-.7-.2-.85-.5.05.01-.04.12-.03.1-.14-.1-.07-.2-.18-.2.03-.07-.13-.05-.24-.08-.08.02-.01-.05.08 0-.16-.02-.75-.23-1-.5-.02.05-.28.05-.35 0l.08-.08c-.03-.1-.24-.13-.2-.22-.22.03.64.23.38.2 0-.1-.38-.01-.25-.12-.14-.08-.35-.05-.43-.22.03.04.2-.07.08-.13-.2-.1-.1.01-.26-.05v-.75l.08-.1c-.05-.1.2-.1.05-.16.07.07.26-.22.34-.05l.04.14c.08-.06.07-.22.1-.3.02.01.06.02.06.04-.12-.2.27-.13.37-.4.15-.04.32-.14.48-.22.16.1.3.2.36.32.2.03.5.12.6.24-.04 0-.1-.02-.12.02.07.1.12.08.23.1-.04.02.14.23.2.36.17.02.2-.1.24-.16.02.26.47.1.53.37-.06 0-.26-.02-.17.1.02.26.34.01.5.22l.04-.2c.04.15.36.08.24.23.1-.02.2.2.28.03.26.33.87.4.92.8.06 0 .17.1.2.01-.03-.13-.15 0-.14-.08.05.02.08-.02.1-.03.08.1.16.16-.01.23.18.23.4-.12.66.1-.05.06-.04.1.05.13l.23-.01c.18.14.03.2-.03.32.1.04.24.12.33.07l.05.2c-.03-.15.12-.02.2-.01h-.06c-.01.06.13.1.2.12.02-.07-.08-.17-.14-.23.08-.02.16.04.26.03-.08.1.12.17.2.23.08.08.16-.03.2-.01-.03.06.15.1.03.13-.04 0-.04-.1-.12-.08.04.08-.02.17.14.17.13 0 .1-.22.24-.05-.06 0-.1.04-.16.05l.14.15.06-.1c.01.04-.01.04-.01.06.1-.07.28.12.4.03.1.04.14.17.22.23h-.02c.07.12.22.16.35.14l-.02.02c.05.04.2.1.3.08.1.15-.16.4.06.36.14.08.32-.05.3-.14.22.2.6.22.75.5.06-.02.05-.06.14-.03.35.25.86.34 1.04.7-.13-.02-.06.1-.1.15.14-.03.06.15.17.02.04-.1.07-.13-.01-.23.25.08.6.28.67.43-.04-.08.02-.08.1-.07-.1.13.06.25.2.27l.07-.07.03.13c.06 0 .16-.15.23.01-.01.04-.02.07-.02.1.17.01.42-.01.52.15l.04.2c.07.02.2 0 .13-.1.2.2.34.3.36.46.56-.02 1.16.3 1.63.6l-.05.06c.1.13.13-.07.2.02-.08.04.02.2-.12.2.15.17.3.03.44.07.07-.07-.13 0-.04-.1.04-.02.22.2.32.1.02.08-.07.15-.13.18h.15c.05.23-.46.08-.43.35l.1.04c.02.2-.36-.01-.13.2.15 0 .35-.12.28-.24.25.1.28-.24.53-.08.03.1-.2-.1-.22.03.06.17.27.08.36.18-.1-.12.08-.2.17-.16.1.13-.15.07.02.2.07-.06.27-.01.16-.15.16-.13.16.15.34.08-.01.15-.34.16-.18.33.03-.13.33-.01.32-.24.06.08.02.17-.08.2.07.13.4-.05.3.2l.1-.1c.01.06.05.1.07.2.1.06.4.03.3.2.04 0 .26.14.24-.03-.1-.15-.2-.01-.2-.2.02.2.2.1.32.1l-.03.07c.06 0 .17.08.24.03-.06.02-.07.07-.04.1l.1-.07c.22.06-.06.2.15.3h-.2c.04 0 .05.13.16.15l.3-.2c.13.02-.01.13.15.1l-.2.03c-.04.02 0 .2.15.3.1.02.33-.03.2-.17.07.04.14.15.04.2.18.06.04-.1.2-.1.02.1.15.3.2.44l-.24.07.1.06c-.2.05.01.13-.14.22.05.06.16.06.24.06-.07-.32.38-.16.44-.38.3.1-.1.56.35.42-.02-.08.2-.15 0-.2.15.12.22-.13.37.07-.2-.01.04.28-.23.28.05-.06-.1-.12-.13-.12.03.1-.13.18.04.28.1.04.26.12.3.01.06-.1-.17-.08-.03-.15.23.08.17.27.36.12-.14-.06-.1-.2-.06-.27l.18.04-.07.06c.2.2.15-.1.37.06l.03.2c-.13.1-.3-.25-.4-.03.15.1.26.02.37.16-.04 0-.1-.02-.13-.02.05.04-.05.34.26.3.15 0 .07-.05.12-.13.26.12.38.08.54.16-.12.13.27.18.01.23-.03-.13-.4-.33-.56-.24-.01.23-.18-.14-.33.01.2.12.1.28.05.42.05.04.13.02.17.02.08-.1.01-.13.07-.24.2.16.45.22.63.2.04.1-.04.2-.13.15a4.04 4.04 0 0 1 .78.47c-.06-.27.3.12.27-.1-.1-.12-.15-.3-.04-.34.08.06-.05.07-.03.13.16-.03.08.25.27.16-.27-.08-.17.18-.3.3.22.02-.06.1.1.2a2.64 2.64 0 0 1 .67.17c.17.27.6.35.82.47.07.13-.1.24.01.34.14.08-.01-.23.16-.03h-.04c.08 0 .33.33.52.14l-.16.13c.03.04.1.02.13.02-.03.05-.01.13-.1.13.06.2.28.14.43.22l-.03-.15c.06.01.1.03.15.05l.3.14-.3.22c-.17.12-.34.14-.5.28l-.05-.1-.1.14c-.02-.1-.18-.1-.2.02l.23-.45c.13 0-.04.18.08.24.1.05.3-.1.28-.2-.1.04-.08.06-.13.13-.1-.12.02-.2.03-.3-.04.03-.13.03-.1.07.04-.1.12-.17.24-.24v.5l-.03-.02c.02 0 .03 0 .04-.01v-.45c0 .01 0 .02.02.03v.4c0-.03-.04-.08 0-.1-.08.1-.24.07-.4-.07-.05-.2-.38-.1-.56-.26a.82.82 0 0 1 .46-.08c-.1-.13-.14-.08-.24-.2-.1.05-.24.16-.43.12l.04-.1c-.18-.04-.25.1-.43-.05-.3-.23-.65-.43-.9-.6l.04-.1c-.25.1-.5-.2-.74-.23-.27-.27-.75-.32-.82-.57-.6-.26-1.14-.48-1.7-.85l.17-.07c-.16.03-.03-.1-.14-.15.06.17-.22.05-.34.1-.2-.25-.6-.34-.9-.38l.04-.1c-.33.03-.53-.28-.8-.47-.01-.06-.02-.17-.1-.2-.24.05-.32-.01-.6-.05a2.99 2.99 0 0 1-.56-.45c-.75-.17-1.33-.67-2.06-.94l.01-.13c-.77-.15-1.45-.8-2.06-1l.16-.15c-.14-.15-.42-.18-.45-.03-.14-.15-.48-.16-.5-.37-.16-.13-.26-.04-.42-.1-.3-.27-.45-.33-.8-.5l.08.06c.06-.02.1-.1.03-.15-.15-.02-.43-.3-.43-.03-.28-.33-.9-.38-1.14-.74 0 .07-.1.04-.16.05-.3-.18-.57-.48-.88-.53-.03-.06.14-.05.01-.13-.1-.02-.05.07-.16.05-.57-.18-.96-.7-1.43-.94-.88-.36-1.7-.9-2.5-1.34l.03-.04c-.36.01-.52-.52-.87-.4-.04-.08-.23-.16-.13-.2-.27-.01-.52-.44-.9-.47.03.02.05.02.1.02-.25-.27-.6-.3-.87-.57.04 0 .1.02.14-.02-.04-.08-.14-.08-.22-.08-.04.01-.06.02-.04-.1-.03-.02-.06.1-.04.1-.03-.04-.08-.07-.12-.1-.04.02-.08.04-.1.07-.05.03-.04.04-.18.13l-.63.44V10.2l.52.25c.45.42-.17.36.34.45.01.06.07-.06.05-.02.2.04.12.37.3.33.03-.15.1-.03.16-.1.27.27.27.42.58.47l-.06.05c.4-.01.7.28 1.07.2l4.9 2.6 4.7 2.8c.28.4.3.4.76.57-.03.02-.06.01-.05.05.1-.13.3.15.42.04l1.75 1c-.1-.04-.22.05-.1.1l.17-.02v.05c.1.02.22 0 .16-.1 1.6.76 2.94 1.92 4.46 2.75.32.26.86.5 1.26.7 1.04.85 1.98 1.6 3.22 2.14.03-.1-.34.2-.87 0zm.76.07c.08.05.24.01.2.17-.05-.06-.17-.1-.2-.17zm-1.22-2.3c-.02.02-.03-.06-.04-.08.05.02.12-.02.14.04-.05-.02-.07.02-.1.04z"/><path d="M32.5 21.78c.05-.06.27.01.4.07l-.4-.07zm-.7-.75c-.04-.1-.01-.1.1-.05-.01.04-.05.03-.1.05zm-.15.1c-.07-.04-.08-.1-.1-.15-.03.05.18.06.1.15zM29.9 19.9c-.05-.02-.17-.02-.17-.12.02.08.26.05.17.12zm-.9-.4c-.03-.02-.03-.04-.07-.04-.03-.06.05-.07.1-.05l-.02.1zm-15.72-8.75l.1.03-.05.05zM13 13.4c.12.01.03.1.04.1-.1-.04.07-.06-.04-.1zm3.87 1.8l-.03-.02.1-.12z"/></g><path d="M9.73 10.86l-.1 37.6L34.28 62.7l.1-37.6z" class="F"/><g class="B"><path d="M10 11.18c-.03-.48-.13.26-.06-.32a.3.3 0 0 1 .06.32zm1.03.65c1.54.45 3.13 1.8 4.73 2.46.18.1-.15.15.27.34 1.58.57 3.76 2.03 5.4 3.24l-.14-.01c.3.23.82.3 1.16.52-.02.04-.14-.02-.1.08.15-.05.67.32.86.33.12.12.06.2.2.34h.27c.72.05 1.35.8 2.2 1.1-.05.01-.14-.02-.1.04 1.33.54 2.85 1.46 4.26 2.2-.08.01-.17.06-.12.15.14-.08.58.13.96.32.1.22.7.25 1.1.57l-.05.01c.4.05.43.35.78.34l.15.22c.24-.1.4.36.73.42v-.04c.27.1.35.26.64.4l.01.03.27.14c.01.53-.05.82.08.8-.13.24-.06-.66-.24-.26.16 2.05.12 4.17.12 6.24-.06.23-.08.38-.15.44.03.2.03.78.1.97 0-.07-.08.13-.1.24-.06.38.17.4.1.82-.04-.16-.1-.22-.15-.17.12.35.1.82.14 1.24-.03-.06-.04-.17-.1-.15.14.46-.03.83.06 1.23l-.1-.15c-.1.64.2.2.12.75-.03-.13-.07-.1-.1-.1.17.52.1 1.36.16 1.88-.01-.03-.04-.02-.04-.02l.04 1.77c-.04.23-.23-.07-.2.52.2-.02.07 1 .28.66-.03.5-.1 1.32-.04 1.65-.07-.23-.23.25-.24-.18l-.1.32c-.08-.05.03-.33-.07-.23l.05 1.02c.1.4.32.76.35 1.4-.07-.3-.2.17-.24-.03l.35.9c.01.2-.15.05-.1.35.05-.02.08.12.12.2-.02.08.04.88-.14.97-.07.1-.04-.35-.1-.1 0 .4.06.4.06.8l-.02.01c-.03.26.08.76.18.48.01-.18-.1.07-.06-.2.1.18.13.64.14 1.03-.03-.13-.08-.12-.13-.17.14.53.2 1.08.24 1.67.1.01-.16-.22-.1-.3-.12.75.17 1.55-.01 2.18-.02-.1.12-.06.1-.05-.01.36-.14.35-.1.58-.07.02.02.3.04.54.05.13-.04.06-.04-.15.06.34.17 1.7.06 2.48.05-.01.18.48.17.66l-.1-.07c-.07.16.01.6-.1.63.14.4-.1-1.48-.01-.96-.1.13.18.72.02.6 0 .36.13.7.02 1.06.02-.1-.16-.3-.15 0 .02.5.05.15.1.56l.05.26c.1.02-.02.46.1.27-.1.06.05.75-.13.7l-.15-.07a.71.71 0 0 0 .1.3c.04.1.1.23.13.36-.01.04-.04.12-.07.1.22.14-.02.75.15 1.3-.04.32-.04.75-.05 1.14-.37-.22-.7-.44-.88-.62-.4-.16-.87-.33-1.4-.7.12.04.26.12.3.1-.3-.24-.44-.26-.64-.34.06 0-.38-.37-.6-.58-.34-.12-.3.04-.36.1-.17-.35-.94-.38-1.2-.76.12.04.5.17.27-.03-.17-.35-.65-.2-1.05-.54l.02.22c-.15-.2-.72-.3-.58-.43-.2-.03-.5-.36-.54-.18-.67-.56-1.86-.97-2.16-1.5-.12-.04-.37-.22-.36-.1.13.2.28.08.32.18-.1-.05-.14-.02-.17-.01-.2-.17-.4-.3-.1-.3-.46-.4-.68-.05-1.3-.48.07-.05.03-.1-.17-.2l-.43-.1c-.4-.27-.16-.28-.1-.4-.24-.1-.5-.28-.66-.26l-.2-.3c.14.2-.22-.04-.35-.08l.12.04c-.02-.07-.3-.2-.43-.26-.01.08.24.27.38.37-.14-.02-.32-.13-.5-.17.1-.08-.33-.3-.5-.4-.2-.14-.3-.04-.35-.08.03-.06-.33-.2-.13-.2.08.02.13.15.28.17-.1-.12-.04-.2-.36-.3-.24-.07-.07.24-.43-.06.12.04.17 0 .27.01l-.35-.27-.07.1c-.04-.05 0-.04-.01-.07-.17.04-.6-.3-.75-.24-.2-.1-.36-.3-.54-.42l.04.01c-.2-.2-.5-.32-.73-.36h.02c-.12-.08-.4-.23-.6-.26-.27-.25.1-.42-.3-.5-.3-.18-.6-.1-.5.03-.52-.4-1.25-.6-1.7-1.05-.1-.01-.07.05-.25-.03-.8-.5-1.8-.9-2.35-1.46.26.1.07-.1.1-.15-.25-.03-.2-.23-.34-.12-.03.1-.07.13.14.3-.52-.24-1.27-.67-1.5-.9.1.12-.01.08-.13.05.12-.12-.23-.35-.54-.46l-.1.06-.13-.2c-.12-.03-.22.1-.44-.13 0-.05.03-.07-.05-.15l-.94-.4a4.22 4.22 0 0 1 0-.94c.05-.2.1-.22.14-.34-.02-.15-.1-.4-.14-.14.1-.6.1-1 .22-1.2-.3-1.05-.3-2.56-.28-3.78l.07.04c.07-.33-.13-.17-.08-.4.07.1.15-.25.24.01.08-.47-.13-.6-.16-.9-.1-.05.06.24-.06.2-.03-.05.08-.65-.07-.72.06-.12.16-.03.22.04l-.07-.3c.17-.35.3.8.5.43l-.02-.26c.15-.25.17.7.22.04-.07-.3-.28-.53-.35-.28-.04-.6-.35-.28-.33-.92.1-.18.02.5.14.4.12-.3-.06-.6-.02-.87-.06.3-.2.05-.23-.15.07-.33.14.2.15-.25-.08-.08-.15-.5-.2-.13-.2-.17.05-.48-.1-.73.13-.15.3.48.38-.03-.13.08-.17-.63-.37-.36.04-.2.14-.22.22-.07.08-.28-.23-.7.02-.78l-.13-.1.15-.36c0-.25-.18-.8.02-.78-.02-.08-.01-.65-.15-.43-.1.36.1.4-.1.6.15-.25-.02-.5-.07-.72l.08-.03c-.03-.12-.01-.4-.1-.48.04.1.1.05.12-.05l-.12-.13c-.06-.5.2-.12.17-.6l.1.37c-.02-.08.1-.24.05-.48L8.54 33c-.05-.27.12-.12.01-.4l.13.35c.03.05.18-.24.18-.6-.04-.23-.2-.6-.25-.23 0-.18.06-.44.14-.3-.04-.4-.1.05-.18-.3.07-.15.17-.6.28-.87l.18.37v-.25c.14.32.1-.16.26.02.02-.17-.03-.37-.07-.54-.24.5-.33-.56-.55-.4-.06-.68.54-.42.2-1.13-.06.12-.22-.22-.16.2.03-.42-.22-.3-.13-.78.1.37.23-.4.35.14-.07-.04-.06.3-.04.38.08-.17.22.04.22-.4-.02-.26-.02-.62-.14-.57-.13.01.01.4-.1.23-.04-.52.15-.6-.07-.83.02.33-.1.4-.2.4l-.05-.4.08.07c.06-.62-.15-.18-.13-.78l.17-.28c.14.14-.07.87.17.77.01-.4-.1-.52-.05-.9a2.16 2.16 0 0 0 .05.27c.01-.14.32-.28.14-.83-.07-.3-.08-.08-.17-.08-.02-.63-.1-.8-.13-1.2.17.08.02-.7.2-.27-.1.2-.1 1.1.07 1.33.2-.23-.03.5.17.63.01-.5.2-.48.33-.56.01-.14-.04-.27-.07-.36-.12-.06-.12.12-.25.13.03-.56-.03-1.1-.15-1.4.06-.2.18-.13.2.1a19.14 19.14 0 0 1 .02-2.01c-.2.4-.05-.7-.2-.43-.05.34-.2.63-.28.44.01-.2.1.01.13-.08-.1-.27.18-.42 0-.68.06.6.24.12.4.23-.1-.44.1.02.1-.4a12.9 12.9 0 0 1-.19-1.46c.15-.6.01-1.54 0-2.1.08-.28.26-.1.3-.4 0-.36-.2.27-.1-.27l.03.05c-.04-.16.12-.98-.13-1.14l.2.17c.02-.1-.03-.2-.05-.28.06 0 .12-.12.16.04.13-.33-.02-.7-.02-1.06l-.1.23c-.1-.62.03-1.03-.01-1.63h.1l-.07-.35c.1.1.18-.24.1-.43l.27.92c-.07.26-.13-.28-.24-.12-.1.14-.07.7.04.78.01-.2-.01-.22-.05-.4.15-.07.15.25.25.4-.01-.1.04-.27-.01-.3.07.22.1.44.1.8-.06-.25-.1.13-.14.04.14.03.18.38.14.82-.16.32.1.84.05 1.36a1.94 1.94 0 0 1-.3-.8c-.07.33 0 .36-.07.7.1.16.26.27.32.7l-.1.02c.05.4.2.4.17.88l-.07 2.34h-.1c.22.36.08 1.2.17 1.67-.1.82.1 1.77-.08 2.2l.1 4.2-.15-.25c.1.27-.1.17-.06.44.12-.3.15.36.24.55-.12.66.01 1.52.1 2.1l-.1.02c.2.6.02 1.3-.01 2.05-.04.08-.14.22-.13.44.16.4.15.6.25 1.2 0 .43-.04 1.13-.1 1.57.23 1.62.07 3.28.2 4.97l-.12.12c.25 1.64.01 3.65.14 5.04l-.2-.14c-.06.44.05 1 .2.9v.24c0 .1 0 .18.01.2.01.06.02.1.02.16.03.03.05.06.04.1.03.03.06.04.1.06.07.03.14.05.2.07.13.04.25.06.42.14.74.52 1.04.67 1.8 1.06l-.18-.12c-.1-.01-.15.06.02.18.3.1.98.63.83.26.7.57 1.88.95 2.55 1.56-.03-.1.17 0 .27.01.7.4 1.34.93 1.95 1.15.1.1-.23 0 .05.16.18.07.05-.07.27.01 1.17.53 2.2 1.4 3.22 1.97l5.44 3.04-.04.03c.67.17 1.26.95 1.86.97.1.12.5.32.36.34.53.15 1.22.85 1.97 1.1-.06-.04-.1-.05-.18-.07.3.24.63.4.96.6l.5.27.25.15c.1.06.06.05.1.1-.03.01-.08 0-.12.03.05.08.13.07.2.06.06 0 .1-.01.15.16.07.04.01-.13-.02-.14l.3.2-.01-.4-.02-.2v-.2l-.01-.3-.1-2.32c.14-1.33.4-.08.22-1.13.05-.1-.1-.06-.04-.08-.06-.4.26-.63.14-.92-.14.12-.08-.2-.17-.2.1-.82.23-.98.12-1.62l.08.05c-.2-.76-.1-1.63-.34-2.27l-.18-12.22.1-12.02.17-1c.01-.13.01-.27 0-.44-.01-.08-.01-.18-.02-.28l-.03-.24c.03 0 .04.02.07 0-.1 0-.08-.05-.1-.08-.03-.01-.06-.01-.1.03l-.02-.02-.2-.12-.48-.28-.95-.54-1.95-1.1c.22.1.4.05.14-.08l-.32-.06-.02-.06c-.18-.08-.4-.12-.26.03-3.44-1.82-6.6-4.02-9.92-5.9-.75-.5-1.9-1.1-2.77-1.57-2.42-1.65-4.6-3.12-7.25-4.46.04.07.58-.1 1.7.42z"/><path d="M10 11.76c-.08.1-.13.44-.24.17.08-.03.17-.2.24-.17zm-.85 9.06c.02.01-.03.13-.05.16-.01-.1-.07-.22-.03-.3 0 .1.04.1.08.15zm-.05 2.3c-.07-.03-.13-.53-.14-.82l.14.82zm-.32 2.17c-.06.2-.1.13-.1-.12.04-.01.06.07.1.12zm.17.15c0 .18-.04.27-.08.36.06-.02-.04-.42.08-.36zm-.23 4.68c.01.1.07.36-.02.46.06-.12-.08-.55.02-.46zm.1 2.17c0 .07-.02.1 0 .18-.03.13-.1-.01-.1-.12l.1-.06zM29.7 60.67l-.23-.08.07-.05zm5.16-10.37c-.05-.24.07-.16.08-.2 0 .2-.1-.1-.08.2zm-.34-9.36V41h-.15z"/></g><path d="M11.24 31.17l-.01 2.26 21.53 12.43V43.6z" class="C"/><g class="B"><path d="M11.5 31.3c-.03-.2-.13.1-.06-.13.06.02.1.06.06.13zm.22.37c.75-.01 1.28.75 2 .9.08.03-.12.17.06.22.74.08 1.58.77 2.18 1.38l-.07.03c.12.12.38.04.5.15-.02.03-.07.02-.07.1.1-.08.3.1.4.06.03.07-.02.15.03.24l.15-.07c.4-.14.55.34.95.38-.03.02-.07.02-.06.06.6.12 1.22.52 1.82.78-.05.03-.1.1-.1.16.1-.1.3-.04.46.03 0 .17.33.03.46.2h-.03c.2-.06.15.2.35.1l.03.15c.16-.14.14.2.3.17v-.04c.13.02.13.14.24.16v.03c.25.08.32.25.4.1.01.16-.24-.07-.22.16.8.28 1.55.74 2.3 1.16.05.1.1.15.08.2.1.01.3.13.4.1-.03-.01.01.1.04.13.1.13.23-.07.34.08-.08 0-.13.04-.14.1.2-.04.35.08.5.13-.04.01-.08 0-.1.05.23-.03.28.2.47.2l-.1.05c.17.23.16-.13.33.04-.06 0-.06.04-.1.07.27-.04.54.18.75.24-.02 0-.03.03-.03.03.2.1.4.26.65.33.06.08-.14.18.1.27.08-.17.4.14.38-.1.17.13.42.36.57.37-.12.01-.03.25-.18.17l.06.16c-.05.06-.1-.1-.12.01.08.04.34.1.4.17.2-.02.43-.13.67-.02-.14 0-.04.2-.13.2l.5-.13c.08.04-.06.14.08.16.02-.05.08-.04.13-.06.02.03.34.14.28.32 0 .08-.14-.04-.1.07.14.08.18.03.32.1l-.01.02c.08.08.3.1.26-.06-.06-.04-.03.1-.1.01.12-.05.3.01.43.1-.06 0-.08.04-.13.08.26-.02.48.06.72.13.05-.07-.16.1-.16.03.2.26.64.17.77.45-.04-.01.04-.12.03-.1.12.08.05.2.16.2-.03.07.12.04.2.07.07-.02 0 .04-.07.01.08.01.25.06.43.13.2.08.54.28.67.42.02-.02.16-.01.3.03a.49.49 0 0 1 .05.19l-.1.01c-.07.13.01.37-.1.4.1.14 0-.33-.03-.5-.1-.04-.13-.06-.02-.03 0 .01 0 .02.01.03-.02.1.18.3.05.3 0 .2.13.4.02.62.02-.07-.16-.17-.15-.01.02.3.05.1.1.34l.05.18c.1.06-.02.28.1.22-.1-.01.05.54-.13.36l-.14-.16c.01.13.15.34.22.52-.01.01-.04.01-.07-.02.22.27-.02.3.15.7-.04.1-.04.3-.05.44a1.78 1.78 0 0 1-.42-.35c-.13 0-.27.01-.52-.18.04 0 .1.02.08-.04-.16-.17-.17-.1-.28-.13.01-.03-.3-.33-.44-.5-.16-.02-.1.15-.13.22-.14-.33-.6-.18-.74-.5.08.01.3.05.2-.08-.07-.3-.33 0-.48-.2l-.05.18c-.03-.15-.33-.07-.22-.22-.1.02-.2-.18-.26-.01-.23-.3-.8-.35-.82-.74-.06 0-.15-.1-.18 0 .02.13.14 0 .13.07-.04-.02-.08.02-.1.04-.07-.1-.14-.14.02-.22-.16-.22-.37.14-.6-.08.05-.06.04-.1-.04-.13l-.2.02c-.16-.13-.02-.2.04-.3-.1-.04-.22-.1-.3-.05l-.03-.2c.03.15-.1.02-.17.02h.06c.01-.06-.1-.1-.18-.1-.03.07.07.16.12.22-.07.02-.14-.03-.24-.01.08-.1-.1-.16-.18-.22-.07-.07-.15.04-.17.02.03-.06-.13-.1-.02-.13.04 0 .04.1.1.07-.03-.07.03-.17-.13-.16-.12 0-.1.22-.23.06.06 0 .1-.04.15-.06l-.12-.14-.06.1c-.01-.04.01-.04.01-.05-.1.07-.26-.1-.36-.01-.08-.04-.13-.16-.2-.22h.02c-.06-.1-.2-.14-.32-.12l.02-.02c-.05-.04-.17-.1-.27-.07-.08-.15.17-.4-.04-.35-.13-.07-.3.06-.3.15-.2-.2-.55-.2-.67-.46-.06.02-.05.06-.13.04-.32-.23-.78-.3-.94-.64.12.02.06-.1.1-.15-.13.04-.05-.15-.16-.01-.04.1-.07.13 0 .22-.23-.07-.54-.25-.6-.4.03.07-.03.07-.1.07.1-.13-.04-.24-.18-.25l-.06.08-.02-.13c-.06 0-.15.15-.22 0 .01-.04.03-.07.02-.1-.16 0-.4.02-.47-.12L22 40.4c-.06-.02-.2 0-.12.1-.17-.2-.3-.3-.3-.44-.52.05-1.07-.25-1.5-.52l.05-.06c-.08-.13-.12.08-.18-.01.07-.04-.01-.18.12-.2-.13-.16-.28-.01-.4-.05-.06.07.12 0 .04.1-.04.02-.2-.2-.3-.1-.01-.07.07-.15.12-.2h-.14c-.04-.22.43-.1.4-.36l-.1-.03c-.01-.18.33-.01.12-.2-.14 0-.33.14-.27.24-.23-.1-.27.24-.5.1-.02-.1.2.1.2-.04-.05-.16-.25-.07-.32-.16.08.1-.08.18-.17.17-.08-.13.14-.08-.01-.18-.07.06-.25.02-.15.15-.15.13-.14-.14-.3-.07.01-.15.32-.17.18-.33-.04.13-.3.02-.3.24-.05-.07-.01-.17.08-.2-.06-.13-.36.06-.27-.18l-.1.1c-.01-.06-.04-.1-.06-.2-.1-.05-.38-.01-.27-.18-.04 0-.24-.12-.23.04.08.15.2 0 .17.2-.01-.18-.2-.1-.3-.1l.03-.07c-.06 0-.15-.07-.22-.01.06-.02.06-.07.04-.1l-.1.08c-.2-.05.06-.2-.13-.27H17c-.04 0-.04-.13-.14-.14l-.28.2c-.12-.02.02-.13-.13-.1l.2-.04c.04-.02 0-.2-.13-.27-.1-.02-.3.04-.2.17-.07-.04-.12-.15-.03-.18-.17-.05-.04.1-.2.1-.02-.1-.13-.27-.17-.42l.22-.08-.1-.05c.2-.06 0-.13.14-.22-.05-.06-.15-.05-.22-.05.05.3-.36.17-.42.4-.27-.1.12-.55-.3-.4.01.07-.2.15-.01.18-.14-.1-.2.13-.34-.05.18 0-.03-.28.23-.28-.05.06.08.1.12.1-.02-.1.12-.18-.03-.27-.1-.04-.23-.1-.27 0-.06.1.15.07.03.15-.2-.07-.14-.25-.33-.1.13.05.1.18.05.26l-.16-.03.07-.06c-.2-.18-.14.1-.34-.05l-.02-.2c.12-.1.28.23.36.01-.13-.1-.24-.01-.34-.14.04 0 .08.02.12.02-.05-.04.06-.33-.23-.3-.14 0-.07.06-.1.13-.24-.1-.35-.07-.5-.14.1-.13-.24-.16 0-.22.02.13.35.3.5.2.02-.22.16.13.3-.02-.18-.1-.07-.27-.03-.4-.04-.04-.12-.02-.16-.02-.08.1-.02.13-.08.24-.18-.14-.4-.2-.58-.16-.04-.1.05-.18.13-.15a3.63 3.63 0 0 1-.71-.43c.05.26-.27-.1-.26.1.1.1.13.3.02.33-.07-.05.05-.07.04-.13-.15.04-.06-.24-.24-.14.25.07.16-.2.28-.3-.2-.01.06-.1-.1-.18a2.02 2.02 0 0 1-.6-.14c-.15-.26-.5-.3-.84-.48-.08-.14.15-.2.05-.3-.15-.08-.05.2-.2.01h.05c-.03 0-.06-.03-.1-.06.02-.16.06-.4-.13-.42a.63.63 0 0 0 .19.03c.02-.05-.03-.08-.05-.12.06-.02.12-.07.16-.01.13-.16-.02-.3-.03-.44l-.1.1c-.1-.25.02-.42-.01-.67h.1l-.07-.15c.1.04.18-.1.1-.17l.27.38c-.07.1-.13-.12-.24-.05-.1.06-.07.28.04.32.01-.1-.01-.1-.05-.16.15-.03.15.1.25.17-.01-.05.04-.1-.01-.12a.45.45 0 0 1 .1.33c-.06-.1-.1.05-.14.02.14 0 .18.2.14.3-.14.12.06.22.06.33.01.01.02.01.03.02l-.1.03c-.1 0-.18-.04-.22-.13-.07.15 0 .14-.06.3v.01c.16-.03.34-.1.5-.08l-.07.08c.16.03.23-.1.35 0 .27.22.58.4.8.54l-.04.1c.24-.1.46.17.68.2.24.25.68.28.74.52.55.23 1.04.42 1.55.76l-.16.08c.15-.04.02.1.12.14-.05-.16.2-.06.32-.1.18.24.55.3.8.33l-.04.1c.3-.04.48.25.72.43.01.05.01.16.1.2.23-.06.3-.01.56.03a2.78 2.78 0 0 1 .51.41c.7.13 1.2.6 1.88.83l-.02.13c.7.12 1.3.73 1.87.9l-.15.15c.12.14.38.16.4.01.13.14.44.14.45.34.14.12.24.03.4.08.28.25.4.3.73.45l-.07-.05c-.06.02-.1.1-.03.15.14.02.4.3.4.01.25.3.8.33 1.02.68.01-.07.1-.04.15-.06.28.16.5.45.8.48.03.05-.13.06-.02.13.08.02.04-.07.15-.06.52.16.86.64 1.3.86.8.3 1.54.82 2.26 1.2l-.03.04c.33-.02.46.5.8.35.03.07.2.14.1.2.24-.02.55.46.6.3-.01-.01-.01 0-.02.02.07.17.14.03.25.2 0 .02-.01.03 0 .1.1.17-.02-.25.15.12.03.01-.07-.18-.07-.17.05.05.1.08.14.1.01-.07-.02-.2-.05-.28-.03-.1-.07-.12-.1-.2.13-.17.35-.2.26-.23h-.08c.03-.04-.1.05-.05.02-.1.02.1-.25-.04-.2-.07.13-.08.05-.13.12-.2-.23-.23-.4-.5-.42l.06-.06c-.38.03-.63-.25-.98-.16l-4.45-2.32-4.24-2.52c-.24-.37-.27-.38-.68-.52.03-.02.06-.01.05-.05-.1.13-.27-.14-.38-.02-.52-.34-1.04-.58-1.6-.9.1.04.2-.06.1-.1l-.16.03.01-.05c-.08-.02-.2.01-.15.1-1.46-.68-2.65-1.75-4.03-2.5-.3-.25-.78-.46-1.14-.63-.93-.8-1.77-1.48-2.9-1.96-.06 0 .3-.3.78-.12z"/><path d="M11.52 31.54c-.08.04-.13.18-.24.07.08-.01.17-.08.24-.07z"/><use xlink:href="#B"/><path d="M13.33 35.35c-.05.06-.25 0-.36-.05l.36.05zm.62.7c.04.1 0 .1-.1.06.02-.04.05-.04.1-.06zm.15-.1c.06.04.07.1.08.15.03-.06-.16-.06-.08-.15zm1.55 1.14c.04.02.16.02.16.1-.02-.07-.25-.03-.16-.1z"/><use xlink:href="#C"/><path d="M30.7 45.3h-.1l.05-.06zm-.1-3.58c-.1-.01-.02-.1-.03-.1.07.03-.08.06.03.1zm-3.52-1.62h.02l-.08.13z"/></g><path d="M11.26 21.55v2.26l21.52 12.42.01-2.25z" class="C"/><g class="B"><path d="M11.53 21.68c-.03-.2-.13.1-.06-.13.07.03.1.06.06.13zm.2.36c.75-.01 1.28.75 2 .9.08.03-.12.17.06.22.74.08 1.58.77 2.18 1.4l-.07.03c.12.12.38.04.5.15-.02.03-.07.02-.07.1.1-.08.3.1.4.06.03.07-.02.15.03.24l.15-.07c.4-.14.55.34.95.38-.03.02-.07.02-.06.06.6.12 1.22.52 1.82.78-.05.03-.1.1-.1.16.1-.1.3-.04.46.03 0 .17.33.03.46.2l-.03.02c.2-.06.15.2.35.1l.03.15c.16-.14.14.2.3.17l.02-.04c.13.02.13.14.24.16v.03c.25.08.32.25.4.1.01.16-.24-.07-.22.16.8.28 1.55.74 2.3 1.16.05.1.1.15.08.2.1.01.3.13.4.1-.03-.01.01.1.04.13.1.13.23-.07.34.08-.08 0-.13.04-.14.1.2-.04.35.08.5.13-.04.01-.08 0-.1.05.23-.03.28.2.47.2l-.1.05c.17.23.16-.13.33.04-.06 0-.06.04-.1.07.27-.04.54.18.75.24-.02 0-.03.03-.03.03.2.1.4.26.65.33.06.08-.14.18.1.27.08-.17.4.14.38-.1.17.13.42.36.57.37-.12.01-.03.25-.18.17l.06.16c-.05.06-.1-.1-.12.01.08.04.34.1.4.17.2-.02.43-.13.67-.02-.14 0-.04.2-.13.2l.5-.13c.08.04-.06.14.08.16.02-.05.08-.04.13-.06.02.03.34.14.28.32 0 .08-.14-.04-.1.07.14.08.18.03.32.1l-.01.02c.08.08.3.1.26-.06-.06-.04-.03.1-.1.01.12-.05.3.01.43.1-.06 0-.08.04-.13.08.26-.02.48.06.72.13.05-.07-.16.1-.16.03.2.26.64.17.77.45-.04-.01.04-.12.03-.1.12.08.05.2.16.2-.03.07.12.04.2.07.07-.02 0 .04-.07.01.08.01.25.06.43.13.2.08.54.28.67.42.02-.02.16-.01.3.03a.49.49 0 0 1 .05.19l-.1.01c-.07.13.01.37-.1.4.1.14 0-.33-.03-.5-.1-.04-.13-.06-.02-.03 0 .01 0 .02.01.03-.02.1.18.3.05.3 0 .2.13.4.02.62.02-.07-.16-.17-.15-.01.02.3.05.1.1.34l.05.18c.1.06-.02.28.1.22-.1-.01.05.54-.13.36l-.14-.16c.01.13.15.34.22.52-.01.01-.04.01-.07-.02.22.27-.02.3.15.7-.04.1-.04.3-.05.44a1.78 1.78 0 0 1-.42-.35c-.13 0-.27.01-.52-.18.04 0 .1.02.08-.04-.16-.17-.17-.1-.28-.13.01-.03-.3-.33-.44-.5-.16-.02-.1.15-.13.22-.14-.33-.6-.18-.74-.5.08.01.3.05.2-.08-.07-.3-.33 0-.48-.2l-.05.18c-.03-.15-.33-.07-.22-.22-.1.02-.2-.18-.26-.01-.23-.3-.8-.35-.82-.74-.06 0-.15-.1-.18 0 .02.13.14 0 .13.07-.04-.02-.07.02-.1.04-.07-.1-.14-.14.02-.22-.16-.22-.37.14-.6-.08.05-.06.04-.1-.04-.13l-.2.02c-.16-.13-.02-.2.04-.3-.1-.04-.22-.1-.3-.05l-.03-.2c.03.15-.1.02-.17.02h.06c.01-.06-.1-.1-.18-.1-.03.07.07.16.12.22-.07.02-.14-.03-.24-.01.08-.1-.1-.16-.18-.22-.07-.07-.15.04-.17.02.03-.06-.13-.1-.02-.13.04 0 .04.1.1.07-.03-.07.03-.17-.13-.16-.12 0-.1.22-.23.06.06 0 .1-.04.15-.06L27 33.4l-.06.1c-.01-.04.01-.04.01-.05-.1.07-.26-.1-.36-.01-.08-.04-.13-.16-.2-.22h.02c-.06-.1-.2-.14-.32-.12h0c-.05-.04-.17-.1-.27-.07-.08-.15.17-.4-.04-.35-.13-.07-.3.06-.3.15-.2-.2-.55-.2-.67-.46-.06.02-.05.06-.13.04-.32-.23-.78-.3-.94-.64.12.02.06-.1.1-.15-.13.04-.05-.15-.16-.01-.04.1-.07.13 0 .22-.23-.07-.54-.25-.6-.4.03.07-.03.07-.1.07.1-.13-.04-.24-.18-.25l-.06.08-.02-.13c-.06 0-.15.15-.22 0 .01-.04.03-.07.02-.1-.16 0-.4.02-.47-.12l-.03-.18c-.06-.02-.2 0-.12.1-.17-.2-.3-.3-.3-.44-.52.05-1.07-.25-1.5-.52l.05-.06c-.08-.13-.12.08-.18-.01.07-.04-.01-.18.12-.2-.13-.16-.28-.01-.4-.05-.06.07.12 0 .04.1-.04.02-.2-.2-.3-.1-.01-.07.07-.15.12-.2h-.14c-.04-.22.43-.1.4-.36l-.1-.03c-.01-.18.33-.01.12-.2-.14 0-.33.14-.27.24-.23-.1-.27.24-.5.1-.02-.1.2.1.2-.04-.05-.16-.25-.07-.32-.16.08.1-.08.18-.17.17-.08-.13.14-.08-.01-.18-.07.06-.25.02-.15.15-.15.13-.14-.14-.3-.07.01-.15.32-.17.18-.33-.04.13-.3.02-.3.24-.05-.07-.01-.17.08-.2-.06-.13-.36.06-.27-.18l-.1.1c-.01-.06-.04-.1-.06-.2-.1-.05-.38-.01-.27-.18-.04 0-.24-.12-.23.04.08.15.2 0 .17.2-.01-.18-.2-.1-.3-.1l.03-.07c-.06 0-.15-.07-.22-.01.06-.02.06-.07.04-.1l-.1.08c-.2-.05.06-.2-.13-.27H17c-.04 0-.04-.13-.14-.14l-.28.2c-.12-.02.02-.13-.13-.1l.2-.04c.04-.02 0-.2-.13-.27-.1-.02-.3.04-.2.17-.07-.04-.12-.15-.03-.18-.17-.05-.04.1-.2.1-.02-.1-.13-.27-.17-.42l.22-.08-.1-.05c.2-.06 0-.13.14-.22-.05-.06-.15-.05-.22-.05.05.3-.36.17-.42.4-.27-.1.12-.55-.3-.4.01.07-.2.15-.01.18-.14-.1-.2.13-.34-.05.18 0-.03-.28.23-.28-.05.06.08.1.12.1-.02-.1.12-.2-.03-.27-.1-.04-.23-.1-.27 0-.06.1.15.07.03.15-.2-.07-.14-.25-.33-.1.13.05.1.18.05.26l-.16-.03.07-.06c-.2-.18-.14.1-.34-.05v-.2c.12-.1.28.23.36.01-.13-.1-.24-.01-.34-.14.04 0 .08.02.12.02-.05-.04.06-.33-.23-.3-.14 0-.07.06-.1.13-.24-.1-.35-.07-.5-.14.1-.13-.24-.16 0-.22.02.13.35.3.5.2.02-.22.16.13.3-.02-.18-.1-.07-.27-.03-.4-.04-.04-.12-.02-.16-.02-.08.1-.02.13-.08.24-.18-.14-.4-.2-.58-.16-.04-.1.05-.18.13-.15a3.63 3.63 0 0 1-.71-.43c.05.26-.27-.1-.26.1.1.1.13.3.02.33-.07-.05.05-.07.04-.13-.15.04-.06-.24-.24-.14.25.07.16-.2.28-.3-.2-.01.06-.1-.1-.18a2.02 2.02 0 0 1-.6-.14c-.15-.26-.5-.3-.84-.48-.08-.14.15-.2.05-.3-.15-.08-.05.2-.2.01h.05c-.03 0-.06-.03-.1-.06.02-.16.06-.4-.13-.42a.63.63 0 0 0 .19.03c.02-.05-.03-.08-.05-.12.06-.02.12-.07.16-.01.13-.16-.02-.3-.03-.44l-.1.1c-.1-.25.02-.42-.01-.67l.1.01-.07-.15c.1.04.18-.1.1-.17l.27.38c-.07.1-.13-.12-.24-.05-.1.06-.07.28.04.32.01-.1-.01-.1-.05-.16.15-.03.15.1.25.17-.01-.05.04-.1-.01-.12a.45.45 0 0 1 .1.33c-.06-.1-.1.05-.14.02.14 0 .18.2.14.3-.14.12.06.22.06.33.01.01.02.01.03.02l-.1.03c-.1 0-.18-.04-.22-.13-.07.15 0 .14-.06.3.16-.03.34-.1.5-.08l-.07.08c.16.03.23-.1.35 0 .27.22.58.4.8.54l-.04.1c.24-.1.46.17.68.2.24.25.68.28.74.52.55.23 1.04.42 1.55.76l-.16.08c.15-.04.02.1.12.14-.05-.16.2-.06.32-.1.18.24.55.3.8.33l-.04.1c.3-.04.48.25.72.43.01.05.01.16.1.2.23-.06.3-.01.56.03a2.78 2.78 0 0 1 .51.41c.7.13 1.2.6 1.88.83l-.02.13c.7.12 1.3.73 1.87.9l-.15.15c.12.14.38.16.4.01.12.14.44.14.45.34.14.12.24.03.4.08.28.25.4.3.73.45l-.07-.05c-.06.02-.1.1-.03.15.14.02.4.3.4.01.25.3.8.33 1.02.68.01-.07.1-.04.15-.06.28.16.5.45.8.48.03.05-.13.06-.02.13.08.02.04-.07.15-.06.52.16.86.64 1.3.86.8.3 1.54.82 2.26 1.2l-.03.04c.33-.02.46.5.8.35.03.07.2.14.1.2.24-.02.55.46.6.3-.01-.01-.01 0-.02.02.07.17.14.03.25.2 0 .02-.01.03 0 .1.1.17-.02-.25.15.12.03.01-.07-.18-.07-.17.05.05.1.08.14.1.01-.07-.02-.2-.05-.28-.03-.1-.07-.12-.1-.2.13-.17.35-.2.26-.23h-.08c.03-.04-.1.05-.05.02-.1.02.1-.25-.04-.2-.07.13-.08.05-.13.12-.2-.23-.23-.4-.5-.42l.06-.06c-.38.03-.63-.25-.98-.16l-4.45-2.32-4.24-2.52c-.24-.37-.27-.38-.68-.52.03-.02.06-.01.05-.05-.1.13-.27-.14-.38-.02-.52-.34-1.04-.58-1.6-.9.1.04.2-.06.1-.1l-.16.03v-.05c-.08-.02-.2.01-.15.1-1.46-.68-2.65-1.75-4.03-2.5-.3-.25-.78-.46-1.14-.63-.93-.8-1.77-1.48-2.9-1.96-.05-.01.3-.3.78-.13z"/><path d="M11.55 21.92c-.08.04-.13.18-.24.07.08-.02.17-.1.24-.07zm1 3.28c.02-.02.03.06.03.07-.04-.02-.1.02-.12-.03.04.02.06-.02.1-.04zm.8.52c-.05.06-.25 0-.36-.05l.36.05zm.62.7c.04.1 0 .1-.1.06.01-.04.05-.04.1-.06zm.14-.12c.06.04.07.1.08.15.03-.06-.17-.06-.08-.15zm1.55 1.16c.04.02.16.02.16.1-.01-.08-.24-.04-.16-.1z"/><use xlink:href="#C" x="0.02" y="-9.63"/><path d="M30.74 35.7l-.1-.02.04-.06zm-.12-3.6c-.1-.01-.02-.1-.03-.1.07.04-.08.06.03.1zm-3.52-1.62l.03.02-.08.12z"/></g><path fill="#8b1812" d="M18.25 20.76L18.24 23l14.56 8.4v-2.26z"/><g class="B"><path d="M18.52 20.85c-.03-.14-.13.07-.06-.1.06.02.1.04.06.1zm.04.3c.58-.1.9.53 1.45.56.06.01-.12.17.02.2.56-.02 1.13.5 1.52 1l-.06.03c.07.1.3-.01.38.07-.02.03-.06.03-.06.1.08-.1.2.06.3.01.02.06-.03.14-.01.22l.13-.08c.32-.18.38.25.7.23-.03.02-.06.03-.06.07.45.04.88.32 1.3.5-.04.03-.1.1-.1.16.1-.1.23-.07.35-.03-.02.15.25-.01.33.13h-.03c.17-.08.1.16.26.04v.13c.14-.15.08.17.2.12v-.04c.1 0 .08.1.17.12h-.01c.18.04.22.2.3.05-.01.14-.18-.04-.2.17.6.15 1.1.5 1.63.78.03.1.05.13.04.2.07 0 .2.1.3.04-.02-.01-.01.1.02.1.06.1.2-.1.26.03a.15.15 0 0 0-.12.11c.15-.06.26.03.38.05-.03.01-.06.01-.08.06.18-.06.2.15.34.13l-.08.06c.1.2.14-.14.25 0-.05.01-.05.04-.08.07.2-.07.4.1.55.12-.01.01-.02.03-.02.03.15.06.27.2.46.22.04.07-.13.18.03.24.1-.16.3.08.3-.15.1.1.28.28.4.27-.1.03-.05.23-.17.18v.14c-.05.06-.07-.07-.1.03.06.02.25.05.28.1.16-.04.35-.17.52-.1-.1.02-.06.2-.13.2l.4-.18c.06.02-.06.13.04.14.02-.04.07-.05.1-.07.01.03.24.1.17.26-.01.08-.1-.02-.08.07.1.05.13 0 .23.06l-.01.02c.05.06.23.04.2-.1-.04-.03-.04.1-.08.02.1-.07.23-.03.33.03-.05.01-.07.05-.1.1.2-.05.37-.01.54.03.05-.07-.13.1-.13.05.12.2.47.07.6.36-.05-.01.06-.1.05-.1.13.1.02.17.14.2-.05.06.12.04.23.08.1-.01-.01.03-.1 0 .05.01.13.03.22.06.05.2.1.58.01.82.05-.02.18.2.17.3l-.1-.05c-.07.06.01.28-.1.26.14.2-.12-.65-.01-.4-.1.04.18.34.03.26 0 .15.13.37.02.47.02-.04-.16-.2-.15-.08.02.22.05.1.1.3l.05.15c.1.1-.02.2.1.2-.1-.06.06.4-.13.2l-.14-.18c.01.1.15.3.22.47-.01 0-.04-.01-.07-.05.22.3-.02.2.15.57-.04.05-.04.18-.05.3-.1-.08-.22-.16-.32-.3-.07.04-.15.1-.33-.08.02-.01.06 0 .03-.07-.13-.15-.12-.08-.2-.07 0-.04-.25-.3-.37-.45-.1.02-.03.2-.02.3-.16-.35-.37-.05-.54-.38.05-.01.18-.02.08-.14-.1-.3-.23.05-.4-.17v.2c-.05-.16-.34-.07-.25-.24-.1.01-.2-.18-.25-.01-.14-.25-.57-.22-.54-.58-.05.01-.1-.06-.14.03 0 .12.1-.02.1.05-.03-.01-.06.03-.08.05-.05-.07-.1-.12.04-.2-.1-.18-.3.17-.46 0 .05-.06.04-.1-.02-.1l-.17.05c-.1-.1.01-.2.07-.3-.08-.02-.15-.07-.23-.01v-.18c0 .13-.1.03-.14.04h.05c.01-.05-.08-.07-.12-.08-.03.07.03.14.06.2-.06.03-.1-.01-.18.02.08-.1-.06-.14-.1-.18-.05-.06-.12.06-.14.04.03-.06-.1-.07 0-.12.03-.01.02.08.08.05-.02-.06.04-.16-.08-.13-.1.02-.1.22-.18.08.05-.01.08-.05.12-.07l-.08-.12-.06.1c0-.03.01-.04.01-.05-.1.08-.18-.07-.28.03-.06-.02-.08-.13-.12-.18h.01c-.03-.1-.14-.1-.23-.07v-.02c-.03-.03-.12-.06-.2-.03-.05-.12.18-.38.01-.32-.1-.05-.24.1-.24.18-.12-.16-.4-.1-.46-.34-.05.03-.05.06-.1.05-.22-.18-.57-.18-.65-.47.1 0 .06-.1.1-.15-.1.05-.02-.13-.12.01-.04.1-.07.13-.03.2-.17-.04-.38-.16-.42-.3.02.06-.03.07-.08.08.1-.13 0-.2-.1-.2l-.06.08v-.12c-.05.01-.14.16-.17.03.01-.03.03-.07.03-.1-.12.02-.3.07-.35-.05v-.17c-.05-.01-.15.03-.1.1-.1-.16-.2-.23-.2-.36-.4.1-.8-.1-1.1-.3l.05-.06c-.05-.1-.1.1-.14.01.06-.05.01-.17.12-.2-.08-.13-.2.02-.3.01-.06.08.1-.02.02.08-.03.02-.12-.16-.2-.04 0-.07.08-.15.12-.2l-.1.02c0-.2.35-.15.36-.38h-.08c.01-.17.26-.05.12-.2-.1.02-.27.17-.24.26-.17-.05-.24.26-.4.16 0-.1.14.06.17-.07-.02-.15-.18-.03-.23-.1.05.1-.1.18-.15.18-.05-.1.12-.1.01-.17-.06.06-.2.05-.14.16-.14.14-.1-.1-.23-.02.03-.14.27-.2.18-.33-.04.12-.24.06-.27.27-.03-.06.01-.15.1-.2-.03-.1-.3.1-.2-.13l-.1.1c0-.05-.02-.1-.02-.18-.06-.04-.3.04-.2-.13-.03.01-.17-.08-.18.07.05.12.15-.03.1.16.01-.17-.14-.06-.2-.04l.03-.07c-.05.01-.1-.05-.17.01.05-.02.06-.08.04-.1l-.1.08c-.15-.02.07-.2-.06-.24l.14-.03c-.03.01-.02-.1-.1-.1l-.24.23c-.1 0 .03-.12-.1-.07l.15-.06c.03-.02.03-.2-.06-.24-.08 0-.24.08-.18.18-.05-.03-.08-.12 0-.17-.12-.03-.04.1-.17.1 0-.08-.06-.24-.08-.37l.18-.1-.06-.04c.15-.08.01-.12.13-.22-.03-.04-.1-.03-.17-.02 0 .28-.3.2-.38.42-.2-.05.16-.53-.2-.33 0 .07-.17.16-.03.17-.1-.08-.18.15-.26 0 .14-.03.01-.25.2-.3-.05.06.05.1.08.08 0-.1.12-.2.01-.25-.08-.02-.17-.07-.2.04-.06.1.1.05 0 .13-.15-.04-.08-.22-.25-.05.1.03.05.16 0 .23l-.12-.01.06-.06c-.12-.14-.12.1-.26 0l.01-.18c.1-.1.2.18.28-.04-.1-.06-.18.02-.25-.1.03-.01.06.01.1 0-.03-.03.1-.3-.14-.24-.1.02-.06.06-.1.14-.17-.07-.26-.02-.37-.06.1-.14-.17-.12.03-.2 0 .12.23.24.37.13.04-.2.1.1.24-.06-.12-.08-.02-.24.03-.37-.03-.03-.1 0-.12.01-.08.1-.03.12-.1.23-.12-.1-.3-.13-.43-.07-.02-.08.06-.18.12-.15-.18-.06-.35-.18-.5-.3 0 .23-.2-.06-.2.12.06.1.06.25-.03.3-.05-.04.05-.07.04-.12-.12.06-.02-.2-.17-.1.18.03.15-.2.26-.3-.16.01.07-.1-.05-.16a1.71 1.71 0 0 1-.6-.13c-.03-.07-.08-.12-.15-.16.01-.2-.06-.4-.07-.55.08-.12.26-.08.3-.18 0-.12-.2.1-.1-.1l.04.02c-.04-.06.12-.3-.13-.34l.2.05c.02-.03-.03-.06-.05-.08.06 0 .12-.03.16.01.13-.1-.02-.2-.03-.3l-.1.07c-.1-.18.02-.3-.02-.47l.1.01-.07-.1c.1.03.18-.07.1-.12l.27.27c-.07.07-.13-.08-.24-.03-.1.04-.07.2.04.22.01-.06-.01-.06-.05-.1.15-.02.15.07.25.12-.01-.03.04-.08-.01-.08.08.06.1.13.1.23-.06-.07-.1.04-.14.01.14.01.18.1.14.24-.16.1.1.24.06.4-.14-.06-.25-.14-.3-.23-.07.1 0 .1-.07.2.1.05.26.08.32.15l-.1.02c.05.08.2.04.17.14l-.03.15.27.2-.06.08c.17-.15.3.1.48.07.16.2.5.17.5.38.4.14.75.26 1.1.5l-.14.1c.12-.06 0 .1.08.12-.02-.15.17-.08.26-.13.1.2.38.2.58.2l-.04.1c.24-.08.34.17.5.3 0 .05-.01.15.05.17.18-.08.23-.04.43-.05.1.06.26.2.34.32.52.03.86.4 1.35.52l-.03.12c.54.02.92.5 1.34.6l-.14.16c.08.12.28.1.32-.04.08.12.32.07.3.26.1.1.18 0 .3.03.2.2.28.23.5.32l-.05-.04c-.05.03-.1.1-.04.14.1 0 .26.2.3-.04.16.25.58.2.7.5.01-.07.08-.05.12-.07.2.1.34.35.55.34.01.05-.1.07-.03.12.06.01.04-.07.12-.07.38.08.6.5.9.63.58.2 1.1.56 1.6.83l-.03.04c.26-.07.3.4.56.22-.02.04.02.04-.02.12.06-.12.1.2.16.04-.01-.01-.01 0-.01.03.08.17.08 0 .2.18.01.03 0 .04.03.1.1.17-.07-.28.12.1.02.01-.08-.18-.08-.18l.1.1c.01-.1-.1-.35-.14-.4.14-.03.4.07.22-.05.05-.01-.1 0-.04-.01-.07-.03.26-.12.14-.14-.14.06-.08 0-.17.03l.13-.17c0-.03-.02-.05-.1-.04l.07-.05c-.14.04-.2.04-.25.04-.02.02-.2-.04-.32.03l-3.16-1.58-2.97-1.8c-.14-.3-.16-.32-.46-.4.03-.02.05-.02.04-.06-.1.13-.2-.1-.3.03-.36-.24-.73-.4-1.12-.63.07.02.17-.08.1-.1l-.13.05v-.05c-.06-.01-.16.03-.13.1-1.04-.44-1.84-1.28-2.8-1.8-.2-.2-.55-.32-.8-.43-.62-.6-1.2-1.14-2-1.44.1.03.4-.28.75-.2z"/><path d="M18.54 21.02c-.08.03-.13.13-.24.05.08-.01.16-.06.24-.05zm-.04 2.78c.02-.02.02.05.02.07-.02-.01-.1.02-.12-.03.05.02.07-.02.1-.04zm.55.38c-.05.06-.2.04-.28 0h.28zm.4.57c.02.08-.01.1-.08.06.02-.03.05-.03.08-.06zm.12-.12c.05.02.05.07.05.12.03-.05-.12-.02-.05-.12zm1.07.87c.03.01.12-.01.1.08-.01-.07-.2 0-.1-.08zm.6.2c.02.01.02.03.05.02.02.05-.05.07-.08.06l.03-.08zm10.24 5.58l-.1-.01.03-.07zm.47-3.25c-.08.01-.01-.08-.01-.1.05.02-.07.07.01.1zM29.4 27h.02l-.08.13z"/></g><path d="M11.25 26.36l-.01 2.26 21.53 12.43.01-2.26z" class="C"/><g class="B"><path d="M11.52 26.5c-.03-.2-.13.1-.06-.13.06.02.1.06.06.13zm.2.36c.75-.01 1.28.75 2 .9.08.03-.12.17.06.22.74.08 1.58.77 2.18 1.38l-.07.03c.12.12.38.04.5.15-.02.03-.07.02-.07.1.1-.08.3.1.4.06.03.07-.02.15.03.24l.15-.07c.4-.14.55.34.95.38-.03.02-.07.02-.06.06.6.12 1.22.52 1.82.78-.05.03-.1.1-.1.16.1-.1.3-.04.46.03 0 .17.33.03.46.2l-.03.02c.2-.06.15.2.35.1l.03.15c.16-.14.14.2.3.17v-.04c.13.02.13.14.24.16v.03c.25.08.32.25.4.1.01.16-.24-.07-.22.16.8.28 1.55.74 2.3 1.16.05.1.1.15.08.2.1.01.3.13.4.1-.03-.01.01.1.04.13.1.13.23-.07.35.08-.08 0-.13.04-.14.1.2-.04.35.08.5.13-.04.01-.08 0-.1.05.23-.03.28.2.47.2l-.1.05c.17.23.16-.13.33.04-.06 0-.06.04-.1.07.27-.04.54.18.75.24-.02 0-.03.03-.03.03.2.1.4.26.65.33.06.08-.14.18.1.27.1-.17.4.14.38-.1.17.13.42.36.57.37-.12.01-.03.25-.18.17l.06.16c-.05.06-.1-.1-.12.01.08.04.34.1.4.17.2-.02.43-.13.67-.02-.14 0-.04.2-.13.2l.5-.13c.08.04-.06.14.08.16.02-.05.08-.04.13-.06.02.03.34.14.28.32 0 .08-.14-.04-.1.07.14.08.18.03.32.1l-.01.02c.08.08.3.1.26-.06-.06-.04-.03.1-.1.01.12-.05.3.01.43.1-.06 0-.08.04-.13.08.26-.02.48.06.72.13.05-.07-.16.1-.16.03.2.26.64.17.77.45-.04-.01.04-.12.03-.1.12.08.05.2.16.2-.03.07.12.04.2.07.07-.02 0 .04-.07.01.08.01.25.06.43.13.2.08.54.28.67.42.02-.02.16-.01.3.03a.49.49 0 0 1 .05.19l-.1.01c-.07.13.01.37-.1.4.1.14 0-.33-.03-.5-.1-.04-.13-.06-.02-.03 0 .01 0 .02.01.03-.02.1.18.3.05.3 0 .2.13.4.02.62.02-.07-.16-.17-.15-.01.02.3.05.1.1.34l.05.18c.1.06-.02.28.1.22-.1-.01.05.54-.13.36l-.14-.16c.01.13.15.34.22.52-.01 0-.04.01-.07-.02.22.27-.02.3.15.7-.04.1-.04.3-.05.44a1.78 1.78 0 0 1-.42-.35c-.13 0-.27.01-.52-.18.04 0 .1.02.08-.04-.16-.17-.17-.1-.28-.13.01-.03-.3-.33-.44-.5-.16-.02-.1.15-.13.22-.14-.33-.6-.18-.74-.5.08.01.3.05.2-.08-.07-.3-.33 0-.48-.2l-.05.18c-.03-.15-.33-.07-.22-.22-.1.02-.2-.18-.26-.01-.23-.3-.8-.35-.82-.74-.06 0-.15-.1-.18 0 .02.13.14 0 .13.07-.04-.02-.07.02-.1.04-.07-.1-.14-.14.02-.22-.16-.22-.37.14-.6-.08.05-.06.04-.1-.04-.13l-.2.02c-.16-.13-.02-.2.04-.3-.1-.03-.22-.1-.3-.05l-.03-.2c.03.15-.1.02-.17.02h.06c.01-.06-.1-.1-.18-.1-.03.07.07.16.12.22-.07.02-.14-.03-.24-.01.08-.1-.1-.16-.18-.22-.07-.07-.15.04-.17.02.03-.06-.13-.1-.02-.13.04 0 .04.1.1.07-.03-.07.03-.17-.13-.16-.12 0-.1.22-.23.06.06 0 .1-.04.15-.06L27 38.2l-.06.1c-.01-.04.01-.04.01-.06-.1.07-.26-.1-.36-.01-.08-.04-.13-.16-.2-.22h.02c-.06-.1-.2-.14-.32-.12v-.02c-.05-.04-.17-.1-.27-.07-.08-.15.17-.4-.04-.35-.13-.07-.3.06-.3.15-.2-.2-.55-.2-.67-.46-.06.02-.05.06-.13.04-.32-.23-.78-.3-.94-.64.12.02.06-.1.1-.15-.13.04-.05-.15-.16-.01-.04.1-.07.13 0 .22-.23-.07-.54-.25-.6-.4.03.07-.03.07-.1.07.1-.13-.04-.24-.18-.25l-.06.08-.02-.13c-.06 0-.15.15-.2 0 .01-.04.03-.07.02-.1-.16 0-.4.02-.47-.12l-.03-.18c-.06-.02-.2 0-.12.1-.17-.2-.3-.3-.3-.43-.52.05-1.07-.25-1.5-.52l.05-.06c-.08-.13-.12.08-.18-.01.07-.04-.01-.18.12-.2-.13-.16-.28-.01-.4-.05-.06.07.12 0 .04.1-.04.02-.2-.2-.3-.1-.01-.07.07-.15.12-.2h-.14c-.04-.22.43-.1.4-.36l-.1-.03c-.01-.18.33-.01.12-.2-.14 0-.33.14-.27.24-.23-.1-.27.24-.5.1-.02-.1.2.1.2-.04-.05-.16-.25-.07-.32-.16.08.1-.08.18-.17.17-.08-.13.14-.08-.01-.18-.07.06-.25.02-.15.15-.15.13-.14-.14-.3-.07.01-.15.32-.17.18-.33-.04.13-.3.02-.3.24-.05-.07-.01-.17.08-.2-.06-.13-.36.06-.27-.18l-.1.1c-.01-.06-.04-.1-.06-.2-.1-.05-.38-.01-.27-.18-.04 0-.24-.12-.23.04.08.15.2 0 .17.2-.01-.18-.2-.1-.3-.1l.03-.07c-.06 0-.15-.07-.22-.01.06-.02.06-.07.04-.1l-.1.08c-.2-.05.06-.2-.13-.27h.18c-.04 0-.04-.13-.14-.14l-.28.2c-.12-.02.02-.13-.13-.1l.2-.04c.04-.02 0-.2-.13-.27-.1-.02-.3.04-.2.17-.07-.04-.12-.15-.03-.18-.17-.05-.04.1-.2.1-.02-.1-.13-.27-.17-.42l.22-.08-.1-.05c.2-.06 0-.13.14-.22-.05-.06-.15-.05-.22-.05.05.3-.36.17-.42.4-.27-.1.12-.55-.3-.4.01.07-.2.15-.01.18-.14-.1-.2.13-.34-.05.18 0-.03-.27.23-.28-.05.06.08.1.12.1-.02-.1.12-.2-.03-.27-.1-.04-.23-.1-.27 0-.06.1.15.07.03.15-.2-.07-.14-.25-.33-.1.13.05.1.18.05.26l-.16-.03.07-.06c-.2-.18-.14.1-.34-.05v-.2c.12-.1.28.23.36.01-.13-.1-.24-.01-.34-.14.04 0 .08.02.12.02-.05-.04.06-.33-.23-.3-.14 0-.07.06-.1.13-.24-.1-.35-.07-.5-.14.1-.13-.24-.16 0-.22.02.13.35.3.5.2.02-.22.16.13.3-.02-.18-.1-.07-.27-.03-.4-.04-.04-.12-.02-.16-.02-.08.1-.02.13-.08.24-.18-.14-.4-.2-.58-.16-.04-.1.05-.18.13-.15a3.63 3.63 0 0 1-.71-.43c.05.26-.27-.1-.26.1.1.1.13.3.02.33-.07-.05.05-.07.04-.13-.15.04-.06-.24-.24-.14.25.07.16-.2.28-.3-.2-.01.06-.1-.1-.18a2.02 2.02 0 0 1-.6-.14c-.15-.26-.5-.3-.84-.48-.08-.14.15-.2.05-.3-.15-.08-.05.2-.2.01h.06c-.03 0-.06-.03-.1-.06.02-.16.06-.4-.13-.42a.63.63 0 0 0 .19.03c.02-.05-.03-.08-.05-.12.06-.02.12-.07.16-.01.13-.16-.02-.3-.03-.44l-.1.1c-.1-.25.02-.42-.01-.67h.1l-.07-.15c.1.04.18-.1.1-.17l.27.38c-.07.1-.13-.12-.24-.05-.1.06-.07.28.04.32.01-.1-.01-.1-.05-.16.15-.03.15.1.25.17-.01-.05.04-.1-.01-.12a.45.45 0 0 1 .1.33c-.06-.1-.1.05-.14.02.14 0 .18.2.14.3-.14.12.06.22.06.33.01.01.02.01.03.02l-.1.03c-.1 0-.18-.04-.22-.13-.07.15 0 .14-.06.3v.01c.16-.03.34-.1.5-.08l-.07.08c.16.03.23-.1.35 0 .27.22.58.4.8.54l-.04.1c.24-.1.46.17.68.2.24.25.68.28.74.52.55.23 1.04.42 1.55.76l-.16.08c.15-.04.02.1.12.14-.05-.16.2-.06.32-.1.18.24.54.3.8.33l-.04.1c.3-.04.48.25.72.43.01.05.01.16.1.2.23-.06.3-.01.56.03a2.78 2.78 0 0 1 .51.41c.7.13 1.2.6 1.88.83l-.02.13c.7.12 1.3.73 1.87.9l-.15.15c.12.14.38.16.4.01.13.14.44.14.45.34.14.12.24.03.4.08.28.25.4.3.73.45l-.07-.05c-.06.02-.1.1-.03.15.14.02.4.3.4.01.25.3.8.33 1.02.68.01-.07.1-.04.15-.06.28.16.5.45.8.48.03.05-.13.06-.02.13.08.02.04-.07.15-.06.52.16.86.64 1.3.86.8.3 1.54.82 2.26 1.2l-.03.04c.33-.02.46.5.8.35.03.07.2.14.1.2.24-.02.55.46.6.3-.01-.01-.01 0-.02.02.07.17.14.03.25.2 0 .02-.01.03 0 .1.1.17-.02-.25.15.12.03.01-.07-.18-.07-.17.05.05.1.08.14.1.01-.07-.02-.2-.05-.28-.03-.1-.07-.12-.1-.2.13-.17.35-.2.26-.23h-.08c.03-.04-.1.05-.05.02-.1.02.1-.25-.04-.2-.07.13-.08.05-.13.12-.2-.23-.23-.4-.5-.42l.06-.06c-.38.03-.63-.25-.98-.16l-4.45-2.32-4.24-2.52c-.24-.37-.27-.38-.68-.52.03-.02.06-.01.05-.05-.1.13-.27-.14-.38-.02-.52-.34-1.04-.58-1.6-.9.1.04.2-.06.1-.1l-.16.03.01-.05c-.08-.02-.2.01-.15.1-1.46-.68-2.65-1.75-4.03-2.5-.3-.25-.78-.46-1.14-.63-.93-.8-1.77-1.48-2.9-1.96-.07 0 .28-.3.76-.12z"/><path d="M11.54 26.73c-.08.04-.13.18-.24.07.08-.01.16-.08.24-.07z"/><use xlink:href="#B" x="0.01" y="-4.81"/><path d="M13.35 30.54c-.05.06-.25 0-.36-.05l.36.05zm.6.7c.04.1 0 .1-.1.06.02-.04.06-.04.1-.06zm.14-.1c.06.04.07.1.08.15.04-.06-.16-.06-.08-.15zm1.56 1.14c.04.02.16.02.16.1-.02-.07-.24-.03-.16-.1z"/><use xlink:href="#C" x="0.02" y="-4.81"/><path d="M30.72 40.5h-.1l.05-.06zm-.12-3.6c-.1-.01-.02-.1-.03-.1.08.03-.07.06.03.1zm-3.5-1.6h.03l-.1.13z"/></g><path d="M11.2 40.8v2.26L32.73 55.5v-2.25z" class="C"/><g class="B"><path d="M11.48 40.94c-.03-.2-.13.1-.06-.13.06.03.1.06.06.13zm.22.36c.75-.01 1.28.75 2 .9.08.03-.12.17.06.22.74.08 1.58.77 2.18 1.4l-.07.03c.12.12.38.04.5.15-.02.03-.07.02-.07.1.1-.08.3.1.4.06.03.07-.02.15.03.24l.15-.07c.4-.14.55.34.95.38-.03.02-.07.02-.06.06.6.12 1.22.52 1.82.78-.05.03-.1.1-.1.16.1-.1.3-.04.46.03 0 .17.33.03.46.2l-.03.02c.2-.06.15.2.35.1l.03.15c.16-.14.14.2.3.17l.02-.04c.13.02.13.14.24.16v.03c.25.08.32.25.4.1.01.16-.24-.07-.22.16.8.28 1.55.74 2.3 1.16.05.1.1.15.08.2.1.01.3.13.4.1-.03-.01.01.1.04.13.1.13.23-.07.34.08-.08 0-.13.04-.14.1.2-.04.35.08.5.13-.04.01-.08 0-.1.05.23-.03.28.2.47.2l-.1.05c.17.23.16-.13.33.04-.06 0-.06.04-.1.07.27-.04.54.18.75.24-.02 0-.03.03-.03.03.2.1.4.26.65.33.06.08-.14.18.1.27.08-.17.4.14.38-.1.17.13.42.36.57.37-.12.01-.03.25-.18.17l.06.16c-.05.06-.1-.1-.12.01.08.04.34.1.4.17.2-.02.43-.13.67-.02-.14 0-.04.2-.13.2l.5-.13c.08.04-.06.14.08.16.02-.05.08-.04.13-.06.02.03.34.14.28.32 0 .08-.14-.04-.1.07.14.08.18.03.32.1h-.01c.08.08.3.1.26-.06-.06-.04-.03.1-.1.01.12-.05.3.01.43.1-.06 0-.08.04-.13.08.26-.02.48.06.72.13.05-.07-.16.1-.16.03.2.26.64.17.77.45-.04-.01.04-.12.03-.1.12.08.05.2.16.2-.03.07.12.04.2.07.07-.02 0 .04-.07.01.08.01.25.06.43.13.2.08.54.28.67.42.02-.02.16-.01.3.03a.49.49 0 0 1 .05.19h-.1c-.07.13.01.37-.1.4.1.14 0-.33-.03-.5-.1-.04-.13-.06-.02-.03 0 .01 0 .02.01.03-.02.1.18.3.05.3 0 .2.13.4.02.62.02-.07-.16-.17-.15-.01.02.3.05.1.1.34l.05.18c.1.06-.02.28.1.22-.1-.01.05.54-.13.36l-.14-.16c.01.13.15.34.22.52-.01.01-.04.01-.07-.02.22.27-.02.3.15.7-.04.1-.04.3-.05.44a1.78 1.78 0 0 1-.42-.35c-.13 0-.27.01-.52-.18.04 0 .1.02.08-.04-.16-.17-.17-.1-.28-.13.01-.03-.3-.33-.44-.5-.16-.02-.1.15-.13.22-.14-.33-.6-.18-.74-.5.08.01.3.05.2-.08-.07-.3-.33 0-.48-.2l-.05.18c-.03-.15-.33-.07-.22-.22-.1.02-.2-.18-.26-.01-.23-.3-.8-.35-.82-.74-.06 0-.15-.1-.18 0 .02.13.14 0 .13.07-.04-.02-.08.02-.1.04-.07-.1-.14-.14.02-.22-.16-.22-.37.14-.6-.08.05-.06.04-.1-.04-.13l-.2.02c-.16-.13-.02-.2.04-.3-.1-.04-.2-.1-.3-.05l-.03-.2c.03.15-.1.02-.17.02h.06c.01-.06-.1-.1-.18-.1-.03.07.07.16.12.22-.07.02-.14-.03-.24-.01.08-.1-.1-.16-.18-.22-.07-.07-.15.04-.17.02.03-.06-.13-.1-.02-.13.04 0 .04.1.1.07-.03-.07.03-.17-.13-.16-.12 0-.1.22-.23.06.06 0 .1-.04.15-.06l-.12-.14-.06.1c-.01-.04.01-.04.01-.05-.1.07-.26-.1-.36-.01-.08-.04-.13-.16-.2-.22h.02c-.06-.1-.2-.14-.32-.12l.02-.02c-.05-.04-.17-.1-.27-.07-.08-.15.17-.4-.04-.35-.13-.07-.3.06-.3.15-.2-.2-.55-.2-.67-.46-.06.02-.05.06-.13.04-.32-.23-.78-.3-.94-.64.12.02.06-.1.1-.15-.13.04-.05-.15-.16-.01-.04.1-.07.13 0 .22-.23-.07-.54-.25-.6-.4.03.07-.03.07-.1.07.1-.13-.04-.24-.18-.25l-.06.08-.02-.13c-.06 0-.15.15-.2 0 .01-.04.03-.07.02-.1-.16 0-.4.02-.47-.12L22 50c-.06-.02-.2 0-.12.1-.17-.2-.3-.3-.3-.44-.52.05-1.07-.25-1.5-.52l.05-.06c-.08-.13-.12.08-.18-.01.07-.04-.01-.18.12-.2-.13-.16-.28-.01-.4-.05-.06.07.12 0 .04.1-.04.02-.2-.2-.3-.1-.01-.07.07-.15.12-.2h-.14c-.04-.22.43-.1.4-.36l-.1-.03c-.01-.18.33-.01.12-.2-.14 0-.33.14-.27.24-.23-.1-.27.24-.5.1-.02-.1.2.1.2-.04-.05-.16-.25-.07-.32-.16.08.1-.08.18-.17.17-.08-.13.14-.08-.01-.18-.07.06-.25.02-.15.15-.15.13-.14-.14-.3-.07.01-.15.32-.17.18-.33-.04.13-.3.02-.3.24-.05-.07-.01-.17.08-.2-.06-.13-.36.06-.27-.18l-.1.1c-.01-.06-.04-.1-.06-.2-.1-.05-.38-.01-.27-.18-.04 0-.24-.12-.23.04.08.15.2 0 .17.2-.01-.18-.2-.1-.3-.1l.03-.07c-.06 0-.15-.07-.22-.01.06-.02.06-.07.04-.1l-.1.08c-.2-.05.06-.2-.13-.27H17c-.04 0-.04-.13-.14-.14l-.28.2c-.12-.02.02-.13-.13-.1l.2-.04c.04-.02 0-.2-.13-.27-.1-.02-.3.04-.2.17-.07-.04-.12-.15-.03-.18-.17-.05-.04.1-.2.1-.02-.1-.13-.27-.17-.42l.22-.08-.1-.05c.2-.06 0-.13.14-.22-.05-.06-.15-.05-.22-.05.05.3-.36.17-.42.4-.27-.1.12-.55-.3-.4.01.07-.2.15-.01.18-.14-.1-.2.13-.34-.05.18 0-.03-.28.23-.28-.05.06.08.1.12.1-.02-.1.12-.2-.03-.27-.1-.04-.23-.1-.27 0-.06.1.15.07.03.15-.2-.07-.14-.25-.33-.1.13.05.1.18.05.26l-.16-.03.07-.06c-.2-.18-.14.1-.34-.05l-.02-.2c.12-.1.28.23.36.01-.13-.1-.24-.01-.34-.14.04 0 .08.02.12.02-.05-.04.06-.33-.23-.3-.14 0-.07.06-.1.13-.24-.1-.35-.07-.5-.14.1-.13-.24-.16 0-.22.02.13.35.3.5.2.02-.22.16.13.3-.02-.18-.1-.07-.27-.03-.4-.04-.04-.12-.02-.16-.02-.08.1-.02.13-.08.24-.18-.14-.4-.2-.58-.16-.04-.1.05-.18.13-.15a3.63 3.63 0 0 1-.71-.43c.05.26-.27-.1-.26.1.1.1.13.3.02.33-.07-.05.05-.07.04-.13-.15.04-.06-.24-.24-.14.25.07.16-.2.28-.3-.2-.01.06-.1-.1-.18a2.02 2.02 0 0 1-.6-.14c-.15-.26-.5-.3-.84-.48-.08-.14.15-.2.05-.3-.15-.08-.05.2-.2.01l.05-.01c-.03 0-.06-.03-.1-.06.02-.16.06-.4-.13-.42a.63.63 0 0 0 .19.03c.02-.05-.03-.08-.05-.12.06-.02.12-.07.16-.01.13-.16-.02-.3-.03-.44l-.1.1c-.1-.25.02-.42-.01-.67l.1.01-.07-.15c.1.04.18-.1.1-.17l.27.38c-.07.1-.13-.12-.24-.05-.1.06-.07.28.04.32.01-.1-.01-.1-.05-.16.15-.03.15.1.25.17-.01-.05.04-.1-.01-.12a.45.45 0 0 1 .1.33c-.06-.1-.1.05-.14.02.14 0 .18.2.14.3-.14.12.06.22.06.33.01.01.02.01.03.02l-.1.03c-.1 0-.18-.04-.22-.13-.07.15 0 .14-.06.3v.01c.16-.03.34-.1.5-.08l-.07.08c.16.03.23-.1.35 0 .27.22.58.4.8.54l-.04.1c.24-.1.46.17.68.2.24.25.68.28.74.52.55.23 1.04.42 1.55.76l-.16.08c.15-.04.02.1.12.14-.05-.16.2-.06.32-.1.18.24.55.3.8.33l-.04.1c.3-.04.48.25.72.43.01.05.01.16.1.2.23-.06.3-.01.56.03a2.78 2.78 0 0 1 .51.41c.7.13 1.2.6 1.88.83l-.02.13c.7.12 1.3.73 1.87.9l-.15.15c.12.14.38.16.4.01.13.14.44.14.45.34.14.12.24.03.4.08.28.25.4.3.73.45l-.07-.05c-.06.02-.1.1-.03.15.14.02.4.3.4.01.25.3.8.33 1.02.68.01-.07.1-.04.15-.06.28.16.5.45.8.48.03.05-.13.06-.02.13.08.02.04-.07.15-.06.52.16.86.64 1.3.86.8.3 1.54.82 2.26 1.2l-.03.04c.33-.02.46.5.8.35.03.07.2.14.1.2.24-.02.55.46.6.3-.01-.01-.01 0-.02.02.07.17.14.03.25.2 0 .02-.01.03 0 .1.1.17-.02-.25.15.12.03.01-.07-.18-.07-.17.05.05.1.08.14.1.01-.07-.02-.2-.05-.28-.03-.1-.07-.12-.1-.2.13-.17.35-.2.26-.23h-.08c.03-.04-.1.05-.05.02-.1.02.1-.25-.05-.2-.07.13-.08.05-.13.12-.2-.23-.23-.4-.5-.42l.06-.06c-.38.03-.63-.25-.98-.16l-4.45-2.32-4.24-2.52c-.24-.37-.27-.38-.68-.52.03-.02.06-.01.05-.05-.1.13-.27-.14-.38-.02-.52-.34-1.04-.58-1.6-.9.1.04.2-.06.1-.1l-.16.03.01-.05c-.08-.02-.2.01-.15.1-1.46-.68-2.65-1.75-4.03-2.5-.3-.25-.78-.46-1.14-.63-.93-.8-1.77-1.48-2.9-1.96-.06-.01.3-.3.78-.13z"/><path d="M11.5 41.18c-.08.04-.13.18-.24.07.1-.01.17-.1.24-.07z"/><use xlink:href="#B" x="-0.04" y="9.63"/><path d="M13.3 44.98c-.05.06-.25 0-.36-.05l.36.05zm.62.7c.04.1 0 .1-.1.06.02-.04.06-.04.1-.06zm.14-.1c.06.04.07.1.08.15.03-.06-.16-.05-.08-.15zm1.56 1.15c.04.02.16.02.16.1-.02-.08-.24-.04-.16-.1z"/><use xlink:href="#C" x="-0.03" y="9.64"/><path d="M30.68 54.95l-.1-.02.05-.06zm-.12-3.6c-.1-.01-.02-.1-.03-.1.08.04-.07.06.03.1zm-3.5-1.6l.03.01-.1.12z"/></g><path d="M11.22 36v2.26l21.52 12.43.01-2.26z" class="C"/><g class="B"><path d="M11.5 36.12c-.03-.2-.13.1-.06-.13.06.03.1.07.06.13z"/><path d="M11.7 36.48c.75-.01 1.28.75 2 .9.08.03-.12.17.06.22.74.08 1.58.77 2.18 1.38l-.07.03c.12.12.38.04.5.15-.02.03-.07.02-.07.1.1-.08.3.1.4.06.03.07-.02.15.03.24l.15-.07c.4-.14.55.34.95.38-.03.02-.07.02-.06.06.6.12 1.22.52 1.82.78-.05.03-.1.1-.1.16.1-.1.3-.04.46.03 0 .17.33.03.46.2h-.03c.2-.06.15.2.35.1l.03.15c.16-.14.14.2.3.17l.02-.04c.13.02.13.14.24.16v.03c.25.08.32.25.4.1.01.16-.24-.07-.22.16.8.28 1.55.74 2.3 1.16.05.1.1.15.08.2.1.01.3.13.4.1-.03-.01.01.1.04.13.1.13.23-.07.34.08-.08 0-.13.04-.14.1.2-.04.35.08.5.13-.04.01-.08 0-.1.05.23-.03.28.2.47.2l-.1.05c.17.23.16-.13.33.04-.06 0-.06.04-.1.07.27-.04.54.18.75.24-.02 0-.03.03-.03.03.2.1.4.26.65.33.06.08-.14.18.1.27.08-.17.4.14.38-.1.17.13.42.36.57.37-.12.01-.03.25-.18.17l.06.16c-.05.06-.1-.1-.12.01.08.04.34.1.4.17.2-.02.43-.13.67-.02-.14 0-.04.2-.13.2l.5-.13c.08.04-.06.14.08.16.02-.05.08-.04.13-.06.02.03.34.14.28.32 0 .08-.14-.04-.1.07.14.08.18.03.32.1l-.01.02c.08.08.3.1.26-.06-.06-.04-.03.1-.1.01.12-.05.3.01.43.1-.06 0-.08.04-.13.08.26-.02.48.06.72.13.05-.07-.16.1-.16.03.2.26.64.17.77.45-.04-.01.04-.12.03-.1.12.08.05.2.16.2-.03.07.12.04.2.07.07-.02 0 .04-.07.01.08.01.25.06.43.13.2.08.54.28.67.42.02-.02.16-.01.3.03a.49.49 0 0 1 .05.19l-.1.01c-.07.13.01.37-.1.4.1.14 0-.33-.03-.5-.1-.04-.13-.06-.02-.03 0 .01 0 .02.01.03-.02.1.18.3.05.3 0 .2.13.4.02.62.02-.07-.16-.17-.15-.01.02.3.05.1.1.34l.05.18c.1.06-.02.28.1.22-.1-.01.05.54-.13.36l-.14-.16c.01.13.15.34.22.52-.01.01-.04.01-.07-.02.22.27-.02.3.15.7-.04.1-.04.3-.05.44a1.78 1.78 0 0 1-.42-.35c-.13 0-.27.01-.52-.18.04 0 .1.02.08-.04-.16-.17-.17-.1-.28-.13.01-.03-.3-.33-.44-.5-.16-.02-.1.15-.13.22-.14-.33-.6-.18-.74-.5.08.01.3.05.2-.08-.07-.3-.33 0-.48-.2l-.05.18c-.03-.15-.33-.07-.22-.22-.1.02-.2-.18-.26-.01-.23-.3-.8-.35-.82-.74-.06 0-.15-.1-.18 0 .02.13.14 0 .13.07-.04-.02-.07.02-.1.04-.07-.1-.14-.14.02-.22-.16-.22-.37.14-.6-.08.05-.06.04-.1-.04-.13l-.2.02c-.16-.13-.02-.2.04-.3-.1-.03-.22-.1-.3-.05l-.03-.2c.03.15-.1.02-.17.02h.06c.01-.06-.1-.1-.18-.1-.03.07.07.16.12.22-.07.02-.14-.03-.24-.01.08-.1-.1-.16-.18-.22-.07-.07-.15.04-.17.02.03-.06-.13-.1-.02-.13.04 0 .04.1.1.07-.03-.07.03-.17-.13-.16-.12 0-.1.22-.23.06.06 0 .1-.04.15-.06l-.12-.14-.06.1c-.01-.04.01-.04.01-.05-.1.07-.26-.1-.36-.01-.08-.04-.13-.16-.2-.22h.02c-.06-.1-.2-.14-.32-.12l.02-.02c-.05-.04-.17-.1-.27-.07-.08-.15.17-.4-.04-.35-.13-.07-.3.06-.3.15-.2-.2-.55-.2-.67-.46-.06.02-.05.06-.13.04-.32-.23-.78-.3-.94-.64.12.02.06-.1.1-.15-.13.04-.05-.15-.16-.01-.04.1-.07.13 0 .22-.23-.07-.54-.25-.6-.4.03.07-.03.07-.1.07.1-.13-.04-.24-.18-.25l-.06.08-.02-.13c-.06 0-.15.15-.22 0 .01-.04.03-.07.02-.1-.16 0-.4.02-.47-.12l-.03-.18c-.06-.02-.2 0-.12.1-.17-.2-.3-.3-.3-.44-.52.05-1.07-.25-1.5-.52l.05-.06c-.08-.13-.12.08-.18-.01.07-.04-.01-.18.12-.2-.13-.16-.28-.01-.4-.05-.06.07.12 0 .04.1-.04.02-.2-.2-.3-.1-.01-.07.07-.15.12-.2h-.14c-.04-.22.43-.1.4-.36l-.1-.03c-.01-.18.33-.01.12-.2-.14 0-.33.14-.27.24-.23-.1-.27.24-.5.1-.02-.1.2.1.2-.04-.05-.16-.25-.07-.32-.16.08.1-.08.18-.17.17-.08-.13.14-.08-.01-.18-.07.06-.25.02-.15.15-.15.13-.14-.14-.3-.07.01-.15.32-.17.18-.33-.04.13-.3.02-.3.24-.05-.07-.01-.17.08-.2-.06-.13-.36.06-.27-.18l-.1.1c-.01-.06-.04-.1-.06-.2-.1-.05-.38-.01-.27-.18-.04 0-.24-.12-.23.04.08.15.2 0 .17.2-.01-.18-.2-.1-.3-.1l.03-.07c-.06 0-.15-.07-.22-.01.06-.02.06-.07.04-.1l-.1.08c-.2-.05.06-.2-.13-.27h.18c-.04 0-.04-.13-.14-.14l-.28.2c-.12-.02.02-.13-.13-.1l.2-.04c.04-.02 0-.2-.13-.27-.1-.02-.3.04-.2.17-.07-.04-.12-.15-.03-.18-.17-.05-.04.1-.2.1-.02-.1-.13-.27-.17-.42l.22-.08-.1-.05c.2-.06 0-.13.14-.22-.05-.06-.15-.05-.22-.05.05.3-.36.17-.42.4-.27-.1.12-.55-.3-.4.01.07-.2.15-.01.18-.14-.1-.2.13-.34-.05.18 0-.03-.28.23-.28-.05.06.08.1.12.1-.02-.1.12-.18-.03-.27-.1-.04-.23-.1-.27 0-.06.1.15.07.03.15-.2-.07-.14-.25-.33-.1.13.05.1.18.05.26l-.16-.03.07-.06c-.2-.18-.14.1-.34-.05l-.02-.2c.12-.1.28.23.36.01-.13-.1-.24-.01-.34-.14.04 0 .08.02.12.02-.05-.04.06-.33-.23-.3-.14 0-.07.06-.1.13-.24-.1-.35-.07-.5-.14.1-.13-.24-.16 0-.22.02.13.35.3.5.2.02-.22.16.13.3-.02-.18-.1-.07-.27-.03-.4-.04-.04-.12-.02-.16-.02-.08.1-.02.13-.08.24-.18-.14-.4-.2-.58-.16-.04-.1.05-.18.13-.15a3.63 3.63 0 0 1-.71-.43c.05.26-.27-.1-.26.1.1.1.13.3.02.33-.07-.05.05-.07.04-.13-.15.04-.06-.24-.24-.14.25.07.16-.2.28-.3-.2-.01.06-.1-.1-.18-.2-.01-.42-.07-.6-.14-.15-.26-.5-.3-.84-.48-.08-.14.15-.2.05-.3-.15-.08-.05.2-.2.01l.05-.01c-.03 0-.06-.03-.1-.06.02-.16.06-.4-.13-.42a.63.63 0 0 0 .19.03c.02-.05-.03-.08-.05-.12.06-.02.12-.07.16-.01.13-.16-.02-.3-.03-.44l-.1.1c-.1-.25.02-.42-.01-.67l.1.01-.07-.15c.1.04.18-.1.1-.17l.27.38c-.07.1-.13-.12-.24-.05-.1.06-.07.28.04.32.01-.1-.01-.1-.05-.16.15-.03.15.1.25.17-.01-.05.04-.1-.01-.12.08.1.1.18.1.33-.06-.1-.1.05-.14.02.14 0 .18.2.14.3-.14.12.06.22.06.33.01.01.02.01.03.02l-.1.03c-.1 0-.18-.04-.22-.13-.07.15 0 .14-.06.3v.01c.16-.03.34-.1.5-.08l-.07.08c.16.03.23-.1.35 0 .27.22.58.4.8.54l-.04.1c.24-.1.46.17.68.2.24.25.68.28.74.52.55.23 1.04.42 1.55.76l-.16.08c.15-.04.02.1.12.14-.05-.16.2-.06.32-.1.18.24.55.3.8.33l-.04.1c.3-.04.48.25.72.43.01.05.01.16.1.2.23-.06.3-.01.56.03a2.78 2.78 0 0 1 .51.41c.7.13 1.2.6 1.88.83l-.02.13c.7.12 1.3.73 1.87.9l-.15.15c.12.14.38.16.4.01.12.14.44.14.45.34.14.12.24.03.4.08.28.25.4.3.73.45l-.07-.05c-.06.02-.1.1-.03.15.14.02.4.3.4.01.25.3.8.33 1.02.68.01-.07.1-.04.15-.06.28.16.5.45.8.48.03.05-.13.06-.02.13.08.02.04-.07.15-.06.52.16.86.64 1.3.86.8.3 1.54.82 2.26 1.2l-.03.04c.33-.02.46.5.8.35.03.07.2.14.1.2.24-.02.55.46.6.3-.01-.01-.01 0-.02.02.07.17.14.03.25.2 0 .02-.01.03 0 .1.1.17-.02-.25.15.12.03.01-.07-.18-.07-.17.05.05.1.08.14.1.01-.07-.02-.2-.05-.28-.03-.1-.07-.12-.1-.2.13-.17.35-.2.26-.23h-.08c.03-.04-.1.05-.05.02-.1.02.1-.25-.04-.2-.07.13-.08.05-.13.12-.2-.23-.23-.4-.5-.42l.06-.06c-.38.03-.63-.25-.98-.16l-4.45-2.32-4.24-2.52c-.24-.37-.27-.38-.68-.52.03-.02.06-.01.05-.05-.1.13-.27-.14-.38-.02-.52-.34-1.04-.58-1.6-.9.1.04.2-.06.1-.1l-.16.03.01-.05c-.08-.02-.2.01-.15.1-1.46-.68-2.65-1.75-4.03-2.5-.3-.25-.78-.46-1.14-.63-.93-.8-1.77-1.48-2.9-1.96-.05.01.3-.28.78-.12z"/><path d="M11.5 36.36c-.08.04-.13.18-.24.07.08-.01.17-.08.24-.07zm1.02 3.3c.02-.02.03.06.03.07-.04-.02-.1.02-.12-.03.04.01.06-.02.1-.04zm.8.5c-.05.06-.25 0-.36-.05l.36.05zm.62.7c.04.1 0 .1-.1.06.01-.04.05-.04.1-.06zm.13-.12c.06.04.07.1.08.15.04-.06-.16-.05-.08-.15zm1.56 1.15c.04.02.16.02.16.1-.01-.08-.24-.04-.16-.1z"/><use xlink:href="#C" x="-0.02" y="4.82"/><path d="M30.7 50.13l-.1-.02.05-.05zm-.13-3.6c-.1-.01-.02-.1-.03-.1.08.04-.07.07.03.1zm-3.5-1.6l.03.01-.08.13z"/></g><defs ><path id="B" d="M12.54 34.83c.02-.02.03.06.03.07-.04-.02-.1.02-.12-.03.04.02.05-.02.1-.04z"/><path id="C" d="M16.48 37.43c.02.02.03.04.07.04.03.06-.05.07-.1.06l.02-.1z"/></defs></svg>