<svg xmlns="http://www.w3.org/2000/svg" baseProfile="tiny" viewBox="0 0 52.4 38.07"><style><![CDATA[.B{fill:#202020}]]></style><path fill="#cfae42" d="M41.13 9.95l-.02 2.9-13 7.56.02-2.9z"/><g class="B"><path d="M41.4 10.04c-.03-.13-.13.07-.06-.1.06.02.1.05.06.1z"/><path d="M40.65 10c-.17.54-.85.5-1.13.93-.04.04-.1-.2-.17-.08-.24.48-.94.7-1.53.76v-.07c-.1.02-.12.25-.23.28-.02-.03 0-.07-.05-.1.04.12-.15.15-.14.25-.06-.02-.1-.1-.18-.12l.01.15c.01.36-.38.2-.5.46-.01-.03 0-.07-.03-.08-.24.36-.67.57-1 .85-.01-.05-.04-.13-.1-.17.05.13-.04.23-.13.3-.12-.1-.1.2-.26.2v-.03c-.01.18-.17 0-.15.2l-.1-.07c.07.2-.18-.02-.2.1l.02.04c-.04.08-.13.01-.17.08l-.02-.02c-.12.13-.26.08-.18.22-.12-.08.1-.13-.06-.25-.4.42-.9.68-1.4.97-.1-.02-.13-.02-.18-.07-.03.06-.17.13-.17.23.01-.01-.07-.05-.1-.04-.12 0-.01.2-.14.2.02-.06 0-.1-.04-.16-.02.16-.14.2-.22.3 0-.03.02-.06-.01-.1-.04.18-.2.1-.26.22v-.1c-.2-.01.05.2-.1.2.02-.04-.01-.07-.03-.1-.04.22-.26.28-.35.4 0-.02-.01-.04-.01-.04-.12.1-.3.13-.4.28-.07 0-.1-.2-.22-.1.1.16-.2.2-.01.34-.14.04-.36.1-.4.2.02-.1-.17-.16-.08-.23l-.13-.05c-.03-.07.1-.02.02-.1-.05.04-.15.18-.2.18-.03.15-.01.38-.15.5.03-.1-.14-.15-.1-.2l-.03.43c-.05.04-.08-.12-.13-.04.03.04.01.08.01.13-.03-.01-.18.16-.3.01-.06-.05.06-.08-.03-.1-.1.05-.06.1-.15.17l-.01-.02c-.07.01-.14.17-.02.22.05-.02-.07-.1.02-.08.02.1-.1.22-.14.24 0-.04-.03-.08-.04-.12-.01.17-.05.25-.07.33.07.06-.1-.12-.06-.1-.07-.01-.1.02-.13.06.04.12.12.2.01.25-.02-.02.12.02.1.02-.01.05-.14.03-.1.08-.07.01.02.03.05.1.05.03-.04.02-.04-.04.03.05.07.16.1.3.02.13.02.15-.03.24.05-.01.18.01.17.02l-.1.04c-.07.05.01.08-.1.14.14-.01-.12-.18-.01-.15-.1.07.18.03.03.08 0 .06.13.02.02.14.02-.03-.16.07-.15.12.02.08.05-.02.1.02h.05c.1-.1-.02.08.1-.07-.1.1.06.03-.13.24l-.15.16c.01.03.15-.12.22-.2a.98.98 0 0 1-.07.1c.22-.3-.02.1.15-.12-.04.08-.04.13-.05.17.02 0 .03.01-.01.12.1-.14.2-.28.2-.24-.02.04-.04.05-.08.13-.01.08.04-.01.1-.08-.03.05-.01.15.01.23.08-.13.1-.27.13-.38-.01.26.13-.24.15-.02-.01.04-.08.17-.04.2.05.22.1-.25.17-.17l-.05-.18c.05.1.05-.15.1.03 0-.07.1.01.02-.15.18.07.42-.35.68-.13.01-.04.1-.06.04-.13-.1-.06-.03.1-.08.05.02-.02 0-.07-.01-.1.08 0 .14-.02.15.14.2.01-.01-.34.2-.4.03.07.06.08.1.04l.04-.17c.13-.04.15.1.2.2.05-.05.13-.1.1-.2l.15.1c-.1-.07.01-.1.03-.14l-.01.04c.04.04.1-.03.12-.06-.05-.06-.14-.05-.2-.04 0-.07.06-.08.07-.16.05.1.14.02.2 0 .07-.01.01-.13.03-.14.03.05.1-.04.1.06-.01.03-.07-.03-.08.04.06.02.1.12.15 0 .03-.1-.14-.2.01-.2-.01.04.01.1.01.14h.13l-.05-.1c.03.02.02.03.04.04-.03-.12.14-.12.1-.25.05-.04.15 0 .2-.01v.01c.1.02.15-.06.17-.16l.01.02c.04-.01.1-.07.12-.15.13.02.24.35.26.17.08-.05.03-.25-.04-.3.2-.02.27-.28.5-.2 0-.05-.03-.07 0-.12.25-.1.4-.4.7-.3-.04.08.05.1.08.15 0-.12.12.05.05-.1-.06-.08-.08-.13-.16-.13.1-.12.3-.24.43-.2-.06-.02-.05-.06-.03-.1.07.14.18.1.23.02l-.04-.1.1.06c.01-.04-.07-.2.05-.16a.57.57 0 0 0 .07.08c.04-.1.08-.3.2-.27l.14.08c.03-.03.04-.14-.04-.14.2-.01.28-.05.4.03.1-.4.44-.62.74-.77l.03.07c.1.01-.02-.13.05-.12.01.07.13.1.12.2.15 0 .08-.2.13-.26-.04-.1-.03.1-.07-.03-.01-.04.2-.02.13-.16.06.03.1.14.1.2l.03-.1c.17.1-.03.37.16.5l.05-.06c.14.1-.08.24.1.2.03-.1-.02-.32-.1-.34.12-.12-.1-.34.05-.4.08.05-.1.1-.02.17.13.06.1-.14.2-.14-.1-.01-.1-.17-.08-.22.1.01.02.15.14.1-.02-.08.04-.2-.07-.2-.06-.2.14-.02.12-.18.1.1.04.33.2.32-.08-.1.06-.24-.1-.37.07.01.12.1.13.18.1.03.04-.3.2-.1l-.04-.13c.04.03.1.04.16.08.06-.03.1-.26.2-.1.01-.03.15-.1.03-.2-.13-.02-.05.14-.2.01.14.1.1-.1.13-.16l.05.06c.01-.04.1-.07.06-.15 0 .05.04.1.07.1l-.03-.12c.1-.12.13.16.23.07l-.04.13c.01-.03.1.04.14-.02l-.08-.32c.04-.08.1.1.1-.04l-.02.16c.01.04.14.12.23.07.04-.06.04-.25-.07-.25.04-.03.14 0 .14.08.08-.1-.07-.1-.02-.2.07.04.23.07.34.12v.2l.06-.03c0 .17.1.07.13.23.05 0 .07-.08.1-.13-.24-.14-.04-.36-.18-.53.13-.14.37.4.36.01-.06-.03-.06-.22-.13-.1.1-.04-.04-.23.12-.22-.04.13.2.14.15.33-.03-.07-.1-.01-.1.02.08.05.1.2.2.14.05-.05.13-.1.06-.2-.07-.1-.1.07-.1-.07.1-.1.22.04.16-.18-.07.06-.15-.04-.2-.12l.06-.1.02.08c.18-.03-.03-.16.12-.22l.15.1c.04.14-.24.06-.1.25.1-.04.07-.16.18-.16-.01.03-.03.05-.04.08.04-.01.22.24.26 0 .03-.1-.02-.08-.07-.16.13-.1.13-.2.22-.28.03.08.08.06.1.04.02-.01.03-.01.05.08-.1-.06-.3.07-.28.24.15.14-.13.04-.06.24.12-.06.2.1.3.2.04-.01.04-.08.05-.1-.05-.1-.1-.1-.16-.2.14-.04.26-.2.23-.3.05.04.12.14.1.17.08-.1.18-.13.3-.16-.13-.05-.1-.07-.1-.1-.01-.03-.01-.06-.1-.08h-.05a.7.7 0 0 1-.24-.13c.02 0 .08.05.13.07l-.02-.02c0-.01.17.06.03-.03.06.1.24.13.4.22-.1-.12.1.06.1-.03-.1-.13-.15-.24-.2-.32.15-.15.01-.4 0-.56.08-.08.26-.02.3-.1 0-.1-.2.07-.1-.07h.04c-.04-.04.12-.27-.13-.3l.2.05c.02-.03-.03-.05-.05-.08.06 0 .12-.03.16.01.13-.1-.02-.2-.02-.3l-.1.06c-.1-.17.02-.28-.01-.44l.1.01-.07-.1c.1.02.18-.06.1-.12l.27.25c-.07.07-.13-.08-.24-.03-.1.04-.07.2.04.2.01-.06-.01-.06-.05-.1.15-.02.15.07.25.1-.01-.03.04-.07-.01-.08.08.06.1.12.1.22-.06-.07-.1.04-.14.01.14.01.18.1.14.22-.16.1.1.23.06.37-.14-.06-.25-.13-.3-.22-.07.1 0 .1-.07.2.1.04.26.07.32.2l-.1.01c.05.1.2.1.17.24-.03.1-.04.23-.05.34l-.02.38h-.1c.15.12.13.3.13.45-.06.04-.1.07-.13.12-.3.07-.54.42-.7.32-.3.26-.56.5-.93.67l-.02-.16c-.01.13-.08-.05-.13 0 .13.06-.01.18-.01.3-.2-.01-.35.22-.44.4l-.02.01c-.04.25-.3.2-.48.27-.04-.02-.12-.1-.17-.05-.01.2-.07.22-.15.38-.1.06-.3.12-.42.12-.27.42-.73.52-1.05.87l-.1-.1c-.26.44-.84.52-1.1.82l-.07-.2c-.13.01-.2.18-.1.3-.13.01-.2.24-.36.13-.12.03-.08.16-.16.23-.25.06-.32.12-.5.26l.06-.02c0-.05-.04-.13-.1-.1-.05.1-.3.1-.1.28-.28 0-.44.4-.74.34.05.05.01.1.01.14-.18.1-.45.1-.54.3-.05-.01-.01-.12-.1-.1-.03.05.04.08.01.14-.24.28-.67.24-.93.43-.42.4-.96.63-1.42.92l-.02-.05c-.1.27-.4.01-.55.42-.08 0-.26.13-.24 0-.2.27-.6.2-.9.58.03-.01.05-.03.08-.08-.28.04-.6.4-.88.45.05-.05.1-.1.15-.2-.05-.08-.44.5-.32.15-.07.04-.15.22-.1.18-.1.04-.22.1-.34.17.02-.68-.1-1.25-.13-1.98.14-.7.4-.22.22-.6.05-.05-.1 0-.04-.02-.06-.17.26-.3.14-.4-.15.06-.08-.07-.17-.08.1-.25.23-.24.12-.48h.08c-.2-.3-.1-.63-.3-1 .01-.02.01-.04.01-.07l1.78-1.16 1.37-.9c.97-.5 1.83-1.14 2.85-1.58.32.04.34.03.54-.18.01.03-.01.05.03.07-.07-.15.17-.1.1-.26.37-.18.67-.4 1.04-.62-.05.05-.01.18.05.13l.02-.13.03.03c.03-.05.04-.15-.03-.17.84-.65 1.9-.9 2.78-1.45.25-.06.52-.3.73-.46.8-.2 1.5-.42 2.12-.95 0 .05.12.47-.12.72z"/><path d="M41.4 10.2c-.08.03-.13.12-.24.05.08-.01.17-.06.24-.05zm-.85 2.23c.02.01-.03 0-.05 0-.01-.02-.07-.06-.03-.05.01.02.05.03.08.05zm-.2.17c-.04-.06-.04-.13-.03-.14a.32.32 0 0 1 .03.14zm-.57-.03c-.07-.03-.08-.06-.02-.1.02.04.01.07.02.1zm.03.17c-.04.03-.08 0-.13-.02.04.05.1-.1.13.02zm-1.2.46c-.02.02-.05.1-.12.05.06.04.08-.15.12-.05zm-.45.4c-.02.01-.03 0-.04.03-.05-.01-.04-.08-.02-.1l.06.07zm-8.92 5.5l.03-.06v.08zm-.37-1.4c0-.05.06.04.07.05-.01.02-.04-.08-.07-.05zm1.96-1.55l-.02.02-.07-.14z"/></g><path fill="#f6cf54" d="M41.13 9.95l-13 7.56-13.1-7.56c7.2-4.18 18.9-4.17 26.1 0z"/><g class="B"><path d="M41.14 10.26c.16-.13-.16-.05.1-.12.01.06-.01.12-.1.12zm-.54-.8c-.76 0-1.42-.7-2.2-.75-.1-.02.1-.2-.1-.22-.8.04-1.78-.5-2.58-.93l.07-.04c-.15-.1-.4.05-.56-.02.01-.04.07-.04.04-.1-.07.1-.32-.03-.42.05-.06-.06-.03-.15-.1-.22l-.13.1c-.34.26-.67-.16-1.08-.07.02-.03.07-.04.04-.08-.64.08-1.4-.05-2.1-.07.03-.04.07-.13.03-.2-.05.14-.26.16-.45.17-.07-.15-.33.1-.53.01l.02-.03c-.17.14-.23-.1-.37.06l-.1-.12c-.08.2-.22-.13-.36-.03V7c-.13.05-.2-.06-.3-.03l-.01-.02c-.27.05-.42-.07-.42.1-.1-.13.26-.05.12-.24-.9.12-1.8.12-2.7.15-.1-.06-.17-.07-.2-.13-.1.04-.33.06-.4.15.03-.01-.06-.08-.1-.08-.17-.05-.16.2-.35.13.07-.05.1-.1.06-.16-.14.14-.35.13-.52.2.03-.03.07-.05.06-.1-.18.16-.36-.01-.52.1l.05-.1c-.3-.07-.06.2-.3.17.05-.04.03-.07.03-.1-.2.2-.57.2-.78.28.01-.01 0-.04 0-.04-.24.06-.5.03-.75.16-.1-.02-.01-.23-.26-.14.04.18-.42.16-.23.34-.22.01-.58.01-.7.1.08-.1-.16-.2.02-.25l-.16-.08c0-.08.15 0 .08-.1-.1.03-.34.15-.42.14-.14.16-.24.4-.5.5.1-.1-.12-.18-.05-.23l-.28.44c-.1.03-.06-.14-.17-.06.02.05-.03.1-.05.14-.04-.01-.35.14-.44-.02-.06-.06.13-.08.01-.1-.16.06-.15.12-.3.18h-.01c-.1.01-.3.18-.14.24.07-.02-.06-.1.06-.08-.04.13-.2.22-.37.27.04-.05.02-.1.03-.15-.17.2-.37.33-.6.46.03.08.03-.18.08-.15-.35-.02-.55.4-.86.34.03-.03.07.1.06.08-.15.05-.2-.07-.26.01-.03-.07-.13.08-.17.12 0 .06-.04-.02.02-.06-.1.1-.24.3-.52.32.06.03.15.13.12.14l-.16-.05c-.14-.01-.1.06-.27.04.13.1.15-.22.2-.12-.18-.02.12.15-.1.08-.08.05.1.1-.18.12.05-.01-.23-.06-.3-.02-.05.04-.03.04 0 .05.04 0 .02.01.12.04l.15.03c.22 0 .06.05.26.02-.15.02.22.06-.1.1l-.26.02c.08.03.34.02.46.02-.01.01-.05.02-.08.03.32-.07.1.07.35.02 0 .1.18.1.13.24.06 0 .1-.02.16-.02.08.02.15.05.22.12-.04 0-.1-.02-.12.02.06.1.12.08.22.1-.04.02.13.22.2.35.17.02.18-.1.23-.17.01.26.45.1.5.36-.06 0-.25-.02-.17.1.01.26.33 0 .47.2l.04-.2c.03.15.34.08.23.23.1-.02.2.2.27.02.25.32.83.38.87.77.06 0 .16.1.18 0-.03-.13-.14 0-.14-.08.04.02.08-.02.1-.04.08.1.15.15-.02.22.17.22.38-.13.63.1-.05.06-.04.1.05.13l.22-.02c.17.13.02.2-.04.32.1.04.23.1.32.06l.04.2c-.03-.15.12-.02.18-.02h-.06c-.01.06.12.1.2.1.03-.07-.08-.17-.13-.22.08-.02.15.04.25.02-.08.1.12.17.2.22.08.07.16-.04.18-.02-.03.06.14.1.03.13-.04 0-.04-.1-.12-.07.04.07-.03.17.14.17.12 0 .1-.22.23-.05-.06 0-.1.04-.15.05l.13.15.06-.1c.01.04-.01.04-.01.06.1-.07.27.1.37.02.1.04.14.17.2.22H23c.06.1.2.15.33.13l-.02.02c.05.04.18.1.28.08.1.15-.17.4.05.35.14.07.3-.05.3-.15.2.2.57.2.7.5.06-.02.05-.06.13-.04.34.24.82.32 1 .68-.13-.02-.06.1-.1.15.14-.04.05.15.17.02.04-.1.07-.13-.01-.22.24.08.56.26.64.4-.04-.07.03-.07.1-.07-.1.13.05.24.2.26l.07-.08.03.13c.06 0 .15-.15.22 0-.01.04-.03.07-.02.1.16 0 .4-.02.5.13l.04.2c.06.02.2 0 .12-.1.1.1.17.18.17.2a.35.35 0 0 1 .03.16c.05-.04.1-.07.14-.1.07-.13.08-.18.16-.24l.57-.34.02.07c.16-.01 0-.15.1-.15 0 .08.17.08.12.2.2-.03.16-.24.26-.34-.03-.1-.06.1-.1-.01 0-.04.28-.08.23-.22.07.02.1.14.1.2l.07-.12c.22.07-.15.44.1.54l.1-.08c.17.08-.17.3.1.2.07-.12.06-.36-.07-.36.2-.16-.07-.36.18-.5.1.04-.18.13-.08.2.17.04.2-.2.32-.2-.14.02-.12-.16-.06-.23.16-.01-.01.17.17.08-.01-.1.1-.24-.05-.2-.03-.2.2-.06.23-.24.12.08-.02.37.2.32-.1-.1.15-.3-.05-.4.1-.01.15.07.14.17.15.01.14-.35.3-.15l-.03-.14c.05.02.12.02.2.05.1-.05.2-.33.3-.15.02-.04.24-.15.1-.22-.18 0-.1.18-.27.06.17.08.18-.13.23-.22l.05.06c.03-.05.14-.1.13-.2-.01.06.03.1.08.1l-.01-.13c.16-.16.15.15.3.02l-.1.16c.02-.03.14.02.2-.06-.02-.1-.02-.26-.03-.35.08-.1.1.08.15-.08l-.07.2c0 .04.18.1.3.02.07-.08.13-.3-.04-.27.07-.04.2-.04.18.06.14-.12-.08-.1.02-.22.1.03.3.02.47.05l-.05.24.1-.05c-.05.2.12.06.12.23.08-.02.13-.1.17-.18-.3-.1.04-.4-.12-.57.22-.2.43.37.52-.08-.07-.02-.03-.24-.16-.1.17-.07 0-.25.23-.28-.1.16.26.1.13.34-.02-.07-.14.02-.16.05.1.03.1.2.26.1.1-.08.22-.16.14-.25-.07-.1-.14.1-.15-.05.17-.15.3-.01.27-.25-.12.1-.2-.01-.25-.08l.12-.13.01.1c.26-.08-.01-.17.23-.28l.2.08c.02.15-.36.14-.2.3.15-.08.14-.2.3-.23-.02.04-.06.06-.08.1.06-.02.26.2.38-.06.07-.12-.01-.1-.05-.16.22-.16.25-.28.4-.38.05.17.27-.14.2.1-.13-.04-.46.16-.46.35.2.12-.2.08-.15.3.2-.1.28.07.38.17.06-.02.08-.1.1-.14-.04-.12-.1-.08-.17-.18a.78.78 0 0 0 .45-.44c.1.01.14.13.06.2a2.99 2.99 0 0 1 .76-.42c-.25-.08.24-.2.05-.28-.15.03-.33-.02-.3-.14.1-.04.04.08.1.1.05-.15.24.06.26-.15-.2.2.08.24.1.4.12-.17.05.1.2.01a2.94 2.94 0 0 1 .45-.48c.3 0 .58-.33.78-.46.15.01.16.2.3.16.13-.08-.2-.1.05-.15V11c.04-.07.43-.1.36-.36l.03.2c.05-.01.06-.07.08-.1.03.05.1.08.06.15.2.04.25-.17.38-.25l-.14-.05c.2-.2.4-.2.6-.37l.05.1.1-.13c.02.1.18.1.2-.02l-.2.44c-.13 0 .04-.18-.08-.24-.1-.05-.3.1-.27.2.1-.04.08-.06.12-.13.1.12-.02.18-.03.3.04-.03.12-.02.1-.07-.04.1-.12.17-.25.25.06-.1-.1-.05-.1-.1.06.12-.05.24-.24.3-.2-.07-.26.27-.48.35a.83.83 0 0 1 .15-.44c-.16.01-.13.08-.3.1-.01.12.03.28-.1.43l-.06-.08c-.12.13-.04.26-.24.34-.34.14-.66.33-.9.46l-.06-.08c-.02.27-.4.33-.54.52-.36.1-.62.47-.86.4-.5.38-.94.72-1.5 1.02v-.18c-.05.15-.1-.04-.2.04.17.04-.06.2-.08.33-.3.05-.56.34-.73.56l-.06-.08c-.13.3-.48.3-.77.44-.05-.02-.15-.07-.23-.01-.07.23-.15.27-.32.48-.16.1-.44.2-.64.25-.5.55-1.2.8-1.75 1.27l-.1-.08c-.18.22-.42.4-.67.54l-1.1.62-.72-.36c.06-.05.1-.1.16-.15-.26-.22-.48-.2-.52-.07-.13-.15-.46-.15-.48-.36-.15-.13-.25-.04-.4-.1-.3-.26-.43-.32-.77-.47l.07.06c.06-.02.1-.1.03-.15-.15-.02-.4-.3-.4-.02-.27-.32-.85-.36-1.08-.7-.01.07-.1.04-.15.06-.3-.17-.54-.47-.84-.5-.03-.06.13-.05.01-.13-.08-.02-.04.07-.15.06-.54-.17-.9-.68-1.37-.9-.84-.34-1.63-.87-2.38-1.28l.03-.04c-.34.02-.5-.5-.83-.38-.04-.07-.2-.15-.12-.2-.27 0-.5-.43-.87-.45.02.02.04.02.1.02-.24-.26-.57-.28-.83-.54.04 0 .1.02.14-.02-.1-.16-.35.04-.37-.25-.1-.06-.15.05-.07.1-.53-.36-1.1-.67-1.72-1l-.96-.5-.12-.07c-.05-.02-.1-.04-.03-.06l.2-.12.42-.25c1.1-.4.64.1 1.04-.3.1-.01-.07-.06-.01-.04.2-.17.66-.05.7-.2-.2-.06.04-.1-.03-.17.56-.2.77-.12 1-.34l.01.08c.22-.33.63-.38.8-.72C19.3 7.16 21 6.6 22.8 6.24c1.78-.24 3.54-.47 5.37-.36.43.2.45.2.92.14-.02.03-.05.04-.02.07.03-.16.33-.01.38-.16l1.98.13c-.1.01-.18.14-.05.14l.15-.1.02.05c.1-.02.2-.1.1-.15 1.76.08 3.4.7 5.05 1.16.37.17.93.32 1.37.42 1.17.64 2.14 1.3 3.4 1.8.02-.04-.35.24-.87.08z"/><path d="M40.93 10.4c-.08-.05-.23-.01-.18-.17.05.06.16.1.18.17zm-3.83 1.24c.01.02-.06 0-.08-.01.04-.03.04-.1.1-.1-.04.03-.02.06-.02.1zm-.88.46c-.02-.07.13-.23.24-.3l-.24.3zm-.96.2c-.1-.01-.1-.05 0-.1.02.04 0 .07 0 .1zm.02.2c-.07.04-.12.02-.18.01.04.05.14-.13.18-.01zm-1.86.83c-.04.03-.1.14-.18.1.07.02.16-.2.18-.1zm-.76.57c-.03.01-.05.01-.07.04-.06 0-.04-.08 0-.1l.07.07zm-14.18-2.6l.1.02-.04.06zm.22-2.42c.08-.08.1.04.1.05-.08.04 0-.1-.1-.05zm3.78-1.38h-.03l-.01-.15z"/></g><path fill="#cfae42" d="M28.12 17.5l-.02 3.25L15 13.2l.02-3.25z"/><g class="B"><path d="M28.4 17.6c-.03-.14-.13.07-.06-.1.06.02.1.05.06.1z"/><path d="M27.82 17.13c-.57.1-.87-.5-1.4-.53-.06-.01.12-.17-.02-.2-.55.03-1.1-.5-1.46-.97l.06-.03c-.07-.1-.28.01-.37-.07.02-.03.06-.03.06-.1-.08.1-.2-.06-.3 0-.02-.06.03-.14.01-.2l-.12.08c-.32.2-.37-.24-.66-.22.03-.02.06-.03.06-.07-.44-.03-.85-.3-1.27-.47.04-.03.1-.1.1-.16-.1.1-.23.07-.34.04.03-.15-.24.01-.32-.13h.03c-.17.08-.1-.15-.25-.04v-.13c-.14.16-.08-.17-.2-.12l-.02.04c-.1 0-.08-.1-.16-.1l.01-.02c-.18-.04-.2-.2-.28-.05.01-.14.18.03.2-.18-.58-.14-1.07-.47-1.57-.75-.02-.1-.05-.13-.03-.2-.07 0-.2-.08-.3-.04.02.01.01-.1-.01-.1-.06-.1-.2.1-.25-.02a.15.15 0 0 0 .12-.11c-.15.06-.25-.02-.37-.05.03-.01.06-.01.08-.06-.18.06-.2-.14-.33-.12l.08-.06c-.1-.2-.14.14-.24.01.05-.01.05-.04.08-.07-.2.07-.38-.1-.54-.1.01-.01.02-.03.02-.03-.15-.06-.26-.2-.45-.2-.03-.07.13-.2-.03-.24-.1.16-.28-.07-.3.16-.1-.1-.27-.27-.38-.26.1-.03.05-.23.16-.2l-.02-.14c.05-.06.07.07.1-.03-.06-.02-.24-.05-.27-.1-.17.03-.32.2-.45.15.08-.04 0-.24.05-.24-.1.08-.17.18-.22.28-.04-.01-.01-.18-.07-.15.01.06-.02.08-.03.12-.02-.04-.13-.02-.2-.28-.04-.1.06-.01-.01-.13-.1-.05-.06.04-.14 0l-.01-.04c-.07-.07-.1.03.01.2.03.03-.08-.17 0-.06.03.14-.02.14-.08.1 0-.04-.04-.1-.07-.2.01.12 0 .17-.01.2l.06.2c.1.14-.16-.3-.1-.23-.12-.03.17.5-.01.37-.02-.04.12.13.1.1-.01.04-.14-.1-.1 0-.07-.07.02.08.05.13.05.06-.04-.02-.04-.06.06.13.17.36.07.44.05.01.18.1.17.1l-.1-.02c-.07 0 .01.13-.1.14.07.06.04-.07.01-.13s-.07-.13-.02-.07c-.1.02.18.12.03.1 0 .1.13.2.02.3.02-.03-.16-.08-.15 0 .02.14.05.04.1.16l.05.07c.1.01-.02.13.1.08-.1.02.06.2-.13.17l-.15-.01c.01.05.15.06.22.07-.01.01-.04.02-.07.02.22-.04-.02.1.15.07-.04.04-.04.08-.05.12.02.02.03.05-.01.1.1-.02.2-.06.2.01-.02.01-.04.01-.07.04-.01.07.04.03.1.02-.04.01.02.16.06.28.12-.01.15-.13.2-.2-.03.24.3.02.3.25-.04.01-.18.02-.14.1-.03.23.24-.05.3.12l.06-.18c0 .13.24.02.13.17.08-.03.12.14.2-.02.13.25.55.2.52.56.04-.01.1.06.13-.03 0-.1-.1.02-.1-.05.03.01.06-.03.07-.05.04.07.1.1-.05.2.1.18.3-.18.45-.01-.05.06-.05.1.01.1l.16-.05c.1.1-.02.18-.08.3.07.02.15.07.22 0v.18c0-.13.1-.04.13-.04h-.05c-.01.05.07.07.12.07.03-.07-.03-.14-.06-.18.06-.03.1.01.18-.02-.08.1.06.13.1.17.04.06.12-.06.13-.04-.03.06.1.06 0 .1-.03.01-.01-.08-.07-.05.01.06-.05.16.07.13.1-.02.1-.22.18-.1-.04.01-.07.05-.12.07l.07.12.06-.1c0 .03-.01.04-.02.05.1-.08.18.06.27-.04.06.02.07.13.12.17h-.01c.03.1.13.1.22.07l-.02.02c.03.03.12.06.2.03.04.12-.18.38-.02.3.1.05.24-.1.24-.18.12.16.4.1.44.33.04-.03.04-.06.1-.05.2.17.55.17.62.46-.1 0-.06.1-.1.15.1-.05.01.13.12-.01.04-.1.07-.13.03-.2.16.03.37.15.4.28-.01-.06.03-.07.07-.08-.1.13 0 .2.1.2l.06-.08v.12c.04-.01.13-.16.16-.03-.01.03-.03.07-.03.1.12-.02.3-.08.34.04v.16c.04.01.15-.03.1-.1.1.16.2.22.18.36.4-.12.77.1 1.06.27l-.05.06c.04.1.1-.1.13-.01-.06.05-.02.17-.12.2.07.13.2-.03.3-.01.06-.08-.1.02-.01-.08.03-.02.12.15.2.04 0 .07-.08.15-.12.2l.1-.02c0 .2-.34.15-.36.38l.07.02c-.02.17-.25.05-.12.2.1-.02.27-.17.24-.26.16.05.24-.26.4-.16 0 .1-.13-.05-.16.07.01.14.18.03.22.1-.04-.1.1-.18.15-.18.04.1-.12.1-.02.17.06-.06.2-.06.13-.16.14-.14.1.1.22.02-.03.14-.27.2-.18.33.05-.12.24-.06.27-.27.03.06-.02.15-.1.2.03.1.28-.1.18.13l.1-.1c0 .05.01.1.01.18.06.04.28-.04.18.13.03-.01.16.08.18-.07-.04-.12-.15.03-.1-.16-.02.17.13.05.2.04l-.03.07c.04-.01.1.04.16-.02-.04.03-.06.08-.04.1l.1-.08c.15.02-.07.2.06.23l-.13.03c.03-.01.01.1.1.1l.24-.23c.1 0-.03.12.1.06l-.15.06a.19.19 0 0 0 .06.23c.07 0 .24-.08.18-.2.04.02.07.12 0 .16.12.03.04-.1.16-.1 0 .08.06.23.07.36l-.18.1.06.04c-.15.08-.02.12-.13.22.03.04.1.03.16.02 0-.28.3-.2.38-.42.2.04-.14.54.1.27.01-.06.1-.2.05-.16.02.04.1-.2.07-.1-.04.08-.02.24-.1.35.02-.07-.01-.07-.03-.06-.01.1-.08.2-.02.24.04 0 .1.02.1-.1.02-.14-.04-.01 0-.13.05-.02.05.2.07-.05-.03 0-.02-.14-.01-.24l.01-.05v.1c.02.08 0-.17.01-.15l.04.2c.02.17-.04-.1-.02.18.03.03.02-.1.06-.02 0 .02-.01.03-.01.05 0 .01.1.42.1.22 0-.08-.02-.1-.05-.23.04-.01-.01-.14 0-.15.1.26.05.05.15.3-.1-.17-.12-.17-.08.04.1.3-.06-.07-.01.2.07.04.14.32.2.5.03.03.04-.03.04-.05-.05-.17-.08-.2-.14-.36.1.1.14.04.08-.13.07.1.16.3.13.3.04 0 .1.03.16.07l.03-.1c-.2-.24-.05-.18-.2-.37-.04-.02-.2-.2-.27-.36a4.9 4.9 0 0 1 .13.19c-.1-.18.17.2 0-.06.06.15.24.35.4.57-.1-.2.1.16.1.06l-.2-.5c.15.01 0-.28 0-.36.08-.02.26.07.3.01 0-.08-.2.01-.1-.1l.04.02c-.04-.04.12-.22-.13-.28l.2.05c.02-.03-.03-.05-.05-.08.06 0 .12-.03.16.01.13-.1-.02-.2-.02-.3l-.1.06c-.1-.17.02-.3-.01-.45l.1.01-.07-.1c.1.02.18-.07.1-.12l.27.26c-.07.07-.13-.08-.24-.03-.1.04-.07.2.04.22.01-.06-.01-.06-.05-.1.15-.02.15.07.25.12-.01-.03.04-.07-.01-.08.08.06.1.12.1.22-.06-.07-.1.04-.14.01.14.01.18.1.14.23-.16.08.1.23.06.44-.14-.1-.25-.2-.3-.28-.07.1 0 .1-.07.2.1.06.26.12.32.3l-.1-.03c.05.14.2.2.17.4-.05.28-.05.6-.07.8l-.1-.1c.2.38.08.52.17.83-.02.03-.03.08-.03.14-.2-.13-.37-.1-.57-.38-.4-.14-.84-.3-1.33-.63.04-.03.08-.07.12-.1-.1.06-.03-.1-.1-.14.05.17-.16.08-.27.12-.13-.2-.38-.2-.58-.2l.05-.1c-.24.08-.33-.16-.5-.3 0-.05.02-.15-.04-.17-.18.1-.22.05-.42.05a1.2 1.2 0 0 1-.33-.31c-.5-.03-.83-.38-1.3-.5l.03-.12c-.52-.01-.9-.5-1.3-.57l.13-.16c-.07-.12-.27-.1-.3.05-.07-.1-.3-.07-.3-.25-.1-.1-.18.01-.28-.02-.18-.2-.27-.22-.5-.3l.04.04c.04-.03.1-.1.05-.14-.1.01-.25-.2-.3.05-.15-.25-.56-.2-.68-.48-.02.07-.08.05-.12.07-.2-.1-.33-.34-.53-.33-.01-.05.1-.07.03-.12-.06 0-.04.07-.12.07-.37-.07-.56-.47-.86-.6-.56-.18-1.05-.54-1.54-.8l.03-.04c-.25.07-.28-.38-.55-.2-.01-.06-.13-.1-.06-.17-.2.04-.3-.3-.56-.28.01.01.03.01.06 0-.07-.1-.16-.14-.25-.18-.05-.02-.1-.04-.15-.07a1.18 1.18 0 0 1-.22-.17c.05 0 .12.02.15-.01-.05-.14-.44-.02-.33-.23-.07-.04-.15.05-.1.07l-.35-.23c.01-.35-.01-.7-.04-1.05l-.1-.65c.14-.5.4.02.22-.44.05-.03-.1-.05-.04-.04-.06-.2.26-.2.14-.35-.14-.02-.08-.12-.17-.17.1-.33.23-.26.12-.63l.08.1c-.2-.53-.1-.78-.34-1.44l-.01-.47 2.48 1.3 1.62.83c.94.6 1.95 1.05 2.86 1.73.13.3.15.3.44.4-.03.02-.05.02-.04.06.1-.13.2.1.3-.03.35.24.7.4 1.08.6-.07-.02-.16.08-.1.1l.13-.05-.01.05c.06.01.15-.03.13-.1 1 .42 1.77 1.24 2.7 1.73.18.2.53.3.78.42.6.6 1.14 1.1 1.93 1.4.01.06-.3.37-.64.3z"/><path d="M28.4 17.77c-.08.03-.13.12-.24.05.08-.02.17-.07.24-.05zm-.85 1.8c.02.03-.03-.03-.05-.04-.01-.02-.07-.12-.03-.08.01.02.05.07.08.12zm-.1.1c-.04-.1-.06-.15-.06-.18-.01-.02-.01-.03-.01-.05l.04.1.03.14zm-.34-.54c-.03-.1-.04-.13-.03-.13l.03.13z"/><path d="M27.14 19.36c-.01-.01-.03-.07-.05-.12.02.08.02-.05.05.12zm-.4-.48c-.03-.01-.12.01-.1-.08 0 .07.17 0 .1.08zm-.58-.2c-.01-.01-.01-.03-.04-.02-.01-.05.05-.07.07-.06l-.03.08zm-9.7-5.26h.07l-.04.06zm-.84-2.48c-.01-.06.07.12.1.14-.02 0-.06-.14-.1-.14zm1.7.56h-.01l.08-.13z"/></g><path fill="#436685" d="M7.32 20.27l.02-3.17c0 1.36.43 2.7 1.3 4l-.01 3.17c-.88-1.27-1.32-2.63-1.32-4z"/><g class="B"><path d="M7.05 20.24c.03.05.13-.03.06.04-.06-.01-.1-.03-.06-.04z"/><path d="M7.14 20.46c.38.16.02.42.28.6.02.02-.2.02-.15.06.32.15.2.45.02.73h-.06c-.03.05.17.06.16.1-.04.01-.06 0-.1.02.12-.02.07.07.16.06-.04.03-.13.05-.17.1l.14-.01c.33-.02.03.18.22.23-.03.01-.06 0-.08.02.24.1.27.3.4.42a.51.51 0 0 0-.17.07c.13-.05.2-.01.23.02-.12.08.15.02.1.1l-.03.01c.16-.03-.05.1.13.04l-.1.07c.2-.07-.07.1.04.08l.04-.02c.06.01-.03.07.02.08l-.02.01c.08.04 0 .12.14.05-.1.08-.08-.03-.23.1.25.13.34.34.47.54-.04.06-.05.08-.1.12.04 0 .07.06.15.03-.01 0-.06.06-.06.07-.03.07.17-.06.14.02-.05.01-.1.03-.14.07.05-.01.08-.01.1-.01l-.07.02c-.02-.03-.03-.06-.05-.1.03.01.04.02.1.02-.14-.05.03-.1-.06-.14l.1.02c.1-.07-.2-.02-.13-.08.03.02.07.01.1.01-.17-.06-.1-.15-.17-.2h.04c-.02-.06.03-.13-.04-.2.04-.03.23.01.2-.06-.2 0-.08-.1-.3-.08.03-.06.1-.15.04-.2.07.03.23-.03.24.02l.1-.04c.08.01-.03.04.07.03-.01-.02-.08-.1-.05-.12-.1-.04-.33-.1-.35-.16.07.03.2-.02.24 0l-.36-.1c-.01-.02.15 0 .1-.04-.05 0-.08-.01-.12-.02.02-.01-.05-.1.14-.1.07-.01.04.04.1.01 0-.04-.06-.05-.07-.1h.02c.03-.03-.08-.1-.18-.05-.01.02.1-.01.06.02-.1-.02-.14-.07-.14-.12.03.02.08.01.13.02-.14-.06-.2-.12-.25-.2-.1 0 .16.03.1.03.12-.08-.17-.18.01-.25.02.01-.12.01-.1 0 .01-.04.14-.04.1-.06.07 0-.02-.03-.05-.06-.05-.01.04-.01.04.02-.06-.04-.18-.2-.07-.28-.05 0-.18-.05-.17-.08l.1.01c.07-.02-.01-.07.1-.07-.14-.04.12.17.01.1.1-.01-.18-.08-.03-.07 0-.04-.13-.08-.03-.12-.02.01.16.03.15 0-.02-.06-.05-.02-.1-.06l-.05-.03c-.1-.01.02-.04-.1-.03.1-.01-.06-.03.13-.05h.15c-.01-.02-.15-.01-.22-.02.01 0 .04-.01.07-.01-.22.03.02-.04-.15-.02.08-.04 0-.06.13-.1-.08 0-.16.03-.13-.01.02-.01.03 0 .08-.02.05-.04-.01-.02-.04-.01a.69.69 0 0 0 .15-.15c-.08 0-.17.08-.24.1.17-.15-.18-.03-.04-.17.03 0 .12 0 .15-.06.17-.15-.18.02-.12-.1l-.15.1c.08-.08-.14-.03.03-.12-.07.01.02-.1-.14 0 .08-.16-.2-.18.05-.4-.03 0-.02-.05-.1 0-.08.07.08 0 .02.04-.01-.01-.06.01-.08.02.02-.05.02-.08.17-.12.07-.1-.3.07-.28-.04.07-.03.1-.05.07-.07l-.14.01c0-.07.14-.1.25-.16-.03-.02-.04-.06-.13-.03l.13-.1c-.1.07-.08.01-.1.01h.03c.05-.03 0-.05-.02-.06-.07.03-.08.08-.1.1-.06.01-.05-.02-.12-.01.1-.04.06-.08.06-.1.01-.04-.1.01-.1 0 .06-.03-.01-.05.08-.06.02 0-.05.04.01.04.04-.04.14-.08.05-.08-.07 0-.22.1-.17.02a.6.6 0 0 0 .12-.02l.04-.07-.1.04c.02-.02.03-.02.05-.02-.1.03-.06-.06-.2-.03-.02-.02.05-.08.05-.1h.01c.05-.05 0-.08-.08-.08l.02-.01c0-.02-.03-.05-.1-.05.06-.07.4-.15.24-.15-.02-.04-.22 0-.28.04.05-.1-.15-.13-.01-.25-.05 0-.07.02-.1 0 .01-.12-.2-.2 0-.35.05.02.1-.02.17-.04-.1 0 .1-.06-.08-.03-.1.03-.15.03-.18.08-.07-.06-.1-.16-.01-.22-.04.03-.07.02-.1.01.16-.03.17-.08.1-.1l-.1.01.1-.04c-.03-.01-.2.02-.12-.03l.1-.03c-.1-.03-.23-.06-.16-.12l.14-.06c-.02-.02-.1-.04-.14 0 .07-.1.08-.14.2-.18-.3-.1-.35-.3-.33-.44h.07c.07-.05-.13-.01-.08-.05.07.01.15-.04.24-.01.07-.06-.13-.07-.17-.1-.1 0 .06.03-.06.03-.04-.01.07-.08-.07-.1.06-.02.16-.01.22 0l-.07-.03c.17-.05.3.1.5.04l-.02-.03c.15-.03.17.07.22 0-.07-.03-.28-.06-.35-.02-.04-.07-.35-.03-.34-.1.1-.02.02.06.14.05.06-.02.04-.04.02-.06-.01-.01-.03-.02-.04-.03l-.01-.01v-.01c-.04.03-.13.02-.18 0l1.54.01c.02.01.04.01.04.02-.07.04-.14-.02-.15.03.08.01.15.06.2.02.2.02-.05.05.1.08-.13.02-.3-.05-.38 0 .13-.01.18.07.37.04-.04.02-.14.02-.22.01-.08.03.24.08-.02.1l.13.01-.15.04c0 .03.18.1-.02.1.02.01.01.07.15.05.08-.04-.1-.05.1-.07-.15.03.02.06.07.08H8.2c.03.01.01.05.1.05-.04-.01-.1-.01-.12.01l.12.02c.06.06-.2.01-.17.07l-.1-.04c.02.01-.1.03-.05.05l.32.04c.05.03-.12.01-.01.04l-.13-.04c-.04-.01-.18.03-.17.07.04.03.2.07.25.03 0 .02-.06.05-.14.03.04.05.1-.01.18.03-.07.02-.17.07-.28.1l-.18-.04V18c-.14-.04-.1.02-.26 0-.02.02.03.04.07.06.24-.05.33.06.55.05.06.08-.54.05-.2.13.06-.01.23.03.16-.02-.02.05.22.03.13.1-.1-.04-.22.04-.36-.02.07 0 .06-.03.03-.04-.08.02-.22-.01-.22.04.02.03.03.07.14.07.13 0-.01-.05.1-.03.04.06-.15.07.08.1-.02-.04.1-.05.2-.04l.05.04-.08-.01c-.06.07.15.02.13.1l-.17.03c-.14-.02.06-.1-.17-.1-.01.04.1.06.05.1-.02-.01-.03-.02-.05-.03-.01.02-.32.03-.14.1.07.03.08.01.17.01.03.07.1.1.13.14-.17-.01-.02.08-.2.03.1-.02.1-.12-.07-.15-.2.02.03-.06-.18-.07 0 .06-.2.05-.33.06-.01.02.05.03.07.04.12.01.12-.01.25-.01-.03.06.03.12.15.16-.06.02-.18.01-.2-.01.04.08.02.16-.02.23.2-.04.05.08.2.05.04-.04.2-.07.28-.05-.01.02-.1 0-.13.01.1.03-.18.05 0 .08-.06-.07-.24-.01-.4-.03.1.05-.1 0-.1.05.1.05.15.1.2.17-.15.07 0 .17 0 .24-.08.03-.26.01-.3.04 0 .04.2-.03.1.03l-.04-.01c.04.02-.12.1.13.13l-.2-.02c-.02.01.03.02.05.03-.06 0-.12.01-.16-.01-.13.04.02.08.03.12l.1-.03c.1.07-.02.12.02.18h-.1l.07.04c-.1-.01-.18.03-.1.05L7.1 20c.07-.03.13.03.24.01.1-.02.07-.08-.04-.1-.01.02.01.02.05.04-.15.01-.15-.03-.25-.05.01.01-.04.03.01.03-.08-.02-.1-.05-.1-.1.06.03.1-.01.14 0-.14 0-.18-.04-.14-.1.16-.04-.1-.1-.06-.15.14.02.25.06.3.1.07-.04 0-.04.07-.08-.1-.02-.26-.03-.32-.08h.1c-.05-.04-.2-.04-.17-.1.05-.1.05-.2.06-.26h.1c-.22-.04-.08-.13-.18-.2.1-.1-.1-.2.08-.25-.08-.16-.15-.3-.1-.47l.15.03c-.1-.03.08-.02.06-.05-.12.03-.15-.04-.24-.06.1-.07-.01-.17-.1-.24h.1c-.2-.07-.02-.15.01-.23.04-.01.14-.02.13-.05-.16-.05-.15-.07-.25-.14 0-.05.04-.13.1-.18-.1-.1-.13-.18-.14-.28h1.26c.01.08.01.17.08.25l-.12.02c.26.15.05.37.2.5l-.2.01c-.06.05.07.1.2.06-.06.05.1.1-.05.15-.03.05.1.04.14.07-.06.1-.03.13.02.2l.01-.02c-.05 0-.13.02-.14.04.06.02-.03.13.2.04-.1.12.16.17.01.3.06-.03.08-.01.13-.01.03.07-.08.2.05.22-.03.02-.1.02-.1.05.03.01.08-.03.13-.02.16.08-.03.3.04.4.2.14.23.36.35.53l-.04.02c.2-.03-.1.23.18.14-.03.04.01.06-.08.1.14-.02-.03.2.15.17 0-.01-.01-.01-.03 0-.02.06 0 .1.03.1.05.05.1.1.1.2-.03 0-.06-.02-.1 0-.06.08.27.03.06.15.02.03.13-.02.1-.04.1.14.06.32.1.5.03.2.08.3.1.4-.14.15-.4.01-.22.13-.05.01.1.01.04.01.07.05-.26.07-.14.1.14-.01.08.02.17.02-.1.1-.22.1-.12.18l-.08-.01c.2.1.1.18.35.26.04.47.18.92.2 1.38-.02.2-.01.4-.01.58l.1 3.42-2.02-2.82c-.17-.23-.33-.48-.4-.77.1-.2.1-.2-.02-.28.03-.01.04-.01.06-.03-.15.07-.06-.07-.2-.01-.06-.18-.17-.32-.25-.5.03.02.16-.02.13-.05h-.1l.04-.02c-.03-.01-.12-.01-.16.04-.33-.42-.16-1-.3-1.46.04-.13-.05-.28-.1-.4.16-.4.3-.73.16-1.1 0 .01.43.06.53.2z"/><path d="M7.04 20.17c.08-.01.13-.05.24-.02-.08.01-.17.03-.24.02zm.84-1c-.02 0 .03-.01.05-.02.01.01.08.02.03.03 0-.01-.04-.01-.08-.01zm.05-.26c.07 0 .13.06.14.1l-.14-.1zm.3-.25c.06-.02.1-.01.1.01-.04.01-.06 0-.1-.01zm-.17-.01c0-.02.04-.03.08-.04-.06 0 .04.04-.08.04zm.23-.54c-.01-.01-.07-.04.01-.05-.06.01.1.06-.01.05zm-.12-.24c0-.01.02-.01 0-.02.03-.01.1 0 .1.01l-.1.01zm-.3 3.04h-.05l.07-.03zm.22 1.6c.05.03-.07.02-.08.02-.01-.02.1.01.08-.02zm.36 1.05v-.01h.15z"/></g><path fill="#39576c" d="M25.8 17.16l-.02 3.7-17.14 3.42.01-3.17z"/><g class="B"><path d="M26.07 17.26c-.03-.15-.13.08-.06-.1.06.03.1.06.06.1zm-.8-.16c-.4.48-1.12.25-1.6.6-.06.03-.03-.2-.16-.13-.45.4-1.3.42-1.97.34l.02-.07c-.13-.01-.23.2-.36.2-.01-.04.03-.06-.01-.1-.01.12-.22.1-.25.2-.06-.03-.08-.13-.15-.16l-.04.15c-.13.36-.5.1-.73.3.01-.03.03-.06 0-.1-.4.3-.95.38-1.43.56.01-.05.01-.14-.03-.18.01.14-.14.2-.26.27-.1-.13-.2.18-.37.14l.01-.03c-.08.17-.2-.05-.24.15l-.1-.1c0 .2-.2-.07-.26.06l.01.04c-.08.07-.15-.02-.22.03l-.01-.02c-.18.1-.32.01-.28.17-.1-.1.17-.1.03-.26-.6.3-1.26.43-1.9.57-.1-.05-.14-.05-.17-.1-.06.05-.23.08-.27.18.02-.01-.06-.07-.1-.07-.13-.03-.1.2-.23.16.04-.05.05-.1.02-.16-.08.15-.23.16-.35.23.01-.03.04-.05.03-.1-.1.17-.26.03-.37.15l.03-.1c-.22-.06-.02.2-.2.18.03-.04.01-.07.01-.1-.12.2-.4.2-.54.3.01-.01 0-.04 0-.04-.17.06-.36.05-.54.17-.08-.02-.03-.23-.2-.15.05.18-.3.15-.14.33-.16.01-.43 0-.52.08.06-.1-.13-.2 0-.25l-.12-.1c0-.08.1 0 .05-.08-.06.02-.24.14-.3.12-.1.14-.16.37-.35.44.08-.1-.1-.2-.04-.23l-.2.4c-.06.02-.05-.14-.13-.07.02.05-.02.1-.04.13-.03-.01-.26.1-.33-.06-.04-.06.1-.06.01-.1-.12.03-.1.1-.23.12h0c-.1-.01-.22.13-.1.2.06-.01-.05-.1.05-.07-.05.12-.13.17-.2.2.01-.03-.01-.08-.02-.13-.06.16-.13.22-.17.3.07.07-.1-.14-.04-.1-.08-.02-.13 0-.17.02.04.14.12.26.01.3-.02-.03.12.04.1.03-.01.06-.14.02-.1.08-.07-.01.02.07.05.1.05.03-.04.01-.04-.03.06.01.17.5.07.74.05 0 .18.15.17.2l-.1-.02c-.07.07.01.18-.1.17.07.02.04 0 .01-.14-.03-.1-.07-.22-.02-.14-.1.04.18.23.03.2 0 .1.13.1.02.2.02-.02-.16-.02-.15.04.02.1.05.02.1.08l.05.03c.1-.06-.02.08.1-.02-.1.07.06.07-.13.2l-.15.1c.01.04.15-.05.22-.08-.01.02-.04.05-.07.08.22-.2-.02.1.15-.04v.04c.02.05.14-.03.1.1.1-.1.18-.2.22-.15a.23.23 0 0 0-.06.09c.02.06.05 0 .1-.05-.02.04.06.12.13.2.08-.08.04-.2.04-.27.04.22.22-.2.38-.02-.03.04-.14.14-.04.17.14.2.17-.2.36-.13l-.08-.17c.1.1.22-.15.24.03.04-.08.2.02.15-.15.3.1.63-.22.86.06.03-.04.13-.03.1-.1-.08-.08-.08.1-.1.03.03-.01.03-.06.03-.1.1.02.16.02.1.18.2.07.13-.33.38-.3 0 .07.03.1.1.07l.1-.15c.16 0 .12.15.15.27.08-.04.18-.05.2-.15l.13.13c-.1-.1.05-.1.08-.13l-.03.04c.03.05.1 0 .16-.03-.03-.07-.13-.08-.2-.1.03-.06.1-.06.14-.14.01.12.15.06.22.06.08.01.06-.12.08-.12.01.06.12-.01.08.08-.02.02-.07-.05-.1.01.06.04.07.15.16.05.06-.07-.07-.23.1-.2-.03.04-.03.1-.05.14l.15.04-.02-.1c.02.02.01.04.02.05.02-.12.2-.08.2-.2.07-.02.16.05.23.05v.01c.1.05.2-.02.24-.1v.02a.32.32 0 0 0 .2-.1c.13.06.12.4.2.24.1-.03.14-.24.08-.3.22.03.4-.2.63-.06.02-.05 0-.07.05-.1.3-.02.6-.25.88-.1-.08.06.02.1.03.17.05-.1.1.08.1-.1-.03-.1-.03-.15-.12-.17.17-.1.43-.14.55-.07-.06-.04-.03-.07.01-.1.02.16.15.16.24.08v-.1l.08.1c.03-.04 0-.2.12-.14.01.04.03.07.05.1.1-.1.2-.26.33-.2l.12.12c.04-.02.1-.12.02-.15.2.05.33.03.4.14.27-.36.74-.47 1.12-.52v.07c.1.05.03-.14.1-.1-.02.07.1.13.04.23.16.05.16-.16.25-.2 0-.1-.06.08-.07-.05.01-.04.22.03.2-.1.05.05.04.16.03.22l.07-.1c.14.15-.2.35-.03.53l.08-.04c.1.13-.18.2.03.22.08-.1.1-.3.02-.36.18-.08.02-.36.22-.4.07.07-.16.05-.1.16.12.1.18-.1.27-.08-.1-.04-.05-.2 0-.23.1.05-.04.15.1.13.01-.1.13-.18 0-.2.01-.2.16.02.2-.14.07.12-.1.33.08.37-.05-.12.16-.2.04-.38.07.02.1.12.07.2.1.06.17-.27.25-.03v-.14c.04.04.08.06.14.12.08-.01.22-.23.25-.03.02-.03.2-.05.1-.17-.13-.06-.1.12-.2-.05.1.13.16-.05.2-.1l.03.07c.03-.04.12-.04.13-.12-.02.05 0 .1.04.1l.02-.12c.14-.1.08.2.22.13l-.1.1c.02-.02.1.07.16.02l.04-.33c.08-.06.06.1.12-.01l-.08.15c-.01.04.1.16.22.13.06-.05.15-.22.02-.26.06-.01.15.03.12.12.12-.06-.04-.1.06-.2.06.06.22.13.33.22l-.08.2.08-.01c-.07.16.07.1.05.26.06.01.1-.05.15-.1-.2-.2.1-.36.02-.57.2-.1.24.5.4.12-.05-.05.02-.23-.1-.15.14 0 .05-.24.22-.18-.1.1.17.2.03.36 0-.07-.1-.04-.12-.01.07.07.03.22.17.2.08-.04.2-.06.15-.17-.03-.12-.12.04-.1-.1.15-.08.22.1.24-.13-.1.04-.15-.08-.17-.17l.1-.08-.01.1c.2.02.03-.16.22-.18l.12.15c-.02.15-.28-.01-.2.2.12-.01.14-.14.27-.1-.02.02-.06.04-.08.06.04 0 .15.3.3.08.07-.1.01-.1-.01-.17.07-.04.03-.12.05-.14.08.16.06 0 .13.17-.1-.08-.13-.07-.13.1.1.18-.12 0-.14.2.16-.03.2.17.24.3.04 0 .06-.06.08-.08-.02-.12-.07-.1-.1-.23a.14.14 0 0 0 .16-.2c.07.05.15.16.1.18.06-.04.14-.05.22-.06l.03-.14c-.2-.05-.05-.16-.2-.2-.04.03-.2-.03-.28-.1.01-.01.1.05.13.07-.1-.08.17.04 0-.07.06.1.24.12.4.2-.1-.13.1.05.1-.05-.1-.16-.15-.2-.2-.4.15-.2 0-.5 0-.66.08-.1.26-.03.3-.13 0-.1-.2.08-.1-.1l.04.02c-.04-.05.12-.3-.13-.36l.2.05c.02-.03-.03-.06-.05-.1.06 0 .12-.04.16.01.13-.1-.02-.22-.02-.34l-.1.07c-.1-.2.02-.33-.01-.52l.1.01-.07-.1c.1.03.18-.08.1-.14l.27.3c-.07.08-.13-.1-.24-.04-.1.04-.07.22.04.25.01-.07-.01-.07-.05-.12.15-.02.15.08.25.13-.01-.04.04-.08-.01-.1.08.07.1.14.1.25-.06-.08-.1.04-.14.01.14.01.18.12.14.26-.16.1.1.27.06.43-.14-.07-.25-.15-.3-.25-.07.1 0 .1-.07.22.1.05.26.1.32.22l-.1.01c.05.12.2.12.17.28-.05.28-.05.5-.07.8l-.1-.01c.22.2.08.5.17.75a.43.43 0 0 0-.03.17c-.3.05-.53.2-.75.1l-.72.25a3.35 3.35 0 0 1-.66.15l.05-.16c-.06.12-.07-.07-.15-.03.12.1-.08.17-.12.27-.23-.07-.47.1-.63.24l-.03-.1c-.15.22-.4.1-.64.12-.03-.04-.1-.12-.16-.1-.1.2-.16.2-.32.32a1.26 1.26 0 0 1-.51-.01c-.46.33-1 .28-1.5.53l-.06-.1c-.46.35-1.13.25-1.54.46v-.2c-.15-.03-.3.1-.24.25-.15-.03-.32.16-.44.02-.15-.01-.15.13-.26.18-.3-.02-.4.02-.65.1h.07c.02-.05.01-.14-.06-.13-.1.07-.37.02-.23.24-.3-.08-.63.24-.94.1.04.06-.03.1-.05.14-.25.05-.53-.03-.7.12-.05-.02.04-.12-.06-.1-.05.04.02.1-.05.14-.38.2-.83.04-1.2.14-.62.25-1.3.33-1.92.47v-.05c-.17.22-.52-.1-.63.22-.06-.04-.2.02-.17-.08-.14.16-.5-.03-.7.18.02 0 .03-.01.05-.04-.26-.06-.74.2-1.12.16.05-.03.13-.06.16-.12-.1-.07-.47.3-.44.06-.1.02-.13.15-.07.13a6.04 6.04 0 0 0-.8.13L7.86 23c.14-.53.4-.05.22-.4.05-.03-.1-.02-.04-.02-.06-.13.26-.2.14-.3-.14.04-.08-.06-.17-.06.1-.26.23-.28.12-.62l.08.04c-.2-.38-.1-.75-.3-1.2.01-.02.03-.04.03-.06l.84-.22.72-.2.93-.28 1.85-.53 3.73-.8c.34.13.36.12.67-.04-.01.03-.02.05 0 .07-.02-.16.23-.07.22-.23.47-.08.9-.22 1.37-.33-.07.03-.08.17.01.14l.07-.12.03.04c.06-.04.1-.13.03-.17 1.17-.4 2.43-.37 3.6-.68.3 0 .68-.15.98-.25.95.01 1.8-.01 2.7-.37-.05.05-.08.5-.43.67z"/><path d="M26.08 17.45c-.08.03-.13.14-.24.05.08-.01.17-.06.24-.05zm-.85 2.7c.02.01-.03.01-.05.01-.01-.02-.07-.05-.03-.05 0 .01.04.02.08.04zm-.13.23c-.04-.05-.05-.1-.04-.13l-.01-.02.03.04c.01.04.02.07.02.1zm-.37-.23c-.08-.05-.03-.1-.01-.1.01.03.01.05.01.1z"/><path d="M24.7 20.3c-.06.01-.1-.02-.13-.06.02.06.13-.06.13.06zm-1.5.1c-.03.01-.1.1-.15.01.06.05.16-.12.15-.01zm-.64.23c-.02 0-.03-.01-.06.01-.05-.02-.01-.1.02-.1l.04.1zm-12.28 2.75l.07-.05v.07zm-.82-1.9c.02-.05.06.06.07.07-.03.01-.03-.1-.07-.07zm2.67-1l-.02.01-.03-.15z"/></g><path fill="#4e7694" d="M12.7 9.6l13.1 7.56L8.65 21.1C6 17.25 7.35 12.7 12.7 9.6z"/><g class="B"><path d="M12.93 9.42c-.17-.06.02.16-.13-.01.06-.03.1-.06.13.01zm-.8.32c-.27.6-1.07.7-1.4 1.3-.04.06-.12-.17-.2-.03-.26.6-1.03 1.1-1.65 1.53l-.02-.07c-.12.08-.08.33-.18.43-.03-.02-.02-.07-.08-.07.07.1-.1.25-.07.35-.07.02-.15-.03-.23 0l.07.14c.13.35-.3.48-.3.83-.02-.03-.03-.07-.07-.06-.06.53-.3 1.1-.36 1.66-.04-.03-.12-.07-.18-.05.13.06.13.23.14.38-.15.04.1.27-.01.43h-.03c.13.14-.1.18.07.3l-.12.07c.2.06-.1.18-.01.3h.04c.05.1-.06.15-.02.24v.02c.08.2-.03.35.13.32-.12.1-.08-.2-.25-.07l.67 2.07c-.02.1-.02.16-.07.2.06.05.15.24.25.26-.01-.02-.05.08-.04.12.01.15.22.03.23.18-.06-.02-.1-.01-.15.05.17.03.23.17.33.25-.03.01-.05-.01-.08.04.1 0 .1.07.14.14.02.03.02.1.05.1.03-.01.07-.02.1-.05l-.1.1c.2.07.13-.23.3-.2-.05.04-.04.08-.06.12.2-.22.42-.2.6-.3-.01.01 0 .04 0 .04.2-.06.4-.06.6-.18.1.02.03.23.22.15-.05-.18.33-.15.16-.33.18-.01.48-.01.58-.1-.06.1.14.2-.01.25l.14.08c0 .08-.12 0-.06.1.07-.02.27-.14.34-.13.1-.14.2-.38.4-.45-.1.1.1.2.04.23l.23-.42c.07-.03.05.14.14.07-.02-.05.02-.1.05-.13.03.01.3-.1.37.06.05.06-.1.06-.02.1.13-.03.13-.1.26-.13v.02c.1.01.24-.14.13-.2-.06.01.05.1-.06.07.04-.12.2-.18.32-.22-.04.04-.02.1-.03.14.15-.18.33-.27.52-.37-.02-.1-.04.17-.08.13.3.06.5-.3.75-.17-.03.02-.05-.12-.04-.1.13-.02.15.1.22.04.02.07.1-.05.18-.1.03-.06.03.03-.04.05.1-.1.54-.3.84-.26-.02-.05.13-.2.2-.22v.12c.07.05.2-.06.24.04.1-.17-.48.23-.33.1.07.08.2-.23.2-.07.12-.03.22-.2.36-.1-.04-.01-.07.18.03.15.17-.06.04-.06.17-.14l.08-.07c-.02-.1.16-.02.07-.13.04.08.24-.1.27.07v.15c.07-.03.1-.18.14-.25.01.01.04.03.04.06-.04-.22.2-.02.24-.2.18.04.4-.1.52.03.1-.1.2-.2.35-.18-.02.03-.06.04-.06.1.1.04.1-.02.18-.07-.01.04.2.1.32.14.1-.1.04-.2.03-.27.16.2.3-.22.5-.06-.04.04-.15.15-.04.18.16.2.2-.2.4-.15l-.08-.17c.1.1.24-.16.27.02.05-.08.23.01.17-.16.33.08.7-.25.95.01.04-.04.15-.03.1-.12-.1-.08-.08.1-.12.03.04-.01.03-.06.03-.1.1.02.18.01.12.18.23.06.14-.34.42-.34 0 .07.03.1.1.07l.12-.16c.18-.01.13.14.17.26.1-.04.2-.06.22-.16l.14.13c-.1-.1.06-.1.1-.13l-.04.04c.03.05.13-.01.17-.04-.03-.07-.14-.08-.2-.1.03-.06.1-.07.16-.14.01.12.17.05.24.05.1.01.07-.13.1-.13.02.06.14-.02.1.08-.02.03-.08-.05-.1.02.06.03.08.14.18.04.07-.08-.06-.23.1-.2l-.04.14c.06.01.1.02.13.04l-.03-.1c.02.02.02.04.03.05-.02-.12.1-.06.05-.18.02-.02.12.05.16.05h0c.1.05.13-.01.08-.07l.02.02c.03 0 .07-.02.01-.08.15.05.56.3.46.18.08-.02-.2-.17-.33-.2.23.02-.02-.1.42-.03-.08-.03-.15-.04-.2-.06.12 0 .1-.04.13-.05-.08-.03-.08-.05.12-.06.15.03.27.03.4.04-.27-.04.18-.01-.22-.05h-.4c-.2-.05-.26-.1-.13-.12-.07.02-.14.01-.2.01.3-.01.28-.05.14-.07l-.16.02.13-.04c-.07 0-.32.05-.22 0 .05-.01.1-.03.14-.04-.16 0-.35.04-.3-.01.04-.03.08-.06.1-.1-.04 0-.14.04-.15.08.02-.1-.02-.13.02-.24-.04.02-.08.04-.12.05-.06 0-.12 0-.17-.01a1.33 1.33 0 0 1-.34-.1 2.63 2.63 0 0 1-.6-.32l.05-.06c-.07-.12-.12.08-.16 0 .07-.04 0-.18.12-.2-.1-.15-.25 0-.36-.02-.06.08.1-.01.03.08-.03.02-.16-.18-.25-.07-.01-.07.07-.15.12-.2h-.12c-.02-.2.4-.12.4-.37l-.1-.03c0-.18.3-.03.12-.2-.12.01-.3.15-.26.25-.2-.07-.26.25-.45.13-.01-.1.17.07.2-.05-.03-.16-.22-.05-.28-.13.06.1-.1.18-.16.17-.07-.12.13-.08 0-.18-.07.06-.23.04-.14.15-.15.14-.12-.13-.27-.05.02-.14.3-.18.18-.33-.04.13-.28.04-.3.25-.04-.07 0-.16.1-.2-.05-.12-.33.08-.23-.16l-.1.1c-.01-.05-.03-.1-.04-.2-.08-.05-.34.01-.23-.16-.03 0-.2-.1-.2.05.07.14.18-.02.14.18 0-.18-.17-.07-.25-.07l.03-.07c-.05 0-.13-.06-.2 0 .05-.02.06-.08.04-.1l-.1.08c-.18-.04.07-.2-.1-.25h.16c-.03 0-.03-.12-.12-.13-.08.08-.2.16-.26.22-.1-.01.02-.13-.1-.08l.17-.05c.03-.02.02-.2-.1-.26-.1-.01-.28.06-.2.18-.06-.03-.1-.13-.02-.17-.15-.04-.04.1-.18.1-.01-.1-.1-.26-.13-.4l.2-.1-.07-.05c.17-.07.01-.12.14-.22-.04-.05-.13-.04-.2-.04.03.3-.33.2-.4.4-.24-.07.14-.54-.25-.37.01.07-.18.16-.02.18-.12-.1-.2.14-.3-.03.16-.01-.01-.26.22-.28-.05.06.06.1.1.1-.01-.1.12-.2-.01-.26-.1-.03-.2-.1-.25.02-.06.1.13.06.01.14-.18-.05-.1-.24-.3-.08.1.04.07.17.03.24l-.14-.02.06-.06c-.16-.16-.13.1-.3-.03v-.2c.1-.1.23.2.32-.01-.1-.08-.2 0-.3-.1.04 0 .07.01.1.01-.04-.03.07-.32-.2-.26-.12.01-.06.06-.1.13-.2-.1-.3-.04-.44-.1.1-.13-.2-.14.01-.2.01.12.3.27.44.17.03-.2.14.1.28-.04-.15-.1-.04-.26 0-.4-.04-.03-.1-.01-.14-.01-.08.1-.02.13-.08.24a.5.5 0 0 0-.5-.1c-.03-.1.05-.18.13-.15-.22-.1-.43-.23-.6-.37.03.24-.24-.08-.24.1.08.1.1.27 0 .32-.06-.05.05-.07.04-.13-.14.05-.04-.23-.2-.12.22.05.16-.2.27-.3-.18 0 .06-.1-.07-.17a1.91 1.91 0 0 1-.54-.09c-.1-.24-.47-.28-.64-.37-.05-.12.1-.24.02-.32-.1-.06-.01.2-.14.05l.03-.02c-.07.01-.24-.28-.42-.1l.15-.14c-.02-.03-.07-.01-.1-.01.03-.05.02-.12.1-.13-.04-.17-.22-.1-.34-.16v.14c-.23-.03-.3-.2-.5-.27l.06-.1-.14-.01c.08-.08.02-.2-.1-.15l.42-.07c.05.1-.15.07-.16.2-.01.1.18.18.26.1-.06-.05-.07-.03-.14-.02.06-.15.15-.08.25-.15-.04-.01-.06-.08-.1-.04.1-.03.18 0 .3.06-.1.01-.01.1-.06.13.08-.1.2-.1.32.02.02.2.3.06.44.2-.13.08-.27.13-.4.12.06.12.1.06.18.18.1-.06.2-.18.37-.16l-.04.1c.14.02.22-.1.35 0 .23.2.5.34.7.47l-.04.1c.22-.13.4.14.6.14.2.23.6.23.63.45.48.2.9.34 1.34.64l-.15.08c.14-.05.01.1.1.13-.03-.16.2-.07.3-.1.15.22.47.26.7.27l-.04.1c.28-.06.4.2.62.37.01.05 0 .16.07.2.2-.07.26-.02.5-.01.13.08.33.24.43.37.6.1 1.04.5 1.63.68l-.02.12c.3.03.6.2.86.35.27.17.46.3.93.5l-.2.1c.15.16.5.23.6.1.15.16.7.28.6.43.17.14.4.12.65.23.35.3.52.37 1.05.63l-.08-.06c-.14-.03-.33-.04-.25.02.28.1.44.32.86.28.06.1.27.2.53.34-.3.1-.6.22-1.18.23.2.03.08.06.1.1-.5.12-1.2.14-1.43.3-.12-.01-.03-.1-.23-.07-.08.04.1.06.01.12-.32.14-.78.2-1.2.26l-.97.14c-.7.3-1.45.4-2.13.57v-.05c-.2.23-.58-.06-.7.25-.06-.03-.2.03-.2-.07-.15.17-.54 0-.77.22.03 0 .04-.01.06-.04-.3-.04-.5.15-.8.12.02-.03.07-.05.07-.1-.13-.07-.2.26-.32.04-.06.02-.02.13.02.1-.64.05-1.26.35-1.9.55-.5-.03-.12-.38-.44-.13-.04-.04 0 .1-.02.05-.13.1-.28-.2-.35-.06.07.13-.05.1-.03.18-.3-.03-.4-.14-.58.02v-.08c-.2.27-.54.23-.7.52l-4.2 1.15-.55.1-1 .23-.25.06c-.08.01-.2.08-.2-.03l-.27-.43-.54-.87c-.38-.74-.7-1.47-.8-2.3.1-.42.12-.43-.01-.85.03.01.04.04.07.01-.17-.01-.04-.3-.2-.33l.02-.9.1-.9c0 .1.13.18.13.06-.03-.05-.05-.1-.07-.14h.05c0-.08-.06-.2-.13-.12.26-1.62 1.37-2.82 2.3-3.9.3-.2.58-.6.85-.87.97-.6 1.86-.96 2.7-1.66.03.04.12.48-.2.8z"/><path d="M13.12 9.5c-.01.1.07.2-.07.24.03-.08.02-.18.07-.24zm2.35 2.34c.02-.02.02.05.02.07-.04-.01-.1.03-.1-.03.04.02.05-.02.1-.04zm.68.46c-.05.06-.23.02-.32-.02l.32.02zm.5.63c.03.1-.01.1-.08.06.01-.03.05-.04.08-.06zm.14-.1c.06.03.06.08.07.13.03-.05-.15-.04-.07-.13zm1.3 1c.04.01.14.01.13.1 0-.07-.2-.02-.13-.1zm.74.3c.02.02.02.03.06.03.02.05-.05.07-.08.06l.02-.1zm.56 3.95l.07-.06.01.08zm-5.97 1.37c-.07.06-.07-.05-.1-.06.07-.02-.01.1.1.06zm-3.13 1.1v-.01l.03.15z"/></g><path fill="#8b1812" d="M47.1 18.22c1.77 9.6-9.8 14.03-18.4 13.8v-3.17c7.16.13 18.02-3.07 18.4-10.63z"/><g class="B"><path d="M47.38 18.3c-.05-.2-.12.13-.07-.12.06.02.1.05.07.12zm-.56.54c.34.7-.3 1.37-.3 2.1-.02.08-.18-.1-.22.08-.02.35-.18.76-.45 1.12-.3.33-.65.65-.98.88l-.01-.07c-.14.08-.12.34-.26.43-.03-.03 0-.07-.07-.1.06.1-.16.24-.15.35-.08.01-.14-.06-.23-.04l.03.16c.05.43-.48.4-.65.74-.01-.03.01-.08-.04-.08-.3.52-.93.88-1.43 1.28 0-.05-.03-.14-.1-.17.04.13-.1.28-.24.38-.14-.1-.2.25-.4.28v-.04c-.06.2-.24.02-.26.24l-.14-.06c.03.2-.24 0-.3.15l.02.04c-.08.1-.18.03-.26.1h-.02c-.2.15-.4.1-.32.25-.13-.08.2-.15 0-.26-.68.5-1.5.76-2.28 1.02-.1-.03-.17-.03-.2-.08-.07.05-.3.1-.34.2.03-.01-.07-.06-.12-.06-.16-.02-.1.2-.3.2.05-.06.06-.1.02-.17-.1.16-.3.2-.44.28.02-.03.05-.06.03-.1-.14.18-.32.07-.46.2l.04-.1c-.28-.05-.03.2-.26.2.05-.04.02-.07.02-.1-.16.2-.5.23-.7.33.01-.02 0-.04 0-.04-.22.07-.45.08-.7.2-.1-.03-.01-.23-.24-.15.04.18-.4.14-.2.33-.2 0-.54-.01-.66.08.08-.1-.13-.2.03-.25l-.14-.1c.01-.08.13 0 .08-.08-.08.02-.3.14-.4.1-.14.13-.25.36-.5.4.1-.1-.1-.2-.01-.24l-.3.4c-.08.02-.03-.14-.15-.08.01.05-.04.08-.07.13-.03-.01-.35.1-.4-.1-.04-.07.13-.05.04-.1-.16.01-.16.07-.3.1v-.02c-.1-.02-.3.1-.18.2.07 0-.04-.1.08-.06-.07.1-.25.15-.4.17.05-.03.04-.08.06-.13-.2.16-.47.22-.62.3.01.1.04-.16.08-.1-.27-.12-.38.18-.63 0 .02-.02.1.12.07.1-.1-.01-.2-.13-.22-.1-.06-.07-.07.02-.1.05.02.05-.05-.04 0-.04-.01.02-.04.03-.06.06.02.06.03.12.05.18.02.12.02.22-.03.3.05.02.18.1.17.16l-.1-.03c-.07.06.01.24-.1.25.07.08.04-.07.01-.2-.03-.1-.07-.18-.02-.12-.1 0 .18.22.03.2 0 .14.13.28.02.42.02-.04-.16-.12-.15 0 .02.2.05.06.1.22l.05.1c.1.01-.02.18.1.1-.1.05.06.14-.13.17l-.15.01c.01.06.15.06.22.07-.01.01-.04.04-.07.04.22-.1-.02.13.15.07-.04.07-.04.13-.05.18.03.02.07.03.04.1.14-.07.23-.15.28-.1-.02.02-.05.03-.07.08.03.07.07.01.12-.03-.02.03.07.13.18.2.14-.07.1-.2.1-.26.13.22.4-.14.55.04-.05.03-.2.12-.08.17.14.2.25-.18.46-.1l-.06-.18c.1.1.3-.13.3.06.06-.07.25.04.2-.13.35.13.8-.15 1.04.13.04-.04.17-.02.13-.1-.1-.1-.1.1-.14.02.04-.01.05-.06.05-.1.1.03.2.03.1.2.25.08.2-.33.5-.3 0 .07.02.1.1.08l.14-.15c.2 0 .13.15.16.27.1-.04.23-.05.26-.14l.15.13c-.1-.1.07-.1.1-.13l-.04.04c.03.05.14-.01.2-.03-.03-.07-.15-.08-.22-.1.04-.06.12-.07.18-.15 0 .13.18.05.26.05.1.01.08-.13.1-.13.01.06.15-.02.1.08-.03.03-.08-.05-.12.02.07.03.08.14.2.04.08-.08-.07-.23.12-.2-.04.04-.04.1-.07.14l.18.03V31c.03.02.01.04.03.05.03-.12.25-.1.26-.22.08-.03.2.04.28.03l-.01.01c.1.04.23-.04.3-.13.05-.01.18-.06.23-.14.15.05.15.4.26.22.14-.04.16-.25.1-.3.26.01.5-.24.76-.14.02-.05-.01-.07.05-.12.36-.08.7-.38 1.04-.27-.1.08.03.1.06.17.05-.12.14.06.1-.1-.04-.1-.05-.14-.16-.14.2-.12.5-.23.65-.2-.07-.02-.04-.07-.01-.1.04.16.2.1.3.01v-.1l.1.06c.03-.05-.03-.2.1-.17a.27.27 0 0 0 .07.08c.08-.12.2-.32.35-.3l.16.08c.05-.04.1-.15-.01-.15.25-.01.4-.08.5 0 .22-.46.72-.74 1.13-.95l.03.07c.14-.01-.01-.15.08-.15 0 .08.16.07.12.2.2-.04.12-.24.2-.33-.04-.1-.04.1-.1-.01 0-.04.24-.08.18-.2.07.02.1.13.1.2l.05-.12c.2.06-.08.42.15.52l.07-.08c.17.07-.13.3.1.2.05-.12.01-.35-.1-.35.17-.16-.1-.34.1-.47.1.03-.15.13-.04.2.16.03.15-.18.26-.2-.13.02-.13-.15-.1-.2.14-.01.02.16.17.07-.03-.1.05-.24-.1-.2-.07-.2.17-.08.15-.25.13.07.06.36.25.3-.1-.08.07-.3-.13-.37.08-.02.15.05.16.15.13-.01.04-.35.24-.18l-.06-.12c.05.01.1 0 .2.02.07-.06.1-.33.24-.18.01-.03.18-.17.02-.2-.16.03-.05.17-.23.08.17.05.13-.14.15-.22l.06.05c.01-.05.1-.12.05-.2a.08.08 0 0 0 .1.07l-.05-.12c.08-.18.18.1.27-.04l-.02.16c.01-.04.13-.01.16-.1l-.15-.3c.03-.1.12.05.1-.1l.01.18c.01.04.2.05.28-.05.03-.1 0-.3-.13-.23.04-.05.16-.08.18.01.07-.14-.1-.06-.07-.2.1 0 .3-.05.43-.07l.05.22c.02-.02.04-.04.06-.07.04.18.13.02.2.17.05-.04.06-.14.06-.2-.3.01-.15-.37-.36-.45.08-.24.53.17.4-.24-.07 0-.15-.2-.18-.02.1-.12-.13-.2.05-.3 0 .16.27 0 .27.23-.06-.05-.1.06-.1.1.1-.01.18.13.27-.01.04-.1.1-.2 0-.25-.1-.06-.07.13-.15.01.07-.18.25-.12.1-.3-.05.1-.18.07-.26.02l.03-.14.06.06c.16-.16-.1-.13.01-.3l.2-.02c.1.1-.18.26.04.33.07-.13-.02-.22.1-.32.01.04-.01.08 0 .1.03-.04.32.05.25-.22-.02-.13-.06-.06-.14-.1.07-.22.01-.3.06-.45.15.1.12-.23.22-.02-.12.03-.25.33-.13.48.22.01-.1.15.06.3.08-.17.26-.08.4-.06.03-.05 0-.12 0-.15-.1-.07-.13 0-.25-.05.12-.18.14-.4.07-.54.1-.04.2.02.17.1.1-.24.13-.5.23-.73-.23.1.02-.27-.17-.2-.07.1-.24.18-.3.1.03-.07.08.03.13.01-.08-.12.2-.1.06-.24.01.23.23.1.37.18-.04-.18.1.03.15-.13-.04-.18-.06-.4-.05-.58.16-.2.04-.6.05-.8.1-.1.26-.02.3-.14.01-.14-.2.1-.1-.1l.03.02c-.04-.06.15-.38-.1-.44l.2.06c.02-.04-.02-.08-.04-.1.06 0 .12-.05.16.01.14-.13-.04-.28-.06-.42l-.1.1c-.1-.24-.02-.4-.08-.63h.1l-.08-.13c.1.02.17-.12.07-.18l.3.34c-.05.1-.15-.1-.25-.02-.1.06-.04.28.07.3 0-.08-.02-.1-.07-.15.15-.04.16.1.27.14-.01-.04.03-.1-.02-.12.08.08.1.17.12.32-.07-.1-.1.06-.14.02.14 0 .2.14.17.33-.15.13.08.34.03.56-.13-.1-.23-.2-.28-.33-.08.13-.01.15-.08.27.1.07.25.12.3.3h-.1c.04.16.2.17.15.37-.04.17-.06.35-.08.5l-.12.44-.1-.01c.18.2-.04.5 0 .7-.1.15-.1.34-.14.5-.05.15-.1.3-.22.34-.18.57-.28 1.1-.7 1.6l-.07-.16c.03.15-.1.01-.15.12.17-.04.05.2.08.32-.26.16-.32.55-.42.8l-.1-.06c-.02.3-.35.42-.57.63-.05 0-.16-.03-.2.05 0 .23-.05.3-.17.54-.14.12-.4.28-.56.35-.35.64-1 .9-1.52 1.4l-.1-.07c-.42.6-1.3.76-1.74 1.17l-.04-.2c-.18.03-.35.22-.24.33-.2.02-.37.27-.55.17-.18.04-.17.18-.3.26-.37.07-.48.16-.8.3l.1-.02c.02-.05-.01-.14-.1-.12-.1.1-.47.1-.26.3-.4-.01-.8.4-1.2.33.05.06-.03.1-.06.14-.32.1-.68.05-.9.22-.06-.02.05-.13-.08-.1-.07.04.02.08-.06.15-.48.27-1.07.12-1.53.25-.8.32-1.7.34-2.5.48v-.05c-.26.2-.66-.14-.85.16-.07-.04-.25 0-.2-.1-.2.14-.6-.07-.92.1.03 0 .05-.01.08-.03-.16-.05-.3-.04-.46-.03-.25.01-.52.03-.78-.02.06-.02.17-.04.2-.1-.15-.1-.6.2-.57-.03-.1 0-.17.12-.1.1-.83.22-.5-.67-.6-1.22l-.1-1.36c.07-.25.17-.3.23-.28s.08.05-.01-.3c.05-.04-.1-.06-.04-.06-.06-.3.26-.3.14-.5-.14-.01-.08-.16-.17-.22.05-.24.1-.34.14-.44l.01-.04.05.01h.1c.06 0 .12-.02.2-.04l.04.08c.26-.22.82-.1 1.15-.36l.74-.05.6-.07c.4-.04.78-.1 1.17-.18l2.3-.46c1.53-.26 2.94-.8 4.43-1.24.4.04.44.02.77-.2 0 .04-.02.05.02.07-.05-.16.25-.13.22-.28.52-.23.97-.5 1.48-.8-.07.06-.04.2.05.14l.04-.15.04.03c.05-.06.08-.17-.02-.18 1.17-.84 2.44-1.52 3.25-2.65.13-.1.25-.27.36-.43l.22-.53c.72-.78 1.08-1.74 1.06-2.82-.03-.08.37.08.4.57z"/><path d="M47.42 18.54c-.08.05-.1.2-.23.1.08-.02.16-.1.23-.1zm-.94 3.5c.02.01-.04.04-.06.05 0-.04-.05-.1 0-.12-.01.04.03.04.06.07zm-.25.82c-.07-.04-.08-.23-.06-.34l.06.34zm-.6.6c-.08.04-.1 0-.07-.08.04.02.04.05.07.08zm.13.13c-.03.06-.08.07-.13.08.06.03.03-.15.13-.08zm-1.04 1.35c-.02.04-.02.15-.1.13.07 0 .03-.22.1-.13zm-.42.68c-.02.02-.04.02-.04.05-.06.01-.06-.06-.04-.1l.08.04zm-13.67 5.8l.1-.04-.01.07zm-.1-2.08c.1-.05.07.06.1.07-.1.02.02-.1-.1-.07zm3.7-.8l-.02.01-.02-.15z"/></g><path fill="#68a242" d="M28.17 28.2l-.01 3.17-.04-13.86.05 10.7z"/><g class="B"><path d="M28.44 28.27c-.03-.1-.13.05-.06-.07.07.02.1.04.06.07z"/><path d="M28.36 27.87c-.38-.33 0-.76-.25-1.12-.02-.04.2.01.16-.08-.3-.35-.12-.9.1-1.32l.06.03c.04-.08-.15-.18-.13-.26.04 0 .06.03.1.01-.12-.02-.06-.15-.14-.2.05-.03.14-.03.2-.08l-.13-.05c-.32-.13.02-.33-.15-.52.03.01.06.03.1.01-.2-.3-.16-.67-.23-1 .05.01.13.02.2 0-.14-.02-.18-.12-.2-.2.15-.04-.13-.15-.05-.26l.03.01c-.15-.08.1-.12-.1-.18l.1-.05c-.2-.03.1-.1 0-.18h-.04c-.05-.06.05-.1.02-.15v-.01c-.05-.13.06-.2-.1-.2.13-.05.06.13.24.05-.17-.43-.14-.87-.14-1.3.06-.05.08-.08.14-.1-.03-.04-.03-.16-.1-.2 0 .01.08-.03.1-.05.06-.08-.18-.1-.1-.17.04.03.1.05.15.03-.13-.07-.1-.17-.15-.26.03.01.04.03.1.03-.14-.1.03-.17-.06-.26l.1.03c.1-.14-.2-.04-.13-.16.03.03.07.02.1.02-.17-.1-.1-.28-.17-.4.01.01.04 0 .04 0-.02-.12.03-.24-.04-.37.04-.05.23.01.2-.1-.2.01-.08-.2-.3-.14.03-.1.1-.28.04-.35.07.05.23-.05.24.04l.1-.07c.08.01-.03.07.07.05-.01-.04-.08-.17-.05-.2-.1-.08-.33-.16-.35-.3.07.06.2-.04.24.01l-.36-.18c-.01-.04.15-.01.1-.07-.05 0-.08-.02-.12-.04.01-.01 0-.06.01-.1h.66c-.01.05-.04.1-.13.1-.07.02-.04-.07-.1-.02 0 .08.06.1.07.17h-.02c-.03.05.08.16.18.1.01-.04-.1.01-.06-.04.1.04.14.13.14.22-.03-.03-.08-.03-.13-.04.14.1.2.23.25.35.1 0-.16-.05-.1-.07-.12.16.17.33 0 .46-.02-.02.12-.01.1-.01-.01.08-.14.07-.1.12-.07 0 .02.06.05.1.05.03-.04.01-.04-.03.06.07.18.36.07.52.05 0 .18.1.17.14l-.1-.02c-.07.03.01.13-.1.13.14.08-.12-.3-.01-.2-.1.03.18.15.03.13 0 .08.13.15.03.22.02-.02-.16-.06-.15 0 .02.1.05.03.1.12l.05.06c.1 0-.01.1.1.06-.1.01.06.16-.13.14l-.15-.02c.01.05.15.08.22.1-.01.01-.04.02-.07.02.22.01-.02.1.15.17-.08.1-.01.25-.15.3.07.08.15.14.1.23-.02-.02-.03-.04-.08-.05-.07.05-.01.07.03.12-.03-.01-.13.1-.2.17.07.07.2.05.26.06-.22.07.14.2-.06.3-.03-.03-.1-.1-.16-.05-.22.07.16.14.06.25l.18-.03c-.1.05.1.16-.08.15.07.04-.06.13.12.12-.15.18.1.44-.23.55.03.03 0 .1.1.08.1-.04-.07-.06 0-.08.01.02.05.03.08.03-.04.06-.05.1-.2.05-.1.12.3.13.23.3-.07-.01-.1 0-.1.05l.13.1c-.03.1-.17.06-.3.06.02.05.02.12.1.15l-.16.07c.1-.05.08.05.1.07l-.03-.03c-.05.01-.02.07 0 .1.08-.01.1-.07.13-.1.05.03.04.07.1.1-.12-.01-.1.1-.1.13-.03.05.1.06.1.07-.06 0-.01.08-.1.04-.02-.02.06-.04.01-.07-.05.03-.16.03-.08.1.06.05.24-.01.16.08-.03-.03-.08-.03-.12-.05l-.06.1h.1c-.03.01-.04 0-.05.01.12.03.04.14.17.16.01.05-.08.1-.1.14v-.01c-.07.05-.02.13.05.17h-.02c-.01.03.01.1.07.14-.08.07-.42.03-.28.1 0 .08.2.12.28.1-.07.14.1.3-.06.42.04.02.07.01.1.05-.04.2.13.42-.08.58-.05-.06-.1 0-.17 0 .1.05-.1.06.07.07.1 0 .15 0 .2-.06.05.12.05.3-.04.37.05-.03.08-.01.1.02-.16-.01-.18.08-.13.15l.1.01-.1.04c.03.03.2.03.1.1-.04 0-.08.01-.1.02.08.07.22.16.13.24l-.14.06c.02.03.1.1.14.03-.1.13-.1.2-.22.25.3.22.3.54.3.8l-.07-.01c-.07.07.13.03.08.08-.07-.02-.15.05-.24 0-.08.1.13.13.16.2.1.01-.06-.05.06-.04.03.01-.07.14.07.15-.06.02-.16.01-.22-.01l.07.06c-.17.07-.3-.17-.5-.1l.02.06c-.15.05-.17-.15-.22-.01.07.06.28.1.35.06.04.12.35.06.34.2-.1.04-.02-.1-.14-.08-.12.06.07.13.02.18.05-.06.2-.01.23.03-.07.07-.14-.04-.15.05.08.02.15.1.2.03.2.03-.05.1.1.15-.13.03-.3-.1-.38.01.13-.02.18.13.37.07-.04.04-.14.05-.22.02-.08.06.24.14-.02.16l.13.02c-.04.02-.07.05-.15.08 0 .05.18.17-.02.16.02.02.01.14.15.1.08-.07-.1-.08.1-.13-.15.05.02.1.07.15l-.08.01c.03.03.01.08.1.1-.04-.02-.1-.01-.12.01l.12.03c.06.1-.2.03-.17.13l-.1-.08c.02.02-.1.05-.05.1l.32.07c.05.06-.12.03-.01.08l-.13-.07c-.04-.01-.18.05-.17.13.04.05.2.12.25.05 0 .04-.06.1-.14.06.04.1.1-.01.18.06-.07.03-.17.13-.28.2l-.18-.08v.05c-.14-.07-.1.03-.26 0-.02.04.03.08.07.1.24-.1.33.1.55.08.06.14-.54.1-.2.24.06-.02.23.04.16-.05-.02.1.22.06.13.16-.1-.08-.22.08-.36-.03.07.01.06-.06.03-.08-.08.04-.22-.01-.22.08.02.05.03.13.14.12.13 0-.01-.08.1-.05.04.1-.15.13.08.17-.02-.07.1-.1.2-.1l.05.08-.08-.01c-.06.13.15.04.13.16l-.17.06c-.14-.03.06-.18-.17-.16-.01.08.1.1.05.2-.02-.02-.03-.04-.05-.06 0 .02-.1.03-.15.06H27.6c.05-.02.07-.06-.01-.1-.07-.06-.08-.02-.17-.02-.03-.13-.1-.17-.13-.26.17.02.02-.15.2-.05-.1.04-.1.23.07.28.2-.05-.03.1.18.13 0-.1.2-.1.33-.12.01-.03-.05-.06-.07-.08-.12-.01-.12.03-.25.03.03-.12-.03-.23-.15-.3.06-.04.18-.03.2.02-.04-.14-.02-.3.02-.42-.2.08-.05-.15-.2-.1-.05.07-.2.13-.28.1.01-.04.1 0 .13-.02-.1-.06.18-.1 0-.14.06.13.24.03.4.05-.1-.1.1 0 .1-.1a.84.84 0 0 1-.19-.31c.15-.13 0-.32 0-.44.08-.06.26-.02.3-.08 0-.08-.2.06-.1-.06l.04.01c-.04-.03.12-.2-.13-.24l.2.04c.02-.02-.03-.04-.05-.06.06 0 .12-.02.16.01.13-.07-.02-.15-.03-.22l-.1.05c-.1-.13.02-.22-.01-.34h.1l-.07-.07c.1.02.18-.05.1-.1l.27.2c-.07.05-.13-.06-.24-.03-.1.03-.07.14.04.16.01-.04-.01-.05-.05-.08.15-.01.15.05.25.1-.01-.02.04-.06-.01-.06.08.05.1.1.1.17-.06-.05-.1.03-.14.01.14.01.18.08.14.17-.16.07.1.18.06.3-.14-.04-.25-.1-.3-.17-.07.07 0 .08-.07.14.1.03.26.06.32.15h-.1c.05.08.2.08.17.18-.05.18-.05.36-.06.5h-.1c.22.08.08.25.17.35-.1.17.1.37-.08.46l.1.36h-.8a1.78 1.78 0 0 1-.03-.52l.15.05c-.1-.06.08-.04.06-.1-.12.06-.15-.08-.24-.1.1-.14-.01-.32-.1-.44l.1-.01c-.2-.12-.02-.27.01-.43.04-.02.14-.05.13-.1-.16-.08-.15-.13-.26-.25a.7.7 0 0 1 .1-.33c-.23-.34-.1-.7-.23-1.04l.12-.03c-.26-.34-.03-.77-.16-1.06l.2.03c.06-.1-.05-.2-.2-.2.06-.1-.1-.23.07-.3.04-.1-.1-.12-.12-.2.08-.2.06-.26.02-.44v.04c.04.02.13.02.14-.02-.06-.07.05-.24-.2-.18.14-.2-.12-.44.07-.63-.07.02-.08-.03-.12-.05 0-.17.13-.34.02-.47.03-.03.1.04.12-.03-.03-.04-.1 0-.12-.05-.13-.27.13-.55.1-.8-.13-.44-.07-.9-.1-1.3h.05c-.2-.14.2-.33-.1-.44.05-.03.02-.13.12-.1-.13-.1.12-.3-.04-.47 0 .01.01.02.03.04.1-.16-.04-.3.06-.48.02.02.04.05.1.05.1-.07-.2-.16.03-.2 0-.04-.12-.03-.1 0 .1-.38-.06-.78-.12-1.17.14-.28.4-.01.22-.24.05-.02-.1-.01-.04-.02-.07-.1.26-.13.14-.2-.14.02-.08-.04-.17-.04.1-.17.22-.2.1-.34h.08c-.22-.16-.1-.34-.35-.48l-.08-.9h1.84l.15 1.66c-.04.84.07 1.67-.05 2.52-.2.2-.2.22-.1.44-.03-.01-.04-.02-.07-.01.16.01.02.15.17.18-.03.32.02.6.02.93-.02-.05-.15-.08-.14-.02l.1.06-.05.01c.02.04.1.1.16.04.15.82-.18 1.62-.13 2.42-.07.2 0 .46.03.67-.22.6-.4 1.17-.23 1.8-.05.1-.47.02-.57-.23z"/><path d="M28.46 28.4c-.08.02-.13.1-.24.03.08-.01.17-.04.24-.03zm-.86 1.9c.02 0-.03.03-.05.03-.01-.02-.08-.05-.03-.06.01.02.04.02.08.03zm-.04.48c-.07-.01-.13-.1-.14-.17l.14.17zm-.3.45c-.06.04-.1.03-.1-.02.04-.01.06.01.1.02zm.17.03c0 .04-.04.06-.08.07.06 0-.04-.08.08-.07zm1.68-.76c-.01-.02-.07-.07.01-.1-.05.03.1.12-.01.1zm-.1-.47c0-.01.02-.02 0-.04.03-.03.1 0 .1.02l-.1.02zm-.32-8.3l.03.05-.07-.01zm-.02-3.63c-.05-.05.07-.03.08-.04.01.04-.1-.02-.08.04zm-.72.8h.15z"/></g><path fill="#a5191e" d="M41.65 10.6c13.9 8.22-1.78 19.4-12.95 18.25l-.06-10.7 13-7.56z"/><g class="B"><path d="M41.9 10.45c-.2-.1.03.17-.15-.03.05-.03.1-.05.15.03zm-.96.35c-.4.68-1.4.8-1.93 1.4-.07.06-.08-.2-.23-.05-.5.63-1.58 1.06-2.47 1.3l.02-.08c-.17.05-.25.32-.42.4-.02-.03.02-.08-.04-.1.02.13-.26.2-.28.33-.08 0-.13-.1-.23-.1l-.02.17c-.1.42-.62.33-.87.67 0-.04.02-.08-.02-.1-.45.48-1.15.85-1.72 1.27 0-.06-.02-.14-.08-.17.04.14-.13.28-.28.4-.15-.08-.2.28-.45.32v-.04c-.07.2-.25.05-.28.27l-.15-.05c.04.2-.26.03-.32.2l.02.03c-.1.1-.2.05-.28.14h0c-.2.2-.4.17-.32.3-.15-.06.2-.2-.02-.27-.54.47-1.25.88-1.78 1.2v.5c-.06.1-.08.17-.14.2.03.1.03.35.1.43 0-.03-.08.06-.1.1-.06.17.18.18.1.37-.04-.07-.1-.1-.15-.07.13.16.1.37.15.55-.03-.03-.04-.07-.1-.07.14.2-.03.37.06.55l-.1-.07c-.1.3.2.08.13.33-.03-.06-.07-.04-.1-.05.17.23.12.6.17.83-.01-.01-.04-.01-.04-.01.02.25-.03.5.05.8-.04.1-.23-.03-.2.23.2-.01.08.45.3.3-.03.23-.1.58-.03.74-.07-.1-.23.1-.24-.08l-.1.14c-.08-.02.02-.15-.07-.1.01.1.08.37.05.45.1.17.33.33.35.62-.07-.13-.2.08-.24-.01l.36.4c.01.1-.15.02-.1.16.05-.01.08.05.12.1-.02.04.05.4-.13.43-.07.04-.04-.15-.1-.05 0 .17.07.18.07.35h-.02c-.03.1.08.34.18.2.01-.08-.1.03-.06-.1.1.08.14.28.14.46-.03-.06-.08-.05-.13-.08.15.23.2.48.25.74.1 0-.16-.1-.1-.14-.06.16-.02.36.02.5.04.1.07.17-.02.3-.02-.02.12-.07.1-.06-.01.1-.14.17-.1.2-.07.06.02.07.05.1.05-.02-.04.05-.04 0-.01.06.2-.02.3-.02.13-.01.24-.01.33.05-.03-.05.2-.18.27-.17l-.03.1c.07.07.26-.01.27.1.17-.14-.64.12-.42.01.06.1.32-.18.27-.03.16 0 .3-.13.46-.02-.04-.02-.13.16 0 .15.22-.02.06-.05.24-.1l.1-.05c0-.1.2 0 .1-.12.03.1.32-.08.3.1l-.02.15c.1-.02.15-.16.22-.23.01.01.04.04.04.06 0-.22.23.01.33-.17.2.05.5-.05.62.07.15-.1.28-.18.46-.15-.03.03-.08.04-.08.1.12.05.14-.01.23-.07-.02.04.24.1.38.15.14-.1.07-.2.07-.28.18.2.4-.2.6-.05-.05.04-.2.16-.06.18.18.18.25-.22.5-.17l-.1-.17c.12.1.3-.18.32.01.06-.08.28 0 .2-.17.4.05.85-.33 1.16-.08.04-.05.18-.06.13-.14-.1-.07-.1.1-.15.05.04-.02.04-.07.04-.1.12 0 .2-.01.15.16.28.02.16-.37.5-.4.01.07.04.1.13.05l.13-.18c.2-.04.17.1.22.23.1-.06.23-.1.25-.2l.2.1c-.14-.07.06-.1.1-.15l-.04.05c.04.04.15-.04.2-.08-.04-.07-.18-.05-.26-.04.03-.07.12-.1.17-.18.02.12.2.01.3-.01s.06-.15.1-.16c.03.06.16-.06.12.06-.02.03-.1-.02-.13.05.08.02.12.12.22-.01.07-.1-.12-.2.1-.22-.04.05-.03.1-.05.16h.2l-.04-.1c.03.02.02.03.04.04 0-.13.25-.15.23-.3.08-.05.22-.01.3-.04l-.01.02c.13.01.24-.1.3-.2l.01.02c.06-.02.18-.1.22-.2.18.01.24.35.33.15.14-.07.12-.3.03-.33.28-.07.46-.4.77-.37.01-.06-.02-.07.03-.13.37-.2.65-.57 1.04-.58-.07.1.06.1.1.15.02-.14.16.01.08-.15-.07-.08-.1-.12-.2-.1.16-.2.46-.4.63-.4-.08 0-.06-.05-.04-.1.1.14.24.04.3-.1l-.05-.1h.13c.02-.06-.1-.2.08-.2.03.02.06.05.1.05.05-.15.12-.37.28-.42l.2.02c.04-.06.05-.2-.05-.15.24-.1.37-.22.52-.2.1-.53.5-1 .8-1.4l.05.06c.14-.07-.06-.13.04-.18.03.08.2.01.2.14.2-.1.04-.28.08-.4-.07-.07 0 .12-.1.03-.02-.04.2-.18.1-.28.07-.01.15.08.18.13v-.14c.22-.04.08.44.34.42l.04-.1c.2-.01-.02.35.18.13.01-.15-.12-.34-.23-.28.1-.24-.22-.27-.1-.5.1-.02-.07.2.05.2.16-.05.05-.26.14-.33-.1.1-.2-.07-.18-.15.12-.1.1.14.18-.02-.06-.06-.04-.24-.16-.13-.15-.14.14-.15.03-.3.14-.01.22.3.35.13-.13-.02-.08-.3-.3-.27.06-.06.16-.03.2.05.1-.08-.13-.33.12-.3l-.1-.08c.05-.02.1-.06.2-.1.02-.1-.1-.35.08-.3-.01-.04.04-.25-.1-.2-.1.12.06.18-.13.2.17-.06.02-.2-.01-.28h.08c-.02-.05.02-.15-.06-.2.03.04.1.03.12 0l-.1-.06c-.05-.2.2-.02.2-.2l.08.15c-.02-.03.1-.1.07-.18l-.3-.15c-.04-.1.12-.04.02-.14l.12.14c.03.02.2-.08.2-.23-.04-.1-.2-.22-.26-.08-.01-.07.05-.17.13-.1-.05-.15-.1.02-.2-.1.07-.06.16-.24.25-.36l.2.13v-.1c.15.1.1-.08.26-.02.02-.07-.04-.15-.1-.2-.2.23-.38-.16-.58-.06-.1-.23.5-.28.1-.47-.05.06-.23-.02-.14.12-.01-.16-.24-.04-.2-.24.14.1.16-.22.36-.06-.08.01-.01.13.02.15.06-.1.22-.05.16-.22-.06-.1-.1-.23-.2-.17-.12.05.07.15-.07.13-.1-.18.05-.28-.18-.28.06.12-.05.2-.13.22l-.1-.12.1-.01c-.03-.24-.15-.01-.23-.22l.1-.17c.16-.02.1.33.28.2-.04-.15-.2-.14-.2-.3.03.02.06.06.1.07-.02-.05.23-.24-.04-.36-.12-.07-.1.01-.16.05-.14-.2-.24-.23-.35-.34.16-.07-.15-.24.1-.2a.49.49 0 0 0 .35.42c.13-.18.07.2.28.14-.1-.18.08-.27.18-.37-.02-.06-.1-.08-.13-.1-.12.04-.08.1-.2.18a.6.6 0 0 0-.45-.4c0-.1.12-.15.18-.08-.2-.2-.34-.47-.5-.7-.04.26-.24-.2-.28.01.06.14.03.3-.1.32-.05-.07.07-.05.08-.1-.16-.01.01-.24-.2-.2.22.14.2-.13.36-.2-.2-.08.1-.07-.04-.2-.2-.08-.4-.2-.57-.32-.1-.28-.5-.45-.67-.6-.04-.14.13-.22.05-.33-.13-.1-.03.22-.16.01l.04-.01c-.08-.01-.27-.36-.48-.2l.17-.1c-.02-.04-.08-.03-.12-.04.04-.05.03-.13.1-.12-.04-.2-.26-.17-.4-.26l.02.15c-.26-.1-.36-.27-.6-.38l.07-.1-.17-.03c.1-.07.01-.2-.1-.17h.5c.06.12-.18.04-.18.17 0 .1.22.22.3.15-.07-.06-.1-.04-.17-.05.06-.15.18-.06.3-.1-.05-.02-.08-.1-.1-.06.12-.01.22.03.35.12-.12-.02-.01.1-.07.13.1-.1.24-.04.38.1.02.2.36.15.53.33-.16.05-.33.06-.47.02.07.14.13.1.2.24.12-.04.26-.13.45-.06l-.06.1c.16.08.26-.04.4.13.25.3.56.54.73.78l-.07.08c.27-.03.42.35.64.45.16.35.56.6.54.86.42.52.76 1.03.95 1.72l-.18-.07c.15.08-.05.1.01.2.07-.17.2.12.3.2-.04.34.17.7.27 1l-.2.07c.22.28.06.64-.01.98-.05.04-.15.1-.14.2.15.2.1.3.16.6-.04.2-.15.53-.3.7-.01.83-.53 1.47-.85 2.2l-.13-.02c-.24.8-1.04 1.37-1.4 1.9l-.1-.2c-.2.1-.3.36-.16.43-.2.1-.3.42-.52.38-.18.1-.13.23-.25.37-.37.2-.5.3-.78.57l.1-.05c.01-.06-.04-.13-.13-.1-.08.13-.46.27-.2.4-.42.12-.75.64-1.2.7.06.04-.02.1-.03.16-.32.18-.7.27-.92.5-.07 0 .03-.14-.1-.08-.07.06.04.08-.04.16-.47.4-1.13.4-1.6.65-.83.5-1.8.77-2.67 1.04v-.05c-.25.26-.74.01-.9.34-.08-.03-.28.04-.24-.06-.2.18-.7.04-1 .26.03 0 .05-.01.08-.04-.37-.05-.66.15-1.04.12.04-.02.1-.05.1-.1-.15-.07-.3.25-.42.02-.08.01-.04.12.01.1-.83.01-1.7.24-2.56.27-.62-.14-.02-.4-.53-.22-.06-.05-.05.1-.06.04-.32.04-.37-.3-.6-.18.01.15-.16.07-.22.15-.27-.07-.4-.13-.5-.17-.04-.04-.16 0-.16-.07 0-.08-.02-.15-.04-.24l.08-.03c-.1-.17-.13-.45-.17-.72l-.06-.4c-.03-.14-.07-.17-.13-.26l-.24-5.42V20.2l-.01-2.65 1.08-.6.57-.3c.47-.04.5-.06.85-.36 0 .04-.02.06.02.07-.06-.15.28-.18.24-.34l1.7-1c-.1.07-.07.2.04.14l.06-.16.04.03c.06-.07.1-.18 0-.18 1.42-1 3.06-1.56 4.5-2.45.38-.14.85-.5 1.2-.73 1.23-.46 2.33-.9 3.4-1.7-.03 0 .04.45-.38.8z"/><path d="M42.14 10.58c0 .1.1.2-.06.24.03-.07.01-.2.06-.24zm2.56 3.12c.02-.01.01.06.01.08-.04-.03-.12-.02-.1-.07.04.03.06 0 .1-.01zm.58.78c-.07.03-.23-.1-.3-.2l.3.2zm.22.9c-.02.1-.06.1-.1.01.03-.03.06-.01.1-.01zm.17-.03c.04.06.01.1-.01.16.06-.03-.1-.12.01-.16zm.4 1.76c.01.04.1.12.02.17.06-.05-.13-.18-.02-.17zm.2.8c0 .03-.02.04 0 .07-.04.05-.1 0-.1-.04l.1-.03zm-11.9 10.04l.1-.06v.08zm-5.13-.98c-.05-.1.07-.07.08-.1.01.1-.1-.04-.08.1zm-.38-4.16v.03l-.15-.01z"/></g><path fill="#6e945d" d="M28.12 17.5l.06 10.7c-6.47-.08-13.5-1.8-17.2-6.76l17.14-3.93z"/><g class="B"><path d="M28.4 17.63c-.03-.17-.13.1-.06-.1.06.02.1.05.06.1zm-.9-.17c-.46.5-1.27.3-1.8.66-.07.03-.03-.2-.18-.12-.5.42-1.47.46-2.22.4l.03-.07c-.14-.01-.26.22-.4.22-.01-.04.03-.06-.01-.1-.01.12-.25.1-.3.2-.07-.03-.08-.12-.17-.16l-.05.15c-.16.36-.56.1-.83.34.01-.03.03-.06 0-.1-.45.3-1.08.4-1.62.6.01-.05.01-.14-.03-.2 0 .14-.16.22-.3.28-.1-.13-.23.2-.42.15v-.03c-.1.18-.2-.04-.27.16l-.1-.1c-.01.2-.2-.06-.3.07l.01.04c-.1.07-.16-.02-.25.04v-.02c-.2.1-.36.02-.32.18-.1-.1.2-.1.04-.26-.68.33-1.43.46-2.15.63-.1-.04-.15-.05-.2-.1-.06.05-.27.1-.3.2.02-.01-.06-.07-.1-.07-.15-.03-.1.2-.26.17.05-.05.06-.1.02-.16-.1.15-.26.17-.4.24.02-.03.05-.05.03-.1-.13.17-.3.04-.42.16l.03-.1c-.25-.06-.02.2-.23.18.04-.04.02-.07.02-.1-.14.2-.45.22-.62.32.01-.01 0-.04 0-.04-.2.07-.4.06-.6.18-.1-.02-.02-.23-.23-.14.07.17-.3.15-.07.3-.15 0-.45 0-.48.07-.01-.07-.34-.16-.2-.2l-.24-.06c-.07-.06.16-.01.01-.07-.08.03-.23.14-.35.13 0 .12.2.27.1.34-.06-.04-.14-.06-.25-.1-.1-.02-.14-.02-.2-.06l.8.4c.05.04-.23-.04-.1.04.08.01.15.05.22.07-.02.02.2.16-.03.2-.08.02-.12-.08-.16-.03.08.1.17.1.25.2h-.03c.03.07.25.14.3.05-.03-.03-.1.05-.1-.02.16.01.26.07.32.13-.05-.01-.1.02-.15.03a1.05 1.05 0 0 1 .53.18c.06-.06-.16.06-.15.01.1.28.5.24.56.52-.04-.01.07-.1.05-.1.1.1 0 .18.1.2-.04.06.1.05.17.1.07-.01-.01.04-.07 0 .12.04.56.23.72.47.03-.04.24-.05.3-.01l-.1.08c.01.1.17.1.13.2.2-.04-.48-.2-.28-.2-.02.1.3 0 .2.1.1.07.27.04.32.2-.02-.03-.18.08-.08.13.16.08.07-.02.22.03h.1c.06-.1.13.1.14-.04-.03.1.25.1.14.24l-.1.1c.07.03.2-.06.27-.1 0 .02 0 .05-.01.07.12-.2.15.12.3.01.1.14.36.2.36.36.14 0 .28-.02.38.1-.03.01-.07-.01-.1.03.05.1.1.06.18.06-.03.02.1.2.16.3.14-.01.15-.14.2-.2.01.25.38.01.43.25-.05.01-.2.02-.14.12.02.25.28-.05.4.12l.03-.2c.03.14.3 0 .2.17.08-.04.18.13.23-.04.23.24.7.18.78.54.05-.01.14.05.15-.05-.04-.12-.12.04-.12-.04.04.01.06-.04.07-.06.08.07.14.1.01.2.17.17.3-.22.53-.07-.03.07-.02.1.05.1l.18-.08c.15.08.04.2.01.3.1.01.2.04.27-.03l.07.18c-.05-.13.1-.05.14-.07l-.05.02c0 .05.1.05.17.05.01-.08-.1-.14-.14-.17.06-.04.13-.01.2-.06-.05.1.12.12.2.15.07.05.12-.08.14-.07-.01.06.13.05.04.1-.03.01-.05-.08-.1-.03.04.06.01.17.14.12.1-.04.04-.24.18-.12-.05.02-.07.06-.1.1l.13.1.03-.1c.01.03 0 .04 0 .06.07-.1.24.01.3-.1.08.01.14.1.2.14v.01c.07.08.2.07.3.01l-.01.02c.05.02.16.03.24-.02.1.1-.04.42.12.3.13.02.24-.17.2-.24.2.1.5-.02.68.18.04-.04.02-.07.1-.08.32.1.72-.03.95.23-.1.03-.02.1-.03.17.1-.1.08.12.13-.05 0-.1.02-.15-.07-.2.2-.03.5.02.6.12-.05-.05 0-.08.04-.1-.03.16.1.2.23.15l.03-.1.06.1c.05-.03.07-.2.17-.1 0 .04 0 .08.02.1.12-.07.3-.2.4-.1l.1.15c.05-.01.15-.1.06-.14.2.1.34.12.4.24.2-.14.42-.2.66-.23l.2-.02a.34.34 0 0 1 .1.01l.03.07c.07.07-.04-.13.01-.08.02.07.12.16.13.24.13.08.02-.13.03-.16-.07-.1.02.06-.07-.06-.03-.04.14.08.01-.07.07.06.17.17.22.23 0-.02-.04-.06-.06-.1.08.06.17.16.24.27.04.08.06.17.2.28.01-.01.05-.01.04-.03.07.04.14.15.1.16-.01.03-.02.05.12.08-.07-.18-.28-.43-.35-.42-.04-.18-.35-.36-.34-.43.1.03.02.08.14.16.12.03-.07-.15-.03-.16-.05.02-.2-.1-.23-.12.07-.01.14.1.15.03-.08-.04-.15-.1-.2-.08-.2-.06.05-.02-.1-.06.13-.02.3.08.38.02-.13.04-.18-.18-.37-.1.04-.07.14-.08.22-.03.08-.1-.24-.25.02-.28l-.13-.03c.04-.03.07-.08.15-.13 0-.1-.18-.3.02-.28-.02-.03-.01-.23-.15-.15-.08.13.1.15-.08.22.15-.1-.02-.18-.07-.26h.08c-.03-.04-.01-.14-.1-.17.04.03.1.02.12-.02l-.12-.05c-.06-.18.2-.04.17-.22l.1.13c-.02-.03.1-.1.05-.17-.1-.03-.24-.1-.32-.12-.05-.1.12-.04.01-.14l.13.13c.04.02.18-.1.17-.22-.04-.08-.2-.2-.25-.08 0-.07.06-.16.14-.1-.04-.15-.1.02-.18-.1.07-.05.17-.22.27-.32l.18.13v-.1c.14.1.1-.06.26.01.02-.06-.03-.13-.07-.2-.24.18-.33-.2-.55-.14-.06-.24.54-.16.2-.4-.06.04-.23-.08-.16.08.02-.15-.22-.1-.13-.28.1.13.22-.14.36.05-.07-.01-.06.1-.03.14.08-.06.22.01.22-.14-.02-.1-.03-.22-.14-.2-.13 0 .01.14-.1.08-.05-.2.15-.22-.08-.3.02.12-.1.15-.2.15l-.05-.14.08.03c.06-.22-.15-.06-.13-.28l.17-.1c.14.05-.06.3.17.27.01-.14-.1-.2-.05-.32.02.03.03.07.05.1.01-.05.32-.1.13-.3-.07-.1-.08-.03-.17-.03-.03-.22-.12-.3-.13-.44.17.03.01-.26.2-.1-.1.07-.1.4.08.48.2-.08-.03.18.18.22 0-.18.2-.17.33-.2.01-.05-.05-.1-.07-.13-.12-.02-.12.04-.25.05a.57.57 0 0 0-.16-.5c.06-.07.18-.05.2.03-.04-.24-.02-.5.01-.72-.2.15-.05-.25-.2-.15-.04.12-.2.23-.28.16.01-.08.1 0 .13-.03-.1-.1.17-.15 0-.25.07.22.24.04.4.08-.1-.16.1.01.1-.15a1.72 1.72 0 0 1-.19-.52c.15-.22 0-.55-.01-.75.08-.1.26-.03.3-.15 0-.13-.2.1-.1-.1l.04.02c-.04-.06.12-.35-.14-.4l.2.06c.02-.04-.03-.07-.05-.1.06 0 .12-.04.16.01.13-.12-.02-.25-.03-.38l-.1.08c-.1-.22.02-.37-.02-.58h.1l-.07-.13c.1.03.18-.1.1-.15l.27.33c-.06.1-.13-.1-.24-.04-.1.05-.06.25.04.28.01-.08-.01-.08-.05-.14.15-.03.15.1.25.15-.01-.04.04-.1-.01-.1.08.08.1.16.1.3-.06-.1-.1.05-.14.02.14.01.18.13.14.3-.16.12.1.3.06.5-.14-.07-.25-.17-.3-.28-.07.12 0 .13-.06.25.1.06.26.1.32.25h-.1c.05.14.2.14.18.3-.05.3-.05.6-.06.84l-.1.01c.22.13.08.43.18.6-.1.3.1.64-.07.8.08.52.16.97.13 1.5l-.15-.1c.1.1-.08.06-.06.16.12-.1.15.13.24.2-.1.24.01.54.12.76h-.1c.2.2.03.47 0 .74-.04.03-.14.08-.13.16.16.14.15.22.26.43a1.89 1.89 0 0 1-.1.56c.06.17.1.24.1.5l.04.7c-.04.43.22 1.16-.4 1l-.15-.12c-.34.12-.96.1-1.38.08-.32-.03-.63-.07-.9-.02l.06-.2c-.15-.07-.37.03-.34.18-.15-.08-.4.06-.5-.12-.16-.05-.2.07-.35.1-.32-.1-.44-.1-.76-.1l.07.02c.04-.04.05-.13-.02-.15-.12.04-.4-.1-.33.15-.3-.18-.8.01-1.08-.24.02.07-.07.07-.1.1-.3-.05-.57-.23-.82-.17-.04-.04.1-.1-.02-.13-.07.01-.02.08-.1.1-.5.01-.9-.32-1.34-.4-.78-.06-1.53-.37-2.24-.6l.02-.04c-.3.1-.48-.4-.76-.2-.04-.06-.2-.1-.13-.17-.24.05-.46-.34-.8-.3.02.02.04.01.08.01-.22-.22-.52-.18-.74-.42.04 0 .1.01.12-.03-.06-.14-.34.05-.3-.2-.06-.03-.1.08-.06.1-.55-.38-1.23-.63-1.85-.97-.33-.4.2-.34-.22-.43 0-.06-.07.06-.05.02-.16-.04-.03-.35-.2-.3-.05.14-.1.02-.16.1-.2-.25-.14-.4-.4-.47l.06-.05c-.35-.02-.53-.32-.87-.3l-1.2-1.23-1.35-1.54-.04-.05c0-.01.03-.01.05-.02l.1-.03.22-.07.45-.14.94-.27 1.75-.44 4.22-.9c.38.12.4.1.75-.06-.01.03-.03.05 0 .07-.02-.16.25-.07.25-.24l1.55-.37c-.08.04-.1.18 0 .14l.08-.13.03.04c.06-.04.12-.14.04-.17 1.33-.45 2.74-.44 4.07-.78.33-.01.77-.17 1.1-.28 1.07-.02 2.03-.06 3.03-.45.07-.07.03.38-.38.57z"/><path d="M28.4 17.83c-.08.04-.13.16-.24.06.08 0 .16-.07.24-.06zm-.82 3.27c.02 0-.03.05-.05.06-.01-.04-.08-.08-.03-.1.01.04.04.03.08.05zm-.05.82c-.07-.01-.13-.2-.14-.3l.14.3zm-.3.78c-.06.07-.1.05-.1-.04.03-.01.05.02.1.04zm.16.05c0 .06-.04.1-.08.13.06 0-.04-.15.08-.13zm-.2 1.68c.01.04.07.13-.01.17.05-.04-.1-.2.01-.17zm.12.77c0 .03-.02.04 0 .06-.03.05-.1 0-.1-.04l.1-.02zm-9.9.44h.1l-.04.06zm-4.9-3.24c-.07 0 .04-.06.05-.07.02.02-.1.04-.05.07zm.15-1.16l-.02.01-.05-.14z"/></g><path fill="#557647" d="M28.17 28.2l-.01 3.17c-6.47-.08-13.5-1.8-17.2-6.76l.01-3.17c3.72 4.97 10.73 6.68 17.2 6.76z"/><g class="B"><path d="M28.44 28.3c-.03-.16-.13.1-.06-.1.07.03.1.06.06.1zm-.8-.3c-.54.38-1.2-.05-1.8.15-.07.01.03-.2-.12-.17-.58.25-1.45-.02-2.1-.34l.05-.05c-.12-.06-.3.12-.44.07 0-.04.05-.05.03-.1-.05.1-.25.01-.32.1-.05-.06-.03-.15-.08-.2l-.1.12c-.27.27-.52-.1-.84-.01.02-.03.05-.05.04-.08-.5.08-1.1-.06-1.62-.14.03-.04.07-.12.06-.18-.06.13-.23.12-.38.1-.02-.16-.28.07-.42-.06l.02-.03c-.16.1-.15-.14-.3 0l-.04-.13c-.1.18-.14-.16-.27-.1V27c-.1.02-.13-.1-.22-.1v-.03c-.22-.01-.3-.16-.35-.01-.03-.14.2.01.16-.2-.7-.08-1.37-.37-2-.67-.05-.1-.08-.13-.07-.2-.08 0-.25-.08-.34-.04.02.01 0-.1-.03-.12-.08-.1-.2.1-.3-.04.07-.01.1-.05.12-.1-.16.06-.3-.04-.44-.07.03-.01.07-.01.1-.06-.2.05-.24-.15-.4-.15l.1-.05c-.13-.2-.15.13-.28-.02.05 0 .06-.04.08-.07-.23.05-.45-.15-.63-.2.02-.01.03-.03.03-.03-.18-.08-.3-.23-.52-.3-.04-.08.15-.17-.03-.26-.1.16-.32-.14-.35.1-.12-.13-.3-.34-.43-.37.1 0 .08-.23.2-.15v-.16c.06-.05.07.1.1-.01-.06-.04-.26-.12-.3-.18-.17.01-.4.08-.58-.04.1 0 .1-.2.16-.18a.86.86 0 0 0-.38.14c-.04-.03.05-.15-.03-.16-.01.05-.05.06-.07.1-.01-.04-.14-.08-.15-.34-.01-.1.07.02.03-.1-.08-.08-.1 0-.17-.08v-.04c-.06-.1-.14-.03-.07.18.03.04-.03-.18.03-.05-.02.13-.08.1-.13.05.01-.03-.01-.12-.02-.2-.04.15-.08.16-.1.2.05.18-.07-.3-.03-.2-.13-.27-.13-.1-.17-.13-.01 0-.07-.12-.1-.18-.02-.06.12.3.1.24-.01.04-.14-.26-.1-.1-.07-.17.02.12.04.2.05.14-.04-.06-.04-.13.06.23.17.65.07.62.05.07.18.33.17.34l-.1-.15c-.07-.05.01.12-.1.02.14.24-.12-.44-.01-.2-.1-.1.18.36.03.15 0 .08.13.26.02.23.02 0-.16-.2-.15-.13.02.13.05.08.1.2l.05.08c.1.07-.02.07.1.1-.1-.03.06.14-.13.07l-.14-.06c.01.06.15.12.22.16-.01 0-.04.01-.07 0 .22.03-.02.1.15.14-.04.04-.04.1-.05.13.02.04.02.07-.02.12.05.01.1.02.14.02.05.03.1.07.12.13-.03-.01-.06-.03-.1-.01 0 .1.06.08.14.12-.04.01.01.2.01.34.12.05.2-.06.25-.1-.1.23.33.14.27.37-.05-.01-.2-.05-.17.06-.08.23.27.04.3.24l.1-.16c-.03.13.25.1.1.22.1-.01.1.2.2.04.1.3.57.37.5.73.05 0 .1.1.15.01.01-.12-.12-.01-.1-.07.03.02.07-.01.1-.03.04.1.08.14-.07.2.08.22.34-.1.5.1-.05.05-.06.1.01.12l.2-.02c.1.12-.03.2-.1.3.08.03.16.1.25.05l-.01.2c0-.14.1-.02.15-.02h-.05c-.02.05.08.1.13.1.03-.07-.03-.16-.06-.2.07-.02.1.03.2.01-.08.1.07.15.12.2.05.06.13-.05.15-.03-.03.05.1.08 0 .12-.03 0-.02-.08-.1-.06.02.07-.05.16.1.15.1-.01.1-.22.2-.07-.05 0-.08.04-.13.06l.1.13.06-.1c0 .03-.01.04-.01.05.1-.08.2.08.3-.01.07.03.1.15.14.2h-.02c.04.1.16.1.26.08l-.02.02c.04.03.14.06.22.03.06.13-.16.4.02.33.1.05.26-.1.25-.18.15.17.44.1.55.34.05-.03.04-.06.1-.06.27.16.64.15.8.44-.1.01-.05.1-.07.16.1-.07.05.13.14-.02.03-.1.06-.14-.01-.2.2.02.46.12.52.24-.03-.06.02-.08.06-.1-.07.15.05.22.17.2l.05-.1.03.12c.05-.02.1-.18.17-.05-.01.04-.01.08-.01.1.13-.04.3-.13.4-.01l.05.16c.05 0 .16-.06.1-.12.16.14.28.2.3.33.4-.18.9-.08 1.27.05l-.03.07c.1.1.08-.1.14-.04-.05.06.04.17-.06.23.13.1.22-.08.33-.1.04-.1-.1.04-.05-.07.02-.03.2.12.25-.02.03.06-.03.16-.06.22l.1-.05c.08.2-.32.24-.25.47h.1c.05.17-.27.12-.06.22.1-.05.23-.24.17-.32.2 0 .16-.32.37-.26.04.1-.17-.02-.15.1.07.14.2-.02.3.04-.1-.07.03-.2.1-.2.1.1-.1.12.05.17.04-.08.2-.1.08-.2.1-.18.15.08.25-.05.02.14-.2.28-.06.37 0-.13.24-.14.18-.34.06.05.05.15-.01.22.08.1.26-.2.25.06l.05-.12c.02.05.06.1.1.17.08.02.3-.13.25.06.03-.01.2.02.16-.12-.1-.1-.15.08-.18-.12.06.16.17.01.24-.03v.08c.04-.02.13 0 .17-.07-.04.04-.03.1 0 .12l.06-.1c.17-.04.01.2.17.2l-.13.07c.03-.02.07.1.15.07l.15-.3c.1-.03.02.13.13.03l-.13.1c-.02.03.05.2.17.2.08-.03.22-.16.1-.24.06.01.14.08.08.15.14-.02 0-.12.12-.17.04.08.18.2.26.3l-.14.17.08.01c-.12.13.04.1-.03.26.05.03.13-.02.2-.05-.14-.26.22-.3.2-.54.23-.04.1.55.35.23-.03-.06.1-.22-.05-.17.14.04.1-.2.27-.1-.13.08.1.24-.07.35.02-.07-.1-.06-.12-.05.05.1-.03.22.1.23.1-.01.2-.01.2-.12.01-.13-.13 0-.07-.12.18-.03.2.16.28-.05-.1.01-.13-.12-.12-.2l.13-.04-.03.08c.2.07.07-.15.27-.1l.08.17c-.06.14-.28-.08-.26.15.13.02.18-.1.3-.03-.03.02-.07.02-.1.04.05.01.07.32.27.15.1-.06.03-.08.04-.17.2-.01.27-.1.4-.1-.02.08.04.1.08.1.01 0 .03.01 0 .1-.06-.1-.36-.1-.44.05.06.2-.16-.04-.22.16.17.01.15.2.17.34.05.01.1-.04.12-.06.03-.12-.03-.12-.03-.25.17.04.4-.01.43-.13.03.06.04.18-.02.2.15-.03.3-.01.46.03-.2-.2.12-.04-.05-.2-.1-.05-.2-.2-.23-.28.03.01.05.1.08.13-.04-.1.18.18.1.01-.03.06.16.25.26.4.04-.1.08.1.2.12.1-.04-.02-.27-.05-.4.15-.04 0-.34 0-.43.08-.06.26 0 .3-.1 0-.12-.2.1-.1-.1l.04.02c-.04-.05.12-.33-.13-.4l.2.06c.02-.03-.03-.07-.05-.1.06 0 .12-.04.16.02.13-.1-.02-.24-.02-.36l-.1.08c-.1-.2.02-.35-.01-.55l.1.01-.07-.12c.1.03.18-.08.1-.14l.27.3c-.07.1-.13-.1-.24-.04-.1.05-.07.23.04.26.01-.07-.01-.07-.05-.13.15-.02.15.1.25.14-.01-.04.04-.1-.01-.1.07.07.1.15.1.27-.06-.08-.1.04-.14.01.14.01.18.13.14.28-.16.1.1.28.06.46-.14-.07-.25-.16-.3-.27-.07.1 0 .12-.07.23.1.06.26.08.32.25h-.1c.05.16.2.2.17.4-.03.18-.04.36-.05.53-.03.15.03.37-.06.42l-.1-.1c.05.22-.43.07-.58.16-.2-.05-.38-.04-.56-.03s-.33.01-.38-.08c-.5.04-.93.1-1.43.02l.1-.14c-.1.1-.05-.1-.14-.08.1.13-.14.14-.2.22-.22-.14-.52-.04-.73.04v-.1c-.22.16-.45-.04-.7-.1-.02-.05-.06-.15-.13-.14-.16.14-.23.13-.45.2-.15-.03-.38-.1-.5-.2-.6.14-1.12-.13-1.72-.12v-.13c-.6.1-1.23-.28-1.72-.3l.1-.18c-.12-.1-.34-.05-.35.1-.13-.1-.4-.02-.43-.2-.14-.08-.2.03-.34.01-.27-.18-.38-.2-.67-.28l.06.04c.05-.03.08-.1.02-.15-.12.01-.36-.2-.35.07-.24-.25-.72-.2-.93-.5 0 .07-.08.05-.13.08-.26-.1-.45-.38-.7-.38-.02-.05.12-.07.02-.13-.07-.01-.04.08-.13.07-.47-.1-.74-.57-1.1-.76-.7-.3-1.3-.8-1.83-1.25l.04-.03c-.3-.02-.3-.5-.62-.43-.01-.07-.14-.17-.04-.2-.23-.04-.28-.46-.6-.54.01.02.03.02.07.03-.12-.27-.37-.37-.48-.66.04.01.08.04.12.02 0-.15-.32-.06-.2-.3-.06-.07-.14.01-.1.06-.4-.35-.27-.9-.33-1.43l-.1-1.7c.14-.6.4.43.22-.36.05.02-.1-.16-.04-.1-.06-.33.26.08.14-.26-.14-.2-.08-.24-.17-.4.1-.28.22-.06.12-.63l.08.2c-.1-.47-.15-.82-.13-.98.1.08.2.12.2-.02l1.3 1.47c.46.47.92 1.06 1.42 1.47l.44.34.38.28.8.53c1.03.74 2.2 1.2 3.37 1.8.22.3.24.3.6.34-.02.03-.05.03-.03.06.07-.15.23.06.32-.08.45.18.9.28 1.38.4-.08 0-.16.12-.06.13l.12-.08v.05c.07-.01.16-.07.1-.13 1.25.17 2.4.74 3.67.84.3.1.72.08 1.04.08.93.3 1.8.52 2.8.4-.13-.01-.26.4-.67.5z"/><path d="M28.46 28.5c-.08.03-.13.15-.24.06.08-.01.17-.07.24-.06zm-.96 2.3c.02.02-.05-.03-.06-.05.01-.01-.03-.08.02-.03-.01 0 .02.04.04.08zm-.4-.06c0-.07.05-.13.08-.14a2.32 2.32 0 0 1-.08.14zm-.6-.34c-.06-.07-.04-.1.04-.1.01.04-.02.06-.04.1zm-.05.17a.1.1 0 0 1-.1-.1c0 .06.14-.03.1.1zm-1.52-.34c-.04 0-.12.05-.15-.03.03.06.2-.07.15.03zm-.73.03c-.02-.01-.03-.02-.06-.01-.04-.04.01-.1.05-.1v.1zM12.45 25.5l.08.03-.06.04zm-.62-2.28c.01-.05.04.14.05.17-.02-.02-.03-.16-.05-.17zm2.03 1.26l-.02-.01.1-.12z"/></g></svg>