<svg xmlns="http://www.w3.org/2000/svg" viewBox="0 0 52.4 38.1"><style><![CDATA[.K{fill:#202020}]]></style><path d="M41.1 9.9v2.9l-13 7.6v-2.9z" fill="#a1afb7"/><g class="K"><path d="M41.4 10c0-.1-.1.1 0 0zm-.7 0c-.2.5-.8.5-1.1.9 0 0-.1-.2-.2-.1-.2.5-.9.7-1.5.8v-.1c-.1 0-.1.3-.2.3v-.1c0 .1-.2.1-.1.3-.1 0-.1-.1-.2-.1v.1c0 .4-.4.2-.5.5v-.1c-.2.4-.7.6-1 .9 0-.1 0-.1-.1-.2 0 .1 0 .2-.1.3-.1-.1-.1.2-.3.2 0 .2-.2 0-.2.2l-.1-.1c.1.2-.2 0-.2.1s-.1 0-.2.1-.3.1-.2.2c-.1-.1.1-.1-.1-.3-.4.4-.9.7-1.4 1-.1 0-.1 0-.2-.1 0 .1-.2.1-.2.2 0 0-.1-.1-.1 0-.1 0 0 .2-.1.2v-.2c0 .2-.1.2-.2.3v-.1c0 .2-.2.1-.3.2v-.1c-.2 0 0 .2-.1.2v-.1c0 .2-.3.3-.4.4s-.3.1-.4.3c-.1 0-.1-.2-.2-.1.1.2-.2.2 0 .3-.1 0-.4.1-.4.2 0-.1-.2-.2-.1-.2h-.1c0-.1.1 0 0-.1 0 0-.1.2-.2.2 0 .1 0 .4-.1.5 0-.1-.1-.1-.1-.2v.4s-.1-.1-.1 0v.1s-.2.2-.3 0c-.1 0 .1-.1 0-.1s-.1.1-.1.2c-.1 0-.1.2 0 .2 0 0-.1-.1 0-.1 0 .1-.1.2-.1.2v-.1c0 .2 0 .3-.1.3.1.1-.1-.1-.1-.1-.1 0-.1 0-.1.1s.1.2 0 .3h.1s-.1 0-.1.1c-.1 0 0 0 0 .1 0 0 .1.2.1.3v.2h.1c-.1 0 0 .1-.1.1.1 0-.1-.2 0-.1-.1.1.2 0 0 .1 0 .1.1 0 0 .1 0 0-.2.1-.1.1 0 .1 0 0 .1 0 .1-.1 0 .1.1-.1-.1.1.1 0-.1.2l-.1.2.2-.2s0 .1-.1.1c.2-.3 0 .1.1-.1v.3c.1-.1.2-.3.2-.2l-.1.1c0 .1 0 0 .1-.1v.2c.1-.1.1-.3.1-.4 0 .3.1-.2.1 0 0 0-.1.2 0 .2 0 .2.1-.3.2-.2v-.2c0 .1 0-.1.1 0 0-.1.1 0 0-.1.2.1.4-.4.7-.1 0 0 .1-.1 0-.1-.1-.1 0 .1-.1 0v-.1c.1 0 .1 0 .1.1.2 0 0-.3.2-.4 0 .1.1.1.1 0v-.2c.1 0 .1.1.2.2 0 0 .1-.1.1-.2l.1.1c-.1-.1 0-.1 0-.1s.1 0 .1-.1-.1 0-.2 0c0-.1.1-.1.1-.2 0 .1.1 0 .2 0s0-.1 0-.1.1 0 .1.1h-.1c.1 0 .1.1.1 0s-.1-.2 0-.2v.1h.1v-.1c0-.1.1-.1.1-.3h.2c.1 0 .1-.1.2-.2l.1-.1c.1 0 .2.4.3.2.1 0 0-.3 0-.3.2 0 .3-.3.5-.2v-.1c.3-.1.4-.4.7-.3 0 .1 0 .1.1.1 0-.1.1 0 0-.1s-.1-.1-.2-.1a.76.76 0 0 1 .4-.2c-.1 0 0-.1 0-.1.1.1.2.1.2 0v-.1l.1.1s-.1-.2 0-.2c0 0 0 .1.1.1 0-.1.1-.3.2-.3l.1.1v-.1c.2 0 .3-.1.4 0 .1-.4.4-.6.7-.8v.1c.1 0 0-.1 0-.1 0 .1.1.1.1.2.2 0 .1-.2.1-.3s0 .1-.1 0c0 0 .2 0 .1-.2.1 0 .1.1.1.2v-.1c.2.1 0 .4.2.5v-.1c.1.1-.1.2.1.2 0-.1 0-.3-.1-.3.1-.1-.1-.3 0-.4.1.1-.1.1 0 .2s.1-.1.2-.1c-.1 0-.1-.2-.1-.2.1 0 0 .1.1.1 0-.1 0-.2-.1-.2-.1-.2.1 0 .1-.2.1.1 0 .3.2.3-.1-.1.1-.2-.1-.4.1 0 .1.1.1.2.1 0 0-.3.2-.1v-.1s.1 0 .2.1c.1 0 .1-.3.2-.1 0 0 .2-.1 0-.2-.1 0 0 .1-.2 0 .1.1.1-.1.1-.2v.1l.1-.1c0 .1 0 .1.1.1v-.1c.1-.1.1.2.2.1v.1h.1c0-.1-.1-.2-.1-.3s.1.1.1 0v.2s.1.1.2.1c0-.1 0-.3-.1-.3 0 0 .1 0 .1.1.1-.1-.1-.1 0-.2.1 0 .2.1.3.1v.2h.1c0 .2.1.1.1.2l.1-.1c-.2-.1 0-.4-.2-.5.1-.1.4.4.4 0 .3.1.3-.1.3 0 .1 0 0-.2.1-.2 0 .1.2.1.2.3 0-.1-.1 0-.1 0 .1.1.1.2.2.1 0-.1.1-.1.1-.2-.1-.1-.1.1-.1-.1.1-.1.2 0 .2-.2-.1.1-.2 0-.2-.1l.1-.1v.1c.2 0 0-.2.1-.2l.2.1c0 .1-.2.1-.1.3.1 0 .1-.2.2-.2v.1s.2.2.3 0c0-.1 0-.1-.1-.2.1-.1.1-.2.2-.3 0 .1.1.1.1 0v.1c-.1-.1-.3.1-.3.2.2.1-.1 0-.1.2.1-.1.2.1.3.2v-.1c0-.1-.1-.1-.2-.2.1 0 .3-.2.2-.3 0 0 .1.1.1.2.1-.1.2-.1.3-.2l-.1-.1s0-.1-.1-.1-.2-.1-.2-.1l.1.1s.2.1 0 0c.1.1.2.1.4.2-.1-.1.1.1.1 0-.1-.1-.2-.2-.2-.3.2-.1 0-.4 0-.6.1-.1.3 0 .3-.1s-.2.1-.1-.1c0 0 .1-.3-.1-.3l.2.1v-.1h.2c.1-.1 0-.2 0-.3l-.1.1c-.1-.2 0-.3 0-.4h.1-.2c.1 0 .2-.1.1-.1l.3.3c-.1.1-.1-.1-.2 0-.1 0-.1.2 0 .2v-.1c.2 0 .2.1.3.1v-.1c.1.1.1.1.1.2-.1-.1-.1 0-.1 0 .1 0 .2.1.1.2-.2.1.1.2.1.4-.1-.1-.3-.1-.3-.2-.1.1 0 .1-.1.2.1 0 .3.1.3.2h-.1c0 .1.2.1.2.2v.7h-.1c.2.1.1.3.1.4-.1 0-.1.1-.1.1-.3.1-.5.4-.7.3-.3.3-.6.5-.9.7v-.2c0 .1-.1-.1-.1 0 .1.1 0 .2 0 .3-.2 0-.3.2-.4.4 0 .3-.3.2-.5.3 0 0-.1-.1-.2-.1 0 .2-.1.2-.2.4-.1.1-.3.1-.4.1-.3.4-.7.5-1 .9l-.1-.1c-.3.4-.8.5-1.1.8l-.1-.2c-.1 0-.2.2-.1.3-.1 0-.2.2-.4.1-.1 0-.1.2-.2.2-.3.1-.3.1-.5.3h.1s0-.1-.1-.1c0 .1-.3.1-.1.3-.3 0-.4.4-.7.3v.1c-.2.1-.5.1-.5.3 0 0 0-.1-.1-.1v.1c-.2.3-.7.2-.9.4-.4.4-1 .6-1.4.9-.1.3-.4 0-.5.4-.1 0-.3.1-.2 0-.2.3-.6.2-.9.6l.1-.1c-.3 0-.6.4-.9.5 0 0 .1-.1.1-.2s-.4.5-.3.1c-.1 0-.1.2-.1.2-.1 0-.2.1-.3.2 0-.7-.1-1.3-.1-2 .1-.7.4-.2.2-.6 0 0-.1 0 0 0-.1-.2.3-.3.1-.4-.1.1-.1-.1-.2-.1.1-.3.2-.2.1-.5h.1c-.2-.3-.1-.6-.3-1v-.1l1.8-1.2 1.4-.9c1-.5 1.8-1.1 2.8-1.6.3 0 .3 0 .5-.2v.1c-.1-.1.2-.1.1-.3.4-.2.7-.4 1-.6v.1-.3c.8-.6 1.9-.9 2.8-1.4.3-.1.5-.3.7-.5.8-.2 1.5-.4 2.1-.9-.3.3-.2.8-.4 1z"/><path d="M41.4 10.2c-.1 0-.1.1-.2.1.1-.1.1-.1.2-.1zm-.9 2.2s-.1 0 0 0zm-.2.2v-.1.1zm-.5 0c-.1 0-.1-.1 0-.1v.1zm0 .1h-.1c0 .1.1-.1.1 0zm-1.2.5s0 .1-.1.1c0 0 .1-.2.1-.1zm-.4.4c-.1 0-.1 0 0 0-.1 0-.1-.1 0 0zm-9 5.5l.1-.1v.1zm-.3-1.4c0 .1 0 0 0 0zm1.9-1.6v.1l-.1-.2z"/></g><path d="M41.1 9.9l-13 7.6L15 9.9c7.2-4.1 18.9-4.1 26.1 0z" fill="#d3e7f1"/><g class="K"><path d="M41.1 10.3c.2-.1-.2-.1.1-.1 0 0 0 .1-.1.1zm-.5-.8c-.8 0-1.4-.7-2.2-.8-.1 0 .1-.2-.1-.2-.8 0-1.8-.5-2.6-.9h.1c-.2-.1-.4.1-.6 0 0 0 .1 0 0-.1-.1.1-.3 0-.4.1-.1-.1 0-.2-.1-.2l-.1.1c-.3.3-.7-.2-1.1-.1 0 0 .1 0 0-.1-.6.1-1.4-.1-2.1-.1 0 0 .1-.1 0-.2 0 .1-.3.2-.5.2-.1-.2-.3.1-.5 0-.2.1-.2-.1-.4.1l.1-.3c-.1.2-.2-.1-.4 0-.1.1-.2-.1-.3 0-.3 0-.4-.1-.4.1-.1-.1.3-.1.1-.2l-2.7.2c-.1-.1-.2-.1-.2-.1a.76.76 0 0 0-.4.2l-.1-.1c-.2-.1-.2.2-.4.1.1-.1.1-.1.1-.2-.1 0-.4 0-.5.1L25 7c-.2.2-.4 0-.5.1V7c-.3-.1-.1.2-.3.2v-.1c-.2.2-.6.2-.8.3s-.5 0-.8.2c-.1 0 0-.2-.3-.1 0 .2-.4.2-.2.3-.2 0-.6 0-.7.1.1-.1-.2-.2 0-.3l-.2-.1c0-.1.1 0 .1-.1-.1 0-.3.2-.4.1-.1.2-.2.4-.5.5.1-.1-.1-.2 0-.2l-.3.4c-.1 0-.1-.1-.2-.1v.1s-.3.1-.4 0 .1-.1 0-.1c-.2.1-.1.1-.3.2-.1 0-.3.2-.1.2.1 0-.1-.1.1-.1 0 .1-.2.2-.4.3v-.1c-.2.2-.4.3-.6.5 0 .1 0-.2.1-.1-.4 0-.5.4-.9.3l.1.1c-.1.1-.2-.1-.3 0 0-.1-.1.1-.2.1 0 .1 0 0 0-.1-.1.1-.2.3-.5.3.1 0 .1.1.1.1l-.2-.1c-.1 0-.1.1-.3 0 .1.1.1-.2.2-.1-.2 0 .1.1-.1.1-.1.1.1.1-.2.1 0 0-.2-.1-.3 0-.1 0 0 0 0 .1h.3c.2 0 .1.1.3 0-.1 0 .2.1-.1.1h-.3.4c.3-.1.1.1.4 0 0 .1.2.1.1.2h.2c.1 0 .1.1.2.1h-.1c.1.1.1.1.2.1l.2.4c.2 0 .2-.1.2-.2 0 .3.5.1.5.4-.1 0-.3 0-.2.1 0 .3.3 0 .5.2v-.2c0 .1.3.1.2.2.1 0 .2.2.3 0 .3.3.8.4.9.8.1 0 .2.1.2 0s-.1 0-.1-.1h.1c.1.1.1.1 0 .2.2.2.4-.1.6.1v.1h.2c.2.1 0 .2 0 .3.1 0 .2.1.3.1v.2c0-.1.1 0 .2 0h-.1c0 .1.1.1.2.1 0-.1-.1-.2-.1-.2h.3c-.1.1.1.2.2.2.1.1.2 0 .2 0 0 .1.1.1 0 .1 0 0 0-.1-.1-.1 0 .1 0 .2.1.2s.1-.2.2-.1c-.1 0-.1 0-.1.1l.1.1.1-.1v.1c.1-.1.3.1.4 0 .1 0 .1.2.2.2.1.1.2.1.3.1 0 0 .2.1.3.1.1.1-.2.4 0 .4.1.1.3-.1.3-.1.2.2.6.2.7.5.1 0 0-.1.1 0 .3.2.8.3 1 .7-.1 0-.1.1-.1.1.1 0 0 .1.2 0 0-.1.1-.1 0-.2.2.1.6.3.6.4 0-.1 0-.1.1-.1-.1.1 0 .2.2.3l.1-.1v.1c.1 0 .1-.1.2 0v.1c.2 0 .4 0 .5.1v.2c.1 0 .2 0 .1-.1l.2.2v.2l.1-.1c.1-.1.1-.2.2-.2l.6-.3v.1c.2 0 0-.1.1-.1 0 .1.2.1.1.2.2 0 .2-.2.3-.3 0-.1-.1.1-.1 0 0 0 .3-.1.2-.2.1 0 .1.1.1.2l.1-.1c.2.1-.1.4.1.5l.1-.1c.2.1-.2.3.1.2.2 0 .2-.3 0-.3.2-.2-.1-.4.2-.5.1 0-.2.1-.1.2.2 0 .2-.2.3-.2-.1 0-.1-.2-.1-.2.2 0 0 .2.2.1 0-.1.1-.2 0-.2 0-.2.2-.1.2-.2.1.1 0 .4.2.3-.1-.1.1-.3 0-.4.1 0 .1.1.1.2.1 0 .1-.4.3-.1v-.1s.1 0 .2.1c.1-.1.2-.3.3-.1 0 0 .2-.1.1-.2-.2 0-.1.2-.3.1.2.1.2-.1.2-.2v.1c0-.1.1-.1.1-.2 0 .1 0 .1.1.1v-.1c.2-.2.2.1.3 0l-.1.2s.1 0 .2-.1v-.4c.1-.1.1.1.2-.1V14s.2.1.3 0 .1-.3 0-.3c.1 0 .2 0 .2.1.1-.1-.1-.1 0-.2.1 0 .3 0 .5.1v.2l.1-.1c0 .2.1.1.1.2.1 0 .1-.1.2-.2-.3-.1 0-.4-.1-.6.2-.2.4.4.5-.1-.1 0 0-.2-.2-.1.2-.1 0-.3.2-.3-.1.2.3.1.1.3 0-.1-.1 0-.2.1.1 0 .1.2.3.1.1-.1.2-.2.1-.3s-.1.1-.2-.1c.2-.1.3 0 .3-.3-.1.1-.2 0-.3-.1l.1-.1v.1c.3-.1 0-.2.2-.3l.2.1c0 .1-.4.1-.2.3.2-.1.1-.2.3-.2l-.1.1c.1 0 .3.2.4-.1.1-.1 0-.1 0-.2l.4-.4c0 .2.3-.1.2.1-.1 0-.5.2-.5.4.2.1-.2.1-.2.3.2-.1.3.1.4.2.1 0 .1-.1.1-.1 0-.1-.1-.1-.2-.2.2-.1.4-.3.5-.4.1 0 .1.1.1.2.2-.2.5-.3.8-.4-.3-.1.2-.2 0-.3-.2 0-.3 0-.3-.1.1 0 0 .1.1.1 0-.1.2.1.3-.1-.2.2.1.2.1.4.1-.2 0 .1.2 0 .1-.2.3-.4.5-.5.3 0 .6-.3.8-.5.2 0 .2.2.3.2.1-.1-.2-.1 0-.1 0-.1.4-.1.4-.4v.2l.1-.1c0 .1.1.1.1.1.2 0 .3-.2.4-.3l-.1-.1c.2-.2.4-.2.6-.4v.1l.1-.1c0 .1.2.1.2 0l-.2.4c-.1 0 0-.2-.1-.2-.1-.1-.3.1-.3.2.1 0 .1-.1.1-.1.1.1 0 .2 0 .3 0 0 .1 0 .1-.1 0 .1-.1.2-.3.3.1-.1-.1-.1-.1-.1.1.1 0 .2-.2.3-.2-.1-.3.3-.5.4 0-.2.1-.3.2-.4-.2 0-.1.1-.3.1 0 .1 0 .3-.1.4l-.1-.1c-.1.1 0 .3-.2.3-.3.1-.7.3-.9.5l-.1-.1c0 .3-.4.3-.5.5-.4.1-.6.5-.9.4-.5.4-.9.7-1.5 1v-.2c0 .1-.1 0-.2 0 .2 0-.1.2-.1.3-.3.1-.6.3-.7.6l-.1-.1c-.1.3-.5.3-.8.4 0 0-.2-.1-.2 0-.1.2-.2.3-.3.5l-.6.3c-.5.5-1.2.8-1.8 1.3l-.1-.1c-.2.2-.4.4-.7.5L28 18c-.3-.1-.5-.3-.7-.4.1 0 .1-.1.2-.1-.3-.2-.5-.2-.5-.1-.1-.1-.5-.1-.5-.4-.1-.1-.3 0-.4-.1-.3-.3-.4-.3-.8-.5l.1.1c.1 0 .1-.1 0-.1s-.4-.3-.4 0c-.3-.3-.9-.4-1.1-.7 0 .1-.1 0-.1.1-.3-.2-.5-.5-.8-.5 0-.1.1-.1 0-.1s0 .1-.1.1c-.5-.2-.9-.7-1.4-.9-.8-.3-1.6-.9-2.4-1.3-.3 0-.5-.5-.8-.4 0-.1-.2-.1-.1-.2-.3 0-.5-.4-.9-.4h.1c-.2-.3-.6-.3-.8-.5h.1c-.1-.2-.4 0-.4-.3-.1-.1-.1.1-.1.1-.5-.4-1.1-.7-1.7-1-.3-.2-.6-.3-1-.5v.1c-.1 0-.1 0 0-.1l.2-.1.3-.3c1.1-.4.6.1 1-.3.1 0-.1-.1 0 0 .3-.2.7-.1.8-.2-.2-.1 0-.1 0-.2.6-.2.8-.1 1-.3v.1c.2-.3.6-.4.8-.7 1.7-.7 3.5-1.3 5.2-1.6 1.8-.2 3.5-.5 5.4-.4.4.2.5.2.9.1v.1c0-.2.3 0 .4-.2.7 0 1.3.1 2 .1-.1 0-.2.1 0 .1l.1-.1v.1c.1 0 .2-.1.1-.2 1.8.1 3.4.7 5.1 1.2.4.2.9.3 1.4.4 1.2.6 2.1 1.3 3.4 1.8-.1 0-.5.3-1 .2z"/><path d="M40.9 10.4c-.1-.1-.2 0-.2-.2.1.1.2.1.2.2zm-3.8 1.2c0 .1-.1 0 0 0v-.1.1zm-.9.5c0-.1.1-.2.2-.3l-.2.3zm-.9.2c-.1 0-.1-.1 0-.1v.1zm0 .2h-.2s.1-.1.2 0zm-1.9.8s-.1.1-.2.1c.1 0 .2-.2.2-.1zm-.7.6c-.1 0-.1 0 0 0-.2 0-.2 0 0 0zm-14.2-2.6h.1l-.1.1zm.2-2.4c.1-.1.1 0 .1.1-.1 0 0-.2-.1-.1zm3.8-1.4l-.1-.1z"/></g><path d="M28.1 17.5v3.3L15 13.2V9.9z" fill="#a1afb7"/><g class="K"><path d="M28.4 17.6c0-.1-.1.1 0 0 0-.1 0 0 0 0z"/><path d="M27.8 17.1c-.6.1-.9-.5-1.4-.5-.1 0 .1-.2 0-.2-.5 0-1.1-.5-1.5-1h.1c-.1-.1-.3 0-.4-.1 0 0 .1 0 .1-.1-.1.1-.2-.1-.3 0V15l-.1.1c-.3.2-.4-.2-.7-.2 0 0 .1 0 .1-.1-.4 0-.9-.3-1.3-.5 0 0 .1-.1.1-.2-.1.1-.2.1-.3 0 0-.1-.2 0-.3-.1-.2.1-.1-.1-.3 0v-.1c-.1.2-.1-.2-.2-.1-.1 0-.1-.1-.2-.1-.2 0-.2-.2-.3-.1 0-.1.2 0 .2-.2-.6-.1-1.1-.5-1.6-.8v-.2c-.1 0-.2-.1-.3 0v-.1c-.1-.1-.2.1-.3 0 .1 0 .1-.1.1-.1-.1.1-.3 0-.4-.1 0 0 .1 0 .1-.1-.2.1-.2-.1-.3-.1l.1-.1c-.1-.2-.1.1-.2 0l.1-.1c-.2.1-.4-.1-.5-.1-.1-.1-.3-.2-.5-.2 0-.1.1-.2 0-.2-.1.2-.3-.1-.3.2-.1-.1-.3-.3-.4-.3.1 0 0-.2.2-.2v-.1c0-.1.1.1.1 0-.1 0-.2-.1-.3-.1-.2 0-.3.2-.5.1.1 0 0-.2 0-.2-.1.1-.2.2-.2.3 0 0 0-.2-.1-.1v.1s-.1 0-.2-.3c0-.1.1 0 0-.1s-.1 0-.1 0c-.1-.1-.1 0 0 .2 0 0-.1-.2 0-.1 0 .1 0 .1-.1.1 0 0 0-.1-.1-.2v.2l.1.2c.1.1-.2-.3-.1-.2-.1 0 .2.5 0 .4l.1.1s-.1-.1-.1 0c-.1-.1 0 .1.1.1.1.1 0 0 0-.1.1.1.2.4.1.4.1 0 .2.1.2.1h-.1c-.1 0 0 .1-.1.1.1.1 0-.1 0-.1s-.1-.1 0-.1c-.1 0 .2.1 0 .1 0 .1.1.2 0 .3 0 0-.2-.1-.1 0 0 .1.1 0 .1.2l.1.1c.1 0 0 .1.1.1-.1 0 .1.2-.1.2h-.1c0 .1.1.1.2.1h-.1c.2 0 0 .1.1.1 0 0 0 .1-.1.1v.1c.1 0 .2-.1.2 0h-.1c0 .1 0 0 .1 0 0 0 0 .2.1.3.1 0 .2-.1.2-.2 0 .2.3 0 .3.3 0 0-.2 0-.1.1 0 .2.2-.1.3.1l.1-.2c0 .1.2 0 .1.2.1 0 .1.1.2 0 .1.3.5.2.5.6 0 0 .1.1.1 0s-.1 0-.1-.1c0 0 .1 0 .1-.1 0 .1.1.1 0 .2.1.2.3-.2.5 0v.1l.2-.1c.1.1 0 .2-.1.3.1 0 .1.1.2 0v.2c0-.1.1 0 .1 0 0 .1.1.1.1.1 0-.1 0-.1-.1-.2h.2c-.1.1.1.1.1.2s.1-.1.1 0 .1.1 0 .1c0 0 0-.1-.1-.1 0 .1 0 .2.1.1.1 0 .1-.2.2-.1l-.1.1.1.1.1-.1v.1c.1-.1.2.1.3 0 .1 0 .1.1.1.2s.1.1.2.1c0 0 .1.1.2 0 0 .1-.2.4 0 .3.1.1.2-.1.2-.2.1.2.4.1.4.3 0 0 0-.1.1-.1.2.2.5.2.6.5-.1 0-.1.1-.1.1.1 0 0 .1.1 0 0-.1.1-.1 0-.2.2 0 .4.1.4.3 0-.1 0-.1.1-.1-.1.1 0 .2.1.2l.1-.1v.1s.1-.2.2 0v.1c.1 0 .3-.1.3 0v.2s.1 0 .1-.1c.1.2.2.2.2.4.4-.1.8.1 1.1.3v.1c0 .1.1-.1.1 0-.1 0 0 .2-.1.2.1.1.2 0 .3 0 .1-.1-.1 0 0-.1 0 0 .1.1.2 0 0 .1-.1.1-.1.2h.1c0 .2-.3.1-.4.4h.1c0 .2-.3 0-.1.2.1 0 .3-.2.2-.3.2 0 .2-.3.4-.2 0 .1-.1 0-.2.1 0 .1.2 0 .2.1 0-.1.1-.2.1-.2 0 .1-.1.1 0 .2.1-.1.2-.1.1-.2.1-.1.1.1.2 0 0 .1-.3.2-.2.3 0-.1.2-.1.3-.3 0 .1 0 .1-.1.2 0 .1.3-.1.2.1l.1-.1v.2c.1 0 .3 0 .2.1 0 0 .2.1.2-.1 0-.1-.1 0-.1-.2 0 .2.1 0 .2 0v.1h.2s-.1.1 0 .1l.1-.1c.1 0-.1.2.1.2h-.1s0 .1.1.1l.2-.2c.1 0 0 .1.1.1l-.6.3s0 .2.1.2.2-.1.2-.2c0 0 .1.1 0 .2.1 0 0-.1.2-.1 0 .1.1.2.1.4l-.2.1h.1c-.1.1 0 .1-.1.2h.2c0-.3.3-.2.4-.4.2 0-.1.5.1.3 0-.1.1-.2 0-.2 0 0 .1-.2.1-.1s0 .2-.1.4v-.1c0 .1-.1.2 0 .2 0 0 .1 0 .1-.1v-.1s0 .2.1 0V19c0 .1 0-.2 0-.1v.2c0 .2 0-.1 0 .2 0 0 0-.1.1 0 0 0 .1.4.1.2v-.3l.1.3c-.1-.2-.1-.2-.1 0 .1.3-.1-.1 0 .2.1 0 .1.3.2.5 0-.2-.1-.2-.1-.4.1.1.1 0 .1-.1.1.1.2.3.1.3 0 0 .1 0 .2.1V20c-.2-.2 0-.2-.2-.4 0 0-.2-.2-.3-.4 0 0 .1.1.1.2-.1-.2.2.2 0-.1.1.1.2.4.4.6-.1-.2.1.2.1.1-.1-.2-.1-.4-.2-.5.1 0 0-.3 0-.4.1 0 .3.1.3 0s-.2 0-.1-.1c0 0 .1-.2-.1-.3h.2v-.1h.2c.1-.1 0-.2 0-.3l-.1.1c-.1-.2 0-.3 0-.5h.1l-.1-.1c.1 0 .2-.1.1-.1l.3.3c-.1.1-.1-.1-.2 0-.1 0-.1.2 0 .2v-.1c.1 0 .1.1.3.1v-.1c.1.1.1.1.1.2-.1-.1-.1 0-.1 0 .1 0 .2.1.1.2-.2.1.1.2.1.4-.1-.1-.3-.2-.3-.3-.1.1 0 .1-.1.2.1.1.3.1.3.3h-.1c0 .1.2.2.2.4 0 .3 0 .6-.1.8l-.1-.1c.2.4.1.5.2.8v.1c-.2-.1-.4-.1-.6-.4-.4-.1-.8-.3-1.3-.6l.1-.1c-.1.1 0-.1-.1-.1 0 .2-.2.1-.3.1h-1.1v-.1c-.2.1-.3-.2-.5-.3v-.2c-.2.1-.2 0-.4 0-.1-.1-.3-.2-.3-.3-.5 0-.8-.4-1.3-.5v-.1c-.5 0-.9-.5-1.3-.6l.1-.2c-.1-.1-.3-.1-.3 0-.1-.1-.3-.1-.3-.3-.1-.1-.2 0-.3 0-.2-.2-.3-.2-.5-.3 0 0 .1-.1 0-.1s-.3-.2-.3 0c-.1-.3-.6-.2-.7-.5 0 .1-.1 0-.1.1-.2-.1-.3-.3-.5-.3 0 0 .1-.1 0-.1s0 .1-.1.1c-.4-.1-.6-.5-.9-.6-.6-.2-1-.5-1.5-.8-.3.1-.3-.4-.5-.2 0-.1-.1-.1-.1-.2-.2 0-.3-.3-.6-.3h.1c-.1-.1-.2-.1-.3-.2-.1 0-.1 0-.1-.1 0 .2 0 .1-.1.1h.1c-.1-.1-.4 0-.3-.2-.1 0-.1.1-.1.1-.1-.1-.2-.2-.4-.2v-1.1c0-.2-.1-.4-.1-.6.1-.5.4 0 .2-.4.1 0-.1-.1 0 0-.1-.2.3-.2.1-.4-.1 0-.1-.1-.2-.2.1-.3.2-.3.1-.6l.1.1c-.2-.5-.1-.8-.3-1.4v-.5l2.5 1.3a11.94 11.94 0 0 0 1.6.8c.9.6 2 1.1 2.9 1.7.1.3.1.3.4.4v.1c.1-.1.2.1.3 0l1.1.6c-.1 0-.2.1-.1.1l.1-.1v.1c.1 0 .1 0 .1-.1 1 .4 1.8 1.2 2.7 1.7.2.2.5.3.8.4.6.6 1.1 1.1 1.9 1.4.1-.1-.2.2-.6.1z"/><path d="M28.4 17.8c-.1 0-.1.1-.2 0 0 0 .1-.1.2 0zm-.9 1.8c.1 0 0-.1 0 0-.1-.1-.1-.2-.1-.1.1 0 .1 0 .1.1zm-.1.1c0-.1-.1-.1-.1-.2v.1c.1 0 .1 0 .1.1zm-.3-.6V19v.1zm0 .3v-.1s0-.1 0 .1zm-.3-.5s-.1 0-.1-.1c-.1.1.1 0 .1.1zm-.6-.2s0-.1 0 0c-.1-.1 0-.1 0 0zm-9.7-5.3v.1zm-.9-2.5c0-.1.1.1.1.1 0 .1 0-.1-.1-.1zm1.8.6h-.1l.1-.1z"/></g><path d="M7.3 20.3v-3.2c0 1.4.4 2.7 1.3 4v3.2c-.8-1.3-1.3-2.7-1.3-4z" fill="#436685"/><g class="K"><path d="M7.1 20.2c0 .1.1 0 0 0 0 .1-.1 0 0 0zm0 .3c.4.2 0 .4.3.6 0 0-.2 0-.2.1.3.1.2.5 0 .7 0 .1.2.1.2.1h-.1c.1 0 .1.1.2.1 0 0-.1 0-.2.1h.1c.3 0 0 .2.2.2h-.1c.2.1.3.3.4.4-.1 0-.1 0-.2.1h.2c-.1.1.1 0 .1.1.2 0-.1.1.1 0l-.1.1c.2-.1-.1.1 0 .1s0 .1 0 .1c.1 0 0 .1.1 0-.1.1-.1 0-.2.1.3.1.3.3.5.5l.1.1s.1.1.1 0l-.1.1c0 .1.2-.1.1 0-.1 0-.1 0-.1.1 0 0 0-.1-.1-.1h.1c-.1 0 0-.1-.1-.1h.3c-.2-.1-.1-.1-.2-.2v-.2s.2 0 .2-.1c-.2 0-.1-.1-.3-.1 0-.1.1-.1 0-.2h.4l-.1-.1a.76.76 0 0 1-.4-.2h.2l-.4-.1s-.1-.1.1-.1h.1s-.1 0-.1-.1c0 0-.1-.1-.2 0h.1c-.1 0-.1-.1-.1-.1h.1c-.1-.1-.2-.1-.3-.2-.1 0 .2 0 .1 0 .1-.1-.2-.2 0-.3h-.1s.1 0 .1-.1c.1 0 0 0-.1-.1-.1 0 0 0 0 0-.1 0-.2-.2-.1-.3-.1 0-.2 0-.2-.1h.1c.1 0 0-.1.1-.1-.1 0 .1.2 0 .1.1 0-.2-.1 0-.1 0 0-.1-.1 0-.1h.1c0-.1-.1 0-.1-.1h-.2c.1 0-.1 0 .1 0h.1-.2c.1 0 0-.1.1-.1h-.1.1l.1-.1c.4 0 .3.1.3.2.2-.1-.2 0 0-.2 0 0 .1 0 .1-.1.2-.1-.2 0-.1-.1l-.1.1c.1-.1-.1 0 0-.1-.1 0 0-.1-.1 0 .1-.2-.2-.2.1-.4h-.1c-.1.1.1 0 0 0h-.1s0-.1.2-.1c.1-.1-.3.1-.3 0 .1 0 .1 0 .1-.1h-.1c0-.1.1-.1.3-.2 0 0 0-.1-.1 0l.1-.1c-.1.1-.1 0-.1 0 .1 0 0 0 0-.1-.1 0-.1.1-.1.1h-.1c.1 0 .1-.1.1-.1h-.1c.1 0 0 0 .1-.1 0 0-.1 0 0 0l.1-.1c-.1 0-.2.1-.2 0h.1v-.1h-.1.1c-.1 0-.1-.1-.2 0l.1-.1c.1 0 0-.1-.1-.1h-.1c.1-.1.4-.1.2-.1h-.3c.1-.1-.2-.1 0-.3h-.1c0-.1-.2-.2 0-.4h.2c-.1 0 .1-.1-.1 0-.1 0-.2 0-.2.1-.1-.1-.1-.2 0-.2H7c.2 0 .2-.1.1-.1H7h.1c-.1 0-.2-.1-.2-.1L7 18h-.1c-.2 0-.2 0-.1-.1-.3-.1-.3-.3-.3-.4h.1c.1 0-.1 0-.1 0h.2c.1-.1-.1-.1-.2-.1s.1 0-.1 0c0 0 .1-.1-.1-.1h.1c.2 0 .3.1.5 0 .2 0 .2.1.2 0-.1 0-.3-.1-.3 0 0-.1-.3 0-.3-.1.1 0 0 .1.1 0 .1 0 0 0 0-.1h.1-.2 1.3c.1 0 .2.1.2 0 .2 0-.1 0 .1.1h-.4c.1 0 .2.1.4 0h-.2c-.1 0 .2.1 0 .1H8h-.2s.2.1 0 .1c0 0 0 .1.1 0 .1 0-.1 0 .1-.1-.1 0 0 .1.1.1h.2c.1.1-.2 0-.2.1h-.2.3c.1 0-.1 0 0 0h-.1s-.2 0-.2.1c0 0 .2.1.3 0h-.1.2c-.1.3-.2.4-.3.4h-.5l.1.1c.2 0 .3.1.5 0 .1.1-.5 0-.2.1h.2s.2 0 .1.1h-.6s0 .1.1.1h.1c0 .1-.2.1.1.1h.2c-.1.1.1 0 .1.1H8c-.1 0 .1-.1-.2-.1l.1.1h-.1s-.3 0-.1.1h.2c0 .1.1.1.1.1-.2 0 0 .1-.2 0 .1 0 .1-.1-.1-.1s0-.1-.2-.1c0 .1-.2 0-.3.1h.4c0 .1 0 .1.2.2h-.2v.2c.2 0 .1.1.2 0 0 0 .2-.1.3 0H8c.1 0-.2 0 0 .1-.1-.1-.2 0-.4 0 .1 0-.1 0-.1 0 .1 0 .2.1.2.2-.2.1 0 .2 0 .2h-.2s-.1.1.1.1h-.3c-.1 0 0 .1 0 .1h.1c.1.1 0 .1 0 .2h-.1c.1 0 .1-.1 0-.1h.1-.3c-.1 0-.1 0-.1-.1h.1c-.1 0-.2 0-.1-.1.2 0-.1-.1-.1-.1.1 0 .3.1.3.1.1 0 0 0 .1-.1-.1 0-.3 0-.3-.1h.1c-.1 0-.2 0-.2-.1.1-.1.1-.2.1-.2h.1c-.2-.1-.1-.2-.2-.2.1-.1-.1-.2.1-.3-.1-.2-.2-.3-.1-.5h.2c-.1 0 .1 0 .1 0-.1 0-.2 0-.2-.1.1-.1 0-.2-.1-.2H7c-.2-.1 0-.1 0-.2h.1c-.2 0-.2-.1-.3-.1 0 0 0-.1.1-.2-.1-.1-.1-.2-.1-.3H8c0 .1 0 .2.1.3H8c.3.1.1.4.2.5H8c-.1 0 .1.1.2.1-.1 0 .1.1-.1.1 0 0 .1 0 .1.1-.1.1 0 .1 0 .2h-.1c.1 0 0 .1.2 0-.1.1.2.2 0 .3h.1c0 .1-.1.2.1.2h-.1.1c.2.1 0 .3 0 .4.2.1.2.4.4.5.2 0-.1.2.2.1 0 0 0 .1-.1.1.1 0 0 .2.1.2v.1c.1 0 .1.1.1.2h-.1c-.1.1.3 0 .1.1h.1c.1.1.1.3.1.5s.1.3.1.4c-.1.1-.4 0-.2.1-.1 0 .1 0 0 0 .1 0-.3.1-.1.1h.2c-.1.2-.3.3-.2.3h-.1c.2.1.1.2.4.3 0 .5.2.9.2 1.4v.6l.1 3.4-2-2.8c-.2-.2-.3-.5-.4-.8.1-.2.1-.2 0-.3h.1c-.2.1-.1-.1-.2 0-.2-.2-.3-.4-.3-.6h-.2c-.3-.4-.2-1-.3-1.5 0-.1-.1-.3-.1-.4.2-.4.3-.7.2-1.1 0 .1.4.1.5.3z"/><path d="M7 20.2zm.9-1s0-.1 0 0c0-.1.1 0 0 0zm0-.3c.1 0 .2.1.2.1l-.2-.1zm.3-.3c.1.1.1.1 0 0zm-.1 0zm.2-.5s-.1 0 0 0c-.1 0 .1 0 0 0zm-.1-.2c0-.1 0-.1 0 0 0-.1.1-.1 0 0zm-.3 3h-.1.1zm.2 1.6c.1 0-.1 0 0 0-.1 0 0 0 0 0zm.4 1h.1z"/></g><path d="M25.8 17.2v3.6L8.6 24.3v-3.2z" fill="#39576c"/><g class="K"><path d="M26.1 17.3c0-.1-.1.1-.1-.1.1 0 .1 0 .1.1zm-.8-.2c-.4.5-1.1.3-1.6.6-.1 0 0-.2-.2-.1-.5.4-1.3.4-2 .3v-.1c-.1 0-.2.2-.4.2v-.1c0 .1-.2.1-.3.2-.1 0-.1-.1-.1-.2v.1c-.1.4-.5.1-.7.3v-.1c-.4.3-1 .4-1.4.6v-.2c0 .1-.1.2-.3.3-.1-.1-.2.2-.4.1-.1.2-.2 0-.2.1l-.1-.1c0 .2-.2-.1-.3.1-.1.1-.1 0-.2 0-.2.1-.3 0-.3.2-.1-.1.2-.1 0-.3-.6.3-1.3.4-1.9.6-.1 0-.1 0-.2-.1-.1 0-.2.1-.3.2l-.1-.1c-.1 0-.1.2-.2.2 0 0 .1-.1 0-.2-.1.1-.2.2-.4.2v-.1c-.1.2-.3 0-.4.1v-.1c-.2-.1 0 .2-.2.2v-.1c-.1.2-.4.2-.5.3-.2.1-.4 0-.5.2-.1 0 0-.2-.2-.1.1.2-.3.1-.1.3-.2 0-.4 0-.5.1.1-.1-.1-.2 0-.3l-.1-.1c0-.1.1 0 .1-.1-.1 0-.2.1-.3.1-.1.1-.2.4-.4.4.1-.1-.1-.2 0-.2l-.1.6c-.1 0-.1-.1-.1-.1v.1s-.3.1-.3-.1c0-.1.1-.1 0-.1s-.1.1-.2.1-.2.1-.1.2c.1 0-.1-.1.1-.1-.1.1-.1.2-.2.2v-.1c-.1.2-.1.2-.2.3.1.1-.1-.1 0-.1h-.2c0 .1.1.3 0 .3h.1c0 .1-.1 0-.1.1-.1 0 0 .1.1.1s.2.5.1.7c.1 0 .2.1.2.2h-.1c-.1.1 0 .2-.1.2.1 0 0 0 0-.1s-.1-.2 0-.1c-.1 0 .2.2 0 .2 0 .1.1.1 0 .2h-.1c0 .1.1 0 .1.1h.1c.1-.1 0 .1.1 0-.1.1.1.1-.1.2l-.6.1s.1 0 .2-.1l-.1.1c.2-.2 0 .1.1 0 0 0 .1 0 .1.1.1-.1.2-.2.2-.1l-.1.1c0 .1.1 0 .1 0s.1.1.1.2c.1-.1 0-.2 0-.3 0 .2.2-.2.4 0 0 0-.1.1 0 .2.1.2.2-.2.4-.1l-.1-.2c.1.1.2-.1.2 0 0-.1.2 0 .1-.1.3.1.6-.2.9.1 0 0 .1 0 .1-.1-.1-.1-.1.1-.1 0v-.1c.1 0 .2 0 .1.2.2.1.1-.3.4-.3 0 .1 0 .1.1.1l.1-.1c.2 0 .1.1.1.3.1 0 .2 0 .2-.1l.1.1c.2-.4.3-.4.3-.4h.2c0-.1-.1-.1-.2-.1 0-.1.1-.1.1-.1 0 .1.1.1.2.1s.1-.1.1-.1c0 .1.1 0 .1.1h-.1c.1 0 .1.1.2 0s-.1-.2.1-.2c0 0 0 .1-.1.1h.1v-.1c0-.1.2-.1.2-.2h.2c.1 0 .2 0 .2-.1.1 0 .1 0 .2-.1.1.1.1.4.2.2.1 0 .1-.2.1-.3.2 0 .4-.2.6-.1 0 0 0-.1.1-.1.3 0 .6-.3.9-.1-.1.1 0 .1 0 .2 0-.1.1.1.1-.1 0-.1 0-.1-.1-.2.2-.1.4-.1.5-.1-.1 0 0-.1 0-.1 0 .2.1.2.2.1v-.1l.1.1s0-.2.1-.1v.1c.1-.1.2-.3.3-.2l.1.1s.1-.1 0-.1c.2 0 .3 0 .4.1.3-.4.7-.5 1.1-.5v.1c.1 0 0-.1.1-.1 0 .1.1.1 0 .2.2 0 .2-.2.3-.2 0-.1-.1.1-.1 0 0 0 .2 0 .2-.1v.2l.1-.1c.1.1-.2.4 0 .5h.1c.1.1-.2.2 0 .2.1-.1.1-.3 0-.4.2-.1 0-.4.2-.4.1.1-.2 0-.1.2.1.1.2-.1.3-.1-.1 0 0-.2 0-.2.1 0 0 .1.1.1 0-.1.1-.2 0-.2 0-.2.2 0 .2-.1.1.1-.1.3.1.4 0-.1.2-.2 0-.4.1 0 .1.1.1.2.1.1.2-.3.3 0v-.1l.1.1c.1 0 .2-.2.3 0 0 0 .2 0 .1-.2-.1-.1-.1.1-.2 0 .1.1.2 0 .2-.1v.1s.1 0 .1-.1v.1-.1c.1-.1.1.2.2.1l-.1.1s.1.1.2 0v-.3c.1-.1.1.1.1 0l-.1.1s.1.2.2.1c.1 0 .1-.2 0-.3.1 0 .1 0 .1.1.1-.1 0-.1.1-.2.1.1.2.1.3.2l-.1.2h.1c-.1.2.1.1 0 .3.1 0 .1 0 .1-.1-.2-.2.1-.4 0-.6.2-.1.2.5.4.1 0 0 0-.2-.1-.1.1 0 0-.2.2-.2-.1.1.2.2 0 .4 0-.1-.1 0-.1 0 .1.1 0 .2.2.2.1 0 .2-.1.1-.2 0-.1-.1 0-.1-.1.1-.1.2.1.2-.1-.1 0-.1-.1-.2-.2l.1-.1v.1c.2 0 0-.2.2-.2l.1.1c0 .1-.3 0-.2.2.1 0 .1-.1.3-.1 0 0-.1 0-.1.1 0 0 .1.3.3.1.1-.1 0-.1 0-.2.1 0 0-.1 0-.1.1.2.1 0 .1.2-.1-.1-.1-.1-.1.1.1.2-.1 0-.1.2.2 0 .2.2.2.3l.1-.1c0-.1-.1-.1-.1-.2.1 0 .2-.1.2-.2.1 0 .1.2.1.2.1 0 .1 0 .2-.1v-.1c-.2 0 0-.2-.2-.2 0 0-.2 0-.3-.1 0 0 .1 0 .1.1-.1-.1.2 0 0-.1.1.1.2.1.4.2-.1-.1.1 0 .1 0l-.2-.4c.1-.2 0-.5 0-.7.1-.1.3 0 .3-.1s-.2.1-.1-.1c0 0 .1-.3-.1-.4h.2v-.1h.2c.1-.1 0-.2 0-.3l-.1.1c-.1-.2 0-.3 0-.5h.1l-.1-.1c.1 0 .2-.1.1-.1l.3.3c-.1.1-.1-.1-.2 0-.1 0-.1.2 0 .3V18c.1 0 .1.1.3.1V18c.1.1.1.1.1.3-.1-.1-.1 0-.1 0 .1 0 .2.1.1.3-.2.1.1.3.1.4-.1-.1-.3-.1-.3-.3-.1.1 0 .1-.1.2.1 0 .3.1.3.2h-.1c0 .1.2.1.2.3 0 .3 0 .5-.1.8h-.1c.2.2.1.5.2.8v.2c-.3 0-.5.2-.8.1-.3.1-.5.2-.7.3s-.4.1-.7.1v-.2c-.1.1-.1-.1-.1 0 .1.1-.1.2-.1.3-.2-.1-.5.1-.6.2v-.1c-.1.2-.4.1-.6.1 0 0-.1-.1-.2-.1.5.1.4.1.2.2h-.5c-.5.3-1 .3-1.5.5v-.1c-.5.4-1.1.3-1.5.5v-.2c-.1 0-.3.1-.2.3-.1 0-.3.2-.4 0-.1 0-.1.1-.3.2-.3 0-.4 0-.6.1h.1s0-.1-.1-.1c-.1.1-.4 0-.2.2-.3-.1-.6.2-.9.1 0 .1 0 .1-.1.1-.3 0-.5 0-.7.1-.1 0 0-.1-.1-.1s0 .1-.1.1c-.4.2-.8 0-1.2.1-.6.3-1.3.3-1.9.5-.2.2-.5-.1-.6.2-.1 0-.2 0-.2-.1-.1.2-.5 0-.7.2h.1c-.3-.1-.7.2-1.1.2.1 0 .1-.1.2-.1-.1-.1-.5.3-.4.1-.1 0-.1.1-.1.1-.5 0-.7 0-1 .1L7.9 23c.1-.5.4 0 .2-.4.1 0-.1 0 0 0-.1-.1.3-.2.1-.3-.1 0-.1-.1-.2-.1.1-.3.2-.3.1-.6h.1c-.2-.4-.1-.8-.3-1.2v-.1l.8-.2.8-.1.9-.3c.6-.2 1.2-.4 1.9-.5 1.3-.2 2.4-.6 3.7-.8a.85.85 0 0 0 .7 0v.1c0-.2.2-.1.2-.2l1.4-.3c-.1 0-.1.2 0 .1l.1-.1c.1 0 .1-.1 0-.2 1.2-.4 2.4-.4 3.6-.7a1.93 1.93 0 0 0 1-.3c1 0 1.8 0 2.7-.4-.1.1-.1.5-.4.7z"/><path d="M26.1 17.4c-.1 0-.1.1-.2 0 0 .1.1 0 .2 0zm-.9 2.7s-.1 0 0 0c-.1 0 0 0 0 0zm-.1.3v-.1.1zm-.4-.3c-.1 0 0-.1 0 0z"/><path d="M24.7 20.3c-.1 0-.1 0-.1-.1 0 .1.1 0 .1.1zm-1.5.1s-.1.1-.1 0c0 0 .1-.1.1 0zm-.6.2c-.1 0-.1 0 0 0-.1 0-.1-.1 0 0zm-12.3 2.8l.1-.1v.1zm-.8-1.9c0-.1 0 0 0 0s0-.1 0 0zm2.6-1v-.2z"/></g><path d="M12.7,9.6l13.1,7.6L8.6,21.1C6,17.2,7.3,12.7,12.7,9.6z" fill="#4e7694"/><g class="K"><path d="M12.9 9.4c-.2-.1 0 .2-.1 0 .1 0 .1-.1.1 0z"/><path d="M12.1 9.7c-.3.6-1.1.7-1.4 1.3 0 .1-.1-.2-.2 0-.3.6-1 1.1-1.6 1.5v-.1c-.1.1-.1.3-.2.4 0 0 0-.1-.1-.1.1.1-.1.3-.1.4h-.2l.1.1c.1.4-.3.5-.3.8 0 0 0-.1-.1-.1l-.4 1.7s-.1-.1-.2-.1c.1.1.1.2.1.4-.2 0 .1.3 0 .4.1.1-.1.2.1.3l-.1.1c.2.1-.1.2 0 .3s-.1.1 0 .2c.1.2 0 .4.1.3-.1.1-.1-.2-.3-.1l.7 2.1c0 .1 0 .2-.1.2.1 0 .2.2.2.3 0 0-.1.1 0 .1 0 .1.2 0 .2.2h-.1c.2 0 .2.2.3.3h-.1c.1 0 .1.1.1.1s0 .1.1.1c0 0 .1 0 .1-.1l-.1.1c.2.1.1-.2.3-.2-.1 0 0 .1-.1.1.2-.2.4-.2.6-.3s.4-.1.6-.2c.1 0 0 .2.2.1-.1-.2.3-.1.2-.3.2 0 .5 0 .6-.1-.1.1.1.2 0 .3l.1.1c0 .1-.1 0-.1.1.1 0 .3-.1.3-.1.1-.1.2-.4.4-.5-.1.1.1.2 0 .2l.2-.4c.1 0 .1.1.1.1s0-.1.1-.1c0 0 .3-.1.4.1.1.1-.1.1 0 .1s.1-.1.3-.1c.1 0 .2-.1.1-.2-.1 0 .1.1-.1.1 0-.1.2-.2.3-.2v.1c.1-.2.3-.3.5-.4 0-.1 0 .2-.1.1.3.1.5-.3.8-.2 0 0-.1-.1 0-.1s.1.1.2 0c0 .1.1 0 .2-.1 0-.1 0 0 0 0 .1-.1.5-.3.8-.3 0 0 .1-.2.2-.2v.1c.1 0 .2-.1.2 0 .1-.2-.5.2-.3.1.1.1.2-.2.2-.1.1 0 .2-.2.4-.1 0 0-.1.2 0 .1.2-.1 0-.1.2-.1l.1-.1c0-.1.2 0 .1-.1 0 .1.2-.1.3.1v.1c.1 0 .1-.2.1-.3v.1c0-.2.2 0 .2-.2.2 0 .4-.1.5 0 .1-.1.2-.2.4-.2 0 0-.1 0-.1.1.1 0 .1 0 .2-.1 0 0 .2.1.3.1.1-.1 0-.2 0-.3.2.2.3-.2.5-.1 0 0-.1.1 0 .2.2.2.2-.2.4-.1l.1.5c.1.1.2-.2.3 0 0-.1.2 0 .2-.2.3.1.7-.3 1 0 0 0 .1 0 .1-.1-.1-.1-.1.1-.1 0v-.1c.1 0 .2 0 .1.2.2.1.1-.3.4-.3 0 .1 0 .1.1.1l.1-.2c.2 0 .1.1.2.3.1 0 .2-.1.2-.2l.1.1c-.1-.1.1-.1.1-.1h.2c0-.1-.1-.1-.2-.1 0-.1.1-.1.2-.1 0 .1.2 0 .2 0 .1 0 .1-.1.1-.1 0 .1.1 0 .1.1h-.1c.1 0 .1.1.2 0s-.1-.2.1-.2v.1h.1v-.1c0-.1.1-.1 0-.2h.2c.1 0 .1 0 .1-.1 0 0 .1 0 0-.1.1 0 .6.3.5.2.1 0-.2-.2-.3-.2.2 0 0-.1.4 0-.1 0-.1 0-.2-.1h.1c-.1 0-.1 0 .1-.1h.4c-.3 0 .2 0-.2 0h-.4c-.2 0-.3-.1-.1-.1h-.2c.3 0 .3 0 .1-.1h-.5l.1-.1s-.1 0-.1.1v-.2h-.3c-.1 0-.2 0-.3-.1l-.6-.3v-.1c-.1-.1-.1.1-.2 0 .1 0 0-.2.1-.2-.1-.1-.3 0-.4 0-.1.1.1 0 0 .1 0 0-.2-.2-.3-.1 0-.1.1-.1.1-.2h-.1c0-.2.4-.1.4-.4h-.1c0-.2.3 0 .1-.2-.1 0-.3.1-.3.3-.2-.1-.3.3-.5.1 0-.1.2.1.2-.1s-.2-.1-.3-.1c.1.1-.1.2-.2.2-.1-.1.1-.1 0-.2-.1.1-.2 0-.1.1-.1.1-.1-.1-.3-.1 0-.1.3-.2.2-.3 0 .1-.3 0-.3.3 0-.1 0-.2.1-.2 0-.1-.3.1-.2-.2l-.1.1v-.2c-.1-.1-.3 0-.2-.2 0 0-.2-.1-.2.1.1.1.2 0 .1.2 0-.2-.2-.1-.3-.1v-.1s-.1-.1-.2 0c0 0 .1-.1 0-.1l-.1.1c-.2 0 .1-.2-.1-.3h.2s0-.1-.1-.1c-.1.1-.2.2-.3.2s0-.1-.1-.1l.2-.1s0-.2-.1-.3c-.1 0-.3.1-.2.2-.1 0-.1-.1 0-.2-.1 0 0 .1-.2.1 0-.1-.1-.3-.1-.4l.2-.1-.1-.1c.2-.1 0-.1.1-.2 0-.1-.1 0-.2 0 0 .3-.3.2-.4.4-.2-.1.1-.5-.3-.4 0 .1-.2.2 0 .2-.1-.1-.2.1-.3 0 .2 0 0-.3.2-.3 0 .1.1.1.1.1 0-.1.1-.2 0-.3-.1 0-.2-.1-.3 0s.1.1 0 .1c-.2-.1-.1-.2-.3-.1.1 0 .1.2 0 .2h-.1l.1-.1c-.2-.2-.1.1-.3 0v-.2c.1-.1.2.2.3 0-.1-.1-.2 0-.3-.1h.1s.1-.3-.2-.3c-.1 0-.1.1-.1.1-.2-.1-.3 0-.4-.1.1-.1-.2-.1 0-.2 0 .1.3.3.4.2 0-.2.1.1.3 0-.1-.1 0-.3 0-.4h-.1c-.1.1 0 .1-.1.2-.1-.1-.4-.2-.5-.1 0-.1 0-.2.1-.1-.2-.1-.4-.2-.6-.4 0 .2-.2-.1-.2.1.1.1.1.3 0 .3-.1-.1.1-.1 0-.1-.1.1 0-.2-.2-.1.2.1.2-.2.3-.3-.2 0 .1-.1-.1-.2-.2 0-.4 0-.5-.1-.1-.2-.5-.3-.6-.4s.1-.2 0-.3 0 .2-.1.1c-.1 0-.2-.3-.4-.1l.1-.1h-.1c0-.1 0-.1.1-.1 0-.2-.2-.1-.3-.2v.1c-.2 0-.3-.2-.5-.3l.1-.1h-.1c.1-.1 0-.2-.1-.1l.4-.1c.1.1-.1.1-.2.2 0 .1.2.2.3.1-.1-.1-.1 0-.1 0 .1-.1.1-.1.3-.1 0 0-.1-.1-.1 0 .1 0 .2 0 .3.1-.1 0 0 .1-.1.1.1-.1.2-.1.3 0 0 .2.3.1.4.2-.1.1-.3.1-.4.1l.2.2c.1-.1.2-.2.4-.2v.1c.1 0 .2-.1.4 0 .2.2.5.3.7.5v.1c.2-.1.4.1.6.1.2.2.6.2.6.4.5.2.9.3 1.3.6l-.1.1c.1-.1 0 .1.1.1 0-.2.2-.1.3-.1.1.2.5.3.7.3v.1c.3-.1.4.2.6.4 0 .1 0 .2.1.2.2-.1.3 0 .5 0 .1.1.3.2.4.4.6.1 1 .5 1.6.7v.1c.3 0 .6.2.9.4s.5.3.9.5l-.1.6c.1.2.5.2.6.1.1.2.7.3.6.4.2.1.4.1.6.2.4.3.5.4 1 .6l-.1-.1h-.3c.3.1.4.3.9.3.1.1.3.2.5.3-.3.1-.6.2-1.2.2.2 0 .1.1.1.1-.5.1-1.2.1-1.4.3-.1 0 0-.1-.2-.1-.1 0 .1.1 0 .1-.3.1-.8.2-1.2.3-.4 0-.8.1-1 .1-.7.3-1.5.4-2.1.6-.2.2-.6-.1-.7.3-.1 0-.2 0-.2-.1-.1.2-.5 0-.8.2h.1c-.3 0-.5.1-.8.1 0 0 .1 0 .1-.1-.1-.1-.2.3-.3 0-.1 0 0 .1 0 .1-.6 0-1.3.4-1.9.5-.5 0-.1-.4-.4-.1 0 0 0 .1 0 0-.1.1-.3-.2-.4-.1.1.1-.1.1 0 .2-.3 0-.4-.1-.6 0v-.1c-.2.3-.5.2-.7.5L10 21.5l-.6.1-1 .2-.3.1c-.1 0-.2.1-.2 0l-.3-.4-.5-.9c-.4-.7-.7-1.5-.8-2.3.1-.4.1-.4 0-.9h.1c-.2 0 0-.3-.2-.3v-.9c0-.3.1-.6.1-.9 0 .1.1.2.1.1s-.1-.1-.1-.1h.1c0-.1-.1-.2-.1-.1.3-1.6 1.4-2.8 2.3-3.9.3-.2.6-.6.9-.9 1-.6 1.9-1 2.7-1.7.2.3.2.7-.1 1z"/><path d="M13.1 9.5c0 .1.1.2-.1.2.1 0 .1-.1.1-.2zm2.4 2.3s0 .1 0 0c0 .1-.1.1 0 0-.1.1-.1.1 0 0zm.6.5c0 .1-.2 0-.3 0h.3zm.6.6c0 .1-.1.1 0 0-.1.1-.1 0 0 0zm.1-.1c.1 0 .1.1.1.1s-.2 0-.1-.1zm1.3 1s.1 0 .1.1c0-.1-.2 0-.1-.1zm.7.3c.1.1.1.1 0 0zm.6 4l.1-.1v.1zm-6 1.3c0 .1 0 0 0 0s-.1.1 0 0zm-3.1 1.1v.2z"/></g><path d="M47.1 18.2c1.8 9.6-9.8 14-18.4 13.8v-3.2c7.2.2 18-3 18.4-10.6z" fill="#a23a54"/><g class="K"><path d="M47.4 18.3c0-.2-.1.1-.1-.1.1 0 .1 0 .1.1zm-.6.5c.3.7-.3 1.4-.3 2.1 0 .1-.2-.1-.2.1 0 .4-.2.8-.5 1.1s-.7.6-1 .9v-.1c-.1.1-.1.3-.3.4 0 0 0-.1-.1-.1.1.1-.2.2-.2.4-.1 0-.1-.1-.2 0v.2c0 .4-.5.4-.7.7v-.1c-.3.5-.9.9-1.4 1.3 0 0 0-.1-.1-.2a.76.76 0 0 1-.2.4c-.1-.1-.2.3-.4.3-.1.2-.2 0-.3.2l-.1-.1c0 .2-.2 0-.3.1s-.2 0-.3.1c-.2.1-.4.1-.3.3-.1-.1.2-.1 0-.3-.7.5-1.5.8-2.3 1-.1 0-.2 0-.2-.1-.1 0-.3.1-.3.2l-.1-.1c-.2 0-.1.2-.3.2 0-.1.1-.1 0-.2-.1.2-.3.2-.4.3v-.1c-.1.2-.3.1-.5.2v-.1c-.3 0 0 .2-.3.2v-.1c-.2.2-.5.2-.7.3s-.5.1-.7.2c-.1 0 0-.2-.2-.1 0 .2-.4.1-.2.3-.2 0-.5 0-.7.1.1-.1-.1-.2 0-.3l-.1-.1c0-.1.1 0 .1-.1-.1 0-.3.1-.4.1-.1.1-.3.4-.5.4.1-.1-.1-.2 0-.2l-.1.5c-.1 0 0-.1-.1-.1 0 0 0 .1-.1.1 0 0-.4.1-.4-.1 0-.1.1 0 0-.1-.2 0-.2.1-.3.1s-.3.1-.2.2c.1 0 0-.1.1-.1-.1.1-.3.1-.4.2 0 0 0-.1.1-.1-.2.2-.5.2-.6.3 0 .1 0-.2.1-.1-.3-.1-.4.2-.6 0l.1.1c-.1 0-.2-.1-.2-.1-.1-.1-.1 0-.1 0l-.1.1v.5s.2.1.2.2h-.1c-.1.1 0 .2-.1.3.1.1 0-.1 0-.2s-.1-.2 0-.1c-.1 0 .2.2 0 .2 0 .1.1.3 0 .4 0 0-.2-.1-.1 0 0 .2 0 .1.1.2v.1c.1 0 0 .2.1.1-.1 0 .1.1-.1.2h-.1c0 .1.1.1.2.1h-.1c.2-.1 0 .1.1.1v.2s.1 0 0 .1c.1-.1.2-.1.3-.1l-.1.1c0 .1.1 0 .1 0l.2.2c.1-.1.1-.2.1-.3.1.2.4-.1.5 0 0 0-.2.1-.1.2.1.2.3-.2.5-.1l-.1-.2c.1.1.3-.1.3.1.1-.1.3 0 .2-.1.4.1.8-.1 1 .1 0 0 .2 0 .1-.1s-.1.1-.1 0v-.1c.1 0 .2 0 .1.2.3.1.2-.3.5-.3 0 .1 0 .1.1.1l.1-.1c.2 0 .1.1.2.3.1 0 .2 0 .3-.1l.2.1c-.1-.1.1-.1.1-.1h.2c0-.1-.2-.1-.2-.1 0-.1.1-.1.2-.1 0 .1.2 0 .3 0s.1-.1.1-.1c0 .1.2 0 .1.1h-.1c.1 0 .1.1.2 0s-.1-.2.1-.2c0 0 0 .1-.1.1h.2v-.1c0-.1.3-.1.3-.2h.3c.1 0 .2 0 .3-.1l.2-.1c.2 0 .2.4.3.2.1 0 .2-.3.1-.3.3 0 .5-.2.8-.1v-.1c.4-.1.7-.4 1-.3-.1.1 0 .1.1.2 0-.1.1.1.1-.1 0-.1 0-.1-.2-.1.2-.1.5-.2.7-.2-.1 0 0-.1 0-.1 0 .2.2.1.3 0v-.1l.1.1s0-.2.1-.2c0 0 0 .1.1.1.1-.1.2-.3.3-.3l.2.1s.1-.1 0-.1c.3 0 .4-.1.5 0 .2-.5.7-.7 1.1-1v.1c.1 0 0-.1.1-.1 0 .1.2.1.1.2.2 0 .1-.2.2-.3 0-.1 0 .1-.1 0 0 0 .2-.1.2-.2.1 0 .1.1.1.2v-.1c.2.1-.1.4.2.5l.1-.1c.2.1-.1.3.1.2 0-.1 0-.4-.1-.4.2-.2-.1-.3.1-.5.1 0-.2.1 0 .2.2 0 .2-.2.3-.2-.1 0-.1-.1-.1-.2.1 0 0 .2.2.1 0-.1 0-.2-.1-.2-.1-.2.2-.1.2-.3.1.1.1.4.3.3-.1-.1.1-.3-.1-.4.1 0 .2 0 .2.1.1 0 0-.4.2-.2l-.1-.1h.2c.1-.1.1-.3.2-.2 0 0 .2-.2 0-.2s0 .2-.2.1c.2 0 .1-.1.2-.2h.1s.1-.1 0-.2c0 .1.1.1.1.1v-.1c.1-.2.2.1.3 0v.2s.1 0 .2-.1c0-.1-.1-.2-.2-.3 0-.1.1 0 .1-.1v.2h.3c0-.1 0-.3-.1-.2 0 0 .2-.1.2 0 .1-.1-.1-.1-.1-.2.1 0 .3 0 .4-.1v.2l.1-.1c0 .2.1 0 .2.2 0 0 .1-.1.1-.2-.3 0-.2-.4-.4-.5.1-.2.5.2.4-.2-.1 0-.2-.2-.2 0 .1-.1-.1-.2 0-.3 0 .2.3 0 .3.2-.1 0-.1.1-.1.1.1 0 .2.1.3 0 0-.1.1-.2 0-.3s-.1.1-.2 0c.1-.2.3-.1.1-.3 0 .1-.2.1-.3 0v-.1l.1.1c.2-.2-.1-.1 0-.3h.2c.1.1-.2.3 0 .3.1-.1 0-.2.1-.3v.1s.3 0 .3-.2c0-.1-.1-.1-.1-.1.1-.2 0-.3.1-.5.2.1.1-.2.2 0-.1 0-.3.3-.1.5.2 0-.1.1.1.3.1-.2.3-.1.4-.1v-.1c-.1-.1-.1 0-.3 0 .1-.2.1-.4.1-.5.1 0 .2 0 .2.1.1-.2.1-.5.2-.7-.2.1 0-.3-.2-.2-.1.1-.2.2-.3.1 0-.1.1 0 .1 0-.1-.1.2-.1.1-.2 0 .2.2.1.4.2 0-.2.1 0 .2-.1 0-.2-.1-.4 0-.6.2-.2 0-.6 0-.8.1-.1.3 0 .3-.1s-.2.1-.1-.1c0-.1.2-.4-.1-.4l.2.1v-.1h.2c.1-.1 0-.3-.1-.4l-.1.1c-.1-.2 0-.4-.1-.6h.1l-.7-1c.1 0 .2-.1.1-.2l.3.3c0 .1-.2-.1-.3 0s0 .3.1.3c0-.1 0-.1-.1-.1.2 0 .2.1.3.1v-.1c.1.1.1.2.1.3-.1-.1-.1.1-.1 0 .1 0 .2.1.2.3-.2.1.1.3 0 .6l-.3-.3c-.1.1 0 .1-.1.3.1.1.3.1.3.3h-.1c0 .2.2.2.2.4s-.1.4-.1.5c0 .2-.1.3-.1.4h-.1c.2.2 0 .5 0 .7-.1.1-.1.3-.1.5 0 .1-.1.3-.2.3-.2.6-.3 1.1-.7 1.6l-.1-.2c0 .1-.1 0-.2.1.2 0 0 .2.1.3-.3.2-.3.5-.4.8l-.1-.1c0 .3-.3.4-.6.6h-.2c0 .2 0 .3-.2.5-.1.1-.4.3-.6.4-.3.6-1 .9-1.5 1.4l-.1-.1c-.4.6-1.3.8-1.7 1.2v-.2c-.2 0-.3.2-.2.3-.2 0-.4.3-.5.2-.2 0-.2.2-.3.3-.4.1-.5.2-.8.3h.1s0-.1-.1-.1c-.1.1-.5.1-.3.3-.4 0-.8.4-1.2.3 0 .1 0 .1-.1.1-.3.1-.7 0-.9.2-.1 0 0-.1-.1-.1s0 .1-.1.1c-.5.3-1.1.1-1.5.3-.8.3-1.7.3-2.5.5-.3.2-.7-.1-.9.2-.1 0-.3 0-.2-.1-.2.1-.6-.1-.9.1h.1H29c.1 0 .2 0 .2-.1-.1-.1-.6.2-.6 0-.1 0-.2.1-.1.1-.8.2-.5-.7-.6-1.2 0-.7-.1-1-.1-1.4.1-.3.2-.3.2-.3s.1 0 0-.3c0 0-.1-.1 0-.1-.1-.3.3-.3.1-.5-.1 0-.1-.2-.2-.2 0-.2.1-.3.1-.4h.3v.1c.3-.2.8-.1 1.1-.4h.7l.9-.1c.4 0 .8-.1 1.2-.2.8-.1 1.5-.3 2.3-.5 1.5-.3 2.9-.8 4.4-1.2.4 0 .4 0 .8-.2v.1c0-.2.3-.1.2-.3.5-.2 1-.5 1.5-.8-.1.1 0 .2 0 .1v-.1c0-.1.1-.2 0-.2 1.2-.8 2.4-1.5 3.3-2.6l.4-.4c.1-.2.2-.4.2-.5.7-.8 1.1-1.7 1.1-2.8 0-.2.4-.1.4.4zm.6-.3c-.1 0-.1.2-.2.1.1 0 .1-.1.2-.1zm-.9 3.5s-.1.1 0 0c-.1 0-.1 0 0 0-.1 0 0 0 0 0z"/><path d="M46.2 22.9c-.1 0-.1-.2-.1-.3l.1.3zm-.6.6c-.1 0-.1 0 0 0 0-.1 0-.1 0 0zm.2.1c0 .1-.1.1-.1.1s0-.2.1-.1zm-1.1 1.3s0 .1-.1.1c.1.1.1-.1.1-.1zm-.4.7c-.1.1-.1 0 0 0zm-13.7 5.8h.1v.1zm-.1-2c.1-.1.1 0 0 0 0 0 .1-.1 0 0zm3.7-.9v.1-.2z"/></g><path d="M28.2 28.2v3.2-3.2z" fill="#68a242"/><g class="K"><path d="M28.4 28.3c0-.1-.1 0 0 0 .1-.1.1-.1 0 0zm0-.4c-.4-.3 0-.8-.3-1.1 0 0 .2 0 .2-.1-.3-.4-.1-.9.1-1.3h.1c0-.1-.1-.2-.1-.3h.1c-.1 0-.1-.1-.1-.2 0 0 .1 0 .2-.1h-.1c-.3-.1 0-.3-.1-.5h.1c-.2-.3-.2-.7-.2-1h.2c-.1 0-.2-.1-.2-.2.1 0-.1-.1 0-.3-.1-.1.1-.1-.1-.2h.1c-.2 0 .1-.1 0-.2v-.1c0-.1.1-.2-.1-.2.1 0 .1.1.2 0-.4-.4-.4-.9-.4-1.3.1 0 .1-.1.1-.1s0-.2-.1-.2h.1c.1-.1-.2-.1-.1-.2h.1c-.1-.1-.1-.2-.1-.3h.1c-.1-.1 0-.2-.1-.3h.1c.1-.1-.2 0-.1-.2h.1c-.2-.1-.1-.3-.2-.4v-.4s.2 0 .2-.1c-.2 0-.1-.2-.3-.1 0-.1.1-.3 0-.4h.2l.1-.1c.1 0 0 .1.1 0 0 0-.1-.2 0-.2-.1-.1-.3-.2-.4-.3.1.1.2 0 .2 0l-.4-.2s.1 0 .1-.1h-.1v-.1h.7s0 .1-.1.1 0-.1-.1 0c0 .1.1.1.1.2 0 0 .1.2.2.1h-.1c.1 0 .1.1.1.2h-.1a1.38 1.38 0 0 1 .3.4c.1 0-.2 0-.1-.1-.1.2.2.3 0 .5h.1c0 .1-.1.1-.1.1-.1 0 0 .1 0 .1.1.1.2.4.1.5l.2.1h-.1c-.1 0 0 .1-.1.1.1.1-.1-.3 0-.2-.1 0 .2.1 0 .1 0 .1.1.1 0 .2 0 0-.2-.1-.1 0 0 .1 0 0 .1.1v.1c.1 0 0 .1.1.1-.1 0 .1.2-.1.1h-.1s.1.1.2.1h-.1c.2 0 0 .1.1.2-.1.1 0 .3-.1.3.1.1.1.1.1.2h-.1c-.1 0 0 .1 0 .1l-.2.2c.1.1.2 0 .3.1-.2.1.1.2-.1.3 0 0-.1-.1-.2 0-.2.1.2.1.1.3h.2c-.1 0 .1.2-.1.1.1 0-.1.1.1.1-.1.2.1.4-.2.5 0 0 0 .1.1.1s-.1-.1 0-.1h.1c0 .1 0 .1-.2 0-.1.1.3.1.2.3h-.1l.1.1c0 .1-.2.1-.3.1 0 0 0 .1.1.1l-.2.1c.1 0 .1 0 .1.1v.1c.1 0 .1-.1.1-.1s0 .1.1.1c-.1 0-.1.1-.1.1l.1.1c-.1 0 0 .1-.1 0 0 0 .1 0 0-.1 0 0-.2 0-.1.1.1 0 .2 0 .2.1h-.1l-.1.1h.1c.1 0 0 .1.2.2l-.1.1c-.1 0 0 .1 0 .2 0 0 0 .1.1.1-.1.1-.4 0-.3.1 0 .1.2.1.3.1-.1.1.1.3-.1.4h.1c0 .2.1.4-.1.6 0-.1-.1 0-.2 0 .1 0-.1.1.1.1.1 0 .1 0 .2-.1v.4h.1c-.2 0-.2.1-.1.1 0 0 .2 0 .1.1h-.1c.1.1.2.2.1.2l-.1.1s.1.1.1 0c-.1.1-.1.2-.2.3.3.2.3.5.3.8h-.1c-.1.1.1 0 .1.1h-.2c-.1.1.1.1.2.2.1 0-.1 0 .1 0 0 0-.1.1.1.1h-.2l.1.1c-.2.1-.3-.2-.5-.1v.1c-.1 0-.2-.1-.2 0 .1.1.3.1.4.1 0 .1.4.1.3.2-.1 0 0-.1-.1-.1-.1.1.1.1 0 .2 0-.1.2 0 .2 0-.1.1-.1 0-.1 0 .1 0 .1.1.2 0 .2 0 0 .1.1.1-.1 0-.3-.1-.4 0 .1 0 .2.1.4.1h-.2c-.1.1.2.1 0 .2h.1s-.1 0-.1.1c0 0 .2.2 0 .2 0 0 0 .1.1.1.1-.1-.1-.1.1-.1-.1 0 0 .1.1.1h-.1s0 .1.1.1h-.1.1c.1.1-.2 0-.2.1l-.1-.1s-.1 0 0 .1c.1 0 .2 0 .3.1 0 .1-.1 0 0 .1l-.1-.1s-.2 0-.2.1c0 0 .2.1.3 0l-.1.1c0 .1.1 0 .2.1-.1 0-.2.1-.3.2l-.2-.1c-.1-.1-.1 0-.3 0 0 0 0 .1.1.1.2-.1.3.1.5.1.1.1-.5.1-.2.2h.2c0 .1.2.1.1.2-.1-.1-.2.1-.4 0 .1 0 .1-.1 0-.1s-.2 0-.2.1c0 0 0 .1.1.1s0-.1.1 0c0 .1-.1.1.1.2 0-.1.1-.1.2-.1v.1h-.1c-.1.1.1 0 .1.2l-.2.1c-.1 0 .1-.2-.2-.2 0 .1.1.1 0 .2V31s-.1 0-.1.1h-1.2s.1-.1 0-.1c-.1-.1-.1 0-.2 0 0-.1-.1-.2-.1-.3.2 0 0-.1.2 0-.1 0-.1.2.1.3.2 0 0 .1.2.1 0-.1.2-.1.3-.1 0 0 0-.1-.1-.1h-.3c0-.1 0-.2-.1-.3h.2v-.4c-.2.1 0-.1-.2-.1 0 .1-.2.1-.3.1h.1c-.1-.1.2-.1 0-.1.1.1.2 0 .4 0-.1-.1.1 0 .1-.1-.1-.1-.1-.2-.2-.3.1-.1 0-.3 0-.4.1-.1.3 0 .3-.1s-.2.1-.1-.1c0 0 .1-.2-.1-.2h.2v-.1h.2c.1-.1 0-.1 0-.2h-.1c-.1-.1 0-.2 0-.3h.1l-.2.2c.1 0 .2 0 .1-.1l.3.2c-.1 0-.1-.1-.2 0-.1 0-.1.1 0 .2v-.1c.1 0 .1 0 .3.1v-.1c.1 0 .1.1.1.2h-.1c.1 0 .2.1.1.2-.2.1.1.2.1.3-.1 0-.3-.1-.3-.2-.1.1 0 .1-.1.1.1 0 .3.1.3.1h-.1c0 .1.2.1.2.2 0 .2 0 .4-.1.5h-.1c.2.1.1.3.2.4-.1.2.1.4-.1.5 0 .1.1.3.1.4h-.8v-.5h.1c-.1-.1.1 0 .1-.1-.1.1-.1-.1-.2-.1.1-.1 0-.3-.1-.4h.1c-.2-.1 0-.3 0-.4 0 0 .1 0 .1-.1-.2-.1-.1-.1-.3-.3 0-.1 0-.2.1-.3-.2-.3-.1-.7-.2-1h.1c-.3-.3 0-.8-.2-1.1h.2c.1-.1 0-.2-.2-.2.1-.1-.1-.2.1-.3 0-.1-.1-.1-.1-.2.1-.2.1-.3 0-.4h.1c-.1-.1 0-.2-.2-.2.1-.2-.1-.4.1-.6h-.1c0-.2.1-.3 0-.5-.1-.3.1-.5.1-.8-.1-.4-.1-.9-.1-1.3-.2-.1.2-.3-.1-.4 0 0 0-.1.1-.1-.1-.1.1-.3 0-.5.1-.2 0-.3.1-.5h.1c.1-.1-.2-.2 0-.2h-.1c.1-.4-.1-.8-.1-1.2.1-.3.4 0 .2-.2 0 0-.1 0 0 0-.1-.1.3-.1.1-.2h-.2c.1-.2.2-.2.1-.3h.1c-.2-.2-.1-.3-.4-.5 0-.3 0-.6-.1-.9H29c.1.6.1 1.1.1 1.7 0 .8.1 1.7 0 2.5-.1 0-.1 0 0 .2H29c.2 0 0 .1.2.2v.9s-.1-.1-.1 0l.1.1s.1.1.2 0c.1.8-.2 1.6-.1 2.4-.1.2 0 .5 0 .7-.2.6-.4 1.2-.2 1.8-.2.1-.6 0-.7-.2z"/><path d="M28.5 28.4c-.1 0-.1.1-.2 0h.2zm-.9 1.9s-.1 0 0 0c-.1 0 0 0 0 0zm0 .5c-.1 0-.1-.1-.1-.2l.1.2zm-.3.4c-.1.1-.2.1 0 0-.1 0-.1 0 0 0zm.1.1s-.1-.1 0 0zm1.7-.8s-.1-.1 0-.1c0 0 .1.1 0 .1zM29 30zm-.3-8.3v.1h-.1zm0-3.6c-.1-.1 0 0 0 0 .1 0-.1-.1 0 0zm-.8.8h.2z"/></g><path d="M41.7 10.6c13.9 8.2-1.8 19.4-13 18.3l-.1-10.7 13.1-7.6z" fill="#bb4567"/><g class="K"><path d="M41.9 10.4c-.2-.1 0 .2-.2 0h.2z"/><path d="M40.9 10.8c-.4.7-1.4.8-1.9 1.4-.1.1-.1-.2-.2-.1-.5.6-1.6 1.1-2.5 1.3v-.1c-.2.1-.3.3-.4.4v-.1c0 .1-.3.2-.3.3-.1 0-.1-.1-.2-.1v.2c-.1.4-.6.3-.9.7v-.1c-.5.5-1.2.9-1.7 1.3 0-.1 0-.1-.1-.2 0 .1-.1.3-.3.4-.2-.1-.2.3-.5.3-.1.2-.3 0-.3.3h-.1c0 .2-.3 0-.3.2-.1.1-.2 0-.3.1-.2.2-.4.2-.3.3-.1-.1.2-.2 0-.3-.5.5-1.3.9-1.8 1.2v.5c-.1.1-.1.2-.1.2 0 .1 0 .4.1.4l-.1.1c-.1.2.2.2.1.4 0-.1-.1-.1-.1-.1.1.2.1.4.1.5 0 0 0-.1-.1-.1.1.2 0 .4.1.5l-.1-.1c-.1.3.2.1.1.3 0-.1-.1 0-.1 0 .2.2.1.6.2.8v.8c0 .1-.2 0-.2.2.2 0 .1.5.3.3 0 .2-.1.6 0 .7-.1-.1-.2.1-.2-.1l-.1.1c-.1 0 0-.1-.1-.1 0 .1.1.4 0 .5.1.2.3.3.4.6-.1-.1-.2.1-.2 0l.4.4c0 .1-.1 0-.1.2 0 0 .1 0 .1.1 0 0 0 .4-.1.4s0-.1-.1 0c0 .2.1.2.1.4 0 .1.1.3.2.2 0-.1-.1 0-.1-.1.1.1.1.3.1.5 0-.1-.1 0-.1-.1.1.2.2.5.3.7.1 0-.2-.1-.1-.1-.1.2 0 .4 0 .5s.1.2 0 .3l.1-.1c0 .1-.1.2-.1.2-.1.1 0 .1 0 .1 0 .1.2 0 .3 0h.3s.2-.2.3-.2v.1c.1.1.3 0 .3.1.2-.1-.6.1-.4 0 .1.1.3-.2.3 0 .2 0 .3-.1.5 0 0 0-.1.2 0 .1.2 0 .1 0 .2-.1h.1c0-.1.2 0 .1-.1 0 .1.3-.1.3.1v.1c.1 0 .1-.2.2-.2v.1c0-.2.2 0 .3-.2.2 0 .5 0 .6.1.2-.1.3-.2.5-.1 0 0-.1 0-.1.1.1 0 .1 0 .2-.1 0 0 .2.1.4.1.1-.1.1-.2.1-.3.2.2.4-.2.6 0 0 0-.2.2-.1.2.2.2.3-.2.5-.2l-.1-.2c.1.1.3-.2.3 0 .1-.1.3 0 .2-.2.4 0 .8-.3 1.2-.1 0 0 .2-.1.1-.1-.1-.1-.1.1-.2 0v-.1c.1 0 .2 0 .2.2.3 0 .2-.4.5-.4 0 .1 0 .1.1 0l.1-.2c.2 0 .2.1.2.2.1-.1.2-.1.3-.2l.2.1c-.1-.1.1-.1.1-.1s.2 0 .2-.1-.2 0-.3 0c0-.1.1-.1.2-.2 0 .1.2 0 .3 0s.1-.1.1-.2c0 .1.2-.1.1.1h-.1c.1 0 .1.1.2 0s-.1-.2.1-.2v.2h.2v-.1c0-.1.3-.1.2-.3h.3c.1 0 .2-.1.3-.2.1 0 .2-.1.2-.2.2 0 .2.4.3.1.1-.1.1-.3 0-.3.3-.1.5-.4.8-.4v-.1c.4-.2.7-.6 1-.6-.1.1.1.1.1.1 0-.1.2 0 .1-.1s-.1-.1-.2-.1c.2-.2.5-.4.6-.4-.1 0-.1 0 0-.1.1.1.2 0 .3-.1v-.1h.1c0-.1-.1-.2.1-.2h.1c0-.1.1-.4.3-.4h.2v-.1c.2-.1.4-.2.5-.2.1-.5.5-1 .8-1.4v.1c.1-.1-.1-.1 0-.2 0 .1.2 0 .2.1.2-.1 0-.3.1-.4-.1-.1 0 .1-.1 0 0 0 .2-.2.1-.3.1 0 .2.1.2.1v-.1c.2 0 .1.4.3.4v-.1c.2 0 0 .4.2.1 0-.1-.1-.3-.2-.3.1-.2-.2-.3-.1-.5.1 0-.1.2 0 .2.2 0 0-.3.1-.3-.1.1-.2-.1-.2-.1.1-.1.1.1.2 0-.1-.1 0-.2-.2-.1-.2-.1.1-.1 0-.3.1 0 .2.3.3.1-.1 0-.1-.3-.3-.3.1-.1.2 0 .2 0 .1-.1-.1-.3.1-.3l-.1-.1s.1-.1.2-.1c0-.1-.1-.4.1-.3 0 0 0-.3-.1-.2s.1.2-.1.2c.2-.1 0-.2 0-.3h.1s0-.1-.1-.2h.1l-.1-.1c0-.2.2 0 .2-.2l.1.1s.1-.1.1-.2c-.1 0-.2-.1-.3-.1 0-.1.1 0 0-.1l.1.1s.2-.1.2-.2-.2-.2-.3-.1c0-.1 0-.2.1-.1 0-.1-.1 0-.2-.1.1-.1.2-.2.3-.4l.2.1v-.1c.2.1.1-.1.3 0 0-.1 0-.1-.1-.2-.2.2-.4-.2-.6-.1-.1-.2.5-.3.1-.5 0 .1-.2 0-.1.1 0-.2-.2 0-.2-.2.1.1.2-.2.4-.1-.1 0 0 .1 0 .1.1-.1.2 0 .2-.2-.1-.1-.1-.2-.2-.2s.1.1-.1.1c-.1-.2 0-.3-.2-.3.1.1 0 .2-.1.2l-.2.8h.1c0-.2-.2 0-.2-.2l.1-.2c.2 0 .1.3.3.2 0-.1-.2-.1-.2-.3l.1.1c0-.1.2-.2 0-.4-.1-.1-.1 0-.2.1-.1-.2-.2-.2-.3-.3.2-.1-.2-.2.1-.2 0 .1.2.4.3.4.1-.2.1.2.3.1-.1-.2.1-.3.2-.4 0-.1-.1-.1-.1-.1-.1 0-.1.1-.2.2-.1-.2-.3-.4-.5-.4 0-.1.1-.1.2-.1-.2-.2-.3-.5-.5-.7 0 .3-.2-.2-.3 0 .1.1 0 .3-.1.3 0-.1.1-.1.1-.1-.2 0 0-.2-.2-.2.2.1.2-.1.4-.2-.2-.1.1-.1 0-.2l-.6-.3c-.1-.3-.5-.4-.7-.6 0-.1.1-.2 0-.3s0 .2-.2 0c-.1 0-.3-.4-.5-.2l.2-.1h-.1c0-.1 0-.1.1-.1 0-.2-.3-.2-.4-.3v.1c-.3-.1-.4-.3-.6-.4l.1-.1h-.2c.1-.1 0-.2-.1-.2h.5c.1.1-.2 0-.2.2 0 .1.2.2.3.1-.1-.1-.1 0-.2-.1.1-.1.2-.1.3-.1l-.1-.1c.1 0 .2 0 .3.1-.1 0 0 .1-.1.1.1-.1.2 0 .4.1 0 .2.4.1.5.3a.45.45 0 0 1-.5 0l.2.2c.1 0 .3-.1.5-.1l.1.4c.2.1.3 0 .4.1.3.3.6.5.7.8l-.1.1c.3 0 .4.4.6.4.2.4.6.6.5.9.4.5.8 1 1 1.7l-.2-.1c.2.1 0 .1 0 .2.1-.2.2.1.3.2 0 .3.2.7.3 1l-.2.1c.2.3.1.6 0 1 0 0-.2.1-.1.2.2.2.1.3.2.6 0 .2-.2.5-.3.7 0 .8-.5 1.5-.8 2.2h-.1c-.2.8-1 1.4-1.4 1.9l-.1-.2c-.2.1-.3.4-.2.4-.2.1-.3.4-.5.4-.2.1-.1.2-.3.4-.4.2-.5.3-.8.6h.1c0-.1 0-.1-.1-.1-.1.1-.5.3-.2.4-.4.1-.8.6-1.2.7.1 0 0 .1 0 .2-.3.2-.7.3-.9.5-.1 0 0-.1-.1-.1-.1.1 0 .1 0 .2-.5.4-1.1.4-1.6.6-.8.5-1.8.8-2.7 1-.3.3-.7 0-.9.3-.1 0-.3 0-.2-.1-.2.2-.7 0-1 .3h.1c-.4 0-.7.1-1 .1 0 0 .1 0 .1-.1-.2-.1-.3.3-.4 0-.1 0 0 .1 0 .1-.8 0-1.7.2-2.6.3-.6-.1 0-.4-.5-.2-.1 0 0 .1-.1 0-.3 0-.4-.3-.6-.2 0 .1-.2.1-.2.1-.3-.1-.4-.1-.5-.2 0 0-.2 0-.2-.1v-.2h.1c-.1-.2-.1-.5-.2-.7 0-.1 0-.3-.1-.4 0-.1-.1-.2-.1-.3l-.2-5.4v-4.6l1.1-.6.6-.3c.5 0 .5-.1.9-.4v.1c-.1-.1.3-.2.2-.3.6-.3 1.1-.7 1.7-1-.1.1-.1.2 0 .1l.1-.2c.1-.1.1-.2 0-.2 1.4-1 3.1-1.6 4.5-2.4.4-.1.8-.5 1.2-.7 1.2-.5 2.3-.9 3.4-1.7-.3-.1-.2.3-.7.7zm1.2-.2c0 .1.1.2-.1.2.1-.1.1-.2.1-.2z"/><path d="M44.7 13.7s0 .1 0 0c0 .1-.1.1-.1 0h.1zm.6.8c-.1 0-.2-.1-.3-.2l.3.2zm.2.9c0 .1-.1.1 0 0-.1-.1 0 0 0 0zm.2-.1v.2s-.2-.1 0-.2zm.4 1.8s.1.1 0 .2c.1-.1-.1-.2 0-.2zm.2.8c-.1.1-.1.1 0 0zm-11.9 10h.1v.1zm-5.2-.9c0-.1.1-.1 0 0 .1 0 0-.2 0 0zm-.3-4.2h-.2z"/></g><path d="M28.1 17.5l.1 10.7c-6.5-.1-13.5-1.8-17.2-6.8l17.1-3.9z" fill="#d3e7f1"/><g class="K"><path d="M28.4 17.6c0-.2-.1.1-.1-.1.1 0 .1.1.1.1z"/><path d="M27.5 17.5c-.5.5-1.3.3-1.8.7-.1 0 0-.2-.2-.1-.5.4-1.5.5-2.2.4v-.1c-.1 0-.3.2-.4.2v-.1c0 .1-.3.1-.3.2-.1 0-.1-.1-.2-.2v.1c-.2.4-.6.1-.8.3v-.1c-.5.3-1.1.4-1.6.6v-.2c0 .1-.2.2-.3.3-.1-.1-.2.2-.4.1-.1.2-.2 0-.3.2l-.1-.1c0 .2-.2-.1-.3.1-.1.1-.2 0-.3 0-.2.1-.4 0-.3.2-.1-.1.2-.1 0-.3a8.3 8.3 0 0 1-2.1.6c-.1 0-.1 0-.2-.1-.1 0-.3.1-.3.2l-.1-.1c-.1 0-.1.2-.3.2.1 0 .1-.1 0-.2a.76.76 0 0 1-.4.2s.1 0 0-.1c-.1.2-.3 0-.4.2v-.1c-.3-.1 0 .2-.2.2v-.1c-.1.2-.4.2-.6.3s-.4.1-.6.2c-.1 0 0-.2-.2-.1.1.2-.3.1-.1.3-.1 0-.4 0-.5.1 0-.1-.3-.2-.2-.2l-.2-.1c-.1-.1.2 0 0-.1-.1 0-.2.1-.4.1 0 .1.2.3.1.3s-.1-.1-.3-.1c-.1 0-.1 0-.2-.1.3.1.6.3.8.4.1 0-.2 0-.1 0s.1 0 .2.1c0 0 .2.2 0 .2-.1 0-.1-.1-.2 0 .1.1.2.1.3.2 0 .1.3.1.3 0H12c.2 0 .3.1.3.1h-.1c.2 0 .3 0 .5.2.1-.1-.2.1-.1 0 .1.3.5.2.6.5l.1-.1c.1.1 0 .2.1.2 0 .1.1 0 .2.1.1 0 0 0-.1 0 .1 0 .6.2.7.5h.3l-.1.1c0 .1.2.1.1.2.2 0-.5-.2-.3-.2 0 .1.3 0 .2.1.1.1.3 0 .3.2 0 0-.2.1-.1.1.2.1.1 0 .2 0h.1c.1-.1.1.1.1 0 0 .1.3.1.1.2l-.1.1c.1 0 .2-.1.3-.1v.1c.1-.2.1.1.3 0 .1.1.4.2.4.4.1 0 .3 0 .4.1h-.1c0 .1.1.1.2.1a1.44 1.44 0 0 0 .2.3c.1 0 .1-.1.2-.2 0 .3.4 0 .4.3 0 0-.2 0-.1.1 0 .3.3 0 .4.1v-.2c0 .1.3 0 .2.2.1 0 .2.1.2 0 .2.2.7.2.8.5h.1c0-.1-.1 0-.1 0s.1 0 .1-.1c.1.1.1.1 0 .2.2.2.3-.2.5-.1v.1l.2-.1c.1.1 0 .2 0 .3h.3l.1.2c0-.1.1 0 .1-.1h.2c0-.1-.1-.1-.1-.2.1 0 .1 0 .2-.1 0 .1.1.1.2.1s.1-.1.1-.1c0 .1.1 0 0 .1 0 0 0-.1-.1 0 0 .1 0 .2.1.1.1 0 0-.2.2-.1l-.1.1.1.1v-.1.1c.1-.1.2 0 .3-.1.1 0 .1.1.2.1.1.1.2.1.3 0h.2c.1.1 0 .4.1.3.1 0 .2-.2.2-.2.2.1.5 0 .7.2 0 0 0-.1.1-.1.3.1.7 0 1 .2-.1 0 0 .1 0 .2.1-.1.1.1.1 0s0-.1-.1-.2c.2 0 .5 0 .6.1v-.1c0 .2.1.2.2.1v-.1l.1.1s.1-.2.2-.1v.1c.1-.1.3-.2.4-.1l.1.1.1-.1c.2.1.3.1.4.2.2-.1.4-.2.7-.2h.3v.1c.1.1 0-.1 0-.1 0 .1.1.2.1.2.1.1 0-.1 0-.2-.1-.1 0 .1-.1-.1 0 0 .1.1 0-.1l.2.2s0-.1-.1-.1c.1.1.2.2.2.3s.1.2.2.3c.1 0 .1.1.1.2l.1.1c-.1-.2-.3-.4-.4-.4 0-.2-.4-.4-.3-.4s0 .1.1.2c.1 0-.1-.1 0-.2l-.2-.1c.1 0 .1.1.1 0-.1 0-.1-.1-.2-.1-.2-.1 0 0-.1-.1.1 0 .3.1.4 0-.1 0-.2-.2-.4-.1 0-.1.1-.1.2 0 .1-.1-.2-.3 0-.3h-.1l.1-.1c0-.1-.2-.3 0-.3 0 0 0-.2-.1-.1s.1.1-.1.2c.1-.1 0-.2-.1-.3h.1s0-.1-.1-.2c-.1-.2.2 0 .2-.2l.1.1s.1-.1 0-.2c-.1 0-.2-.1-.3-.1 0-.1.1 0 0-.1l.1.1s.2-.1.2-.2-.2-.2-.3-.1c0-.1.1-.2.1-.1 0-.1-.1 0-.2-.1.1 0 .2-.2.3-.3l.2.1v-.1c.1.1.1-.1.3 0 0-.1 0-.1-.1-.2-.2.2-.3-.2-.5-.1-.1-.2.5-.2.2-.4-.1 0-.2-.1-.2.1 0-.1-.2-.1-.1-.3.1.1.2-.1.4 0-.1 0-.1.1 0 .1.1-.1.2 0 .2-.1s0-.2-.1-.2 0 .1-.1.1c0-.2.1-.2-.1-.3 0 .1-.1.1-.2.1v-.1h.1c.1-.2-.1-.1-.1-.3l.2-.1c.1 0-.1.3.2.3 0-.1-.1-.2 0-.3v.1s.3-.1.1-.3c-.1-.1-.1 0-.2 0 0-.2-.1-.3-.1-.4.2 0 0-.3.2-.1-.1.1-.1.4.1.5.2-.1 0 .2.2.2 0-.2.2-.2.3-.2 0 0 0-.1-.1-.1h-.3c0-.2 0-.4-.2-.5.1-.1.2 0 .2 0V21c-.2.1 0-.3-.2-.1 0 .1-.2.2-.3.2 0-.1.1 0 .1 0-.1-.1.2-.1 0-.3.1.2.2 0 .4.1-.1-.2.1 0 .1-.1-.1-.2-.2-.4-.2-.5.1-.2 0-.5 0-.8.1-.1.3 0 .3-.1s-.2.1-.1-.1c0-.1.1-.4-.1-.4l.2.1v-.1h.2c.1-.1 0-.3 0-.4l-.1.1c-.1-.2 0-.4 0-.6h.1l-.1-.1c.1 0 .2-.1.1-.1l.3.3c-.1.1-.1-.1-.2 0-.1 0-.1.3 0 .3v-.1c.1 0 .1.1.3.1v-.1c.1.1.1.2.1.3-.1-.1-.1 0-.1 0 .1 0 .2.1.1.3-.2.1.1.3.1.5-.1-.1-.3-.2-.3-.3-.1.1 0 .1-.1.3.1.1.3.1.3.3h-.1c0 .1.2.1.2.3 0 .3 0 .6-.1.8h-.1c.2.1.1.4.2.6-.1.3.1.6-.1.8.1.5.2 1 .1 1.5l-.1-.1c.1.1-.1.1-.1.2.1-.1.1.1.2.2-.1.2 0 .5.1.8h-.1c.2.2 0 .5 0 .7 0 0-.1.1-.1.2.2.1.1.2.3.4 0 .1 0 .4-.1.6.1.2.1.2.1.5v.7c0 .4.2 1.2-.4 1l-.1-.1c-.3.1-1 .1-1.4.1-.3 0-.6-.1-.9 0l.1-.2c-.1-.1-.4 0-.3.2-.1-.1-.4.1-.5-.1-.2 0-.2.1-.4.1-.3-.1-.4-.1-.8-.1h.1v-.1c-.1 0-.4-.1-.3.1-.3-.2-.8 0-1.1-.2 0 .1-.1.1-.1.1-.3 0-.6-.2-.8-.2 0 0 .1-.1 0-.1s0 .1-.1.1c-.5 0-.9-.3-1.3-.4-.8-.1-1.5-.4-2.2-.6-.3.1-.5-.4-.8-.2 0-.1-.2-.1-.1-.2-.2 0-.5-.3-.8-.3h.1c-.2-.2-.5-.2-.7-.4h.1c-.1-.1-.3 0-.3-.2-.1 0-.1.1-.1.1-.6-.4-1.2-.6-1.9-1-.3-.4.2-.3-.2-.4 0-.1-.1.1-.1 0-.2 0 0-.4-.2-.3-.1.1-.1 0-.2.1-.2-.3-.1-.4-.4-.5h.1c-.4 0-.5-.3-.9-.3l-1.2-1.2c-.4-.5-.9-1-1.4-1.5h.2l.2-.1.4-.1.9-.3 1.8-.4 4.2-.9c.4.1.4.1.8-.1v.1c0-.2.3-.1.3-.2.5-.1 1-.3 1.5-.4-.1 0-.1.2 0 .1l.1-.1c.1 0 .1-.1 0-.2 1.3-.5 2.7-.4 4.1-.8.3 0 .8-.2 1.1-.3 1.1 0 2-.1 3-.5.3-.2.2.3-.2.5z"/><path d="M28.4 17.8c-.1 0-.1.2-.2.1.1 0 .1-.1.2-.1zm-.8 3.3s-.1 0 0 0c-.1 0-.1 0 0 0-.1 0-.1 0 0 0zm-.1.8c-.1 0-.1-.2-.1-.3l.1.3zm-.3.8c0 .1-.1 0 0 0 0-.1 0 0 0 0zm.2 0c0 .1 0 .1-.1.1.1.1 0-.1.1-.1zm-.2 1.7s.1.1 0 .2c0 0-.1-.2 0-.2zm.1.8c0 .1-.1.1 0 0zm-9.9.4h.1v.1zm-4.9-3.2s.1-.1 0 0c.1-.1 0 0 0 0zm.2-1.2l-.1-.1z"/></g><path d="M28.2 28.2v3.2c-6.5-.1-13.5-1.8-17.2-6.8v-3.2c3.7 5 10.7 6.7 17.2 6.8z" fill="#b1c5d2"/><g class="K"><path d="M28.4 28.3c0-.2-.1.1-.1-.1.2 0 .2.1.1.1zm-.8-.3c-.5.4-1.2 0-1.8.1-.1 0 0-.2-.1-.2-.6.3-1.5 0-2.1-.3-.1-.1-.3.1-.4.1v-.1c0 .1-.3 0-.3.1 0-.1 0-.1-.1-.2l-.1.1c-.3.3-.5-.1-.8 0v-.1c-.5.1-1.1-.1-1.6-.1 0 0 .1-.1.1-.2-.1.1-.2.1-.4.1 0-.2-.3.1-.4-.1-.2.1-.1-.1-.3 0v-.1c-.1.2-.1-.2-.3-.1-.1 0-.1-.1-.2-.1-.2 0-.3-.2-.4 0 0-.1.2 0 .2-.2-.7-.1-1.4-.4-2-.7 0-.1-.1-.1-.1-.2-.1 0-.3-.1-.3 0v-.1c-.1-.1-.2.1-.3 0 .1 0 .1 0 .1-.1-.2.1-.3 0-.4-.1 0 0 .1 0 .1-.1-.2 0-.2-.1-.4-.1h.1c-.1-.2-.1.1-.3 0 .1 0 .1 0 .1-.1-.2 0-.4-.1-.6-.2s-.3-.2-.5-.3c0-.1.1-.2 0-.3-.1.2-.3-.1-.4.1l-.4-.4c.1 0 .1-.2.2-.1v-.2c.1 0 .1.1.1 0-.1 0-.3-.1-.3-.2-.2 0-.4.1-.6 0 .1 0 .1-.2.2-.2-.1 0-.3.1-.4.1 0 0 .1-.1 0-.2l-.1.1s-.1-.1-.1-.3c0-.1.1 0 0-.1s-.1 0-.2-.1-.1 0-.1.2c0 0 0-.2 0 0 0 .1-.1.1-.1 0v-.2c0 .1-.1.2-.1.2.1.2-.1-.3 0-.2-.1-.3-.1-.1-.2-.1 0 0-.1-.1-.1-.2s.1.3.1.2c0 0-.1-.3-.1-.1-.1-.2 0 .1 0 .2.1.1 0-.1 0-.1.1.2.2.6.1.6a1.44 1.44 0 0 1 .2.3l-.1-.1c-.1 0 0 .1-.1 0 .1.2-.1-.4 0-.2-.1-.1.2.4 0 .1 0 .1.1.3 0 .2l-.1-.1c0 .1.1.1.1.2l.1.1c.1.1 0 .1.1.1-.1 0 .1.1-.1.1l-.4-.1c0 .1.1.1.2.2h-.1c.2 0 0 .1.1.1 0 0 0 .1-.1.1v.1h.1c.1 0 .1.1.1.1h-.1c0 .1.1.1.1.1v.3c.1 0 .2-.1.3-.1-.1.2.3.1.3.4-.1 0-.2 0-.2.1-.1.2.3 0 .3.2l.1-.2c0 .1.3.1.1.2.1 0 .1.2.2 0 .1.3.6.4.5.7.1 0 .1.1.1 0s-.1 0-.1-.1h.1c0 .1.1.1-.1.2.1.2.3-.1.5.1-.1 0-.1.1 0 .1h.2c.1.1 0 .2-.1.3.1 0 .2.1.3 0v.2c0-.1.1 0 .1 0h-.1l.1.1c0-.1 0-.2-.1-.2h.2c-.1.1.1.1.1.2.1.1.1 0 .1 0s.1.1 0 .1c0 0 0-.1-.1-.1 0 .1-.1.2.1.1.1 0 .1-.2.2-.1-.1 0-.1 0-.1.1l.1.1.1-.1c.1-.1.2.1.3 0 .1 0 .1.1.1.2s.2.1.3.1c0 0 .1.1.2 0 .1.1-.2.4 0 .3.1 0 .3-.1.3-.2.1.2.4.1.5.3 0 0 0-.1.1-.1.3.2.6.1.8.4-.1 0 0 .1-.1.2.1-.1 0 .1.1 0 0-.1.1-.1 0-.2.2 0 .5.1.5.2 0-.1 0-.1.1-.1-.1.1 0 .2.2.2v-.1.1s.1-.2.2 0v.1c.1 0 .3-.1.4 0v.2s.2-.1.1-.1c.2.1.3.2.3.3.4-.2.9-.1 1.3 0v.1c.1.1.1-.1.1 0s0 .2-.1.2c.1.1.2-.1.3-.1 0-.1-.1 0 0-.1 0 0 .2.1.3 0 0 .1 0 .2-.1.2h.1c.1.2-.3.2-.3.5h.1c0 .2-.3.1-.1.2.1 0 .2-.2.2-.3.2 0 .2-.3.4-.3 0 .1-.2 0-.1.1s.2 0 .3 0c-.1-.1 0-.2.1-.2.1.1-.1.1 0 .2 0-.1.2-.1.1-.2.1-.2.1.1.3 0 0 .1-.2.3-.1.4 0-.1.2-.1.2-.3.1 0 0 .1 0 .2.1.1.3-.2.3.1v-.1s.1.1.1.2c.1 0 .3-.1.3.1 0 0 .2 0 .2-.1-.1-.1-.1.1-.2-.1.1.2.2 0 .2 0v.1s.1 0 .2-.1v.1l.1-.1c.2 0 0 .2.2.2l-.1.1.1.1c0-.1.1-.2.1-.3.1 0 0 .1.1 0l-.1.1s0 .2.2.2c.1 0 .2-.2.1-.2.1 0 .1.1.1.1.1 0 0-.1.1-.2 0 .1.2.2.3.3l-.1.2h.1c-.1.1 0 .1 0 .3h.2c-.1-.3.2-.3.2-.5.2 0 .1.5.4.2 0-.1.1-.2 0-.2.1 0 .1-.2.3-.1-.1.1.1.2-.1.4 0-.1-.1-.1-.1 0s0 .2.1.2.2 0 .2-.1-.1 0-.1-.1c.2 0 .2.2.3 0-.1 0-.1-.1-.1-.2h.1v.1c.2.1.1-.1.3-.1l.1.2c-.1.1-.3-.1-.3.1.1 0 .2-.1.3 0h-.1s.1.3.3.1c.1-.1 0-.1 0-.2.2 0 .3-.1.4-.1 0 .1 0 .1.1.1v.1c-.1-.1-.4-.1-.4 0 .1.2-.2 0-.2.2.2 0 .1.2.2.3 0 0 .1 0 .1-.1v-.3c.2 0 .4 0 .4-.1v.2h.5c-.2-.2.1 0 0-.2-.1 0-.2-.2-.2-.3 0 0 0 .1.1.1 0-.1.2.2.1 0 0 .1.2.3.3.4 0-.1.1.1.2.1s0-.3 0-.4c.1 0 0-.3 0-.4.1-.1.3 0 .3-.1s-.2.1-.1-.1c0 0 .1-.3-.1-.4l.2.1v-.1h.2c.1-.1 0-.2 0-.4l-.1.1c-.1-.2 0-.4 0-.5h.1l-.1-.1c.1 0 .2-.1.1-.1l.3.3c-.1.1-.1-.1-.2 0-.1 0-.1.2 0 .3V29c.1 0 .1.1.3.1V29c.1.1.1.1.1.3-.1-.1-.1 0-.1 0 .1 0 .2.1.1.3-.2.1.1.3.1.5-.1-.1-.3-.2-.3-.3-.1.1 0 .1-.1.2.1.1.3.1.3.3H29c0 .2.2.2.2.4v.5c0 .1 0 .4-.1.4l-.1-.1c0 .2-.4.1-.6.2h-.6c-.2 0-.3 0-.4-.1-.5 0-.9.1-1.4 0l.1-.1c-.1.1 0-.1-.1-.1.1.1-.1.1-.2.2-.2-.1-.5 0-.7 0v-.1c-.2.2-.5 0-.7-.1l-.1-.1c-.2.1-.2.1-.5.2-.1 0-.4-.1-.5-.2-.6.1-1.1-.1-1.7-.1v-.1c-.6.1-1.2-.3-1.7-.3l.1-.2c-.1-.1-.3 0-.4.1-.1-.1-.4 0-.4-.2-.1-.1-.2 0-.3 0-.3-.2-.4-.2-.7-.3h.1s.1-.1 0-.1-.4-.2-.4.1c-.2-.3-.7-.2-.9-.5 0 .1-.1 0-.1.1-.3-.1-.4-.4-.7-.4 0 0 .1-.1 0-.1s0 .1-.1.1c-.5-.1-.7-.6-1.1-.8-.7-.3-1.3-.8-1.8-1.3-.3 0-.3-.5-.6-.4 0-.1-.1-.2 0-.2-.2 0-.3-.5-.6-.5h.1c-.1-.3-.4-.4-.5-.7h.1c0-.1-.3-.1-.2-.3-.1-.1-.1 0-.1.1-.4-.4-.3-.9-.3-1.4 0-.6-.1-1.1-.1-1.7.1-.6.4.4.2-.4.1 0-.1-.2 0-.1-.1-.3.3.1.1-.3l-.2-.4c.1-.3.2-.1.1-.6l.1.2c-.1-.5-.1-.8-.1-1 .1.1.2.1.2 0l1.3 1.5c.5.5.9 1.1 1.4 1.5l.4.3c.1.1.3.2.4.3l.8.5c1 .7 2.2 1.2 3.4 1.8.2.3.2.3.6.3v.1c.1-.1.2.1.3-.1.5.2.9.3 1.4.4-.1 0-.2.1-.1.1l.1-.1c.1 0 .2-.1.1-.1 1.3.2 2.4.7 3.7.8.3.1.7.1 1 .1.9.3 1.8.5 2.8.4-.8.1-1 .5-1.4.6z"/><path d="M28.5 28.5c-.1 0-.1.1-.2.1 0 0 .1-.1.2-.1zm-1 2.3c0-.1-.1-.1 0 0 0-.1 0 0 0 0zm-.4-.1c0-.1 0-.1.1-.1-.1 0-.1.1-.1.1zm-.6-.3c0-.1 0-.1 0 0 .1-.1 0 0 0 0z"/><path d="M26.5 30.6c-.1 0-.1 0-.1-.1-.1 0 .1-.1.1.1zm-1.6-.4h-.1c0 .1.2-.1.1 0zm-.7.1c0-.1 0-.1 0 0-.1-.1 0-.1 0-.1v.1zm-11.8-4.8h.1v.1zm-.6-2.3s0 .1.1.2c0 0 0-.2-.1-.2zm2.1 1.3h-.1l.1-.2z"/></g></svg>