<?xml version="1.0" encoding="utf-8"?>
<!-- Generator: Adobe Illustrator 24.0.2, SVG Export Plug-In . SVG Version: 6.00 Build 0)  -->
<svg version="1.1" id="Layer_1" xmlns="http://www.w3.org/2000/svg" xmlns:xlink="http://www.w3.org/1999/xlink" x="0px" y="0px"
	 viewBox="0 0 52.4 38.1" style="enable-background:new 0 0 52.4 38.1;" xml:space="preserve">
<style type="text/css">
	.st0{fill:#A1AFB7;}
	.st1{fill:#202020;}
	.st2{fill:#D3E7F1;}
	.st3{fill:#436685;}
	.st4{fill:#39576C;}
	.st5{fill:#4E7694;}
	.st6{fill:#A23A54;}
	.st7{fill:#68A242;}
	.st8{fill:#BB4567;}
	.st9{fill:#B1C5D2;}
</style>
<g>
	<g>
		<g>
			<polygon class="st0" points="41.1,9.9 41.1,12.8 28.1,20.4 28.1,17.5 			"/>
			<g>
				<g>
					<g>
						<g>
							<path class="st1" d="M41.4,10C41.4,9.9,41.3,10.1,41.4,10C41.4,10,41.4,10,41.4,10z"/>
							<path class="st1" d="M40.7,10c-0.2,0.5-0.8,0.5-1.1,0.9c0,0-0.1-0.2-0.2-0.1c-0.2,0.5-0.9,0.7-1.5,0.8v-0.1
								c-0.1,0-0.1,0.3-0.2,0.3c0,0,0-0.1,0-0.1c0,0.1-0.2,0.1-0.1,0.3c-0.1,0-0.1-0.1-0.2-0.1l0,0.1c0,0.4-0.4,0.2-0.5,0.5
								c0,0,0-0.1,0-0.1c-0.2,0.4-0.7,0.6-1,0.9c0-0.1,0-0.1-0.1-0.2c0,0.1,0,0.2-0.1,0.3c-0.1-0.1-0.1,0.2-0.3,0.2l0,0
								c0,0.2-0.2,0-0.2,0.2l-0.1-0.1c0.1,0.2-0.2,0-0.2,0.1l0,0c0,0.1-0.1,0-0.2,0.1l0,0c-0.1,0.1-0.3,0.1-0.2,0.2
								c-0.1-0.1,0.1-0.1-0.1-0.3c-0.4,0.4-0.9,0.7-1.4,1c-0.1,0-0.1,0-0.2-0.1c0,0.1-0.2,0.1-0.2,0.2c0,0-0.1-0.1-0.1,0
								c-0.1,0,0,0.2-0.1,0.2c0-0.1,0-0.1,0-0.2c0,0.2-0.1,0.2-0.2,0.3c0,0,0-0.1,0-0.1c0,0.2-0.2,0.1-0.3,0.2l0-0.1
								c-0.2,0,0,0.2-0.1,0.2c0,0,0-0.1,0-0.1c0,0.2-0.3,0.3-0.4,0.4c0,0,0,0,0,0c-0.1,0.1-0.3,0.1-0.4,0.3c-0.1,0-0.1-0.2-0.2-0.1
								c0.1,0.2-0.2,0.2,0,0.3c-0.1,0-0.4,0.1-0.4,0.2c0-0.1-0.2-0.2-0.1-0.2l-0.1,0c0-0.1,0.1,0,0-0.1c0,0-0.1,0.2-0.2,0.2
								c0,0.1,0,0.4-0.1,0.5c0-0.1-0.1-0.1-0.1-0.2l0,0.4c0,0-0.1-0.1-0.1,0c0,0,0,0.1,0,0.1c0,0-0.2,0.2-0.3,0
								c-0.1,0,0.1-0.1,0-0.1c-0.1,0-0.1,0.1-0.1,0.2l0,0c-0.1,0-0.1,0.2,0,0.2c0,0-0.1-0.1,0-0.1c0,0.1-0.1,0.2-0.1,0.2
								c0,0,0-0.1,0-0.1c0,0.2,0,0.3-0.1,0.3c0.1,0.1-0.1-0.1-0.1-0.1c-0.1,0-0.1,0-0.1,0.1c0,0.1,0.1,0.2,0,0.3c0,0,0.1,0,0.1,0
								c0,0-0.1,0-0.1,0.1c-0.1,0,0,0,0,0.1c0,0,0,0,0,0c0,0,0.1,0.2,0.1,0.3c0,0.1,0,0.1,0,0.2c0,0,0.2,0,0.2,0l-0.1,0
								c-0.1,0,0,0.1-0.1,0.1c0.1,0-0.1-0.2,0-0.1c-0.1,0.1,0.2,0,0,0.1c0,0.1,0.1,0,0,0.1c0,0-0.2,0.1-0.1,0.1c0,0.1,0,0,0.1,0h0
								c0.1-0.1,0,0.1,0.1-0.1c-0.1,0.1,0.1,0-0.1,0.2l-0.1,0.2c0,0,0.1-0.1,0.2-0.2c0,0,0,0.1-0.1,0.1c0.2-0.3,0,0.1,0.1-0.1
								c0,0.1,0,0.1,0,0.2c0,0,0,0,0,0.1c0.1-0.1,0.2-0.3,0.2-0.2c0,0,0,0-0.1,0.1c0,0.1,0,0,0.1-0.1c0,0,0,0.1,0,0.2
								c0.1-0.1,0.1-0.3,0.1-0.4c0,0.3,0.1-0.2,0.1,0c0,0-0.1,0.2,0,0.2c0,0.2,0.1-0.3,0.2-0.2l0-0.2c0,0.1,0-0.1,0.1,0
								c0-0.1,0.1,0,0-0.1c0.2,0.1,0.4-0.4,0.7-0.1c0,0,0.1-0.1,0-0.1c-0.1-0.1,0,0.1-0.1,0c0,0,0-0.1,0-0.1c0.1,0,0.1,0,0.1,0.1
								c0.2,0,0-0.3,0.2-0.4c0,0.1,0.1,0.1,0.1,0l0-0.2c0.1,0,0.1,0.1,0.2,0.2c0,0,0.1-0.1,0.1-0.2l0.1,0.1c-0.1-0.1,0-0.1,0-0.1
								l0,0c0,0,0.1,0,0.1-0.1c0-0.1-0.1,0-0.2,0c0-0.1,0.1-0.1,0.1-0.2c0,0.1,0.1,0,0.2,0c0.1,0,0-0.1,0-0.1c0,0,0.1,0,0.1,0.1
								c0,0-0.1,0-0.1,0c0.1,0,0.1,0.1,0.1,0c0-0.1-0.1-0.2,0-0.2c0,0,0,0.1,0,0.1h0.1l0-0.1c0,0,0,0,0,0c0-0.1,0.1-0.1,0.1-0.3
								c0,0,0.1,0,0.2,0v0c0.1,0,0.1-0.1,0.2-0.2l0,0c0,0,0.1-0.1,0.1-0.1c0.1,0,0.2,0.4,0.3,0.2c0.1,0,0-0.3,0-0.3
								c0.2,0,0.3-0.3,0.5-0.2c0,0,0-0.1,0-0.1c0.3-0.1,0.4-0.4,0.7-0.3c0,0.1,0,0.1,0.1,0.1c0-0.1,0.1,0,0-0.1
								c-0.1-0.1-0.1-0.1-0.2-0.1c0.1-0.1,0.3-0.2,0.4-0.2c-0.1,0,0-0.1,0-0.1c0.1,0.1,0.2,0.1,0.2,0l0-0.1l0.1,0.1
								c0,0-0.1-0.2,0-0.2c0,0,0,0.1,0.1,0.1c0-0.1,0.1-0.3,0.2-0.3l0.1,0.1c0,0,0-0.1,0-0.1c0.2,0,0.3-0.1,0.4,0
								c0.1-0.4,0.4-0.6,0.7-0.8l0,0.1c0.1,0,0-0.1,0-0.1c0,0.1,0.1,0.1,0.1,0.2c0.2,0,0.1-0.2,0.1-0.3c0-0.1,0,0.1-0.1,0
								c0,0,0.2,0,0.1-0.2c0.1,0,0.1,0.1,0.1,0.2l0-0.1c0.2,0.1,0,0.4,0.2,0.5l0-0.1c0.1,0.1-0.1,0.2,0.1,0.2c0-0.1,0-0.3-0.1-0.3
								c0.1-0.1-0.1-0.3,0-0.4c0.1,0.1-0.1,0.1,0,0.2c0.1,0.1,0.1-0.1,0.2-0.1c-0.1,0-0.1-0.2-0.1-0.2c0.1,0,0,0.1,0.1,0.1
								c0-0.1,0-0.2-0.1-0.2c-0.1-0.2,0.1,0,0.1-0.2c0.1,0.1,0,0.3,0.2,0.3c-0.1-0.1,0.1-0.2-0.1-0.4c0.1,0,0.1,0.1,0.1,0.2
								c0.1,0,0-0.3,0.2-0.1l0-0.1c0,0,0.1,0,0.2,0.1c0.1,0,0.1-0.3,0.2-0.1c0,0,0.2-0.1,0-0.2c-0.1,0,0,0.1-0.2,0
								c0.1,0.1,0.1-0.1,0.1-0.2l0,0.1c0,0,0.1-0.1,0.1-0.1c0,0.1,0,0.1,0.1,0.1l0-0.1c0.1-0.1,0.1,0.2,0.2,0.1l0,0.1
								c0,0,0.1,0,0.1,0c0-0.1-0.1-0.2-0.1-0.3c0-0.1,0.1,0.1,0.1,0l0,0.2c0,0,0.1,0.1,0.2,0.1c0-0.1,0-0.3-0.1-0.3
								c0,0,0.1,0,0.1,0.1c0.1-0.1-0.1-0.1,0-0.2c0.1,0,0.2,0.1,0.3,0.1v0.2l0.1,0c0,0.2,0.1,0.1,0.1,0.2c0,0,0.1-0.1,0.1-0.1
								c-0.2-0.1,0-0.4-0.2-0.5c0.1-0.1,0.4,0.4,0.4,0C39,13.1,39,12.9,39,13c0.1,0,0-0.2,0.1-0.2c0,0.1,0.2,0.1,0.2,0.3
								c0-0.1-0.1,0-0.1,0c0.1,0.1,0.1,0.2,0.2,0.1c0-0.1,0.1-0.1,0.1-0.2c-0.1-0.1-0.1,0.1-0.1-0.1c0.1-0.1,0.2,0,0.2-0.2
								c-0.1,0.1-0.2,0-0.2-0.1l0.1-0.1l0,0.1c0.2,0,0-0.2,0.1-0.2l0.2,0.1c0,0.1-0.2,0.1-0.1,0.3c0.1,0,0.1-0.2,0.2-0.2
								c0,0,0,0.1,0,0.1c0,0,0.2,0.2,0.3,0c0-0.1,0-0.1-0.1-0.2c0.1-0.1,0.1-0.2,0.2-0.3c0,0.1,0.1,0.1,0.1,0c0,0,0,0,0,0.1
								c-0.1-0.1-0.3,0.1-0.3,0.2c0.2,0.1-0.1,0-0.1,0.2c0.1-0.1,0.2,0.1,0.3,0.2c0,0,0-0.1,0-0.1c0-0.1-0.1-0.1-0.2-0.2
								c0.1,0,0.3-0.2,0.2-0.3c0,0,0.1,0.1,0.1,0.2c0.1-0.1,0.2-0.1,0.3-0.2c-0.1-0.1-0.1-0.1-0.1-0.1c0,0,0-0.1-0.1-0.1
								c0,0,0,0,0,0c-0.1,0-0.2-0.1-0.2-0.1c0,0,0.1,0.1,0.1,0.1c0,0,0,0,0,0c0,0,0.2,0.1,0,0c0.1,0.1,0.2,0.1,0.4,0.2
								c-0.1-0.1,0.1,0.1,0.1,0c-0.1-0.1-0.2-0.2-0.2-0.3c0.2-0.1,0-0.4,0-0.6c0.1-0.1,0.3,0,0.3-0.1c0-0.1-0.2,0.1-0.1-0.1l0,0
								c0,0,0.1-0.3-0.1-0.3l0.2,0.1c0,0,0-0.1,0-0.1c0.1,0,0.1,0,0.2,0c0.1-0.1,0-0.2,0-0.3l-0.1,0.1c-0.1-0.2,0-0.3,0-0.4l0.1,0
								L41,10.3c0.1,0,0.2-0.1,0.1-0.1l0.3,0.3c-0.1,0.1-0.1-0.1-0.2,0c-0.1,0-0.1,0.2,0,0.2c0-0.1,0-0.1,0-0.1
								c0.2,0,0.2,0.1,0.3,0.1c0,0,0-0.1,0-0.1c0.1,0.1,0.1,0.1,0.1,0.2c-0.1-0.1-0.1,0-0.1,0c0.1,0,0.2,0.1,0.1,0.2
								c-0.2,0.1,0.1,0.2,0.1,0.4c-0.1-0.1-0.3-0.1-0.3-0.2c-0.1,0.1,0,0.1-0.1,0.2c0.1,0,0.3,0.1,0.3,0.2l-0.1,0
								c0,0.1,0.2,0.1,0.2,0.2c0,0.1,0,0.2,0,0.3c0,0.1,0,0.3,0,0.4l-0.1,0c0.2,0.1,0.1,0.3,0.1,0.4c-0.1,0-0.1,0.1-0.1,0.1
								c-0.3,0.1-0.5,0.4-0.7,0.3c-0.3,0.3-0.6,0.5-0.9,0.7l0-0.2c0,0.1-0.1-0.1-0.1,0c0.1,0.1,0,0.2,0,0.3c-0.2,0-0.3,0.2-0.4,0.4
								l0,0c0,0.3-0.3,0.2-0.5,0.3c0,0-0.1-0.1-0.2-0.1c0,0.2-0.1,0.2-0.2,0.4c-0.1,0.1-0.3,0.1-0.4,0.1c-0.3,0.4-0.7,0.5-1,0.9
								l-0.1-0.1c-0.3,0.4-0.8,0.5-1.1,0.8l-0.1-0.2c-0.1,0-0.2,0.2-0.1,0.3c-0.1,0-0.2,0.2-0.4,0.1c-0.1,0-0.1,0.2-0.2,0.2
								c-0.3,0.1-0.3,0.1-0.5,0.3l0.1,0c0,0,0-0.1-0.1-0.1c0,0.1-0.3,0.1-0.1,0.3c-0.3,0-0.4,0.4-0.7,0.3c0,0,0,0.1,0,0.1
								c-0.2,0.1-0.5,0.1-0.5,0.3c0,0,0-0.1-0.1-0.1c0,0,0,0.1,0,0.1c-0.2,0.3-0.7,0.2-0.9,0.4c-0.4,0.4-1,0.6-1.4,0.9l0,0
								c-0.1,0.3-0.4,0-0.5,0.4c-0.1,0-0.3,0.1-0.2,0c-0.2,0.3-0.6,0.2-0.9,0.6c0,0,0,0,0.1-0.1c-0.3,0-0.6,0.4-0.9,0.5
								c0,0,0.1-0.1,0.1-0.2c0-0.1-0.4,0.5-0.3,0.1c-0.1,0-0.1,0.2-0.1,0.2c-0.1,0-0.2,0.1-0.3,0.2c0-0.7-0.1-1.3-0.1-2
								c0.1-0.7,0.4-0.2,0.2-0.6c0,0-0.1,0,0,0c-0.1-0.2,0.3-0.3,0.1-0.4c-0.1,0.1-0.1-0.1-0.2-0.1c0.1-0.3,0.2-0.2,0.1-0.5l0.1,0
								c-0.2-0.3-0.1-0.6-0.3-1c0,0,0,0,0-0.1c1-0.6,1.3-0.8,1.8-1.2c0.5-0.3,0.9-0.6,1.4-0.9c1-0.5,1.8-1.1,2.8-1.6
								c0.3,0,0.3,0,0.5-0.2c0,0,0,0.1,0,0.1c-0.1-0.1,0.2-0.1,0.1-0.3c0.4-0.2,0.7-0.4,1-0.6c0,0.1,0,0.2,0,0.1l0-0.1l0,0
								c0-0.1,0-0.1,0-0.2c0.8-0.6,1.9-0.9,2.8-1.4c0.3-0.1,0.5-0.3,0.7-0.5c0.8-0.2,1.5-0.4,2.1-0.9C40.8,9.3,40.9,9.8,40.7,10z"/>
							<path class="st1" d="M41.4,10.2c-0.1,0-0.1,0.1-0.2,0.1C41.3,10.2,41.3,10.2,41.4,10.2z"/>
							<path class="st1" d="M40.5,12.4C40.6,12.4,40.5,12.4,40.5,12.4C40.5,12.4,40.4,12.4,40.5,12.4C40.5,12.4,40.5,12.4,40.5,12.4
								z"/>
							<path class="st1" d="M40.3,12.6c0-0.1,0-0.1,0-0.1C40.3,12.5,40.3,12.5,40.3,12.6z"/>
							<path class="st1" d="M39.8,12.6c-0.1,0-0.1-0.1,0-0.1C39.8,12.5,39.8,12.5,39.8,12.6z"/>
							<path class="st1" d="M39.8,12.7c0,0-0.1,0-0.1,0C39.7,12.8,39.8,12.6,39.8,12.7z"/>
							<path class="st1" d="M38.6,13.2c0,0,0,0.1-0.1,0.1C38.5,13.3,38.6,13.1,38.6,13.2z"/>
							<path class="st1" d="M38.2,13.6C38.1,13.6,38.1,13.6,38.2,13.6C38.1,13.6,38.1,13.5,38.2,13.6L38.2,13.6z"/>
							<polygon class="st1" points="29.2,19.1 29.3,19 29.3,19.1 							"/>
							<path class="st1" d="M28.9,17.7C28.9,17.7,28.9,17.7,28.9,17.7C28.9,17.8,28.9,17.7,28.9,17.7z"/>
							<polygon class="st1" points="30.8,16.1 30.8,16.2 30.7,16 							"/>
						</g>
					</g>
				</g>
			</g>
		</g>
	</g>
	<g>
		<g>
			<path class="st2" d="M41.1,9.9l-13,7.6L15,9.9C22.2,5.8,33.9,5.8,41.1,9.9z"/>
			<g>
				<g>
					<g>
						<g>
							<path class="st1" d="M41.1,10.3c0.2-0.1-0.2-0.1,0.1-0.1C41.2,10.2,41.2,10.3,41.1,10.3z"/>
							<path class="st1" d="M40.6,9.5c-0.8,0-1.4-0.7-2.2-0.8c-0.1,0,0.1-0.2-0.1-0.2c-0.8,0-1.8-0.5-2.6-0.9l0.1,0
								c-0.2-0.1-0.4,0.1-0.6,0c0,0,0.1,0,0-0.1c-0.1,0.1-0.3,0-0.4,0.1c-0.1-0.1,0-0.2-0.1-0.2l-0.1,0.1c-0.3,0.3-0.7-0.2-1.1-0.1
								c0,0,0.1,0,0-0.1c-0.6,0.1-1.4-0.1-2.1-0.1c0,0,0.1-0.1,0-0.2c0,0.1-0.3,0.2-0.5,0.2c-0.1-0.2-0.3,0.1-0.5,0l0,0
								c-0.2,0.1-0.2-0.1-0.4,0.1L30.1,7c-0.1,0.2-0.2-0.1-0.4,0v0c-0.1,0.1-0.2-0.1-0.3,0l0,0C29.1,7,29,6.9,29,7.1
								c-0.1-0.1,0.3-0.1,0.1-0.2c-0.9,0.1-1.8,0.1-2.7,0.2c-0.1-0.1-0.2-0.1-0.2-0.1c-0.1,0-0.3,0.1-0.4,0.2c0,0-0.1-0.1-0.1-0.1
								c-0.2-0.1-0.2,0.2-0.4,0.1c0.1-0.1,0.1-0.1,0.1-0.2C25.3,7,25,7,24.9,7.1c0,0,0.1-0.1,0.1-0.1c-0.2,0.2-0.4,0-0.5,0.1l0-0.1
								c-0.3-0.1-0.1,0.2-0.3,0.2c0,0,0-0.1,0-0.1c-0.2,0.2-0.6,0.2-0.8,0.3c0,0,0,0,0,0c-0.2,0.1-0.5,0-0.8,0.2
								c-0.1,0,0-0.2-0.3-0.1c0,0.2-0.4,0.2-0.2,0.3c-0.2,0-0.6,0-0.7,0.1c0.1-0.1-0.2-0.2,0-0.3l-0.2-0.1c0-0.1,0.1,0,0.1-0.1
								c-0.1,0-0.3,0.2-0.4,0.1c-0.1,0.2-0.2,0.4-0.5,0.5c0.1-0.1-0.1-0.2,0-0.2l-0.3,0.4c-0.1,0-0.1-0.1-0.2-0.1c0,0.1,0,0.1,0,0.1
								c0,0-0.3,0.1-0.4,0c-0.1-0.1,0.1-0.1,0-0.1c-0.2,0.1-0.1,0.1-0.3,0.2l0,0c-0.1,0-0.3,0.2-0.1,0.2c0.1,0-0.1-0.1,0.1-0.1
								c0,0.1-0.2,0.2-0.4,0.3c0-0.1,0-0.1,0-0.1c-0.2,0.2-0.4,0.3-0.6,0.5c0,0.1,0-0.2,0.1-0.1c-0.4,0-0.5,0.4-0.9,0.3
								c0,0,0.1,0.1,0.1,0.1c-0.1,0.1-0.2-0.1-0.3,0c0-0.1-0.1,0.1-0.2,0.1c0,0.1,0,0,0-0.1c-0.1,0.1-0.2,0.3-0.5,0.3
								c0.1,0,0.1,0.1,0.1,0.1l-0.2-0.1c-0.1,0-0.1,0.1-0.3,0c0.1,0.1,0.1-0.2,0.2-0.1c-0.2,0,0.1,0.1-0.1,0.1
								c-0.1,0.1,0.1,0.1-0.2,0.1c0,0-0.2-0.1-0.3,0c-0.1,0,0,0,0,0.1c0,0,0,0,0.1,0l0.2,0c0.2,0,0.1,0.1,0.3,0
								c-0.1,0,0.2,0.1-0.1,0.1l-0.3,0c0.1,0,0.3,0,0.5,0c0,0,0,0-0.1,0c0.3-0.1,0.1,0.1,0.4,0c0,0.1,0.2,0.1,0.1,0.2
								c0.1,0,0.1,0,0.2,0c0.1,0,0.1,0.1,0.2,0.1c0,0-0.1,0-0.1,0c0.1,0.1,0.1,0.1,0.2,0.1c0,0,0.1,0.2,0.2,0.4
								c0.2,0,0.2-0.1,0.2-0.2c0,0.3,0.5,0.1,0.5,0.4c-0.1,0-0.3,0-0.2,0.1c0,0.3,0.3,0,0.5,0.2l0-0.2c0,0.1,0.3,0.1,0.2,0.2
								c0.1,0,0.2,0.2,0.3,0c0.3,0.3,0.8,0.4,0.9,0.8c0.1,0,0.2,0.1,0.2,0c0-0.1-0.1,0-0.1-0.1c0,0,0.1,0,0.1,0
								c0.1,0.1,0.1,0.1,0,0.2c0.2,0.2,0.4-0.1,0.6,0.1c0,0.1,0,0.1,0,0.1l0.2,0c0.2,0.1,0,0.2,0,0.3c0.1,0,0.2,0.1,0.3,0.1l0,0.2
								c0-0.1,0.1,0,0.2,0h-0.1c0,0.1,0.1,0.1,0.2,0.1c0-0.1-0.1-0.2-0.1-0.2c0.1,0,0.1,0,0.3,0c-0.1,0.1,0.1,0.2,0.2,0.2
								c0.1,0.1,0.2,0,0.2,0c0,0.1,0.1,0.1,0,0.1c0,0,0-0.1-0.1-0.1c0,0.1,0,0.2,0.1,0.2c0.1,0,0.1-0.2,0.2-0.1
								c-0.1,0-0.1,0-0.1,0.1l0.1,0.1l0.1-0.1c0,0,0,0,0,0.1c0.1-0.1,0.3,0.1,0.4,0c0.1,0,0.1,0.2,0.2,0.2h0
								c0.1,0.1,0.2,0.1,0.3,0.1l0,0c0,0,0.2,0.1,0.3,0.1c0.1,0.1-0.2,0.4,0,0.4c0.1,0.1,0.3-0.1,0.3-0.1c0.2,0.2,0.6,0.2,0.7,0.5
								c0.1,0,0-0.1,0.1,0c0.3,0.2,0.8,0.3,1,0.7c-0.1,0-0.1,0.1-0.1,0.1c0.1,0,0,0.1,0.2,0c0-0.1,0.1-0.1,0-0.2
								c0.2,0.1,0.6,0.3,0.6,0.4c0-0.1,0-0.1,0.1-0.1c-0.1,0.1,0,0.2,0.2,0.3l0.1-0.1l0,0.1c0.1,0,0.1-0.1,0.2,0c0,0,0,0.1,0,0.1
								c0.2,0,0.4,0,0.5,0.1l0,0.2c0.1,0,0.2,0,0.1-0.1c0.1,0.1,0.2,0.2,0.2,0.2c0,0,0,0.1,0,0.2c0,0,0.1-0.1,0.1-0.1
								c0.1-0.1,0.1-0.2,0.2-0.2c0.2-0.1,0.4-0.2,0.6-0.3l0,0.1c0.2,0,0-0.1,0.1-0.1c0,0.1,0.2,0.1,0.1,0.2c0.2,0,0.2-0.2,0.3-0.3
								c0-0.1-0.1,0.1-0.1,0c0,0,0.3-0.1,0.2-0.2c0.1,0,0.1,0.1,0.1,0.2l0.1-0.1c0.2,0.1-0.1,0.4,0.1,0.5l0.1-0.1
								c0.2,0.1-0.2,0.3,0.1,0.2C30,16.3,30,16,29.8,16c0.2-0.2-0.1-0.4,0.2-0.5c0.1,0-0.2,0.1-0.1,0.2c0.2,0,0.2-0.2,0.3-0.2
								c-0.1,0-0.1-0.2-0.1-0.2c0.2,0,0,0.2,0.2,0.1c0-0.1,0.1-0.2,0-0.2c0-0.2,0.2-0.1,0.2-0.2c0.1,0.1,0,0.4,0.2,0.3
								c-0.1-0.1,0.1-0.3,0-0.4c0.1,0,0.1,0.1,0.1,0.2c0.1,0,0.1-0.4,0.3-0.1l0-0.1c0,0,0.1,0,0.2,0.1c0.1-0.1,0.2-0.3,0.3-0.1
								c0,0,0.2-0.1,0.1-0.2c-0.2,0-0.1,0.2-0.3,0.1c0.2,0.1,0.2-0.1,0.2-0.2l0,0.1c0-0.1,0.1-0.1,0.1-0.2c0,0.1,0,0.1,0.1,0.1
								l0-0.1c0.2-0.2,0.2,0.1,0.3,0l-0.1,0.2c0,0,0.1,0,0.2-0.1c0-0.1,0-0.3,0-0.4c0.1-0.1,0.1,0.1,0.2-0.1L32.4,14
								c0,0,0.2,0.1,0.3,0c0.1-0.1,0.1-0.3,0-0.3c0.1,0,0.2,0,0.2,0.1c0.1-0.1-0.1-0.1,0-0.2c0.1,0,0.3,0,0.5,0.1l0,0.2l0.1-0.1
								c0,0.2,0.1,0.1,0.1,0.2c0.1,0,0.1-0.1,0.2-0.2c-0.3-0.1,0-0.4-0.1-0.6c0.2-0.2,0.4,0.4,0.5-0.1c-0.1,0,0-0.2-0.2-0.1
								c0.2-0.1,0-0.3,0.2-0.3c-0.1,0.2,0.3,0.1,0.1,0.3c0-0.1-0.1,0-0.2,0.1c0.1,0,0.1,0.2,0.3,0.1c0.1-0.1,0.2-0.2,0.1-0.3
								c-0.1-0.1-0.1,0.1-0.2-0.1c0.2-0.1,0.3,0,0.3-0.3c-0.1,0.1-0.2,0-0.3-0.1l0.1-0.1l0,0.1c0.3-0.1,0-0.2,0.2-0.3l0.2,0.1
								c0,0.1-0.4,0.1-0.2,0.3c0.2-0.1,0.1-0.2,0.3-0.2c0,0-0.1,0.1-0.1,0.1c0.1,0,0.3,0.2,0.4-0.1c0.1-0.1,0-0.1,0-0.2
								c0.2-0.2,0.3-0.3,0.4-0.4c0,0.2,0.3-0.1,0.2,0.1c-0.1,0-0.5,0.2-0.5,0.4c0.2,0.1-0.2,0.1-0.2,0.3c0.2-0.1,0.3,0.1,0.4,0.2
								c0.1,0,0.1-0.1,0.1-0.1c0-0.1-0.1-0.1-0.2-0.2c0.2-0.1,0.4-0.3,0.5-0.4c0.1,0,0.1,0.1,0.1,0.2c0.2-0.2,0.5-0.3,0.8-0.4
								c-0.3-0.1,0.2-0.2,0-0.3c-0.2,0-0.3,0-0.3-0.1c0.1,0,0,0.1,0.1,0.1c0-0.1,0.2,0.1,0.3-0.1c-0.2,0.2,0.1,0.2,0.1,0.4
								c0.1-0.2,0,0.1,0.2,0c0.1-0.2,0.3-0.4,0.5-0.5c0.3,0,0.6-0.3,0.8-0.5c0.2,0,0.2,0.2,0.3,0.2c0.1-0.1-0.2-0.1,0-0.1v0
								c0-0.1,0.4-0.1,0.4-0.4l0,0.2c0,0,0.1-0.1,0.1-0.1c0,0.1,0.1,0.1,0.1,0.1c0.2,0,0.3-0.2,0.4-0.3l-0.1-0.1
								c0.2-0.2,0.4-0.2,0.6-0.4l0,0.1l0.1-0.1c0,0.1,0.2,0.1,0.2,0l-0.2,0.4c-0.1,0,0-0.2-0.1-0.2c-0.1-0.1-0.3,0.1-0.3,0.2
								c0.1,0,0.1-0.1,0.1-0.1c0.1,0.1,0,0.2,0,0.3c0,0,0.1,0,0.1-0.1c0,0.1-0.1,0.2-0.3,0.3c0.1-0.1-0.1-0.1-0.1-0.1
								c0.1,0.1,0,0.2-0.2,0.3c-0.2-0.1-0.3,0.3-0.5,0.4c0-0.2,0.1-0.3,0.2-0.4c-0.2,0-0.1,0.1-0.3,0.1c0,0.1,0,0.3-0.1,0.4
								l-0.1-0.1c-0.1,0.1,0,0.3-0.2,0.3c-0.3,0.1-0.7,0.3-0.9,0.5l-0.1-0.1c0,0.3-0.4,0.3-0.5,0.5c-0.4,0.1-0.6,0.5-0.9,0.4
								c-0.5,0.4-0.9,0.7-1.5,1l0-0.2c0,0.1-0.1,0-0.2,0c0.2,0-0.1,0.2-0.1,0.3c-0.3,0.1-0.6,0.3-0.7,0.6l-0.1-0.1
								c-0.1,0.3-0.5,0.3-0.8,0.4c0,0-0.2-0.1-0.2,0c-0.1,0.2-0.2,0.3-0.3,0.5c-0.2,0.1-0.4,0.2-0.6,0.3c-0.5,0.5-1.2,0.8-1.8,1.3
								l-0.1-0.1c-0.2,0.2-0.4,0.4-0.7,0.5c-0.4,0.2-0.8,0.4-1.1,0.6c-0.3-0.1-0.5-0.3-0.7-0.4c0.1,0,0.1-0.1,0.2-0.1
								c-0.3-0.2-0.5-0.2-0.5-0.1c-0.1-0.1-0.5-0.1-0.5-0.4c-0.1-0.1-0.3,0-0.4-0.1c-0.3-0.3-0.4-0.3-0.8-0.5l0.1,0.1
								c0.1,0,0.1-0.1,0-0.1c-0.1,0-0.4-0.3-0.4,0c-0.3-0.3-0.9-0.4-1.1-0.7c0,0.1-0.1,0-0.1,0.1c-0.3-0.2-0.5-0.5-0.8-0.5
								c0-0.1,0.1-0.1,0-0.1c-0.1,0,0,0.1-0.1,0.1c-0.5-0.2-0.9-0.7-1.4-0.9c-0.8-0.3-1.6-0.9-2.4-1.3l0,0c-0.3,0-0.5-0.5-0.8-0.4
								c0-0.1-0.2-0.1-0.1-0.2c-0.3,0-0.5-0.4-0.9-0.4c0,0,0,0,0.1,0c-0.2-0.3-0.6-0.3-0.8-0.5c0,0,0.1,0,0.1,0
								c-0.1-0.2-0.4,0-0.4-0.3c-0.1-0.1-0.1,0.1-0.1,0.1c-0.5-0.4-1.1-0.7-1.7-1c-0.3-0.2-0.6-0.3-1-0.5L13.5,10
								c-0.1,0-0.1,0,0-0.1l0.2-0.1L14,9.5c1.1-0.4,0.6,0.1,1-0.3c0.1,0-0.1-0.1,0,0C15.3,9,15.7,9.1,15.8,9c-0.2-0.1,0-0.1,0-0.2
								c0.6-0.2,0.8-0.1,1-0.3l0,0.1c0.2-0.3,0.6-0.4,0.8-0.7c1.7-0.7,3.5-1.3,5.2-1.6c1.8-0.2,3.5-0.5,5.4-0.4
								c0.4,0.2,0.5,0.2,0.9,0.1c0,0,0,0,0,0.1c0-0.2,0.3,0,0.4-0.2c0.7,0,1.3,0.1,2,0.1c-0.1,0-0.2,0.1,0,0.1l0.1-0.1l0,0.1
								c0.1,0,0.2-0.1,0.1-0.2c1.8,0.1,3.4,0.7,5.1,1.2c0.4,0.2,0.9,0.3,1.4,0.4c1.2,0.6,2.1,1.3,3.4,1.8
								C41.5,9.3,41.1,9.6,40.6,9.5z"/>
							<path class="st1" d="M40.9,10.4c-0.1-0.1-0.2,0-0.2-0.2C40.8,10.3,40.9,10.3,40.9,10.4z"/>
							<path class="st1" d="M37.1,11.6C37.1,11.7,37,11.6,37.1,11.6c0,0,0-0.1,0-0.1C37.1,11.6,37.1,11.6,37.1,11.6z"/>
							<path class="st1" d="M36.2,12.1c0-0.1,0.1-0.2,0.2-0.3L36.2,12.1z"/>
							<path class="st1" d="M35.3,12.3c-0.1,0-0.1-0.1,0-0.1C35.3,12.2,35.3,12.3,35.3,12.3z"/>
							<path class="st1" d="M35.3,12.5c-0.1,0-0.1,0-0.2,0C35.1,12.5,35.2,12.4,35.3,12.5z"/>
							<path class="st1" d="M33.4,13.3c0,0-0.1,0.1-0.2,0.1C33.3,13.4,33.4,13.2,33.4,13.3z"/>
							<path class="st1" d="M32.7,13.9C32.6,13.9,32.6,13.9,32.7,13.9C32.5,13.9,32.5,13.9,32.7,13.9L32.7,13.9z"/>
							<polygon class="st1" points="18.5,11.3 18.6,11.3 18.5,11.4 							"/>
							<path class="st1" d="M18.7,8.9c0.1-0.1,0.1,0,0.1,0.1C18.7,9,18.8,8.8,18.7,8.9z"/>
							<polygon class="st1" points="22.5,7.5 22.5,7.5 22.4,7.4 							"/>
						</g>
					</g>
				</g>
			</g>
		</g>
	</g>
	<g>
		<g>
			<polygon class="st0" points="28.1,17.5 28.1,20.8 15,13.2 15,9.9 			"/>
			<g>
				<g>
					<g>
						<g>
							<path class="st1" d="M28.4,17.6C28.4,17.5,28.3,17.7,28.4,17.6C28.4,17.5,28.4,17.6,28.4,17.6z"/>
							<path class="st1" d="M27.8,17.1c-0.6,0.1-0.9-0.5-1.4-0.5c-0.1,0,0.1-0.2,0-0.2c-0.5,0-1.1-0.5-1.5-1l0.1,0
								c-0.1-0.1-0.3,0-0.4-0.1c0,0,0.1,0,0.1-0.1c-0.1,0.1-0.2-0.1-0.3,0c0-0.1,0-0.1,0-0.2l-0.1,0.1c-0.3,0.2-0.4-0.2-0.7-0.2
								c0,0,0.1,0,0.1-0.1c-0.4,0-0.9-0.3-1.3-0.5c0,0,0.1-0.1,0.1-0.2c-0.1,0.1-0.2,0.1-0.3,0c0-0.1-0.2,0-0.3-0.1l0,0
								c-0.2,0.1-0.1-0.1-0.3,0v-0.1c-0.1,0.2-0.1-0.2-0.2-0.1l0,0c-0.1,0-0.1-0.1-0.2-0.1l0,0c-0.2,0-0.2-0.2-0.3-0.1
								c0-0.1,0.2,0,0.2-0.2c-0.6-0.1-1.1-0.5-1.6-0.8c0-0.1,0-0.1,0-0.2c-0.1,0-0.2-0.1-0.3,0c0,0,0-0.1,0-0.1
								c-0.1-0.1-0.2,0.1-0.3,0c0.1,0,0.1-0.1,0.1-0.1c-0.1,0.1-0.3,0-0.4-0.1c0,0,0.1,0,0.1-0.1c-0.2,0.1-0.2-0.1-0.3-0.1l0.1-0.1
								c-0.1-0.2-0.1,0.1-0.2,0c0,0,0,0,0.1-0.1c-0.2,0.1-0.4-0.1-0.5-0.1c0,0,0,0,0,0c-0.1-0.1-0.3-0.2-0.5-0.2
								c0-0.1,0.1-0.2,0-0.2c-0.1,0.2-0.3-0.1-0.3,0.2c-0.1-0.1-0.3-0.3-0.4-0.3c0.1,0,0-0.2,0.2-0.2l0-0.1c0-0.1,0.1,0.1,0.1,0
								c-0.1,0-0.2-0.1-0.3-0.1c-0.2,0-0.3,0.2-0.5,0.1c0.1,0,0-0.2,0-0.2c-0.1,0.1-0.2,0.2-0.2,0.3c0,0,0-0.2-0.1-0.1
								c0,0.1,0,0.1,0,0.1c0,0-0.1,0-0.2-0.3c0-0.1,0.1,0,0-0.1c-0.1-0.1-0.1,0-0.1,0l0,0c-0.1-0.1-0.1,0,0,0.2c0,0-0.1-0.2,0-0.1
								c0,0.1,0,0.1-0.1,0.1c0,0,0-0.1-0.1-0.2c0,0.1,0,0.2,0,0.2l0.1,0.2c0.1,0.1-0.2-0.3-0.1-0.2c-0.1,0,0.2,0.5,0,0.4
								c0,0,0.1,0.1,0.1,0.1c0,0-0.1-0.1-0.1,0c-0.1-0.1,0,0.1,0.1,0.1c0.1,0.1,0,0,0-0.1c0.1,0.1,0.2,0.4,0.1,0.4
								c0.1,0,0.2,0.1,0.2,0.1l-0.1,0c-0.1,0,0,0.1-0.1,0.1c0.1,0.1,0-0.1,0-0.1s-0.1-0.1,0-0.1c-0.1,0,0.2,0.1,0,0.1
								c0,0.1,0.1,0.2,0,0.3c0,0-0.2-0.1-0.1,0c0,0.1,0.1,0,0.1,0.2l0.1,0.1c0.1,0,0,0.1,0.1,0.1c-0.1,0,0.1,0.2-0.1,0.2l-0.1,0
								c0,0.1,0.1,0.1,0.2,0.1c0,0,0,0-0.1,0c0.2,0,0,0.1,0.1,0.1c0,0,0,0.1-0.1,0.1c0,0,0,0.1,0,0.1c0.1,0,0.2-0.1,0.2,0
								c0,0,0,0-0.1,0c0,0.1,0,0,0.1,0c0,0,0,0.2,0.1,0.3c0.1,0,0.2-0.1,0.2-0.2c0,0.2,0.3,0,0.3,0.3c0,0-0.2,0-0.1,0.1
								c0,0.2,0.2-0.1,0.3,0.1l0.1-0.2c0,0.1,0.2,0,0.1,0.2c0.1,0,0.1,0.1,0.2,0c0.1,0.3,0.5,0.2,0.5,0.6c0,0,0.1,0.1,0.1,0
								c0-0.1-0.1,0-0.1-0.1c0,0,0.1,0,0.1-0.1c0,0.1,0.1,0.1,0,0.2c0.1,0.2,0.3-0.2,0.5,0c0,0.1,0,0.1,0,0.1l0.2-0.1
								c0.1,0.1,0,0.2-0.1,0.3c0.1,0,0.1,0.1,0.2,0v0.2c0-0.1,0.1,0,0.1,0l0,0c0,0.1,0.1,0.1,0.1,0.1c0-0.1,0-0.1-0.1-0.2
								c0.1,0,0.1,0,0.2,0c-0.1,0.1,0.1,0.1,0.1,0.2c0,0.1,0.1-0.1,0.1,0c0,0.1,0.1,0.1,0,0.1c0,0,0-0.1-0.1-0.1
								c0,0.1,0,0.2,0.1,0.1c0.1,0,0.1-0.2,0.2-0.1c0,0-0.1,0.1-0.1,0.1l0.1,0.1l0.1-0.1c0,0,0,0,0,0.1c0.1-0.1,0.2,0.1,0.3,0
								c0.1,0,0.1,0.1,0.1,0.2h0c0,0.1,0.1,0.1,0.2,0.1l0,0c0,0,0.1,0.1,0.2,0c0,0.1-0.2,0.4,0,0.3c0.1,0.1,0.2-0.1,0.2-0.2
								c0.1,0.2,0.4,0.1,0.4,0.3c0,0,0-0.1,0.1-0.1c0.2,0.2,0.5,0.2,0.6,0.5c-0.1,0-0.1,0.1-0.1,0.1c0.1,0,0,0.1,0.1,0
								c0-0.1,0.1-0.1,0-0.2c0.2,0,0.4,0.1,0.4,0.3c0-0.1,0-0.1,0.1-0.1c-0.1,0.1,0,0.2,0.1,0.2l0.1-0.1v0.1c0,0,0.1-0.2,0.2,0
								c0,0,0,0.1,0,0.1c0.1,0,0.3-0.1,0.3,0v0.2c0,0,0.1,0,0.1-0.1c0.1,0.2,0.2,0.2,0.2,0.4c0.4-0.1,0.8,0.1,1.1,0.3l0,0.1
								c0,0.1,0.1-0.1,0.1,0c-0.1,0,0,0.2-0.1,0.2c0.1,0.1,0.2,0,0.3,0c0.1-0.1-0.1,0,0-0.1c0,0,0.1,0.1,0.2,0
								c0,0.1-0.1,0.1-0.1,0.2l0.1,0c0,0.2-0.3,0.1-0.4,0.4l0.1,0c0,0.2-0.3,0-0.1,0.2c0.1,0,0.3-0.2,0.2-0.3c0.2,0,0.2-0.3,0.4-0.2
								c0,0.1-0.1,0-0.2,0.1c0,0.1,0.2,0,0.2,0.1c0-0.1,0.1-0.2,0.1-0.2c0,0.1-0.1,0.1,0,0.2c0.1-0.1,0.2-0.1,0.1-0.2
								c0.1-0.1,0.1,0.1,0.2,0c0,0.1-0.3,0.2-0.2,0.3c0-0.1,0.2-0.1,0.3-0.3c0,0.1,0,0.1-0.1,0.2c0,0.1,0.3-0.1,0.2,0.1l0.1-0.1
								c0,0,0,0.1,0,0.2c0.1,0,0.3,0,0.2,0.1c0,0,0.2,0.1,0.2-0.1c0-0.1-0.1,0-0.1-0.2c0,0.2,0.1,0,0.2,0l0,0.1c0,0,0.1,0,0.2,0
								c0,0-0.1,0.1,0,0.1l0.1-0.1c0.1,0-0.1,0.2,0.1,0.2l-0.1,0c0,0,0,0.1,0.1,0.1c0.1-0.1,0.2-0.2,0.2-0.2c0.1,0,0,0.1,0.1,0.1
								L26,18.6c0,0,0,0.2,0.1,0.2c0.1,0,0.2-0.1,0.2-0.2c0,0,0.1,0.1,0,0.2c0.1,0,0-0.1,0.2-0.1c0,0.1,0.1,0.2,0.1,0.4l-0.2,0.1
								l0.1,0c-0.1,0.1,0,0.1-0.1,0.2c0,0,0.1,0,0.2,0c0-0.3,0.3-0.2,0.4-0.4c0.2,0-0.1,0.5,0.1,0.3c0-0.1,0.1-0.2,0-0.2
								c0,0,0.1-0.2,0.1-0.1c0,0.1,0,0.2-0.1,0.4c0-0.1,0-0.1,0-0.1c0,0.1-0.1,0.2,0,0.2c0,0,0.1,0,0.1-0.1c0-0.1,0,0,0-0.1
								c0,0,0,0.2,0.1,0c0,0,0-0.1,0-0.2l0,0V19c0,0.1,0-0.2,0-0.1l0,0.2c0,0.2,0-0.1,0,0.2c0,0,0-0.1,0.1,0c0,0,0,0,0,0
								c0,0,0.1,0.4,0.1,0.2c0-0.1,0-0.1,0-0.2c0,0,0-0.1,0-0.1c0.1,0.3,0,0,0.1,0.3c-0.1-0.2-0.1-0.2-0.1,0c0.1,0.3-0.1-0.1,0,0.2
								c0.1,0,0.1,0.3,0.2,0.5c0,0,0,0,0,0c0-0.2-0.1-0.2-0.1-0.4c0.1,0.1,0.1,0,0.1-0.1c0.1,0.1,0.2,0.3,0.1,0.3c0,0,0.1,0,0.2,0.1
								c0,0,0-0.1,0-0.1c-0.2-0.2,0-0.2-0.2-0.4c0,0-0.2-0.2-0.3-0.4c0,0,0.1,0.1,0.1,0.2c-0.1-0.2,0.2,0.2,0-0.1
								c0.1,0.1,0.2,0.4,0.4,0.6c-0.1-0.2,0.1,0.2,0.1,0.1c-0.1-0.2-0.1-0.4-0.2-0.5c0.1,0,0-0.3,0-0.4c0.1,0,0.3,0.1,0.3,0
								c0-0.1-0.2,0-0.1-0.1l0,0c0,0,0.1-0.2-0.1-0.3l0.2,0c0,0,0,0,0-0.1c0.1,0,0.1,0,0.2,0c0.1-0.1,0-0.2,0-0.3l-0.1,0.1
								c-0.1-0.2,0-0.3,0-0.5l0.1,0l-0.1-0.1c0.1,0,0.2-0.1,0.1-0.1l0.3,0.3c-0.1,0.1-0.1-0.1-0.2,0c-0.1,0-0.1,0.2,0,0.2
								c0-0.1,0-0.1,0-0.1c0.1,0,0.1,0.1,0.3,0.1c0,0,0-0.1,0-0.1c0.1,0.1,0.1,0.1,0.1,0.2c-0.1-0.1-0.1,0-0.1,0
								c0.1,0,0.2,0.1,0.1,0.2c-0.2,0.1,0.1,0.2,0.1,0.4c-0.1-0.1-0.3-0.2-0.3-0.3c-0.1,0.1,0,0.1-0.1,0.2c0.1,0.1,0.3,0.1,0.3,0.3
								l-0.1,0c0,0.1,0.2,0.2,0.2,0.4c0,0.3,0,0.6-0.1,0.8l-0.1-0.1c0.2,0.4,0.1,0.5,0.2,0.8c0,0,0,0.1,0,0.1
								c-0.2-0.1-0.4-0.1-0.6-0.4c-0.4-0.1-0.8-0.3-1.3-0.6c0,0,0.1-0.1,0.1-0.1c-0.1,0.1,0-0.1-0.1-0.1c0,0.2-0.2,0.1-0.3,0.1
								C26.1,20,25.9,20,25.7,20l0-0.1c-0.2,0.1-0.3-0.2-0.5-0.3c0,0,0-0.1,0-0.2c-0.2,0.1-0.2,0-0.4,0c-0.1-0.1-0.3-0.2-0.3-0.3
								c-0.5,0-0.8-0.4-1.3-0.5l0-0.1c-0.5,0-0.9-0.5-1.3-0.6l0.1-0.2c-0.1-0.1-0.3-0.1-0.3,0c-0.1-0.1-0.3-0.1-0.3-0.3
								c-0.1-0.1-0.2,0-0.3,0c-0.2-0.2-0.3-0.2-0.5-0.3l0,0c0,0,0.1-0.1,0-0.1c-0.1,0-0.3-0.2-0.3,0c-0.1-0.3-0.6-0.2-0.7-0.5
								c0,0.1-0.1,0-0.1,0.1c-0.2-0.1-0.3-0.3-0.5-0.3c0,0,0.1-0.1,0-0.1c-0.1,0,0,0.1-0.1,0.1c-0.4-0.1-0.6-0.5-0.9-0.6
								c-0.6-0.2-1-0.5-1.5-0.8l0,0c-0.3,0.1-0.3-0.4-0.5-0.2c0-0.1-0.1-0.1-0.1-0.2c-0.2,0-0.3-0.3-0.6-0.3c0,0,0,0,0.1,0
								c-0.1-0.1-0.2-0.1-0.3-0.2c-0.1,0-0.1,0-0.1-0.1C15,14.1,15,14,14.9,14c0.1,0,0.1,0,0.1,0c-0.1-0.1-0.4,0-0.3-0.2
								c-0.1,0-0.1,0.1-0.1,0.1c-0.1-0.1-0.2-0.2-0.4-0.2c0-0.4,0-0.7,0-1.1c0-0.2-0.1-0.4-0.1-0.6c0.1-0.5,0.4,0,0.2-0.4
								c0.1,0-0.1-0.1,0,0c-0.1-0.2,0.3-0.2,0.1-0.4c-0.1,0-0.1-0.1-0.2-0.2c0.1-0.3,0.2-0.3,0.1-0.6l0.1,0.1
								c-0.2-0.5-0.1-0.8-0.3-1.4c0-0.2,0-0.3,0-0.5c0.8,0.4,1.7,0.9,2.5,1.3c0.5,0.3,1.1,0.6,1.6,0.8c0.9,0.6,2,1.1,2.9,1.7
								c0.1,0.3,0.1,0.3,0.4,0.4c0,0,0,0,0,0.1c0.1-0.1,0.2,0.1,0.3,0c0.4,0.2,0.7,0.4,1.1,0.6c-0.1,0-0.2,0.1-0.1,0.1l0.1-0.1
								l0,0.1c0.1,0,0.1,0,0.1-0.1c1,0.4,1.8,1.2,2.7,1.7c0.2,0.2,0.5,0.3,0.8,0.4c0.6,0.6,1.1,1.1,1.9,1.4
								C28.5,16.9,28.2,17.2,27.8,17.1z"/>
							<path class="st1" d="M28.4,17.8c-0.1,0-0.1,0.1-0.2,0C28.2,17.8,28.3,17.7,28.4,17.8z"/>
							<path class="st1" d="M27.5,19.6C27.6,19.6,27.5,19.5,27.5,19.6c-0.1-0.1-0.1-0.2-0.1-0.1C27.5,19.5,27.5,19.5,27.5,19.6z"/>
							<path class="st1" d="M27.4,19.7c0-0.1-0.1-0.1-0.1-0.2c0,0,0,0,0,0l0,0.1C27.4,19.6,27.4,19.6,27.4,19.7z"/>
							<path class="st1" d="M27.1,19.1c0-0.1,0-0.1,0-0.1C27.1,19.1,27.1,19.1,27.1,19.1z"/>
							<path class="st1" d="M27.1,19.4c0,0,0-0.1,0-0.1C27.1,19.3,27.1,19.2,27.1,19.4z"/>
							<path class="st1" d="M26.8,18.9c0,0-0.1,0-0.1-0.1C26.6,18.9,26.8,18.8,26.8,18.9z"/>
							<path class="st1" d="M26.2,18.7C26.2,18.7,26.2,18.6,26.2,18.7C26.1,18.6,26.2,18.6,26.2,18.7L26.2,18.7z"/>
							<polygon class="st1" points="16.5,13.4 16.5,13.4 16.5,13.5 							"/>
							<path class="st1" d="M15.6,10.9c0-0.1,0.1,0.1,0.1,0.1C15.7,11.1,15.7,10.9,15.6,10.9z"/>
							<polygon class="st1" points="17.4,11.5 17.3,11.5 17.4,11.4 							"/>
						</g>
					</g>
				</g>
			</g>
		</g>
	</g>
	<g>
		<g>
			<path class="st3" d="M7.3,20.3l0-3.2c0,1.4,0.4,2.7,1.3,4l0,3.2C7.8,23,7.3,21.6,7.3,20.3z"/>
			<g>
				<g>
					<g>
						<g>
							<path class="st1" d="M7.1,20.2C7.1,20.3,7.2,20.2,7.1,20.2C7.1,20.3,7,20.2,7.1,20.2z"/>
							<path class="st1" d="M7.1,20.5c0.4,0.2,0,0.4,0.3,0.6c0,0-0.2,0-0.2,0.1c0.3,0.1,0.2,0.5,0,0.7H7.2c0,0.1,0.2,0.1,0.2,0.1
								c0,0-0.1,0-0.1,0c0.1,0,0.1,0.1,0.2,0.1c0,0-0.1,0-0.2,0.1l0.1,0c0.3,0,0,0.2,0.2,0.2c0,0-0.1,0-0.1,0
								c0.2,0.1,0.3,0.3,0.4,0.4c-0.1,0-0.1,0-0.2,0.1c0.1,0,0.2,0,0.2,0c-0.1,0.1,0.1,0,0.1,0.1l0,0c0.2,0-0.1,0.1,0.1,0l-0.1,0.1
								c0.2-0.1-0.1,0.1,0,0.1l0,0c0.1,0,0,0.1,0,0.1l0,0c0.1,0,0,0.1,0.1,0c-0.1,0.1-0.1,0-0.2,0.1c0.3,0.1,0.3,0.3,0.5,0.5
								C8.5,24,8.5,24,8.5,24c0,0,0.1,0.1,0.1,0c0,0-0.1,0.1-0.1,0.1c0,0.1,0.2-0.1,0.1,0c-0.1,0-0.1,0-0.1,0.1c0.1,0,0.1,0,0.1,0
								l-0.1,0c0,0,0-0.1-0.1-0.1c0,0,0,0,0.1,0c-0.1,0,0-0.1-0.1-0.1l0.1,0C8.8,24,8.5,24,8.6,24c0,0,0.1,0,0.1,0
								c-0.2-0.1-0.1-0.1-0.2-0.2c0,0,0,0,0,0c0-0.1,0-0.1,0-0.2c0,0,0.2,0,0.2-0.1c-0.2,0-0.1-0.1-0.3-0.1c0-0.1,0.1-0.1,0-0.2
								c0.1,0,0.2,0,0.2,0l0.1,0c0.1,0,0,0,0.1,0c0,0-0.1-0.1-0.1-0.1c-0.1,0-0.3-0.1-0.4-0.2c0.1,0,0.2,0,0.2,0l-0.4-0.1
								c0,0,0.1,0,0.1,0c-0.1,0-0.1,0-0.1,0c0,0-0.1-0.1,0.1-0.1c0.1,0,0,0,0.1,0c0,0-0.1,0-0.1-0.1h0c0,0-0.1-0.1-0.2,0
								c0,0,0.1,0,0.1,0c-0.1,0-0.1-0.1-0.1-0.1c0,0,0.1,0,0.1,0c-0.1-0.1-0.2-0.1-0.3-0.2c-0.1,0,0.2,0,0.1,0
								c0.1-0.1-0.2-0.2,0-0.3c0,0-0.1,0-0.1,0c0,0,0.1,0,0.1-0.1c0.1,0,0,0-0.1-0.1c-0.1,0,0,0,0,0c-0.1,0-0.2-0.2-0.1-0.3
								c-0.1,0-0.2,0-0.2-0.1l0.1,0c0.1,0,0-0.1,0.1-0.1c-0.1,0,0.1,0.2,0,0.1c0.1,0-0.2-0.1,0-0.1c0,0-0.1-0.1,0-0.1
								c0,0,0.2,0,0.1,0c0-0.1-0.1,0-0.1-0.1l-0.1,0c-0.1,0,0,0-0.1,0c0.1,0-0.1,0,0.1,0l0.1,0c0,0-0.1,0-0.2,0c0,0,0,0,0.1,0
								c-0.2,0,0,0-0.1,0c0.1,0,0-0.1,0.1-0.1c-0.1,0-0.2,0-0.1,0c0,0,0,0,0.1,0c0.1,0,0,0,0,0c0,0,0.1-0.1,0.1-0.1
								C8.1,20.9,8,21,8,21.1c0.2-0.1-0.2,0,0-0.2c0,0,0.1,0,0.1-0.1c0.2-0.1-0.2,0-0.1-0.1l-0.1,0.1c0.1-0.1-0.1,0,0-0.1
								c-0.1,0,0-0.1-0.1,0c0.1-0.2-0.2-0.2,0.1-0.4c0,0,0,0-0.1,0c-0.1,0.1,0.1,0,0,0c0,0-0.1,0-0.1,0c0,0,0-0.1,0.2-0.1
								c0.1-0.1-0.3,0.1-0.3,0c0.1,0,0.1,0,0.1-0.1l-0.1,0c0-0.1,0.1-0.1,0.3-0.2c0,0,0-0.1-0.1,0l0.1-0.1c-0.1,0.1-0.1,0-0.1,0h0
								c0.1,0,0,0,0-0.1c-0.1,0-0.1,0.1-0.1,0.1c-0.1,0-0.1,0-0.1,0c0.1,0,0.1-0.1,0.1-0.1c0,0-0.1,0-0.1,0c0.1,0,0,0,0.1-0.1
								c0,0-0.1,0,0,0c0,0,0.1-0.1,0.1-0.1c-0.1,0-0.2,0.1-0.2,0c0,0,0.1,0,0.1,0l0-0.1l-0.1,0c0,0,0,0,0.1,0c-0.1,0-0.1-0.1-0.2,0
								c0,0,0.1-0.1,0.1-0.1h0c0.1,0,0-0.1-0.1-0.1l0,0c0,0,0,0-0.1,0c0.1-0.1,0.4-0.1,0.2-0.1c0,0-0.2,0-0.3,0
								c0.1-0.1-0.2-0.1,0-0.3c-0.1,0-0.1,0-0.1,0c0-0.1-0.2-0.2,0-0.4c0.1,0,0.1,0,0.2,0c-0.1,0,0.1-0.1-0.1,0
								c-0.1,0-0.2,0-0.2,0.1c-0.1-0.1-0.1-0.2,0-0.2c0,0-0.1,0-0.1,0c0.2,0,0.2-0.1,0.1-0.1l-0.1,0l0.1,0c0,0-0.2,0-0.1,0
								c0,0,0.1,0,0.1,0c-0.1,0-0.2-0.1-0.2-0.1l0.1-0.1c0,0-0.1,0-0.1,0C6.7,18,6.7,18,6.8,17.9c-0.3-0.1-0.3-0.3-0.3-0.4h0.1
								c0.1,0-0.1,0-0.1,0c0.1,0,0.2,0,0.2,0c0.1-0.1-0.1-0.1-0.2-0.1c-0.1,0,0.1,0-0.1,0c0,0,0.1-0.1-0.1-0.1c0.1,0,0.2,0,0.2,0
								l-0.1,0c0.2,0,0.3,0.1,0.5,0l0,0c0.2,0,0.2,0.1,0.2,0c-0.1,0-0.3-0.1-0.3,0c0-0.1-0.3,0-0.3-0.1c0.1,0,0,0.1,0.1,0
								c0.1,0,0,0,0-0.1c0,0,0,0,0,0l0,0v0l0,0l0,0l0,0l0,0h1.2l0,0l0,0H6.7c0,0-0.1,0-0.2,0l1.5,0c0,0,0,0,0,0c-0.1,0-0.1,0-0.2,0
								c0.1,0,0.2,0.1,0.2,0c0.2,0-0.1,0,0.1,0.1c-0.1,0-0.3,0-0.4,0c0.1,0,0.2,0.1,0.4,0c0,0-0.1,0-0.2,0c-0.1,0,0.2,0.1,0,0.1
								l0.1,0c0,0-0.1,0-0.2,0c0,0,0.2,0.1,0,0.1c0,0,0,0.1,0.1,0c0.1,0-0.1,0,0.1-0.1c-0.1,0,0,0.1,0.1,0.1H8.2c0,0,0,0,0.1,0
								c0,0-0.1,0-0.1,0l0.1,0c0.1,0.1-0.2,0-0.2,0.1l-0.1,0c0,0-0.1,0-0.1,0c0.1,0,0.2,0,0.3,0c0.1,0-0.1,0,0,0l-0.1,0
								c0,0-0.2,0-0.2,0.1c0,0,0.2,0.1,0.3,0c0,0-0.1,0-0.1,0c0,0,0.1,0,0.2,0C8.2,17.9,8.1,18,8,18l-0.2,0v0c-0.1,0-0.1,0-0.3,0
								c0,0,0,0,0.1,0.1c0.2,0,0.3,0.1,0.5,0c0.1,0.1-0.5,0-0.2,0.1c0.1,0,0.2,0,0.2,0c0,0,0.2,0,0.1,0.1c-0.1,0-0.2,0-0.4,0
								c0.1,0,0.1,0,0,0c-0.1,0-0.2,0-0.2,0c0,0,0,0.1,0.1,0.1c0.1,0,0,0,0.1,0c0,0.1-0.2,0.1,0.1,0.1c0,0,0.1,0,0.2,0l0.1,0l-0.1,0
								c-0.1,0.1,0.1,0,0.1,0.1l-0.2,0c-0.1,0,0.1-0.1-0.2-0.1c0,0,0.1,0.1,0.1,0.1c0,0,0,0-0.1,0c0,0-0.3,0-0.1,0.1
								c0.1,0,0.1,0,0.2,0c0,0.1,0.1,0.1,0.1,0.1c-0.2,0,0,0.1-0.2,0c0.1,0,0.1-0.1-0.1-0.1c-0.2,0,0-0.1-0.2-0.1
								c0,0.1-0.2,0-0.3,0.1c0,0,0.1,0,0.1,0c0.1,0,0.1,0,0.3,0c0,0.1,0,0.1,0.2,0.2c-0.1,0-0.2,0-0.2,0c0,0.1,0,0.2,0,0.2
								c0.2,0,0.1,0.1,0.2,0c0,0,0.2-0.1,0.3,0c0,0-0.1,0-0.1,0c0.1,0-0.2,0,0,0.1c-0.1-0.1-0.2,0-0.4,0c0.1,0-0.1,0-0.1,0
								c0.1,0,0.2,0.1,0.2,0.2c-0.2,0.1,0,0.2,0,0.2c-0.1,0-0.3,0-0.3,0c0,0,0.2,0,0.1,0l0,0c0,0-0.1,0.1,0.1,0.1l-0.2,0
								c0,0,0,0,0.1,0c-0.1,0-0.1,0-0.2,0c-0.1,0,0,0.1,0,0.1l0.1,0c0.1,0.1,0,0.1,0,0.2H7.4l0.1,0c-0.1,0-0.2,0-0.1,0L7.1,20
								c0.1,0,0.1,0,0.2,0c0.1,0,0.1-0.1,0-0.1c0,0,0,0,0.1,0c-0.2,0-0.2,0-0.3,0c0,0,0,0,0,0c-0.1,0-0.1,0-0.1-0.1
								c0.1,0,0.1,0,0.1,0c-0.1,0-0.2,0-0.1-0.1c0.2,0-0.1-0.1-0.1-0.1c0.1,0,0.3,0.1,0.3,0.1c0.1,0,0,0,0.1-0.1
								c-0.1,0-0.3,0-0.3-0.1h0.1c-0.1,0-0.2,0-0.2-0.1C7,19.3,7,19.2,7,19.2h0.1C6.9,19.1,7,19,6.9,19C7,18.9,6.8,18.8,7,18.7
								c-0.1-0.2-0.2-0.3-0.1-0.5l0.2,0c-0.1,0,0.1,0,0.1,0c-0.1,0-0.2,0-0.2-0.1c0.1-0.1,0-0.2-0.1-0.2h0.1c-0.2-0.1,0-0.1,0-0.2
								c0,0,0.1,0,0.1,0c-0.2,0-0.2-0.1-0.3-0.1c0,0,0-0.1,0.1-0.2c-0.1-0.1-0.1-0.2-0.1-0.3H8c0,0.1,0,0.2,0.1,0.3l-0.1,0
								c0.3,0.1,0.1,0.4,0.2,0.5l-0.2,0c-0.1,0,0.1,0.1,0.2,0.1c-0.1,0,0.1,0.1-0.1,0.1c0,0,0.1,0,0.1,0.1c-0.1,0.1,0,0.1,0,0.2l0,0
								c-0.1,0-0.1,0-0.1,0c0.1,0,0,0.1,0.2,0c-0.1,0.1,0.2,0.2,0,0.3c0.1,0,0.1,0,0.1,0c0,0.1-0.1,0.2,0.1,0.2c0,0-0.1,0-0.1,0
								c0,0,0.1,0,0.1,0c0.2,0.1,0,0.3,0,0.4c0.2,0.1,0.2,0.4,0.4,0.5l0,0c0.2,0-0.1,0.2,0.2,0.1c0,0,0,0.1-0.1,0.1
								c0.1,0,0,0.2,0.1,0.2c0,0,0,0,0,0c0,0.1,0,0.1,0,0.1c0.1,0,0.1,0.1,0.1,0.2c0,0-0.1,0-0.1,0c-0.1,0.1,0.3,0,0.1,0.1
								c0,0,0.1,0,0.1,0c0.1,0.1,0.1,0.3,0.1,0.5c0,0.2,0.1,0.3,0.1,0.4c-0.1,0.1-0.4,0-0.2,0.1c-0.1,0,0.1,0,0,0
								c0.1,0-0.3,0.1-0.1,0.1c0.1,0,0.1,0,0.2,0C9.3,21.9,9.1,22,9.2,22l-0.1,0c0.2,0.1,0.1,0.2,0.4,0.3c0,0.5,0.2,0.9,0.2,1.4
								c0,0.2,0,0.4,0,0.6l0.1,3.4l-2-2.8c-0.2-0.2-0.3-0.5-0.4-0.8c0.1-0.2,0.1-0.2,0-0.3c0,0,0,0,0.1,0c-0.2,0.1-0.1-0.1-0.2,0
								C7.1,23.6,7,23.4,7,23.2c0,0,0.2,0,0.1,0l-0.1,0l0,0c0,0-0.1,0-0.2,0c-0.3-0.4-0.2-1-0.3-1.5c0-0.1-0.1-0.3-0.1-0.4
								c0.2-0.4,0.3-0.7,0.2-1.1C6.6,20.3,7,20.3,7.1,20.5z"/>
							<path class="st1" d="M7,20.2c0.1,0,0.1,0,0.2,0C7.2,20.2,7.1,20.2,7,20.2z"/>
							<path class="st1" d="M7.9,19.2C7.9,19.2,7.9,19.1,7.9,19.2C7.9,19.1,8,19.2,7.9,19.2C8,19.2,7.9,19.2,7.9,19.2z"/>
							<path class="st1" d="M7.9,18.9C8,18.9,8.1,19,8.1,19L7.9,18.9z"/>
							<path class="st1" d="M8.2,18.6C8.3,18.6,8.3,18.6,8.2,18.6C8.3,18.7,8.3,18.7,8.2,18.6z"/>
							<path class="st1" d="M8.1,18.6C8.1,18.6,8.1,18.6,8.1,18.6C8.1,18.6,8.2,18.6,8.1,18.6z"/>
							<path class="st1" d="M8.3,18.1C8.3,18.1,8.2,18.1,8.3,18.1C8.2,18.1,8.4,18.1,8.3,18.1z"/>
							<path class="st1" d="M8.2,17.9C8.2,17.8,8.2,17.8,8.2,17.9C8.2,17.8,8.3,17.8,8.2,17.9L8.2,17.9z"/>
							<polygon class="st1" points="7.9,20.9 7.8,20.9 7.9,20.9 							"/>
							<path class="st1" d="M8.1,22.5C8.2,22.5,8,22.5,8.1,22.5C8,22.5,8.1,22.5,8.1,22.5z"/>
							<polygon class="st1" points="8.5,23.5 8.5,23.5 8.6,23.5 							"/>
						</g>
					</g>
				</g>
			</g>
		</g>
	</g>
	<g>
		<g>
			<polygon class="st4" points="25.8,17.2 25.8,20.8 8.6,24.3 8.6,21.1 			"/>
			<g>
				<g>
					<g>
						<g>
							<path class="st1" d="M26.1,17.3c0-0.1-0.1,0.1-0.1-0.1C26.1,17.2,26.1,17.2,26.1,17.3z"/>
							<path class="st1" d="M25.3,17.1c-0.4,0.5-1.1,0.3-1.6,0.6c-0.1,0,0-0.2-0.2-0.1c-0.5,0.4-1.3,0.4-2,0.3l0-0.1
								c-0.1,0-0.2,0.2-0.4,0.2c0,0,0-0.1,0-0.1c0,0.1-0.2,0.1-0.3,0.2c-0.1,0-0.1-0.1-0.1-0.2l0,0.1c-0.1,0.4-0.5,0.1-0.7,0.3
								c0,0,0-0.1,0-0.1c-0.4,0.3-1,0.4-1.4,0.6c0,0,0-0.1,0-0.2c0,0.1-0.1,0.2-0.3,0.3c-0.1-0.1-0.2,0.2-0.4,0.1l0,0
								c-0.1,0.2-0.2,0-0.2,0.1l-0.1-0.1c0,0.2-0.2-0.1-0.3,0.1l0,0c-0.1,0.1-0.1,0-0.2,0l0,0c-0.2,0.1-0.3,0-0.3,0.2
								c-0.1-0.1,0.2-0.1,0-0.3c-0.6,0.3-1.3,0.4-1.9,0.6c-0.1,0-0.1,0-0.2-0.1c-0.1,0-0.2,0.1-0.3,0.2c0,0-0.1-0.1-0.1-0.1
								c-0.1,0-0.1,0.2-0.2,0.2c0,0,0.1-0.1,0-0.2c-0.1,0.1-0.2,0.2-0.4,0.2c0,0,0,0,0-0.1c-0.1,0.2-0.3,0-0.4,0.1l0-0.1
								c-0.2-0.1,0,0.2-0.2,0.2c0,0,0-0.1,0-0.1c-0.1,0.2-0.4,0.2-0.5,0.3c0,0,0,0,0,0c-0.2,0.1-0.4,0-0.5,0.2c-0.1,0,0-0.2-0.2-0.1
								c0.1,0.2-0.3,0.1-0.1,0.3c-0.2,0-0.4,0-0.5,0.1c0.1-0.1-0.1-0.2,0-0.3l-0.1-0.1c0-0.1,0.1,0,0.1-0.1c-0.1,0-0.2,0.1-0.3,0.1
								c-0.1,0.1-0.2,0.4-0.4,0.4c0.1-0.1-0.1-0.2,0-0.2L10.5,21c-0.1,0-0.1-0.1-0.1-0.1c0,0,0,0.1,0,0.1c0,0-0.3,0.1-0.3-0.1
								c0-0.1,0.1-0.1,0-0.1c-0.1,0-0.1,0.1-0.2,0.1l0,0c-0.1,0-0.2,0.1-0.1,0.2c0.1,0-0.1-0.1,0.1-0.1c-0.1,0.1-0.1,0.2-0.2,0.2
								c0,0,0-0.1,0-0.1c-0.1,0.2-0.1,0.2-0.2,0.3c0.1,0.1-0.1-0.1,0-0.1c-0.1,0-0.1,0-0.2,0c0,0.1,0.1,0.3,0,0.3c0,0,0.1,0,0.1,0
								c0,0.1-0.1,0-0.1,0.1c-0.1,0,0,0.1,0.1,0.1c0.1,0,0,0,0,0c0.1,0,0.2,0.5,0.1,0.7c0.1,0,0.2,0.1,0.2,0.2l-0.1,0
								c-0.1,0.1,0,0.2-0.1,0.2c0.1,0,0,0,0-0.1c0-0.1-0.1-0.2,0-0.1c-0.1,0,0.2,0.2,0,0.2c0,0.1,0.1,0.1,0,0.2c0,0-0.2,0-0.1,0
								c0,0.1,0.1,0,0.1,0.1l0.1,0c0.1-0.1,0,0.1,0.1,0c-0.1,0.1,0.1,0.1-0.1,0.2L9,23.5c0,0,0.1,0,0.2-0.1c0,0,0,0-0.1,0.1
								c0.2-0.2,0,0.1,0.1,0l0,0c0,0,0.1,0,0.1,0.1c0.1-0.1,0.2-0.2,0.2-0.1c0,0,0,0-0.1,0.1c0,0.1,0.1,0,0.1,0c0,0,0.1,0.1,0.1,0.2
								c0.1-0.1,0-0.2,0-0.3c0,0.2,0.2-0.2,0.4,0c0,0-0.1,0.1,0,0.2c0.1,0.2,0.2-0.2,0.4-0.1l-0.1-0.2c0.1,0.1,0.2-0.1,0.2,0
								c0-0.1,0.2,0,0.1-0.1c0.3,0.1,0.6-0.2,0.9,0.1c0,0,0.1,0,0.1-0.1c-0.1-0.1-0.1,0.1-0.1,0c0,0,0-0.1,0-0.1
								c0.1,0,0.2,0,0.1,0.2c0.2,0.1,0.1-0.3,0.4-0.3c0,0.1,0,0.1,0.1,0.1l0.1-0.1c0.2,0,0.1,0.1,0.1,0.3c0.1,0,0.2,0,0.2-0.1
								l0.1,0.1C12.8,23,12.9,23,12.9,23l0,0c0,0,0.1,0,0.2,0c0-0.1-0.1-0.1-0.2-0.1c0-0.1,0.1-0.1,0.1-0.1c0,0.1,0.1,0.1,0.2,0.1
								c0.1,0,0.1-0.1,0.1-0.1c0,0.1,0.1,0,0.1,0.1c0,0-0.1,0-0.1,0c0.1,0,0.1,0.1,0.2,0c0.1-0.1-0.1-0.2,0.1-0.2c0,0,0,0.1-0.1,0.1
								l0.1,0l0-0.1c0,0,0,0,0,0c0-0.1,0.2-0.1,0.2-0.2c0.1,0,0.2,0,0.2,0l0,0c0.1,0,0.2,0,0.2-0.1v0c0.1,0,0.1,0,0.2-0.1
								c0.1,0.1,0.1,0.4,0.2,0.2c0.1,0,0.1-0.2,0.1-0.3c0.2,0,0.4-0.2,0.6-0.1c0,0,0-0.1,0.1-0.1c0.3,0,0.6-0.3,0.9-0.1
								c-0.1,0.1,0,0.1,0,0.2c0-0.1,0.1,0.1,0.1-0.1c0-0.1,0-0.1-0.1-0.2c0.2-0.1,0.4-0.1,0.5-0.1c-0.1,0,0-0.1,0-0.1
								c0,0.2,0.1,0.2,0.2,0.1l0-0.1l0.1,0.1c0,0,0-0.2,0.1-0.1c0,0,0,0.1,0,0.1c0.1-0.1,0.2-0.3,0.3-0.2l0.1,0.1c0,0,0.1-0.1,0-0.1
								c0.2,0,0.3,0,0.4,0.1c0.3-0.4,0.7-0.5,1.1-0.5v0.1c0.1,0,0-0.1,0.1-0.1c0,0.1,0.1,0.1,0,0.2c0.2,0,0.2-0.2,0.3-0.2
								c0-0.1-0.1,0.1-0.1,0c0,0,0.2,0,0.2-0.1c0,0,0,0.2,0,0.2l0.1-0.1c0.1,0.1-0.2,0.4,0,0.5l0.1,0c0.1,0.1-0.2,0.2,0,0.2
								c0.1-0.1,0.1-0.3,0-0.4c0.2-0.1,0-0.4,0.2-0.4c0.1,0.1-0.2,0-0.1,0.2c0.1,0.1,0.2-0.1,0.3-0.1c-0.1,0,0-0.2,0-0.2
								c0.1,0,0,0.1,0.1,0.1c0-0.1,0.1-0.2,0-0.2c0-0.2,0.2,0,0.2-0.1c0.1,0.1-0.1,0.3,0.1,0.4c0-0.1,0.2-0.2,0-0.4
								c0.1,0,0.1,0.1,0.1,0.2c0.1,0.1,0.2-0.3,0.3,0v-0.1c0,0,0.1,0.1,0.1,0.1c0.1,0,0.2-0.2,0.3,0c0,0,0.2,0,0.1-0.2
								c-0.1-0.1-0.1,0.1-0.2,0c0.1,0.1,0.2,0,0.2-0.1l0,0.1c0,0,0.1,0,0.1-0.1c0,0,0,0.1,0,0.1l0-0.1c0.1-0.1,0.1,0.2,0.2,0.1
								l-0.1,0.1c0,0,0.1,0.1,0.2,0c0-0.1,0-0.3,0-0.3c0.1-0.1,0.1,0.1,0.1,0l-0.1,0.1c0,0,0.1,0.2,0.2,0.1c0.1,0,0.1-0.2,0-0.3
								c0.1,0,0.1,0,0.1,0.1c0.1-0.1,0-0.1,0.1-0.2c0.1,0.1,0.2,0.1,0.3,0.2l-0.1,0.2l0.1,0c-0.1,0.2,0.1,0.1,0,0.3
								c0.1,0,0.1,0,0.1-0.1c-0.2-0.2,0.1-0.4,0-0.6c0.2-0.1,0.2,0.5,0.4,0.1c0,0,0-0.2-0.1-0.1c0.1,0,0-0.2,0.2-0.2
								c-0.1,0.1,0.2,0.2,0,0.4c0-0.1-0.1,0-0.1,0c0.1,0.1,0,0.2,0.2,0.2c0.1,0,0.2-0.1,0.1-0.2c0-0.1-0.1,0-0.1-0.1
								c0.1-0.1,0.2,0.1,0.2-0.1c-0.1,0-0.1-0.1-0.2-0.2l0.1-0.1l0,0.1c0.2,0,0-0.2,0.2-0.2l0.1,0.1c0,0.1-0.3,0-0.2,0.2
								c0.1,0,0.1-0.1,0.3-0.1c0,0-0.1,0-0.1,0.1c0,0,0.1,0.3,0.3,0.1c0.1-0.1,0-0.1,0-0.2c0.1,0,0-0.1,0-0.1c0.1,0.2,0.1,0,0.1,0.2
								c-0.1-0.1-0.1-0.1-0.1,0.1c0.1,0.2-0.1,0-0.1,0.2c0.2,0,0.2,0.2,0.2,0.3c0,0,0.1-0.1,0.1-0.1c0-0.1-0.1-0.1-0.1-0.2
								c0.1,0,0.2-0.1,0.2-0.2c0.1,0,0.1,0.2,0.1,0.2c0.1,0,0.1,0,0.2-0.1c0,0,0-0.1,0-0.1c-0.2,0,0-0.2-0.2-0.2c0,0-0.2,0-0.3-0.1
								c0,0,0.1,0,0.1,0.1c-0.1-0.1,0.2,0,0-0.1c0.1,0.1,0.2,0.1,0.4,0.2c-0.1-0.1,0.1,0,0.1,0c-0.1-0.2-0.1-0.2-0.2-0.4
								c0.1-0.2,0-0.5,0-0.7c0.1-0.1,0.3,0,0.3-0.1c0-0.1-0.2,0.1-0.1-0.1l0,0c0,0,0.1-0.3-0.1-0.4l0.2,0c0,0,0-0.1,0-0.1
								c0.1,0,0.1,0,0.2,0c0.1-0.1,0-0.2,0-0.3l-0.1,0.1c-0.1-0.2,0-0.3,0-0.5l0.1,0l-0.1-0.1c0.1,0,0.2-0.1,0.1-0.1l0.3,0.3
								c-0.1,0.1-0.1-0.1-0.2,0c-0.1,0-0.1,0.2,0,0.3c0-0.1,0-0.1,0-0.1c0.1,0,0.1,0.1,0.3,0.1c0,0,0-0.1,0-0.1
								c0.1,0.1,0.1,0.1,0.1,0.3c-0.1-0.1-0.1,0-0.1,0c0.1,0,0.2,0.1,0.1,0.3c-0.2,0.1,0.1,0.3,0.1,0.4c-0.1-0.1-0.3-0.1-0.3-0.3
								c-0.1,0.1,0,0.1-0.1,0.2c0.1,0,0.3,0.1,0.3,0.2l-0.1,0c0,0.1,0.2,0.1,0.2,0.3c0,0.3,0,0.5-0.1,0.8l-0.1,0
								c0.2,0.2,0.1,0.5,0.2,0.8c0,0,0,0.1,0,0.2c-0.3,0-0.5,0.2-0.8,0.1c-0.3,0.1-0.5,0.2-0.7,0.3c-0.2,0.1-0.4,0.1-0.7,0.1l0-0.2
								c-0.1,0.1-0.1-0.1-0.1,0c0.1,0.1-0.1,0.2-0.1,0.3c-0.2-0.1-0.5,0.1-0.6,0.2l0-0.1c-0.1,0.2-0.4,0.1-0.6,0.1
								c0,0-0.1-0.1-0.2-0.1C22.3,22,22.2,22,22,22.1c-0.1,0-0.4,0-0.5,0c-0.5,0.3-1,0.3-1.5,0.5L20,22.5c-0.5,0.4-1.1,0.3-1.5,0.5
								v-0.2c-0.1,0-0.3,0.1-0.2,0.3c-0.1,0-0.3,0.2-0.4,0c-0.1,0-0.1,0.1-0.3,0.2c-0.3,0-0.4,0-0.6,0.1h0.1c0,0,0-0.1-0.1-0.1
								c-0.1,0.1-0.4,0-0.2,0.2c-0.3-0.1-0.6,0.2-0.9,0.1c0,0.1,0,0.1-0.1,0.1c-0.3,0-0.5,0-0.7,0.1c-0.1,0,0-0.1-0.1-0.1
								c-0.1,0,0,0.1-0.1,0.1c-0.4,0.2-0.8,0-1.2,0.1c-0.6,0.3-1.3,0.3-1.9,0.5v0c-0.2,0.2-0.5-0.1-0.6,0.2c-0.1,0-0.2,0-0.2-0.1
								c-0.1,0.2-0.5,0-0.7,0.2c0,0,0,0,0.1,0c-0.3-0.1-0.7,0.2-1.1,0.2c0.1,0,0.1-0.1,0.2-0.1c-0.1-0.1-0.5,0.3-0.4,0.1
								c-0.1,0-0.1,0.1-0.1,0.1C8.5,25,8.3,25,8,25.1c0-0.6-0.1-1.3-0.1-2.1c0.1-0.5,0.4,0,0.2-0.4c0.1,0-0.1,0,0,0
								c-0.1-0.1,0.3-0.2,0.1-0.3c-0.1,0-0.1-0.1-0.2-0.1c0.1-0.3,0.2-0.3,0.1-0.6l0.1,0c-0.2-0.4-0.1-0.8-0.3-1.2c0,0,0,0,0-0.1
								l0.8-0.2L9.5,20l0.9-0.3c0.6-0.2,1.2-0.4,1.9-0.5c1.3-0.2,2.4-0.6,3.7-0.8c0.3,0.1,0.4,0.1,0.7,0c0,0,0,0,0,0.1
								c0-0.2,0.2-0.1,0.2-0.2c0.5-0.1,0.9-0.2,1.4-0.3c-0.1,0-0.1,0.2,0,0.1l0.1-0.1l0,0c0.1,0,0.1-0.1,0-0.2
								c1.2-0.4,2.4-0.4,3.6-0.7c0.3,0,0.7-0.1,1-0.3c1,0,1.8,0,2.7-0.4C25.6,16.5,25.6,16.9,25.3,17.1z"/>
							<path class="st1" d="M26.1,17.4c-0.1,0-0.1,0.1-0.2,0C25.9,17.5,26,17.4,26.1,17.4z"/>
							<path class="st1" d="M25.2,20.1C25.3,20.1,25.2,20.1,25.2,20.1C25.2,20.1,25.1,20.1,25.2,20.1C25.1,20.1,25.2,20.1,25.2,20.1
								z"/>
							<path class="st1" d="M25.1,20.4c0,0,0-0.1,0-0.1l0,0l0,0C25.1,20.3,25.1,20.3,25.1,20.4z"/>
							<path class="st1" d="M24.7,20.1C24.6,20.1,24.7,20,24.7,20.1C24.7,20.1,24.7,20.1,24.7,20.1z"/>
							<path class="st1" d="M24.7,20.3c-0.1,0-0.1,0-0.1-0.1C24.6,20.3,24.7,20.2,24.7,20.3z"/>
							<path class="st1" d="M23.2,20.4c0,0-0.1,0.1-0.1,0C23.1,20.4,23.2,20.3,23.2,20.4z"/>
							<path class="st1" d="M22.6,20.6C22.5,20.6,22.5,20.6,22.6,20.6C22.5,20.6,22.5,20.5,22.6,20.6L22.6,20.6z"/>
							<polygon class="st1" points="10.3,23.4 10.4,23.3 10.4,23.4 							"/>
							<path class="st1" d="M9.5,21.5C9.5,21.4,9.5,21.5,9.5,21.5C9.5,21.5,9.5,21.4,9.5,21.5z"/>
							<polygon class="st1" points="12.1,20.5 12.1,20.5 12.1,20.3 							"/>
						</g>
					</g>
				</g>
			</g>
		</g>
	</g>
	<g>
		<g>
			<path class="st5" d="M12.7,9.6l13.1,7.6L8.6,21.1C6,17.2,7.3,12.7,12.7,9.6z"/>
			<g>
				<g>
					<g>
						<g>
							<path class="st1" d="M12.9,9.4c-0.2-0.1,0,0.2-0.1,0C12.9,9.4,12.9,9.3,12.9,9.4z"/>
							<path class="st1" d="M12.1,9.7c-0.3,0.6-1.1,0.7-1.4,1.3c0,0.1-0.1-0.2-0.2,0c-0.3,0.6-1,1.1-1.6,1.5l0-0.1
								c-0.1,0.1-0.1,0.3-0.2,0.4c0,0,0-0.1-0.1-0.1c0.1,0.1-0.1,0.3-0.1,0.4c-0.1,0-0.1,0-0.2,0l0.1,0.1c0.1,0.4-0.3,0.5-0.3,0.8
								c0,0,0-0.1-0.1-0.1c-0.1,0.5-0.3,1.1-0.4,1.7c0,0-0.1-0.1-0.2-0.1c0.1,0.1,0.1,0.2,0.1,0.4c-0.2,0,0.1,0.3,0,0.4l0,0
								c0.1,0.1-0.1,0.2,0.1,0.3l-0.1,0.1c0.2,0.1-0.1,0.2,0,0.3h0c0.1,0.1-0.1,0.1,0,0.2l0,0c0.1,0.2,0,0.4,0.1,0.3
								c-0.1,0.1-0.1-0.2-0.3-0.1c0.2,0.7,0.4,1.4,0.7,2.1c0,0.1,0,0.2-0.1,0.2c0.1,0,0.2,0.2,0.2,0.3c0,0-0.1,0.1,0,0.1
								c0,0.1,0.2,0,0.2,0.2c-0.1,0-0.1,0-0.1,0c0.2,0,0.2,0.2,0.3,0.3c0,0-0.1,0-0.1,0c0.1,0,0.1,0.1,0.1,0.1c0,0,0,0.1,0.1,0.1
								c0,0,0.1,0,0.1-0.1l-0.1,0.1c0.2,0.1,0.1-0.2,0.3-0.2c-0.1,0,0,0.1-0.1,0.1c0.2-0.2,0.4-0.2,0.6-0.3c0,0,0,0,0,0
								c0.2-0.1,0.4-0.1,0.6-0.2c0.1,0,0,0.2,0.2,0.1c-0.1-0.2,0.3-0.1,0.2-0.3c0.2,0,0.5,0,0.6-0.1c-0.1,0.1,0.1,0.2,0,0.3l0.1,0.1
								c0,0.1-0.1,0-0.1,0.1c0.1,0,0.3-0.1,0.3-0.1c0.1-0.1,0.2-0.4,0.4-0.5c-0.1,0.1,0.1,0.2,0,0.2l0.2-0.4c0.1,0,0.1,0.1,0.1,0.1
								c0,0,0-0.1,0.1-0.1c0,0,0.3-0.1,0.4,0.1c0.1,0.1-0.1,0.1,0,0.1c0.1,0,0.1-0.1,0.3-0.1l0,0c0.1,0,0.2-0.1,0.1-0.2
								c-0.1,0,0.1,0.1-0.1,0.1c0-0.1,0.2-0.2,0.3-0.2c0,0,0,0.1,0,0.1c0.1-0.2,0.3-0.3,0.5-0.4c0-0.1,0,0.2-0.1,0.1
								c0.3,0.1,0.5-0.3,0.8-0.2c0,0-0.1-0.1,0-0.1c0.1,0,0.1,0.1,0.2,0c0,0.1,0.1,0,0.2-0.1c0-0.1,0,0,0,0c0.1-0.1,0.5-0.3,0.8-0.3
								c0,0,0.1-0.2,0.2-0.2v0.1c0.1,0,0.2-0.1,0.2,0c0.1-0.2-0.5,0.2-0.3,0.1c0.1,0.1,0.2-0.2,0.2-0.1c0.1,0,0.2-0.2,0.4-0.1
								c0,0-0.1,0.2,0,0.1c0.2-0.1,0-0.1,0.2-0.1l0.1-0.1c0-0.1,0.2,0,0.1-0.1c0,0.1,0.2-0.1,0.3,0.1l0,0.1c0.1,0,0.1-0.2,0.1-0.3
								c0,0,0,0,0,0.1c0-0.2,0.2,0,0.2-0.2c0.2,0,0.4-0.1,0.5,0c0.1-0.1,0.2-0.2,0.4-0.2c0,0-0.1,0-0.1,0.1c0.1,0,0.1,0,0.2-0.1
								c0,0,0.2,0.1,0.3,0.1c0.1-0.1,0-0.2,0-0.3c0.2,0.2,0.3-0.2,0.5-0.1c0,0-0.1,0.1,0,0.2c0.2,0.2,0.2-0.2,0.4-0.1L19.5,18
								c0.1,0.1,0.2-0.2,0.3,0c0-0.1,0.2,0,0.2-0.2c0.3,0.1,0.7-0.3,1,0c0,0,0.1,0,0.1-0.1c-0.1-0.1-0.1,0.1-0.1,0c0,0,0-0.1,0-0.1
								c0.1,0,0.2,0,0.1,0.2c0.2,0.1,0.1-0.3,0.4-0.3c0,0.1,0,0.1,0.1,0.1l0.1-0.2c0.2,0,0.1,0.1,0.2,0.3c0.1,0,0.2-0.1,0.2-0.2
								l0.1,0.1c-0.1-0.1,0.1-0.1,0.1-0.1l0,0c0,0,0.1,0,0.2,0c0-0.1-0.1-0.1-0.2-0.1c0-0.1,0.1-0.1,0.2-0.1c0,0.1,0.2,0,0.2,0
								c0.1,0,0.1-0.1,0.1-0.1c0,0.1,0.1,0,0.1,0.1c0,0-0.1,0-0.1,0c0.1,0,0.1,0.1,0.2,0c0.1-0.1-0.1-0.2,0.1-0.2c0,0,0,0.1,0,0.1
								c0.1,0,0.1,0,0.1,0l0-0.1c0,0,0,0,0,0c0-0.1,0.1-0.1,0-0.2c0,0,0.1,0,0.2,0v0c0.1,0,0.1,0,0.1-0.1l0,0c0,0,0.1,0,0-0.1
								c0.1,0,0.6,0.3,0.5,0.2c0.1,0-0.2-0.2-0.3-0.2c0.2,0,0-0.1,0.4,0c-0.1,0-0.1,0-0.2-0.1c0.1,0,0.1,0,0.1,0
								c-0.1,0-0.1,0,0.1-0.1c0.1,0,0.3,0,0.4,0c-0.3,0,0.2,0-0.2,0c-0.2,0-0.3,0-0.4,0c-0.2,0-0.3-0.1-0.1-0.1c-0.1,0-0.1,0-0.2,0
								c0.3,0,0.3,0,0.1-0.1l-0.2,0l0.1,0c-0.1,0-0.3,0-0.2,0c0,0,0.1,0,0.1,0c-0.2,0-0.4,0-0.3,0c0,0,0.1-0.1,0.1-0.1
								c0,0-0.1,0-0.1,0.1c0-0.1,0-0.1,0-0.2c0,0-0.1,0-0.1,0c-0.1,0-0.1,0-0.2,0c-0.1,0-0.2,0-0.3-0.1c-0.2-0.1-0.4-0.2-0.6-0.3
								l0-0.1c-0.1-0.1-0.1,0.1-0.2,0c0.1,0,0-0.2,0.1-0.2c-0.1-0.1-0.3,0-0.4,0c-0.1,0.1,0.1,0,0,0.1c0,0-0.2-0.2-0.3-0.1
								c0-0.1,0.1-0.1,0.1-0.2l-0.1,0c0-0.2,0.4-0.1,0.4-0.4l-0.1,0c0-0.2,0.3,0,0.1-0.2c-0.1,0-0.3,0.1-0.3,0.3
								c-0.2-0.1-0.3,0.3-0.5,0.1c0-0.1,0.2,0.1,0.2-0.1c0-0.2-0.2-0.1-0.3-0.1c0.1,0.1-0.1,0.2-0.2,0.2c-0.1-0.1,0.1-0.1,0-0.2
								c-0.1,0.1-0.2,0-0.1,0.1c-0.1,0.1-0.1-0.1-0.3-0.1c0-0.1,0.3-0.2,0.2-0.3c0,0.1-0.3,0-0.3,0.3c0-0.1,0-0.2,0.1-0.2
								c0-0.1-0.3,0.1-0.2-0.2l-0.1,0.1c0-0.1,0-0.1,0-0.2c-0.1-0.1-0.3,0-0.2-0.2c0,0-0.2-0.1-0.2,0.1c0.1,0.1,0.2,0,0.1,0.2
								c0-0.2-0.2-0.1-0.3-0.1l0-0.1c0,0-0.1-0.1-0.2,0c0,0,0.1-0.1,0-0.1l-0.1,0.1c-0.2,0,0.1-0.2-0.1-0.3l0.2,0c0,0,0-0.1-0.1-0.1
								c-0.1,0.1-0.2,0.2-0.3,0.2c-0.1,0,0-0.1-0.1-0.1l0.2-0.1c0,0,0-0.2-0.1-0.3c-0.1,0-0.3,0.1-0.2,0.2c-0.1,0-0.1-0.1,0-0.2
								c-0.1,0,0,0.1-0.2,0.1c0-0.1-0.1-0.3-0.1-0.4l0.2-0.1l-0.1-0.1c0.2-0.1,0-0.1,0.1-0.2c0-0.1-0.1,0-0.2,0
								c0,0.3-0.3,0.2-0.4,0.4c-0.2-0.1,0.1-0.5-0.3-0.4c0,0.1-0.2,0.2,0,0.2c-0.1-0.1-0.2,0.1-0.3,0c0.2,0,0-0.3,0.2-0.3
								c0,0.1,0.1,0.1,0.1,0.1c0-0.1,0.1-0.2,0-0.3c-0.1,0-0.2-0.1-0.3,0c-0.1,0.1,0.1,0.1,0,0.1c-0.2-0.1-0.1-0.2-0.3-0.1
								c0.1,0,0.1,0.2,0,0.2l-0.1,0l0.1-0.1c-0.2-0.2-0.1,0.1-0.3,0v-0.2c0.1-0.1,0.2,0.2,0.3,0c-0.1-0.1-0.2,0-0.3-0.1
								c0,0,0.1,0,0.1,0c0,0,0.1-0.3-0.2-0.3c-0.1,0-0.1,0.1-0.1,0.1c-0.2-0.1-0.3,0-0.4-0.1c0.1-0.1-0.2-0.1,0-0.2
								c0,0.1,0.3,0.3,0.4,0.2c0-0.2,0.1,0.1,0.3,0c-0.1-0.1,0-0.3,0-0.4c0,0-0.1,0-0.1,0c-0.1,0.1,0,0.1-0.1,0.2
								c-0.1-0.1-0.4-0.2-0.5-0.1c0-0.1,0-0.2,0.1-0.1c-0.2-0.1-0.4-0.2-0.6-0.4c0,0.2-0.2-0.1-0.2,0.1c0.1,0.1,0.1,0.3,0,0.3
								c-0.1-0.1,0.1-0.1,0-0.1c-0.1,0.1,0-0.2-0.2-0.1c0.2,0.1,0.2-0.2,0.3-0.3c-0.2,0,0.1-0.1-0.1-0.2c-0.2,0-0.4,0-0.5-0.1
								c-0.1-0.2-0.5-0.3-0.6-0.4c-0.1-0.1,0.1-0.2,0-0.3c-0.1-0.1,0,0.2-0.1,0.1l0,0c-0.1,0-0.2-0.3-0.4-0.1l0.1-0.1
								c0,0-0.1,0-0.1,0c0-0.1,0-0.1,0.1-0.1c0-0.2-0.2-0.1-0.3-0.2l0,0.1c-0.2,0-0.3-0.2-0.5-0.3l0.1-0.1l-0.1,0
								c0.1-0.1,0-0.2-0.1-0.1l0.4-0.1c0.1,0.1-0.1,0.1-0.2,0.2c0,0.1,0.2,0.2,0.3,0.1c-0.1-0.1-0.1,0-0.1,0
								c0.1-0.1,0.1-0.1,0.3-0.1c0,0-0.1-0.1-0.1,0c0.1,0,0.2,0,0.3,0.1c-0.1,0,0,0.1-0.1,0.1c0.1-0.1,0.2-0.1,0.3,0
								c0,0.2,0.3,0.1,0.4,0.2c-0.1,0.1-0.3,0.1-0.4,0.1c0.1,0.1,0.1,0.1,0.2,0.2c0.1-0.1,0.2-0.2,0.4-0.2l0,0.1
								c0.1,0,0.2-0.1,0.4,0c0.2,0.2,0.5,0.3,0.7,0.5l0,0.1c0.2-0.1,0.4,0.1,0.6,0.1c0.2,0.2,0.6,0.2,0.6,0.4
								c0.5,0.2,0.9,0.3,1.3,0.6l-0.1,0.1c0.1-0.1,0,0.1,0.1,0.1c0-0.2,0.2-0.1,0.3-0.1c0.1,0.2,0.5,0.3,0.7,0.3l0,0.1
								c0.3-0.1,0.4,0.2,0.6,0.4c0,0.1,0,0.2,0.1,0.2c0.2-0.1,0.3,0,0.5,0c0.1,0.1,0.3,0.2,0.4,0.4c0.6,0.1,1,0.5,1.6,0.7l0,0.1
								c0.3,0,0.6,0.2,0.9,0.4c0.3,0.2,0.5,0.3,0.9,0.5L24,15.5c0.1,0.2,0.5,0.2,0.6,0.1c0.1,0.2,0.7,0.3,0.6,0.4
								c0.2,0.1,0.4,0.1,0.6,0.2c0.4,0.3,0.5,0.4,1,0.6l-0.1-0.1c-0.1,0-0.3,0-0.3,0c0.3,0.1,0.4,0.3,0.9,0.3
								c0.1,0.1,0.3,0.2,0.5,0.3c-0.3,0.1-0.6,0.2-1.2,0.2c0.2,0,0.1,0.1,0.1,0.1c-0.5,0.1-1.2,0.1-1.4,0.3c-0.1,0,0-0.1-0.2-0.1
								c-0.1,0,0.1,0.1,0,0.1c-0.3,0.1-0.8,0.2-1.2,0.3c-0.4,0-0.8,0.1-1,0.1c-0.7,0.3-1.5,0.4-2.1,0.6v0c-0.2,0.2-0.6-0.1-0.7,0.3
								c-0.1,0-0.2,0-0.2-0.1c-0.1,0.2-0.5,0-0.8,0.2c0,0,0,0,0.1,0c-0.3,0-0.5,0.1-0.8,0.1c0,0,0.1,0,0.1-0.1
								c-0.1-0.1-0.2,0.3-0.3,0c-0.1,0,0,0.1,0,0.1c-0.6,0-1.3,0.4-1.9,0.5c-0.5,0-0.1-0.4-0.4-0.1c0,0,0,0.1,0,0
								c-0.1,0.1-0.3-0.2-0.4-0.1c0.1,0.1-0.1,0.1,0,0.2c-0.3,0-0.4-0.1-0.6,0v-0.1c-0.2,0.3-0.5,0.2-0.7,0.5
								c-1.4,0.4-2.8,0.8-4.2,1.2l-0.6,0.1l-1,0.2l-0.3,0.1c-0.1,0-0.2,0.1-0.2,0l-0.3-0.4l-0.5-0.9c-0.4-0.7-0.7-1.5-0.8-2.3
								c0.1-0.4,0.1-0.4,0-0.9c0,0,0,0,0.1,0c-0.2,0,0-0.3-0.2-0.3c0-0.3,0-0.6,0-0.9c0-0.3,0.1-0.6,0.1-0.9c0,0.1,0.1,0.2,0.1,0.1
								c0-0.1-0.1-0.1-0.1-0.1l0.1,0c0-0.1-0.1-0.2-0.1-0.1c0.3-1.6,1.4-2.8,2.3-3.9c0.3-0.2,0.6-0.6,0.9-0.9c1-0.6,1.9-1,2.7-1.7
								C12.4,9,12.4,9.4,12.1,9.7z"/>
							<path class="st1" d="M13.1,9.5c0,0.1,0.1,0.2-0.1,0.2C13.1,9.7,13.1,9.6,13.1,9.5z"/>
							<path class="st1" d="M15.5,11.8C15.5,11.8,15.5,11.9,15.5,11.8C15.5,11.9,15.4,11.9,15.5,11.8C15.4,11.9,15.4,11.9,15.5,11.8
								z"/>
							<path class="st1" d="M16.1,12.3c0,0.1-0.2,0-0.3,0L16.1,12.3z"/>
							<path class="st1" d="M16.7,12.9C16.7,13,16.6,13,16.7,12.9C16.6,13,16.6,12.9,16.7,12.9z"/>
							<path class="st1" d="M16.8,12.8c0.1,0,0.1,0.1,0.1,0.1C16.9,12.9,16.7,12.9,16.8,12.8z"/>
							<path class="st1" d="M18.1,13.8c0,0,0.1,0,0.1,0.1C18.2,13.8,18,13.9,18.1,13.8z"/>
							<path class="st1" d="M18.8,14.1C18.9,14.1,18.9,14.1,18.8,14.1C18.9,14.2,18.9,14.2,18.8,14.1L18.8,14.1z"/>
							<polygon class="st1" points="19.4,18.1 19.5,18 19.5,18.1 							"/>
							<path class="st1" d="M13.4,19.4C13.4,19.5,13.4,19.4,13.4,19.4C13.4,19.4,13.3,19.5,13.4,19.4z"/>
							<polygon class="st1" points="10.3,20.5 10.3,20.5 10.3,20.7 							"/>
						</g>
					</g>
				</g>
			</g>
		</g>
	</g>
	<g>
		<g>
			<path class="st6" d="M47.1,18.2c1.8,9.6-9.8,14-18.4,13.8l0-3.2C35.9,29,46.7,25.8,47.1,18.2z"/>
			<g>
				<g>
					<g>
						<g>
							<path class="st1" d="M47.4,18.3c0-0.2-0.1,0.1-0.1-0.1C47.4,18.2,47.4,18.2,47.4,18.3z"/>
							<path class="st1" d="M46.8,18.8c0.3,0.7-0.3,1.4-0.3,2.1c0,0.1-0.2-0.1-0.2,0.1c0,0.4-0.2,0.8-0.5,1.1
								c-0.3,0.3-0.7,0.6-1,0.9l0-0.1c-0.1,0.1-0.1,0.3-0.3,0.4c0,0,0-0.1-0.1-0.1c0.1,0.1-0.2,0.2-0.2,0.4c-0.1,0-0.1-0.1-0.2,0
								l0,0.2c0,0.4-0.5,0.4-0.7,0.7c0,0,0-0.1,0-0.1c-0.3,0.5-0.9,0.9-1.4,1.3c0,0,0-0.1-0.1-0.2c0,0.1-0.1,0.3-0.2,0.4
								c-0.1-0.1-0.2,0.3-0.4,0.3v0c-0.1,0.2-0.2,0-0.3,0.2l-0.1-0.1c0,0.2-0.2,0-0.3,0.1l0,0c-0.1,0.1-0.2,0-0.3,0.1l0,0
								c-0.2,0.1-0.4,0.1-0.3,0.3c-0.1-0.1,0.2-0.1,0-0.3c-0.7,0.5-1.5,0.8-2.3,1c-0.1,0-0.2,0-0.2-0.1c-0.1,0-0.3,0.1-0.3,0.2
								c0,0-0.1-0.1-0.1-0.1c-0.2,0-0.1,0.2-0.3,0.2c0-0.1,0.1-0.1,0-0.2c-0.1,0.2-0.3,0.2-0.4,0.3c0,0,0-0.1,0-0.1
								c-0.1,0.2-0.3,0.1-0.5,0.2l0-0.1c-0.3,0,0,0.2-0.3,0.2c0,0,0-0.1,0-0.1c-0.2,0.2-0.5,0.2-0.7,0.3c0,0,0,0,0,0
								c-0.2,0.1-0.5,0.1-0.7,0.2c-0.1,0,0-0.2-0.2-0.1c0,0.2-0.4,0.1-0.2,0.3c-0.2,0-0.5,0-0.7,0.1c0.1-0.1-0.1-0.2,0-0.3l-0.1-0.1
								c0-0.1,0.1,0,0.1-0.1c-0.1,0-0.3,0.1-0.4,0.1c-0.1,0.1-0.3,0.4-0.5,0.4c0.1-0.1-0.1-0.2,0-0.2L32,29c-0.1,0,0-0.1-0.1-0.1
								c0,0,0,0.1-0.1,0.1c0,0-0.4,0.1-0.4-0.1c0-0.1,0.1,0,0-0.1c-0.2,0-0.2,0.1-0.3,0.1v0c-0.1,0-0.3,0.1-0.2,0.2
								c0.1,0,0-0.1,0.1-0.1c-0.1,0.1-0.3,0.1-0.4,0.2c0,0,0-0.1,0.1-0.1c-0.2,0.2-0.5,0.2-0.6,0.3c0,0.1,0-0.2,0.1-0.1
								c-0.3-0.1-0.4,0.2-0.6,0c0,0,0.1,0.1,0.1,0.1c-0.1,0-0.2-0.1-0.2-0.1c-0.1-0.1-0.1,0-0.1,0c0,0,0,0,0,0c0,0,0,0-0.1,0.1
								c0,0.1,0,0.1,0,0.2c0,0.1,0,0.2,0,0.3c0,0,0.2,0.1,0.2,0.2c0,0-0.1,0-0.1,0c-0.1,0.1,0,0.2-0.1,0.3c0.1,0.1,0-0.1,0-0.2
								c0-0.1-0.1-0.2,0-0.1c-0.1,0,0.2,0.2,0,0.2c0,0.1,0.1,0.3,0,0.4c0,0-0.2-0.1-0.1,0c0,0.2,0,0.1,0.1,0.2l0,0.1
								c0.1,0,0,0.2,0.1,0.1c-0.1,0,0.1,0.1-0.1,0.2l-0.1,0c0,0.1,0.1,0.1,0.2,0.1c0,0,0,0-0.1,0c0.2-0.1,0,0.1,0.1,0.1
								c0,0.1,0,0.1,0,0.2c0,0,0.1,0,0,0.1c0.1-0.1,0.2-0.1,0.3-0.1c0,0,0,0-0.1,0.1c0,0.1,0.1,0,0.1,0c0,0,0.1,0.1,0.2,0.2
								c0.1-0.1,0.1-0.2,0.1-0.3c0.1,0.2,0.4-0.1,0.5,0c0,0-0.2,0.1-0.1,0.2c0.1,0.2,0.3-0.2,0.5-0.1l-0.1-0.2
								c0.1,0.1,0.3-0.1,0.3,0.1c0.1-0.1,0.3,0,0.2-0.1c0.4,0.1,0.8-0.1,1,0.1c0,0,0.2,0,0.1-0.1c-0.1-0.1-0.1,0.1-0.1,0
								c0,0,0-0.1,0-0.1c0.1,0,0.2,0,0.1,0.2c0.3,0.1,0.2-0.3,0.5-0.3c0,0.1,0,0.1,0.1,0.1l0.1-0.1c0.2,0,0.1,0.1,0.2,0.3
								c0.1,0,0.2,0,0.3-0.1l0.2,0.1c-0.1-0.1,0.1-0.1,0.1-0.1l0,0c0,0,0.1,0,0.2,0c0-0.1-0.2-0.1-0.2-0.1c0-0.1,0.1-0.1,0.2-0.1
								c0,0.1,0.2,0,0.3,0c0.1,0,0.1-0.1,0.1-0.1c0,0.1,0.2,0,0.1,0.1c0,0-0.1,0-0.1,0c0.1,0,0.1,0.1,0.2,0c0.1-0.1-0.1-0.2,0.1-0.2
								c0,0,0,0.1-0.1,0.1l0.2,0l0-0.1c0,0,0,0,0,0c0-0.1,0.3-0.1,0.3-0.2c0.1,0,0.2,0,0.3,0l0,0c0.1,0,0.2,0,0.3-0.1v0
								c0,0,0.2-0.1,0.2-0.1c0.2,0,0.2,0.4,0.3,0.2c0.1,0,0.2-0.3,0.1-0.3c0.3,0,0.5-0.2,0.8-0.1c0,0,0-0.1,0-0.1
								c0.4-0.1,0.7-0.4,1-0.3c-0.1,0.1,0,0.1,0.1,0.2c0-0.1,0.1,0.1,0.1-0.1c0-0.1,0-0.1-0.2-0.1c0.2-0.1,0.5-0.2,0.7-0.2
								c-0.1,0,0-0.1,0-0.1c0,0.2,0.2,0.1,0.3,0l0-0.1l0.1,0.1c0,0,0-0.2,0.1-0.2c0,0,0,0.1,0.1,0.1c0.1-0.1,0.2-0.3,0.3-0.3
								l0.2,0.1c0,0,0.1-0.1,0-0.1c0.3,0,0.4-0.1,0.5,0c0.2-0.5,0.7-0.7,1.1-1l0,0.1c0.1,0,0-0.1,0.1-0.1c0,0.1,0.2,0.1,0.1,0.2
								c0.2,0,0.1-0.2,0.2-0.3c0-0.1,0,0.1-0.1,0c0,0,0.2-0.1,0.2-0.2c0.1,0,0.1,0.1,0.1,0.2l0-0.1c0.2,0.1-0.1,0.4,0.2,0.5l0.1-0.1
								c0.2,0.1-0.1,0.3,0.1,0.2c0-0.1,0-0.4-0.1-0.4c0.2-0.2-0.1-0.3,0.1-0.5c0.1,0-0.2,0.1,0,0.2c0.2,0,0.2-0.2,0.3-0.2
								c-0.1,0-0.1-0.1-0.1-0.2c0.1,0,0,0.2,0.2,0.1c0-0.1,0-0.2-0.1-0.2c-0.1-0.2,0.2-0.1,0.2-0.3c0.1,0.1,0.1,0.4,0.3,0.3
								c-0.1-0.1,0.1-0.3-0.1-0.4c0.1,0,0.2,0,0.2,0.1c0.1,0,0-0.4,0.2-0.2l-0.1-0.1c0,0,0.1,0,0.2,0c0.1-0.1,0.1-0.3,0.2-0.2
								c0,0,0.2-0.2,0-0.2c-0.2,0,0,0.2-0.2,0.1c0.2,0,0.1-0.1,0.2-0.2l0.1,0c0,0,0.1-0.1,0-0.2c0,0.1,0.1,0.1,0.1,0.1l0-0.1
								c0.1-0.2,0.2,0.1,0.3,0l0,0.2c0,0,0.1,0,0.2-0.1c0-0.1-0.1-0.2-0.2-0.3c0-0.1,0.1,0,0.1-0.1l0,0.2c0,0,0.2,0,0.3,0
								c0-0.1,0-0.3-0.1-0.2c0,0,0.2-0.1,0.2,0c0.1-0.1-0.1-0.1-0.1-0.2c0.1,0,0.3,0,0.4-0.1c0,0.1,0,0.1,0,0.2c0,0,0,0,0.1-0.1
								c0,0.2,0.1,0,0.2,0.2c0,0,0.1-0.1,0.1-0.2c-0.3,0-0.2-0.4-0.4-0.5c0.1-0.2,0.5,0.2,0.4-0.2c-0.1,0-0.2-0.2-0.2,0
								c0.1-0.1-0.1-0.2,0-0.3c0,0.2,0.3,0,0.3,0.2c-0.1,0-0.1,0.1-0.1,0.1c0.1,0,0.2,0.1,0.3,0c0-0.1,0.1-0.2,0-0.3
								c-0.1-0.1-0.1,0.1-0.2,0c0.1-0.2,0.3-0.1,0.1-0.3c0,0.1-0.2,0.1-0.3,0l0-0.1l0.1,0.1c0.2-0.2-0.1-0.1,0-0.3l0.2,0
								c0.1,0.1-0.2,0.3,0,0.3c0.1-0.1,0-0.2,0.1-0.3c0,0,0,0.1,0,0.1c0,0,0.3,0,0.3-0.2c0-0.1-0.1-0.1-0.1-0.1
								c0.1-0.2,0-0.3,0.1-0.5c0.2,0.1,0.1-0.2,0.2,0c-0.1,0-0.3,0.3-0.1,0.5c0.2,0-0.1,0.1,0.1,0.3c0.1-0.2,0.3-0.1,0.4-0.1
								c0,0,0-0.1,0-0.1c-0.1-0.1-0.1,0-0.3,0c0.1-0.2,0.1-0.4,0.1-0.5c0.1,0,0.2,0,0.2,0.1c0.1-0.2,0.1-0.5,0.2-0.7
								c-0.2,0.1,0-0.3-0.2-0.2c-0.1,0.1-0.2,0.2-0.3,0.1c0-0.1,0.1,0,0.1,0c-0.1-0.1,0.2-0.1,0.1-0.2c0,0.2,0.2,0.1,0.4,0.2
								c0-0.2,0.1,0,0.2-0.1c0-0.2-0.1-0.4,0-0.6c0.2-0.2,0-0.6,0-0.8c0.1-0.1,0.3,0,0.3-0.1c0-0.1-0.2,0.1-0.1-0.1l0,0
								c0-0.1,0.2-0.4-0.1-0.4l0.2,0.1c0,0,0-0.1,0-0.1c0.1,0,0.1,0,0.2,0c0.1-0.1,0-0.3-0.1-0.4l-0.1,0.1c-0.1-0.2,0-0.4-0.1-0.6
								h0.1L47,19c0.1,0,0.2-0.1,0.1-0.2l0.3,0.3c0,0.1-0.2-0.1-0.3,0c-0.1,0.1,0,0.3,0.1,0.3c0-0.1,0-0.1-0.1-0.1
								c0.2,0,0.2,0.1,0.3,0.1c0,0,0-0.1,0-0.1c0.1,0.1,0.1,0.2,0.1,0.3c-0.1-0.1-0.1,0.1-0.1,0c0.1,0,0.2,0.1,0.2,0.3
								c-0.2,0.1,0.1,0.3,0,0.6c-0.1-0.1-0.2-0.2-0.3-0.3c-0.1,0.1,0,0.1-0.1,0.3c0.1,0.1,0.3,0.1,0.3,0.3h-0.1
								c0,0.2,0.2,0.2,0.2,0.4c0,0.2-0.1,0.4-0.1,0.5c0,0.2-0.1,0.3-0.1,0.4l-0.1,0c0.2,0.2,0,0.5,0,0.7c-0.1,0.1-0.1,0.3-0.1,0.5
								c0,0.1-0.1,0.3-0.2,0.3c-0.2,0.6-0.3,1.1-0.7,1.6l-0.1-0.2c0,0.1-0.1,0-0.2,0.1c0.2,0,0,0.2,0.1,0.3
								c-0.3,0.2-0.3,0.5-0.4,0.8l-0.1-0.1c0,0.3-0.3,0.4-0.6,0.6c0,0-0.2,0-0.2,0c0,0.2,0,0.3-0.2,0.5c-0.1,0.1-0.4,0.3-0.6,0.4
								c-0.3,0.6-1,0.9-1.5,1.4l-0.1-0.1c-0.4,0.6-1.3,0.8-1.7,1.2l0-0.2c-0.2,0-0.3,0.2-0.2,0.3c-0.2,0-0.4,0.3-0.5,0.2
								c-0.2,0-0.2,0.2-0.3,0.3c-0.4,0.1-0.5,0.2-0.8,0.3l0.1,0c0,0,0-0.1-0.1-0.1c-0.1,0.1-0.5,0.1-0.3,0.3c-0.4,0-0.8,0.4-1.2,0.3
								c0,0.1,0,0.1-0.1,0.1c-0.3,0.1-0.7,0-0.9,0.2c-0.1,0,0-0.1-0.1-0.1c-0.1,0,0,0.1-0.1,0.1c-0.5,0.3-1.1,0.1-1.5,0.3
								c-0.8,0.3-1.7,0.3-2.5,0.5v0c-0.3,0.2-0.7-0.1-0.9,0.2c-0.1,0-0.3,0-0.2-0.1c-0.2,0.1-0.6-0.1-0.9,0.1c0,0,0,0,0.1,0
								c-0.2,0-0.3,0-0.5,0c-0.3,0-0.5,0-0.8,0c0.1,0,0.2,0,0.2-0.1c-0.1-0.1-0.6,0.2-0.6,0c-0.1,0-0.2,0.1-0.1,0.1
								c-0.8,0.2-0.5-0.7-0.6-1.2c0-0.7-0.1-1-0.1-1.4c0.1-0.3,0.2-0.3,0.2-0.3s0.1,0,0-0.3c0,0-0.1-0.1,0-0.1
								c-0.1-0.3,0.3-0.3,0.1-0.5c-0.1,0-0.1-0.2-0.2-0.2c0-0.2,0.1-0.3,0.1-0.4l0,0l0,0c0,0,0.1,0,0.1,0c0.1,0,0.1,0,0.2,0l0,0.1
								c0.3-0.2,0.8-0.1,1.1-0.4c0.4,0,0.5,0,0.7,0L31,28c0.4,0,0.8-0.1,1.2-0.2c0.8-0.1,1.5-0.3,2.3-0.5c1.5-0.3,2.9-0.8,4.4-1.2
								c0.4,0,0.4,0,0.8-0.2c0,0,0,0,0,0.1c0-0.2,0.3-0.1,0.2-0.3c0.5-0.2,1-0.5,1.5-0.8c-0.1,0.1,0,0.2,0,0.1l0-0.1l0,0
								c0-0.1,0.1-0.2,0-0.2c1.2-0.8,2.4-1.5,3.3-2.6c0.1-0.1,0.3-0.3,0.4-0.4c0.1-0.2,0.2-0.4,0.2-0.5c0.7-0.8,1.1-1.7,1.1-2.8
								C46.4,18.2,46.8,18.3,46.8,18.8z"/>
							<path class="st1" d="M47.4,18.5c-0.1,0-0.1,0.2-0.2,0.1C47.3,18.6,47.3,18.5,47.4,18.5z"/>
							<path class="st1" d="M46.5,22C46.5,22,46.4,22.1,46.5,22C46.4,22,46.4,22,46.5,22C46.4,22,46.5,22,46.5,22z"/>
							<path class="st1" d="M46.2,22.9c-0.1,0-0.1-0.2-0.1-0.3L46.2,22.9z"/>
							<path class="st1" d="M45.6,23.5C45.5,23.5,45.5,23.5,45.6,23.5C45.6,23.4,45.6,23.4,45.6,23.5z"/>
							<path class="st1" d="M45.8,23.6c0,0.1-0.1,0.1-0.1,0.1C45.7,23.7,45.7,23.5,45.8,23.6z"/>
							<path class="st1" d="M44.7,24.9c0,0,0,0.1-0.1,0.1C44.7,25.1,44.7,24.9,44.7,24.9z"/>
							<path class="st1" d="M44.3,25.6C44.3,25.6,44.3,25.6,44.3,25.6C44.2,25.7,44.2,25.6,44.3,25.6L44.3,25.6z"/>
							<polygon class="st1" points="30.6,31.4 30.7,31.4 30.7,31.5 							"/>
							<path class="st1" d="M30.5,29.4C30.6,29.3,30.6,29.4,30.5,29.4C30.5,29.4,30.6,29.3,30.5,29.4z"/>
							<polygon class="st1" points="34.2,28.5 34.2,28.6 34.2,28.4 							"/>
						</g>
					</g>
				</g>
			</g>
		</g>
	</g>
	<g>
		<g>
			<path class="st7" d="M28.2,28.2l0,3.2c0-3.3-0.1-10.7,0-13.9L28.2,28.2z"/>
			<g>
				<g>
					<g>
						<g>
							<path class="st1" d="M28.4,28.3C28.4,28.2,28.3,28.3,28.4,28.3C28.5,28.2,28.5,28.2,28.4,28.3z"/>
							<path class="st1" d="M28.4,27.9c-0.4-0.3,0-0.8-0.3-1.1c0,0,0.2,0,0.2-0.1c-0.3-0.4-0.1-0.9,0.1-1.3l0.1,0
								c0-0.1-0.1-0.2-0.1-0.3c0,0,0.1,0,0.1,0c-0.1,0-0.1-0.1-0.1-0.2c0,0,0.1,0,0.2-0.1l-0.1,0c-0.3-0.1,0-0.3-0.1-0.5
								c0,0,0.1,0,0.1,0c-0.2-0.3-0.2-0.7-0.2-1c0,0,0.1,0,0.2,0c-0.1,0-0.2-0.1-0.2-0.2c0.1,0-0.1-0.1,0-0.3l0,0
								c-0.1-0.1,0.1-0.1-0.1-0.2l0.1,0c-0.2,0,0.1-0.1,0-0.2h0c0-0.1,0-0.1,0-0.1l0,0c0-0.1,0.1-0.2-0.1-0.2c0.1,0,0.1,0.1,0.2,0
								C28,21.7,28,21.2,28,20.8c0.1,0,0.1-0.1,0.1-0.1c0,0,0-0.2-0.1-0.2c0,0,0.1,0,0.1,0c0.1-0.1-0.2-0.1-0.1-0.2c0,0,0.1,0,0.1,0
								c-0.1-0.1-0.1-0.2-0.1-0.3c0,0,0,0,0.1,0c-0.1-0.1,0-0.2-0.1-0.3l0.1,0c0.1-0.1-0.2,0-0.1-0.2c0,0,0.1,0,0.1,0
								c-0.2-0.1-0.1-0.3-0.2-0.4c0,0,0,0,0,0c0-0.1,0-0.2,0-0.4c0,0,0.2,0,0.2-0.1c-0.2,0-0.1-0.2-0.3-0.1c0-0.1,0.1-0.3,0-0.4
								c0.1,0,0.2,0,0.2,0l0.1-0.1c0.1,0,0,0.1,0.1,0c0,0-0.1-0.2,0-0.2c-0.1-0.1-0.3-0.2-0.4-0.3c0.1,0.1,0.2,0,0.2,0l-0.4-0.2
								c0,0,0.1,0,0.1-0.1c0,0-0.1,0-0.1,0c0,0,0-0.1,0-0.1h0.7c0,0,0,0.1-0.1,0.1c-0.1,0,0-0.1-0.1,0c0,0.1,0.1,0.1,0.1,0.2h0
								c0,0,0.1,0.2,0.2,0.1c0,0-0.1,0-0.1,0c0.1,0,0.1,0.1,0.1,0.2c0,0-0.1,0-0.1,0c0.1,0.1,0.2,0.2,0.3,0.4c0.1,0-0.2,0-0.1-0.1
								c-0.1,0.2,0.2,0.3,0,0.5c0,0,0.1,0,0.1,0c0,0.1-0.1,0.1-0.1,0.1c-0.1,0,0,0.1,0,0.1c0,0,0,0,0,0c0.1,0.1,0.2,0.4,0.1,0.5
								c0,0,0.2,0.1,0.2,0.1l-0.1,0c-0.1,0,0,0.1-0.1,0.1c0.1,0.1-0.1-0.3,0-0.2c-0.1,0,0.2,0.1,0,0.1c0,0.1,0.1,0.1,0,0.2
								c0,0-0.2-0.1-0.1,0c0,0.1,0,0,0.1,0.1l0,0.1c0.1,0,0,0.1,0.1,0.1c-0.1,0,0.1,0.2-0.1,0.1l-0.1,0c0,0,0.1,0.1,0.2,0.1
								c0,0,0,0-0.1,0c0.2,0,0,0.1,0.1,0.2c-0.1,0.1,0,0.3-0.1,0.3c0.1,0.1,0.1,0.1,0.1,0.2c0,0,0,0-0.1,0c-0.1,0,0,0.1,0,0.1
								c0,0-0.1,0.1-0.2,0.2c0.1,0.1,0.2,0,0.3,0.1c-0.2,0.1,0.1,0.2-0.1,0.3c0,0-0.1-0.1-0.2,0c-0.2,0.1,0.2,0.1,0.1,0.3l0.2,0
								c-0.1,0,0.1,0.2-0.1,0.1c0.1,0-0.1,0.1,0.1,0.1c-0.1,0.2,0.1,0.4-0.2,0.5c0,0,0,0.1,0.1,0.1c0.1,0-0.1-0.1,0-0.1
								c0,0,0,0,0.1,0c0,0.1,0,0.1-0.2,0c-0.1,0.1,0.3,0.1,0.2,0.3c-0.1,0-0.1,0-0.1,0l0.1,0.1c0,0.1-0.2,0.1-0.3,0.1
								c0,0,0,0.1,0.1,0.1l-0.2,0.1c0.1,0,0.1,0,0.1,0.1l0,0c0,0,0,0.1,0,0.1c0.1,0,0.1-0.1,0.1-0.1c0,0,0,0.1,0.1,0.1
								c-0.1,0-0.1,0.1-0.1,0.1c0,0,0.1,0.1,0.1,0.1c-0.1,0,0,0.1-0.1,0c0,0,0.1,0,0-0.1c0,0-0.2,0-0.1,0.1c0.1,0,0.2,0,0.2,0.1
								c0,0-0.1,0-0.1,0l-0.1,0.1h0.1c0,0,0,0,0,0c0.1,0,0,0.1,0.2,0.2c0,0-0.1,0.1-0.1,0.1l0,0c-0.1,0,0,0.1,0,0.2h0
								c0,0,0,0.1,0.1,0.1c-0.1,0.1-0.4,0-0.3,0.1c0,0.1,0.2,0.1,0.3,0.1c-0.1,0.1,0.1,0.3-0.1,0.4c0,0,0.1,0,0.1,0
								c0,0.2,0.1,0.4-0.1,0.6c0-0.1-0.1,0-0.2,0c0.1,0-0.1,0.1,0.1,0.1c0.1,0,0.1,0,0.2-0.1c0,0.1,0,0.3,0,0.4c0,0,0.1,0,0.1,0
								c-0.2,0-0.2,0.1-0.1,0.1l0.1,0l-0.1,0c0,0,0.2,0,0.1,0.1c0,0-0.1,0-0.1,0c0.1,0.1,0.2,0.2,0.1,0.2l-0.1,0.1
								c0,0,0.1,0.1,0.1,0c-0.1,0.1-0.1,0.2-0.2,0.3c0.3,0.2,0.3,0.5,0.3,0.8l-0.1,0c-0.1,0.1,0.1,0,0.1,0.1c-0.1,0-0.1,0-0.2,0
								c-0.1,0.1,0.1,0.1,0.2,0.2c0.1,0-0.1,0,0.1,0c0,0-0.1,0.1,0.1,0.1c-0.1,0-0.2,0-0.2,0l0.1,0.1c-0.2,0.1-0.3-0.2-0.5-0.1
								l0,0.1c-0.1,0-0.2-0.1-0.2,0c0.1,0.1,0.3,0.1,0.4,0.1c0,0.1,0.4,0.1,0.3,0.2c-0.1,0,0-0.1-0.1-0.1c-0.1,0.1,0.1,0.1,0,0.2
								c0-0.1,0.2,0,0.2,0c-0.1,0.1-0.1,0-0.1,0c0.1,0,0.1,0.1,0.2,0c0.2,0,0,0.1,0.1,0.1c-0.1,0-0.3-0.1-0.4,0
								c0.1,0,0.2,0.1,0.4,0.1c0,0-0.1,0-0.2,0c-0.1,0.1,0.2,0.1,0,0.2l0.1,0c0,0-0.1,0-0.1,0.1c0,0,0.2,0.2,0,0.2
								c0,0,0,0.1,0.1,0.1c0.1-0.1-0.1-0.1,0.1-0.1c-0.1,0,0,0.1,0.1,0.1l-0.1,0c0,0,0,0.1,0.1,0.1c0,0-0.1,0-0.1,0l0.1,0
								c0.1,0.1-0.2,0-0.2,0.1l-0.1-0.1c0,0-0.1,0,0,0.1c0.1,0,0.2,0,0.3,0.1c0,0.1-0.1,0,0,0.1l-0.1-0.1c0,0-0.2,0-0.2,0.1
								c0,0,0.2,0.1,0.3,0c0,0-0.1,0.1-0.1,0.1c0,0.1,0.1,0,0.2,0.1c-0.1,0-0.2,0.1-0.3,0.2l-0.2-0.1v0c-0.1-0.1-0.1,0-0.3,0
								c0,0,0,0.1,0.1,0.1c0.2-0.1,0.3,0.1,0.5,0.1c0.1,0.1-0.5,0.1-0.2,0.2c0.1,0,0.2,0,0.2,0c0,0.1,0.2,0.1,0.1,0.2
								c-0.1-0.1-0.2,0.1-0.4,0c0.1,0,0.1-0.1,0-0.1c-0.1,0-0.2,0-0.2,0.1c0,0,0,0.1,0.1,0.1c0.1,0,0-0.1,0.1,0
								c0,0.1-0.1,0.1,0.1,0.2c0-0.1,0.1-0.1,0.2-0.1l0,0.1l-0.1,0c-0.1,0.1,0.1,0,0.1,0.2l-0.2,0.1c-0.1,0,0.1-0.2-0.2-0.2
								c0,0.1,0.1,0.1,0,0.2c0,0,0,0,0-0.1c0,0-0.1,0-0.1,0.1h-1.2c0,0,0.1-0.1,0-0.1c-0.1-0.1-0.1,0-0.2,0c0-0.1-0.1-0.2-0.1-0.3
								c0.2,0,0-0.1,0.2,0c-0.1,0-0.1,0.2,0.1,0.3c0.2,0,0,0.1,0.2,0.1c0-0.1,0.2-0.1,0.3-0.1c0,0,0-0.1-0.1-0.1c-0.1,0-0.1,0-0.3,0
								c0-0.1,0-0.2-0.1-0.3c0.1,0,0.2,0,0.2,0c0-0.1,0-0.3,0-0.4c-0.2,0.1,0-0.1-0.2-0.1c0,0.1-0.2,0.1-0.3,0.1c0,0,0.1,0,0.1,0
								c-0.1-0.1,0.2-0.1,0-0.1c0.1,0.1,0.2,0,0.4,0c-0.1-0.1,0.1,0,0.1-0.1c-0.1-0.1-0.1-0.2-0.2-0.3c0.1-0.1,0-0.3,0-0.4
								c0.1-0.1,0.3,0,0.3-0.1c0-0.1-0.2,0.1-0.1-0.1l0,0c0,0,0.1-0.2-0.1-0.2l0.2,0c0,0,0,0,0-0.1c0.1,0,0.1,0,0.2,0
								c0.1-0.1,0-0.1,0-0.2l-0.1,0c-0.1-0.1,0-0.2,0-0.3h0.1L28,28.5c0.1,0,0.2,0,0.1-0.1l0.3,0.2c-0.1,0-0.1-0.1-0.2,0
								c-0.1,0-0.1,0.1,0,0.2c0,0,0,0,0-0.1c0.1,0,0.1,0,0.3,0.1c0,0,0-0.1,0-0.1c0.1,0,0.1,0.1,0.1,0.2c-0.1,0-0.1,0-0.1,0
								c0.1,0,0.2,0.1,0.1,0.2c-0.2,0.1,0.1,0.2,0.1,0.3c-0.1,0-0.3-0.1-0.3-0.2c-0.1,0.1,0,0.1-0.1,0.1c0.1,0,0.3,0.1,0.3,0.1h-0.1
								c0,0.1,0.2,0.1,0.2,0.2c0,0.2,0,0.4-0.1,0.5h-0.1c0.2,0.1,0.1,0.3,0.2,0.4c-0.1,0.2,0.1,0.4-0.1,0.5c0,0.1,0.1,0.3,0.1,0.4
								h-0.8c0-0.2,0-0.3,0-0.5l0.1,0c-0.1-0.1,0.1,0,0.1-0.1c-0.1,0.1-0.1-0.1-0.2-0.1c0.1-0.1,0-0.3-0.1-0.4l0.1,0
								c-0.2-0.1,0-0.3,0-0.4c0,0,0.1,0,0.1-0.1c-0.2-0.1-0.1-0.1-0.3-0.3c0-0.1,0-0.2,0.1-0.3c-0.2-0.3-0.1-0.7-0.2-1l0.1,0
								c-0.3-0.3,0-0.8-0.2-1.1l0.2,0c0.1-0.1,0-0.2-0.2-0.2c0.1-0.1-0.1-0.2,0.1-0.3c0-0.1-0.1-0.1-0.1-0.2c0.1-0.2,0.1-0.3,0-0.4
								l0,0c0,0,0.1,0,0.1,0c-0.1-0.1,0-0.2-0.2-0.2c0.1-0.2-0.1-0.4,0.1-0.6c-0.1,0-0.1,0-0.1,0c0-0.2,0.1-0.3,0-0.5
								c0,0,0.1,0,0.1,0c0,0-0.1,0-0.1,0c-0.1-0.3,0.1-0.5,0.1-0.8c-0.1-0.4-0.1-0.9-0.1-1.3h0c-0.2-0.1,0.2-0.3-0.1-0.4
								c0,0,0-0.1,0.1-0.1c-0.1-0.1,0.1-0.3,0-0.5c0,0,0,0,0,0c0.1-0.2,0-0.3,0.1-0.5c0,0,0,0,0.1,0c0.1-0.1-0.2-0.2,0-0.2
								c0,0-0.1,0-0.1,0c0.1-0.4-0.1-0.8-0.1-1.2c0.1-0.3,0.4,0,0.2-0.2c0,0-0.1,0,0,0c-0.1-0.1,0.3-0.1,0.1-0.2c-0.1,0-0.1,0-0.2,0
								c0.1-0.2,0.2-0.2,0.1-0.3l0.1,0c-0.2-0.2-0.1-0.3-0.4-0.5c0-0.3,0-0.6-0.1-0.9h1.8c0.1,0.6,0.1,1.1,0.1,1.7
								c0,0.8,0.1,1.7,0,2.5C29,21.8,29,21.8,29.1,22c0,0,0,0-0.1,0c0.2,0,0,0.1,0.2,0.2c0,0.3,0,0.6,0,0.9c0,0-0.1-0.1-0.1,0
								l0.1,0.1l0,0c0,0,0.1,0.1,0.2,0c0.1,0.8-0.2,1.6-0.1,2.4c-0.1,0.2,0,0.5,0,0.7c-0.2,0.6-0.4,1.2-0.2,1.8
								C28.9,28.2,28.5,28.1,28.4,27.9z"/>
							<path class="st1" d="M28.5,28.4c-0.1,0-0.1,0.1-0.2,0C28.3,28.4,28.4,28.4,28.5,28.4z"/>
							<path class="st1" d="M27.6,30.3C27.6,30.3,27.6,30.3,27.6,30.3C27.6,30.3,27.5,30.3,27.6,30.3C27.5,30.3,27.6,30.3,27.6,30.3
								z"/>
							<path class="st1" d="M27.6,30.8c-0.1,0-0.1-0.1-0.1-0.2L27.6,30.8z"/>
							<path class="st1" d="M27.3,31.2C27.2,31.3,27.1,31.3,27.3,31.2C27.2,31.2,27.2,31.2,27.3,31.2z"/>
							<path class="st1" d="M27.4,31.3C27.4,31.3,27.4,31.3,27.4,31.3C27.4,31.3,27.3,31.2,27.4,31.3z"/>
							<path class="st1" d="M29.1,30.5c0,0-0.1-0.1,0-0.1C29.1,30.4,29.2,30.5,29.1,30.5z"/>
							<path class="st1" d="M29,30C29,30,29,30,29,30C29,30,29.1,30,29,30L29,30z"/>
							<polygon class="st1" points="28.7,21.7 28.7,21.8 28.6,21.8 							"/>
							<path class="st1" d="M28.7,18.1C28.6,18,28.7,18.1,28.7,18.1C28.8,18.1,28.6,18,28.7,18.1z"/>
							<polygon class="st1" points="27.9,18.9 27.9,18.9 28.1,18.9 							"/>
						</g>
					</g>
				</g>
			</g>
		</g>
	</g>
	<g>
		<g>
			<path class="st8" d="M41.7,10.6c13.9,8.2-1.8,19.4-13,18.3l-0.1-10.7L41.7,10.6z"/>
			<g>
				<g>
					<g>
						<g>
							<path class="st1" d="M41.9,10.4c-0.2-0.1,0,0.2-0.2,0C41.8,10.4,41.9,10.4,41.9,10.4z"/>
							<path class="st1" d="M40.9,10.8c-0.4,0.7-1.4,0.8-1.9,1.4c-0.1,0.1-0.1-0.2-0.2-0.1c-0.5,0.6-1.6,1.1-2.5,1.3l0-0.1
								c-0.2,0.1-0.3,0.3-0.4,0.4c0,0,0-0.1,0-0.1c0,0.1-0.3,0.2-0.3,0.3c-0.1,0-0.1-0.1-0.2-0.1l0,0.2c-0.1,0.4-0.6,0.3-0.9,0.7
								c0,0,0-0.1,0-0.1c-0.5,0.5-1.2,0.9-1.7,1.3c0-0.1,0-0.1-0.1-0.2c0,0.1-0.1,0.3-0.3,0.4c-0.2-0.1-0.2,0.3-0.5,0.3v0
								c-0.1,0.2-0.3,0-0.3,0.3l-0.1,0c0,0.2-0.3,0-0.3,0.2l0,0C31.1,17,31,16.9,30.9,17l0,0c-0.2,0.2-0.4,0.2-0.3,0.3
								c-0.1-0.1,0.2-0.2,0-0.3c-0.5,0.5-1.3,0.9-1.8,1.2v0.5c-0.1,0.1-0.1,0.2-0.1,0.2c0,0.1,0,0.4,0.1,0.4c0,0-0.1,0.1-0.1,0.1
								c-0.1,0.2,0.2,0.2,0.1,0.4c0-0.1-0.1-0.1-0.1-0.1c0.1,0.2,0.1,0.4,0.1,0.5c0,0,0-0.1-0.1-0.1c0.1,0.2,0,0.4,0.1,0.5l-0.1-0.1
								c-0.1,0.3,0.2,0.1,0.1,0.3c0-0.1-0.1,0-0.1,0c0.2,0.2,0.1,0.6,0.2,0.8c0,0,0,0,0,0c0,0.3,0,0.5,0,0.8c0,0.1-0.2,0-0.2,0.2
								c0.2,0,0.1,0.5,0.3,0.3c0,0.2-0.1,0.6,0,0.7c-0.1-0.1-0.2,0.1-0.2-0.1l-0.1,0.1c-0.1,0,0-0.1-0.1-0.1c0,0.1,0.1,0.4,0,0.5
								c0.1,0.2,0.3,0.3,0.4,0.6c-0.1-0.1-0.2,0.1-0.2,0l0.4,0.4c0,0.1-0.1,0-0.1,0.2c0,0,0.1,0,0.1,0.1c0,0,0,0.4-0.1,0.4
								c-0.1,0,0-0.1-0.1,0c0,0.2,0.1,0.2,0.1,0.4h0c0,0.1,0.1,0.3,0.2,0.2c0-0.1-0.1,0-0.1-0.1c0.1,0.1,0.1,0.3,0.1,0.5
								c0-0.1-0.1,0-0.1-0.1c0.1,0.2,0.2,0.5,0.3,0.7c0.1,0-0.2-0.1-0.1-0.1c-0.1,0.2,0,0.4,0,0.5c0,0.1,0.1,0.2,0,0.3
								c0,0,0.1-0.1,0.1-0.1c0,0.1-0.1,0.2-0.1,0.2c-0.1,0.1,0,0.1,0,0.1c0,0,0,0,0,0c0,0.1,0.2,0,0.3,0c0.1,0,0.2,0,0.3,0
								c0,0,0.2-0.2,0.3-0.2l0,0.1c0.1,0.1,0.3,0,0.3,0.1c0.2-0.1-0.6,0.1-0.4,0c0.1,0.1,0.3-0.2,0.3,0c0.2,0,0.3-0.1,0.5,0
								c0,0-0.1,0.2,0,0.1c0.2,0,0.1,0,0.2-0.1l0.1,0c0-0.1,0.2,0,0.1-0.1c0,0.1,0.3-0.1,0.3,0.1l0,0.1c0.1,0,0.1-0.2,0.2-0.2
								c0,0,0,0,0,0.1c0-0.2,0.2,0,0.3-0.2c0.2,0,0.5,0,0.6,0.1c0.2-0.1,0.3-0.2,0.5-0.1c0,0-0.1,0-0.1,0.1c0.1,0,0.1,0,0.2-0.1
								c0,0,0.2,0.1,0.4,0.1c0.1-0.1,0.1-0.2,0.1-0.3c0.2,0.2,0.4-0.2,0.6,0c0,0-0.2,0.2-0.1,0.2c0.2,0.2,0.3-0.2,0.5-0.2l-0.1-0.2
								c0.1,0.1,0.3-0.2,0.3,0c0.1-0.1,0.3,0,0.2-0.2c0.4,0,0.8-0.3,1.2-0.1c0,0,0.2-0.1,0.1-0.1c-0.1-0.1-0.1,0.1-0.2,0
								c0,0,0-0.1,0-0.1c0.1,0,0.2,0,0.2,0.2c0.3,0,0.2-0.4,0.5-0.4c0,0.1,0,0.1,0.1,0l0.1-0.2c0.2,0,0.2,0.1,0.2,0.2
								c0.1-0.1,0.2-0.1,0.3-0.2l0.2,0.1c-0.1-0.1,0.1-0.1,0.1-0.1l0,0c0,0,0.2,0,0.2-0.1c0-0.1-0.2,0-0.3,0c0-0.1,0.1-0.1,0.2-0.2
								c0,0.1,0.2,0,0.3,0c0.1,0,0.1-0.1,0.1-0.2c0,0.1,0.2-0.1,0.1,0.1c0,0-0.1,0-0.1,0c0.1,0,0.1,0.1,0.2,0
								c0.1-0.1-0.1-0.2,0.1-0.2c0,0,0,0.1,0,0.2l0.2,0l0-0.1c0,0,0,0,0,0c0-0.1,0.3-0.1,0.2-0.3c0.1,0,0.2,0,0.3,0l0,0
								c0.1,0,0.2-0.1,0.3-0.2l0,0c0.1,0,0.2-0.1,0.2-0.2c0.2,0,0.2,0.4,0.3,0.1c0.1-0.1,0.1-0.3,0-0.3c0.3-0.1,0.5-0.4,0.8-0.4
								c0-0.1,0-0.1,0-0.1c0.4-0.2,0.7-0.6,1-0.6c-0.1,0.1,0.1,0.1,0.1,0.1c0-0.1,0.2,0,0.1-0.1c-0.1-0.1-0.1-0.1-0.2-0.1
								c0.2-0.2,0.5-0.4,0.6-0.4c-0.1,0-0.1,0,0-0.1c0.1,0.1,0.2,0,0.3-0.1l0-0.1l0.1,0c0-0.1-0.1-0.2,0.1-0.2c0,0,0.1,0,0.1,0
								c0-0.1,0.1-0.4,0.3-0.4l0.2,0c0-0.1,0-0.2,0-0.1c0.2-0.1,0.4-0.2,0.5-0.2c0.1-0.5,0.5-1,0.8-1.4l0,0.1c0.1-0.1-0.1-0.1,0-0.2
								c0,0.1,0.2,0,0.2,0.1c0.2-0.1,0-0.3,0.1-0.4c-0.1-0.1,0,0.1-0.1,0c0,0,0.2-0.2,0.1-0.3c0.1,0,0.2,0.1,0.2,0.1v-0.1
								c0.2,0,0.1,0.4,0.3,0.4l0-0.1c0.2,0,0,0.4,0.2,0.1c0-0.1-0.1-0.3-0.2-0.3c0.1-0.2-0.2-0.3-0.1-0.5c0.1,0-0.1,0.2,0,0.2
								c0.2,0,0-0.3,0.1-0.3c-0.1,0.1-0.2-0.1-0.2-0.1c0.1-0.1,0.1,0.1,0.2,0c-0.1-0.1,0-0.2-0.2-0.1c-0.2-0.1,0.1-0.1,0-0.3
								c0.1,0,0.2,0.3,0.3,0.1c-0.1,0-0.1-0.3-0.3-0.3c0.1-0.1,0.2,0,0.2,0c0.1-0.1-0.1-0.3,0.1-0.3l-0.1-0.1c0,0,0.1-0.1,0.2-0.1
								c0-0.1-0.1-0.4,0.1-0.3c0,0,0-0.3-0.1-0.2c-0.1,0.1,0.1,0.2-0.1,0.2c0.2-0.1,0-0.2,0-0.3h0.1c0,0,0-0.1-0.1-0.2
								c0,0,0.1,0,0.1,0l-0.1-0.1c0-0.2,0.2,0,0.2-0.2l0.1,0.1c0,0,0.1-0.1,0.1-0.2c-0.1,0-0.2-0.1-0.3-0.1c0-0.1,0.1,0,0-0.1
								l0.1,0.1c0,0,0.2-0.1,0.2-0.2c0-0.1-0.2-0.2-0.3-0.1c0-0.1,0-0.2,0.1-0.1c0-0.1-0.1,0-0.2-0.1c0.1-0.1,0.2-0.2,0.3-0.4
								l0.2,0.1v-0.1c0.2,0.1,0.1-0.1,0.3,0c0-0.1,0-0.1-0.1-0.2c-0.2,0.2-0.4-0.2-0.6-0.1c-0.1-0.2,0.5-0.3,0.1-0.5
								c0,0.1-0.2,0-0.1,0.1c0-0.2-0.2,0-0.2-0.2c0.1,0.1,0.2-0.2,0.4-0.1c-0.1,0,0,0.1,0,0.1c0.1-0.1,0.2,0,0.2-0.2
								c-0.1-0.1-0.1-0.2-0.2-0.2c-0.1,0,0.1,0.1-0.1,0.1c-0.1-0.2,0-0.3-0.2-0.3c0.1,0.1,0,0.2-0.1,0.2L45.8,16l0.1,0
								c0-0.2-0.2,0-0.2-0.2l0.1-0.2c0.2,0,0.1,0.3,0.3,0.2c0-0.1-0.2-0.1-0.2-0.3c0,0,0.1,0.1,0.1,0.1c0-0.1,0.2-0.2,0-0.4
								c-0.1-0.1-0.1,0-0.2,0.1c-0.1-0.2-0.2-0.2-0.3-0.3c0.2-0.1-0.2-0.2,0.1-0.2c0,0.1,0.2,0.4,0.3,0.4c0.1-0.2,0.1,0.2,0.3,0.1
								c-0.1-0.2,0.1-0.3,0.2-0.4c0-0.1-0.1-0.1-0.1-0.1c-0.1,0-0.1,0.1-0.2,0.2c-0.1-0.2-0.3-0.4-0.5-0.4c0-0.1,0.1-0.1,0.2-0.1
								c-0.2-0.2-0.3-0.5-0.5-0.7c0,0.3-0.2-0.2-0.3,0c0.1,0.1,0,0.3-0.1,0.3c0-0.1,0.1-0.1,0.1-0.1c-0.2,0,0-0.2-0.2-0.2
								c0.2,0.1,0.2-0.1,0.4-0.2c-0.2-0.1,0.1-0.1,0-0.2c-0.2-0.1-0.4-0.2-0.6-0.3c-0.1-0.3-0.5-0.4-0.7-0.6c0-0.1,0.1-0.2,0-0.3
								c-0.1-0.1,0,0.2-0.2,0l0,0c-0.1,0-0.3-0.4-0.5-0.2l0.2-0.1c0,0-0.1,0-0.1,0c0-0.1,0-0.1,0.1-0.1c0-0.2-0.3-0.2-0.4-0.3l0,0.1
								c-0.3-0.1-0.4-0.3-0.6-0.4l0.1-0.1l-0.2,0c0.1-0.1,0-0.2-0.1-0.2l0.5,0c0.1,0.1-0.2,0-0.2,0.2c0,0.1,0.2,0.2,0.3,0.1
								c-0.1-0.1-0.1,0-0.2-0.1c0.1-0.1,0.2-0.1,0.3-0.1c0,0-0.1-0.1-0.1-0.1c0.1,0,0.2,0,0.3,0.1c-0.1,0,0,0.1-0.1,0.1
								c0.1-0.1,0.2,0,0.4,0.1c0,0.2,0.4,0.1,0.5,0.3c-0.2,0.1-0.3,0.1-0.5,0c0.1,0.1,0.1,0.1,0.2,0.2c0.1,0,0.3-0.1,0.5-0.1
								L44.2,12c0.2,0.1,0.3,0,0.4,0.1c0.3,0.3,0.6,0.5,0.7,0.8L45.2,13c0.3,0,0.4,0.4,0.6,0.4c0.2,0.4,0.6,0.6,0.5,0.9
								c0.4,0.5,0.8,1,1,1.7l-0.2-0.1c0.2,0.1,0,0.1,0,0.2c0.1-0.2,0.2,0.1,0.3,0.2c0,0.3,0.2,0.7,0.3,1l-0.2,0.1
								c0.2,0.3,0.1,0.6,0,1c0,0-0.2,0.1-0.1,0.2c0.2,0.2,0.1,0.3,0.2,0.6c0,0.2-0.2,0.5-0.3,0.7c0,0.8-0.5,1.5-0.8,2.2l-0.1,0
								c-0.2,0.8-1,1.4-1.4,1.9l-0.1-0.2c-0.2,0.1-0.3,0.4-0.2,0.4c-0.2,0.1-0.3,0.4-0.5,0.4c-0.2,0.1-0.1,0.2-0.3,0.4
								c-0.4,0.2-0.5,0.3-0.8,0.6l0.1,0c0-0.1,0-0.1-0.1-0.1c-0.1,0.1-0.5,0.3-0.2,0.4c-0.4,0.1-0.8,0.6-1.2,0.7c0.1,0,0,0.1,0,0.2
								c-0.3,0.2-0.7,0.3-0.9,0.5c-0.1,0,0-0.1-0.1-0.1c-0.1,0.1,0,0.1,0,0.2c-0.5,0.4-1.1,0.4-1.6,0.6c-0.8,0.5-1.8,0.8-2.7,1v0
								c-0.3,0.3-0.7,0-0.9,0.3c-0.1,0-0.3,0-0.2-0.1c-0.2,0.2-0.7,0-1,0.3c0,0,0,0,0.1,0c-0.4,0-0.7,0.1-1,0.1c0,0,0.1,0,0.1-0.1
								c-0.2-0.1-0.3,0.3-0.4,0c-0.1,0,0,0.1,0,0.1c-0.8,0-1.7,0.2-2.6,0.3c-0.6-0.1,0-0.4-0.5-0.2c-0.1,0,0,0.1-0.1,0
								c-0.3,0-0.4-0.3-0.6-0.2c0,0.1-0.2,0.1-0.2,0.1c-0.3-0.1-0.4-0.1-0.5-0.2c0,0-0.2,0-0.2-0.1c0-0.1,0-0.1,0-0.2l0.1,0
								c-0.1-0.2-0.1-0.5-0.2-0.7c0-0.1,0-0.3-0.1-0.4c0-0.1-0.1-0.2-0.1-0.3c0-1.9-0.2-3.6-0.2-5.4c0-0.7,0-1.4,0-2
								c0-0.9,0-1.8,0-2.6c0.4-0.2,0.7-0.4,1.1-0.6c0.2-0.1,0.4-0.2,0.6-0.3c0.5,0,0.5-0.1,0.9-0.4c0,0,0,0.1,0,0.1
								c-0.1-0.1,0.3-0.2,0.2-0.3c0.6-0.3,1.1-0.7,1.7-1c-0.1,0.1-0.1,0.2,0,0.1l0.1-0.2l0,0c0.1-0.1,0.1-0.2,0-0.2
								c1.4-1,3.1-1.6,4.5-2.4c0.4-0.1,0.8-0.5,1.2-0.7c1.2-0.5,2.3-0.9,3.4-1.7C41.3,10,41.4,10.4,40.9,10.8z"/>
							<path class="st1" d="M42.1,10.6c0,0.1,0.1,0.2-0.1,0.2C42.1,10.7,42.1,10.6,42.1,10.6z"/>
							<path class="st1" d="M44.7,13.7C44.7,13.7,44.7,13.8,44.7,13.7c0,0.1-0.1,0.1-0.1,0C44.6,13.7,44.7,13.7,44.7,13.7z"/>
							<path class="st1" d="M45.3,14.5c-0.1,0-0.2-0.1-0.3-0.2L45.3,14.5z"/>
							<path class="st1" d="M45.5,15.4C45.5,15.5,45.4,15.5,45.5,15.4C45.4,15.3,45.5,15.4,45.5,15.4z"/>
							<path class="st1" d="M45.7,15.3c0,0.1,0,0.1,0,0.2C45.7,15.5,45.5,15.4,45.7,15.3z"/>
							<path class="st1" d="M46.1,17.1c0,0,0.1,0.1,0,0.2C46.2,17.2,46,17.1,46.1,17.1z"/>
							<path class="st1" d="M46.3,17.9C46.3,17.9,46.3,17.9,46.3,17.9C46.2,18,46.2,18,46.3,17.9L46.3,17.9z"/>
							<polygon class="st1" points="34.4,27.9 34.5,27.9 34.5,28 							"/>
							<path class="st1" d="M29.2,27C29.2,26.9,29.3,26.9,29.2,27C29.3,27,29.2,26.8,29.2,27z"/>
							<polygon class="st1" points="28.9,22.8 28.9,22.8 28.7,22.8 							"/>
						</g>
					</g>
				</g>
			</g>
		</g>
	</g>
	<g>
		<g>
			<path class="st2" d="M28.1,17.5l0.1,10.7c-6.5-0.1-13.5-1.8-17.2-6.8L28.1,17.5z"/>
			<g>
				<g>
					<g>
						<g>
							<path class="st1" d="M28.4,17.6c0-0.2-0.1,0.1-0.1-0.1C28.4,17.5,28.4,17.6,28.4,17.6z"/>
							<path class="st1" d="M27.5,17.5c-0.5,0.5-1.3,0.3-1.8,0.7c-0.1,0,0-0.2-0.2-0.1c-0.5,0.4-1.5,0.5-2.2,0.4l0-0.1
								c-0.1,0-0.3,0.2-0.4,0.2c0,0,0-0.1,0-0.1c0,0.1-0.3,0.1-0.3,0.2c-0.1,0-0.1-0.1-0.2-0.2l0,0.1c-0.2,0.4-0.6,0.1-0.8,0.3
								c0,0,0-0.1,0-0.1c-0.5,0.3-1.1,0.4-1.6,0.6c0,0,0-0.1,0-0.2c0,0.1-0.2,0.2-0.3,0.3c-0.1-0.1-0.2,0.2-0.4,0.1l0,0
								c-0.1,0.2-0.2,0-0.3,0.2l-0.1-0.1c0,0.2-0.2-0.1-0.3,0.1l0,0c-0.1,0.1-0.2,0-0.3,0l0,0c-0.2,0.1-0.4,0-0.3,0.2
								c-0.1-0.1,0.2-0.1,0-0.3c-0.7,0.3-1.4,0.5-2.1,0.6c-0.1,0-0.1,0-0.2-0.1c-0.1,0-0.3,0.1-0.3,0.2c0,0-0.1-0.1-0.1-0.1
								c-0.1,0-0.1,0.2-0.3,0.2c0.1,0,0.1-0.1,0-0.2c-0.1,0.1-0.3,0.2-0.4,0.2c0,0,0.1,0,0-0.1c-0.1,0.2-0.3,0-0.4,0.2l0-0.1
								c-0.3-0.1,0,0.2-0.2,0.2c0,0,0-0.1,0-0.1c-0.1,0.2-0.4,0.2-0.6,0.3c0,0,0,0,0,0c-0.2,0.1-0.4,0.1-0.6,0.2
								c-0.1,0,0-0.2-0.2-0.1c0.1,0.2-0.3,0.1-0.1,0.3c-0.1,0-0.4,0-0.5,0.1c0-0.1-0.3-0.2-0.2-0.2l-0.2-0.1c-0.1-0.1,0.2,0,0-0.1
								c-0.1,0-0.2,0.1-0.4,0.1c0,0.1,0.2,0.3,0.1,0.3c-0.1,0-0.1-0.1-0.3-0.1c-0.1,0-0.1,0-0.2-0.1c0.3,0.1,0.6,0.3,0.8,0.4
								c0.1,0-0.2,0-0.1,0c0.1,0,0.1,0,0.2,0.1c0,0,0.2,0.2,0,0.2c-0.1,0-0.1-0.1-0.2,0c0.1,0.1,0.2,0.1,0.3,0.2l0,0
								c0,0.1,0.3,0.1,0.3,0c0,0-0.1,0-0.1,0c0.2,0,0.3,0.1,0.3,0.1c-0.1,0-0.1,0-0.1,0c0.2,0,0.3,0,0.5,0.2c0.1-0.1-0.2,0.1-0.1,0
								c0.1,0.3,0.5,0.2,0.6,0.5c0,0,0.1-0.1,0.1-0.1c0.1,0.1,0,0.2,0.1,0.2c0,0.1,0.1,0,0.2,0.1c0.1,0,0,0-0.1,0
								c0.1,0,0.6,0.2,0.7,0.5c0,0,0.2,0,0.3,0l-0.1,0.1c0,0.1,0.2,0.1,0.1,0.2c0.2,0-0.5-0.2-0.3-0.2c0,0.1,0.3,0,0.2,0.1
								c0.1,0.1,0.3,0,0.3,0.2c0,0-0.2,0.1-0.1,0.1c0.2,0.1,0.1,0,0.2,0l0.1,0c0.1-0.1,0.1,0.1,0.1,0c0,0.1,0.3,0.1,0.1,0.2
								l-0.1,0.1c0.1,0,0.2-0.1,0.3-0.1c0,0,0,0,0,0.1c0.1-0.2,0.1,0.1,0.3,0c0.1,0.1,0.4,0.2,0.4,0.4c0.1,0,0.3,0,0.4,0.1
								c0,0-0.1,0-0.1,0c0,0.1,0.1,0.1,0.2,0.1c0,0,0.1,0.2,0.2,0.3c0.1,0,0.1-0.1,0.2-0.2c0,0.3,0.4,0,0.4,0.3c0,0-0.2,0-0.1,0.1
								c0,0.3,0.3,0,0.4,0.1l0-0.2c0,0.1,0.3,0,0.2,0.2c0.1,0,0.2,0.1,0.2,0c0.2,0.2,0.7,0.2,0.8,0.5c0,0,0.1,0,0.1,0
								c0-0.1-0.1,0-0.1,0c0,0,0.1,0,0.1-0.1c0.1,0.1,0.1,0.1,0,0.2c0.2,0.2,0.3-0.2,0.5-0.1c0,0.1,0,0.1,0,0.1l0.2-0.1
								c0.1,0.1,0,0.2,0,0.3c0.1,0,0.2,0,0.3,0l0.1,0.2c0-0.1,0.1,0,0.1-0.1l0,0c0,0,0.1,0,0.2,0c0-0.1-0.1-0.1-0.1-0.2
								c0.1,0,0.1,0,0.2-0.1c0,0.1,0.1,0.1,0.2,0.1c0.1,0,0.1-0.1,0.1-0.1c0,0.1,0.1,0,0,0.1c0,0,0-0.1-0.1,0c0,0.1,0,0.2,0.1,0.1
								c0.1,0,0-0.2,0.2-0.1c0,0-0.1,0.1-0.1,0.1l0.1,0.1l0-0.1c0,0,0,0,0,0.1c0.1-0.1,0.2,0,0.3-0.1c0.1,0,0.1,0.1,0.2,0.1l0,0
								c0.1,0.1,0.2,0.1,0.3,0l0,0c0,0,0.2,0,0.2,0c0.1,0.1,0,0.4,0.1,0.3c0.1,0,0.2-0.2,0.2-0.2c0.2,0.1,0.5,0,0.7,0.2
								c0,0,0-0.1,0.1-0.1c0.3,0.1,0.7,0,1,0.2c-0.1,0,0,0.1,0,0.2c0.1-0.1,0.1,0.1,0.1,0c0-0.1,0-0.1-0.1-0.2c0.2,0,0.5,0,0.6,0.1
								c0,0,0-0.1,0-0.1c0,0.2,0.1,0.2,0.2,0.1l0-0.1l0.1,0.1c0,0,0.1-0.2,0.2-0.1c0,0,0,0.1,0,0.1c0.1-0.1,0.3-0.2,0.4-0.1l0.1,0.1
								c0,0,0.1-0.1,0.1-0.1c0.2,0.1,0.3,0.1,0.4,0.2c0.2-0.1,0.4-0.2,0.7-0.2c0.1,0,0.2,0,0.2,0s0.1,0,0.1,0l0,0.1
								c0.1,0.1,0-0.1,0-0.1c0,0.1,0.1,0.2,0.1,0.2c0.1,0.1,0-0.1,0-0.2c-0.1-0.1,0,0.1-0.1-0.1c0,0,0.1,0.1,0-0.1
								c0.1,0.1,0.2,0.2,0.2,0.2c0,0,0-0.1-0.1-0.1c0.1,0.1,0.2,0.2,0.2,0.3c0,0.1,0.1,0.2,0.2,0.3c0,0,0,0,0,0
								c0.1,0,0.1,0.1,0.1,0.2c0,0,0,0,0.1,0.1c-0.1-0.2-0.3-0.4-0.4-0.4c0-0.2-0.4-0.4-0.3-0.4c0.1,0,0,0.1,0.1,0.2
								c0.1,0-0.1-0.1,0-0.2c0,0-0.2-0.1-0.2-0.1c0.1,0,0.1,0.1,0.1,0c-0.1,0-0.1-0.1-0.2-0.1c-0.2-0.1,0,0-0.1-0.1
								c0.1,0,0.3,0.1,0.4,0c-0.1,0-0.2-0.2-0.4-0.1c0-0.1,0.1-0.1,0.2,0c0.1-0.1-0.2-0.3,0-0.3l-0.1,0c0,0,0.1-0.1,0.1-0.1
								c0-0.1-0.2-0.3,0-0.3c0,0,0-0.2-0.1-0.1c-0.1,0.1,0.1,0.1-0.1,0.2c0.1-0.1,0-0.2-0.1-0.3l0.1,0c0,0,0-0.1-0.1-0.2
								c0,0,0.1,0,0.1,0l-0.1,0c-0.1-0.2,0.2,0,0.2-0.2l0.1,0.1c0,0,0.1-0.1,0-0.2c-0.1,0-0.2-0.1-0.3-0.1c0-0.1,0.1,0,0-0.1
								l0.1,0.1c0,0,0.2-0.1,0.2-0.2c0-0.1-0.2-0.2-0.3-0.1c0-0.1,0.1-0.2,0.1-0.1c0-0.1-0.1,0-0.2-0.1c0.1,0,0.2-0.2,0.3-0.3
								l0.2,0.1v-0.1c0.1,0.1,0.1-0.1,0.3,0c0-0.1,0-0.1-0.1-0.2c-0.2,0.2-0.3-0.2-0.5-0.1c-0.1-0.2,0.5-0.2,0.2-0.4
								c-0.1,0-0.2-0.1-0.2,0.1c0-0.1-0.2-0.1-0.1-0.3c0.1,0.1,0.2-0.1,0.4,0c-0.1,0-0.1,0.1,0,0.1c0.1-0.1,0.2,0,0.2-0.1
								c0-0.1,0-0.2-0.1-0.2c-0.1,0,0,0.1-0.1,0.1c0-0.2,0.1-0.2-0.1-0.3c0,0.1-0.1,0.1-0.2,0.1l0-0.1l0.1,0
								c0.1-0.2-0.1-0.1-0.1-0.3l0.2-0.1c0.1,0-0.1,0.3,0.2,0.3c0-0.1-0.1-0.2,0-0.3c0,0,0,0.1,0,0.1c0,0,0.3-0.1,0.1-0.3
								c-0.1-0.1-0.1,0-0.2,0c0-0.2-0.1-0.3-0.1-0.4c0.2,0,0-0.3,0.2-0.1c-0.1,0.1-0.1,0.4,0.1,0.5c0.2-0.1,0,0.2,0.2,0.2
								c0-0.2,0.2-0.2,0.3-0.2c0,0,0-0.1-0.1-0.1c-0.1,0-0.1,0-0.3,0c0-0.2,0-0.4-0.2-0.5c0.1-0.1,0.2,0,0.2,0c0-0.2,0-0.5,0-0.7
								c-0.2,0.1,0-0.3-0.2-0.1c0,0.1-0.2,0.2-0.3,0.2c0-0.1,0.1,0,0.1,0c-0.1-0.1,0.2-0.1,0-0.3c0.1,0.2,0.2,0,0.4,0.1
								c-0.1-0.2,0.1,0,0.1-0.1c-0.1-0.2-0.2-0.4-0.2-0.5c0.1-0.2,0-0.5,0-0.8c0.1-0.1,0.3,0,0.3-0.1c0-0.1-0.2,0.1-0.1-0.1l0,0
								c0-0.1,0.1-0.4-0.1-0.4l0.2,0.1c0,0,0-0.1,0-0.1c0.1,0,0.1,0,0.2,0c0.1-0.1,0-0.3,0-0.4l-0.1,0.1c-0.1-0.2,0-0.4,0-0.6l0.1,0
								l-0.1-0.1c0.1,0,0.2-0.1,0.1-0.1l0.3,0.3c-0.1,0.1-0.1-0.1-0.2,0c-0.1,0-0.1,0.3,0,0.3c0-0.1,0-0.1,0-0.1
								c0.1,0,0.1,0.1,0.3,0.1c0,0,0-0.1,0-0.1c0.1,0.1,0.1,0.2,0.1,0.3c-0.1-0.1-0.1,0-0.1,0c0.1,0,0.2,0.1,0.1,0.3
								c-0.2,0.1,0.1,0.3,0.1,0.5c-0.1-0.1-0.3-0.2-0.3-0.3c-0.1,0.1,0,0.1-0.1,0.3c0.1,0.1,0.3,0.1,0.3,0.3l-0.1,0
								c0,0.1,0.2,0.1,0.2,0.3c0,0.3,0,0.6-0.1,0.8l-0.1,0c0.2,0.1,0.1,0.4,0.2,0.6c-0.1,0.3,0.1,0.6-0.1,0.8c0.1,0.5,0.2,1,0.1,1.5
								l-0.1-0.1c0.1,0.1-0.1,0.1-0.1,0.2c0.1-0.1,0.1,0.1,0.2,0.2c-0.1,0.2,0,0.5,0.1,0.8l-0.1,0c0.2,0.2,0,0.5,0,0.7
								c0,0-0.1,0.1-0.1,0.2c0.2,0.1,0.1,0.2,0.3,0.4c0,0.1,0,0.4-0.1,0.6c0.1,0.2,0.1,0.2,0.1,0.5c0,0.2,0,0.5,0,0.7
								c0,0.4,0.2,1.2-0.4,1l-0.1-0.1c-0.3,0.1-1,0.1-1.4,0.1c-0.3,0-0.6-0.1-0.9,0l0.1-0.2c-0.1-0.1-0.4,0-0.3,0.2
								c-0.1-0.1-0.4,0.1-0.5-0.1c-0.2,0-0.2,0.1-0.4,0.1c-0.3-0.1-0.4-0.1-0.8-0.1l0.1,0c0,0,0-0.1,0-0.1c-0.1,0-0.4-0.1-0.3,0.1
								c-0.3-0.2-0.8,0-1.1-0.2c0,0.1-0.1,0.1-0.1,0.1c-0.3,0-0.6-0.2-0.8-0.2c0,0,0.1-0.1,0-0.1c-0.1,0,0,0.1-0.1,0.1
								c-0.5,0-0.9-0.3-1.3-0.4c-0.8-0.1-1.5-0.4-2.2-0.6l0,0c-0.3,0.1-0.5-0.4-0.8-0.2c0-0.1-0.2-0.1-0.1-0.2
								c-0.2,0-0.5-0.3-0.8-0.3c0,0,0,0,0.1,0c-0.2-0.2-0.5-0.2-0.7-0.4c0,0,0.1,0,0.1,0c-0.1-0.1-0.3,0-0.3-0.2
								c-0.1,0-0.1,0.1-0.1,0.1c-0.6-0.4-1.2-0.6-1.9-1c-0.3-0.4,0.2-0.3-0.2-0.4c0-0.1-0.1,0.1-0.1,0c-0.2,0,0-0.4-0.2-0.3
								c-0.1,0.1-0.1,0-0.2,0.1c-0.2-0.3-0.1-0.4-0.4-0.5l0.1,0c-0.4,0-0.5-0.3-0.9-0.3c-0.2-0.2-0.8-0.8-1.2-1.2
								c-0.4-0.5-0.9-1-1.4-1.5l0,0c0,0,0,0,0.1,0l0.1,0l0.2-0.1l0.4-0.1c0.3-0.1,0.6-0.2,0.9-0.3l1.8-0.4c1.4-0.3,2.8-0.7,4.2-0.9
								c0.4,0.1,0.4,0.1,0.8-0.1c0,0,0,0,0,0.1c0-0.2,0.3-0.1,0.3-0.2c0.5-0.1,1-0.3,1.5-0.4c-0.1,0-0.1,0.2,0,0.1l0.1-0.1l0,0
								c0.1,0,0.1-0.1,0-0.2c1.3-0.5,2.7-0.4,4.1-0.8c0.3,0,0.8-0.2,1.1-0.3c1.1,0,2-0.1,3-0.5C28,16.8,27.9,17.3,27.5,17.5z"/>
							<path class="st1" d="M28.4,17.8c-0.1,0-0.1,0.2-0.2,0.1C28.3,17.9,28.3,17.8,28.4,17.8z"/>
							<path class="st1" d="M27.6,21.1C27.6,21.1,27.5,21.1,27.6,21.1C27.5,21.1,27.5,21.1,27.6,21.1C27.5,21.1,27.5,21.1,27.6,21.1
								z"/>
							<path class="st1" d="M27.5,21.9c-0.1,0-0.1-0.2-0.1-0.3L27.5,21.9z"/>
							<path class="st1" d="M27.2,22.7C27.2,22.8,27.1,22.7,27.2,22.7C27.2,22.6,27.2,22.7,27.2,22.7z"/>
							<path class="st1" d="M27.4,22.7c0,0.1,0,0.1-0.1,0.1C27.4,22.9,27.3,22.7,27.4,22.7z"/>
							<path class="st1" d="M27.2,24.4c0,0,0.1,0.1,0,0.2C27.2,24.6,27.1,24.4,27.2,24.4z"/>
							<path class="st1" d="M27.3,25.2C27.3,25.2,27.3,25.2,27.3,25.2C27.3,25.3,27.2,25.3,27.3,25.2L27.3,25.2z"/>
							<polygon class="st1" points="17.4,25.6 17.5,25.6 17.5,25.7 							"/>
							<path class="st1" d="M12.5,22.4C12.5,22.4,12.6,22.3,12.5,22.4C12.6,22.3,12.5,22.4,12.5,22.4z"/>
							<polygon class="st1" points="12.7,21.2 12.7,21.2 12.6,21.1 							"/>
						</g>
					</g>
				</g>
			</g>
		</g>
	</g>
	<g>
		<g>
			<path class="st9" d="M28.2,28.2l0,3.2c-6.5-0.1-13.5-1.8-17.2-6.8l0-3.2C14.7,26.4,21.7,28.1,28.2,28.2z"/>
			<g>
				<g>
					<g>
						<g>
							<path class="st1" d="M28.4,28.3c0-0.2-0.1,0.1-0.1-0.1C28.5,28.2,28.5,28.3,28.4,28.3z"/>
							<path class="st1" d="M27.6,28c-0.5,0.4-1.2,0-1.8,0.1c-0.1,0,0-0.2-0.1-0.2c-0.6,0.3-1.5,0-2.1-0.3l0,0
								c-0.1-0.1-0.3,0.1-0.4,0.1c0,0,0,0,0-0.1c0,0.1-0.3,0-0.3,0.1c0-0.1,0-0.1-0.1-0.2l-0.1,0.1c-0.3,0.3-0.5-0.1-0.8,0
								c0,0,0,0,0-0.1c-0.5,0.1-1.1-0.1-1.6-0.1c0,0,0.1-0.1,0.1-0.2c-0.1,0.1-0.2,0.1-0.4,0.1c0-0.2-0.3,0.1-0.4-0.1l0,0
								c-0.2,0.1-0.1-0.1-0.3,0l0-0.1c-0.1,0.2-0.1-0.2-0.3-0.1l0,0c-0.1,0-0.1-0.1-0.2-0.1v0c-0.2,0-0.3-0.2-0.4,0
								c0-0.1,0.2,0,0.2-0.2c-0.7-0.1-1.4-0.4-2-0.7c0-0.1-0.1-0.1-0.1-0.2c-0.1,0-0.3-0.1-0.3,0c0,0,0-0.1,0-0.1
								c-0.1-0.1-0.2,0.1-0.3,0c0.1,0,0.1,0,0.1-0.1c-0.2,0.1-0.3,0-0.4-0.1c0,0,0.1,0,0.1-0.1c-0.2,0-0.2-0.1-0.4-0.1l0.1,0
								c-0.1-0.2-0.1,0.1-0.3,0c0.1,0,0.1,0,0.1-0.1c-0.2,0-0.4-0.1-0.6-0.2c0,0,0,0,0,0c-0.2-0.1-0.3-0.2-0.5-0.3
								c0-0.1,0.1-0.2,0-0.3c-0.1,0.2-0.3-0.1-0.4,0.1c-0.1-0.1-0.3-0.3-0.4-0.4c0.1,0,0.1-0.2,0.2-0.1l0-0.2c0.1,0,0.1,0.1,0.1,0
								c-0.1,0-0.3-0.1-0.3-0.2c-0.2,0-0.4,0.1-0.6,0c0.1,0,0.1-0.2,0.2-0.2c-0.1,0-0.3,0.1-0.4,0.1c0,0,0.1-0.1,0-0.2
								c0,0-0.1,0.1-0.1,0.1c0,0-0.1-0.1-0.1-0.3c0-0.1,0.1,0,0-0.1c-0.1-0.1-0.1,0-0.2-0.1v0c-0.1-0.1-0.1,0-0.1,0.2c0,0,0-0.2,0,0
								c0,0.1-0.1,0.1-0.1,0c0,0,0-0.1,0-0.2c0,0.1-0.1,0.2-0.1,0.2c0.1,0.2-0.1-0.3,0-0.2c-0.1-0.3-0.1-0.1-0.2-0.1
								c0,0-0.1-0.1-0.1-0.2c0-0.1,0.1,0.3,0.1,0.2c0,0-0.1-0.3-0.1-0.1c-0.1-0.2,0,0.1,0,0.2c0.1,0.1,0-0.1,0-0.1
								c0.1,0.2,0.2,0.6,0.1,0.6c0.1,0.1,0.2,0.3,0.2,0.3l-0.1-0.1c-0.1,0,0,0.1-0.1,0c0.1,0.2-0.1-0.4,0-0.2
								c-0.1-0.1,0.2,0.4,0,0.1c0,0.1,0.1,0.3,0,0.2c0,0-0.2-0.2-0.1-0.1c0,0.1,0.1,0.1,0.1,0.2l0.1,0.1c0.1,0.1,0,0.1,0.1,0.1
								c-0.1,0,0.1,0.1-0.1,0.1L11.3,24c0,0.1,0.1,0.1,0.2,0.2c0,0,0,0-0.1,0c0.2,0,0,0.1,0.1,0.1c0,0,0,0.1-0.1,0.1
								c0,0,0,0.1,0,0.1c0.1,0,0.1,0,0.1,0c0.1,0,0.1,0.1,0.1,0.1c0,0-0.1,0-0.1,0c0,0.1,0.1,0.1,0.1,0.1c0,0,0,0.2,0,0.3
								c0.1,0,0.2-0.1,0.3-0.1c-0.1,0.2,0.3,0.1,0.3,0.4c-0.1,0-0.2,0-0.2,0.1c-0.1,0.2,0.3,0,0.3,0.2l0.1-0.2
								c0,0.1,0.3,0.1,0.1,0.2c0.1,0,0.1,0.2,0.2,0c0.1,0.3,0.6,0.4,0.5,0.7c0.1,0,0.1,0.1,0.1,0c0-0.1-0.1,0-0.1-0.1
								c0,0,0.1,0,0.1,0c0,0.1,0.1,0.1-0.1,0.2c0.1,0.2,0.3-0.1,0.5,0.1c-0.1,0-0.1,0.1,0,0.1l0.2,0c0.1,0.1,0,0.2-0.1,0.3
								c0.1,0,0.2,0.1,0.3,0l0,0.2c0-0.1,0.1,0,0.1,0h-0.1c0,0,0.1,0.1,0.1,0.1c0-0.1,0-0.2-0.1-0.2c0.1,0,0.1,0,0.2,0
								c-0.1,0.1,0.1,0.1,0.1,0.2c0.1,0.1,0.1,0,0.1,0c0,0,0.1,0.1,0,0.1c0,0,0-0.1-0.1-0.1c0,0.1-0.1,0.2,0.1,0.1
								c0.1,0,0.1-0.2,0.2-0.1c-0.1,0-0.1,0-0.1,0.1l0.1,0.1l0.1-0.1c0,0,0,0,0,0c0.1-0.1,0.2,0.1,0.3,0c0.1,0,0.1,0.1,0.1,0.2h0
								c0,0.1,0.2,0.1,0.3,0.1l0,0c0,0,0.1,0.1,0.2,0c0.1,0.1-0.2,0.4,0,0.3c0.1,0,0.3-0.1,0.3-0.2c0.1,0.2,0.4,0.1,0.5,0.3
								c0,0,0-0.1,0.1-0.1c0.3,0.2,0.6,0.1,0.8,0.4c-0.1,0,0,0.1-0.1,0.2c0.1-0.1,0,0.1,0.1,0c0-0.1,0.1-0.1,0-0.2
								c0.2,0,0.5,0.1,0.5,0.2c0-0.1,0-0.1,0.1-0.1c-0.1,0.1,0,0.2,0.2,0.2l0-0.1l0,0.1c0,0,0.1-0.2,0.2,0c0,0,0,0.1,0,0.1
								c0.1,0,0.3-0.1,0.4,0l0,0.2c0,0,0.2-0.1,0.1-0.1c0.2,0.1,0.3,0.2,0.3,0.3c0.4-0.2,0.9-0.1,1.3,0l0,0.1c0.1,0.1,0.1-0.1,0.1,0
								c0,0.1,0,0.2-0.1,0.2c0.1,0.1,0.2-0.1,0.3-0.1c0-0.1-0.1,0,0-0.1c0,0,0.2,0.1,0.3,0c0,0.1,0,0.2-0.1,0.2l0.1,0
								c0.1,0.2-0.3,0.2-0.3,0.5h0.1c0,0.2-0.3,0.1-0.1,0.2c0.1,0,0.2-0.2,0.2-0.3c0.2,0,0.2-0.3,0.4-0.3c0,0.1-0.2,0-0.1,0.1
								c0.1,0.1,0.2,0,0.3,0c-0.1-0.1,0-0.2,0.1-0.2c0.1,0.1-0.1,0.1,0,0.2c0-0.1,0.2-0.1,0.1-0.2c0.1-0.2,0.1,0.1,0.3,0
								c0,0.1-0.2,0.3-0.1,0.4c0-0.1,0.2-0.1,0.2-0.3c0.1,0,0,0.1,0,0.2c0.1,0.1,0.3-0.2,0.3,0.1l0-0.1c0,0,0.1,0.1,0.1,0.2
								c0.1,0,0.3-0.1,0.3,0.1c0,0,0.2,0,0.2-0.1c-0.1-0.1-0.1,0.1-0.2-0.1c0.1,0.2,0.2,0,0.2,0v0.1c0,0,0.1,0,0.2-0.1
								c0,0,0,0.1,0,0.1l0.1-0.1c0.2,0,0,0.2,0.2,0.2l-0.1,0.1c0,0,0.1,0.1,0.1,0.1c0-0.1,0.1-0.2,0.1-0.3c0.1,0,0,0.1,0.1,0
								l-0.1,0.1c0,0,0,0.2,0.2,0.2c0.1,0,0.2-0.2,0.1-0.2c0.1,0,0.1,0.1,0.1,0.1c0.1,0,0-0.1,0.1-0.2c0,0.1,0.2,0.2,0.3,0.3
								l-0.1,0.2l0.1,0c-0.1,0.1,0,0.1,0,0.3c0,0,0.1,0,0.2,0c-0.1-0.3,0.2-0.3,0.2-0.5c0.2,0,0.1,0.5,0.4,0.2c0-0.1,0.1-0.2,0-0.2
								c0.1,0,0.1-0.2,0.3-0.1c-0.1,0.1,0.1,0.2-0.1,0.4c0-0.1-0.1-0.1-0.1,0c0,0.1,0,0.2,0.1,0.2c0.1,0,0.2,0,0.2-0.1
								c0-0.1-0.1,0-0.1-0.1c0.2,0,0.2,0.2,0.3,0c-0.1,0-0.1-0.1-0.1-0.2l0.1,0l0,0.1c0.2,0.1,0.1-0.1,0.3-0.1l0.1,0.2
								c-0.1,0.1-0.3-0.1-0.3,0.1c0.1,0,0.2-0.1,0.3,0c0,0-0.1,0-0.1,0c0,0,0.1,0.3,0.3,0.1c0.1-0.1,0-0.1,0-0.2
								c0.2,0,0.3-0.1,0.4-0.1c0,0.1,0,0.1,0.1,0.1c0,0,0,0,0,0.1c-0.1-0.1-0.4-0.1-0.4,0c0.1,0.2-0.2,0-0.2,0.2
								c0.2,0,0.1,0.2,0.2,0.3c0,0,0.1,0,0.1-0.1c0-0.1,0-0.1,0-0.3c0.2,0,0.4,0,0.4-0.1c0,0.1,0,0.2,0,0.2c0.1,0,0.3,0,0.5,0
								c-0.2-0.2,0.1,0,0-0.2c-0.1,0-0.2-0.2-0.2-0.3c0,0,0,0.1,0.1,0.1c0-0.1,0.2,0.2,0.1,0c0,0.1,0.2,0.3,0.3,0.4
								c0-0.1,0.1,0.1,0.2,0.1c0.1,0,0-0.3,0-0.4c0.1,0,0-0.3,0-0.4c0.1-0.1,0.3,0,0.3-0.1c0-0.1-0.2,0.1-0.1-0.1l0,0
								c0,0,0.1-0.3-0.1-0.4l0.2,0.1c0,0,0-0.1,0-0.1c0.1,0,0.1,0,0.2,0c0.1-0.1,0-0.2,0-0.4l-0.1,0.1c-0.1-0.2,0-0.4,0-0.5l0.1,0
								l-0.1-0.1c0.1,0,0.2-0.1,0.1-0.1l0.3,0.3c-0.1,0.1-0.1-0.1-0.2,0c-0.1,0-0.1,0.2,0,0.3c0-0.1,0-0.1,0-0.1
								c0.1,0,0.1,0.1,0.3,0.1c0,0,0-0.1,0-0.1c0.1,0.1,0.1,0.1,0.1,0.3c-0.1-0.1-0.1,0-0.1,0c0.1,0,0.2,0.1,0.1,0.3
								c-0.2,0.1,0.1,0.3,0.1,0.5c-0.1-0.1-0.3-0.2-0.3-0.3c-0.1,0.1,0,0.1-0.1,0.2c0.1,0.1,0.3,0.1,0.3,0.3h-0.1
								c0,0.2,0.2,0.2,0.2,0.4c0,0.2,0,0.4,0,0.5c0,0.1,0,0.4-0.1,0.4l-0.1-0.1c0,0.2-0.4,0.1-0.6,0.2c-0.2,0-0.4,0-0.6,0
								s-0.3,0-0.4-0.1c-0.5,0-0.9,0.1-1.4,0l0.1-0.1c-0.1,0.1,0-0.1-0.1-0.1c0.1,0.1-0.1,0.1-0.2,0.2c-0.2-0.1-0.5,0-0.7,0v-0.1
								c-0.2,0.2-0.5,0-0.7-0.1c0,0-0.1-0.1-0.1-0.1c-0.2,0.1-0.2,0.1-0.5,0.2c-0.1,0-0.4-0.1-0.5-0.2c-0.6,0.1-1.1-0.1-1.7-0.1
								l0-0.1c-0.6,0.1-1.2-0.3-1.7-0.3l0.1-0.2c-0.1-0.1-0.3,0-0.4,0.1c-0.1-0.1-0.4,0-0.4-0.2c-0.1-0.1-0.2,0-0.3,0
								c-0.3-0.2-0.4-0.2-0.7-0.3l0.1,0c0,0,0.1-0.1,0-0.1c-0.1,0-0.4-0.2-0.4,0.1c-0.2-0.3-0.7-0.2-0.9-0.5c0,0.1-0.1,0-0.1,0.1
								c-0.3-0.1-0.4-0.4-0.7-0.4c0,0,0.1-0.1,0-0.1c-0.1,0,0,0.1-0.1,0.1c-0.5-0.1-0.7-0.6-1.1-0.8c-0.7-0.3-1.3-0.8-1.8-1.3l0,0
								c-0.3,0-0.3-0.5-0.6-0.4c0-0.1-0.1-0.2,0-0.2c-0.2,0-0.3-0.5-0.6-0.5c0,0,0,0,0.1,0c-0.1-0.3-0.4-0.4-0.5-0.7
								c0,0,0.1,0,0.1,0c0-0.1-0.3-0.1-0.2-0.3c-0.1-0.1-0.1,0-0.1,0.1c-0.4-0.4-0.3-0.9-0.3-1.4c0-0.6-0.1-1.1-0.1-1.7
								c0.1-0.6,0.4,0.4,0.2-0.4c0.1,0-0.1-0.2,0-0.1c-0.1-0.3,0.3,0.1,0.1-0.3c-0.1-0.2-0.1-0.2-0.2-0.4c0.1-0.3,0.2-0.1,0.1-0.6
								l0.1,0.2c-0.1-0.5-0.1-0.8-0.1-1c0.1,0.1,0.2,0.1,0.2,0c0.4,0.5,0.8,1,1.3,1.5c0.5,0.5,0.9,1.1,1.4,1.5l0.4,0.3
								c0.1,0.1,0.3,0.2,0.4,0.3l0.8,0.5c1,0.7,2.2,1.2,3.4,1.8c0.2,0.3,0.2,0.3,0.6,0.3c0,0,0,0,0,0.1c0.1-0.1,0.2,0.1,0.3-0.1
								c0.5,0.2,0.9,0.3,1.4,0.4c-0.1,0-0.2,0.1-0.1,0.1l0.1-0.1v0c0.1,0,0.2-0.1,0.1-0.1c1.3,0.2,2.4,0.7,3.7,0.8
								c0.3,0.1,0.7,0.1,1,0.1c0.9,0.3,1.8,0.5,2.8,0.4C28.2,27.5,28,27.9,27.6,28z"/>
							<path class="st1" d="M28.5,28.5c-0.1,0-0.1,0.1-0.2,0.1C28.3,28.6,28.4,28.5,28.5,28.5z"/>
							<path class="st1" d="M27.5,30.8C27.5,30.8,27.5,30.8,27.5,30.8C27.5,30.7,27.4,30.7,27.5,30.8C27.5,30.7,27.5,30.8,27.5,30.8
								z"/>
							<path class="st1" d="M27.1,30.7c0-0.1,0-0.1,0.1-0.1C27.1,30.6,27.1,30.7,27.1,30.7z"/>
							<path class="st1" d="M26.5,30.4C26.5,30.3,26.5,30.3,26.5,30.4C26.6,30.3,26.5,30.4,26.5,30.4z"/>
							<path class="st1" d="M26.5,30.6c-0.1,0-0.1,0-0.1-0.1C26.3,30.5,26.5,30.4,26.5,30.6z"/>
							<path class="st1" d="M24.9,30.2c0,0-0.1,0-0.1,0C24.8,30.3,25,30.1,24.9,30.2z"/>
							<path class="st1" d="M24.2,30.3C24.2,30.2,24.2,30.2,24.2,30.3c-0.1-0.1,0-0.1,0-0.1L24.2,30.3z"/>
							<polygon class="st1" points="12.4,25.5 12.5,25.5 12.5,25.6 							"/>
							<path class="st1" d="M11.8,23.2c0,0,0,0.1,0.1,0.2C11.9,23.4,11.9,23.2,11.8,23.2z"/>
							<polygon class="st1" points="13.9,24.5 13.8,24.5 13.9,24.3 							"/>
						</g>
					</g>
				</g>
			</g>
		</g>
	</g>
</g>
</svg>
