<?xml version="1.0" encoding="utf-8"?>
<!-- Generator: Adobe Illustrator 24.0.1, SVG Export Plug-In . SVG Version: 6.00 Build 0)  -->
<svg version="1.1" id="Layer_1" xmlns="http://www.w3.org/2000/svg" xmlns:xlink="http://www.w3.org/1999/xlink" x="0px" y="0px"
	 viewBox="0 0 435.1 274.5" style="enable-background:new 0 0 435.1 274.5;" xml:space="preserve">
<style type="text/css">
	.st0{fill:#EDE6D4;}
	.st1{fill:#202020;}
	.st2{fill:none;stroke:#020203;stroke-width:0.5;stroke-miterlimit:10;}
	.st3{fill:#BCB7A8;stroke:#020203;stroke-width:0.5;stroke-miterlimit:10;}
	.st4{fill:#BCB7A8;}
	.st5{fill:none;}
	.st6{fill:#DDD6C3;stroke:#020203;stroke-width:0.5;stroke-miterlimit:10;}
	.st7{enable-background:new    ;}
	.st8{fill:#020203;}
</style>
<g>
	<path class="st0" d="M422.1,96.3c-1.1,19.4-29,28.9-47.8,29.3c-0.9,34.6-53.3,44.1-83.8,39.2c-5.4,6.3-14.2,9.3-22.8,10.5
		c-9,31.2-55.2,37.9-85.5,32.9c-2.7,4-8.2,5.7-13.2,6.1c-25.3,44.3-127.9,44.7-148.6-3.5c-8.8-27.4,29.8-47.6,55-50.4
		c-15.9-5.6-29.6-21.6-24.8-34.6c-36-8.1-42.2-40.3-4.6-52.4C-7.6,35.4,93.3,2.7,126.8,37c16.9-17.3,52.1-17.6,71-3.5
		c20.4-21.7,68-21.8,87.2,1.2C307.9,1.8,414,6.1,400.4,58c8.3,1.9,11.5,11,2.5,14.8C413.7,77.2,422.9,87.5,422.1,96.3z"/>
	<g>
		<g>
			<g>
				<g>
					<path class="st1" d="M421.9,99.2c0.6-4.4-0.4,2.4,0.3-2.9C422.2,96.9,422.3,97.8,421.9,99.2z"/>
					<path class="st1" d="M417,82.8c-2.4-2.7-5.3-5.2-8.7-7.3c-1.7-1.1-3.5-2-5.4-2.8c1.8-0.8,3.7-2,4.7-3.9c0.5-0.9,0.7-2,0.7-3.1
						c-0.1-1.1-0.3-2.1-0.9-3c-1-1.9-2.8-3.2-4.7-4.1c-0.5-0.2-1-0.4-1.5-0.5l-0.7-0.2h-0.1v-0.1v-0.2l0.1-0.4c0.2-1,0.5-2,0.6-3
						c0.3-2,0.4-4,0.3-6c-0.1-0.9,0-0.8,0-1c0-0.1,0-0.2,0-0.6c0-0.4-0.1-1-0.2-2c-0.4-1.9-0.9-3.8-1.7-5.8c-0.8-2-2-3.9-3.3-5.8
						c-2.8-3.7-6.6-7-11-9.5c-8.7-5.2-19.2-7.9-28.2-9.2l1.1,0.1c-3.5-0.5-7.8-0.7-11.5-0.9c0,0,1.2,0,0.3-0.1c-0.5,0-2.2,0-3.9,0
						c-1.8,0-3.6,0-4.4,0.1c-1.5,0-1.3-0.1-3.2,0c-0.7,0.1-1.4,0.2-2.1,0.3c-5.8,0.8-14.3,1.6-22,4.1c0.4-0.1,1.1-0.4,0.5-0.2
						c-6.2,1.9-13,4.7-19,9.1c-1.5,1.1-2.9,2.3-4.3,3.6c-0.7,0.7-1.3,1.3-1.9,2.1c-0.3,0.3-0.6,0.7-0.9,1.1l-0.5,0.6l-0.2,0.3
						l-0.1,0.2l0,0l0,0l-0.1-0.1c-0.7-0.7-1.3-1.4-2-2.1c-0.7-0.6-1.3-1.3-2-1.9c-0.7-0.6-1.4-1.2-2.1-1.8c-0.7-0.5-1.5-1.1-2.2-1.6
						c0.5,0.3,1,0.5,0.3,0c-0.3-0.2-1.5-0.8-2.9-1.7c-0.7-0.4-1.6-0.8-2.4-1.3c-0.9-0.4-1.8-0.8-2.7-1.3c-0.4-0.2-1-0.5-1.7-0.8
						c-0.4-0.1-0.8-0.3-1.2-0.5c-0.4-0.1-0.9-0.3-1.4-0.5s-1-0.3-1.5-0.5s-1-0.3-1.6-0.5c-1.1-0.3-2.2-0.6-3.3-0.9l0.4,0.1
						c-3.3-0.7-4.8-1.1-7.6-1.4l-2.1-0.4c-1.5,0-4.8-0.5-7.6-0.4h0.1c-2.6,0.1-4,0-6.4,0.2h-0.2c-5.7,0.6-8.9,1.3-8.7,1.3
						c-2,0.2,5.4-1,2.3-0.7c-9.2,1.7-18.3,5-25.9,10.9c-1,0.7-1.8,1.5-2.7,2.3l-1.3,1.3l-0.7,0.7c-0.1,0-0.1,0.1-0.2,0.2l-0.2-0.1
						l-0.4-0.3c-2-1.4-4-2.6-6.1-3.7c-2.1-1.1-4.3-2-6.5-2.7c-2.2-0.8-4.5-1.4-6.8-1.9c-2.1-0.5-3.4-0.7-3.9-0.9
						c-0.9-0.1-2.7-0.3-4.4-0.5c-1.8-0.1-3.5-0.2-4.3-0.1c0.6,0-1.2-0.1-2.2-0.1c-3.4,0-3.7,0.3-7.5,0.6c1.5-0.3,2-0.3,1.5-0.3
						c-3.2,0.4-7.4,1.2-11,2.3c0.5-0.2,1.4-0.5,1.3-0.5c-4,1.3-7.2,2.4-10.4,4.1l1.2-0.7c-2.6,1.3-3,1.6-3.2,1.8
						c-0.3,0.2-0.5,0.4-2.6,1.7c1-0.7,0.6-0.5,0.8-0.6c-0.5,0.3-1,0.7-1.5,1.1c-0.5,0.4-1.1,0.8-1.6,1.3s-1.1,0.9-1.7,1.5
						c-0.3,0.3-0.6,0.6-0.9,0.8l-0.2,0.2l-0.1,0.1c0,0-0.1,0.1-0.1,0l-0.5-0.4c-2.3-2.2-4.7-4-6.7-5.3c0.3,0.1,0.2,0.1,0.2,0.1
						c-4.3-2.7-9.3-4.9-14.8-6.3c-1-0.3-0.8-0.3-1-0.4c-0.2-0.1-0.9-0.3-3.5-0.8c0.1,0.1-2.2-0.3-4.1-0.5c-1.9-0.3-3.5-0.3-1.9-0.1
						c-2.3-0.3-5.3-0.5-8.1-0.5c-2.8-0.1-5.4,0-6.9,0.2c2.1-0.2-2.3-0.1,1.6-0.3c-1,0-1.9,0-2.9,0.1c0.4-0.1,3-0.2,2.1-0.2
						c-1,0.1-2.9,0.2-4.7,0.4S71.8,22.9,71,23c-3.5,0.7-6.7,1.5-12.3,3.1c2.6-0.8-1.5,0.2,0.2-0.3c-2.5,0.9-5,1.9-7.5,3.1
						c-1.7,0.8-0.5,0-3,1.2c0.2,0-0.9,0.5-1.7,1c-0.3,0.2-2.1,1.1-3.8,2.2c-0.8,0.5-1.7,1.1-2.3,1.6c-0.7,0.5-1.2,0.8-1.3,0.9
						c-0.7,0.5,2.5-2,0.7-0.7c-0.7,0.5-1.2,1-1.7,1.4c-0.4,0.4-0.8,0.7-1.1,1c-0.7,0.7-1.3,1.3-2.4,2.7l0,0
						c-0.8,0.9-1.7,2.4-2.2,3.3c-0.5,1-0.6,1.5,0,0.4c0.8-1.4-0.4,0.5,0.8-1.6c-0.4,0.7-1.1,2-1.6,3.5c-0.5,1.6-0.9,3.4-0.9,5.2
						c0-1.2,0-1-0.1-1.5c-0.2,2.3,0.3,4.8,1.2,7.1c0.9,2.3,2.3,4.5,3.9,6.5c0.1,0-0.3-0.4-0.7-0.8s-0.8-1-1-1.3
						c1.8,2.9,4.3,5.4,6.8,7.6c0.6,0.6,1.3,1.1,1.9,1.6c0.3,0.3,0.6,0.5,1,0.8s0.8,0.6,1.1,0.8c0.7,0.6,2.6,1.5,0.7,1.7
						c-0.5,0.2-1,0.3-1.5,0.5c-0.4,0.1-0.7,0.2-1.1,0.3c0.9-0.3,0.5-0.1,0.5-0.1c-1.6,0.5-2.3,0.9-2.9,1.1c-0.6,0.2-1.1,0.4-2,0.9
						c-0.2,0-2.4,1.2-4.3,2.3c-1,0.6-0.5,0.3,1.1-0.7c-1.3,0.7-4.6,2.7-7.7,5.7c-1.5,1.5-3,3.2-4.1,5.1c-1.1,1.8-2,3.7-2.3,5.4
						c0,0,0,0.2-0.1,0.6s-0.1,1-0.2,1.6c-0.1,1.3-0.1,2.8,0,3.5l-0.2-0.6c0,0.4,0,0.9,0.1,1.4c0.1,0.6,0.2,1.2,0.3,1.8
						c0.3,1.1,0.6,2.1,0.6,2.3c0.8,1.6-0.8-1.4-1-4.6c-0.4-3.1,0.4-6.1,0-3.8c-0.1,0.3-0.1,0.8-0.1,1.5c0,0.3,0,0.7,0,1
						s0.1,0.7,0.1,1c0,0.7,0.2,1.3,0.3,1.6s0.1,0.5,0,0.3c0.6,3.2,2.1,6,3.8,8.5c-0.5-0.7-1.6-2.1-0.1,0.1c1.4,1.8,1.7,2,1.8,2.2
						c0.1,0.1,0.1,0.1,0.3,0.3c0.2,0.2,0.5,0.6,1.2,1.2c0.6,0.5,1.2,1.1,1.8,1.5c0.1,0,0.9,0.7,1.5,1.1c0.7,0.4,1.1,0.8,0.5,0.2
						c0.2,0.2,1.6,1.2,2.9,1.9c1.3,0.8,2.6,1.4,2.3,1.4l-0.6-0.2c1.8,0.9,3,1.3,4.5,1.9c0.2,0.1,0.7,0.3,0.6,0.3
						c0.2-0.1,1.3,0.4,2.7,0.9c1.4,0.4,3,1,4.2,1.2c0.7,0.2,1.4,0.4,2.1,0.6l0.3,0.1h0.1v0.1v0.2l-0.2,0.6l-0.2,0.6l-0.1,0.3v0.2
						c-0.3,1.1-0.5,2.4-0.5,3.5c-0.1,2.3,0.4,4.4,0.6,5.3c0.9,3.1,2.3,5.6,4.4,8.6c-0.5-0.6-1-1.4-1.2-1.6c1.2,1.9,1.6,2.4,3,3.9
						c-0.2-0.2,0.5,0.7,1.6,1.9c1,1.1,2.4,2.4,3.4,3.3c2.6,1.9,1.8,1.1,2.1,1.3c1.1,1,3,2.2,5.1,3.3c0.5,0.3,1,0.5,1.6,0.8
						c0.3,0.1,0.5,0.3,0.8,0.4c0.3,0.2,0.7,0.3,1,0.5c1.6,0.7,3.2,1.3,4.5,1.8c-0.9-0.3-2.7-0.9-3.7-1.3c-1-0.4-1.3-0.4,0.4,0.3
						c0.8,0.4,1.7,0.7,2.6,1.1c0.1,0-0.1,0-0.2,0.1h-0.3c-0.2,0-0.4,0.1-0.5,0.1c-0.4,0.1-0.7,0.1-1.1,0.2c-0.8,0.1-1.7,0.3-2.6,0.4
						c-0.4,0.1-0.8,0.1-1.1,0.2c-0.4,0.1-0.7,0.2-1.1,0.2c-0.8,0.2-1.6,0.3-2.5,0.5c0.4,0,0.8-0.1,1.2-0.1c-2.1,0.3-6.7,1.8-6.3,1.6
						c-1.5,0.5-5.3,1.7-4.8,1.7c-3.7,1.2-8,3.1-11.9,5.2c-3.9,2-7.2,4.2-9.2,5.5c-0.9,0.6-3.1,2.4-2.6,2.1c1.5-1.1,2-1.7,2.6-2
						c-0.8,0.6-1,0.8-1,0.9c-1.9,1.4-3.4,2.7-1.7,1.1c-2.1,1.7-3,2.7-4.1,3.9c-1,1.2-2.2,2.5-4.2,5.2c0.1-0.3-0.3,0.1-1.3,1.8
						l-0.5,0.8l-0.4,0.9c-0.3,0.6-0.6,1.1-0.8,1.7c-0.9,2-1.1,2.6-1.2,2.6c-0.1,0.1,0-0.4-0.1-0.4c-0.2,0.6-0.4,1.1-0.5,1.7
						c-0.1,0.6-0.3,1.2-0.4,1.8c-0.2,1.1-0.3,2.1-0.3,2.6c-0.1,0.9-0.2,1.9-0.2,2.9c0-2.1,0.1,1.9,0.4,3l0-0.5c0,0.2,0.1,1,0.3,1.9
						c0.1,0.4,0.2,0.9,0.3,1.4c0.1,0.4,0.2,0.9,0.3,1.2c0-0.2-0.2-0.9-0.4-1.8c-0.2-0.9-0.3-2-0.4-2.7c0.1,0.6,0.3,1.3,0.4,2.1
						c0.1,0.8,0.4,1.6,0.7,2.4c-0.1-0.1,0,0.1,0,0.4c0,0.1,0,0.1,0.1,0.2c0,0.1,0.1,0.2,0.2,0.3c0.1,0.2,0.2,0.5,0.4,0.8
						c0.5,1.2,1.3,2.5,1.7,3.3c1.1,1.9,1.3,2,1.7,2.5c0,0,0.5,0.8,0.8,1.3c0.4,0.5,0.7,0.9,0.1,0.3c-0.5-0.6-0.9-1.4-1.6-2.4
						c0.4,0.6,0.5,0.9,0.8,1.3c0.3,0.4,0.7,1,1.6,2.1c1.4,1.7-0.2-0.6,2.5,2.7c-0.8-0.8-0.9-0.9-1.5-1.6c0.8,1,1.7,2,2.6,3h0.2
						c0.4,0.4,0.1,0.1,0.3,0.3c0.5,0.4,1.5,1.4,2.7,2.4c1.1,1,2.3,1.8,2.6,2.1c1.6,1.2,3.3,2.6,4.9,3.6l-0.3-0.2
						c1.9,1.4,4.7,2.8,6.4,3.6h-0.1c0.6,0.3,1.5,0.8,2.5,1.2s2.1,0.9,2.8,1.2c2.9,1.3,0.8,0.8,4.2,1.9c3.1,1.1,4.9,1.4,3.7,0.9
						c5.6,1.9,12.1,3.1,17.5,4c0.8,0.1,0.3,0,2,0.2c4.3,0.5,8.8,0.8,13.2,0.9c4.3,0.1,8.4-0.1,11.9-0.3c-2.5,0.2-0.2,0.1-0.1,0.2
						c2-0.3,2.5-0.1,3.2-0.4c-0.2-0.1,0-0.1-2.4,0c2.6-0.2,5.8-0.6,8.7-1.1c2.9-0.4,5.5-1,6.9-1.2c-1.4,0.3-0.3,0,0.8-0.3
						c-0.3,0.3,3.4-0.6,6.1-1.4l0.4-0.2l1.8-0.4c1-0.4,1.1-0.5,3.8-1.4c0.2,0,0.3,0,0.8-0.2c2.8-1.1,6.5-2.8,9.4-4.2
						c0.8-0.3,1.6-0.7,2.4-1.1c1.2-0.6,3.1-1.9,1-0.7c4.8-2.7,7.6-4.9,9-5.8c3.6-3.1,7.6-7.2,10.8-12.3l0.6-0.9l0.3-0.5l0.3-0.4
						l0.1-0.2c0-0.1,0.2,0,0.2-0.1l0.9-0.1c0.2,0,0.4,0,0.5-0.1c0.4-0.1,0.7-0.1,1.1-0.2c1.5-0.3,2.9-0.6,4.2-1.1s2.6-1.1,3.7-2
						c0.5-0.4,1-0.9,1.5-1.3l0.3-0.4c0.1-0.1,0.1-0.1,0.2-0.2l0.2-0.3l0.3-0.4l0.1-0.2c0,0,0-0.1,0.1-0.1h0.1l0.9,0.1h-0.6
						c0.5,0.1,0.9,0.1,1.2,0.2c0.3,0,0.4,0.1,0.6,0.1c0.3,0,0.5,0.1,0.6,0.1c0.3,0,0.4,0,1.5,0.1c-1-0.1,2.2,0.4-0.1,0.2
						c4.2,0.6,5.4,0.4,8.2,0.6c0.4-0.1-2.2-0.1-1.7-0.2c0.5,0,5.8,0.4,6.5,0.2c1.1,0.1,0.2,0.2-0.3,0.2c0.9,0,1.7,0,2.6,0
						c1.6,0.1-0.2,0.2-2,0.2c-1.8,0.1-3.5,0.1-1.9,0.2h2.4c2.3,0.2-6.3,0.1-0.3,0.2c2.6,0,4.8-0.3,2.5-0.3c2.7,0,3.3-0.2,4-0.3
						s1.4-0.2,4.3-0.4c1.6,0-4.6,0.3-3.5,0.3c2.7,0,5.5-0.4,7.9-0.6c-2.7,0.2-0.4-0.1,1.3-0.4c2.9-0.3-1.9,0.4,2.3-0.1
						c0.7-0.2,4.5-0.8,1.2-0.4c1.5-0.4,4.3-0.7,6.5-1.3c1.4-0.1-4.2,1.2,0.4,0.3c-0.7,0.1,5.5-1.5,3.1-1.1c1.7-0.4,2-0.4,0.7,0
						c2.5-0.6,5.9-2,6.8-2.1l0.8-0.4c0.8-0.2,1.8-0.6,3.1-1.1c1.1-0.4,2.7-1.2,4-1.9s2.4-1.3,2.3-1.1c0.3-0.2,1.6-0.9,2.5-1.5
						s1.6-1.1,0.7-0.6c-2.7,1.6-3.1,2-4.7,2.7c0.5-0.2,1-0.5,1.5-0.7c0.5-0.3,1-0.6,1.4-0.9c0.9-0.6,1.8-1.2,2.5-1.7l0.3-0.1
						c0.5-0.3,1.2-0.8,1.8-1.4c0.7-0.5,1.3-1,1.5-1.3c-0.6,0.6-0.2,0.3,0.4-0.2l0.8-0.8c1.6-1.5,1.8-1.7,2-1.8s0.5-0.2,1.8-1.9
						l-1,1.3c-0.4,0.4-0.8,0.8-1.1,1.2c0.3-0.3,0.7-0.6,1.2-1.1s1.1-1.2,1.8-2c0.4-0.7,1.2-2,1.5-2.6c1.2-2.1,0.7-0.8,1.8-2.9
						c-0.4,1-1,1.8-1.5,2.7c-0.3,0.4,1.4-1.6,2.8-4.6c0.4-1,0.9-2.2,1.1-2.8c0.1-0.3,0.1-0.5,0-0.4s-0.2,0.5-0.5,1.2
						c0.3-0.7,0.6-1.7,0.8-2.2c0.2-0.6,0.3-0.8,0.2-0.2c0.2-0.6,0.4-1.1,0.5-1.5c0-0.1,0.1-0.1,0.1-0.1h0.1c0.1,0,0.2,0,0.2,0
						c0.1,0,0.3,0,0.3-0.1c0.3-0.1,0.2-0.1,0-0.1s-0.4,0-0.2,0c0.1,0,0.5-0.1,1.5-0.3c0.7-0.1,2-0.3,3.5-0.6s3-0.7,4.2-1
						c-1,0.4-2.1,0.8-3.2,1.1c0.7-0.2,1.4-0.4,2.2-0.6c-2.7,0.9,1.4-0.3-0.1,0.3c1.5-0.4,3.2-1.1,4.5-1.7c-2.1,0.7-1,0.2,0.5-0.5
						c0.7-0.4,1.5-0.8,2.1-1.1c0.5-0.4,0.8-0.6,0.5-0.4c1.3-0.8,2.1-1.3,2.7-1.7c0.6-0.4,1-0.7,1.4-0.9c0.4-0.3,0.8-0.6,1.3-1.1
						c0.1-0.1,0.3-0.3,0.4-0.4c0.2-0.2,0.3-0.4,0.6-0.6c0.2-0.2,0.3-0.4,0.5-0.5c0.2,0,0.5,0.1,0.8,0.1s0.7,0.1,1.1,0.1
						c-0.5-0.1,0-0.1,0.1-0.1s0.1,0-0.2-0.1c-0.1,0-0.3-0.1-0.6-0.1c-0.2,0-0.4-0.1-0.7-0.1c-0.2,0-0.3-0.1-0.5-0.1
						c-0.1-0.1-0.2,0.1-0.2,0.1c-0.1,0.1-0.1,0.1-0.2,0.2l0.2-0.2c0.1-0.1,0.1-0.2,0.2-0.1c0.2,0,0.4,0.1,0.6,0.1
						c0.3,0,0.5,0.1,0.7,0.1c0.3,0,0.6,0.1,0.9,0.1c0.5,0.1,0.8,0.1,1.2,0.1c0.7,0,1.5,0.1,3.8,0.4c-3.3-0.2,3.5,0.5-1.3,0.3
						c0.3-0.1-2.7-0.3-3.4-0.4c1.5,0.3-0.4,0.2,3.5,0.6c1.2,0.1,2.6,0.2,3.7,0.3c1.1,0,1.8,0,1.5,0c0-0.1-1-0.1-1.7-0.1
						s-1.2-0.1-0.4-0.1c4.7,0.2,5.5,0.4,7.5,0.2c-3,0-3.7-0.2-3.7-0.3c1.2,0,2.3,0,3.5,0l-0.7,0.1c5.6,0,1.7-0.1,7-0.3h2.5
						c-1.3,0.3-7.9,0.3-6.9,0.5c3.5-0.1,4.7-0.3,8-0.4c-0.7,0.1-1.7,0.1-2.5,0.2c1.3-0.1,2.5,0.2,7.5-0.6c2.6-0.4,0.7-0.2,0.7-0.3
						c2.8-0.4,4.6-0.7,6.2-1.1c1.5-0.3,2.8-0.6,4.6-1c-0.7,0.4,6.2-1.6,2.4-0.4c-0.5,0.1-1.3,0.3-2.3,0.5s-2.3,0.5-3.5,0.8
						c-1.2,0.2-2.5,0.5-3.5,0.7c-1.1,0.2-1.9,0.4-2.4,0.5c2.1-0.1-4.4,0.6-5.6,0.8c4.5-0.5,4.3-0.3,5.1-0.3c1.3-0.2,2.5-0.4,3.2-0.6
						c0.5-0.2-1.1,0.1-1.2-0.1c5-0.7,9.8-2,12.4-2.9c1.6-0.4,1.2-0.1-0.8,0.4c5.8-1.6,11.9-3.9,16.9-6.7c-1.7,0.8-0.3,0,1.2-0.8
						c1.5-0.9,3.1-1.9,2-1.3c-0.7,0.4-1.3,0.8-1.8,1.1c-0.6,0.3-1.1,0.5-1.5,0.7c-0.8,0.4-1,0.4-0.3,0c1.7-0.9,0,0.1,0.7-0.2
						c1-0.6,1.8-1.1,2.7-1.6c0.8-0.4,1.6-1,2.5-1.7c-2.2,1.6-2.4,1.8-2.1,1.7c0.3-0.1,1-0.5,0.7-0.1c3.2-2.4,0,0.2,3.1-2.1
						c3.1-2.5,6.4-6.1,8.6-9.9c1.5-2.3,2.9-5.5,3.7-8.8c0.1-0.8,0.3-1.7,0.4-2.5c0.2-0.8,0.1-1.6,0.2-2.4c0-0.5,0.1-1,0.1-1.5v-0.2
						c0-0.1,0.1,0,0.2-0.1h0.4c0.3,0,0.5,0,0.8,0c0.7,0,1.4-0.1,2-0.1c2.6-0.1,0.8,0.2,3.7-0.1c3.3-0.4-2.4,0.1,2.4-0.4l-0.5,0.1
						c0.7-0.1,2.9-0.5,5.1-0.9c2.2-0.4,4.3-1.1,5-1.4l-1.4,0.6c0.9-0.2,1.7-0.5,2.4-0.7c0,0.1,1.1-0.2-0.3,0.3c2.9-0.7,6-2,9-3.4
						c-0.7,0.3-1.3,0.5-2,0.7c2.6-1.1,4.7-2.2,6.7-3.3c2-1.2,3.9-2.4,5.9-4.2l-0.1,0.2c0.8-0.7,1.6-1.5,2.3-2.3
						c-0.5,0.7,1.6-1.5,2.5-2.9c-1.5,2.3-3.5,4.4-5.7,6.2c-0.9,0.7-0.5,0.3,0.1-0.2s1.2-1.1,0.6-0.7c-0.5,0.4-1.7,1.3-3,2.2
						c-1.2,0.9-2.5,1.7-2.8,1.9c0.8-0.5,1.3-0.8,1.6-1s0.7-0.5,1.3-0.9c0.6-0.2-1.8,1.4-3,2.2c0.9-0.5,2.1-1.3,2.3-1.4
						c-1.6,1.1-3.3,2.2-6.3,3.6c2-1-1.1,0.4-0.4,0c-0.2,0.2-3,1.6-6.9,2.9c-2.8,0.8-7.3,2.3-12.1,3c1.9-0.4,4.3-1,7-1.8
						c-2.9,0.6-3.2,0.8-6.2,1.2c-1.4,0.3-2.4,0.7-6.3,1.1l-0.2-0.1c-1.6,0.1-2.5,0.2-3.4,0.3c-0.3,0.3,0,1.7-0.5,3.9
						c-0.6,3.8-2,7.6-3.8,10.8s-4.2,5.8-6.3,7.8l-0.2,0.1c-1.1,1.2-3.2,3-5.5,4.6c-2.4,1.6-5,3.1-7,4.1c-3.4,1.6-7.2,3.1-10.6,4.2
						s-6.5,1.9-8.4,2.2c-6.4,1.5-12.5,2.3-18.8,2.7c-3.1,0.2-6.2,0.3-9.5,0.2c-3.2-0.1-6.5-0.3-9.9-0.7l2.3,0.1
						c-2.4-0.2-1.6-0.2-4-0.5c1.3,0.3,0.5,0.2-0.8,0c-0.3,0-0.7-0.1-1-0.1c-0.1,0-0.1,0-0.2,0l-0.1,0.1c-0.1,0.1-0.2,0.3-0.3,0.4
						c-0.5,0.6-1,1.1-1.3,1.4c-2.3,2.1-5.3,3.9-8.5,5.3s-6.3,2.3-9,2.9l-0.2-0.1c-0.7,0.1-1.3,0.3-2.1,0.4c-0.3,0.1-0.6,0.1-0.9,0.1
						h-0.1v0.1l-0.1,0.3c-0.2,0.7-0.5,1.4-0.7,2.2c-0.3,0.7-0.6,1.4-0.9,2.2c-1.4,2.9-3.2,5.7-5.4,8.4c-0.6,0.6-1.4,1.5-2.8,2.9
						c-0.6,0.7-1.2,1.3-1.8,1.8c-0.6,0.5-1.1,1.1-1.8,1.6c-1.3,1-2.7,2.1-5,3.6c-0.8,0.5-1.8,1.1-2.9,1.7c-0.5,0.3-1.1,0.6-1.7,0.9
						c-0.6,0.3-1.2,0.5-1.8,0.8c-2.4,1.1-4.8,2-6.7,2.6c-7,2.5-14.4,4.1-21.9,4.9c-7.5,0.8-15.2,0.9-22.9,0.4
						c-0.4-0.1-0.7-0.1-1.1-0.2c-1.9-0.1-3.8-0.3-5.7-0.6c-0.5-0.1-1-0.1-1.5-0.2l-0.6-0.1c-0.1,0-0.2-0.1-0.2,0.1l-0.1,0.1
						c0,0.1-0.1,0.2-0.2,0.3l-0.5,0.6c-0.4,0.4-0.8,0.8-1.2,1.1c-1.7,1.4-3.6,2.2-5.6,2.9c-1,0.3-2,0.5-3,0.7
						c-0.5,0.1-1,0.2-1.5,0.2l-0.4,0.1h-0.3c-0.1,0-0.2,0-0.2,0.1l-0.7,1.2c-0.3,0.4-0.5,0.9-0.8,1.3l-0.8,1.2
						c-0.3,0.4-0.6,0.8-0.9,1.2c-1.2,1.6-2.5,3-3.8,4.4c-2.7,2.7-5.4,5-8,6.9c0.3-0.3,0.6-0.6,0.9-0.9c-1.6,1.2-3.5,2.4-4.9,3.4
						c-1.4,0.9-2.3,1.5-1.8,1.3c-3.5,2-8.9,4.6-11.4,5.4c-3.8,1.4-4.7,1.8-8,2.9c-4,1.1-6.7,1.7-9.4,2.3c-2.7,0.5-5.4,1-9.2,1.5
						l1.9-0.3c0.8-0.2,0.9-0.3-1,0c-1.4,0.2-4.1,0.5-6,0.7s-3.1,0.3-1.7,0.3c-4.1,0.2-9,0.4-13.8,0.2s-9.6-0.6-13.5-1.3
						c0.7,0.2-1.3-0.1-2.2-0.2c-7.2-1.2-14.5-3.3-20-5.4c-1.1-0.4,1.8,0.6-1-0.5c-1.6-0.6-0.1,0.1-2.1-0.7
						c-5.5-2.3-10.7-5.2-15.4-8.8s-8.7-7.8-11.7-12.2c-1.4-2-2.6-4.1-3.7-6.3l-0.4-0.8c-0.1-0.3-0.3-0.5-0.4-0.9l-0.5-1.8
						c-0.2-0.6-0.3-1.2-0.4-1.8c-0.1-0.6-0.3-1.2-0.3-1.8c-0.3-2.5-0.1-5,0.3-7.4c0.5-2.4,1.3-4.8,2.4-7c1.1-2.2,2.5-4.2,3.9-6.2
						c1.5-1.9,3.2-3.7,4.9-5.3c3.5-3.3,7.3-6,11.3-8.3l-0.2,0.1c2.6-1.6,5.8-3.3,8.9-4.6c3.1-1.4,6.2-2.5,8.5-3.4
						c1.4-0.5,5.3-1.6,4.3-1.2c0.8-0.2,1.6-0.5,2.5-0.7c1-0.2,2-0.5,3-0.7c0.5-0.1,1.1-0.2,1.7-0.3c0.3-0.1,0.6-0.1,0.9-0.1l0.6-0.1
						c0.3-0.1,0.7-0.1,1-0.1c-0.4-0.1-0.7-0.3-1.2-0.5c-1.2-0.5-2.4-1.1-3.5-1.7c0.6,0.3,0.9,0.5,1.6,0.8c-3.2-1.7-6-3.6-8.6-5.8
						s-5-4.7-7.2-7.9c0.5,0.6,1.3,1.7,1.5,1.9c-0.9-1.2-1.9-2.6-2.7-3.9c-0.8-1.3-1.5-2.6-1.7-3.4c-0.6-1.6-0.6-1.1-0.2-0.1
						c-0.8-1.9-1.4-4-1.6-6.1c-0.2-2.1-0.1-4.3,0.5-6.4l0.1-0.3c0-0.1,0.1-0.3,0-0.2l-1-0.2l-1.5-0.4l-1.5-0.5l-1.5-0.5l-1.5-0.6
						l-1.5-0.6l-1.5-0.6c-3.9-1.7-7.8-3.9-11-6.8c-1.7-1.4-3.1-3.1-4.5-4.8c-1.3-1.8-2.4-3.7-3.1-5.8c-0.3-0.8-0.4-1.4-0.6-2
						c-0.2-0.6-0.2-1.1-0.3-1.6c-0.2-0.9-0.1-1.5-0.2-1.9c0-0.8,0-0.8,0.1-0.8s0,0.2,0-0.3s-0.1-1.6,0.3-4.1
						c0.3-0.8,0.1-0.6,0.1-0.7c0.1-0.5,0.2-0.9,0.3-1.3c0.2-0.4,0.3-0.8,0.5-1.1c0.3-0.7,0.6-1.3,1-1.9c0.2-0.3,0.3-0.6,0.5-0.8
						c0.2-0.3,0.4-0.5,0.5-0.8c0.3-0.5,0.7-1.1,1.1-1.6c-0.8,0.8,1-1.4,1-1.6c2.5-2.8,4.5-4.1,6.2-5.3c1.7-1.1,3.3-2.1,5.9-3.5
						L37.1,77c0.8-0.4,1.5-0.8,2.4-1.2c0.8-0.4,1.7-0.7,2.5-1.1c0.4-0.2,0.8-0.3,1.3-0.5l1-0.3l0.5-0.2c0,0-0.1-0.1-0.2-0.2
						l-0.2-0.2l-0.7-0.5c-0.4-0.3-0.7-0.5-1-0.8c-0.7-0.6-1.4-1.1-2-1.6c-1.3-1.1-2.5-2.2-3.5-3.2c-1.7-1.8-3.2-3.7-4.4-5.8
						c-1.2-2.1-2.2-4.4-2.5-6.9c-0.4-2.4-0.2-5,0.5-7.3c0.7-2.4,2-4.5,3.4-6.4c3-3.8,6.9-6.7,11-9s8.5-4.1,12.9-5.5
						c8.9-2.8,18.2-4.1,27.5-4.2c9.3,0,18.7,1.4,27.4,4.9c4.3,1.8,8.4,4.1,12,7.1l1.3,1.1l0.8,0.8l0,0l0.2-0.2
						c0.4-0.4,0.8-0.8,1.3-1.2c1.7-1.6,3.7-2.9,5.6-4.1c8-4.8,17.2-7.1,26.4-7.6s18.5,0.8,27.2,4.3c2.2,0.9,4.3,1.8,6.3,3
						c0.5,0.3,1,0.6,1.5,0.9s1,0.6,1.5,1l0.8,0.6l0,0l0.5-0.5c1.7-1.7,3.5-3.1,5.4-4.5c2-1.3,4-2.6,6.1-3.6c4-1.9,6.3-2.6,8.6-3.4
						c0.6-0.2,1.2-0.4,1.8-0.6s1.3-0.4,2.1-0.6s1.6-0.4,2.5-0.6s2-0.4,3.2-0.7c-0.4,0.1-1,0.2-0.3,0.1c0.2-0.1,1.9-0.5,3.6-0.7
						c1.7-0.3,3.5-0.4,4-0.5c6.9-0.5,13.7-0.1,20.3,1.1c3.3,0.6,6.6,1.5,9.8,2.7c3.2,1.2,6.4,2.6,9.5,4.5c-2-1.1-3.1-1.5-0.7-0.2
						c0.8,0.4,1.6,0.9,2.5,1.4l0.4,0.3c1.5,1,3.2,2.2,1.7,1c1.8,1.3,3.5,2.8,5.2,4.4c0.4,0.4,0.8,0.9,1.1,1.2l0,0l0,0l0.2-0.3
						c0.1-0.1,0.2-0.2,0.3-0.3l1.1-1.3c3.1-3.4,6.8-6.1,10.7-8.3c7.9-4.4,16.5-6.9,25.2-8.4s17.5-2,26.3-1.5s17.5,1.9,25.8,4.8
						c3.9,1.4,8.6,3.4,13,6.2s8.3,6.5,10.8,10.5c3.7,5.8,4.8,12.9,3.8,19.3c-0.2,0.8-0.3,1.6-0.4,2.4l-0.3,1.1v0.2V58h0.1l0.7,0.2
						c0.4,0.2,0.8,0.3,1.2,0.5c0.4,0.2,0.8,0.4,1.1,0.6l0.5,0.3l0.5,0.4c1.3,1,2.5,2.4,3.1,4c0.6,1.6,0.7,3.5-0.1,5.2
						c-0.3,0.8-0.9,1.5-1.4,2.2c-0.3,0.3-0.6,0.6-0.9,0.9l-1,0.7c-0.1,0.1-0.3,0.1-0.4,0.2s-0.4,0.1-0.1,0.2l0.4,0.2l0.2,0.1
						l0.5,0.3c2.9,1.5,5.6,3.3,8.1,5.5c2.4,2.2,4.7,4.7,6.4,7.6c0.9,1.4,1.5,3,2.1,4.7c0.5,1.7,0.7,3.4,0.6,5.2c0,0,0-0.2-0.1-0.8
						c0-0.3,0-0.6-0.1-1s-0.2-0.9-0.2-1.5c-0.1-0.6-0.3-1.2-0.5-2c-0.3-0.7-0.5-1.5-1-2.4C420.1,87,418.8,85,417,82.8z"/>
					<path class="st1" d="M420.2,104.3c-0.5,0.8-2.2,3.4-1,1.3c0.1-0.1,0.4-0.5,0.6-0.8C420.1,104.4,420.3,104.1,420.2,104.3z"/>
					<path class="st1" d="M360.3,150.6c-0.1,0.1-1,0.6-1.2,0.8C359.5,151.1,359.9,150.8,360.3,150.6c0.3-0.4,0.7-0.7,1-0.9
						C360.5,150.3,360.6,150.3,360.3,150.6z"/>
					<path class="st1" d="M341.8,160c0.3-0.1,4.5-1.7,6.9-2.8c-1.1,0.5-2.2,1.1-3.4,1.5C344.1,159.1,342.9,159.6,341.8,160z"/>
					<path class="st1" d="M322.7,164c-1.7,0.1-1.2,0.1,1-0.2C323.9,163.8,323.2,164,322.7,164z"/>
					<path class="st1" d="M321.4,164.4c-1.6,0.2-2.4,0.2-3.2,0.3c0,0,1-0.1,1.8-0.2C320.8,164.4,321.6,164.3,321.4,164.4z"/>
					<path class="st1" d="M280.8,170.7c-0.9,0.5-2.9,1.3-3.8,1.5c0.5-0.1,1.7-0.6,2.5-1C280.4,170.9,281.1,170.5,280.8,170.7z"/>
					<path class="st1" d="M264.9,180.4c-0.3,0.6-0.4,0.8-0.7,1.4c-0.6,1,0-0.1,0.4-1C264.7,180.7,264.8,180.5,264.9,180.4z"/>
					<path class="st1" d="M71.9,161.4l-1.2,0.2l-1,0.2l0.3-0.1c0.3-0.1,0.6-0.1,0.9-0.1L71.9,161.4z"/>
					<path class="st1" d="M31.3,53.4c-0.3-2,0-1.4-0.1-1.8C31.4,53.5,31.1,50.9,31.3,53.4z"/>
					<polygon class="st1" points="101.3,24.3 100.7,24.2 100.9,24.1 					"/>
				</g>
			</g>
		</g>
	</g>
</g>
<line class="st2" x1="422.1" y1="111.4" x2="422.1" y2="110.8"/>
<line class="st2" x1="422.1" y1="96.3" x2="422.1" y2="96"/>
<path class="st3" d="M75.4,160.4c-6.1,1-12,2.4-17.5,4.2c-7.1-7.2-9.5-15.5-7.2-23.4c-13.7-2.7-31.9-14.6-30.3-27.7V99.9
	c0,12.5,17.2,23.2,30.3,25.9C45.8,138.7,59.4,154.8,75.4,160.4z"/>
<line class="st2" x1="20.3" y1="114.5" x2="20.3" y2="113.5"/>
<line class="st2" x1="20.3" y1="99.9" x2="20.3" y2="98.8"/>
<g>
	<path class="st4" d="M46,73.3c-4.2,1.4-8,3.1-11.6,5.2c-5.2-6.8-2.9-16.4-3.3-24C32.4,62.9,37.4,68.2,46,73.3z"/>
	<g>
		<g>
			<g>
				<g>
					<path class="st1" d="M45.8,73.6C45.8,73.6,45.9,73.5,45.8,73.6L45.8,73.6L45.8,73.6z"/>
					<path class="st1" d="M45.5,73c-0.1,0-0.3,0.1-0.3,0.2c0.2-0.1,0.2,0,0.4-0.1c0.1,0,0.1,0.1,0.1,0.2c0,0,0.1,0.1,0.2,0
						C45.7,73.2,45.6,73.1,45.5,73C45.4,73.1,45.4,73.1,45.5,73z"/>
					<path class="st1" d="M38.5,67.6L38.5,67.6C38.6,67.6,38.6,67.6,38.5,67.6z"/>
					<path class="st1" d="M35,63.5C35,63.5,35.1,63.5,35,63.5C35.1,63.5,35,63.5,35,63.5z"/>
					<path class="st1" d="M34.6,62.6C34.7,62.7,34.7,62.7,34.6,62.6C34.7,62.7,34.7,62.6,34.6,62.6z"/>
					<path class="st1" d="M38.5,67.6L38.5,67.6C38.4,67.5,38.5,67.5,38.5,67.6z"/>
					<path class="st1" d="M44.2,72.7C44.3,72.7,44.3,72.7,44.2,72.7L44.2,72.7L44.2,72.7z"/>
					<path class="st1" d="M40.4,69.1L40.4,69.1C40.5,69.1,40.5,69.1,40.4,69.1L40.4,69.1z"/>
					<path class="st1" d="M41.9,70.2c0,0-0.1,0.1-0.2,0.1C41.8,70.3,41.8,70.2,41.9,70.2L41.9,70.2z"/>
					<path class="st1" d="M44.2,72L44.2,72L44.2,72z"/>
					<path class="st1" d="M39.4,68.2C39.5,68.2,39.5,68.2,39.4,68.2C39.5,68.2,39.4,68.2,39.4,68.2z"/>
					<path class="st1" d="M43.8,73.4L43.8,73.4L43.8,73.4z"/>
					<polygon class="st1" points="46,73.4 46,73.4 46,73.5 					"/>
					<path class="st1" d="M34,61.1L34,61.1C34,61.2,34,61.1,34,61.1z"/>
					<path class="st1" d="M30.4,62.9c0.1-0.2,0.2,0.3,0.3,0C30.6,63,30.5,62.7,30.4,62.9z"/>
					<path class="st1" d="M44.2,72.7L44.2,72.7L44.2,72.7z"/>
					<path class="st1" d="M30.7,63L30.7,63L30.7,63L30.7,63z"/>
					<path class="st1" d="M32.4,57.6C32.4,57.6,32.4,57.7,32.4,57.6C32.4,57.7,32.4,57.7,32.4,57.6z"/>
					<path class="st1" d="M33.3,60.4L33.3,60.4C33.3,60.3,33.3,60.3,33.3,60.4z"/>
					<path class="st1" d="M31.8,56.2L31.8,56.2L31.8,56.2L31.8,56.2z"/>
					<polygon class="st1" points="31.5,54.7 31.5,54.7 31.5,54.8 					"/>
					<path class="st1" d="M39.3,75.3L39.3,75.3C39.3,75.3,39.5,75.2,39.3,75.3z"/>
					<path class="st1" d="M44.3,72.7C44.2,72.7,44.2,72.7,44.3,72.7L44.3,72.7L44.3,72.7z"/>
					<path class="st1" d="M30.7,56.4v-0.3C30.7,56.3,30.7,56.3,30.7,56.4z"/>
					<path class="st1" d="M32.5,73.4L32.5,73.4L32.5,73.4z"/>
					<path class="st1" d="M30.5,55.4c0-0.1,0.1-0.1,0.1-0.2l0,0L30.5,55.4z"/>
					<path class="st1" d="M39.4,75.4L39.4,75.4L39.4,75.4z"/>
					<path class="st1" d="M40.8,74.4c-0.2,0.1,0,0.2,0,0.3c-0.3,0.2-0.2-0.1-0.3-0.1c-0.2,0.1-0.2,0.3-0.3,0.4c0,0,0,0,0-0.1
						c-0.1,0.2-0.5,0.2-0.6,0.5l0,0c0.1,0.1,0.1,0.2,0.1,0.2c-0.1,0.1-0.1,0.2-0.2,0.1c0.1,0,0-0.1,0.1-0.1l-0.1,0.1
						c-0.2-0.1,0.1-0.1,0.1-0.2c-0.2,0.1-0.3,0.4-0.5,0.4c-0.1-0.1,0.3-0.2,0.1-0.3l0.3-0.1c-0.3-0.2,0.2-0.1-0.1-0.2
						c-0.3,0.1-0.3,0.2-0.7,0.3c0,0.1,0.1,0.1,0,0.2c-0.4,0.4-0.5-0.2-0.8,0.2c0,0.1,0,0.3-0.3,0.4v-0.2c-0.3,0.1,0,0.3-0.4,0.4
						c0-0.1,0.2-0.2,0.2-0.2c-0.3,0-0.1,0.2-0.3,0.3L37,76.6c-0.3,0.2-0.6,0.5-0.9,0.7c0-0.1,0-0.1-0.1-0.1
						c-0.2,0.2-0.4,0.3-0.7,0.4c-0.1,0.1-0.3,0.1-0.3,0.1h-0.1c0,0.1,0,0.1,0,0.2v-0.1c0-0.1,0,0.1-0.1,0.2c0,0,0-0.1,0-0.2
						c0,0.1-0.1,0.1-0.2,0c-0.1-0.1-0.3-0.3-0.3-0.5h0.1C34.3,77,34,77.2,34,76.9l0,0c-0.2-0.5-0.7-1-0.6-1.5
						c-0.2,0-0.1-0.6-0.4-0.5c0-0.4,0.1-0.3,0-0.7c0-0.1-0.2-0.1-0.3-0.3l0.2-0.1l-0.2-0.2l-0.1,0l-0.1-0.1c0,0.1,0,0.1-0.1,0.1
						c-0.1-0.2-0.1-0.6,0-0.6c-0.1-0.2-0.2-0.3-0.3-0.5c0.1,0,0.1,0.1,0.2,0.1c-0.2-0.2,0.2-0.1,0-0.3h-0.1c0.1-0.2,0-0.4-0.1-0.6
						h0.1c-0.1-0.4-0.2-0.8-0.3-1.2c0,0.2-0.2,0.2-0.3,0l0.2-0.1c-0.1-0.1,0,0.1-0.2,0c0-0.2,0.2-0.1,0.2-0.1l-0.1-0.2h0.1
						c-0.1-0.1,0.1-0.4-0.1-0.4l0,0c0-0.4-0.1-0.6-0.2-1c-0.1,0-0.1-0.1-0.3-0.2c0-0.3,0.1-0.6,0.1-0.9c-0.1-0.2-0.1-0.1-0.2-0.2
						c0.1,0,0.1-0.3,0.2-0.2c0-0.4-0.1-0.5-0.2-1c0,0.1-0.1,0.1-0.1,0.1c0-0.1,0-0.2,0.1-0.2l0,0c-0.2-0.5,0.3-1.3,0.1-1.7l0,0
						L31.1,64c0-0.2,0.1,0.1,0.2,0c-0.2-0.5,0-0.8-0.1-1.2c0.4-0.3,0-1.1,0.3-1.5h-0.1c-0.1-0.1,0.1-0.1,0.1-0.2
						c-0.1,0-0.1,0.1-0.1,0.1c-0.1-0.9,0.2-1.9,0.3-2.8c0-0.3-0.5-0.2-0.2-0.6l0.2,0.1c-0.2-0.7,0-1.4-0.2-2.1c0,0,0.1,0,0.1,0.1
						c0.1-0.2,0-0.5-0.1-0.5c0-0.1,0.1,0,0.1-0.1c0.1-0.2-0.2-0.4,0-0.4c0,0,0,0,0,0.1c-0.1-0.1,0-0.4-0.1-0.3v-0.1l-1.2,0.1
						c0,0.2,0.2,0.4,0.1,0.6c0.2,0.1,0,0.5,0.2,0.4c-0.2,0-0.1,0.5,0.1,0.6c-0.1,0,0,0.2-0.1,0.1c0,0.2,0.1,0.3,0.2,0.3
						c-0.2,0.4,0.4,0.6,0.1,0.9c0.3,0.5,0.5,1,0.8,1.4c-0.2,0.1-0.2-0.5-0.4-0.4c0.2,0.4,0.5,0.6,0.7,1.1c0,0.1-0.1,0-0.2-0.1
						c0.3,0.4,0.3,0.9,0.6,1.2c0,0-0.1,0-0.1-0.1c0,0.1,0.1,0.2,0.2,0.1l-0.1-0.1c0.1-0.2,0.4,0.2,0.5,0.1c-0.3,0,0.1,0.4-0.3,0.4
						c0,0,0.1,0.1,0.2,0c0,0.1,0,0.1-0.1,0.1c0.2,0.2,0.2,0.1,0.4,0.3c0,0-0.1,0-0.2,0c0.2,0.1,0.3,0.1,0.4,0.4c0,0,0,0.1-0.1,0
						c0.2,0.3,0.5,0.4,0.7,0.9c-0.3,0,0,0.2-0.1,0.3l0.2,0.2v-0.1c0.1,0.2,0.3,0.2,0.4,0.4l-0.2-0.1l0.2,0.3l-0.1-0.2
						c0.2,0.1,0.2-0.2,0.3,0.1c0,0,0.1,0.2,0.1,0.3l0,0c0.1,0,0.2,0.1,0.3,0.2c0,0.1-0.2,0.1-0.2,0.1c0.2,0,0.3,0.3,0.5,0.3
						c-0.1,0-0.1,0.1-0.1,0.1h0.2c0,0.1,0,0.1,0,0.2c0.2,0.2,0.1-0.2,0.3,0.1c0,0,0,0-0.1,0c0.2,0.3,0.5,0.4,0.6,0.7
						c-0.1,0.2-0.2-0.2-0.3,0c0.3,0.3,0.8,0.5,1,0.9v-0.1c0.2-0.1,0.1,0.3,0.4,0.4c0,0-0.2,0.1-0.1,0c0.2,0.2,0.5,0.4,0.9,0.6H38
						c0.1,0.2,0.3,0.3,0.4,0.5c0.1,0,0.2,0.1,0.2-0.1c0.2,0.7,1,0.6,1.2,1.1c0,0-0.2-0.1-0.1,0l0.4,0.2c0-0.1,0-0.1,0-0.2
						c0.1,0,0.2,0,0.3,0.1c-0.2-0.1-0.1,0.2-0.1,0.3l0.1-0.1c0,0.3,0.2-0.2,0.3,0.1l0,0c0.1,0.1,0.2,0.1,0.3,0.1
						c0,0.1-0.1,0-0.2,0.1c0.1,0.1,0.4,0,0.5,0.2c-0.1,0-0.2-0.1-0.3-0.1c0,0.2,0.1,0.2,0.2,0.3l0,0l0.2,0.2v-0.1
						c0.4-0.2,0.4,0.2,0.8,0.2c-0.4,0-0.1,0.1-0.2,0.2c0,0.1,0.1,0.2,0,0.2c0.2,0,0.1,0.2,0.4,0.2c0,0.1,0.1,0.1,0,0.2
						c0.2,0.1,0-0.1,0.1-0.1c0.3,0,0.4,0.6,0.9,0.6c0.3,0.1,0.5,0,0.8,0.1c0,0.1-0.2,0.1-0.2,0.1c0.1,0.2,0.2,0.2,0.4,0.3v0.1
						c0.1,0.1,0.2-0.1,0.3,0.1c0,0-0.1,0.1-0.2,0.1c0.2,0,0.3,0.1,0.5,0.1c0,0.1-0.2,0.1-0.2,0.1c0.2,0.1,0.4,0.2,0.6,0.1l-0.1-0.1
						c0.1,0,0,0.1-0.1,0.1c-0.2,0-0.2-0.2-0.2-0.2h0.1c0-0.3-0.4-0.2-0.6-0.3l0.2-0.1h-0.3c0-0.1,0-0.2,0.1-0.2
						c-0.1-0.2-0.2,0-0.2-0.2l0,0h-0.2l0.1-0.1c-0.2-0.3-0.5-0.1-0.5-0.3l0,0c-0.4-0.2-0.1,0.1-0.5,0.1v-0.4l-0.1,0.1
						c0,0-0.1-0.1,0-0.1c-0.2,0,0,0.1-0.2,0.1c-0.1-0.2-0.5-0.3-0.4-0.5c-0.1,0.1,0.1,0.2-0.1,0.1c0.1-0.3-0.2-0.1-0.3-0.3
						c0.1-0.1,0.2,0.1,0.1-0.1c-0.2,0.1-0.3-0.3-0.4-0.3c-0.1,0.2-0.3-0.1-0.6-0.3c0,0-0.3-0.4-0.5-0.6l0,0
						c-0.2,0.1-0.3-0.1-0.5-0.1c0.1-0.1,0.1-0.1,0.2-0.1l-0.1-0.1c-0.1,0-0.1,0-0.2,0l0.1-0.1c-0.2-0.1-0.5-0.2-0.6-0.4
						c-0.1,0.1,0,0.4-0.3,0.3c0-0.1,0.1-0.2,0.2-0.1c0,0-0.1,0-0.1-0.1h0.2c-0.1-0.1-0.1,0-0.2-0.1c0.1-0.1,0-0.1,0-0.2
						c0,0,0,0.1,0.1,0.1c-0.1-0.1-0.2-0.2-0.1-0.3c0,0.1-0.1,0.1-0.2,0.1c-0.2-0.1,0-0.1,0-0.3c-0.1,0-0.1-0.1-0.2,0
						c0-0.1,0-0.1,0-0.2c-0.1,0-0.4-0.3-0.4-0.2l0,0l0,0l0,0l0,0c-0.4-0.2-0.5-0.6-0.8-0.8l0,0c-0.2-0.1-0.4-0.3-0.6-0.4
						c0-0.1,0-0.2,0-0.2c-0.2-0.1-0.2-0.1-0.3-0.3c0.2,0.1,0-0.1,0.2,0.1c-0.1-0.2-0.1-0.3-0.3-0.4c0.2,0,0-0.2-0.1-0.3v0.2
						c-0.1-0.1-0.2-0.2-0.2-0.3l0.2-0.1c-0.2-0.5-0.8-0.4-0.8-0.9c-0.2,0,0.1,0.3-0.1,0.3c-0.1-0.2-0.1-0.5-0.1-0.6
						c-0.1-0.3-0.4-0.1-0.5-0.3c0,0.1-0.1,0.2-0.3,0c-0.1-0.2,0.1-0.4,0.2-0.3v0.1c0.1,0,0.1,0.1,0.1,0h-0.1c0-0.1-0.2-0.3-0.1-0.3
						c-0.1-0.1-0.1,0-0.1,0.1c-0.1-0.3-0.2-0.3-0.3-0.6c0,0.1,0,0.1-0.1,0.1c-0.2-0.4-0.2-0.1-0.4-0.3c0-0.2,0.2-0.1,0-0.3
						c0-0.2,0.1-0.1,0.2-0.1c-0.2-0.2-0.2-0.4-0.2-0.6l0.1,0.1c-0.1-0.1-0.1-0.1-0.1-0.2v0.1c0-0.1,0-0.1,0-0.2
						c-0.1,0-0.1,0.2-0.3,0.1c0-0.1-0.2-0.3-0.1-0.3c0.1,0.3,0.1-0.1,0.3,0.1c0,0-0.1-0.1-0.1-0.2l0,0c0-0.3-0.2,0-0.4-0.3
						c0.1,0,0.1-0.1,0.1-0.2c0.1,0.1-0.1,0.1-0.2,0c0-0.2-0.2-0.2-0.2-0.3V60c-0.1,0-0.1-0.1-0.2-0.2c0.1,0,0.1,0.1,0.1,0
						c-0.2-0.1,0-0.4-0.2-0.6c0-0.1,0.2-0.1,0.2-0.2c-0.2-0.2,0-0.3-0.2-0.5c-0.1,0.1,0,0.1-0.2,0l0.2,0.4l-0.3-0.2
						c0,0.1,0.2,0.2,0.2,0.3c-0.1-0.1-0.1-0.1-0.2,0c0.1-0.2-0.2-0.3-0.2-0.5l0.3-0.1c0-0.3-0.3-0.5-0.4-0.9v0.1
						c-0.1,0-0.1-0.2-0.2-0.3c0.1,0,0.1-0.1,0.2-0.2c-0.1,0-0.1-0.3-0.3-0.3l0.1-0.2c0-0.3-0.4-0.3-0.4-0.6c0.1,0.1,0.2-0.1,0.3,0.1
						c0-0.1,0-0.2-0.1-0.2c0-0.1-0.2-0.3-0.1-0.4c0,0-0.2,0-0.2-0.1l0,0c0,0-0.1-0.2-0.2,0c0.2-0.4-0.2-0.9,0-1.2
						c0-0.1-0.1-0.2-0.1-0.3L30.6,54c0,0.2,0,0.3,0,0.4l0,0c-0.1,0.3,0.3,0.2,0.2,0.5c-0.2,0.2-0.1-0.2-0.2-0.1
						c-0.3,0.1,0.1,0.4-0.1,0.6v-0.1c-0.1,0.2,0.1,0.4,0.1,0.7l0,0c0.2,0.2,0.2,0.6,0.3,0.8c-0.1-0.1-0.1-0.1-0.2-0.1
						c0,0.1,0.2,0,0.2,0.2c-0.1,0.1-0.1,0.3-0.3,0.3V57c-0.2,0.1,0,0.3,0,0.4h-0.1c0,0.3,0.2,0.3,0.2,0.7h0.1c0.2,0.2-0.1,0.2,0,0.4
						l-0.2,0.1c0,0.1,0.2,0.5,0.2,0.7c-0.1-0.1-0.2-0.4-0.3-0.6c0,0.1,0,0.4,0.1,0.5c0-0.1-0.1-0.1,0-0.2c0.2,0.2,0.2,0.4,0.2,0.7
						c-0.4-0.1-0.1,0.7-0.4,0.9c0.1,0.5-0.1,0.9-0.1,1.5c0.3-0.2,0,0.2,0.3,0.1c0,0.1,0,0.2,0,0.2l-0.2,0.4
						c-0.1,0.1-0.1-0.1-0.1-0.1c0,0.3-0.1,0.1-0.2,0.3c0.1,0,0.2,0.1,0.1,0.3l0.2-0.2c0.2,0.4-0.3,0.3-0.1,0.7l-0.1-0.1
						c0,0.2,0,0.8,0.2,0.9c0,0-0.1,0.1-0.1,0c0,0.5,0.3,1.1,0.1,1.5h-0.1c0,0.1,0.1,0.2,0.1,0.3h-0.1c0,0.1,0.1,0.2,0.1,0.4
						l-0.1-0.1c-0.1,0.5,0.2,0.7,0.3,1.1c-0.2,0-0.3,0.4-0.3,0.6l0,0c0,0.6,0.3,0.9,0.4,1.4c-0.2,0.3,0,1.1,0,1.6
						c0-0.1,0.2,0,0.2,0.1s0.2,0.3,0,0.3l0,0c-0.2,0.1-0.1,0.4,0,0.6h0.3c-0.3,0.6,0.5,1.2,0.3,1.6c0.1,0.1,0.1,0.3,0.3,0.3h-0.1
						c0.1,0.3,0.2,0.5,0.3,0.9h-0.1c0.1,0.2,0.5,0.1,0.6,0.3l-0.2,0.2c0.2,0.4,0.2,0.8,0.6,1.1h-0.1c0.1,0.2,0.3,0.8,0.5,0.5
						c-0.2,0.1,0.2,0.4,0.4,0.5l-0.1,0.1c0.3,0.1,0.3,0.1,0.6,0.3c0,0.1,0,0.2-0.1,0c0.1,0.3,0.2,0.1,0.4,0.4c0,0.1-0.1,0-0.1,0
						s0,0.1,0.1,0.1c0,0,0,0,0.1,0l0.1-0.1c0-0.1,0.1-0.1,0.2-0.2c0.1-0.2,0.4-0.2,0.5-0.1c0-0.1,0.1-0.3,0.2-0.3v0.1
						c0.3-0.1,0.4-0.4,0.7-0.4c0,0,0,0.1,0.1,0.1C36.2,77.9,36,78,36,78c0.1,0.1,0.3,0,0.2,0.3c0.1-0.2,0.3-0.5,0.5-0.6l0,0l0,0
						l0.1-0.1c0.1,0,0.1,0,0.2-0.1c0.1,0.1,0.3-0.1,0.3-0.1c-0.1-0.1,0.1-0.2-0.1-0.2c0,0,0,0-0.1,0.1l0,0l0,0
						c-0.1,0-0.2,0.1-0.2,0.1c0-0.1,0.1-0.2,0.2-0.2c0-0.1,0-0.2,0-0.3c0.2,0.1,0.5,0.1,0.6,0.2c0.3-0.2,0.7-0.4,0.8-0.7
						c0.1-0.1,0.1,0,0.2,0c0,0.1-0.1,0.1-0.1,0.1c0.1-0.2,0.5-0.3,0.5-0.5c0.3,0,0,0.2,0.2,0v0.1c0.7,0,0.8-0.9,1.6-0.8
						c-0.1,0-0.1,0-0.1,0c0.8-0.2,1.5-0.8,2.4-0.9c0.2,0,0.2-0.2,0.3-0.3l0.1,0.1l0.2-0.3c0.3-0.2,0.7,0.1,1-0.2l-0.1-0.1
						c0.2,0,0.5-0.2,0.5-0.1c0,0,0-0.1,0.1-0.1v0.1l0.3-0.3c0.3,0,0.1,0.3,0.5,0.2c0.1-0.1,0.4-0.4,0.3-0.4c-0.1,0-0.2,0-0.2-0.1
						l0.1-0.1c0-0.2,0-0.5-0.4-0.5l-0.2,0.2l-0.1-0.1l0.2-0.1c-0.2-0.1-0.2,0.1-0.3,0.1c0-0.1-0.1-0.1-0.1-0.1l-0.2,0.3
						c-0.1-0.1,0-0.2-0.1-0.2c-0.1,0.1,0.2,0.2,0,0.3c-0.2-0.1-0.2-0.2-0.3,0c0-0.1,0-0.1,0-0.1c-0.1,0.1-0.3,0.1-0.3,0.3
						c-0.2-0.1-0.4,0.2-0.5,0c0,0.1-0.2,0.2-0.3,0.3c0.1-0.3-0.4,0.1-0.5-0.1c-0.1,0.3-0.5,0.3-0.7,0.5v-0.1c-0.2,0-0.2,0-0.3,0
						c0,0.2-0.2,0.3-0.2,0.5c-0.3-0.1,0-0.3-0.1-0.4c0.1,0.1-0.3,0.3-0.1,0.4c-0.2-0.1-0.1,0-0.3-0.1c0.1,0.2-0.1,0.1-0.2,0.3
						c-0.3,0-0.1-0.2-0.3,0C40.6,74.6,40.8,74.4,40.8,74.4z M35.9,77.3L35.9,77.3C35.9,77.3,35.9,77.2,35.9,77.3
						C35.9,77.2,35.9,77.3,35.9,77.3z M35.5,77.5c0,0,0.1-0.1,0.2-0.1v0.1C35.6,77.5,35.5,77.5,35.5,77.5z M36.8,77.9
						C36.7,78,36.7,77.9,36.8,77.9C36.7,77.9,36.8,77.9,36.8,77.9L36.8,77.9C36.8,77.8,36.8,77.9,36.8,77.9z"/>
					<path class="st1" d="M36.8,77.7C36.8,77.7,36.8,77.6,36.8,77.7C36.8,77.6,36.8,77.6,36.8,77.7L36.8,77.7L36.8,77.7z"/>
					<path class="st1" d="M38.6,67.7L38.6,67.7L38.6,67.7L38.6,67.7z"/>
					<path class="st1" d="M32.7,73.9L32.7,73.9L32.7,73.9z"/>
					<path class="st1" d="M40.2,69.7C40.2,69.7,40.2,69.8,40.2,69.7C40.3,69.8,40.2,69.7,40.2,69.7z"/>
					<path class="st1" d="M41.1,70.4L41.1,70.4C41.2,70.5,41.1,70.5,41.1,70.4z"/>
					<path class="st1" d="M41.8,71L41.8,71L41.8,71L41.8,71z"/>
					<path class="st1" d="M32.4,60.8L32.4,60.8C32.4,60.7,32.4,60.8,32.4,60.8z"/>
					<path class="st1" d="M34.9,64.2C34.9,64.2,34.8,64.2,34.9,64.2C34.8,64.2,34.8,64.3,34.9,64.2z"/>
					<polygon class="st1" points="30.7,56.5 30.7,56.5 30.7,56.4 					"/>
					<path class="st1" d="M34.6,64c0,0.1,0.1,0.1,0.1,0.2C34.7,64.1,34.7,64,34.6,64z"/>
					<path class="st1" d="M44.9,73.1L44.9,73.1C44.9,73.2,44.9,73.2,44.9,73.1L44.9,73.1z"/>
					<path class="st1" d="M44.9,73.2L44.9,73.2C45,73.2,44.9,73.1,44.9,73.2z"/>
					<path class="st1" d="M45.1,73.2L45.1,73.2C45,73.2,45,73.2,45.1,73.2z"/>
					<path class="st1" d="M43.9,72.5L43.9,72.5L43.9,72.5z"/>
					<path class="st1" d="M43.6,72.3c0.1,0.1,0.1,0.2,0.2,0.2l0,0C43.8,72.5,43.8,72.3,43.6,72.3z"/>
					<path class="st1" d="M42.8,71l0.2,0.2c0-0.1,0-0.2,0.1-0.1C42.9,70.7,43.1,71.2,42.8,71z"/>
					<path class="st1" d="M42.1,70.4C42.2,70.5,42.1,70.3,42.1,70.4C42.1,70.3,42,70.3,42.1,70.4z"/>
					<path class="st1" d="M37.2,66.2L37.2,66.2C37.2,66,37.3,66.1,37.2,66.2z"/>
					<polygon class="st1" points="35.9,65.7 35.9,65.8 36,65.8 					"/>
					<polygon class="st1" points="36.1,64.5 36.2,64.6 36,64.5 					"/>
					<path class="st1" d="M31.7,55l-0.2,0.1C31.6,55.1,31.8,55.1,31.7,55z"/>
					<path class="st1" d="M30.7,58.7c-0.1,0.1-0.1,0.2-0.1,0.3C30.7,58.9,30.7,58.8,30.7,58.7z"/>
					<polygon class="st1" points="31.1,73 31.1,72.9 31.1,73.1 					"/>
				</g>
			</g>
		</g>
	</g>
</g>
<line class="st5" x1="31.1" y1="68.2" x2="31.1" y2="65.6"/>
<line class="st5" x1="31.1" y1="54.5" x2="31.1" y2="52.3"/>
<path class="st6" d="M406.9,132.4c-9.1,5.3-20.7,8.1-32.5,8.7c-0.9,34.6-53.3,44.1-83.8,39.2c-5.4,6.3-14.2,9.3-22.8,10.5
	c-9,31.2-55.2,37.9-85.5,32.9c-2.7,4-8.2,5.7-13.2,6.1C142.5,279.1,9,274.6,19.3,204.4c0.1,2.2,0.5,4.3,1.1,6.5
	c20.7,48.2,123.3,47.8,148.6,3.5c5-0.4,10.5-2.1,13.2-6.1c30.4,5.1,76.6-1.7,85.5-32.9c8.7-1.2,17.4-4.2,22.8-10.5
	c30.4,4.9,82.9-4.6,83.8-39.2c18.8-0.5,46.6-9.9,47.7-29.3C422.4,110.8,423.8,123.3,406.9,132.4z"/>
<line class="st2" x1="19.2" y1="218.6" x2="19.2" y2="217.2"/>
<line class="st2" x1="19.2" y1="204.3" x2="19.2" y2="203.1"/>
<g class="st7">
	<path class="st8" d="M64.4,112.2l-5.9-3.4l1.7-1c0.5-0.3,1.1-0.5,1.7-0.6c0.6-0.1,1.3-0.1,1.9,0s1.2,0.3,1.8,0.6L66,108
		c0.6,0.3,0.9,0.7,1.1,1c0.2,0.4,0.2,0.7,0,1.1s-0.5,0.7-1.1,1L64.4,112.2z M59.9,108.7l4.7,2.7l0.8-0.5c0.6-0.4,0.9-0.7,0.9-1.1
		s-0.4-0.8-1.1-1.2l-0.3-0.2c-0.7-0.4-1.4-0.6-2.1-0.6s-1.3,0.1-1.9,0.5L59.9,108.7z"/>
	<path class="st8" d="M64.2,105.9c-0.1-0.1-0.2-0.2-0.2-0.2c0-0.1,0.1-0.2,0.2-0.3s0.3-0.1,0.5-0.1s0.3,0,0.4,0.1
		c0.1,0.1,0.2,0.2,0.2,0.2c0,0.1-0.1,0.2-0.2,0.3c-0.1,0.1-0.3,0.1-0.5,0.1C64.5,106,64.3,105.9,64.2,105.9z M70.6,108.6l-0.8,0.4
		l-4.4-2.6l0.8-0.4L70.6,108.6z"/>
	<path class="st8" d="M69.4,106.7c-0.7-0.4-1.1-0.8-1.2-1.2c-0.1-0.4,0.1-0.8,0.7-1.1c0.5-0.3,1.2-0.4,1.8-0.4l-0.5-0.3l0.7-0.4
		l4.3,2.5c0.6,0.3,0.9,0.7,0.8,1.1c0,0.4-0.3,0.7-0.9,1.1c-0.3,0.2-0.7,0.3-1.1,0.4c-0.4,0.1-0.9,0.1-1.3,0.1l-0.1-0.5
		c0.7,0,1.3-0.1,1.8-0.3c0.4-0.2,0.6-0.4,0.6-0.7c0-0.2-0.2-0.5-0.6-0.7l-0.4-0.2c0,0.4-0.2,0.7-0.7,1s-1.2,0.4-1.9,0.4
		C70.9,107.4,70.1,107.1,69.4,106.7z M70.3,106.3c0.5,0.3,1,0.5,1.5,0.5s0.9,0,1.3-0.3c0.5-0.3,0.6-0.6,0.4-1l-2-1.2
		c-0.7-0.1-1.2,0-1.7,0.2c-0.4,0.2-0.5,0.5-0.4,0.7C69.4,105.7,69.7,106,70.3,106.3z"/>
	<path class="st8" d="M71,102c-0.1-0.1-0.2-0.2-0.2-0.2c0-0.1,0.1-0.2,0.2-0.3c0.1-0.1,0.3-0.1,0.5-0.1s0.3,0,0.4,0.1
		s0.2,0.2,0.2,0.2c0,0.1-0.1,0.2-0.2,0.3c-0.1,0.1-0.3,0.1-0.5,0.1C71.2,102.1,71.1,102,71,102z M77.4,104.7l-0.8,0.4l-4.4-2.6
		l0.8-0.4L77.4,104.7z"/>
	<path class="st8" d="M74.1,100.2l1.1,0.6l0.8-0.5l0.6,0.3l-0.8,0.5l2.7,1.6c0.2,0.1,0.3,0.2,0.5,0.2s0.3,0,0.5-0.1
		c0.1-0.1,0.2-0.1,0.3-0.2l0.6,0.4c-0.1,0.1-0.3,0.3-0.5,0.4c-0.3,0.2-0.7,0.3-1.1,0.3c-0.4,0-0.8-0.1-1.1-0.4l-2.7-1.6l-0.8,0.5
		l-0.6-0.3l0.8-0.5l-1.1-0.6L74.1,100.2z"/>
	<path class="st8" d="M84.1,100.8c-0.1,0-0.3-0.1-0.6-0.2c0,0.4-0.2,0.8-0.7,1c-0.4,0.3-0.9,0.4-1.4,0.4s-1-0.1-1.4-0.3
		c-0.5-0.3-0.6-0.6-0.5-0.9s0.5-0.7,1.1-1.1l0.7-0.4L81,99.1c-0.3-0.2-0.6-0.2-0.9-0.2c-0.3,0-0.6,0.1-0.9,0.3
		c-0.3,0.2-0.4,0.3-0.5,0.5c0,0.2,0,0.3,0.2,0.4l-0.8,0.4c-0.2-0.1-0.4-0.3-0.4-0.5s0-0.4,0.2-0.7c0.1-0.2,0.4-0.4,0.7-0.6
		c0.5-0.3,1-0.5,1.6-0.5c0.5,0,1,0.1,1.5,0.3l2,1.2c0.4,0.2,0.8,0.4,1.1,0.5h0.1L84.1,100.8z M82.3,101.2c0.2-0.1,0.4-0.3,0.5-0.5
		s0.1-0.4,0-0.5l-0.9-0.5l-0.6,0.3c-0.9,0.5-1.1,1-0.6,1.3c0.2,0.1,0.5,0.2,0.8,0.2C81.7,101.5,82,101.4,82.3,101.2z"/>
	<path class="st8" d="M86.8,99.3L86,99.7l-6.3-3.6l0.8-0.4L86.8,99.3z"/>
	<path class="st8" d="M82.4,95.4c-0.1-0.1-0.2-0.2-0.2-0.2c0-0.1,0.1-0.2,0.2-0.3c0.1-0.1,0.3-0.1,0.5-0.1s0.3,0,0.4,0.1
		c0.1,0.1,0.2,0.2,0.2,0.2c0,0.1-0.1,0.2-0.2,0.3c-0.1,0.1-0.3,0.1-0.5,0.1S82.5,95.4,82.4,95.4z M88.8,98.1L88,98.5l-4.4-2.6
		l0.8-0.4L88.8,98.1z"/>
	<path class="st8" d="M91.4,95.2c-0.2-0.1-0.4-0.2-0.7-0.1c-0.3,0-0.6,0.1-1.1,0.3c-0.5,0.2-0.9,0.3-1.2,0.4s-0.6,0.1-0.9,0.1
		c-0.3,0-0.5-0.1-0.7-0.2c-0.4-0.2-0.5-0.5-0.5-0.8c0.1-0.3,0.3-0.6,0.8-0.9s1-0.5,1.6-0.5s1.1,0.1,1.5,0.3l-0.8,0.4
		c-0.2-0.1-0.5-0.2-0.8-0.2s-0.6,0.1-0.9,0.3c-0.3,0.2-0.4,0.3-0.5,0.5c0,0.2,0,0.3,0.2,0.4s0.4,0.1,0.6,0.1c0.2,0,0.6-0.1,1.1-0.3
		c0.5-0.2,0.9-0.3,1.2-0.4c0.4-0.1,0.7-0.1,0.9-0.1c0.3,0,0.5,0.1,0.8,0.2c0.4,0.2,0.6,0.5,0.5,0.8s-0.4,0.6-0.9,0.9
		c-0.4,0.2-0.7,0.4-1.1,0.4c-0.4,0.1-0.8,0.1-1.2,0.1s-0.7-0.1-1-0.3l0.8-0.4c0.3,0.1,0.6,0.2,0.9,0.2s0.7-0.1,1-0.3
		c0.3-0.2,0.5-0.3,0.5-0.5C91.7,95.5,91.6,95.4,91.4,95.2z"/>
	<path class="st8" d="M96.3,93.9c-0.6,0.3-1.3,0.5-2.1,0.5s-1.5-0.2-2.1-0.6L92,93.7c-0.4-0.3-0.7-0.5-0.9-0.8S90.9,92.3,91,92
		c0.1-0.3,0.3-0.5,0.7-0.7c0.6-0.3,1.2-0.5,1.9-0.4c0.7,0,1.4,0.3,2.1,0.7l0.3,0.2l-3,1.7c0.4,0.2,0.9,0.4,1.4,0.4s1-0.1,1.3-0.3
		c0.3-0.2,0.4-0.3,0.5-0.5s0.1-0.3,0.1-0.5l0.8-0.1C97.3,93,97,93.5,96.3,93.9z M92.2,91.7c-0.3,0.2-0.5,0.4-0.4,0.6
		c0,0.2,0.2,0.5,0.5,0.8l2.2-1.3h-0.1c-0.4-0.2-0.8-0.3-1.2-0.3C92.9,91.4,92.5,91.5,92.2,91.7z"/>
	<path class="st8" d="M97.2,88.9c-0.1,0.1-0.3,0.1-0.4,0.2c-0.5,0.3-0.6,0.6-0.4,1l3.1,1.8l-0.8,0.4l-4.4-2.6l0.7-0.4l0.5,0.3
		c-0.1-0.4,0-0.7,0.5-1c0.1-0.1,0.3-0.1,0.4-0.2L97.2,88.9z"/>
	<path class="st8" d="M96.1,87.5c-0.1-0.1-0.2-0.2-0.2-0.2c0-0.1,0.1-0.2,0.2-0.3c0.1-0.1,0.3-0.1,0.5-0.1s0.3,0,0.4,0.1
		c0.1,0.1,0.2,0.2,0.2,0.2c0,0.1-0.1,0.2-0.2,0.3s-0.4,0.1-0.5,0.1C96.3,87.6,96.2,87.5,96.1,87.5z M102.5,90.2l-0.8,0.4L97.3,88
		l0.8-0.4L102.5,90.2z"/>
	<path class="st8" d="M100,86.5l0.6,0.3c-0.1-0.4,0.1-0.8,0.7-1.1c0.9-0.5,1.9-0.5,3,0.1l2.9,1.7l-0.8,0.4l-2.9-1.7
		c-0.3-0.2-0.6-0.3-0.9-0.3c-0.3,0-0.6,0.1-0.9,0.3c-0.2,0.1-0.4,0.3-0.5,0.5s0,0.4,0.1,0.5l3.1,1.8l-0.8,0.4l-4.4-2.6L100,86.5z"/>
	<path class="st8" d="M105.9,85.6c-0.7-0.4-1.1-0.8-1.2-1.2s0.1-0.8,0.7-1.1c0.5-0.3,1.2-0.4,1.8-0.4l-0.5-0.3l0.7-0.4l4.3,2.5
		c0.6,0.3,0.9,0.7,0.8,1.1c0,0.4-0.3,0.7-0.9,1.1c-0.3,0.2-0.7,0.3-1.1,0.4c-0.4,0.1-0.9,0.1-1.3,0.1l-0.1-0.5
		c0.7,0,1.3-0.1,1.8-0.3c0.4-0.2,0.6-0.4,0.6-0.7c0-0.2-0.2-0.5-0.6-0.7l-0.4-0.2c0,0.4-0.2,0.7-0.7,1s-1.2,0.4-1.9,0.4
		C107.4,86.3,106.6,86.1,105.9,85.6z M106.8,85.3c0.5,0.3,1,0.5,1.5,0.5s0.9,0,1.3-0.3c0.5-0.3,0.6-0.6,0.4-1l-2-1.2
		c-0.7-0.1-1.2,0-1.7,0.2c-0.4,0.2-0.5,0.5-0.4,0.7C105.9,84.6,106.2,84.9,106.8,85.3z"/>
</g>
<g class="st7">
	<path class="st8" d="M249.4,84.9l2.8-1.6l0.6,0.4l-3.6,2.1l-5.9-3.4l0.8-0.5L249.4,84.9z"/>
	<path class="st8" d="M256.4,81.6c-0.1,0-0.3-0.1-0.6-0.2c0,0.4-0.2,0.8-0.7,1c-0.4,0.3-0.9,0.4-1.4,0.4s-1-0.1-1.4-0.3
		c-0.5-0.3-0.6-0.6-0.5-0.9c0.1-0.4,0.5-0.7,1.1-1.1l0.7-0.4l-0.3-0.2c-0.3-0.2-0.6-0.2-0.9-0.2c-0.3,0-0.6,0.1-0.9,0.3
		c-0.3,0.2-0.4,0.3-0.5,0.5c0,0.2,0,0.3,0.2,0.4l-0.8,0.4c-0.2-0.1-0.4-0.3-0.4-0.5s0-0.4,0.2-0.7c0.1-0.2,0.4-0.4,0.7-0.6
		c0.5-0.3,1-0.5,1.6-0.5c0.5,0,1,0.1,1.5,0.3l2,1.2c0.4,0.2,0.8,0.4,1.1,0.5h0.1L256.4,81.6z M254.6,82c0.2-0.1,0.4-0.3,0.5-0.5
		s0.1-0.4,0-0.5l-0.9-0.5l-0.6,0.3c-0.9,0.5-1.1,1-0.6,1.3c0.2,0.1,0.5,0.2,0.8,0.2S254.3,82.2,254.6,82z"/>
	<path class="st8" d="M258.6,79.2l-2.3-2.6l0.8-0.4l2.8,3.5l-0.6,0.3l-6-1.6l0.8-0.4L258.6,79.2z"/>
	<path class="st8" d="M266.3,76c-0.6,0.3-1.3,0.5-2.1,0.5s-1.5-0.2-2.1-0.6l-0.1-0.1c-0.4-0.3-0.7-0.5-0.9-0.8s-0.2-0.6-0.1-0.9
		c0.1-0.3,0.3-0.5,0.7-0.7c0.6-0.3,1.2-0.5,1.9-0.5s1.4,0.3,2.1,0.7l0.3,0.2l-3,1.7c0.4,0.2,0.9,0.4,1.4,0.4s1-0.1,1.3-0.3
		c0.3-0.2,0.4-0.3,0.5-0.5s0.1-0.3,0.1-0.5l0.8-0.1C267.3,75.1,267,75.6,266.3,76z M262.2,73.8c-0.3,0.2-0.5,0.4-0.4,0.6
		c0,0.2,0.2,0.5,0.5,0.8l2.2-1.3h-0.1c-0.4-0.2-0.8-0.3-1.2-0.3C262.9,73.5,262.5,73.6,262.2,73.8z"/>
	<path class="st8" d="M269.2,74.2l-3.8-2.2l-0.7,0.4l-0.6-0.3l0.7-0.4l-0.5-0.3c-0.5-0.3-0.7-0.6-0.7-0.9s0.2-0.6,0.7-0.8
		c0.2-0.1,0.4-0.2,0.6-0.3l0.6,0.4c-0.2,0.1-0.3,0.1-0.4,0.2c-0.2,0.1-0.4,0.3-0.4,0.5s0.1,0.3,0.4,0.5l0.5,0.3l0.9-0.5l0.6,0.3
		l-0.9,0.5l3.8,2.2L269.2,74.2z"/>
	<path class="st8" d="M272.1,72.6l-3.8-2.2l-0.7,0.4l-0.6-0.3l0.7-0.4l-0.5-0.3c-0.5-0.3-0.7-0.6-0.7-0.9s0.2-0.6,0.7-0.8
		c0.2-0.1,0.4-0.2,0.6-0.3l0.6,0.4c-0.2,0.1-0.3,0.1-0.4,0.2c-0.2,0.1-0.4,0.3-0.4,0.5s0.1,0.3,0.4,0.5l0.5,0.3l0.9-0.5l0.6,0.3
		l-0.9,0.5l3.8,2.2L272.1,72.6z"/>
	<path class="st8" d="M276.5,70.1c-0.6,0.3-1.3,0.5-2.1,0.5s-1.5-0.2-2.1-0.6l-0.1-0.1c-0.4-0.3-0.7-0.5-0.9-0.8s-0.2-0.6-0.1-0.9
		c0.1-0.3,0.3-0.5,0.7-0.7c0.6-0.3,1.2-0.5,1.9-0.4c0.7,0,1.4,0.3,2.1,0.7l0.3,0.2l-3,1.7c0.4,0.2,0.9,0.4,1.4,0.4s1-0.1,1.3-0.3
		c0.3-0.2,0.4-0.3,0.5-0.5s0.1-0.3,0.1-0.5l0.8-0.1C277.5,69.2,277.2,69.7,276.5,70.1z M272.4,67.9c-0.3,0.2-0.5,0.4-0.4,0.6
		c0,0.2,0.2,0.5,0.5,0.8l2.2-1.3h-0.1c-0.4-0.2-0.8-0.3-1.2-0.3C273.1,67.6,272.7,67.7,272.4,67.9z"/>
	<path class="st8" d="M278.2,66.7v0.6l1.6,0.9l-0.8,0.4l-6.3-3.6l0.8-0.4l3.8,2.2l-0.1-0.5l-0.1-1.6l0.9-0.5l0.1,2.1l4.5,0.4
		l-0.9,0.5L278.2,66.7z"/>
	<path class="st8" d="M278.8,62.3l1.1,0.6l0.8-0.5l0.6,0.3l-0.8,0.5l2.7,1.6c0.2,0.1,0.3,0.2,0.5,0.2s0.3,0,0.5-0.1
		c0.1-0.1,0.2-0.1,0.3-0.2l0.6,0.4c-0.1,0.1-0.3,0.3-0.5,0.4c-0.3,0.2-0.7,0.3-1.1,0.3c-0.4,0-0.8-0.1-1.1-0.4l-2.7-1.6l-0.8,0.5
		l-0.6-0.3l0.8-0.5l-1.1-0.6L278.8,62.3z"/>
	<path class="st8" d="M280.4,61.3c-0.1-0.1-0.2-0.2-0.2-0.2c0-0.1,0.1-0.2,0.2-0.3c0.1-0.1,0.3-0.1,0.5-0.1s0.3,0,0.4,0.1
		c0.1,0.1,0.2,0.2,0.2,0.2c0,0.1-0.1,0.2-0.2,0.3c-0.1,0.1-0.3,0.1-0.5,0.1C280.7,61.4,280.6,61.4,280.4,61.3z M286.9,64l-0.8,0.4
		l-4.4-2.6l0.8-0.4L286.9,64z"/>
	<path class="st8" d="M288.5,61.9l-2.3-2.6l0.8-0.4l2.8,3.5l-0.6,0.3l-6-1.6l0.8-0.4L288.5,61.9z"/>
	<path class="st8" d="M286.6,57.8c-0.1-0.1-0.2-0.2-0.2-0.2c0-0.1,0.1-0.2,0.2-0.3c0.1-0.1,0.3-0.1,0.5-0.1s0.3,0,0.4,0.1
		c0.1,0.1,0.2,0.2,0.2,0.2c0,0.1-0.1,0.2-0.2,0.3c-0.1,0.1-0.3,0.1-0.5,0.1C286.8,57.9,286.7,57.8,286.6,57.8z M293,60.5l-0.8,0.4
		l-4.4-2.6l0.8-0.4L293,60.5z"/>
	<path class="st8" d="M289.7,56l1.1,0.6l0.8-0.5l0.6,0.3l-0.8,0.5l2.7,1.6c0.2,0.1,0.3,0.2,0.5,0.2s0.3,0,0.5-0.1
		c0.1-0.1,0.2-0.1,0.3-0.2l0.6,0.4c-0.1,0.1-0.3,0.3-0.5,0.4c-0.3,0.2-0.7,0.3-1.1,0.3c-0.4,0-0.8-0.1-1.1-0.4l-2.7-1.6l-0.8,0.5
		l-0.6-0.3l0.8-0.5l-1.1-0.6L289.7,56z"/>
	<path class="st8" d="M298.9,57.2c-0.6,0.3-1.3,0.5-2.1,0.5s-1.5-0.2-2.1-0.6l-0.1-0.1c-0.4-0.3-0.7-0.5-0.9-0.8s-0.2-0.6-0.1-0.9
		c0.1-0.3,0.3-0.5,0.7-0.7c0.6-0.3,1.2-0.5,1.9-0.4c0.7,0,1.4,0.3,2.1,0.7l0.3,0.2l-3,1.7c0.4,0.2,0.9,0.4,1.4,0.4s1-0.1,1.3-0.3
		c0.3-0.2,0.4-0.3,0.5-0.5s0.1-0.3,0.1-0.5l0.8-0.1C299.9,56.3,299.6,56.8,298.9,57.2z M294.8,55c-0.3,0.2-0.5,0.4-0.4,0.6
		c0,0.2,0.2,0.5,0.5,0.8l2.2-1.3H297c-0.4-0.2-0.8-0.3-1.2-0.3C295.5,54.7,295.1,54.8,294.8,55z"/>
	<path class="st8" d="M296.9,51.9l1.1,0.6l0.8-0.5l0.6,0.3l-0.8,0.5l2.7,1.6c0.2,0.1,0.3,0.2,0.5,0.2s0.3,0,0.5-0.1
		c0.1-0.1,0.2-0.1,0.3-0.2l0.6,0.4c-0.1,0.1-0.3,0.3-0.5,0.4c-0.3,0.2-0.7,0.3-1.1,0.3c-0.4,0-0.8-0.1-1.1-0.4l-2.7-1.6l-0.8,0.5
		l-0.6-0.3l0.8-0.5l-1.1-0.6L296.9,51.9z"/>
</g>
<g class="st7">
	<path class="st8" d="M94.6,210c0.6,0.3,1,0.7,1.2,1.1c0.2,0.4,0.3,0.7,0.2,1.1c-0.1,0.3-0.4,0.7-0.9,0.9c-0.5,0.3-1,0.4-1.6,0.5
		l0.2,0.6l-0.6,0.3l-0.4-0.9c-1,0-2.1-0.3-3-0.9l-0.3-0.2c-0.6-0.3-1-0.7-1.2-1c-0.2-0.4-0.3-0.7-0.2-1.1c0.1-0.3,0.4-0.7,0.9-0.9
		c0.6-0.3,1.3-0.5,2-0.6l-0.2-0.6l0.6-0.3l0.4,1c0.9,0.1,1.7,0.3,2.5,0.8L94.6,210z M90.5,212.3c0.7,0.4,1.3,0.6,2,0.7l-1.4-3.5
		c-0.6,0-1.1,0.1-1.6,0.4c-0.5,0.3-0.7,0.6-0.6,1c0.1,0.4,0.5,0.8,1.1,1.2L90.5,212.3z M93.4,210.2c-0.5-0.3-1-0.5-1.5-0.6l1.3,3.4
		c0.4,0,0.8-0.2,1.1-0.4c0.5-0.3,0.7-0.6,0.6-1c-0.1-0.4-0.5-0.8-1.2-1.2L93.4,210.2z"/>
	<path class="st8" d="M96,209.8c-0.7-0.4-1.1-0.8-1.2-1.2c-0.1-0.4,0.1-0.8,0.7-1.1c0.5-0.3,1.2-0.4,1.8-0.4l-0.5-0.3l0.7-0.4
		l4.3,2.5c0.6,0.3,0.9,0.7,0.8,1.1c0,0.4-0.3,0.7-0.9,1.1c-0.3,0.2-0.7,0.3-1.1,0.4s-0.9,0.1-1.3,0.1l-0.1-0.5
		c0.7,0,1.3-0.1,1.8-0.3c0.4-0.2,0.6-0.4,0.6-0.7c0-0.2-0.2-0.5-0.6-0.7l-0.4-0.2c0,0.4-0.2,0.7-0.7,1s-1.2,0.4-1.9,0.4
		C97.4,210.5,96.7,210.2,96,209.8z M96.8,209.4c0.5,0.3,1,0.5,1.5,0.5s0.9,0,1.3-0.3c0.5-0.3,0.6-0.6,0.4-1l-2-1.2
		c-0.7-0.1-1.2,0-1.7,0.2c-0.4,0.2-0.5,0.5-0.4,0.7C95.9,208.8,96.3,209.1,96.8,209.4z"/>
	<path class="st8" d="M105.1,207.3c-0.6,0.3-1.3,0.5-2.1,0.5s-1.5-0.2-2.1-0.6l-0.1-0.1c-0.4-0.3-0.7-0.5-0.9-0.8s-0.2-0.6-0.1-0.9
		c0.1-0.3,0.3-0.5,0.7-0.7c0.6-0.3,1.2-0.5,1.9-0.4c0.7,0,1.4,0.3,2.1,0.7l0.3,0.2l-3,1.7c0.4,0.2,0.9,0.4,1.4,0.4s1-0.1,1.3-0.3
		s0.4-0.3,0.5-0.5s0.1-0.3,0.1-0.5l0.8-0.1C106.1,206.3,105.8,206.8,105.1,207.3z M101,205c-0.3,0.2-0.5,0.4-0.4,0.6
		c0,0.2,0.2,0.5,0.5,0.8l2.2-1.3h-0.1c-0.4-0.2-0.8-0.3-1.2-0.3C101.7,204.8,101.3,204.8,101,205z"/>
	<path class="st8" d="M107.2,203.3c-0.4-0.3-0.7-0.5-0.9-0.8s-0.2-0.6-0.1-0.9c0.1-0.3,0.4-0.5,0.8-0.8c0.6-0.3,1.3-0.5,2.1-0.5
		s1.5,0.2,2.2,0.6h0.1c0.4,0.2,0.7,0.5,0.9,0.8s0.2,0.6,0.1,0.9c-0.1,0.3-0.4,0.5-0.8,0.8c-0.6,0.3-1.3,0.5-2.1,0.5
		C108.7,204,108,203.7,107.2,203.3L107.2,203.3z M108.1,202.9c0.5,0.3,1,0.4,1.5,0.5c0.5,0,1-0.1,1.4-0.3s0.5-0.5,0.5-0.8
		c-0.1-0.3-0.4-0.6-0.9-0.9c-0.5-0.3-1-0.4-1.5-0.5c-0.5,0-1,0.1-1.4,0.3s-0.5,0.5-0.5,0.8C107.2,202.3,107.5,202.6,108.1,202.9z"/>
	<path class="st8" d="M110.8,198.8l0.5,0.3c-0.1-0.4,0.2-0.8,0.7-1.1c0.6-0.4,1.3-0.5,2-0.3c-0.1-0.2,0-0.4,0.1-0.6
		c0.1-0.2,0.3-0.4,0.6-0.6c1-0.6,2-0.6,3,0l3,1.7l-0.8,0.4l-2.9-1.7c-0.3-0.2-0.6-0.3-0.9-0.3c-0.3,0-0.6,0.1-1,0.3
		c-0.3,0.2-0.4,0.3-0.5,0.6c0,0.2,0.1,0.4,0.4,0.6l2.9,1.7l-0.8,0.4l-2.9-1.7c-0.6-0.4-1.3-0.4-1.9,0c-0.5,0.3-0.6,0.6-0.4,1
		l3.2,1.9l-0.8,0.4l-4.4-2.6L110.8,198.8z"/>
	<path class="st8" d="M123.3,195.3c-0.2-0.1-0.4-0.2-0.7-0.1c-0.3,0-0.6,0.1-1.1,0.3s-0.9,0.3-1.2,0.4s-0.6,0.1-0.9,0.1
		c-0.3,0-0.5-0.1-0.7-0.2c-0.4-0.2-0.5-0.5-0.5-0.8c0.1-0.3,0.3-0.6,0.8-0.9c0.5-0.3,1-0.5,1.6-0.5s1.1,0.1,1.5,0.3l-0.8,0.4
		c-0.2-0.1-0.5-0.2-0.8-0.2s-0.6,0.1-0.9,0.3c-0.3,0.2-0.4,0.3-0.5,0.5c0,0.2,0,0.3,0.2,0.4c0.2,0.1,0.4,0.1,0.6,0.1
		c0.2,0,0.6-0.1,1.1-0.3s0.9-0.3,1.2-0.4c0.4-0.1,0.7-0.1,0.9-0.1c0.3,0,0.5,0.1,0.8,0.3c0.4,0.2,0.6,0.5,0.5,0.8s-0.4,0.6-0.9,0.9
		c-0.4,0.2-0.7,0.4-1.1,0.4c-0.4,0.1-0.8,0.1-1.2,0.1s-0.7-0.1-1-0.3l0.8-0.4c0.3,0.1,0.6,0.2,0.9,0.2c0.3,0,0.7-0.1,1-0.3
		s0.5-0.3,0.5-0.5C123.5,195.6,123.5,195.4,123.3,195.3z"/>
	<path class="st8" d="M130.9,192.4c-0.7,0.4-1.5,0.6-2.4,0.5c0.1,0.2,0,0.5-0.2,0.7c-0.2,0.3-0.5,0.5-0.9,0.7
		c-0.5,0.3-0.9,0.4-1.4,0.4s-0.9-0.1-1.4-0.3c-0.4-0.2-0.6-0.5-0.5-0.8s0.4-0.6,1-1l0.9-0.5l-0.3-0.2c-0.3-0.2-0.6-0.3-0.9-0.3
		c-0.3,0-0.6,0.1-0.9,0.2c-0.3,0.2-0.5,0.3-0.5,0.5s0,0.4,0.3,0.5l-0.8,0.4c-0.4-0.2-0.5-0.5-0.5-0.8c0.1-0.3,0.4-0.6,0.9-0.9
		c0.3-0.2,0.7-0.3,1-0.4c0.4-0.1,0.7-0.1,1.1,0c0-0.2,0-0.4,0.1-0.6s0.3-0.4,0.6-0.6c0.6-0.3,1.2-0.5,1.9-0.5c0.7,0,1.3,0.2,2,0.6
		l0.5,0.3l-3,1.7c0.5,0.3,1,0.4,1.5,0.4s1-0.1,1.4-0.3s0.7-0.5,0.8-0.8l0.1-0.2l0.8,0.2C131.8,191.6,131.5,192,130.9,192.4z
		 M127,193.9c0.2-0.1,0.4-0.3,0.5-0.4c0.1-0.2,0.2-0.4,0.2-0.5l-1-0.6l-0.9,0.5c-0.3,0.2-0.5,0.4-0.5,0.6c0,0.2,0,0.4,0.3,0.5
		c0.2,0.1,0.5,0.2,0.7,0.2C126.5,194.1,126.7,194,127,193.9z M126.7,190.2c-0.3,0.2-0.5,0.4-0.4,0.7c0,0.3,0.2,0.5,0.5,0.7l2.2-1.3
		l-0.1-0.1c-0.4-0.2-0.7-0.3-1.1-0.3C127.4,189.9,127.1,190,126.7,190.2z"/>
	<path class="st8" d="M128.8,187.1l1.1,0.6l0.8-0.5l0.6,0.3l-0.8,0.5l2.7,1.6c0.2,0.1,0.3,0.2,0.5,0.2s0.3,0,0.5-0.1
		c0.1-0.1,0.2-0.1,0.3-0.2l0.6,0.4c-0.1,0.1-0.3,0.3-0.5,0.4c-0.3,0.2-0.7,0.3-1.1,0.3c-0.4,0-0.8-0.1-1.1-0.4l-2.7-1.6l-0.8,0.5
		l-0.6-0.3l0.8-0.5l-1.1-0.6L128.8,187.1z"/>
	<path class="st8" d="M132.3,186.3l0.6,0.3c-0.1-0.4,0.1-0.8,0.7-1.1c0.9-0.5,1.9-0.5,3,0.1l2.9,1.7l-0.8,0.4l-2.9-1.7
		c-0.3-0.2-0.6-0.3-0.9-0.3c-0.3,0-0.6,0.1-0.9,0.3c-0.2,0.1-0.4,0.3-0.5,0.5s0,0.4,0.1,0.5l3.1,1.8l-0.8,0.4l-4.4-2.6L132.3,186.3z
		"/>
	<path class="st8" d="M135.1,183.4c-0.1-0.1-0.2-0.2-0.2-0.2c0-0.1,0.1-0.2,0.2-0.3c0.1-0.1,0.3-0.1,0.5-0.1s0.3,0,0.4,0.1
		c0.1,0.1,0.2,0.2,0.2,0.2s-0.1,0.2-0.2,0.3c-0.1,0.1-0.3,0.1-0.5,0.1C135.4,183.5,135.2,183.4,135.1,183.4z M141.5,186.1l-0.8,0.4
		l-4.4-2.6l0.8-0.4L141.5,186.1z"/>
	<path class="st8" d="M139,182.5l0.6,0.3c-0.1-0.4,0.1-0.8,0.7-1.1c0.9-0.5,1.9-0.5,3,0.1l2.9,1.7l-0.8,0.4l-2.9-1.7
		c-0.3-0.2-0.6-0.3-0.9-0.3c-0.3,0-0.6,0.1-0.9,0.3c-0.2,0.1-0.4,0.3-0.5,0.5s0,0.4,0.1,0.5l3.1,1.8l-0.8,0.4l-4.4-2.6L139,182.5z"
		/>
	<path class="st8" d="M144.9,181.5c-0.7-0.4-1.1-0.8-1.2-1.2c-0.1-0.4,0.1-0.8,0.7-1.1c0.5-0.3,1.2-0.4,1.8-0.4l-0.5-0.3l0.7-0.4
		l4.3,2.5c0.6,0.3,0.9,0.7,0.8,1.1c0,0.4-0.3,0.7-0.9,1.1c-0.3,0.2-0.7,0.3-1.1,0.4c-0.4,0.1-0.9,0.1-1.3,0.1l-0.1-0.5
		c0.7,0,1.3-0.1,1.8-0.3c0.4-0.2,0.6-0.4,0.6-0.7s-0.2-0.5-0.6-0.7l-0.4-0.2c0,0.4-0.2,0.7-0.7,1s-1.2,0.4-1.9,0.4
		C146.4,182.2,145.7,182,144.9,181.5z M145.8,181.2c0.5,0.3,1,0.5,1.5,0.5s0.9,0,1.3-0.3c0.5-0.3,0.6-0.6,0.4-1l-2-1.2
		c-0.7-0.1-1.2,0-1.7,0.2c-0.4,0.2-0.5,0.5-0.4,0.7C144.9,180.5,145.2,180.8,145.8,181.2z"/>
</g>
<g class="st7">
	<path class="st8" d="M222.4,172.8c-0.9,0.3-1.6,0.4-2.2,0.4c-0.6,0-1.1-0.1-1.5-0.3c-0.5-0.3-0.7-0.6-0.6-1c0.1-0.4,0.4-0.8,1-1.1
		c0.4-0.2,0.9-0.4,1.3-0.5c0.5-0.1,0.9-0.1,1.4-0.1c0.5,0.1,0.8,0.2,1.2,0.4l-0.8,0.5c-0.4-0.2-0.8-0.3-1.2-0.3s-0.9,0.1-1.3,0.4
		c-0.4,0.2-0.6,0.4-0.7,0.7c0,0.2,0.1,0.4,0.4,0.6c0.2,0.1,0.6,0.2,0.9,0.2c0.4,0,0.9-0.1,1.5-0.3s1.2-0.3,1.6-0.4
		c0.4-0.1,0.9-0.1,1.2,0c0.4,0.1,0.7,0.2,1,0.3c0.5,0.3,0.7,0.6,0.6,1c-0.1,0.4-0.4,0.8-1.1,1.1c-0.4,0.2-0.9,0.4-1.4,0.5
		s-1,0.1-1.5,0.1s-0.9-0.2-1.2-0.4l0.8-0.5c0.4,0.2,0.8,0.3,1.3,0.3s0.9-0.2,1.4-0.4c0.4-0.2,0.7-0.5,0.7-0.7
		c0.1-0.2-0.1-0.4-0.4-0.6c-0.3-0.2-0.6-0.2-1-0.2C223.6,172.5,223.1,172.6,222.4,172.8z"/>
	<path class="st8" d="M223.7,168.8l1.1,0.6l0.8-0.5l0.6,0.3l-0.8,0.5l2.7,1.6c0.2,0.1,0.3,0.2,0.5,0.2s0.3,0,0.5-0.1
		c0.1-0.1,0.2-0.1,0.3-0.2l0.6,0.4c-0.1,0.1-0.3,0.3-0.5,0.4c-0.3,0.2-0.7,0.3-1.1,0.3c-0.4,0-0.8-0.1-1.1-0.4l-2.7-1.6l-0.8,0.5
		l-0.6-0.3l0.8-0.5l-1.1-0.6L223.7,168.8z"/>
	<path class="st8" d="M229.3,167.6c-0.1,0.1-0.3,0.1-0.4,0.2c-0.5,0.3-0.6,0.6-0.4,1l3.1,1.8l-0.8,0.4l-4.4-2.6l0.7-0.4l0.5,0.3
		c-0.1-0.4,0-0.7,0.5-1c0.1-0.1,0.3-0.1,0.4-0.2L229.3,167.6z"/>
	<path class="st8" d="M236.4,167.8c-0.1,0-0.3-0.1-0.6-0.2c0,0.4-0.2,0.8-0.7,1c-0.4,0.3-0.9,0.4-1.4,0.4s-1-0.1-1.4-0.3
		c-0.5-0.3-0.6-0.6-0.5-0.9c0.1-0.3,0.5-0.7,1.1-1.1l0.7-0.4l-0.3-0.2c-0.3-0.2-0.6-0.2-0.9-0.2c-0.3,0-0.6,0.1-0.9,0.3
		c-0.3,0.2-0.4,0.3-0.5,0.5c0,0.2,0,0.3,0.2,0.4l-0.8,0.4c-0.2-0.1-0.4-0.3-0.4-0.5s0-0.4,0.2-0.7c0.2-0.2,0.4-0.4,0.7-0.6
		c0.5-0.3,1-0.5,1.6-0.5c0.5,0,1,0.1,1.5,0.3l2,1.2c0.4,0.2,0.8,0.4,1.1,0.5h0.1L236.4,167.8z M234.5,168.2c0.2-0.1,0.4-0.3,0.5-0.5
		s0.1-0.4,0-0.5l-0.9-0.5l-0.6,0.3c-0.9,0.5-1.1,1-0.6,1.3c0.2,0.1,0.5,0.2,0.8,0.2C234,168.5,234.3,168.4,234.5,168.2z"/>
	<path class="st8" d="M233.7,163l1.1,0.6l0.8-0.5l0.6,0.3l-0.8,0.5l2.7,1.6c0.2,0.1,0.3,0.2,0.5,0.2s0.3,0,0.5-0.1
		c0.1-0.1,0.2-0.1,0.3-0.2l0.6,0.4c-0.1,0.1-0.3,0.3-0.5,0.4c-0.3,0.2-0.7,0.3-1.1,0.3c-0.4,0-0.8-0.1-1.1-0.4l-2.7-1.6l-0.8,0.5
		l-0.6-0.3l0.8-0.5l-1.1-0.6L233.7,163z"/>
	<path class="st8" d="M242.9,164.2c-0.6,0.3-1.3,0.5-2.1,0.5s-1.5-0.2-2.1-0.6l-0.1-0.1c-0.4-0.3-0.7-0.5-0.9-0.8s-0.2-0.6-0.1-0.9
		s0.3-0.5,0.7-0.7c0.6-0.3,1.2-0.5,1.9-0.5s1.4,0.3,2.1,0.7l0.3,0.2l-3,1.7c0.4,0.2,0.9,0.4,1.4,0.4s1-0.1,1.3-0.3s0.4-0.3,0.5-0.5
		s0.1-0.3,0.1-0.5l0.8-0.1C243.9,163.3,243.6,163.8,242.9,164.2z M238.8,161.9c-0.3,0.2-0.5,0.4-0.4,0.6c0,0.2,0.2,0.5,0.5,0.8
		l2.2-1.3H241c-0.4-0.2-0.8-0.3-1.2-0.3C239.5,161.7,239.1,161.8,238.8,161.9z"/>
	<path class="st8" d="M243,161.4c-0.7-0.4-1.1-0.8-1.2-1.2c-0.1-0.4,0.1-0.8,0.7-1.1c0.5-0.3,1.2-0.4,1.8-0.4l-0.5-0.3l0.7-0.4
		l4.3,2.5c0.6,0.3,0.9,0.7,0.8,1.1c0,0.4-0.3,0.7-0.9,1.1c-0.3,0.2-0.7,0.3-1.1,0.4c-0.4,0.1-0.9,0.1-1.3,0.1l-0.1-0.5
		c0.7,0,1.3-0.1,1.8-0.3c0.4-0.2,0.6-0.4,0.6-0.7c0-0.2-0.2-0.5-0.6-0.7l-0.4-0.2c0,0.4-0.2,0.7-0.7,1s-1.2,0.4-1.9,0.4
		S243.7,161.8,243,161.4z M243.8,161c0.5,0.3,1,0.5,1.5,0.5s0.9,0,1.3-0.3c0.5-0.3,0.6-0.6,0.4-1l-2-1.2c-0.7-0.1-1.2,0-1.7,0.2
		c-0.4,0.2-0.5,0.5-0.4,0.7S243.3,160.7,243.8,161z"/>
	<path class="st8" d="M244.5,156.7c-0.1-0.1-0.2-0.2-0.2-0.2c0-0.1,0.1-0.2,0.2-0.3c0.1-0.1,0.3-0.1,0.5-0.1s0.3,0,0.4,0.1
		s0.2,0.2,0.2,0.2s-0.1,0.2-0.2,0.3c-0.1,0.1-0.3,0.1-0.5,0.1C244.8,156.8,244.7,156.7,244.5,156.7z M250.9,159.4l-0.8,0.4l-4.4-2.6
		l0.8-0.4L250.9,159.4z"/>
</g>
<g class="st7">
	<path class="st8" d="M310.6,147.7l-5.9-3.4l1.7-1c0.5-0.3,1.1-0.5,1.7-0.6c0.6-0.1,1.3-0.1,1.9,0s1.2,0.3,1.8,0.6l0.4,0.2
		c0.6,0.3,0.9,0.7,1.1,1c0.2,0.4,0.2,0.7,0,1.1c-0.2,0.4-0.5,0.7-1.1,1L310.6,147.7z M306.1,144.2l4.7,2.7l0.8-0.5
		c0.6-0.4,0.9-0.7,0.9-1.1c0-0.4-0.4-0.8-1.1-1.2l-0.3-0.2c-0.7-0.4-1.4-0.6-2.1-0.6c-0.7,0-1.3,0.1-1.9,0.5L306.1,144.2z"/>
	<path class="st8" d="M318.8,143c-0.1,0-0.3-0.1-0.6-0.2c0,0.4-0.2,0.8-0.7,1c-0.4,0.3-0.9,0.4-1.4,0.4s-1-0.1-1.4-0.3
		c-0.5-0.3-0.6-0.6-0.5-0.9c0.1-0.4,0.5-0.7,1.1-1.1l0.7-0.4l-0.3-0.2c-0.3-0.2-0.6-0.2-0.9-0.2c-0.3,0-0.6,0.1-0.9,0.3
		c-0.3,0.2-0.4,0.3-0.5,0.5c0,0.2,0,0.3,0.2,0.4l-0.8,0.4c-0.2-0.1-0.4-0.3-0.4-0.5s0-0.4,0.2-0.7c0.1-0.2,0.4-0.4,0.7-0.6
		c0.5-0.3,1-0.5,1.6-0.5c0.5,0,1,0.1,1.5,0.3l2,1.2c0.4,0.2,0.8,0.4,1.1,0.5h0.1L318.8,143z M316.9,143.4c0.2-0.1,0.4-0.3,0.5-0.5
		s0.1-0.4,0-0.5l-0.9-0.5l-0.6,0.3c-0.9,0.5-1.1,1-0.6,1.3c0.2,0.1,0.5,0.2,0.8,0.2C316.4,143.6,316.7,143.5,316.9,143.4z"/>
	<path class="st8" d="M316.2,138.1l1.1,0.6l0.8-0.5l0.6,0.3l-0.8,0.5l2.7,1.6c0.2,0.1,0.3,0.2,0.5,0.2s0.3,0,0.5-0.1
		c0.1-0.1,0.2-0.1,0.3-0.2l0.6,0.4c-0.1,0.1-0.3,0.3-0.5,0.4c-0.3,0.2-0.7,0.3-1.1,0.3c-0.4,0-0.8-0.1-1.1-0.4l-2.7-1.6l-0.8,0.5
		l-0.6-0.3l0.8-0.5l-1.1-0.6L316.2,138.1z"/>
	<path class="st8" d="M326.1,138.7c-0.1,0-0.3-0.1-0.6-0.2c0,0.4-0.2,0.8-0.7,1c-0.4,0.3-0.9,0.4-1.4,0.4s-1-0.1-1.4-0.3
		c-0.5-0.3-0.6-0.6-0.5-0.9c0.1-0.4,0.5-0.7,1.1-1.1l0.7-0.4L323,137c-0.3-0.2-0.6-0.2-0.9-0.2c-0.3,0-0.6,0.1-0.9,0.3
		c-0.3,0.2-0.4,0.3-0.5,0.5c0,0.2,0,0.3,0.2,0.4l-0.8,0.4c-0.2-0.1-0.4-0.3-0.4-0.5s0-0.4,0.2-0.7c0.2-0.2,0.4-0.4,0.7-0.6
		c0.5-0.3,1-0.5,1.6-0.5c0.5,0,1,0.1,1.5,0.3l2,1.2c0.4,0.2,0.8,0.4,1.1,0.5h0.1L326.1,138.7z M324.3,139.1c0.2-0.1,0.4-0.3,0.5-0.5
		s0.1-0.4,0-0.5l-0.9-0.5l-0.6,0.3c-0.9,0.5-1.1,1-0.6,1.3c0.2,0.1,0.5,0.2,0.8,0.2S324,139.3,324.3,139.1z"/>
	<path class="st8" d="M325.5,136.5c-0.7-0.4-1.1-0.8-1.1-1.2c-0.1-0.4,0.1-0.8,0.7-1.1c0.5-0.3,1.1-0.4,1.8-0.4l-2.3-1.3l0.8-0.4
		l6.3,3.6l-0.7,0.4l-0.5-0.3c0.1,0.4-0.2,0.7-0.7,1.1c-0.5,0.3-1.1,0.4-1.9,0.4C327,137.1,326.2,136.9,325.5,136.5L325.5,136.5z
		 M326.4,136.1c0.5,0.3,1,0.5,1.5,0.5s0.9,0,1.3-0.3c0.5-0.3,0.6-0.6,0.4-1l-2-1.2c-0.6-0.1-1.2,0-1.7,0.2c-0.4,0.2-0.5,0.5-0.4,0.8
		C325.5,135.5,325.8,135.8,326.4,136.1z"/>
	<path class="st8" d="M331.1,131.5c-0.1,0.1-0.3,0.1-0.4,0.2c-0.5,0.3-0.6,0.6-0.4,1l3.1,1.8l-0.8,0.4l-4.4-2.6l0.7-0.4l0.5,0.3
		c-0.1-0.4,0-0.7,0.5-1c0.1-0.1,0.3-0.1,0.4-0.2L331.1,131.5z"/>
	<path class="st8" d="M337.4,132.3c-0.6,0.3-1.3,0.5-2.1,0.5s-1.5-0.2-2.1-0.6l-0.1-0.1c-0.4-0.3-0.7-0.5-0.9-0.8s-0.2-0.6-0.1-0.9
		c0.1-0.3,0.3-0.5,0.7-0.7c0.6-0.3,1.2-0.5,1.9-0.4c0.7,0,1.4,0.3,2.1,0.7l0.3,0.2l-3,1.7c0.4,0.2,0.9,0.4,1.4,0.4s1-0.1,1.3-0.3
		s0.4-0.3,0.5-0.5s0.1-0.3,0.1-0.5l0.8-0.1C338.4,131.4,338.1,131.9,337.4,132.3z M333.3,130.1c-0.3,0.2-0.5,0.4-0.4,0.6
		c0,0.2,0.2,0.5,0.5,0.8l2.2-1.3h-0.1c-0.4-0.2-0.8-0.3-1.2-0.3C334,129.8,333.6,129.9,333.3,130.1z"/>
	<path class="st8" d="M340.3,129.4l-2.3-2.6l0.8-0.4l2.8,3.5l-0.6,0.3l-6-1.6l0.8-0.4L340.3,129.4z"/>
	<path class="st8" d="M345.8,127.5c-0.6,0.3-1.3,0.5-2.1,0.5s-1.5-0.2-2.1-0.6l-0.1-0.1c-0.4-0.3-0.7-0.5-0.9-0.8s-0.2-0.6-0.1-0.9
		c0.1-0.3,0.3-0.5,0.7-0.7c0.6-0.3,1.2-0.5,1.9-0.5s1.4,0.3,2.1,0.7l0.3,0.2l-3,1.7c0.4,0.2,0.9,0.4,1.4,0.4s1-0.1,1.3-0.3
		s0.4-0.3,0.5-0.5s0.1-0.3,0.1-0.5l0.8-0.1C346.8,126.5,346.6,127,345.8,127.5z M341.8,125.2c-0.3,0.2-0.5,0.4-0.4,0.6
		c0,0.2,0.2,0.5,0.5,0.8l2.2-1.3H344c-0.4-0.2-0.8-0.3-1.2-0.3C342.4,125,342.1,125,341.8,125.2z"/>
	<path class="st8" d="M344.6,122.9l0.6,0.3c-0.1-0.4,0.1-0.8,0.7-1.1c0.9-0.5,1.9-0.5,3,0.1l2.9,1.7l-0.8,0.4l-2.9-1.7
		c-0.3-0.2-0.6-0.3-0.9-0.3c-0.3,0-0.6,0.1-0.9,0.3c-0.2,0.1-0.4,0.3-0.5,0.5s0,0.4,0.1,0.5l3.1,1.8l-0.8,0.4l-4.4-2.6L344.6,122.9z
		"/>
</g>
<g class="st7">
	<path class="st8" d="M353.3,87.9l2.3,1.3l-0.8,0.5l-5.9-3.4l2.2-1.3c0.7-0.4,1.3-0.6,2-0.6s1.3,0.1,1.9,0.4
		c0.6,0.3,0.8,0.7,0.8,1.1c-0.1,0.4-0.4,0.8-1.1,1.2L353.3,87.9z M352.6,87.5l1.4-0.8c0.4-0.2,0.6-0.5,0.7-0.7
		c0-0.2-0.1-0.5-0.5-0.7S353.4,85,353,85s-0.9,0.1-1.3,0.3l-1.5,0.8L352.6,87.5z"/>
	<path class="st8" d="M357.5,85.5c-0.4-0.3-0.7-0.5-0.9-0.8s-0.2-0.6-0.1-0.9c0.1-0.3,0.4-0.5,0.8-0.8c0.6-0.3,1.3-0.5,2.1-0.5
		s1.5,0.2,2.2,0.6h0.1c0.4,0.2,0.7,0.5,0.9,0.8s0.2,0.6,0.1,0.9c-0.1,0.3-0.4,0.5-0.8,0.8c-0.6,0.3-1.3,0.5-2.1,0.5
		C359,86.2,358.2,86,357.5,85.5L357.5,85.5z M358.4,85.1c0.5,0.3,1,0.4,1.5,0.5c0.5,0,1-0.1,1.4-0.3c0.4-0.2,0.5-0.5,0.5-0.8
		c-0.1-0.3-0.4-0.6-0.9-0.9s-1-0.4-1.5-0.5s-1,0.1-1.4,0.3c-0.4,0.2-0.5,0.5-0.5,0.8C357.5,84.5,357.8,84.8,358.4,85.1z"/>
	<path class="st8" d="M360.3,80.2l1.1,0.6l0.8-0.5l0.6,0.3l-0.8,0.5l2.7,1.6c0.2,0.1,0.3,0.2,0.5,0.2s0.3,0,0.5-0.1
		c0.1-0.1,0.2-0.1,0.3-0.2l0.6,0.4c-0.1,0.1-0.3,0.3-0.5,0.4c-0.3,0.2-0.7,0.3-1.1,0.3c-0.4,0-0.8-0.1-1.1-0.4l-2.7-1.6l-0.8,0.5
		l-0.6-0.3l0.8-0.5l-1.1-0.6L360.3,80.2z"/>
	<path class="st8" d="M369.4,81.3c-0.6,0.3-1.3,0.5-2.1,0.5s-1.5-0.2-2.1-0.6l-0.1-0.1c-0.4-0.3-0.7-0.5-0.9-0.8s-0.2-0.6-0.1-0.9
		c0.1-0.3,0.3-0.5,0.7-0.7c0.6-0.3,1.2-0.5,1.9-0.5s1.4,0.3,2.1,0.7l0.3,0.2l-3,1.7c0.4,0.2,0.9,0.4,1.4,0.4s1-0.1,1.3-0.3
		c0.3-0.2,0.4-0.3,0.5-0.5s0.1-0.3,0.1-0.5l0.8-0.1C370.4,80.4,370.2,80.9,369.4,81.3z M365.4,79.1c-0.3,0.2-0.5,0.4-0.4,0.6
		c0,0.2,0.2,0.5,0.5,0.8l2.2-1.3h-0.1c-0.4-0.2-0.8-0.3-1.2-0.3C366,78.8,365.7,78.9,365.4,79.1z"/>
	<path class="st8" d="M368.3,76.8l0.6,0.3c-0.1-0.4,0.1-0.8,0.7-1.1c0.9-0.5,1.9-0.5,3,0.1l2.9,1.7l-0.8,0.4l-2.9-1.7
		c-0.3-0.2-0.6-0.3-0.9-0.3s-0.6,0.1-0.9,0.3c-0.2,0.1-0.4,0.3-0.5,0.5s0,0.4,0.1,0.5l3.1,1.8l-0.8,0.4l-4.4-2.6L368.3,76.8z"/>
	<path class="st8" d="M372.1,73.3l1.1,0.6l0.8-0.5l0.6,0.3l-0.8,0.5l2.7,1.6c0.2,0.1,0.3,0.2,0.5,0.2s0.3,0,0.5-0.1
		c0.1-0.1,0.2-0.1,0.3-0.2l0.6,0.4c-0.1,0.1-0.3,0.3-0.5,0.4c-0.3,0.2-0.7,0.3-1.1,0.3c-0.4,0-0.8-0.1-1.1-0.4l-2.7-1.6l-0.8,0.5
		l-0.6-0.3l0.8-0.5l-1.1-0.6L372.1,73.3z"/>
	<path class="st8" d="M373.8,72.3c-0.1-0.1-0.2-0.2-0.2-0.2c0-0.1,0.1-0.2,0.2-0.3c0.1-0.1,0.3-0.1,0.5-0.1s0.3,0,0.4,0.1
		c0.1,0.1,0.2,0.2,0.2,0.2c0,0.1-0.1,0.2-0.2,0.3c-0.1,0.1-0.3,0.1-0.5,0.1C374,72.4,373.9,72.4,373.8,72.3z M380.2,75l-0.8,0.4
		l-4.4-2.6l0.8-0.4L380.2,75z"/>
	<path class="st8" d="M384.1,72.7c-0.1,0-0.3-0.1-0.6-0.2c0,0.4-0.2,0.8-0.7,1c-0.4,0.3-0.9,0.4-1.4,0.4s-1-0.1-1.4-0.3
		c-0.5-0.3-0.6-0.6-0.5-0.9c0.1-0.4,0.5-0.7,1.1-1.1l0.7-0.4L381,71c-0.3-0.2-0.6-0.2-0.9-0.2c-0.3,0-0.6,0.1-0.9,0.3
		c-0.3,0.2-0.4,0.3-0.5,0.5c0,0.2,0,0.3,0.2,0.4l-0.8,0.4c-0.2-0.1-0.4-0.3-0.4-0.5s0-0.4,0.2-0.7s0.4-0.4,0.7-0.6
		c0.5-0.3,1-0.5,1.6-0.5c0.5,0,1,0.1,1.5,0.3l2,1.2c0.4,0.2,0.8,0.4,1.1,0.5h0.1L384.1,72.7z M382.3,73.1c0.2-0.1,0.4-0.3,0.5-0.5
		s0.1-0.4,0-0.5l-0.9-0.5l-0.6,0.3c-0.9,0.5-1.1,1-0.6,1.3c0.2,0.1,0.5,0.2,0.8,0.2C381.8,73.4,382,73.3,382.3,73.1z"/>
	<path class="st8" d="M386.8,71.2l-0.8,0.4l-6.3-3.6l0.8-0.4L386.8,71.2z"/>
	<path class="st8" d="M389.9,69.5c-0.6,0.3-1.3,0.5-2.1,0.5s-1.5-0.2-2.1-0.6l-0.1-0.1c-0.4-0.3-0.7-0.5-0.9-0.8s-0.2-0.6-0.1-0.9
		c0.1-0.3,0.3-0.5,0.7-0.7c0.6-0.3,1.2-0.5,1.9-0.4c0.7,0,1.4,0.3,2.1,0.7l0.3,0.2l-3,1.7c0.4,0.2,0.9,0.4,1.4,0.4s1-0.1,1.3-0.3
		c0.3-0.2,0.4-0.3,0.5-0.5s0.1-0.3,0.1-0.5l0.8-0.1C391,68.6,390.7,69.1,389.9,69.5z M385.9,67.3c-0.3,0.2-0.5,0.4-0.4,0.6
		c0,0.2,0.2,0.5,0.5,0.8l2.2-1.3h-0.1c-0.4-0.2-0.8-0.3-1.2-0.3C386.6,67,386.2,67.1,385.9,67.3z"/>
	<path class="st8" d="M390.9,64.5c-0.1,0.1-0.3,0.1-0.4,0.2c-0.5,0.3-0.6,0.6-0.4,1l3.1,1.8l-0.8,0.4l-4.4-2.6l0.7-0.4l0.5,0.3
		c-0.1-0.4,0-0.7,0.5-1c0.1-0.1,0.3-0.1,0.4-0.2L390.9,64.5z"/>
</g>
<g class="st7">
	<path class="st8" d="M151.4,91.5c0.6,0.3,1,0.7,1.2,1.1s0.3,0.7,0.2,1.1c-0.1,0.3-0.4,0.7-0.9,0.9c-0.5,0.3-1,0.4-1.6,0.5l0.2,0.6
		l-0.6,0.3l-0.4-0.9c-1,0-2.1-0.3-3-0.9l-0.3-0.2c-0.6-0.3-1-0.7-1.2-1c-0.2-0.4-0.3-0.7-0.2-1.1s0.4-0.7,0.9-0.9
		c0.6-0.3,1.3-0.5,2-0.6l-0.3-0.6l0.6-0.3l0.4,1c0.9,0.1,1.7,0.3,2.5,0.8L151.4,91.5z M147.4,93.8c0.7,0.4,1.3,0.6,2,0.7L148,91
		c-0.6,0-1.1,0.1-1.6,0.4s-0.7,0.6-0.6,1c0.1,0.4,0.5,0.8,1.1,1.2L147.4,93.8z M150.2,91.7c-0.5-0.3-1-0.5-1.5-0.6l1.3,3.4
		c0.4,0,0.8-0.2,1.1-0.4c0.5-0.3,0.7-0.6,0.6-1c-0.1-0.4-0.5-0.8-1.2-1.2L150.2,91.7z"/>
	<path class="st8" d="M152.8,91.3c-0.7-0.4-1.1-0.8-1.2-1.2c-0.1-0.4,0.1-0.8,0.7-1.1c0.5-0.3,1.2-0.4,1.8-0.4l-0.5-0.3l0.7-0.4
		l4.3,2.5c0.6,0.3,0.9,0.7,0.8,1.1c0,0.4-0.3,0.7-0.9,1.1c-0.3,0.2-0.7,0.3-1.1,0.4c-0.4,0.1-0.9,0.1-1.3,0.1l-0.1-0.5
		c0.7,0,1.3-0.1,1.8-0.3c0.4-0.2,0.6-0.4,0.6-0.7c0-0.2-0.2-0.5-0.6-0.7l-0.4-0.2c0,0.4-0.2,0.7-0.7,1s-1.2,0.4-1.9,0.4
		S153.6,91.7,152.8,91.3z M153.7,90.9c0.5,0.3,1,0.5,1.5,0.5s0.9,0,1.3-0.3c0.5-0.3,0.6-0.6,0.4-1l-2-1.2c-0.7-0.1-1.2,0-1.7,0.2
		c-0.4,0.2-0.5,0.5-0.4,0.7S153.1,90.6,153.7,90.9z"/>
	<path class="st8" d="M161.9,88.7c-0.6,0.3-1.3,0.5-2.1,0.5s-1.5-0.2-2.1-0.6l-0.1-0.1c-0.4-0.3-0.7-0.5-0.9-0.8s-0.2-0.6-0.1-0.9
		c0.1-0.3,0.3-0.5,0.7-0.7c0.6-0.3,1.2-0.5,1.9-0.5s1.4,0.3,2.1,0.7l0.3,0.2l-3,1.7c0.4,0.2,0.9,0.4,1.4,0.4s1-0.1,1.3-0.3
		c0.3-0.2,0.4-0.3,0.5-0.5s0.1-0.3,0.1-0.5l0.8-0.1C162.9,87.8,162.7,88.3,161.9,88.7z M157.9,86.5c-0.3,0.2-0.5,0.4-0.4,0.6
		c0,0.2,0.2,0.5,0.5,0.8l2.2-1.3h-0.1c-0.4-0.2-0.8-0.3-1.2-0.3C158.5,86.2,158.2,86.3,157.9,86.5z"/>
	<path class="st8" d="M162,86c-0.7-0.4-1.1-0.8-1.2-1.2s0.1-0.8,0.7-1.1c0.5-0.3,1.1-0.4,1.8-0.4L161,82l0.8-0.4l6.3,3.6l-0.7,0.4
		l-0.5-0.3c0.1,0.4-0.2,0.7-0.7,1.1c-0.5,0.3-1.1,0.4-1.9,0.4C163.4,86.6,162.7,86.4,162,86L162,86z M162.9,85.6
		c0.5,0.3,1,0.5,1.5,0.5s0.9,0,1.3-0.3c0.5-0.3,0.6-0.6,0.4-1l-2-1.2c-0.6-0.1-1.2,0-1.7,0.2c-0.4,0.2-0.5,0.5-0.4,0.8
		C162,85,162.3,85.3,162.9,85.6z"/>
	<path class="st8" d="M171.1,83.4c-0.6,0.3-1.3,0.5-2.1,0.5s-1.5-0.2-2.1-0.6l-0.1-0.1c-0.4-0.3-0.7-0.5-0.9-0.8s-0.2-0.6-0.1-0.9
		c0.1-0.3,0.3-0.5,0.7-0.7c0.6-0.3,1.2-0.5,1.9-0.5s1.4,0.3,2.1,0.7l0.3,0.2l-3,1.7c0.4,0.2,0.9,0.4,1.4,0.4s1-0.1,1.3-0.3
		c0.3-0.2,0.4-0.3,0.5-0.5s0.1-0.3,0.1-0.5l0.8-0.1C172.1,82.5,171.9,83,171.1,83.4z M167.1,81.2c-0.3,0.2-0.5,0.4-0.4,0.6
		c0,0.2,0.2,0.5,0.5,0.8l2.2-1.3h-0.1c-0.4-0.2-0.8-0.3-1.2-0.3C167.7,80.9,167.4,81,167.1,81.2z"/>
</g>
<g class="st7">
	<path class="st8" d="M144.3,107.8c-0.4-0.3-0.7-0.5-0.9-0.8s-0.2-0.6-0.1-0.9c0.1-0.3,0.4-0.5,0.8-0.8c0.6-0.3,1.3-0.5,2.1-0.5
		s1.5,0.2,2.2,0.6h0.1c0.4,0.2,0.7,0.5,0.9,0.8s0.2,0.6,0.1,0.9s-0.4,0.5-0.8,0.8c-0.6,0.3-1.3,0.5-2.1,0.5S145.1,108.2,144.3,107.8
		L144.3,107.8z M145.2,107.4c0.5,0.3,1,0.4,1.5,0.5c0.5,0,1-0.1,1.4-0.3c0.4-0.2,0.5-0.5,0.5-0.8c-0.1-0.3-0.4-0.6-0.9-0.9
		s-1-0.4-1.5-0.5c-0.5,0-1,0.1-1.4,0.3c-0.4,0.2-0.5,0.5-0.5,0.8S144.6,107.1,145.2,107.4z"/>
	<path class="st8" d="M147.9,103.2l0.5,0.3c-0.1-0.4,0.2-0.8,0.7-1.1c0.6-0.4,1.3-0.5,2-0.3c-0.1-0.2,0-0.4,0.1-0.6s0.3-0.4,0.6-0.6
		c1-0.6,2-0.6,3,0l3,1.7L157,103l-2.9-1.7c-0.3-0.2-0.6-0.3-0.9-0.3c-0.3,0-0.6,0.1-1,0.3c-0.3,0.2-0.4,0.3-0.5,0.6
		c0,0.2,0.1,0.4,0.4,0.6l2.9,1.7l-0.8,0.4l-2.9-1.7c-0.6-0.4-1.3-0.4-1.9,0c-0.5,0.3-0.6,0.6-0.4,1l3.2,1.9l-0.8,0.4l-4.4-2.6
		L147.9,103.2z"/>
	<path class="st8" d="M158.2,100v0.6l1.6,0.9l-0.8,0.4l-6.3-3.6l0.8-0.4l3.8,2.2l-0.1-0.5l-0.1-1.6l0.9-0.5l0.1,2.1l4.5,0.4
		l-0.9,0.5L158.2,100z"/>
	<path class="st8" d="M160.8,98.3c-0.4-0.3-0.7-0.5-0.9-0.8s-0.2-0.6-0.1-0.9c0.1-0.3,0.4-0.5,0.8-0.8c0.6-0.3,1.3-0.5,2.1-0.5
		s1.5,0.2,2.2,0.6h0.1c0.4,0.2,0.7,0.5,0.9,0.8s0.2,0.6,0.1,0.9c-0.1,0.3-0.4,0.5-0.8,0.8c-0.6,0.3-1.3,0.5-2.1,0.5
		S161.5,98.7,160.8,98.3L160.8,98.3z M161.6,97.9c0.5,0.3,1,0.4,1.5,0.5s1-0.1,1.4-0.3c0.4-0.2,0.5-0.5,0.5-0.8s-0.4-0.6-0.9-0.9
		s-1-0.4-1.5-0.5c-0.5,0-1,0.1-1.4,0.3c-0.4,0.2-0.5,0.5-0.5,0.8C160.8,97.3,161.1,97.6,161.6,97.9z"/>
	<path class="st8" d="M169.5,94.5c-0.2-0.1-0.4-0.2-0.7-0.1c-0.3,0-0.6,0.1-1.1,0.3c-0.5,0.2-0.9,0.3-1.2,0.4s-0.6,0.1-0.9,0.1
		c-0.3,0-0.5-0.1-0.7-0.2c-0.4-0.2-0.5-0.5-0.5-0.8c0.1-0.3,0.3-0.6,0.8-0.9s1-0.5,1.6-0.5s1.1,0.1,1.5,0.3l-0.8,0.4
		c-0.2-0.1-0.5-0.2-0.8-0.2s-0.6,0.1-0.9,0.3c-0.3,0.2-0.4,0.3-0.5,0.5c0,0.2,0,0.3,0.2,0.4s0.4,0.1,0.6,0.1c0.2,0,0.6-0.1,1.1-0.3
		c0.5-0.2,0.9-0.3,1.2-0.4s0.7-0.1,0.9-0.1c0.3,0,0.5,0.1,0.8,0.3c0.4,0.2,0.6,0.5,0.5,0.8s-0.4,0.6-0.9,0.9
		c-0.4,0.2-0.7,0.4-1.1,0.4c-0.4,0.1-0.8,0.1-1.2,0.1s-0.7-0.1-1-0.3l0.8-0.4c0.3,0.1,0.6,0.2,0.9,0.2c0.3,0,0.7-0.1,1-0.3
		c0.3-0.2,0.5-0.3,0.5-0.5C169.7,94.8,169.6,94.6,169.5,94.5z"/>
	<path class="st8" d="M167.9,90.4L169,91l0.8-0.5l0.6,0.3l-0.8,0.5l2.7,1.6c0.2,0.1,0.3,0.2,0.5,0.2s0.3,0,0.5-0.1
		c0.1-0.1,0.2-0.1,0.3-0.2l0.6,0.4c-0.1,0.1-0.3,0.3-0.5,0.4c-0.3,0.2-0.7,0.3-1.1,0.3c-0.4,0-0.8-0.1-1.1-0.4l-2.7-1.6l-0.8,0.5
		l-0.6-0.3l0.8-0.5l-1.1-0.6L167.9,90.4z"/>
	<path class="st8" d="M171.4,89.6l0.6,0.3c-0.1-0.4,0.1-0.8,0.7-1.1c0.9-0.5,1.9-0.5,3,0.1l2.9,1.7l-0.8,0.4l-2.9-1.7
		c-0.3-0.2-0.6-0.3-0.9-0.3c-0.3,0-0.6,0.1-0.9,0.3c-0.2,0.1-0.4,0.3-0.5,0.5s0,0.4,0.1,0.5l3.1,1.8l-0.8,0.4l-4.4-2.6L171.4,89.6z"
		/>
	<path class="st8" d="M174.2,86.7c-0.1-0.1-0.2-0.2-0.2-0.2c0-0.1,0.1-0.2,0.2-0.3c0.1-0.1,0.3-0.1,0.5-0.1s0.3,0,0.4,0.1
		c0.1,0.1,0.2,0.2,0.2,0.2s-0.1,0.2-0.2,0.3c-0.1,0.1-0.3,0.1-0.5,0.1C174.4,86.8,174.3,86.8,174.2,86.7z M180.6,89.4l-0.8,0.4
		l-4.4-2.6l0.8-0.4L180.6,89.4z"/>
	<path class="st8" d="M178.1,85.8l0.6,0.3c-0.1-0.4,0.1-0.8,0.7-1.1c0.9-0.5,1.9-0.5,3,0.1l2.9,1.7l-0.8,0.4l-2.9-1.7
		c-0.3-0.2-0.6-0.3-0.9-0.3c-0.3,0-0.6,0.1-0.9,0.3c-0.2,0.1-0.4,0.3-0.5,0.5s0,0.4,0.1,0.5l3.1,1.8l-0.8,0.4l-4.4-2.6L178.1,85.8z"
		/>
	<path class="st8" d="M184,84.9c-0.7-0.4-1.1-0.8-1.2-1.2c-0.1-0.4,0.1-0.8,0.7-1.1c0.5-0.3,1.2-0.4,1.8-0.4l-0.5-0.3l0.7-0.4
		l4.3,2.5c0.6,0.3,0.9,0.7,0.8,1.1c0,0.4-0.3,0.7-0.9,1.1c-0.3,0.2-0.7,0.3-1.1,0.4c-0.4,0.1-0.9,0.1-1.3,0.1l-0.1-0.5
		c0.7,0,1.3-0.1,1.8-0.3c0.4-0.2,0.6-0.4,0.6-0.7s-0.2-0.5-0.6-0.7l-0.4-0.2c0,0.4-0.2,0.7-0.7,1s-1.2,0.4-1.9,0.4
		C185.5,85.5,184.7,85.3,184,84.9z M184.9,84.5c0.5,0.3,1,0.5,1.5,0.5s0.9,0,1.3-0.3c0.5-0.3,0.6-0.6,0.4-1l-2-1.2
		c-0.7-0.1-1.2,0-1.7,0.2c-0.4,0.2-0.5,0.5-0.4,0.7S184.3,84.2,184.9,84.5z"/>
	<path class="st8" d="M193.1,82.3c-0.6,0.3-1.3,0.5-2.1,0.5s-1.5-0.2-2.1-0.6l-0.1-0.1c-0.4-0.3-0.7-0.5-0.9-0.8s-0.2-0.6-0.1-0.9
		c0.1-0.3,0.3-0.5,0.7-0.7c0.6-0.3,1.2-0.5,1.9-0.5s1.4,0.3,2.1,0.7l0.3,0.2l-3,1.7c0.4,0.2,0.9,0.4,1.4,0.4s1-0.1,1.3-0.3
		c0.3-0.2,0.4-0.3,0.5-0.5s0.1-0.3,0.1-0.5l0.8-0.1C194.1,81.4,193.8,81.9,193.1,82.3z M189,80.1c-0.3,0.2-0.5,0.4-0.4,0.6
		c0,0.2,0.2,0.5,0.5,0.8l2.2-1.3h-0.1c-0.4-0.2-0.8-0.3-1.2-0.3C189.7,79.8,189.4,79.9,189,80.1z"/>
	<path class="st8" d="M194,77.4c-0.1,0.1-0.3,0.1-0.4,0.2c-0.5,0.3-0.6,0.6-0.4,1l3.1,1.8l-0.8,0.4l-4.4-2.6l0.7-0.4l0.5,0.3
		c-0.1-0.4,0-0.7,0.5-1c0.1-0.1,0.3-0.1,0.4-0.2L194,77.4z"/>
</g>
</svg>
