<svg xmlns="http://www.w3.org/2000/svg" xmlns:xlink="http://www.w3.org/1999/xlink" viewBox="0 0 435.1 274.5"><style><![CDATA[.J{enable-background:new}.K{fill:#020203}.L{stroke:#020203}.M{stroke-width:.5}.N{stroke-miterlimit:10}]]></style><path d="M422.1 96.3c-1.1 19.4-29 28.9-47.8 29.3-.9 34.6-53.3 44.1-83.8 39.2-5.4 6.3-14.2 9.3-22.8 10.5-9 31.2-55.2 37.9-85.5 32.9-2.7 4-8.2 5.7-13.2 6.1-25.3 44.3-127.9 44.7-148.6-3.5-8.8-27.4 29.8-47.6 55-50.4-15.9-5.6-29.6-21.6-24.8-34.6-36-8.1-42.2-40.3-4.6-52.4-53.6-38 47.3-70.7 80.8-36.4 16.9-17.3 52.1-17.6 71-3.5 20.4-21.7 68-21.8 87.2 1.2C307.9 1.8 414 6.1 400.4 58c8.3 1.9 11.5 11 2.5 14.8 10.8 4.4 20 14.7 19.2 23.5z" fill="#ede6d4"/><g fill="#202020"><path d="M421.9 99.2c.6-4.4-.4 2.4.3-2.9 0 .6.1 1.5-.3 2.9zM417 82.8a39.18 39.18 0 0 0-8.7-7.3c-1.7-1.1-3.5-2-5.4-2.8 1.8-.8 3.7-2 4.7-3.9.5-.9.7-2 .7-3.1-.1-1.1-.3-2.1-.9-3-1-1.9-2.8-3.2-4.7-4.1-.5-.2-1-.4-1.5-.5l-.7-.2h-.1v-.3l.1-.4.6-3c.3-2 .4-4 .3-6-.1-.9 0-.8 0-1v-.6c0-.4-.1-1-.2-2-.4-1.9-.9-3.8-1.7-5.8s-2-3.9-3.3-5.8c-2.8-3.7-6.6-7-11-9.5-8.7-5.2-19.2-7.9-28.2-9.2l1.1.1c-3.5-.5-7.8-.7-11.5-.9 0 0 1.2 0 .3-.1H343c-1.8 0-3.6 0-4.4.1-1.5 0-1.3-.1-3.2 0l-2.1.3c-5.8.8-14.3 1.6-22 4.1.4-.1 1.1-.4.5-.2-6.2 1.9-13 4.7-19 9.1-1.5 1.1-2.9 2.3-4.3 3.6-.7.7-1.3 1.3-1.9 2.1-.3.3-.6.7-.9 1.1l-.5.6-.2.3-.1.2-.1-.1c-.7-.7-1.3-1.4-2-2.1-.7-.6-1.3-1.3-2-1.9l-2.1-1.8-2.2-1.6c.5.3 1 .5.3 0-.3-.2-1.5-.8-2.9-1.7-.7-.4-1.6-.8-2.4-1.3-.9-.4-1.8-.8-2.7-1.3-.4-.2-1-.5-1.7-.8-.4-.1-.8-.3-1.2-.5-.4-.1-.9-.3-1.4-.5s-1-.3-1.5-.5-1-.3-1.6-.5l-3.3-.9.4.1c-3.3-.7-4.8-1.1-7.6-1.4l-2.1-.4c-1.5 0-4.8-.5-7.6-.4h.1c-2.6.1-4 0-6.4.2h-.2c-5.7.6-8.9 1.3-8.7 1.3-2 .2 5.4-1 2.3-.7-9.2 1.7-18.3 5-25.9 10.9-1 .7-1.8 1.5-2.7 2.3l-2 2c-.1 0-.1.1-.2.2l-.2-.1-.4-.3c-2-1.4-4-2.6-6.1-3.7s-4.3-2-6.5-2.7c-2.2-.8-4.5-1.4-6.8-1.9-2.1-.5-3.4-.7-3.9-.9l-4.4-.5c-1.8-.1-3.5-.2-4.3-.1.6 0-1.2-.1-2.2-.1-3.4 0-3.7.3-7.5.6 1.5-.3 2-.3 1.5-.3-3.2.4-7.4 1.2-11 2.3.5-.2 1.4-.5 1.3-.5-4 1.3-7.2 2.4-10.4 4.1l1.2-.7c-2.6 1.3-3 1.6-3.2 1.8-.3.2-.5.4-2.6 1.7 1-.7.6-.5.8-.6-.5.3-1 .7-1.5 1.1s-1.1.8-1.6 1.3-1.1.9-1.7 1.5c-.3.3-.6.6-.9.8l-.3.3s-.1.1-.1 0l-.5-.4c-2.3-2.2-4.7-4-6.7-5.3.3.1.2.1.2.1-4.3-2.7-9.3-4.9-14.8-6.3-1-.3-.8-.3-1-.4s-.9-.3-3.5-.8c.1.1-2.2-.3-4.1-.5-1.9-.3-3.5-.3-1.9-.1a66.41 66.41 0 0 0-8.1-.5c-2.8-.1-5.4 0-6.9.2 2.1-.2-2.3-.1 1.6-.3-1 0-1.9 0-2.9.1.4-.1 3-.2 2.1-.2-1 .1-2.9.2-4.7.4s-3.7.5-4.5.6c-3.5.7-6.7 1.5-12.3 3.1 2.6-.8-1.5.2.2-.3-2.5.9-5 1.9-7.5 3.1-1.7.8-.5 0-3 1.2.2 0-.9.5-1.7 1-.3.2-2.1 1.1-3.8 2.2-.8.5-1.7 1.1-2.3 1.6-.7.5-1.2.8-1.3.9-.7.5 2.5-2 .7-.7-.7.5-1.2 1-1.7 1.4-.4.4-.8.7-1.1 1-.7.7-1.3 1.3-2.4 2.7-.8.9-1.7 2.4-2.2 3.3-.5 1-.6 1.5 0 .4.8-1.4-.4.5.8-1.6-.4.7-1.1 2-1.6 3.5-.5 1.6-.9 3.4-.9 5.2 0-1.2 0-1-.1-1.5-.2 2.3.3 4.8 1.2 7.1s2.3 4.5 3.9 6.5c.1 0-.3-.4-.7-.8s-.8-1-1-1.3c1.8 2.9 4.3 5.4 6.8 7.6.6.6 1.3 1.1 1.9 1.6.3.3.6.5 1 .8s.8.6 1.1.8c.7.6 2.6 1.5.7 1.7-.5.2-1 .3-1.5.5-.4.1-.7.2-1.1.3.9-.3.5-.1.5-.1-1.6.5-2.3.9-2.9 1.1s-1.1.4-2 .9c-.2 0-2.4 1.2-4.3 2.3-1 .6-.5.3 1.1-.7-1.3.7-4.6 2.7-7.7 5.7-1.5 1.5-3 3.2-4.1 5.1-1.1 1.8-2 3.7-2.3 5.4 0 0 0 .2-.1.6s-.1 1-.2 1.6c-.1 1.3-.1 2.8 0 3.5l-.2-.6c0 .4 0 .9.1 1.4l.3 1.8c.3 1.1.6 2.1.6 2.3.8 1.6-.8-1.4-1-4.6-.4-3.1.4-6.1 0-3.8-.1.3-.1.8-.1 1.5v1c0 .3.1.7.1 1 0 .7.2 1.3.3 1.6s.1.5 0 .3c.6 3.2 2.1 6 3.8 8.5-.5-.7-1.6-2.1-.1.1 1.4 1.8 1.7 2 1.8 2.2l.3.3c.2.2.5.6 1.2 1.2.6.5 1.2 1.1 1.8 1.5.1 0 .9.7 1.5 1.1.7.4 1.1.8.5.2.2.2 1.6 1.2 2.9 1.9 1.3.8 2.6 1.4 2.3 1.4l-.6-.2c1.8.9 3 1.3 4.5 1.9.2.1.7.3.6.3.2-.1 1.3.4 2.7.9 1.4.4 3 1 4.2 1.2l2.1.6.3.1h.1v.3l-.5 1.5v.2c-.3 1.1-.5 2.4-.5 3.5-.1 2.3.4 4.4.6 5.3.9 3.1 2.3 5.6 4.4 8.6-.5-.6-1-1.4-1.2-1.6 1.2 1.9 1.6 2.4 3 3.9-.2-.2.5.7 1.6 1.9 1 1.1 2.4 2.4 3.4 3.3 2.6 1.9 1.8 1.1 2.1 1.3 1.1 1 3 2.2 5.1 3.3.5.3 1 .5 1.6.8.3.1.5.3.8.4.3.2.7.3 1 .5 1.6.7 3.2 1.3 4.5 1.8-.9-.3-2.7-.9-3.7-1.3s-1.3-.4.4.3c.8.4 1.7.7 2.6 1.1.1 0-.1 0-.2.1h-.3c-.2 0-.4.1-.5.1-.4.1-.7.1-1.1.2-.8.1-1.7.3-2.6.4-.4.1-.8.1-1.1.2-.4.1-.7.2-1.1.2-.8.2-1.6.3-2.5.5.4 0 .8-.1 1.2-.1-2.1.3-6.7 1.8-6.3 1.6-1.5.5-5.3 1.7-4.8 1.7-3.7 1.2-8 3.1-11.9 5.2-3.9 2-7.2 4.2-9.2 5.5-.9.6-3.1 2.4-2.6 2.1 1.5-1.1 2-1.7 2.6-2-.8.6-1 .8-1 .9-1.9 1.4-3.4 2.7-1.7 1.1-2.1 1.7-3 2.7-4.1 3.9-1 1.2-2.2 2.5-4.2 5.2.1-.3-.3.1-1.3 1.8l-.5.8-.4.9c-.3.6-.6 1.1-.8 1.7-.9 2-1.1 2.6-1.2 2.6-.1.1 0-.4-.1-.4-.2.6-.4 1.1-.5 1.7s-.3 1.2-.4 1.8c-.2 1.1-.3 2.1-.3 2.6-.1.9-.2 1.9-.2 2.9 0-2.1.1 1.9.4 3v-.5c0 .2.1 1 .3 1.9.1.4.2.9.3 1.4.1.4.2.9.3 1.2 0-.2-.2-.9-.4-1.8s-.3-2-.4-2.7c.1.6.3 1.3.4 2.1s.4 1.6.7 2.4c-.1-.1 0 .1 0 .4 0 .1 0 .1.1.2 0 .1.1.2.2.3.1.2.2.5.4.8.5 1.2 1.3 2.5 1.7 3.3 1.1 1.9 1.3 2 1.7 2.5l.8 1.3c.4.5.7.9.1.3-.5-.6-.9-1.4-1.6-2.4.4.6.5.9.8 1.3s.7 1 1.6 2.1c1.4 1.7-.2-.6 2.5 2.7-.8-.8-.9-.9-1.5-1.6.8 1 1.7 2 2.6 3h.2l.3.3c.5.4 1.5 1.4 2.7 2.4 1.1 1 2.3 1.8 2.6 2.1 1.6 1.2 3.3 2.6 4.9 3.6l-.3-.2c1.9 1.4 4.7 2.8 6.4 3.6h-.1c.6.3 1.5.8 2.5 1.2s2.1.9 2.8 1.2c2.9 1.3.8.8 4.2 1.9 3.1 1.1 4.9 1.4 3.7.9 5.6 1.9 12.1 3.1 17.5 4 .8.1.3 0 2 .2 4.3.5 8.8.8 13.2.9 4.3.1 8.4-.1 11.9-.3-2.5.2-.2.1-.1.2 2-.3 2.5-.1 3.2-.4-.2-.1 0-.1-2.4 0 2.6-.2 5.8-.6 8.7-1.1 2.9-.4 5.5-1 6.9-1.2-1.4.3-.3 0 .8-.3-.3.3 3.4-.6 6.1-1.4l.4-.2 1.8-.4c1-.4 1.1-.5 3.8-1.4.2 0 .3 0 .8-.2 2.8-1.1 6.5-2.8 9.4-4.2.8-.3 1.6-.7 2.4-1.1 1.2-.6 3.1-1.9 1-.7 4.8-2.7 7.6-4.9 9-5.8 3.6-3.1 7.6-7.2 10.8-12.3l.6-.9.3-.5.3-.4.1-.2c0-.1.2 0 .2-.1l.9-.1c.2 0 .4 0 .5-.1.4-.1.7-.1 1.1-.2 1.5-.3 2.9-.6 4.2-1.1s2.6-1.1 3.7-2c.5-.4 1-.9 1.5-1.3l.3-.4.2-.2.2-.3.3-.4.1-.2s0-.1.1-.1h.1l.9.1h-.6c.5.1.9.1 1.2.2.3 0 .4.1.6.1.3 0 .5.1.6.1.3 0 .4 0 1.5.1-1-.1 2.2.4-.1.2 4.2.6 5.4.4 8.2.6.4-.1-2.2-.1-1.7-.2.5 0 5.8.4 6.5.2 1.1.1.2.2-.3.2h2.6c1.6.1-.2.2-2 .2-1.8.1-3.5.1-1.9.2h2.4c2.3.2-6.3.1-.3.2 2.6 0 4.8-.3 2.5-.3 2.7 0 3.3-.2 4-.3s1.4-.2 4.3-.4c1.6 0-4.6.3-3.5.3 2.7 0 5.5-.4 7.9-.6-2.7.2-.4-.1 1.3-.4 2.9-.3-1.9.4 2.3-.1.7-.2 4.5-.8 1.2-.4 1.5-.4 4.3-.7 6.5-1.3 1.4-.1-4.2 1.2.4.3-.7.1 5.5-1.5 3.1-1.1 1.7-.4 2-.4.7 0 2.5-.6 5.9-2 6.8-2.1l.8-.4c.8-.2 1.8-.6 3.1-1.1 1.1-.4 2.7-1.2 4-1.9s2.4-1.3 2.3-1.1c.3-.2 1.6-.9 2.5-1.5s1.6-1.1.7-.6c-2.7 1.6-3.1 2-4.7 2.7.5-.2 1-.5 1.5-.7.5-.3 1-.6 1.4-.9l2.5-1.7.3-.1a9.84 9.84 0 0 0 1.8-1.4c.7-.5 1.3-1 1.5-1.3-.6.6-.2.3.4-.2l.8-.8c1.6-1.5 1.8-1.7 2-1.8s.5-.2 1.8-1.9l-1 1.3c-.4.4-.8.8-1.1 1.2.3-.3.7-.6 1.2-1.1s1.1-1.2 1.8-2c.4-.7 1.2-2 1.5-2.6 1.2-2.1.7-.8 1.8-2.9-.4 1-1 1.8-1.5 2.7-.3.4 1.4-1.6 2.8-4.6l1.1-2.8c.1-.3.1-.5 0-.4s-.2.5-.5 1.2c.3-.7.6-1.7.8-2.2.2-.6.3-.8.2-.2.2-.6.4-1.1.5-1.5 0-.1.1-.1.1-.1h.3c.1 0 .3 0 .3-.1.3-.1.2-.1 0-.1h-.2c.1 0 .5-.1 1.5-.3.7-.1 2-.3 3.5-.6s3-.7 4.2-1c-1 .4-2.1.8-3.2 1.1l2.2-.6c-2.7.9 1.4-.3-.1.3 1.5-.4 3.2-1.1 4.5-1.7-2.1.7-1 .2.5-.5.7-.4 1.5-.8 2.1-1.1.5-.4.8-.6.5-.4l2.7-1.7c.6-.4 1-.7 1.4-.9.4-.3.8-.6 1.3-1.1l.4-.4c.2-.2.3-.4.6-.6.2-.2.3-.4.5-.5.2 0 .5.1.8.1s.7.1 1.1.1c-.5-.1 0-.1.1-.1s.1 0-.2-.1c-.1 0-.3-.1-.6-.1-.2 0-.4-.1-.7-.1-.2 0-.3-.1-.5-.1-.1-.1-.2.1-.2.1l-.2.2.2-.2c.1-.1.1-.2.2-.1.2 0 .4.1.6.1.3 0 .5.1.7.1.3 0 .6.1.9.1.5.1.8.1 1.2.1.7 0 1.5.1 3.8.4-3.3-.2 3.5.5-1.3.3.3-.1-2.7-.3-3.4-.4 1.5.3-.4.2 3.5.6l3.7.3h1.5c0-.1-1-.1-1.7-.1s-1.2-.1-.4-.1c4.7.2 5.5.4 7.5.2-3 0-3.7-.2-3.7-.3h3.5l-.7.1c5.6 0 1.7-.1 7-.3h2.5c-1.3.3-7.9.3-6.9.5 3.5-.1 4.7-.3 8-.4-.7.1-1.7.1-2.5.2 1.3-.1 2.5.2 7.5-.6 2.6-.4.7-.2.7-.3 2.8-.4 4.6-.7 6.2-1.1 1.5-.3 2.8-.6 4.6-1-.7.4 6.2-1.6 2.4-.4-.5.1-1.3.3-2.3.5s-2.3.5-3.5.8c-1.2.2-2.5.5-3.5.7-1.1.2-1.9.4-2.4.5 2.1-.1-4.4.6-5.6.8 4.5-.5 4.3-.3 5.1-.3 1.3-.2 2.5-.4 3.2-.6.5-.2-1.1.1-1.2-.1 5-.7 9.8-2 12.4-2.9 1.6-.4 1.2-.1-.8.4 5.8-1.6 11.9-3.9 16.9-6.7-1.7.8-.3 0 1.2-.8 1.5-.9 3.1-1.9 2-1.3-.7.4-1.3.8-1.8 1.1-.6.3-1.1.5-1.5.7-.8.4-1 .4-.3 0 1.7-.9 0 .1.7-.2l2.7-1.6c.8-.4 1.6-1 2.5-1.7-2.2 1.6-2.4 1.8-2.1 1.7s1-.5.7-.1c3.2-2.4 0 .2 3.1-2.1 3.1-2.5 6.4-6.1 8.6-9.9 1.5-2.3 2.9-5.5 3.7-8.8.1-.8.3-1.7.4-2.5.2-.8.1-1.6.2-2.4 0-.5.1-1 .1-1.5v-.2c0-.1.1 0 .2-.1h1.2c.7 0 1.4-.1 2-.1 2.6-.1.8.2 3.7-.1 3.3-.4-2.4.1 2.4-.4l-.5.1c.7-.1 2.9-.5 5.1-.9s4.3-1.1 5-1.4l-1.4.6c.9-.2 1.7-.5 2.4-.7 0 .1 1.1-.2-.3.3 2.9-.7 6-2 9-3.4-.7.3-1.3.5-2 .7 2.6-1.1 4.7-2.2 6.7-3.3 2-1.2 3.9-2.4 5.9-4.2l-.1.2c.8-.7 1.6-1.5 2.3-2.3-.5.7 1.6-1.5 2.5-2.9-1.5 2.3-3.5 4.4-5.7 6.2-.9.7-.5.3.1-.2s1.2-1.1.6-.7a63.65 63.65 0 0 1-3 2.2c-1.2.9-2.5 1.7-2.8 1.9l1.6-1c.3-.2.7-.5 1.3-.9.6-.2-1.8 1.4-3 2.2.9-.5 2.1-1.3 2.3-1.4-1.6 1.1-3.3 2.2-6.3 3.6 2-1-1.1.4-.4 0-.2.2-3 1.6-6.9 2.9-2.8.8-7.3 2.3-12.1 3 1.9-.4 4.3-1 7-1.8-2.9.6-3.2.8-6.2 1.2-1.4.3-2.4.7-6.3 1.1l-.2-.1c-1.6.1-2.5.2-3.4.3-.3.3 0 1.7-.5 3.9-.6 3.8-2 7.6-3.8 10.8s-4.2 5.8-6.3 7.8l-.2.1c-1.1 1.2-3.2 3-5.5 4.6-2.4 1.6-5 3.1-7 4.1-3.4 1.6-7.2 3.1-10.6 4.2s-6.5 1.9-8.4 2.2c-6.4 1.5-12.5 2.3-18.8 2.7-3.1.2-6.2.3-9.5.2-3.2-.1-6.5-.3-9.9-.7l2.3.1c-2.4-.2-1.6-.2-4-.5 1.3.3.5.2-.8 0-.3 0-.7-.1-1-.1h-.2l-.1.1c-.1.1-.2.3-.3.4-.5.6-1 1.1-1.3 1.4-2.3 2.1-5.3 3.9-8.5 5.3s-6.3 2.3-9 2.9l-.2-.1c-.7.1-1.3.3-2.1.4-.3.1-.6.1-.9.1h-.1v.1l-.1.3c-.2.7-.5 1.4-.7 2.2-.3.7-.6 1.4-.9 2.2-1.4 2.9-3.2 5.7-5.4 8.4-.6.6-1.4 1.5-2.8 2.9-.6.7-1.2 1.3-1.8 1.8s-1.1 1.1-1.8 1.6c-1.3 1-2.7 2.1-5 3.6a57.29 57.29 0 0 1-2.9 1.7c-.5.3-1.1.6-1.7.9s-1.2.5-1.8.8c-2.4 1.1-4.8 2-6.7 2.6-7 2.5-14.4 4.1-21.9 4.9s-15.2.9-22.9.4c-.4-.1-.7-.1-1.1-.2a55.09 55.09 0 0 1-5.7-.6c-.5-.1-1-.1-1.5-.2l-.6-.1c-.1 0-.2-.1-.2.1l-.1.1c0 .1-.1.2-.2.3l-.5.6c-.4.4-.8.8-1.2 1.1-1.7 1.4-3.6 2.2-5.6 2.9-1 .3-2 .5-3 .7-.5.1-1 .2-1.5.2l-.4.1h-.3c-.1 0-.2 0-.2.1l-.7 1.2c-.3.4-.5.9-.8 1.3l-.8 1.2-.9 1.2c-1.2 1.6-2.5 3-3.8 4.4-2.7 2.7-5.4 5-8 6.9l.9-.9c-1.6 1.2-3.5 2.4-4.9 3.4-1.4.9-2.3 1.5-1.8 1.3-3.5 2-8.9 4.6-11.4 5.4-3.8 1.4-4.7 1.8-8 2.9-4 1.1-6.7 1.7-9.4 2.3-2.7.5-5.4 1-9.2 1.5l1.9-.3c.8-.2.9-.3-1 0-1.4.2-4.1.5-6 .7s-3.1.3-1.7.3c-4.1.2-9 .4-13.8.2s-9.6-.6-13.5-1.3c.7.2-1.3-.1-2.2-.2-7.2-1.2-14.5-3.3-20-5.4-1.1-.4 1.8.6-1-.5-1.6-.6-.1.1-2.1-.7-5.5-2.3-10.7-5.2-15.4-8.8s-8.7-7.8-11.7-12.2c-1.4-2-2.6-4.1-3.7-6.3l-.4-.8c-.1-.3-.3-.5-.4-.9l-.5-1.8c-.2-.6-.3-1.2-.4-1.8s-.3-1.2-.3-1.8c-.3-2.5-.1-5 .3-7.4.5-2.4 1.3-4.8 2.4-7s2.5-4.2 3.9-6.2c1.5-1.9 3.2-3.7 4.9-5.3 3.5-3.3 7.3-6 11.3-8.3l-.2.1c2.6-1.6 5.8-3.3 8.9-4.6 3.1-1.4 6.2-2.5 8.5-3.4 1.4-.5 5.3-1.6 4.3-1.2.8-.2 1.6-.5 2.5-.7 1-.2 2-.5 3-.7.5-.1 1.1-.2 1.7-.3.3-.1.6-.1.9-.1l.6-.1c.3-.1.7-.1 1-.1-.4-.1-.7-.3-1.2-.5-1.2-.5-2.4-1.1-3.5-1.7.6.3.9.5 1.6.8-3.2-1.7-6-3.6-8.6-5.8s-5-4.7-7.2-7.9c.5.6 1.3 1.7 1.5 1.9-.9-1.2-1.9-2.6-2.7-3.9s-1.5-2.6-1.7-3.4c-.6-1.6-.6-1.1-.2-.1-.8-1.9-1.4-4-1.6-6.1s-.1-4.3.5-6.4l.1-.3c0-.1.1-.3 0-.2l-1-.2-1.5-.4-3-1-4.5-1.8c-3.9-1.7-7.8-3.9-11-6.8-1.7-1.4-3.1-3.1-4.5-4.8-1.3-1.8-2.4-3.7-3.1-5.8-.3-.8-.4-1.4-.6-2s-.2-1.1-.3-1.6c-.2-.9-.1-1.5-.2-1.9 0-.8 0-.8.1-.8s0 .2 0-.3-.1-1.6.3-4.1c.3-.8.1-.6.1-.7.1-.5.2-.9.3-1.3.2-.4.3-.8.5-1.1.3-.7.6-1.3 1-1.9.2-.3.3-.6.5-.8.2-.3.4-.5.5-.8a15.26 15.26 0 0 1 1.1-1.6c-.8.8 1-1.4 1-1.6 2.5-2.8 4.5-4.1 6.2-5.3 1.7-1.1 3.3-2.1 5.9-3.5l-.4.3c.8-.4 1.5-.8 2.4-1.2.8-.4 1.7-.7 2.5-1.1.4-.2.8-.3 1.3-.5l1-.3.5-.2-.4-.4-.7-.5c-.4-.3-.7-.5-1-.8-.7-.6-1.4-1.1-2-1.6-1.3-1.1-2.5-2.2-3.5-3.2-1.7-1.8-3.2-3.7-4.4-5.8s-2.2-4.4-2.5-6.9c-.4-2.4-.2-5 .5-7.3.7-2.4 2-4.5 3.4-6.4 3-3.8 6.9-6.7 11-9s8.5-4.1 12.9-5.5c8.9-2.8 18.2-4.1 27.5-4.2 9.3 0 18.7 1.4 27.4 4.9 4.3 1.8 8.4 4.1 12 7.1l1.3 1.1.8.8.2-.2c.4-.4.8-.8 1.3-1.2 1.7-1.6 3.7-2.9 5.6-4.1 8-4.8 17.2-7.1 26.4-7.6s18.5.8 27.2 4.3c2.2.9 4.3 1.8 6.3 3l1.5.9c.5.3 1 .6 1.5 1l.8.6.5-.5c1.7-1.7 3.5-3.1 5.4-4.5 2-1.3 4-2.6 6.1-3.6 4-1.9 6.3-2.6 8.6-3.4l1.8-.6c.6-.2 1.3-.4 2.1-.6l2.5-.6c.9-.2 2-.4 3.2-.7-.4.1-1 .2-.3.1.2-.1 1.9-.5 3.6-.7 1.7-.3 3.5-.4 4-.5 6.9-.5 13.7-.1 20.3 1.1 3.3.6 6.6 1.5 9.8 2.7s6.4 2.6 9.5 4.5c-2-1.1-3.1-1.5-.7-.2.8.4 1.6.9 2.5 1.4l.4.3c1.5 1 3.2 2.2 1.7 1 1.8 1.3 3.5 2.8 5.2 4.4.4.4.8.9 1.1 1.2l.2-.3.3-.3 1.1-1.3c3.1-3.4 6.8-6.1 10.7-8.3 7.9-4.4 16.5-6.9 25.2-8.4s17.5-2 26.3-1.5 17.5 1.9 25.8 4.8c3.9 1.4 8.6 3.4 13 6.2s8.3 6.5 10.8 10.5c3.7 5.8 4.8 12.9 3.8 19.3-.2.8-.3 1.6-.4 2.4l-.3 1.1v.3h.1l.7.2c.4.2.8.3 1.2.5s.8.4 1.1.6l.5.3.5.4c1.3 1 2.5 2.4 3.1 4s.7 3.5-.1 5.2c-.3.8-.9 1.5-1.4 2.2l-.9.9-1 .7c-.1.1-.3.1-.4.2s-.4.1-.1.2l.6.3.5.3c2.9 1.5 5.6 3.3 8.1 5.5 2.4 2.2 4.7 4.7 6.4 7.6.9 1.4 1.5 3 2.1 4.7.5 1.7.7 3.4.6 5.2 0 0 0-.2-.1-.8 0-.3 0-.6-.1-1s-.2-.9-.2-1.5c-.1-.6-.3-1.2-.5-2-.3-.7-.5-1.5-1-2.4-1.3-2.3-2.6-4.3-4.4-6.5zm3.2 21.5c-.5.8-2.2 3.4-1 1.3.1-.1.4-.5.6-.8.3-.4.5-.7.4-.5zm-59.9 46.3c-.1.1-1 .6-1.2.8.4-.3.8-.6 1.2-.8.3-.4.7-.7 1-.9-.8.6-.7.6-1 .9z"/><path d="M341.8 160c.3-.1 4.5-1.7 6.9-2.8l-3.4 1.5-3.5 1.3zm-19.1 4c-1.7.1-1.2.1 1-.2.2 0-.5.2-1 .2zm-1.3.4l-3.2.3 1.8-.2c.8-.1 1.6-.2 1.4-.1zm-40.6 6.3c-.9.5-2.9 1.3-3.8 1.5.5-.1 1.7-.6 2.5-1l1.3-.5zm-15.9 9.7l-.7 1.4c-.6 1 0-.1.4-1 .1-.1.2-.3.3-.4zm-193-19l-1.2.2-1 .2.3-.1c.3-.1.6-.1.9-.1l1-.2zm-40.6-108c-.3-2 0-1.4-.1-1.8.2 1.9-.1-.7.1 1.8zm70-29.1l-.6-.1.2-.1z"/></g><path d="M422.1 111.4v-.6m0-14.5V96" fill="none" class="L M N"/><path d="M75.4 160.4c-6.1 1-12 2.4-17.5 4.2-7.1-7.2-9.5-15.5-7.2-23.4-13.7-2.7-31.9-14.6-30.3-27.7V99.9c0 12.5 17.2 23.2 30.3 25.9-4.9 12.9 8.7 29 24.7 34.6z" fill="#bcb7a8" class="L M N"/><path d="M20.3 114.5v-1m0-13.6v-1.1" fill="none" class="L M N"/><path d="M46 73.3c-4.2 1.4-8 3.1-11.6 5.2-5.2-6.8-2.9-16.4-3.3-24 1.3 8.4 6.3 13.7 14.9 18.8z" fill="#bcb7a8"/><g fill="#202020"><path d="M45.8 73.6s.1-.1 0 0zm-.3-.6c-.1 0-.3.1-.3.2.2-.1.2 0 .4-.1.1 0 .1.1.1.2 0 0 .1.1.2 0-.2-.1-.3-.2-.4-.3-.1.1-.1.1 0 0zm-7-5.4zM35 63.5z"/><path d="M34.6 62.6c.1.1.1.1 0 0 .1.1.1 0 0 0zm3.9 5c-.1-.1 0-.1 0 0zm1.9 1.5zm1.5 1.1s-.1.1-.2.1c.1 0 .1-.1.2-.1zm2.3 1.8zm-4.8-3.8zm4.4 5.2zm2.2 0v.1zM34 61.1c0 .1 0 0 0 0zm-3.6 1.8c.1-.2.2.3.3 0-.1.1-.2-.2-.3 0zm13.8 9.8zM30.7 63zm1.7-5.4s0 .1 0 0c0 .1 0 .1 0 0zm.9 2.8c0-.1 0-.1 0 0zm-1.5-4.2zm-.3-1.5v.1zm7.8 20.6s.2-.1 0 0zm5-2.6c-.1 0-.1 0 0 0zM30.7 56.4v-.3.3zm1.8 17zm-2-18c0-.1.1-.1.1-.2l-.1.2zm8.9 20z"/><path d="M40.8 74.4c-.2.1 0 .2 0 .3-.3.2-.2-.1-.3-.1-.2.1-.2.3-.3.4v-.1c-.1.2-.5.2-.6.5.1.1.1.2.1.2-.1.1-.1.2-.2.1.1 0 0-.1.1-.1l-.1.1c-.2-.1.1-.1.1-.2-.2.1-.3.4-.5.4-.1-.1.3-.2.1-.3l.3-.1c-.3-.2.2-.1-.1-.2-.3.1-.3.2-.7.3 0 .1.1.1 0 .2-.4.4-.5-.2-.8.2 0 .1 0 .3-.3.4v-.2c-.3.1 0 .3-.4.4 0-.1.2-.2.2-.2-.3 0-.1.2-.3.3l-.1-.1c-.3.2-.6.5-.9.7 0-.1 0-.1-.1-.1-.2.2-.4.3-.7.4-.1.1-.3.1-.3.1h-.1v.1c0-.1 0 .1-.1.2v-.2c0 .1-.1.1-.2 0s-.3-.3-.3-.5h.1c-.1-.3-.4-.1-.4-.4-.2-.5-.7-1-.6-1.5-.2 0-.1-.6-.4-.5 0-.4.1-.3 0-.7 0-.1-.2-.1-.3-.3l.2-.1-.2-.2h-.1l-.1-.1c0 .1 0 .1-.1.1-.1-.2-.1-.6 0-.6-.1-.2-.2-.3-.3-.5.1 0 .1.1.2.1-.2-.2.2-.1 0-.3h-.1c.1-.2 0-.4-.1-.6h.1l-.3-1.2c0 .2-.2.2-.3 0l.2-.1c-.1-.1 0 .1-.2 0 0-.2.2-.1.2-.1l-.1-.2h.1c-.1-.1.1-.4-.1-.4 0-.4-.1-.6-.2-1-.1 0-.1-.1-.3-.2 0-.3.1-.6.1-.9-.1-.2-.1-.1-.2-.2.1 0 .1-.3.2-.2 0-.4-.1-.5-.2-1 0 .1-.1.1-.1.1 0-.1 0-.2.1-.2-.2-.5.3-1.3.1-1.7l-.1-.4c0-.2.1.1.2 0-.2-.5 0-.8-.1-1.2.4-.3 0-1.1.3-1.5h-.1c-.1-.1.1-.1.1-.2-.1 0-.1.1-.1.1-.1-.9.2-1.9.3-2.8 0-.3-.5-.2-.2-.6l.2.1c-.2-.7 0-1.4-.2-2.1 0 0 .1 0 .1.1.1-.2 0-.5-.1-.5 0-.1.1 0 .1-.1.1-.2-.2-.4 0-.4v.1c-.1-.1 0-.4-.1-.3v-.1l-1.2.1c0 .2.2.4.1.6.2.1 0 .5.2.4-.2 0-.1.5.1.6-.1 0 0 .2-.1.1 0 .2.1.3.2.3-.2.4.4.6.1.9.3.5.5 1 .8 1.4-.2.1-.2-.5-.4-.4.2.4.5.6.7 1.1 0 .1-.1 0-.2-.1.3.4.3.9.6 1.2 0 0-.1 0-.1-.1 0 .1.1.2.2.1l-.1-.1c.1-.2.4.2.5.1-.3 0 .1.4-.3.4 0 0 .1.1.2 0 0 .1 0 .1-.1.1.2.2.2.1.4.3h-.2c.2.1.3.1.4.4 0 0 0 .1-.1 0 .2.3.5.4.7.9-.3 0 0 .2-.1.3l.2.2v-.1c.1.2.3.2.4.4l-.2-.1.2.3-.1-.2c.2.1.2-.2.3.1 0 0 .1.2.1.3.1 0 .2.1.3.2 0 .1-.2.1-.2.1.2 0 .3.3.5.3-.1 0-.1.1-.1.1h.2v.2c.2.2.1-.2.3.1h-.1c.2.3.5.4.6.7-.1.2-.2-.2-.3 0 .3.3.8.5 1 .9v-.1c.2-.1.1.3.4.4 0 0-.2.1-.1 0 .2.2.5.4.9.6H38c.1.2.3.3.4.5.1 0 .2.1.2-.1.2.7 1 .6 1.2 1.1 0 0-.2-.1-.1 0l.4.2v-.2c.1 0 .2 0 .3.1-.2-.1-.1.2-.1.3l.1-.1c0 .3.2-.2.3.1.1.1.2.1.3.1 0 .1-.1 0-.2.1.1.1.4 0 .5.2-.1 0-.2-.1-.3-.1 0 .2.1.2.2.3l.2.2v-.1c.4-.2.4.2.8.2-.4 0-.1.1-.2.2 0 .1.1.2 0 .2.2 0 .1.2.4.2 0 .1.1.1 0 .2.2.1 0-.1.1-.1.3 0 .4.6.9.6.3.1.5 0 .8.1 0 .1-.2.1-.2.1.1.2.2.2.4.3v.1c.1.1.2-.1.3.1 0 0-.1.1-.2.1.2 0 .3.1.5.1 0 .1-.2.1-.2.1.2.1.4.2.6.1l-.1-.1c.1 0 0 .1-.1.1-.2 0-.2-.2-.2-.2h.1c0-.3-.4-.2-.6-.3l.2-.1h-.3c0-.1 0-.2.1-.2-.1-.2-.2 0-.2-.2h-.2l.1-.1c-.2-.3-.5-.1-.5-.3-.4-.2-.1.1-.5.1v-.4l-.1.1s-.1-.1 0-.1c-.2 0 0 .1-.2.1-.1-.2-.5-.3-.4-.5-.1.1.1.2-.1.1.1-.3-.2-.1-.3-.3.1-.1.2.1.1-.1-.2.1-.3-.3-.4-.3-.1.2-.3-.1-.6-.3 0 0-.3-.4-.5-.6-.2.1-.3-.1-.5-.1.1-.1.1-.1.2-.1l-.1-.1h-.2l.1-.1c-.2-.1-.5-.2-.6-.4-.1.1 0 .4-.3.3 0-.1.1-.2.2-.1 0 0-.1 0-.1-.1h.2c-.1-.1-.1 0-.2-.1.1-.1 0-.1 0-.2 0 0 0 .1.1.1-.1-.1-.2-.2-.1-.3 0 .1-.1.1-.2.1-.2-.1 0-.1 0-.3-.1 0-.1-.1-.2 0v-.2c-.1 0-.4-.3-.4-.2-.4-.2-.5-.6-.8-.8-.2-.1-.4-.3-.6-.4V66c-.2-.1-.2-.1-.3-.3.2.1 0-.1.2.1-.1-.2-.1-.3-.3-.4.2 0 0-.2-.1-.3v.2c-.1-.1-.2-.2-.2-.3l.2-.1c-.2-.5-.8-.4-.8-.9-.2 0 .1.3-.1.3-.1-.2-.1-.5-.1-.6-.1-.3-.4-.1-.5-.3 0 .1-.1.2-.3 0-.1-.2.1-.4.2-.3v.1c.1 0 .1.1.1 0h-.1c0-.1-.2-.3-.1-.3-.1-.1-.1 0-.1.1-.1-.3-.2-.3-.3-.6 0 .1 0 .1-.1.1-.2-.4-.2-.1-.4-.3 0-.2.2-.1 0-.3 0-.2.1-.1.2-.1-.2-.2-.2-.4-.2-.6l.1.1c-.1-.1-.1-.1-.1-.2v.1-.2c-.1 0-.1.2-.3.1 0-.1-.2-.3-.1-.3.1.3.1-.1.3.1 0 0-.1-.1-.1-.2 0-.3-.2 0-.4-.3.1 0 .1-.1.1-.2.1.1-.1.1-.2 0 0-.2-.2-.2-.2-.3v.1c-.1 0-.1-.1-.2-.2.1 0 .1.1.1 0-.2-.1 0-.4-.2-.6 0-.1.2-.1.2-.2-.2-.2 0-.3-.2-.5-.1.1 0 .1-.2 0l.2.4-.3-.2c0 .1.2.2.2.3-.1-.1-.1-.1-.2 0 .1-.2-.2-.3-.2-.5l.3-.1c0-.3-.3-.5-.4-.9v.1c-.1 0-.1-.2-.2-.3.1 0 .1-.1.2-.2-.1 0-.1-.3-.3-.3l.1-.2c0-.3-.4-.3-.4-.6.1.1.2-.1.3.1 0-.1 0-.2-.1-.2 0-.1-.2-.3-.1-.4 0 0-.2 0-.2-.1 0 0-.1-.2-.2 0 .2-.4-.2-.9 0-1.2 0-.1-.1-.2-.1-.3l-.7.1v.4c-.1.3.3.2.2.5-.2.2-.1-.2-.2-.1-.3.1.1.4-.1.6v-.1c-.1.2.1.4.1.7.2.2.2.6.3.8-.1-.1-.1-.1-.2-.1 0 .1.2 0 .2.2-.1.1-.1.3-.3.3V57c-.2.1 0 .3 0 .4h-.1c0 .3.2.3.2.7h.1c.2.2-.1.2 0 .4l-.2.1c0 .1.2.5.2.7-.1-.1-.2-.4-.3-.6 0 .1 0 .4.1.5 0-.1-.1-.1 0-.2.2.2.2.4.2.7-.4-.1-.1.7-.4.9.1.5-.1.9-.1 1.5.3-.2 0 .2.3.1v.2l-.2.4c-.1.1-.1-.1-.1-.1 0 .3-.1.1-.2.3.1 0 .2.1.1.3l.2-.2c.2.4-.3.3-.1.7l-.1-.1c0 .2 0 .8.2.9 0 0-.1.1-.1 0 0 .5.3 1.1.1 1.5h-.1c0 .1.1.2.1.3h-.1c0 .1.1.2.1.4l-.1-.1c-.1.5.2.7.3 1.1-.2 0-.3.4-.3.6 0 .6.3.9.4 1.4-.2.3 0 1.1 0 1.6 0-.1.2 0 .2.1s.2.3 0 .3c-.2.1-.1.4 0 .6h.3c-.3.6.5 1.2.3 1.6.1.1.1.3.3.3h-.1c.1.3.2.5.3.9h-.1c.1.2.5.1.6.3l-.2.2c.2.4.2.8.6 1.1h-.1c.1.2.3.8.5.5-.2.1.2.4.4.5l-.1.1c.3.1.3.1.6.3 0 .1 0 .2-.1 0 .1.3.2.1.4.4 0 .1-.1 0-.1 0s0 .1.1.1h.1l.1-.1c0-.1.1-.1.2-.2.1-.2.4-.2.5-.1 0-.1.1-.3.2-.3v.1c.3-.1.4-.4.7-.4 0 0 0 .1.1.1l-.4.2c.1.1.3 0 .2.3.1-.2.3-.5.5-.6l.1-.1c.1 0 .1 0 .2-.1.1.1.3-.1.3-.1-.1-.1.1-.2-.1-.2l-.1.1c-.1 0-.2.1-.2.1 0-.1.1-.2.2-.2v-.3c.2.1.5.1.6.2.3-.2.7-.4.8-.7.1-.1.1 0 .2 0 0 .1-.1.1-.1.1.1-.2.5-.3.5-.5.3 0 0 .2.2 0v.1c.7 0 .8-.9 1.6-.8h-.1c.8-.2 1.5-.8 2.4-.9.2 0 .2-.2.3-.3l.1.1.2-.3c.3-.2.7.1 1-.2l-.1-.1c.2 0 .5-.2.5-.1 0 0 0-.1.1-.1v.1l.3-.3c.3 0 .1.3.5.2.1-.1.4-.4.3-.4s-.2 0-.2-.1l.1-.1c0-.2 0-.5-.4-.5l-.2.2-.1-.1.2-.1c-.2-.1-.2.1-.3.1 0-.1-.1-.1-.1-.1l-.2.3c-.1-.1 0-.2-.1-.2-.1.1.2.2 0 .3-.2-.1-.2-.2-.3 0v-.1c-.1.1-.3.1-.3.3-.2-.1-.4.2-.5 0 0 .1-.2.2-.3.3.1-.3-.4.1-.5-.1-.1.3-.5.3-.7.5v-.1h-.3c0 .2-.2.3-.2.5-.3-.1 0-.3-.1-.4.1.1-.3.3-.1.4-.2-.1-.1 0-.3-.1.1.2-.1.1-.2.3-.3 0-.1-.2-.3 0l-.2.2zm-4.9 2.9s0-.1 0 0c0-.1 0 0 0 0zm-.4.2s.1-.1.2-.1v.1h-.2zm1.3.4c-.1.1-.1 0 0 0-.1 0 0 0 0 0 0-.1 0 0 0 0z"/><path d="M36.8 77.7s0-.1 0 0c0-.1 0-.1 0 0zm1.8-10zm-5.9 6.2zm7.5-4.2s0 .1 0 0c.1.1 0 0 0 0zm.9.7c.1.1 0 .1 0 0zm.7.6zm-9.4-10.2c0-.1 0 0 0 0zm2.5 3.4s-.1 0 0 0c-.1 0-.1.1 0 0zm-4.2-7.7v-.1zm3.9 7.5c0 .1.1.1.1.2 0-.1 0-.2-.1-.2zm10.3 9.1c0 .1 0 .1 0 0zm0 .1c.1 0 0-.1 0 0zm.2 0c-.1 0-.1 0 0 0zm-1.2-.7zm-.3-.2c.1.1.1.2.2.2 0 0 0-.2-.2-.2zm-.8-1.3l.2.2c0-.1 0-.2.1-.1-.2-.4 0 .1-.3-.1zm-.7-.6c.1.1 0-.1 0 0 0-.1-.1-.1 0 0zm-4.9-4.2c0-.2.1-.1 0 0zm-1.3-.5v.1h.1zm.2-1.2l.1.1-.2-.1zM31.7 55l-.2.1c.1 0 .3 0 .2-.1zm-1 3.7c-.1.1-.1.2-.1.3.1-.1.1-.2.1-.3zm.4 14.3v-.1.2z"/></g><g class="L M N"><path d="M406.9 132.4c-9.1 5.3-20.7 8.1-32.5 8.7-.9 34.6-53.3 44.1-83.8 39.2-5.4 6.3-14.2 9.3-22.8 10.5-9 31.2-55.2 37.9-85.5 32.9-2.7 4-8.2 5.7-13.2 6.1C142.5 279.1 9 274.6 19.3 204.4c.1 2.2.5 4.3 1.1 6.5 20.7 48.2 123.3 47.8 148.6 3.5 5-.4 10.5-2.1 13.2-6.1 30.4 5.1 76.6-1.7 85.5-32.9 8.7-1.2 17.4-4.2 22.8-10.5 30.4 4.9 82.9-4.6 83.8-39.2 18.8-.5 46.6-9.9 47.7-29.3.4 14.4 1.8 26.9-15.1 36z" fill="#ddd6c3"/><path d="M19.2 218.6v-1.4m0-12.9v-1.2" fill="none"/></g><g class="J K"><use xlink:href="#B"/><path d="M64.2 105.9l-.2-.2c0-.1.1-.2.2-.3s.3-.1.5-.1.3 0 .4.1l.2.2c0 .1-.1.2-.2.3s-.3.1-.5.1c-.1 0-.3-.1-.4-.1zm6.4 2.7l-.8.4-4.4-2.6.8-.4 4.4 2.6zm-1.2-1.9c-.7-.4-1.1-.8-1.2-1.2s.1-.8.7-1.1c.5-.3 1.2-.4 1.8-.4l-.5-.3.7-.4 4.3 2.5c.6.3.9.7.8 1.1 0 .4-.3.7-.9 1.1-.3.2-.7.3-1.1.4s-.9.1-1.3.1l-.1-.5c.7 0 1.3-.1 1.8-.3.4-.2.6-.4.6-.7 0-.2-.2-.5-.6-.7l-.4-.2c0 .4-.2.7-.7 1s-1.2.4-1.9.4c-.5-.1-1.3-.4-2-.8zm.9-.4c.5.3 1 .5 1.5.5s.9 0 1.3-.3c.5-.3.6-.6.4-1l-2-1.2c-.7-.1-1.2 0-1.7.2-.4.2-.5.5-.4.7 0 .5.3.8.9 1.1z"/><use xlink:href="#C"/><use xlink:href="#D"/><path d="M84.1 100.8c-.1 0-.3-.1-.6-.2a1.04 1.04 0 0 1-.7 1c-.4.3-.9.4-1.4.4s-1-.1-1.4-.3c-.5-.3-.6-.6-.5-.9s.5-.7 1.1-1.1l.7-.4-.3-.2c-.3-.2-.6-.2-.9-.2s-.6.1-.9.3-.4.3-.5.5c0 .2 0 .3.2.4l-.8.4c-.2-.1-.4-.3-.4-.5s0-.4.2-.7c.1-.2.4-.4.7-.6.5-.3 1-.5 1.6-.5.5 0 1 .1 1.5.3l2 1.2 1.1.5h.1l-.8.6zm-1.8.4c.2-.1.4-.3.5-.5s.1-.4 0-.5l-.9-.5-.6.3c-.9.5-1.1 1-.6 1.3.2.1.5.2.8.2.2 0 .5-.1.8-.3zm4.5-1.9l-.8.4-6.3-3.6.8-.4 6.3 3.6z"/><use xlink:href="#C" x="11.4" y="-6.6"/><path d="M91.4 95.2c-.2-.1-.4-.2-.7-.1-.3 0-.6.1-1.1.3s-.9.3-1.2.4-.6.1-.9.1-.5-.1-.7-.2a.82.82 0 0 1-.5-.8c.1-.3.3-.6.8-.9s1-.5 1.6-.5 1.1.1 1.5.3l-.8.4c-.2-.1-.5-.2-.8-.2s-.6.1-.9.3-.4.3-.5.5c0 .2 0 .3.2.4s.4.1.6.1.6-.1 1.1-.3.9-.3 1.2-.4c.4-.1.7-.1.9-.1.3 0 .5.1.8.2.4.2.6.5.5.8s-.4.6-.9.9c-.4.2-.7.4-1.1.4-.4.1-.8.1-1.2.1a1.69 1.69 0 0 1-1-.3l.8-.4c.3.1.6.2.9.2a1.93 1.93 0 0 0 1-.3c.3-.2.5-.3.5-.5.2-.1.1-.2-.1-.4z"/><use xlink:href="#E"/><use xlink:href="#F"/><path d="M96.1 87.5l-.2-.2c0-.1.1-.2.2-.3s.3-.1.5-.1.3 0 .4.1l.2.2c0 .1-.1.2-.2.3s-.4.1-.5.1c-.2 0-.3-.1-.4-.1zm6.4 2.7l-.8.4-4.4-2.6.8-.4 4.4 2.6z"/><use xlink:href="#G"/><path d="M105.9 85.6c-.7-.4-1.1-.8-1.2-1.2s.1-.8.7-1.1c.5-.3 1.2-.4 1.8-.4l-.5-.3.7-.4 4.3 2.5c.6.3.9.7.8 1.1 0 .4-.3.7-.9 1.1-.3.2-.7.3-1.1.4s-.9.1-1.3.1l-.1-.5c.7 0 1.3-.1 1.8-.3.4-.2.6-.4.6-.7 0-.2-.2-.5-.6-.7l-.4-.2c0 .4-.2.7-.7 1s-1.2.4-1.9.4c-.5-.1-1.3-.3-2-.8zm.9-.3c.5.3 1 .5 1.5.5s.9 0 1.3-.3c.5-.3.6-.6.4-1l-2-1.2c-.7-.1-1.2 0-1.7.2-.4.2-.5.5-.4.7 0 .4.3.7.9 1.1z"/></g><g class="J K"><path d="M249.4 84.9l2.8-1.6.6.4-3.6 2.1-5.9-3.4.8-.5 5.3 3zm7-3.3c-.1 0-.3-.1-.6-.2a1.04 1.04 0 0 1-.7 1c-.4.3-.9.4-1.4.4s-1-.1-1.4-.3c-.5-.3-.6-.6-.5-.9.1-.4.5-.7 1.1-1.1l.7-.4-.3-.2c-.3-.2-.6-.2-.9-.2s-.6.1-.9.3-.4.3-.5.5c0 .2 0 .3.2.4l-.8.4c-.2-.1-.4-.3-.4-.5s0-.4.2-.7c.1-.2.4-.4.7-.6.5-.3 1-.5 1.6-.5.5 0 1 .1 1.5.3l2 1.2 1.1.5h.1l-.8.6zm-1.8.4c.2-.1.4-.3.5-.5s.1-.4 0-.5l-.9-.5-.6.3c-.9.5-1.1 1-.6 1.3.2.1.5.2.8.2s.5-.1.8-.3zm4-2.8l-2.3-2.6.8-.4 2.8 3.5-.6.3-6-1.6.8-.4 4.5 1.2zm7.7-3.2a4.65 4.65 0 0 1-2.1.5c-.8 0-1.5-.2-2.1-.6l-.1-.1c-.4-.3-.7-.5-.9-.8s-.2-.6-.1-.9.3-.5.7-.7c.6-.3 1.2-.5 1.9-.5s1.4.3 2.1.7l.3.2-3 1.7c.4.2.9.4 1.4.4s1-.1 1.3-.3.4-.3.5-.5a.9.9 0 0 0 .1-.5l.8-.1c.2.6-.1 1.1-.8 1.5zm-4.1-2.2c-.3.2-.5.4-.4.6 0 .2.2.5.5.8l2.2-1.3h-.1c-.4-.2-.8-.3-1.2-.3-.3-.1-.7 0-1 .2z"/><use xlink:href="#H"/><use xlink:href="#H" x="2.9" y="-1.6"/><path d="M276.5 70.1a4.65 4.65 0 0 1-2.1.5c-.8 0-1.5-.2-2.1-.6l-.1-.1c-.4-.3-.7-.5-.9-.8s-.2-.6-.1-.9.3-.5.7-.7c.6-.3 1.2-.5 1.9-.4.7 0 1.4.3 2.1.7l.3.2-3 1.7c.4.2.9.4 1.4.4s1-.1 1.3-.3.4-.3.5-.5a.9.9 0 0 0 .1-.5l.8-.1c.2.5-.1 1-.8 1.4zm-4.1-2.2c-.3.2-.5.4-.4.6 0 .2.2.5.5.8l2.2-1.3h-.1c-.4-.2-.8-.3-1.2-.3-.3-.1-.7 0-1 .2zm5.8-1.2v.6l1.6.9-.8.4-6.3-3.6.8-.4 3.8 2.2-.1-.5-.1-1.6.9-.5.1 2.1 4.5.4-.9.5-3.5-.5z"/><use xlink:href="#D" x="204.7" y="-37.9"/><path d="M280.4 61.3l-.2-.2c0-.1.1-.2.2-.3s.3-.1.5-.1.3 0 .4.1l.2.2c0 .1-.1.2-.2.3s-.3.1-.5.1c-.1 0-.2 0-.4-.1zm6.5 2.7l-.8.4-4.4-2.6.8-.4 4.4 2.6zm1.6-2.1l-2.3-2.6.8-.4 2.8 3.5-.6.3-6-1.6.8-.4 4.5 1.2z"/><use xlink:href="#C" x="215.6" y="-44.2"/><use xlink:href="#D" x="215.6" y="-44.2"/><use xlink:href="#E" x="202.6" y="-36.7"/><use xlink:href="#D" x="222.8" y="-48.3"/></g><g class="J K"><path d="M94.6 210c.6.3 1 .7 1.2 1.1s.3.7.2 1.1c-.1.3-.4.7-.9.9-.5.3-1 .4-1.6.5l.2.6-.6.3-.4-.9a5.53 5.53 0 0 1-3-.9l-.3-.2c-.6-.3-1-.7-1.2-1-.2-.4-.3-.7-.2-1.1.1-.3.4-.7.9-.9.6-.3 1.3-.5 2-.6l-.2-.6.6-.3.4 1c.9.1 1.7.3 2.5.8l.4.2zm-4.1 2.3a5.33 5.33 0 0 0 2 .7l-1.4-3.5c-.6 0-1.1.1-1.6.4s-.7.6-.6 1 .5.8 1.1 1.2l.5.2zm2.9-2.1c-.5-.3-1-.5-1.5-.6l1.3 3.4c.4 0 .8-.2 1.1-.4.5-.3.7-.6.6-1s-.5-.8-1.2-1.2l-.3-.2z"/><path d="M96 209.8c-.7-.4-1.1-.8-1.2-1.2s.1-.8.7-1.1c.5-.3 1.2-.4 1.8-.4l-.5-.3.7-.4 4.3 2.5c.6.3.9.7.8 1.1 0 .4-.3.7-.9 1.1-.3.2-.7.3-1.1.4s-.9.1-1.3.1l-.1-.5c.7 0 1.3-.1 1.8-.3.4-.2.6-.4.6-.7 0-.2-.2-.5-.6-.7l-.4-.2c0 .4-.2.7-.7 1s-1.2.4-1.9.4c-.6-.1-1.3-.4-2-.8zm.8-.4c.5.3 1 .5 1.5.5s.9 0 1.3-.3c.5-.3.6-.6.4-1l-2-1.2c-.7-.1-1.2 0-1.7.2-.4.2-.5.5-.4.7 0 .5.4.8.9 1.1zm8.3-2.1a4.65 4.65 0 0 1-2.1.5c-.8 0-1.5-.2-2.1-.6l-.1-.1c-.4-.3-.7-.5-.9-.8s-.2-.6-.1-.9.3-.5.7-.7c.6-.3 1.2-.5 1.9-.4.7 0 1.4.3 2.1.7l.3.2-3 1.7c.4.2.9.4 1.4.4s1-.1 1.3-.3.4-.3.5-.5.1-.3.1-.5l.8-.1c.2.4-.1.9-.8 1.4zM101 205c-.3.2-.5.4-.4.6 0 .2.2.5.5.8l2.2-1.3h-.1c-.4-.2-.8-.3-1.2-.3-.3 0-.7 0-1 .2zm6.2-1.7c-.4-.3-.7-.5-.9-.8s-.2-.6-.1-.9.4-.5.8-.8a4.65 4.65 0 0 1 2.1-.5c.8 0 1.5.2 2.2.6h.1a2.36 2.36 0 0 1 .9.8c.2.3.2.6.1.9s-.4.5-.8.8a4.65 4.65 0 0 1-2.1.5c-.8.1-1.5-.2-2.3-.6zm.9-.4c.5.3 1 .4 1.5.5.5 0 1-.1 1.4-.3a.82.82 0 0 0 .5-.8c-.1-.3-.4-.6-.9-.9s-1-.4-1.5-.5c-.5 0-1 .1-1.4.3a.82.82 0 0 0-.5.8c0 .3.3.6.9.9zm2.7-4.1l.5.3c-.1-.4.2-.8.7-1.1.6-.4 1.3-.5 2-.3-.1-.2 0-.4.1-.6s.3-.4.6-.6c1-.6 2-.6 3 0l3 1.7-.8.4-2.9-1.7c-.3-.2-.6-.3-.9-.3s-.6.1-1 .3c-.3.2-.4.3-.5.6 0 .2.1.4.4.6l2.9 1.7-.8.4-2.9-1.7a1.65 1.65 0 0 0-1.9 0c-.5.3-.6.6-.4 1l3.2 1.9-.8.4-4.4-2.6.9-.4zm12.5-3.5c-.2-.1-.4-.2-.7-.1-.3 0-.6.1-1.1.3s-.9.3-1.2.4-.6.1-.9.1-.5-.1-.7-.2a.82.82 0 0 1-.5-.8c.1-.3.3-.6.8-.9s1-.5 1.6-.5 1.1.1 1.5.3l-.8.4c-.2-.1-.5-.2-.8-.2s-.6.1-.9.3-.4.3-.5.5c0 .2 0 .3.2.4s.4.1.6.1.6-.1 1.1-.3.9-.3 1.2-.4c.4-.1.7-.1.9-.1.3 0 .5.1.8.3.4.2.6.5.5.8s-.4.6-.9.9c-.4.2-.7.4-1.1.4-.4.1-.8.1-1.2.1a1.69 1.69 0 0 1-1-.3l.8-.4c.3.1.6.2.9.2a1.93 1.93 0 0 0 1-.3c.3-.2.5-.3.5-.5.1-.2.1-.4-.1-.5zm7.6-2.9c-.7.4-1.5.6-2.4.5.1.2 0 .5-.2.7-.2.3-.5.5-.9.7-.5.3-.9.4-1.4.4s-.9-.1-1.4-.3c-.4-.2-.6-.5-.5-.8s.4-.6 1-1l.9-.5-.3-.2c-.3-.2-.6-.3-.9-.3s-.6.1-.9.2c-.3.2-.5.3-.5.5s0 .4.3.5l-.8.4a.82.82 0 0 1-.5-.8c.1-.3.4-.6.9-.9.3-.2.7-.3 1-.4.4-.1.7-.1 1.1 0 0-.2 0-.4.1-.6s.3-.4.6-.6c.6-.3 1.2-.5 1.9-.5s1.3.2 2 .6l.5.3-3 1.7c.5.3 1 .4 1.5.4s1-.1 1.4-.3.7-.5.8-.8l.1-.2.8.2c-.3.3-.6.7-1.2 1.1zm-3.9 1.5c.2-.1.4-.3.5-.4.1-.2.2-.4.2-.5l-1-.6-.9.5c-.3.2-.5.4-.5.6s0 .4.3.5c.2.1.5.2.7.2.2-.1.4-.2.7-.3zm-.3-3.7c-.3.2-.5.4-.4.7 0 .3.2.5.5.7l2.2-1.3-.1-.1c-.4-.2-.7-.3-1.1-.3s-.7.1-1.1.3z"/><use xlink:href="#D" x="54.7" y="86.9"/><use xlink:href="#G" x="32.3" y="99.8"/><path d="M135.1 183.4l-.2-.2c0-.1.1-.2.2-.3s.3-.1.5-.1.3 0 .4.1l.2.2s-.1.2-.2.3-.3.1-.5.1c-.1 0-.3-.1-.4-.1zm6.4 2.7l-.8.4-4.4-2.6.8-.4 4.4 2.6z"/><use xlink:href="#G" x="39" y="96"/><path d="M144.9 181.5c-.7-.4-1.1-.8-1.2-1.2s.1-.8.7-1.1c.5-.3 1.2-.4 1.8-.4l-.5-.3.7-.4 4.3 2.5c.6.3.9.7.8 1.1 0 .4-.3.7-.9 1.1-.3.2-.7.3-1.1.4s-.9.1-1.3.1l-.1-.5c.7 0 1.3-.1 1.8-.3.4-.2.6-.4.6-.7s-.2-.5-.6-.7l-.4-.2c0 .4-.2.7-.7 1s-1.2.4-1.9.4a5.87 5.87 0 0 1-2-.8zm.9-.3c.5.3 1 .5 1.5.5s.9 0 1.3-.3c.5-.3.6-.6.4-1l-2-1.2c-.7-.1-1.2 0-1.7.2-.4.2-.5.5-.4.7 0 .4.3.7.9 1.1z"/></g><g class="J K"><path d="M222.4 172.8c-.9.3-1.6.4-2.2.4s-1.1-.1-1.5-.3c-.5-.3-.7-.6-.6-1s.4-.8 1-1.1c.4-.2.9-.4 1.3-.5.5-.1.9-.1 1.4-.1.5.1.8.2 1.2.4l-.8.5c-.4-.2-.8-.3-1.2-.3s-.9.1-1.3.4c-.4.2-.6.4-.7.7 0 .2.1.4.4.6a2.39 2.39 0 0 0 .9.2c.4 0 .9-.1 1.5-.3s1.2-.3 1.6-.4.9-.1 1.2 0l1 .3c.5.3.7.6.6 1s-.4.8-1.1 1.1c-.4.2-.9.4-1.4.5s-1 .1-1.5.1-.9-.2-1.2-.4l.8-.5c.4.2.8.3 1.3.3s.9-.2 1.4-.4c.4-.2.7-.5.7-.7.1-.2-.1-.4-.4-.6s-.6-.2-1-.2c-.2 0-.7.1-1.4.3z"/><use xlink:href="#D" x="149.6" y="68.6"/><use xlink:href="#F" x="132.1" y="78.7"/><path d="M236.4 167.8c-.1 0-.3-.1-.6-.2a1.04 1.04 0 0 1-.7 1c-.4.3-.9.4-1.4.4s-1-.1-1.4-.3c-.5-.3-.6-.6-.5-.9s.5-.7 1.1-1.1l.7-.4-.3-.2c-.3-.2-.6-.2-.9-.2s-.6.1-.9.3-.4.3-.5.5c0 .2 0 .3.2.4l-.8.4c-.2-.1-.4-.3-.4-.5s0-.4.2-.7c.2-.2.4-.4.7-.6.5-.3 1-.5 1.6-.5.5 0 1 .1 1.5.3l2 1.2 1.1.5h.1l-.8.6zm-1.9.4c.2-.1.4-.3.5-.5s.1-.4 0-.5l-.9-.5-.6.3c-.9.5-1.1 1-.6 1.3.2.1.5.2.8.2s.6-.1.8-.3z"/><use xlink:href="#D" x="159.6" y="62.8"/><path d="M242.9 164.2a4.65 4.65 0 0 1-2.1.5c-.8 0-1.5-.2-2.1-.6l-.1-.1c-.4-.3-.7-.5-.9-.8s-.2-.6-.1-.9.3-.5.7-.7c.6-.3 1.2-.5 1.9-.5s1.4.3 2.1.7l.3.2-3 1.7c.4.2.9.4 1.4.4s1-.1 1.3-.3.4-.3.5-.5.1-.3.1-.5l.8-.1c.2.6-.1 1.1-.8 1.5zm-4.1-2.3c-.3.2-.5.4-.4.6 0 .2.2.5.5.8l2.2-1.3h-.1c-.4-.2-.8-.3-1.2-.3-.3 0-.7.1-1 .2zm4.2-.5c-.7-.4-1.1-.8-1.2-1.2s.1-.8.7-1.1c.5-.3 1.2-.4 1.8-.4l-.5-.3.7-.4 4.3 2.5c.6.3.9.7.8 1.1 0 .4-.3.7-.9 1.1-.3.2-.7.3-1.1.4s-.9.1-1.3.1l-.1-.5c.7 0 1.3-.1 1.8-.3.4-.2.6-.4.6-.7 0-.2-.2-.5-.6-.7l-.4-.2c0 .4-.2.7-.7 1s-1.2.4-1.9.4-1.3-.4-2-.8zm.8-.4c.5.3 1 .5 1.5.5s.9 0 1.3-.3c.5-.3.6-.6.4-1l-2-1.2c-.7-.1-1.2 0-1.7.2-.4.2-.5.5-.4.7s.4.8.9 1.1zm.7-4.3l-.2-.2c0-.1.1-.2.2-.3s.3-.1.5-.1.3 0 .4.1l.2.2s-.1.2-.2.3-.3.1-.5.1c-.1 0-.2-.1-.4-.1zm6.4 2.7l-.8.4-4.4-2.6.8-.4 4.4 2.6z"/></g><g class="J K"><use xlink:href="#B" x="246.2" y="35.5"/><path d="M318.8 143c-.1 0-.3-.1-.6-.2a1.04 1.04 0 0 1-.7 1c-.4.3-.9.4-1.4.4s-1-.1-1.4-.3c-.5-.3-.6-.6-.5-.9.1-.4.5-.7 1.1-1.1l.7-.4-.3-.2c-.3-.2-.6-.2-.9-.2s-.6.1-.9.3-.4.3-.5.5c0 .2 0 .3.2.4l-.8.4c-.2-.1-.4-.3-.4-.5s0-.4.2-.7c.1-.2.4-.4.7-.6.5-.3 1-.5 1.6-.5.5 0 1 .1 1.5.3l2 1.2 1.1.5h.1l-.8.6zm-1.9.4c.2-.1.4-.3.5-.5s.1-.4 0-.5l-.9-.5-.6.3c-.9.5-1.1 1-.6 1.3.2.1.5.2.8.2l.8-.3z"/><use xlink:href="#D" x="242.1" y="37.9"/><path d="M326.1 138.7c-.1 0-.3-.1-.6-.2a1.04 1.04 0 0 1-.7 1c-.4.3-.9.4-1.4.4s-1-.1-1.4-.3c-.5-.3-.6-.6-.5-.9.1-.4.5-.7 1.1-1.1l.7-.4-.3-.2c-.3-.2-.6-.2-.9-.2s-.6.1-.9.3-.4.3-.5.5c0 .2 0 .3.2.4l-.8.4c-.2-.1-.4-.3-.4-.5s0-.4.2-.7c.2-.2.4-.4.7-.6.5-.3 1-.5 1.6-.5.5 0 1 .1 1.5.3l2 1.2 1.1.5h.1l-.8.6zm-1.8.4c.2-.1.4-.3.5-.5s.1-.4 0-.5l-.9-.5-.6.3c-.9.5-1.1 1-.6 1.3.2.1.5.2.8.2s.5-.1.8-.3z"/><path d="M325.5 136.5c-.7-.4-1.1-.8-1.1-1.2-.1-.4.1-.8.7-1.1.5-.3 1.1-.4 1.8-.4l-2.3-1.3.8-.4 6.3 3.6-.7.4-.5-.3c.1.4-.2.7-.7 1.1-.5.3-1.1.4-1.9.4-.9-.2-1.7-.4-2.4-.8zm.9-.4c.5.3 1 .5 1.5.5s.9 0 1.3-.3c.5-.3.6-.6.4-1l-2-1.2a3.21 3.21 0 0 0-1.7.2c-.4.2-.5.5-.4.8 0 .4.3.7.9 1z"/><use xlink:href="#F" x="233.9" y="42.6"/><use xlink:href="#E" x="241.1" y="38.4"/><path d="M340.3 129.4l-2.3-2.6.8-.4 2.8 3.5-.6.3-6-1.6.8-.4 4.5 1.2zm5.5-1.9a4.65 4.65 0 0 1-2.1.5c-.8 0-1.5-.2-2.1-.6l-.1-.1c-.4-.3-.7-.5-.9-.8s-.2-.6-.1-.9.3-.5.7-.7c.6-.3 1.2-.5 1.9-.5s1.4.3 2.1.7l.3.2-3 1.7c.4.2.9.4 1.4.4s1-.1 1.3-.3.4-.3.5-.5a.9.9 0 0 0 .1-.5l.8-.1c.2.5 0 1-.8 1.5zm-4-2.3c-.3.2-.5.4-.4.6 0 .2.2.5.5.8l2.2-1.3h-.1c-.4-.2-.8-.3-1.2-.3s-.7 0-1 .2z"/><use xlink:href="#G" x="244.6" y="36.4"/></g><g class="J K"><path d="M353.3 87.9l2.3 1.3-.8.5-5.9-3.4 2.2-1.3c.7-.4 1.3-.6 2-.6s1.3.1 1.9.4.8.7.8 1.1c-.1.4-.4.8-1.1 1.2l-1.4.8zm-.7-.4l1.4-.8a1.54 1.54 0 0 0 .7-.7c0-.2-.1-.5-.5-.7s-.8-.3-1.2-.3a3.08 3.08 0 0 0-1.3.3l-1.5.8 2.4 1.4zm4.9-2c-.4-.3-.7-.5-.9-.8s-.2-.6-.1-.9.4-.5.8-.8a4.65 4.65 0 0 1 2.1-.5c.8 0 1.5.2 2.2.6h.1a2.36 2.36 0 0 1 .9.8c.2.3.2.6.1.9s-.4.5-.8.8a4.65 4.65 0 0 1-2.1.5c-.8.1-1.6-.1-2.3-.6zm.9-.4c.5.3 1 .4 1.5.5.5 0 1-.1 1.4-.3a.82.82 0 0 0 .5-.8c-.1-.3-.4-.6-.9-.9s-1-.4-1.5-.5-1 .1-1.4.3a.82.82 0 0 0-.5.8c0 .3.3.6.9.9z"/><use xlink:href="#D" x="286.2" y="-20"/><use xlink:href="#I"/><use xlink:href="#G" x="268.3" y="-9.7"/><use xlink:href="#D" x="298" y="-26.9"/><path d="M373.8 72.3l-.2-.2c0-.1.1-.2.2-.3s.3-.1.5-.1.3 0 .4.1l.2.2c0 .1-.1.2-.2.3s-.3.1-.5.1-.3 0-.4-.1zm6.4 2.7l-.8.4-4.4-2.6.8-.4 4.4 2.6zm3.9-2.3c-.1 0-.3-.1-.6-.2a1.04 1.04 0 0 1-.7 1c-.4.3-.9.4-1.4.4s-1-.1-1.4-.3c-.5-.3-.6-.6-.5-.9.1-.4.5-.7 1.1-1.1l.7-.4-.3-.2c-.3-.2-.6-.2-.9-.2s-.6.1-.9.3-.4.3-.5.5c0 .2 0 .3.2.4l-.8.4c-.2-.1-.4-.3-.4-.5s0-.4.2-.7.4-.4.7-.6c.5-.3 1-.5 1.6-.5.5 0 1 .1 1.5.3l2 1.2 1.1.5h.1l-.8.6zm-1.8.4c.2-.1.4-.3.5-.5s.1-.4 0-.5l-.9-.5-.6.3c-.9.5-1.1 1-.6 1.3.2.1.5.2.8.2s.5-.1.8-.3zm4.5-1.9l-.8.4-6.3-3.6.8-.4 6.3 3.6zm3.1-1.7a4.65 4.65 0 0 1-2.1.5c-.8 0-1.5-.2-2.1-.6l-.1-.1c-.4-.3-.7-.5-.9-.8s-.2-.6-.1-.9.3-.5.7-.7c.6-.3 1.2-.5 1.9-.4.7 0 1.4.3 2.1.7l.3.2-3 1.7c.4.2.9.4 1.4.4s1-.1 1.3-.3.4-.3.5-.5.1-.3.1-.5l.8-.1c.3.5 0 1-.8 1.4zm-4-2.2c-.3.2-.5.4-.4.6 0 .2.2.5.5.8l2.2-1.3h-.1c-.4-.2-.8-.3-1.2-.3-.3-.1-.7 0-1 .2z"/><use xlink:href="#F" x="293.7" y="-24.4"/></g><g class="J K"><path d="M151.4 91.5c.6.3 1 .7 1.2 1.1s.3.7.2 1.1c-.1.3-.4.7-.9.9-.5.3-1 .4-1.6.5l.2.6-.6.3-.4-.9a5.53 5.53 0 0 1-3-.9l-.3-.2c-.6-.3-1-.7-1.2-1-.2-.4-.3-.7-.2-1.1s.4-.7.9-.9c.6-.3 1.3-.5 2-.6l-.3-.6.6-.3.4 1c.9.1 1.7.3 2.5.8l.5.2zm-4 2.3a5.33 5.33 0 0 0 2 .7L148 91c-.6 0-1.1.1-1.6.4s-.7.6-.6 1 .5.8 1.1 1.2l.5.2zm2.8-2.1c-.5-.3-1-.5-1.5-.6l1.3 3.4c.4 0 .8-.2 1.1-.4.5-.3.7-.6.6-1s-.5-.8-1.2-1.2l-.3-.2z"/><path d="M152.8 91.3c-.7-.4-1.1-.8-1.2-1.2s.1-.8.7-1.1c.5-.3 1.2-.4 1.8-.4l-.5-.3.7-.4 4.3 2.5c.6.3.9.7.8 1.1 0 .4-.3.7-.9 1.1-.3.2-.7.3-1.1.4s-.9.1-1.3.1l-.1-.5c.7 0 1.3-.1 1.8-.3.4-.2.6-.4.6-.7 0-.2-.2-.5-.6-.7l-.4-.2c0 .4-.2.7-.7 1s-1.2.4-1.9.4-1.2-.4-2-.8zm.9-.4c.5.3 1 .5 1.5.5s.9 0 1.3-.3c.5-.3.6-.6.4-1l-2-1.2c-.7-.1-1.2 0-1.7.2-.4.2-.5.5-.4.7s.3.8.9 1.1z"/><use xlink:href="#I" x="-207.5" y="7.4"/><path d="M162 86c-.7-.4-1.1-.8-1.2-1.2s.1-.8.7-1.1c.5-.3 1.1-.4 1.8-.4L161 82l.8-.4 6.3 3.6-.7.4-.5-.3c.1.4-.2.7-.7 1.1-.5.3-1.1.4-1.9.4-.9-.2-1.6-.4-2.3-.8zm.9-.4c.5.3 1 .5 1.5.5s.9 0 1.3-.3c.5-.3.6-.6.4-1l-2-1.2a3.21 3.21 0 0 0-1.7.2c-.4.2-.5.5-.4.8 0 .4.3.7.9 1z"/><use xlink:href="#I" x="-198.3" y="2.1"/></g><g class="J K"><path d="M144.3 107.8c-.4-.3-.7-.5-.9-.8s-.2-.6-.1-.9.4-.5.8-.8a4.65 4.65 0 0 1 2.1-.5c.8 0 1.5.2 2.2.6h.1a2.36 2.36 0 0 1 .9.8c.2.3.2.6.1.9s-.4.5-.8.8a4.65 4.65 0 0 1-2.1.5c-.8 0-1.5-.2-2.3-.6zm.9-.4c.5.3 1 .4 1.5.5.5 0 1-.1 1.4-.3a.82.82 0 0 0 .5-.8c-.1-.3-.4-.6-.9-.9s-1-.4-1.5-.5c-.5 0-1 .1-1.4.3a.82.82 0 0 0-.5.8c0 .3.3.6.9.9zm2.7-4.2l.5.3c-.1-.4.2-.8.7-1.1.6-.4 1.3-.5 2-.3-.1-.2 0-.4.1-.6s.3-.4.6-.6a2.72 2.72 0 0 1 3 0l3 1.7-.8.4-2.9-1.7c-.3-.2-.6-.3-.9-.3s-.6.1-1 .3c-.3.2-.4.3-.5.6 0 .2.1.4.4.6l2.9 1.7-.8.4-2.9-1.7a1.65 1.65 0 0 0-1.9 0c-.5.3-.6.6-.4 1l3.2 1.9-.8.4-4.4-2.6.9-.4zm10.3-3.2v.6l1.6.9-.8.4-6.3-3.6.8-.4 3.8 2.2-.1-.5-.1-1.6.9-.5.1 2.1 4.5.4-.9.5-3.5-.5zm2.6-1.7c-.4-.3-.7-.5-.9-.8s-.2-.6-.1-.9.4-.5.8-.8a4.65 4.65 0 0 1 2.1-.5c.8 0 1.5.2 2.2.6h.1a2.36 2.36 0 0 1 .9.8c.2.3.2.6.1.9s-.4.5-.8.8a4.65 4.65 0 0 1-2.1.5c-.8 0-1.6-.2-2.3-.6zm.8-.4c.5.3 1 .4 1.5.5s1-.1 1.4-.3a.82.82 0 0 0 .5-.8c0-.3-.4-.6-.9-.9s-1-.4-1.5-.5c-.5 0-1 .1-1.4.3a.82.82 0 0 0-.5.8c.1.3.4.6.9.9zm7.9-3.4c-.2-.1-.4-.2-.7-.1-.3 0-.6.1-1.1.3s-.9.3-1.2.4-.6.1-.9.1-.5-.1-.7-.2a.82.82 0 0 1-.5-.8c.1-.3.3-.6.8-.9s1-.5 1.6-.5 1.1.1 1.5.3l-.8.4c-.2-.1-.5-.2-.8-.2s-.6.1-.9.3-.4.3-.5.5c0 .2 0 .3.2.4s.4.1.6.1.6-.1 1.1-.3.9-.3 1.2-.4.7-.1.9-.1c.3 0 .5.1.8.3.4.2.6.5.5.8s-.4.6-.9.9c-.4.2-.7.4-1.1.4-.4.1-.8.1-1.2.1a1.69 1.69 0 0 1-1-.3l.8-.4c.3.1.6.2.9.2a1.93 1.93 0 0 0 1-.3c.3-.2.5-.3.5-.5.1-.2 0-.4-.1-.5z"/><use xlink:href="#D" x="93.8" y="-9.8"/><use xlink:href="#G" x="71.4" y="3.1"/><path d="M174.2 86.7l-.2-.2c0-.1.1-.2.2-.3s.3-.1.5-.1.3 0 .4.1l.2.2s-.1.2-.2.3-.3.1-.5.1-.3 0-.4-.1zm6.4 2.7l-.8.4-4.4-2.6.8-.4 4.4 2.6z"/><use xlink:href="#G" x="78.1" y="-0.7"/><path d="M184 84.9c-.7-.4-1.1-.8-1.2-1.2s.1-.8.7-1.1c.5-.3 1.2-.4 1.8-.4l-.5-.3.7-.4 4.3 2.5c.6.3.9.7.8 1.1 0 .4-.3.7-.9 1.1-.3.2-.7.3-1.1.4s-.9.1-1.3.1l-.1-.5c.7 0 1.3-.1 1.8-.3.4-.2.6-.4.6-.7s-.2-.5-.6-.7l-.4-.2c0 .4-.2.7-.7 1s-1.2.4-1.9.4c-.5-.2-1.3-.4-2-.8zm.9-.4c.5.3 1 .5 1.5.5s.9 0 1.3-.3c.5-.3.6-.6.4-1l-2-1.2c-.7-.1-1.2 0-1.7.2-.4.2-.5.5-.4.7s.3.8.9 1.1zm8.2-2.2a4.65 4.65 0 0 1-2.1.5c-.8 0-1.5-.2-2.1-.6l-.1-.1c-.4-.3-.7-.5-.9-.8s-.2-.6-.1-.9.3-.5.7-.7c.6-.3 1.2-.5 1.9-.5s1.4.3 2.1.7l.3.2-3 1.7c.4.2.9.4 1.4.4s1-.1 1.3-.3.4-.3.5-.5.1-.3.1-.5l.8-.1c.2.6-.1 1.1-.8 1.5zm-4.1-2.2c-.3.2-.5.4-.4.6 0 .2.2.5.5.8l2.2-1.3h-.1c-.4-.2-.8-.3-1.2-.3-.3-.1-.6 0-1 .2z"/><use xlink:href="#F" x="96.8" y="-11.5"/></g><defs ><path id="B" d="M64.4 112.2l-5.9-3.4 1.7-1c.5-.3 1.1-.5 1.7-.6s1.3-.1 1.9 0 1.2.3 1.8.6l.4.2c.6.3.9.7 1.1 1a1.08 1.08 0 0 1 0 1.1c-.2.4-.5.7-1.1 1l-1.6 1.1zm-4.5-3.5l4.7 2.7.8-.5c.6-.4.9-.7.9-1.1s-.4-.8-1.1-1.2l-.3-.2c-.7-.4-1.4-.6-2.1-.6s-1.3.1-1.9.5l-1 .4z"/><path id="C" d="M71 102l-.2-.2c0-.1.1-.2.2-.3s.3-.1.5-.1.3 0 .4.1l.2.2c0 .1-.1.2-.2.3s-.3.1-.5.1-.3-.1-.4-.1zm6.4 2.7l-.8.4-4.4-2.6.8-.4 4.4 2.6z"/><path id="D" d="M74.1 100.2l1.1.6.8-.5.6.3-.8.5 2.7 1.6c.2.1.3.2.5.2s.3 0 .5-.1c.1-.1.2-.1.3-.2l.6.4c-.1.1-.3.3-.5.4-.3.2-.7.3-1.1.3s-.8-.1-1.1-.4l-2.7-1.6-.8.5-.6-.3.8-.5-1.1-.6.8-.6z"/><path id="E" d="M96.3 93.9a4.65 4.65 0 0 1-2.1.5c-.8 0-1.5-.2-2.1-.6l-.1-.1c-.4-.3-.7-.5-.9-.8s-.2-.6-.1-.9.3-.5.7-.7c.6-.3 1.2-.5 1.9-.4.7 0 1.4.3 2.1.7l.3.2-3 1.7c.4.2.9.4 1.4.4s1-.1 1.3-.3.4-.3.5-.5.1-.3.1-.5l.8-.1c.2.5-.1 1-.8 1.4zm-4.1-2.2c-.3.2-.5.4-.4.6 0 .2.2.5.5.8l2.2-1.3h-.1c-.4-.2-.8-.3-1.2-.3-.3-.1-.7 0-1 .2z"/><path id="F" d="M97.2 88.9c-.1.1-.3.1-.4.2-.5.3-.6.6-.4 1l3.1 1.8-.8.4-4.4-2.6.7-.4.5.3c-.1-.4 0-.7.5-1 .1-.1.3-.1.4-.2l.8.5z"/><path id="G" d="M100 86.5l.6.3c-.1-.4.1-.8.7-1.1.9-.5 1.9-.5 3 .1l2.9 1.7-.8.4-2.9-1.7c-.3-.2-.6-.3-.9-.3s-.6.1-.9.3c-.2.1-.4.3-.5.5s0 .4.1.5l3.1 1.8-.8.4-4.4-2.6.8-.3z"/><path id="H" d="M269.2 74.2l-3.8-2.2-.7.4-.6-.3.7-.4-.5-.3c-.5-.3-.7-.6-.7-.9s.2-.6.7-.8l.6-.3.6.4c-.2.1-.3.1-.4.2-.2.1-.4.3-.4.5s.1.3.4.5l.5.3.9-.5.6.3-.9.5 3.8 2.2-.8.4z"/><path id="I" d="M369.4 81.3a4.65 4.65 0 0 1-2.1.5c-.8 0-1.5-.2-2.1-.6l-.1-.1c-.4-.3-.7-.5-.9-.8s-.2-.6-.1-.9.3-.5.7-.7c.6-.3 1.2-.5 1.9-.5s1.4.3 2.1.7l.3.2-3 1.7c.4.2.9.4 1.4.4s1-.1 1.3-.3.4-.3.5-.5.1-.3.1-.5l.8-.1c.2.6 0 1.1-.8 1.5zm-4-2.2c-.3.2-.5.4-.4.6 0 .2.2.5.5.8l2.2-1.3h-.1c-.4-.2-.8-.3-1.2-.3-.4-.1-.7 0-1 .2z"/></defs></svg>