<?xml version="1.0" encoding="utf-8"?>
<!-- Generator: Adobe Illustrator 24.0.1, SVG Export Plug-In . SVG Version: 6.00 Build 0)  -->
<svg version="1.1" baseProfile="tiny" id="Layer_1" xmlns="http://www.w3.org/2000/svg" xmlns:xlink="http://www.w3.org/1999/xlink"
	 x="0px" y="0px" viewBox="0 0 52.4 51.96" xml:space="preserve">
<g>
	<g>
		<path fill="#8B1812" d="M27.05,45.34l-0.42-0.24c0.14,0.04,0.2,1.58,0.24,1.7c0.05,0.45-0.58,0.86-0.95,0.9
			c0.44,0.44,0.9,0.09,1.26-0.26C27.41,47.11,27.18,45.67,27.05,45.34z"/>
		<path fill="#8B1812" d="M26.85,44.29c-0.78,0.38-1.88,1.05-1.76,2.06c0.14,0.61-0.07,2.22,0.8,2.36c-0.36-0.7-0.62-2.49-0.05-3.17
			c0.4-0.34,1.1-1.08,1.66-0.97C27.34,44.49,27.04,44.22,26.85,44.29z"/>
		<g>
			<path fill="#A5191E" d="M27.89,46.72c0.15,0.92-0.82,1.47-1.49,1.91c-1.04,0.69-0.72-1.6-0.9-2.04
				c-0.14-0.93,0.83-1.51,1.51-1.96C28.06,44,27.69,46.29,27.89,46.72z M27.02,47.57c0.55-0.24,0.07-1.63,0.11-2.04
				c-0.04-0.51-0.58,0.11-0.76,0.19c-0.56,0.34-0.06,1.58-0.11,2.04C26.34,48.25,26.83,47.65,27.02,47.57L27.02,47.57z"/>
		</g>
	</g>
	<g>
		<g>
			<path fill="#436685" d="M28.47,34.34c-0.35-1.74-3.77-1.79-4.54-0.29c-0.17,0.33-0.02,10.51-0.08,10.85
				c0.38,1.82,4.18,1.82,4.59,0.03C28.44,44.91,28.47,34.36,28.47,34.34z"/>
			<path fill="#436685" d="M41.99,17.3C38.11,5.78,6.96,6.71,10.93,21.43c0.33,1.31,12.18,12.34,13.26,13.58
				c0.99,0.89,2.95,0.89,3.95,0.01C30.65,31.38,44.22,22.71,41.99,17.3z"/>
			<g>
				<path fill="#39576C" d="M37.35,25.42c-6.33,3.55-16.44,3.45-22.59-0.23s-6.01-9.54,0.32-13.09
					C23.95,5.09,53.88,13.25,37.35,25.42z"/>
			</g>
			<g>
				<path fill="#0D2333" d="M35.53,24.33c-5.29,2.97-13.75,2.88-18.9-0.19C3.53,13.81,28.67,7.22,35.79,13.39
					C40.95,16.46,40.82,21.36,35.53,24.33z"/>
			</g>
		</g>
	</g>
	<g>
		<path fill="#8B1812" d="M38.36,19.46l-0.42-0.24c0.14,0.04,0.2,1.58,0.24,1.7c0.05,0.45-0.58,0.86-0.95,0.9
			c0.44,0.44,0.9,0.09,1.26-0.26C38.72,21.23,38.49,19.79,38.36,19.46z"/>
		<path fill="#8B1812" d="M38.16,18.41c-0.78,0.38-1.88,1.05-1.76,2.06c0.14,0.61-0.07,2.22,0.8,2.36c-0.36-0.7-0.62-2.49-0.05-3.17
			c0.4-0.34,1.1-1.08,1.66-0.97C38.65,18.61,38.36,18.34,38.16,18.41z"/>
		<g>
			<path fill="#A5191E" d="M39.2,20.84c0.15,0.92-0.82,1.47-1.49,1.91c-1.04,0.69-0.72-1.6-0.9-2.04c-0.14-0.93,0.83-1.51,1.51-1.96
				C39.37,18.12,39.01,20.41,39.2,20.84z M38.34,21.69c0.55-0.24,0.07-1.63,0.11-2.04c-0.1-0.59-1.18,0.46-1.03,0.72
				C37.6,20.94,37.23,22.81,38.34,21.69L38.34,21.69z"/>
		</g>
	</g>
	<g>
		<path fill="#8B1812" d="M20.44,6.1c0.2,0.11-0.3,1.86-0.29,2.05c-0.04,0.45-0.59,0.59-0.95,0.58c1.43,1.02,1.53-1.22,1.7-2.09
			C21.04,6.3,20.62,6.24,20.44,6.1z"/>
		<path fill="#8B1812" d="M20.62,5.36c-0.79,0.15-1.57,0.48-1.69,1.4c-0.01,0.72-0.98,2.71,0.19,2.92C18.64,9.42,19.36,7.44,19.35,7
			c0.11-0.97,1.18-1.48,2.02-1.38C21.16,5.53,20.9,5.27,20.62,5.36z"/>
		<g>
			<path fill="#A5191E" d="M20.96,5.62c1.25-0.33,0.1,2.22,0.16,2.73c-0.14,0.94-0.83,1.18-1.58,1.34C18.3,10.08,19.39,7.5,19.35,7
				C19.5,6.06,20.19,5.79,20.96,5.62z M20.91,6.64c0.14-0.56-0.5-0.19-0.74-0.13c-0.4,0.19-0.47,1.82-0.6,2.17
				c-0.1,0.55,0.4,0.2,0.63,0.18C20.74,8.79,20.75,7.01,20.91,6.64L20.91,6.64z"/>
		</g>
	</g>
	<g>
		<path fill="#8B1812" d="M13.06,15.77c0.2,0.11-0.3,1.86-0.29,2.05c-0.04,0.45-0.59,0.59-0.95,0.58c1.43,1.02,1.53-1.22,1.7-2.09
			C13.65,15.96,13.23,15.91,13.06,15.77z"/>
		<path fill="#8B1812" d="M11.59,18.63c0.2-1.39,0.48-3.67,2.4-3.33c-0.84-0.65-2.32,0.05-2.44,1.13c-0.01,0.71-0.98,2.71,0.19,2.92
			C11.57,19.26,11.51,19.02,11.59,18.63z"/>
		<path fill="#A5191E" d="M13.57,15.29c1.25-0.33,0.1,2.22,0.16,2.73c-0.14,0.94-0.83,1.18-1.58,1.34
			c-1.24,0.39-0.15-2.19-0.19-2.69C12.11,15.73,12.8,15.45,13.57,15.29z M13.52,16.31c0.14-0.56-0.5-0.19-0.74-0.13
			c-0.4,0.19-0.47,1.82-0.6,2.17c-0.1,0.55,0.4,0.2,0.63,0.18C13.36,18.46,13.36,16.67,13.52,16.31L13.52,16.31z"/>
	</g>
	<g>
		<path fill="#8B1812" d="M32.3,11.84l-0.42-0.24c0.13,0.33,0.36,1.77,0.14,2.09c-0.2,0.16-0.57,0.54-0.84,0.51
			c0.44,0.44,0.9,0.09,1.26-0.26C32.66,13.61,32.42,12.17,32.3,11.84z"/>
		<path fill="#8B1812" d="M32.1,10.79c-0.78,0.37-1.88,1.05-1.76,2.06c0.14,0.61-0.07,2.22,0.8,2.36c-0.36-0.7-0.63-2.49-0.05-3.18
			c0.4-0.34,1.1-1.09,1.66-0.97C32.59,10.99,32.29,10.72,32.1,10.79z"/>
		<g>
			<path fill="#A5191E" d="M33.14,13.22c0.15,0.92-0.82,1.47-1.48,1.91c-1.04,0.69-0.72-1.6-0.9-2.04
				c-0.14-0.93,0.83-1.51,1.51-1.95C33.31,10.5,32.94,12.79,33.14,13.22z M32.27,14.08c0.55-0.24,0.07-1.63,0.11-2.04
				c-0.09-0.59-1.18,0.46-1.02,0.72C31.54,13.32,31.16,15.19,32.27,14.08L32.27,14.08z"/>
		</g>
	</g>
	<g>
		<path fill="#8B1812" d="M39.97,11.96l-0.42-0.24c0.13,0.33,0.36,1.77,0.14,2.09c-0.2,0.16-0.57,0.54-0.84,0.51
			c0.44,0.44,0.9,0.09,1.26-0.26C40.33,13.73,40.09,12.3,39.97,11.96z"/>
		<path fill="#8B1812" d="M40,10.94c-0.86,0.02-2.11,1.06-1.99,2.03c0.14,0.61-0.07,2.22,0.8,2.36c-0.36-0.7-0.63-2.49-0.05-3.18
			c0.4-0.34,1.1-1.09,1.66-0.97L40,10.94z"/>
		<g>
			<path fill="#A5191E" d="M40.81,13.34c0.15,0.92-0.82,1.47-1.48,1.91c-1.04,0.69-0.72-1.6-0.9-2.04
				c-0.14-0.93,0.83-1.51,1.51-1.95C40.98,10.63,40.61,12.91,40.81,13.34z M39.94,14.2c0.55-0.24,0.07-1.63,0.11-2.04
				c-0.09-0.59-1.18,0.46-1.02,0.72C39.21,13.45,38.83,15.31,39.94,14.2L39.94,14.2z"/>
		</g>
	</g>
	<g>
		<path fill="#8B1812" d="M12.11,11.24L11.69,11c0.13,0.33,0.36,1.77,0.14,2.09c-0.2,0.16-0.57,0.54-0.84,0.51
			c0.44,0.44,0.9,0.09,1.26-0.26C12.47,13.01,12.24,11.57,12.11,11.24z"/>
		<path fill="#8B1812" d="M12.15,10.22c-0.86,0.02-2.11,1.06-1.99,2.03c0.14,0.61-0.07,2.22,0.8,2.36c-0.36-0.7-0.63-2.49-0.05-3.18
			c0.4-0.34,1.1-1.09,1.66-0.97L12.15,10.22z"/>
		<g>
			<path fill="#A5191E" d="M12.95,12.62c0.15,0.92-0.82,1.47-1.48,1.91c-1.04,0.69-0.72-1.6-0.9-2.04
				c-0.14-0.93,0.83-1.51,1.51-1.95C13.13,9.9,12.75,12.19,12.95,12.62z M12.09,13.47c0.55-0.24,0.07-1.63,0.11-2.04
				c-0.09-0.59-1.18,0.46-1.02,0.72C11.35,12.72,10.98,14.59,12.09,13.47L12.09,13.47z"/>
		</g>
	</g>
	<g>
		<path fill="#8B1812" d="M20.08,16.53l-0.42-0.24c0.13,0.33,0.36,1.77,0.14,2.09c-0.2,0.16-0.57,0.54-0.84,0.51
			c0.44,0.44,0.9,0.09,1.26-0.26C20.44,18.3,20.2,16.86,20.08,16.53z"/>
		<path fill="#8B1812" d="M19.87,15.48c-0.78,0.38-1.88,1.05-1.75,2.06c0.14,0.61-0.07,2.22,0.8,2.36c-0.37-0.7-0.62-2.49-0.05-3.18
			c0.4-0.34,1.1-1.08,1.66-0.97C20.37,15.68,20.07,15.41,19.87,15.48z"/>
		<g>
			<path fill="#A5191E" d="M20.92,17.91c0.15,0.86-0.72,1.41-1.35,1.83c-1.16,0.94-0.87-1.43-1.03-1.95
				c-0.14-0.93,0.83-1.52,1.51-1.96C21.09,15.2,20.72,17.48,20.92,17.91z M20.05,18.76c0.55-0.24,0.07-1.63,0.11-2.04
				c-0.09-0.59-1.18,0.46-1.03,0.72C19.32,18.02,18.94,19.88,20.05,18.76L20.05,18.76z"/>
		</g>
	</g>
	<g>
		<path fill="#8B1812" d="M26.72,22.16l-0.42-0.24c0.13,0.33,0.36,1.77,0.14,2.09c-0.2,0.16-0.57,0.54-0.84,0.51
			c0.44,0.44,0.9,0.09,1.26-0.26C27.08,23.93,26.84,22.5,26.72,22.16z"/>
		<path fill="#8B1812" d="M26.51,21.12c-0.78,0.38-1.88,1.05-1.75,2.06c0.14,0.61-0.07,2.22,0.8,2.36c-0.37-0.7-0.62-2.49-0.05-3.18
			c0.4-0.34,1.1-1.08,1.66-0.97C27.01,21.32,26.71,21.05,26.51,21.12z"/>
		<g>
			<path fill="#A5191E" d="M27.56,23.54c0.15,0.86-0.72,1.41-1.35,1.83c-1.16,0.94-0.87-1.43-1.03-1.95
				c-0.14-0.93,0.83-1.52,1.51-1.96C27.73,20.83,27.36,23.11,27.56,23.54z M26.69,24.4c0.55-0.24,0.07-1.63,0.11-2.04
				c-0.03-0.51-0.58,0.11-0.76,0.19c-0.56,0.34-0.06,1.58-0.11,2.04C26.01,25.07,26.5,24.48,26.69,24.4L26.69,24.4z"/>
		</g>
	</g>
	<g>
		<path fill="#8B1812" d="M28.36,20.43l-0.15,0.46c0.19-0.26,1.56-1.71,1.52-2.05c0.14-0.03,0.79,0.33,0.92,0.38l0.15-0.46
			c-0.38-0.26-1.21-0.47-1.67-0.49c-0.17,0.13-0.32,0.51-0.37,0.71l0.21-0.25l0.72,0.1L28.36,20.43z"/>
		<g>
			<path fill="#A5191E" d="M30.65,19.23l-1.71,2.02l-0.73-0.36l1.38-1.64l-0.82-0.26l0.21-0.25C29.44,18.76,30.27,18.97,30.65,19.23
				z"/>
		</g>
	</g>
	<g>
		<path fill="#8B1812" d="M28.1,7.34L27.95,7.8c0.19-0.26,1.56-1.71,1.52-2.05c0.14-0.03,0.79,0.33,0.92,0.38l0.15-0.46
			c-0.38-0.26-1.21-0.47-1.67-0.49c-0.17,0.13-0.32,0.51-0.37,0.71l0.21-0.25l0.72,0.1L28.1,7.34z"/>
		<g>
			<path fill="#A5191E" d="M30.39,6.14l-1.71,2.02L27.95,7.8l1.38-1.64L28.51,5.9l0.21-0.25C29.18,5.66,30.01,5.87,30.39,6.14z"/>
		</g>
	</g>
	<g>
		<path fill="#8B1812" d="M14.78,20.77l-0.21-0.26l0.25-0.68c0.24,0.28,1.32,1.83,1.7,1.88c-0.21-0.24-1.36-1.88-1.7-1.91
			c0-0.15,0.48-0.71,0.56-0.82l-0.42-0.24c-0.33,0.32-0.71,1.09-0.82,1.53C14.25,20.46,14.59,20.68,14.78,20.77z"/>
		<g>
			<path fill="#A5191E" d="M15.39,18.98l1.63,2.08l-0.5,0.65l-1.32-1.69l-0.42,0.75l-0.21-0.26C14.68,20.07,15.06,19.3,15.39,18.98z
				"/>
		</g>
	</g>
	<g>
		<path fill="#8B1812" d="M21.57,9.81c0-0.15,0.48-0.71,0.56-0.82l-0.42-0.24c-0.33,0.32-0.71,1.09-0.82,1.53
			c0.09,0.19,0.44,0.42,0.62,0.5l-0.21-0.26l0.25-0.68c0.24,0.28,1.32,1.83,1.7,1.88C23.05,11.47,21.91,9.84,21.57,9.81z"/>
		<g>
			<path fill="#A5191E" d="M22.13,8.98l1.63,2.08l-0.5,0.65l-1.32-1.69l-0.42,0.75l-0.21-0.26C21.42,10.07,21.8,9.3,22.13,8.98z"/>
		</g>
	</g>
	<g>
		<path fill="#75965F" d="M26.45,11.26l-0.42-0.24c0.14,0.04,0.2,1.58,0.24,1.7c0.05,0.45-0.58,0.86-0.95,0.9
			c0.44,0.44,0.9,0.09,1.26-0.26C26.81,13.03,26.58,11.59,26.45,11.26z"/>
		<path fill="#75965F" d="M26.25,10.21c-0.78,0.38-1.88,1.05-1.76,2.06c0.14,0.61-0.07,2.22,0.8,2.36c-0.36-0.7-0.62-2.49-0.05-3.17
			c0.4-0.34,1.1-1.08,1.66-0.97C26.74,10.41,26.44,10.14,26.25,10.21z"/>
		<g>
			<path fill="#8DBA71" d="M27.29,12.64c0.15,0.92-0.82,1.47-1.49,1.91c-1.04,0.69-0.72-1.6-0.9-2.04
				c-0.14-0.93,0.83-1.51,1.51-1.96C27.46,9.93,27.09,12.21,27.29,12.64z M26.42,13.49c0.55-0.24,0.07-1.63,0.11-2.04
				c-0.1-0.59-1.18,0.46-1.03,0.72C25.69,12.75,25.32,14.61,26.42,13.49L26.42,13.49z"/>
		</g>
	</g>
	<g>
		<path fill="#75965F" d="M20.05,11.36c0.2,0.11-0.3,1.86-0.29,2.05c-0.04,0.45-0.59,0.59-0.95,0.58c1.43,1.02,1.53-1.22,1.7-2.09
			C20.64,11.55,20.23,11.5,20.05,11.36z"/>
		<path fill="#75965F" d="M20.23,10.62c-0.79,0.15-1.57,0.48-1.69,1.4c-0.01,0.72-0.98,2.71,0.19,2.92
			c-0.48-0.26,0.24-2.24,0.23-2.68c0.11-0.97,1.18-1.48,2.02-1.38C20.76,10.78,20.51,10.53,20.23,10.62z"/>
		<g>
			<path fill="#8DBA71" d="M20.57,10.88c1.25-0.33,0.1,2.22,0.16,2.73c-0.14,0.94-0.83,1.18-1.58,1.34
				c-1.24,0.39-0.15-2.19-0.19-2.69C19.1,11.32,19.8,11.05,20.57,10.88z M20.52,11.9c0.14-0.56-0.5-0.19-0.74-0.13
				c-0.4,0.19-0.47,1.82-0.6,2.17c-0.1,0.55,0.4,0.2,0.63,0.18C20.35,14.05,20.36,12.27,20.52,11.9L20.52,11.9z"/>
		</g>
	</g>
	<g>
		<path fill="#75965F" d="M26.57,6.92l-0.42-0.24c0.13,0.33,0.36,1.77,0.14,2.09c-0.2,0.16-0.57,0.54-0.84,0.51
			c0.44,0.44,0.9,0.09,1.26-0.26C26.93,8.68,26.7,7.25,26.57,6.92z"/>
		<path fill="#75965F" d="M26.37,5.87c-0.78,0.37-1.88,1.05-1.76,2.06c0.14,0.61-0.07,2.22,0.8,2.36c-0.36-0.7-0.63-2.49-0.05-3.18
			c0.4-0.34,1.1-1.09,1.66-0.97C26.86,6.07,26.57,5.8,26.37,5.87z"/>
		<g>
			<path fill="#8DBA71" d="M27.41,8.3c0.15,0.92-0.82,1.47-1.48,1.91c-1.04,0.69-0.72-1.6-0.9-2.04c-0.14-0.93,0.83-1.51,1.51-1.95
				C27.58,5.58,27.21,7.87,27.41,8.3z M26.54,9.15c0.44-0.03,0.26-2.51-0.16-2.21c-0.27,0.16-0.88,0.57-0.76,0.88
				C25.81,8.4,25.43,10.26,26.54,9.15L26.54,9.15z"/>
		</g>
	</g>
	<g>
		<path fill="#75965F" d="M15.34,10.01l-0.42-0.24c0.13,0.33,0.36,1.77,0.14,2.09c-0.2,0.16-0.57,0.54-0.84,0.51
			c0.44,0.44,0.9,0.09,1.26-0.26C15.7,11.78,15.47,10.35,15.34,10.01z"/>
		<path fill="#75965F" d="M15.37,8.99c-0.86,0.02-2.11,1.06-1.99,2.03c0.14,0.61-0.07,2.22,0.8,2.36c-0.36-0.7-0.63-2.49-0.05-3.18
			c0.4-0.34,1.1-1.09,1.66-0.97L15.37,8.99z"/>
		<g>
			<path fill="#8DBA71" d="M16.18,11.39c0.15,0.92-0.82,1.47-1.48,1.91c-1.04,0.69-0.72-1.6-0.9-2.04
				c-0.14-0.93,0.83-1.51,1.51-1.95C16.35,8.68,15.98,10.96,16.18,11.39z M15.31,12.25c0.44-0.03,0.26-2.51-0.16-2.21
				c-0.27,0.16-0.88,0.57-0.76,0.88C14.58,11.5,14.2,13.36,15.31,12.25L15.31,12.25z"/>
		</g>
	</g>
	<g>
		<path fill="#A4CD85" d="M35.88,9.99l-0.42-0.24c0.13,0.33,0.36,1.77,0.14,2.09c-0.2,0.16-0.57,0.54-0.84,0.51
			c0.44,0.44,0.9,0.09,1.26-0.26C36.24,11.75,36,10.32,35.88,9.99z"/>
		<path fill="#8DBA71" d="M35.67,8.94c-0.78,0.38-1.88,1.05-1.75,2.06c0.14,0.61-0.07,2.22,0.8,2.36c-0.37-0.7-0.62-2.49-0.05-3.18
			c0.4-0.34,1.1-1.08,1.66-0.97C36.17,9.14,35.87,8.87,35.67,8.94z"/>
		<g>
			<path fill="#A4CD85" d="M36.72,11.37c0.15,0.86-0.72,1.41-1.35,1.83c-1.16,0.94-0.87-1.43-1.03-1.95
				c-0.14-0.93,0.83-1.52,1.51-1.96C36.89,8.65,36.52,10.94,36.72,11.37z M35.85,12.22c0.55-0.24,0.07-1.63,0.11-2.04
				c-0.03-0.51-0.58,0.11-0.76,0.19c-0.56,0.34-0.06,1.58-0.11,2.04C35.16,12.9,35.66,12.3,35.85,12.22L35.85,12.22z"/>
		</g>
	</g>
	<g>
		<path fill="#75965F" d="M34.4,22.14l0.42,0.24c-0.21-0.24-1.36-1.88-1.7-1.91c0-0.15,0.48-0.71,0.56-0.82l-0.42-0.24
			c-0.33,0.32-0.71,1.09-0.82,1.53c0.09,0.19,0.44,0.42,0.62,0.5l-0.21-0.26l0.25-0.68L34.4,22.14z"/>
		<g>
			<path fill="#8DBA71" d="M33.69,19.65l1.63,2.08l-0.5,0.65l-1.32-1.69l-0.42,0.75l-0.21-0.26C32.98,20.74,33.35,19.97,33.69,19.65
				z"/>
		</g>
	</g>
	<g>
		<path fill="#75965F" d="M18.51,22.47l-0.21-0.26l0.25-0.68c0.24,0.28,1.32,1.83,1.7,1.88c-0.21-0.24-1.36-1.88-1.7-1.91
			c0-0.15,0.48-0.71,0.56-0.82l-0.42-0.24c-0.33,0.32-0.71,1.09-0.82,1.53C17.98,22.16,18.32,22.38,18.51,22.47z"/>
		<g>
			<path fill="#8DBA71" d="M19.12,20.68l1.63,2.08l-0.5,0.65l-1.32-1.69l-0.42,0.75l-0.21-0.26C18.41,21.76,18.79,20.99,19.12,20.68
				z"/>
		</g>
	</g>
	<g>
		<path fill="#75965F" d="M29.11,9.47c0.07-0.12,0.78-0.36,0.91-0.42l-0.23-0.42c-0.45,0.1-1.17,0.57-1.49,0.89
			c-0.02,0.21,0.16,0.58,0.28,0.75l-0.04-0.33l0.57-0.46c0.06,0.36,0.19,2.25,0.49,2.49C29.52,11.66,29.38,9.67,29.11,9.47z"/>
		<g>
			<path fill="#8DBA71" d="M30.01,9.05l0.33,2.63l-0.76,0.3l-0.27-2.13l-0.75,0.43l-0.04-0.33C28.85,9.62,29.57,9.15,30.01,9.05z"/>
		</g>
	</g>
	<g>
		<path fill="#D5E6F7" d="M39.4,7.45l-0.42-0.24c0.14,0.04,0.2,1.58,0.24,1.7c0.05,0.45-0.58,0.86-0.95,0.9
			c0.44,0.44,0.9,0.09,1.26-0.26C39.76,9.22,39.53,7.78,39.4,7.45z"/>
		<path fill="#D5E6F7" d="M39.2,6.41c-0.78,0.38-1.88,1.05-1.76,2.06c0.14,0.61-0.07,2.22,0.8,2.36c-0.36-0.7-0.62-2.49-0.05-3.17
			c0.4-0.34,1.1-1.08,1.66-0.97C39.69,6.61,39.4,6.34,39.2,6.41z"/>
		<g>
			<path fill="#F8FAFD" d="M40.24,8.83c0.15,0.92-0.82,1.47-1.49,1.91c-1.04,0.69-0.72-1.6-0.9-2.04c-0.14-0.93,0.83-1.51,1.51-1.96
				C40.42,6.12,40.05,8.4,40.24,8.83z M39.38,9.69c0.44-0.01,0.27-2.66-0.21-2.17c-1.04,0.35-0.6,1.6-0.55,2.36
				C38.69,10.36,39.19,9.77,39.38,9.69L39.38,9.69z"/>
		</g>
	</g>
	<g>
		<path fill="#D5E6F7" d="M30.74,22.13c0.2,0.11-0.3,1.86-0.29,2.05c-0.04,0.45-0.59,0.59-0.95,0.58c1.43,1.02,1.53-1.22,1.7-2.09
			C31.33,22.32,30.92,22.27,30.74,22.13z"/>
		<path fill="#D5E6F7" d="M30.92,21.39c-0.79,0.15-1.57,0.48-1.69,1.4c-0.01,0.72-0.98,2.71,0.19,2.92
			c-0.48-0.26,0.24-2.24,0.23-2.68c0.11-0.97,1.18-1.48,2.02-1.38C31.45,21.55,31.2,21.3,30.92,21.39z"/>
		<g>
			<path fill="#F8FAFD" d="M31.26,21.65c1.25-0.33,0.1,2.22,0.16,2.73c-0.14,0.94-0.83,1.18-1.58,1.34
				c-1.24,0.39-0.15-2.19-0.19-2.69C29.8,22.09,30.49,21.82,31.26,21.65z M31.21,22.67c0.14-0.56-0.5-0.19-0.74-0.13
				c-0.4,0.19-0.47,1.82-0.6,2.17c-0.1,0.55,0.4,0.2,0.63,0.18C31.04,24.82,31.05,23.04,31.21,22.67L31.21,22.67z"/>
		</g>
	</g>
	<g>
		<path fill="#D5E6F7" d="M23.01,13.31c0.2,0.11-0.3,1.86-0.29,2.05c-0.04,0.45-0.59,0.59-0.95,0.58c1.43,1.02,1.53-1.22,1.7-2.09
			C23.6,13.5,23.19,13.45,23.01,13.31z"/>
		<path fill="#D5E6F7" d="M21.54,16.17c0.2-1.39,0.48-3.67,2.4-3.33c-0.84-0.65-2.32,0.05-2.44,1.13c-0.01,0.71-0.98,2.71,0.19,2.92
			C21.52,16.8,21.46,16.56,21.54,16.17z"/>
		<path fill="#F8FAFD" d="M23.53,12.83c1.25-0.33,0.1,2.22,0.16,2.73c-0.14,0.94-0.83,1.18-1.58,1.34
			c-1.24,0.39-0.15-2.19-0.19-2.69C22.06,13.27,22.76,13,23.53,12.83z M23.48,13.85c0.14-0.56-0.5-0.19-0.74-0.13
			c-0.4,0.19-0.47,1.82-0.6,2.17c-0.1,0.55,0.4,0.2,0.63,0.18C23.31,16,23.32,14.22,23.48,13.85L23.48,13.85z"/>
	</g>
	<g>
		<path fill="#D5E6F7" d="M33.14,6.4l-0.42-0.24c0.13,0.33,0.36,1.77,0.14,2.09c-0.2,0.16-0.57,0.54-0.84,0.51
			c0.44,0.44,0.9,0.09,1.26-0.26C33.51,8.17,33.27,6.73,33.14,6.4z"/>
		<path fill="#D5E6F7" d="M32.94,5.35c-0.78,0.37-1.88,1.05-1.76,2.06c0.14,0.61-0.07,2.22,0.8,2.36c-0.36-0.7-0.63-2.49-0.05-3.18
			c0.4-0.34,1.1-1.09,1.66-0.97C33.44,5.55,33.14,5.28,32.94,5.35z"/>
		<g>
			<path fill="#F8FAFD" d="M33.99,7.78c0.15,0.92-0.82,1.47-1.48,1.91c-1.04,0.69-0.72-1.6-0.9-2.04c-0.14-0.93,0.83-1.51,1.51-1.95
				C34.16,5.06,33.79,7.35,33.99,7.78z M33.12,8.63c0.44-0.02,0.26-2.51-0.16-2.21c-0.27,0.16-0.88,0.57-0.76,0.88
				C32.38,7.88,32.01,9.75,33.12,8.63L33.12,8.63z"/>
		</g>
	</g>
	<g>
		<path fill="#D5E6F7" d="M36.68,15.48l-0.42-0.24c0.13,0.33,0.36,1.77,0.14,2.09c-0.2,0.16-0.57,0.54-0.84,0.51
			c0.44,0.44,0.9,0.09,1.26-0.26C37.04,17.25,36.8,15.82,36.68,15.48z"/>
		<path fill="#D5E6F7" d="M36.71,14.46c-0.86,0.02-2.11,1.06-1.99,2.03c0.14,0.61-0.07,2.22,0.8,2.36c-0.36-0.7-0.63-2.49-0.05-3.18
			c0.4-0.34,1.1-1.09,1.66-0.97L36.71,14.46z"/>
		<g>
			<path fill="#F8FAFD" d="M37.52,16.86c0.15,0.92-0.82,1.47-1.48,1.91c-1.04,0.69-0.72-1.6-0.9-2.04
				c-0.14-0.93,0.83-1.51,1.51-1.95C37.69,14.15,37.32,16.43,37.52,16.86z M36.65,17.72c0.55-0.24,0.07-1.63,0.11-2.04
				c-0.09-0.59-1.18,0.46-1.02,0.72C35.92,16.97,35.54,18.83,36.65,17.72L36.65,17.72z"/>
		</g>
	</g>
	<g>
		<path fill="#D5E6F7" d="M24.06,18.72l-0.42-0.24c0.13,0.33,0.36,1.77,0.14,2.09c-0.2,0.16-0.57,0.54-0.84,0.51
			c0.44,0.44,0.9,0.09,1.26-0.26C24.42,20.49,24.19,19.05,24.06,18.72z"/>
		<path fill="#D5E6F7" d="M23.86,17.67c-0.78,0.38-1.88,1.05-1.75,2.06c0.14,0.61-0.07,2.22,0.8,2.36c-0.37-0.7-0.62-2.49-0.05-3.18
			c0.4-0.34,1.1-1.08,1.66-0.97C24.35,17.87,24.05,17.6,23.86,17.67z"/>
		<g>
			<path fill="#F8FAFD" d="M24.9,20.1c0.15,0.86-0.72,1.41-1.35,1.83c-1.16,0.94-0.87-1.43-1.03-1.95
				c-0.14-0.93,0.83-1.52,1.51-1.96C25.07,17.38,24.71,19.67,24.9,20.1z M24.03,20.95c0.44-0.02,0.26-2.51-0.16-2.21
				c-1.1,0.4-0.66,1.56-0.6,2.39C23.35,21.63,23.85,21.03,24.03,20.95L24.03,20.95z"/>
		</g>
	</g>
	<g>
		<path fill="#D5E6F7" d="M28.62,15.8l-0.42-0.24c0.13,0.33,0.36,1.77,0.14,2.09c-0.2,0.16-0.57,0.54-0.84,0.51
			c0.44,0.44,0.9,0.09,1.26-0.26C28.98,17.57,28.74,16.14,28.62,15.8z"/>
		<path fill="#D5E6F7" d="M28.41,14.76c-0.78,0.38-1.88,1.05-1.75,2.06c0.14,0.61-0.07,2.22,0.8,2.36c-0.37-0.7-0.62-2.49-0.05-3.18
			c0.4-0.34,1.1-1.08,1.66-0.97C28.91,14.96,28.61,14.69,28.41,14.76z"/>
		<g>
			<path fill="#F8FAFD" d="M29.46,17.18c0.15,0.86-0.72,1.41-1.35,1.83c-1.16,0.94-0.87-1.43-1.03-1.95
				c-0.14-0.93,0.83-1.52,1.51-1.96C29.63,14.47,29.26,16.75,29.46,17.18z M28.59,18.04c0.44-0.01,0.27-2.67-0.21-2.17
				c-1.04,0.35-0.59,1.6-0.55,2.36C27.9,18.71,28.4,18.12,28.59,18.04L28.59,18.04z"/>
		</g>
	</g>
	<g>
		<path fill="#D5E6F7" d="M23.46,25.57l0.42,0.24c-0.21-0.24-1.36-1.88-1.7-1.91c0-0.15,0.48-0.71,0.56-0.82l-0.42-0.24
			c-0.33,0.32-0.71,1.09-0.82,1.53c0.09,0.19,0.44,0.42,0.62,0.5l-0.21-0.26l0.25-0.68L23.46,25.57z"/>
		<g>
			<path fill="#F8FAFD" d="M22.74,23.08l1.63,2.08l-0.5,0.65l-1.32-1.69l-0.42,0.75l-0.21-0.26C22.03,24.17,22.41,23.4,22.74,23.08z
				"/>
		</g>
	</g>
	<g>
		<path fill="#D5E6F7" d="M17.28,10.76l0.24,0.42c-0.06-0.32-0.23-2.3-0.5-2.5c0.07-0.13,0.77-0.37,0.9-0.43l-0.24-0.42
			c-0.45,0.1-1.16,0.58-1.48,0.91c-0.02,0.21,0.17,0.58,0.28,0.75l-0.05-0.33l0.56-0.46L17.28,10.76z"/>
		<g>
			<path fill="#F8FAFD" d="M17.91,8.25l0.36,2.62l-0.76,0.31l-0.29-2.13l-0.74,0.43l-0.05-0.33C16.75,8.83,17.47,8.36,17.91,8.25z"
				/>
		</g>
	</g>
	<g>
		<path fill="#D5E6F7" d="M14.99,16.26L14.78,16l0.25-0.68c0.24,0.28,1.32,1.83,1.7,1.88c-0.21-0.24-1.36-1.88-1.7-1.91
			c0-0.15,0.48-0.71,0.56-0.82l-0.42-0.24c-0.33,0.32-0.71,1.09-0.82,1.53C14.46,15.95,14.8,16.18,14.99,16.26z"/>
		<g>
			<path fill="#F8FAFD" d="M15.6,14.47l1.63,2.08l-0.5,0.65l-1.32-1.69l-0.42,0.75L14.78,16C14.89,15.56,15.27,14.79,15.6,14.47z"/>
		</g>
	</g>
	<g>
		<path fill="#D5E6F7" d="M32.47,16.02c0.11-0.1,0.85-0.1,0.99-0.11l-0.09-0.48c-0.46-0.05-1.29,0.18-1.69,0.38
			c-0.08,0.2-0.03,0.6,0.03,0.8l0.06-0.33l0.68-0.26c-0.05,0.36-0.52,2.2-0.31,2.52C32.19,18.23,32.67,16.29,32.47,16.02z"/>
		<g>
			<path fill="#F8FAFD" d="M33.47,15.9l-0.51,2.6l-0.82,0.05l0.41-2.11l-0.85,0.17l0.06-0.33C32.18,16.08,33.01,15.86,33.47,15.9z"
				/>
		</g>
	</g>
</g>
<g>
</g>
<g>
</g>
<g>
</g>
<g>
</g>
<g>
</g>
<g>
</g>
</svg>
