<?xml version="1.0" encoding="utf-8"?>
<!-- Generator: Adobe Illustrator 24.0.1, SVG Export Plug-In . SVG Version: 6.00 Build 0)  -->
<svg version="1.1" id="Layer_1" xmlns="http://www.w3.org/2000/svg" xmlns:xlink="http://www.w3.org/1999/xlink" x="0px" y="0px"
	 viewBox="0 0 59.6 54.3" style="enable-background:new 0 0 59.6 54.3;" xml:space="preserve">
<style type="text/css">
	.st0{fill:#FFFFFF;}
	.st1{fill:#202020;}
	.st2{fill:#436685;}
</style>
<g>
	<g>
		<g>
			<polygon class="st0" points="21.3,28.5 43.5,41.3 43.5,32.8 21.3,20 			"/>
			<g>
				<g>
					<g>
						<g>
							<path class="st1" d="M21.6,28.3c-0.2-0.1,0,0.2-0.2,0C21.5,28.2,21.6,28.2,21.6,28.3z"/>
							<path class="st1" d="M21.5,27.6c-0.4-0.8,0-1.9-0.2-2.8c0-0.1,0.2,0,0.2-0.2c-0.1-0.4-0.2-1-0.1-1.5c0-0.3,0-0.6,0.1-0.9
								c0-0.3,0.1-0.6,0.2-0.7l0.1,0.1c0-0.1-0.1-0.4-0.1-0.6l0.1,0.1c-0.1-0.1,0-0.4-0.1-0.5c0,0,0.1,0.1,0.2,0.1l-0.1-0.3
								c0-0.1-0.1-0.2-0.1-0.2c0-0.1,0.2,0.1,0.4,0.2c0.2,0.1,0.3,0.3,0.5,0.3c0,0,0,0,0,0.1c0.3,0,0.7,0.2,1,0.4
								c0.4,0.2,0.8,0.4,1.1,0.6c0,0-0.1,0.1-0.1,0.2c0.1-0.1,0.3,0,0.5,0.1c0,0.2,0.4,0.1,0.6,0.3l0,0c0.2,0,0.2,0.2,0.4,0.1v0.2
								c0.2-0.1,0.2,0.2,0.4,0.2l0,0c0.1,0,0.2,0.2,0.3,0.2l0,0c0.3,0.1,0.4,0.3,0.5,0.2c0,0.2-0.3-0.1-0.2,0.1c1,0.4,1.9,1,2.9,1.5
								c0.1,0.1,0.1,0.2,0.1,0.2c0.1,0,0.4,0.2,0.5,0.1c0,0,0,0.1,0.1,0.1c0.1,0.1,0.3,0,0.4,0.1c-0.1,0-0.1,0-0.1,0.1
								c0.2,0,0.4,0.1,0.6,0.2h-0.1c0.3,0,0.4,0.2,0.6,0.3H32c0.2,0.3,0.2-0.1,0.4,0.1c-0.1,0-0.1,0-0.1,0.1c0.3,0,0.7,0.3,0.9,0.3
								l0,0c0.3,0.1,0.5,0.3,0.8,0.4c0.1,0.1-0.1,0.2,0.1,0.3c0.1-0.2,0.5,0.2,0.4-0.1c0.2,0.2,0.5,0.4,0.7,0.5
								c-0.1,0,0,0.3-0.2,0.2l0.1,0.2C35,28,35,27.9,35,28c0.1,0,0.4,0.1,0.5,0.2c0.2,0,0.5-0.1,0.8,0.1c-0.2,0,0,0.2-0.1,0.2
								l0.6-0.1c0.1,0,0,0.1,0.1,0.2H37c0,0,0.4,0.2,0.4,0.4c0,0.1-0.2-0.1-0.1,0.1c0.2,0.1,0.2,0,0.4,0.1l0,0
								c0.1,0.1,0.4,0.1,0.3,0c-0.1,0,0,0.1-0.1,0c0.1,0,0.4,0,0.5,0.1c-0.1,0-0.1,0-0.1,0.1c0.3,0,0.6,0.1,0.9,0.2
								c0-0.1-0.2,0.1-0.2,0c0.3,0.3,0.8,0.3,1,0.6v-0.1c0.2,0.1,0.1,0.2,0.2,0.2c0,0.1,0.1,0.1,0.3,0.1c0.1,0,0,0-0.1,0
								c0.2,0,0.9,0.3,1.1,0.6c0,0,0.3,0,0.4,0l-0.1,0.1c0,0.1,0.3,0.1,0.2,0.2c0.2,0-0.7-0.3-0.4-0.2c0,0.1,0.4,0,0.3,0.1
								c0.2,0.1,0.4,0.1,0.5,0.3c0,0-0.2,0.1-0.1,0.1c0.2,0.1,0.1,0,0.3,0.1h0.1c0.1-0.1,0.2,0.1,0.2,0c0,0.1,0.4,0.1,0.3,0.3
								l-0.1,0.1c0.1,0,0.2,0,0.4,0v0.1c0.1-0.1,0.1,0,0.2,0c0.1,0.1,0.2,0.1,0.4,0.1c0.1,0.1,0.3,0.2,0.5,0.3c0,0.2,0,0.4-0.1,0.5
								c0,0.1,0.1,0.3,0.1,0.4s0,0.2,0,0.3c0,0,0-0.1-0.1-0.1c-0.1,0.1,0,0.2,0,0.3c0,0-0.1,0.3-0.2,0.4c0.1,0.2,0.2,0.1,0.3,0.1
								c-0.2,0.2,0.1,0.5-0.1,0.7c0-0.1-0.1-0.3-0.2-0.1c-0.2,0.2,0.2,0.3,0.1,0.6l0.2-0.1c-0.1,0.1,0.1,0.4-0.1,0.4
								c0.1,0.1-0.1,0.3,0.1,0.3c-0.1,0.4,0.1,1.1-0.2,1.4c0,0.1,0,0.2,0.1,0.2c0.1-0.1-0.1-0.1,0-0.2c0,0.1,0,0.1,0.1,0.1
								c0,0.1,0,0.3-0.2,0.1c-0.1,0.3,0.3,0.3,0.2,0.7c-0.1,0-0.1,0-0.1,0.1l0.1,0.2c0,0.3-0.2,0.1-0.3,0.1c0,0.1,0,0.3,0.1,0.4
								c0,0-0.1,0.1-0.2,0.2c0.1-0.1,0.1,0.2,0.1,0.3v-0.1c0,0,0,0.2,0,0.4c0.1,0,0.1-0.2,0.1-0.3c0,0.1,0,0.3,0.1,0.4
								c-0.1-0.1-0.1,0.3-0.1,0.4c0,0.2,0.1,0.3,0.1,0.4c-0.1,0,0,0.3-0.1,0.1c0-0.1,0.1-0.1,0-0.2c0,0.1-0.2,0-0.1,0.3
								s0.2,0.2,0.2,0.5c0-0.1-0.1-0.2-0.1-0.3l-0.1,0.2l0.1,0.2l0,0c0.1,0.2,0,0.5,0.1,0.8l0,0c-0.1-0.1-0.4-0.3-0.5-0.4l0,0
								c-0.2-0.2-0.4-0.3-0.5-0.3l0,0c-0.1-0.1-0.3-0.2-0.4-0.2c-0.3-0.3-0.1-0.5-0.3-0.5c-0.2-0.1-0.4,0-0.3,0.1
								c-0.1-0.1-0.2-0.2-0.4-0.2s-0.2-0.1-0.3-0.1c-0.2-0.1-0.3-0.2-0.4-0.3c-0.1,0,0,0-0.1,0c-0.4-0.3-1-0.4-1.2-0.8
								c0.1,0,0.1-0.1,0.1-0.1c-0.1,0-0.1-0.2-0.2,0c0,0.1-0.1,0.1,0,0.2c-0.3-0.1-0.7-0.3-0.8-0.5c0,0.1,0,0.1-0.1,0.1
								c0.1-0.1-0.1-0.3-0.3-0.3l-0.1,0.1v-0.1c-0.1,0-0.2,0.1-0.3,0v-0.1c-0.2,0-0.5,0-0.6-0.2l-0.1-0.2c-0.1,0-0.2,0-0.1,0.1
								c-0.2-0.2-0.4-0.3-0.4-0.5c-0.6,0-1.3-0.4-1.8-0.7l0,0c-0.1-0.1-0.1,0.1-0.2,0c0.1,0,0-0.2,0.1-0.2c-0.2-0.2-0.3,0-0.5-0.1
								c-0.1,0.1,0.1,0,0,0.1c0,0-0.3-0.2-0.4-0.1c0-0.1,0.1-0.1,0.1-0.2h-0.2c-0.1-0.2,0.5-0.1,0.5-0.3h-0.1c0-0.2,0.4,0,0.1-0.2
								c-0.2,0-0.4,0.1-0.3,0.2c-0.3-0.1-0.3,0.2-0.6,0c0-0.1,0.2,0.1,0.2,0c-0.1-0.2-0.3-0.1-0.4-0.2c0.1,0.1-0.1,0.2-0.2,0.2
								c-0.1-0.1,0.2-0.1,0-0.2c-0.1,0-0.3,0-0.2,0.1c-0.2,0.1-0.2-0.2-0.4-0.1c0-0.1,0.4-0.1,0.2-0.3c0,0.1-0.4,0-0.3,0.2
								c-0.1-0.1,0-0.2,0.1-0.2c-0.1-0.1-0.4,0-0.3-0.2l-0.1,0.1c0-0.1-0.1-0.1-0.1-0.2c-0.1-0.1-0.5,0-0.3-0.2c0,0-0.3-0.2-0.3,0
								c0.1,0.2,0.2,0,0.2,0.2c0-0.2-0.2-0.1-0.4-0.1V36c-0.1,0-0.2-0.1-0.3,0c0.1,0,0.1-0.1,0-0.1L31.2,36c-0.3-0.1,0-0.2-0.2-0.3
								h0.2c0,0-0.1-0.1-0.2-0.2c-0.1,0.1-0.2,0.1-0.3,0.2c-0.1,0,0-0.1-0.2-0.1h0.2c0,0,0-0.2-0.2-0.3c-0.1,0-0.4,0-0.2,0.2
								c-0.1,0-0.2-0.2-0.1-0.2c-0.2-0.1,0,0.1-0.2,0.1c0-0.1-0.2-0.3-0.3-0.5l0.3-0.1l-0.1-0.1c0.2,0,0-0.1,0.1-0.2
								c-0.1-0.1-0.2-0.1-0.3-0.1c0.1,0.3-0.4,0.1-0.5,0.4c-0.3-0.1,0.1-0.6-0.4-0.5c0,0.1-0.2,0.1,0,0.2c-0.2-0.1-0.2,0.1-0.4-0.1
								c0.2,0-0.1-0.3,0.2-0.3l0.1,0.1c0-0.1,0.1-0.2-0.1-0.3c-0.1,0-0.3-0.1-0.3,0c-0.1,0.1,0.2,0.1,0,0.2C28,34,28.1,33.8,27.9,34
								c0.2,0.1,0.1,0.2,0.1,0.3h-0.2h0.1c-0.3-0.2-0.2,0.1-0.4-0.1V34c0.1-0.1,0.4,0.3,0.4,0c-0.2-0.1-0.3,0-0.4-0.2h0.1
								c-0.1,0,0-0.4-0.3-0.3c-0.2,0-0.1,0-0.1,0.1c-0.3-0.1-0.4-0.1-0.6-0.2c0.1-0.1-0.3-0.2,0-0.2c0,0.1,0.5,0.4,0.6,0.3
								c0-0.2,0.2,0.1,0.4,0c-0.2-0.1-0.1-0.3-0.1-0.4c-0.1,0-0.1,0-0.2,0c-0.1,0.1,0,0.1-0.1,0.3c-0.2-0.2-0.5-0.3-0.7-0.2
								c0-0.1,0-0.2,0.1-0.1c-0.3-0.1-0.6-0.3-0.9-0.5c0.1,0.3-0.3-0.1-0.3,0.1c0.1,0.1,0.2,0.3,0.1,0.4c-0.1-0.1,0-0.1,0-0.1
								c-0.2,0-0.1-0.3-0.3-0.2c0.3,0.1,0.2-0.2,0.3-0.3c-0.2,0,0.1-0.1-0.1-0.2c-0.2,0-0.5-0.1-0.8-0.2c-0.2-0.3-0.7-0.4-0.9-0.5
								c-0.1-0.1,0.1-0.3,0-0.4c-0.2-0.1,0,0.2-0.2,0l0,0c-0.1,0-0.4-0.4-0.6-0.2l0.2-0.1H23c0,0,0-0.1,0.1-0.1
								c-0.1-0.2-0.3-0.2-0.5-0.3v0.2c-0.3-0.1-0.5-0.3-0.7-0.4l0.1-0.1h-0.2c0.1-0.1,0-0.2-0.1-0.2h0.5c0.1,0.1-0.2,0-0.2,0.2
								c0,0.1,0.3,0.2,0.4,0.2c-0.1-0.1-0.1,0-0.2,0c0-0.1,0.2-0.1,0.3-0.1l-0.1-0.1c0.1,0,0.2,0,0.4,0.1c-0.1,0,0,0.1,0,0.1
								c0.1-0.1,0.3-0.1,0.4,0.1s0.4,0.1,0.6,0.3c-0.2,0.1-0.3,0.1-0.5,0.1c0.1,0.1,0.2,0.1,0.3,0.2c0.1,0,0.3-0.2,0.5-0.1v0.1
								c0.2,0,0.3-0.1,0.5,0.1c0.4,0.3,0.7,0.5,1,0.7V32c0.3-0.1,0.6,0.2,0.8,0.3c0.3,0.3,0.8,0.4,0.9,0.6c0.7,0.3,1.3,0.6,1.9,1
								L29,34c0.2,0,0,0.1,0.2,0.2c-0.1-0.2,0.2,0,0.4-0.1c0.2,0.3,0.7,0.4,1,0.5v0.1c0.4,0,0.6,0.3,0.9,0.5c0,0.1,0,0.2,0.1,0.2
								c0.3,0,0.4,0,0.7,0.1c0.2,0.1,0.5,0.3,0.6,0.5c0.8,0.2,1.5,0.8,2.3,1.1v0.1c0.9,0.2,1.6,0.9,2.3,1.2l-0.2,0.1
								c0.2,0.2,0.5,0.2,0.5,0.1c0.2,0.2,0.5,0.2,0.6,0.4c0.2,0.1,0.3,0.1,0.5,0.1c0.4,0.3,0.5,0.4,0.9,0.5l-0.1-0.1
								c-0.1,0-0.1,0.1,0,0.1c0.2,0,0.5,0.4,0.5,0.1c0.3,0.4,1,0.4,1.3,0.8c0-0.1,0.1,0,0.2,0c0.2,0.1,0.4,0.3,0.5,0.3
								c0,0,0.1,0.1,0.1,0v0.1v-0.1c0,0,0.1,0,0.2,0.1c0,0,0.1,0,0.1-0.1s0-0.2-0.1-0.3l0,0v-0.2v-0.4c0-0.5,0-1.1,0-1.6l0,0
								c-0.2-0.3,0.2-0.8-0.1-1.1c0-0.1,0-0.3,0.1-0.3c-0.1-0.3,0.1-0.8,0-1.2v0.1c0.1-0.4,0-0.8,0.1-1.2c0,0,0,0.1,0.1,0.1
								c0.1-0.2-0.2-0.4,0-0.4h-0.1c0,0,0-0.1,0-0.2c-0.1,0-0.1-0.1-0.2-0.1l-0.5-0.3c-0.4-0.2-0.7-0.4-1.1-0.5
								c-0.5-0.5,0.2-0.4-0.4-0.5c0-0.1-0.1,0.1-0.1,0c-0.2,0-0.1-0.4-0.3-0.4c0,0.2-0.1,0-0.2,0.1c-0.3-0.3-0.3-0.5-0.7-0.5h0.1
								c-0.4,0-0.8-0.3-1.2-0.3c-1.9-1-3.7-2-5.6-3c-1.8-1.1-3.6-2-5.3-3.2c-0.3-0.4-0.4-0.4-0.9-0.6c0,0,0.1,0,0,0
								c-0.1,0.1-0.3-0.2-0.5-0.1c-0.7-0.4-1.3-0.7-2-1.1c0.1,0,0.2,0,0.1-0.1h-0.2l0,0c-0.1,0-0.2,0-0.2,0.1
								c-0.3-0.1-0.5-0.3-0.8-0.4L22.2,23c-0.1-0.1-0.3-0.2-0.3-0.2s0-0.1-0.1-0.1c0,0,0,0-0.1,0c0,0,0,0,0,0.1v0.6
								c-0.1,0.5,0,1.1,0,1.6c-0.2,1.5-0.4,2.9-0.2,4.4C22.1,28.5,21.6,28.3,21.5,27.6z"/>
							<path class="st1" d="M21.9,28.4c0,0.1,0.1,0.2,0,0.3C21.9,28.6,21.8,28.5,21.9,28.4z"/>
							<path class="st1" d="M25.5,31.5C25.5,31.5,25.6,31.6,25.5,31.5c0,0.1-0.1,0.1-0.1,0C25.5,31.6,25.5,31.5,25.5,31.5z"/>
							<path class="st1" d="M26.5,32.1c0,0-0.3,0-0.4-0.1L26.5,32.1z"/>
							<path class="st1" d="M27.3,33c0,0.1,0,0.1-0.1,0C27.3,33,27.3,33,27.3,33z"/>
							<path class="st1" d="M27.5,32.9c0.1,0,0.1,0.1,0.1,0.2C27.6,33,27.4,33,27.5,32.9z"/>
							<path class="st1" d="M29.5,34.3c0,0,0.2,0,0.2,0.1C29.7,34.3,29.4,34.3,29.5,34.3z"/>
							<path class="st1" d="M30.5,34.7C30.5,34.7,30.6,34.8,30.5,34.7C30.6,34.8,30.5,34.8,30.5,34.7L30.5,34.7z"/>
							<polygon class="st1" points="44.1,35.3 44.1,35.5 44,35.5 							"/>
							<path class="st1" d="M38.3,29.1c-0.1,0,0-0.1,0-0.1S38.1,29,38.3,29.1z"/>
							<polygon class="st1" points="33.9,27 33.9,27 33.8,27.2 							"/>
						</g>
					</g>
				</g>
			</g>
		</g>
		<g>
			<polygon class="st2" points="50.9,28.5 28.7,15.7 28.7,11.5 50.9,24.3 			"/>
			<g>
				<g>
					<g>
						<g>
							<path class="st1" d="M50.7,28.7c0.2,0.1,0-0.2,0.1,0C50.8,28.7,50.7,28.8,50.7,28.7z"/>
							<path class="st1" d="M51.1,27.8c-0.4-0.7,0-1.6-0.2-2.4c0-0.1,0.2,0,0.2-0.2c-0.1-0.3-0.1-0.6-0.2-0.9
								c-0.5-0.3-1.1-0.8-1.5-1.2h0.1c-0.1-0.1-0.4-0.1-0.6-0.2c0,0,0.1,0,0.1-0.1c-0.1,0.1-0.3-0.1-0.4-0.1c0-0.1,0-0.1,0-0.3
								l-0.2,0.1c-0.4,0.1-0.6-0.4-1-0.4c0,0,0.1,0,0.1-0.1c-0.6-0.1-1.3-0.6-2-0.9c0,0,0.1-0.1,0.1-0.2c-0.1,0.1-0.3,0-0.5,0
								c0-0.2-0.4,0-0.5-0.2l0,0c-0.2,0-0.2-0.2-0.4-0.1v-0.1c-0.2,0.1-0.2-0.2-0.3-0.2l0,0c-0.1,0-0.1-0.1-0.3-0.2l0,0
								c-0.3-0.1-0.4-0.3-0.4-0.1c0-0.2,0.3,0.1,0.2-0.1c-0.9-0.3-1.7-0.8-2.5-1.3c-0.1-0.1-0.1-0.2-0.1-0.2c-0.1,0-0.3-0.1-0.4-0.1
								v-0.1c-0.1-0.1-0.3,0.1-0.4-0.1c0.1,0,0.1,0,0.1-0.1c-0.2,0-0.4-0.1-0.6-0.1h0.1c-0.3,0-0.3-0.2-0.5-0.2h0.1
								c-0.2-0.2-0.2,0.1-0.4-0.1c0.1,0,0.1,0,0.1-0.1c-0.3,0-0.6-0.2-0.8-0.3l0,0c-0.2-0.1-0.4-0.3-0.7-0.4
								c-0.1-0.1,0.1-0.2-0.1-0.3c-0.1,0.2-0.4-0.2-0.4,0.1c-0.2-0.1-0.5-0.4-0.6-0.4c0.1,0,0-0.3,0.2-0.2l-0.1-0.2
								c0.1-0.1,0.1,0.1,0.1,0c-0.1,0-0.4-0.1-0.4-0.2c-0.2,0-0.5,0.1-0.7,0c0.1,0,0-0.2,0.1-0.2L35,15.5c-0.1,0,0.1-0.1-0.1-0.2
								c0,0-0.1,0-0.1,0.1c0,0-0.4-0.2-0.3-0.3c0-0.1,0.1,0,0.1-0.1c-0.1-0.1-0.2,0-0.4-0.1l0,0c-0.1-0.1-0.3-0.1-0.3,0
								c0.1,0,0-0.1,0.1,0c-0.1,0-0.3,0-0.5-0.1c0.1,0,0.1,0,0.1-0.1c-0.3,0-0.5-0.1-0.8-0.2c0,0.1,0.2-0.1,0.2,0
								c-0.2-0.3-0.7-0.2-0.9-0.5v0.1C32,14,32,13.9,31.9,13.9c0-0.1-0.1,0-0.2-0.1c-0.1,0,0,0,0.1,0c-0.2,0-0.8-0.2-1-0.5
								c0,0-0.3,0-0.4,0l0.1-0.1c0-0.1-0.2-0.1-0.2-0.2c-0.2,0,0.6,0.2,0.4,0.2c0-0.1-0.4,0-0.3-0.1C30.3,13,30,13,30,12.9l0.1-0.1
								c-0.1-0.1-0.1,0-0.2,0h-0.1c0,0.1-0.1-0.1-0.1,0.1c0-0.1-0.1,0-0.1-0.2v-0.2c-0.1,0,0,0.1-0.1,0.2v-0.1
								c0.1,0.3-0.1-0.1-0.1,0.1c-0.1-0.1-0.1-0.1-0.2-0.2c0,0,0,0.1-0.1,0c0.1,0.2,0.1,0.3,0.1,0.4c0,0,0-0.1-0.1-0.1s0,0.1,0,0.2
								c0,0-0.1,0-0.2,0.1c0.1,0.1,0.2,0.1,0.3,0.2c-0.1,0-0.1,0.1,0,0.1c0,0,0,0,0,0.1s0,0.1-0.1,0.2c0-0.1-0.1-0.2-0.2-0.1
								c-0.2,0.1,0.2,0.3,0.1,0.5l0.2-0.1c-0.1,0.1,0.1,0.4-0.1,0.3c0.1,0.1-0.1,0.3,0.1,0.3c-0.1,0.2,0,0.5,0,0.6s0,0.2-0.2,0.3
								l0,0h0.1l0,0l0,0l0,0l0,0c0,0,0,0.1-0.1,0.1c0,0.1,0.1,0.1,0.2,0h0.1c0,0,0.1,0,0.1,0.1s0,0.1,0,0.1h0.2c0.2,0.1,0,0.2,0,0.3
								c0.1,0,0.2,0.1,0.3,0.1v0.2c0-0.1,0.1,0,0.2,0H30c0,0.1,0.1,0.1,0.2,0.1c0-0.1-0.1-0.2-0.1-0.2c0.1,0,0.1,0,0.3,0
								c-0.1,0.1,0.1,0.2,0.2,0.2c0.1,0.1,0.2,0,0.2,0c0,0.1,0.1,0.1,0,0.1c0,0,0-0.1-0.1-0.1c0,0.1,0,0.2,0.1,0.2s0.1-0.2,0.2,0
								c-0.1,0-0.1,0-0.2,0l0.1,0.1l0.1-0.1c0,0,0,0,0,0.1c0.1-0.1,0.3,0.1,0.4,0c0.1,0,0.1,0.2,0.2,0.2l0,0
								c0.1,0.1,0.2,0.2,0.4,0.1l0,0c0,0,0.2,0.1,0.3,0.1c0.1,0.1-0.2,0.4,0.1,0.4c0.1,0.1,0.3,0,0.3-0.1c0.2,0.2,0.6,0.2,0.7,0.5
								c0.1,0,0-0.1,0.1,0c0.4,0.3,0.9,0.3,1,0.7c-0.1,0-0.1,0.1-0.1,0.1c0.1,0,0.1,0.1,0.2,0c0-0.1,0.1-0.1,0-0.2
								c0.3,0.1,0.6,0.3,0.7,0.4c0-0.1,0-0.1,0.1-0.1c-0.1,0.1,0.1,0.3,0.2,0.3l0.1-0.1v0.1c0.1,0,0.2-0.1,0.2,0v0.1
								c0.2,0,0.4,0,0.5,0.1v0.2c0.1,0,0.2,0,0.1-0.1c0.2,0.2,0.3,0.3,0.4,0.5c0.6,0,1.2,0.3,1.6,0.6l0,0c0.1,0.1,0.1-0.1,0.2,0
								c-0.1,0,0,0.2-0.1,0.2c0.1,0.2,0.3,0,0.4,0.1c0.1-0.1-0.1,0,0-0.1c0,0,0.2,0.2,0.3,0.1c0,0.1-0.1,0.1-0.1,0.2h0.1
								c0,0.2-0.5,0.1-0.4,0.4H39c0,0.2-0.4,0-0.1,0.2c0.1,0,0.4-0.1,0.3-0.2c0.3,0.1,0.3-0.2,0.5-0.1c0,0.1-0.2-0.1-0.2,0
								c0.1,0.2,0.3,0.1,0.4,0.2c-0.1-0.1,0.1-0.2,0.2-0.2c0.1,0.1-0.1,0.1,0,0.2c0.1-0.1,0.3,0,0.1-0.1c0.2-0.1,0.2,0.1,0.3,0.1
								c0,0.1-0.3,0.2-0.2,0.3c0-0.1,0.3,0,0.3-0.2c0.1,0.1,0,0.2-0.1,0.2c0.1,0.1,0.4,0,0.3,0.2l0.1-0.1c0,0.1,0,0.1,0.1,0.2
								s0.4,0,0.3,0.2c0,0,0.3,0.1,0.2,0c-0.1-0.1-0.2,0-0.2-0.2c0,0.2,0.2,0.1,0.3,0.1v0.1c0.1,0,0.2,0.1,0.2,0
								c-0.1,0-0.1,0.1,0,0.1l0.1-0.1c0.2,0.1-0.1,0.2,0.1,0.3h-0.2c0,0,0,0.1,0.2,0.1c0.1-0.1,0.2-0.1,0.3-0.2c0.1,0,0,0.1,0.1,0.1
								h-0.2c0,0,0,0.2,0.1,0.3c0.1,0,0.3,0,0.2-0.2c0.1,0,0.1,0.1,0,0.2c0.2,0.1,0-0.1,0.2-0.1c0,0.1,0.1,0.3,0.2,0.4l-0.2,0.1
								l0.1,0.1c-0.2,0,0,0.1-0.1,0.2c0,0.1,0.2,0.1,0.2,0.1c-0.1-0.3,0.4-0.2,0.4-0.4c0.3,0.1-0.1,0.6,0.4,0.4c0-0.1,0.2-0.1,0-0.2
								c0.1,0.1,0.2-0.1,0.4,0.1c-0.2,0,0,0.3-0.2,0.3c0-0.1-0.1-0.1-0.1-0.1c0,0.1-0.1,0.2,0,0.3c0.1,0,0.3,0.1,0.3,0
								c0.1-0.1-0.2-0.1,0-0.1c0.2,0.1,0.2,0.3,0.4,0.1c-0.1-0.1-0.1-0.2-0.1-0.3h0.2L44.5,24c0.2,0.2,0.1-0.1,0.4,0.1v0.2
								c-0.1,0.1-0.3-0.3-0.4,0c0.1,0.1,0.3,0,0.4,0.2h-0.1c0,0,0,0.3,0.3,0.3c0.1,0,0.1,0,0.1-0.1c0.3,0.1,0.4,0.1,0.5,0.2
								c-0.1,0.1,0.3,0.2,0,0.2c0-0.1-0.4-0.3-0.6-0.2c0,0.2-0.2-0.1-0.3,0c0.2,0.1,0.1,0.3,0,0.4c0,0,0.1,0,0.2,0
								c0.1-0.1,0-0.1,0.1-0.2c0.2,0.2,0.5,0.2,0.6,0.2c0,0.1,0,0.2-0.1,0.1c0.3,0.1,0.5,0.3,0.8,0.5c-0.1-0.3,0.3,0.1,0.3-0.1
								c-0.1-0.1-0.1-0.3,0-0.3c0.1,0.1,0,0.1,0,0.1c0.2,0,0.1,0.3,0.3,0.2c-0.3-0.1-0.2,0.2-0.3,0.3c0.2,0-0.1,0.1,0.1,0.2
								c0.2,0,0.5,0.1,0.7,0.2c0.2,0.3,0.6,0.4,0.8,0.5c0.1,0.1-0.1,0.2,0,0.3c0.1,0.1,0-0.2,0.2,0l0,0c0.1,0,0.3,0.3,0.5,0.1
								l-0.2,0.1h0.1c0,0,0,0.1-0.1,0.1c0.1,0.2,0.3,0.1,0.4,0.2v-0.1c0.3,0.1,0.4,0.3,0.6,0.4l-0.1,0.1h0.2c-0.1,0.1,0,0.2,0.1,0.2
								h-0.5c-0.1-0.1,0.2,0,0.2-0.2c0-0.1-0.2-0.2-0.3-0.1c0.1,0.1,0.1,0,0.2,0c0,0.1-0.2,0.1-0.3,0.1l0.1,0.1
								c-0.1,0-0.2,0-0.4-0.1c0.1,0,0-0.1,0-0.1c-0.1,0.1-0.2,0.1-0.4-0.1c0-0.2-0.4-0.1-0.6-0.3c0.1-0.1,0.3-0.1,0.5-0.1
								c-0.1-0.1-0.1-0.1-0.2-0.2c-0.1,0-0.2,0.2-0.4,0.1v-0.1c-0.2,0-0.3,0.1-0.4,0c-0.3-0.2-0.6-0.4-0.9-0.6v-0.1
								c-0.3,0.1-0.5-0.2-0.7-0.2c-0.3-0.3-0.7-0.3-0.8-0.6c-0.6-0.3-1.1-0.5-1.7-0.9l0.2-0.1c-0.2,0,0-0.1-0.1-0.1
								c0.1,0.2-0.2,0-0.3,0.1c-0.2-0.3-0.6-0.3-0.9-0.4v-0.1c-0.3,0-0.5-0.3-0.8-0.5c0-0.1,0-0.2-0.1-0.2c-0.2,0-0.3,0-0.6,0
								c-0.2-0.1-0.4-0.3-0.6-0.4c-0.8-0.2-1.3-0.7-2-0.9v-0.1c-0.8-0.1-1.4-0.8-2-1l0.1-0.1c-0.1-0.1-0.4-0.2-0.5,0
								c-0.1-0.1-0.5-0.2-0.5-0.4c-0.2-0.1-0.3,0-0.4-0.1c-0.3-0.3-0.5-0.3-0.8-0.5l0.1,0.1c0.1,0,0.1-0.1,0-0.1s-0.4-0.3-0.4,0
								c-0.3-0.3-0.9-0.4-1.1-0.7c0,0.1-0.1,0-0.2,0c-0.3-0.2-0.6-0.5-0.9-0.5c0-0.1,0.1,0,0-0.1c-0.1,0,0,0.1-0.2,0
								c-0.6-0.2-1-0.7-1.4-0.9c-0.4-0.1-0.7-0.3-1.1-0.5c-0.5-0.3-1-0.6-1.5-0.9c0-0.2,0-0.5,0-0.7l0,0c0-0.1-0.1-0.3,0-0.4
								c0-0.1,0-0.2,0-0.3c0-0.2,0.1-0.3-0.1-0.5c0-0.1,0-0.3,0.1-0.2c-0.1-0.1,0-0.3,0-0.5s0-0.3,0-0.7v0.1c0.1-0.6,0-1.2,0.1-1.7
								c0,0.1,0,0.2,0.1,0.3c0.1-0.1-0.2-0.8,0-0.6c0-0.1-0.1-0.3-0.1-0.2c0-0.2,0-0.4,0-0.7c0.5,0.3,1,0.5,1.5,0.8
								c0.5,0.2,1,0.5,1.5,0.7c0.5,0.4-0.2,0.4,0.3,0.5c0,0.1,0.1-0.1,0,0c0.2,0,0.1,0.4,0.3,0.3c0-0.1,0.1,0,0.2-0.1
								c0.3,0.3,0.3,0.4,0.6,0.5h-0.1c0.4,0,0.7,0.3,1.1,0.2c1.6,0.9,3.3,1.7,4.9,2.6c1.5,1,3.1,1.7,4.7,2.8
								c0.3,0.4,0.3,0.4,0.8,0.6c0,0-0.1,0,0,0c0.1-0.1,0.3,0.1,0.4,0c0.6,0.4,1.1,0.6,1.8,1c-0.1,0-0.2,0-0.1,0.1h0.2l0,0
								c0.1,0,0.2,0,0.2-0.1c1.6,0.8,2.9,1.9,4.4,2.7c0.1,0,0.1,0.1,0.2,0.1s0.2,0.1,0.3,0.2c0.3,0.2,0.6,0.3,0.9,0.5
								c0,0.3,0,0.5,0,0.7v0.5v0.2c0,0.2,0,0.3-0.1,0.5c0,0.3-0.1,0.6-0.1,1c0,0.6-0.1,1.3,0,1.9C51.6,28.5,51.2,28.3,51.1,27.8z"/>
							<path class="st1" d="M50.4,28.6c0-0.1-0.1-0.2,0-0.2C50.4,28.4,50.5,28.5,50.4,28.6z"/>
							<path class="st1" d="M47.3,25.8C47.3,25.8,47.3,25.7,47.3,25.8c0-0.1,0.1-0.1,0.1,0C47.3,25.7,47.3,25.8,47.3,25.8z"/>
							<path class="st1" d="M46.4,25.2c0-0.1,0.3,0,0.4,0.1L46.4,25.2z"/>
							<path class="st1" d="M45.7,24.5C45.7,24.4,45.7,24.4,45.7,24.5C45.8,24.5,45.8,24.4,45.7,24.5z"/>
							<path class="st1" d="M45.6,24.6c-0.1,0-0.1-0.1-0.1-0.1C45.4,24.5,45.7,24.5,45.6,24.6z"/>
							<path class="st1" d="M43.8,23.3c0,0-0.2,0-0.2-0.1C43.7,23.3,43.9,23.3,43.8,23.3z"/>
							<path class="st1" d="M42.9,22.9L42.9,22.9C42.8,22.8,42.9,22.8,42.9,22.9L42.9,22.9z"/>
							<polygon class="st1" points="29.3,13.7 29.3,13.8 29.3,13.8 							"/>
							<path class="st1" d="M33.3,14.7c0.1,0,0,0.1,0,0.1S33.4,14.8,33.3,14.7z"/>
							<polygon class="st1" points="37.2,16.5 37.1,16.5 37.2,16.4 							"/>
						</g>
					</g>
				</g>
			</g>
		</g>
		<g>
			<polygon class="st0" points="21.3,11.5 32.4,5.1 54.5,17.9 43.5,24.3 			"/>
			<g>
				<g>
					<g>
						<g>
							<path class="st1" d="M21.4,11.2c-0.2,0.2,0.2,0-0.1,0.1C21.3,11.2,21.3,11.2,21.4,11.2z"/>
							<path class="st1" d="M22.1,12.1c1,0.1,1.8,1,2.8,1.3c0.1,0-0.1,0.2,0.1,0.3c1,0.2,2.2,1.1,3.1,1.9H28
								c0.2,0.1,0.5,0.1,0.7,0.3c0,0-0.1,0-0.1,0.1c0.1-0.1,0.4,0.2,0.5,0.1c0.1,0.1,0,0.2,0.1,0.3h0.2c0.5-0.1,0.8,0.5,1.3,0.6
								c0,0-0.1,0-0.1,0.1c0.8,0.2,1.7,0.8,2.5,1.2c-0.1,0-0.1,0.1-0.1,0.1c0.1-0.1,0.4,0,0.6,0.1c0,0.2,0.4,0.1,0.6,0.3l0,0
								c0.3,0,0.2,0.2,0.5,0.2l0.1,0.2c0.2-0.1,0.2,0.3,0.4,0.3l0,0c0.2,0,0.2,0.2,0.3,0.2l0,0c0.3,0.1,0.5,0.3,0.5,0.2
								c0,0.2-0.3-0.1-0.3,0.1c1.1,0.5,2.2,1.1,3.2,1.7C39,21.8,39,21.9,39,22c0.1,0,0.4,0.2,0.5,0.2c0,0,0,0.1,0.1,0.1
								c0.2,0.2,0.3,0,0.5,0.1c-0.1,0-0.2,0-0.2,0.1c0.2,0,0.5,0.1,0.7,0.2h-0.1c0.3,0,0.4,0.3,0.6,0.3H41c0.3,0.3,0.2-0.1,0.4,0.1
								c-0.1,0-0.1,0-0.1,0.1c0.3,0,0.7,0.3,1,0.4l0,0c0.3,0.1,0.6,0.4,0.9,0.4c0.1,0.1,0,0.2,0.1,0.3c0,0,0.1,0,0.1-0.1
								c0-0.2,0.5-0.4,0.2-0.5c0.2-0.1,0.7-0.3,0.8-0.4c-0.1,0.1,0.2,0.1,0,0.3h0.2c0,0.1-0.2,0.1-0.1,0.1c0.1-0.1,0.4-0.3,0.5-0.3
								c0.1-0.2,0.2-0.5,0.5-0.7c-0.1,0.1,0.2,0.1,0.1,0.2l0.3-0.6c0.1-0.1,0.1,0.1,0.2,0c0,0,0-0.1,0-0.2c0,0,0.4-0.3,0.6-0.2
								c0.1,0-0.1,0.1,0,0.1c0.2-0.1,0.2-0.2,0.4-0.3l0,0c0.1,0,0.3-0.3,0.1-0.3c-0.1,0,0.1,0.1-0.1,0.1c0-0.1,0.3-0.3,0.5-0.4
								c0,0.1,0,0.1,0,0.2c0.2-0.3,0.5-0.5,0.7-0.7c0-0.1,0,0.2-0.1,0.2c0.4-0.1,0.7-0.6,1.1-0.6l-0.1-0.1c0.2-0.1,0.2,0,0.3-0.1
								c0,0.1,0.1-0.1,0.3-0.2c0-0.1,0,0,0,0.1c0.1-0.1,0.8-0.6,1.2-0.8c0,0,0.1-0.3,0.2-0.3v0.1c0.1,0,0.3-0.2,0.4-0.1
								c0.1-0.2-0.7,0.5-0.5,0.3c0.1,0,0.3-0.4,0.3-0.2c0.2-0.1,0.3-0.3,0.5-0.3c-0.1,0-0.1,0.2,0.1,0.1c0.3-0.2,0-0.1,0.2-0.2
								l0.1-0.1c-0.1-0.1,0.1-0.1,0-0.1c0.1,0,0.1-0.1,0.3,0l0.1,0.1c0.1,0,0-0.1-0.1-0.2h0.1c-0.3-0.1,0.2-0.1,0-0.2
								c0.1,0,0.2-0.1,0.3-0.1c0,0-0.1-0.1,0-0.1c-0.2,0-0.4-0.1-0.4-0.1h0.1c0-0.1-0.1-0.1-0.2-0.1c0,0,0-0.1-0.1-0.3
								c-0.2,0-0.2,0.1-0.2,0.2c0-0.3-0.6-0.2-0.6-0.4c0.1,0,0.3,0.1,0.2-0.1c0-0.3-0.4,0-0.6-0.3v0.2c-0.1-0.2-0.4-0.1-0.3-0.3
								c-0.1,0-0.3-0.2-0.3-0.1c-0.4-0.4-1.1-0.5-1.2-1c-0.1,0-0.2-0.1-0.2,0s0.2,0,0.2,0.1c-0.1,0-0.1,0-0.1,0
								c-0.1-0.1-0.2-0.2,0-0.2c-0.2-0.3-0.5,0.1-0.8-0.2c0,0,0-0.1-0.1-0.1h-0.3c-0.2-0.2-0.1-0.2,0-0.3c-0.1-0.1-0.3-0.2-0.4-0.1
								l-0.1-0.2c0.1,0.2-0.1,0-0.2,0h0.1c0-0.1-0.2-0.1-0.3-0.1c0,0.1,0.1,0.2,0.2,0.3c-0.1,0-0.2-0.1-0.3-0.1
								c0.1-0.1-0.2-0.2-0.3-0.3c-0.1-0.1-0.2,0-0.2,0c0-0.1-0.2-0.1,0-0.1c0,0,0.1,0.1,0.2,0.1c-0.1-0.1,0-0.2-0.2-0.2
								c-0.1,0-0.1,0.2-0.3,0c0.1,0,0.1,0,0.2,0l-0.2-0.2L46.2,14c0,0,0,0,0-0.1c-0.1,0.1-0.4-0.2-0.5-0.1c-0.1,0-0.2-0.2-0.3-0.3
								l0,0c-0.1-0.1-0.3-0.2-0.4-0.2l0,0c-0.1,0-0.2-0.1-0.4-0.1c-0.1-0.2,0.1-0.4-0.1-0.4c-0.2-0.1-0.4,0-0.4,0.1
								c-0.3-0.3-0.8-0.3-1-0.6c-0.1,0,0,0-0.2,0c-0.5-0.3-1.1-0.5-1.4-0.9c0.2,0,0.1-0.1,0.1-0.1c-0.2,0-0.1-0.2-0.2,0
								c0,0.1-0.1,0.1,0,0.2c-0.3-0.1-0.8-0.4-0.9-0.5c0.1,0.1,0,0.1-0.1,0.1c0.1-0.1-0.1-0.3-0.3-0.3L40,10.9v-0.1
								c-0.1,0-0.2,0.1-0.3,0v-0.1c-0.2,0-0.5,0-0.6-0.2L39,10.3c-0.1,0-0.3,0-0.1,0.1c-0.3-0.3-0.5-0.4-0.5-0.5
								c-0.7,0-1.4-0.5-2-0.8l0,0c-0.1-0.1-0.1,0.1-0.2,0c0.1,0,0-0.2,0.1-0.2c-0.2-0.2-0.4-0.1-0.5-0.1c-0.1,0.1,0.1,0,0.1,0.1
								c0,0-0.3-0.3-0.4-0.1c0-0.1,0.1-0.1,0.1-0.2h-0.2c-0.1-0.3,0.5,0,0.5-0.3l-0.1-0.1c0-0.2,0.4,0,0.1-0.2
								c-0.2,0-0.4,0.1-0.3,0.2c-0.3-0.1-0.3,0.2-0.6,0c0-0.1,0.3,0.1,0.3,0C35.2,8,35,8.1,34.8,8c0.1,0.1-0.1,0.2-0.2,0.2
								c-0.1-0.1,0.2-0.1,0-0.2c-0.1,0-0.3,0-0.2,0.1C34.2,8.2,34.2,7.9,34,8c0-0.2,0.4-0.1,0.2-0.3c0,0.1-0.4,0-0.4,0.2
								c-0.1-0.1,0-0.2,0.1-0.2c-0.1-0.1-0.5,0-0.4-0.2l-0.1,0.1c0-0.1-0.1-0.1-0.1-0.2c-0.1-0.1-0.5-0.1-0.4-0.3c0,0-0.3-0.2-0.3,0
								c0.1,0.2,0.3,0,0.3,0.3c0-0.2-0.3-0.1-0.4-0.1V7.2c-0.1,0-0.2-0.1-0.3-0.1c0.1,0,0.1-0.1,0-0.1l-0.1,0.1
								c-0.2,0,0.1-0.2,0-0.2c0,0,0,0,0.1-0.1c0,0,0-0.1-0.1-0.1C32.1,6.8,32,6.9,32,7l0,0c0,0,0-0.1,0,0V6.9l0,0V6.8
								c0,0,0-0.1-0.1,0c0,0.1,0,0.2,0,0.3c0,0-0.1,0-0.1-0.1c-0.1,0.1,0.1,0.1,0,0.2c-0.1,0-0.4,0-0.6,0l0.1-0.3L31.2,7
								c0.1-0.2-0.1,0-0.1-0.2c-0.1,0-0.2,0.1-0.2,0.2c0.4,0.1-0.1,0.5,0.1,0.6c-0.3,0.3-0.5-0.3-0.7,0.2c0.1,0,0,0.3,0.2,0.1
								c-0.2,0.1,0,0.3-0.3,0.3c0.1-0.2-0.3-0.1-0.1-0.4c0,0.1,0.2,0,0.2-0.1c-0.1,0-0.1-0.2-0.3-0.1c-0.1,0.1-0.3,0.2-0.2,0.3
								C29.9,8,30,7.8,30,7.9c-0.2,0.2-0.4,0-0.4,0.3c0.2-0.1,0.3,0,0.3,0l-0.2,0.2V8.3c-0.3,0.1,0,0.2-0.3,0.3l-0.2-0.1
								c0-0.2,0.5-0.2,0.3-0.4c-0.2,0.1-0.2,0.2-0.4,0.3l0.1-0.1c-0.1,0-0.3-0.2-0.5,0.1c-0.1,0.1,0,0.1,0,0.2
								c-0.3,0.2-0.4,0.3-0.5,0.5c0-0.2-0.4,0.2-0.2-0.1c0.1,0,0.6-0.2,0.6-0.5c-0.2-0.1,0.3-0.1,0.2-0.3c-0.3,0.1-0.3,0-0.5-0.1
								c-0.1,0-0.1,0.1-0.1,0.2s0.1,0.1,0.2,0.2c-0.3,0.1-0.5,0.4-0.6,0.5c-0.1,0-0.2-0.1,0-0.2c-0.3,0.2-0.7,0.4-1,0.6
								c0.3,0-0.3,0.3-0.1,0.3c0.2-0.1,0.4,0,0.4,0.1c-0.1,0,0-0.1-0.1-0.1c-0.1,0.2-0.3,0-0.3,0.2c0.3-0.2-0.1-0.2-0.1-0.4
								c-0.2,0.2,0-0.1-0.3,0c-0.2,0.2-0.4,0.4-0.6,0.6c-0.4,0-0.8,0.5-1,0.6c-0.2,0-0.2-0.2-0.3-0.1c-0.2,0.1,0.2,0.1-0.1,0.2l0,0
								c-0.1,0.1-0.5,0.2-0.5,0.5v-0.2c-0.1,0-0.1,0.1-0.1,0.1l-0.1-0.1c-0.2,0-0.3,0.2-0.5,0.3h0.2c-0.3,0.3-0.5,0.3-0.8,0.5v-0.1
								L22.4,12c0-0.1-0.2-0.1-0.3,0l0.3-0.5c0.2,0-0.1,0.2,0.1,0.3c0.1,0,0.4-0.1,0.4-0.3c-0.1,0-0.1,0.1-0.2,0.2
								c-0.1-0.1,0-0.2,0.1-0.3c0,0-0.2,0-0.1,0.1c0.1-0.1,0.2-0.2,0.4-0.3c-0.1,0.1,0.1,0,0.1,0.1c0-0.1,0.1-0.3,0.3-0.4
								c0.2,0,0.4-0.3,0.6-0.4c0,0.2-0.1,0.4-0.3,0.5c0.2,0,0.2-0.1,0.4-0.1c0-0.1,0-0.3,0.2-0.5l0.1,0.1c0.2-0.2,0.1-0.3,0.4-0.4
								c0.5-0.2,0.9-0.5,1.2-0.6l0.1,0.1C26.3,9.3,26.8,9.2,27,9c0.5-0.1,0.8-0.6,1.1-0.6c0.7-0.5,1.3-0.9,2-1.3v0.2
								c0.1-0.2,0.1,0,0.3-0.1c-0.2,0,0.1-0.2,0.1-0.4c0.4-0.1,0.8-0.5,1-0.7l0.1,0.1c0.1-0.2,0.6-0.5,1-0.6L33,5.9
								c0,0.1,0.1,0.2,0.3,0.3c0.3,0,0.4,0,0.8,0.1c0.2,0.1,0.5,0.4,0.7,0.5c0.9,0.3,1.7,0.9,2.6,1.3v0.1c1,0.3,1.8,1,2.6,1.3
								l-0.2,0.1c0.2,0.2,0.5,0.2,0.5,0.1c0.2,0.2,0.6,0.2,0.7,0.5c0.2,0.2,0.3,0.1,0.5,0.2c0.4,0.3,0.6,0.4,1,0.6l-0.1-0.1
								c-0.1,0-0.1,0.1,0,0.2c0.2,0,0.6,0.4,0.5,0.1c0.4,0.4,1.1,0.5,1.5,0.9c0-0.1,0.1,0,0.2,0c0.4,0.2,0.8,0.6,1.1,0.7
								c0,0.1-0.2,0,0,0.1c0.1,0,0-0.1,0.2,0c0.7,0.3,1.2,0.9,1.9,1.2c1.1,0.5,2.2,1.2,3.2,1.7l0,0c0.4,0,0.7,0.6,1.1,0.5
								c0.1,0.1,0.3,0.2,0.2,0.2c0.3,0,0.7,0.5,1.1,0.6h-0.1c0.1,0.1,0.2,0.1,0.3,0.2l0.4,0.3c0.3,0.2,0.7,0.4,1,0.6
								c-0.1,0-0.2-0.1-0.3-0.1c0.1,0.2,0.9,0.3,0.7,0.4c0.1,0.1,0.3,0,0.2,0c0.2,0.1,0.5,0.3,0.7,0.5c-0.6,0.4-1.2,0.7-1.9,1.1
								l-0.9,0.6l-0.6,0.4c-0.7,0.3-0.2-0.3-0.7,0.1c-0.1,0,0,0.1,0,0.1c-0.2,0.2-0.5,0-0.5,0.1c0.1,0.1,0,0.1,0,0.2
								c-0.5,0.2-0.6,0.1-0.9,0.4v-0.1c-0.3,0.4-0.8,0.6-1,1c-0.9,0.6-1.9,1.1-2.8,1.7l-1.4,0.9l-0.7,0.4l-1.2,0.7
								c-0.4-0.2-0.7-0.4-1.1-0.6c-2-1.2-4-2.3-6-3.5c-0.4-0.5-0.4-0.5-1-0.7c0,0,0.1,0,0,0c-0.1,0.1-0.4-0.2-0.5-0.1
								c-0.7-0.5-1.5-0.8-2.2-1.3c0.1,0.1,0.3,0,0.1-0.1h-0.2l0,0c-0.1,0-0.3,0-0.2,0.1c-2-1-3.8-2.4-5.7-3.5
								c-0.4-0.3-1.1-0.6-1.6-0.9c-1.4-1-2.6-2-4.1-2.7C21,12.1,21.4,11.9,22.1,12.1z"/>
							<path class="st1" d="M21.7,11c0.1,0,0.3,0,0.2,0.1C21.8,11.1,21.7,11.1,21.7,11z"/>
							<path class="st1" d="M26.6,9.1h0.1l-0.1,0.1C26.7,9.2,26.6,9.1,26.6,9.1z"/>
							<path class="st1" d="M27.8,8.5c0,0.1-0.2,0.3-0.3,0.4L27.8,8.5z"/>
							<path class="st1" d="M29.1,8.1c0.1,0,0.1,0,0,0.1C29,8.2,29.1,8.1,29.1,8.1z"/>
							<path class="st1" d="M29.1,7.9c0.1,0,0.2,0,0.2,0C29.2,7.8,29.1,8,29.1,7.9z"/>
							<path class="st1" d="M31.5,6.7c0,0,0.1-0.2,0.2-0.1C31.7,6.6,31.5,6.9,31.5,6.7z"/>
							<path class="st1" d="M32.3,6.1L32.3,6.1C32.4,6.2,32.3,6.2,32.3,6.1L32.3,6.1z"/>
							<polygon class="st1" points="51.8,17 51.6,16.9 51.7,16.9 							"/>
							<path class="st1" d="M48.1,21.1c-0.1,0.1-0.1,0-0.1,0C48,21,47.9,21.1,48.1,21.1z"/>
							<polygon class="st1" points="43.6,24 43.6,24 43.6,24.2 							"/>
						</g>
					</g>
				</g>
			</g>
		</g>
		<g>
			<polygon class="st2" points="21.3,20 28.7,15.7 50.9,28.5 43.5,32.8 			"/>
			<g>
				<g>
					<g>
						<g>
							<path class="st1" d="M21.4,19.7c-0.2,0.1,0.2,0-0.1,0.1C21.3,19.7,21.3,19.7,21.4,19.7z"/>
							<path class="st1" d="M22,20.6c0.9,0.1,1.6,0.9,2.5,1.2c0.1,0-0.1,0.2,0.1,0.2c0.9,0.2,2,1,2.8,1.7h-0.1
								c0.1,0.1,0.5,0.1,0.6,0.2c0,0-0.1,0-0.1,0.1c0.1-0.1,0.4,0.1,0.5,0.1c0,0.1,0,0.2,0.1,0.3l0.2-0.1c0.5-0.1,0.7,0.4,1.2,0.5
								c0,0-0.1,0-0.1,0.1c0.7,0.2,1.5,0.7,2.3,1c0,0-0.1,0.1-0.1,0.2c0.1-0.1,0.3,0,0.5,0.1c0,0.2,0.4,0.1,0.6,0.3l0,0
								c0.2,0,0.2,0.2,0.4,0.1v0.2c0.2-0.1,0.2,0.2,0.4,0.2l0,0c0.1,0,0.2,0.2,0.3,0.2l0,0c0.3,0.1,0.4,0.3,0.5,0.2
								c0,0.2-0.3-0.1-0.2,0.1c1,0.4,1.9,1,2.9,1.5c0.1,0.1,0.1,0.2,0.1,0.2c0.1,0,0.4,0.2,0.5,0.1c0,0,0,0.1,0.1,0.1
								c0.1,0.1,0.3,0,0.4,0.1c-0.1,0-0.1,0-0.1,0.1c0.2,0,0.4,0.1,0.6,0.2h-0.1c0.3,0,0.4,0.2,0.6,0.3h-0.1
								c0.2,0.3,0.2-0.1,0.4,0.1c-0.1,0-0.1,0-0.1,0.1c0.3,0,0.7,0.3,0.9,0.3l0,0c0.3,0.1,0.5,0.3,0.8,0.4c0.1,0.1-0.1,0.2,0.1,0.3
								c0.1-0.2,0.5,0.2,0.4-0.1c0.2,0.2,0.5,0.4,0.7,0.5c-0.1,0,0,0.3-0.2,0.2l0.1,0.2c-0.1,0-0.1-0.1-0.1,0c0.1,0,0.4,0.1,0.5,0.2
								c0.2,0,0.5-0.1,0.7,0c-0.1,0,0,0.3-0.1,0.2c0.1,0,0.2-0.1,0.2-0.1c0-0.1,0.1-0.2,0.1-0.2c0.1,0,0,0.1,0.1,0v-0.1
								c0,0,0.3-0.2,0.5-0.1c0.1,0-0.1,0.1,0,0.1c0.2-0.1,0.1-0.2,0.3-0.3l0,0c0.1,0,0.3-0.3,0.1-0.3c-0.1,0,0.1,0.1-0.1,0.1
								c0-0.1,0.2-0.3,0.4-0.4c0,0.1,0,0.1,0,0.2c0.2-0.3,0.4-0.4,0.6-0.6c0-0.1,0,0.2-0.1,0.2c0.4-0.1,0.6-0.5,1-0.6l-0.1-0.1
								c0.2-0.1,0.2,0,0.3-0.1c0,0.1,0.1-0.1,0.2-0.2c0-0.1,0,0,0,0.1c0.1-0.1,0.7-0.6,1.1-0.7c0,0,0.1-0.3,0.2-0.3v0.1
								c0.1,0,0.3-0.2,0.3-0.1c0.1-0.2-0.6,0.5-0.4,0.3c0.1,0,0.2-0.3,0.3-0.2c0.2-0.1,0.3-0.3,0.5-0.3c0,0,0,0.2,0.1,0.1
								c0.2-0.1,0-0.1,0.1-0.2v-0.1c-0.1-0.1,0.1,0,0-0.1c0.1,0,0.1-0.1,0.3,0l0.1,0.1c0.1,0-0.1-0.1-0.1-0.2h0.1
								c-0.3-0.1,0.2-0.1-0.1-0.1c0.1,0,0.2,0,0.3-0.1c0,0-0.1-0.1,0-0.1c-0.2,0-0.4,0-0.4-0.1h0.1c0-0.1-0.1,0-0.2-0.1
								c0.1,0,0-0.1,0-0.3c-0.2,0-0.2,0.1-0.3,0.1c0-0.1,0-0.1-0.2-0.1c-0.1,0-0.3-0.1-0.3-0.2c0.1,0,0.3,0,0.2-0.1
								c0-0.3-0.4,0-0.6-0.3v0.2c0-0.2-0.4-0.1-0.3-0.3c-0.1,0-0.3-0.2-0.3,0c-0.3-0.4-1-0.5-1.1-0.9c-0.1,0-0.2-0.1-0.2,0
								s0.2,0,0.2,0.1h-0.1c-0.1-0.1-0.2-0.2,0-0.2c-0.2-0.3-0.4,0.1-0.7-0.1c0,0,0-0.1-0.1-0.1h-0.3c-0.2-0.1,0-0.2,0-0.3
								c-0.1,0-0.3-0.1-0.4-0.1l-0.1-0.2c0,0.2-0.1,0-0.2,0h0.1c0-0.1-0.1-0.1-0.2-0.1c0,0.1,0.1,0.2,0.2,0.3c-0.1,0-0.2,0-0.3,0
								c0.1-0.1-0.1-0.2-0.2-0.3c-0.1-0.1-0.2,0-0.2,0c0-0.1-0.2-0.1,0-0.1c0,0,0,0.1,0.1,0.1c0-0.1,0-0.2-0.2-0.2
								c-0.1,0-0.1,0.2-0.3,0c0.1,0,0.1,0,0.2,0l-0.2-0.2l-0.1,0.1c0,0,0,0,0-0.1c-0.1,0.1-0.3-0.1-0.4,0c-0.1,0-0.2-0.2-0.3-0.3
								l0,0c-0.1-0.1-0.3-0.2-0.4-0.2l0,0c-0.1,0-0.2-0.1-0.3-0.1c-0.1-0.2,0.2-0.4-0.1-0.4c-0.2-0.1-0.4,0-0.3,0.1
								c-0.3-0.2-0.7-0.3-0.9-0.6c-0.1,0,0,0-0.1,0c-0.4-0.3-1-0.4-1.2-0.8c0.1,0,0.1-0.1,0.1-0.1c-0.1,0-0.1-0.2-0.2,0
								c0,0.1-0.1,0.1,0,0.2c-0.3-0.1-0.7-0.3-0.8-0.5c0,0.1,0,0.1-0.1,0.1c0.1-0.1-0.1-0.3-0.3-0.3l-0.1,0.1v-0.1
								c-0.1,0-0.2,0.1-0.3,0v-0.1c-0.2,0-0.5,0-0.6-0.2l-0.1-0.2c-0.1,0-0.2,0-0.1,0.1c-0.2-0.2-0.4-0.3-0.4-0.5
								c-0.6,0-1.3-0.4-1.8-0.7l0,0c-0.1-0.1-0.1,0.1-0.2,0c0.1,0,0-0.2,0.1-0.2c-0.2-0.2-0.3,0-0.5-0.1c-0.1,0.1,0.1,0,0,0.1
								c0,0-0.3-0.2-0.4-0.1c0-0.1,0.1-0.1,0.1-0.2h-0.2c-0.1-0.2,0.5-0.1,0.5-0.3h-0.1c0-0.2,0.4,0,0.1-0.2c-0.2,0-0.4,0.1-0.3,0.2
								c-0.3-0.1-0.3,0.2-0.6,0c0-0.1,0.2,0.1,0.2,0c-0.1-0.2-0.3-0.1-0.4-0.2c0.1,0.1-0.1,0.2-0.2,0.2c-0.1-0.1,0.2-0.1,0-0.2
								c-0.1,0-0.3,0-0.2,0.1c-0.2,0.1-0.2-0.2-0.4-0.1c0-0.1,0.4-0.1,0.2-0.3c0,0.1-0.4,0-0.3,0.2c-0.1-0.1,0-0.2,0.1-0.2
								c-0.1-0.1-0.4,0-0.3-0.2l-0.1,0.1c0-0.1-0.1-0.1-0.1-0.2c-0.1-0.1-0.5,0-0.3-0.2c0,0-0.3-0.2-0.3,0c0.1,0.2,0.2,0,0.2,0.2
								c0-0.2-0.2-0.1-0.4-0.1v-0.1c-0.1,0-0.2-0.1-0.3,0c0.1,0,0.1-0.1,0-0.1l-0.1,0.1c-0.3-0.1,0-0.2-0.2-0.3h0.2
								c0,0-0.1-0.1-0.2-0.2C30.1,18,30,18,29.9,18.1c-0.1,0,0-0.1-0.2-0.1h0.2c0,0,0-0.2-0.2-0.3c-0.1,0-0.4,0-0.2,0.2
								c-0.1,0-0.2-0.2-0.1-0.2c-0.2-0.1,0,0.1-0.2,0.1c0-0.1-0.2-0.3-0.3-0.5l0.3-0.1l-0.1-0.1c0.2,0,0-0.1,0.1-0.2
								c-0.1-0.1-0.2-0.1-0.3-0.1c0.1,0.3-0.4,0.1-0.5,0.4c-0.3-0.1,0.1-0.6-0.4-0.5c0,0.1-0.2,0.1,0,0.2c-0.2-0.1-0.2,0.1-0.2,0
								c0.1-0.1,0-0.3,0.1-0.3c0,0.1,0,0.1,0.1,0.1c0-0.1,0.1-0.2,0-0.3c-0.1,0-0.2-0.1-0.2,0.1c0,0.1,0.1,0,0,0.1
								c0,0-0.1,0-0.1-0.1c0,0,0,0,0,0.1l0,0c0,0,0,0.1,0,0.2l0,0l0,0v-0.1c0,0,0,0.2,0,0.1c0,0,0-0.1-0.1-0.1c0-0.2,0.1,0,0-0.2
								c0,0,0,0,0,0.1c0,0,0,0-0.1,0.1l0.1-0.1c0,0-0.3-0.2-0.4,0.1c-0.1,0.1,0,0.1,0,0.2c-0.3,0.2-0.3,0.3-0.5,0.4
								c0-0.2-0.3,0.2-0.2-0.1c0.1,0,0.5-0.2,0.6-0.4c-0.2-0.1,0.2-0.1,0.2-0.3c-0.2,0.1-0.3,0-0.4-0.1c-0.1,0-0.1,0.1-0.1,0.1
								c0,0.1,0.1,0.1,0.2,0.2c-0.3,0.1-0.5,0.3-0.5,0.5c-0.1,0-0.1-0.1-0.1-0.2c-0.3,0.2-0.6,0.4-0.9,0.5c0.3,0.1-0.3,0.2-0.1,0.3
								c0.2,0,0.4,0,0.3,0.1c-0.1,0,0-0.1-0.1-0.1c-0.1,0.2-0.3,0-0.3,0.2c0.2-0.2-0.1-0.2-0.1-0.4c-0.1,0.2,0-0.1-0.2,0
								c-0.1,0.2-0.4,0.4-0.6,0.5c-0.4,0-0.7,0.4-0.9,0.5c-0.2,0-0.2-0.2-0.3-0.1c-0.2,0.1,0.2,0.1-0.1,0.2l0,0
								c0,0.1-0.5,0.1-0.5,0.4v-0.2L22.5,19l-0.1-0.1c-0.2,0-0.3,0.2-0.5,0.3h0.2c-0.2,0.2-0.5,0.3-0.7,0.4v-0.1l-0.1,0.1
								c0-0.1-0.2-0.1-0.2,0l0.3-0.5c0.1,0-0.1,0.2,0.1,0.2c0.1,0,0.3-0.1,0.3-0.2c-0.1,0-0.1,0.1-0.1,0.1c-0.1-0.1,0-0.2,0.1-0.3
								c0,0-0.1,0-0.1,0.1c0.1-0.1,0.1-0.2,0.3-0.3c-0.1,0.1,0.1,0,0.1,0.1c-0.1-0.1,0.1-0.3,0.3-0.3c0.2,0,0.3-0.3,0.6-0.4
								c0,0.2-0.1,0.3-0.2,0.5c0.2,0,0.2-0.1,0.3-0.1c0-0.1,0-0.3,0.1-0.5l0.1,0.1c0.1-0.1,0.1-0.3,0.3-0.4c0.4-0.2,0.8-0.4,1.1-0.5
								l0.1,0.1c0-0.3,0.5-0.4,0.7-0.6c0.4-0.1,0.8-0.5,1-0.5c0.2-0.2,0.5-0.3,0.7-0.5c0.1-0.1,0.2-0.2,0.4-0.3
								c0.2-0.1,0.3-0.2,0.5-0.3c0.2,0.1,0.4,0.2,0.6,0.4c-0.1,0-0.1,0-0.2,0c0.2,0,0.1,0.1,0.2,0.2c-0.1-0.2,0.3,0,0.4-0.1
								c0.2,0.3,0.7,0.4,1,0.5v0.1c0.4,0,0.6,0.3,0.9,0.5c0,0.1,0,0.2,0.1,0.2c0.3,0,0.4,0,0.7,0.1c0.2,0.1,0.5,0.3,0.6,0.5
								c0.8,0.2,1.5,0.8,2.3,1.1v0.1c0.9,0.2,1.6,0.9,2.3,1.2L36.8,20c0.2,0.2,0.5,0.2,0.5,0.1c0.2,0.2,0.5,0.2,0.6,0.4
								c0.2,0.1,0.3,0.1,0.5,0.1c0.4,0.3,0.5,0.4,0.9,0.6l-0.1-0.1c-0.1,0-0.1,0.1,0,0.1c0.2,0,0.5,0.4,0.5,0.1
								c0.3,0.4,1,0.5,1.3,0.8c0-0.1,0.1,0,0.2,0c0.4,0.2,0.7,0.5,1,0.6c0,0.1-0.1,0,0,0.1c0.1,0,0-0.1,0.2,0
								c0.6,0.2,1.1,0.8,1.6,1.1c1,0.4,1.9,1,2.8,1.5l0,0c0.4,0,0.6,0.6,1,0.5c0,0.1,0.3,0.2,0.2,0.2c0.3,0,0.6,0.5,1,0.5
								c0,0,0,0-0.1,0c0.4,0.3,1.1,0.6,1.6,1c-0.1,0-0.2-0.1-0.3-0.1c0.1,0.2,0.9,0.3,0.6,0.4c0.1,0.1,0.3,0,0.2,0
								c0.2,0.1,0.4,0.3,0.6,0.4c-0.6,0.3-1.1,0.6-1.6,1c-0.5,0.3-0.9,0.6-1.4,0.9c-0.7,0.2-0.2-0.3-0.6,0.1c-0.1,0,0,0.1,0,0.1
								c-0.1,0.2-0.4-0.1-0.5,0.1c0.1,0.1,0,0.1,0,0.2c-0.4,0.1-0.5,0.1-0.8,0.3v-0.1c-0.2,0.4-0.7,0.5-0.8,0.9c-1,0.6-2,1.2-3,1.8
								c-1.1-0.6-2.3-1.2-3.4-1.9c-1.8-1.1-3.6-2-5.3-3.2c-0.3-0.4-0.4-0.4-0.9-0.6c0,0,0.1,0,0,0c-0.1,0.1-0.3-0.2-0.5-0.1
								c-0.7-0.4-1.3-0.7-2-1.1c0.1,0,0.2,0,0.1-0.1h-0.2l0,0c-0.1,0-0.2,0-0.2,0.1c-1.8-0.9-3.4-2.2-5.1-3.1
								c-0.4-0.3-1-0.6-1.4-0.8c-1.2-0.9-2.3-1.8-3.7-2.4C21,20.6,21.4,20.3,22,20.6z"/>
							<path class="st1" d="M21.6,19.5c0.1,0,0.3,0,0.2,0.2C21.8,19.6,21.6,19.6,21.6,19.5z"/>
							<path class="st1" d="M26.1,17.9C26.1,17.9,26.2,17.9,26.1,17.9V18C26.1,18,26.1,17.9,26.1,17.9z"/>
							<path class="st1" d="M27.2,17.3c0,0.1-0.2,0.3-0.3,0.3L27.2,17.3z"/>
							<path class="st1" d="M28.3,17c0.1,0,0.1,0,0,0.1C28.2,17.1,28.3,17.1,28.3,17z"/>
							<path class="st1" d="M28.3,16.9c0.1,0,0.1,0,0.2,0C28.4,16.8,28.3,17,28.3,16.9z"/>
							<path class="st1" d="M29.5,17.2c0,0,0.2,0,0.2,0.1C29.7,17.3,29.4,17.3,29.5,17.2z"/>
							<path class="st1" d="M30.5,17.7C30.6,17.7,30.6,17.8,30.5,17.7C30.7,17.8,30.6,17.8,30.5,17.7L30.5,17.7z"/>
							<polygon class="st1" points="48.4,27.7 48.3,27.7 48.3,27.6 							"/>
							<path class="st1" d="M45.1,31.2c-0.1,0.1-0.1,0-0.1,0C45.1,31.2,45,31.3,45.1,31.2z"/>
							<polygon class="st1" points="41.3,31.3 41.3,31.3 41.2,31.4 							"/>
						</g>
					</g>
				</g>
			</g>
		</g>
		<g>
			<polygon class="st0" points="43.5,41.3 54.6,34.9 54.6,17.9 43.5,24.3 43.5,28.5 50.9,24.3 50.9,28.5 43.5,32.8 			"/>
			<g>
				<g>
					<g>
						<g>
							<path class="st1" d="M43.6,40.9c-0.2,0.2,0.2,0-0.1,0.1C43.4,41,43.4,40.9,43.6,40.9z"/>
							<path class="st1" d="M43.7,40.3c-0.4-0.9,0-2.1-0.2-3.1c0-0.1,0.2,0,0.2-0.2c-0.3-1-0.1-2.5,0.1-3.6c0,0,0,0,0.1,0.1
								c0-0.1-0.1-0.4-0.1-0.6c0,0,0,0,0.1,0c0,0,0,0.1,0.1,0.1c-0.1-0.1,0.3-0.2,0.3-0.3c0.1,0,0.1,0.1,0.3,0.1v-0.2
								c0.2-0.5,0.8-0.4,1.2-0.8v0.1c0.6-0.6,1.5-1.1,2.3-1.6c0,0.1,0,0.1,0.1,0.2c0-0.1,0.2-0.3,0.4-0.5c0.2,0.1,0.3-0.3,0.6-0.4
								l0,0c0.1-0.2,0.3-0.1,0.4-0.3h0.2c0-0.2,0.3-0.1,0.4-0.2l0,0c0.1-0.1,0.3-0.1,0.4-0.2l0,0c0.2-0.2,0.5-0.2,0.3-0.3
								c0.2,0-0.2,0.2,0.1,0.2l0.2-0.1c-0.1-1.1-0.1-2.3-0.1-3.2c0.1-0.2,0.1-0.3,0.1-0.4s0-0.4-0.1-0.4c0,0,0-0.1,0.1-0.2l0,0
								c-0.1,0-0.3,0.4-0.5,0.4c0.1-0.1,0.2-0.2,0.2-0.3c-0.3,0.3-0.5,0.4-0.7,0.5l0.1-0.1c-0.2,0.3-0.4,0.2-0.6,0.4v-0.1
								c-0.4,0.1,0,0.2-0.3,0.3c0-0.1,0-0.1,0-0.1c-0.2,0.3-0.6,0.5-0.9,0.7l0,0c-0.3,0.2-0.6,0.3-0.9,0.5c-0.1,0-0.1-0.2-0.4,0
								c0.1,0.1-0.5,0.4-0.2,0.4c-0.3,0.1-0.7,0.3-0.9,0.5c0.1-0.1-0.2-0.1,0-0.3h-0.2c0-0.1,0.2-0.1,0.1-0.1
								c-0.1,0.1-0.4,0.3-0.5,0.3c-0.1,0.2-0.2,0.5-0.6,0.8c0.2-0.2-0.1-0.2,0-0.3c-0.1,0.2-0.3,0.5-0.5,0.7c-0.1,0.1,0-0.2-0.2,0
								c0,0.1-0.1,0.2-0.2,0.3c0,0-0.5,0.3-0.5,0.2v-0.1c0-0.1,0-0.1,0,0c0.1,0,0.1-0.1,0.1-0.1l0,0c0-0.2-0.1-0.1-0.1-0.4l0,0
								c0-0.2-0.1-0.4-0.2-0.1c0,0.1,0.1-0.2,0.1,0.1c-0.1,0-0.1-0.3-0.1-0.6c0,0.1,0.1,0,0.1,0c-0.1-0.1-0.1-0.3-0.2-0.5
								c0-0.2-0.1-0.4-0.1-0.6c-0.1,0,0.2,0.1,0.1,0.2c0.1-0.4-0.2-0.9,0-1.3c0,0.1-0.1,0-0.1,0c0-0.2,0.1-0.2,0.1-0.3
								c0.1,0,0-0.1,0-0.4c0-0.1,0,0,0,0.1c0-0.1-0.1-0.4-0.1-0.8c0.3-0.2,0.9-0.5,1-0.6c0,0,0.1-0.3,0.2-0.3v0.1
								c0.1,0,0.3-0.2,0.4-0.1c0.1-0.2-0.7,0.5-0.5,0.3c0.1,0,0.3-0.4,0.3-0.2c0.2-0.1,0.3-0.3,0.5-0.3c-0.1,0-0.1,0.2,0.1,0.1
								c0.3-0.2,0-0.1,0.2-0.2l0.1-0.1c0-0.1,0.2-0.1,0.1-0.2c0.1,0.1,0.4-0.3,0.4-0.1v0.1c0.1-0.1,0.1-0.2,0.2-0.3h0.1
								c-0.1-0.2,0.3-0.1,0.3-0.4c0.3-0.1,0.6-0.3,0.8-0.3c0.1-0.2,0.3-0.3,0.5-0.4l-0.1,0.1c0.2,0,0.2-0.1,0.3-0.2c0,0,0.3,0,0.5,0
								c0.1-0.2,0-0.2,0-0.3c0.3,0.1,0.4-0.4,0.7-0.4c0,0.1-0.2,0.2,0,0.2c0.3,0.1,0.3-0.3,0.6-0.4l-0.2-0.1c0.2,0,0.3-0.3,0.4-0.1
								c0.1-0.1,0.3-0.1,0.2-0.3c0.5-0.1,1-0.7,1.4-0.6c0-0.1,0.2-0.1,0.1-0.2c-0.1,0-0.1,0.1-0.2,0.1v-0.1c0.1,0,0.3-0.1,0.2,0.1
								c0.4-0.1,0.2-0.4,0.6-0.6c0,0.1,0.1,0.1,0.2,0l0.1-0.1l0.1-0.1c0.4-0.2,0.3,0,0.3,0.2c0.2-0.1,0.4-0.2,0.5-0.4
								c0.1,0,0.1,0,0.2,0.1c-0.1,0,0.2-0.2,0.3-0.3l-0.1,0.1c0,0,0.2-0.1,0.3-0.2c0-0.1-0.2,0-0.3,0c0.1-0.1,0.3-0.2,0.4-0.4
								c-0.1,0.2,0.3-0.1,0.4-0.1c0.1-0.1,0.3-0.3,0.4-0.3l0,0c0,0.1,0,0.3-0.1,0.3c0,0,0-0.1,0-0.2c0,0-0.1,0-0.1,0.1
								c0,0,0,0,0,0.1s0,0.2,0,0.3c0.1,0.1,0.2-0.4,0.2,0.1c0-0.1-0.1,0-0.1,0l-0.1,0.5l0.1-0.1c0,0.1,0,0.1,0,0.1
								c0.1,0,0,0.5,0.2,0.5c0,0.2-0.1,0.5-0.1,0.7l0,0c-0.1,0.3,0,0.5,0,0.7l0,0c0,0.1,0,0.3,0.1,0.4c-0.1,0.2-0.4,0.1-0.3,0.3
								c0,0.2,0.2,0.3,0.3,0.2c-0.1,0.4,0.1,0.8-0.1,1.1c0,0,0.1,0,0.1,0.1c0,0.5,0.1,1.2-0.1,1.6c0-0.2-0.1,0-0.2,0
								c0.1,0.1-0.1,0.2,0.1,0.2c0.1,0,0.1,0,0.2-0.2c0,0.3,0,0.8,0,1c0-0.1,0.1,0,0.1,0c-0.2,0-0.2,0.2-0.1,0.4h0.1l-0.1,0.1
								c0,0.1,0.2,0.1,0.1,0.3h-0.1c0.1,0.2,0.2,0.5,0.1,0.7l-0.1,0.2c0,0.1,0.1,0.2,0.1,0.1c-0.1,0.4-0.1,0.6-0.2,0.7
								c0.3,0.6,0.3,1.5,0.3,2.2h-0.1c-0.1,0.2,0.1,0.1,0.1,0.2c-0.1-0.1-0.1,0.1-0.2,0c-0.1,0.3,0.1,0.4,0.2,0.5
								c0.1,0-0.1-0.1,0.1-0.1c0,0-0.1,0.4,0.1,0.4c-0.1,0.1-0.2,0-0.2,0l0.1,0.2c-0.2,0.2-0.3-0.5-0.5-0.3v0.1
								c-0.1,0.1-0.2-0.4-0.2,0c0.1,0.2,0.3,0.3,0.4,0.2c0,0.4,0.4,0.2,0.3,0.5c-0.1,0.1,0-0.3-0.1-0.2c-0.1,0.2,0.1,0.4,0,0.5
								c0.1-0.2,0.2,0,0.2,0.1c-0.1,0.2-0.1-0.1-0.1,0.1c0.1,0,0.1,0.3,0.2,0.1c0.2,0.1,0,0.3,0.1,0.4c-0.1,0.1-0.3-0.3-0.4,0
								c0.1,0,0.2,0.4,0.4,0.2c0,0.1-0.1,0.1-0.2,0c-0.1,0.2,0.2,0.4,0,0.5l0.1,0.1c0,0-0.1,0.1-0.1,0.2s0.2,0.5,0,0.5
								c0,0,0,0.4,0.1,0.3c0.1-0.2-0.1-0.2,0.1-0.4c-0.1,0.1,0,0.3,0.1,0.4h-0.1c0,0.1,0,0.2,0.1,0.3h-0.1c0,0,0.1,0,0.1,0.1
								c0.1,0.6-0.2,0.1-0.2,0.6l-0.1-0.4c0,0.1-0.1,0.2,0,0.4c0.1,0.1,0.2,0.4,0.3,0.5c-0.2,0.2-0.2,0-0.4,0.2l0.2-0.3
								c0,0-0.4,0-0.7,0.2c-0.1,0.1-0.4,0.5,0,0.3c-0.2,0.1-0.4,0.1-0.3,0c-0.2,0.1,0.1,0.1-0.1,0.2c-0.1,0-0.4,0-0.6,0l0.1-0.3
								L54,36.1c0.1-0.2-0.1,0-0.1-0.2c-0.1,0-0.2,0.1-0.2,0.2c0.4,0.1-0.1,0.5,0.1,0.6c-0.3,0.3-0.5-0.3-0.7,0.2
								c0.1,0,0,0.3,0.2,0.1c-0.2,0.1,0,0.3-0.3,0.3c0.1-0.2-0.3-0.1-0.1-0.4c0,0.1,0.2,0,0.2-0.1c-0.1,0-0.1-0.2-0.3-0.1
								c-0.1,0.1-0.3,0.2-0.2,0.3c0.1,0.1,0.2-0.1,0.2,0c-0.2,0.2-0.4,0-0.4,0.3c0.2-0.1,0.3,0,0.3,0l-0.2,0.2v-0.1
								c-0.3,0.1,0,0.2-0.3,0.3L52,37.6c0-0.2,0.5-0.2,0.3-0.4c-0.2,0.1-0.2,0.2-0.4,0.3l0.1-0.1c-0.1,0-0.3-0.2-0.5,0.1
								c-0.1,0.1,0,0.1,0,0.2c-0.3,0.2-0.4,0.3-0.5,0.5c0-0.2-0.4,0.2-0.2-0.1c0.1,0,0.6-0.2,0.6-0.5c-0.2-0.1,0.3-0.1,0.2-0.3
								c-0.3,0.1-0.3,0-0.5-0.1c-0.1,0-0.1,0.1-0.1,0.2s0.1,0.1,0.2,0.2c-0.3,0.1-0.5,0.4-0.6,0.5c-0.1,0-0.2-0.1,0-0.2
								c-0.3,0.2-0.7,0.4-1,0.6c0.3,0-0.3,0.3-0.1,0.3c0.2-0.1,0.4,0,0.4,0.1c-0.1,0,0-0.1-0.1-0.1c-0.1,0.2-0.3,0-0.3,0.2
								c0.3-0.2-0.1-0.3-0.1-0.4c-0.2,0.2,0-0.1-0.3,0c-0.2,0.2-0.4,0.4-0.6,0.6c-0.4,0-0.8,0.5-1,0.6c-0.2,0-0.2-0.2-0.3-0.1
								c-0.2,0.1,0.2,0.1-0.1,0.2l0,0c-0.1,0.1-0.5,0.2-0.5,0.5v-0.2c-0.1,0-0.1,0.1-0.1,0.1l-0.1-0.1c-0.2,0-0.3,0.2-0.5,0.3h0.2
								c-0.3,0.3-0.5,0.3-0.8,0.5v-0.1l-0.1,0.2c0-0.1-0.2-0.1-0.3,0l0.3-0.5c0.2,0-0.1,0.2,0.1,0.3c0.1,0,0.4-0.1,0.4-0.3
								c-0.1,0-0.1,0.1-0.2,0.2c-0.1-0.1,0-0.2,0.1-0.3c0,0-0.2,0-0.1,0.1c0.1-0.1,0.2-0.2,0.4-0.3c-0.1,0.1,0.1,0,0.1,0.1
								c0-0.1,0.1-0.3,0.3-0.4c0.2,0,0.4-0.3,0.6-0.4c0,0.2-0.1,0.4-0.3,0.5c0.2,0,0.2-0.1,0.4-0.1c0-0.1,0-0.3,0.2-0.5l0.1,0.1
								c0.2-0.2,0.1-0.3,0.4-0.4c0.5-0.2,0.9-0.5,1.2-0.6l0.1,0.1c0.1-0.3,0.6-0.4,0.8-0.6c0.5-0.1,0.8-0.6,1.1-0.6
								c0.7-0.5,1.3-0.9,2-1.3v0.2c0.1-0.2,0.1,0,0.3-0.1c-0.2,0,0.1-0.2,0.1-0.4c0.4-0.1,0.8-0.5,1-0.7l0.1,0.1
								c0.2-0.3,0.4-0.3,0.6-0.4v-0.1c0,0,0.1,0,0.1-0.1c-0.2-0.1-0.1-0.3-0.3-0.6c0-0.3,0-0.7,0.1-0.9c-0.2-0.9-0.1-1.9-0.2-2.9
								l0.1-0.1c-0.3-1,0-2.1-0.1-2.9l0.2,0.1c0.1-0.3,0-0.6-0.2-0.5c0.1-0.3-0.1-0.6,0.1-0.8c0-0.3-0.1-0.3-0.1-0.5
								c0.1-0.5,0.1-0.7,0-1.2v0.1c0,0,0.1,0.1,0.1-0.1c-0.1-0.2,0-0.7-0.2-0.5c0.1-0.5-0.1-1.2,0.1-1.7c-0.1,0-0.1-0.1-0.1-0.1
								c0-0.5,0.1-0.9,0-1.3c0-0.1,0.1,0.1,0.1-0.1c0-0.1-0.1,0-0.1-0.1s0-0.2,0-0.3c0-0.1,0,0,0-0.1v-0.1c0-0.1,0.1-0.3,0.1-0.4
								l0,0c-0.2,0.2-0.3,0.3-0.4,0.3c-0.5,0.3-1,0.6-1.5,0.9l0,0c-0.2,0.4-0.9,0.3-1,0.7c-0.1,0-0.3,0.2-0.3,0
								c-0.2,0.3-0.8,0.3-1.1,0.7c0,0,0,0,0.1-0.1c-0.4,0.1-0.7,0.5-1.2,0.6l0.1-0.1c-0.2,0-0.3,0.4-0.5,0.2c-0.1,0,0,0.1,0,0.1
								c-0.9,0.4-1.8,1.1-2.7,1.7c-0.7,0.3-0.2-0.3-0.7,0.1c-0.1,0,0,0.1,0,0.1c-0.2,0.2-0.4-0.1-0.4,0.1c0.1,0.1,0,0.1,0.1,0.1
								h-0.1c-0.1,0.1-0.1,0.1,0,0.3H45c0.2,0.4,0.1,0.9,0.4,1.3c0,0.5,0,0.4,0,0.5s0,0.1,0,0.1c0.1-0.1,0.1-0.1,0.2-0.1v-0.1
								l0.5-0.3l2.1-1.3c0.5-0.3,1.1-0.6,1.6-0.9c1-0.6,2.1-1.2,3.2-1.8c0,1.1,0,2.1,0,3.2v1.1c0,0.3,0,0.5,0,0.8
								c-0.1,0.2-0.1,0.4-0.1,0.6s0,0.5,0,0.8c-0.1,0-0.2,0.1-0.3,0.2c0,0,0.1-0.1,0-0.1c0.1,0.1-0.7,0.4-0.6,0.5
								c-0.8,0.4-1.5,0.9-2.2,1.3c0.1-0.1,0.1-0.2,0-0.1l-0.1,0.2l0,0c-0.1,0.1-0.2,0.2,0,0.2c-0.7,0.5-1.4,0.9-2.2,1.3l-1.1,0.6
								l-0.5,0.3c0,0,0,0-0.1,0l0,0l0,0v0.2v0.9c-0.1,0.5,0,1.3,0,1.8c-0.2,1.7-0.4,3.2-0.2,4.9C44.2,41.3,43.8,41,43.7,40.3z"/>
							<path class="st1" d="M43.8,40.8c0.1,0,0.3,0,0.2,0.1C44,40.8,43.8,40.8,43.8,40.8z"/>
							<path class="st1" d="M48.8,38.9h0.1L48.8,39C48.8,38.9,48.8,38.9,48.8,38.9z"/>
							<path class="st1" d="M50,38.2c0,0.1-0.2,0.3-0.3,0.4L50,38.2z"/>
							<path class="st1" d="M51.2,37.9c0.1,0,0.1,0,0,0.1C51.2,37.9,51.2,37.9,51.2,37.9z"/>
							<path class="st1" d="M51.2,37.7c0.1,0,0.2,0,0.2,0C51.4,37.6,51.3,37.8,51.2,37.7z"/>
							<path class="st1" d="M53.7,36.5c0,0,0.1-0.2,0.2-0.1C53.8,36.4,53.7,36.6,53.7,36.5z"/>
							<path class="st1" d="M54.9,35.7c0.1,0,0.1,0,0.2-0.1c0.1,0,0.1,0.1,0,0.1H54.9z"/>
							<polygon class="st1" points="49.4,20.2 49.6,20.1 49.6,20.2 							"/>
							<path class="st1" d="M43,27.5c0,0.2-0.1,0.2-0.1,0.2C42.9,27.5,43,27.7,43,27.5z"/>
							<polygon class="st1" points="47.2,26.6 47.1,26.7 47.1,26.5 							"/>
						</g>
					</g>
				</g>
			</g>
		</g>
		<g>
			<polygon class="st0" points="43.5,28.5 21.3,15.7 21.3,11.5 43.5,24.3 			"/>
			<g>
				<g>
					<g>
						<g>
							<path class="st1" d="M43.3,28.7c0.2,0.1,0-0.2,0.1,0C43.4,28.8,43.3,28.8,43.3,28.7z"/>
							<path class="st1" d="M43.7,27.8c-0.4-0.7,0-1.6-0.2-2.4c0-0.1,0.2,0,0.2-0.2c-0.1-0.3-0.1-0.6-0.2-0.9
								C43,24,42.4,23.5,42,23.1h0.1C42,23,41.7,23,41.5,22.9c0,0,0.1,0,0.1-0.1c-0.1,0.1-0.3-0.1-0.4-0.1c0-0.1,0-0.1,0-0.3
								L41,22.5c-0.4,0.1-0.6-0.4-1-0.4c0,0,0.1,0,0.1-0.1c-0.6-0.1-1.3-0.6-2-0.9c0,0,0.1-0.1,0.1-0.2c-0.1,0.1-0.3,0-0.5,0
								c0-0.2-0.4,0-0.5-0.2l0,0c-0.2,0-0.2-0.2-0.4-0.1v-0.1c-0.2,0.1-0.2-0.2-0.3-0.2l0,0c-0.1,0-0.1-0.1-0.3-0.2l0,0
								c-0.3-0.1-0.4-0.3-0.4-0.1c0-0.2,0.3,0.1,0.2-0.1c-0.9-0.3-1.7-0.8-2.5-1.3c-0.1-0.1-0.1-0.2-0.1-0.2c-0.1,0-0.3-0.1-0.4-0.1
								v-0.1c-0.1-0.1-0.3,0.1-0.4-0.1c0.1,0,0.1,0,0.1-0.1c-0.2,0-0.4-0.1-0.6-0.1h0.1c-0.3,0-0.3-0.2-0.5-0.2h0.1
								c-0.2-0.2-0.2,0.1-0.4-0.1c0.1,0,0.1,0,0.1-0.1c-0.3,0-0.6-0.2-0.8-0.3l0,0c-0.2-0.1-0.4-0.3-0.7-0.4
								c-0.1-0.1,0.1-0.2-0.1-0.3c-0.1,0.2-0.4-0.2-0.4,0.1c-0.2-0.1-0.5-0.4-0.6-0.4c0.1,0,0-0.3,0.2-0.2L29,15.8
								c0.1-0.1,0.1,0.1,0.1,0c-0.1,0-0.4-0.1-0.4-0.2c-0.2,0-0.5,0.1-0.7,0c0.1,0,0-0.2,0.1-0.2l-0.5,0.1c-0.1,0,0.1-0.1-0.1-0.2
								c0,0-0.1,0-0.1,0.1c0,0-0.4-0.2-0.3-0.3c0-0.1,0.1,0,0.1-0.1c-0.1-0.1-0.2,0-0.4-0.1l0,0c-0.1-0.1-0.3-0.1-0.3,0
								c0.1,0,0-0.1,0.1,0c-0.1,0-0.3,0-0.5-0.1c0.1,0,0.1,0,0.1-0.1c-0.3,0-0.5-0.1-0.8-0.2c0,0.1,0.2-0.1,0.2,0
								c-0.2-0.3-0.7-0.2-0.9-0.5v0.1c-0.1-0.1-0.1-0.2-0.2-0.2c0-0.1-0.1,0-0.2-0.1c-0.1,0,0,0,0.1,0c-0.2,0-0.8-0.2-1-0.5
								c0,0-0.3,0-0.4,0l0.1-0.1c0-0.1-0.2-0.1-0.2-0.2c-0.2,0,0.6,0.2,0.4,0.2c0-0.1-0.4,0-0.3-0.1c-0.1-0.1-0.4-0.1-0.4-0.2
								l0.1-0.1c-0.1-0.1-0.1,0-0.2,0h-0.1c0,0.1-0.1-0.1-0.1,0.1c0-0.1-0.1,0-0.1-0.2v-0.2c-0.1,0,0,0.1-0.1,0.2v-0.1
								c0.1,0.3-0.1-0.1-0.1,0.1c-0.1-0.1-0.1-0.1-0.2-0.2c0,0,0,0.1-0.1,0c0.1,0.2,0.1,0.3,0.1,0.4c0,0,0-0.1-0.1-0.1s0,0.1,0,0.2
								c0,0-0.1,0-0.2,0.1c0.1,0.1,0.2,0.1,0.3,0.2c-0.1,0-0.1,0.1,0,0.1c0,0,0,0,0,0.1s0,0.1-0.1,0.2c0-0.1-0.1-0.2-0.2-0.1
								c-0.2,0.1,0.2,0.3,0.1,0.5l0.2-0.1c-0.1,0.1,0.1,0.4-0.1,0.3c0.1,0.1-0.1,0.3,0.1,0.3c-0.1,0.2,0,0.5,0,0.6s0,0.2-0.2,0.3
								l0,0h0.1l0,0l0,0l0,0l0,0c0,0,0,0.1-0.1,0.1c0,0.1,0.1,0.1,0.2,0h0.1c0,0,0.1,0,0.1,0.1s0,0.1,0,0.1h0.2c0.2,0.1,0,0.2,0,0.3
								c0.1,0,0.2,0.1,0.3,0.1v0.2c0-0.1,0.1,0,0.2,0h-0.1c0,0.1,0.1,0.1,0.2,0.1c0-0.1-0.1-0.2-0.1-0.2c0.1,0,0.1,0,0.3,0
								c-0.1,0.1,0.1,0.2,0.2,0.2c0.1,0.1,0.2,0,0.2,0c0,0.1,0.1,0.1,0,0.1c0,0,0-0.1-0.1-0.1c0,0.1,0,0.2,0.1,0.2s0.1-0.2,0.2,0
								c-0.1,0-0.1,0-0.2,0l0.1,0.1l0.1-0.1c0,0,0,0,0,0.1c0.1-0.1,0.3,0.1,0.4,0c0.1,0,0.1,0.2,0.2,0.2l0,0
								c0.1,0.1,0.2,0.1,0.4,0.1l0,0c0,0,0.2,0.1,0.3,0.1c0.1,0.1-0.2,0.4,0.1,0.4c0.1,0.1,0.3,0,0.3-0.1c0.2,0.2,0.6,0.2,0.7,0.5
								c0.1,0,0-0.1,0.1,0c0.4,0.3,0.9,0.3,1,0.7c-0.1,0-0.1,0.1-0.1,0.1c0.1,0,0.1,0.1,0.2,0c0-0.1,0.1-0.1,0-0.2
								c0.3,0.1,0.6,0.3,0.7,0.4c0-0.1,0-0.1,0.1-0.1c-0.1,0.1,0.1,0.3,0.2,0.3l0.1-0.1v0.1c0.1,0,0.2-0.1,0.2,0v0.1
								c0.2,0,0.4,0,0.5,0.1v0.2c0.1,0,0.2,0,0.1-0.1c0.2,0.2,0.3,0.3,0.4,0.5c0.6,0,1.2,0.3,1.6,0.6v0.1c0.1,0.1,0.1-0.1,0.2,0
								c-0.1,0,0,0.2-0.1,0.2c0.1,0.2,0.3,0,0.4,0.1c0.1-0.1-0.1,0,0-0.1c0,0,0.2,0.2,0.3,0.1c0,0.1-0.1,0.1-0.1,0.2h0.1
								c0,0.2-0.5,0.1-0.4,0.4h0.1c0,0.2-0.4,0-0.1,0.2c0.1,0,0.4-0.1,0.3-0.2c0.3,0.1,0.3-0.2,0.5-0.1c0,0.1-0.2-0.1-0.2,0
								c0.1,0.2,0.3,0.1,0.4,0.2c-0.1-0.1,0.1-0.2,0.2-0.2c0.1,0.1-0.1,0.1,0,0.2c0.1-0.1,0.3,0,0.1-0.1c0.2-0.1,0.2,0.1,0.3,0.1
								c0,0.1-0.3,0.2-0.2,0.3c0-0.1,0.3,0,0.3-0.2c0.1,0.1,0,0.2-0.1,0.2c0.1,0.1,0.4,0,0.3,0.2l0.1-0.1c0,0.1,0,0.1,0.1,0.2
								s0.4,0,0.3,0.2c0,0,0.3,0.1,0.2,0c-0.1-0.1-0.2,0-0.2-0.2c0,0.2,0.2,0.1,0.3,0.1v0.1c0.1,0,0.2,0.1,0.2,0
								c-0.1,0-0.1,0.1,0,0.1l0.1-0.1c0.2,0.1-0.1,0.2,0.1,0.3h-0.2c0,0,0,0.1,0.2,0.1c0.1-0.1,0.2-0.1,0.3-0.2c0.1,0,0,0.1,0.1,0.1
								h-0.2c0,0,0,0.2,0.1,0.3c0.1,0,0.3,0,0.2-0.2c0.1,0,0.1,0.1,0,0.2c0.2,0.1,0-0.1,0.2-0.1c0,0.1,0.1,0.3,0.2,0.4l-0.2,0.1
								l0.1,0.1c-0.2,0,0,0.1-0.1,0.2c0,0.1,0.2,0.1,0.2,0.1c-0.1-0.3,0.4-0.2,0.4-0.4c0.3,0.1-0.1,0.6,0.4,0.4c0-0.1,0.2-0.1,0-0.2
								c0.1,0.1,0.2-0.1,0.4,0.1c-0.2,0,0,0.3-0.2,0.3c0-0.1-0.1-0.1-0.1-0.1c0,0.1-0.1,0.2,0,0.3c0.1,0,0.3,0.1,0.3,0
								c0.1-0.1-0.2-0.1,0-0.1c0.2,0.1,0.2,0.3,0.4,0.1C37,24.2,37,24.1,37,24h0.2l-0.1,0.1c0.2,0.2,0.1-0.1,0.4,0.1v0.2
								c-0.1,0.1-0.3-0.3-0.4,0c0.1,0.1,0.3,0,0.4,0.2h-0.1c0,0,0,0.3,0.3,0.3c0.1,0,0.1,0,0.1-0.1c0.3,0.1,0.4,0.1,0.5,0.2
								c-0.1,0.1,0.3,0.2,0,0.2c0-0.1-0.4-0.3-0.6-0.2c0,0.2-0.2-0.1-0.3,0c0.2,0.1,0.1,0.3,0,0.4c0,0,0.1,0,0.2,0
								c0.1-0.1,0-0.1,0.1-0.2c0.2,0.2,0.5,0.2,0.6,0.2c0,0.1,0,0.2-0.1,0.1c0.3,0.1,0.5,0.3,0.8,0.5c-0.1-0.3,0.3,0.1,0.3-0.1
								c-0.1-0.1-0.1-0.3,0-0.3c0.1,0.1,0,0.1,0,0.1c0.2,0,0.1,0.3,0.3,0.2c-0.3-0.1-0.2,0.2-0.3,0.3c0.2,0-0.1,0.1,0.1,0.2
								c0.2,0,0.5,0.1,0.7,0.2c0.2,0.3,0.6,0.4,0.8,0.5c0.1,0.1-0.1,0.2,0,0.3c0.1,0.1,0-0.2,0.2,0l0,0c0.1,0,0.3,0.3,0.5,0.1
								l-0.2,0.1h0.1c0,0,0,0.1-0.1,0.1c0.1,0.2,0.3,0.1,0.4,0.2v-0.1c0.3,0.1,0.4,0.3,0.6,0.4l-0.1,0.1h0.2c-0.1,0.1,0,0.2,0.1,0.2
								h-0.5c-0.1-0.1,0.2,0,0.2-0.2c0-0.1-0.2-0.2-0.3-0.1c0.1,0.1,0.1,0,0.2,0c0,0.1-0.2,0.1-0.3,0.1l0.1,0.1
								c-0.1,0-0.2,0-0.4-0.1c0.1,0,0-0.1,0-0.1c-0.1,0.1-0.2,0.1-0.4-0.1c0-0.2-0.4-0.1-0.6-0.3c0.1-0.1,0.3-0.1,0.5-0.1
								c-0.1-0.1-0.1-0.1-0.2-0.2c-0.1,0-0.2,0.2-0.4,0.1v-0.1c-0.2,0-0.3,0.1-0.4,0c-0.3-0.2-0.6-0.4-0.9-0.6v-0.1
								c-0.3,0.1-0.5-0.2-0.7-0.2c-0.3-0.3-0.7-0.3-0.8-0.6c-0.6-0.3-1.1-0.5-1.7-0.9l0.2-0.1c-0.2,0,0-0.1-0.1-0.1
								c0.1,0.2-0.2,0-0.3,0.1c-0.2-0.3-0.6-0.3-0.9-0.4v-0.1c-0.3,0-0.5-0.3-0.8-0.5c0-0.1,0-0.2-0.1-0.2c-0.2,0-0.3,0-0.6,0
								c-0.2-0.1-0.4-0.3-0.6-0.4c-0.8-0.2-1.3-0.7-2-0.9v-0.1c-0.8-0.1-1.4-0.8-2-1l0.1-0.1c-0.1-0.1-0.4-0.2-0.5,0
								c-0.1-0.1-0.5-0.2-0.5-0.4c-0.2-0.1-0.3,0-0.4-0.1c-0.3-0.3-0.5-0.3-0.8-0.5l0.1,0.1c0.1,0,0.1-0.1,0-0.1s-0.4-0.3-0.4,0
								c-0.3-0.3-0.9-0.4-1.1-0.7c0,0.1-0.1,0-0.2,0c-0.3-0.2-0.6-0.5-0.9-0.5c0-0.1,0.1,0,0-0.1c-0.1,0,0,0.1-0.2,0
								c-0.6-0.2-1-0.7-1.4-0.9c-0.4-0.1-0.7-0.3-1.1-0.5c-0.5-0.3-1-0.6-1.5-0.9c0-0.2,0-0.5,0-0.7l0,0c0-0.1-0.1-0.3,0-0.4
								c0-0.1,0-0.2,0-0.3c0-0.2,0.1-0.3-0.1-0.5c0-0.1,0-0.3,0.1-0.2c-0.1-0.1,0-0.3,0-0.5s0-0.3,0-0.7v0.1c0.1-0.6,0-1.2,0.1-1.7
								c0,0.1,0,0.2,0.1,0.3c0.1-0.1-0.2-0.8,0-0.6c0-0.1-0.1-0.3-0.1-0.2c0-0.2,0-0.4,0-0.7c0.5,0.3,1,0.5,1.5,0.8
								c0.5,0.2,1,0.5,1.5,0.7c0.5,0.4-0.2,0.4,0.3,0.5c0,0.1,0.1-0.1,0,0c0.2,0,0.1,0.4,0.3,0.3c0-0.1,0.1,0,0.2-0.1
								c0.3,0.3,0.3,0.4,0.6,0.5h-0.1c0.4,0,0.7,0.3,1.1,0.2c1.6,0.9,3.3,1.7,4.9,2.6c1.5,1,3.1,1.7,4.7,2.8
								c0.3,0.4,0.3,0.4,0.8,0.6c0,0-0.1,0,0,0c0.1-0.1,0.3,0.1,0.4,0c0.6,0.4,1.1,0.6,1.8,1c-0.1,0-0.2,0-0.1,0.1h0.2l0,0
								c0.1,0,0.2,0,0.2-0.1c1.6,0.8,2.9,1.9,4.4,2.7c0.1,0,0.1,0.1,0.2,0.1s0.2,0.1,0.3,0.2c0.3,0.2,0.6,0.3,0.9,0.5
								c0,0.3,0,0.5,0,0.7v0.5v0.2c0,0.2,0,0.3-0.1,0.5c0,0.3-0.1,0.6-0.1,1c0,0.6-0.1,1.3,0,1.9C44.2,28.5,43.8,28.4,43.7,27.8z"/>
							<path class="st1" d="M43,28.6c0-0.1-0.1-0.2,0-0.2C43.1,28.4,43.1,28.5,43,28.6z"/>
							<path class="st1" d="M39.9,25.8C39.9,25.8,39.9,25.7,39.9,25.8c0-0.1,0.1-0.1,0.1,0H39.9z"/>
							<path class="st1" d="M39,25.2c0-0.1,0.3,0,0.4,0.1L39,25.2z"/>
							<path class="st1" d="M38.3,24.5C38.3,24.4,38.3,24.4,38.3,24.5C38.4,24.5,38.4,24.5,38.3,24.5z"/>
							<path class="st1" d="M38.2,24.6c-0.1,0-0.1-0.1-0.1-0.1S38.3,24.5,38.2,24.6z"/>
							<path class="st1" d="M36.5,23.4c0,0-0.2,0-0.2-0.1C36.3,23.3,36.6,23.3,36.5,23.4z"/>
							<path class="st1" d="M35.6,23C35.5,22.9,35.5,22.9,35.6,23C35.5,22.9,35.5,22.9,35.6,23L35.6,23z"/>
							<polygon class="st1" points="21.9,13.7 21.9,13.9 21.9,13.8 							"/>
							<path class="st1" d="M25.9,14.8c0.1,0,0,0.1,0,0.1C25.9,14.8,26,14.8,25.9,14.8z"/>
							<polygon class="st1" points="29.8,16.6 29.7,16.6 29.8,16.4 							"/>
						</g>
					</g>
				</g>
			</g>
		</g>
	</g>
	<g>
		<polygon class="st2" points="10.4,26.3 17.7,22.1 39.9,34.9 32.5,39.1 		"/>
		<g>
			<g>
				<g>
					<g>
						<path class="st1" d="M10.4,26c-0.2,0.1,0.2,0-0.1,0.1C10.3,26.1,10.3,26,10.4,26z"/>
						<path class="st1" d="M11,26.9c0.9,0.1,1.6,0.9,2.5,1.2c0.1,0-0.1,0.2,0.1,0.2c0.9,0.2,2,1,2.8,1.7h-0.1
							c0.1,0.1,0.5,0.1,0.6,0.2c0,0-0.1,0-0.1,0.1c0.1-0.1,0.4,0.1,0.5,0.1c0,0.1,0,0.2,0.1,0.3l0.2-0.1c0.5-0.1,0.7,0.4,1.2,0.5
							c0,0-0.1,0-0.1,0.1c0.7,0.2,1.5,0.7,2.3,1c0,0-0.1,0.1-0.1,0.2c0.1-0.1,0.3,0,0.5,0.1c0,0.2,0.4,0.1,0.6,0.3l0,0
							c0.2,0,0.2,0.2,0.4,0.1v0.2c0.2-0.1,0.2,0.2,0.4,0.2l0,0c0.1,0,0.2,0.2,0.3,0.2l0,0c0.3,0.1,0.4,0.3,0.5,0.2
							c0,0.2-0.3-0.1-0.2,0.1c1,0.4,1.9,1,2.9,1.5c0.1,0.1,0.1,0.2,0.1,0.2c0.1,0,0.4,0.2,0.5,0.1c0,0,0,0.1,0.1,0.1
							c0.1,0.1,0.3,0,0.4,0.1c-0.1,0-0.1,0-0.1,0.1c0.2,0,0.4,0.1,0.6,0.2h-0.1c0.3,0,0.4,0.2,0.6,0.3h-0.1c0.2,0.3,0.2-0.1,0.4,0.1
							c-0.1,0-0.1,0-0.1,0.1c0.3,0,0.7,0.3,0.9,0.3l0,0c0.3,0.1,0.5,0.3,0.8,0.4c0.1,0.1-0.1,0.2,0.1,0.3c0.1-0.2,0.5,0.2,0.4-0.1
							c0.2,0.2,0.5,0.4,0.7,0.5c-0.1,0,0,0.3-0.2,0.2l0.1,0.2c-0.1,0-0.1-0.1-0.1,0c0.1,0,0.4,0.1,0.5,0.2c0.2,0,0.5-0.1,0.7,0
							c-0.1,0,0,0.3-0.1,0.2c0.1,0,0.2-0.1,0.3-0.1l0.1-0.2c0.1,0,0,0.1,0.1,0c0,0,0-0.1,0-0.2c0,0,0.1,0,0.2-0.1
							c0.1,0,0.2-0.1,0.3,0c0.1,0-0.1,0.1,0,0.1c0.2-0.1,0.1-0.2,0.3-0.3l0,0c0.1,0,0.3-0.3,0.1-0.3c-0.1,0,0.1,0.1-0.1,0.1
							c0-0.1,0.2-0.3,0.4-0.4c0,0.1,0,0.1,0,0.2c0.2-0.3,0.4-0.4,0.6-0.6c0-0.1,0,0.2-0.1,0.2c0.4-0.1,0.6-0.5,1-0.6l-0.1-0.1
							c0.2-0.1,0.2,0,0.3-0.1c0,0.1,0.1-0.1,0.2-0.2c0-0.1,0,0,0,0.1c0.1-0.1,0.7-0.6,1.1-0.7c0,0,0.1-0.3,0.2-0.3v0.1
							c0.1,0,0.3-0.2,0.3-0.1c0.1-0.2-0.6,0.5-0.4,0.3c0.1,0,0.2-0.3,0.3-0.2c0.2-0.1,0.3-0.3,0.5-0.3c0,0,0,0.2,0.1,0.1
							c0.2-0.1,0-0.1,0.1-0.2v-0.1c-0.1-0.1,0.1,0,0-0.1c0.1,0,0.1-0.1,0.3,0l0.1,0.1c0.1,0-0.1-0.1-0.1-0.2h0.1
							c-0.3-0.1,0.2-0.1-0.1-0.1c0.1,0,0.2,0,0.3-0.1c0,0-0.1-0.1,0-0.1c-0.2,0-0.4,0-0.4-0.1h0.1c0-0.1-0.1,0-0.2-0.1
							c0.1,0,0-0.1,0-0.3c-0.2,0-0.2,0.1-0.3,0.1c0-0.1,0-0.1-0.2-0.1c-0.1,0-0.3-0.1-0.3-0.2c0.1,0,0.3,0,0.2-0.1
							c0-0.3-0.4,0-0.6-0.3v0.2c0-0.2-0.4-0.1-0.3-0.3c-0.1,0-0.3-0.2-0.3,0c-0.3-0.4-1-0.5-1.1-0.9c-0.1,0-0.2-0.1-0.2,0
							s0.2,0,0.2,0.1h-0.1c-0.1-0.1-0.2-0.2,0-0.2c-0.2-0.3-0.4,0.1-0.7-0.1c0,0,0-0.1-0.1-0.1h-0.3c-0.2-0.1,0-0.2,0-0.3
							c-0.1,0-0.3-0.1-0.4-0.1l-0.1-0.2c0,0.2-0.1,0-0.2,0h0.1c0-0.1-0.1-0.1-0.2-0.1c0,0.1,0.1,0.2,0.2,0.3c-0.1,0-0.2,0-0.3,0
							c0.1-0.1-0.1-0.2-0.2-0.3c-0.1-0.1-0.2,0-0.2,0c0-0.1-0.2-0.1,0-0.1c0,0,0,0.1,0.1,0.1c0-0.1,0-0.2-0.2-0.2
							c-0.1,0-0.1,0.2-0.3,0c0.1,0,0.1,0,0.2,0l-0.2-0.2L32.4,31c0,0,0,0,0-0.1c-0.1,0.1-0.3-0.1-0.4,0c-0.1,0-0.2-0.2-0.3-0.3l0,0
							c-0.1-0.1-0.3-0.2-0.4-0.2l0,0c-0.1,0-0.2-0.1-0.3-0.1c-0.1-0.2,0.2-0.4-0.1-0.4c-0.2-0.1-0.4,0-0.3,0.1
							c-0.3-0.2-0.7-0.3-0.9-0.6c-0.1,0,0,0-0.1,0c-0.4-0.3-1-0.4-1.2-0.8c0.1,0,0.1-0.1,0.1-0.1c-0.1,0-0.1-0.2-0.2,0
							c0,0.1-0.1,0.1,0,0.2c-0.3-0.1-0.7-0.3-0.8-0.5c0,0.1,0,0.1-0.1,0.1c0.1-0.1-0.1-0.3-0.3-0.3L27,28.1V28c-0.1,0-0.2,0.1-0.3,0
							v-0.1c-0.2,0-0.5,0-0.6-0.2L26,27.5c-0.1,0-0.2,0-0.1,0.1c-0.2-0.2-0.4-0.3-0.4-0.5c-0.6,0-1.3-0.4-1.8-0.7l0,0
							c-0.1-0.1-0.1,0.1-0.2,0c0.1,0,0-0.2,0.1-0.2c-0.2-0.2-0.3,0-0.5-0.1c-0.1,0.1,0.1,0,0,0.1c0,0-0.3-0.2-0.4-0.1
							c0-0.1,0.1-0.1,0.1-0.2h-0.2c-0.1-0.2,0.5-0.1,0.5-0.3H23c0-0.2,0.4,0,0.1-0.2c-0.2,0-0.4,0.1-0.3,0.2c-0.3-0.1-0.3,0.2-0.6,0
							c0-0.1,0.2,0.1,0.2,0c-0.1-0.2-0.3-0.1-0.4-0.2c0.1,0.1-0.1,0.2-0.2,0.2c-0.1-0.1,0.2-0.1,0-0.2c-0.1,0-0.3,0-0.2,0.1
							c-0.2,0.1-0.2-0.2-0.4-0.1c0-0.1,0.4-0.1,0.2-0.3c0,0.1-0.4,0-0.3,0.2c-0.1-0.1,0-0.2,0.1-0.2c-0.1-0.1-0.4,0-0.3-0.2L20.8,25
							c0-0.1-0.1-0.1-0.1-0.2c-0.1-0.1-0.5,0-0.3-0.2c0,0-0.3-0.2-0.3,0c0.1,0.2,0.2,0,0.2,0.2c0-0.2-0.2-0.1-0.4-0.1v-0.1
							c-0.1,0-0.2-0.1-0.3,0c0.1,0,0.1-0.1,0-0.1l-0.1,0.1c-0.3-0.1,0-0.2-0.2-0.3h0.2c0,0-0.1-0.1-0.2-0.2
							c-0.1,0.1-0.2,0.1-0.3,0.2c-0.1,0,0-0.1-0.2-0.1H19c0,0,0-0.2-0.2-0.3c-0.1,0-0.4,0-0.2,0.2c-0.1,0-0.2-0.2-0.1-0.2
							c-0.2-0.1,0,0.1-0.2,0.1c0-0.1-0.2-0.3-0.3-0.5l0.3-0.1l-0.1-0.1c0.2,0,0-0.1,0.1-0.2C18.2,23,18.1,23,18,23
							c0.1,0.3-0.4,0.1-0.5,0.4c-0.3-0.1,0.1-0.6-0.4-0.5c0,0.1-0.2,0.1,0,0.2c-0.1-0.1-0.1,0-0.2,0c0,0,0,0.1,0,0
							c0.1-0.1,0-0.3,0.1-0.3c0,0.1,0,0.1,0.1,0.1c0-0.1,0.1-0.2,0-0.3c-0.1,0-0.2-0.1-0.2,0.1c0,0.1,0.1,0,0,0.1l-0.1-0.1
							c0,0,0,0,0,0.1l0,0c0,0,0,0.1,0,0.2l0,0l0,0v-0.1c0,0,0,0.2,0,0.1c0,0,0-0.1-0.1-0.1c0-0.1,0.1,0,0-0.2c-0.1,0,0,0.1-0.1,0.1
							c0,0,0.1-0.1,0-0.1c0,0-0.2-0.2-0.4,0.1c-0.1,0.1,0,0.1,0,0.2c-0.3,0.2-0.3,0.3-0.5,0.4c0-0.2-0.3,0.2-0.2-0.1
							c0.1,0,0.5-0.2,0.6-0.4c-0.2-0.1,0.2-0.1,0.2-0.3c-0.2,0.1-0.3,0-0.4-0.1c-0.1,0-0.1,0.1-0.1,0.1c0,0.1,0.1,0.1,0.2,0.2
							c-0.3,0.1-0.5,0.3-0.5,0.5c-0.1,0-0.1-0.1-0.1-0.2c-0.3,0.2-0.6,0.4-0.9,0.5c0.3,0.1-0.3,0.2-0.1,0.3c0.2,0,0.4,0,0.3,0.1
							c-0.1,0,0-0.1-0.1-0.1c-0.1,0.2-0.3,0-0.3,0.2c0.2-0.2-0.1-0.2-0.1-0.4c-0.1,0.2,0-0.1-0.2,0c-0.1,0.2-0.4,0.4-0.6,0.5
							c-0.4,0-0.7,0.4-0.9,0.5c-0.2,0-0.2-0.2-0.3-0.1c-0.2,0.1,0.2,0.1-0.1,0.2l0,0c0,0.1-0.5,0.1-0.4,0.4V25l-0.1,0.1L11.5,25
							c-0.2,0-0.3,0.2-0.5,0.3h0.2c-0.2,0.2-0.5,0.3-0.7,0.4v-0.1l-0.1,0.1c0-0.1-0.2-0.1-0.2,0l0.3-0.5c0.1,0-0.1,0.2,0.1,0.2
							c0.1,0,0.3-0.1,0.3-0.2c-0.1,0-0.1,0.1-0.1,0.1c-0.1-0.1,0-0.2,0.1-0.3c0,0-0.1,0-0.1,0.1c0.1-0.1,0.1-0.2,0.3-0.3
							c-0.1,0.1,0.1,0,0.1,0.1c-0.1-0.1,0.1-0.3,0.3-0.3c0.2,0,0.3-0.3,0.6-0.4c0,0.2-0.1,0.3-0.2,0.5c0.2,0,0.2-0.1,0.3-0.1
							c0-0.1,0-0.3,0.1-0.5l0.1,0.1c0.1-0.1,0.1-0.3,0.3-0.4c0.4-0.2,0.8-0.4,1.1-0.5l0.1,0.1c0-0.3,0.5-0.4,0.7-0.6
							c0.4-0.1,0.7-0.5,1-0.5c0.2-0.2,0.4-0.3,0.6-0.5c0.2-0.1,0.6-0.4,0.9-0.6c0.2,0.1,0.5,0.3,0.7,0.4c-0.1,0-0.1,0-0.2,0
							c0.2,0,0.1,0.1,0.2,0.2c-0.1-0.2,0.2,0,0.4-0.1c0.2,0.3,0.7,0.4,1,0.5v0.1c0.4,0,0.6,0.3,0.9,0.5c0,0.1,0,0.2,0.1,0.2
							c0.3,0,0.4,0,0.7,0.1c0.2,0.1,0.5,0.3,0.6,0.5c0.8,0.2,1.5,0.8,2.3,1.1v0.1c0.9,0.2,1.6,0.9,2.3,1.2l-0.2,0.1
							c0.2,0.2,0.5,0.2,0.5,0.1c0.2,0.2,0.5,0.2,0.6,0.4c0.2,0.1,0.3,0.1,0.5,0.1c0.4,0.3,0.5,0.4,0.9,0.5l-0.1-0.1
							c-0.1,0-0.1,0.1,0,0.1c0.2,0,0.5,0.4,0.5,0.1c0.3,0.4,1,0.4,1.3,0.8c0-0.1,0.1,0,0.2,0c0.4,0.2,0.7,0.5,1,0.6
							c0,0.1-0.1,0,0,0.1c0.1,0,0-0.1,0.2,0c0.6,0.2,1.1,0.8,1.6,1.1c1,0.4,1.9,1,2.8,1.5l0,0c0.4,0,0.6,0.6,1,0.5
							c0,0.1,0.3,0.2,0.2,0.2c0.3,0,0.6,0.5,1,0.5c0,0,0,0-0.1,0c0.4,0.3,1.1,0.6,1.6,1c-0.1,0-0.2-0.1-0.3-0.1
							c0.1,0.2,0.9,0.3,0.6,0.4c0.1,0.1,0.3,0,0.2,0c0.2,0.1,0.4,0.3,0.6,0.4c-0.6,0.3-1.1,0.6-1.6,1c-0.5,0.3-0.9,0.6-1.4,0.9
							c-0.7,0.2-0.2-0.3-0.6,0.1c-0.1,0,0,0.1,0,0.1c-0.1,0.2-0.4-0.1-0.5,0.1c0.1,0.1,0,0.1,0,0.2c-0.4,0.1-0.5,0.1-0.8,0.3v-0.1
							c-0.2,0.4-0.7,0.5-0.8,0.9c-1,0.6-2,1.2-3,1.8c-1.2-0.6-2.3-1.3-3.5-1.9c-1.8-1.1-3.6-2-5.3-3.2c-0.3-0.4-0.4-0.4-0.9-0.6
							c0,0,0.1,0,0,0c-0.1,0.1-0.3-0.2-0.5-0.1c-0.7-0.4-1.3-0.7-2-1.1c0.1,0,0.2,0,0.1-0.1h-0.2l0,0c-0.1,0-0.2,0-0.2,0.1
							c-1.8-0.9-3.4-2.2-5.1-3.1c-0.4-0.3-1-0.6-1.4-0.8c-1.2-0.9-2.3-1.8-3.7-2.4C10,27,10.4,26.7,11,26.9z"/>
						<path class="st1" d="M10.6,25.9c0.1,0,0.3,0,0.2,0.2C10.8,26,10.6,25.9,10.6,25.9z"/>
						<path class="st1" d="M15.1,24.2C15.1,24.2,15.2,24.2,15.1,24.2v0.1C15.1,24.3,15.1,24.3,15.1,24.2z"/>
						<path class="st1" d="M16.2,23.7c0,0.1-0.2,0.3-0.3,0.3L16.2,23.7z"/>
						<path class="st1" d="M17.3,23.4c0.1,0,0.1,0,0,0.1C17.2,23.5,17.3,23.4,17.3,23.4z"/>
						<path class="st1" d="M17.3,23.2c0.1,0,0.1,0,0.2,0C17.4,23.1,17.3,23.3,17.3,23.2z"/>
						<path class="st1" d="M18.5,23.7c0,0,0.2,0,0.2,0.1C18.7,23.7,18.4,23.7,18.5,23.7z"/>
						<path class="st1" d="M19.5,24.1C19.6,24.1,19.6,24.2,19.5,24.1C19.6,24.2,19.6,24.2,19.5,24.1L19.5,24.1z"/>
						<polygon class="st1" points="37.4,34.1 37.3,34.1 37.3,34 						"/>
						<path class="st1" d="M34.1,37.6c-0.1,0.1-0.1,0-0.1,0C34,37.5,33.9,37.7,34.1,37.6z"/>
						<polygon class="st1" points="30.3,37.6 30.3,37.6 30.2,37.8 						"/>
					</g>
				</g>
			</g>
		</g>
	</g>
	<g>
		<polygon class="st0" points="28.8,49.8 28.8,32.8 6.7,20 6.7,37.1 		"/>
		<g>
			<g>
				<g>
					<g>
						<path class="st1" d="M28.6,49.5c0,0.3,0.1-0.2,0.1,0.2C28.6,49.7,28.5,49.6,28.6,49.5z"/>
						<path class="st1" d="M28,49.1c-1.1-0.2-2-1.2-3.1-1.5c-0.1,0,0.1-0.2-0.1-0.3c-1.1-0.3-2.5-1.3-3.5-2.1h0.1
							c-0.2-0.2-0.5-0.1-0.8-0.3c0,0,0.1,0,0.1-0.1c-0.1,0.1-0.4-0.2-0.6-0.2c-0.1-0.1,0-0.2-0.1-0.3h-0.2c-0.5,0.1-0.9-0.5-1.5-0.7
							c0,0,0.1,0,0.1-0.1c-0.9-0.3-1.9-0.9-2.8-1.3c0.1,0,0.1-0.1,0.1-0.1c-0.1,0.1-0.4,0-0.7-0.1c0-0.2-0.5-0.1-0.7-0.4l0,0
							c-0.3,0-0.3-0.3-0.5-0.2l-0.1-0.2c-0.2,0.1-0.3-0.3-0.5-0.3l0,0c-0.2,0-0.2-0.2-0.4-0.2l0,0c-0.4-0.1-0.5-0.4-0.6-0.2
							c-0.1-0.2,0.4,0.1,0.3-0.1c-1.2-0.5-2.4-1.2-3.6-1.9c-0.1-0.1-0.2-0.2-0.2-0.3c-0.1,0-0.5-0.2-0.6-0.2c0,0,0-0.1-0.1-0.2
							c-0.2-0.2-0.3,0-0.5-0.2c0.1,0,0.2,0,0.2-0.1c-0.3,0-0.5-0.2-0.8-0.3c0.1,0,0.1,0,0.1,0c-0.3,0-0.4-0.2-0.6-0.3v-0.1h0.1
							c0.1-0.4-0.2,0-0.1-0.5c0,0.1,0.1,0,0.1,0.1c-0.2-0.3-0.1-0.9-0.2-1.2l0,0c0-0.4,0-0.7,0-1.1c0-0.1,0.2,0,0.2-0.3
							c-0.2,0-0.1-0.6-0.3-0.4c0-0.3,0.1-0.9,0-1.1c0.1,0.1,0.2-0.2,0.2,0.1l0.1-0.2c0.1,0,0,0.2,0.1,0.1c0-0.1-0.1-0.5,0-0.7
							c-0.1-0.3-0.3-0.5-0.4-0.9c0.1,0.2,0.2-0.1,0.2,0L6,30.1c0-0.1,0.1,0,0.1-0.2L6,29.8c0,0,0-0.6,0.1-0.6c0.1-0.1,0,0.2,0.1,0.1
							c0-0.3-0.1-0.3-0.1-0.5l0,0c0-0.2-0.1-0.5-0.2-0.3c0,0.1,0.1,0,0.1,0.1c-0.1-0.1-0.1-0.4-0.1-0.7C5.9,28,6,28,6,28
							c-0.1-0.3-0.2-0.7-0.3-1.1c-0.1,0,0.2,0.1,0.1,0.2c0.1-0.5-0.2-1,0-1.4c0,0.1-0.1,0-0.1,0c0-0.2,0.1-0.2,0.1-0.4
							c0.1,0,0-0.2,0-0.4c0-0.1,0,0,0,0.1c-0.1-0.2-0.2-1.1-0.1-1.6c0,0-0.2-0.3-0.2-0.4h0.1c0.1-0.1,0-0.4,0.1-0.4
							c-0.1-0.3,0.1,1,0,0.6c0.1-0.1-0.2-0.5,0-0.4c0-0.2-0.1-0.5,0-0.7c0,0.1,0.2,0.2,0.1,0c0-0.3,0-0.1-0.1-0.4v-0.2
							c-0.1,0,0-0.1,0-0.1c0-0.1,0-0.1-0.1-0.1c0.1,0-0.1-0.8,0.1-0.6l0.1,0.1c0-0.2-0.1-0.4-0.2-0.6c0,0,0,0,0.1,0
							c-0.2-0.2,0-0.5-0.1-0.9c0-0.2,0-0.5,0-0.7C5.8,18.7,6,18.9,6.2,19s0.5,0.1,0.9,0.4c-0.1,0-0.2-0.1-0.2,0
							c0.2,0.2,0.3,0.2,0.5,0.2c0,0,0.4,0.4,0.6,0.6c0.3,0.1,0.2-0.1,0.3-0.1c0.1,0.3,0.6,0.2,0.8,0.5c-0.1,0-0.3-0.1-0.2,0.1
							C9,21,9.4,20.8,9.6,21v-0.2C9.7,21,10.1,21,10,21.1c0.1,0,0.3,0.3,0.4,0.1c0.4,0.4,1.2,0.6,1.4,1c0.1,0,0.2,0.1,0.3,0
							c-0.1-0.1-0.2,0-0.2-0.1c0.1,0,0.1,0,0.1,0c0.1,0.1,0.2,0.2,0,0.3c0.3,0.3,0.5-0.1,0.9,0.2c-0.1,0,0,0.1,0.1,0.2h0.3
							c0.3,0.2,0.1,0.2,0,0.4c0.2,0.1,0.3,0.2,0.5,0.1l0.1,0.2c-0.1-0.2,0.2,0,0.2,0H14c0,0.1,0.2,0.1,0.3,0.2
							c0-0.1-0.1-0.2-0.2-0.3c0.1,0,0.2,0.1,0.3,0.1c-0.1,0.1,0.2,0.2,0.3,0.3c0.1,0.1,0.2,0,0.2,0c0,0.1,0.2,0.1,0.1,0.1
							s-0.1-0.1-0.2-0.1c0.1,0.1,0,0.2,0.2,0.2s0.1-0.2,0.3,0c-0.1,0-0.1,0-0.2,0l0.2,0.2l0.1-0.1c0,0,0,0,0,0.1
							c0.1-0.1,0.4,0.2,0.5,0.1c0.1,0.1,0.2,0.2,0.3,0.3l0,0c0.1,0.1,0.3,0.2,0.5,0.2l0,0c0.1,0,0.3,0.1,0.4,0.1
							c0.2,0.2-0.1,0.4,0.1,0.4c0.2,0.1,0.4,0,0.4-0.1c0.3,0.3,0.8,0.4,1.1,0.7c0.1,0,0.1,0,0.2,0c0.5,0.3,1.2,0.5,1.5,1
							c-0.2,0-0.1,0.1-0.1,0.1c0.2,0,0.1,0.2,0.2,0.1c0-0.1,0.1-0.1,0-0.3c0.3,0.1,0.8,0.4,1,0.6c-0.1-0.1,0-0.1,0.1-0.1
							c-0.1,0.1,0.1,0.3,0.3,0.3l0.1-0.1l0.1,0.1c0.1,0,0.2-0.1,0.3,0v0.1c0.2,0,0.5,0.1,0.7,0.3l0.1,0.2c0.1,0,0.3,0,0.1-0.1
							c0.3,0.3,0.5,0.4,0.5,0.6c0.7,0.1,1.6,0.5,2.3,1H26c0.1,0.2,0.2-0.1,0.3,0.1c-0.1,0,0.1,0.2-0.1,0.2c0.2,0.2,0.4,0.1,0.6,0.1
							c0.1-0.1-0.2,0-0.1-0.1c0,0,0.3,0.3,0.4,0.2c0,0.1-0.1,0.1-0.1,0.2h0.2c0.1,0.3-0.6,0-0.5,0.3l0.2,0.1
							c0.1,0.2-0.5-0.1-0.1,0.2c0.2,0,0.4-0.1,0.3-0.2c0.4,0.2,0.3-0.2,0.7,0c0.1,0.1-0.3-0.1-0.3,0c0.1,0.2,0.4,0.1,0.5,0.3
							c-0.1-0.1,0.1-0.2,0.2-0.1c0.1,0.2-0.2,0,0.1,0.2c0.1,0,0.4,0,0.2-0.1c0.1,0,0.1,0,0.2,0.1s0.3,0.2,0.4,0.2
							c0,0.2-0.6,0-0.2,0.3c0-0.1,0.7,0.2,0.6,0c0.1,0.1,0.1,0.1,0.1,0.1l0,0c0,0-0.1,0-0.2,0c0,0,0,0,0.1,0.1c0,0.3,0.2,0.6,0,0.8
							l0.1,0.1c0,0.1-0.1,0.3-0.1,0.3c0,0.2,0.2,0.5,0,0.5c0,0,0,0.4,0.1,0.3c0.1-0.2-0.1-0.3,0.1-0.4c-0.1,0.2,0,0.3,0.1,0.5h-0.1
							c0,0.1,0,0.3,0.1,0.3c0-0.1-0.1,0-0.1,0l0.1,0.1c0.1,0.3-0.2,0.1-0.2,0.4l-0.1-0.2c0,0-0.1,0.2,0,0.3c0.1,0.1,0.2,0.2,0.3,0.2
							c0,0.2-0.1,0.1,0,0.3l-0.1-0.2c0,0-0.2,0.1-0.2,0.4c0,0.1,0.2,0.4,0.3,0.1c0,0.1-0.1,0.3-0.1,0.2c0,0.3,0.1,0,0.2,0.2
							c-0.1,0.1-0.2,0.4-0.3,0.6l-0.2-0.2v0.2c-0.1-0.2-0.1,0.1-0.3,0c0,0.1,0,0.2,0.1,0.4c0.2-0.3,0.3,0.4,0.5,0.3
							c0.1,0.4-0.5,0.3-0.2,0.7c0.1-0.1,0.2,0.1,0.2-0.1c0,0.3,0.2,0.2,0.1,0.5c-0.1-0.2-0.2,0.3-0.4-0.1c0.1,0,0.1-0.2,0-0.2
							c-0.1,0.1-0.2,0-0.2,0.3c0,0.2,0,0.4,0.1,0.4s0-0.3,0.1-0.1c0,0.3-0.1,0.4,0.1,0.5c0-0.2,0.1-0.3,0.2-0.3v0.3h-0.1
							c-0.1,0.4,0.1,0.1,0.1,0.5L29.5,40c-0.1-0.1,0.1-0.6-0.2-0.5c0,0.3,0.1,0.3,0,0.6c0,0,0-0.1,0-0.2c0,0.1-0.3,0.2-0.1,0.5
							c0.1,0.2,0.1,0,0.2,0c0,0.4,0.1,0.5,0.1,0.8c-0.2,0,0,0.5-0.2,0.2c0.1-0.1,0.1-0.7-0.1-0.9c-0.2,0.1,0-0.3-0.2-0.4
							c0,0.3-0.2,0.3-0.3,0.4c0,0.1,0,0.2,0.1,0.2s0.1-0.1,0.3-0.1c0,0.4,0,0.7,0.1,0.9c-0.1,0.1-0.2,0.1-0.2-0.1c0,0.4,0,0.9,0,1.3
							c0.2-0.3,0,0.5,0.2,0.3c0-0.2,0.2-0.4,0.3-0.3c0,0.1-0.1,0-0.1,0c0.1,0.2-0.2,0.3,0,0.4C29.3,42.7,29.2,43,29,43
							c0.1,0.3-0.1,0-0.1,0.3c0.1,0.3,0.2,0.6,0.2,0.9c-0.1,0.4,0,1,0,1.4c-0.1,0.2-0.3,0.1-0.3,0.3c0,0.2,0.2-0.2,0.1,0.2l0,0
							c0,0.1-0.1,0.6,0.1,0.7l-0.2-0.1c0,0.1,0,0.1,0,0.2c-0.1,0-0.1,0.1-0.2,0c-0.1,0.2,0,0.5,0,0.7l0.1-0.1c0.1,0.4,0,0.7,0,1
							h-0.1l0.1,0.2c-0.1-0.1-0.2,0.1-0.1,0.3l-0.3-0.6c0.1-0.2,0.1,0.2,0.2,0.1s0.1-0.4,0-0.5c0,0.1,0,0.1,0,0.3
							c-0.1,0-0.1-0.2-0.3-0.3c0,0.1,0,0.2,0,0.2c-0.1-0.1-0.1-0.3-0.1-0.5c0.1,0.2,0.1-0.1,0.1,0c-0.1,0-0.2-0.2-0.1-0.5
							c0.2-0.2-0.1-0.5-0.1-0.9c0.1,0.1,0.3,0.3,0.3,0.5c0.1-0.2,0-0.2,0.1-0.4c-0.1-0.1-0.3-0.2-0.3-0.5h0.1c0-0.3-0.2-0.3-0.2-0.6
							c0-0.5,0-1.1,0.1-1.5h0.1C28,43.6,28.1,43,28,42.7c0.1-0.5-0.1-1.1,0.1-1.4C28,40.4,28,39.6,28,38.6l0.1,0.2
							c-0.1-0.2,0.1-0.1,0.1-0.3c-0.1,0.2-0.1-0.2-0.2-0.4c0.1-0.4,0-1-0.1-1.4H28c-0.2-0.4,0-0.8,0-1.3c0,0,0.1-0.1,0.1-0.3
							c-0.2-0.3-0.1-0.4-0.3-0.8c0-0.1,0-0.3,0-0.5c0-0.1,0-0.2,0-0.3v-0.1l-0.1-0.2c-0.1,0-0.2-0.1-0.4-0.1l-0.6-0.3
							c-0.4-0.2-0.8-0.5-1.3-0.6v-0.1c-1-0.3-2-1.2-2.9-1.5l0.2-0.1c-0.2-0.2-0.6-0.3-0.6-0.1c-0.2-0.2-0.7-0.3-0.7-0.5
							c-0.2-0.2-0.4-0.1-0.6-0.2c-0.5-0.4-0.7-0.5-1.1-0.7l0.1,0.1c0.1,0,0.1-0.1,0-0.2c-0.2,0-0.6-0.4-0.6-0.1
							c-0.4-0.4-1.2-0.6-1.6-1c0,0.1-0.1,0-0.2,0c-0.4-0.3-0.8-0.6-1.3-0.8c0-0.1,0.2,0,0-0.1c-0.1,0,0,0.1-0.2,0
							c-0.8-0.3-1.4-1-2.1-1.3c-1.2-0.6-2.4-1.3-3.5-1.9l0,0c-0.5,0-0.8-0.7-1.2-0.6C9,23,8.8,22.9,8.9,22.8
							c-0.4-0.1-0.8-0.6-1.3-0.7h0.1c-0.1-0.1-0.2-0.2-0.3-0.2c-0.1-0.1-0.2-0.1-0.2-0.1c-0.1,0-0.1,0-0.2-0.1c0,0,0,0,0-0.1
							c-0.1-0.2-0.1,0.2-0.2-0.2c0,0,0,0.2,0.1,0.2c-0.1,0-0.1-0.1-0.2-0.1c0,0.2,0,0.4,0,0.5v0.1v0.4v0.8c-0.1,0.9-0.4,0-0.2,0.7
							c0,0.1,0.1,0,0,0c0.1,0.3-0.3,0.4-0.1,0.6c0.1-0.1,0.1,0.1,0.2,0.1c-0.1,0.5-0.2,0.6-0.1,1H6.4c0.2,0.5,0.1,1,0.4,1.5
							c0,2.7,0.2,5.3,0.2,7.9v1.1v0.5l0,0c0,0,0,0,0.1,0L7.7,37l1.2,0.7c0.8,0.5,1.6,0.9,2.4,1.4c0.4,0.5,0.5,0.5,1.1,0.8h-0.1
							c0.1-0.1,0.4,0.2,0.5,0.1c0.8,0.5,1.6,0.9,2.5,1.4c-0.1-0.1-0.3,0-0.1,0.1h0.2v0.1c0.1,0,0.3,0,0.2-0.1
							c2.3,1.1,4.2,2.6,6.4,3.8c0.5,0.4,1.2,0.7,1.8,1c1.5,1.1,2.9,2.1,4.6,2.9C29.2,49.1,28.8,49.4,28,49.1z"/>
						<path class="st1" d="M28.6,49.2c0.1-0.1,0.1-0.3,0.2-0.1C28.7,49.1,28.6,49.2,28.6,49.2z"/>
						<path class="st1" d="M29.4,43.3v-0.1c0,0.1,0.1,0.1,0,0.2C29.5,43.4,29.4,43.4,29.4,43.3z"/>
						<path class="st1" d="M29.4,41.8c0.1,0,0.1,0.3,0.1,0.5L29.4,41.8z"/>
						<path class="st1" d="M29.7,40.4C29.8,40.3,29.8,40.4,29.7,40.4C29.8,40.5,29.8,40.5,29.7,40.4z"/>
						<path class="st1" d="M29.6,40.3c0-0.1,0-0.2,0.1-0.2C29.6,40.1,29.7,40.4,29.6,40.3z"/>
						<path class="st1" d="M29.8,37.3c0-0.1-0.1-0.2,0-0.3C29.8,37.1,29.9,37.4,29.8,37.3z"/>
						<path class="st1" d="M29.7,35.9v-0.1C29.7,35.7,29.8,35.8,29.7,35.9L29.7,35.9z"/>
						<polygon class="st1" points="9.7,21.1 9.8,21.2 9.8,21.2 						"/>
						<path class="st1" d="M6.1,28c0,0.1-0.1,0.1-0.1,0.1C6,28,6.1,28.2,6.1,28z"/>
						<polygon class="st1" points="6.5,34 6.5,34 6.6,34 						"/>
					</g>
				</g>
			</g>
		</g>
	</g>
	<g>
		<polygon class="st0" points="6.7,20 17.7,13.6 39.8,26.4 28.8,32.8 		"/>
		<g>
			<g>
				<g>
					<g>
						<path class="st1" d="M6.7,19.7c-0.2,0.2,0.2,0-0.1,0.1C6.6,19.7,6.6,19.7,6.7,19.7z"/>
						<path class="st1" d="M7.4,20.6c1,0.1,1.8,1,2.8,1.3c0.1,0-0.1,0.2,0.1,0.3c1,0.2,2.2,1.1,3.1,1.9h-0.1
							c0.2,0.1,0.5,0.1,0.7,0.3c0,0-0.1,0-0.1,0.1c0.1-0.1,0.4,0.2,0.5,0.1c0.1,0.1,0,0.2,0.1,0.3h0.2c0.5-0.1,0.8,0.5,1.3,0.6
							c0,0-0.1,0-0.1,0.1c0.8,0.2,1.7,0.8,2.5,1.2c-0.1,0-0.1,0.1-0.1,0.1c0.1-0.1,0.4,0,0.6,0.1c0,0.2,0.4,0.1,0.6,0.3l0,0
							c0.3,0,0.2,0.2,0.5,0.2l0.1,0.2c0.2-0.1,0.2,0.3,0.4,0.3l0,0c0.2,0,0.2,0.2,0.3,0.2l0,0c0.3,0.1,0.5,0.3,0.5,0.2
							c0,0.2-0.3-0.1-0.3,0.1c1.1,0.5,2.2,1.1,3.2,1.7c0.1,0.1,0.1,0.2,0.1,0.3c0.1,0,0.4,0.2,0.5,0.2c0,0,0,0.1,0.1,0.1
							c0.2,0.2,0.3,0,0.5,0.1c-0.1,0-0.2,0-0.2,0.1c0.2,0,0.5,0.1,0.7,0.2h-0.1c0.3,0,0.4,0.3,0.6,0.3h-0.1c0.3,0.3,0.2-0.1,0.4,0.1
							c-0.1,0-0.1,0-0.1,0.1c0.3,0,0.7,0.3,1,0.4l0,0c0.3,0.1,0.6,0.4,0.9,0.4c0.1,0.1,0,0.2,0.1,0.3c0,0,0.1,0,0.1-0.1
							c0-0.2,0.5-0.4,0.2-0.5c0.2-0.1,0.7-0.3,0.8-0.4c-0.1,0.1,0.2,0.1,0,0.3h0.2c0,0.1-0.2,0.1-0.1,0.1c0.1-0.1,0.4-0.3,0.5-0.3
							c0.1-0.2,0.2-0.5,0.5-0.7c-0.1,0.1,0.2,0.1,0.1,0.2l0.3-0.6c0.1-0.1,0.1,0.1,0.2,0c0,0,0-0.1,0-0.2c0,0,0.4-0.3,0.6-0.2
							c0.1,0-0.1,0.1,0,0.1c0.2-0.1,0.2-0.2,0.4-0.3l0,0c0.1,0,0.3-0.3,0.1-0.3c-0.1,0,0.1,0.1-0.1,0.1c0-0.1,0.3-0.3,0.5-0.4
							c0,0.1,0,0.1,0,0.2c0.2-0.3,0.5-0.5,0.7-0.7c0-0.1,0,0.2-0.1,0.2c0.4-0.1,0.7-0.6,1.1-0.6l-0.1-0.1c0.2-0.1,0.2,0,0.3-0.1
							c0,0.1,0.1-0.1,0.3-0.2c0-0.1,0,0,0,0.1c0.1-0.1,0.8-0.6,1.2-0.8c0,0,0.1-0.3,0.2-0.3v0.1c0.1,0,0.3-0.2,0.4-0.1
							c0.1-0.2-0.7,0.5-0.5,0.3c0.1,0,0.3-0.4,0.3-0.2c0.2-0.1,0.3-0.3,0.5-0.3c-0.1,0-0.1,0.2,0.1,0.1c0.3-0.2,0-0.1,0.2-0.2
							l0.1-0.1c-0.1-0.1,0.1-0.1,0-0.1c0.1,0,0.1-0.1,0.3,0l0.1,0.1c0.1,0,0-0.1-0.1-0.2H38c-0.3-0.1,0.2-0.1,0-0.2
							c0.1,0,0.2-0.1,0.3-0.1c0,0-0.1-0.1,0-0.1c-0.2,0-0.4-0.1-0.4-0.1H38c0-0.1-0.1-0.1-0.2-0.1c0,0,0-0.1-0.1-0.3
							c-0.2,0-0.2,0.1-0.2,0.2c0-0.3-0.6-0.2-0.6-0.4c0.1,0,0.3,0.1,0.2-0.1c0-0.3-0.4,0-0.6-0.3v0.2c-0.1-0.2-0.4-0.1-0.3-0.3
							c-0.1,0-0.3-0.2-0.3-0.1c-0.4-0.4-1.1-0.5-1.2-1c-0.1,0-0.2-0.1-0.2,0s0.2,0,0.2,0.1c-0.1,0-0.1,0-0.1,0
							c-0.1-0.1-0.2-0.2,0-0.2c-0.2-0.3-0.5,0.1-0.8-0.2c0,0,0-0.1-0.1-0.1h-0.3c-0.2-0.2-0.1-0.2,0-0.3c-0.1-0.1-0.3-0.2-0.4-0.1
							L32.9,23c0.1,0.2-0.1,0-0.2,0h0.1c0-0.1-0.2-0.1-0.3-0.1c0,0.1,0.1,0.2,0.2,0.3c-0.1,0-0.2-0.1-0.3-0.1
							c0.1-0.1-0.2-0.2-0.3-0.3c-0.1-0.1-0.2,0-0.2,0c0-0.1-0.2-0.1,0-0.1c0,0,0.1,0.1,0.2,0.1c-0.1-0.1,0-0.2-0.2-0.2
							c-0.1,0-0.1,0.2-0.3,0c0.1,0,0.1,0,0.2,0l-0.2-0.2l-0.1,0.1c0,0,0,0,0-0.1c-0.1,0.1-0.4-0.2-0.5-0.1c-0.1,0-0.2-0.2-0.3-0.3
							l0,0c-0.1-0.1-0.3-0.2-0.4-0.2l0,0c-0.1,0-0.2-0.1-0.4-0.1c-0.1-0.2,0.1-0.4-0.1-0.4c-0.2-0.1-0.4,0-0.4,0.1
							c-0.3-0.3-0.8-0.3-1-0.6c-0.1,0,0,0-0.2,0c-0.5-0.3-1.1-0.5-1.4-0.9c0.2,0,0.1-0.1,0.1-0.1c-0.2,0-0.1-0.2-0.2,0
							c0,0.1-0.1,0.1,0,0.2c-0.3-0.1-0.8-0.4-0.9-0.5c0.1,0.1,0,0.1-0.1,0.1c0.1-0.1-0.1-0.3-0.3-0.3l-0.1,0.1v-0.1
							c-0.1,0-0.2,0.1-0.3,0v-0.1c-0.2,0-0.5,0-0.6-0.2l-0.1-0.2c-0.1,0-0.3,0-0.1,0.1c-0.3-0.3-0.5-0.4-0.5-0.5
							c-0.7,0-1.4-0.5-2-0.8l0,0c-0.1-0.1-0.1,0.1-0.2,0c0.1,0,0-0.2,0.1-0.2c-0.2-0.2-0.4-0.1-0.5-0.1c-0.1,0.1,0.1,0,0.1,0.1
							c0,0-0.3-0.3-0.4-0.1c0-0.1,0.1-0.1,0.1-0.2h-0.2c-0.1-0.3,0.5,0,0.5-0.3l-0.1-0.1c0-0.2,0.4,0,0.1-0.2
							c-0.2,0-0.4,0.1-0.3,0.2c-0.3-0.1-0.3,0.2-0.6,0c0-0.1,0.3,0.1,0.3,0c-0.1-0.2-0.3-0.1-0.5-0.2c0.1,0.1-0.1,0.2-0.2,0.2
							c-0.1-0.1,0.2-0.1,0-0.2c-0.1,0-0.3,0-0.2,0.1c-0.2,0.1-0.2-0.2-0.4-0.1c0-0.2,0.4-0.1,0.2-0.3c0,0.1-0.4,0-0.4,0.2
							c-0.1-0.1,0-0.2,0.1-0.2c-0.1-0.1-0.5,0-0.4-0.2l-0.1,0.1c0-0.1-0.1-0.1-0.1-0.2c-0.1-0.1-0.5-0.1-0.4-0.3c0,0-0.3-0.2-0.3,0
							c0.1,0.2,0.3,0,0.3,0.3c0-0.2-0.3-0.1-0.4-0.1v-0.1c-0.1,0-0.2-0.1-0.3-0.1c0.1,0,0.1-0.1,0-0.1l-0.1,0.1
							c-0.2,0,0.1-0.2,0-0.2c0,0,0,0,0.1-0.1c0,0,0-0.1-0.1-0.1c0,0.1-0.1,0.2-0.1,0.3l0,0c0,0,0-0.1,0,0v-0.1l0,0v-0.1
							c0,0,0-0.1-0.1,0c0,0.1,0,0.2,0,0.3c0,0-0.1,0-0.1-0.1c-0.1,0.1,0.1,0.1,0,0.2c-0.1,0-0.4,0-0.6,0l0.1-0.3l-0.1,0.1
							c0.1-0.2-0.1,0-0.1-0.2c-0.1,0-0.2,0.1-0.2,0.2c0.4,0.1-0.1,0.5,0.1,0.6c-0.3,0.3-0.5-0.3-0.7,0.2c0.1,0,0,0.3,0.2,0.1
							c-0.2,0.1,0,0.3-0.3,0.3c0.1-0.2-0.3-0.1-0.1-0.4c0,0.1,0.2,0,0.2-0.1c-0.1,0-0.1-0.2-0.3-0.1c-0.1,0.1-0.3,0.2-0.2,0.3
							c0.1,0.1,0.2-0.1,0.2,0c-0.2,0.2-0.4,0-0.4,0.3c0.2-0.1,0.3,0,0.3,0L15,16.9v-0.1c-0.3,0.1,0,0.2-0.3,0.3L14.5,17
							c0-0.2,0.5-0.2,0.3-0.4c-0.2,0.1-0.2,0.2-0.4,0.3l0.1-0.1c-0.1,0-0.3-0.2-0.5,0.1c-0.1,0.1,0,0.1,0,0.2
							c-0.3,0.2-0.4,0.3-0.5,0.5c0-0.2-0.4,0.2-0.2-0.1c0.1,0,0.6-0.2,0.6-0.5c-0.2-0.1,0.3-0.1,0.2-0.3c-0.3,0.1-0.3,0-0.5-0.1
							c-0.1,0-0.1,0.1-0.1,0.2s0.1,0.1,0.2,0.2c-0.3,0.1-0.5,0.4-0.6,0.5c-0.1,0-0.2-0.1,0-0.2c-0.3,0.2-0.7,0.4-1,0.6
							c0.3,0-0.3,0.3-0.1,0.3c0.2-0.1,0.4,0,0.4,0.1c-0.1,0,0-0.1-0.1-0.1c-0.1,0.2-0.3,0-0.3,0.2c0.3-0.2-0.1-0.2-0.1-0.4
							c-0.2,0.2,0-0.1-0.3,0c-0.2,0.2-0.4,0.4-0.6,0.6c-0.4,0-0.8,0.5-1,0.6c-0.2,0-0.2-0.2-0.3-0.1c-0.2,0.1,0.2,0.1-0.1,0.2l0,0
							c-0.1,0.1-0.5,0.2-0.5,0.5v-0.2C9,19.6,9,19.7,9,19.7l-0.1-0.1c-0.2,0-0.3,0.2-0.5,0.3h0.2c-0.3,0.3-0.5,0.3-0.8,0.5v-0.1
							l-0.1,0.2c0-0.1-0.2-0.1-0.3,0L7.7,20c0.2,0-0.1,0.2,0.1,0.3c0.1,0,0.4-0.1,0.4-0.3c-0.1,0-0.1,0.1-0.2,0.2
							c-0.1-0.1,0-0.2,0.1-0.3c0,0-0.2,0-0.1,0.1c0.1-0.1,0.2-0.2,0.4-0.3c-0.1,0.1,0.1,0,0.1,0.1c0-0.1,0.1-0.3,0.3-0.4
							c0.2,0,0.4-0.3,0.6-0.4c0,0.2-0.1,0.4-0.3,0.5c0.2,0,0.2-0.1,0.4-0.1c0-0.1,0-0.3,0.2-0.5L9.8,19c0.2-0.2,0.1-0.3,0.4-0.4
							c0.5-0.2,0.9-0.5,1.2-0.6l0.1,0.1c0.1-0.3,0.6-0.4,0.8-0.6c0.5-0.1,0.8-0.6,1.1-0.6c0.7-0.5,1.3-0.9,2-1.3v0.2
							c0.1-0.2,0.1,0,0.3-0.1c-0.2,0,0.1-0.2,0.1-0.4c0.4-0.1,0.8-0.5,1-0.7l0.1,0.1c0.1-0.2,0.6-0.5,1-0.6l0.4,0.3
							c0,0.1,0.1,0.2,0.3,0.3c0.3,0,0.4,0,0.8,0.1c0.2,0.1,0.5,0.4,0.7,0.5c0.9,0.3,1.7,0.9,2.6,1.3v0.1c1,0.3,1.8,1,2.6,1.3
							l-0.2,0.1c0.2,0.2,0.5,0.2,0.5,0.1c0.2,0.2,0.6,0.2,0.7,0.5c0.2,0.2,0.3,0.1,0.5,0.2c0.4,0.3,0.6,0.4,1,0.6l-0.1-0.1
							c-0.1,0-0.1,0.1,0,0.2c0.2,0,0.6,0.4,0.5,0.1c0.4,0.4,1.1,0.5,1.5,0.9c0-0.1,0.1,0,0.2,0c0.4,0.2,0.8,0.6,1.1,0.7
							c0,0.1-0.2,0,0,0.1c0.1,0,0-0.1,0.2,0c0.7,0.3,1.2,0.9,1.9,1.2c1.1,0.5,2.2,1.2,3.2,1.7l0,0c0.4,0,0.7,0.6,1.1,0.5
							c0.1,0.1,0.3,0.2,0.2,0.2c0.3,0,0.7,0.5,1.1,0.6h-0.1c0.1,0.1,0.2,0.1,0.3,0.2l0.4,0.3c0.3,0.2,0.7,0.4,1,0.6
							c-0.1,0-0.2-0.1-0.3-0.1c0.1,0.2,0.9,0.3,0.7,0.4c0.1,0.1,0.3,0,0.2,0c0.2,0.1,0.5,0.3,0.7,0.5c-0.6,0.4-1.2,0.7-1.9,1.1
							l-0.9,0.6l-0.6,0.4c-0.7,0.3-0.2-0.3-0.7,0.1c-0.1,0,0,0.1,0,0.1c-0.2,0.2-0.5,0-0.5,0.1c0.1,0.1,0,0.1,0,0.2
							c-0.5,0.2-0.6,0.1-0.9,0.4v-0.1c-0.3,0.4-0.8,0.6-1,1c-0.9,0.6-1.9,1.1-2.8,1.7L30.9,34l-0.7,0.4L29,35.1
							c-0.4-0.2-0.7-0.4-1.1-0.6c-2-1.2-4-2.3-6-3.5c-0.4-0.5-0.4-0.5-1-0.7c0,0,0.1,0,0,0c-0.1,0.1-0.4-0.2-0.5-0.1
							c-0.7-0.5-1.5-0.8-2.2-1.3c0.1,0.1,0.3,0,0.1-0.1h-0.2l0,0c-0.1,0-0.3,0-0.2,0.1c-2-1-3.8-2.4-5.7-3.5
							c-0.4-0.3-1.1-0.6-1.6-0.9c-1.4-1-2.6-2-4.1-2.7C6.3,20.6,6.7,20.3,7.4,20.6z"/>
						<path class="st1" d="M7,19.5c0.1,0,0.3,0,0.2,0.1C7.1,19.6,7,19.6,7,19.5z"/>
						<path class="st1" d="M11.9,17.6H12l-0.1,0.1C12,17.7,11.9,17.6,11.9,17.6z"/>
						<path class="st1" d="M13.1,17c0,0.1-0.2,0.3-0.3,0.4L13.1,17z"/>
						<path class="st1" d="M14.4,16.6c0.1,0,0.1,0,0,0.1C14.3,16.7,14.4,16.6,14.4,16.6z"/>
						<path class="st1" d="M14.4,16.4c0.1,0,0.2,0,0.2,0C14.6,16.3,14.4,16.5,14.4,16.4z"/>
						<path class="st1" d="M16.8,15.2c0,0,0.1-0.2,0.2-0.1C17,15.1,16.8,15.3,16.8,15.2z"/>
						<path class="st1" d="M17.6,14.6L17.6,14.6C17.7,14.7,17.7,14.7,17.6,14.6L17.6,14.6z"/>
						<polygon class="st1" points="37.1,25.5 36.9,25.4 37,25.4 						"/>
						<path class="st1" d="M33.4,29.5c-0.1,0.1-0.1,0-0.1,0S33.2,29.6,33.4,29.5z"/>
						<polygon class="st1" points="28.9,32.5 28.9,32.5 28.9,32.7 						"/>
					</g>
				</g>
			</g>
		</g>
	</g>
	<g>
		<polygon class="st0" points="39.9,43.4 28.8,49.8 28.8,32.8 39.9,26.4 39.9,30.6 32.5,34.9 32.5,39.1 39.9,34.9 		"/>
		<g>
			<g>
				<g>
					<g>
						<path class="st1" d="M39.9,43.7c0.2-0.2-0.2,0,0.1-0.1C40,43.6,40,43.7,39.9,43.7z"/>
						<path class="st1" d="M40.1,42.4c-0.4-0.9,0-2.1-0.2-3.1c0-0.1,0.2,0,0.2-0.2C40,38.6,39.9,38,40,37.4c0-0.6,0.1-1.3,0.3-2.2
							h0.1c0-0.3-0.1-0.4-0.1-0.6c0,0,0,0-0.1,0c0-0.1,0.1-0.1,0.1-0.2c-0.2,0.2-0.5,0.4-0.6,0.5c-0.1,0,0-0.1-0.1-0.1l-0.2,0.3
							c-0.2,0.3-0.4,0.4-0.6,0.5s-0.5,0.2-0.7,0.4v-0.1c-0.6,0.6-1.5,1.1-2.3,1.6c0-0.1,0-0.1-0.1-0.2c0,0.1-0.2,0.3-0.4,0.5
							c-0.2-0.1-0.3,0.3-0.6,0.4l0,0c-0.1,0.2-0.3,0.1-0.4,0.4c-0.1,0-0.1,0-0.2,0c-0.1,0.3-0.3,0.1-0.5,0.3l0,0
							c-0.2,0.2-0.2,0.1-0.4,0.2l0,0c-0.4,0.3-0.5,0.2-0.6,0.5c0-0.1,0.4-0.3,0.4-0.5l-0.3,0.2c-0.1-0.5-0.1-1.1-0.1-1.7
							s0-1.1,0-1.7c0.1-0.1,0.1-0.2,0.1-0.3c0-0.1,0-0.5-0.1-0.6c0,0,0,0,0.1,0h0.1c0.2-0.1,0.1-0.3,0.4-0.3c-0.1,0.1-0.1,0.1,0,0.2
							c0.1-0.2,0.4-0.3,0.5-0.5c0,0-0.1,0.1,0,0.1c0.2-0.3,0.4-0.2,0.6-0.4v0.1c0.4-0.1,0-0.2,0.3-0.3c0,0.1,0,0.1,0,0.1
							c0.2-0.3,0.6-0.5,0.9-0.7l0,0c0.3-0.2,0.6-0.3,0.9-0.5c0.1,0,0.1,0.2,0.4,0c-0.1-0.1,0.5-0.4,0.2-0.4c0.3-0.1,0.7-0.3,0.9-0.5
							c-0.1,0.1,0.2,0.1,0,0.3h0.2c0,0.1-0.2,0.1-0.1,0.1c0.1-0.1,0.4-0.3,0.5-0.3c0.1-0.2,0.2-0.5,0.5-0.7
							c-0.1,0.1,0.2,0.1,0.1,0.2l0.3-0.6c0.1-0.1,0.1,0.1,0.2,0v-0.1c0,0,0.2-0.2,0.4-0.1l0,0c0,0,0,0,0,0.1c0,0-0.1,0.1,0,0l0,0
							c0-0.2-0.1-0.2-0.1-0.4l0,0c0-0.1-0.1-0.4-0.2-0.3c0,0.1,0.1,0,0.1,0.1c-0.1-0.1-0.1-0.4-0.1-0.6c0,0.1,0.1,0.1,0.1,0.1
							c-0.1-0.3-0.2-0.6-0.3-1c-0.1,0,0.2,0.1,0.1,0.2c0.1-0.2,0-0.5,0-0.6s-0.1-0.2,0-0.4L39.5,28c0-0.1,0.1-0.2,0.1-0.3
							c0.1-0.1,0-0.1,0-0.1s0-0.1,0,0c0,0-0.1-0.1-0.1-0.2c-0.2,0.1-0.3,0.2-0.4,0.2c0,0.1-0.2,0.3-0.2,0.3v-0.1c0,0-0.1,0.1-0.2,0
							c0,0.1,0,0,0.2-0.1c0.1-0.1,0.2-0.2,0.1-0.1c0-0.1-0.2,0.3-0.2,0.1l-0.1,0.1c0,0-0.1,0.1-0.2,0.1c0.1,0,0.1-0.2-0.1-0.1
							c-0.3,0.2,0,0.1-0.2,0.2l-0.1,0.1c0,0.1-0.2,0.1-0.1,0.2c-0.1-0.1-0.4,0.3-0.4,0.1v-0.1c-0.1,0.1-0.1,0.2-0.2,0.3h-0.1
							c0.1,0.2-0.3,0.1-0.3,0.4c-0.3,0.1-0.6,0.3-0.8,0.3c-0.1,0.2-0.3,0.3-0.5,0.4l0.1-0.1c-0.2,0-0.2,0.1-0.3,0.2c0,0-0.3,0-0.5,0
							c-0.1,0.2,0,0.2,0,0.3c-0.3-0.1-0.4,0.4-0.7,0.4c0-0.1,0.2-0.2,0-0.2c-0.3-0.1-0.3,0.3-0.6,0.4l0.2,0.1
							c-0.2,0-0.3,0.3-0.4,0.1c-0.1,0.1-0.3,0.1-0.2,0.3c-0.5,0.1-1,0.7-1.4,0.6c0,0.1-0.2,0.1-0.1,0.2c0.1,0,0.1-0.1,0.2-0.1V32
							c-0.1,0-0.3,0.1-0.2-0.1c-0.4,0.1-0.2,0.4-0.6,0.6c0-0.1-0.1-0.1-0.2,0l-0.1,0.2c-0.3,0.1-0.2-0.1-0.3-0.2
							c-0.1,0.1-0.3,0.2-0.3,0.3h-0.2c0.2,0-0.1,0.1-0.1,0.2v-0.1L29.8,33c0,0.1,0.2,0,0.3,0c0,0.1-0.2,0.1-0.2,0.2
							c0-0.1-0.2,0-0.2,0c-0.1,0,0,0.1,0,0.1l0,0c0,0,0,0.1-0.1,0l0,0l0,0h-0.1c0,0,0,0,0,0.1c0.1,0.1,0.2,0.1,0.2,0.2l-0.1-0.1
							l-0.1,0.1h0.1l0,0c0.1,0,0,0.4,0.2,0.4c0,0.1-0.1,0.3-0.1,0.4l0,0c-0.1,0.1,0,0.4,0,0.5l0,0c0,0.1,0,0.3,0.1,0.4
							c-0.1,0.2-0.4,0.1-0.3,0.3c0,0.2,0.2,0.3,0.3,0.2c-0.1,0.4,0.1,0.8-0.1,1.1c0,0,0.1,0,0.1,0.1c0,0.5,0.1,1.2-0.1,1.6
							c0-0.2-0.1,0-0.2,0c0.1,0.1-0.1,0.2,0.1,0.2c0.1,0,0.1,0,0.2-0.2c0,0.3,0,0.8,0,1c0-0.1,0.1,0,0.1,0c-0.2,0-0.2,0.2-0.1,0.4
							h0.1l-0.1,0.1c0,0.1,0.2,0.1,0.1,0.3h-0.1c0.1,0.2,0.2,0.5,0.1,0.7l-0.1,0.2c0,0.1,0.1,0.2,0.1,0.1c-0.1,0.4-0.1,0.6-0.2,0.7
							c0.3,0.6,0.3,1.5,0.3,2.2h-0.1c-0.1,0.2,0.1,0.1,0.1,0.2c-0.1-0.1-0.1,0.1-0.2,0c-0.1,0.3,0.1,0.4,0.2,0.5
							c0.1,0-0.1-0.1,0.1-0.1c0,0-0.1,0.4,0.1,0.4c-0.1,0.1-0.2,0-0.2,0l0.1,0.2c-0.2,0.2-0.3-0.5-0.5-0.3v0.1
							c-0.1,0.1-0.2-0.4-0.2,0c0.1,0.2,0.3,0.3,0.4,0.2c0,0.4,0.4,0.2,0.3,0.5c-0.1,0.1,0-0.3-0.1-0.2c-0.1,0.2,0.1,0.4,0,0.5
							c0-0.2,0.2,0,0.2,0.1c-0.1,0.2-0.1-0.1-0.1,0.1c0.1,0,0.1,0.3,0.2,0.1c0.2,0.1,0,0.3,0.1,0.4c-0.1,0.1-0.3-0.3-0.4,0
							c0.1,0,0.2,0.4,0.4,0.2c0,0.1-0.1,0.1-0.2,0c-0.1,0.2,0.2,0.4,0,0.5l0.1,0.1c0,0.1-0.1,0.1-0.1,0.1c0,0.1,0.2,0.1,0,0.2
							c0,0,0,0.1,0.1,0s-0.1,0,0.1-0.1c-0.1,0.1,0,0,0.1,0l-0.1,0.1c0,0,0,0,0.1-0.1l-0.1,0.1l0.1-0.1c0.1,0-0.2,0.3-0.2,0.3
							s-0.1,0-0.1,0.1c0,0-0.1,0.2,0,0.2c0.1-0.1,0.2-0.3,0.3-0.5c0-0.1-0.1,0.2,0,0c0,0.1-0.1,0.1-0.1,0.2s-0.1,0.3-0.1,0.2
							c0.1-0.1,0.2-0.3,0.2-0.4c0,0,0,0.1,0,0.2c0.1-0.1,0-0.2,0.1-0.3c0,0.1,0,0.2,0.1,0.3c0,0.1,0,0.2-0.1,0.3h0.1
							c-0.1,0.2,0,0.1,0,0.3c0.1,0,0.1-0.1,0.2-0.2c-0.1-0.1-0.1-0.2-0.1-0.3c0-0.1,0-0.2,0-0.3c0.2-0.2,0.5,0.4,0.6-0.1
							c-0.1,0,0-0.3-0.2-0.1c0.2-0.1,0-0.3,0.3-0.3c-0.1,0.2,0.3,0.1,0.1,0.4c0-0.1-0.2,0-0.2,0.1c0.1,0,0.1,0.2,0.3,0.1
							c0.1-0.1,0.3-0.2,0.2-0.3c-0.1-0.1-0.2,0.1-0.2,0c0.2-0.2,0.4,0,0.4-0.3c-0.2,0.1-0.3,0-0.3,0l0.2-0.2v0.1
							c0.3-0.1,0-0.2,0.3-0.3l0.2,0.1c0,0.2-0.5,0.2-0.3,0.4c0.2-0.1,0.2-0.2,0.4-0.3l-0.1,0.1c0.1,0,0.3,0.2,0.5-0.1
							c0.1-0.1,0-0.1,0-0.2c0.3-0.2,0.4-0.3,0.5-0.5c0,0.2,0.4-0.2,0.2,0.1c-0.1,0-0.6,0.2-0.6,0.5c0.2,0.1-0.3,0.1-0.2,0.3
							c0.3-0.1,0.3,0,0.5,0.1c0.1,0,0.1-0.1,0.1-0.2s-0.1-0.1-0.2-0.2c0.3-0.1,0.5-0.4,0.6-0.5c0.1,0,0.2,0.1,0,0.2
							c0.3-0.2,0.7-0.4,1-0.6c-0.3,0,0.3-0.3,0.1-0.3c-0.2,0.1-0.4,0-0.4-0.1c0.1,0,0,0.1,0.1,0.1c0.1-0.2,0.3,0,0.3-0.2
							c-0.3,0.2,0.1,0.2,0.1,0.4c0.2-0.2,0,0.1,0.3,0c0.2-0.2,0.4-0.4,0.6-0.6c0.4,0,0.8-0.5,1-0.6c0.2,0,0.2,0.2,0.3,0.1
							c0.2-0.1-0.2-0.1,0.1-0.2l0,0c0.1-0.1,0.5-0.2,0.5-0.5v0.2c0.1,0,0.1-0.1,0.1-0.1l0.1,0.1c0.2,0,0.3-0.2,0.5-0.3h-0.2
							c0.3-0.3,0.5-0.3,0.8-0.5V44l0.1-0.2c0,0.1,0.2,0.1,0.3,0l-0.3,0.5c-0.2,0,0.1-0.2-0.1-0.3c-0.1,0-0.4,0.1-0.4,0.3
							c0.1,0,0.1-0.1,0.2-0.2c0.1,0.1,0,0.2-0.1,0.3c0,0,0.2,0,0.1-0.1c-0.1,0.1-0.2,0.2-0.4,0.3c0.1-0.1-0.1,0-0.1-0.1
							c0,0.1-0.1,0.3-0.3,0.4c-0.2,0-0.4,0.3-0.6,0.4c0-0.2,0.1-0.4,0.3-0.5c-0.2,0-0.2,0.1-0.4,0.1c0,0.1,0,0.3-0.2,0.5l-0.1-0.1
							c-0.2,0.2-0.1,0.3-0.4,0.4c-0.5,0.2-0.9,0.5-1.2,0.6l-0.1-0.1c-0.1,0.3-0.6,0.4-0.8,0.6c-0.5,0.1-0.8,0.6-1.1,0.6
							c-0.7,0.5-1.3,0.9-2,1.3v-0.2c-0.1,0.2-0.1,0-0.3,0.1c0.2,0-0.1,0.2-0.1,0.4c-0.1,0-0.2,0.1-0.3,0.1c-0.1,0.1-0.3,0.1-0.4,0.2
							c-0.3,0.2-0.5,0.4-0.8,0.6v-0.1c-0.4,0.4-0.8,0.6-1.2,0.7v-0.4c0-0.1,0.1-0.4,0.1-0.5c-0.2-0.1-0.1-0.3-0.3-0.8
							c0-0.2,0-0.5,0-0.7c0-0.1,0-0.3,0-0.4s0-0.1,0-0.2c-0.2-0.9-0.1-1.9-0.2-2.9l0.1-0.1c-0.3-1,0-2.1-0.1-2.9l0.2,0.1
							c0.1-0.3,0-0.6-0.2-0.5c0.1-0.3-0.1-0.6,0.1-0.8c0-0.3-0.1-0.3-0.1-0.5c0.1-0.5,0.1-0.7,0-1.2v0.1c0,0,0.1,0.1,0.1-0.1
							c-0.1-0.2,0-0.7-0.2-0.5c0.1-0.5-0.1-1.2,0.1-1.7c-0.1,0-0.1-0.1-0.1-0.1c0-0.5,0.1-0.9,0-1.3c0-0.1,0.1,0.1,0.1-0.1
							c0-0.1-0.1,0-0.1-0.1c-0.1-0.4,0-0.8,0-1.1v-0.3c0-0.1,0-0.1,0-0.3c0-0.3,0-0.6,0-0.9l0,0l1.1-0.7l0.8-0.5
							c0.5-0.3,1-0.6,1.5-0.9l0,0c0.2-0.4,0.9-0.3,1-0.7c0.1,0,0.3-0.2,0.3,0c0.2-0.3,0.8-0.3,1.1-0.7c0,0,0,0-0.1,0.1
							c0.4-0.1,0.7-0.5,1.2-0.6l-0.1,0.1c0.2,0,0.3-0.4,0.5-0.2c0.1,0,0-0.1,0-0.1c0.5-0.2,0.9-0.5,1.4-0.8l0.7-0.5
							c0.2-0.2,0.4-0.3,0.9-0.6c1.2-0.5,0.1,0.4,1-0.3l0.1-0.1c0.4-0.3,0.4,0.1,0.6-0.2c0-0.2,0.2-0.2,0.3-0.4
							c0.1,0,0.2-0.1,0.3-0.1c-0.1,0.6-0.1,0.8,0,1.2h-0.1c0.2,0.4,0.1,1.4,0.4,1.9c0,0.9,0,1.9,0.1,2.8l-1,0.6l-0.5,0.3l-1,0.6
							l-2.1,1.3c-0.5,0.3-1.1,0.6-1.6,0.9s-1.3,0.8-1.1,0.6c0,0.3,0,0.7,0,1V37c0,0,0,0,0,0.1c-0.2,0.2-0.2,0.3-0.1,0.3
							c0,0,0,0,0.1-0.1c0,0.1,0,0.1-0.1,0.1c0.1-0.3,0.1-0.1,0.2-0.3c0,0,0,0,0.1,0L34,37c0.4-0.2,0.7-0.4,1.1-0.7
							c-0.1,0.1-0.1,0.2,0,0.1l0.1-0.2l0,0c0.1-0.1,0.2-0.2,0-0.2c0.7-0.5,1.4-0.9,2.2-1.3l0.6-0.3l1.1-0.6c0.7-0.4,1.3-0.7,2-1.1
							c0,1.1,0,2.2,0,3.2c0,0.2,0,0.4,0,0.6c0,0.1,0,0.3,0,0.5c0,0.3,0,0.6,0,0.9c-0.2,1.7-0.4,3.2-0.2,4.9
							C40.6,43.4,40.2,43.1,40.1,42.4z"/>
						<path class="st1" d="M39.6,43.9c-0.1,0-0.3,0-0.2-0.1C39.5,43.8,39.6,43.8,39.6,43.9z"/>
						<path class="st1" d="M34.6,45.8h-0.1l0.1-0.1C34.6,45.7,34.7,45.7,34.6,45.8z"/>
						<path class="st1" d="M33.5,46.4c0-0.1,0.2-0.3,0.3-0.4L33.5,46.4z"/>
						<path class="st1" d="M32.2,46.7c-0.1,0-0.1,0,0-0.1C32.3,46.7,32.2,46.7,32.2,46.7z"/>
						<path class="st1" d="M32.2,46.9c-0.1,0-0.2,0-0.2,0C32,47,32.2,46.8,32.2,46.9z"/>
						<path class="st1" d="M30,48C30,48,29.9,48.1,30,48C29.9,48.1,29.9,47.9,30,48z"/>
						<path class="st1" d="M29.8,48.3C29.8,48.3,29.8,48.2,29.8,48.3l0.1-0.1L29.8,48.3z"/>
						<polygon class="st1" points="34,30.4 33.9,30.5 33.9,30.5 						"/>
						<path class="st1" d="M39.4,29.3c0,0.1-0.1,0.1-0.1,0.1C39.3,29.3,39.4,29.5,39.4,29.3z"/>
						<polygon class="st1" points="36.3,32.5 36.3,32.5 36.4,32.6 						"/>
					</g>
				</g>
			</g>
		</g>
	</g>
</g>
<g>
</g>
<g>
</g>
<g>
</g>
<g>
</g>
<g>
</g>
<g>
</g>
</svg>
