<?xml version="1.0" encoding="utf-8"?>
<!-- Generator: Adobe Illustrator 24.0.1, SVG Export Plug-In . SVG Version: 6.00 Build 0)  -->
<svg version="1.1" id="Layer_1" xmlns="http://www.w3.org/2000/svg" xmlns:xlink="http://www.w3.org/1999/xlink" x="0px" y="0px"
	 viewBox="0 0 59.6 54.3" style="enable-background:new 0 0 59.6 54.3;" xml:space="preserve">
<style type="text/css">
	.st0{fill:#FFFFFF;}
	.st1{fill:#202020;}
	.st2{fill:none;}
	.st3{fill:#5B7995;}
	.st4{clip-path:url(#SVGID_2_);}
	.st5{fill:#436685;}
</style>
<g>
	<g>
		<g>
			<polygon class="st0" points="48.7,42.2 48.7,31.8 35.2,39.6 35.2,50 			"/>
			<g>
				<g>
					<g>
						<g>
							<path class="st1" d="M48.4,42.1c0,0.2,0.1-0.1,0.1,0.1C48.4,42.1,48.4,42.1,48.4,42.1z"/>
							<path class="st1" d="M48.1,42.3c-0.3,0.6-1.2,0.7-1.7,1.3c-0.1,0-0.1-0.2-0.2-0.1c-0.4,0.6-1.4,0.9-2.2,1.1v-0.1
								c-0.2,0-0.2,0.3-0.4,0.4v-0.1c0,0.1-0.2,0.2-0.2,0.3c-0.1,0-0.1-0.1-0.2-0.1v0.2c-0.1,0.4-0.5,0.3-0.8,0.6v-0.1
								c-0.4,0.5-1,0.8-1.5,1.1c0,0,0-0.1-0.1-0.2c0,0.1-0.1,0.3-0.2,0.4c-0.1-0.1-0.2,0.3-0.4,0.3l0,0c0,0.2-0.2,0-0.2,0.2h-0.1
								c0,0.2-0.2,0-0.3,0.2l0,0c-0.1,0.1-0.2,0-0.3,0.1l0,0c-0.2,0.2-0.4,0.1-0.3,0.3c-0.1-0.1,0.2-0.2,0-0.3
								c-0.6,0.5-1.3,0.9-2.1,1.3c-0.1,0-0.2,0-0.2,0c-0.1,0.1-0.3,0.2-0.3,0.3c0,0,0-0.1-0.1-0.1s-0.2,0.3-0.3,0.3
								c0.1-0.1,0.1-0.2,0.1-0.2c-0.2,0.2-0.3,0.3-0.5,0.5c0-0.1,0.1-0.1,0.1-0.2c-0.3,0.3-0.3,0.1-0.5,0.3l0,0l0,0l0.1-0.1l0,0
								c0.1-0.3-0.2,0.3-0.1,0l0.1-0.1c-0.2,0-0.1-0.4-0.2-0.6l0,0c0-0.2,0-0.5,0-0.8c0-0.1,0.2,0,0.2-0.2c-0.2,0-0.1-0.4-0.3-0.3
								c0-0.2,0.1-0.5,0-0.6c0.1,0.1,0.2-0.1,0.2,0.1l0.1-0.1c0.1,0,0,0.1,0.1,0.1c0-0.1-0.1-0.3,0-0.4c-0.1-0.1-0.3-0.3-0.3-0.5
								c0.1,0.1,0.2-0.1,0.2,0l-0.4-0.4c0-0.1,0.2,0,0.1-0.1c0,0-0.1,0-0.1-0.1c0,0,0-0.4,0.1-0.4s0,0.1,0.1,0
								c0-0.1-0.1-0.2-0.1-0.3l0,0c0-0.1-0.1-0.3-0.2-0.2c0,0.1,0.1,0,0.1,0.1c-0.1-0.1-0.1-0.3-0.1-0.4c0,0,0.1,0,0.1,0.1
								c-0.1-0.2-0.2-0.4-0.3-0.7c-0.1,0,0.2,0.1,0.1,0.1c0.1-0.3-0.2-0.6,0-0.9h-0.1c0-0.1,0.1-0.1,0.1-0.2c0.1,0,0-0.1,0-0.2
								c0,0,0,0,0,0.1c-0.1-0.1-0.2-0.7-0.1-1c0,0-0.2-0.2-0.2-0.3h0.1c0.1-0.1,0-0.2,0.1-0.3c-0.1-0.1,0.1,0.6,0,0.4
								c0.1,0-0.2-0.3,0-0.2c0-0.1-0.1-0.3,0-0.4c0,0,0.2,0.1,0.2,0c0-0.2,0-0.1-0.1-0.2v-0.1c-0.1,0,0-0.2-0.1-0.1
								c0.1,0-0.1-0.3,0.1-0.3h0.2c0-0.1-0.2-0.1-0.2-0.2c0,0,0,0,0.1,0c-0.2,0,0-0.3-0.2-0.5c0-0.1,0-0.3,0-0.5
								c0.2-0.1,0.3-0.1,0.4-0.1c0.1-0.1,0.3-0.3,0.5-0.4c0,0-0.1,0.1,0,0.1c0.2,0,0.1-0.1,0.2-0.1c0,0,0.2,0,0.4,0
								c0.1-0.1,0-0.2,0-0.3c0.2,0.1,0.3-0.3,0.5-0.2c0,0-0.1,0.2,0,0.2c0.2,0.1,0.1-0.3,0.4-0.3l-0.1-0.1c0.1,0,0.2-0.2,0.3-0.1
								c0-0.1,0.2-0.1,0.1-0.2c0.4,0,0.7-0.5,1-0.3c0,0,0.2-0.1,0.1-0.1c-0.1,0-0.1,0.1-0.1,0.1v-0.1c0.1,0,0.2,0,0.2,0.1
								c0.3,0,0.1-0.4,0.3-0.5c0,0.1,0.1,0.1,0.1,0l0.1-0.2c0.2-0.1,0.2,0.1,0.2,0.2c0.1-0.1,0.2-0.1,0.2-0.2l0.2,0.1
								c-0.1,0,0-0.1,0.1-0.2l0,0c0,0,0.1,0,0.2-0.1c0-0.1-0.2,0-0.2,0c0-0.1,0.1-0.1,0.1-0.2c0,0.1,0.2,0,0.3,0s0-0.1,0.1-0.2
								c0,0,0.1-0.1,0.1,0c0,0-0.1,0-0.1,0.1c0.1,0,0.1,0.1,0.2,0c0-0.1-0.1-0.2,0.1-0.2v0.1h0.2v-0.1l0,0c0-0.1,0.2-0.2,0.2-0.3
								c0.1,0,0.2,0,0.3-0.1l0,0c0.1,0,0.2-0.1,0.3-0.2l0,0c0,0,0.2-0.1,0.2-0.2c0.2,0,0.3,0.3,0.3,0.1c0.1-0.1,0.1-0.3,0-0.3
								c0.3-0.1,0.4-0.4,0.7-0.3c0-0.1,0-0.1,0-0.1c0.3-0.1,0.6-0.5,1-0.5c-0.1,0.1,0,0.1,0.1,0.1c0-0.1,0.2,0,0.1-0.1
								c-0.1-0.1-0.1-0.1-0.2-0.1c0.2-0.2,0.5-0.3,0.6-0.3c-0.1,0,0-0.1,0-0.1c0.1,0.1,0.2,0.1,0.3,0v-0.1h0.1c0,0-0.1-0.2,0.1-0.2
								c0,0,0,0.1,0.1,0.1c0.1-0.1,0.2-0.3,0.3-0.3l0.2,0.1c0,0,0.1-0.2,0-0.1c0.3,0,0.4-0.1,0.5,0c0.2-0.5,0.7-0.8,1.1-1v0.1
								c0.2,0,0-0.1,0.1-0.1c0,0.1,0.2,0.1,0.1,0.2c0.2,0,0.2-0.3,0.4-0.4c0-0.1-0.1,0.1-0.1,0c0,0,0.4-0.1,0.4-0.3
								c0.1,0,0,0.2,0,0.3l0.2-0.2c0.2,0.1-0.4,0.6-0.2,0.7l0.1-0.1c0.1,0.1-0.2,0.3,0,0.3c0.1-0.1,0.2-0.5,0.1-0.5
								c0.3-0.2,0.2-0.5,0.5-0.7c0.1,0.1-0.3,0.2-0.2,0.3c0.1,0.1,0.3-0.3,0.5-0.3c-0.1,0,0-0.3,0.2-0.4c0.2,0-0.2,0.3,0.1,0.1
								c0.1-0.1,0.4-0.4,0.2-0.4c0.2-0.4,0.3-0.1,0.5-0.4c0,0.2-0.5,0.7-0.3,0.6c0.1-0.2,0.5-0.5,0.5-0.7c0,0,0,0,0,0.1
								S50,30.5,50,30.6l-0.1,0.1l0,0c0,0.2,0.2,0.1,0,0.5l0.1-0.1c0,0.1-0.1,0.3-0.2,0.4c0,0.1,0.2,0.3,0,0.5c0,0,0,0.4,0.2,0.1
								c0.1-0.3-0.1-0.2,0.1-0.5c-0.2,0.3,0,0.3,0.1,0.5l-0.1,0.1c0,0.1,0,0.3,0.1,0.3c0,0-0.1,0-0.1,0.1h0.1
								c0.1,0.4-0.2,0.2-0.2,0.5l-0.1-0.2c0,0-0.1,0.2,0,0.3c0.1,0,0.2,0.1,0.3,0.1c0,0.2-0.1,0.1,0,0.3l-0.1-0.2
								c0,0-0.2,0.2-0.2,0.4c0,0.1,0.2,0.2,0.3,0.1c0,0.1-0.1,0.2-0.1,0.1c0,0.2,0.1,0,0.2,0.1c-0.1,0.1-0.2,0.2-0.3,0.3l-0.2-0.1
								v0.1c-0.1-0.1-0.1,0.1-0.3,0c0,0.1,0,0.1,0.1,0.2c0.2-0.2,0.3,0.2,0.5,0.2c0.1,0.3-0.5,0.2-0.2,0.4c0.1,0,0.2,0.1,0.2-0.1
								c0,0.2,0.2,0.1,0.1,0.3c-0.1-0.1-0.2,0.2-0.4,0c0.1,0,0.1-0.1,0-0.1c-0.1,0.1-0.2,0-0.2,0.2c0,0.1,0,0.3,0.1,0.2
								c0.1,0,0-0.2,0.1-0.1c0,0.2-0.2,0.2,0.1,0.3c0-0.1,0.1-0.2,0.2-0.2v0.1H50c-0.1,0.2,0.2,0.1,0.1,0.3l-0.2,0.1
								c-0.1-0.1,0.1-0.3-0.2-0.3c0,0.1,0.1,0.2,0,0.4v-0.1c0,0-0.3,0.1-0.1,0.3c0.1,0.1,0.1,0,0.2,0c0,0.3,0.1,0.3,0.1,0.5
								c-0.2,0,0,0.3-0.2,0.1c0.1-0.1,0.1-0.4-0.1-0.5c-0.2,0.1,0-0.2-0.2-0.3c0,0.2-0.2,0.2-0.3,0.2c0,0,0,0.1,0.1,0.1s0.1,0,0.3,0
								c0,0.2,0,0.4,0.2,0.5c-0.1,0.1-0.2,0-0.2,0c0,0.3,0,0.5,0,0.8c0.2-0.2,0,0.3,0.2,0.2c0-0.1,0.2-0.3,0.3-0.2
								c0,0.1-0.1,0-0.1,0c0.1,0.1-0.2,0.2,0,0.3c-0.1-0.2-0.2,0-0.4-0.1c0.1,0.2-0.1,0-0.1,0.2c0.1,0.2,0.2,0.4,0.2,0.6
								c-0.2,0.2,0,0.6,0,0.8c-0.1,0.1-0.3,0-0.3,0.2c0,0.1,0.2-0.1,0.1,0.1l0,0c0,0.1-0.1,0.4,0.1,0.5l-0.2-0.1v0.1
								c-0.1,0-0.1,0-0.2,0c-0.1,0.1,0,0.3,0,0.4l0.1-0.1c0.1,0.2,0,0.4,0,0.6h-0.1l0.1,0.1c-0.1,0-0.2,0.1-0.1,0.2l-0.3-0.4
								c0.1-0.1,0.1,0.1,0.2,0c0.1,0,0.1-0.3,0-0.3c0,0.1,0,0.1,0,0.1c-0.2,0-0.2-0.1-0.3-0.2V41c-0.1-0.1-0.1-0.2-0.1-0.3
								c0.1,0.1,0.1,0,0.1,0c-0.1,0-0.2-0.1-0.1-0.3c0.2-0.1-0.1-0.3-0.1-0.5c0.1,0.1,0.3,0.2,0.3,0.3c0.1-0.1,0-0.1,0.1-0.3
								c-0.1-0.1-0.3-0.1-0.3-0.3h0.1c0-0.1-0.2-0.1-0.2-0.3c0-0.3,0-0.7,0.1-0.9h0.1c-0.2-0.1-0.1-0.5-0.2-0.7
								c0.1-0.3-0.1-0.7,0.1-0.9c-0.1-0.6-0.2-1.1-0.1-1.6l0.2,0.1c-0.1-0.1,0.1-0.1,0.1-0.2c-0.1,0.1-0.2-0.1-0.2-0.2
								c0.1-0.3,0-0.6-0.1-0.8h0.1c-0.1-0.1-0.1-0.3-0.1-0.4s0.1-0.2,0.1-0.3c0,0,0.1-0.1,0.1-0.2c-0.2,0-0.2-0.1-0.3-0.1
								c0-0.1,0-0.3,0.1-0.4c0,0,0,0-0.1,0c-0.2,0.2-0.3,0.2-0.4,0.3c-0.1,0.1-0.2,0.1-0.3,0.3l-0.1-0.1c0,0.1-0.2,0.2-0.3,0.3
								c-0.1,0.1-0.3,0.2-0.5,0.3c-0.3,0.2-0.6,0.3-0.8,0.5l-0.1-0.2c-0.2,0-0.3,0.2-0.2,0.4c-0.2,0-0.3,0.3-0.5,0.2
								c-0.2,0.1-0.1,0.2-0.3,0.3c-0.3,0.1-0.5,0.2-0.7,0.4h0.1c0-0.1,0-0.1-0.1-0.1c-0.1,0.1-0.4,0.2-0.2,0.3
								c-0.4,0.1-0.7,0.5-1.1,0.5c0.1,0,0,0.1,0,0.1c-0.3,0.2-0.6,0.2-0.8,0.4c-0.1,0,0-0.1-0.1-0.1c0,0.1,0,0.1,0,0.1
								c-0.4,0.4-1,0.4-1.3,0.7c-0.6,0.5-1.4,0.9-2.1,1.3l0,0c-0.1,0.3-0.6,0.1-0.7,0.5c-0.1,0-0.2,0.1-0.2,0
								c-0.1,0.2-0.6,0.2-0.8,0.5c0,0,0,0,0-0.1c-0.3,0.1-0.5,0.3-0.8,0.4c0,0,0.1-0.1,0-0.1c-0.2,0,0,0.3-0.2,0.1L36,40h-0.1
								c0,0,0.1,0.8,0.1,1.4c-0.1,0.5-0.4,0-0.2,0.5c0,0,0.1,0,0,0c0.1,0.2-0.3,0.3-0.1,0.4c0.1,0,0.1,0.1,0.2,0.1
								c-0.1,0.3-0.2,0.4-0.1,0.6h-0.1c0.2,0.3,0.1,0.6,0.3,0.9c0,0.8,0.1,1.6,0.1,2.4l0.1,1.2v0.6c0,0.1,0,0,0,0l0,0l0,0l0.6-0.3
								c0.3-0.1,0.5-0.3,0.8-0.4c0.4,0,0.5,0,0.8-0.3v0.1c-0.1-0.1,0.2-0.2,0.2-0.3c0.5-0.3,1-0.6,1.5-0.9c-0.1,0.1,0,0.2,0,0.1V46
								l0,0c0.1-0.1,0.1-0.2,0-0.2c1.3-0.9,2.7-1.4,4-2.1c0.3-0.1,0.8-0.4,1.1-0.6c1.1-0.4,2.1-0.8,3-1.5
								C48.3,41.6,48.4,42,48.1,42.3z"/>
							<path class="st1" d="M48.4,41.8c0.1,0,0.1-0.2,0.2-0.1C48.6,41.8,48.5,41.8,48.4,41.8z"/>
							<path class="st1" d="M49.3,38.3C49.2,38.3,49.3,38.2,49.3,38.3C49.3,38.2,49.4,38.3,49.3,38.3L49.3,38.3z"/>
							<path class="st1" d="M49.3,37.3c0.1,0,0.1,0.2,0.1,0.3L49.3,37.3z"/>
							<path class="st1" d="M49.6,36.5C49.7,36.4,49.7,36.4,49.6,36.5C49.7,36.6,49.6,36.5,49.6,36.5z"/>
							<path class="st1" d="M49.4,36.4c0-0.1,0-0.1,0.1-0.1C49.5,36.3,49.6,36.5,49.4,36.4z"/>
							<path class="st1" d="M49.7,34.6c0,0-0.1-0.1,0-0.2C49.6,34.5,49.8,34.6,49.7,34.6z"/>
							<path class="st1" d="M49.5,33.7c0,0,0,0,0-0.1C49.6,33.5,49.6,33.6,49.5,33.7L49.5,33.7z"/>
							<polygon class="st1" points="36.6,38.2 36.7,38.1 36.7,38.2 							"/>
							<path class="st1" d="M34.6,44.5C34.7,44.6,34.5,44.6,34.6,44.5C34.5,44.5,34.6,44.6,34.6,44.5z"/>
							<polygon class="st1" points="35,48.2 35,48.2 35.1,48.2 							"/>
						</g>
					</g>
				</g>
			</g>
		</g>
		<g>
			<g>
				<path class="st0" d="M8.1,24v10.4L35.2,50V39.6C32.5,38.1,11.3,25.8,8.1,24z"/>
				<g>
					<g>
						<g>
							<g>
								<path class="st1" d="M8.4,24.2c0-0.3-0.1,0.2-0.1-0.2C8.4,24,8.4,24.1,8.4,24.2z"/>
								<path class="st1" d="M8.9,24.7c1,0.2,2,1.1,3,1.5c0.1,0-0.1,0.2,0.1,0.3c1,0.3,2.4,1.2,3.4,2.1h-0.1
									c0.2,0.2,0.5,0.1,0.8,0.3c0,0-0.1,0-0.1,0.1c0.1-0.1,0.4,0.2,0.6,0.2c0.1,0.1,0,0.2,0.1,0.3h0.2c0.5-0.1,0.8,0.5,1.4,0.6
									c0,0-0.1,0-0.1,0.1c0.9,0.3,1.8,0.9,2.7,1.3c-0.1,0-0.1,0.1-0.1,0.1c0.1-0.1,0.4,0,0.7,0.1c0,0.2,0.5,0.1,0.7,0.3l0,0
									c0.3,0,0.3,0.3,0.5,0.2l0.1,0.2c0.2-0.1,0.2,0.3,0.5,0.3l0,0c0.2,0,0.2,0.2,0.4,0.2l0,0c0.4,0.1,0.5,0.4,0.6,0.2
									c0.1,0.2-0.4-0.1-0.3,0.1c1.2,0.5,2.3,1.2,3.5,1.9c0.1,0.1,0.2,0.2,0.2,0.3c0.1,0,0.4,0.2,0.6,0.2c0,0,0,0.1,0.1,0.1
									c0.2,0.2,0.3,0,0.5,0.2c-0.1,0-0.2,0-0.2,0.1c0.3,0,0.5,0.2,0.8,0.3h-0.1c0.3,0,0.4,0.3,0.7,0.3H30c0.3,0.3,0.2-0.1,0.5,0.1
									c-0.1,0-0.1,0-0.1,0c0.4,0,0.8,0.3,1.1,0.4l0,0c0.3,0.2,0.6,0.4,1,0.5c0.1,0.1-0.2,0.2,0.2,0.3c0.1-0.2,0.6,0.3,0.5,0
									c0.3,0.2,0.7,0.5,0.9,0.5c-0.2,0,0,0.3-0.2,0.2l0.1,0.2c-0.1,0-0.2-0.1-0.2,0c0.1,0.1,0.5,0.2,0.6,0.3c0.3,0,0.5-0.1,1,0.2
									c-0.2,0,0,0.2-0.2,0.2c0.2,0,0.3,0,0.6,0c0,0,0.1,0.1,0.1,0.2c0,0.2-0.2,0.1-0.1,0.3l0.1,0.1c0,0.1,0,0.6-0.1,0.6
									c-0.1,0.1,0-0.2-0.1-0.1c0,0.3,0.1,0.3,0.1,0.5l0,0c0,0.2,0.1,0.5,0.2,0.3c0-0.1-0.1,0-0.1-0.1c0.1,0.1,0.1,0.4,0.1,0.6
									c0-0.1-0.1-0.1-0.1-0.1c0.1,0.3,0.2,0.7,0.3,1c0.1,0-0.2-0.1-0.1-0.2c-0.1,0.5,0.2,1,0,1.4c0-0.1,0.1,0,0.1,0
									c0,0.2-0.1,0.2-0.1,0.4c-0.1,0,0,0.2,0,0.3c0,0.1,0,0,0-0.1c0.1,0.2,0.2,1.1,0.1,1.6c0,0,0.2,0.3,0.2,0.4h-0.1
									c-0.1,0.1,0,0.4-0.1,0.4c0.1,0.2-0.1-0.9,0-0.6c-0.1,0.1,0.2,0.5,0,0.4c0,0.2,0.1,0.5,0,0.7c0-0.1-0.2-0.2-0.2,0
									c0,0.3,0,0.1,0.1,0.3V48c0.1,0,0,0.4,0.1,0.2c-0.1,0,0.1,0.8-0.1,0.6l-0.2-0.1c0,0.2,0.2,0.4,0.2,0.6c0,0,0,0-0.1,0
									c0.2,0.2,0,0.5,0.2,0.9c0,0.2,0,0.5,0,0.7c-0.2-0.2-0.5-0.3-0.6-0.5c-0.2,0-0.5-0.1-0.8-0.4c0.1,0,0.2,0.1,0.2,0
									c-0.2-0.2-0.3-0.2-0.4-0.2c0,0-0.4-0.4-0.6-0.6c-0.3-0.1-0.2,0.1-0.3,0.1c-0.1-0.3-0.6-0.2-0.7-0.5c0.1,0,0.3,0.1,0.2-0.1
									c-0.1-0.3-0.4-0.1-0.7-0.3v0.2c-0.1-0.2-0.5-0.2-0.3-0.3c-0.1,0-0.3-0.3-0.4-0.1c-0.4-0.4-1.2-0.6-1.3-1
									c-0.1,0-0.2-0.1-0.3,0c0.1,0.1,0.2,0,0.2,0.1c-0.1,0-0.1,0-0.1,0c-0.1-0.1-0.2-0.2,0-0.2c-0.3-0.3-0.5,0.1-0.9-0.2
									c0.1,0,0-0.1-0.1-0.2H29c-0.3-0.2-0.1-0.2,0-0.3c-0.2-0.1-0.3-0.2-0.4-0.1l-0.1-0.2c0.1,0.2-0.2,0-0.2,0h0.1
									c0-0.1-0.2-0.1-0.3-0.2c0,0.1,0.1,0.2,0.2,0.3c-0.1,0-0.2-0.1-0.3-0.1c0.1-0.1-0.2-0.2-0.3-0.3c-0.1-0.1-0.2,0-0.2,0
									c0-0.1-0.2-0.1-0.1-0.1c0,0,0.1,0.1,0.2,0.1c-0.1-0.1,0-0.2-0.2-0.2s-0.1,0.2-0.3,0c0.1,0,0.1,0,0.2,0l-0.2-0.2L27,45.5
									c0,0,0,0,0-0.1c-0.1,0.1-0.4-0.2-0.5-0.1c-0.1-0.1-0.2-0.2-0.3-0.3l0,0c-0.1-0.1-0.3-0.2-0.5-0.2l0,0
									c-0.1,0-0.3-0.1-0.4-0.1c-0.2-0.2,0.1-0.4-0.1-0.4c-0.2-0.1-0.4,0-0.4,0.1c-0.3-0.3-0.8-0.3-1-0.7c-0.1,0-0.1,0-0.2,0
									c-0.5-0.3-1.2-0.5-1.5-1c0.2,0,0.1-0.1,0.1-0.1c-0.2,0-0.1-0.2-0.2,0c0,0.1-0.1,0.1,0,0.3c-0.3-0.1-0.8-0.4-0.9-0.6
									c0.1,0.1,0,0.1-0.1,0.1c0.1-0.1-0.1-0.3-0.3-0.3l-0.1,0.1l-0.1-0.1c-0.1,0-0.2,0.1-0.3,0V42c-0.2,0-0.5-0.1-0.7-0.3
									l-0.1-0.2c-0.1,0-0.3,0-0.2,0.1c-0.3-0.3-0.5-0.4-0.5-0.6c-0.7-0.1-1.5-0.5-2.2-0.9h0.1c-0.1-0.2-0.2,0.1-0.3-0.1
									c0.1,0-0.1-0.2,0.1-0.2c-0.2-0.2-0.4-0.1-0.6-0.1c-0.1,0.1,0.2,0,0.1,0.1c0,0-0.3-0.3-0.4-0.2c0-0.1,0.1-0.1,0.1-0.2h-0.2
									c-0.1-0.3,0.6,0,0.5-0.3L15.7,39c-0.1-0.2,0.5,0.1,0.1-0.2c-0.2,0-0.4,0.1-0.3,0.2c-0.3-0.1-0.3,0.2-0.7,0
									c0-0.1,0.3,0.1,0.3,0c-0.1-0.2-0.4-0.1-0.5-0.3c0.1,0.1-0.1,0.2-0.2,0.1c-0.1-0.2,0.2,0-0.1-0.2c-0.1,0-0.3,0-0.2,0.1
									c-0.2,0.1-0.2-0.2-0.5-0.1c0-0.2,0.4-0.1,0.2-0.3c0,0.1-0.4,0-0.4,0.2c-0.1-0.1,0-0.2,0.1-0.2c-0.1-0.2-0.5,0-0.4-0.3
									L13,38.1c0-0.1-0.1-0.1-0.1-0.2c-0.1-0.1-0.5-0.1-0.4-0.3c0,0-0.4-0.2-0.3,0c0.2,0.2,0.3,0,0.3,0.3
									c-0.1-0.2-0.3-0.1-0.4-0.2v-0.1c-0.1,0-0.2-0.1-0.3-0.1c0.1,0,0.1-0.1,0-0.1l-0.1,0.1c-0.3-0.1,0-0.2-0.2-0.3h0.3
									c0,0-0.1-0.2-0.2-0.2c-0.1,0.1-0.3,0.1-0.3,0.2c-0.2,0,0-0.1-0.2-0.1h0.3c0,0,0-0.2-0.2-0.3c-0.2,0-0.4,0-0.3,0.1
									c-0.1-0.1-0.2-0.2-0.1-0.2c-0.2-0.1,0,0.1-0.3,0.1c0-0.1-0.2-0.3-0.3-0.5h0.3l-0.1-0.1c0.3,0,0-0.1,0.1-0.2
									c-0.1-0.1-0.2-0.1-0.3-0.1c0.2,0.4-0.5,0.1-0.5,0.4c-0.4-0.2,0-0.6-0.5-0.5c0,0.1-0.2,0.1,0,0.2C9.1,35.9,9,36,9,36
									c-0.1,0-0.1,0-0.3-0.1C9.1,36,8.5,35.5,9,35.7c0,0.1,0.2,0.1,0.2,0.2c-0.1-0.1,0.2-0.2-0.1-0.3c-0.2-0.1-0.5-0.3-0.5-0.2
									c-0.1,0.1,0.3,0.2,0.1,0.2c-0.3-0.1-0.4-0.3-0.5-0.3c0-0.1,0-0.1-0.1-0.2c0,0.1,0,0.2,0,0.3c0.1,0.1,0,0.2,0,0.2l-0.2-0.1
									v-0.3H8c0.1-0.8-0.2-0.2-0.1-0.9C8,34.2,8,34.2,8.1,34.1c0.1,0-0.1,0.9,0.2,0.7c0-0.4-0.1-0.6,0-0.8c0,0,0,0.1,0,0.2
									c0-0.1,0.3-0.2,0.1-0.5c-0.1-0.2-0.1,0-0.2,0c0-0.4-0.1-0.5-0.1-0.8c0.2,0,0-0.5,0.2-0.2c-0.1,0.1-0.1,0.7,0.1,0.8
									c0.2-0.1,0,0.3,0.2,0.4c0-0.3,0.2-0.3,0.3-0.4c0-0.1,0-0.2-0.1-0.2s-0.1,0.1-0.3,0.1c0-0.4,0-0.7-0.2-0.9
									c0.1-0.1,0.2-0.1,0.2,0.1c0-0.4,0-0.9,0-1.3c-0.2,0.3,0-0.4-0.2-0.3c0,0.2-0.2,0.4-0.3,0.3c0-0.1,0.1,0,0.1,0
									c-0.1-0.2,0.2-0.3,0-0.4C8.2,31.3,8.3,31,8.5,31c-0.1-0.3,0.1,0,0.1-0.3c-0.1-0.3-0.2-0.6-0.2-0.9c0.2-0.4,0-1,0-1.3
									c0.1-0.2,0.3-0.1,0.3-0.3c0-0.2-0.2,0.2-0.1-0.2l0,0c0-0.1,0.1-0.6-0.1-0.7l0.2,0.1c0-0.1,0-0.1,0-0.2c0.1,0,0.1-0.1,0.2,0
									c0.1-0.2,0-0.4,0-0.7l-0.1,0.1c-0.1-0.4,0-0.6,0-1h0.1l-0.1-0.2c0.1,0,0.2-0.1,0.1-0.3l0.3,0.6c-0.1,0.2-0.1-0.2-0.2-0.1
									c-0.1,0.1-0.1,0.4,0,0.5C9,26,9,26,9,25.9c0.2,0,0.2,0.2,0.3,0.3c0-0.1,0-0.2,0-0.2c0.1,0.1,0.1,0.3,0.1,0.5
									c-0.1-0.1-0.1,0.1-0.1,0c0.1,0,0.2,0.2,0.1,0.5c-0.2,0.2,0.1,0.5,0.1,0.9c-0.1-0.1-0.3-0.3-0.3-0.5c-0.1,0.2,0,0.2-0.1,0.4
									c0.1,0.1,0.3,0.2,0.3,0.4H9.3c0,0.2,0.2,0.2,0.2,0.5c0,0.5,0,1.1-0.1,1.5H9.3c0.2,0.2,0.1,0.8,0.2,1
									c-0.1,0.5,0.1,1.1-0.1,1.4c0.1,0.6,0.1,1.4,0.1,1.7c0.1,0.1,0.2,0.1,0.4,0.2c-0.1,0-0.1,0-0.2,0.1c0.2,0,0,0.1,0.2,0.2
									c-0.1-0.2,0.3,0,0.4,0c0.3,0.3,0.8,0.5,1.2,0.6v0.1c0.4,0,0.7,0.4,1.1,0.6c0,0.1,0,0.2,0.2,0.3c0.3,0,0.4,0.1,0.8,0.2
									c0.2,0.1,0.6,0.4,0.8,0.6c1,0.3,1.8,1,2.8,1.4v0.1c1,0.3,2,1.1,2.8,1.5l-0.2,0.1c0.2,0.2,0.6,0.3,0.6,0.1
									c0.2,0.2,0.7,0.3,0.7,0.5c0.2,0.2,0.3,0.1,0.6,0.2c0.5,0.4,0.6,0.4,1.1,0.7l-0.1-0.1c-0.1,0-0.1,0.1,0,0.2
									c0.2,0,0.6,0.4,0.6,0.1c0.4,0.4,1.2,0.6,1.6,1c0-0.1,0.1,0,0.2,0c0.4,0.3,0.8,0.6,1.2,0.7c0,0.1-0.2,0,0,0.1
									c0.1,0,0-0.1,0.2,0c0.8,0.3,1.3,0.9,2,1.3c1.2,0.5,2.3,1.3,3.4,1.9l0,0c0.5,0,0.8,0.7,1.2,0.6c0.1,0.1,0.3,0.2,0.2,0.3
									c0.4,0,0.8,0.6,1.3,0.7h-0.1c0.1,0.1,0.2,0.2,0.3,0.2s0.2,0.1,0.2,0.1c0.1,0,0.1,0,0.2,0.1c0,0,0,0,0,0.1
									c0.1,0.2,0.1-0.2,0.2,0.2v-0.2c0.1,0.1,0.1,0.1,0.2,0.2c0-0.4-0.1-0.5-0.1-1.7c0.1-0.8,0.4,0,0.2-0.7c0,0-0.1,0,0,0
									c-0.1-0.3,0.3-0.4,0.1-0.6c-0.1,0.1-0.1-0.1-0.2-0.1c0.1-0.5,0.2-0.6,0.1-1h0.1c-0.2-0.5-0.1-1-0.3-1.4c0-0.6,0-1.2,0-1.8
									v-0.9v-0.2c0-0.1,0,0,0-0.1l0,0h-0.1c0,0-0.1,0-0.2-0.1L35,40.6l-0.9-0.5l-1.8-1c-2.2-1.3-4.4-2.5-6.5-3.8
									c-0.4-0.5-0.5-0.5-1.1-0.8h0.1c-0.1,0.1-0.4-0.2-0.5-0.1c-0.8-0.5-1.6-0.9-2.4-1.4c0.1,0.1,0.3,0,0.1-0.1h-0.2l0,0
									c-0.1,0-0.3,0-0.2,0.1c-2.2-1.1-4.1-2.6-6.2-3.8c-0.5-0.3-1.2-0.7-1.8-1c-1.5-1.1-2.8-2.1-4.5-2.9
									C7.7,24.6,8.2,24.4,8.9,24.7z"/>
								<path class="st1" d="M8.4,24.6c-0.1,0.1-0.1,0.3-0.2,0.1C8.2,24.7,8.3,24.5,8.4,24.6z"/>
								<path class="st1" d="M7.5,30.3v0.1C7.5,30.3,7.4,30.2,7.5,30.3C7.5,30.3,7.5,30.2,7.5,30.3z"/>
								<path class="st1" d="M7.5,31.7c-0.1,0-0.1-0.3-0.1-0.5L7.5,31.7z"/>
								<path class="st1" d="M7.2,33.1C7.1,33.2,7.1,33.2,7.2,33.1C7.1,33,7.2,33.1,7.2,33.1z"/>
								<path class="st1" d="M7.4,33.2c0,0.1,0,0.2-0.1,0.2C7.3,33.4,7.2,33.2,7.4,33.2z"/>
								<path class="st1" d="M9.2,36.1c0.1,0,0.2,0,0.2,0.2C9.4,36.1,9.1,36.1,9.2,36.1z"/>
								<path class="st1" d="M10.4,36.7L10.4,36.7c0.1,0.1,0,0.1,0,0.1V36.7z"/>
								<polygon class="st1" points="32.2,48.9 32,48.8 32.1,48.8 								"/>
								<path class="st1" d="M35.7,42.2c0-0.1,0.1-0.1,0.1-0.1C35.8,42.2,35.7,42,35.7,42.2z"/>
								<polygon class="st1" points="32.4,37.8 32.4,37.8 32.3,37.9 								"/>
							</g>
						</g>
					</g>
				</g>
			</g>
			<g>
				<g>
					<g>
						<g>
							<g>
								<path class="st0" d="M30.4,43.3C30.4,43.3,30.5,43.3,30.4,43.3C30.4,43.3,30.3,43.3,30.4,43.3z"/>
								<path class="st0" d="M30.5,37.1c0.4,0.1,0,0.2,0.2,0.3h-0.2c0.3,0.1,0.1,0.2-0.1,0.3h-0.1c0,0,0.2,0,0.1,0.1h-0.1
									c0.1,0,0,0,0.1,0c0,0-0.1,0-0.2,0h0.1c0.3,0,0,0.1,0.1,0.1h-0.1c0.2,0.1,0.2,0.1,0.2,0.2c0,0-0.1,0-0.2,0c0.1,0,0.2,0,0.2,0
									c-0.2,0,0.1,0,0,0.1l0,0c0.2,0-0.1,0,0.1,0h-0.1c0.2,0-0.1,0,0,0l0,0l0,0l0,0c0,0-0.1,0,0.1,0c-0.1,0-0.1,0-0.2,0
									c0.2,0.1,0.1,0.2,0.1,0.3c-0.1,0-0.1,0-0.1,0s0,0,0.1,0h-0.1c-0.1,0,0.2,0,0.1,0c0,0-0.1,0-0.2,0c0.1,0,0.1,0,0.2,0.1
									c0,0,0,0-0.1,0c0.1,0,0,0,0.1,0.1h-0.1c-0.1,0,0.2,0,0.1,0h-0.1c0.2,0,0.1,0.1,0.2,0.1l0,0c0,0,0,0,0,0.1h-0.2
									c0.2,0,0.1,0,0.3,0c0,0-0.1,0.1,0,0.1c-0.1,0-0.2,0-0.2,0h-0.1c-0.1,0,0,0-0.1,0c0,0,0.1,0,0,0c0.1,0,0.3,0,0.3,0.1
									c-0.1,0-0.2,0-0.2,0h0.4c0,0-0.2,0-0.1,0h0.1c0,0,0,0-0.1,0s0,0-0.1,0h0.1l0,0c0,0,0.1,0,0.2,0h-0.1c0.1,0,0.1,0,0.1,0h-0.1
									c0.1,0,0.2,0,0.3,0.1c0.1,0-0.2,0-0.1,0c-0.1,0,0.2,0.1,0,0.1h0.1H31c-0.1,0,0,0,0,0l0,0c0.1,0,0.2,0.1,0.1,0.1h0.2h-0.1
									c-0.1,0,0,0-0.1,0c0.1,0-0.1-0.1,0,0c-0.1,0,0.2,0,0,0c0,0,0.1,0,0,0h-0.2c0,0,0,0,0.1,0l0,0c0.1,0,0,0,0.1,0
									c-0.1,0,0.1,0-0.1,0h-0.2H31c0,0,0,0-0.1,0c0.2,0,0,0,0.2,0c-0.1,0,0,0.1-0.2,0.1c0.1,0,0.2,0,0.1,0c0,0,0,0-0.1,0s0,0,0,0
									s-0.1,0-0.2,0c0.1,0,0.2,0,0.3,0c-0.2,0,0.1,0-0.1,0.1c0,0-0.1,0-0.2,0c-0.2,0,0.2,0,0.1,0.1H31c-0.1,0,0.1,0-0.1,0
									c0.1,0-0.1,0,0.1,0c-0.2,0,0.1,0.1-0.2,0.1c0,0,0,0,0.1,0s-0.1,0,0,0c0,0,0,0,0.1,0c0,0,0,0-0.2,0c-0.1,0,0.3,0,0.2,0.1
									c-0.1,0-0.1,0-0.1,0H31c0,0-0.2,0-0.3,0c0,0,0,0,0.1,0h-0.2c0.1,0,0.1,0,0.1,0l0,0l0,0c0.1,0,0.1,0,0.1,0s0,0,0.1,0
									c-0.1,0-0.1,0-0.1,0h0.1c-0.1,0,0,0-0.1,0c0,0,0.1,0,0,0c0,0-0.2,0-0.1,0c0.1,0,0.2,0,0.2,0h-0.1h-0.1h0.1l0,0
									c0.1,0,0,0,0.2,0h-0.1l0,0c-0.1,0,0,0,0,0l0,0c0,0,0,0,0.1,0c-0.1,0-0.4,0-0.3,0c0,0,0.2,0,0.3,0c-0.1,0,0.1,0.1-0.1,0.1H31
									c0,0,0.1,0.1-0.1,0.1c0,0-0.1,0-0.2,0c0.1,0-0.1,0,0.1,0c0.1,0,0.2,0,0.2,0v0.1h0.1c-0.2,0-0.2,0-0.1,0h0.1H31
									c0,0,0.2,0,0.1,0H31c0.1,0,0.2,0,0.1,0H31h0.1c-0.1,0-0.1,0-0.2,0.1c0.3,0,0.3,0.1,0.3,0.2h-0.1c-0.1,0,0.1,0,0.1,0
									c-0.1,0-0.2,0-0.2,0c-0.1,0,0.1,0,0.2,0c0.1,0-0.1,0,0.1,0c0,0-0.1,0,0.1,0c-0.1,0-0.2,0-0.2,0h0.1c-0.2,0-0.3,0-0.5,0l0,0
									c-0.2,0-0.2,0-0.2,0c0.1,0,0.3,0,0.3,0h0.3c-0.1,0,0,0-0.1,0s0.1,0,0,0h0.2c-0.1,0-0.1,0-0.2,0c0.1,0,0.2,0,0.2,0
									c0.2,0,0,0,0.1,0c-0.1,0-0.3,0-0.4,0c0.1,0,0.2,0,0.4,0c0,0-0.1,0-0.2,0c-0.1,0,0.2,0,0,0h0.1c0,0-0.1,0-0.2,0
									c0,0,0.2,0,0,0c0,0,0,0,0.2,0c0.1,0-0.1,0,0.1,0c-0.2,0,0,0,0.1,0h-0.1c0,0,0,0,0.1,0h-0.1h0.1c0.1,0-0.2,0-0.2,0h-0.1
									c0,0-0.1,0,0,0s0.2,0,0.3,0c0,0-0.1,0,0,0h-0.1h-0.2c0,0,0.2,0,0.3,0h-0.1c0,0,0.1,0,0.2,0c-0.1,0-0.2,0-0.3,0h-0.2l0,0
									c-0.1,0-0.1,0-0.3,0c0,0,0,0,0.1,0c0.2,0,0.3,0,0.5,0c0.1,0-0.5,0-0.2,0c0.1,0,0.2,0,0.2,0s0.2,0,0.1,0c-0.1,0-0.2,0-0.4,0
									c0.1,0,0.1,0,0,0s-0.2,0-0.2,0s0,0,0.1,0s0,0,0.1,0c0,0-0.2,0,0.1,0c0,0,0.1,0,0.2,0l0,0h-0.1c-0.1,0,0.2,0,0.1,0h-0.2
									c-0.1,0,0.1,0-0.2,0c0,0,0.1,0,0,0l0,0c0,0-0.3,0-0.1,0c0.1,0,0.1,0,0.2,0c0,0,0.1,0,0.1,0.1c-0.2,0,0,0-0.2,0
									c0.1,0,0.1,0-0.1-0.1c-0.2,0,0,0-0.2,0c0,0-0.2,0-0.3,0c0,0,0,0,0.1,0s0.1,0,0.3,0c0,0,0,0,0.2,0.1c-0.1,0-0.2,0-0.2,0v0.1
									c0.2,0,0,0,0.2,0c0,0,0.2,0,0.3,0h-0.1c0.1,0-0.2,0,0,0c-0.1,0-0.2,0-0.4,0c0.1,0-0.1,0-0.1,0c0.1,0,0.2,0,0.2,0.1
									c-0.2,0,0,0.1,0,0.1c-0.1,0-0.3,0-0.3,0s0.2,0,0.1,0l0,0c0,0-0.1,0,0.1,0h-0.2l0,0c-0.1,0-0.1,0-0.2,0c-0.1,0,0,0,0,0h0.1
									c0.1,0,0,0,0,0.1h-0.1h0.1c-0.1,0-0.2,0-0.1,0h-0.3c0.1,0,0.1,0,0.2,0c0.1,0,0.1,0,0,0l0,0c-0.2,0-0.2,0-0.3,0l0,0
									c-0.1,0-0.1,0-0.1,0c0.1,0,0.1,0,0.1,0c-0.1,0-0.2,0-0.1,0c0.2,0-0.1,0-0.1-0.1c0.1,0,0.3,0,0.3,0c0.1,0,0,0,0.1,0
									c-0.1,0-0.3,0-0.3,0H30h-0.2c0,0,0-0.1,0.1-0.1H30c-0.2,0-0.1-0.1-0.2-0.1c0.1,0-0.1-0.1,0.1-0.1c-0.1-0.1-0.2-0.1-0.1-0.2
									H30c-0.1,0,0.1,0,0.1,0c-0.1,0-0.2,0-0.2,0c0.1,0,0-0.1-0.1-0.1h0.1c-0.2,0,0-0.1,0-0.1H30c-0.2,0-0.2,0-0.3-0.1
									c0,0,0,0,0.1-0.1c-0.2-0.1-0.1-0.2-0.2-0.2h0.1c-0.3-0.1,0-0.2-0.2-0.2h0.2c0.1,0,0,0-0.2,0c0.1,0-0.1,0,0.1-0.1h-0.1
									c0.1,0,0.1-0.1,0-0.1l0,0h0.1c-0.1,0,0,0-0.2,0c0.1,0-0.1-0.1,0.1-0.1c-0.1,0-0.1,0-0.1,0s0.1-0.1,0-0.1h0.1h-0.1
									c-0.1-0.1,0.1-0.1,0.1-0.2c-0.1-0.1-0.1-0.2-0.1-0.3l0,0c-0.2,0,0.2-0.1-0.1-0.1c0,0,0,0,0.1,0c-0.1,0,0.1-0.1,0-0.1l0,0
									c0.1,0,0-0.1,0.1-0.1c0,0,0,0,0.1,0s-0.2,0,0,0h-0.1c0.1-0.1-0.1-0.2-0.1-0.3c0.1-0.1,0.4,0,0.2,0c0,0-0.1,0,0,0
									c-0.1,0,0.3,0,0.1,0c-0.1,0-0.1,0-0.2,0c0.1,0,0.2,0,0.1-0.1h0.1c-0.2,0-0.1-0.1-0.3-0.1c0-0.2-0.2-0.4-0.2-0.6
									s-0.1-0.4,0.1-0.6c0.2,0,0.2,0,0.1-0.1c0,0,0,0,0.1,0c-0.2,0,0,0-0.2,0c0-0.1,0-0.1,0-0.2c0,0,0.2,0,0.1,0h-0.1l0,0
									c0,0-0.1,0-0.2,0c-0.1-0.2,0.2-0.4,0.2-0.5c0.1,0,0-0.1,0-0.1c0.2-0.1,0.4-0.3,0.2-0.4C29.9,37,30.4,37,30.5,37.1z"/>
								<path class="st0" d="M30.4,43.2c0.1,0,0.1,0,0.2,0C30.5,43.2,30.4,43.2,30.4,43.2z"/>
								<path class="st0" d="M31.2,42.8L31.2,42.8C31.3,42.8,31.3,42.8,31.2,42.8C31.3,42.8,31.2,42.8,31.2,42.8z"/>
								<path class="st0" d="M31.3,42.7C31.4,42.7,31.4,42.7,31.3,42.7L31.3,42.7z"/>
								<path class="st0" d="M31.6,42.6C31.6,42.6,31.7,42.6,31.6,42.6L31.6,42.6z"/>
								<path class="st0" d="M31.4,42.6L31.4,42.6C31.4,42.6,31.5,42.6,31.4,42.6z"/>
								<path class="st0" d="M31.6,42.4C31.6,42.4,31.5,42.3,31.6,42.4C31.6,42.3,31.7,42.4,31.6,42.4z"/>
								<path class="st0" d="M31.5,42.3L31.5,42.3C31.5,42.3,31.6,42.3,31.5,42.3L31.5,42.3z"/>
								<path class="st0" d="M31.2,40.4L31.2,40.4L31.2,40.4z"/>
								<path class="st0" d="M31.2,39.6C31.2,39.6,31.3,39.6,31.2,39.6C31.3,39.6,31.2,39.6,31.2,39.6z"/>
								<polygon class="st0" points="30.8,39.1 30.8,39.1 30.7,39.1 								"/>
							</g>
						</g>
					</g>
				</g>
			</g>
		</g>
		<g>
			<g>
				<polygon class="st0" points="21.5,16.2 8.1,24 35.2,39.6 48.6,31.9 				"/>
				<g>
					<g>
						<g>
							<g>
								<path class="st1" d="M21.5,16.6c0.3-0.2-0.2,0,0.2-0.2C21.6,16.5,21.6,16.6,21.5,16.6z"/>
								<path class="st1" d="M22.4,17c1.2,0.2,2.2,1.3,3.4,1.7c0.1,0.1-0.1,0.2,0.2,0.3c1.2,0.3,2.7,1.4,3.8,2.3h-0.1
									c0.2,0.2,0.6,0.2,0.8,0.3c0,0-0.1,0-0.1,0.1c0.1-0.1,0.5,0.2,0.6,0.2c0.1,0.1,0,0.2,0.1,0.3h0.2c0.6,0,1,0.6,1.6,0.8h-0.1
									c1,0.3,2,1,3,1.5c-0.1,0-0.1,0.1-0.1,0.1c0.1-0.1,0.4,0,0.7,0.2c0,0.2,0.5,0.1,0.8,0.4l0,0c0.3,0,0.3,0.3,0.6,0.2l0.1,0.2
									c0.2-0.1,0.3,0.3,0.5,0.3l0,0c0.2,0.1,0.2,0.2,0.4,0.3l0,0c0.4,0.2,0.6,0.4,0.7,0.3c0.1,0.2-0.4-0.2-0.3,0.1
									c1.3,0.6,2.6,1.4,3.9,2.1c0.1,0.1,0.2,0.2,0.2,0.3c0.1,0,0.5,0.3,0.7,0.3c0,0,0,0.1,0.1,0.2c0.2,0.2,0.3,0,0.6,0.2
									c-0.1,0-0.2,0-0.2,0.1c0.3,0,0.6,0.2,0.8,0.3h-0.1c0.3,0,0.5,0.3,0.8,0.4h-0.1c0.3,0.3,0.2-0.1,0.5,0.1c-0.1,0-0.1,0-0.1,0
									c0.4,0,0.9,0.4,1.3,0.5l0,0c0.4,0.2,0.7,0.5,1.3,0.7c0.1,0.1-0.3,0-0.2,0.1c0,0-0.1,0-0.2,0.1c0.4,0-0.5,0.4,0,0.3
									c-0.5,0.2-1.1,0.5-1.3,0.7c0.1-0.1-0.3-0.1,0-0.3h-0.3c0-0.1,0.2-0.1,0.1-0.1c-0.1,0.1-0.5,0.4-0.6,0.4
									c-0.2,0.2-0.3,0.5-0.7,0.8c0.2-0.2-0.2-0.1-0.1-0.2l-0.4,0.6c-0.1,0.1-0.1-0.1-0.3,0c0,0,0,0.1-0.1,0.2
									c-0.1,0-0.5,0.4-0.7,0.2c-0.1,0,0.2-0.2,0-0.1s-0.2,0.2-0.5,0.3l0,0c-0.2,0.1-0.4,0.3-0.2,0.3c0.1-0.1-0.1-0.1,0.1-0.1
									c-0.1,0.2-0.3,0.3-0.6,0.5c0.1-0.1,0-0.1,0-0.2c-0.3,0.3-0.6,0.5-0.9,0.8c0,0.1,0.1-0.2,0.1-0.2c-0.5,0.2-0.9,0.7-1.3,0.8
									c0.1,0,0.1,0.1,0.1,0.1c-0.2,0.1-0.3,0-0.4,0.1c0-0.1-0.2,0.1-0.3,0.2c0,0.1-0.1,0,0.1-0.1c-0.2,0.2-1,0.8-1.5,0.9
									c0,0-0.2,0.3-0.3,0.4v-0.1c-0.1,0-0.4,0.2-0.4,0.1c-0.2,0.3,0.8-0.6,0.6-0.4c-0.1,0-0.3,0.4-0.4,0.2
									c-0.2,0.1-0.4,0.4-0.6,0.4c0.1,0,0.1-0.2-0.1-0.1c-0.3,0.2-0.1,0.1-0.3,0.3l-0.1,0.1c0,0.1-0.3,0.1-0.1,0.2
									c-0.1-0.1-0.4,0.3-0.5,0.1V39c-0.1,0.1-0.2,0.3-0.2,0.4h-0.1c0.1,0.2-0.3,0.1-0.5,0.4c-0.2,0.1-0.5,0.2-0.8,0.4
									c-0.3-0.2-0.5-0.3-0.6-0.4l-0.3-0.1l-0.2-0.1c-0.1,0-0.2-0.1-0.3-0.2c0.1,0,0.1,0,0.2,0c-0.1-0.1-0.2-0.1-0.3-0.2
									c0,0-0.3-0.3-0.4-0.5c-0.3-0.1-0.2,0.1-0.3,0.1c-0.1-0.3-0.7-0.2-0.8-0.5c0.1,0,0.4,0.1,0.2-0.1c-0.1-0.3-0.5-0.1-0.8-0.4
									V38c-0.1-0.2-0.5-0.2-0.4-0.3c-0.1,0-0.3-0.3-0.4-0.1c-0.5-0.4-1.3-0.7-1.5-1.1c-0.1,0-0.3-0.1-0.3,0c0.1,0.2,0.2,0,0.2,0.1
									c-0.1,0-0.1,0-0.1,0c-0.1-0.1-0.3-0.2,0-0.3c-0.3-0.3-0.5,0-1-0.3c0.1,0,0-0.1-0.1-0.2h-0.3c-0.3-0.2-0.1-0.2,0-0.4
									c-0.2-0.1-0.4-0.2-0.5-0.1L26.9,35c0.1,0.2-0.2,0-0.3,0h0.1c0-0.1-0.2-0.1-0.3-0.2c0,0.1,0.2,0.2,0.3,0.3
									c-0.1,0-0.2-0.1-0.4-0.1c0.1-0.1-0.2-0.2-0.3-0.3c-0.1-0.1-0.2,0-0.3,0c0-0.1-0.2-0.1-0.1-0.2c0.1,0,0.1,0.1,0.2,0.1
									c-0.1-0.1,0-0.2-0.3-0.2c-0.2,0-0.1,0.2-0.3,0c0.1,0,0.1,0,0.2,0l-0.2-0.2l-0.1,0.1c0,0,0,0,0-0.1c-0.1,0.1-0.4-0.2-0.5-0.1
									c-0.1-0.1-0.3-0.2-0.4-0.3l0,0c-0.1-0.1-0.4-0.2-0.5-0.2l0,0c-0.1-0.1-0.3-0.2-0.4-0.2c-0.2-0.2,0.1-0.4-0.2-0.4
									c-0.2-0.1-0.5,0-0.4,0.1c-0.4-0.3-0.9-0.4-1.2-0.8c-0.1,0-0.1,0-0.2,0c-0.6-0.4-1.3-0.6-1.7-1.1c0.2,0.1,0.1-0.1,0.1-0.1
									c-0.2,0-0.1-0.2-0.3-0.1c0,0.1-0.1,0.1,0.1,0.3c-0.4-0.1-0.9-0.5-1-0.6c0.1,0.1,0,0.1-0.1,0.1c0.1-0.1-0.1-0.3-0.4-0.4
									l-0.1,0.1l-0.1-0.2c-0.1,0-0.2,0.1-0.3-0.1v-0.1c-0.2,0-0.6-0.1-0.8-0.3l-0.1-0.2c-0.1,0-0.3-0.1-0.2,0.1
									c-0.3-0.3-0.6-0.4-0.6-0.6C15,29,14.1,28.5,13.3,28h0.1c-0.2-0.2-0.2,0-0.3-0.1c0.1,0-0.1-0.2,0.1-0.2
									c-0.3-0.2-0.4-0.1-0.6-0.2c-0.1,0.1,0.2,0,0.1,0.1c0,0-0.4-0.3-0.5-0.2c0-0.1,0.1-0.1,0.1-0.2h-0.2c-0.1-0.3,0.6,0,0.5-0.3
									l-0.2-0.1c-0.1-0.2,0.5,0.1,0.1-0.2c-0.2,0-0.5,0.1-0.3,0.2c-0.4-0.2-0.3,0.2-0.7,0c-0.1-0.1,0.3,0.2,0.3,0
									c-0.1-0.2-0.4-0.2-0.5-0.3c0.2,0.1-0.1,0.2-0.2,0.1c-0.2-0.2,0.2,0-0.1-0.2c-0.1,0-0.4,0-0.2,0.1c-0.2,0.1-0.3-0.2-0.5-0.2
									c0-0.2,0.5-0.1,0.2-0.3c0,0.1-0.5-0.1-0.4,0.2C10,26.1,10,26,10.2,26c-0.1-0.2-0.5,0-0.5-0.3l-0.1,0.1
									c0-0.1-0.1-0.1-0.2-0.3c-0.1,0-0.2-0.1-0.3-0.1s-0.3-0.2-0.2-0.2c-0.1,0-0.7-0.4-0.6-0.1c0.3,0.3,0.5,0.2,0.6,0.5
									c-0.2-0.3-0.6-0.3-0.9-0.4v-0.1c-0.2-0.1-0.5-0.3-0.7-0.3c0.2,0,0.2,0,0.1-0.1H7.1c-0.7-0.3,0.2-0.1-0.4-0.4l0.5,0.2
									c-0.1,0-0.1-0.2-0.4-0.3c-0.3,0-0.7-0.1-1-0.2c-0.1-0.1-0.2-0.1-0.2-0.1c0.1,0,0.2,0,0.3-0.2l-0.1,0.2L6,24
									c0.1,0,0.1,0,0-0.1c0.2-0.1,0.5-0.2,0.7-0.3c0.2-0.1,0.3-0.4-0.2-0.2c0.2-0.1,0.6-0.3,0.5-0.1c0.4-0.3-0.2,0,0.1-0.3
									c0.3-0.1,0.9-0.3,1.2-0.4c-0.1,0.1-0.2,0.2-0.2,0.3l0.2-0.1c-0.2,0.3,0.2,0,0.2,0.2c0.2-0.1,0.3-0.2,0.4-0.3
									c-0.3,0-0.2-0.1-0.1-0.3C8.9,22.3,9,22.1,8.9,22c0.4-0.3,0.5,0.3,0.8-0.2c-0.1,0,0-0.3-0.2-0.1c0.3-0.1,0.1-0.3,0.4-0.4
									c-0.2,0.2,0.3,0,0.1,0.4c0-0.1-0.2,0.1-0.3,0.1c0.2,0,0.1,0.2,0.3,0c0.2-0.1,0.4-0.2,0.3-0.3c-0.1-0.1-0.2,0.1-0.2,0
									c0.3-0.2,0.5-0.1,0.5-0.4c-0.2,0.1-0.3,0-0.3,0l0.2-0.2V21c0.4-0.2,0-0.2,0.4-0.4h0.3c0,0.2-0.6,0.3-0.4,0.4
									c0.2-0.1,0.3-0.3,0.5-0.4c0,0-0.1,0.1-0.2,0.1c0.1,0,0.3,0.2,0.6-0.2c0.1-0.2,0-0.1,0-0.2c0.4-0.2,0.4-0.4,0.7-0.5
									c0,0.2,0.4-0.2,0.3,0.1c-0.2,0-0.7,0.3-0.8,0.5c0.2,0.1-0.3,0.1-0.3,0.4c0.3-0.2,0.4,0,0.5,0.1c0.1,0,0.2-0.1,0.2-0.2
									s-0.1-0.1-0.2-0.2c0.4-0.2,0.7-0.4,0.8-0.6c0.1,0,0.2,0.1,0,0.2c0.4-0.3,0.8-0.5,1.2-0.7c-0.3,0,0.4-0.3,0.2-0.3
									c-0.2,0.1-0.5,0.1-0.4-0.1c0.1-0.1,0,0.1,0.1,0.1c0.1-0.2,0.3,0,0.4-0.2c-0.3,0.3,0,0.3,0.1,0.4c0.2-0.2,0,0.1,0.3,0
									c0.2-0.2,0.5-0.5,0.8-0.7c0.5-0.1,1-0.5,1.3-0.7c0.2,0,0.2,0.2,0.4,0.1s-0.3-0.1,0.1-0.2l0,0c0.1-0.1,0.7-0.2,0.6-0.5v0.2
									c0.1,0,0.1-0.1,0.2-0.1c0,0,0.1,0.1,0,0.1c0.3,0,0.4-0.3,0.6-0.4h-0.2c0.3-0.3,0.6-0.3,1-0.6v0.1l0.2-0.2
									c0,0.1,0.2,0.1,0.3-0.1l-0.4,0.6c-0.2,0,0.1-0.2,0-0.3c-0.1,0-0.5,0.2-0.5,0.3c0.1-0.1,0.1-0.1,0.2-0.2
									c0.1,0.1-0.1,0.2-0.1,0.4c0.1,0,0.2-0.1,0.2-0.1c-0.1,0.1-0.2,0.2-0.5,0.4c0.1-0.1-0.1,0-0.1-0.1c0,0.1-0.1,0.3-0.4,0.4
									c-0.3,0-0.5,0.4-0.8,0.5c0.1-0.2,0.2-0.4,0.3-0.5c-0.2,0.1-0.2,0.1-0.5,0.2c0,0.1,0,0.3-0.3,0.5l-0.1-0.1
									c-0.2,0.2-0.1,0.3-0.5,0.5c-0.5,0.3-1.1,0.6-1.5,0.8L15,19.5c-0.1,0.3-0.7,0.5-0.9,0.7c-0.5,0.2-1,0.7-1.4,0.7
									c-0.8,0.6-1.6,1.1-2.5,1.6l0.1-0.2c-0.1,0.2-0.2,0-0.3,0.1c0.2,0-0.2,0.3-0.2,0.4c-0.2,0.1-0.5,0.2-0.7,0.4
									c-0.1,0.1-0.2,0.2-0.2,0.3H8.8c0,0.1-0.2,0.2-0.5,0.3l0.1,0.1c0,0-0.1,0.1,0,0.1c0.4,0,0.4,0.1,0.7,0.1c0,0,0.5,0.4,0.8,0.6
									c1.1,0.4,2,1.1,3.2,1.6v0.1c1.1,0.4,2.3,1.3,3.2,1.6l-0.2,0.1c0.2,0.2,0.6,0.3,0.6,0.1c0.2,0.2,0.7,0.3,0.8,0.5
									c0.3,0.2,0.4,0.1,0.6,0.2c0.5,0.4,0.7,0.5,1.3,0.8l-0.1-0.1c-0.1,0-0.1,0.1,0,0.2c0.2,0.1,0.7,0.5,0.6,0.1
									c0.5,0.4,1.3,0.6,1.8,1.1c0-0.1,0.1,0,0.2,0c0.5,0.3,0.9,0.7,1.4,0.8c0.1,0.1-0.2,0,0,0.1c0.1,0,0-0.1,0.2,0
									c0.8,0.4,1.5,1,2.3,1.4c1.3,0.6,2.6,1.5,3.9,2.1l0,0c0.5,0.1,0.9,0.7,1.3,0.7c0.1,0.1,0.4,0.2,0.2,0.3
									c0.4,0.1,0.8,0.6,1.4,0.8h-0.1c0.4,0.4,0.9,0.5,1.4,0.9c-0.1,0-0.2,0-0.2,0c0.2,0.2,0.6,0.1,0.5,0.4c0.1,0,0.1,0,0.1,0
									s0,0,0-0.1c0.1,0.1,0.1,0.1,0.2,0.2l0.1-0.1l0.2-0.1c0.2-0.1,0.5-0.3,0.7-0.4c0.5-0.3,0.9-0.6,1.4-0.9
									c0.9-0.4,0.3,0.3,0.8-0.2c0.1,0,0-0.1,0-0.1c0.2-0.2,0.5,0,0.6-0.2c-0.1-0.1,0.1-0.1,0-0.2c0.5-0.2,0.7-0.1,1-0.5V36
									c0.4-0.5,1-0.7,1.2-1.1c1.2-0.7,2.3-1.4,3.4-2.1l1.7-1c0.1-0.1,0.1,0,0.1,0l0,0l0,0l0,0l0,0l0,0l-0.9-0.5l-1.8-1
									c-1.2-0.7-2.5-1.4-3.7-2.2c-0.5-0.5-0.5-0.5-1.2-0.8h0.1c-0.1,0.1-0.5-0.3-0.6-0.1c-0.9-0.6-1.8-1-2.7-1.6
									c0.2,0.1,0.3,0,0.1-0.1h-0.2v-0.1c-0.1,0-0.3-0.1-0.2,0.1c-2.5-1.3-4.7-2.9-7-4.2c-0.5-0.4-1.3-0.8-2-1.1
									c-1.7-1.2-3.2-2.3-5.1-3.2C21.2,16.9,21.6,16.6,22.4,17z"/>
								<path class="st1" d="M21.1,16.8c-0.1,0-0.3,0-0.2-0.1C21,16.7,21.1,16.7,21.1,16.8z"/>
								<path class="st1" d="M15.2,19.3L15.2,19.3c0,0,0-0.1,0.1-0.1C15.1,19.2,15.2,19.2,15.2,19.3z"/>
								<path class="st1" d="M13.7,20.1c0-0.1,0.3-0.3,0.4-0.4L13.7,20.1z"/>
								<path class="st1" d="M12.2,20.6c-0.2,0-0.1,0,0-0.1C12.3,20.5,12.2,20.5,12.2,20.6z"/>
								<path class="st1" d="M12.2,20.8c-0.1,0.1-0.2,0.1-0.3,0C12,20.9,12.2,20.6,12.2,20.8z"/>
								<path class="st1" d="M9.2,22.2c-0.1,0.1-0.4,0.3-0.5,0.3C8.9,22.5,9.3,22.1,9.2,22.2z"/>
								<path class="st1" d="M6.9,23.7c-0.1,0-0.1,0.1-0.2,0.1c-0.2,0.1-0.2,0,0-0.1H6.9z"/>
								<polygon class="st1" points="31.8,38.3 31.7,38.3 31.7,38.2 								"/>
								<path class="st1" d="M43,35.7c0.1-0.1,0.1,0,0.2,0C43.1,35.8,43.2,35.6,43,35.7z"/>
								<polygon class="st1" points="48.9,31.9 48.8,32 48.5,32 								"/>
							</g>
						</g>
					</g>
				</g>
			</g>
			<g>
				<line class="st2" x1="39.7" y1="37" x2="12.5" y2="21.4"/>
				<g>
					<g>
						<g>
							<g>
								<path class="st3" d="M39.5,37.2C39.6,37.3,39.5,37.1,39.5,37.2C39.5,37.3,39.5,37.3,39.5,37.2z"/>
								<path class="st3" d="M12.7,21.7c0.5-0.1,0.7,0.4,1.2,0.4c0,0-0.1,0.2,0,0.2c0.5-0.1,0.9,0.4,1.2,0.8l0,0
									c0.1,0.1,0.3,0,0.3,0s0,0-0.1,0.1c0.1-0.1,0.2,0,0.3,0c0,0.1,0,0.1,0,0.2l0.1-0.1c0.3-0.2,0.3,0.2,0.6,0.2c0,0,0,0-0.1,0.1
									c0.4,0,0.7,0.2,1.1,0.4c0,0-0.1,0.1-0.1,0.2c0.1-0.1,0.2-0.1,0.3-0.1c0,0.1,0.2,0,0.3,0.1l0,0c0.2-0.1,0.1,0.1,0.2,0v0.1
									c0.1-0.2,0.1,0.2,0.2,0.1l0,0c0.1,0,0.1,0.1,0.1,0.1l0,0c0.2,0,0.2,0.2,0.3,0c0,0.1-0.2,0-0.2,0.2c0.5,0.1,0.9,0.4,1.3,0.6
									c0,0.1,0,0.1,0,0.2c0.1,0,0.2,0.1,0.3,0v0.1c0,0.1,0.2-0.1,0.2,0c-0.1,0-0.1,0.1-0.1,0.1c0.1-0.1,0.2,0,0.3,0
									c0,0-0.1,0-0.1,0.1c0.2-0.1,0.2,0.1,0.3,0.1L20.5,26c0.1,0.2,0.1-0.1,0.2,0c0,0,0,0-0.1,0.1c0.2-0.1,0.3,0.1,0.5,0.1l0,0
									c0.1,0,0.2,0.2,0.4,0.2c0,0.1-0.1,0.2,0,0.2c0.1-0.2,0.3,0,0.3-0.2c0.1,0.1,0.2,0.2,0.3,0.2c-0.1,0-0.1,0.2-0.2,0.2v0.1
									c0,0.1,0-0.1-0.1,0c0,0,0.2,0,0.2,0.1c0.1,0,0.3-0.2,0.5-0.1c-0.1,0-0.1,0.2-0.1,0.2l0.4-0.2c0,0-0.1,0.1,0,0.1
									c0,0,0.1,0,0.1-0.1c0,0,0.2,0.1,0.1,0.2c0,0.1-0.1,0-0.1,0.1c0.1,0,0.1,0,0.2,0l0,0c0,0,0.2,0,0.2-0.1c0,0,0,0.1-0.1,0
									c0.1-0.1,0.2,0,0.3,0c0,0-0.1,0-0.1,0.1c0.2-0.1,0.3,0,0.5,0c0-0.1-0.1,0.1-0.1,0.1c0.1,0.2,0.4,0,0.5,0.3v-0.1
									c0.1,0,0,0.2,0.1,0.1c0,0.1,0.1,0,0.1,0l0,0c0.1,0,0.4,0,0.5,0.2l0.2-0.1l-0.1,0.1c0,0.1,0.1,0.1,0.1,0.1
									c0.2-0.1-0.4-0.1-0.2-0.1c0,0.1,0.2-0.1,0.1,0c0.1,0,0.2,0,0.2,0.1L25.2,28c0.1,0,0.1,0,0.2,0h0.1c0.1-0.1,0.1,0.1,0.1-0.1
									c0,0.1,0.2,0,0.1,0.2l-0.1,0.1l0.2-0.1c0,0,0,0,0,0.1c0.1-0.2,0.1,0.1,0.2,0c0.1,0.1,0.2,0.1,0.2,0.3c0.1,0,0.2,0,0.3,0
									c0,0,0,0-0.1,0c0,0.1,0.1,0,0.1,0s0,0.2,0.1,0.3c0.1,0,0.1-0.1,0.2-0.2c0,0.2,0.3,0,0.3,0.2c0,0-0.2,0-0.1,0.1
									c0,0.2,0.2-0.1,0.3,0.1l0.1-0.2c0,0.1,0.2,0,0.1,0.1c0.1,0,0.1,0.1,0.2,0c0.1,0.2,0.5,0.2,0.4,0.5h0.1c0-0.1-0.1,0-0.1,0
									s0,0,0.1,0c0,0.1,0.1,0.1,0,0.2c0.1,0.2,0.3-0.2,0.4,0c0,0.1,0,0.1,0,0.1l0.2-0.1c0.1,0.1,0,0.2-0.1,0.3
									c0.1,0,0.1,0.1,0.2,0v0.2c0-0.1,0.1,0,0.1,0l0,0l0.1,0.1c0-0.1,0-0.1,0-0.2c0.1,0,0.1,0,0.2,0c-0.1,0.1,0,0.1,0.1,0.2
									c0,0,0.1-0.1,0.1,0s0.1,0.1,0,0.1c0,0,0-0.1-0.1,0c0,0.1,0,0.1,0.1,0.1s0.1-0.2,0.2-0.1c0,0-0.1,0-0.1,0.1l0.1,0.1l0.1-0.1
									l0,0c0.1-0.1,0.2,0,0.2,0s0.1,0.1,0.1,0.2l0,0c0,0.1,0.1,0.1,0.2,0l0,0c0,0,0.1,0,0.2,0c0,0.1-0.2,0.4,0,0.3
									c0.1,0,0.2-0.1,0.2-0.2c0.1,0.1,0.3,0.1,0.4,0.3c0,0,0-0.1,0.1-0.1c0.2,0.1,0.5,0.1,0.5,0.4c-0.1,0-0.1,0.1-0.1,0.1
									c0.1-0.1,0,0.1,0.1,0c0-0.1,0.1-0.1,0-0.2c0.1,0,0.3,0.1,0.3,0.2c0-0.1,0-0.1,0.1-0.1c-0.1,0.1,0,0.2,0.1,0.2l0.1-0.1v0.1
									c0,0,0.1-0.2,0.2,0v0.1c0.1,0,0.3-0.1,0.3,0v0.2c0,0,0.1,0,0.1-0.1c0.1,0.1,0.2,0.2,0.1,0.3c0.4-0.1,0.7,0,0.9,0.2v0.1
									c0,0.1,0.1-0.1,0.1,0c-0.1,0,0,0.2-0.1,0.2c0.1,0.1,0.2,0,0.3,0c0.1-0.1-0.1,0,0-0.1c0,0,0.1,0.1,0.2,0
									c0,0.1-0.1,0.1-0.1,0.2h0.1c0,0.2-0.3,0.2-0.3,0.4h0.1c0,0.2-0.2,0.1-0.1,0.2c0.1,0,0.3-0.2,0.2-0.3c0.1,0,0.2-0.3,0.4-0.2
									c0,0.1-0.1,0-0.2,0.1c0,0.1,0.2,0,0.2,0.1c0-0.1,0.1-0.2,0.1-0.2c0,0.1-0.1,0.1,0,0.2c0.1-0.1,0.2-0.1,0.1-0.2
									c0.1-0.1,0.1,0.1,0.2,0c0,0.1-0.3,0.2-0.2,0.3c0-0.1,0.2-0.1,0.3-0.3c0,0.1,0,0.1-0.1,0.2c0,0.1,0.3-0.1,0.2,0.1l0.1-0.1
									c0,0,0,0.1,0,0.2c0,0,0.3-0.1,0.2,0.1c0,0,0.1,0.1,0.2-0.1c0-0.1-0.1,0-0.1-0.1c0,0.2,0.1,0,0.2,0v0.1c0,0,0.1,0,0.2,0
									c0,0-0.1,0.1,0,0.1l0.1-0.1c0.1,0-0.1,0.2,0,0.2h-0.1c0,0,0,0.1,0.1,0.1c0.1-0.1,0.2-0.2,0.2-0.2c0.1,0,0,0.1,0.1,0.1
									l-0.1,0.1v0.2c0.1,0,0.2-0.1,0.2-0.2c0,0,0.1,0.1,0,0.2c0.1,0,0-0.1,0.2-0.1c0,0.1,0,0.2,0,0.3l-0.2,0.1l0,0
									c-0.1,0.1,0,0.1-0.1,0.2h0.1c0-0.3,0.3-0.2,0.4-0.4c0.2,0-0.2,0.5,0.1,0.3c0-0.1,0.2-0.2,0-0.2c0.1,0.1,0.2-0.2,0.2,0
									c-0.1,0,0,0.2-0.2,0.3c0-0.1,0-0.1-0.1-0.1c0,0.1-0.1,0.2,0,0.2s0.1,0,0.2,0c0.1-0.1-0.1,0,0-0.1c0.1,0,0,0.2,0.2,0
									c-0.1,0,0-0.1,0-0.2h0.1L37.4,34c0.1,0.1,0.1-0.1,0.2,0v0.2c-0.1,0.1-0.2-0.2-0.2,0.1c0.1,0,0.2,0,0.2,0.1c0,0,0,0-0.1,0
									c0,0-0.1,0.3,0.1,0.2c0.1,0,0.1-0.1,0.1-0.1c0.1,0,0.2,0,0.3,0c-0.1,0.1,0.1,0.1,0,0.2c0-0.1-0.2-0.2-0.3-0.1
									c0,0.2-0.1-0.1-0.2,0.1c0.1,0.1,0,0.2,0,0.4h0.1c0.1-0.1,0-0.1,0.1-0.2c0.1,0.1,0.2,0.1,0.4,0c0,0.1-0.1,0.2-0.1,0.2
									c0.2,0,0.3,0.1,0.4,0.3c0-0.2,0.2,0,0.2-0.1s0-0.2,0-0.3v0.1c0.1-0.1,0,0.2,0.1,0.1c-0.2,0-0.2,0.2-0.3,0.3
									c0.1,0-0.1,0.1,0,0.1s0.3,0,0.4,0c0,0.2,0.3,0.2,0.4,0.3c0,0.1-0.1,0.2-0.1,0.3c0.1,0,0-0.2,0.1-0.1l0,0c0,0,0.1,0.2,0.3,0
									l-0.1,0.1c0,0,0,0,0.1,0c0,0,0,0.1-0.1,0.1c0,0.1,0.2,0.1,0.2,0.1v-0.1c0.2,0,0.2,0.1,0.3,0.2l-0.1,0.1h0.1
									c-0.1,0.1,0,0.2,0,0.1l-0.3,0.1c0-0.1,0.1-0.1,0.2-0.2c0-0.1-0.1-0.1-0.2-0.1c0,0,0,0,0.1,0c-0.1,0.1-0.1,0.1-0.2,0.2
									c0,0,0,0.1,0.1,0c-0.1,0-0.1,0-0.2,0c0.1,0,0-0.1,0.1-0.1c-0.1,0.1-0.2,0.1-0.2,0c0-0.2-0.2,0-0.3-0.1
									c0.1-0.1,0.2-0.2,0.3-0.2c0-0.1-0.1,0-0.1-0.1c-0.1,0.1-0.2,0.2-0.3,0.2v-0.1c-0.1,0-0.2,0.1-0.3,0
									c-0.2-0.1-0.3-0.3-0.5-0.3v-0.1c-0.2,0.1-0.3-0.1-0.4,0c-0.1-0.2-0.4-0.1-0.4-0.3c-0.3-0.1-0.6-0.2-0.9-0.4l0.1-0.1
									c-0.1,0.1,0-0.1-0.1-0.1c0,0.1-0.2,0.1-0.2,0.1c-0.1-0.2-0.3-0.2-0.5-0.1v-0.1c-0.2,0.1-0.3-0.1-0.4-0.3c0,0,0-0.1,0-0.2
									c-0.2,0.1-0.2,0.1-0.4,0.1c-0.1,0-0.2-0.2-0.3-0.3c-0.5,0-0.7-0.3-1.1-0.4v-0.1c-0.5,0-0.8-0.4-1.1-0.5l0.1-0.2
									c-0.1-0.1-0.2-0.1-0.3,0.1c-0.1-0.1-0.3,0-0.3-0.2c-0.1-0.1-0.2,0-0.3,0c-0.2-0.2-0.2-0.2-0.4-0.3l0,0c0,0,0.1-0.1,0-0.1
									s-0.2-0.2-0.3,0.1c-0.1-0.2-0.5-0.1-0.6-0.4c0,0.1-0.1,0-0.1,0.1C30,32.2,29.9,32,29.7,32c0,0,0.1-0.1,0-0.1
									c0,0,0,0.1-0.1,0.1c-0.3,0-0.5-0.4-0.7-0.5c-0.5-0.1-0.9-0.5-1.3-0.7l0,0c-0.2,0.1-0.2-0.4-0.5-0.2c0-0.1-0.1-0.1,0-0.2
									c-0.2,0-0.2-0.3-0.5-0.2l0,0c-0.1-0.2-0.3-0.1-0.4-0.3h0.1c0-0.1-0.3,0.1-0.2-0.1L26,29.9c-0.3-0.3-0.8-0.4-1.2-0.6
									C24.6,29,25,28.9,24.7,29c0,0-0.1,0.1,0,0c-0.1,0,0-0.3-0.1-0.2c0,0.1-0.1,0-0.1,0.1c-0.1-0.2-0.1-0.3-0.3-0.3v-0.1
									c-0.3,0.1-0.4-0.1-0.6,0c-0.9-0.5-1.8-0.8-2.6-1.3s-1.7-0.9-2.4-1.5c-0.1-0.3-0.1-0.3-0.4-0.3c0,0,0,0,0-0.1
									c-0.1,0.1-0.2-0.1-0.3,0c-0.3-0.2-0.6-0.3-0.9-0.5c0.1,0,0.2-0.1,0.1-0.1H17l0,0c0,0-0.1,0-0.1,0.1
									c-0.9-0.3-1.5-1.1-2.3-1.5c-0.2-0.2-0.5-0.3-0.7-0.4c-0.5-0.5-0.9-1-1.6-1.2C12.1,22,12.4,21.7,12.7,21.7z"/>
								<path class="st3" d="M39.3,37.2c0-0.1,0-0.2,0.1-0.2C39.4,37,39.4,37.1,39.3,37.2z"/>
								<path class="st3" d="M37.9,35.4C37.9,35.4,37.9,35.3,37.9,35.4C37.9,35.3,38,35.3,37.9,35.4C37.9,35.3,37.9,35.4,37.9,35.4z
									"/>
								<path class="st3" d="M37.4,35.1c0-0.1,0.2,0,0.2,0H37.4z"/>
								<path class="st3" d="M37.1,34.5C37.1,34.5,37.2,34.4,37.1,34.5C37.2,34.5,37.2,34.5,37.1,34.5z"/>
								<path class="st3" d="M37,34.7v-0.1C37,34.6,37.1,34.6,37,34.7z"/>
								<path class="st3" d="M36.2,33.9C36.1,33.9,36.1,34,36.2,33.9C36.1,33.9,36.2,33.9,36.2,33.9z"/>
								<path class="st3" d="M35.7,33.8C35.7,33.8,35.7,33.7,35.7,33.8C35.6,33.7,35.7,33.7,35.7,33.8L35.7,33.8z"/>
								<polygon class="st3" points="27.4,29.3 27.4,29.3 27.4,29.4 								"/>
								<path class="st3" d="M23.8,27.3C23.7,27.3,23.8,27.2,23.8,27.3C23.9,27.2,23.7,27.2,23.8,27.3z"/>
								<polygon class="st3" points="21.7,26.5 21.7,26.5 21.6,26.6 								"/>
							</g>
						</g>
					</g>
				</g>
			</g>
			<g>
				<line class="st2" x1="44.1" y1="34.5" x2="17" y2="18.8"/>
				<g>
					<g>
						<g>
							<g>
								<path class="st3" d="M43.9,34.7C44,34.7,43.9,34.5,43.9,34.7C44,34.7,43.9,34.7,43.9,34.7z"/>
								<path class="st3" d="M17.2,19.1c0.5-0.1,0.7,0.4,1.2,0.4c0,0-0.1,0.2,0,0.2c0.5-0.1,0.9,0.4,1.2,0.8l0,0
									c0.1,0.1,0.3,0,0.3,0s0,0-0.1,0.1c0.1-0.1,0.2,0,0.3,0c0,0.1,0,0.1,0,0.2l0.1-0.1c0.3-0.2,0.3,0.2,0.6,0.2c0,0,0,0-0.1,0.1
									c0.4,0,0.7,0.2,1.1,0.4c0,0-0.1,0.1-0.1,0.2c0.1-0.1,0.2-0.1,0.3-0.1c0,0.1,0.2,0,0.3,0.1l0,0c0.2-0.1,0.1,0.1,0.2,0v0.1
									c0.1-0.2,0.1,0.2,0.2,0.1l0,0c0.1,0,0.1,0.1,0.1,0.1l0,0c0.2,0,0.2,0.2,0.3,0c0,0.1-0.2,0-0.2,0.2c0.5,0.1,0.9,0.4,1.3,0.6
									c0,0.1,0,0.1,0,0.2c0.1,0,0.2,0.1,0.3,0V23c0,0.1,0.2-0.1,0.2,0c-0.1,0-0.1,0.1-0.1,0.1c0.1-0.1,0.2,0,0.3,0
									c0,0-0.1,0-0.1,0.1c0.2-0.1,0.2,0.1,0.3,0.1L25,23.4c0.1,0.2,0.1-0.1,0.2,0c0,0,0,0-0.1,0.1c0.2-0.1,0.3,0.1,0.5,0.1l0,0
									c0.1,0,0.2,0.2,0.4,0.2c0,0.1-0.1,0.2,0,0.2c0.1-0.2,0.3,0,0.3-0.2c0.1,0.1,0.2,0.2,0.3,0.2c-0.1,0-0.1,0.2-0.2,0.2v0.1
									c0,0.1,0-0.1-0.1,0c0,0,0.2,0,0.2,0.1c0.1,0,0.3-0.2,0.5-0.1c-0.1,0-0.1,0.2-0.1,0.2l0.4-0.2c0,0-0.1,0.1,0,0.1
									c0,0,0.1,0,0.1-0.1c0,0,0.2,0.1,0.1,0.2c0,0.1-0.1,0-0.1,0.1c0.1,0,0.1,0,0.2,0l0,0c0,0,0.2,0,0.2-0.1c0,0,0,0.1-0.1,0
									c0.1-0.1,0.2,0,0.3,0c0,0-0.1,0-0.1,0.1c0.2-0.1,0.3,0,0.5,0c0-0.1-0.1,0.1-0.1,0.1c0.1,0.2,0.4,0,0.5,0.3v-0.1
									c0.1,0,0,0.2,0.1,0.1c0,0.1,0.1,0,0.1,0l0,0c0.1,0,0.4,0,0.5,0.2l0.2-0.1l-0.1,0.1c0,0.1,0.1,0.1,0.1,0.1
									c0.2-0.1-0.4-0.1-0.2-0.1c0,0.1,0.2-0.1,0.1,0c0.1,0,0.2,0,0.2,0.1l-0.1,0.1c0.1,0,0.1,0,0.2,0H30c0.1-0.1,0.1,0.1,0.1-0.1
									c0,0.1,0.2,0,0.1,0.2l-0.1,0.1l0.2-0.1c0,0,0,0,0,0.1c0.1-0.2,0.1,0.1,0.2,0c0.1,0.1,0.2,0.1,0.2,0.3c0.1,0,0.2,0,0.3,0
									c0,0,0,0-0.1,0c0,0.1,0.1,0,0.1,0s0,0.2,0.1,0.3c0.1,0,0.1-0.1,0.2-0.2c0,0.2,0.3,0,0.3,0.2c0,0-0.2,0-0.1,0.1
									c0,0.2,0.2-0.1,0.3,0.1l0.1-0.2c0,0.1,0.2,0,0.1,0.1c0.1,0,0.1,0.1,0.2,0c0.1,0.2,0.5,0.2,0.4,0.5h0.1c0-0.1-0.1,0-0.1,0
									s0,0,0.1,0c0,0.1,0.1,0.1,0,0.2c0.1,0.2,0.3-0.2,0.4,0c0,0.1,0,0.1,0,0.1l0.2-0.1c0.1,0.1,0,0.2-0.1,0.3
									c0.1,0,0.1,0.1,0.2,0v0.2c0-0.1,0.1,0,0.1,0l0,0l0.1,0.1c0-0.1,0-0.1,0-0.2c0,0,0.1,0,0.2,0c-0.1,0.1,0,0.1,0.1,0.2
									c0,0,0.1-0.1,0.1,0s0.1,0.1,0,0.1c0,0,0-0.1-0.1,0c0,0.1,0,0.1,0.1,0.1s0.1-0.2,0.2-0.1c0,0-0.1,0-0.1,0.1l0.1,0.1l0.1-0.1
									l0,0c0.1-0.1,0.2,0,0.2,0s0.1,0.1,0.1,0.2l0,0c0,0.1,0.1,0.1,0.2,0l0,0c0,0,0.1,0,0.2,0c0,0.1-0.2,0.4,0,0.3
									c0.1,0,0.2-0.1,0.2-0.2c0.1,0.1,0.3,0.1,0.4,0.3c0,0,0-0.1,0.1-0.1c0.2,0.1,0.5,0.1,0.5,0.4c-0.1,0-0.1,0.1-0.1,0.1
									c0.1-0.1,0,0.1,0.1,0c0-0.1,0.1-0.1,0-0.2c0.1,0,0.3,0.1,0.3,0.2c0-0.1,0-0.1,0.1-0.1c-0.1,0.1,0,0.2,0.1,0.2l0.1-0.1v0.1
									c0,0,0.1-0.2,0.2,0V29c0.1,0,0.3-0.1,0.3,0v0.2c0,0,0.1,0,0.1-0.1c0.1,0.1,0.2,0.2,0.1,0.3c0.4-0.1,0.7,0,0.9,0.2v0.1
									c0,0.1,0.1-0.1,0.1,0c-0.1,0,0,0.2-0.1,0.2c0.1,0.1,0.2,0,0.3,0c0.1-0.1-0.1,0,0-0.1c0,0,0.1,0.1,0.2,0
									c0,0.1-0.1,0.1-0.1,0.2h0.1c0,0.2-0.3,0.2-0.3,0.4h0.1c0,0.2-0.2,0.1-0.1,0.2c0.1,0,0.3-0.2,0.2-0.3c0.1,0,0.2-0.3,0.4-0.2
									c0,0.1-0.1,0-0.2,0.1c0,0.1,0.2,0,0.2,0.1c0-0.1,0.1-0.2,0.1-0.2c0,0.1-0.1,0.1,0,0.2c0.1-0.1,0.2-0.1,0.1-0.2
									c0.1-0.1,0.1,0.1,0.2,0c0,0.1-0.3,0.2-0.2,0.3c0-0.1,0.2-0.1,0.3-0.3c0,0.1,0,0.1-0.1,0.2c0,0.1,0.3-0.1,0.2,0.1l0.1-0.1
									c0,0,0,0.1,0,0.2c0,0,0.3-0.1,0.2,0.1c0,0,0.1,0.1,0.2-0.1c0-0.1-0.1,0-0.1-0.1c0,0.2,0.1,0,0.2,0v0.1c0,0,0.1,0,0.2,0
									c0,0-0.1,0.1,0,0.1l0.1-0.1c0.1,0-0.1,0.2,0,0.2h-0.1c0,0,0,0.1,0.1,0.1c0.1-0.1,0.2-0.2,0.2-0.2c0.1,0,0,0.1,0.1,0.1
									l-0.1,0.1V31c0.1,0,0.2-0.1,0.2-0.2c0,0,0.1,0.1,0,0.2c0.1,0,0-0.1,0.2-0.1c0,0.1,0,0.2,0,0.3l-0.2,0.1l0,0
									c-0.1,0.1,0,0.1-0.1,0.2h0.1c0-0.3,0.3-0.2,0.4-0.4c0.2,0-0.2,0.5,0.1,0.3c0-0.1,0.2-0.2,0-0.2c0.1,0.1,0.2-0.2,0.2,0
									c-0.1,0,0,0.2-0.2,0.3c0-0.1,0-0.1-0.1-0.1c0,0.1-0.1,0.2,0,0.2s0.1,0,0.2,0c0.1-0.1-0.1,0,0-0.1c0.1,0,0,0.2,0.2,0
									c-0.1,0,0-0.1,0-0.2H42l-0.1,0.1c0.1,0.1,0.1-0.1,0.2,0v0.2c-0.1,0.1-0.2-0.2-0.2,0.1c0.1,0,0.2,0,0.2,0.1c0,0,0,0-0.1,0
									c0,0-0.1,0.3,0.1,0.2c0.1,0,0.1-0.1,0.1-0.1c0.1,0,0.2,0,0.3,0c-0.1,0.1,0.1,0.1,0,0.2c0-0.1-0.2-0.2-0.3-0.1
									c0,0.2-0.1-0.1-0.2,0.1c0.1,0.1,0,0.2,0,0.4h0.1c0.1-0.1,0-0.1,0.1-0.2c0.1,0.1,0.2,0.1,0.4,0c0,0.1-0.1,0.2-0.1,0.2
									c0.2,0,0.3,0.1,0.4,0.3c0-0.2,0.2,0,0.2-0.1s0-0.2,0-0.3v0.1c0.1-0.1,0,0.2,0.1,0.1c-0.2,0-0.2,0.2-0.3,0.3
									c0.1,0-0.1,0.1,0,0.1s0.3,0,0.4,0c0,0.2,0.3,0.2,0.4,0.3c0,0.1-0.1,0.2-0.1,0.3c0.1,0,0-0.2,0.1-0.1l0,0c0,0,0.1,0.2,0.3,0
									l-0.1,0.1c0,0,0,0,0.1,0c0,0,0,0.1-0.1,0.1c0,0.1,0.2,0.1,0.2,0.1v-0.1c0.2,0,0.2,0.1,0.3,0.2L44.3,34h0.1
									c-0.1,0.1,0,0.2,0,0.1l-0.3,0.1c0-0.1,0.1-0.1,0.2-0.2c0-0.1-0.1-0.1-0.2-0.1c0,0,0,0,0.1,0C44.1,34,44.1,34,44,34.1
									c0,0,0,0.1,0.1,0c-0.1,0-0.1,0-0.2,0c0.1,0,0-0.1,0.1-0.1c-0.1,0.1-0.2,0.1-0.2,0c0-0.2-0.2,0-0.3-0.1
									c0.1-0.1,0.2-0.2,0.3-0.2c0-0.1-0.1,0-0.1-0.1c-0.1,0.1-0.2,0.2-0.3,0.2v-0.1c-0.1,0-0.2,0.1-0.3,0
									c-0.2-0.1-0.3-0.3-0.5-0.3v-0.1c-0.2,0.1-0.3-0.1-0.4,0c-0.1-0.2-0.4-0.1-0.4-0.3c-0.3-0.1-0.6-0.2-0.9-0.4l0.1-0.1
									c-0.1,0.1,0-0.1-0.1-0.1c0,0.1-0.2,0.1-0.2,0.1c-0.1-0.2-0.3-0.2-0.5-0.1v-0.1c-0.2,0.1-0.3-0.1-0.4-0.3c0,0,0-0.1,0-0.2
									c-0.2,0.1-0.2,0.1-0.4,0.1c-0.1,0-0.2-0.2-0.3-0.3c-0.5,0-0.7-0.3-1.1-0.4v-0.1c-0.5,0-0.8-0.4-1.1-0.5l0.1-0.2
									c-0.1-0.1-0.2-0.1-0.3,0.1c-0.1-0.1-0.3,0-0.3-0.2c-0.1-0.1-0.2,0-0.3,0c-0.2-0.2-0.2-0.2-0.4-0.3l0,0c0,0,0.1-0.1,0-0.1
									s-0.2-0.2-0.3,0.1c-0.1-0.2-0.5-0.1-0.6-0.4c0,0.1-0.1,0-0.1,0.1c-0.2-0.1-0.3-0.3-0.5-0.3c0,0,0.1-0.1,0-0.1
									c0,0,0,0.1-0.1,0.1c-0.3,0-0.5-0.4-0.7-0.5c-0.5-0.1-0.9-0.5-1.3-0.7l0,0c-0.2,0.1-0.2-0.4-0.5-0.2c0-0.1-0.1-0.1,0-0.2
									c-0.2,0-0.2-0.3-0.5-0.2l0,0c-0.1-0.2-0.3-0.1-0.4-0.3h0.1c0-0.1-0.3,0.1-0.2-0.1l-0.1,0.1c-0.3-0.3-0.8-0.4-1.2-0.6
									c-0.2-0.3,0.2-0.4-0.1-0.3c0,0-0.1,0.1,0,0c-0.1,0,0-0.3-0.1-0.2c0,0.1-0.1,0-0.1,0.1c-0.1-0.2-0.1-0.3-0.3-0.3v-0.1
									c-0.3,0.1-0.4-0.1-0.6,0c-0.9-0.5-1.8-0.8-2.6-1.3s-1.7-0.9-2.4-1.5c-0.1-0.3-0.1-0.3-0.4-0.3c0,0,0,0,0-0.1
									c-0.1,0.1-0.2-0.1-0.3,0c-0.3-0.2-0.6-0.3-0.9-0.5c0.1,0,0.2-0.1,0.1-0.1h-0.1l0,0c0,0-0.1,0-0.1,0.1
									c-0.9-0.3-1.5-1.1-2.3-1.5c-0.2-0.2-0.5-0.3-0.7-0.4c-0.5-0.5-0.9-1-1.6-1.2C16.6,19.4,16.9,19.1,17.2,19.1z"/>
								<path class="st3" d="M43.8,34.6c0-0.1,0-0.2,0.1-0.2C43.9,34.4,43.9,34.5,43.8,34.6z"/>
								<path class="st3" d="M42.4,32.8C42.3,32.8,42.3,32.8,42.4,32.8C42.4,32.7,42.4,32.7,42.4,32.8
									C42.4,32.7,42.4,32.8,42.4,32.8z"/>
								<path class="st3" d="M41.9,32.5c0-0.1,0.2,0,0.2,0H41.9z"/>
								<path class="st3" d="M41.6,32C41.6,31.9,41.6,31.9,41.6,32C41.7,31.9,41.7,31.9,41.6,32z"/>
								<path class="st3" d="M41.5,32.1V32C41.4,32,41.6,32,41.5,32.1z"/>
								<path class="st3" d="M40.7,31.3C40.6,31.3,40.5,31.4,40.7,31.3C40.6,31.3,40.7,31.3,40.7,31.3z"/>
								<path class="st3" d="M40.1,31.2L40.1,31.2C40.1,31.1,40.1,31.1,40.1,31.2L40.1,31.2z"/>
								<polygon class="st3" points="31.9,26.7 31.9,26.7 31.9,26.8 								"/>
								<path class="st3" d="M28.3,24.7C28.2,24.7,28.3,24.6,28.3,24.7C28.3,24.6,28.2,24.7,28.3,24.7z"/>
								<polygon class="st3" points="26.2,23.9 26.2,23.9 26.1,24 								"/>
							</g>
						</g>
					</g>
				</g>
			</g>
		</g>
	</g>
	<g>
		<g>
			<g>
				<defs>
					<polygon id="SVGID_1_" points="44.2,29.2 50.2,32.6 50.1,13.1 34.8,5.7 4.1,24.1 4.4,36 26,49.3 					"/>
				</defs>
				<clipPath id="SVGID_2_">
					<use xlink:href="#SVGID_1_"  style="overflow:visible;"/>
				</clipPath>
				<g class="st4">
					<g>
						<polygon class="st0" points="48.7,31.8 48.7,16.2 26.1,29.3 26.1,44.8 30.7,42.2 30.7,37 44.2,29.2 44.2,34.4 						"/>
						<g>
							<g>
								<g>
									<g>
										<path class="st1" d="M48.4,31.6c0,0.3,0.1-0.2,0.1,0.2C48.4,31.7,48.4,31.7,48.4,31.6z"/>
										<path class="st1" d="M47.6,32.2c-0.4,0.4-0.9,0.8-1.5,1.1c-0.6,0.3-1.1,0.6-1.7,1.1c-0.1,0.1,0.2-0.4-0.1-0.1l0,0
											c-0.1-0.3-0.2-1.2-0.1-2s0.1-1.5,0.3-2.5h0.1c0-0.4-0.1-0.5-0.1-0.8l0,0c0-0.1,0.2-0.1,0.1-0.2c-0.2,0.3-0.6,0.4-0.8,0.6
											c-0.1,0,0-0.1-0.2-0.1l-0.2,0.3c-0.3,0.3-0.5,0.4-0.8,0.6c-0.3,0.1-0.6,0.3-0.8,0.5v-0.1c-0.8,0.7-1.9,1.3-2.8,1.9
											c0-0.1,0-0.2-0.1-0.2c0,0.1-0.3,0.4-0.5,0.5c-0.2-0.1-0.4,0.4-0.7,0.5l0,0c-0.2,0.3-0.4,0.1-0.5,0.4H37
											c0,0.2-0.4,0.1-0.5,0.3l0,0c-0.2,0.1-0.3,0.1-0.4,0.2l0,0c-0.4,0.3-0.6,0.3-0.5,0.4c-0.2,0,0.3-0.3,0-0.3
											c-1.2,0.9-2.5,1.6-3.8,2.3c-0.2,0-0.3,0.1-0.3,0C31.4,36.7,31,36.9,31,37h-0.2l0,0c0,0.3,0.2,0.3,0.1,0.6
											c0-0.1-0.1-0.2-0.2-0.1c0.1,0.3,0.1,0.6,0.2,0.9c0,0,0-0.1-0.1-0.1c0.1,0.3,0,0.6,0.1,0.9l-0.1-0.1
											c-0.1,0.5,0.2,0.1,0.1,0.5c0-0.1-0.1-0.1-0.1-0.1c0.2,0.4,0.1,1,0.2,1.3l0,0c0,0.4,0,0.8,0,1.3c0,0.1-0.1,0-0.2,0.1
											c0,0-0.1,0-0.2,0.1c0.2,0.1-0.6,0.4-0.3,0.5c-0.3,0.1-0.9,0.4-1,0.5c0.1-0.1-0.3-0.1,0-0.3H29c0-0.1,0.2-0.1,0.1-0.1
											c-0.1,0.1-0.5,0.4-0.6,0.4c-0.2,0.2-0.3,0.5-0.7,0.8c0.2-0.2-0.2-0.1-0.1-0.2c-0.1,0.2-0.3,0.5-0.6,0.7
											c-0.2,0.1,0-0.2-0.3,0c0,0.1-0.1,0.2-0.2,0.3c0,0-0.8,0.5-0.7,0.2c0-0.1,0.3-0.2,0.2-0.2c0,0-0.1,0-0.1,0.1
											c0-0.2-0.1-0.2-0.1-0.4l0,0c0-0.2-0.1-0.5-0.2-0.2c0,0.2,0.1-0.2,0.1,0.1c-0.1,0-0.1-0.5-0.1-0.8c0,0.1,0.1,0.1,0.1,0.1
											c-0.1-0.2-0.1-0.4-0.2-0.7c0-0.2-0.1-0.4-0.1-0.6c-0.1,0,0.2,0.2,0.1,0.2c0.1-0.5-0.2-1.1,0-1.5c0,0.1-0.1,0-0.1,0
											c0-0.3,0.1-0.3,0.1-0.4c0.1,0,0-0.2,0-0.4c0-0.1,0,0,0,0.1c-0.1-0.2-0.2-1.2-0.1-1.8c0,0-0.2-0.3-0.2-0.5h0.1
											c0.1-0.1,0-0.4,0.1-0.5c-0.1-0.3,0.1,1,0,0.7c0.1-0.1-0.2-0.5,0-0.4c0-0.3-0.1-0.5,0-0.8c0,0.1,0.2,0.2,0.2,0
											c0-0.4,0-0.1-0.1-0.4v-0.2c-0.1,0,0-0.3-0.1-0.2c0.1,0-0.1-0.5,0.1-0.5h0.2c0-0.2-0.2-0.3-0.2-0.4c0,0,0-0.1,0.1,0
											c-0.2,0,0-0.4-0.2-0.6c0.1-0.3,0-0.8,0.2-1c-0.1-0.3-0.2-0.5-0.1-0.8c0,0.1,0,0.1,0.1,0.1c0.1-0.2,0-0.2,0-0.4
											c0,0,0.1-0.4,0.2-0.6c-0.1-0.3-0.2-0.2-0.3-0.2c0.2-0.2-0.1-0.7,0.1-1c0,0.1,0.1,0.4,0.2,0.2c0.2-0.2-0.2-0.5-0.1-0.8
											l-0.2,0.1c0.1-0.2-0.1-0.5,0.1-0.5c0-0.1,0-0.2,0-0.3c0-0.1,0-0.2-0.1-0.2c0-0.2,0-0.5,0-0.8l0.5-0.3
											c0.2-0.1,0.3-0.2,0.4-0.3c0.2-0.1,0.4-0.2,0.6-0.1c0.1-0.1,0.3-0.1,0.2-0.2c-0.2,0-0.1,0.2-0.2,0.1c0.1,0,0.1-0.1,0-0.1
											c0.2-0.1,0.3-0.1,0.2,0.1c0.4-0.1,0.2-0.5,0.7-0.7c0,0.1,0.1,0.1,0.2,0l0.2-0.3c0.3-0.1,0.3,0,0.3,0.1
											c0.2-0.1,0.3-0.2,0.4-0.3h0.3c-0.2,0,0.1-0.1,0.2-0.2l-0.1,0.1c0.1,0,0.2-0.1,0.3-0.2c-0.1,0-0.3,0-0.4,0.1
											c0-0.1,0.2-0.2,0.3-0.3c0,0.1,0.3-0.1,0.4-0.1c0.2-0.1,0.1-0.2,0.2-0.2c0,0,0.2-0.1,0.2,0c0,0-0.2,0-0.2,0.1
											c0.1,0,0.2,0.1,0.3-0.1c0.1-0.1-0.2-0.2,0.2-0.3c-0.1,0.1,0,0.1-0.1,0.2l0.3-0.1v-0.1l0,0c0-0.1,0.4-0.3,0.4-0.4
											c0.1-0.1,0.3-0.1,0.5-0.2l0,0c0.2,0,0.4-0.2,0.5-0.3l0,0c0.1,0,0.3-0.2,0.4-0.3c0.3,0,0.3,0.3,0.5,0.1
											c0.2-0.1,0.2-0.4,0.1-0.4c0.4-0.2,0.8-0.6,1.3-0.6c0-0.1,0-0.1,0.1-0.2c0.6-0.3,1.2-0.8,1.7-0.9c-0.2,0.1,0,0.1,0.1,0.2
											c0.1-0.2,0.2,0,0.2-0.2c-0.1-0.1-0.1-0.1-0.3-0.1c0.3-0.3,0.8-0.5,1.1-0.6c-0.1,0-0.1,0,0-0.1c0,0.1,0.3,0,0.5-0.1v-0.1
											h0.2c0.1-0.1,0-0.2,0.2-0.3c0,0,0.1,0,0.1,0.1c0.2-0.2,0.4-0.5,0.6-0.5h0.3c0.1-0.1,0.2-0.2,0-0.2
											c0.4-0.1,0.7-0.3,0.8-0.2c0.5-0.6,1.4-1.2,2.2-1.6v0.1c0.2-0.1,0-0.2,0.2-0.2c0,0.1,0.2,0,0.1,0.2
											c0.3-0.1,0.3-0.3,0.5-0.5c0-0.1-0.1,0.1-0.1,0c0,0,0.4-0.2,0.4-0.3c0.1,0,0.1,0.1,0.1,0.2l0.1-0.2c0.3,0-0.3,0.5,0,0.6
											l0.2-0.1c0.2,0-0.3,0.4,0.1,0.2c0.1-0.2,0.2-0.4,0-0.4c0.3-0.3,0-0.4,0.4-0.6c0.2,0-0.3,0.2-0.2,0.3
											c0.2,0,0.3-0.3,0.5-0.3c-0.2,0.1-0.1-0.2,0-0.3c0.2-0.1-0.1,0.2,0.2,0c0-0.1,0.2-0.3,0-0.2c0-0.2,0.3-0.1,0.4-0.3
											c0.2,0.1-0.1,0.4,0.2,0.3c-0.1-0.1,0.3-0.4,0-0.4c0.1,0,0.2,0,0.2,0.2c0.2,0,0.3-0.5,0.5-0.3v-0.1c0.1,0,0.2,0,0.3,0
											s0.2-0.1,0.3-0.2s0.3-0.2,0.3-0.1c0.1-0.1,0.7-0.4,0.4-0.4c-0.4,0.1-0.4,0.4-0.7,0.3c0.3,0,0.5-0.3,0.8-0.5v0.1
											c0.1-0.1,0.5-0.3,0.6-0.4c-0.1,0.1-0.1,0.1,0,0.1l0.2-0.2c0.6-0.4,0,0.2,0.6-0.1l-0.4,0.4c0.1-0.1,0.2,0,0.5-0.2
											c0.2-0.2,0.5-0.5,0.6-0.7c0.1-0.1,0.2-0.1,0.2-0.1c0,0.1-0.1,0.2,0,0.3l-0.1-0.2l-0.2,0.1v0.1c0,0.2-0.1,0.5-0.1,0.7
											s0.2,0.5,0.3,0c0,0.3-0.1,0.6-0.1,0.5c0,0.5,0.1-0.2,0.2,0.2c-0.1,0.3-0.2,0.9-0.3,1.3c-0.1-0.1-0.1-0.2-0.2-0.3v0.3
											c-0.1-0.3-0.1,0.2-0.3,0.1c0,0.2,0,0.3,0.1,0.5c0.1-0.2,0.2-0.1,0.3,0.1c0.1,0.1,0.2,0.3,0.3,0.2c0.1,0.5-0.5,0.3-0.2,0.8
											c0.1-0.1,0.2,0.1,0.2-0.1c0,0.3,0.2,0.2,0.1,0.6c-0.1-0.3-0.2,0.3-0.4-0.1c0.1,0,0.1-0.2,0-0.3c-0.1,0.1-0.2,0-0.2,0.3
											c0,0.2,0,0.4,0.1,0.4s0-0.3,0.1-0.2c0,0.4-0.2,0.4,0.1,0.6c0-0.2,0.1-0.3,0.2-0.3v0.3h-0.1c-0.1,0.4,0.2,0.1,0.1,0.5
											l-0.2,0.2c-0.1-0.1,0.1-0.6-0.2-0.5c0,0.3,0.1,0.4,0,0.6c0-0.1,0-0.1,0-0.2c0,0.1-0.3,0.2-0.1,0.6c0.1,0.2,0.1,0,0.2,0.1
											c0,0.4,0.1,0.6,0.1,0.9c-0.2-0.1,0,0.5-0.2,0.2c0.1-0.1,0.1-0.8-0.1-0.9c-0.2,0.2,0-0.4-0.2-0.4c0,0.4-0.2,0.3-0.3,0.4
											c0,0.1,0,0.2,0.1,0.3c0.1,0,0.1-0.1,0.3-0.1c0,0.4,0,0.8,0.2,1c-0.1,0.1-0.2,0.1-0.2-0.1c0,0.5,0,1,0,1.4
											c0.2-0.3,0,0.5,0.2,0.3c0-0.2,0.2-0.5,0.3-0.3c0,0.1-0.1,0-0.1,0.1c0.1,0.2-0.2,0.3,0,0.5c-0.1-0.4-0.2-0.1-0.4-0.2
											c0.1,0.3-0.1,0-0.1,0.3c0.1,0.3,0.2,0.7,0.2,1c-0.2,0.4,0,1.1,0,1.5c-0.1,0.2-0.3,0.1-0.3,0.3c0,0.3,0.2-0.2,0.1,0.2l0,0
											c0,0.1-0.1,0.7,0.1,0.8l-0.2-0.1c0,0.1,0,0.1,0,0.2c-0.1,0-0.1,0.1-0.2,0c-0.1,0.2,0,0.5,0,0.8l0.1-0.2
											c0.1,0.4,0,0.7,0,1.1h-0.1l0.1,0.3c-0.1-0.1-0.2,0.2-0.1,0.3l-0.3-0.6c0.1-0.2,0.1,0.2,0.2,0.1c0.1-0.1,0.1-0.5,0-0.5
											c0,0.1,0,0.2,0,0.3c-0.2,0-0.2-0.2-0.3-0.3c0,0.1,0,0.2,0,0.2c-0.1-0.1-0.1-0.3-0.1-0.6c0.1,0.2,0.1-0.1,0.1,0
											c-0.1,0-0.2-0.3-0.1-0.6c0.2-0.2-0.1-0.6-0.1-1c0.1,0.1,0.3,0.3,0.3,0.6c0.1-0.2,0-0.3,0.1-0.5c-0.1-0.1-0.3-0.2-0.3-0.5
											h0.1c0-0.3-0.2-0.3-0.2-0.6c0-0.6,0-1.2,0.1-1.7h0.1c-0.2-0.3-0.1-0.8-0.2-1.2c0.1-0.6-0.1-1.3,0.1-1.5
											c-0.1-1-0.2-1.9-0.1-3l0.2,0.2c-0.1-0.2,0.1-0.1,0.1-0.3c-0.1,0.2-0.2-0.3-0.2-0.4c0.1-0.2,0-0.5,0-0.7s-0.1-0.3-0.1-0.3
											l0.1-0.1c-0.1-0.1-0.1-0.2,0-0.5c0,0-0.1,0-0.2,0c0,0,0-0.2-0.1-0.1c-0.2,0.3-0.3,0.3-0.5,0.5c0,0-0.6,0.3-0.9,0.4
											c-0.9,0.8-2,1.2-2.9,2l-0.1-0.1c-0.9,0.8-2.2,1.3-3,1.9v-0.2c-0.3,0.1-0.6,0.4-0.4,0.5c-0.3,0.1-0.6,0.5-0.9,0.4
											c-0.3,0.1-0.3,0.3-0.5,0.4c-0.6,0.3-0.8,0.4-1.3,0.7l0.1-0.1c0-0.1,0-0.1-0.1-0.1c-0.2,0.2-0.7,0.4-0.4,0.5
											c-0.6,0.2-1.2,0.9-1.9,1c0.1,0,0,0.1-0.1,0.2c-0.5,0.3-1.1,0.5-1.4,0.8c-0.1,0,0.1-0.2-0.1-0.1c-0.1,0.1,0,0.1-0.1,0.2
											c-0.7,0.6-1.7,0.8-2.4,1.3c-1.2,0.9-2.6,1.6-3.8,2.3l0,0c0,0-0.1,0.1-0.2,0.1l0,0h-0.1c0,0,0,0.1,0.1,0.2
											c0,0.1,0,0.4-0.1,0.3c0.1,0.4-0.1,1,0,1.6v-0.1c-0.1,0.5,0,1-0.1,1.6c0-0.1,0-0.2-0.1-0.2c-0.1,0.2,0.2,0.5,0,0.6
											c0,0.1,0.1,0.1,0.1,0c-0.1,1.3,0.1,2.6,0.1,3.9c-0.1,1-0.4,0.1-0.2,0.8c0,0.1,0.1,0,0,0c0.1,0.3-0.3,0.5-0.1,0.6
											c0.1-0.1,0.1,0.1,0.2,0.1c-0.1,0.6-0.2,0.7-0.1,1.1h-0.1c0.2,0.5,0.1,1.1,0.3,1.6v0.7c0,0.1,0,0.2,0,0.2v0.1
											c0,0.1,0,0.1,0,0.2l0.2-0.1l0,0l0,0l0,0h0.1l0.5-0.3l1.1-0.7l0.5-0.3l0,0l0,0c0,0,0,0,0-0.1c0-0.7,0-1.5,0-2.2v-2.8
											c0.8-0.4,1.5-0.9,2.3-1.3c0.6-0.3,1.2-0.7,1.8-1c0.7-0.2,0.7-0.2,1.3-0.6v0.1c0-0.2,0.5-0.3,0.4-0.5
											c0.9-0.5,1.8-1,2.7-1.6c-0.1,0.1-0.2,0.3,0,0.1l0.1-0.2l0,0c0.1-0.1,0.2-0.2,0-0.2c0.8-0.5,1.7-1,2.6-1.5l0.7-0.4l1-0.5
											c0.8-0.5,1.6-0.9,2.5-1.4v2V32c0,0.3,0,0.7,0,1.1c0,0.2,0,0.1,0,0.2s-0.1,0.1-0.1,0.3c0,0,0.1,0,0.2,0
											c0.1,0,0.1,0,0.2-0.1l0.6-0.3c0.8-0.4,1.5-0.8,2.3-1.4C48.3,31.2,48.3,31.7,47.6,32.2z"/>
										<path class="st1" d="M48.4,31.1c0.1-0.1,0.1-0.3,0.2-0.1C48.6,31,48.5,31.2,48.4,31.1z"/>
										<path class="st1" d="M49.3,24.7v-0.1c0,0.1,0.1,0.1,0,0.2C49.3,24.7,49.3,24.8,49.3,24.7z"/>
										<path class="st1" d="M49.3,23.1c0.1,0,0.1,0.4,0.1,0.6L49.3,23.1z"/>
										<path class="st1" d="M49.6,21.6C49.7,21.4,49.7,21.5,49.6,21.6C49.7,21.7,49.6,21.6,49.6,21.6z"/>
										<path class="st1" d="M49.4,21.4c0-0.1,0-0.2,0.1-0.3C49.5,21.2,49.6,21.5,49.4,21.4z"/>
										<path class="st1" d="M49.7,18.1c0-0.1-0.1-0.5,0-0.6C49.6,17.7,49.8,18.3,49.7,18.1z"/>
										<path class="st1" d="M49.5,15.4c0-0.1,0-0.1,0-0.2c0-0.2,0.1-0.1,0.1,0L49.5,15.4z"/>
										<polygon class="st1" points="25.6,30.9 25.5,30.8 25.6,30.8 										"/>
										<path class="st1" d="M25.6,43.4c0,0.2-0.1,0.2-0.1,0.3C25.5,43.4,25.6,43.7,25.6,43.4z"/>
										<polygon class="st1" points="30.7,42.4 30.6,42.4 30.5,42.3 										"/>
									</g>
								</g>
							</g>
						</g>
					</g>
					<g>
						<g>
							<polygon class="st0" points="12.6,21.5 12.6,37 26.1,44.8 26.1,29.3 							"/>
							<g>
								<g>
									<g>
										<g>
											<path class="st1" d="M12.9,21.6c0-0.2-0.1,0.1-0.1-0.1C12.9,21.5,12.9,21.5,12.9,21.6z"/>
											<path class="st1" d="M13.2,22c0.8,0,1.5,0.9,2.3,1c0.1,0-0.1,0.2,0.1,0.2c0.8,0.1,1.8,0.9,2.5,1.6H18
												c0.1,0.1,0.4,0.1,0.6,0.2c0,0-0.1,0-0.1,0.1c0.1-0.1,0.3,0.1,0.4,0.1c0,0.1,0,0.2,0,0.3l0.2-0.1c0.4-0.1,0.6,0.4,1.1,0.5
												c0,0-0.1,0-0.1,0.1c0.7,0.2,1.4,0.6,2.1,0.9c0,0-0.1,0.1-0.1,0.2c0.1-0.1,0.3,0,0.5,0.1c0,0.2,0.4,0.1,0.5,0.2l0,0
												c0.2,0,0.2,0.2,0.4,0.1v0.1c0.2-0.1,0.2,0.2,0.3,0.2l0,0c0.1,0,0.2,0.1,0.3,0.2l0,0c0.3,0.1,0.4,0.3,0.5,0.1
												c0,0.2-0.3-0.1-0.2,0.1c0.6,0.2,1.2,0.5,1.8,0.9c0,0.3,0,0.7,0,1c-0.1,0.1-0.1,0.2-0.1,0.2c0,0.1,0,0.4,0.1,0.5l-0.1,0.1
												c-0.1,0.2,0.2,0.2,0.1,0.4c0-0.1-0.1-0.1-0.2-0.1c0.1,0.2,0.1,0.4,0.2,0.6c0,0,0-0.1-0.1-0.1c0.1,0.2,0,0.4,0.1,0.6
												l-0.1-0.1c-0.1,0.3,0.2,0.1,0.1,0.4c0-0.1-0.1,0-0.1,0c0.2,0.2,0.1,0.6,0.2,0.9l0,0c0,0.3,0,0.5,0,0.8
												c0,0.1-0.2,0-0.2,0.3c0.2,0,0.1,0.5,0.3,0.3c0,0.2-0.1,0.6,0,0.8c-0.1-0.1-0.2,0.1-0.2-0.1l-0.1,0.1
												c-0.1,0,0-0.2-0.1-0.1c0,0.1,0.1,0.4,0,0.5c0.1,0.2,0.3,0.4,0.3,0.7c-0.1-0.1-0.2,0.1-0.2,0l0.4,0.4c0,0.1-0.2,0-0.1,0.2
												l0.1,0.1c0,0,0,0.4-0.1,0.5c-0.1,0,0-0.2-0.1,0c0,0.2,0.1,0.2,0.1,0.4l0,0c0,0.1,0.1,0.4,0.2,0.2c0-0.1-0.1,0-0.1-0.1
												c0.1,0.1,0.1,0.3,0.1,0.5c0-0.1-0.1-0.1-0.1-0.1c0.1,0.3,0.2,0.5,0.3,0.8c0.1,0-0.2-0.1-0.1-0.1c-0.1,0.4,0.2,0.7,0,1
												h0.1c0,0.2-0.1,0.2-0.1,0.3c-0.1,0,0,0.1,0,0.3c0,0.1,0,0,0-0.1c0.1,0.2,0.2,0.8,0.1,1.2c0,0,0.2,0.2,0.2,0.3h-0.1
												c-0.1,0.1,0,0.3-0.1,0.3c0.1,0.2-0.1-0.7,0-0.5c-0.1,0.1,0.2,0.3,0,0.3c0,0.2,0.1,0.3,0,0.5c0-0.1-0.2-0.2-0.2,0
												c0,0.3,0,0.1,0.1,0.4v0.2c0.1,0.1,0,0.3,0.1,0.2c-0.1,0,0.1,0.6-0.1,0.4l-0.2-0.2c0,0.1,0.2,0.4,0.2,0.5c0,0,0,0-0.1,0
												c0.2,0.3,0,0.3,0.2,0.8c0,0.1,0,0.3,0,0.5c-0.2-0.1-0.3-0.2-0.5-0.4c-0.2,0-0.3,0-0.6-0.2h0.1c-0.2-0.2-0.2-0.1-0.3-0.1
												c0,0-0.3-0.3-0.5-0.5c-0.2,0-0.2,0.1-0.2,0.2c-0.1-0.3-0.7-0.2-0.7-0.5c0.1,0,0.3,0,0.2-0.1c0-0.3-0.3,0-0.5-0.2v0.2
												c0-0.1-0.4-0.1-0.3-0.2c-0.1,0-0.2-0.2-0.3,0c-0.3-0.3-0.9-0.4-1-0.8c-0.1,0-0.2-0.1-0.2,0s0.2,0,0.2,0.1h-0.1
												c-0.1-0.1-0.2-0.2,0-0.2c-0.2-0.2-0.4,0.1-0.7-0.1c0-0.1,0-0.1-0.1-0.1h-0.2c-0.2-0.1,0-0.2,0-0.3
												c-0.1,0-0.3-0.1-0.3-0.1v-0.2c0,0.1-0.1,0-0.2,0h0.1c0-0.1-0.1-0.1-0.2-0.1c0,0.1,0.1,0.2,0.1,0.2c-0.1,0-0.2,0-0.3,0
												c0.1-0.1-0.1-0.2-0.2-0.2c-0.1-0.1-0.2,0-0.2,0c0-0.1-0.2-0.1,0-0.1c0,0,0,0.1,0.1,0.1c0-0.1,0-0.2-0.2-0.2
												c-0.1,0-0.1,0.2-0.3,0c0.1,0,0.1,0,0.2,0L19.5,42l-0.1,0.1c0,0,0,0,0-0.1c-0.1,0.1-0.3-0.1-0.4,0c-0.1,0-0.2-0.2-0.2-0.2
												l0,0c-0.1-0.1-0.2-0.2-0.4-0.1l0,0c0,0-0.2-0.1-0.3-0.1c-0.1-0.2,0.2-0.4-0.1-0.4c-0.2-0.1-0.3,0-0.3,0.1
												c-0.2-0.2-0.6-0.2-0.8-0.5c-0.1,0,0,0.1-0.1,0c-0.4-0.3-0.9-0.4-1.1-0.7c0.1,0,0.1-0.1,0.1-0.1c-0.1,0-0.1-0.1-0.2,0
												c0,0.1-0.1,0.1,0,0.2c-0.3-0.1-0.6-0.3-0.7-0.5c0,0.1,0,0.1-0.1,0.1c0.1-0.1-0.1-0.3-0.2-0.3l-0.1,0.1v-0.1
												c-0.1,0-0.2,0.1-0.2,0v-0.1c-0.2,0-0.4,0-0.5-0.2V39c-0.1,0-0.2,0-0.1,0.1c-0.2-0.2-0.4-0.3-0.4-0.5
												c-0.2,0-0.4,0-0.6-0.1c-0.3-0.1-0.7-0.3-1-0.5c0-0.4,0-0.7,0-1.1h0.1c0.1-0.2-0.1-0.1-0.1-0.2c0.1,0,0.2-0.1,0.2,0
												c0.1-0.2-0.1-0.3-0.2-0.4c-0.1,0,0.1,0.1-0.1,0.1c0,0,0.1-0.3-0.1-0.3c0.1-0.1,0.2,0,0.2,0L11.6,36
												c0.2-0.2,0.3,0.4,0.5,0.2v-0.1c0.2-0.1,0.2,0.3,0.2,0C12.2,36,12,35.8,12,36c0-0.3-0.3-0.1-0.3-0.4
												c0.1-0.1,0,0.2,0.1,0.2c0.1-0.1-0.1-0.3,0-0.4c0,0.1-0.2,0-0.2-0.1c0.1-0.1,0.1,0.1,0.2-0.1c-0.1,0-0.2-0.2-0.2-0.1
												c-0.2-0.1,0-0.2-0.1-0.4c0.1-0.1,0.3,0.2,0.4,0c-0.1,0-0.2-0.3-0.4-0.2c0-0.1,0.1-0.1,0.2,0c0.1-0.1-0.2-0.3,0-0.4h-0.1
												c0,0,0.1-0.1,0.2-0.2c0-0.1-0.2-0.4,0-0.4c0,0,0-0.3-0.2-0.2c-0.1,0.2,0.1,0.2-0.1,0.3c0.2-0.1,0-0.2-0.1-0.3h0.1
												c0-0.1,0-0.2-0.1-0.2h0.1L11.4,33c-0.1-0.2,0.2-0.1,0.2-0.3l0.1,0.2c0,0,0.1-0.1,0-0.2c-0.1,0-0.2-0.1-0.3-0.2
												c0-0.1,0.1-0.1,0-0.2l0.1,0.2c0,0,0.2-0.1,0.2-0.3c0-0.1-0.2-0.3-0.3-0.1c0-0.1,0.1-0.2,0.1-0.1c0-0.2-0.1,0-0.2-0.1
												c0.1-0.1,0.2-0.3,0.3-0.4l0.2,0.2v-0.1c0.1,0.1,0.1-0.1,0.3,0c0-0.1,0-0.2-0.1-0.3c-0.2,0.2-0.3-0.3-0.5-0.2
												c-0.1-0.3,0.5-0.2,0.2-0.5c-0.1,0-0.2-0.1-0.2,0.1c0-0.2-0.2-0.1-0.1-0.4c0.1,0.2,0.2-0.2,0.4,0.1c-0.1,0-0.1,0.1,0,0.2
												c0.1-0.1,0.2,0,0.2-0.2c0-0.1,0-0.3-0.1-0.3s0,0.2-0.1,0.1c0-0.3,0.2-0.3-0.1-0.4c0,0.2-0.1,0.2-0.2,0.2v-0.2h0.1
												c0.1-0.3-0.2-0.1-0.1-0.4l0.2-0.1c0.1,0.1-0.1,0.4,0.2,0.4c0-0.2-0.1-0.2,0-0.4v0.1c0-0.1,0.3-0.1,0.1-0.4
												c-0.1-0.1-0.1,0-0.2,0c0-0.3-0.1-0.4-0.1-0.6c0.2,0,0-0.3,0.2-0.1c-0.1,0.1-0.1,0.5,0.1,0.6c0.2-0.1,0,0.2,0.2,0.3
												c0-0.2,0.2-0.2,0.3-0.3c0-0.1,0-0.1-0.1-0.2c-0.1,0-0.1,0.1-0.3,0.1c0-0.3,0-0.5-0.2-0.7c0.1-0.1,0.2-0.1,0.2,0
												c0-0.3,0-0.6,0-1c-0.2,0.2,0-0.3-0.2-0.2c0,0.2-0.2,0.3-0.3,0.2c0-0.1,0.1,0,0.1,0c-0.1-0.1,0.2-0.2,0-0.3
												c0.1,0.3,0.2,0.1,0.4,0.1c-0.1-0.2,0.1,0,0.1-0.2C12.1,26.5,12,26.2,12,26c0.2-0.3,0-0.7,0-1c0.1-0.1,0.3,0,0.3-0.2
												s-0.2,0.1-0.1-0.1l0,0c0-0.1,0.1-0.5-0.1-0.5l0.2,0.1v-0.1c0.1,0,0.1-0.1,0.2,0c0.1-0.2,0-0.3,0-0.5l-0.1,0.1
												c-0.1-0.3,0-0.5,0-0.8h0.1l-0.1-0.2c0.1,0,0.2-0.1,0.1-0.2l0.3,0.4c-0.1,0.1-0.1-0.1-0.2-0.1c-0.1,0.1-0.1,0.3,0,0.4
												c0-0.1,0-0.1,0-0.2c0.2,0,0.2,0.1,0.3,0.2v-0.1c0.1,0.1,0.1,0.2,0.1,0.4c-0.1-0.1-0.1,0.1-0.1,0c0.1,0,0.2,0.2,0.1,0.4
												c-0.2,0.1,0.1,0.4,0.1,0.6c-0.1-0.1-0.3-0.2-0.3-0.4c-0.1,0.1,0,0.2-0.1,0.3c0.1,0.1,0.3,0.1,0.3,0.3h-0.1
												c0,0.2,0.2,0.2,0.2,0.4c0,0.4,0,0.8-0.1,1.1h-0.1c0.2,0.2,0.1,0.6,0.2,0.8c-0.1,0.4,0.1,0.8-0.1,1c0.1,0.7,0.2,1.3,0.1,2
												L12.9,30c0.1,0.1-0.1,0.1-0.1,0.2c0.1-0.1,0.2,0.2,0.2,0.3c-0.1,0.3,0,0.7,0.1,1H13c0.2,0.3,0,0.6,0,1
												c0,0-0.1,0.1-0.1,0.2c0.2,0.2,0.2,0.3,0.3,0.6c0,0.2,0,0.5-0.1,0.7c0.2,0.8,0.1,1.5,0.2,2.3l-0.1,0.1
												c0,0.1,0,0.2,0.1,0.2c0,0.1,0,0.2,0,0.2c0,0.1,0,0.1,0,0.2c0.1,0.1,0.1,0.1,0.3,0.2s0.4,0.2,0.6,0.3L14,37.6
												c0.2,0.2,0.4,0.2,0.5,0c0.2,0.2,0.5,0.2,0.5,0.4c0.2,0.1,0.3,0,0.4,0.1c0.3,0.3,0.5,0.3,0.8,0.5l-0.1-0.1
												c-0.1,0-0.1,0.1,0,0.1c0.2,0,0.5,0.3,0.4,0c0.3,0.3,0.9,0.4,1.2,0.8c0-0.1,0.1,0,0.2,0c0.3,0.2,0.6,0.5,0.9,0.5
												c0,0.1-0.1,0,0,0.1c0.1,0,0-0.1,0.2,0c0.6,0.2,1,0.7,1.5,1c0.9,0.4,1.8,1,2.6,1.4l0,0c0.4,0,0.5,0.5,0.9,0.4
												c0,0.1,0.2,0.2,0.1,0.2c0.1,0,0.3,0.1,0.4,0.2c0.1,0.1,0.2,0.1,0.2,0.2c0,0,0.1,0,0.1,0.1c0,0,0,0,0.1,0l0,0
												c0.1,0.2,0.2,0,0.3,0.2c0,0,0,0,0,0.1c0.1,0.2,0-0.2,0.2,0.1l-0.1-0.2c0,0,0.1,0.1,0.2,0.1c0-0.1,0-0.3,0-0.4v-0.2
												c0,0,0,0,0-0.1v-0.3c0.1-0.6,0.4,0,0.2-0.5c0,0-0.1,0,0,0c-0.1-0.2,0.3-0.3,0.1-0.4c-0.1,0-0.1-0.1-0.2-0.1
												c0.1-0.4,0.2-0.5,0.1-0.8h0.1c-0.2-0.4-0.1-0.8-0.3-1.1c0-2-0.2-3.9-0.2-5.8c0-0.8,0-1.6,0-2.3v-1.2v-0.5l0,0l0,0l0,0
												L25.2,30L25,29.9c-0.3-0.4-0.3-0.4-0.8-0.6c0,0,0.1,0,0,0c-0.1,0.1-0.3-0.2-0.4,0c-0.6-0.4-1.2-0.7-1.8-1
												c0.1,0,0.2,0,0.1-0.1h-0.2l0,0c-0.1,0-0.2,0-0.2,0.1c-1.7-0.8-3.1-2-4.6-2.9c-0.3-0.3-0.9-0.5-1.3-0.7
												c-1.1-0.9-2.1-1.6-3.4-2.2C12.2,22.1,12.6,21.8,13.2,22z"/>
											<path class="st1" d="M12.9,21.9c-0.1,0-0.1,0.2-0.2,0.1C12.7,21.9,12.8,21.9,12.9,21.9z"/>
											<path class="st1" d="M12,26.2C12.1,26.2,12,26.2,12,26.2S11.9,26.1,12,26.2C12,26.1,12,26.1,12,26.2z"/>
											<path class="st1" d="M12,27.2c-0.1,0-0.1-0.3-0.1-0.4L12,27.2z"/>
											<path class="st1" d="M11.7,28.3C11.6,28.4,11.6,28.3,11.7,28.3C11.6,28.2,11.7,28.2,11.7,28.3z"/>
											<path class="st1" d="M11.9,28.3c0,0.1,0,0.1-0.1,0.2C11.8,28.5,11.7,28.3,11.9,28.3z"/>
											<path class="st1" d="M11.7,30.5c0,0,0.1,0.2,0,0.2C11.7,30.7,11.5,30.5,11.7,30.5z"/>
											<path class="st1" d="M11.8,31.6C11.8,31.6,11.7,31.6,11.8,31.6C11.7,31.7,11.7,31.7,11.8,31.6L11.8,31.6z"/>
											<polygon class="st1" points="23.8,44.1 23.7,44.1 23.8,44 											"/>
											<path class="st1" d="M26.7,39c0-0.1,0.1-0.1,0.1-0.1C26.8,39,26.7,38.8,26.7,39z"/>
											<polygon class="st1" points="26.3,34.5 26.3,34.6 26.2,34.6 											"/>
										</g>
									</g>
								</g>
							</g>
						</g>
						<g>
							<polygon class="st5" points="17.1,29.2 17.1,34.4 21.6,37 21.6,31.8 							"/>
							<g>
								<g>
									<g>
										<g>
											<path class="st1" d="M17.4,29.3C17.3,29.2,17.2,29.3,17.4,29.3C17.4,29.2,17.4,29.3,17.4,29.3z"/>
											<path class="st1" d="M17.2,29.5c0.4-0.2,0.5,0.3,0.8,0.2c0,0-0.1,0.2,0,0.2c0.4-0.1,0.6,0.2,0.8,0.6l0,0
												c0,0.1,0.2-0.1,0.2,0c0,0,0,0-0.1,0.1c0.1-0.1,0.1,0,0.2,0c0,0,0,0.1,0,0.2l0.1-0.1c0.3-0.2,0.2,0.1,0.4,0.1
												c0,0,0,0,0,0.1c0.3-0.1,0.5,0.1,0.8,0.2c0,0-0.1,0.1-0.1,0.2c0.1-0.1,0.2-0.1,0.2-0.1c0,0.1,0.2-0.1,0.2,0l0,0
												c0.1-0.1,0,0.1,0.2,0v0.1c0.1-0.2,0,0.1,0.1,0.1l0,0c0.1,0,0,0.1,0.1,0.1l0,0c0.1,0,0.1,0.1,0.2,0c0,0.1-0.1,0-0.2,0.2
												c0.2,0,0.5,0.1,0.7,0.3v0.4c-0.1,0.1-0.1,0.1-0.1,0.1s0,0.1,0.1,0.1h-0.1c-0.1,0.1,0.2,0.1,0.1,0.1c0,0-0.1,0-0.2,0
												c0.1,0.1,0.1,0.1,0.2,0.2c0,0,0,0-0.1,0c0.1,0.1,0,0.1,0.1,0.2h-0.1c-0.1,0.1,0.2,0,0.1,0.1h-0.1
												c0.2,0.1,0.1,0.2,0.2,0.3l0,0c0,0.1,0,0.2,0,0.3c0,0-0.2,0-0.2,0.1c0.2,0,0.1,0.2,0.3,0.1c0,0.1-0.1,0.2,0,0.3
												c-0.1,0-0.2,0-0.2,0h-0.1c-0.1,0,0,0-0.1,0c0,0,0.1,0.1,0,0.2c0.1,0.1,0.3,0.1,0.3,0.2c-0.1,0-0.2,0-0.2,0l0.4,0.1
												c0,0-0.2,0-0.1,0.1h0.1c0,0,0,0.1-0.1,0.1s0,0-0.1,0c0,0.1,0.1,0.1,0.1,0.1l0,0c0,0,0.1,0.1,0.2,0.1h-0.1
												c0.1,0,0.1,0.1,0.1,0.2h-0.1c0.1,0.1,0.2,0.2,0.3,0.3c0.1,0-0.2-0.1-0.1-0.1c-0.1,0.1,0.2,0.4,0,0.5h0.1
												c0,0.1-0.1,0-0.1,0.1c-0.1,0,0,0.1,0,0.1c0,0.1,0,0,0-0.1c0.1,0.1,0.2,0.5,0.1,0.6l0.2,0.3L22.5,37c-0.1,0,0,0.1-0.1,0.1
												c0.1,0.2-0.1-0.5,0-0.2c-0.1-0.1,0.2,0.3,0,0.2c0,0.1,0.1,0.3,0,0.3c0,0-0.2-0.3-0.2-0.2c0,0.1,0,0.1,0.1,0.2v0.1
												c0.1,0.1,0,0.1,0.1,0.2c-0.1-0.1,0.1,0.3-0.1,0l-0.2-0.2c0,0.1,0.2,0.3,0.2,0.4c0,0,0,0-0.1-0.1c0.2,0.4,0,0.1,0.2,0.4
												v0.1c-0.1,0-0.1-0.1-0.2-0.2c0,0.1,0,0.2-0.1,0c0,0,0,0,0-0.1C22,37.9,22,38,22,38s-0.2-0.3-0.3-0.4
												c0,0.1,0.1,0.3,0.1,0.4c-0.2-0.4-0.1,0.1-0.3-0.3c0,0,0-0.1,0-0.2c-0.2-0.3,0,0.2-0.2,0l0.1,0.3c-0.1-0.2-0.1,0-0.2-0.2
												c0,0.1-0.1-0.1-0.1,0.1c-0.2-0.3-0.5-0.2-0.5-0.6h-0.1c0,0.1,0.1,0,0.1,0s0,0,0,0.1c0-0.1-0.1-0.1,0-0.2
												c-0.1-0.2-0.2,0.2-0.3,0.1c0-0.1,0-0.1,0-0.1l-0.1,0.1c-0.1-0.1,0-0.2,0.1-0.3c0,0-0.1,0-0.2,0v-0.2c0,0.1-0.1,0-0.1,0.1
												l0,0c0,0,0,0-0.1,0c0,0.1,0,0.1,0,0.1h-0.1c0.1-0.1,0-0.1,0-0.1l-0.1,0.1c0-0.1,0,0,0-0.1c0,0,0,0.1,0,0
												c0,0,0.1-0.1,0-0.1s-0.1,0.2-0.1,0.1l0.1-0.1v-0.1l-0.1,0.1l0,0c-0.1,0.1-0.1,0-0.2,0.1v-0.1l0,0c0-0.1-0.1-0.1-0.1,0
												l0,0h-0.1c0-0.1,0.2-0.4,0.1-0.3c0,0-0.2,0.1-0.2,0.2c0-0.1-0.2,0-0.2-0.2c0,0,0,0.1-0.1,0.1c-0.1-0.1-0.3,0-0.3-0.3
												c0.1,0,0.1-0.1,0.1-0.1c-0.1,0.1,0-0.1-0.1,0c0,0.1-0.1,0.1-0.1,0.2c-0.1,0-0.2-0.1-0.2-0.2c0,0,0,0.1-0.1,0.1
												c0.1-0.1,0-0.2,0-0.2L18,36v-0.1c0,0-0.1,0.2-0.1,0.1v-0.1c-0.1,0-0.2,0.1-0.2,0v-0.1c0,0-0.2,0-0.1,0.1
												c-0.1-0.1-0.2-0.2-0.1-0.3c-0.3,0.1-0.6,0-0.8-0.1c0-0.1,0-0.2,0-0.4h0.1c0.1-0.1-0.1,0-0.1-0.1c0.1,0,0.2-0.1,0.2-0.1
												c0.1-0.1-0.1-0.1-0.2-0.2c-0.1,0,0.1,0-0.1,0.1c0,0,0.1-0.2-0.1-0.2c0.1,0,0.2,0,0.2,0l-0.1-0.1c0.2-0.1,0.3,0.1,0.5,0
												l0,0c0.2-0.1,0.2,0.1,0.2,0c-0.1,0-0.3-0.1-0.3,0c0-0.1-0.3-0.1-0.3-0.2c0.1,0,0,0.1,0.1,0.1c0.1-0.1-0.1-0.1,0-0.1h-0.2
												c0.1,0,0.1,0,0.2,0c-0.1,0-0.2-0.1-0.2,0c-0.2,0,0-0.1-0.1-0.1c0.1,0,0.3,0.1,0.4,0c-0.1,0-0.2-0.1-0.4-0.1
												c0,0,0.1,0,0.2,0c0.1,0-0.2-0.1,0-0.1h-0.1c0,0,0.1,0,0.2-0.1c0,0-0.2-0.1,0-0.1c0,0,0-0.1-0.2-0.1
												c-0.1,0.1,0.1,0.1-0.1,0.1c0.2,0,0-0.1-0.1-0.1h0.1c0,0,0-0.1-0.1-0.1h0.1h-0.1c-0.1-0.1,0.2,0,0.2-0.1l0.1,0.1
												c0,0,0.1,0,0-0.1c-0.1,0-0.2,0-0.3,0c0,0,0.1,0,0-0.1l0.1,0.1c0,0,0.2,0,0.2-0.1c0,0-0.2-0.1-0.3,0c0,0,0.1-0.1,0.1,0
												c0-0.1-0.1,0-0.2,0c0.1,0,0.2-0.1,0.3-0.1l0.2,0.1l0,0c0.1,0,0.1,0,0.3,0c0,0,0-0.1-0.1-0.1c-0.2,0.1-0.3-0.1-0.5-0.1
												c-0.1-0.1,0.5-0.1,0.2-0.2c-0.1,0-0.2,0-0.2,0c0-0.1-0.2,0-0.1-0.1c0.1,0.1,0.2-0.1,0.4,0c-0.1,0-0.1,0,0,0.1
												c0.1,0,0.2,0,0.2-0.1c0,0,0-0.1-0.1-0.1s0,0.1-0.1,0c0-0.1,0.2-0.1-0.1-0.1c0,0-0.1,0.1-0.2,0.1v-0.1h0.1
												c0.1-0.1-0.2,0-0.1-0.1h0.2c0.1,0-0.1,0.1,0.2,0.1c0-0.1-0.1-0.1,0-0.1l0,0c0,0,0.3,0,0.1-0.1c-0.1,0-0.1,0-0.2,0
												c0-0.1-0.1-0.1-0.1-0.2c0.2,0,0-0.1,0.2,0c-0.1,0-0.1,0.2,0.1,0.2c0.2,0,0,0.1,0.2,0.1c0-0.1,0.2-0.1,0.3-0.1
												c0,0,0,0-0.1-0.1c-0.1,0-0.1,0-0.3,0c0-0.1,0-0.2-0.2-0.2c0.1,0,0.2,0,0.2,0c0-0.1,0-0.2,0-0.3c-0.2,0.1,0-0.1-0.2-0.1
												c0,0-0.2,0.1-0.3,0.1h0.1c-0.1,0,0.2-0.1,0-0.1c0.1,0.1,0.2,0,0.4,0c-0.1-0.1,0.1,0,0.1-0.1c-0.1-0.1-0.2-0.1-0.2-0.2
												c0.2-0.1,0-0.2,0-0.3c0.1,0,0.3,0,0.3-0.1s-0.2,0-0.1,0l0,0c0,0,0.1-0.1-0.1-0.2h0.2l0,0c0.1,0,0.1,0,0.2,0
												c0.1,0,0-0.1,0-0.2h-0.1c-0.1-0.1,0-0.2,0-0.3h0.1l-0.1-0.1c0.1,0,0.2,0,0.1-0.1L17.2,29.5c0,0.1-0.1,0-0.2,0
												c-0.1,0-0.1,0.1,0,0.1c0,0,0,0,0-0.1c0.2,0,0.2,0,0.3,0.1C17.3,29.6,17.3,29.6,17.2,29.5c0.1,0.1,0.1,0.1,0.1,0.2
												c-0.1,0-0.1,0-0.1,0c0.1,0,0.2,0.1,0.1,0.1c-0.2,0,0.1,0.1,0.1,0.2c-0.1,0-0.3-0.1-0.3-0.1c-0.1,0,0,0.1-0.1,0.1
												c0.1,0,0.3,0,0.3,0.1h-0.1c0,0.1,0.2,0.1,0.2,0.1c0,0.1,0,0.3-0.1,0.4h-0.1c0.2,0.1,0.1,0.2,0.2,0.3
												c-0.1,0.1,0.1,0.3-0.1,0.3c0.1,0.2,0.2,0.4,0.1,0.7h-0.2c0.1,0-0.1,0-0.1,0.1c0.1,0,0.2,0.1,0.2,0.1
												c-0.1,0.1,0,0.2,0.1,0.3h-0.1c0.2,0.1,0,0.2,0,0.3c0,0-0.1,0-0.1,0.1c0.2,0.1,0.2,0.1,0.3,0.2c0,0.1,0,0.2-0.1,0.3
												c0.2,0.2,0.1,0.6,0.2,0.6h-0.1c0.1,0,0.1,0,0.1,0.1c0,0,0.1,0.1,0.2,0.1l-0.1,0.2c0,0.1,0.1,0,0.2-0.1c0,0,0.2,0,0.1,0.1
												c0,0.1,0.1,0,0.2,0c0.1,0.1,0.1,0.1,0.3,0.2l0,0l-0.1,0.1c0.1,0,0.1,0.1,0.2-0.1c0,0.2,0.3,0.1,0.4,0.3
												c0-0.1,0.1-0.1,0.1-0.1c0.1,0.1,0.2,0.2,0.3,0.2c0,0-0.1,0.1,0,0.1c0,0,0-0.1,0.1-0.1c0.2,0,0.3,0.3,0.5,0.4
												c0.2,0,0.4,0.1,0.4,0.1h0.1l0,0c0-0.2,0.1,0.3,0.1-0.1c0,0.1,0,0,0,0.2c0-0.2,0.1,0.2,0.1,0l0,0c0.1,0.2,0,0,0.1,0.1v0.1
												c0.1,0.2-0.1-0.3,0.1,0.1l-0.1-0.2c0,0,0,0.1,0.1,0.1c0-0.1-0.1-0.3-0.1-0.4c0.1,0.1,0.4,0.4,0.2,0.2c0,0-0.1-0.1,0,0
												c-0.1-0.1,0.3,0.2,0.1,0c-0.1-0.1-0.1-0.1-0.2-0.1c0.1,0,0.2,0.1,0.1,0h0.1c-0.2-0.2-0.1-0.2-0.3-0.3c0,0,0-0.2,0-0.3
												l-0.1-0.5c0-0.3-0.1-0.6-0.1-1c0-0.3,0-0.5,0-0.8v-0.2l0,0l0,0l0,0c0.1-0.2,0.1-0.2,0-0.1c0,0,0,0,0-0.1
												c-0.1,0.1-0.1,0-0.2,0.1c-0.2-0.1-0.4-0.2-0.6-0.3l0.1-0.1l-0.1,0.1l0,0L19.7,32c-0.6-0.2-1-0.8-1.5-1
												c-0.1-0.1-0.3-0.2-0.5-0.2c-0.3-0.4-0.6-0.8-1-0.9C16.8,29.9,17,29.5,17.2,29.5z"/>
											<path class="st1" d="M17.4,29.4c-0.1,0-0.1,0.1-0.2,0C17.2,29.4,17.3,29.4,17.4,29.4z"/>
											<path class="st1" d="M16.6,30.8C16.6,30.8,16.5,30.8,16.6,30.8C16.5,30.8,16.4,30.8,16.6,30.8
												C16.5,30.8,16.5,30.8,16.6,30.8z"/>
											<path class="st1" d="M16.5,31.2c-0.1,0-0.1-0.1-0.1-0.1L16.5,31.2z"/>
											<path class="st1" d="M16.2,31.5C16.2,31.5,16.1,31.5,16.2,31.5L16.2,31.5z"/>
											<path class="st1" d="M16.4,31.5C16.4,31.6,16.3,31.6,16.4,31.5C16.4,31.6,16.2,31.5,16.4,31.5z"/>
											<path class="st1" d="M16.2,32.3L16.2,32.3C16.2,32.3,16,32.3,16.2,32.3z"/>
											<path class="st1" d="M16.3,32.6C16.3,32.6,16.2,32.6,16.3,32.6C16.2,32.7,16.2,32.6,16.3,32.6L16.3,32.6z"/>
											<polygon class="st1" points="21.2,37.4 21.1,37.4 21.1,37.3 											"/>
											<path class="st1" d="M22.2,35.1C22.1,35,22.2,35,22.2,35.1C22.3,35.1,22.2,35,22.2,35.1z"/>
											<polygon class="st1" points="21.8,33.6 21.8,33.6 21.7,33.6 											"/>
										</g>
									</g>
								</g>
							</g>
						</g>
					</g>
					<g>
						<polygon class="st0" points="26.1,29.3 48.7,16.2 35.2,8.5 12.7,21.5 						"/>
						<g>
							<g>
								<g>
									<g>
										<path class="st1" d="M26.2,28.9c-0.3,0.2,0.2,0-0.1,0.1C26,29,26.1,28.9,26.2,28.9z"/>
										<path class="st1" d="M25.4,28.6c-1-0.2-2-1.1-3-1.5c-0.1,0,0.1-0.2-0.1-0.3c-1-0.3-2.4-1.2-3.4-2.1H19
											c-0.2-0.2-0.5-0.1-0.8-0.3c0,0,0.1,0,0.1-0.1c-0.1,0.1-0.4-0.2-0.6-0.2c-0.1-0.1,0-0.2-0.1-0.3h-0.2
											c-0.5,0.1-0.8-0.5-1.4-0.6c0,0,0.1,0,0.1-0.1c-0.9-0.3-1.8-0.8-2.8-1.4c0.1,0,0.3,0,0.3-0.1c-0.2,0-0.6-0.1-0.9-0.3
											c0,0,0-0.1-0.1-0.1c0.1-0.1,0.1-0.2,0.4-0.3l0,0c0-0.2,0.5-0.2,0.4-0.4h0.3c-0.1-0.2,0.4-0.1,0.5-0.3l0,0
											c0.2-0.1,0.3-0.1,0.4-0.2l0,0c0.3-0.2,0.6-0.3,0.5-0.4c0.2,0-0.3,0.2,0,0.3c1-0.8,2.2-1.4,3.3-2.1c0.2,0,0.3,0,0.3,0
											c0.1-0.1,0.4-0.3,0.5-0.4c0,0,0.1,0,0.2,0c0.2-0.1,0.1-0.3,0.4-0.4c-0.1,0.1-0.1,0.1,0,0.2c0.1-0.2,0.4-0.4,0.6-0.5
											c0,0-0.1,0.1,0,0.1c0.2-0.3,0.5-0.2,0.6-0.4v0.1c0.4-0.1,0-0.2,0.3-0.3c-0.1,0.1,0,0.1,0,0.1c0.2-0.3,0.7-0.5,0.9-0.7l0,0
											c0.3-0.2,0.6-0.3,1-0.6c0.1,0,0.1,0.2,0.4,0c-0.1-0.1,0.5-0.4,0.2-0.5c0.3-0.1,0.8-0.3,0.9-0.5c-0.1,0.1,0.3,0.1,0,0.3
											h0.2c0,0.1-0.2,0.1-0.1,0.1c0.1-0.1,0.4-0.3,0.5-0.4c0.2-0.2,0.3-0.5,0.6-0.7c-0.1,0.2,0.2,0.1,0.1,0.2l0.3-0.6
											c0.1-0.1,0.1,0.1,0.2,0c0,0,0-0.1,0.1-0.2c0,0,0.5-0.3,0.6-0.2c0.1,0-0.2,0.1,0,0.1c0.2-0.1,0.2-0.2,0.4-0.3l0,0
											c0.2-0.1,0.4-0.3,0.2-0.3c-0.1,0,0.1,0.1-0.1,0.1c0-0.1,0.3-0.3,0.5-0.4c-0.1,0.1,0,0.1,0,0.2c0.2-0.3,0.5-0.5,0.8-0.7
											c0-0.1,0,0.2-0.1,0.2c0.5-0.1,0.8-0.6,1.2-0.7L30,10.6c0.2-0.1,0.3,0,0.4-0.1c0,0.1,0.2-0.1,0.3-0.2c0-0.1,0,0-0.1,0.1
											c0.2-0.2,0.8-0.7,1.3-0.8c0,0,0.2-0.3,0.3-0.4v0.1c0.1,0,0.3-0.2,0.4-0.1c0.1-0.2-0.8,0.6-0.5,0.3c0.1,0,0.3-0.4,0.3-0.2
											C32.6,9.2,32.7,9,33,8.9c-0.1,0-0.1,0.2,0.1,0.1c0.3-0.2,0-0.1,0.3-0.3l0.1-0.1c0-0.1,0.3-0.1,0.1-0.2
											C33.7,8.5,34,8.1,34,8.3v0.1c0.1-0.1,0.1-0.3,0.2-0.4h0.1c0-0.1,0-0.1,0.1-0.2c0,0,0.1,0,0.1-0.1c0.1,0,0.1-0.1,0.2-0.2
											c0.2-0.1,0.5-0.2,0.7-0.3c0.2,0.1,0.4,0.3,0.5,0.4c0.3,0.1,0.5,0.1,0.7,0.3c0,0-0.1,0-0.2,0C36.5,8,36.6,8,36.7,8
											c0,0,0.2,0.3,0.3,0.4c0.2,0,0.2-0.1,0.3-0.1c0.1,0.3,0.6,0.2,0.7,0.5c-0.1,0-0.3-0.1-0.2,0.1c0.1,0.3,0.4,0.1,0.7,0.3V9
											c0.1,0.2,0.5,0.1,0.3,0.3c0.1,0,0.3,0.3,0.4,0.1c0.4,0.4,1.2,0.6,1.3,1c0.1,0,0.2,0.1,0.3,0c-0.1-0.1-0.2,0-0.2-0.1
											c0.1,0,0.1,0,0.1,0c0.1,0.1,0.2,0.2,0,0.3c0.3,0.3,0.5-0.1,0.9,0.2c-0.1,0,0,0.1,0.1,0.2H42c0.3,0.2,0.1,0.2,0,0.3
											c0.2,0.1,0.3,0.2,0.4,0.1l0.1,0.2c-0.1-0.2,0.2,0,0.2,0h-0.1c0,0.1,0.2,0.1,0.3,0.2c0-0.1-0.1-0.2-0.2-0.3
											c0.1,0,0.2,0.1,0.3,0.1c-0.1,0.1,0.2,0.2,0.3,0.3c0.1,0.1,0.2,0,0.2,0c0,0.1,0.2,0.1,0.1,0.1c0,0-0.1-0.1-0.2-0.1
											c0.1,0.1,0,0.2,0.2,0.2s0.1-0.2,0.3,0c-0.1,0-0.1,0-0.2,0l0.2,0.2l0.1-0.1c0,0,0,0,0,0.1c0.1-0.1,0.4,0.2,0.5,0.1
											c0.1,0.1,0.2,0.2,0.3,0.3l0,0c0.1,0.1,0.3,0.2,0.5,0.2l0,0c0.1,0,0.3,0.1,0.4,0.1c0.2,0.2-0.1,0.4,0.1,0.4
											c0.2,0.1,0.4,0,0.4-0.1c0.3,0.3,0.8,0.3,1,0.7c0.1,0,0-0.1,0.2,0c0.4,0.3,0.9,0.5,1.3,0.7c0.4,0.2,0.9,0.5,1,0.7
											c-0.3-0.1-0.2,0-0.3,0c0.2,0,0.2,0.1,0.2,0.1c-0.1,0-0.2,0,0,0.1c0.2,0,0.3,0,0.5-0.1c0,0,0,0-0.1-0.1c0,0,0.1,0,0.1,0.1
											c-0.4,0.3-1.2,0.7-1.5,0.8c0.2-0.1,0.1,0,0,0.1c-0.2-0.1-0.5,0.1-0.7,0.3v0.1h-0.3c-0.1,0.1,0,0.3-0.3,0.3
											c0,0-0.1,0-0.1-0.1c-0.1,0.2-0.3,0.4-0.6,0.5h-0.2c-0.1,0.1-0.2,0.2,0,0.2c-0.4,0.1-0.6,0.2-0.8,0.2
											c-0.4,0.6-1.2,1.1-1.9,1.4v-0.1c-0.2,0,0,0.2-0.2,0.2c0-0.1-0.2,0-0.1-0.2c-0.3,0.1-0.3,0.3-0.4,0.4c0,0.1,0.1-0.1,0.1,0
											c0,0-0.4,0.1-0.4,0.3c-0.1,0-0.1-0.1-0.1-0.2l-0.1,0.1c-0.3,0,0.3-0.5,0-0.6l-0.1,0.1c-0.2,0,0.3-0.4-0.1-0.2
											c-0.1,0.1-0.2,0.4,0,0.4c-0.3,0.2,0,0.4-0.3,0.6c-0.1,0,0.3-0.2,0.1-0.2s-0.3,0.3-0.5,0.3c0.2,0,0.1,0.2,0,0.2
											c-0.2,0,0-0.2-0.2,0c0,0.1-0.2,0.3,0,0.2c0,0.2-0.3,0.1-0.3,0.3c-0.2-0.1,0.1-0.4-0.2-0.3c0.1,0.1-0.3,0.4,0,0.4
											c-0.1,0-0.2,0-0.2-0.2c-0.2,0-0.3,0.4-0.4,0.2v0.1c-0.1,0-0.2,0-0.3,0c-0.1,0.1-0.3,0.4-0.4,0.2c0,0-0.3,0.2-0.2,0.3
											c0.2,0,0.2-0.2,0.4-0.1c-0.2,0-0.3,0.2-0.4,0.3l-0.1-0.1c0,0.1-0.2,0.1-0.2,0.2c0-0.1,0-0.1-0.1-0.1v0.1
											c-0.2,0.2-0.2-0.1-0.4,0l0.2-0.2c0,0-0.2,0-0.3,0.1c0,0.1,0,0.3,0,0.4c-0.1,0.1-0.1-0.1-0.2,0.1l0.1-0.2
											c0,0-0.2-0.1-0.4,0c-0.1,0.1-0.2,0.4,0,0.3c-0.1,0.1-0.3,0.1-0.2,0c-0.2,0.2,0.1,0.1-0.1,0.3c-0.1,0-0.4,0-0.6,0l0.1-0.3
											l0,1.1c0.1-0.2-0.1,0-0.1-0.2c-0.1,0-0.2,0.1-0.3,0.2c0.4,0-0.1,0.5,0,0.6c-0.3,0.3-0.5-0.3-0.7,0.2c0.1,0,0,0.3,0.2,0.1
											c-0.2,0.1,0,0.3-0.4,0.4c0.2-0.2-0.3-0.1-0.1-0.4c0,0.1,0.2,0,0.2-0.1c-0.1,0-0.1-0.2-0.3-0.1c-0.1,0.1-0.3,0.2-0.2,0.3
											c0.1,0.1,0.2-0.1,0.2,0c-0.3,0.2-0.4,0.1-0.4,0.3c0.2-0.1,0.3,0,0.3,0L35.4,25v-0.1c-0.4,0.1,0,0.2-0.4,0.4l-0.2-0.1
											c0-0.2,0.5-0.2,0.3-0.4c-0.2,0.1-0.2,0.3-0.5,0.3l0.1-0.1c-0.1,0-0.3-0.2-0.5,0.1c-0.1,0.1,0,0.1,0,0.2
											c-0.3,0.2-0.4,0.4-0.6,0.5c0-0.2-0.4,0.2-0.2-0.1c0.2,0,0.7-0.3,0.7-0.5c-0.2-0.1,0.3-0.1,0.3-0.4c-0.3,0.1-0.4,0-0.5-0.1
											c-0.1,0-0.1,0.1-0.2,0.2c0,0.1,0.1,0.1,0.2,0.2c-0.3,0.1-0.6,0.4-0.7,0.6c-0.1,0-0.2-0.1,0-0.2c-0.3,0.2-0.7,0.5-1.1,0.6
											c0.3,0-0.4,0.3-0.1,0.3c0.2-0.1,0.4,0,0.4,0.1c-0.1,0.1,0-0.1-0.1-0.1c-0.1,0.2-0.3,0-0.4,0.2c0.3-0.3-0.1-0.3-0.1-0.4
											c-0.2,0.2,0-0.1-0.3,0c-0.2,0.2-0.5,0.4-0.7,0.6c-0.4,0.1-0.8,0.5-1.1,0.7c-0.2,0-0.2-0.2-0.4-0.1s0.2,0.1-0.1,0.2l0,0
											c-0.1,0.1-0.6,0.2-0.6,0.5v-0.2c-0.1,0-0.1,0.1-0.1,0.1l-0.1-0.1c-0.3,0-0.4,0.2-0.6,0.4H28c-0.3,0.3-0.6,0.3-0.9,0.5
											v-0.1l-0.2,0.2c0-0.1-0.2-0.1-0.3,0.1l0.4-0.5c0.2,0-0.1,0.2,0.1,0.3c0.1,0,0.4-0.2,0.4-0.3c-0.1,0.1-0.1,0.1-0.2,0.2
											c-0.1-0.1,0.1-0.2,0.1-0.4c-0.1,0-0.2,0-0.2,0.1c0.1-0.1,0.2-0.2,0.4-0.3c-0.1,0.1,0.1,0,0.1,0.1c0-0.1,0.1-0.3,0.4-0.4
											c0.3,0,0.4-0.4,0.7-0.5c0,0.2-0.1,0.4-0.3,0.5c0.2,0,0.2-0.1,0.4-0.2c0-0.1,0-0.3,0.2-0.5l0.1,0.1
											c0.2-0.2,0.1-0.3,0.4-0.4c0.5-0.2,1-0.5,1.3-0.7l0.1,0.1c0.1-0.3,0.6-0.4,0.8-0.7c0.5-0.2,0.9-0.6,1.2-0.6
											c0.8-0.5,1.4-1,2.2-1.4l-0.1,0.2c0.1-0.2,0.1,0,0.3-0.1c-0.2,0,0.1-0.3,0.2-0.4c0.4-0.1,0.8-0.5,1.1-0.8l0.1,0.1
											c0.2-0.4,0.7-0.4,1.1-0.6c0.1,0,0.2,0,0.3,0c0.1-0.3,0.3-0.3,0.5-0.6c0.2-0.1,0.6-0.3,0.9-0.4c0.8-0.7,1.8-1.1,2.6-1.8
											l0.1,0.1c0.8-0.7,2-1.2,2.7-1.7v0.2c0.3-0.1,0.5-0.4,0.4-0.5c0.3-0.1,0.5-0.4,0.8-0.4c0.1,0,0.2-0.1,0.2-0.2v-0.1
											c0.2,0,0.3-0.1,0.3-0.2l0,0c0.1,0,0.2,0,0.3,0c0,0,0,0,0.1-0.1c-0.1,0-0.1,0-0.4,0c0.1,0-0.1-0.1-0.2-0.1h-0.1l0,0
											c0,0-0.1-0.1-0.2-0.1c0,0.1-0.1,0-0.2,0c-0.4-0.3-0.8-0.6-1.2-0.7c0-0.1,0.2,0,0-0.1c-0.1,0,0,0.1-0.2,0
											c-0.8-0.3-1.3-0.9-2-1.3c-1.2-0.5-2.3-1.3-3.4-1.9l0,0c-0.5,0-0.8-0.7-1.2-0.6c-0.1-0.1-0.3-0.2-0.2-0.3
											c-0.4,0-0.8-0.6-1.3-0.7h0.1c-0.4-0.3-0.8-0.4-1.2-0.8c0.1,0,0.2,0,0.2,0c-0.1-0.2-0.5-0.1-0.5-0.3L35,9.4
											c0,0-0.1-0.1-0.2-0.1c-0.1,0-0.1,0.1-0.3,0.2l-0.6,0.4c-0.4,0.3-0.8,0.5-1.2,0.8c-0.8,0.3-0.2-0.3-0.7,0.2
											c-0.1,0,0,0.1,0,0.1c-0.2,0.2-0.5,0-0.6,0.2c0.1,0.1-0.1,0.1,0,0.2c-0.5,0.2-0.7,0.1-0.9,0.4v-0.1c-0.3,0.4-0.8,0.6-1.1,1
											c-2.3,1.4-4.3,2.7-6.5,4c-2.2,1.2-4.3,2.6-6.6,3.7c-0.6,0.1-0.7,0.1-1.2,0.5v-0.1c0,0.2-0.4,0.3-0.4,0.4l-0.3,0.2l0,0
											c0,0,0,0-0.1,0.1h0.1c0,0-0.3,0-0.2,0s0.1,0,0.2,0h-0.1c0.1,0,0.2,0,0.2-0.1l0,0l0.8,0.4c0.5,0.3,1,0.6,1.5,1
											c1,0.7,2,1.3,3.1,1.9c0.5,0.3,1.2,0.7,1.8,1c1.5,1.1,2.8,2.1,4.5,2.9C26.5,28.7,26.1,28.9,25.4,28.6z"/>
										<path class="st1" d="M26.5,28.7c0.1,0,0.3,0,0.2,0.1C26.6,28.8,26.5,28.8,26.5,28.7z"/>
										<path class="st1" d="M31.8,26.6L31.8,26.6c0,0,0,0.1-0.1,0.1C31.9,26.7,31.8,26.7,31.8,26.6z"/>
										<path class="st1" d="M33.1,25.9c0,0.1-0.2,0.3-0.4,0.4L33.1,25.9z"/>
										<path class="st1" d="M34.5,25.5c0.1,0,0.1,0,0,0.1C34.4,25.6,34.5,25.6,34.5,25.5z"/>
										<path class="st1" d="M34.5,25.3c0.1-0.1,0.2,0,0.2,0C34.7,25.2,34.5,25.4,34.5,25.3z"/>
										<path class="st1" d="M37.1,24c0.1,0,0.2-0.2,0.3-0.1C37.3,23.9,37.1,24.1,37.1,24z"/>
										<path class="st1" d="M38.2,23.2C38.3,23.2,38.3,23.2,38.2,23.2C38.4,23.2,38.4,23.3,38.2,23.2L38.2,23.2z"/>
										<polygon class="st1" points="38.2,9.6 38.4,9.6 38.3,9.7 										"/>
										<path class="st1" d="M28.2,11.9c-0.1,0.1-0.1,0-0.2,0C28.2,11.8,28.1,12,28.2,11.9z"/>
										<polygon class="st1" points="23.3,15.2 23.3,15.1 23.4,15.3 										"/>
									</g>
								</g>
							</g>
						</g>
					</g>
				</g>
			</g>
		</g>
	</g>
</g>
<g>
</g>
<g>
</g>
<g>
</g>
<g>
</g>
<g>
</g>
<g>
</g>
</svg>
