<?xml version="1.0" encoding="utf-8"?>
<!-- Generator: Adobe Illustrator 24.0.1, SVG Export Plug-In . SVG Version: 6.00 Build 0)  -->
<svg version="1.1" id="Layer_1" xmlns="http://www.w3.org/2000/svg" xmlns:xlink="http://www.w3.org/1999/xlink" x="0px" y="0px"
	 viewBox="0 0 82.1 60.9" style="enable-background:new 0 0 82.1 60.9;" xml:space="preserve">
<style type="text/css">
	.st0{fill:#202020;}
	.st1{fill:#FEFEFE;}
	.st2{fill:#002A54;}
	.st3{fill:#FFFFFF;}
</style>
<g>
	<g>
		<g>
			<g>
				<g>
					<g>
						<path class="st0" d="M2.5,33C2.6,33,2.7,33,2.5,33L2.5,33z"/>
						<path class="st0" d="M2.6,29.3c0.4,0,0,0.1,0.2,0.2H2.6c0.3,0,0.1,0.1-0.1,0.2H2.4h0.1H2.4c0.1,0,0.1,0,0.1,0
							c-0.1,0-0.1,0-0.2,0h0.1c0.3,0,0,0,0.1,0.1H2.4c0.2,0,0.2,0.1,0.2,0.1c-0.1,0-0.1,0-0.2,0c0.1,0,0.2,0,0.2,0
							c-0.1,0,0.1,0,0.1,0l0,0c0.1,0-0.1,0,0.1,0H2.7c0.2,0-0.1,0,0,0l0,0c0.1,0-0.1,0,0,0l0,0c0.1,0-0.1,0,0.1,0
							c-0.1,0-0.1,0-0.2,0C2.8,30,2.7,30,2.7,30.1c-0.1,0-0.1,0-0.1,0s0,0,0.1,0H2.6c-0.1,0,0.2,0,0.1,0H2.6c0.1,0,0.1,0,0.1,0
							s0,0-0.1,0c0.1,0,0,0,0.1,0h0c-0.1,0,0.2,0,0.1,0H2.7c0.2,0,0.1,0,0.2,0l0,0l0,0H2.7c0.2,0,0.1,0,0.3,0c0,0-0.1,0,0,0
							c-0.1,0-0.2,0-0.2,0H2.7c-0.1,0,0,0-0.1,0h0.1c0.1,0,0.3,0,0.4,0c-0.1,0-0.2,0-0.2,0h0.4H3.2c0.1,0,0.1,0,0.1,0s0.1,0-0.1,0
							c-0.1,0,0,0-0.1,0h0.1l0,0c0,0,0.1,0,0.2,0H3.3c0.1,0,0.1,0,0.1,0H3.3c0.1,0,0.2,0,0.3,0s-0.2,0-0.1,0c-0.1,0,0.2,0,0,0.1h0.1
							H3.5c-0.1,0,0,0,0.1,0s0,0,0,0c0.1,0,0.2,0,0.1,0.1c0.1,0,0.2,0,0.2,0H3.8c-0.1,0,0,0-0.1,0c0.1,0-0.1,0,0,0c-0.1,0,0.2,0,0,0
							c0,0,0.1,0,0,0c0,0-0.2,0-0.1,0h0.1h0.1c0.1,0,0,0,0.1,0c-0.1,0,0.1,0-0.1,0H3.7c0,0,0.1,0,0.2,0c0,0,0,0-0.1,0
							c0.2,0,0,0,0.1,0c-0.1,0,0,0-0.1,0c0.1,0,0.1,0,0.1,0s0,0-0.1,0s0,0,0,0s-0.1,0-0.2,0c0.1,0,0.2,0,0.3,0c-0.2,0,0.1,0-0.1,0
							c0,0-0.1,0-0.2,0c-0.2,0,0.2,0,0.1,0h0.2c-0.1,0,0.1,0-0.1,0c0.1,0-0.1,0,0.1,0c-0.1,0,0.1,0.1-0.2,0.1c0,0,0,0,0.1,0
							s-0.1,0,0,0h0.1c0,0-0.1,0-0.2,0c-0.1,0,0.3,0,0.2,0s-0.1,0-0.1,0h0.1c0,0-0.2,0-0.3,0c0,0,0,0,0.1,0H3.5c0.1,0,0.1,0,0.1,0
							l0,0c-0.1,0,0,0,0,0c0.1,0,0.1,0,0.1,0c0.1,0,0,0,0.1,0c-0.1,0-0.1,0-0.1,0h0.1c-0.1,0,0,0-0.1,0c0,0,0.1,0,0,0s-0.2,0-0.1,0
							c0.1,0,0.2,0,0.2,0H3.7H3.6h0.1c0,0,0,0-0.1,0c0.1,0,0,0,0.2,0H3.7l0,0c-0.1,0,0,0,0.1,0l0,0c0,0,0,0,0.1,0
							c-0.1,0-0.4,0-0.3,0c0,0,0.2,0,0.3,0c-0.1,0,0.1,0-0.1,0.1c0.1,0,0.1,0,0.1,0s0.1,0.1-0.1,0.1c-0.1,0-0.1,0-0.2,0
							c0.1,0-0.1,0,0.1,0c0.1,0,0.1,0,0.2,0c0.1,0,0.1,0,0,0c0.1,0,0.1,0,0.1,0c-0.2,0-0.2,0-0.1,0H4H3.9c0,0,0.2,0,0.1,0H3.9
							c0.1,0,0.2,0,0.1,0H3.9H4c-0.1,0-0.1,0-0.2,0c0.3,0,0.3,0.1,0.3,0.1H4c-0.1,0,0.1,0,0.1,0c-0.1,0-0.1,0-0.2,0
							c-0.1,0,0.1,0,0.2,0c0.1,0-0.1,0,0.1,0c0,0-0.1,0,0.1,0c-0.1,0-0.2,0-0.2,0h0.1c-0.2,0-0.3,0-0.5,0l0,0c-0.1,0-0.2,0-0.2,0
							c0.1,0,0.3,0,0.4,0c0,0,0.4,0,0.3,0c-0.1,0,0,0-0.1,0s0.1,0,0,0c0.1,0,0.2,0,0.2,0c-0.1,0-0.1,0-0.1,0c0.1,0,0.1,0,0.2,0
							c0.2,0-0.1,0,0.1,0c-0.1,0-0.3,0-0.4,0c0.1,0,0.2,0,0.4,0c0,0-0.1,0-0.2,0c-0.1,0,0.2,0,0,0h0.1H4.3c0,0,0.2,0,0,0
							c0,0,0,0,0.1,0s-0.1,0,0.1,0c-0.1,0,0,0,0.1,0H4.5c0,0,0,0,0.1,0H4.5h0.1c0.1,0-0.2,0-0.2,0H4.3H4.2c0.1,0,0.2,0,0.3,0
							s-0.1,0,0,0H4.4H4.2c0,0,0.2,0,0.3,0H4.4c0,0,0.1,0,0.2,0c-0.1,0-0.2,0-0.3,0H4.1l0,0c-0.1,0-0.1,0-0.3,0c0,0,0,0,0.1,0
							c0.2,0,0.3,0,0.6,0c0.1,0-0.5,0-0.2,0c0.1,0,0.2,0,0.2,0s0.2,0,0.1,0c-0.1,0-0.2,0-0.4,0c0.1,0,0.1,0,0,0s-0.2,0-0.2,0
							s0,0,0.1,0s0,0,0.1,0c0,0-0.1,0,0.1,0c0,0,0.1,0,0.2,0h0.1H4.5c-0.1,0,0.1,0,0.1,0H4.4c-0.1,0,0.1,0-0.2,0h0.1c0,0,0,0-0.1,0
							c0,0-0.3,0-0.1,0c0.1,0,0.1,0,0.2,0h0.1c-0.2,0,0,0-0.2,0c0.1,0,0.1,0-0.1,0c-0.2,0,0,0-0.2,0c0,0-0.2,0-0.3,0h0.1
							c0.1,0,0.1,0,0.3,0c0,0,0,0,0.1,0c-0.1,0-0.2,0-0.2,0s0,0,0,0.1c0.2,0,0.1,0,0.2,0c0,0,0.2,0,0.3,0H4.3c0.1,0-0.2,0,0,0
							c-0.1,0-0.2,0-0.4,0c0.1,0-0.1,0-0.1,0c0.1,0,0.2,0,0.2,0c-0.1,0,0,0,0,0.1c-0.1,0-0.3,0-0.3,0s0.2,0,0.1,0l0,0
							c0,0-0.1,0,0.1,0H3.7c0,0,0,0,0.1,0c-0.1,0-0.1,0-0.2,0c-0.1,0,0,0,0,0h0.1c0.1,0,0,0,0,0H3.6h0.1c-0.1,0-0.2,0-0.1,0H3.3
							c0.1,0,0.1,0,0.2,0c0.1,0,0.1,0,0,0c0,0,0,0,0.1,0c-0.1,0-0.1,0-0.3,0l0,0c-0.1,0-0.1,0-0.1,0c0.1,0,0.1,0,0.1,0
							c-0.1,0-0.2,0-0.1,0c0.2,0-0.1,0-0.1,0c0.1,0,0.3,0,0.3,0c0.1,0,0,0,0.1,0c-0.1,0-0.3,0-0.3,0h0.1c-0.1,0-0.2,0-0.2,0
							c0.1,0,0.1,0,0.1-0.1h0.1c-0.2,0-0.1,0-0.2,0c0.1,0-0.1,0,0.1-0.1c-0.1,0-0.1-0.1-0.1-0.1h0.1c-0.1,0,0.1,0,0.1,0
							c-0.1,0-0.1,0-0.2,0c0.1,0,0,0-0.1-0.1h0.1c-0.2,0,0,0,0-0.1h0.1c-0.2,0-0.1,0-0.3,0c0,0,0,0,0.1,0c-0.2,0-0.1-0.1-0.2-0.1
							h0.1c-0.3,0,0-0.1-0.2-0.1h0.2c0.1,0-0.1,0-0.2,0c0.1,0-0.1,0,0.1,0H2.7c0.1,0,0.1,0,0-0.1l0,0h0.1c-0.1,0,0.1,0-0.2,0
							c0.1,0-0.1-0.1,0.1-0.1c-0.1,0-0.1,0-0.1,0s0.1,0,0-0.1h0.1H2.6c-0.1,0,0.1-0.1,0.1-0.1c-0.1-0.1-0.1-0.1-0.1-0.2h0.1
							c-0.2,0,0.2,0-0.1-0.1c0.1,0,0,0,0.1,0c-0.1,0,0.1,0,0-0.1l0,0c0.1,0,0,0,0.1-0.1c0,0,0,0,0.1,0s-0.2,0,0,0H2.8
							c0.1,0-0.1-0.1-0.1-0.2c0.1,0,0.4,0,0.2,0c0.1,0-0.1,0,0,0c-0.1,0,0.3,0,0.1,0c-0.1,0-0.1,0-0.2,0c0.1,0,0.2,0,0.1,0H3
							c-0.2,0-0.1,0-0.4-0.1c-0.1-0.1-0.2-0.2-0.2-0.3c0.1-0.1-0.1-0.2,0.1-0.3c0.2,0,0.2,0,0.1-0.1c0,0,0,0,0.1,0c-0.2,0,0,0-0.2,0
							v-0.1h0.1H2.5h0.1c0,0-0.1,0-0.2,0c-0.1-0.1,0.2-0.2,0.1-0.3c0.1,0,0-0.1,0-0.1c0.2-0.1,0.4-0.2,0.2-0.2
							C2,29.3,2.5,29.3,2.6,29.3z"/>
						<path class="st0" d="M2.5,33c0.1,0,0.1,0,0.2,0C2.7,33,2.6,33,2.5,33z"/>
						<path class="st0" d="M3.3,32.7C3.3,32.7,3.4,32.7,3.3,32.7C3.4,32.7,3.5,32.7,3.3,32.7C3.4,32.7,3.4,32.7,3.3,32.7z"/>
						<path class="st0" d="M3.4,32.6c0.1,0,0.1,0,0.1,0H3.4z"/>
						<path class="st0" d="M3.7,32.6C3.8,32.6,3.8,32.6,3.7,32.6L3.7,32.6z"/>
						<path class="st0" d="M3.5,32.6C3.5,32.6,3.6,32.6,3.5,32.6C3.5,32.6,3.6,32.6,3.5,32.6z"/>
						<path class="st0" d="M3.7,32.4L3.7,32.4C3.7,32.4,3.8,32.4,3.7,32.4z"/>
						<path class="st0" d="M3.6,32.4L3.6,32.4C3.6,32.4,3.7,32.4,3.6,32.4L3.6,32.4z"/>
						<path class="st0" d="M3.3,31.3L3.3,31.3L3.3,31.3z"/>
						<path class="st0" d="M3.3,30.8C3.3,30.8,3.4,30.8,3.3,30.8C3.4,30.8,3.3,30.8,3.3,30.8z"/>
						<polygon class="st0" points="2.9,30.5 2.9,30.5 2.8,30.5 						"/>
					</g>
				</g>
			</g>
		</g>
	</g>
	<g>
		<g id="XMLID_1_">
			<g>
				<path class="st1" d="M57.5,27.2c0.1-0.1,0.3-0.1,0.3,0.1C57.8,27.3,57.5,27.4,57.5,27.2z"/>
				<path class="st1" d="M56.6,27.1c0.3-0.1,0.4,0.1,0.9,0.1c-0.4,0.3-0.6,0-0.9,0.1C56.6,27.2,56.6,27.2,56.6,27.1z"/>
				<path class="st2" d="M57.8,27.3C57.5,27.1,57.5,27.5,57.8,27.3L57.8,27.3z M25.4,30.5c0.1-0.4-1.2-0.3-1.6-0.3
					c0.3,0.2,0.6,0.2,1,0.2C25,30.5,25.2,30.6,25.4,30.5z M56.7,27.3c0.2,0,0.4,0.2,0.9-0.1c-9.1-0.4-16.4-4.3-23.9-9
					c-0.6-0.3-0.6-0.5,0-0.8c3.1-1.4,6.3-5.1,9.9-3.1c8.1,4.7,16.1,9.3,24.2,13.9c0.6,0.3,0.6,0.5,0,0.8c-3.2,1.4-6,4.3-9.5,4.9
					c-10.8-1.1-21.8-2.6-32.5-3.4c8.5,0.5,15.5,4.4,22.6,8.9c1.1,1.1-4.6,3-5.6,4c-5.9,2.1-21.6-11.3-28.5-14
					c-1.6-1.2,6.9-4.3,8.1-5.6C33.6,24,45.2,26.4,56.7,27.3z"/>
				<path class="st3" d="M67.8,44.3c7.5-4.3,11.3-10,11.3-15.6C83.2,63.9,4.6,65.4,2.8,33l0.6-0.2C12.9,54.2,49.5,54.6,67.8,44.3z"
					/>
				<path class="st1" d="M25.5,30.4c0,0.3-0.5,0.1-0.7,0c0,0,0-0.1,0-0.2C25.1,30.3,25.3,30.3,25.5,30.4z"/>
				<path class="st3" d="M56.6,27.1c0,0,0,0.1,0,0.2c-11.4-0.9-23.1-3.3-34.4-3.4c-1.1,1.2-9.7,4.5-8.1,5.6c7,2.7,22.5,16.1,28.5,14
					c1-1,6.6-2.9,5.6-4c-7.1-4.5-14.1-8.4-22.6-8.9c10.8,0.8,21.7,2.3,32.5,3.4c3.4-0.5,6.2-3.4,9.5-4.9c0.6-0.3,0.6-0.5,0-0.9
					c-8.1-4.6-16.1-9.3-24.2-13.9c-3.6-2-6.8,1.7-9.9,3.1c-0.6,0.3-0.6,0.5,0,0.8C40.9,22.7,47.9,26.7,56.6,27.1z M68,13.2
					C111.4,45,17,68.5,3.4,32.9C-0.1,4.7,50,1.5,68,13.2z"/>
				<path class="st1" d="M24.8,30.3c0,0,0,0.1,0,0.2c-0.4,0-0.7,0-1-0.2C24.3,30.1,24.5,30.3,24.8,30.3z"/>
			</g>
			<g>
				<g>
					<g>
						<g>
							<g>
								<g>
									<path class="st0" d="M3,32.4c0.1,0.7,0.1-0.4,0.1,0.5C3.1,32.8,3,32.6,3,32.4z"/>
									<path class="st0" d="M4.2,35c1.4,1.8,3,4.4,5,5.9C9.4,41.1,9,41,9.5,41.4c2,1.4,5.1,3.5,7.7,5H17c0.5,0.3,1.2,0.4,1.7,0.7
										c0,0-0.2,0-0.1,0.1c0.2,0,1,0.3,1.3,0.3c0.2,0.1,0.1,0.2,0.4,0.4h0.4c1,0.1,2.2,0.7,3.4,1c-0.1,0-0.2,0-0.1,0.1
										c1,0.2,2.2,0.4,3.3,0.7c1.2,0.2,2.4,0.5,3.5,0.6c-0.1,0-0.2,0.1-0.1,0.2c0.1-0.1,0.9-0.1,1.5,0c0.3,0.2,1.1,0,1.8,0.2h-0.1
										c0.6-0.1,0.8,0.2,1.2,0l0.3,0.1c0.3-0.2,0.8,0.2,1.2,0.1l0,0c0.4,0,0.6,0.1,1,0.1l0,0c0.9,0,1.4,0.1,1.4,0
										c0.3,0.1-0.9,0-0.4,0.2c1.5,0,3-0.1,4.5-0.1c1.5-0.1,3-0.2,4.5-0.3c0.4,0,0.6,0,0.6,0.1c0.3-0.1,1.1-0.1,1.4-0.3
										c-0.1,0,0.2,0,0.4,0c0.6,0,0.6-0.3,1.2-0.3c-0.2,0.1-0.3,0.1-0.2,0.2c0.5-0.2,1.2-0.3,1.8-0.5c-0.1,0-0.2,0.1-0.2,0.1
										c0.6-0.3,1.2-0.2,1.7-0.4l-0.2,0.1c0.9-0.1,0.2-0.3,1-0.4c-0.2,0.1-0.1,0.1-0.1,0.1c0.7-0.3,1.9-0.6,2.6-0.9l0,0
										c0.8-0.2,1.6-0.5,2.4-0.8c0.3-0.1,0,0.3,0.8-0.1c-0.1-0.1,1.3-0.6,0.8-0.6c0.7-0.3,1.8-0.7,2.2-0.9
										c-0.3,0.2,0.4,0.1-0.1,0.3c0.2,0,0.3,0,0.5-0.1c0,0.1-0.4,0.2-0.3,0.2c0.3-0.1,1.1-0.6,1.3-0.7c0.4-0.4,0.8-0.8,1.6-1.3
										c-0.3,0.3,0.3,0,0.1,0.2l0.9-1c0.3-0.2,0.1,0.1,0.5-0.2c-0.1,0,0.1-0.2,0.2-0.3c0.1,0,1-0.8,1.2-0.7c0.1,0-0.4,0.3-0.1,0.2
										c0.4-0.3,0.4-0.4,0.9-0.8l0,0c0.3-0.2,0.8-0.8,0.4-0.6c-0.2,0.2,0.1,0-0.2,0.2c0.1-0.2,0.6-0.7,1-1.1
										c-0.1,0.2-0.1,0.2-0.1,0.3c0.4-0.6,1-1.2,1.5-1.9c-0.1-0.1-0.1,0.3-0.2,0.4c0.8-0.7,1.4-1.8,2-2.4c-0.1,0.1-0.1,0-0.1,0
										c0.3-0.4,0.4-0.3,0.5-0.6c0.1,0,0.2-0.4,0.4-0.7c0-0.2,0.1,0-0.1,0.2c0.1-0.2,0.3-0.8,0.6-1.4c0.1-0.3,0.3-0.6,0.5-0.9
										s0.3-0.6,0.4-0.9c-0.1,0,0.1-0.7,0.2-0.9l0.1,0.1c0.1-0.2,0.3-0.8,0.4-0.8c0.1-0.6-0.6,2-0.5,1.3c0.2-0.2,0.2-1,0.3-0.8
										c0.2-0.5,0.1-1,0.4-1.5c-0.1,0.1,0.1,0.5,0.1,0c0.1-0.7,0-0.2,0.1-0.8v-0.4c-0.1,0,0-0.2,0-0.3s0-0.1-0.1-0.1
										c0.1,0.1-0.2-0.9,0-0.9l0.2,0.1c-0.1-0.3-0.2-0.5-0.3-0.7v-0.1c-0.2,0-0.1-0.7-0.4-1.1c-0.1-0.7-0.5-1.6-0.5-1.9
										c-0.2-0.5-0.5-0.8-0.7-1.4c0.1,0.1,0.1,0.2,0.2,0.2c-0.1-0.3-0.2-0.4-0.4-0.7c0.1,0-0.3-0.7-0.4-1.1
										c-0.3-0.4-0.3-0.2-0.4-0.2c-0.1-0.5-0.9-1.1-1.1-1.7c0.1,0.1,0.5,0.5,0.3,0.2c-0.1-0.5-0.7-0.6-1.1-1.3v0.3
										c-0.1-0.3-0.8-0.7-0.6-0.8c-0.2-0.1-0.6-0.7-0.6-0.5c-0.8-1-2.3-1.8-2.8-2.5C69.3,14.2,69,14,69,14.1
										c0.2,0.3,0.4,0.2,0.4,0.3c-0.1-0.1-0.2-0.1-0.2,0c-0.3-0.3-0.5-0.4-0.1-0.3c-0.7-0.6-0.9-0.2-1.8-0.8c0.1,0,0-0.1-0.3-0.3
										l-0.6-0.2c-0.6-0.4-0.3-0.3-0.2-0.5c-0.4-0.2-0.8-0.4-0.9-0.4L65,11.6c0.3,0.3-0.3-0.1-0.5-0.1h0.2c0-0.1-0.4-0.2-0.7-0.3
										c0,0.1,0.4,0.3,0.6,0.4c-0.2,0-0.5-0.2-0.7-0.2c0.1-0.1-0.5-0.3-0.8-0.5s-0.4,0-0.5-0.1c0-0.1-0.5-0.2-0.2-0.2
										c0.1,0,0.2,0.2,0.4,0.2c-0.2-0.1-0.1-0.2-0.6-0.3c-0.4-0.1,0,0.3-0.6,0c0.2,0,0.2,0,0.4,0l-0.6-0.3l-0.1,0.1
										c-0.1-0.1,0,0,0-0.1c-0.2,0-0.9-0.3-1.1-0.2c-0.3-0.1-0.6-0.3-0.9-0.4h0.1c-0.3-0.2-0.8-0.3-1.1-0.3l0,0
										c-0.2-0.1-0.7-0.2-0.9-0.2c-0.5-0.2-0.1-0.5-0.6-0.5c-0.5-0.1-0.8,0-0.6,0.1c-0.9-0.3-2-0.4-2.8-0.7c-0.1,0-0.1,0.1-0.3,0
										c-1.3-0.3-2.9-0.3-3.9-0.7c0.4,0,0-0.1,0-0.2c-0.3,0-0.4-0.2-0.5,0c0,0.1,0,0.1,0.4,0.2c-0.8,0-2.1-0.2-2.5-0.3
										c0.2,0.1,0,0.1-0.1,0.1c0.1-0.2-0.5-0.2-1-0.2L45.4,7l-0.3-0.1c-0.2,0-0.2,0.2-0.6,0.1l-0.1-0.1c-0.5,0-1.1,0.2-1.6,0.1
										l-0.4-0.2c-0.2,0-0.6,0.1-0.2,0.1c-0.9-0.1-1.4-0.1-1.7-0.2C39,7,36.8,7.1,35.1,7.2l0.1-0.1c-0.5,0-0.2,0.2-0.6,0.1
										c0.1-0.1-0.4-0.1,0-0.2c-0.7,0-0.9,0.2-1.3,0.3c-0.1,0.1,0.3-0.1,0.3,0c-0.1,0-0.9,0-1,0.2c-0.2,0-0.1-0.2,0-0.2l-0.4,0.1
										c-0.5-0.1,1.1-0.5,0.6-0.6l-0.4,0.1c-0.4-0.1,1-0.3,0-0.2C32,6.8,31.7,7.1,32,7.1c-0.9,0.2-0.4,0.4-1.3,0.5
										c-0.3,0,0.7-0.1,0.5-0.2c-0.4,0-0.9,0.2-1.2,0.2c0.4,0,0.1,0.2-0.2,0.3c-0.5,0,0.3-0.2-0.4-0.1c-0.1,0.1-0.7,0.3-0.1,0.2
										c-0.2,0.2-0.7,0.1-1,0.3c-0.2-0.1,0.6-0.4-0.1-0.4c0.1,0.1-0.9,0.3-0.4,0.5c-0.3,0-0.3-0.1-0.1-0.2c-0.4,0-0.9,0.4-1.1,0.2
										l-0.1,0.2c-0.1,0-0.3,0-0.5,0c-0.4,0.1-1.1,0.5-1.1,0.3c-0.1,0-0.9,0.3-0.6,0.3c0.5-0.1,0.5-0.3,0.9-0.1
										c-0.4-0.1-0.7,0.2-1,0.3l-0.1-0.1c-0.2,0.1-0.6,0.2-0.6,0.3c0.1-0.1,0-0.1-0.1-0.1l-0.1,0.2c-0.7,0.3-0.2-0.2-0.9,0.1
										l0.5-0.3c-0.1,0-0.4,0-0.7,0.2c-0.1,0.1-0.3,0.3-0.4,0.5c-0.4,0.2-0.2-0.1-0.5,0.2c0.1-0.1,0.3-0.2,0.4-0.3
										c0.1-0.1-0.4-0.1-0.9,0.1c-0.3,0.2-0.7,0.5-0.2,0.3c-0.2,0.1-0.6,0.2-0.4,0c-0.5,0.2,0.1,0.1-0.3,0.3
										c-0.2,0-0.9,0.2-1.3,0.2l0.4-0.4l-0.3,0.1c0.4-0.3-0.3,0-0.1-0.3c-0.2,0.1-0.5,0.2-0.7,0.4c0.7-0.1-0.6,0.6-0.3,0.7
										c-0.9,0.5-0.8-0.2-1.5,0.5c0.2,0-0.2,0.3,0.3,0c-0.5,0.3-0.3,0.4-0.9,0.6c0.4-0.3-0.6,0.1,0-0.4c0,0.1,0.4-0.2,0.5-0.2
										c-0.3,0-0.1-0.2-0.6,0.1c-0.3,0.2-0.8,0.5-0.6,0.5c0.1,0.1,0.5-0.3,0.4-0.1c-0.6,0.4-0.8,0.3-1,0.7
										c0.4-0.3,0.6-0.2,0.6-0.1c-0.1,0.1-0.3,0.2-0.4,0.3l0.1-0.1c-0.8,0.4-0.1,0.3-0.9,0.7c-0.1,0-0.3,0-0.4,0.1
										c0.1-0.3,1.1-0.6,0.8-0.7c-0.5,0.3-0.6,0.5-1,0.7c0.1-0.1,0.2-0.2,0.3-0.3c-0.2,0.1-0.5,0-1.1,0.6c-0.3,0.3,0,0.1,0,0.2
										c-0.7,0.6-0.9,0.8-1.3,1.2c0-0.2-0.8,0.6-0.4,0.1c0.3-0.1,1.3-0.9,1.4-1.2c-0.4,0,0.6-0.4,0.6-0.7
										c-0.6,0.4-0.7,0.2-0.9,0.2c-0.2,0.1-0.3,0.3-0.4,0.4c0,0.2,0.2,0,0.3,0.1c-0.7,0.5-1.2,1-1.4,1.4c-0.2,0.1-0.3,0,0-0.2
										c-0.7,0.7-1.4,1.4-2,2c0.5-0.3-0.6,0.8-0.2,0.6c0.3-0.3,0.7-0.5,0.6-0.3c-0.2,0.2-0.1-0.1-0.2,0c-0.2,0.3-0.5,0.3-0.6,0.7
										c0.5-0.7-0.1-0.3-0.1-0.5c-0.3,0.5-0.1-0.1-0.4,0.4c-0.3,0.5-0.7,1.2-1,1.8c-0.6,0.7-1.1,1.9-1.3,2.7
										c-0.2,0.3-0.3,0-0.5,0.4c-0.1,0.5,0.3-0.3,0,0.4V24c0,0.2-0.5,1.3-0.3,1.6L4,25.3c-0.1,0.1,0,0.3,0,0.4
										c-0.1,0-0.1,0.2-0.1-0.1c-0.2,0.5-0.2,1-0.2,1.5l0.1-0.3c0,0.9-0.1,1.5-0.1,2.3H3.6l0.1,0.5c-0.1-0.1-0.2,0.3-0.1,0.6
										c-0.1-0.4-0.2-0.9-0.3-1.3c0.1-0.4,0.1,0.4,0.2,0.2c0.1-0.2,0.1-1,0-1.1c0,0.3,0,0.3,0,0.6c-0.2,0.1-0.1-0.4-0.2-0.6
										c0,0.2-0.1,0.4,0,0.4c-0.1-0.3-0.1-0.7,0-1.2c0,0.4,0.1-0.2,0.1,0c-0.1,0-0.1-0.6,0-1.2c0.2-0.4,0.1-1.2,0.4-2
										c0.1,0.3,0,0.7,0,1.2c0.2-0.5,0.1-0.5,0.3-1c0-0.3-0.2-0.5,0-1.1h0.1c0.2-0.5,0-0.6,0.3-1.3c0.5-1.1,1.3-2.2,1.8-3h0.1
										c0.1-0.6,1-1.4,1.4-2c0.4-0.4,0.9-0.9,1.3-1.3c0.4-0.4,0.8-0.7,1.1-0.9c1.6-1.4,3.1-2.5,5.1-3.5L15,11.4
										c0.3-0.3,0.3,0,0.6-0.2c-0.4,0.1,0.4-0.4,0.6-0.6c0.9-0.3,2-1,2.8-1.4l0.1,0.1c0.7-0.5,1.8-0.7,2.8-1c0.1,0,0.4,0,0.6-0.1
										c0.5-0.3,0.8-0.4,1.6-0.7c0.6-0.2,1.6-0.4,2.3-0.5c2.3-0.8,4.7-1,7.1-1.4l0.2,0.1c2.4-0.5,5.3-0.4,7.4-0.5l-0.2,0.2
										c0.6,0.1,1.5,0,1.3-0.2c0.6,0.1,1.6-0.1,2,0.1c0.7,0.1,0.8,0,1.4,0c1.3,0.2,1.8,0.2,3,0.3h-0.3c-0.1,0-0.2,0.1,0.1,0.2
										c0.5,0,1.7,0.3,1.3,0C51,6.1,52.8,6.1,54,6.6c-0.1-0.1,0.2,0,0.4,0c1.1,0.2,2.3,0.7,3.2,0.8c0.2,0.1-0.3,0,0.1,0.2
										c0.3,0,0-0.1,0.4,0C60,8,61.7,8.9,63.4,9.5c2.9,1,5.8,2.6,8.1,4.4h-0.1c0.9,0.5,1.7,1.6,2.5,2c0.1,0.2,0.6,0.7,0.4,0.6
										c0.3,0.2,0.7,0.7,1.1,1.2c0.4,0.5,0.8,1,1.1,1.4c-0.1-0.1-0.1-0.1-0.2-0.2c0.6,1,1.3,1.8,1.7,3c-0.1-0.1-0.2-0.3-0.2-0.3
										c0.1,0.5,0.7,0.9,0.6,1.3c0.1,0.3,0.2,0.1,0.1,0c0.5,1.3,0.9,2.6,1.1,4l0.2,1c0,0.1,0.1,0.5,0,0.7l-0.1,0.5
										c-0.1,0.7-0.3,1.4-0.4,2.1c-0.8,1.8-0.4,0-0.8,1.5c-0.1,0.1,0.1,0.1,0,0.1c-0.1,0.6-0.6,0.8-0.7,1.2c0.2-0.1-0.1,0.3,0,0.3
										c-0.3,0.5-0.5,0.8-0.7,1.1c-0.1,0.1-0.2,0.3-0.3,0.4c-0.1,0.2-0.2,0.3-0.3,0.5v-0.1c-0.2,0.5-0.6,1-0.9,1.5
										c-0.3,0.5-0.7,0.9-0.9,1.4c-2.1,2.4-4.4,4.4-7,5.9s-5.3,2.8-8.2,3.8c-2.9,0.9-5.7,1.6-8.6,2c-0.7,0.1-1.5,0.2-2.2,0.3
										s-1.5,0.2-2.2,0.2c-1.5,0.1-3,0.2-4.5,0.1c-1.4-0.2-1.5-0.2-3.1-0.1c0.1,0,0.2,0,0.1-0.1c-0.1,0.2-1.1,0-1.2,0.1
										c-2.2-0.1-4.3-0.3-6.5-0.7c0.4,0,0.6-0.1,0.1-0.1h-0.5l-0.1-0.1c-0.3,0-0.6,0-0.3,0.1c-5.7-0.9-11.1-2.8-16.1-5.6
										c-0.6-0.3-1.3-0.8-2-1.2s-1.4-0.9-2-1.3c-3.3-2.9-5.8-6-7.7-10C2.7,33.1,3.3,33.5,4.2,35z"/>
									<path class="st0" d="M2.9,31.5C3,31.3,3,30.8,3.1,31.2C3,31.3,3,31.6,2.9,31.5z"/>
									<path class="st0" d="M7.2,19.5c0,0,0.1-0.1,0.2-0.2c-0.1,0.1-0.1,0.3-0.2,0.4C7.2,19.6,7.2,19.6,7.2,19.5z"/>
									<path class="st0" d="M9.4,17.1c0,0.1-0.4,0.6-0.7,0.9L9.4,17.1z"/>
									<path class="st0" d="M12,15.4c0.3-0.1,0.2,0-0.1,0.2C11.8,15.6,11.9,15.5,12,15.4z"/>
									<path class="st0" d="M12,15.2c0.2-0.2,0.3-0.2,0.5-0.2C12.5,14.9,12,15.3,12,15.2z"/>
									<path class="st0" d="M17.9,12.1c0.1-0.1,0.4-0.3,0.6-0.3C18.3,11.8,17.8,12.2,17.9,12.1z"/>
									<path class="st0" d="M20.8,10.8c0.1,0,0.1,0,0.2-0.1C21.2,10.7,21,10.8,20.8,10.8L20.8,10.8z"/>
									<polygon class="st0" points="74.3,18.9 74.1,18.7 74.1,18.6 									"/>
									<path class="st0" d="M72.1,40.4c-0.2,0.3-0.2,0.1-0.3,0.1C72.1,40.3,71.8,40.7,72.1,40.4z"/>
									<polygon class="st0" points="60.8,47.5 60.9,47.5 61,47.7 									"/>
								</g>
							</g>
						</g>
					</g>
				</g>
				<g>
					<g>
						<g>
							<g>
								<g>
									<path class="st0" d="M79.3,34C79.3,33.9,79.3,33.9,79.3,34l-0.5-0.1c0,0.1,0,0,0.1,0L79.3,34C79.3,33.9,79.2,33.9,79.3,34
										l-0.4-0.1V34l-0.1-0.1L79.3,34C79.4,33.9,79.3,34,79.3,34z"/>
									<path class="st0" d="M2.7,34.2c0.5,1.1,0.4,2.7,1.1,3.8c0.1,0.1-0.2,0-0.1,0.3c0.7,1.1,1.3,2.8,2,4.2H5.6
										c0.1,0.3,0.5,0.4,0.6,0.7H6.1c0.1,0,0.4,0.4,0.5,0.5c0,0.1,0,0.2,0,0.3h0.2c0.5,0.2,0.7,0.9,1.3,1.3H8
										c0.9,0.6,1.8,1.5,2.8,2.2c-0.1,0-0.1,0-0.1,0.1c0.1-0.1,0.4,0.1,0.7,0.3c0,0.2,0.5,0.2,0.8,0.5l0,0c0.3,0,0.3,0.3,0.6,0.3
										l0.1,0.2c0.2-0.1,0.3,0.3,0.5,0.3l0,0c0.2,0.1,0.2,0.2,0.4,0.3l0,0c0.4,0.2,0.6,0.4,0.7,0.3c0.1,0.2-0.4-0.2-0.3,0.1
										c1.4,0.6,2.8,1.4,4.1,2c0.1,0.1,0.2,0.2,0.2,0.3c0.1,0,0.5,0.2,0.7,0.2c-0.1,0,0.1,0.1,0.1,0.2c0.2,0.2,0.4,0,0.6,0.1
										c-0.1,0-0.2,0-0.2,0.1c0.3,0,0.6,0.1,0.9,0.2c-0.1,0-0.1,0-0.1,0c0.4,0,0.6,0.2,0.9,0.2h-0.1c0.4,0.3,0.2-0.1,0.6,0.1
										c-0.1,0-0.1,0-0.1,0.1c0.4,0,1,0.2,1.4,0.3l0,0c0.4,0.1,0.8,0.3,1.3,0.3c0.1,0.1-0.1,0.2,0.3,0.3c0-0.2,0.7,0.1,0.5-0.2
										c0.4,0.1,0.9,0.3,1.2,0.3c-0.2,0,0.1,0.3-0.2,0.2l0.2,0.2c-0.1,0.1-0.2-0.1-0.2,0c0.1,0,0.6,0.1,0.8,0.1
										c0.3,0,0.6-0.2,1.1-0.1c-0.2,0,0.1,0.2-0.1,0.2c0.2-0.1,0.5-0.1,0.7-0.2c0.1,0,0,0.2,0.2,0.1c0,0,0.1-0.1,0.2-0.1
										c0.1,0,0.6,0.1,0.7,0.3c0.1,0.1-0.3,0-0.1,0.1c0.3,0,0.3,0,0.6,0l0,0c0.2,0.1,0.6,0,0.4-0.1c-0.1,0,0,0.1-0.1,0
										c0.1-0.1,0.5-0.1,0.8,0c-0.1,0-0.1,0.1-0.1,0.1c0.4-0.1,0.8-0.1,1.2-0.1c0-0.1-0.2,0.1-0.2,0.1c0.5,0.2,1.1,0,1.6,0.2
										c-0.1,0,0-0.1,0-0.1c0.3,0,0.2,0.2,0.4,0.1c0,0.1,0.2,0,0.4,0c0.1,0,0,0-0.1,0c0.3,0,1.3-0.1,1.8,0.1c0,0,0.4-0.2,0.5-0.1
										l-0.1,0.1c0.1,0.1,0.4,0,0.5,0.1c0.3-0.1-1.1,0.1-0.7,0c0.1,0.1,0.5-0.2,0.4,0c0.3,0,0.5-0.1,0.8,0c-0.1,0-0.2,0.2,0,0.2
										c0.4,0,0.1,0,0.4-0.1h0.2c0-0.1,0.3,0,0.2-0.1c0,0.1,0.6,0,0.5,0.1l-0.1,0.1c0.2,0,0.3-0.2,0.4-0.2c0,0,0.1,0,0.1,0.1
										c0-0.2,0.4,0,0.6-0.1c0.3,0.1,0.9,0,1,0.2c0.3-0.1,0.5-0.2,0.8-0.1c-0.1,0-0.1,0-0.2,0.1c0.2,0.1,0.2,0,0.4,0
										c0,0,0.4,0.1,0.6,0.2c0.3-0.1,0.2-0.2,0.2-0.3c0.3,0.2,0.7-0.2,1,0c-0.1,0-0.4,0.1-0.2,0.2c0.3,0.2,0.5-0.2,0.9-0.1
										l-0.1-0.2c0.2,0.1,0.6-0.1,0.5,0c0.1-0.1,0.5,0,0.4-0.1c0.6,0.1,1.5-0.2,1.9,0.1c0.1,0,0.3,0,0.3-0.1
										c-0.2-0.1-0.2,0.1-0.3,0c0.1,0,0.1-0.1,0.1-0.1c0.2,0,0.4,0,0.2,0.2c0.4,0.1,0.4-0.3,1-0.3c0,0.1,0,0.1,0.2,0.1l0.3-0.2
										c0.4,0,0.2,0.1,0.3,0.3c0.2,0,0.4-0.1,0.5-0.2l0.3,0.1c-0.2-0.1,0.1-0.1,0.2-0.1h-0.1c0,0,0.3,0,0.4,0
										c0-0.1-0.3-0.1-0.4-0.1c0.1-0.1,0.2-0.1,0.4-0.2c0,0.1,0.3,0,0.5,0s0.2-0.1,0.2-0.1c0,0.1,0.3,0,0.2,0.1
										c-0.1,0-0.1,0-0.2,0c0.1,0,0.1,0.1,0.4,0c0.2-0.1-0.1-0.2,0.3-0.2c-0.1,0-0.1,0.1-0.1,0.2h0.3v-0.1c0.1,0,0,0,0,0
										c0.1-0.1,0.5-0.1,0.5-0.3c0.2,0,0.4,0,0.5,0l0,0c0.2,0,0.4-0.1,0.6-0.2l0,0c0.1,0,0.3-0.1,0.4-0.2c0.3,0,0.2,0.4,0.4,0.2
										c0.3-0.1,0.4-0.3,0.2-0.3c0.5,0,1-0.3,1.4-0.3c0.1-0.1,0-0.1,0.1-0.1c0.7-0.1,1.4-0.5,2-0.5c-0.2,0.1,0,0.1,0,0.2
										c0.1-0.1,0.2,0,0.2-0.1c-0.1-0.1,0-0.1-0.2-0.1c0.4-0.2,1-0.4,1.2-0.3c-0.1,0-0.1-0.1,0-0.1c0,0.2,0.3,0.1,0.5,0v-0.1h0.2
										c0.1-0.1,0-0.2,0.3-0.2l0.1,0.1c0.2-0.2,0.5-0.4,0.7-0.4l0.3,0.1c0.1-0.1,0.2-0.2,0-0.2c0.4-0.1,0.7-0.2,0.9-0.1
										c0.6-0.6,1.6-1,2.4-1.4v0.1c0.2,0,0.1-0.2,0.2-0.2c0,0.1,0.2,0.1,0.1,0.2c0.3-0.1,0.3-0.3,0.5-0.4c0-0.1-0.1,0.1-0.1,0
										c0,0,0.4-0.2,0.4-0.3c0.1,0,0.1,0.1,0.1,0.2l0.1-0.2c0.3,0-0.4,0.5,0,0.6l0.2-0.1c0.2,0-0.4,0.4,0.1,0.2
										c0.1-0.2,0.2-0.4,0-0.4c0.4-0.2,0-0.4,0.4-0.6c0.1,0-0.3,0.2-0.2,0.3c0.3,0,0.4-0.3,0.5-0.3c-0.2,0.1-0.1-0.2,0-0.3
										c0.2-0.1-0.1,0.2,0.2,0c0-0.1,0.2-0.3,0-0.2c0-0.2,0.3-0.1,0.4-0.3c0.2,0.1-0.1,0.4,0.2,0.3c-0.1-0.1,0.3-0.4,0-0.4
										c0.1,0,0.2,0,0.2,0.2c0.2,0,0.3-0.5,0.5-0.3v-0.2c0.1,0,0.2,0,0.3,0c0.1-0.1,0.4-0.5,0.5-0.3c0,0,0.4-0.3,0.2-0.3
										c-0.3,0.1-0.2,0.3-0.4,0.2c0.2,0,0.3-0.2,0.4-0.4H70c0.1-0.1,0.2-0.2,0.2-0.3c0,0.1,0,0.1,0.1,0.1v-0.2
										c0.3-0.3,0.2,0.1,0.4-0.1l-0.2,0.2c0,0,0.2,0,0.3-0.2c0-0.1,0-0.3,0-0.4c0.1-0.2,0.1,0,0.2-0.2l-0.1,0.3c0,0,0.2,0,0.4-0.1
										c0.1-0.1,0.2-0.4,0-0.3c0.1-0.1,0.3-0.2,0.3,0c0.2-0.2-0.1-0.1,0.1-0.3c0.1,0,0.4-0.2,0.6-0.2l-0.1,0.3l0.1-0.1
										c-0.1,0.3,0.2,0,0.2,0.2c0.1-0.1,0.2-0.2,0.2-0.3c-0.4,0.1,0.1-0.5-0.2-0.6c0.3-0.4,0.6,0.2,0.7-0.4c-0.1,0-0.1-0.3-0.2,0
										c0.2-0.2,0-0.3,0.3-0.5c-0.1,0.3,0.4,0,0.2,0.3c0-0.1-0.2,0.1-0.2,0.2c0.1,0,0.1,0.2,0.4,0c0.1-0.2,0.3-0.3,0.2-0.4
										c-0.1-0.1-0.2,0.2-0.2,0c0.2-0.3,0.4-0.2,0.3-0.5c-0.1,0.2-0.3,0.2-0.3,0.1l0.1-0.2v0.1c0.3-0.3,0-0.2,0.3-0.5h0.3
										c0,0.2-0.4,0.4-0.2,0.5c0.2-0.2,0.2-0.3,0.4-0.5c0,0.1-0.1,0.1-0.1,0.2c0.1-0.1,0.4,0.1,0.5-0.4c0.1-0.2,0-0.1-0.1-0.2
										c0.3-0.4,0.3-0.5,0.4-0.8c0.1,0.2,0.3-0.4,0.3,0c-0.2,0.1-0.6,0.6-0.5,0.8c0.3,0-0.2,0.3-0.1,0.5c0.2-0.3,0.4-0.2,0.5-0.1
										c0.1-0.1,0.1-0.2,0.1-0.3c-0.1-0.1-0.1,0-0.3-0.1c0.3-0.3,0.5-0.7,0.5-0.9c0.1-0.1,0.2,0,0.1,0.2c0.2-0.4,0.6-0.8,0.8-1.2
										c-0.3,0.2,0.2-0.5,0-0.4c-0.2,0.2-0.4,0.3-0.4,0.1c0.1-0.1,0.1,0,0.1,0c0-0.2,0.3-0.2,0.2-0.4c-0.2,0.4,0.2,0.2,0.3,0.3
										c0.1-0.3,0.1,0.1,0.3-0.2c0.1-0.3,0.2-0.7,0.3-1c0.3-0.3,0.5-1,0.6-1.4c0.1-0.2,0.3,0,0.4-0.2c0.1-0.3-0.3,0.1,0-0.2l0,0
										c0-0.1,0.3-0.7,0.1-0.8l0.1,0.2c0-0.1,0-0.1,0-0.2c0.1,0,0.1,0,0.1,0.1c0.2-0.2,0.1-0.5,0.2-0.8l-0.1,0.1
										c0-0.5,0.2-0.7,0.3-1.2h0.1v-0.3c0.1,0.1,0.2-0.1,0.1-0.3c0.1,0.2,0.1,0.5,0.1,0.7c-0.1,0.2-0.1-0.2-0.2-0.1
										c-0.1,0.1-0.2,0.5-0.1,0.6c0.1-0.2,0-0.2,0-0.3c0.2,0,0.1,0.2,0.2,0.3c0-0.1,0.1-0.2,0-0.2c0,0.2,0,0.3-0.1,0.6
										c0-0.2-0.1,0.1-0.1,0c0.1,0,0.1,0.3,0,0.6c-0.2,0.2-0.1,0.6-0.3,1c-0.1-0.2-0.1-0.4-0.1-0.7c-0.1,0.2-0.1,0.3-0.2,0.5
										c0.1,0.2,0.2,0.3,0.1,0.6h-0.1c-0.1,0.3,0.1,0.3-0.1,0.7c-0.3,0.6-0.6,1.1-0.8,1.6h-0.1c0.1,0.3-0.4,0.8-0.5,1.2
										c-0.4,0.5-0.6,1.2-1,1.3c-0.6,0.9-1.1,1.7-1.9,2.5v-0.2c-0.1,0.2-0.1,0-0.3,0.2c0.2-0.1-0.1,0.3-0.1,0.5
										c-0.4,0.3-0.8,0.8-1.1,1.2l-0.1-0.1c-0.2,0.4-0.7,0.6-1.2,1c-0.1,0-0.2,0-0.3,0.1c-0.1,0.3-0.3,0.4-0.6,0.7
										c-0.3,0.2-0.7,0.4-1,0.6c-0.9,0.9-2.1,1.4-3.1,2.1l-0.1-0.1c-1,0.8-2.4,1.2-3.4,1.7v-0.2c-0.3,0.1-0.7,0.3-0.5,0.4
										c-0.3,0.1-0.7,0.4-1,0.3c-0.3,0.1-0.4,0.2-0.6,0.3c-0.7,0.1-0.9,0.2-1.5,0.5h0.1c0.1-0.1,0-0.2-0.1-0.1
										c-0.2,0.1-0.9,0.2-0.6,0.4c-0.7,0.1-1.5,0.5-2.2,0.5c0.1,0-0.1,0.1-0.1,0.2c-0.6,0.2-1.2,0.2-1.6,0.4
										c-0.1,0,0.1-0.1-0.1-0.1c-0.1,0.1,0,0.1-0.1,0.2c-0.9,0.3-1.9,0.3-2.8,0.4c-1.5,0.4-3.1,0.5-4.6,0.7l0,0
										c-0.5,0.2-1.2-0.1-1.6,0.2c-0.1,0-0.4,0-0.4-0.1c-0.4,0.2-1.1,0-1.7,0.1c0.1,0,0.1,0,0.1,0c-0.6-0.1-1.1,0.1-1.7,0
										c0.1,0,0.2,0,0.2-0.1c-0.2-0.1-0.6,0.2-0.7,0c-0.1,0-0.1,0.1,0,0.1c-1.3-0.1-2.8,0-4.1,0c-1-0.2,0-0.4-0.8-0.3
										c-0.1,0-0.1,0.1-0.1,0c-0.3,0-0.4-0.3-0.7-0.2c0.1,0.2-0.1,0.1-0.2,0.2c-0.6-0.1-0.7-0.3-1.2-0.2v-0.1
										c-0.6,0.2-1.2,0-1.7,0.2c-3.1-0.3-6.1-0.8-9-1.6c-2.9-0.9-5.7-1.8-8.4-3.4c-0.6-0.5-0.6-0.5-1.3-0.9H14
										c-0.1,0.1-0.5-0.3-0.6-0.2c-0.9-0.6-1.9-1.2-2.8-1.9c0.2,0.1,0.3,0,0.1-0.1l-0.3-0.1v-0.1c-0.1-0.1-0.3-0.1-0.2,0
										C7.8,47,6,44.6,4.5,42c-0.3-0.6-0.8-1.5-1.1-2.2c-0.6-2.2-0.9-4.2-1.2-6.4C2.1,33,2.5,33.3,2.7,34.2z"/>
									<path class="st0" d="M79.3,34.4c-0.1,0.1-0.2,0.3-0.3,0.1C79.1,34.5,79.2,34.4,79.3,34.4z"/>
									<path class="st0" d="M76.4,40.4l-0.1,0.1c0-0.1,0-0.2,0.1-0.2C76.3,40.3,76.3,40.3,76.4,40.4z"/>
									<path class="st0" d="M75.5,41.8c-0.1-0.1,0.1-0.4,0.2-0.6L75.5,41.8z"/>
									<path class="st0" d="M74.3,42.8C74.2,42.9,74.2,42.8,74.3,42.8L74.3,42.8z"/>
									<path class="st0" d="M74.4,43c-0.1,0.1-0.1,0.1-0.2,0.2C74.2,43.2,74.3,42.9,74.4,43z"/>
									<path class="st0" d="M72,45.3c-0.1,0.1-0.1,0.2-0.3,0.2C71.8,45.5,71.9,45.2,72,45.3z"/>
									<path class="st0" d="M70.9,46.4c0,0-0.1,0-0.1,0.1c-0.1,0-0.1-0.1,0-0.1H70.9z"/>
									<polygon class="st0" points="44.1,55.6 44.3,55.5 44.3,55.6 									"/>
									<path class="st0" d="M31.5,55.1c-0.2,0-0.1-0.1-0.1-0.1C31.5,55,31.3,55,31.5,55.1z"/>
									<polygon class="st0" points="24.7,54 24.7,54 24.7,54.2 									"/>
								</g>
							</g>
						</g>
					</g>
				</g>
				<g>
					<g>
						<g>
							<g>
								<g>
									<path class="st0" d="M79.3,28.7C79.3,28.7,79.2,28.7,79.3,28.7C79.3,28.7,79.4,28.7,79.3,28.7z"/>
									<path class="st0" d="M79.3,33.8c-0.4-0.1,0-0.1-0.2-0.2h0.2c-0.3-0.1-0.1-0.2,0.1-0.3h0.1h-0.1h0.1c-0.1,0-0.1,0-0.1,0
										c0.1,0,0.1,0,0.2,0h-0.1c-0.3,0,0-0.1-0.1-0.1h0.1c-0.2-0.1-0.2-0.1-0.2-0.2c0.1,0,0.1,0,0.2,0c-0.1,0-0.2,0-0.2,0
										c0.1,0-0.1,0-0.1,0l0,0c-0.1,0,0.1,0-0.1,0h0.1c-0.2,0,0.1,0,0,0l0,0c-0.1,0,0.1,0,0,0l0,0c-0.1,0,0.1,0-0.1,0
										c0.1,0,0.1,0,0.2,0c-0.2-0.1-0.1-0.2-0.1-0.2c0.1,0,0.1,0,0.1,0s0,0-0.1,0h0.1c0.1,0-0.2,0-0.1,0h0.1c-0.1,0-0.1,0-0.1,0
										s0,0,0.1,0c-0.1,0,0,0-0.1,0h0.1c0.1,0-0.2,0-0.1,0h0.1c-0.2,0-0.1,0-0.2-0.1l0,0c0,0,0,0,0-0.1h0.2c-0.2,0-0.1,0-0.3,0
										c0,0,0.1,0,0-0.1c0.1,0,0.2,0,0.2,0h0.1c0.1,0,0,0,0.1,0h-0.1c-0.1,0-0.3,0-0.4,0c0.1,0,0.2,0,0.2,0h-0.4h0.1
										c-0.1,0-0.1,0-0.1,0s-0.1,0,0.1,0c0.1,0,0,0,0.1,0h-0.1l0,0c0,0-0.1,0-0.2,0h0.1c-0.1,0-0.1,0-0.1,0h0.1
										c-0.1,0-0.2,0-0.3-0.1c-0.1,0,0.2,0,0.1,0c0.1,0-0.2-0.1,0-0.1h-0.1h0.1c0.1,0,0,0-0.1,0s0,0,0,0c-0.1,0-0.2-0.1-0.1-0.1
										c-0.1,0-0.2,0-0.2,0h0.1c0.1,0,0,0,0.1,0c-0.1,0,0.1,0.1,0,0c0.1,0-0.2,0,0,0c0,0-0.1,0,0,0c0,0,0.2,0,0.1,0h-0.1h-0.1
										c-0.1,0,0,0-0.1,0c0.1,0-0.1,0,0.1,0h0.1c0,0-0.1,0-0.2,0c0,0,0,0,0.1,0c-0.2,0,0,0-0.1,0c0.1,0,0,0,0.1,0
										c-0.1,0-0.1,0-0.1,0s0,0,0.1,0s0,0,0,0s0.1,0,0.2,0c-0.1,0-0.2,0-0.3,0c0.2,0-0.1,0,0.1-0.1c0,0,0.1,0,0.2,0
										c0.2,0-0.2,0-0.1,0h-0.2c0.1,0-0.1,0,0.1,0c-0.1,0,0.1,0-0.1,0c0.1,0-0.1-0.1,0.2-0.1c0,0,0,0-0.1,0s0.1,0,0,0h-0.1
										c0,0,0.1,0,0.2,0c0.1,0-0.3,0-0.2,0s0.1,0,0.1,0h-0.1c0,0,0.2,0,0.3,0c0,0,0,0-0.1,0h0.2c-0.1,0-0.1,0-0.1,0l0,0
										c0.1,0,0,0,0,0c-0.1,0-0.1,0-0.1,0c-0.1,0,0,0-0.1,0c0.1,0,0.1,0,0.1,0h-0.1c0.1,0,0,0,0.1,0c0,0-0.1,0,0,0s0.2,0,0.1,0
										c-0.1,0-0.2,0-0.2,0h0.1h0.1h-0.1c0,0,0,0,0.1,0c-0.1,0,0,0-0.2,0h0.1l0,0c0.1,0,0,0-0.1,0l0,0c0,0,0,0-0.1,0
										c0.1,0,0.4,0,0.3,0c0,0-0.2,0-0.3,0c0.1,0-0.1,0,0.1-0.1h-0.1c0,0-0.1-0.1,0.1-0.1c0.1,0,0.1,0,0.2,0c-0.1,0,0.1,0-0.1,0
										c-0.1,0-0.1,0-0.2,0c-0.1,0-0.1-0.1,0-0.1c-0.1,0-0.1,0-0.1,0c0.2,0,0.2,0,0.1,0H78h0.1c0,0-0.2,0-0.1,0h0.1
										c-0.1,0-0.2,0-0.1,0h0.1H78c0.1,0,0.1,0,0.2,0c-0.3,0-0.3-0.1-0.3-0.2H78c0.1,0-0.1,0-0.1,0c0.1,0,0.1,0,0.2,0
										c0.1,0-0.1,0-0.2,0c-0.1,0,0.1,0-0.1,0c0,0,0.1,0-0.1,0c0.1,0,0.2,0,0.2,0h-0.1c0.2,0,0.3,0,0.5,0l0,0c0.1,0,0.2,0,0.2,0
										c-0.1,0-0.3,0-0.4,0c0,0-0.4,0-0.3,0c0.1,0,0,0,0.1,0s-0.1,0,0,0c-0.1,0-0.2,0-0.2,0c0.1,0,0.1,0,0.1,0c-0.1,0-0.1,0-0.2,0
										c-0.2,0,0.1,0-0.1,0c0.1,0,0.3,0,0.4,0c-0.1,0-0.2,0-0.4,0c0,0,0.1,0,0.2,0c0.1,0-0.2,0,0,0h-0.1h0.1c0,0-0.2,0,0,0
										c0,0,0,0-0.1,0s0.1,0-0.1,0c0.1,0,0,0-0.1,0h0.1c0,0,0,0-0.1,0h0.1h-0.1c-0.1,0,0.2,0,0.2,0h0.1h0.1c-0.1,0-0.2,0-0.3,0
										s0.1,0,0,0h0.1h0.2c0,0-0.2,0-0.3,0h0.1c0,0-0.1,0-0.2,0c0.1,0,0.2,0,0.3,0h0.2l0,0c0.1,0,0.1,0,0.3,0c0,0,0,0-0.1,0
										c-0.2,0-0.3,0-0.6,0c-0.1,0,0.5,0,0.2,0c-0.1,0-0.2,0-0.2,0s-0.2,0-0.1,0c0.1,0,0.2,0,0.4,0c-0.1,0-0.1,0,0,0s0.2,0,0.2,0
										s0,0-0.1,0s0,0-0.1,0c0,0,0.1,0-0.1,0c0,0-0.1,0-0.2,0h-0.1h0.1c0.1,0-0.1,0-0.1,0h0.2c0.1,0-0.1,0,0.2,0h-0.1
										c0,0,0,0,0.1,0c0,0,0.3,0,0.1,0c-0.1,0-0.1,0-0.2,0h-0.1c0.2,0,0,0,0.2,0c-0.1,0-0.1,0,0.1,0c0.2,0,0,0,0.2,0
										c0,0,0.2,0,0.3,0h-0.1c-0.1,0-0.1,0-0.3,0c0,0,0,0-0.1-0.1c0.1,0,0.2,0,0.2,0s0,0,0-0.1c-0.2,0-0.1,0-0.2,0
										c0,0-0.2,0-0.3,0h0.1c-0.1,0,0.2,0,0,0c0.1,0,0.2,0,0.4,0c-0.1,0,0.1,0,0.1,0c-0.1,0-0.2,0-0.2-0.1c0.1,0,0-0.1,0-0.1
										c0.1,0,0.3,0,0.3,0s-0.2,0-0.1,0l0,0c0,0,0.1,0-0.1,0h0.2c0,0,0,0-0.1,0c0.1,0,0.1,0,0.2,0c0.1,0,0,0,0,0h-0.1
										c-0.1,0,0,0,0-0.1h0.1h-0.1c0.1,0,0.2,0,0.1,0h0.3c-0.1,0-0.1,0-0.2,0c-0.1,0-0.1,0,0,0c0,0,0,0-0.1,0c0.1,0,0.1,0,0.3,0
										l0,0c0.1,0,0.1,0,0.1,0c-0.1,0-0.1,0-0.1,0c0.1,0,0.2,0,0.1,0c-0.2,0,0.1,0,0.1,0c-0.1,0-0.3,0-0.3,0c-0.1,0,0,0-0.1,0
										c0.1,0,0.3,0,0.3,0h-0.1c0.1,0,0.2,0,0.2,0c-0.1,0-0.1,0.1-0.1,0.1h-0.1c0.2,0,0.1,0,0.2,0.1c-0.1,0,0.1,0.1-0.1,0.1
										c0.1,0.1,0.1,0.1,0.1,0.2h-0.1c0.1,0-0.1,0-0.1,0c0.1,0,0.1,0,0.2,0c-0.1,0,0,0.1,0.1,0.1h-0.1c0.2,0,0,0,0,0.1h-0.1
										c0.2,0,0.1,0,0.3,0c0,0,0,0-0.1,0.1c0.2,0.1,0.1,0.1,0.2,0.2h-0.1c0.3,0.1,0,0.1,0.1,0.2H79c-0.1,0,0.1,0,0.2,0
										c-0.1,0,0.1,0-0.1,0h0.1c-0.1,0-0.1,0,0,0.1l0,0h-0.1c0.1,0-0.1,0,0.2,0c-0.1,0,0.1,0.1-0.1,0.1c0.1,0,0.1,0,0.1,0
										s-0.1,0.1,0,0.1h-0.1h0.1c0.1,0-0.1,0.1-0.1,0.2c0.1,0.1,0.1,0.2,0.1,0.2h-0.1c0.2,0-0.2,0.1,0.1,0.1c-0.1,0,0,0-0.1,0
										c0.1,0-0.1,0.1,0,0.1l0,0c-0.1,0,0,0.1-0.1,0.1c0,0,0,0-0.1,0s0.2,0,0,0h0.1c-0.1,0.1,0.1,0.2,0.1,0.2c-0.1,0-0.4,0-0.2,0
										c-0.1,0,0.1,0,0,0c0.1,0-0.3,0-0.1,0c0.1,0,0.1,0,0.2,0c-0.1,0-0.2,0-0.1,0.1h-0.1c0.2,0,0.1,0.1,0.4,0.1
										c0,0.2,0.2,0.3,0.2,0.5c-0.1,0.2,0.1,0.3-0.1,0.5c-0.2,0-0.2,0-0.1,0.1c0,0,0,0-0.1,0c0.2,0,0,0,0.2,0c0,0.1,0,0.1,0,0.2
										h-0.1h0.1h-0.1c0,0,0.1,0,0.2,0c0.1,0.2-0.2,0.3-0.1,0.5c-0.1,0,0,0.1,0,0.1c-0.2,0.1-0.4,0.2-0.2,0.3
										C79.8,33.9,79.4,33.8,79.3,33.8z"/>
									<path class="st0" d="M79.4,28.7c-0.1,0-0.1,0-0.2,0C79.2,28.7,79.3,28.7,79.4,28.7z"/>
									<path class="st0" d="M78.5,29.1L78.5,29.1C78.5,29.1,78.4,29.1,78.5,29.1C78.4,29.1,78.5,29.1,78.5,29.1z"/>
									<path class="st0" d="M78.5,29.2c-0.1,0-0.1,0-0.1,0H78.5z"/>
									<path class="st0" d="M78.2,29.3C78.1,29.3,78.1,29.3,78.2,29.3C78.1,29.2,78.1,29.2,78.2,29.3z"/>
									<path class="st0" d="M78.3,29.3L78.3,29.3C78.3,29.3,78.2,29.3,78.3,29.3z"/>
									<path class="st0" d="M78.1,29.4C78.1,29.4,78.2,29.5,78.1,29.4C78.2,29.5,78,29.4,78.1,29.4z"/>
									<path class="st0" d="M78.2,29.5L78.2,29.5C78.2,29.5,78.1,29.5,78.2,29.5L78.2,29.5z"/>
									<polygon class="st0" points="78.5,31.1 78.5,31.1 78.6,31.1 									"/>
									<path class="st0" d="M78.5,31.8C78.6,31.8,78.5,31.8,78.5,31.8C78.4,31.8,78.5,31.8,78.5,31.8z"/>
									<polygon class="st0" points="78.9,32.1 78.9,32.1 79,32.1 									"/>
								</g>
							</g>
						</g>
					</g>
				</g>
			</g>
		</g>
	</g>
</g>
</svg>
